ISO-10303-21;
HEADER;
/* Generated by software containing ST-Developer
 * from STEP Tools, Inc. (www.steptools.com) 
 */

FILE_DESCRIPTION(
/* description */ (''),
/* implementation_level */ '2;1');

FILE_NAME(
/* name */ 'oledzik.stp',
/* time_stamp */ '2026-03-28T00:19:56+01:00',
/* author */ ('szymo'),
/* organization */ (''),
/* preprocessor_version */ 'ST-DEVELOPER v20.1',
/* originating_system */ 'Autodesk Inventor 2026',
/* authorisation */ '');

FILE_SCHEMA (('AUTOMOTIVE_DESIGN { 1 0 10303 214 3 1 1 }'));
ENDSEC;

DATA;
#10=MECHANICAL_DESIGN_GEOMETRIC_PRESENTATION_REPRESENTATION('',(#24,#25,
#26,#27),#1191);
#11=SHAPE_REPRESENTATION_RELATIONSHIP('SRR','None',#1198,#12);
#12=ADVANCED_BREP_SHAPE_REPRESENTATION('',(#28,#29,#30,#31),#1190);
#13=FACE_BOUND('',#108,.T.);
#14=CIRCLE('',#763,1.3);
#15=CIRCLE('',#764,1.3);
#16=CIRCLE('',#769,1.35);
#17=CIRCLE('',#772,1.35);
#18=ELLIPSE('',#762,2.80324454793811,1.3);
#19=ELLIPSE('',#765,2.80324454793811,1.3);
#20=ELLIPSE('',#770,2.91106164593573,1.35);
#21=ELLIPSE('',#771,2.91106164593573,1.35);
#22=CYLINDRICAL_SURFACE('',#761,1.3);
#23=CYLINDRICAL_SURFACE('',#768,1.35);
#24=STYLED_ITEM('',(#1208),#28);
#25=STYLED_ITEM('',(#1207),#29);
#26=STYLED_ITEM('',(#1209),#30);
#27=STYLED_ITEM('',(#1210),#31);
#28=MANIFOLD_SOLID_BREP('Solid2',#723);
#29=MANIFOLD_SOLID_BREP('Solid3',#724);
#30=MANIFOLD_SOLID_BREP('Solid4',#725);
#31=MANIFOLD_SOLID_BREP('Solid5',#726);
#32=FACE_OUTER_BOUND('',#73,.T.);
#33=FACE_OUTER_BOUND('',#74,.T.);
#34=FACE_OUTER_BOUND('',#75,.T.);
#35=FACE_OUTER_BOUND('',#76,.T.);
#36=FACE_OUTER_BOUND('',#77,.T.);
#37=FACE_OUTER_BOUND('',#78,.T.);
#38=FACE_OUTER_BOUND('',#79,.T.);
#39=FACE_OUTER_BOUND('',#80,.T.);
#40=FACE_OUTER_BOUND('',#81,.T.);
#41=FACE_OUTER_BOUND('',#82,.T.);
#42=FACE_OUTER_BOUND('',#83,.T.);
#43=FACE_OUTER_BOUND('',#84,.T.);
#44=FACE_OUTER_BOUND('',#85,.T.);
#45=FACE_OUTER_BOUND('',#86,.T.);
#46=FACE_OUTER_BOUND('',#87,.T.);
#47=FACE_OUTER_BOUND('',#88,.T.);
#48=FACE_OUTER_BOUND('',#89,.T.);
#49=FACE_OUTER_BOUND('',#90,.T.);
#50=FACE_OUTER_BOUND('',#91,.T.);
#51=FACE_OUTER_BOUND('',#92,.T.);
#52=FACE_OUTER_BOUND('',#93,.T.);
#53=FACE_OUTER_BOUND('',#94,.T.);
#54=FACE_OUTER_BOUND('',#95,.T.);
#55=FACE_OUTER_BOUND('',#96,.T.);
#56=FACE_OUTER_BOUND('',#97,.T.);
#57=FACE_OUTER_BOUND('',#98,.T.);
#58=FACE_OUTER_BOUND('',#99,.T.);
#59=FACE_OUTER_BOUND('',#100,.T.);
#60=FACE_OUTER_BOUND('',#101,.T.);
#61=FACE_OUTER_BOUND('',#102,.T.);
#62=FACE_OUTER_BOUND('',#103,.T.);
#63=FACE_OUTER_BOUND('',#104,.T.);
#64=FACE_OUTER_BOUND('',#105,.T.);
#65=FACE_OUTER_BOUND('',#106,.T.);
#66=FACE_OUTER_BOUND('',#107,.T.);
#67=FACE_OUTER_BOUND('',#109,.T.);
#68=FACE_OUTER_BOUND('',#110,.T.);
#69=FACE_OUTER_BOUND('',#111,.T.);
#70=FACE_OUTER_BOUND('',#112,.T.);
#71=FACE_OUTER_BOUND('',#113,.T.);
#72=FACE_OUTER_BOUND('',#114,.T.);
#73=EDGE_LOOP('',(#451,#452,#453,#454));
#74=EDGE_LOOP('',(#455,#456,#457,#458));
#75=EDGE_LOOP('',(#459,#460,#461,#462));
#76=EDGE_LOOP('',(#463,#464,#465,#466));
#77=EDGE_LOOP('',(#467,#468,#469,#470));
#78=EDGE_LOOP('',(#471,#472,#473,#474));
#79=EDGE_LOOP('',(#475,#476,#477,#478));
#80=EDGE_LOOP('',(#479,#480,#481,#482));
#81=EDGE_LOOP('',(#483,#484,#485,#486));
#82=EDGE_LOOP('',(#487,#488,#489,#490));
#83=EDGE_LOOP('',(#491,#492,#493,#494));
#84=EDGE_LOOP('',(#495,#496,#497,#498));
#85=EDGE_LOOP('',(#499,#500,#501,#502,#503,#504));
#86=EDGE_LOOP('',(#505,#506,#507,#508));
#87=EDGE_LOOP('',(#509,#510,#511,#512));
#88=EDGE_LOOP('',(#513,#514,#515,#516,#517,#518));
#89=EDGE_LOOP('',(#519,#520,#521,#522,#523,#524));
#90=EDGE_LOOP('',(#525,#526,#527,#528,#529,#530));
#91=EDGE_LOOP('',(#531,#532,#533,#534));
#92=EDGE_LOOP('',(#535,#536,#537,#538,#539,#540,#541,#542));
#93=EDGE_LOOP('',(#543,#544,#545,#546));
#94=EDGE_LOOP('',(#547,#548,#549,#550,#551,#552,#553,#554));
#95=EDGE_LOOP('',(#555,#556,#557,#558,#559,#560));
#96=EDGE_LOOP('',(#561,#562,#563,#564));
#97=EDGE_LOOP('',(#565,#566,#567,#568));
#98=EDGE_LOOP('',(#569,#570,#571,#572,#573,#574));
#99=EDGE_LOOP('',(#575,#576,#577,#578));
#100=EDGE_LOOP('',(#579,#580,#581,#582));
#101=EDGE_LOOP('',(#583,#584,#585,#586,#587,#588));
#102=EDGE_LOOP('',(#589,#590,#591,#592,#593,#594));
#103=EDGE_LOOP('',(#595,#596,#597,#598));
#104=EDGE_LOOP('',(#599,#600,#601,#602));
#105=EDGE_LOOP('',(#603,#604,#605,#606));
#106=EDGE_LOOP('',(#607,#608,#609,#610));
#107=EDGE_LOOP('',(#611,#612,#613,#614));
#108=EDGE_LOOP('',(#615,#616,#617,#618));
#109=EDGE_LOOP('',(#619,#620,#621,#622));
#110=EDGE_LOOP('',(#623,#624,#625,#626));
#111=EDGE_LOOP('',(#627,#628,#629,#630));
#112=EDGE_LOOP('',(#631,#632,#633,#634));
#113=EDGE_LOOP('',(#635,#636,#637,#638));
#114=EDGE_LOOP('',(#639,#640,#641,#642));
#115=LINE('',#990,#203);
#116=LINE('',#992,#204);
#117=LINE('',#994,#205);
#118=LINE('',#995,#206);
#119=LINE('',#998,#207);
#120=LINE('',#1000,#208);
#121=LINE('',#1001,#209);
#122=LINE('',#1004,#210);
#123=LINE('',#1006,#211);
#124=LINE('',#1007,#212);
#125=LINE('',#1009,#213);
#126=LINE('',#1010,#214);
#127=LINE('',#1016,#215);
#128=LINE('',#1018,#216);
#129=LINE('',#1020,#217);
#130=LINE('',#1021,#218);
#131=LINE('',#1024,#219);
#132=LINE('',#1026,#220);
#133=LINE('',#1027,#221);
#134=LINE('',#1030,#222);
#135=LINE('',#1031,#223);
#136=LINE('',#1034,#224);
#137=LINE('',#1035,#225);
#138=LINE('',#1037,#226);
#139=LINE('',#1046,#227);
#140=LINE('',#1051,#228);
#141=LINE('',#1055,#229);
#142=LINE('',#1057,#230);
#143=LINE('',#1059,#231);
#144=LINE('',#1060,#232);
#145=LINE('',#1064,#233);
#146=LINE('',#1066,#234);
#147=LINE('',#1068,#235);
#148=LINE('',#1069,#236);
#149=LINE('',#1077,#237);
#150=LINE('',#1082,#238);
#151=LINE('',#1084,#239);
#152=LINE('',#1085,#240);
#153=LINE('',#1086,#241);
#154=LINE('',#1088,#242);
#155=LINE('',#1089,#243);
#156=LINE('',#1090,#244);
#157=LINE('',#1094,#245);
#158=LINE('',#1096,#246);
#159=LINE('',#1098,#247);
#160=LINE('',#1099,#248);
#161=LINE('',#1102,#249);
#162=LINE('',#1104,#250);
#163=LINE('',#1105,#251);
#164=LINE('',#1107,#252);
#165=LINE('',#1109,#253);
#166=LINE('',#1110,#254);
#167=LINE('',#1115,#255);
#168=LINE('',#1116,#256);
#169=LINE('',#1118,#257);
#170=LINE('',#1120,#258);
#171=LINE('',#1121,#259);
#172=LINE('',#1122,#260);
#173=LINE('',#1124,#261);
#174=LINE('',#1125,#262);
#175=LINE('',#1127,#263);
#176=LINE('',#1130,#264);
#177=LINE('',#1131,#265);
#178=LINE('',#1133,#266);
#179=LINE('',#1140,#267);
#180=LINE('',#1142,#268);
#181=LINE('',#1144,#269);
#182=LINE('',#1145,#270);
#183=LINE('',#1148,#271);
#184=LINE('',#1150,#272);
#185=LINE('',#1151,#273);
#186=LINE('',#1154,#274);
#187=LINE('',#1156,#275);
#188=LINE('',#1157,#276);
#189=LINE('',#1159,#277);
#190=LINE('',#1160,#278);
#191=LINE('',#1164,#279);
#192=LINE('',#1166,#280);
#193=LINE('',#1168,#281);
#194=LINE('',#1169,#282);
#195=LINE('',#1173,#283);
#196=LINE('',#1175,#284);
#197=LINE('',#1176,#285);
#198=LINE('',#1179,#286);
#199=LINE('',#1180,#287);
#200=LINE('',#1183,#288);
#201=LINE('',#1184,#289);
#202=LINE('',#1186,#290);
#203=VECTOR('',#802,16.6);
#204=VECTOR('',#803,0.9);
#205=VECTOR('',#804,16.6);
#206=VECTOR('',#805,0.9);
#207=VECTOR('',#808,24.6);
#208=VECTOR('',#809,0.9);
#209=VECTOR('',#810,24.6);
#210=VECTOR('',#813,16.6);
#211=VECTOR('',#814,0.9);
#212=VECTOR('',#815,16.6);
#213=VECTOR('',#818,24.6);
#214=VECTOR('',#819,24.6);
#215=VECTOR('',#826,22.6);
#216=VECTOR('',#827,14.6);
#217=VECTOR('',#828,22.6);
#218=VECTOR('',#829,14.6);
#219=VECTOR('',#832,0.6);
#220=VECTOR('',#833,14.6);
#221=VECTOR('',#834,0.600000000000007);
#222=VECTOR('',#837,22.6);
#223=VECTOR('',#838,0.6);
#224=VECTOR('',#841,14.6);
#225=VECTOR('',#842,0.6);
#226=VECTOR('',#845,22.6);
#227=VECTOR('',#854,8.2);
#228=VECTOR('',#859,11.4477611940299);
#229=VECTOR('',#862,3.);
#230=VECTOR('',#863,0.0500000000000014);
#231=VECTOR('',#864,3.);
#232=VECTOR('',#865,0.05);
#233=VECTOR('',#868,0.0500000000000014);
#234=VECTOR('',#869,3.);
#235=VECTOR('',#870,0.05);
#236=VECTOR('',#871,3.);
#237=VECTOR('',#878,11.4477611940299);
#238=VECTOR('',#883,8.2);
#239=VECTOR('',#886,5.39085489988094);
#240=VECTOR('',#887,21.);
#241=VECTOR('',#888,5.39085489988095);
#242=VECTOR('',#891,5.39085489988094);
#243=VECTOR('',#892,5.39085489988095);
#244=VECTOR('',#893,21.);
#245=VECTOR('',#896,0.0500000000000012);
#246=VECTOR('',#897,13.);
#247=VECTOR('',#898,0.0500000000000012);
#248=VECTOR('',#899,13.);
#249=VECTOR('',#902,2.5);
#250=VECTOR('',#903,2.4);
#251=VECTOR('',#904,3.89999999999998);
#252=VECTOR('',#905,3.89999999999998);
#253=VECTOR('',#906,2.4);
#254=VECTOR('',#907,2.5);
#255=VECTOR('',#912,2.4);
#256=VECTOR('',#913,2.5);
#257=VECTOR('',#914,2.5);
#258=VECTOR('',#915,2.4);
#259=VECTOR('',#916,3.89999999999998);
#260=VECTOR('',#917,3.89999999999998);
#261=VECTOR('',#920,0.0500000000000012);
#262=VECTOR('',#921,0.0651930695248527);
#263=VECTOR('',#924,0.0500000000000012);
#264=VECTOR('',#929,0.0651930695248527);
#265=VECTOR('',#930,0.0500000000000012);
#266=VECTOR('',#933,0.0500000000000012);
#267=VECTOR('',#942,13.);
#268=VECTOR('',#943,0.0999999999999995);
#269=VECTOR('',#944,13.);
#270=VECTOR('',#945,0.0999999999999995);
#271=VECTOR('',#948,24.6);
#272=VECTOR('',#949,0.0999999999999995);
#273=VECTOR('',#950,24.6);
#274=VECTOR('',#953,13.);
#275=VECTOR('',#954,0.0999999999999995);
#276=VECTOR('',#955,13.);
#277=VECTOR('',#958,24.6);
#278=VECTOR('',#959,24.6);
#279=VECTOR('',#962,21.8097126253419);
#280=VECTOR('',#963,10.904856312671);
#281=VECTOR('',#964,21.8097126253419);
#282=VECTOR('',#965,10.904856312671);
#283=VECTOR('',#970,0.00099999999999989);
#284=VECTOR('',#971,21.8097126253419);
#285=VECTOR('',#972,0.00099999999999989);
#286=VECTOR('',#975,10.904856312671);
#287=VECTOR('',#976,0.00099999999999989);
#288=VECTOR('',#979,21.8097126253419);
#289=VECTOR('',#980,0.00099999999999989);
#290=VECTOR('',#983,10.904856312671);
#291=VERTEX_POINT('',#988);
#292=VERTEX_POINT('',#989);
#293=VERTEX_POINT('',#991);
#294=VERTEX_POINT('',#993);
#295=VERTEX_POINT('',#997);
#296=VERTEX_POINT('',#999);
#297=VERTEX_POINT('',#1003);
#298=VERTEX_POINT('',#1005);
#299=VERTEX_POINT('',#1014);
#300=VERTEX_POINT('',#1015);
#301=VERTEX_POINT('',#1017);
#302=VERTEX_POINT('',#1019);
#303=VERTEX_POINT('',#1023);
#304=VERTEX_POINT('',#1025);
#305=VERTEX_POINT('',#1029);
#306=VERTEX_POINT('',#1033);
#307=VERTEX_POINT('',#1040);
#308=VERTEX_POINT('',#1041);
#309=VERTEX_POINT('',#1043);
#310=VERTEX_POINT('',#1045);
#311=VERTEX_POINT('',#1047);
#312=VERTEX_POINT('',#1049);
#313=VERTEX_POINT('',#1053);
#314=VERTEX_POINT('',#1054);
#315=VERTEX_POINT('',#1056);
#316=VERTEX_POINT('',#1058);
#317=VERTEX_POINT('',#1062);
#318=VERTEX_POINT('',#1063);
#319=VERTEX_POINT('',#1065);
#320=VERTEX_POINT('',#1067);
#321=VERTEX_POINT('',#1071);
#322=VERTEX_POINT('',#1072);
#323=VERTEX_POINT('',#1074);
#324=VERTEX_POINT('',#1076);
#325=VERTEX_POINT('',#1078);
#326=VERTEX_POINT('',#1080);
#327=VERTEX_POINT('',#1092);
#328=VERTEX_POINT('',#1093);
#329=VERTEX_POINT('',#1095);
#330=VERTEX_POINT('',#1097);
#331=VERTEX_POINT('',#1101);
#332=VERTEX_POINT('',#1103);
#333=VERTEX_POINT('',#1106);
#334=VERTEX_POINT('',#1108);
#335=VERTEX_POINT('',#1113);
#336=VERTEX_POINT('',#1114);
#337=VERTEX_POINT('',#1117);
#338=VERTEX_POINT('',#1119);
#339=VERTEX_POINT('',#1138);
#340=VERTEX_POINT('',#1139);
#341=VERTEX_POINT('',#1141);
#342=VERTEX_POINT('',#1143);
#343=VERTEX_POINT('',#1147);
#344=VERTEX_POINT('',#1149);
#345=VERTEX_POINT('',#1153);
#346=VERTEX_POINT('',#1155);
#347=VERTEX_POINT('',#1162);
#348=VERTEX_POINT('',#1163);
#349=VERTEX_POINT('',#1165);
#350=VERTEX_POINT('',#1167);
#351=VERTEX_POINT('',#1172);
#352=VERTEX_POINT('',#1174);
#353=VERTEX_POINT('',#1178);
#354=VERTEX_POINT('',#1182);
#355=EDGE_CURVE('',#291,#292,#115,.T.);
#356=EDGE_CURVE('',#293,#292,#116,.T.);
#357=EDGE_CURVE('',#294,#293,#117,.T.);
#358=EDGE_CURVE('',#294,#291,#118,.T.);
#359=EDGE_CURVE('',#292,#295,#119,.T.);
#360=EDGE_CURVE('',#296,#295,#120,.T.);
#361=EDGE_CURVE('',#293,#296,#121,.T.);
#362=EDGE_CURVE('',#295,#297,#122,.T.);
#363=EDGE_CURVE('',#298,#297,#123,.T.);
#364=EDGE_CURVE('',#296,#298,#124,.T.);
#365=EDGE_CURVE('',#297,#291,#125,.T.);
#366=EDGE_CURVE('',#298,#294,#126,.T.);
#367=EDGE_CURVE('',#299,#300,#127,.T.);
#368=EDGE_CURVE('',#301,#299,#128,.T.);
#369=EDGE_CURVE('',#302,#301,#129,.T.);
#370=EDGE_CURVE('',#300,#302,#130,.T.);
#371=EDGE_CURVE('',#303,#299,#131,.T.);
#372=EDGE_CURVE('',#303,#304,#132,.T.);
#373=EDGE_CURVE('',#304,#301,#133,.T.);
#374=EDGE_CURVE('',#304,#305,#134,.T.);
#375=EDGE_CURVE('',#305,#302,#135,.T.);
#376=EDGE_CURVE('',#305,#306,#136,.T.);
#377=EDGE_CURVE('',#306,#300,#137,.T.);
#378=EDGE_CURVE('',#306,#303,#138,.T.);
#379=EDGE_CURVE('',#307,#308,#18,.F.);
#380=EDGE_CURVE('',#307,#309,#14,.F.);
#381=EDGE_CURVE('',#310,#309,#139,.T.);
#382=EDGE_CURVE('',#310,#311,#15,.F.);
#383=EDGE_CURVE('',#312,#311,#19,.F.);
#384=EDGE_CURVE('',#312,#308,#140,.T.);
#385=EDGE_CURVE('',#313,#314,#141,.T.);
#386=EDGE_CURVE('',#315,#314,#142,.T.);
#387=EDGE_CURVE('',#316,#315,#143,.T.);
#388=EDGE_CURVE('',#313,#316,#144,.T.);
#389=EDGE_CURVE('',#317,#318,#145,.T.);
#390=EDGE_CURVE('',#319,#318,#146,.T.);
#391=EDGE_CURVE('',#319,#320,#147,.T.);
#392=EDGE_CURVE('',#320,#317,#148,.T.);
#393=EDGE_CURVE('',#321,#322,#16,.F.);
#394=EDGE_CURVE('',#321,#323,#20,.F.);
#395=EDGE_CURVE('',#324,#323,#149,.T.);
#396=EDGE_CURVE('',#324,#325,#21,.F.);
#397=EDGE_CURVE('',#326,#325,#17,.F.);
#398=EDGE_CURVE('',#326,#322,#150,.T.);
#399=EDGE_CURVE('',#323,#317,#151,.T.);
#400=EDGE_CURVE('',#316,#320,#152,.T.);
#401=EDGE_CURVE('',#315,#324,#153,.T.);
#402=EDGE_CURVE('',#308,#318,#154,.T.);
#403=EDGE_CURVE('',#314,#312,#155,.T.);
#404=EDGE_CURVE('',#313,#319,#156,.T.);
#405=EDGE_CURVE('',#327,#328,#157,.T.);
#406=EDGE_CURVE('',#329,#327,#158,.T.);
#407=EDGE_CURVE('',#329,#330,#159,.T.);
#408=EDGE_CURVE('',#330,#328,#160,.T.);
#409=EDGE_CURVE('',#331,#327,#161,.T.);
#410=EDGE_CURVE('',#332,#331,#162,.T.);
#411=EDGE_CURVE('',#322,#332,#163,.T.);
#412=EDGE_CURVE('',#333,#326,#164,.T.);
#413=EDGE_CURVE('',#334,#333,#165,.T.);
#414=EDGE_CURVE('',#329,#334,#166,.T.);
#415=EDGE_CURVE('',#335,#336,#167,.T.);
#416=EDGE_CURVE('',#336,#328,#168,.T.);
#417=EDGE_CURVE('',#330,#337,#169,.T.);
#418=EDGE_CURVE('',#337,#338,#170,.T.);
#419=EDGE_CURVE('',#338,#310,#171,.T.);
#420=EDGE_CURVE('',#309,#335,#172,.T.);
#421=EDGE_CURVE('',#332,#335,#173,.T.);
#422=EDGE_CURVE('',#321,#307,#174,.T.);
#423=EDGE_CURVE('',#331,#336,#175,.T.);
#424=EDGE_CURVE('',#325,#311,#176,.T.);
#425=EDGE_CURVE('',#333,#338,#177,.T.);
#426=EDGE_CURVE('',#334,#337,#178,.T.);
#427=EDGE_CURVE('',#339,#340,#179,.T.);
#428=EDGE_CURVE('',#341,#340,#180,.T.);
#429=EDGE_CURVE('',#342,#341,#181,.T.);
#430=EDGE_CURVE('',#342,#339,#182,.T.);
#431=EDGE_CURVE('',#340,#343,#183,.T.);
#432=EDGE_CURVE('',#344,#343,#184,.T.);
#433=EDGE_CURVE('',#341,#344,#185,.T.);
#434=EDGE_CURVE('',#343,#345,#186,.T.);
#435=EDGE_CURVE('',#346,#345,#187,.T.);
#436=EDGE_CURVE('',#344,#346,#188,.T.);
#437=EDGE_CURVE('',#345,#339,#189,.T.);
#438=EDGE_CURVE('',#346,#342,#190,.T.);
#439=EDGE_CURVE('',#347,#348,#191,.T.);
#440=EDGE_CURVE('',#349,#347,#192,.T.);
#441=EDGE_CURVE('',#350,#349,#193,.T.);
#442=EDGE_CURVE('',#348,#350,#194,.T.);
#443=EDGE_CURVE('',#351,#348,#195,.T.);
#444=EDGE_CURVE('',#352,#351,#196,.T.);
#445=EDGE_CURVE('',#352,#347,#197,.T.);
#446=EDGE_CURVE('',#353,#352,#198,.T.);
#447=EDGE_CURVE('',#353,#349,#199,.T.);
#448=EDGE_CURVE('',#354,#353,#200,.T.);
#449=EDGE_CURVE('',#354,#350,#201,.T.);
#450=EDGE_CURVE('',#351,#354,#202,.T.);
#451=ORIENTED_EDGE('',*,*,#355,.T.);
#452=ORIENTED_EDGE('',*,*,#356,.F.);
#453=ORIENTED_EDGE('',*,*,#357,.F.);
#454=ORIENTED_EDGE('',*,*,#358,.T.);
#455=ORIENTED_EDGE('',*,*,#359,.T.);
#456=ORIENTED_EDGE('',*,*,#360,.F.);
#457=ORIENTED_EDGE('',*,*,#361,.F.);
#458=ORIENTED_EDGE('',*,*,#356,.T.);
#459=ORIENTED_EDGE('',*,*,#362,.T.);
#460=ORIENTED_EDGE('',*,*,#363,.F.);
#461=ORIENTED_EDGE('',*,*,#364,.F.);
#462=ORIENTED_EDGE('',*,*,#360,.T.);
#463=ORIENTED_EDGE('',*,*,#365,.T.);
#464=ORIENTED_EDGE('',*,*,#358,.F.);
#465=ORIENTED_EDGE('',*,*,#366,.F.);
#466=ORIENTED_EDGE('',*,*,#363,.T.);
#467=ORIENTED_EDGE('',*,*,#357,.T.);
#468=ORIENTED_EDGE('',*,*,#361,.T.);
#469=ORIENTED_EDGE('',*,*,#364,.T.);
#470=ORIENTED_EDGE('',*,*,#366,.T.);
#471=ORIENTED_EDGE('',*,*,#355,.F.);
#472=ORIENTED_EDGE('',*,*,#365,.F.);
#473=ORIENTED_EDGE('',*,*,#362,.F.);
#474=ORIENTED_EDGE('',*,*,#359,.F.);
#475=ORIENTED_EDGE('',*,*,#367,.F.);
#476=ORIENTED_EDGE('',*,*,#368,.F.);
#477=ORIENTED_EDGE('',*,*,#369,.F.);
#478=ORIENTED_EDGE('',*,*,#370,.F.);
#479=ORIENTED_EDGE('',*,*,#371,.F.);
#480=ORIENTED_EDGE('',*,*,#372,.T.);
#481=ORIENTED_EDGE('',*,*,#373,.T.);
#482=ORIENTED_EDGE('',*,*,#368,.T.);
#483=ORIENTED_EDGE('',*,*,#373,.F.);
#484=ORIENTED_EDGE('',*,*,#374,.T.);
#485=ORIENTED_EDGE('',*,*,#375,.T.);
#486=ORIENTED_EDGE('',*,*,#369,.T.);
#487=ORIENTED_EDGE('',*,*,#375,.F.);
#488=ORIENTED_EDGE('',*,*,#376,.T.);
#489=ORIENTED_EDGE('',*,*,#377,.T.);
#490=ORIENTED_EDGE('',*,*,#370,.T.);
#491=ORIENTED_EDGE('',*,*,#377,.F.);
#492=ORIENTED_EDGE('',*,*,#378,.T.);
#493=ORIENTED_EDGE('',*,*,#371,.T.);
#494=ORIENTED_EDGE('',*,*,#367,.T.);
#495=ORIENTED_EDGE('',*,*,#376,.F.);
#496=ORIENTED_EDGE('',*,*,#374,.F.);
#497=ORIENTED_EDGE('',*,*,#372,.F.);
#498=ORIENTED_EDGE('',*,*,#378,.F.);
#499=ORIENTED_EDGE('',*,*,#379,.F.);
#500=ORIENTED_EDGE('',*,*,#380,.T.);
#501=ORIENTED_EDGE('',*,*,#381,.F.);
#502=ORIENTED_EDGE('',*,*,#382,.T.);
#503=ORIENTED_EDGE('',*,*,#383,.F.);
#504=ORIENTED_EDGE('',*,*,#384,.T.);
#505=ORIENTED_EDGE('',*,*,#385,.T.);
#506=ORIENTED_EDGE('',*,*,#386,.F.);
#507=ORIENTED_EDGE('',*,*,#387,.F.);
#508=ORIENTED_EDGE('',*,*,#388,.F.);
#509=ORIENTED_EDGE('',*,*,#389,.T.);
#510=ORIENTED_EDGE('',*,*,#390,.F.);
#511=ORIENTED_EDGE('',*,*,#391,.T.);
#512=ORIENTED_EDGE('',*,*,#392,.T.);
#513=ORIENTED_EDGE('',*,*,#393,.F.);
#514=ORIENTED_EDGE('',*,*,#394,.T.);
#515=ORIENTED_EDGE('',*,*,#395,.F.);
#516=ORIENTED_EDGE('',*,*,#396,.T.);
#517=ORIENTED_EDGE('',*,*,#397,.F.);
#518=ORIENTED_EDGE('',*,*,#398,.T.);
#519=ORIENTED_EDGE('',*,*,#395,.T.);
#520=ORIENTED_EDGE('',*,*,#399,.T.);
#521=ORIENTED_EDGE('',*,*,#392,.F.);
#522=ORIENTED_EDGE('',*,*,#400,.F.);
#523=ORIENTED_EDGE('',*,*,#387,.T.);
#524=ORIENTED_EDGE('',*,*,#401,.T.);
#525=ORIENTED_EDGE('',*,*,#402,.F.);
#526=ORIENTED_EDGE('',*,*,#384,.F.);
#527=ORIENTED_EDGE('',*,*,#403,.F.);
#528=ORIENTED_EDGE('',*,*,#385,.F.);
#529=ORIENTED_EDGE('',*,*,#404,.T.);
#530=ORIENTED_EDGE('',*,*,#390,.T.);
#531=ORIENTED_EDGE('',*,*,#405,.F.);
#532=ORIENTED_EDGE('',*,*,#406,.F.);
#533=ORIENTED_EDGE('',*,*,#407,.T.);
#534=ORIENTED_EDGE('',*,*,#408,.T.);
#535=ORIENTED_EDGE('',*,*,#409,.F.);
#536=ORIENTED_EDGE('',*,*,#410,.F.);
#537=ORIENTED_EDGE('',*,*,#411,.F.);
#538=ORIENTED_EDGE('',*,*,#398,.F.);
#539=ORIENTED_EDGE('',*,*,#412,.F.);
#540=ORIENTED_EDGE('',*,*,#413,.F.);
#541=ORIENTED_EDGE('',*,*,#414,.F.);
#542=ORIENTED_EDGE('',*,*,#406,.T.);
#543=ORIENTED_EDGE('',*,*,#391,.F.);
#544=ORIENTED_EDGE('',*,*,#404,.F.);
#545=ORIENTED_EDGE('',*,*,#388,.T.);
#546=ORIENTED_EDGE('',*,*,#400,.T.);
#547=ORIENTED_EDGE('',*,*,#415,.T.);
#548=ORIENTED_EDGE('',*,*,#416,.T.);
#549=ORIENTED_EDGE('',*,*,#408,.F.);
#550=ORIENTED_EDGE('',*,*,#417,.T.);
#551=ORIENTED_EDGE('',*,*,#418,.T.);
#552=ORIENTED_EDGE('',*,*,#419,.T.);
#553=ORIENTED_EDGE('',*,*,#381,.T.);
#554=ORIENTED_EDGE('',*,*,#420,.T.);
#555=ORIENTED_EDGE('',*,*,#411,.T.);
#556=ORIENTED_EDGE('',*,*,#421,.T.);
#557=ORIENTED_EDGE('',*,*,#420,.F.);
#558=ORIENTED_EDGE('',*,*,#380,.F.);
#559=ORIENTED_EDGE('',*,*,#422,.F.);
#560=ORIENTED_EDGE('',*,*,#393,.T.);
#561=ORIENTED_EDGE('',*,*,#410,.T.);
#562=ORIENTED_EDGE('',*,*,#423,.T.);
#563=ORIENTED_EDGE('',*,*,#415,.F.);
#564=ORIENTED_EDGE('',*,*,#421,.F.);
#565=ORIENTED_EDGE('',*,*,#409,.T.);
#566=ORIENTED_EDGE('',*,*,#405,.T.);
#567=ORIENTED_EDGE('',*,*,#416,.F.);
#568=ORIENTED_EDGE('',*,*,#423,.F.);
#569=ORIENTED_EDGE('',*,*,#412,.T.);
#570=ORIENTED_EDGE('',*,*,#397,.T.);
#571=ORIENTED_EDGE('',*,*,#424,.T.);
#572=ORIENTED_EDGE('',*,*,#382,.F.);
#573=ORIENTED_EDGE('',*,*,#419,.F.);
#574=ORIENTED_EDGE('',*,*,#425,.F.);
#575=ORIENTED_EDGE('',*,*,#413,.T.);
#576=ORIENTED_EDGE('',*,*,#425,.T.);
#577=ORIENTED_EDGE('',*,*,#418,.F.);
#578=ORIENTED_EDGE('',*,*,#426,.F.);
#579=ORIENTED_EDGE('',*,*,#414,.T.);
#580=ORIENTED_EDGE('',*,*,#426,.T.);
#581=ORIENTED_EDGE('',*,*,#417,.F.);
#582=ORIENTED_EDGE('',*,*,#407,.F.);
#583=ORIENTED_EDGE('',*,*,#401,.F.);
#584=ORIENTED_EDGE('',*,*,#386,.T.);
#585=ORIENTED_EDGE('',*,*,#403,.T.);
#586=ORIENTED_EDGE('',*,*,#383,.T.);
#587=ORIENTED_EDGE('',*,*,#424,.F.);
#588=ORIENTED_EDGE('',*,*,#396,.F.);
#589=ORIENTED_EDGE('',*,*,#422,.T.);
#590=ORIENTED_EDGE('',*,*,#379,.T.);
#591=ORIENTED_EDGE('',*,*,#402,.T.);
#592=ORIENTED_EDGE('',*,*,#389,.F.);
#593=ORIENTED_EDGE('',*,*,#399,.F.);
#594=ORIENTED_EDGE('',*,*,#394,.F.);
#595=ORIENTED_EDGE('',*,*,#427,.T.);
#596=ORIENTED_EDGE('',*,*,#428,.F.);
#597=ORIENTED_EDGE('',*,*,#429,.F.);
#598=ORIENTED_EDGE('',*,*,#430,.T.);
#599=ORIENTED_EDGE('',*,*,#431,.T.);
#600=ORIENTED_EDGE('',*,*,#432,.F.);
#601=ORIENTED_EDGE('',*,*,#433,.F.);
#602=ORIENTED_EDGE('',*,*,#428,.T.);
#603=ORIENTED_EDGE('',*,*,#434,.T.);
#604=ORIENTED_EDGE('',*,*,#435,.F.);
#605=ORIENTED_EDGE('',*,*,#436,.F.);
#606=ORIENTED_EDGE('',*,*,#432,.T.);
#607=ORIENTED_EDGE('',*,*,#437,.T.);
#608=ORIENTED_EDGE('',*,*,#430,.F.);
#609=ORIENTED_EDGE('',*,*,#438,.F.);
#610=ORIENTED_EDGE('',*,*,#435,.T.);
#611=ORIENTED_EDGE('',*,*,#429,.T.);
#612=ORIENTED_EDGE('',*,*,#433,.T.);
#613=ORIENTED_EDGE('',*,*,#436,.T.);
#614=ORIENTED_EDGE('',*,*,#438,.T.);
#615=ORIENTED_EDGE('',*,*,#439,.F.);
#616=ORIENTED_EDGE('',*,*,#440,.F.);
#617=ORIENTED_EDGE('',*,*,#441,.F.);
#618=ORIENTED_EDGE('',*,*,#442,.F.);
#619=ORIENTED_EDGE('',*,*,#427,.F.);
#620=ORIENTED_EDGE('',*,*,#437,.F.);
#621=ORIENTED_EDGE('',*,*,#434,.F.);
#622=ORIENTED_EDGE('',*,*,#431,.F.);
#623=ORIENTED_EDGE('',*,*,#439,.T.);
#624=ORIENTED_EDGE('',*,*,#443,.F.);
#625=ORIENTED_EDGE('',*,*,#444,.F.);
#626=ORIENTED_EDGE('',*,*,#445,.T.);
#627=ORIENTED_EDGE('',*,*,#440,.T.);
#628=ORIENTED_EDGE('',*,*,#445,.F.);
#629=ORIENTED_EDGE('',*,*,#446,.F.);
#630=ORIENTED_EDGE('',*,*,#447,.T.);
#631=ORIENTED_EDGE('',*,*,#441,.T.);
#632=ORIENTED_EDGE('',*,*,#447,.F.);
#633=ORIENTED_EDGE('',*,*,#448,.F.);
#634=ORIENTED_EDGE('',*,*,#449,.T.);
#635=ORIENTED_EDGE('',*,*,#442,.T.);
#636=ORIENTED_EDGE('',*,*,#449,.F.);
#637=ORIENTED_EDGE('',*,*,#450,.F.);
#638=ORIENTED_EDGE('',*,*,#443,.T.);
#639=ORIENTED_EDGE('',*,*,#444,.T.);
#640=ORIENTED_EDGE('',*,*,#450,.T.);
#641=ORIENTED_EDGE('',*,*,#448,.T.);
#642=ORIENTED_EDGE('',*,*,#446,.T.);
#643=PLANE('',#749);
#644=PLANE('',#750);
#645=PLANE('',#751);
#646=PLANE('',#752);
#647=PLANE('',#753);
#648=PLANE('',#754);
#649=PLANE('',#755);
#650=PLANE('',#756);
#651=PLANE('',#757);
#652=PLANE('',#758);
#653=PLANE('',#759);
#654=PLANE('',#760);
#655=PLANE('',#766);
#656=PLANE('',#767);
#657=PLANE('',#773);
#658=PLANE('',#774);
#659=PLANE('',#775);
#660=PLANE('',#776);
#661=PLANE('',#777);
#662=PLANE('',#778);
#663=PLANE('',#779);
#664=PLANE('',#780);
#665=PLANE('',#781);
#666=PLANE('',#782);
#667=PLANE('',#783);
#668=PLANE('',#784);
#669=PLANE('',#785);
#670=PLANE('',#786);
#671=PLANE('',#787);
#672=PLANE('',#788);
#673=PLANE('',#789);
#674=PLANE('',#790);
#675=PLANE('',#791);
#676=PLANE('',#792);
#677=PLANE('',#793);
#678=PLANE('',#794);
#679=PLANE('',#795);
#680=PLANE('',#796);
#681=PLANE('',#797);
#682=ADVANCED_FACE('',(#32),#643,.F.);
#683=ADVANCED_FACE('',(#33),#644,.F.);
#684=ADVANCED_FACE('',(#34),#645,.F.);
#685=ADVANCED_FACE('',(#35),#646,.F.);
#686=ADVANCED_FACE('',(#36),#647,.T.);
#687=ADVANCED_FACE('',(#37),#648,.F.);
#688=ADVANCED_FACE('',(#38),#649,.F.);
#689=ADVANCED_FACE('',(#39),#650,.F.);
#690=ADVANCED_FACE('',(#40),#651,.F.);
#691=ADVANCED_FACE('',(#41),#652,.F.);
#692=ADVANCED_FACE('',(#42),#653,.F.);
#693=ADVANCED_FACE('',(#43),#654,.F.);
#694=ADVANCED_FACE('',(#44),#22,.F.);
#695=ADVANCED_FACE('',(#45),#655,.T.);
#696=ADVANCED_FACE('',(#46),#656,.F.);
#697=ADVANCED_FACE('',(#47),#23,.T.);
#698=ADVANCED_FACE('',(#48),#657,.T.);
#699=ADVANCED_FACE('',(#49),#658,.F.);
#700=ADVANCED_FACE('',(#50),#659,.T.);
#701=ADVANCED_FACE('',(#51),#660,.T.);
#702=ADVANCED_FACE('',(#52),#661,.T.);
#703=ADVANCED_FACE('',(#53),#662,.F.);
#704=ADVANCED_FACE('',(#54),#663,.F.);
#705=ADVANCED_FACE('',(#55),#664,.F.);
#706=ADVANCED_FACE('',(#56),#665,.F.);
#707=ADVANCED_FACE('',(#57),#666,.F.);
#708=ADVANCED_FACE('',(#58),#667,.F.);
#709=ADVANCED_FACE('',(#59),#668,.F.);
#710=ADVANCED_FACE('',(#60),#669,.T.);
#711=ADVANCED_FACE('',(#61),#670,.T.);
#712=ADVANCED_FACE('',(#62),#671,.F.);
#713=ADVANCED_FACE('',(#63),#672,.F.);
#714=ADVANCED_FACE('',(#64),#673,.F.);
#715=ADVANCED_FACE('',(#65),#674,.F.);
#716=ADVANCED_FACE('',(#66,#13),#675,.T.);
#717=ADVANCED_FACE('',(#67),#676,.F.);
#718=ADVANCED_FACE('',(#68),#677,.F.);
#719=ADVANCED_FACE('',(#69),#678,.F.);
#720=ADVANCED_FACE('',(#70),#679,.F.);
#721=ADVANCED_FACE('',(#71),#680,.F.);
#722=ADVANCED_FACE('',(#72),#681,.T.);
#723=CLOSED_SHELL('',(#682,#683,#684,#685,#686,#687));
#724=CLOSED_SHELL('',(#688,#689,#690,#691,#692,#693));
#725=CLOSED_SHELL('',(#694,#695,#696,#697,#698,#699,#700,#701,#702,#703,
#704,#705,#706,#707,#708,#709,#710,#711));
#726=CLOSED_SHELL('',(#712,#713,#714,#715,#716,#717,#718,#719,#720,#721,
#722));
#727=DERIVED_UNIT_ELEMENT(#730,1.);
#728=DERIVED_UNIT_ELEMENT(#1193,-3.);
#729=DIMENSIONAL_EXPONENTS(0.,1.,0.,0.,0.,0.,0.);
#730=(
CONVERSION_BASED_UNIT('gram',#732)
MASS_UNIT()
NAMED_UNIT(#729)
);
#731=(
MASS_UNIT()
NAMED_UNIT(*)
SI_UNIT(.KILO.,.GRAM.)
);
#732=MASS_MEASURE_WITH_UNIT(MASS_MEASURE(0.001),#731);
#733=DERIVED_UNIT((#727,#728));
#734=MEASURE_REPRESENTATION_ITEM('density measure',
POSITIVE_RATIO_MEASURE(1.),#733);
#735=PROPERTY_DEFINITION_REPRESENTATION(#740,#737);
#736=PROPERTY_DEFINITION_REPRESENTATION(#741,#738);
#737=REPRESENTATION('material name',(#739),#1190);
#738=REPRESENTATION('density',(#734),#1190);
#739=DESCRIPTIVE_REPRESENTATION_ITEM('Generic','Generic');
#740=PROPERTY_DEFINITION('material property','material name',#1200);
#741=PROPERTY_DEFINITION('material property','density of part',#1200);
#742=DATE_TIME_ROLE('creation_date');
#743=APPLIED_DATE_AND_TIME_ASSIGNMENT(#744,#742,(#1200));
#744=DATE_AND_TIME(#745,#746);
#745=CALENDAR_DATE(2025,26,10);
#746=LOCAL_TIME(9,35,20.,#747);
#747=COORDINATED_UNIVERSAL_TIME_OFFSET(0,0,.BEHIND.);
#748=AXIS2_PLACEMENT_3D('',#986,#798,#799);
#749=AXIS2_PLACEMENT_3D('',#987,#800,#801);
#750=AXIS2_PLACEMENT_3D('',#996,#806,#807);
#751=AXIS2_PLACEMENT_3D('',#1002,#811,#812);
#752=AXIS2_PLACEMENT_3D('',#1008,#816,#817);
#753=AXIS2_PLACEMENT_3D('',#1011,#820,#821);
#754=AXIS2_PLACEMENT_3D('',#1012,#822,#823);
#755=AXIS2_PLACEMENT_3D('',#1013,#824,#825);
#756=AXIS2_PLACEMENT_3D('',#1022,#830,#831);
#757=AXIS2_PLACEMENT_3D('',#1028,#835,#836);
#758=AXIS2_PLACEMENT_3D('',#1032,#839,#840);
#759=AXIS2_PLACEMENT_3D('',#1036,#843,#844);
#760=AXIS2_PLACEMENT_3D('',#1038,#846,#847);
#761=AXIS2_PLACEMENT_3D('',#1039,#848,#849);
#762=AXIS2_PLACEMENT_3D('',#1042,#850,#851);
#763=AXIS2_PLACEMENT_3D('',#1044,#852,#853);
#764=AXIS2_PLACEMENT_3D('',#1048,#855,#856);
#765=AXIS2_PLACEMENT_3D('',#1050,#857,#858);
#766=AXIS2_PLACEMENT_3D('',#1052,#860,#861);
#767=AXIS2_PLACEMENT_3D('',#1061,#866,#867);
#768=AXIS2_PLACEMENT_3D('',#1070,#872,#873);
#769=AXIS2_PLACEMENT_3D('',#1073,#874,#875);
#770=AXIS2_PLACEMENT_3D('',#1075,#876,#877);
#771=AXIS2_PLACEMENT_3D('',#1079,#879,#880);
#772=AXIS2_PLACEMENT_3D('',#1081,#881,#882);
#773=AXIS2_PLACEMENT_3D('',#1083,#884,#885);
#774=AXIS2_PLACEMENT_3D('',#1087,#889,#890);
#775=AXIS2_PLACEMENT_3D('',#1091,#894,#895);
#776=AXIS2_PLACEMENT_3D('',#1100,#900,#901);
#777=AXIS2_PLACEMENT_3D('',#1111,#908,#909);
#778=AXIS2_PLACEMENT_3D('',#1112,#910,#911);
#779=AXIS2_PLACEMENT_3D('',#1123,#918,#919);
#780=AXIS2_PLACEMENT_3D('',#1126,#922,#923);
#781=AXIS2_PLACEMENT_3D('',#1128,#925,#926);
#782=AXIS2_PLACEMENT_3D('',#1129,#927,#928);
#783=AXIS2_PLACEMENT_3D('',#1132,#931,#932);
#784=AXIS2_PLACEMENT_3D('',#1134,#934,#935);
#785=AXIS2_PLACEMENT_3D('',#1135,#936,#937);
#786=AXIS2_PLACEMENT_3D('',#1136,#938,#939);
#787=AXIS2_PLACEMENT_3D('',#1137,#940,#941);
#788=AXIS2_PLACEMENT_3D('',#1146,#946,#947);
#789=AXIS2_PLACEMENT_3D('',#1152,#951,#952);
#790=AXIS2_PLACEMENT_3D('',#1158,#956,#957);
#791=AXIS2_PLACEMENT_3D('',#1161,#960,#961);
#792=AXIS2_PLACEMENT_3D('',#1170,#966,#967);
#793=AXIS2_PLACEMENT_3D('',#1171,#968,#969);
#794=AXIS2_PLACEMENT_3D('',#1177,#973,#974);
#795=AXIS2_PLACEMENT_3D('',#1181,#977,#978);
#796=AXIS2_PLACEMENT_3D('',#1185,#981,#982);
#797=AXIS2_PLACEMENT_3D('',#1187,#984,#985);
#798=DIRECTION('axis',(0.,0.,1.));
#799=DIRECTION('refdir',(1.,0.,0.));
#800=DIRECTION('center_axis',(1.,2.09002828430941E-16,0.));
#801=DIRECTION('ref_axis',(0.,0.,-1.));
#802=DIRECTION('',(1.33761810195802E-16,-1.,0.));
#803=DIRECTION('',(0.,0.,-1.));
#804=DIRECTION('',(1.33761810195802E-16,-1.,0.));
#805=DIRECTION('',(0.,0.,-1.));
#806=DIRECTION('center_axis',(0.,1.,0.));
#807=DIRECTION('ref_axis',(0.,0.,1.));
#808=DIRECTION('',(1.,0.,0.));
#809=DIRECTION('',(0.,0.,-1.));
#810=DIRECTION('',(1.,0.,0.));
#811=DIRECTION('center_axis',(-1.,2.09002828430941E-16,0.));
#812=DIRECTION('ref_axis',(0.,0.,1.));
#813=DIRECTION('',(1.33761810195802E-16,1.,0.));
#814=DIRECTION('',(0.,0.,-1.));
#815=DIRECTION('',(1.33761810195802E-16,1.,0.));
#816=DIRECTION('center_axis',(0.,-1.,0.));
#817=DIRECTION('ref_axis',(0.,0.,-1.));
#818=DIRECTION('',(-1.,0.,0.));
#819=DIRECTION('',(-1.,0.,0.));
#820=DIRECTION('center_axis',(0.,0.,1.));
#821=DIRECTION('ref_axis',(1.,0.,0.));
#822=DIRECTION('center_axis',(0.,0.,1.));
#823=DIRECTION('ref_axis',(1.,0.,0.));
#824=DIRECTION('center_axis',(0.,0.,-1.));
#825=DIRECTION('ref_axis',(-1.,0.,0.));
#826=DIRECTION('',(-1.,0.,0.));
#827=DIRECTION('',(-3.04170691678125E-16,-1.,0.));
#828=DIRECTION('',(1.,0.,0.));
#829=DIRECTION('',(-3.04170691678125E-16,1.,0.));
#830=DIRECTION('center_axis',(-1.,2.37633352873535E-16,0.));
#831=DIRECTION('ref_axis',(0.,0.,1.));
#832=DIRECTION('',(0.,0.,1.));
#833=DIRECTION('',(3.04170691678125E-16,1.,0.));
#834=DIRECTION('',(0.,0.,1.));
#835=DIRECTION('center_axis',(0.,-1.,0.));
#836=DIRECTION('ref_axis',(0.,0.,-1.));
#837=DIRECTION('',(-1.,0.,0.));
#838=DIRECTION('',(0.,0.,1.));
#839=DIRECTION('center_axis',(1.,2.37633352873535E-16,0.));
#840=DIRECTION('ref_axis',(0.,0.,-1.));
#841=DIRECTION('',(3.04170691678125E-16,-1.,0.));
#842=DIRECTION('',(0.,0.,1.));
#843=DIRECTION('center_axis',(0.,1.,0.));
#844=DIRECTION('ref_axis',(0.,0.,1.));
#845=DIRECTION('',(1.,0.,0.));
#846=DIRECTION('center_axis',(0.,0.,1.));
#847=DIRECTION('ref_axis',(1.,0.,0.));
#848=DIRECTION('center_axis',(-1.,0.,0.));
#849=DIRECTION('ref_axis',(0.,0.,1.));
#850=DIRECTION('center_axis',(-0.463748337959383,-0.885966974011961,0.));
#851=DIRECTION('ref_axis',(-0.885966974011961,0.463748337959383,0.));
#852=DIRECTION('center_axis',(1.,3.30423519233678E-16,0.));
#853=DIRECTION('ref_axis',(-3.30423519233678E-16,1.,0.));
#854=DIRECTION('',(-1.,0.,0.));
#855=DIRECTION('center_axis',(-1.,0.,0.));
#856=DIRECTION('ref_axis',(0.,0.,1.));
#857=DIRECTION('center_axis',(0.463748337959383,-0.88596697401196,0.));
#858=DIRECTION('ref_axis',(-0.88596697401196,-0.463748337959383,0.));
#859=DIRECTION('',(-1.,0.,0.));
#860=DIRECTION('center_axis',(1.,0.,0.));
#861=DIRECTION('ref_axis',(0.,0.,-1.));
#862=DIRECTION('',(0.,-1.,-3.1540426835942E-16));
#863=DIRECTION('',(0.,0.,1.));
#864=DIRECTION('',(0.,-1.,-3.18032637262415E-16));
#865=DIRECTION('',(0.,0.,-1.));
#866=DIRECTION('center_axis',(1.,0.,0.));
#867=DIRECTION('ref_axis',(0.,0.,-1.));
#868=DIRECTION('',(0.,0.,1.));
#869=DIRECTION('',(0.,-1.,-3.1540426835942E-16));
#870=DIRECTION('',(0.,0.,-1.));
#871=DIRECTION('',(0.,-1.,-3.18032637262414E-16));
#872=DIRECTION('center_axis',(-1.,0.,0.));
#873=DIRECTION('ref_axis',(0.,0.,1.));
#874=DIRECTION('center_axis',(1.,3.30423519233678E-16,0.));
#875=DIRECTION('ref_axis',(-3.30423519233678E-16,1.,0.));
#876=DIRECTION('center_axis',(-0.463748337959383,-0.885966974011961,0.));
#877=DIRECTION('ref_axis',(-0.885966974011961,0.463748337959383,0.));
#878=DIRECTION('',(-1.,0.,0.));
#879=DIRECTION('center_axis',(0.463748337959383,-0.88596697401196,0.));
#880=DIRECTION('ref_axis',(-0.88596697401196,-0.463748337959383,0.));
#881=DIRECTION('center_axis',(-1.,0.,0.));
#882=DIRECTION('ref_axis',(0.,0.,1.));
#883=DIRECTION('',(-1.,0.,0.));
#884=DIRECTION('center_axis',(0.,3.1540426835942E-16,-1.));
#885=DIRECTION('ref_axis',(-1.,0.,0.));
#886=DIRECTION('',(-0.885966974011961,0.463748337959382,1.46414473442214E-16));
#887=DIRECTION('',(-1.,0.,0.));
#888=DIRECTION('',(-0.885966974011961,-0.463748337959382,-1.44805523184607E-16));
#889=DIRECTION('center_axis',(0.,3.1540426835942E-16,-1.));
#890=DIRECTION('ref_axis',(-1.,0.,0.));
#891=DIRECTION('',(-0.885966974011961,0.463748337959382,1.46268205236976E-16));
#892=DIRECTION('',(-0.885966974011961,-0.463748337959382,-1.46268205236977E-16));
#893=DIRECTION('',(-1.,0.,0.));
#894=DIRECTION('center_axis',(0.,1.,0.));
#895=DIRECTION('ref_axis',(0.,0.,1.));
#896=DIRECTION('',(0.,0.,-1.));
#897=DIRECTION('',(-1.,0.,0.));
#898=DIRECTION('',(0.,0.,-1.));
#899=DIRECTION('',(-1.,0.,0.));
#900=DIRECTION('center_axis',(0.,-1.39897054514259E-16,1.));
#901=DIRECTION('ref_axis',(1.,0.,0.));
#902=DIRECTION('',(0.,1.,2.22044604925031E-16));
#903=DIRECTION('',(-1.,0.,0.));
#904=DIRECTION('',(-1.42336285208354E-16,1.,1.42336285208354E-16));
#905=DIRECTION('',(0.,-1.,-1.42336285208354E-16));
#906=DIRECTION('',(-1.,-1.85037170770859E-15,0.));
#907=DIRECTION('',(8.88178419700125E-16,-1.,-2.22044604925031E-16));
#908=DIRECTION('center_axis',(0.,1.,0.));
#909=DIRECTION('ref_axis',(0.,0.,1.));
#910=DIRECTION('center_axis',(0.,-1.39897054514259E-16,1.));
#911=DIRECTION('ref_axis',(1.,0.,0.));
#912=DIRECTION('',(-1.,0.,0.));
#913=DIRECTION('',(0.,1.,0.));
#914=DIRECTION('',(8.88178419700125E-16,-1.,0.));
#915=DIRECTION('',(-1.,-1.85037170770859E-15,0.));
#916=DIRECTION('',(0.,-1.,-1.42336285208354E-16));
#917=DIRECTION('',(-1.42336285208354E-16,1.,1.42336285208354E-16));
#918=DIRECTION('center_axis',(1.,3.30423519233678E-16,0.));
#919=DIRECTION('ref_axis',(0.,0.,-1.));
#920=DIRECTION('',(0.,0.,-1.));
#921=DIRECTION('',(0.,0.,1.));
#922=DIRECTION('center_axis',(0.,1.,0.));
#923=DIRECTION('ref_axis',(0.,0.,1.));
#924=DIRECTION('',(0.,0.,-1.));
#925=DIRECTION('center_axis',(1.,0.,0.));
#926=DIRECTION('ref_axis',(0.,0.,-1.));
#927=DIRECTION('center_axis',(-1.,0.,0.));
#928=DIRECTION('ref_axis',(0.,0.,1.));
#929=DIRECTION('',(0.,0.,1.));
#930=DIRECTION('',(0.,0.,-1.));
#931=DIRECTION('center_axis',(-1.44560289664734E-15,1.,0.));
#932=DIRECTION('ref_axis',(0.,0.,1.));
#933=DIRECTION('',(0.,0.,-1.));
#934=DIRECTION('center_axis',(-1.,-6.93889390390723E-16,0.));
#935=DIRECTION('ref_axis',(0.,0.,1.));
#936=DIRECTION('center_axis',(0.463748337959383,-0.88596697401196,0.));
#937=DIRECTION('ref_axis',(0.,0.,-1.));
#938=DIRECTION('center_axis',(-0.463748337959383,-0.885966974011961,0.));
#939=DIRECTION('ref_axis',(0.,0.,-1.));
#940=DIRECTION('center_axis',(1.,1.33440267382831E-16,0.));
#941=DIRECTION('ref_axis',(0.,0.,-1.));
#942=DIRECTION('',(1.70803542250024E-16,-1.,0.));
#943=DIRECTION('',(0.,0.,-1.));
#944=DIRECTION('',(1.70803542250024E-16,-1.,0.));
#945=DIRECTION('',(0.,0.,-1.));
#946=DIRECTION('center_axis',(0.,1.,0.));
#947=DIRECTION('ref_axis',(0.,0.,1.));
#948=DIRECTION('',(1.,0.,0.));
#949=DIRECTION('',(0.,0.,-1.));
#950=DIRECTION('',(1.,0.,0.));
#951=DIRECTION('center_axis',(-1.,0.,0.));
#952=DIRECTION('ref_axis',(0.,0.,1.));
#953=DIRECTION('',(0.,1.,0.));
#954=DIRECTION('',(0.,0.,-1.));
#955=DIRECTION('',(0.,1.,0.));
#956=DIRECTION('center_axis',(0.,-1.,0.));
#957=DIRECTION('ref_axis',(0.,0.,-1.));
#958=DIRECTION('',(-1.,0.,0.));
#959=DIRECTION('',(-1.,0.,0.));
#960=DIRECTION('center_axis',(0.,0.,1.));
#961=DIRECTION('ref_axis',(1.,0.,0.));
#962=DIRECTION('',(-1.,-2.03619927267657E-16,0.));
#963=DIRECTION('',(0.,1.,0.));
#964=DIRECTION('',(1.,0.,0.));
#965=DIRECTION('',(0.,-1.,0.));
#966=DIRECTION('center_axis',(0.,0.,1.));
#967=DIRECTION('ref_axis',(1.,0.,0.));
#968=DIRECTION('center_axis',(-1.98847585222321E-16,1.,0.));
#969=DIRECTION('ref_axis',(0.,0.,1.));
#970=DIRECTION('',(0.,0.,1.));
#971=DIRECTION('',(-1.,-2.03619927267657E-16,0.));
#972=DIRECTION('',(0.,0.,1.));
#973=DIRECTION('center_axis',(1.,0.,0.));
#974=DIRECTION('ref_axis',(0.,0.,-1.));
#975=DIRECTION('',(0.,1.,0.));
#976=DIRECTION('',(0.,0.,1.));
#977=DIRECTION('center_axis',(0.,-1.,0.));
#978=DIRECTION('ref_axis',(0.,0.,-1.));
#979=DIRECTION('',(1.,0.,0.));
#980=DIRECTION('',(0.,0.,1.));
#981=DIRECTION('center_axis',(-1.,0.,0.));
#982=DIRECTION('ref_axis',(0.,0.,1.));
#983=DIRECTION('',(0.,-1.,0.));
#984=DIRECTION('center_axis',(0.,0.,1.));
#985=DIRECTION('ref_axis',(1.,0.,0.));
#986=CARTESIAN_POINT('',(0.,0.,0.));
#987=CARTESIAN_POINT('Origin',(-12.3,-5.,2.6));
#988=CARTESIAN_POINT('',(-12.3,-5.,1.7));
#989=CARTESIAN_POINT('',(-12.3,-21.6,1.7));
#990=CARTESIAN_POINT('',(-12.3,-5.,1.7));
#991=CARTESIAN_POINT('',(-12.3,-21.6,2.6));
#992=CARTESIAN_POINT('',(-12.3,-21.6,2.6));
#993=CARTESIAN_POINT('',(-12.3,-5.,2.6));
#994=CARTESIAN_POINT('',(-12.3,-5.,2.6));
#995=CARTESIAN_POINT('',(-12.3,-5.,2.6));
#996=CARTESIAN_POINT('Origin',(-12.3,-21.6,2.6));
#997=CARTESIAN_POINT('',(12.3,-21.6,1.7));
#998=CARTESIAN_POINT('',(-12.3,-21.6,1.7));
#999=CARTESIAN_POINT('',(12.3,-21.6,2.6));
#1000=CARTESIAN_POINT('',(12.3,-21.6,2.6));
#1001=CARTESIAN_POINT('',(-12.3,-21.6,2.6));
#1002=CARTESIAN_POINT('Origin',(12.3,-5.,2.6));
#1003=CARTESIAN_POINT('',(12.3,-5.,1.7));
#1004=CARTESIAN_POINT('',(12.3,-21.6,1.7));
#1005=CARTESIAN_POINT('',(12.3,-5.,2.6));
#1006=CARTESIAN_POINT('',(12.3,-5.,2.6));
#1007=CARTESIAN_POINT('',(12.3,-21.6,2.6));
#1008=CARTESIAN_POINT('Origin',(-12.3,-5.,2.6));
#1009=CARTESIAN_POINT('',(12.3,-5.,1.7));
#1010=CARTESIAN_POINT('',(12.3,-5.,2.6));
#1011=CARTESIAN_POINT('Origin',(0.,0.,2.6));
#1012=CARTESIAN_POINT('Origin',(0.,0.,1.7));
#1013=CARTESIAN_POINT('Origin',(0.,0.,1.7));
#1014=CARTESIAN_POINT('',(11.3,-20.6,1.7));
#1015=CARTESIAN_POINT('',(-11.3,-20.6,1.7));
#1016=CARTESIAN_POINT('',(11.3,-20.6,1.7));
#1017=CARTESIAN_POINT('',(11.3,-6.,1.7));
#1018=CARTESIAN_POINT('',(11.3,-6.,1.7));
#1019=CARTESIAN_POINT('',(-11.3,-6.,1.7));
#1020=CARTESIAN_POINT('',(-11.3,-6.,1.7));
#1021=CARTESIAN_POINT('',(-11.3,-20.6,1.7));
#1022=CARTESIAN_POINT('Origin',(11.3,-6.,-25.8057614647867));
#1023=CARTESIAN_POINT('',(11.3,-20.6,1.1));
#1024=CARTESIAN_POINT('',(11.3,-20.6,1.09999999999999));
#1025=CARTESIAN_POINT('',(11.3,-6.,1.09999999999999));
#1026=CARTESIAN_POINT('',(11.3,-20.6,1.1));
#1027=CARTESIAN_POINT('',(11.3,-6.,1.09999999999999));
#1028=CARTESIAN_POINT('Origin',(-11.3,-6.,-25.8057614647867));
#1029=CARTESIAN_POINT('',(-11.3,-6.,1.1));
#1030=CARTESIAN_POINT('',(11.3,-6.,1.1));
#1031=CARTESIAN_POINT('',(-11.3,-6.,1.09999999999999));
#1032=CARTESIAN_POINT('Origin',(-11.3,-20.6,-25.8057614647867));
#1033=CARTESIAN_POINT('',(-11.3,-20.6,1.1));
#1034=CARTESIAN_POINT('',(-11.3,-6.,1.1));
#1035=CARTESIAN_POINT('',(-11.3,-20.6,1.09999999999999));
#1036=CARTESIAN_POINT('Origin',(11.3,-20.6,-25.8057614647867));
#1037=CARTESIAN_POINT('',(-11.3,-20.6,1.1));
#1038=CARTESIAN_POINT('Origin',(0.,0.,1.1));
#1039=CARTESIAN_POINT('Origin',(10.5,-24.7,1.3));
#1040=CARTESIAN_POINT('',(-4.1,-25.55,0.316384221354687));
#1041=CARTESIAN_POINT('',(-5.72388059701493,-24.7,-1.73472347597681E-15));
#1042=CARTESIAN_POINT('Origin',(-5.72388059701493,-24.7,1.3));
#1043=CARTESIAN_POINT('',(-4.1,-24.7,2.6));
#1044=CARTESIAN_POINT('Origin',(-4.1,-24.7,1.3));
#1045=CARTESIAN_POINT('',(4.1,-24.7,2.6));
#1046=CARTESIAN_POINT('',(4.1,-24.7,2.6));
#1047=CARTESIAN_POINT('',(4.1,-25.55,0.316384221354698));
#1048=CARTESIAN_POINT('Origin',(4.1,-24.7,1.3));
#1049=CARTESIAN_POINT('',(5.72388059701492,-24.7,-1.73472347597681E-15));
#1050=CARTESIAN_POINT('Origin',(5.72388059701493,-24.7,1.3));
#1051=CARTESIAN_POINT('',(5.72388059701493,-24.7,-1.95156391047391E-15));
#1052=CARTESIAN_POINT('Origin',(10.5,-24.7,1.3));
#1053=CARTESIAN_POINT('',(10.5,-19.2,0.));
#1054=CARTESIAN_POINT('',(10.5,-22.2,-6.93889390390723E-15));
#1055=CARTESIAN_POINT('',(10.5,-19.2,0.));
#1056=CARTESIAN_POINT('',(10.5,-22.2,-0.0500000000000084));
#1057=CARTESIAN_POINT('',(10.5,-22.2,-0.0500000000000153));
#1058=CARTESIAN_POINT('',(10.5,-19.2,-0.05));
#1059=CARTESIAN_POINT('',(10.5,-19.2,-0.05));
#1060=CARTESIAN_POINT('',(10.5,-19.2,0.));
#1061=CARTESIAN_POINT('Origin',(-10.5,-24.7,1.3));
#1062=CARTESIAN_POINT('',(-10.5,-22.2,-0.0500000000000084));
#1063=CARTESIAN_POINT('',(-10.5,-22.2,-6.93889390390723E-15));
#1064=CARTESIAN_POINT('',(-10.5,-22.2,-0.0500000000000153));
#1065=CARTESIAN_POINT('',(-10.5,-19.2,0.));
#1066=CARTESIAN_POINT('',(-10.5,-19.2,0.));
#1067=CARTESIAN_POINT('',(-10.5,-19.2,-0.05));
#1068=CARTESIAN_POINT('',(-10.5,-19.2,0.));
#1069=CARTESIAN_POINT('',(-10.5,-19.2,-0.05));
#1070=CARTESIAN_POINT('Origin',(10.5,-24.7,1.3));
#1071=CARTESIAN_POINT('',(-4.1,-25.55,0.251191151829835));
#1072=CARTESIAN_POINT('',(-4.1,-24.7,2.65));
#1073=CARTESIAN_POINT('Origin',(-4.1,-24.7,1.3));
#1074=CARTESIAN_POINT('',(-5.72388059701493,-24.7,-0.0500000000000017));
#1075=CARTESIAN_POINT('Origin',(-5.72388059701493,-24.7,1.3));
#1076=CARTESIAN_POINT('',(5.72388059701492,-24.7,-0.0500000000000017));
#1077=CARTESIAN_POINT('',(5.72388059701493,-24.7,-0.0500000000000019));
#1078=CARTESIAN_POINT('',(4.1,-25.55,0.251191151829846));
#1079=CARTESIAN_POINT('Origin',(5.72388059701493,-24.7,1.3));
#1080=CARTESIAN_POINT('',(4.1,-24.7,2.65));
#1081=CARTESIAN_POINT('Origin',(4.1,-24.7,1.3));
#1082=CARTESIAN_POINT('',(4.1,-24.7,2.65));
#1083=CARTESIAN_POINT('Origin',(10.5,-19.2,-0.05));
#1084=CARTESIAN_POINT('',(-5.72388059701494,-24.7,-0.0500000000000017));
#1085=CARTESIAN_POINT('',(10.5,-19.2,-0.05));
#1086=CARTESIAN_POINT('',(10.5,-22.2,-0.050000000000001));
#1087=CARTESIAN_POINT('Origin',(10.5,-19.2,0.));
#1088=CARTESIAN_POINT('',(-5.72388059701494,-24.7,-1.73472347597681E-15));
#1089=CARTESIAN_POINT('',(10.5,-22.2,-9.46212805078261E-16));
#1090=CARTESIAN_POINT('',(10.5,-19.2,0.));
#1091=CARTESIAN_POINT('Origin',(10.5,-18.3,2.65));
#1092=CARTESIAN_POINT('',(-6.5,-18.3,2.65000000000001));
#1093=CARTESIAN_POINT('',(-6.5,-18.3,2.6));
#1094=CARTESIAN_POINT('',(-6.5,-18.3,2.65000000000001));
#1095=CARTESIAN_POINT('',(6.5,-18.3,2.65000000000001));
#1096=CARTESIAN_POINT('',(6.5,-18.3,2.65));
#1097=CARTESIAN_POINT('',(6.5,-18.3,2.6));
#1098=CARTESIAN_POINT('',(6.5,-18.3,2.65000000000001));
#1099=CARTESIAN_POINT('',(6.5,-18.3,2.6));
#1100=CARTESIAN_POINT('Origin',(10.5,-21.6,2.65));
#1101=CARTESIAN_POINT('',(-6.5,-20.8,2.65000000000001));
#1102=CARTESIAN_POINT('',(-6.5,-20.8,2.65));
#1103=CARTESIAN_POINT('',(-4.1,-20.8,2.65000000000001));
#1104=CARTESIAN_POINT('',(-4.1,-20.8,2.65));
#1105=CARTESIAN_POINT('',(-4.1,-24.7,2.65));
#1106=CARTESIAN_POINT('',(4.1,-20.8,2.65000000000001));
#1107=CARTESIAN_POINT('',(4.1,-20.8,2.65));
#1108=CARTESIAN_POINT('',(6.5,-20.8,2.65000000000001));
#1109=CARTESIAN_POINT('',(6.5,-20.8,2.65));
#1110=CARTESIAN_POINT('',(6.5,-18.3,2.65));
#1111=CARTESIAN_POINT('Origin',(10.5,-19.2,0.));
#1112=CARTESIAN_POINT('Origin',(10.5,-21.6,2.6));
#1113=CARTESIAN_POINT('',(-4.1,-20.8,2.6));
#1114=CARTESIAN_POINT('',(-6.5,-20.8,2.6));
#1115=CARTESIAN_POINT('',(-4.1,-20.8,2.6));
#1116=CARTESIAN_POINT('',(-6.5,-20.8,2.6));
#1117=CARTESIAN_POINT('',(6.5,-20.8,2.6));
#1118=CARTESIAN_POINT('',(6.5,-18.3,2.6));
#1119=CARTESIAN_POINT('',(4.1,-20.8,2.6));
#1120=CARTESIAN_POINT('',(6.5,-20.8,2.6));
#1121=CARTESIAN_POINT('',(4.1,-20.8,2.6));
#1122=CARTESIAN_POINT('',(-4.1,-24.7,2.6));
#1123=CARTESIAN_POINT('Origin',(-4.1,-20.8,22.3));
#1124=CARTESIAN_POINT('',(-4.1,-20.8,2.65000000000001));
#1125=CARTESIAN_POINT('',(-4.1,-25.55,0.251191151829828));
#1126=CARTESIAN_POINT('Origin',(-6.5,-20.8,22.3));
#1127=CARTESIAN_POINT('',(-6.5,-20.8,2.65000000000001));
#1128=CARTESIAN_POINT('Origin',(-6.5,-18.3,22.3));
#1129=CARTESIAN_POINT('Origin',(4.1,-26.05,22.3));
#1130=CARTESIAN_POINT('',(4.1,-25.55,0.251191151829838));
#1131=CARTESIAN_POINT('',(4.1,-20.8,2.65000000000001));
#1132=CARTESIAN_POINT('Origin',(4.1,-20.8,22.3));
#1133=CARTESIAN_POINT('',(6.5,-20.8,2.65000000000001));
#1134=CARTESIAN_POINT('Origin',(6.5,-20.8,22.3));
#1135=CARTESIAN_POINT('Origin',(4.1,-25.55,-19.7));
#1136=CARTESIAN_POINT('Origin',(-10.5,-22.2,-19.7));
#1137=CARTESIAN_POINT('Origin',(-12.3,-5.,2.7));
#1138=CARTESIAN_POINT('',(-12.3,-5.,2.6));
#1139=CARTESIAN_POINT('',(-12.3,-18.,2.6));
#1140=CARTESIAN_POINT('',(-12.3,-5.,2.6));
#1141=CARTESIAN_POINT('',(-12.3,-18.,2.7));
#1142=CARTESIAN_POINT('',(-12.3,-18.,2.7));
#1143=CARTESIAN_POINT('',(-12.3,-5.,2.7));
#1144=CARTESIAN_POINT('',(-12.3,-5.,2.7));
#1145=CARTESIAN_POINT('',(-12.3,-5.,2.7));
#1146=CARTESIAN_POINT('Origin',(-12.3,-18.,2.7));
#1147=CARTESIAN_POINT('',(12.3,-18.,2.6));
#1148=CARTESIAN_POINT('',(-12.3,-18.,2.6));
#1149=CARTESIAN_POINT('',(12.3,-18.,2.7));
#1150=CARTESIAN_POINT('',(12.3,-18.,2.7));
#1151=CARTESIAN_POINT('',(-12.3,-18.,2.7));
#1152=CARTESIAN_POINT('Origin',(12.3,-5.,2.7));
#1153=CARTESIAN_POINT('',(12.3,-5.,2.6));
#1154=CARTESIAN_POINT('',(12.3,-18.,2.6));
#1155=CARTESIAN_POINT('',(12.3,-5.,2.7));
#1156=CARTESIAN_POINT('',(12.3,-5.,2.7));
#1157=CARTESIAN_POINT('',(12.3,-18.,2.7));
#1158=CARTESIAN_POINT('Origin',(-12.3,-5.,2.7));
#1159=CARTESIAN_POINT('',(12.3,-5.,2.6));
#1160=CARTESIAN_POINT('',(12.3,-5.,2.7));
#1161=CARTESIAN_POINT('Origin',(0.,0.,2.7));
#1162=CARTESIAN_POINT('',(10.904856312671,-6.04757184366451,2.7));
#1163=CARTESIAN_POINT('',(-10.904856312671,-6.04757184366451,2.7));
#1164=CARTESIAN_POINT('',(10.904856312671,-6.04757184366451,2.7));
#1165=CARTESIAN_POINT('',(10.904856312671,-16.9524281563355,2.7));
#1166=CARTESIAN_POINT('',(10.904856312671,-16.9524281563355,2.7));
#1167=CARTESIAN_POINT('',(-10.904856312671,-16.9524281563355,2.7));
#1168=CARTESIAN_POINT('',(-10.904856312671,-16.9524281563355,2.7));
#1169=CARTESIAN_POINT('',(-10.904856312671,-6.04757184366451,2.7));
#1170=CARTESIAN_POINT('Origin',(0.,0.,2.6));
#1171=CARTESIAN_POINT('Origin',(10.904856312671,-6.04757184366451,2.699));
#1172=CARTESIAN_POINT('',(-10.904856312671,-6.04757184366451,2.699));
#1173=CARTESIAN_POINT('',(-10.904856312671,-6.04757184366451,2.699));
#1174=CARTESIAN_POINT('',(10.904856312671,-6.04757184366451,2.699));
#1175=CARTESIAN_POINT('',(10.904856312671,-6.04757184366451,2.699));
#1176=CARTESIAN_POINT('',(10.904856312671,-6.04757184366451,2.699));
#1177=CARTESIAN_POINT('Origin',(10.904856312671,-16.9524281563355,2.699));
#1178=CARTESIAN_POINT('',(10.904856312671,-16.9524281563355,2.699));
#1179=CARTESIAN_POINT('',(10.904856312671,-16.9524281563355,2.699));
#1180=CARTESIAN_POINT('',(10.904856312671,-16.9524281563355,2.699));
#1181=CARTESIAN_POINT('Origin',(-10.904856312671,-16.9524281563355,2.699));
#1182=CARTESIAN_POINT('',(-10.904856312671,-16.9524281563355,2.699));
#1183=CARTESIAN_POINT('',(-10.904856312671,-16.9524281563355,2.699));
#1184=CARTESIAN_POINT('',(-10.904856312671,-16.9524281563355,2.699));
#1185=CARTESIAN_POINT('Origin',(-10.904856312671,-6.04757184366451,2.699));
#1186=CARTESIAN_POINT('',(-10.904856312671,-6.04757184366451,2.699));
#1187=CARTESIAN_POINT('Origin',(0.,0.,2.699));
#1188=UNCERTAINTY_MEASURE_WITH_UNIT(LENGTH_MEASURE(0.01),#1192,
'DISTANCE_ACCURACY_VALUE',
'Maximum model space distance between geometric entities at asserted c
onnectivities');
#1189=UNCERTAINTY_MEASURE_WITH_UNIT(LENGTH_MEASURE(0.01),#1192,
'DISTANCE_ACCURACY_VALUE',
'Maximum model space distance between geometric entities at asserted c
onnectivities');
#1190=(
GEOMETRIC_REPRESENTATION_CONTEXT(3)
GLOBAL_UNCERTAINTY_ASSIGNED_CONTEXT((#1188))
GLOBAL_UNIT_ASSIGNED_CONTEXT((#1192,#1194,#1195))
REPRESENTATION_CONTEXT('','3D')
);
#1191=(
GEOMETRIC_REPRESENTATION_CONTEXT(3)
GLOBAL_UNCERTAINTY_ASSIGNED_CONTEXT((#1189))
GLOBAL_UNIT_ASSIGNED_CONTEXT((#1192,#1194,#1195))
REPRESENTATION_CONTEXT('','3D')
);
#1192=(
LENGTH_UNIT()
NAMED_UNIT(*)
SI_UNIT(.MILLI.,.METRE.)
);
#1193=(
LENGTH_UNIT()
NAMED_UNIT(*)
SI_UNIT(.CENTI.,.METRE.)
);
#1194=(
NAMED_UNIT(*)
PLANE_ANGLE_UNIT()
SI_UNIT($,.RADIAN.)
);
#1195=(
NAMED_UNIT(*)
SI_UNIT($,.STERADIAN.)
SOLID_ANGLE_UNIT()
);
#1196=SHAPE_DEFINITION_REPRESENTATION(#1197,#1198);
#1197=PRODUCT_DEFINITION_SHAPE('',$,#1200);
#1198=SHAPE_REPRESENTATION('',(#748),#1190);
#1199=PRODUCT_DEFINITION_CONTEXT('part definition',#1204,'design');
#1200=PRODUCT_DEFINITION('0.96 oled','0.96 oled',#1201,#1199);
#1201=PRODUCT_DEFINITION_FORMATION('',$,#1206);
#1202=PRODUCT_RELATED_PRODUCT_CATEGORY('0.96 oled','0.96 oled',(#1206));
#1203=APPLICATION_PROTOCOL_DEFINITION('international standard',
'automotive_design',2009,#1204);
#1204=APPLICATION_CONTEXT(
'Core Data for Automotive Mechanical Design Process');
#1205=PRODUCT_CONTEXT('part definition',#1204,'mechanical');
#1206=PRODUCT('0.96 oled','0.96 oled',$,(#1205));
#1207=PRESENTATION_STYLE_ASSIGNMENT((#1211));
#1208=PRESENTATION_STYLE_ASSIGNMENT((#1212));
#1209=PRESENTATION_STYLE_ASSIGNMENT((#1213));
#1210=PRESENTATION_STYLE_ASSIGNMENT((#1214));
#1211=SURFACE_STYLE_USAGE(.BOTH.,#1223);
#1212=SURFACE_STYLE_USAGE(.BOTH.,#1224);
#1213=SURFACE_STYLE_USAGE(.BOTH.,#1225);
#1214=SURFACE_STYLE_USAGE(.BOTH.,#1226);
#1215=SURFACE_STYLE_RENDERING_WITH_PROPERTIES($,#1239,(#1219));
#1216=SURFACE_STYLE_RENDERING_WITH_PROPERTIES($,#1240,(#1220));
#1217=SURFACE_STYLE_RENDERING_WITH_PROPERTIES($,#1241,(#1221));
#1218=SURFACE_STYLE_RENDERING_WITH_PROPERTIES($,#1242,(#1222));
#1219=SURFACE_STYLE_TRANSPARENT(0.);
#1220=SURFACE_STYLE_TRANSPARENT(0.);
#1221=SURFACE_STYLE_TRANSPARENT(0.);
#1222=SURFACE_STYLE_TRANSPARENT(0.);
#1223=SURFACE_SIDE_STYLE('',(#1227,#1215));
#1224=SURFACE_SIDE_STYLE('',(#1228,#1216));
#1225=SURFACE_SIDE_STYLE('',(#1229,#1217));
#1226=SURFACE_SIDE_STYLE('',(#1230,#1218));
#1227=SURFACE_STYLE_FILL_AREA(#1231);
#1228=SURFACE_STYLE_FILL_AREA(#1232);
#1229=SURFACE_STYLE_FILL_AREA(#1233);
#1230=SURFACE_STYLE_FILL_AREA(#1234);
#1231=FILL_AREA_STYLE('',(#1235));
#1232=FILL_AREA_STYLE('',(#1236));
#1233=FILL_AREA_STYLE('',(#1237));
#1234=FILL_AREA_STYLE('',(#1238));
#1235=FILL_AREA_STYLE_COLOUR('',#1239);
#1236=FILL_AREA_STYLE_COLOUR('',#1240);
#1237=FILL_AREA_STYLE_COLOUR('',#1241);
#1238=FILL_AREA_STYLE_COLOUR('',#1242);
#1239=COLOUR_RGB('',0.752941176470588,0.752941176470588,0.752941176470588);
#1240=COLOUR_RGB('',0.494117647058824,0.494117647058824,0.494117647058824);
#1241=COLOUR_RGB('',1.,0.705882352941177,0.2);
#1242=COLOUR_RGB('',0.294117647058824,0.294117647058824,0.294117647058824);
ENDSEC;
END-ISO-10303-21;
