ISO-10303-21;
HEADER;
/* Generated by software containing ST-Developer
 * from STEP Tools, Inc. (www.steptools.com) 
 */

FILE_DESCRIPTION(
/* description */ (''),
/* implementation_level */ '2;1');

FILE_NAME(
/* name */ 'plug.stp',
/* time_stamp */ '2026-04-07T19:29:04+02:00',
/* author */ ('szymo'),
/* organization */ (''),
/* preprocessor_version */ 'ST-DEVELOPER v20.1',
/* originating_system */ 'Autodesk Inventor 2026',
/* authorisation */ '');

FILE_SCHEMA (('AUTOMOTIVE_DESIGN { 1 0 10303 214 3 1 1 }'));
ENDSEC;

DATA;
#10=MECHANICAL_DESIGN_GEOMETRIC_PRESENTATION_REPRESENTATION('',(#13),#1015);
#11=SHAPE_REPRESENTATION_RELATIONSHIP('SRR','None',#1022,#12);
#12=ADVANCED_BREP_SHAPE_REPRESENTATION('',(#14),#1014);
#13=STYLED_ITEM('',(#1031),#14);
#14=MANIFOLD_SOLID_BREP('Bry\X2\0142\X0\a1',#585);
#15=CONICAL_SURFACE('',#648,2.55,0.785398163397448);
#16=CONICAL_SURFACE('',#651,2.55,0.785398163397448);
#17=CONICAL_SURFACE('',#654,2.55,0.785398163397448);
#18=CONICAL_SURFACE('',#657,2.55,0.785398163397448);
#19=CONICAL_SURFACE('',#660,2.55,0.785398163397448);
#20=CONICAL_SURFACE('',#663,2.55,0.785398163397448);
#21=CONICAL_SURFACE('',#666,2.55,0.785398163397448);
#22=FACE_BOUND('',#81,.T.);
#23=FACE_BOUND('',#82,.T.);
#24=FACE_BOUND('',#83,.T.);
#25=FACE_BOUND('',#84,.T.);
#26=FACE_BOUND('',#85,.T.);
#27=FACE_BOUND('',#86,.T.);
#28=FACE_BOUND('',#87,.T.);
#29=FACE_BOUND('',#99,.T.);
#30=FACE_BOUND('',#100,.T.);
#31=FACE_BOUND('',#101,.T.);
#32=FACE_BOUND('',#102,.T.);
#33=FACE_BOUND('',#103,.T.);
#34=FACE_BOUND('',#104,.T.);
#35=FACE_BOUND('',#105,.T.);
#36=PLANE('',#611);
#37=PLANE('',#612);
#38=PLANE('',#627);
#39=PLANE('',#630);
#40=PLANE('',#635);
#41=PLANE('',#638);
#42=PLANE('',#639);
#43=PLANE('',#640);
#44=PLANE('',#669);
#45=PLANE('',#670);
#46=PLANE('',#671);
#47=FACE_OUTER_BOUND('',#78,.T.);
#48=FACE_OUTER_BOUND('',#79,.T.);
#49=FACE_OUTER_BOUND('',#80,.T.);
#50=FACE_OUTER_BOUND('',#88,.T.);
#51=FACE_OUTER_BOUND('',#89,.T.);
#52=FACE_OUTER_BOUND('',#90,.T.);
#53=FACE_OUTER_BOUND('',#91,.T.);
#54=FACE_OUTER_BOUND('',#92,.T.);
#55=FACE_OUTER_BOUND('',#93,.T.);
#56=FACE_OUTER_BOUND('',#94,.T.);
#57=FACE_OUTER_BOUND('',#95,.T.);
#58=FACE_OUTER_BOUND('',#96,.T.);
#59=FACE_OUTER_BOUND('',#97,.T.);
#60=FACE_OUTER_BOUND('',#98,.T.);
#61=FACE_OUTER_BOUND('',#106,.T.);
#62=FACE_OUTER_BOUND('',#107,.T.);
#63=FACE_OUTER_BOUND('',#108,.T.);
#64=FACE_OUTER_BOUND('',#109,.T.);
#65=FACE_OUTER_BOUND('',#110,.T.);
#66=FACE_OUTER_BOUND('',#111,.T.);
#67=FACE_OUTER_BOUND('',#112,.T.);
#68=FACE_OUTER_BOUND('',#113,.T.);
#69=FACE_OUTER_BOUND('',#114,.T.);
#70=FACE_OUTER_BOUND('',#115,.T.);
#71=FACE_OUTER_BOUND('',#116,.T.);
#72=FACE_OUTER_BOUND('',#117,.T.);
#73=FACE_OUTER_BOUND('',#118,.T.);
#74=FACE_OUTER_BOUND('',#119,.T.);
#75=FACE_OUTER_BOUND('',#120,.T.);
#76=FACE_OUTER_BOUND('',#121,.T.);
#77=FACE_OUTER_BOUND('',#122,.T.);
#78=EDGE_LOOP('',(#381,#382,#383,#384));
#79=EDGE_LOOP('',(#385,#386,#387,#388,#389));
#80=EDGE_LOOP('',(#390,#391,#392,#393,#394,#395,#396,#397,#398,#399,#400,
#401,#402,#403));
#81=EDGE_LOOP('',(#404));
#82=EDGE_LOOP('',(#405));
#83=EDGE_LOOP('',(#406));
#84=EDGE_LOOP('',(#407));
#85=EDGE_LOOP('',(#408));
#86=EDGE_LOOP('',(#409));
#87=EDGE_LOOP('',(#410));
#88=EDGE_LOOP('',(#411,#412,#413,#414));
#89=EDGE_LOOP('',(#415,#416,#417,#418));
#90=EDGE_LOOP('',(#419,#420,#421,#422));
#91=EDGE_LOOP('',(#423,#424,#425,#426));
#92=EDGE_LOOP('',(#427,#428,#429,#430));
#93=EDGE_LOOP('',(#431,#432,#433,#434));
#94=EDGE_LOOP('',(#435,#436,#437,#438));
#95=EDGE_LOOP('',(#439,#440,#441,#442));
#96=EDGE_LOOP('',(#443,#444,#445,#446));
#97=EDGE_LOOP('',(#447,#448,#449,#450));
#98=EDGE_LOOP('',(#451,#452,#453,#454,#455,#456,#457,#458,#459,#460,#461,
#462,#463,#464));
#99=EDGE_LOOP('',(#465));
#100=EDGE_LOOP('',(#466));
#101=EDGE_LOOP('',(#467));
#102=EDGE_LOOP('',(#468));
#103=EDGE_LOOP('',(#469));
#104=EDGE_LOOP('',(#470));
#105=EDGE_LOOP('',(#471));
#106=EDGE_LOOP('',(#472,#473,#474,#475));
#107=EDGE_LOOP('',(#476,#477,#478,#479));
#108=EDGE_LOOP('',(#480,#481,#482,#483));
#109=EDGE_LOOP('',(#484,#485,#486,#487));
#110=EDGE_LOOP('',(#488,#489,#490,#491));
#111=EDGE_LOOP('',(#492,#493,#494,#495));
#112=EDGE_LOOP('',(#496,#497,#498,#499));
#113=EDGE_LOOP('',(#500,#501,#502,#503));
#114=EDGE_LOOP('',(#504,#505,#506,#507));
#115=EDGE_LOOP('',(#508,#509,#510,#511));
#116=EDGE_LOOP('',(#512,#513,#514,#515));
#117=EDGE_LOOP('',(#516,#517,#518,#519));
#118=EDGE_LOOP('',(#520,#521,#522,#523));
#119=EDGE_LOOP('',(#524,#525,#526,#527));
#120=EDGE_LOOP('',(#528,#529,#530,#531));
#121=EDGE_LOOP('',(#532,#533,#534,#535));
#122=EDGE_LOOP('',(#536,#537,#538,#539,#540));
#123=LINE('',#855,#170);
#124=LINE('',#858,#171);
#125=LINE('',#861,#172);
#126=LINE('',#863,#173);
#127=LINE('',#865,#174);
#128=LINE('',#866,#175);
#129=LINE('',#869,#176);
#130=LINE('',#873,#177);
#131=LINE('',#877,#178);
#132=LINE('',#881,#179);
#133=LINE('',#885,#180);
#134=LINE('',#889,#181);
#135=LINE('',#890,#182);
#136=LINE('',#909,#183);
#137=LINE('',#910,#184);
#138=LINE('',#913,#185);
#139=LINE('',#914,#186);
#140=LINE('',#917,#187);
#141=LINE('',#920,#188);
#142=LINE('',#923,#189);
#143=LINE('',#924,#190);
#144=LINE('',#928,#191);
#145=LINE('',#931,#192);
#146=LINE('',#934,#193);
#147=LINE('',#936,#194);
#148=LINE('',#939,#195);
#149=LINE('',#942,#196);
#150=LINE('',#944,#197);
#151=LINE('',#947,#198);
#152=LINE('',#948,#199);
#153=LINE('',#965,#200);
#154=LINE('',#968,#201);
#155=LINE('',#971,#202);
#156=LINE('',#974,#203);
#157=LINE('',#977,#204);
#158=LINE('',#980,#205);
#159=LINE('',#983,#206);
#160=LINE('',#986,#207);
#161=LINE('',#989,#208);
#162=LINE('',#992,#209);
#163=LINE('',#995,#210);
#164=LINE('',#998,#211);
#165=LINE('',#1001,#212);
#166=LINE('',#1004,#213);
#167=LINE('',#1007,#214);
#168=LINE('',#1008,#215);
#169=LINE('',#1010,#216);
#170=VECTOR('',#678,10.);
#171=VECTOR('',#681,10.);
#172=VECTOR('',#684,10.);
#173=VECTOR('',#685,10.);
#174=VECTOR('',#686,10.);
#175=VECTOR('',#687,10.);
#176=VECTOR('',#690,10.);
#177=VECTOR('',#693,10.);
#178=VECTOR('',#696,10.);
#179=VECTOR('',#699,10.);
#180=VECTOR('',#702,10.);
#181=VECTOR('',#705,10.);
#182=VECTOR('',#706,10.);
#183=VECTOR('',#725,10.);
#184=VECTOR('',#726,10.);
#185=VECTOR('',#729,10.);
#186=VECTOR('',#730,10.);
#187=VECTOR('',#733,10.);
#188=VECTOR('',#736,10.);
#189=VECTOR('',#739,10.);
#190=VECTOR('',#740,10.);
#191=VECTOR('',#745,10.);
#192=VECTOR('',#748,10.);
#193=VECTOR('',#751,10.);
#194=VECTOR('',#754,10.);
#195=VECTOR('',#757,10.);
#196=VECTOR('',#762,10.);
#197=VECTOR('',#765,10.);
#198=VECTOR('',#768,10.);
#199=VECTOR('',#769,10.);
#200=VECTOR('',#786,2.55);
#201=VECTOR('',#791,1.6);
#202=VECTOR('',#794,2.55);
#203=VECTOR('',#799,1.6);
#204=VECTOR('',#802,2.55);
#205=VECTOR('',#807,1.6);
#206=VECTOR('',#810,2.55);
#207=VECTOR('',#815,1.6);
#208=VECTOR('',#818,2.55);
#209=VECTOR('',#823,1.6);
#210=VECTOR('',#826,2.55);
#211=VECTOR('',#831,1.6);
#212=VECTOR('',#834,2.55);
#213=VECTOR('',#839,1.6);
#214=VECTOR('',#842,10.);
#215=VECTOR('',#843,10.);
#216=VECTOR('',#846,10.);
#217=CIRCLE('',#609,2.);
#218=CIRCLE('',#610,2.);
#219=CIRCLE('',#613,2.);
#220=CIRCLE('',#614,2.);
#221=CIRCLE('',#615,2.);
#222=CIRCLE('',#616,2.);
#223=CIRCLE('',#617,2.);
#224=CIRCLE('',#618,3.5);
#225=CIRCLE('',#619,3.5);
#226=CIRCLE('',#620,3.5);
#227=CIRCLE('',#621,3.5);
#228=CIRCLE('',#622,3.5);
#229=CIRCLE('',#623,3.5);
#230=CIRCLE('',#624,3.5);
#231=CIRCLE('',#626,2.);
#232=CIRCLE('',#629,2.);
#233=CIRCLE('',#632,2.);
#234=CIRCLE('',#634,2.);
#235=CIRCLE('',#637,2.);
#236=CIRCLE('',#641,1.6);
#237=CIRCLE('',#642,1.6);
#238=CIRCLE('',#643,1.6);
#239=CIRCLE('',#644,1.6);
#240=CIRCLE('',#645,1.6);
#241=CIRCLE('',#646,1.6);
#242=CIRCLE('',#647,1.6);
#243=CIRCLE('',#649,1.6);
#244=CIRCLE('',#652,1.6);
#245=CIRCLE('',#655,1.6);
#246=CIRCLE('',#658,1.6);
#247=CIRCLE('',#661,1.6);
#248=CIRCLE('',#664,1.6);
#249=CIRCLE('',#667,1.6);
#250=VERTEX_POINT('',#851);
#251=VERTEX_POINT('',#852);
#252=VERTEX_POINT('',#854);
#253=VERTEX_POINT('',#856);
#254=VERTEX_POINT('',#860);
#255=VERTEX_POINT('',#862);
#256=VERTEX_POINT('',#864);
#257=VERTEX_POINT('',#868);
#258=VERTEX_POINT('',#870);
#259=VERTEX_POINT('',#872);
#260=VERTEX_POINT('',#874);
#261=VERTEX_POINT('',#876);
#262=VERTEX_POINT('',#878);
#263=VERTEX_POINT('',#880);
#264=VERTEX_POINT('',#882);
#265=VERTEX_POINT('',#884);
#266=VERTEX_POINT('',#886);
#267=VERTEX_POINT('',#888);
#268=VERTEX_POINT('',#891);
#269=VERTEX_POINT('',#893);
#270=VERTEX_POINT('',#895);
#271=VERTEX_POINT('',#897);
#272=VERTEX_POINT('',#899);
#273=VERTEX_POINT('',#901);
#274=VERTEX_POINT('',#903);
#275=VERTEX_POINT('',#906);
#276=VERTEX_POINT('',#907);
#277=VERTEX_POINT('',#912);
#278=VERTEX_POINT('',#916);
#279=VERTEX_POINT('',#918);
#280=VERTEX_POINT('',#922);
#281=VERTEX_POINT('',#926);
#282=VERTEX_POINT('',#930);
#283=VERTEX_POINT('',#932);
#284=VERTEX_POINT('',#938);
#285=VERTEX_POINT('',#946);
#286=VERTEX_POINT('',#949);
#287=VERTEX_POINT('',#951);
#288=VERTEX_POINT('',#953);
#289=VERTEX_POINT('',#955);
#290=VERTEX_POINT('',#957);
#291=VERTEX_POINT('',#959);
#292=VERTEX_POINT('',#961);
#293=VERTEX_POINT('',#964);
#294=VERTEX_POINT('',#970);
#295=VERTEX_POINT('',#976);
#296=VERTEX_POINT('',#982);
#297=VERTEX_POINT('',#988);
#298=VERTEX_POINT('',#994);
#299=VERTEX_POINT('',#1000);
#300=VERTEX_POINT('',#1006);
#301=EDGE_CURVE('',#250,#251,#217,.T.);
#302=EDGE_CURVE('',#251,#252,#123,.T.);
#303=EDGE_CURVE('',#252,#253,#218,.T.);
#304=EDGE_CURVE('',#253,#250,#124,.T.);
#305=EDGE_CURVE('',#251,#254,#125,.T.);
#306=EDGE_CURVE('',#254,#255,#126,.T.);
#307=EDGE_CURVE('',#255,#256,#127,.T.);
#308=EDGE_CURVE('',#256,#252,#128,.T.);
#309=EDGE_CURVE('',#250,#257,#129,.T.);
#310=EDGE_CURVE('',#258,#257,#219,.T.);
#311=EDGE_CURVE('',#258,#259,#130,.T.);
#312=EDGE_CURVE('',#260,#259,#220,.T.);
#313=EDGE_CURVE('',#260,#261,#131,.T.);
#314=EDGE_CURVE('',#262,#261,#221,.T.);
#315=EDGE_CURVE('',#262,#263,#132,.T.);
#316=EDGE_CURVE('',#264,#263,#222,.T.);
#317=EDGE_CURVE('',#264,#265,#133,.T.);
#318=EDGE_CURVE('',#266,#265,#223,.T.);
#319=EDGE_CURVE('',#267,#266,#134,.T.);
#320=EDGE_CURVE('',#267,#254,#135,.T.);
#321=EDGE_CURVE('',#268,#268,#224,.T.);
#322=EDGE_CURVE('',#269,#269,#225,.T.);
#323=EDGE_CURVE('',#270,#270,#226,.T.);
#324=EDGE_CURVE('',#271,#271,#227,.T.);
#325=EDGE_CURVE('',#272,#272,#228,.T.);
#326=EDGE_CURVE('',#273,#273,#229,.T.);
#327=EDGE_CURVE('',#274,#274,#230,.T.);
#328=EDGE_CURVE('',#275,#276,#231,.T.);
#329=EDGE_CURVE('',#276,#266,#136,.T.);
#330=EDGE_CURVE('',#265,#275,#137,.T.);
#331=EDGE_CURVE('',#277,#264,#138,.T.);
#332=EDGE_CURVE('',#275,#277,#139,.T.);
#333=EDGE_CURVE('',#261,#278,#140,.T.);
#334=EDGE_CURVE('',#278,#279,#232,.T.);
#335=EDGE_CURVE('',#279,#262,#141,.T.);
#336=EDGE_CURVE('',#280,#260,#142,.T.);
#337=EDGE_CURVE('',#280,#278,#143,.T.);
#338=EDGE_CURVE('',#281,#280,#233,.T.);
#339=EDGE_CURVE('',#259,#281,#144,.T.);
#340=EDGE_CURVE('',#257,#282,#145,.T.);
#341=EDGE_CURVE('',#282,#283,#234,.T.);
#342=EDGE_CURVE('',#283,#258,#146,.T.);
#343=EDGE_CURVE('',#282,#253,#147,.T.);
#344=EDGE_CURVE('',#263,#284,#148,.T.);
#345=EDGE_CURVE('',#284,#277,#235,.T.);
#346=EDGE_CURVE('',#284,#279,#149,.T.);
#347=EDGE_CURVE('',#281,#283,#150,.T.);
#348=EDGE_CURVE('',#256,#285,#151,.T.);
#349=EDGE_CURVE('',#276,#285,#152,.T.);
#350=EDGE_CURVE('',#286,#286,#236,.T.);
#351=EDGE_CURVE('',#287,#287,#237,.T.);
#352=EDGE_CURVE('',#288,#288,#238,.T.);
#353=EDGE_CURVE('',#289,#289,#239,.T.);
#354=EDGE_CURVE('',#290,#290,#240,.T.);
#355=EDGE_CURVE('',#291,#291,#241,.T.);
#356=EDGE_CURVE('',#292,#292,#242,.T.);
#357=EDGE_CURVE('',#268,#293,#153,.T.);
#358=EDGE_CURVE('',#293,#293,#243,.T.);
#359=EDGE_CURVE('',#293,#292,#154,.T.);
#360=EDGE_CURVE('',#269,#294,#155,.T.);
#361=EDGE_CURVE('',#294,#294,#244,.T.);
#362=EDGE_CURVE('',#294,#291,#156,.T.);
#363=EDGE_CURVE('',#270,#295,#157,.T.);
#364=EDGE_CURVE('',#295,#295,#245,.T.);
#365=EDGE_CURVE('',#295,#290,#158,.T.);
#366=EDGE_CURVE('',#271,#296,#159,.T.);
#367=EDGE_CURVE('',#296,#296,#246,.T.);
#368=EDGE_CURVE('',#296,#289,#160,.T.);
#369=EDGE_CURVE('',#272,#297,#161,.T.);
#370=EDGE_CURVE('',#297,#297,#247,.T.);
#371=EDGE_CURVE('',#297,#288,#162,.T.);
#372=EDGE_CURVE('',#273,#298,#163,.T.);
#373=EDGE_CURVE('',#298,#298,#248,.T.);
#374=EDGE_CURVE('',#298,#287,#164,.T.);
#375=EDGE_CURVE('',#274,#299,#165,.T.);
#376=EDGE_CURVE('',#299,#299,#249,.T.);
#377=EDGE_CURVE('',#299,#286,#166,.T.);
#378=EDGE_CURVE('',#255,#300,#167,.T.);
#379=EDGE_CURVE('',#285,#300,#168,.T.);
#380=EDGE_CURVE('',#300,#267,#169,.T.);
#381=ORIENTED_EDGE('',*,*,#301,.T.);
#382=ORIENTED_EDGE('',*,*,#302,.T.);
#383=ORIENTED_EDGE('',*,*,#303,.T.);
#384=ORIENTED_EDGE('',*,*,#304,.T.);
#385=ORIENTED_EDGE('',*,*,#302,.F.);
#386=ORIENTED_EDGE('',*,*,#305,.T.);
#387=ORIENTED_EDGE('',*,*,#306,.T.);
#388=ORIENTED_EDGE('',*,*,#307,.T.);
#389=ORIENTED_EDGE('',*,*,#308,.T.);
#390=ORIENTED_EDGE('',*,*,#301,.F.);
#391=ORIENTED_EDGE('',*,*,#309,.T.);
#392=ORIENTED_EDGE('',*,*,#310,.F.);
#393=ORIENTED_EDGE('',*,*,#311,.T.);
#394=ORIENTED_EDGE('',*,*,#312,.F.);
#395=ORIENTED_EDGE('',*,*,#313,.T.);
#396=ORIENTED_EDGE('',*,*,#314,.F.);
#397=ORIENTED_EDGE('',*,*,#315,.T.);
#398=ORIENTED_EDGE('',*,*,#316,.F.);
#399=ORIENTED_EDGE('',*,*,#317,.T.);
#400=ORIENTED_EDGE('',*,*,#318,.F.);
#401=ORIENTED_EDGE('',*,*,#319,.F.);
#402=ORIENTED_EDGE('',*,*,#320,.T.);
#403=ORIENTED_EDGE('',*,*,#305,.F.);
#404=ORIENTED_EDGE('',*,*,#321,.T.);
#405=ORIENTED_EDGE('',*,*,#322,.T.);
#406=ORIENTED_EDGE('',*,*,#323,.T.);
#407=ORIENTED_EDGE('',*,*,#324,.T.);
#408=ORIENTED_EDGE('',*,*,#325,.T.);
#409=ORIENTED_EDGE('',*,*,#326,.T.);
#410=ORIENTED_EDGE('',*,*,#327,.T.);
#411=ORIENTED_EDGE('',*,*,#328,.T.);
#412=ORIENTED_EDGE('',*,*,#329,.T.);
#413=ORIENTED_EDGE('',*,*,#318,.T.);
#414=ORIENTED_EDGE('',*,*,#330,.T.);
#415=ORIENTED_EDGE('',*,*,#330,.F.);
#416=ORIENTED_EDGE('',*,*,#317,.F.);
#417=ORIENTED_EDGE('',*,*,#331,.F.);
#418=ORIENTED_EDGE('',*,*,#332,.F.);
#419=ORIENTED_EDGE('',*,*,#314,.T.);
#420=ORIENTED_EDGE('',*,*,#333,.T.);
#421=ORIENTED_EDGE('',*,*,#334,.T.);
#422=ORIENTED_EDGE('',*,*,#335,.T.);
#423=ORIENTED_EDGE('',*,*,#333,.F.);
#424=ORIENTED_EDGE('',*,*,#313,.F.);
#425=ORIENTED_EDGE('',*,*,#336,.F.);
#426=ORIENTED_EDGE('',*,*,#337,.T.);
#427=ORIENTED_EDGE('',*,*,#338,.T.);
#428=ORIENTED_EDGE('',*,*,#336,.T.);
#429=ORIENTED_EDGE('',*,*,#312,.T.);
#430=ORIENTED_EDGE('',*,*,#339,.T.);
#431=ORIENTED_EDGE('',*,*,#310,.T.);
#432=ORIENTED_EDGE('',*,*,#340,.T.);
#433=ORIENTED_EDGE('',*,*,#341,.T.);
#434=ORIENTED_EDGE('',*,*,#342,.T.);
#435=ORIENTED_EDGE('',*,*,#304,.F.);
#436=ORIENTED_EDGE('',*,*,#343,.F.);
#437=ORIENTED_EDGE('',*,*,#340,.F.);
#438=ORIENTED_EDGE('',*,*,#309,.F.);
#439=ORIENTED_EDGE('',*,*,#316,.T.);
#440=ORIENTED_EDGE('',*,*,#344,.T.);
#441=ORIENTED_EDGE('',*,*,#345,.T.);
#442=ORIENTED_EDGE('',*,*,#331,.T.);
#443=ORIENTED_EDGE('',*,*,#335,.F.);
#444=ORIENTED_EDGE('',*,*,#346,.F.);
#445=ORIENTED_EDGE('',*,*,#344,.F.);
#446=ORIENTED_EDGE('',*,*,#315,.F.);
#447=ORIENTED_EDGE('',*,*,#339,.F.);
#448=ORIENTED_EDGE('',*,*,#311,.F.);
#449=ORIENTED_EDGE('',*,*,#342,.F.);
#450=ORIENTED_EDGE('',*,*,#347,.F.);
#451=ORIENTED_EDGE('',*,*,#303,.F.);
#452=ORIENTED_EDGE('',*,*,#308,.F.);
#453=ORIENTED_EDGE('',*,*,#348,.T.);
#454=ORIENTED_EDGE('',*,*,#349,.F.);
#455=ORIENTED_EDGE('',*,*,#328,.F.);
#456=ORIENTED_EDGE('',*,*,#332,.T.);
#457=ORIENTED_EDGE('',*,*,#345,.F.);
#458=ORIENTED_EDGE('',*,*,#346,.T.);
#459=ORIENTED_EDGE('',*,*,#334,.F.);
#460=ORIENTED_EDGE('',*,*,#337,.F.);
#461=ORIENTED_EDGE('',*,*,#338,.F.);
#462=ORIENTED_EDGE('',*,*,#347,.T.);
#463=ORIENTED_EDGE('',*,*,#341,.F.);
#464=ORIENTED_EDGE('',*,*,#343,.T.);
#465=ORIENTED_EDGE('',*,*,#350,.T.);
#466=ORIENTED_EDGE('',*,*,#351,.T.);
#467=ORIENTED_EDGE('',*,*,#352,.T.);
#468=ORIENTED_EDGE('',*,*,#353,.T.);
#469=ORIENTED_EDGE('',*,*,#354,.T.);
#470=ORIENTED_EDGE('',*,*,#355,.T.);
#471=ORIENTED_EDGE('',*,*,#356,.T.);
#472=ORIENTED_EDGE('',*,*,#321,.F.);
#473=ORIENTED_EDGE('',*,*,#357,.T.);
#474=ORIENTED_EDGE('',*,*,#358,.F.);
#475=ORIENTED_EDGE('',*,*,#357,.F.);
#476=ORIENTED_EDGE('',*,*,#358,.T.);
#477=ORIENTED_EDGE('',*,*,#359,.T.);
#478=ORIENTED_EDGE('',*,*,#356,.F.);
#479=ORIENTED_EDGE('',*,*,#359,.F.);
#480=ORIENTED_EDGE('',*,*,#322,.F.);
#481=ORIENTED_EDGE('',*,*,#360,.T.);
#482=ORIENTED_EDGE('',*,*,#361,.F.);
#483=ORIENTED_EDGE('',*,*,#360,.F.);
#484=ORIENTED_EDGE('',*,*,#361,.T.);
#485=ORIENTED_EDGE('',*,*,#362,.T.);
#486=ORIENTED_EDGE('',*,*,#355,.F.);
#487=ORIENTED_EDGE('',*,*,#362,.F.);
#488=ORIENTED_EDGE('',*,*,#323,.F.);
#489=ORIENTED_EDGE('',*,*,#363,.T.);
#490=ORIENTED_EDGE('',*,*,#364,.F.);
#491=ORIENTED_EDGE('',*,*,#363,.F.);
#492=ORIENTED_EDGE('',*,*,#364,.T.);
#493=ORIENTED_EDGE('',*,*,#365,.T.);
#494=ORIENTED_EDGE('',*,*,#354,.F.);
#495=ORIENTED_EDGE('',*,*,#365,.F.);
#496=ORIENTED_EDGE('',*,*,#324,.F.);
#497=ORIENTED_EDGE('',*,*,#366,.T.);
#498=ORIENTED_EDGE('',*,*,#367,.F.);
#499=ORIENTED_EDGE('',*,*,#366,.F.);
#500=ORIENTED_EDGE('',*,*,#367,.T.);
#501=ORIENTED_EDGE('',*,*,#368,.T.);
#502=ORIENTED_EDGE('',*,*,#353,.F.);
#503=ORIENTED_EDGE('',*,*,#368,.F.);
#504=ORIENTED_EDGE('',*,*,#325,.F.);
#505=ORIENTED_EDGE('',*,*,#369,.T.);
#506=ORIENTED_EDGE('',*,*,#370,.F.);
#507=ORIENTED_EDGE('',*,*,#369,.F.);
#508=ORIENTED_EDGE('',*,*,#370,.T.);
#509=ORIENTED_EDGE('',*,*,#371,.T.);
#510=ORIENTED_EDGE('',*,*,#352,.F.);
#511=ORIENTED_EDGE('',*,*,#371,.F.);
#512=ORIENTED_EDGE('',*,*,#326,.F.);
#513=ORIENTED_EDGE('',*,*,#372,.T.);
#514=ORIENTED_EDGE('',*,*,#373,.F.);
#515=ORIENTED_EDGE('',*,*,#372,.F.);
#516=ORIENTED_EDGE('',*,*,#373,.T.);
#517=ORIENTED_EDGE('',*,*,#374,.T.);
#518=ORIENTED_EDGE('',*,*,#351,.F.);
#519=ORIENTED_EDGE('',*,*,#374,.F.);
#520=ORIENTED_EDGE('',*,*,#327,.F.);
#521=ORIENTED_EDGE('',*,*,#375,.T.);
#522=ORIENTED_EDGE('',*,*,#376,.F.);
#523=ORIENTED_EDGE('',*,*,#375,.F.);
#524=ORIENTED_EDGE('',*,*,#376,.T.);
#525=ORIENTED_EDGE('',*,*,#377,.T.);
#526=ORIENTED_EDGE('',*,*,#350,.F.);
#527=ORIENTED_EDGE('',*,*,#377,.F.);
#528=ORIENTED_EDGE('',*,*,#378,.T.);
#529=ORIENTED_EDGE('',*,*,#379,.F.);
#530=ORIENTED_EDGE('',*,*,#348,.F.);
#531=ORIENTED_EDGE('',*,*,#307,.F.);
#532=ORIENTED_EDGE('',*,*,#320,.F.);
#533=ORIENTED_EDGE('',*,*,#380,.F.);
#534=ORIENTED_EDGE('',*,*,#378,.F.);
#535=ORIENTED_EDGE('',*,*,#306,.F.);
#536=ORIENTED_EDGE('',*,*,#329,.F.);
#537=ORIENTED_EDGE('',*,*,#349,.T.);
#538=ORIENTED_EDGE('',*,*,#379,.T.);
#539=ORIENTED_EDGE('',*,*,#380,.T.);
#540=ORIENTED_EDGE('',*,*,#319,.T.);
#541=CYLINDRICAL_SURFACE('',#608,2.);
#542=CYLINDRICAL_SURFACE('',#625,2.);
#543=CYLINDRICAL_SURFACE('',#628,2.);
#544=CYLINDRICAL_SURFACE('',#631,2.);
#545=CYLINDRICAL_SURFACE('',#633,2.);
#546=CYLINDRICAL_SURFACE('',#636,2.);
#547=CYLINDRICAL_SURFACE('',#650,1.6);
#548=CYLINDRICAL_SURFACE('',#653,1.6);
#549=CYLINDRICAL_SURFACE('',#656,1.6);
#550=CYLINDRICAL_SURFACE('',#659,1.6);
#551=CYLINDRICAL_SURFACE('',#662,1.6);
#552=CYLINDRICAL_SURFACE('',#665,1.6);
#553=CYLINDRICAL_SURFACE('',#668,1.6);
#554=ADVANCED_FACE('',(#47),#541,.T.);
#555=ADVANCED_FACE('',(#48),#36,.T.);
#556=ADVANCED_FACE('',(#49,#22,#23,#24,#25,#26,#27,#28),#37,.T.);
#557=ADVANCED_FACE('',(#50),#542,.T.);
#558=ADVANCED_FACE('',(#51),#38,.F.);
#559=ADVANCED_FACE('',(#52),#543,.T.);
#560=ADVANCED_FACE('',(#53),#39,.T.);
#561=ADVANCED_FACE('',(#54),#544,.T.);
#562=ADVANCED_FACE('',(#55),#545,.F.);
#563=ADVANCED_FACE('',(#56),#40,.F.);
#564=ADVANCED_FACE('',(#57),#546,.F.);
#565=ADVANCED_FACE('',(#58),#41,.F.);
#566=ADVANCED_FACE('',(#59),#42,.F.);
#567=ADVANCED_FACE('',(#60,#29,#30,#31,#32,#33,#34,#35),#43,.T.);
#568=ADVANCED_FACE('',(#61),#15,.F.);
#569=ADVANCED_FACE('',(#62),#547,.F.);
#570=ADVANCED_FACE('',(#63),#16,.F.);
#571=ADVANCED_FACE('',(#64),#548,.F.);
#572=ADVANCED_FACE('',(#65),#17,.F.);
#573=ADVANCED_FACE('',(#66),#549,.F.);
#574=ADVANCED_FACE('',(#67),#18,.F.);
#575=ADVANCED_FACE('',(#68),#550,.F.);
#576=ADVANCED_FACE('',(#69),#19,.F.);
#577=ADVANCED_FACE('',(#70),#551,.F.);
#578=ADVANCED_FACE('',(#71),#20,.F.);
#579=ADVANCED_FACE('',(#72),#552,.F.);
#580=ADVANCED_FACE('',(#73),#21,.F.);
#581=ADVANCED_FACE('',(#74),#553,.F.);
#582=ADVANCED_FACE('',(#75),#44,.T.);
#583=ADVANCED_FACE('',(#76),#45,.T.);
#584=ADVANCED_FACE('',(#77),#46,.T.);
#585=CLOSED_SHELL('',(#554,#555,#556,#557,#558,#559,#560,#561,#562,#563,
#564,#565,#566,#567,#568,#569,#570,#571,#572,#573,#574,#575,#576,#577,#578,
#579,#580,#581,#582,#583,#584));
#586=DERIVED_UNIT_ELEMENT(#589,1.);
#587=DERIVED_UNIT_ELEMENT(#1017,-3.);
#588=DIMENSIONAL_EXPONENTS(0.,1.,0.,0.,0.,0.,0.);
#589=(
CONVERSION_BASED_UNIT('gram',#591)
MASS_UNIT()
NAMED_UNIT(#588)
);
#590=(
MASS_UNIT()
NAMED_UNIT(*)
SI_UNIT(.KILO.,.GRAM.)
);
#591=MASS_MEASURE_WITH_UNIT(MASS_MEASURE(0.001),#590);
#592=DERIVED_UNIT((#586,#587));
#593=MEASURE_REPRESENTATION_ITEM('density measure',
POSITIVE_RATIO_MEASURE(7.73),#592);
#594=PROPERTY_DEFINITION_REPRESENTATION(#599,#596);
#595=PROPERTY_DEFINITION_REPRESENTATION(#600,#597);
#596=REPRESENTATION('material name',(#598),#1014);
#597=REPRESENTATION('density',(#593),#1014);
#598=DESCRIPTIVE_REPRESENTATION_ITEM('Steel, Alloy','Steel, Alloy');
#599=PROPERTY_DEFINITION('material property','material name',#1024);
#600=PROPERTY_DEFINITION('material property','density of part',#1024);
#601=DATE_TIME_ROLE('creation_date');
#602=APPLIED_DATE_AND_TIME_ASSIGNMENT(#603,#601,(#1024));
#603=DATE_AND_TIME(#604,#605);
#604=CALENDAR_DATE(2022,27,1);
#605=LOCAL_TIME(0,0,0.,#606);
#606=COORDINATED_UNIVERSAL_TIME_OFFSET(0,0,.BEHIND.);
#607=AXIS2_PLACEMENT_3D('',#849,#672,#673);
#608=AXIS2_PLACEMENT_3D('',#850,#674,#675);
#609=AXIS2_PLACEMENT_3D('',#853,#676,#677);
#610=AXIS2_PLACEMENT_3D('',#857,#679,#680);
#611=AXIS2_PLACEMENT_3D('',#859,#682,#683);
#612=AXIS2_PLACEMENT_3D('',#867,#688,#689);
#613=AXIS2_PLACEMENT_3D('',#871,#691,#692);
#614=AXIS2_PLACEMENT_3D('',#875,#694,#695);
#615=AXIS2_PLACEMENT_3D('',#879,#697,#698);
#616=AXIS2_PLACEMENT_3D('',#883,#700,#701);
#617=AXIS2_PLACEMENT_3D('',#887,#703,#704);
#618=AXIS2_PLACEMENT_3D('',#892,#707,#708);
#619=AXIS2_PLACEMENT_3D('',#894,#709,#710);
#620=AXIS2_PLACEMENT_3D('',#896,#711,#712);
#621=AXIS2_PLACEMENT_3D('',#898,#713,#714);
#622=AXIS2_PLACEMENT_3D('',#900,#715,#716);
#623=AXIS2_PLACEMENT_3D('',#902,#717,#718);
#624=AXIS2_PLACEMENT_3D('',#904,#719,#720);
#625=AXIS2_PLACEMENT_3D('',#905,#721,#722);
#626=AXIS2_PLACEMENT_3D('',#908,#723,#724);
#627=AXIS2_PLACEMENT_3D('',#911,#727,#728);
#628=AXIS2_PLACEMENT_3D('',#915,#731,#732);
#629=AXIS2_PLACEMENT_3D('',#919,#734,#735);
#630=AXIS2_PLACEMENT_3D('',#921,#737,#738);
#631=AXIS2_PLACEMENT_3D('',#925,#741,#742);
#632=AXIS2_PLACEMENT_3D('',#927,#743,#744);
#633=AXIS2_PLACEMENT_3D('',#929,#746,#747);
#634=AXIS2_PLACEMENT_3D('',#933,#749,#750);
#635=AXIS2_PLACEMENT_3D('',#935,#752,#753);
#636=AXIS2_PLACEMENT_3D('',#937,#755,#756);
#637=AXIS2_PLACEMENT_3D('',#940,#758,#759);
#638=AXIS2_PLACEMENT_3D('',#941,#760,#761);
#639=AXIS2_PLACEMENT_3D('',#943,#763,#764);
#640=AXIS2_PLACEMENT_3D('',#945,#766,#767);
#641=AXIS2_PLACEMENT_3D('',#950,#770,#771);
#642=AXIS2_PLACEMENT_3D('',#952,#772,#773);
#643=AXIS2_PLACEMENT_3D('',#954,#774,#775);
#644=AXIS2_PLACEMENT_3D('',#956,#776,#777);
#645=AXIS2_PLACEMENT_3D('',#958,#778,#779);
#646=AXIS2_PLACEMENT_3D('',#960,#780,#781);
#647=AXIS2_PLACEMENT_3D('',#962,#782,#783);
#648=AXIS2_PLACEMENT_3D('',#963,#784,#785);
#649=AXIS2_PLACEMENT_3D('',#966,#787,#788);
#650=AXIS2_PLACEMENT_3D('',#967,#789,#790);
#651=AXIS2_PLACEMENT_3D('',#969,#792,#793);
#652=AXIS2_PLACEMENT_3D('',#972,#795,#796);
#653=AXIS2_PLACEMENT_3D('',#973,#797,#798);
#654=AXIS2_PLACEMENT_3D('',#975,#800,#801);
#655=AXIS2_PLACEMENT_3D('',#978,#803,#804);
#656=AXIS2_PLACEMENT_3D('',#979,#805,#806);
#657=AXIS2_PLACEMENT_3D('',#981,#808,#809);
#658=AXIS2_PLACEMENT_3D('',#984,#811,#812);
#659=AXIS2_PLACEMENT_3D('',#985,#813,#814);
#660=AXIS2_PLACEMENT_3D('',#987,#816,#817);
#661=AXIS2_PLACEMENT_3D('',#990,#819,#820);
#662=AXIS2_PLACEMENT_3D('',#991,#821,#822);
#663=AXIS2_PLACEMENT_3D('',#993,#824,#825);
#664=AXIS2_PLACEMENT_3D('',#996,#827,#828);
#665=AXIS2_PLACEMENT_3D('',#997,#829,#830);
#666=AXIS2_PLACEMENT_3D('',#999,#832,#833);
#667=AXIS2_PLACEMENT_3D('',#1002,#835,#836);
#668=AXIS2_PLACEMENT_3D('',#1003,#837,#838);
#669=AXIS2_PLACEMENT_3D('',#1005,#840,#841);
#670=AXIS2_PLACEMENT_3D('',#1009,#844,#845);
#671=AXIS2_PLACEMENT_3D('',#1011,#847,#848);
#672=DIRECTION('axis',(0.,0.,1.));
#673=DIRECTION('refdir',(1.,0.,0.));
#674=DIRECTION('center_axis',(0.,-1.,-2.96059473233375E-16));
#675=DIRECTION('ref_axis',(-0.707106781186546,1.96261557335472E-16,-0.707106781186549));
#676=DIRECTION('center_axis',(0.,1.,2.44929359829471E-16));
#677=DIRECTION('ref_axis',(-0.707106781186546,1.96261557335472E-16,-0.707106781186549));
#678=DIRECTION('',(0.,1.,2.96059473233375E-16));
#679=DIRECTION('center_axis',(0.,-1.,-7.56970244062607E-17));
#680=DIRECTION('ref_axis',(-0.707106781186546,1.96261557335472E-16,-0.707106781186549));
#681=DIRECTION('',(0.,-1.,-2.96059473233375E-16));
#682=DIRECTION('center_axis',(-1.,0.,0.));
#683=DIRECTION('ref_axis',(0.,0.,1.));
#684=DIRECTION('',(0.,-2.44929359829471E-16,1.));
#685=DIRECTION('',(0.,0.707106781186548,-0.707106781186547));
#686=DIRECTION('',(0.,-1.,-2.77555756156289E-16));
#687=DIRECTION('',(0.,7.56970244062607E-17,-1.));
#688=DIRECTION('center_axis',(0.,-1.,-2.44929359829471E-16));
#689=DIRECTION('ref_axis',(0.,2.44929359829471E-16,-1.));
#690=DIRECTION('',(1.,-5.43852429378756E-32,2.22044604925031E-16));
#691=DIRECTION('center_axis',(0.,-1.,-2.44929359829471E-16));
#692=DIRECTION('ref_axis',(0.707106781186548,-2.09345661157836E-16,0.707106781186548));
#693=DIRECTION('',(2.0884556520413E-16,2.44929359829471E-16,-1.));
#694=DIRECTION('center_axis',(0.,1.,2.44929359829471E-16));
#695=DIRECTION('ref_axis',(-0.707106781186548,0.,-0.707106781186548));
#696=DIRECTION('',(1.,0.,0.));
#697=DIRECTION('center_axis',(0.,1.,2.44929359829471E-16));
#698=DIRECTION('ref_axis',(0.707106781186548,0.,-0.707106781186548));
#699=DIRECTION('',(0.,-2.44929359829471E-16,1.));
#700=DIRECTION('center_axis',(0.,-1.,-2.44929359829471E-16));
#701=DIRECTION('ref_axis',(-0.707106781186548,0.,0.707106781186548));
#702=DIRECTION('',(1.,-5.43852429378756E-32,2.22044604925031E-16));
#703=DIRECTION('center_axis',(0.,1.,2.44929359829471E-16));
#704=DIRECTION('ref_axis',(0.70710678118655,0.,-0.707106781186545));
#705=DIRECTION('',(0.,2.44929359829471E-16,-1.));
#706=DIRECTION('',(-1.,0.,0.));
#707=DIRECTION('center_axis',(0.,1.,2.44929359829471E-16));
#708=DIRECTION('ref_axis',(1.,0.,0.));
#709=DIRECTION('center_axis',(0.,1.,2.44929359829471E-16));
#710=DIRECTION('ref_axis',(1.,0.,0.));
#711=DIRECTION('center_axis',(0.,1.,2.44929359829471E-16));
#712=DIRECTION('ref_axis',(1.,0.,0.));
#713=DIRECTION('center_axis',(0.,1.,2.44929359829471E-16));
#714=DIRECTION('ref_axis',(1.,0.,0.));
#715=DIRECTION('center_axis',(0.,1.,2.44929359829471E-16));
#716=DIRECTION('ref_axis',(1.,0.,0.));
#717=DIRECTION('center_axis',(0.,1.,2.44929359829471E-16));
#718=DIRECTION('ref_axis',(1.,0.,0.));
#719=DIRECTION('center_axis',(0.,1.,2.44929359829471E-16));
#720=DIRECTION('ref_axis',(1.,0.,0.));
#721=DIRECTION('center_axis',(0.,1.,0.));
#722=DIRECTION('ref_axis',(0.70710678118655,0.,-0.707106781186545));
#723=DIRECTION('center_axis',(0.,-1.,-7.56970244062607E-17));
#724=DIRECTION('ref_axis',(0.70710678118655,0.,-0.707106781186545));
#725=DIRECTION('',(0.,-1.,0.));
#726=DIRECTION('',(0.,1.,0.));
#727=DIRECTION('center_axis',(-2.22044604925031E-16,0.,1.));
#728=DIRECTION('ref_axis',(1.,-5.43852429378756E-32,2.22044604925031E-16));
#729=DIRECTION('',(0.,-1.,0.));
#730=DIRECTION('',(-1.,1.68081158782886E-32,-2.22044604925031E-16));
#731=DIRECTION('center_axis',(0.,-1.,0.));
#732=DIRECTION('ref_axis',(0.707106781186548,0.,-0.707106781186548));
#733=DIRECTION('',(0.,1.,0.));
#734=DIRECTION('center_axis',(0.,-1.,-7.56970244062607E-17));
#735=DIRECTION('ref_axis',(0.707106781186548,0.,-0.707106781186548));
#736=DIRECTION('',(0.,-1.,0.));
#737=DIRECTION('center_axis',(0.,0.,-1.));
#738=DIRECTION('ref_axis',(0.,1.,0.));
#739=DIRECTION('',(-6.18307080214612E-32,-1.,0.));
#740=DIRECTION('',(1.,0.,0.));
#741=DIRECTION('center_axis',(6.18307080214612E-32,1.,0.));
#742=DIRECTION('ref_axis',(-0.707106781186548,0.,-0.707106781186548));
#743=DIRECTION('center_axis',(0.,-1.,-7.56970244062607E-17));
#744=DIRECTION('ref_axis',(-0.707106781186548,0.,-0.707106781186548));
#745=DIRECTION('',(6.18307080214612E-32,1.,0.));
#746=DIRECTION('center_axis',(0.,1.,2.96059473233375E-16));
#747=DIRECTION('ref_axis',(0.707106781186548,-2.09345661157836E-16,0.707106781186548));
#748=DIRECTION('',(0.,1.,2.96059473233375E-16));
#749=DIRECTION('center_axis',(0.,1.,7.56970244062607E-17));
#750=DIRECTION('ref_axis',(0.707106781186548,-2.09345661157836E-16,0.707106781186548));
#751=DIRECTION('',(0.,-1.,-2.96059473233375E-16));
#752=DIRECTION('center_axis',(-2.22044604925031E-16,-2.96059473233375E-16,
1.));
#753=DIRECTION('ref_axis',(1.,-5.43852429378756E-32,2.22044604925031E-16));
#754=DIRECTION('',(-1.,1.68081158782886E-32,-2.22044604925031E-16));
#755=DIRECTION('center_axis',(0.,1.,0.));
#756=DIRECTION('ref_axis',(-0.707106781186548,0.,0.707106781186548));
#757=DIRECTION('',(0.,1.,0.));
#758=DIRECTION('center_axis',(0.,1.,7.56970244062607E-17));
#759=DIRECTION('ref_axis',(-0.707106781186548,0.,0.707106781186548));
#760=DIRECTION('center_axis',(-1.,0.,0.));
#761=DIRECTION('ref_axis',(0.,-2.44929359829471E-16,1.));
#762=DIRECTION('',(0.,7.56970244062607E-17,-1.));
#763=DIRECTION('center_axis',(1.,-6.18307080214612E-32,2.0884556520413E-16));
#764=DIRECTION('ref_axis',(2.0884556520413E-16,2.44929359829471E-16,-1.));
#765=DIRECTION('',(-2.0884556520413E-16,-7.56970244062607E-17,1.));
#766=DIRECTION('center_axis',(0.,1.,7.56970244062607E-17));
#767=DIRECTION('ref_axis',(0.,-7.56970244062607E-17,1.));
#768=DIRECTION('',(1.,0.,0.));
#769=DIRECTION('',(0.,-7.56970244062607E-17,1.));
#770=DIRECTION('center_axis',(0.,-1.,-7.56970244062607E-17));
#771=DIRECTION('ref_axis',(1.,0.,0.));
#772=DIRECTION('center_axis',(0.,-1.,-7.56970244062607E-17));
#773=DIRECTION('ref_axis',(1.,0.,0.));
#774=DIRECTION('center_axis',(0.,-1.,-7.56970244062607E-17));
#775=DIRECTION('ref_axis',(1.,0.,0.));
#776=DIRECTION('center_axis',(0.,-1.,-7.56970244062607E-17));
#777=DIRECTION('ref_axis',(1.,0.,0.));
#778=DIRECTION('center_axis',(0.,-1.,-7.56970244062607E-17));
#779=DIRECTION('ref_axis',(1.,0.,0.));
#780=DIRECTION('center_axis',(0.,-1.,-7.56970244062607E-17));
#781=DIRECTION('ref_axis',(1.,0.,0.));
#782=DIRECTION('center_axis',(0.,-1.,-7.56970244062607E-17));
#783=DIRECTION('ref_axis',(1.,0.,0.));
#784=DIRECTION('center_axis',(0.,-1.,-2.44929359829471E-16));
#785=DIRECTION('ref_axis',(1.,0.,0.));
#786=DIRECTION('',(0.707106781186547,0.707106781186547,2.59786816870648E-16));
#787=DIRECTION('center_axis',(0.,-1.,-2.44929359829471E-16));
#788=DIRECTION('ref_axis',(1.,0.,0.));
#789=DIRECTION('center_axis',(0.,-1.,-2.44929359829471E-16));
#790=DIRECTION('ref_axis',(1.,0.,0.));
#791=DIRECTION('',(0.,1.,2.44929359829471E-16));
#792=DIRECTION('center_axis',(0.,-1.,-2.44929359829471E-16));
#793=DIRECTION('ref_axis',(1.,0.,0.));
#794=DIRECTION('',(0.707106781186547,0.707106781186547,2.59786816870648E-16));
#795=DIRECTION('center_axis',(0.,-1.,-2.44929359829471E-16));
#796=DIRECTION('ref_axis',(1.,0.,0.));
#797=DIRECTION('center_axis',(0.,-1.,-2.44929359829471E-16));
#798=DIRECTION('ref_axis',(1.,0.,0.));
#799=DIRECTION('',(0.,1.,2.44929359829471E-16));
#800=DIRECTION('center_axis',(0.,-1.,-2.44929359829471E-16));
#801=DIRECTION('ref_axis',(1.,0.,0.));
#802=DIRECTION('',(0.707106781186547,0.707106781186547,2.59786816870648E-16));
#803=DIRECTION('center_axis',(0.,-1.,-2.44929359829471E-16));
#804=DIRECTION('ref_axis',(1.,0.,0.));
#805=DIRECTION('center_axis',(0.,-1.,-2.44929359829471E-16));
#806=DIRECTION('ref_axis',(1.,0.,0.));
#807=DIRECTION('',(0.,1.,2.44929359829471E-16));
#808=DIRECTION('center_axis',(0.,-1.,-2.44929359829471E-16));
#809=DIRECTION('ref_axis',(1.,0.,0.));
#810=DIRECTION('',(0.707106781186547,0.707106781186547,2.59786816870648E-16));
#811=DIRECTION('center_axis',(0.,-1.,-2.44929359829471E-16));
#812=DIRECTION('ref_axis',(1.,0.,0.));
#813=DIRECTION('center_axis',(0.,-1.,-2.44929359829471E-16));
#814=DIRECTION('ref_axis',(1.,0.,0.));
#815=DIRECTION('',(0.,1.,2.44929359829471E-16));
#816=DIRECTION('center_axis',(0.,-1.,-2.44929359829471E-16));
#817=DIRECTION('ref_axis',(1.,0.,0.));
#818=DIRECTION('',(0.707106781186547,0.707106781186547,2.59786816870648E-16));
#819=DIRECTION('center_axis',(0.,-1.,-2.44929359829471E-16));
#820=DIRECTION('ref_axis',(1.,0.,0.));
#821=DIRECTION('center_axis',(0.,-1.,-2.44929359829471E-16));
#822=DIRECTION('ref_axis',(1.,0.,0.));
#823=DIRECTION('',(0.,1.,2.44929359829471E-16));
#824=DIRECTION('center_axis',(0.,-1.,-2.44929359829471E-16));
#825=DIRECTION('ref_axis',(1.,0.,0.));
#826=DIRECTION('',(0.707106781186547,0.707106781186547,2.59786816870648E-16));
#827=DIRECTION('center_axis',(0.,-1.,-2.44929359829471E-16));
#828=DIRECTION('ref_axis',(1.,0.,0.));
#829=DIRECTION('center_axis',(0.,-1.,-2.44929359829471E-16));
#830=DIRECTION('ref_axis',(1.,0.,0.));
#831=DIRECTION('',(0.,1.,2.44929359829471E-16));
#832=DIRECTION('center_axis',(0.,-1.,-2.44929359829471E-16));
#833=DIRECTION('ref_axis',(1.,0.,0.));
#834=DIRECTION('',(0.707106781186547,0.707106781186547,2.59786816870648E-16));
#835=DIRECTION('center_axis',(0.,-1.,-2.44929359829471E-16));
#836=DIRECTION('ref_axis',(1.,0.,0.));
#837=DIRECTION('center_axis',(0.,-1.,-2.44929359829471E-16));
#838=DIRECTION('ref_axis',(1.,0.,0.));
#839=DIRECTION('',(0.,1.,2.44929359829471E-16));
#840=DIRECTION('center_axis',(0.,2.77555756156289E-16,-1.));
#841=DIRECTION('ref_axis',(0.,1.,2.77555756156289E-16));
#842=DIRECTION('',(1.,0.,0.));
#843=DIRECTION('',(0.,1.,2.77555756156289E-16));
#844=DIRECTION('center_axis',(0.,0.707106781186547,0.707106781186548));
#845=DIRECTION('ref_axis',(0.,-0.707106781186548,0.707106781186547));
#846=DIRECTION('',(0.,-0.707106781186548,0.707106781186548));
#847=DIRECTION('center_axis',(1.,0.,0.));
#848=DIRECTION('ref_axis',(0.,0.,-1.));
#849=CARTESIAN_POINT('',(0.,0.,0.));
#850=CARTESIAN_POINT('Origin',(-48.,0.750000000000003,-12.368));
#851=CARTESIAN_POINT('',(-48.,3.51914504202983E-15,-14.368));
#852=CARTESIAN_POINT('',(-50.,3.02928632237089E-15,-12.368));
#853=CARTESIAN_POINT('Origin',(-48.,3.60822483003176E-15,-12.368));
#854=CARTESIAN_POINT('',(-50.,3.,-12.368));
#855=CARTESIAN_POINT('',(-50.,0.750000000000003,-12.368));
#856=CARTESIAN_POINT('',(-48.,3.,-14.368));
#857=CARTESIAN_POINT('Origin',(-48.,3.,-12.368));
#858=CARTESIAN_POINT('',(-48.,0.750000000000003,-14.368));
#859=CARTESIAN_POINT('Origin',(-50.,1.5,-12.5));
#860=CARTESIAN_POINT('',(-50.,0.,0.));
#861=CARTESIAN_POINT('',(-50.,6.12323399573676E-15,-25.));
#862=CARTESIAN_POINT('',(-50.,5.,-5.));
#863=CARTESIAN_POINT('',(-50.,0.,0.));
#864=CARTESIAN_POINT('',(-50.,3.,-5.));
#865=CARTESIAN_POINT('',(-50.,3.,-5.));
#866=CARTESIAN_POINT('',(-50.,3.,-3.));
#867=CARTESIAN_POINT('Origin',(0.,-9.86076131526265E-31,0.));
#868=CARTESIAN_POINT('',(-32.,3.51914504202983E-15,-14.368));
#869=CARTESIAN_POINT('',(-25.,3.51914504202983E-15,-14.368));
#870=CARTESIAN_POINT('',(-30.,4.00900376168877E-15,-16.368));
#871=CARTESIAN_POINT('Origin',(-32.,4.84590145788387E-15,-16.368));
#872=CARTESIAN_POINT('',(-30.,5.63337527607782E-15,-23.));
#873=CARTESIAN_POINT('',(-30.,1.75957252101492E-15,-7.184));
#874=CARTESIAN_POINT('',(-28.,6.12323399573676E-15,-25.));
#875=CARTESIAN_POINT('Origin',(-28.,9.86076131526265E-31,-23.));
#876=CARTESIAN_POINT('',(28.,6.12323399573676E-15,-25.));
#877=CARTESIAN_POINT('',(0.,6.12323399573676E-15,-25.));
#878=CARTESIAN_POINT('',(30.,5.63337527607782E-15,-23.));
#879=CARTESIAN_POINT('Origin',(28.,-9.86076131526265E-31,-23.));
#880=CARTESIAN_POINT('',(30.,4.00900376168877E-15,-16.368));
#881=CARTESIAN_POINT('',(30.,3.06161699786838E-15,-12.5));
#882=CARTESIAN_POINT('',(32.,3.51914504202983E-15,-14.368));
#883=CARTESIAN_POINT('Origin',(32.,-9.86076131526265E-31,-16.368));
#884=CARTESIAN_POINT('',(48.,3.51914504202983E-15,-14.368));
#885=CARTESIAN_POINT('',(15.,3.51914504202983E-15,-14.368));
#886=CARTESIAN_POINT('',(50.,3.02928632237089E-15,-12.368));
#887=CARTESIAN_POINT('Origin',(48.,0.,-12.368));
#888=CARTESIAN_POINT('',(50.,0.,0.));
#889=CARTESIAN_POINT('',(50.,6.12323399573676E-15,-25.));
#890=CARTESIAN_POINT('',(0.,0.,0.));
#891=CARTESIAN_POINT('',(-30.,1.66533453693773E-15,-10.5));
#892=CARTESIAN_POINT('Origin',(-26.5,2.63677968348475E-15,-10.5));
#893=CARTESIAN_POINT('',(-12.3333333333333,1.66533453693773E-15,-10.5));
#894=CARTESIAN_POINT('Origin',(-8.83333333333334,2.63677968348475E-15,-10.5));
#895=CARTESIAN_POINT('',(5.33333333333334,1.66533453693773E-15,-10.5));
#896=CARTESIAN_POINT('Origin',(8.83333333333334,2.63677968348475E-15,-10.5));
#897=CARTESIAN_POINT('',(23.,1.66533453693773E-15,-10.5));
#898=CARTESIAN_POINT('Origin',(26.5,2.63677968348475E-15,-10.5));
#899=CARTESIAN_POINT('',(-21.1666666666667,3.7470027081099E-15,-19.5));
#900=CARTESIAN_POINT('Origin',(-17.6666666666667,4.71844785465692E-15,-19.5));
#901=CARTESIAN_POINT('',(-3.5,3.7470027081099E-15,-19.5));
#902=CARTESIAN_POINT('Origin',(0.,4.71844785465692E-15,-19.5));
#903=CARTESIAN_POINT('',(14.1666666666667,3.7470027081099E-15,-19.5));
#904=CARTESIAN_POINT('Origin',(17.6666666666667,4.71844785465692E-15,-19.5));
#905=CARTESIAN_POINT('Origin',(48.,0.750000000000003,-12.368));
#906=CARTESIAN_POINT('',(48.,3.,-14.368));
#907=CARTESIAN_POINT('',(50.,3.,-12.368));
#908=CARTESIAN_POINT('Origin',(48.,3.,-12.368));
#909=CARTESIAN_POINT('',(50.,0.750000000000003,-12.368));
#910=CARTESIAN_POINT('',(48.,0.750000000000003,-14.368));
#911=CARTESIAN_POINT('Origin',(30.,3.51914504202983E-15,-14.368));
#912=CARTESIAN_POINT('',(32.,3.,-14.368));
#913=CARTESIAN_POINT('',(32.,4.8211895188833E-15,-14.368));
#914=CARTESIAN_POINT('',(15.,3.,-14.368));
#915=CARTESIAN_POINT('Origin',(28.,6.11473031558756E-15,-23.));
#916=CARTESIAN_POINT('',(28.,3.,-25.));
#917=CARTESIAN_POINT('',(28.,6.11473031558756E-15,-25.));
#918=CARTESIAN_POINT('',(30.,3.,-23.));
#919=CARTESIAN_POINT('Origin',(28.,3.,-23.));
#920=CARTESIAN_POINT('',(30.,6.11473031558756E-15,-23.));
#921=CARTESIAN_POINT('Origin',(0.,6.10622663543836E-15,-25.));
#922=CARTESIAN_POINT('',(-28.,3.,-25.));
#923=CARTESIAN_POINT('',(-28.,4.8126858387341E-15,-25.));
#924=CARTESIAN_POINT('',(0.,3.,-25.));
#925=CARTESIAN_POINT('Origin',(-28.,4.8126858387341E-15,-23.));
#926=CARTESIAN_POINT('',(-30.,3.,-23.));
#927=CARTESIAN_POINT('Origin',(-28.,3.,-23.));
#928=CARTESIAN_POINT('',(-30.,4.8126858387341E-15,-23.));
#929=CARTESIAN_POINT('Origin',(-32.,4.11126398849658E-15,-16.368));
#930=CARTESIAN_POINT('',(-32.,3.,-14.368));
#931=CARTESIAN_POINT('',(-32.,3.51914504202983E-15,-14.368));
#932=CARTESIAN_POINT('',(-30.,3.,-16.368));
#933=CARTESIAN_POINT('Origin',(-32.,3.,-16.368));
#934=CARTESIAN_POINT('',(-30.,4.11126398849658E-15,-16.368));
#935=CARTESIAN_POINT('Origin',(-50.,3.51914504202983E-15,-14.368));
#936=CARTESIAN_POINT('',(-25.,3.,-14.368));
#937=CARTESIAN_POINT('Origin',(32.,4.8211895188833E-15,-16.368));
#938=CARTESIAN_POINT('',(30.,3.,-16.368));
#939=CARTESIAN_POINT('',(30.,4.8211895188833E-15,-16.368));
#940=CARTESIAN_POINT('Origin',(32.,3.,-16.368));
#941=CARTESIAN_POINT('Origin',(30.,6.12323399573677E-15,-25.));
#942=CARTESIAN_POINT('',(30.,3.,-25.));
#943=CARTESIAN_POINT('Origin',(-30.,3.51914504202983E-15,-14.368));
#944=CARTESIAN_POINT('',(-30.,3.,-19.684));
#945=CARTESIAN_POINT('Origin',(0.,3.,-25.));
#946=CARTESIAN_POINT('',(50.,3.,-5.));
#947=CARTESIAN_POINT('',(0.,3.,-5.));
#948=CARTESIAN_POINT('',(50.,3.,-3.));
#949=CARTESIAN_POINT('',(16.0666666666667,3.,-19.5));
#950=CARTESIAN_POINT('Origin',(17.6666666666667,3.,-19.5));
#951=CARTESIAN_POINT('',(-1.6,3.,-19.5));
#952=CARTESIAN_POINT('Origin',(0.,3.,-19.5));
#953=CARTESIAN_POINT('',(-19.2666666666667,3.,-19.5));
#954=CARTESIAN_POINT('Origin',(-17.6666666666667,3.,-19.5));
#955=CARTESIAN_POINT('',(24.9,3.,-10.5));
#956=CARTESIAN_POINT('Origin',(26.5,3.,-10.5));
#957=CARTESIAN_POINT('',(7.23333333333334,3.,-10.5));
#958=CARTESIAN_POINT('Origin',(8.83333333333334,3.,-10.5));
#959=CARTESIAN_POINT('',(-10.4333333333333,3.,-10.5));
#960=CARTESIAN_POINT('Origin',(-8.83333333333334,3.,-10.5));
#961=CARTESIAN_POINT('',(-28.1,3.,-10.5));
#962=CARTESIAN_POINT('Origin',(-26.5,3.,-10.5));
#963=CARTESIAN_POINT('Origin',(-26.5,0.950000000000003,-10.5));
#964=CARTESIAN_POINT('',(-28.1,1.9,-10.5));
#965=CARTESIAN_POINT('',(-29.05,0.950000000000003,-10.5));
#966=CARTESIAN_POINT('Origin',(-26.5,1.9,-10.5));
#967=CARTESIAN_POINT('Origin',(-26.5,4.4,-10.5));
#968=CARTESIAN_POINT('',(-28.1,4.4,-10.5));
#969=CARTESIAN_POINT('Origin',(-8.83333333333334,0.950000000000003,-10.5));
#970=CARTESIAN_POINT('',(-10.4333333333333,1.9,-10.5));
#971=CARTESIAN_POINT('',(-11.3833333333333,0.950000000000003,-10.5));
#972=CARTESIAN_POINT('Origin',(-8.83333333333334,1.9,-10.5));
#973=CARTESIAN_POINT('Origin',(-8.83333333333334,4.4,-10.5));
#974=CARTESIAN_POINT('',(-10.4333333333333,4.4,-10.5));
#975=CARTESIAN_POINT('Origin',(8.83333333333334,0.950000000000003,-10.5));
#976=CARTESIAN_POINT('',(7.23333333333334,1.9,-10.5));
#977=CARTESIAN_POINT('',(6.28333333333334,0.950000000000003,-10.5));
#978=CARTESIAN_POINT('Origin',(8.83333333333334,1.9,-10.5));
#979=CARTESIAN_POINT('Origin',(8.83333333333334,4.4,-10.5));
#980=CARTESIAN_POINT('',(7.23333333333334,4.4,-10.5));
#981=CARTESIAN_POINT('Origin',(26.5,0.950000000000003,-10.5));
#982=CARTESIAN_POINT('',(24.9,1.9,-10.5));
#983=CARTESIAN_POINT('',(23.95,0.950000000000003,-10.5));
#984=CARTESIAN_POINT('Origin',(26.5,1.9,-10.5));
#985=CARTESIAN_POINT('Origin',(26.5,4.4,-10.5));
#986=CARTESIAN_POINT('',(24.9,4.4,-10.5));
#987=CARTESIAN_POINT('Origin',(-17.6666666666667,0.950000000000005,-19.5));
#988=CARTESIAN_POINT('',(-19.2666666666667,1.9,-19.5));
#989=CARTESIAN_POINT('',(-20.2166666666667,0.950000000000005,-19.5));
#990=CARTESIAN_POINT('Origin',(-17.6666666666667,1.9,-19.5));
#991=CARTESIAN_POINT('Origin',(-17.6666666666667,4.40000000000001,-19.5));
#992=CARTESIAN_POINT('',(-19.2666666666667,4.40000000000001,-19.5));
#993=CARTESIAN_POINT('Origin',(0.,0.950000000000005,-19.5));
#994=CARTESIAN_POINT('',(-1.6,1.9,-19.5));
#995=CARTESIAN_POINT('',(-2.55,0.950000000000005,-19.5));
#996=CARTESIAN_POINT('Origin',(0.,1.9,-19.5));
#997=CARTESIAN_POINT('Origin',(0.,4.40000000000001,-19.5));
#998=CARTESIAN_POINT('',(-1.6,4.40000000000001,-19.5));
#999=CARTESIAN_POINT('Origin',(17.6666666666667,0.950000000000005,-19.5));
#1000=CARTESIAN_POINT('',(16.0666666666667,1.9,-19.5));
#1001=CARTESIAN_POINT('',(15.1166666666667,0.950000000000005,-19.5));
#1002=CARTESIAN_POINT('Origin',(17.6666666666667,1.9,-19.5));
#1003=CARTESIAN_POINT('Origin',(17.6666666666667,4.40000000000001,-19.5));
#1004=CARTESIAN_POINT('',(16.0666666666667,4.40000000000001,-19.5));
#1005=CARTESIAN_POINT('Origin',(0.,3.,-5.));
#1006=CARTESIAN_POINT('',(50.,5.,-5.));
#1007=CARTESIAN_POINT('',(0.,5.,-5.));
#1008=CARTESIAN_POINT('',(50.,3.,-5.));
#1009=CARTESIAN_POINT('Origin',(0.,3.,-3.));
#1010=CARTESIAN_POINT('',(50.,5.,-5.));
#1011=CARTESIAN_POINT('Origin',(50.,1.5,-12.5));
#1012=UNCERTAINTY_MEASURE_WITH_UNIT(LENGTH_MEASURE(0.01),#1016,
'DISTANCE_ACCURACY_VALUE',
'Maximum model space distance between geometric entities at asserted c
onnectivities');
#1013=UNCERTAINTY_MEASURE_WITH_UNIT(LENGTH_MEASURE(0.01),#1016,
'DISTANCE_ACCURACY_VALUE',
'Maximum model space distance between geometric entities at asserted c
onnectivities');
#1014=(
GEOMETRIC_REPRESENTATION_CONTEXT(3)
GLOBAL_UNCERTAINTY_ASSIGNED_CONTEXT((#1012))
GLOBAL_UNIT_ASSIGNED_CONTEXT((#1016,#1018,#1019))
REPRESENTATION_CONTEXT('','3D')
);
#1015=(
GEOMETRIC_REPRESENTATION_CONTEXT(3)
GLOBAL_UNCERTAINTY_ASSIGNED_CONTEXT((#1013))
GLOBAL_UNIT_ASSIGNED_CONTEXT((#1016,#1018,#1019))
REPRESENTATION_CONTEXT('','3D')
);
#1016=(
LENGTH_UNIT()
NAMED_UNIT(*)
SI_UNIT(.MILLI.,.METRE.)
);
#1017=(
LENGTH_UNIT()
NAMED_UNIT(*)
SI_UNIT(.CENTI.,.METRE.)
);
#1018=(
NAMED_UNIT(*)
PLANE_ANGLE_UNIT()
SI_UNIT($,.RADIAN.)
);
#1019=(
NAMED_UNIT(*)
SI_UNIT($,.STERADIAN.)
SOLID_ANGLE_UNIT()
);
#1020=SHAPE_DEFINITION_REPRESENTATION(#1021,#1022);
#1021=PRODUCT_DEFINITION_SHAPE('',$,#1024);
#1022=SHAPE_REPRESENTATION('',(#607),#1014);
#1023=PRODUCT_DEFINITION_CONTEXT('part definition',#1028,'design');
#1024=PRODUCT_DEFINITION('Plog2','plug',#1025,#1023);
#1025=PRODUCT_DEFINITION_FORMATION('',$,#1030);
#1026=PRODUCT_RELATED_PRODUCT_CATEGORY('plug','plug',(#1030));
#1027=APPLICATION_PROTOCOL_DEFINITION('international standard',
'automotive_design',2009,#1028);
#1028=APPLICATION_CONTEXT(
'Core Data for Automotive Mechanical Design Process');
#1029=PRODUCT_CONTEXT('part definition',#1028,'mechanical');
#1030=PRODUCT('Plog2','plug',$,(#1029));
#1031=PRESENTATION_STYLE_ASSIGNMENT((#1032));
#1032=SURFACE_STYLE_USAGE(.BOTH.,#1035);
#1033=SURFACE_STYLE_RENDERING_WITH_PROPERTIES($,#1039,(#1034));
#1034=SURFACE_STYLE_TRANSPARENT(0.);
#1035=SURFACE_SIDE_STYLE('',(#1036,#1033));
#1036=SURFACE_STYLE_FILL_AREA(#1037);
#1037=FILL_AREA_STYLE('',(#1038));
#1038=FILL_AREA_STYLE_COLOUR('',#1039);
#1039=COLOUR_RGB('',0.270588235294118,0.270588235294118,0.270588235294118);
ENDSEC;
END-ISO-10303-21;
