ISO-10303-21;
HEADER;
/* Generated by software containing ST-Developer
 * from STEP Tools, Inc. (www.steptools.com) 
 */

FILE_DESCRIPTION(
/* description */ (''),
/* implementation_level */ '2;1');

FILE_NAME(
/* name */ 'SpringSteelFront.stp',
/* time_stamp */ '2026-04-11T11:21:40+02:00',
/* author */ ('szymo'),
/* organization */ (''),
/* preprocessor_version */ 'ST-DEVELOPER v20.1',
/* originating_system */ 'Autodesk Inventor 2026',
/* authorisation */ '');

FILE_SCHEMA (('AUTOMOTIVE_DESIGN { 1 0 10303 214 3 1 1 }'));
ENDSEC;

DATA;
#10=MECHANICAL_DESIGN_GEOMETRIC_PRESENTATION_REPRESENTATION('',(#13),#706);
#11=SHAPE_REPRESENTATION_RELATIONSHIP('SRR','None',#713,#12);
#12=ADVANCED_BREP_SHAPE_REPRESENTATION('',(#14),#705);
#13=STYLED_ITEM('',(#722),#14);
#14=MANIFOLD_SOLID_BREP('',#413);
#15=FACE_BOUND('',#77,.T.);
#16=FACE_BOUND('',#78,.T.);
#17=FACE_BOUND('',#79,.T.);
#18=FACE_BOUND('',#80,.T.);
#19=FACE_BOUND('',#81,.T.);
#20=FACE_BOUND('',#82,.T.);
#21=FACE_BOUND('',#83,.T.);
#22=FACE_BOUND('',#84,.T.);
#23=FACE_BOUND('',#89,.T.);
#24=FACE_BOUND('',#90,.T.);
#25=FACE_BOUND('',#91,.T.);
#26=FACE_BOUND('',#92,.T.);
#27=FACE_BOUND('',#93,.T.);
#28=FACE_BOUND('',#94,.T.);
#29=FACE_BOUND('',#95,.T.);
#30=FACE_BOUND('',#96,.T.);
#31=PLANE('',#445);
#32=PLANE('',#446);
#33=PLANE('',#456);
#34=PLANE('',#457);
#35=PLANE('',#470);
#36=PLANE('',#471);
#37=PLANE('',#472);
#38=PLANE('',#473);
#39=PLANE('',#474);
#40=PLANE('',#475);
#41=FACE_OUTER_BOUND('',#61,.T.);
#42=FACE_OUTER_BOUND('',#62,.T.);
#43=FACE_OUTER_BOUND('',#63,.T.);
#44=FACE_OUTER_BOUND('',#64,.T.);
#45=FACE_OUTER_BOUND('',#65,.T.);
#46=FACE_OUTER_BOUND('',#66,.T.);
#47=FACE_OUTER_BOUND('',#67,.T.);
#48=FACE_OUTER_BOUND('',#68,.T.);
#49=FACE_OUTER_BOUND('',#69,.T.);
#50=FACE_OUTER_BOUND('',#70,.T.);
#51=FACE_OUTER_BOUND('',#71,.T.);
#52=FACE_OUTER_BOUND('',#72,.T.);
#53=FACE_OUTER_BOUND('',#73,.T.);
#54=FACE_OUTER_BOUND('',#74,.T.);
#55=FACE_OUTER_BOUND('',#75,.T.);
#56=FACE_OUTER_BOUND('',#76,.T.);
#57=FACE_OUTER_BOUND('',#85,.T.);
#58=FACE_OUTER_BOUND('',#86,.T.);
#59=FACE_OUTER_BOUND('',#87,.T.);
#60=FACE_OUTER_BOUND('',#88,.T.);
#61=EDGE_LOOP('',(#275,#276,#277,#278));
#62=EDGE_LOOP('',(#279,#280,#281,#282));
#63=EDGE_LOOP('',(#283,#284,#285,#286));
#64=EDGE_LOOP('',(#287,#288,#289,#290));
#65=EDGE_LOOP('',(#291,#292,#293,#294));
#66=EDGE_LOOP('',(#295,#296,#297,#298));
#67=EDGE_LOOP('',(#299,#300,#301,#302));
#68=EDGE_LOOP('',(#303,#304,#305,#306));
#69=EDGE_LOOP('',(#307,#308,#309,#310));
#70=EDGE_LOOP('',(#311,#312,#313,#314));
#71=EDGE_LOOP('',(#315,#316,#317,#318));
#72=EDGE_LOOP('',(#319,#320,#321,#322));
#73=EDGE_LOOP('',(#323,#324,#325,#326));
#74=EDGE_LOOP('',(#327,#328,#329,#330));
#75=EDGE_LOOP('',(#331,#332,#333,#334));
#76=EDGE_LOOP('',(#335,#336,#337,#338));
#77=EDGE_LOOP('',(#339,#340,#341,#342));
#78=EDGE_LOOP('',(#343));
#79=EDGE_LOOP('',(#344));
#80=EDGE_LOOP('',(#345));
#81=EDGE_LOOP('',(#346));
#82=EDGE_LOOP('',(#347));
#83=EDGE_LOOP('',(#348));
#84=EDGE_LOOP('',(#349,#350,#351,#352));
#85=EDGE_LOOP('',(#353,#354,#355,#356));
#86=EDGE_LOOP('',(#357,#358,#359,#360));
#87=EDGE_LOOP('',(#361,#362,#363,#364));
#88=EDGE_LOOP('',(#365,#366,#367,#368));
#89=EDGE_LOOP('',(#369,#370,#371,#372));
#90=EDGE_LOOP('',(#373));
#91=EDGE_LOOP('',(#374));
#92=EDGE_LOOP('',(#375));
#93=EDGE_LOOP('',(#376));
#94=EDGE_LOOP('',(#377));
#95=EDGE_LOOP('',(#378));
#96=EDGE_LOOP('',(#379,#380,#381,#382));
#97=LINE('',#597,#131);
#98=LINE('',#603,#132);
#99=LINE('',#610,#133);
#100=LINE('',#613,#134);
#101=LINE('',#616,#135);
#102=LINE('',#618,#136);
#103=LINE('',#619,#137);
#104=LINE('',#622,#138);
#105=LINE('',#624,#139);
#106=LINE('',#625,#140);
#107=LINE('',#633,#141);
#108=LINE('',#640,#142);
#109=LINE('',#643,#143);
#110=LINE('',#646,#144);
#111=LINE('',#648,#145);
#112=LINE('',#649,#146);
#113=LINE('',#652,#147);
#114=LINE('',#654,#148);
#115=LINE('',#655,#149);
#116=LINE('',#663,#150);
#117=LINE('',#669,#151);
#118=LINE('',#675,#152);
#119=LINE('',#680,#153);
#120=LINE('',#682,#154);
#121=LINE('',#684,#155);
#122=LINE('',#685,#156);
#123=LINE('',#689,#157);
#124=LINE('',#690,#158);
#125=LINE('',#691,#159);
#126=LINE('',#694,#160);
#127=LINE('',#695,#161);
#128=LINE('',#698,#162);
#129=LINE('',#699,#163);
#130=LINE('',#701,#164);
#131=VECTOR('',#482,4.);
#132=VECTOR('',#489,1.5);
#133=VECTOR('',#496,10.);
#134=VECTOR('',#499,10.);
#135=VECTOR('',#502,10.);
#136=VECTOR('',#503,10.);
#137=VECTOR('',#504,10.);
#138=VECTOR('',#507,10.);
#139=VECTOR('',#508,10.);
#140=VECTOR('',#509,10.);
#141=VECTOR('',#520,1.5);
#142=VECTOR('',#527,10.);
#143=VECTOR('',#530,10.);
#144=VECTOR('',#533,10.);
#145=VECTOR('',#534,10.);
#146=VECTOR('',#535,10.);
#147=VECTOR('',#538,10.);
#148=VECTOR('',#539,10.);
#149=VECTOR('',#540,10.);
#150=VECTOR('',#551,1.5);
#151=VECTOR('',#558,4.);
#152=VECTOR('',#565,1.5);
#153=VECTOR('',#570,10.);
#154=VECTOR('',#571,10.);
#155=VECTOR('',#572,10.);
#156=VECTOR('',#573,10.);
#157=VECTOR('',#576,10.);
#158=VECTOR('',#577,10.);
#159=VECTOR('',#578,10.);
#160=VECTOR('',#581,10.);
#161=VECTOR('',#582,10.);
#162=VECTOR('',#585,8.82449083540779);
#163=VECTOR('',#586,10.);
#164=VECTOR('',#589,10.);
#165=CIRCLE('',#437,4.);
#166=CIRCLE('',#438,4.);
#167=CIRCLE('',#440,1.5);
#168=CIRCLE('',#441,1.5);
#169=CIRCLE('',#443,4.);
#170=CIRCLE('',#444,4.);
#171=CIRCLE('',#448,4.00000000000001);
#172=CIRCLE('',#449,4.00000000000001);
#173=CIRCLE('',#451,1.5);
#174=CIRCLE('',#452,1.5);
#175=CIRCLE('',#454,3.99999999999999);
#176=CIRCLE('',#455,3.99999999999999);
#177=CIRCLE('',#459,3.99999999999999);
#178=CIRCLE('',#460,3.99999999999999);
#179=CIRCLE('',#462,1.5);
#180=CIRCLE('',#463,1.5);
#181=CIRCLE('',#465,4.);
#182=CIRCLE('',#466,4.);
#183=CIRCLE('',#468,1.5);
#184=CIRCLE('',#469,1.5);
#185=VERTEX_POINT('',#594);
#186=VERTEX_POINT('',#596);
#187=VERTEX_POINT('',#600);
#188=VERTEX_POINT('',#602);
#189=VERTEX_POINT('',#606);
#190=VERTEX_POINT('',#607);
#191=VERTEX_POINT('',#609);
#192=VERTEX_POINT('',#611);
#193=VERTEX_POINT('',#615);
#194=VERTEX_POINT('',#617);
#195=VERTEX_POINT('',#621);
#196=VERTEX_POINT('',#623);
#197=VERTEX_POINT('',#630);
#198=VERTEX_POINT('',#632);
#199=VERTEX_POINT('',#636);
#200=VERTEX_POINT('',#637);
#201=VERTEX_POINT('',#639);
#202=VERTEX_POINT('',#641);
#203=VERTEX_POINT('',#645);
#204=VERTEX_POINT('',#647);
#205=VERTEX_POINT('',#651);
#206=VERTEX_POINT('',#653);
#207=VERTEX_POINT('',#660);
#208=VERTEX_POINT('',#662);
#209=VERTEX_POINT('',#666);
#210=VERTEX_POINT('',#668);
#211=VERTEX_POINT('',#672);
#212=VERTEX_POINT('',#674);
#213=VERTEX_POINT('',#678);
#214=VERTEX_POINT('',#679);
#215=VERTEX_POINT('',#681);
#216=VERTEX_POINT('',#683);
#217=VERTEX_POINT('',#687);
#218=VERTEX_POINT('',#688);
#219=VERTEX_POINT('',#693);
#220=VERTEX_POINT('',#697);
#221=EDGE_CURVE('',#185,#185,#165,.T.);
#222=EDGE_CURVE('',#185,#186,#97,.T.);
#223=EDGE_CURVE('',#186,#186,#166,.T.);
#224=EDGE_CURVE('',#187,#187,#167,.T.);
#225=EDGE_CURVE('',#187,#188,#98,.T.);
#226=EDGE_CURVE('',#188,#188,#168,.T.);
#227=EDGE_CURVE('',#189,#190,#169,.T.);
#228=EDGE_CURVE('',#191,#189,#99,.T.);
#229=EDGE_CURVE('',#192,#191,#170,.T.);
#230=EDGE_CURVE('',#190,#192,#100,.T.);
#231=EDGE_CURVE('',#190,#193,#101,.T.);
#232=EDGE_CURVE('',#194,#192,#102,.T.);
#233=EDGE_CURVE('',#193,#194,#103,.T.);
#234=EDGE_CURVE('',#195,#189,#104,.T.);
#235=EDGE_CURVE('',#195,#196,#105,.T.);
#236=EDGE_CURVE('',#191,#196,#106,.T.);
#237=EDGE_CURVE('',#193,#195,#171,.T.);
#238=EDGE_CURVE('',#196,#194,#172,.T.);
#239=EDGE_CURVE('',#197,#197,#173,.T.);
#240=EDGE_CURVE('',#197,#198,#107,.T.);
#241=EDGE_CURVE('',#198,#198,#174,.T.);
#242=EDGE_CURVE('',#199,#200,#175,.T.);
#243=EDGE_CURVE('',#199,#201,#108,.T.);
#244=EDGE_CURVE('',#202,#201,#176,.T.);
#245=EDGE_CURVE('',#200,#202,#109,.T.);
#246=EDGE_CURVE('',#203,#199,#110,.T.);
#247=EDGE_CURVE('',#203,#204,#111,.T.);
#248=EDGE_CURVE('',#201,#204,#112,.T.);
#249=EDGE_CURVE('',#200,#205,#113,.T.);
#250=EDGE_CURVE('',#206,#202,#114,.T.);
#251=EDGE_CURVE('',#206,#205,#115,.T.);
#252=EDGE_CURVE('',#205,#203,#177,.T.);
#253=EDGE_CURVE('',#204,#206,#178,.T.);
#254=EDGE_CURVE('',#207,#207,#179,.T.);
#255=EDGE_CURVE('',#207,#208,#116,.T.);
#256=EDGE_CURVE('',#208,#208,#180,.T.);
#257=EDGE_CURVE('',#209,#209,#181,.T.);
#258=EDGE_CURVE('',#209,#210,#117,.T.);
#259=EDGE_CURVE('',#210,#210,#182,.T.);
#260=EDGE_CURVE('',#211,#211,#183,.T.);
#261=EDGE_CURVE('',#211,#212,#118,.T.);
#262=EDGE_CURVE('',#212,#212,#184,.T.);
#263=EDGE_CURVE('',#213,#214,#119,.T.);
#264=EDGE_CURVE('',#214,#215,#120,.T.);
#265=EDGE_CURVE('',#215,#216,#121,.T.);
#266=EDGE_CURVE('',#213,#216,#122,.T.);
#267=EDGE_CURVE('',#217,#218,#123,.T.);
#268=EDGE_CURVE('',#218,#214,#124,.T.);
#269=EDGE_CURVE('',#217,#213,#125,.T.);
#270=EDGE_CURVE('',#216,#219,#126,.T.);
#271=EDGE_CURVE('',#217,#219,#127,.T.);
#272=EDGE_CURVE('',#219,#220,#128,.T.);
#273=EDGE_CURVE('',#218,#220,#129,.T.);
#274=EDGE_CURVE('',#220,#215,#130,.T.);
#275=ORIENTED_EDGE('',*,*,#221,.F.);
#276=ORIENTED_EDGE('',*,*,#222,.T.);
#277=ORIENTED_EDGE('',*,*,#223,.F.);
#278=ORIENTED_EDGE('',*,*,#222,.F.);
#279=ORIENTED_EDGE('',*,*,#224,.F.);
#280=ORIENTED_EDGE('',*,*,#225,.T.);
#281=ORIENTED_EDGE('',*,*,#226,.F.);
#282=ORIENTED_EDGE('',*,*,#225,.F.);
#283=ORIENTED_EDGE('',*,*,#227,.F.);
#284=ORIENTED_EDGE('',*,*,#228,.F.);
#285=ORIENTED_EDGE('',*,*,#229,.F.);
#286=ORIENTED_EDGE('',*,*,#230,.F.);
#287=ORIENTED_EDGE('',*,*,#231,.F.);
#288=ORIENTED_EDGE('',*,*,#230,.T.);
#289=ORIENTED_EDGE('',*,*,#232,.F.);
#290=ORIENTED_EDGE('',*,*,#233,.F.);
#291=ORIENTED_EDGE('',*,*,#234,.F.);
#292=ORIENTED_EDGE('',*,*,#235,.T.);
#293=ORIENTED_EDGE('',*,*,#236,.F.);
#294=ORIENTED_EDGE('',*,*,#228,.T.);
#295=ORIENTED_EDGE('',*,*,#237,.F.);
#296=ORIENTED_EDGE('',*,*,#233,.T.);
#297=ORIENTED_EDGE('',*,*,#238,.F.);
#298=ORIENTED_EDGE('',*,*,#235,.F.);
#299=ORIENTED_EDGE('',*,*,#239,.F.);
#300=ORIENTED_EDGE('',*,*,#240,.T.);
#301=ORIENTED_EDGE('',*,*,#241,.F.);
#302=ORIENTED_EDGE('',*,*,#240,.F.);
#303=ORIENTED_EDGE('',*,*,#242,.F.);
#304=ORIENTED_EDGE('',*,*,#243,.T.);
#305=ORIENTED_EDGE('',*,*,#244,.F.);
#306=ORIENTED_EDGE('',*,*,#245,.F.);
#307=ORIENTED_EDGE('',*,*,#246,.F.);
#308=ORIENTED_EDGE('',*,*,#247,.T.);
#309=ORIENTED_EDGE('',*,*,#248,.F.);
#310=ORIENTED_EDGE('',*,*,#243,.F.);
#311=ORIENTED_EDGE('',*,*,#249,.F.);
#312=ORIENTED_EDGE('',*,*,#245,.T.);
#313=ORIENTED_EDGE('',*,*,#250,.F.);
#314=ORIENTED_EDGE('',*,*,#251,.T.);
#315=ORIENTED_EDGE('',*,*,#252,.F.);
#316=ORIENTED_EDGE('',*,*,#251,.F.);
#317=ORIENTED_EDGE('',*,*,#253,.F.);
#318=ORIENTED_EDGE('',*,*,#247,.F.);
#319=ORIENTED_EDGE('',*,*,#254,.F.);
#320=ORIENTED_EDGE('',*,*,#255,.T.);
#321=ORIENTED_EDGE('',*,*,#256,.F.);
#322=ORIENTED_EDGE('',*,*,#255,.F.);
#323=ORIENTED_EDGE('',*,*,#257,.F.);
#324=ORIENTED_EDGE('',*,*,#258,.T.);
#325=ORIENTED_EDGE('',*,*,#259,.F.);
#326=ORIENTED_EDGE('',*,*,#258,.F.);
#327=ORIENTED_EDGE('',*,*,#260,.F.);
#328=ORIENTED_EDGE('',*,*,#261,.T.);
#329=ORIENTED_EDGE('',*,*,#262,.F.);
#330=ORIENTED_EDGE('',*,*,#261,.F.);
#331=ORIENTED_EDGE('',*,*,#263,.T.);
#332=ORIENTED_EDGE('',*,*,#264,.T.);
#333=ORIENTED_EDGE('',*,*,#265,.T.);
#334=ORIENTED_EDGE('',*,*,#266,.F.);
#335=ORIENTED_EDGE('',*,*,#267,.T.);
#336=ORIENTED_EDGE('',*,*,#268,.T.);
#337=ORIENTED_EDGE('',*,*,#263,.F.);
#338=ORIENTED_EDGE('',*,*,#269,.F.);
#339=ORIENTED_EDGE('',*,*,#253,.T.);
#340=ORIENTED_EDGE('',*,*,#250,.T.);
#341=ORIENTED_EDGE('',*,*,#244,.T.);
#342=ORIENTED_EDGE('',*,*,#248,.T.);
#343=ORIENTED_EDGE('',*,*,#223,.T.);
#344=ORIENTED_EDGE('',*,*,#226,.T.);
#345=ORIENTED_EDGE('',*,*,#241,.T.);
#346=ORIENTED_EDGE('',*,*,#256,.T.);
#347=ORIENTED_EDGE('',*,*,#259,.T.);
#348=ORIENTED_EDGE('',*,*,#262,.T.);
#349=ORIENTED_EDGE('',*,*,#238,.T.);
#350=ORIENTED_EDGE('',*,*,#232,.T.);
#351=ORIENTED_EDGE('',*,*,#229,.T.);
#352=ORIENTED_EDGE('',*,*,#236,.T.);
#353=ORIENTED_EDGE('',*,*,#270,.T.);
#354=ORIENTED_EDGE('',*,*,#271,.F.);
#355=ORIENTED_EDGE('',*,*,#269,.T.);
#356=ORIENTED_EDGE('',*,*,#266,.T.);
#357=ORIENTED_EDGE('',*,*,#272,.T.);
#358=ORIENTED_EDGE('',*,*,#273,.F.);
#359=ORIENTED_EDGE('',*,*,#267,.F.);
#360=ORIENTED_EDGE('',*,*,#271,.T.);
#361=ORIENTED_EDGE('',*,*,#274,.T.);
#362=ORIENTED_EDGE('',*,*,#264,.F.);
#363=ORIENTED_EDGE('',*,*,#268,.F.);
#364=ORIENTED_EDGE('',*,*,#273,.T.);
#365=ORIENTED_EDGE('',*,*,#265,.F.);
#366=ORIENTED_EDGE('',*,*,#274,.F.);
#367=ORIENTED_EDGE('',*,*,#272,.F.);
#368=ORIENTED_EDGE('',*,*,#270,.F.);
#369=ORIENTED_EDGE('',*,*,#252,.T.);
#370=ORIENTED_EDGE('',*,*,#246,.T.);
#371=ORIENTED_EDGE('',*,*,#242,.T.);
#372=ORIENTED_EDGE('',*,*,#249,.T.);
#373=ORIENTED_EDGE('',*,*,#221,.T.);
#374=ORIENTED_EDGE('',*,*,#224,.T.);
#375=ORIENTED_EDGE('',*,*,#239,.T.);
#376=ORIENTED_EDGE('',*,*,#254,.T.);
#377=ORIENTED_EDGE('',*,*,#257,.T.);
#378=ORIENTED_EDGE('',*,*,#260,.T.);
#379=ORIENTED_EDGE('',*,*,#237,.T.);
#380=ORIENTED_EDGE('',*,*,#234,.T.);
#381=ORIENTED_EDGE('',*,*,#227,.T.);
#382=ORIENTED_EDGE('',*,*,#231,.T.);
#383=CYLINDRICAL_SURFACE('',#436,4.);
#384=CYLINDRICAL_SURFACE('',#439,1.5);
#385=CYLINDRICAL_SURFACE('',#442,4.);
#386=CYLINDRICAL_SURFACE('',#447,4.00000000000001);
#387=CYLINDRICAL_SURFACE('',#450,1.5);
#388=CYLINDRICAL_SURFACE('',#453,3.99999999999999);
#389=CYLINDRICAL_SURFACE('',#458,3.99999999999999);
#390=CYLINDRICAL_SURFACE('',#461,1.5);
#391=CYLINDRICAL_SURFACE('',#464,4.);
#392=CYLINDRICAL_SURFACE('',#467,1.5);
#393=ADVANCED_FACE('',(#41),#383,.F.);
#394=ADVANCED_FACE('',(#42),#384,.F.);
#395=ADVANCED_FACE('',(#43),#385,.F.);
#396=ADVANCED_FACE('',(#44),#31,.F.);
#397=ADVANCED_FACE('',(#45),#32,.F.);
#398=ADVANCED_FACE('',(#46),#386,.F.);
#399=ADVANCED_FACE('',(#47),#387,.F.);
#400=ADVANCED_FACE('',(#48),#388,.F.);
#401=ADVANCED_FACE('',(#49),#33,.F.);
#402=ADVANCED_FACE('',(#50),#34,.F.);
#403=ADVANCED_FACE('',(#51),#389,.F.);
#404=ADVANCED_FACE('',(#52),#390,.F.);
#405=ADVANCED_FACE('',(#53),#391,.F.);
#406=ADVANCED_FACE('',(#54),#392,.F.);
#407=ADVANCED_FACE('',(#55),#35,.T.);
#408=ADVANCED_FACE('',(#56,#15,#16,#17,#18,#19,#20,#21,#22),#36,.T.);
#409=ADVANCED_FACE('',(#57),#37,.T.);
#410=ADVANCED_FACE('',(#58),#38,.T.);
#411=ADVANCED_FACE('',(#59),#39,.T.);
#412=ADVANCED_FACE('',(#60,#23,#24,#25,#26,#27,#28,#29,#30),#40,.F.);
#413=CLOSED_SHELL('',(#393,#394,#395,#396,#397,#398,#399,#400,#401,#402,
#403,#404,#405,#406,#407,#408,#409,#410,#411,#412));
#414=DERIVED_UNIT_ELEMENT(#417,1.);
#415=DERIVED_UNIT_ELEMENT(#708,-3.);
#416=DIMENSIONAL_EXPONENTS(0.,1.,0.,0.,0.,0.,0.);
#417=(
CONVERSION_BASED_UNIT('gram',#419)
MASS_UNIT()
NAMED_UNIT(#416)
);
#418=(
MASS_UNIT()
NAMED_UNIT(*)
SI_UNIT(.KILO.,.GRAM.)
);
#419=MASS_MEASURE_WITH_UNIT(MASS_MEASURE(0.001),#418);
#420=DERIVED_UNIT((#414,#415));
#421=MEASURE_REPRESENTATION_ITEM('density measure',
POSITIVE_RATIO_MEASURE(8.),#420);
#422=PROPERTY_DEFINITION_REPRESENTATION(#427,#424);
#423=PROPERTY_DEFINITION_REPRESENTATION(#428,#425);
#424=REPRESENTATION('material name',(#426),#705);
#425=REPRESENTATION('density',(#421),#705);
#426=DESCRIPTIVE_REPRESENTATION_ITEM('Stainless Steel',
'Stainless Steel');
#427=PROPERTY_DEFINITION('material property','material name',#715);
#428=PROPERTY_DEFINITION('material property','density of part',#715);
#429=DATE_TIME_ROLE('creation_date');
#430=APPLIED_DATE_AND_TIME_ASSIGNMENT(#431,#429,(#715));
#431=DATE_AND_TIME(#432,#433);
#432=CALENDAR_DATE(2026,9,4);
#433=LOCAL_TIME(0,0,0.,#434);
#434=COORDINATED_UNIVERSAL_TIME_OFFSET(0,0,.BEHIND.);
#435=AXIS2_PLACEMENT_3D('',#592,#476,#477);
#436=AXIS2_PLACEMENT_3D('',#593,#478,#479);
#437=AXIS2_PLACEMENT_3D('',#595,#480,#481);
#438=AXIS2_PLACEMENT_3D('',#598,#483,#484);
#439=AXIS2_PLACEMENT_3D('',#599,#485,#486);
#440=AXIS2_PLACEMENT_3D('',#601,#487,#488);
#441=AXIS2_PLACEMENT_3D('',#604,#490,#491);
#442=AXIS2_PLACEMENT_3D('',#605,#492,#493);
#443=AXIS2_PLACEMENT_3D('',#608,#494,#495);
#444=AXIS2_PLACEMENT_3D('',#612,#497,#498);
#445=AXIS2_PLACEMENT_3D('',#614,#500,#501);
#446=AXIS2_PLACEMENT_3D('',#620,#505,#506);
#447=AXIS2_PLACEMENT_3D('',#626,#510,#511);
#448=AXIS2_PLACEMENT_3D('',#627,#512,#513);
#449=AXIS2_PLACEMENT_3D('',#628,#514,#515);
#450=AXIS2_PLACEMENT_3D('',#629,#516,#517);
#451=AXIS2_PLACEMENT_3D('',#631,#518,#519);
#452=AXIS2_PLACEMENT_3D('',#634,#521,#522);
#453=AXIS2_PLACEMENT_3D('',#635,#523,#524);
#454=AXIS2_PLACEMENT_3D('',#638,#525,#526);
#455=AXIS2_PLACEMENT_3D('',#642,#528,#529);
#456=AXIS2_PLACEMENT_3D('',#644,#531,#532);
#457=AXIS2_PLACEMENT_3D('',#650,#536,#537);
#458=AXIS2_PLACEMENT_3D('',#656,#541,#542);
#459=AXIS2_PLACEMENT_3D('',#657,#543,#544);
#460=AXIS2_PLACEMENT_3D('',#658,#545,#546);
#461=AXIS2_PLACEMENT_3D('',#659,#547,#548);
#462=AXIS2_PLACEMENT_3D('',#661,#549,#550);
#463=AXIS2_PLACEMENT_3D('',#664,#552,#553);
#464=AXIS2_PLACEMENT_3D('',#665,#554,#555);
#465=AXIS2_PLACEMENT_3D('',#667,#556,#557);
#466=AXIS2_PLACEMENT_3D('',#670,#559,#560);
#467=AXIS2_PLACEMENT_3D('',#671,#561,#562);
#468=AXIS2_PLACEMENT_3D('',#673,#563,#564);
#469=AXIS2_PLACEMENT_3D('',#676,#566,#567);
#470=AXIS2_PLACEMENT_3D('',#677,#568,#569);
#471=AXIS2_PLACEMENT_3D('',#686,#574,#575);
#472=AXIS2_PLACEMENT_3D('',#692,#579,#580);
#473=AXIS2_PLACEMENT_3D('',#696,#583,#584);
#474=AXIS2_PLACEMENT_3D('',#700,#587,#588);
#475=AXIS2_PLACEMENT_3D('',#702,#590,#591);
#476=DIRECTION('axis',(0.,0.,1.));
#477=DIRECTION('refdir',(1.,0.,0.));
#478=DIRECTION('center_axis',(1.92592994438724E-34,-2.77555756156289E-17,
1.));
#479=DIRECTION('ref_axis',(-1.,1.56546695557693E-35,1.20370621524202E-34));
#480=DIRECTION('center_axis',(8.56648325743865E-19,5.16338480914165E-70,
1.));
#481=DIRECTION('ref_axis',(-1.,1.56546695557693E-35,1.20370621524202E-34));
#482=DIRECTION('',(1.92592994438724E-34,-2.77555756156289E-17,1.));
#483=DIRECTION('center_axis',(-8.56648325743865E-19,-5.16338480914165E-70,
-1.));
#484=DIRECTION('ref_axis',(-1.,1.56546695557693E-35,1.20370621524202E-34));
#485=DIRECTION('center_axis',(1.92592994438724E-34,-8.32667268468867E-17,
1.));
#486=DIRECTION('ref_axis',(-1.,4.52903521791412E-35,3.20988324064539E-34));
#487=DIRECTION('center_axis',(8.56648325743865E-19,5.16338480914165E-70,
1.));
#488=DIRECTION('ref_axis',(-1.,4.52903521791412E-35,3.20988324064539E-34));
#489=DIRECTION('',(1.92592994438724E-34,-8.32667268468867E-17,1.));
#490=DIRECTION('center_axis',(-8.56648325743865E-19,-5.16338480914165E-70,
-1.));
#491=DIRECTION('ref_axis',(-1.,4.52903521791412E-35,3.20988324064539E-34));
#492=DIRECTION('center_axis',(1.92592994438724E-34,-2.77555756156289E-17,
1.));
#493=DIRECTION('ref_axis',(-1.,-2.22044604925033E-15,-8.61853650113288E-32));
#494=DIRECTION('center_axis',(8.56648325743865E-19,5.16338480914165E-70,
1.));
#495=DIRECTION('ref_axis',(-1.,-2.22044604925033E-15,-8.61853650113288E-32));
#496=DIRECTION('',(-2.88889491658085E-34,-2.77555756156289E-17,-1.));
#497=DIRECTION('center_axis',(-8.56648325743865E-19,-5.16338480914165E-70,
-1.));
#498=DIRECTION('ref_axis',(-1.,-2.22044604925033E-15,-8.61853650113288E-32));
#499=DIRECTION('',(1.92592994438724E-34,8.64624684292627E-54,1.));
#500=DIRECTION('center_axis',(1.,3.55271367880051E-14,1.79949264353821E-30));
#501=DIRECTION('ref_axis',(-3.55271367880051E-14,1.,-2.77555756156289E-17));
#502=DIRECTION('',(-3.55271367880051E-14,1.,3.04342622479179E-32));
#503=DIRECTION('',(3.55271367880051E-14,-1.,-3.04342622479179E-32));
#504=DIRECTION('',(1.92592994438724E-34,8.64624684292627E-54,1.));
#505=DIRECTION('center_axis',(-1.,-5.32907051820078E-14,-1.79949264353821E-30));
#506=DIRECTION('ref_axis',(5.32907051820078E-14,-1.,-4.56513933718769E-32));
#507=DIRECTION('',(5.32907051820078E-14,-1.,-4.56513933718769E-32));
#508=DIRECTION('',(1.92592994438724E-34,8.64624684292627E-54,1.));
#509=DIRECTION('',(-5.32907051820078E-14,1.,4.56513933718769E-32));
#510=DIRECTION('center_axis',(9.62964972193618E-35,1.08246744900953E-15,
1.));
#511=DIRECTION('ref_axis',(1.,2.22044604925031E-15,-2.32002335925747E-30));
#512=DIRECTION('center_axis',(8.56648325743865E-19,5.16338480914165E-70,
1.));
#513=DIRECTION('ref_axis',(1.,2.22044604925031E-15,8.35372113377961E-32));
#514=DIRECTION('center_axis',(-8.56648325743865E-19,-5.16338480914165E-70,
-1.));
#515=DIRECTION('ref_axis',(1.,2.22044604925031E-15,8.35372113377961E-32));
#516=DIRECTION('center_axis',(1.92592994438724E-34,-8.32667268468867E-17,
1.));
#517=DIRECTION('ref_axis',(-1.,8.48045956769706E-35,1.6049416203227E-34));
#518=DIRECTION('center_axis',(8.56648325743865E-19,5.16338480914165E-70,
1.));
#519=DIRECTION('ref_axis',(-1.,8.48045956769706E-35,1.6049416203227E-34));
#520=DIRECTION('',(1.92592994438724E-34,-8.32667268468868E-17,1.));
#521=DIRECTION('center_axis',(-8.56648325743865E-19,-5.16338480914165E-70,
-1.));
#522=DIRECTION('ref_axis',(-1.,8.48045956769706E-35,1.6049416203227E-34));
#523=DIRECTION('center_axis',(2.88889491658085E-34,2.77555756156289E-17,
1.));
#524=DIRECTION('ref_axis',(-1.,-3.48785625237231E-35,1.20370621524202E-34));
#525=DIRECTION('center_axis',(8.56648325743865E-19,5.16338480914165E-70,
1.));
#526=DIRECTION('ref_axis',(-1.,-3.48785625237231E-35,1.20370621524202E-34));
#527=DIRECTION('',(2.88889491658085E-34,8.32667268468868E-17,1.));
#528=DIRECTION('center_axis',(-8.56648325743865E-19,-5.16338480914165E-70,
-1.));
#529=DIRECTION('ref_axis',(-1.,-3.48785625237231E-35,1.20370621524202E-34));
#530=DIRECTION('',(2.88889491658085E-34,8.32667268468868E-17,1.));
#531=DIRECTION('center_axis',(-1.,-4.44089209850065E-15,7.40520063616892E-32));
#532=DIRECTION('ref_axis',(4.44089209850065E-15,-1.,-3.80428278098974E-33));
#533=DIRECTION('',(4.44089209850065E-15,-1.,-3.80428278098975E-33));
#534=DIRECTION('',(2.88889491658085E-34,8.32667268468868E-17,1.));
#535=DIRECTION('',(-4.44089209850065E-15,1.,3.80428278098975E-33));
#536=DIRECTION('center_axis',(1.,-7.77156117237614E-15,2.2177083309619E-31));
#537=DIRECTION('ref_axis',(7.77156117237614E-15,1.,-6.65749486673205E-33));
#538=DIRECTION('',(7.77156117237614E-15,1.,-6.65749486673205E-33));
#539=DIRECTION('',(-7.77156117237614E-15,-1.,6.65749486673205E-33));
#540=DIRECTION('',(-2.88889491658085E-34,-2.77555756156289E-17,-1.));
#541=DIRECTION('center_axis',(0.,1.11022302462516E-15,1.));
#542=DIRECTION('ref_axis',(1.,2.99008219660548E-36,0.));
#543=DIRECTION('center_axis',(8.56648325743865E-19,5.16338480914165E-70,
1.));
#544=DIRECTION('ref_axis',(1.,3.48785625237231E-35,-1.20370621524202E-34));
#545=DIRECTION('center_axis',(-8.56648325743865E-19,-5.16338480914165E-70,
-1.));
#546=DIRECTION('ref_axis',(1.,3.48785625237231E-35,-1.20370621524202E-34));
#547=DIRECTION('center_axis',(1.92592994438724E-34,-8.32667268468867E-17,
1.));
#548=DIRECTION('ref_axis',(-1.,4.52903521791412E-35,3.20988324064539E-34));
#549=DIRECTION('center_axis',(8.56648325743865E-19,5.16338480914165E-70,
1.));
#550=DIRECTION('ref_axis',(-1.,4.52903521791412E-35,3.20988324064539E-34));
#551=DIRECTION('',(1.92592994438724E-34,-8.32667268468867E-17,1.));
#552=DIRECTION('center_axis',(-8.56648325743865E-19,-5.16338480914165E-70,
-1.));
#553=DIRECTION('ref_axis',(-1.,4.52903521791412E-35,3.20988324064539E-34));
#554=DIRECTION('center_axis',(1.92592994438724E-34,-2.77555756156289E-17,
1.));
#555=DIRECTION('ref_axis',(-1.,1.56546695557693E-35,1.20370621524202E-34));
#556=DIRECTION('center_axis',(8.56648325743865E-19,5.16338480914165E-70,
1.));
#557=DIRECTION('ref_axis',(-1.,1.56546695557693E-35,1.20370621524202E-34));
#558=DIRECTION('',(1.92592994438724E-34,-2.77555756156289E-17,1.));
#559=DIRECTION('center_axis',(-8.56648325743865E-19,-5.16338480914165E-70,
-1.));
#560=DIRECTION('ref_axis',(-1.,1.56546695557693E-35,1.20370621524202E-34));
#561=DIRECTION('center_axis',(1.92592994438724E-34,-8.32667268468867E-17,
1.));
#562=DIRECTION('ref_axis',(-1.,8.48045956769706E-35,1.6049416203227E-34));
#563=DIRECTION('center_axis',(8.56648325743865E-19,5.16338480914165E-70,
1.));
#564=DIRECTION('ref_axis',(-1.,8.48045956769706E-35,1.6049416203227E-34));
#565=DIRECTION('',(1.92592994438724E-34,-8.32667268468868E-17,1.));
#566=DIRECTION('center_axis',(-8.56648325743865E-19,-5.16338480914165E-70,
-1.));
#567=DIRECTION('ref_axis',(-1.,8.48045956769706E-35,1.6049416203227E-34));
#568=DIRECTION('center_axis',(-1.,1.67180395648962E-35,9.62964972193618E-35));
#569=DIRECTION('ref_axis',(9.62964972193618E-35,8.64624684292627E-54,1.));
#570=DIRECTION('',(-1.48730838385668E-35,1.,8.32667268468867E-17));
#571=DIRECTION('',(-2.88889491658085E-34,-3.71924713249427E-15,-1.));
#572=DIRECTION('',(1.48730838385668E-35,-1.,-8.32667268468867E-17));
#573=DIRECTION('',(-9.62964972193618E-35,-6.46704911844154E-15,-1.));
#574=DIRECTION('center_axis',(8.56648325743865E-19,5.16338480914165E-70,
1.));
#575=DIRECTION('ref_axis',(-1.39810130676027E-35,1.,1.1976811436565E-53));
#576=DIRECTION('',(-1.48730838385668E-35,1.,8.32667268468867E-17));
#577=DIRECTION('',(-1.,9.60768880246526E-36,1.92592994438724E-34));
#578=DIRECTION('',(-1.,0.,0.));
#579=DIRECTION('center_axis',(-7.154901534257E-36,-1.,6.46704911844154E-15));
#580=DIRECTION('ref_axis',(1.,0.,0.));
#581=DIRECTION('',(1.,0.,0.));
#582=DIRECTION('',(-9.62964972193618E-35,-6.46704911844154E-15,-1.));
#583=DIRECTION('center_axis',(1.,-1.67180395648962E-35,-9.62964972193618E-35));
#584=DIRECTION('ref_axis',(-9.62964972193618E-35,-8.64624684292627E-54,
-1.));
#585=DIRECTION('',(-1.9209730512015E-35,1.,1.88717351289626E-16));
#586=DIRECTION('',(-2.88889491658085E-34,-3.71924713249427E-15,-1.));
#587=DIRECTION('center_axis',(2.61718226866137E-36,1.,-5.68989300120392E-15));
#588=DIRECTION('ref_axis',(-1.,9.60768880246526E-36,1.92592994438724E-34));
#589=DIRECTION('',(-1.,9.60768880246526E-36,1.92592994438724E-34));
#590=DIRECTION('center_axis',(8.56648325743865E-19,5.16338480914165E-70,
1.));
#591=DIRECTION('ref_axis',(1.,-1.00931112372377E-35,-8.56648325743865E-19));
#592=CARTESIAN_POINT('',(0.,0.,0.));
#593=CARTESIAN_POINT('Origin',(90.5000000000011,9.18741243392942,-3.56046634614848E-14));
#594=CARTESIAN_POINT('',(94.5000000000011,9.18741243392942,-0.150000000000041));
#595=CARTESIAN_POINT('Origin',(90.5000000000011,9.18741243392942,-0.150000000000041));
#596=CARTESIAN_POINT('',(94.5000000000011,9.18741243392942,-3.56080900547878E-14));
#597=CARTESIAN_POINT('',(94.5000000000011,9.18741243392942,-3.56046634614848E-14));
#598=CARTESIAN_POINT('Origin',(90.5000000000011,9.18741243392942,-3.56046634614848E-14));
#599=CARTESIAN_POINT('Origin',(3.35313632691193,14.465314699623,-3.55300092466254E-14));
#600=CARTESIAN_POINT('',(4.85313632691193,14.465314699623,-0.150000000000041));
#601=CARTESIAN_POINT('Origin',(3.35313632691193,14.465314699623,-0.150000000000041));
#602=CARTESIAN_POINT('',(4.85313632691193,14.465314699623,-3.55312942191141E-14));
#603=CARTESIAN_POINT('',(4.85313632691193,14.465314699623,-3.55300092466254E-14));
#604=CARTESIAN_POINT('Origin',(3.35313632691193,14.465314699623,-3.55300092466254E-14));
#605=CARTESIAN_POINT('Origin',(9.49999999999891,19.7432169653166,-3.55352749470996E-14));
#606=CARTESIAN_POINT('',(5.49999999999894,19.7432169653166,-0.150000000000023));
#607=CARTESIAN_POINT('',(13.4999999999989,19.7432169653166,-0.150000000000041));
#608=CARTESIAN_POINT('Origin',(9.49999999999891,19.7432169653166,-0.150000000000023));
#609=CARTESIAN_POINT('',(5.49999999999894,19.7432169653166,-1.77682799597941E-14));
#610=CARTESIAN_POINT('',(5.49999999999894,19.7432169653166,-1.77682799597941E-14));
#611=CARTESIAN_POINT('',(13.4999999999989,19.7432169653166,-3.55387015404025E-14));
#612=CARTESIAN_POINT('Origin',(9.49999999999891,19.7432169653166,-3.55352749470996E-14));
#613=CARTESIAN_POINT('',(13.4999999999989,19.7432169653166,-3.55387015404025E-14));
#614=CARTESIAN_POINT('Origin',(13.4999999999989,19.7432169653166,-3.55387015404025E-14));
#615=CARTESIAN_POINT('',(13.4999999999989,20.7432169653166,-0.150000000000023));
#616=CARTESIAN_POINT('',(13.499999999999,18.4468517126008,-0.150000000000023));
#617=CARTESIAN_POINT('',(13.4999999999989,20.7432169653166,-3.55387015404025E-14));
#618=CARTESIAN_POINT('',(13.499999999999,18.4468517126008,-3.55387015404025E-14));
#619=CARTESIAN_POINT('',(13.4999999999989,20.7432169653166,-5.33022699344051E-14));
#620=CARTESIAN_POINT('Origin',(5.49999999999889,20.7432169653166,-3.55318483537966E-14));
#621=CARTESIAN_POINT('',(5.49999999999889,20.7432169653166,-0.150000000000041));
#622=CARTESIAN_POINT('',(5.49999999999899,18.9468517126003,-0.150000000000023));
#623=CARTESIAN_POINT('',(5.49999999999889,20.7432169653166,-3.55318483537966E-14));
#624=CARTESIAN_POINT('',(5.49999999999889,20.7432169653166,-3.55318483537966E-14));
#625=CARTESIAN_POINT('',(5.49999999999899,18.9468517126003,-1.77682799597941E-14));
#626=CARTESIAN_POINT('Origin',(9.49999999999891,20.7432169653167,-5.32988433411021E-14));
#627=CARTESIAN_POINT('Origin',(9.49999999999891,20.7432169653166,-0.150000000000023));
#628=CARTESIAN_POINT('Origin',(9.49999999999891,20.7432169653166,-1.77717065530971E-14));
#629=CARTESIAN_POINT('Origin',(96.6468636730881,4.87400860935949,-3.5609929161959E-14));
#630=CARTESIAN_POINT('',(98.1468636730881,4.87400860935949,-0.150000000000041));
#631=CARTESIAN_POINT('Origin',(96.6468636730881,4.87400860935949,-0.150000000000041));
#632=CARTESIAN_POINT('',(98.1468636730881,4.87400860935949,-3.56112141344476E-14));
#633=CARTESIAN_POINT('',(98.1468636730881,4.87400860935949,-3.5609929161959E-14));
#634=CARTESIAN_POINT('Origin',(96.6468636730881,4.87400860935949,-3.5609929161959E-14));
#635=CARTESIAN_POINT('Origin',(90.5000000000011,19.7432169653166,-3.56046634614848E-14));
#636=CARTESIAN_POINT('',(86.5000000000011,19.7432169653166,-0.150000000000024));
#637=CARTESIAN_POINT('',(94.5000000000011,19.7432169653166,-0.150000000000024));
#638=CARTESIAN_POINT('Origin',(90.5000000000011,19.7432169653166,-0.150000000000024));
#639=CARTESIAN_POINT('',(86.5000000000011,19.7432169653166,-3.56012368681819E-14));
#640=CARTESIAN_POINT('',(86.5000000000011,19.7432169653166,-3.56012368681819E-14));
#641=CARTESIAN_POINT('',(94.5000000000011,19.7432169653166,-3.56080900547878E-14));
#642=CARTESIAN_POINT('Origin',(90.5000000000011,19.7432169653166,-3.56046634614848E-14));
#643=CARTESIAN_POINT('',(94.5000000000011,19.7432169653166,-3.56080900547878E-14));
#644=CARTESIAN_POINT('Origin',(86.5000000000011,20.7432169653166,-3.56012368681819E-14));
#645=CARTESIAN_POINT('',(86.5000000000011,20.7432169653166,-0.150000000000024));
#646=CARTESIAN_POINT('',(86.5000000000011,18.9468517126015,-0.150000000000024));
#647=CARTESIAN_POINT('',(86.5000000000011,20.7432169653166,-1.78376684741794E-14));
#648=CARTESIAN_POINT('',(86.5000000000011,20.7432169653166,-3.56012368681819E-14));
#649=CARTESIAN_POINT('',(86.5000000000011,18.9468517126015,-3.56012368681819E-14));
#650=CARTESIAN_POINT('Origin',(94.5000000000011,19.7432169653166,-3.56080900547878E-14));
#651=CARTESIAN_POINT('',(94.5000000000011,20.7432169653166,-0.150000000000024));
#652=CARTESIAN_POINT('',(94.5000000000011,18.4468517126013,-0.150000000000041));
#653=CARTESIAN_POINT('',(94.5000000000011,20.7432169653166,-3.56080900547878E-14));
#654=CARTESIAN_POINT('',(94.5000000000011,18.4468517126013,-1.78445216607853E-14));
#655=CARTESIAN_POINT('',(94.5000000000011,20.7432169653166,-3.56080900547878E-14));
#656=CARTESIAN_POINT('Origin',(90.5000000000011,20.7432169653167,-1.78410950674823E-14));
#657=CARTESIAN_POINT('Origin',(90.5000000000011,20.7432169653166,-0.150000000000024));
#658=CARTESIAN_POINT('Origin',(90.5000000000011,20.7432169653166,-3.56046634614848E-14));
#659=CARTESIAN_POINT('Origin',(3.35313632691193,4.87400860935949,-3.55300092466254E-14));
#660=CARTESIAN_POINT('',(4.85313632691193,4.87400860935949,-0.150000000000041));
#661=CARTESIAN_POINT('Origin',(3.35313632691193,4.87400860935949,-0.150000000000041));
#662=CARTESIAN_POINT('',(4.85313632691193,4.87400860935949,-3.55312942191141E-14));
#663=CARTESIAN_POINT('',(4.85313632691193,4.87400860935949,-3.55300092466254E-14));
#664=CARTESIAN_POINT('Origin',(3.35313632691193,4.87400860935949,-3.55300092466254E-14));
#665=CARTESIAN_POINT('Origin',(9.49999999999889,9.18741243392942,-3.55352749470996E-14));
#666=CARTESIAN_POINT('',(13.4999999999989,9.18741243392942,-0.150000000000041));
#667=CARTESIAN_POINT('Origin',(9.49999999999889,9.18741243392942,-0.150000000000041));
#668=CARTESIAN_POINT('',(13.4999999999989,9.18741243392942,-3.55387015404025E-14));
#669=CARTESIAN_POINT('',(13.4999999999989,9.18741243392942,-3.55352749470996E-14));
#670=CARTESIAN_POINT('Origin',(9.49999999999889,9.18741243392942,-3.55352749470996E-14));
#671=CARTESIAN_POINT('Origin',(96.6468636730881,14.465314699623,-3.5609929161959E-14));
#672=CARTESIAN_POINT('',(98.1468636730881,14.465314699623,-0.150000000000041));
#673=CARTESIAN_POINT('Origin',(96.6468636730881,14.465314699623,-0.150000000000041));
#674=CARTESIAN_POINT('',(98.1468636730881,14.465314699623,-3.56112141344476E-14));
#675=CARTESIAN_POINT('',(98.1468636730881,14.465314699623,-3.5609929161959E-14));
#676=CARTESIAN_POINT('Origin',(96.6468636730881,14.465314699623,-3.5609929161959E-14));
#677=CARTESIAN_POINT('Origin',(-6.42486244307988E-20,21.9793176698017,-0.0750000000000461));
#678=CARTESIAN_POINT('',(3.04342622479178E-32,0.,0.));
#679=CARTESIAN_POINT('',(-8.88178419700125E-15,34.3009729197727,1.99840144432528E-14));
#680=CARTESIAN_POINT('',(3.04342622479178E-32,0.,0.));
#681=CARTESIAN_POINT('',(-8.88191269425011E-15,34.3009729197727,-0.15000000000002));
#682=CARTESIAN_POINT('',(-8.88178419700125E-15,34.3009729197727,2.21524187882238E-14));
#683=CARTESIAN_POINT('',(-1.28497248861585E-19,-8.88178419700125E-15,-0.150000000000041));
#684=CARTESIAN_POINT('',(-1.28497248861554E-19,-4.44089209850063E-15,-0.150000000000006));
#685=CARTESIAN_POINT('',(3.04342622479178E-32,0.,0.));
#686=CARTESIAN_POINT('Origin',(50.,17.1504864598863,-3.55699692042922E-14));
#687=CARTESIAN_POINT('',(100.,0.,-8.56648325743851E-17));
#688=CARTESIAN_POINT('',(100.,34.3009729197727,1.98983496106784E-14));
#689=CARTESIAN_POINT('',(100.,0.,-8.56648325743851E-17));
#690=CARTESIAN_POINT('',(100.,34.3009729197727,2.21534901294483E-14));
#691=CARTESIAN_POINT('',(100.,0.,-8.56648325743851E-17));
#692=CARTESIAN_POINT('Origin',(3.04342622479178E-32,0.,0.));
#693=CARTESIAN_POINT('',(100.,-8.88178419700125E-15,-0.150000000000041));
#694=CARTESIAN_POINT('',(100.,-4.44089209850063E-15,-0.150000000000006));
#695=CARTESIAN_POINT('',(100.,0.,-8.56648325743851E-17));
#696=CARTESIAN_POINT('Origin',(100.,21.9793176698017,-0.0750000000000462));
#697=CARTESIAN_POINT('',(100.,34.3009729197727,-0.15000000000002));
#698=CARTESIAN_POINT('',(100.,6.57801733958506,-0.149999999999988));
#699=CARTESIAN_POINT('',(100.,34.3009729197727,2.21534901294483E-14));
#700=CARTESIAN_POINT('Origin',(100.,34.3009729197727,2.55015064380835E-14));
#701=CARTESIAN_POINT('',(100.,34.3009729197727,-0.149999999999984));
#702=CARTESIAN_POINT('Origin',(50.,17.1504864598863,-0.150000000000036));
#703=UNCERTAINTY_MEASURE_WITH_UNIT(LENGTH_MEASURE(0.01),#707,
'DISTANCE_ACCURACY_VALUE',
'Maximum model space distance between geometric entities at asserted c
onnectivities');
#704=UNCERTAINTY_MEASURE_WITH_UNIT(LENGTH_MEASURE(0.01),#707,
'DISTANCE_ACCURACY_VALUE',
'Maximum model space distance between geometric entities at asserted c
onnectivities');
#705=(
GEOMETRIC_REPRESENTATION_CONTEXT(3)
GLOBAL_UNCERTAINTY_ASSIGNED_CONTEXT((#703))
GLOBAL_UNIT_ASSIGNED_CONTEXT((#707,#709,#710))
REPRESENTATION_CONTEXT('','3D')
);
#706=(
GEOMETRIC_REPRESENTATION_CONTEXT(3)
GLOBAL_UNCERTAINTY_ASSIGNED_CONTEXT((#704))
GLOBAL_UNIT_ASSIGNED_CONTEXT((#707,#709,#710))
REPRESENTATION_CONTEXT('','3D')
);
#707=(
LENGTH_UNIT()
NAMED_UNIT(*)
SI_UNIT(.MILLI.,.METRE.)
);
#708=(
LENGTH_UNIT()
NAMED_UNIT(*)
SI_UNIT(.CENTI.,.METRE.)
);
#709=(
NAMED_UNIT(*)
PLANE_ANGLE_UNIT()
SI_UNIT($,.RADIAN.)
);
#710=(
NAMED_UNIT(*)
SI_UNIT($,.STERADIAN.)
SOLID_ANGLE_UNIT()
);
#711=SHAPE_DEFINITION_REPRESENTATION(#712,#713);
#712=PRODUCT_DEFINITION_SHAPE('',$,#715);
#713=SHAPE_REPRESENTATION('',(#435),#705);
#714=PRODUCT_DEFINITION_CONTEXT('part definition',#719,'design');
#715=PRODUCT_DEFINITION('SpringSteelFront','SpringSteelFront',#716,#714);
#716=PRODUCT_DEFINITION_FORMATION('',$,#721);
#717=PRODUCT_RELATED_PRODUCT_CATEGORY('SpringSteelFront',
'SpringSteelFront',(#721));
#718=APPLICATION_PROTOCOL_DEFINITION('international standard',
'automotive_design',2009,#719);
#719=APPLICATION_CONTEXT(
'Core Data for Automotive Mechanical Design Process');
#720=PRODUCT_CONTEXT('part definition',#719,'mechanical');
#721=PRODUCT('SpringSteelFront','SpringSteelFront',$,(#720));
#722=PRESENTATION_STYLE_ASSIGNMENT((#723));
#723=SURFACE_STYLE_USAGE(.BOTH.,#726);
#724=SURFACE_STYLE_RENDERING_WITH_PROPERTIES($,#730,(#725));
#725=SURFACE_STYLE_TRANSPARENT(0.);
#726=SURFACE_SIDE_STYLE('',(#727,#724));
#727=SURFACE_STYLE_FILL_AREA(#728);
#728=FILL_AREA_STYLE('',(#729));
#729=FILL_AREA_STYLE_COLOUR('',#730);
#730=COLOUR_RGB('',0.745098039215686,0.737254901960784,0.729411764705882);
ENDSEC;
END-ISO-10303-21;
