G04*
G04 #@! TF.GenerationSoftware,Altium Limited,Altium Designer,21.7.2 (23)*
G04*
G04 Layer_Color=8421504*
%FSLAX25Y25*%
%MOIN*%
G70*
G04*
G04 #@! TF.SameCoordinates,EAC8419C-EDC0-4EE4-A116-782662798FA5*
G04*
G04*
G04 #@! TF.FilePolarity,Positive*
G04*
G01*
G75*
%ADD10C,0.31496*%
%ADD11C,0.11811*%
G36*
X1201287Y758505D02*
X1181602D01*
Y762442D01*
X1201287D01*
Y758505D01*
D02*
G37*
G36*
X1150106D02*
X1110736D01*
Y762442D01*
X1150106D01*
Y758505D01*
D02*
G37*
G36*
X1071366D02*
X1031995D01*
Y762442D01*
X1071366D01*
Y758505D01*
D02*
G37*
G36*
X992625D02*
X953255D01*
Y762442D01*
X992625D01*
Y758505D01*
D02*
G37*
G36*
X913885D02*
X874515D01*
Y762442D01*
X913885D01*
Y758505D01*
D02*
G37*
G36*
X791838D02*
X772153D01*
Y762442D01*
X791838D01*
Y758505D01*
D02*
G37*
G36*
X740657D02*
X701287D01*
Y762442D01*
X740657D01*
Y758505D01*
D02*
G37*
G36*
X661917D02*
X622547D01*
Y762442D01*
X661917D01*
Y758505D01*
D02*
G37*
G36*
X583177D02*
X543806D01*
Y762442D01*
X583177D01*
Y758505D01*
D02*
G37*
G36*
X504436D02*
X465066D01*
Y762442D01*
X504436D01*
Y758505D01*
D02*
G37*
G36*
X381890Y757185D02*
X362205D01*
Y761122D01*
X381890D01*
Y757185D01*
D02*
G37*
G36*
X330709D02*
X291339D01*
Y761122D01*
X330709D01*
Y757185D01*
D02*
G37*
G36*
X251969D02*
X212598D01*
Y761122D01*
X251969D01*
Y757185D01*
D02*
G37*
G36*
X173228D02*
X133858D01*
Y761122D01*
X173228D01*
Y757185D01*
D02*
G37*
G36*
X94488D02*
X55118D01*
Y761122D01*
X94488D01*
Y757185D01*
D02*
G37*
G36*
X1245432Y709161D02*
X1241495D01*
Y728846D01*
X1245432D01*
Y709161D01*
D02*
G37*
G36*
X1329789Y734537D02*
X1332310Y733898D01*
X1334692Y732853D01*
X1336869Y731431D01*
X1338783Y729669D01*
X1340380Y727617D01*
X1341618Y725329D01*
X1342463Y722869D01*
X1342891Y720304D01*
Y717703D01*
X1342463Y715137D01*
X1341618Y712677D01*
X1340380Y710390D01*
X1338783Y708337D01*
X1336869Y706576D01*
X1334692Y705153D01*
X1332310Y704108D01*
X1329789Y703470D01*
X1327197Y703255D01*
X1323260D01*
X1320668Y703470D01*
X1318146Y704108D01*
X1315765Y705153D01*
X1313587Y706576D01*
X1311674Y708337D01*
X1310076Y710390D01*
X1308838Y712677D01*
X1307994Y715137D01*
X1307565Y717703D01*
Y720304D01*
X1307994Y722869D01*
X1308838Y725329D01*
X1310076Y727617D01*
X1311674Y729669D01*
X1313587Y731431D01*
X1315765Y732853D01*
X1318146Y733898D01*
X1320668Y734537D01*
X1323260Y734751D01*
X1327197D01*
X1329789Y734537D01*
D02*
G37*
G36*
X1195310Y695943D02*
X1197770Y695099D01*
X1200058Y693861D01*
X1202110Y692264D01*
X1203872Y690350D01*
X1205294Y688173D01*
X1206339Y685791D01*
X1206977Y683269D01*
X1207192Y680677D01*
Y676740D01*
X1206977Y674148D01*
X1206339Y671627D01*
X1205294Y669245D01*
X1203872Y667068D01*
X1202110Y665154D01*
X1200058Y663557D01*
X1197770Y662319D01*
X1195310Y661474D01*
X1192745Y661046D01*
X1190144D01*
X1187578Y661474D01*
X1185118Y662319D01*
X1182831Y663557D01*
X1180778Y665154D01*
X1179017Y667068D01*
X1177594Y669245D01*
X1176550Y671627D01*
X1175911Y674148D01*
X1175696Y676740D01*
Y680677D01*
X1175911Y683269D01*
X1176550Y685791D01*
X1177594Y688173D01*
X1179017Y690350D01*
X1180778Y692264D01*
X1182831Y693861D01*
X1185118Y695099D01*
X1187578Y695943D01*
X1190144Y696372D01*
X1192745D01*
X1195310Y695943D01*
D02*
G37*
G36*
X785861D02*
X788321Y695099D01*
X790609Y693861D01*
X792661Y692264D01*
X794423Y690350D01*
X795845Y688173D01*
X796890Y685791D01*
X797529Y683269D01*
X797743Y680677D01*
Y676740D01*
X797529Y674148D01*
X796890Y671627D01*
X795845Y669245D01*
X794423Y667068D01*
X792661Y665154D01*
X790609Y663557D01*
X788321Y662319D01*
X785861Y661474D01*
X783296Y661046D01*
X780695D01*
X778129Y661474D01*
X775669Y662319D01*
X773382Y663557D01*
X771329Y665154D01*
X769568Y667068D01*
X768145Y669245D01*
X767101Y671627D01*
X766462Y674148D01*
X766247Y676740D01*
Y680677D01*
X766462Y683269D01*
X767101Y685791D01*
X768145Y688173D01*
X769568Y690350D01*
X771329Y692264D01*
X773382Y693861D01*
X775669Y695099D01*
X778129Y695943D01*
X780695Y696372D01*
X783296D01*
X785861Y695943D01*
D02*
G37*
G36*
X876412Y695943D02*
X878872Y695099D01*
X881160Y693861D01*
X883212Y692264D01*
X884974Y690350D01*
X886397Y688172D01*
X887441Y685791D01*
X888080Y683269D01*
X888295Y680677D01*
Y676740D01*
X888080Y674148D01*
X887441Y671627D01*
X886397Y669245D01*
X884974Y667068D01*
X883212Y665154D01*
X881160Y663557D01*
X878872Y662319D01*
X876412Y661474D01*
X873847Y661046D01*
X871246D01*
X868681Y661474D01*
X866221Y662319D01*
X863933Y663557D01*
X861881Y665154D01*
X860119Y667068D01*
X858697Y669245D01*
X857652Y671627D01*
X857013Y674148D01*
X856799Y676740D01*
Y680677D01*
X857013Y683269D01*
X857652Y685791D01*
X858697Y688172D01*
X860119Y690350D01*
X861881Y692264D01*
X863933Y693861D01*
X866221Y695099D01*
X868681Y695943D01*
X871246Y696372D01*
X873847D01*
X876412Y695943D01*
D02*
G37*
G36*
X466964D02*
X469424Y695099D01*
X471711Y693861D01*
X473764Y692264D01*
X475525Y690350D01*
X476948Y688172D01*
X477992Y685791D01*
X478631Y683269D01*
X478846Y680677D01*
Y676740D01*
X478631Y674148D01*
X477992Y671627D01*
X476948Y669245D01*
X475525Y667068D01*
X473764Y665154D01*
X471711Y663557D01*
X469424Y662319D01*
X466964Y661474D01*
X464398Y661046D01*
X461797D01*
X459232Y661474D01*
X456772Y662319D01*
X454484Y663557D01*
X452432Y665154D01*
X450670Y667068D01*
X449248Y669245D01*
X448203Y671627D01*
X447565Y674148D01*
X447350Y676740D01*
Y680677D01*
X447565Y683269D01*
X448203Y685791D01*
X449248Y688172D01*
X450670Y690350D01*
X452432Y692264D01*
X454484Y693861D01*
X456772Y695099D01*
X459232Y695943D01*
X461797Y696372D01*
X464398D01*
X466964Y695943D01*
D02*
G37*
G36*
X375913Y694624D02*
X378373Y693779D01*
X380661Y692541D01*
X382713Y690944D01*
X384475Y689030D01*
X385897Y686853D01*
X386942Y684471D01*
X387580Y681950D01*
X387795Y679357D01*
Y675420D01*
X387580Y672828D01*
X386942Y670307D01*
X385897Y667925D01*
X384475Y665748D01*
X382713Y663834D01*
X380661Y662237D01*
X378373Y660999D01*
X375913Y660154D01*
X373348Y659726D01*
X370747D01*
X368181Y660154D01*
X365721Y660999D01*
X363434Y662237D01*
X361381Y663834D01*
X359620Y665748D01*
X358197Y667925D01*
X357153Y670307D01*
X356514Y672828D01*
X356299Y675420D01*
Y679357D01*
X356514Y681950D01*
X357153Y684471D01*
X358197Y686853D01*
X359620Y689030D01*
X361381Y690944D01*
X363434Y692541D01*
X365721Y693779D01*
X368181Y694624D01*
X370747Y695052D01*
X373348D01*
X375913Y694624D01*
D02*
G37*
G36*
X57016Y694624D02*
X59475Y693779D01*
X61763Y692541D01*
X63815Y690944D01*
X65577Y689030D01*
X67000Y686853D01*
X68044Y684471D01*
X68683Y681950D01*
X68898Y679357D01*
Y675420D01*
X68683Y672828D01*
X68044Y670307D01*
X67000Y667925D01*
X65577Y665748D01*
X63815Y663834D01*
X61763Y662237D01*
X59475Y660999D01*
X57016Y660154D01*
X54450Y659726D01*
X51849D01*
X49284Y660154D01*
X46824Y660999D01*
X44536Y662237D01*
X42484Y663834D01*
X40722Y665748D01*
X39300Y667925D01*
X38255Y670307D01*
X37616Y672828D01*
X37402Y675420D01*
Y679357D01*
X37616Y681950D01*
X38255Y684471D01*
X39300Y686853D01*
X40722Y689030D01*
X42484Y690944D01*
X44536Y692541D01*
X46824Y693779D01*
X49284Y694624D01*
X51849Y695052D01*
X54450D01*
X57016Y694624D01*
D02*
G37*
G36*
X1245432Y638295D02*
X1241495D01*
Y677665D01*
X1245432D01*
Y638295D01*
D02*
G37*
G36*
X1232783Y619430D02*
X831208D01*
Y761162D01*
X835145D01*
Y623367D01*
X1228846D01*
Y761162D01*
X1232783D01*
Y619430D01*
D02*
G37*
G36*
X823334D02*
X421759D01*
Y761162D01*
X425696D01*
Y623367D01*
X819397D01*
Y761162D01*
X823334D01*
Y619430D01*
D02*
G37*
G36*
X413386Y618110D02*
X11811D01*
Y759842D01*
X15748D01*
Y622047D01*
X409449D01*
Y759842D01*
X413386D01*
Y618110D01*
D02*
G37*
G36*
X1197350Y604962D02*
X1177665D01*
Y608899D01*
X1197350D01*
Y604962D01*
D02*
G37*
G36*
X1146169D02*
X1106799D01*
Y608899D01*
X1146169D01*
Y604962D01*
D02*
G37*
G36*
X1067428D02*
X1028058D01*
Y608899D01*
X1067428D01*
Y604962D01*
D02*
G37*
G36*
X988688D02*
X949318D01*
Y608899D01*
X988688D01*
Y604962D01*
D02*
G37*
G36*
X909948D02*
X870578D01*
Y608899D01*
X909948D01*
Y604962D01*
D02*
G37*
G36*
X787901D02*
X768216D01*
Y608899D01*
X787901D01*
Y604962D01*
D02*
G37*
G36*
X736720D02*
X697350D01*
Y608899D01*
X736720D01*
Y604962D01*
D02*
G37*
G36*
X657980D02*
X618610D01*
Y608899D01*
X657980D01*
Y604962D01*
D02*
G37*
G36*
X579240D02*
X539869D01*
Y608899D01*
X579240D01*
Y604962D01*
D02*
G37*
G36*
X500499D02*
X461129D01*
Y608899D01*
X500499D01*
Y604962D01*
D02*
G37*
G36*
X377953Y603642D02*
X358268D01*
Y607579D01*
X377953D01*
Y603642D01*
D02*
G37*
G36*
X326772D02*
X287402D01*
Y607579D01*
X326772D01*
Y603642D01*
D02*
G37*
G36*
X248031D02*
X208661D01*
Y607579D01*
X248031D01*
Y603642D01*
D02*
G37*
G36*
X169291D02*
X129921D01*
Y607579D01*
X169291D01*
Y603642D01*
D02*
G37*
G36*
X90551D02*
X51181D01*
Y607579D01*
X90551D01*
Y603642D01*
D02*
G37*
G36*
X1245432Y559554D02*
X1241495D01*
Y598924D01*
X1245432D01*
Y559554D01*
D02*
G37*
G36*
X1191373Y542400D02*
X1193833Y541556D01*
X1196120Y540318D01*
X1198173Y538720D01*
X1199935Y536807D01*
X1201357Y534629D01*
X1202402Y532247D01*
X1203041Y529726D01*
X1203255Y527134D01*
Y523197D01*
X1203041Y520605D01*
X1202402Y518084D01*
X1201357Y515702D01*
X1199935Y513524D01*
X1198173Y511611D01*
X1196121Y510013D01*
X1193833Y508775D01*
X1191373Y507931D01*
X1188808Y507503D01*
X1186207D01*
X1183641Y507931D01*
X1181181Y508775D01*
X1178894Y510013D01*
X1176841Y511611D01*
X1175080Y513524D01*
X1173657Y515702D01*
X1172612Y518084D01*
X1171974Y520605D01*
X1171759Y523197D01*
Y527134D01*
X1171974Y529726D01*
X1172612Y532247D01*
X1173657Y534629D01*
X1175080Y536807D01*
X1176841Y538720D01*
X1178894Y540318D01*
X1181181Y541556D01*
X1183641Y542400D01*
X1186207Y542828D01*
X1188808D01*
X1191373Y542400D01*
D02*
G37*
G36*
X781924D02*
X784384Y541556D01*
X786672Y540318D01*
X788724Y538720D01*
X790486Y536807D01*
X791908Y534629D01*
X792953Y532247D01*
X793592Y529726D01*
X793806Y527134D01*
Y523197D01*
X793592Y520605D01*
X792953Y518084D01*
X791908Y515702D01*
X790486Y513524D01*
X788724Y511611D01*
X786672Y510013D01*
X784384Y508775D01*
X781924Y507931D01*
X779359Y507503D01*
X776758D01*
X774192Y507931D01*
X771733Y508775D01*
X769445Y510013D01*
X767392Y511611D01*
X765631Y513524D01*
X764208Y515702D01*
X763164Y518084D01*
X762525Y520605D01*
X762310Y523197D01*
Y527134D01*
X762525Y529726D01*
X763164Y532247D01*
X764208Y534629D01*
X765631Y536807D01*
X767392Y538720D01*
X769445Y540318D01*
X771733Y541556D01*
X774192Y542400D01*
X776758Y542828D01*
X779359D01*
X781924Y542400D01*
D02*
G37*
G36*
X872476Y542400D02*
X874936Y541556D01*
X877223Y540318D01*
X879275Y538720D01*
X881037Y536807D01*
X882460Y534629D01*
X883504Y532247D01*
X884143Y529726D01*
X884358Y527134D01*
Y523197D01*
X884143Y520605D01*
X883504Y518084D01*
X882460Y515702D01*
X881037Y513524D01*
X879275Y511611D01*
X877223Y510013D01*
X874936Y508775D01*
X872476Y507931D01*
X869910Y507503D01*
X867309D01*
X864744Y507931D01*
X862284Y508775D01*
X859996Y510013D01*
X857944Y511611D01*
X856182Y513524D01*
X854760Y515702D01*
X853715Y518084D01*
X853076Y520605D01*
X852861Y523197D01*
Y527134D01*
X853076Y529726D01*
X853715Y532247D01*
X854760Y534629D01*
X856182Y536807D01*
X857944Y538720D01*
X859996Y540318D01*
X862284Y541556D01*
X864744Y542400D01*
X867309Y542828D01*
X869910D01*
X872476Y542400D01*
D02*
G37*
G36*
X463027D02*
X465487Y541556D01*
X467774Y540318D01*
X469827Y538720D01*
X471588Y536807D01*
X473011Y534629D01*
X474055Y532247D01*
X474694Y529726D01*
X474909Y527134D01*
Y523197D01*
X474694Y520605D01*
X474055Y518084D01*
X473011Y515702D01*
X471588Y513524D01*
X469827Y511611D01*
X467774Y510013D01*
X465487Y508775D01*
X463027Y507931D01*
X460461Y507503D01*
X457860D01*
X455295Y507931D01*
X452835Y508775D01*
X450547Y510013D01*
X448495Y511611D01*
X446733Y513524D01*
X445311Y515702D01*
X444266Y518084D01*
X443628Y520605D01*
X443413Y523197D01*
Y527134D01*
X443628Y529726D01*
X444266Y532247D01*
X445311Y534629D01*
X446733Y536807D01*
X448495Y538720D01*
X450547Y540318D01*
X452835Y541556D01*
X455295Y542400D01*
X457860Y542828D01*
X460461D01*
X463027Y542400D01*
D02*
G37*
G36*
X371976Y541080D02*
X374436Y540236D01*
X376724Y538998D01*
X378776Y537400D01*
X380538Y535487D01*
X381960Y533309D01*
X383005Y530928D01*
X383644Y528406D01*
X383858Y525814D01*
Y521877D01*
X383644Y519285D01*
X383005Y516764D01*
X381960Y514382D01*
X380538Y512205D01*
X378776Y510291D01*
X376724Y508693D01*
X374436Y507455D01*
X371976Y506611D01*
X369411Y506183D01*
X366810D01*
X364244Y506611D01*
X361784Y507455D01*
X359497Y508693D01*
X357444Y510291D01*
X355683Y512205D01*
X354260Y514382D01*
X353216Y516764D01*
X352577Y519285D01*
X352362Y521877D01*
Y525814D01*
X352577Y528406D01*
X353216Y530928D01*
X354260Y533309D01*
X355683Y535487D01*
X357444Y537400D01*
X359497Y538998D01*
X361784Y540236D01*
X364244Y541080D01*
X366810Y541508D01*
X369411D01*
X371976Y541080D01*
D02*
G37*
G36*
X53079Y541080D02*
X55538Y540236D01*
X57826Y538998D01*
X59878Y537400D01*
X61640Y535487D01*
X63063Y533309D01*
X64107Y530928D01*
X64746Y528406D01*
X64961Y525814D01*
Y521877D01*
X64746Y519285D01*
X64107Y516764D01*
X63063Y514382D01*
X61640Y512204D01*
X59878Y510291D01*
X57826Y508693D01*
X55538Y507455D01*
X53079Y506611D01*
X50513Y506183D01*
X47912D01*
X45347Y506611D01*
X42887Y507455D01*
X40599Y508693D01*
X38547Y510291D01*
X36785Y512204D01*
X35363Y514382D01*
X34318Y516764D01*
X33679Y519285D01*
X33465Y521877D01*
Y525814D01*
X33679Y528406D01*
X34318Y530928D01*
X35363Y533309D01*
X36785Y535487D01*
X38547Y537400D01*
X40599Y538998D01*
X42887Y540236D01*
X45347Y541080D01*
X47912Y541508D01*
X50513D01*
X53079Y541080D01*
D02*
G37*
G36*
X1245432Y480814D02*
X1241495D01*
Y520184D01*
X1245432D01*
Y480814D01*
D02*
G37*
G36*
X1228846Y465887D02*
X827271D01*
Y607619D01*
X831208D01*
Y469824D01*
X1224909D01*
Y607619D01*
X1228846D01*
Y465887D01*
D02*
G37*
G36*
X819397D02*
X417822D01*
Y607619D01*
X421759D01*
Y469824D01*
X815460D01*
Y607619D01*
X819397D01*
Y465887D01*
D02*
G37*
G36*
X409449Y464567D02*
X7874D01*
Y606299D01*
X11811D01*
Y468504D01*
X405512D01*
Y606299D01*
X409449D01*
Y464567D01*
D02*
G37*
G36*
X1197350Y455355D02*
X1177665D01*
Y459292D01*
X1197350D01*
Y455355D01*
D02*
G37*
G36*
X1146169D02*
X1106799D01*
Y459292D01*
X1146169D01*
Y455355D01*
D02*
G37*
G36*
X1067428D02*
X1028058D01*
Y459292D01*
X1067428D01*
Y455355D01*
D02*
G37*
G36*
X988688D02*
X949318D01*
Y459292D01*
X988688D01*
Y455355D01*
D02*
G37*
G36*
X909948D02*
X870578D01*
Y459292D01*
X909948D01*
Y455355D01*
D02*
G37*
G36*
X787901D02*
X768216D01*
Y459292D01*
X787901D01*
Y455355D01*
D02*
G37*
G36*
X736720D02*
X697350D01*
Y459292D01*
X736720D01*
Y455355D01*
D02*
G37*
G36*
X657980D02*
X618610D01*
Y459292D01*
X657980D01*
Y455355D01*
D02*
G37*
G36*
X579240D02*
X539869D01*
Y459292D01*
X579240D01*
Y455355D01*
D02*
G37*
G36*
X500499D02*
X461129D01*
Y459292D01*
X500499D01*
Y455355D01*
D02*
G37*
G36*
X377953Y454035D02*
X358268D01*
Y457972D01*
X377953D01*
Y454035D01*
D02*
G37*
G36*
X326772D02*
X287402D01*
Y457972D01*
X326772D01*
Y454035D01*
D02*
G37*
G36*
X248031D02*
X208661D01*
Y457972D01*
X248031D01*
Y454035D01*
D02*
G37*
G36*
X169291D02*
X129921D01*
Y457972D01*
X169291D01*
Y454035D01*
D02*
G37*
G36*
X90551D02*
X51181D01*
Y457972D01*
X90551D01*
Y454035D01*
D02*
G37*
G36*
X1245432Y402074D02*
X1241495D01*
Y441444D01*
X1245432D01*
Y402074D01*
D02*
G37*
G36*
X1329789Y415639D02*
X1332310Y415000D01*
X1334692Y413956D01*
X1336869Y412533D01*
X1338783Y410772D01*
X1340380Y408719D01*
X1341618Y406432D01*
X1342463Y403971D01*
X1342891Y401406D01*
Y398805D01*
X1342463Y396240D01*
X1341618Y393780D01*
X1340380Y391492D01*
X1338783Y389440D01*
X1336869Y387678D01*
X1334692Y386256D01*
X1332310Y385211D01*
X1329789Y384572D01*
X1327197Y384358D01*
X1323260D01*
X1320668Y384572D01*
X1318146Y385211D01*
X1315765Y386256D01*
X1313587Y387678D01*
X1311674Y389440D01*
X1310076Y391492D01*
X1308838Y393780D01*
X1307994Y396240D01*
X1307565Y398805D01*
Y401406D01*
X1307994Y403971D01*
X1308838Y406431D01*
X1310076Y408719D01*
X1311674Y410772D01*
X1313587Y412533D01*
X1315765Y413956D01*
X1318146Y415000D01*
X1320668Y415639D01*
X1323260Y415854D01*
X1327197D01*
X1329789Y415639D01*
D02*
G37*
G36*
X1384507Y358767D02*
X1242775D01*
Y362704D01*
X1380570D01*
Y756405D01*
X1242775D01*
Y760342D01*
X1384507D01*
Y358767D01*
D02*
G37*
G36*
X1191373Y392794D02*
X1193833Y391949D01*
X1196120Y390711D01*
X1198173Y389114D01*
X1199935Y387200D01*
X1201357Y385023D01*
X1202402Y382641D01*
X1203041Y380120D01*
X1203255Y377528D01*
Y373591D01*
X1203041Y370999D01*
X1202402Y368477D01*
X1201357Y366095D01*
X1199935Y363918D01*
X1198173Y362004D01*
X1196121Y360407D01*
X1193833Y359169D01*
X1191373Y358325D01*
X1188808Y357896D01*
X1186207D01*
X1183641Y358325D01*
X1181181Y359169D01*
X1178894Y360407D01*
X1176841Y362004D01*
X1175080Y363918D01*
X1173657Y366095D01*
X1172612Y368477D01*
X1171974Y370999D01*
X1171759Y373591D01*
Y377528D01*
X1171974Y380120D01*
X1172612Y382641D01*
X1173657Y385023D01*
X1175080Y387200D01*
X1176841Y389114D01*
X1178894Y390711D01*
X1181181Y391949D01*
X1183641Y392794D01*
X1186207Y393222D01*
X1188808D01*
X1191373Y392794D01*
D02*
G37*
G36*
X781924D02*
X784384Y391949D01*
X786672Y390711D01*
X788724Y389114D01*
X790486Y387200D01*
X791908Y385023D01*
X792953Y382641D01*
X793592Y380120D01*
X793806Y377528D01*
Y373591D01*
X793592Y370999D01*
X792953Y368477D01*
X791908Y366095D01*
X790486Y363918D01*
X788724Y362004D01*
X786672Y360407D01*
X784384Y359169D01*
X781924Y358325D01*
X779359Y357896D01*
X776758D01*
X774192Y358325D01*
X771733Y359169D01*
X769445Y360407D01*
X767392Y362004D01*
X765631Y363918D01*
X764208Y366095D01*
X763164Y368477D01*
X762525Y370999D01*
X762310Y373591D01*
Y377528D01*
X762525Y380120D01*
X763164Y382641D01*
X764208Y385023D01*
X765631Y387200D01*
X767392Y389114D01*
X769445Y390711D01*
X771733Y391949D01*
X774192Y392794D01*
X776758Y393222D01*
X779359D01*
X781924Y392794D01*
D02*
G37*
G36*
X872476Y392794D02*
X874936Y391949D01*
X877223Y390711D01*
X879275Y389114D01*
X881037Y387200D01*
X882460Y385023D01*
X883504Y382641D01*
X884143Y380120D01*
X884358Y377528D01*
Y373591D01*
X884143Y370999D01*
X883504Y368477D01*
X882460Y366095D01*
X881037Y363918D01*
X879275Y362004D01*
X877223Y360407D01*
X874936Y359169D01*
X872476Y358325D01*
X869910Y357896D01*
X867309D01*
X864744Y358325D01*
X862284Y359169D01*
X859996Y360407D01*
X857944Y362004D01*
X856182Y363918D01*
X854760Y366095D01*
X853715Y368477D01*
X853076Y370999D01*
X852861Y373591D01*
Y377528D01*
X853076Y380120D01*
X853715Y382641D01*
X854760Y385023D01*
X856182Y387200D01*
X857944Y389114D01*
X859996Y390711D01*
X862284Y391949D01*
X864744Y392794D01*
X867309Y393222D01*
X869910D01*
X872476Y392794D01*
D02*
G37*
G36*
X463027D02*
X465487Y391949D01*
X467774Y390711D01*
X469827Y389114D01*
X471588Y387200D01*
X473011Y385023D01*
X474055Y382641D01*
X474694Y380120D01*
X474909Y377528D01*
Y373591D01*
X474694Y370999D01*
X474055Y368477D01*
X473011Y366095D01*
X471588Y363918D01*
X469827Y362004D01*
X467774Y360407D01*
X465487Y359169D01*
X463027Y358325D01*
X460461Y357896D01*
X457860D01*
X455295Y358325D01*
X452835Y359169D01*
X450547Y360407D01*
X448495Y362004D01*
X446733Y363918D01*
X445311Y366095D01*
X444266Y368477D01*
X443628Y370999D01*
X443413Y373591D01*
Y377528D01*
X443628Y380120D01*
X444266Y382641D01*
X445311Y385023D01*
X446733Y387200D01*
X448495Y389114D01*
X450547Y390711D01*
X452835Y391949D01*
X455295Y392794D01*
X457860Y393222D01*
X460461D01*
X463027Y392794D01*
D02*
G37*
G36*
X371976Y391474D02*
X374436Y390630D01*
X376724Y389391D01*
X378776Y387794D01*
X380538Y385880D01*
X381960Y383703D01*
X383005Y381321D01*
X383644Y378800D01*
X383858Y376208D01*
Y372271D01*
X383644Y369679D01*
X383005Y367158D01*
X381960Y364776D01*
X380538Y362598D01*
X378776Y360685D01*
X376724Y359087D01*
X374436Y357849D01*
X371976Y357005D01*
X369411Y356577D01*
X366810D01*
X364244Y357005D01*
X361784Y357849D01*
X359497Y359087D01*
X357444Y360685D01*
X355683Y362598D01*
X354260Y364776D01*
X353216Y367158D01*
X352577Y369679D01*
X352362Y372271D01*
Y376208D01*
X352577Y378800D01*
X353216Y381321D01*
X354260Y383703D01*
X355683Y385880D01*
X357444Y387794D01*
X359497Y389391D01*
X361784Y390630D01*
X364244Y391474D01*
X366810Y391902D01*
X369411D01*
X371976Y391474D01*
D02*
G37*
G36*
X53079Y391474D02*
X55538Y390629D01*
X57826Y389391D01*
X59878Y387794D01*
X61640Y385880D01*
X63063Y383703D01*
X64107Y381321D01*
X64746Y378800D01*
X64961Y376208D01*
Y372271D01*
X64746Y369679D01*
X64107Y367157D01*
X63063Y364776D01*
X61640Y362598D01*
X59878Y360685D01*
X57826Y359087D01*
X55538Y357849D01*
X53079Y357005D01*
X50513Y356576D01*
X47912D01*
X45347Y357005D01*
X42887Y357849D01*
X40599Y359087D01*
X38547Y360685D01*
X36785Y362598D01*
X35363Y364776D01*
X34318Y367157D01*
X33679Y369679D01*
X33465Y372271D01*
Y376208D01*
X33679Y378800D01*
X34318Y381321D01*
X35363Y383703D01*
X36785Y385880D01*
X38547Y387794D01*
X40599Y389391D01*
X42887Y390629D01*
X45347Y391474D01*
X47912Y391902D01*
X50513D01*
X53079Y391474D01*
D02*
G37*
G36*
X1228846Y316281D02*
X827271D01*
Y458013D01*
X831208D01*
Y320217D01*
X1224909D01*
Y458013D01*
X1228846D01*
Y316281D01*
D02*
G37*
G36*
X819397D02*
X417822D01*
Y458013D01*
X421759D01*
Y320217D01*
X815460D01*
Y458013D01*
X819397D01*
Y316281D01*
D02*
G37*
G36*
X409449Y314961D02*
X7874D01*
Y456693D01*
X11811D01*
Y318898D01*
X405512D01*
Y456693D01*
X409449D01*
Y314961D01*
D02*
G37*
G36*
X1197350Y301812D02*
X1177665D01*
Y305749D01*
X1197350D01*
Y301812D01*
D02*
G37*
G36*
X1146169D02*
X1106799D01*
Y305749D01*
X1146169D01*
Y301812D01*
D02*
G37*
G36*
X1067428D02*
X1028058D01*
Y305749D01*
X1067428D01*
Y301812D01*
D02*
G37*
G36*
X988688D02*
X949318D01*
Y305749D01*
X988688D01*
Y301812D01*
D02*
G37*
G36*
X909948D02*
X870578D01*
Y305749D01*
X909948D01*
Y301812D01*
D02*
G37*
G36*
X787901D02*
X768216D01*
Y305749D01*
X787901D01*
Y301812D01*
D02*
G37*
G36*
X736720D02*
X697350D01*
Y305749D01*
X736720D01*
Y301812D01*
D02*
G37*
G36*
X657980D02*
X618610D01*
Y305749D01*
X657980D01*
Y301812D01*
D02*
G37*
G36*
X579240D02*
X539869D01*
Y305749D01*
X579240D01*
Y301812D01*
D02*
G37*
G36*
X500499D02*
X461129D01*
Y305749D01*
X500499D01*
Y301812D01*
D02*
G37*
G36*
X377953Y300492D02*
X358268D01*
Y304429D01*
X377953D01*
Y300492D01*
D02*
G37*
G36*
X326772D02*
X287402D01*
Y304429D01*
X326772D01*
Y300492D01*
D02*
G37*
G36*
X248031D02*
X208661D01*
Y304429D01*
X248031D01*
Y300492D01*
D02*
G37*
G36*
X169291D02*
X129921D01*
Y304429D01*
X169291D01*
Y300492D01*
D02*
G37*
G36*
X90551D02*
X51181D01*
Y304429D01*
X90551D01*
Y300492D01*
D02*
G37*
G36*
X1191373Y239251D02*
X1193833Y238406D01*
X1196120Y237168D01*
X1198173Y235571D01*
X1199935Y233657D01*
X1201357Y231480D01*
X1202402Y229098D01*
X1203041Y226576D01*
X1203255Y223984D01*
Y220047D01*
X1203041Y217455D01*
X1202402Y214934D01*
X1201357Y212552D01*
X1199935Y210375D01*
X1198173Y208461D01*
X1196121Y206864D01*
X1193833Y205626D01*
X1191373Y204781D01*
X1188808Y204353D01*
X1186207D01*
X1183641Y204781D01*
X1181181Y205626D01*
X1178894Y206864D01*
X1176841Y208461D01*
X1175080Y210375D01*
X1173657Y212552D01*
X1172612Y214934D01*
X1171974Y217455D01*
X1171759Y220047D01*
Y223984D01*
X1171974Y226576D01*
X1172612Y229098D01*
X1173657Y231480D01*
X1175080Y233657D01*
X1176841Y235571D01*
X1178894Y237168D01*
X1181181Y238406D01*
X1183641Y239251D01*
X1186207Y239679D01*
X1188808D01*
X1191373Y239251D01*
D02*
G37*
G36*
X781924D02*
X784384Y238406D01*
X786672Y237168D01*
X788724Y235571D01*
X790486Y233657D01*
X791908Y231480D01*
X792953Y229098D01*
X793592Y226576D01*
X793806Y223984D01*
Y220047D01*
X793592Y217455D01*
X792953Y214934D01*
X791908Y212552D01*
X790486Y210375D01*
X788724Y208461D01*
X786672Y206864D01*
X784384Y205626D01*
X781924Y204781D01*
X779359Y204353D01*
X776758D01*
X774192Y204781D01*
X771733Y205626D01*
X769445Y206864D01*
X767392Y208461D01*
X765631Y210375D01*
X764208Y212552D01*
X763164Y214934D01*
X762525Y217455D01*
X762310Y220047D01*
Y223984D01*
X762525Y226576D01*
X763164Y229098D01*
X764208Y231480D01*
X765631Y233657D01*
X767392Y235571D01*
X769445Y237168D01*
X771733Y238406D01*
X774192Y239251D01*
X776758Y239679D01*
X779359D01*
X781924Y239251D01*
D02*
G37*
G36*
X872476Y239250D02*
X874936Y238406D01*
X877223Y237168D01*
X879275Y235571D01*
X881037Y233657D01*
X882460Y231480D01*
X883504Y229098D01*
X884143Y226576D01*
X884358Y223984D01*
Y220047D01*
X884143Y217455D01*
X883504Y214934D01*
X882460Y212552D01*
X881037Y210375D01*
X879275Y208461D01*
X877223Y206864D01*
X874936Y205626D01*
X872476Y204781D01*
X869910Y204353D01*
X867309D01*
X864744Y204781D01*
X862284Y205626D01*
X859996Y206864D01*
X857944Y208461D01*
X856182Y210375D01*
X854760Y212552D01*
X853715Y214934D01*
X853076Y217455D01*
X852861Y220047D01*
Y223984D01*
X853076Y226576D01*
X853715Y229098D01*
X854760Y231480D01*
X856182Y233657D01*
X857944Y235571D01*
X859996Y237168D01*
X862284Y238406D01*
X864744Y239250D01*
X867309Y239679D01*
X869910D01*
X872476Y239250D01*
D02*
G37*
G36*
X463027D02*
X465487Y238406D01*
X467774Y237168D01*
X469827Y235571D01*
X471588Y233657D01*
X473011Y231480D01*
X474055Y229098D01*
X474694Y226576D01*
X474909Y223984D01*
Y220047D01*
X474694Y217455D01*
X474055Y214934D01*
X473011Y212552D01*
X471588Y210375D01*
X469827Y208461D01*
X467774Y206864D01*
X465487Y205626D01*
X463027Y204781D01*
X460461Y204353D01*
X457860D01*
X455295Y204781D01*
X452835Y205626D01*
X450547Y206864D01*
X448495Y208461D01*
X446733Y210375D01*
X445311Y212552D01*
X444266Y214934D01*
X443628Y217455D01*
X443413Y220047D01*
Y223984D01*
X443628Y226576D01*
X444266Y229098D01*
X445311Y231480D01*
X446733Y233657D01*
X448495Y235571D01*
X450547Y237168D01*
X452835Y238406D01*
X455295Y239250D01*
X457860Y239679D01*
X460461D01*
X463027Y239250D01*
D02*
G37*
G36*
X371976Y237931D02*
X374436Y237086D01*
X376724Y235848D01*
X378776Y234251D01*
X380538Y232337D01*
X381960Y230160D01*
X383005Y227778D01*
X383644Y225257D01*
X383858Y222664D01*
Y218727D01*
X383644Y216136D01*
X383005Y213614D01*
X381960Y211232D01*
X380538Y209055D01*
X378776Y207141D01*
X376724Y205544D01*
X374436Y204306D01*
X371976Y203461D01*
X369411Y203033D01*
X366810D01*
X364244Y203461D01*
X361784Y204306D01*
X359497Y205544D01*
X357444Y207141D01*
X355683Y209055D01*
X354260Y211232D01*
X353216Y213614D01*
X352577Y216136D01*
X352362Y218727D01*
Y222664D01*
X352577Y225257D01*
X353216Y227778D01*
X354260Y230160D01*
X355683Y232337D01*
X357444Y234251D01*
X359497Y235848D01*
X361784Y237086D01*
X364244Y237931D01*
X366810Y238359D01*
X369411D01*
X371976Y237931D01*
D02*
G37*
G36*
X53079Y237931D02*
X55538Y237086D01*
X57826Y235848D01*
X59878Y234251D01*
X61640Y232337D01*
X63063Y230160D01*
X64107Y227778D01*
X64746Y225257D01*
X64961Y222664D01*
Y218727D01*
X64746Y216135D01*
X64107Y213614D01*
X63063Y211232D01*
X61640Y209055D01*
X59878Y207141D01*
X57826Y205544D01*
X55538Y204306D01*
X53079Y203461D01*
X50513Y203033D01*
X47912D01*
X45347Y203461D01*
X42887Y204306D01*
X40599Y205544D01*
X38547Y207141D01*
X36785Y209055D01*
X35363Y211232D01*
X34318Y213614D01*
X33679Y216135D01*
X33465Y218727D01*
Y222664D01*
X33679Y225257D01*
X34318Y227778D01*
X35363Y230160D01*
X36785Y232337D01*
X38547Y234251D01*
X40599Y235848D01*
X42887Y237086D01*
X45347Y237931D01*
X47912Y238359D01*
X50513D01*
X53079Y237931D01*
D02*
G37*
G36*
X1228846Y162737D02*
X827271D01*
Y304469D01*
X831208D01*
Y166674D01*
X1224909D01*
Y304469D01*
X1228846D01*
Y162737D01*
D02*
G37*
G36*
X819397D02*
X417822D01*
Y304469D01*
X421759D01*
Y166674D01*
X815460D01*
Y304469D01*
X819397D01*
Y162737D01*
D02*
G37*
G36*
X409449Y161417D02*
X7874D01*
Y303150D01*
X11811D01*
Y165354D01*
X405512D01*
Y303150D01*
X409449D01*
Y161417D01*
D02*
G37*
G36*
X1197350Y148269D02*
X1177665D01*
Y152206D01*
X1197350D01*
Y148269D01*
D02*
G37*
G36*
X1146169D02*
X1106799D01*
Y152206D01*
X1146169D01*
Y148269D01*
D02*
G37*
G36*
X1067428D02*
X1028058D01*
Y152206D01*
X1067428D01*
Y148269D01*
D02*
G37*
G36*
X988688D02*
X949318D01*
Y152206D01*
X988688D01*
Y148269D01*
D02*
G37*
G36*
X909948D02*
X870578D01*
Y152206D01*
X909948D01*
Y148269D01*
D02*
G37*
G36*
X787901D02*
X768216D01*
Y152206D01*
X787901D01*
Y148269D01*
D02*
G37*
G36*
X736720D02*
X697350D01*
Y152206D01*
X736720D01*
Y148269D01*
D02*
G37*
G36*
X657980D02*
X618610D01*
Y152206D01*
X657980D01*
Y148269D01*
D02*
G37*
G36*
X579240D02*
X539869D01*
Y152206D01*
X579240D01*
Y148269D01*
D02*
G37*
G36*
X500499D02*
X461129D01*
Y152206D01*
X500499D01*
Y148269D01*
D02*
G37*
G36*
X377953Y146949D02*
X358268D01*
Y150886D01*
X377953D01*
Y146949D01*
D02*
G37*
G36*
X326772D02*
X287402D01*
Y150886D01*
X326772D01*
Y146949D01*
D02*
G37*
G36*
X248031D02*
X208661D01*
Y150886D01*
X248031D01*
Y146949D01*
D02*
G37*
G36*
X169291D02*
X129921D01*
Y150886D01*
X169291D01*
Y146949D01*
D02*
G37*
G36*
X90551D02*
X51181D01*
Y150886D01*
X90551D01*
Y146949D01*
D02*
G37*
G36*
X1191373Y85707D02*
X1193833Y84863D01*
X1196120Y83625D01*
X1198173Y82027D01*
X1199935Y80114D01*
X1201357Y77936D01*
X1202402Y75555D01*
X1203041Y73033D01*
X1203255Y70441D01*
Y66504D01*
X1203041Y63912D01*
X1202402Y61391D01*
X1201357Y59009D01*
X1199935Y56832D01*
X1198173Y54918D01*
X1196121Y53320D01*
X1193833Y52083D01*
X1191373Y51238D01*
X1188808Y50810D01*
X1186207D01*
X1183641Y51238D01*
X1181181Y52083D01*
X1178894Y53320D01*
X1176841Y54918D01*
X1175080Y56832D01*
X1173657Y59009D01*
X1172612Y61391D01*
X1171974Y63912D01*
X1171759Y66504D01*
Y70441D01*
X1171974Y73033D01*
X1172612Y75555D01*
X1173657Y77936D01*
X1175080Y80114D01*
X1176841Y82027D01*
X1178894Y83625D01*
X1181181Y84863D01*
X1183641Y85707D01*
X1186207Y86135D01*
X1188808D01*
X1191373Y85707D01*
D02*
G37*
G36*
X781924D02*
X784384Y84863D01*
X786672Y83625D01*
X788724Y82027D01*
X790486Y80114D01*
X791908Y77936D01*
X792953Y75555D01*
X793592Y73033D01*
X793806Y70441D01*
Y66504D01*
X793592Y63912D01*
X792953Y61391D01*
X791908Y59009D01*
X790486Y56832D01*
X788724Y54918D01*
X786672Y53320D01*
X784384Y52083D01*
X781924Y51238D01*
X779359Y50810D01*
X776758D01*
X774192Y51238D01*
X771733Y52083D01*
X769445Y53320D01*
X767392Y54918D01*
X765631Y56832D01*
X764208Y59009D01*
X763164Y61391D01*
X762525Y63912D01*
X762310Y66504D01*
Y70441D01*
X762525Y73033D01*
X763164Y75555D01*
X764208Y77936D01*
X765631Y80114D01*
X767392Y82027D01*
X769445Y83625D01*
X771733Y84863D01*
X774192Y85707D01*
X776758Y86135D01*
X779359D01*
X781924Y85707D01*
D02*
G37*
G36*
X872476Y85707D02*
X874936Y84863D01*
X877223Y83625D01*
X879275Y82027D01*
X881037Y80114D01*
X882460Y77936D01*
X883504Y75555D01*
X884143Y73033D01*
X884358Y70441D01*
Y66504D01*
X884143Y63912D01*
X883504Y61391D01*
X882460Y59009D01*
X881037Y56831D01*
X879275Y54918D01*
X877223Y53320D01*
X874936Y52083D01*
X872476Y51238D01*
X869910Y50810D01*
X867309D01*
X864744Y51238D01*
X862284Y52083D01*
X859996Y53320D01*
X857944Y54918D01*
X856182Y56831D01*
X854760Y59009D01*
X853715Y61391D01*
X853076Y63912D01*
X852861Y66504D01*
Y70441D01*
X853076Y73033D01*
X853715Y75555D01*
X854760Y77936D01*
X856182Y80114D01*
X857944Y82027D01*
X859996Y83625D01*
X862284Y84863D01*
X864744Y85707D01*
X867309Y86135D01*
X869910D01*
X872476Y85707D01*
D02*
G37*
G36*
X463027D02*
X465487Y84863D01*
X467774Y83625D01*
X469827Y82027D01*
X471588Y80114D01*
X473011Y77936D01*
X474055Y75555D01*
X474694Y73033D01*
X474909Y70441D01*
Y66504D01*
X474694Y63912D01*
X474055Y61391D01*
X473011Y59009D01*
X471588Y56831D01*
X469827Y54918D01*
X467774Y53320D01*
X465487Y52083D01*
X463027Y51238D01*
X460461Y50810D01*
X457860D01*
X455295Y51238D01*
X452835Y52083D01*
X450547Y53320D01*
X448495Y54918D01*
X446733Y56831D01*
X445311Y59009D01*
X444266Y61391D01*
X443628Y63912D01*
X443413Y66504D01*
Y70441D01*
X443628Y73033D01*
X444266Y75555D01*
X445311Y77936D01*
X446733Y80114D01*
X448495Y82027D01*
X450547Y83625D01*
X452835Y84863D01*
X455295Y85707D01*
X457860Y86135D01*
X460461D01*
X463027Y85707D01*
D02*
G37*
G36*
X371976Y84387D02*
X374436Y83543D01*
X376724Y82305D01*
X378776Y80707D01*
X380538Y78794D01*
X381960Y76616D01*
X383005Y74235D01*
X383644Y71713D01*
X383858Y69121D01*
Y65184D01*
X383644Y62592D01*
X383005Y60071D01*
X381960Y57689D01*
X380538Y55512D01*
X378776Y53598D01*
X376724Y52000D01*
X374436Y50763D01*
X371976Y49918D01*
X369411Y49490D01*
X366810D01*
X364244Y49918D01*
X361784Y50763D01*
X359497Y52000D01*
X357444Y53598D01*
X355683Y55512D01*
X354260Y57689D01*
X353216Y60071D01*
X352577Y62592D01*
X352362Y65184D01*
Y69121D01*
X352577Y71713D01*
X353216Y74235D01*
X354260Y76616D01*
X355683Y78794D01*
X357444Y80707D01*
X359497Y82305D01*
X361784Y83543D01*
X364244Y84387D01*
X366810Y84815D01*
X369411D01*
X371976Y84387D01*
D02*
G37*
G36*
X53079Y84387D02*
X55538Y83543D01*
X57826Y82305D01*
X59878Y80707D01*
X61640Y78794D01*
X63063Y76616D01*
X64107Y74235D01*
X64746Y71713D01*
X64961Y69121D01*
Y65184D01*
X64746Y62592D01*
X64107Y60071D01*
X63063Y57689D01*
X61640Y55511D01*
X59878Y53598D01*
X57826Y52000D01*
X55538Y50763D01*
X53079Y49918D01*
X50513Y49490D01*
X47912D01*
X45347Y49918D01*
X42887Y50763D01*
X40599Y52000D01*
X38547Y53598D01*
X36785Y55511D01*
X35363Y57689D01*
X34318Y60071D01*
X33679Y62592D01*
X33465Y65184D01*
Y69121D01*
X33679Y71713D01*
X34318Y74235D01*
X35363Y76616D01*
X36785Y78794D01*
X38547Y80707D01*
X40599Y82305D01*
X42887Y83543D01*
X45347Y84387D01*
X47912Y84815D01*
X50513D01*
X53079Y84387D01*
D02*
G37*
G36*
X1228846Y9194D02*
X827271D01*
Y150926D01*
X831208D01*
Y13131D01*
X1224909D01*
Y150926D01*
X1228846D01*
Y9194D01*
D02*
G37*
G36*
X819397D02*
X417822D01*
Y150926D01*
X421759D01*
Y13131D01*
X815460D01*
Y150926D01*
X819397D01*
Y9194D01*
D02*
G37*
G36*
X409449Y7874D02*
X7874D01*
Y149606D01*
X11811D01*
Y11811D01*
X405512D01*
Y149606D01*
X409449D01*
Y7874D01*
D02*
G37*
D10*
X1281701Y719003D02*
D03*
X1281701Y400106D02*
D03*
X868610Y111999D02*
D03*
X1187507Y111999D02*
D03*
Y265543D02*
D03*
X868610Y265543D02*
D03*
X1187507Y419086D02*
D03*
X868610Y419086D02*
D03*
X1187507Y568692D02*
D03*
X868610Y568692D02*
D03*
X1191444Y722236D02*
D03*
X872547Y722236D02*
D03*
X459161Y111999D02*
D03*
X778058Y111999D02*
D03*
Y265543D02*
D03*
X459161Y265543D02*
D03*
X778058Y419086D02*
D03*
X459161Y419086D02*
D03*
X778058Y568692D02*
D03*
X459161Y568692D02*
D03*
X781995Y722236D02*
D03*
X463098Y722236D02*
D03*
X53150Y720916D02*
D03*
X372047Y720916D02*
D03*
X49213Y567372D02*
D03*
X368110Y567372D02*
D03*
X49213Y417766D02*
D03*
X368110Y417766D02*
D03*
X49213Y264223D02*
D03*
X368110Y264223D02*
D03*
Y110679D02*
D03*
X49213Y110679D02*
D03*
D11*
X1264719Y743203D02*
D03*
X1302481D02*
D03*
X1264719Y375905D02*
D03*
X1302481D02*
D03*
X844409Y91220D02*
D03*
Y128981D02*
D03*
X1211707Y91220D02*
D03*
Y128981D02*
D03*
Y282525D02*
D03*
Y244764D02*
D03*
X844409Y282525D02*
D03*
Y244763D02*
D03*
X1211707Y436068D02*
D03*
Y398307D02*
D03*
X844409Y436068D02*
D03*
Y398307D02*
D03*
X1211707Y585674D02*
D03*
Y547913D02*
D03*
X844409Y585674D02*
D03*
Y547913D02*
D03*
X1215644Y739218D02*
D03*
Y701456D02*
D03*
X848346Y739218D02*
D03*
Y701456D02*
D03*
X434961Y91220D02*
D03*
Y128981D02*
D03*
X802259Y91220D02*
D03*
Y128981D02*
D03*
Y282525D02*
D03*
Y244764D02*
D03*
X434961Y282525D02*
D03*
Y244763D02*
D03*
X802259Y436068D02*
D03*
Y398307D02*
D03*
X434961Y436068D02*
D03*
Y398307D02*
D03*
X802259Y585674D02*
D03*
Y547913D02*
D03*
X434961Y585674D02*
D03*
Y547913D02*
D03*
X806196Y739218D02*
D03*
Y701456D02*
D03*
X438898Y739218D02*
D03*
Y701456D02*
D03*
X28949Y700137D02*
D03*
Y737898D02*
D03*
X396248Y700137D02*
D03*
Y737898D02*
D03*
X25012Y546593D02*
D03*
Y584354D02*
D03*
X392311Y546593D02*
D03*
Y584354D02*
D03*
X25012Y396987D02*
D03*
Y434748D02*
D03*
X392311Y396987D02*
D03*
Y434748D02*
D03*
X25012Y243444D02*
D03*
Y281205D02*
D03*
X392311Y243444D02*
D03*
Y281205D02*
D03*
Y127661D02*
D03*
Y89900D02*
D03*
X25012Y127661D02*
D03*
Y89900D02*
D03*
M02*
