G04*
G04 #@! TF.GenerationSoftware,Altium Limited,Altium Designer,21.7.2 (23)*
G04*
G04 Layer_Color=65535*
%FSLAX25Y25*%
%MOIN*%
G70*
G04*
G04 #@! TF.SameCoordinates,C4546B31-D03E-46B2-B5FB-78E1377E201A*
G04*
G04*
G04 #@! TF.FilePolarity,Positive*
G04*
G01*
G75*
G36*
X437597Y449237D02*
X437592Y449155D01*
X437586Y449062D01*
X437581Y448964D01*
X437570Y448871D01*
X437559Y448789D01*
Y448778D01*
X437548Y448740D01*
X437537Y448691D01*
X437521Y448625D01*
X437494Y448554D01*
X437461Y448478D01*
X437423Y448396D01*
X437379Y448325D01*
X437373Y448314D01*
X437357Y448292D01*
X437324Y448259D01*
X437286Y448216D01*
X437237Y448167D01*
X437171Y448117D01*
X437100Y448063D01*
X437018Y448019D01*
X437008Y448014D01*
X436980Y448003D01*
X436931Y447981D01*
X436866Y447959D01*
X436789Y447943D01*
X436702Y447921D01*
X436603Y447910D01*
X436500Y447904D01*
X436494D01*
X436478D01*
X436456D01*
X436418Y447910D01*
X436380Y447915D01*
X436331Y447921D01*
X436276Y447932D01*
X436216Y447943D01*
X436090Y447981D01*
X436025Y448003D01*
X435954Y448035D01*
X435883Y448074D01*
X435817Y448112D01*
X435752Y448161D01*
X435686Y448216D01*
X435681Y448221D01*
X435670Y448232D01*
X435653Y448248D01*
X435637Y448276D01*
X435610Y448309D01*
X435582Y448352D01*
X435550Y448407D01*
X435522Y448467D01*
X435490Y448538D01*
X435457Y448620D01*
X435430Y448707D01*
X435408Y448811D01*
X435386Y448920D01*
X435369Y449040D01*
X435359Y449177D01*
X435353Y449319D01*
Y450285D01*
X433819D01*
Y450787D01*
X437597D01*
Y449237D01*
D02*
G37*
G36*
Y446785D02*
X434267D01*
Y444923D01*
X433819D01*
Y447288D01*
X437597D01*
Y446785D01*
D02*
G37*
G36*
Y441587D02*
X437149D01*
Y443820D01*
X435997D01*
Y441729D01*
X435550D01*
Y443820D01*
X434267D01*
Y441500D01*
X433819D01*
Y444323D01*
X437597D01*
Y441587D01*
D02*
G37*
G36*
Y439780D02*
Y439234D01*
X433819Y437689D01*
Y438257D01*
X434966Y438699D01*
Y440282D01*
X433819Y440692D01*
Y441222D01*
X437597Y439780D01*
D02*
G37*
G36*
X435075Y436984D02*
X435069D01*
X435064D01*
X435047Y436979D01*
X435026D01*
X434976Y436968D01*
X434905Y436952D01*
X434834Y436930D01*
X434753Y436908D01*
X434676Y436870D01*
X434605Y436832D01*
X434600Y436826D01*
X434578Y436810D01*
X434540Y436783D01*
X434501Y436739D01*
X434452Y436684D01*
X434403Y436624D01*
X434354Y436542D01*
X434310Y436455D01*
Y436449D01*
X434305Y436444D01*
X434299Y436428D01*
X434294Y436411D01*
X434277Y436357D01*
X434256Y436286D01*
X434234Y436198D01*
X434218Y436100D01*
X434207Y435991D01*
X434201Y435871D01*
Y435821D01*
X434207Y435767D01*
X434212Y435701D01*
X434223Y435625D01*
X434234Y435538D01*
X434256Y435450D01*
X434283Y435368D01*
X434289Y435357D01*
X434299Y435330D01*
X434321Y435292D01*
X434343Y435243D01*
X434381Y435194D01*
X434419Y435139D01*
X434463Y435084D01*
X434518Y435041D01*
X434523Y435035D01*
X434545Y435024D01*
X434572Y435008D01*
X434616Y434986D01*
X434660Y434964D01*
X434714Y434948D01*
X434774Y434937D01*
X434840Y434932D01*
X434845D01*
X434873D01*
X434905Y434937D01*
X434949Y434942D01*
X434993Y434959D01*
X435047Y434975D01*
X435102Y435003D01*
X435151Y435041D01*
X435157Y435046D01*
X435173Y435063D01*
X435195Y435084D01*
X435228Y435123D01*
X435260Y435166D01*
X435299Y435226D01*
X435337Y435297D01*
X435369Y435379D01*
X435375Y435385D01*
X435381Y435412D01*
X435397Y435456D01*
X435402Y435483D01*
X435413Y435521D01*
X435430Y435560D01*
X435440Y435609D01*
X435457Y435663D01*
X435473Y435729D01*
X435490Y435794D01*
X435511Y435871D01*
X435533Y435958D01*
X435555Y436051D01*
Y436056D01*
X435561Y436073D01*
X435566Y436100D01*
X435577Y436133D01*
X435588Y436176D01*
X435599Y436226D01*
X435632Y436335D01*
X435670Y436455D01*
X435708Y436581D01*
X435746Y436690D01*
X435768Y436739D01*
X435790Y436783D01*
Y436788D01*
X435795Y436793D01*
X435817Y436826D01*
X435845Y436875D01*
X435888Y436930D01*
X435937Y436995D01*
X435997Y437061D01*
X436068Y437126D01*
X436145Y437181D01*
X436156Y437186D01*
X436183Y437203D01*
X436227Y437225D01*
X436281Y437247D01*
X436352Y437268D01*
X436434Y437290D01*
X436522Y437307D01*
X436614Y437312D01*
X436620D01*
X436625D01*
X436642D01*
X436664D01*
X436718Y437301D01*
X436789Y437290D01*
X436871Y437274D01*
X436964Y437247D01*
X437057Y437208D01*
X437149Y437154D01*
X437155D01*
X437160Y437148D01*
X437193Y437121D01*
X437237Y437083D01*
X437291Y437034D01*
X437352Y436968D01*
X437417Y436886D01*
X437477Y436788D01*
X437532Y436679D01*
Y436673D01*
X437537Y436662D01*
X437543Y436646D01*
X437554Y436624D01*
X437565Y436597D01*
X437575Y436559D01*
X437597Y436477D01*
X437619Y436373D01*
X437641Y436253D01*
X437657Y436127D01*
X437663Y435985D01*
Y435914D01*
X437657Y435876D01*
Y435838D01*
X437646Y435734D01*
X437630Y435619D01*
X437603Y435499D01*
X437570Y435368D01*
X437526Y435248D01*
Y435243D01*
X437521Y435232D01*
X437510Y435216D01*
X437499Y435194D01*
X437472Y435139D01*
X437423Y435068D01*
X437368Y434986D01*
X437297Y434904D01*
X437215Y434828D01*
X437122Y434757D01*
X437117D01*
X437111Y434751D01*
X437095Y434740D01*
X437079Y434729D01*
X437024Y434702D01*
X436953Y434669D01*
X436866Y434631D01*
X436762Y434604D01*
X436653Y434577D01*
X436532Y434566D01*
X436494Y435046D01*
X436500D01*
X436511D01*
X436527Y435052D01*
X436554Y435057D01*
X436614Y435074D01*
X436696Y435095D01*
X436784Y435128D01*
X436871Y435177D01*
X436953Y435237D01*
X437029Y435314D01*
X437035Y435325D01*
X437057Y435352D01*
X437089Y435407D01*
X437122Y435477D01*
X437155Y435570D01*
X437188Y435680D01*
X437210Y435816D01*
X437215Y435969D01*
Y436045D01*
X437210Y436078D01*
X437204Y436122D01*
X437193Y436220D01*
X437171Y436329D01*
X437144Y436439D01*
X437100Y436542D01*
X437073Y436586D01*
X437046Y436630D01*
X437040Y436641D01*
X437018Y436662D01*
X436980Y436695D01*
X436937Y436728D01*
X436876Y436766D01*
X436811Y436799D01*
X436734Y436821D01*
X436647Y436832D01*
X436636D01*
X436614D01*
X436576Y436826D01*
X436532Y436815D01*
X436478Y436799D01*
X436423Y436772D01*
X436369Y436739D01*
X436314Y436690D01*
X436309Y436684D01*
X436292Y436657D01*
X436276Y436635D01*
X436265Y436613D01*
X436249Y436581D01*
X436227Y436542D01*
X436210Y436493D01*
X436189Y436439D01*
X436167Y436378D01*
X436139Y436307D01*
X436118Y436231D01*
X436090Y436144D01*
X436068Y436045D01*
X436041Y435936D01*
Y435931D01*
X436036Y435909D01*
X436030Y435876D01*
X436019Y435838D01*
X436008Y435789D01*
X435992Y435729D01*
X435976Y435669D01*
X435959Y435603D01*
X435921Y435461D01*
X435883Y435325D01*
X435861Y435259D01*
X435839Y435199D01*
X435823Y435145D01*
X435801Y435101D01*
Y435095D01*
X435795Y435084D01*
X435784Y435068D01*
X435774Y435046D01*
X435741Y434986D01*
X435697Y434915D01*
X435637Y434833D01*
X435572Y434751D01*
X435495Y434675D01*
X435413Y434609D01*
X435402Y434604D01*
X435375Y434582D01*
X435326Y434560D01*
X435260Y434527D01*
X435184Y434500D01*
X435091Y434473D01*
X434987Y434456D01*
X434878Y434451D01*
X434873D01*
X434867D01*
X434851D01*
X434829D01*
X434769Y434462D01*
X434692Y434473D01*
X434605Y434495D01*
X434512Y434522D01*
X434414Y434566D01*
X434310Y434626D01*
X434305D01*
X434299Y434631D01*
X434267Y434659D01*
X434218Y434697D01*
X434163Y434751D01*
X434097Y434822D01*
X434026Y434910D01*
X433961Y435008D01*
X433901Y435123D01*
Y435128D01*
X433895Y435139D01*
X433890Y435155D01*
X433879Y435177D01*
X433868Y435210D01*
X433852Y435248D01*
X433830Y435336D01*
X433803Y435439D01*
X433775Y435565D01*
X433759Y435701D01*
X433753Y435849D01*
Y435936D01*
X433759Y435980D01*
Y436029D01*
X433764Y436084D01*
X433770Y436149D01*
X433792Y436286D01*
X433813Y436428D01*
X433852Y436569D01*
X433901Y436706D01*
Y436712D01*
X433906Y436722D01*
X433917Y436739D01*
X433928Y436761D01*
X433961Y436826D01*
X434010Y436903D01*
X434075Y436990D01*
X434152Y437083D01*
X434245Y437170D01*
X434348Y437252D01*
X434354D01*
X434365Y437263D01*
X434381Y437268D01*
X434403Y437285D01*
X434430Y437296D01*
X434463Y437312D01*
X434545Y437350D01*
X434649Y437389D01*
X434763Y437421D01*
X434895Y437443D01*
X435031Y437454D01*
X435075Y436984D01*
D02*
G37*
G36*
X437597Y431022D02*
X437149D01*
Y433255D01*
X435997D01*
Y431164D01*
X435550D01*
Y433255D01*
X434267D01*
Y430935D01*
X433819D01*
Y433758D01*
X437597D01*
Y431022D01*
D02*
G37*
G36*
Y428041D02*
X434916Y427146D01*
X434911D01*
X434900Y427140D01*
X434884Y427135D01*
X434856Y427124D01*
X434791Y427102D01*
X434709Y427075D01*
X434616Y427047D01*
X434523Y427014D01*
X434436Y426987D01*
X434359Y426965D01*
X434370Y426960D01*
X434398Y426955D01*
X434447Y426938D01*
X434512Y426916D01*
X434600Y426889D01*
X434703Y426851D01*
X434824Y426813D01*
X434966Y426763D01*
X437597Y425857D01*
Y425185D01*
X433819D01*
Y425666D01*
X436980D01*
X433819Y426769D01*
Y427217D01*
X437035Y428309D01*
X433819D01*
Y428789D01*
X437597D01*
Y428041D01*
D02*
G37*
G36*
Y423345D02*
Y422799D01*
X433819Y421254D01*
Y421822D01*
X434966Y422264D01*
Y423848D01*
X433819Y424257D01*
Y424787D01*
X437597Y423345D01*
D02*
G37*
G36*
X435834Y420992D02*
X435888D01*
X435943Y420987D01*
X436014Y420981D01*
X436085Y420970D01*
X436243Y420943D01*
X436418Y420905D01*
X436593Y420850D01*
X436762Y420774D01*
X436767Y420768D01*
X436784Y420763D01*
X436805Y420752D01*
X436833Y420730D01*
X436871Y420708D01*
X436915Y420681D01*
X437013Y420610D01*
X437122Y420517D01*
X437231Y420408D01*
X437341Y420282D01*
X437433Y420135D01*
X437439Y420129D01*
X437444Y420113D01*
X437455Y420091D01*
X437472Y420064D01*
X437488Y420020D01*
X437504Y419977D01*
X437526Y419922D01*
X437548Y419862D01*
X437570Y419796D01*
X437592Y419726D01*
X437625Y419573D01*
X437652Y419398D01*
X437663Y419218D01*
Y419163D01*
X437657Y419125D01*
X437652Y419076D01*
X437646Y419016D01*
X437641Y418956D01*
X437625Y418885D01*
X437592Y418737D01*
X437543Y418573D01*
X437510Y418492D01*
X437472Y418415D01*
X437423Y418339D01*
X437373Y418262D01*
X437368Y418257D01*
X437362Y418246D01*
X437346Y418224D01*
X437319Y418197D01*
X437291Y418169D01*
X437253Y418131D01*
X437210Y418093D01*
X437166Y418049D01*
X437111Y418006D01*
X437046Y417962D01*
X436980Y417913D01*
X436909Y417869D01*
X436827Y417831D01*
X436746Y417787D01*
X436658Y417754D01*
X436560Y417722D01*
X436445Y418213D01*
X436451D01*
X436461Y418219D01*
X436483Y418229D01*
X436511Y418240D01*
X436543Y418251D01*
X436587Y418268D01*
X436674Y418311D01*
X436773Y418366D01*
X436871Y418431D01*
X436964Y418513D01*
X437046Y418601D01*
X437057Y418612D01*
X437079Y418644D01*
X437106Y418699D01*
X437144Y418770D01*
X437177Y418863D01*
X437210Y418966D01*
X437231Y419092D01*
X437237Y419229D01*
Y419272D01*
X437231Y419300D01*
Y419338D01*
X437226Y419382D01*
X437210Y419485D01*
X437188Y419600D01*
X437149Y419720D01*
X437095Y419846D01*
X437024Y419960D01*
Y419966D01*
X437013Y419971D01*
X436986Y420009D01*
X436942Y420058D01*
X436876Y420119D01*
X436795Y420190D01*
X436702Y420255D01*
X436587Y420315D01*
X436461Y420370D01*
X436456D01*
X436445Y420375D01*
X436429Y420381D01*
X436402Y420386D01*
X436369Y420397D01*
X436331Y420408D01*
X436238Y420424D01*
X436129Y420446D01*
X436008Y420468D01*
X435877Y420479D01*
X435735Y420484D01*
X435730D01*
X435713D01*
X435686D01*
X435653D01*
X435615Y420479D01*
X435566D01*
X435511Y420473D01*
X435451Y420468D01*
X435320Y420452D01*
X435178Y420424D01*
X435037Y420392D01*
X434895Y420348D01*
X434889D01*
X434878Y420342D01*
X434862Y420331D01*
X434834Y420321D01*
X434769Y420288D01*
X434692Y420239D01*
X434605Y420179D01*
X434512Y420102D01*
X434430Y420015D01*
X434354Y419911D01*
Y419906D01*
X434348Y419895D01*
X434338Y419878D01*
X434327Y419857D01*
X434316Y419829D01*
X434299Y419796D01*
X434267Y419720D01*
X434234Y419622D01*
X434207Y419513D01*
X434185Y419392D01*
X434179Y419267D01*
Y419229D01*
X434185Y419196D01*
Y419158D01*
X434190Y419119D01*
X434212Y419021D01*
X434239Y418906D01*
X434283Y418792D01*
X434343Y418672D01*
X434376Y418612D01*
X434419Y418557D01*
X434425Y418552D01*
X434430Y418546D01*
X434447Y418530D01*
X434463Y418508D01*
X434490Y418486D01*
X434523Y418459D01*
X434556Y418426D01*
X434600Y418399D01*
X434649Y418366D01*
X434703Y418328D01*
X434758Y418295D01*
X434824Y418262D01*
X434895Y418235D01*
X434971Y418208D01*
X435053Y418180D01*
X435140Y418158D01*
X435015Y417656D01*
X435009D01*
X434987Y417662D01*
X434955Y417672D01*
X434911Y417689D01*
X434862Y417705D01*
X434802Y417727D01*
X434736Y417754D01*
X434665Y417787D01*
X434512Y417864D01*
X434359Y417962D01*
X434283Y418022D01*
X434207Y418082D01*
X434141Y418148D01*
X434075Y418224D01*
X434070Y418229D01*
X434059Y418240D01*
X434048Y418268D01*
X434026Y418295D01*
X433999Y418339D01*
X433972Y418382D01*
X433945Y418442D01*
X433917Y418502D01*
X433884Y418573D01*
X433857Y418650D01*
X433830Y418732D01*
X433803Y418819D01*
X433781Y418912D01*
X433770Y419010D01*
X433759Y419114D01*
X433753Y419223D01*
Y419283D01*
X433759Y419327D01*
Y419376D01*
X433764Y419436D01*
X433775Y419502D01*
X433786Y419578D01*
X433813Y419736D01*
X433857Y419900D01*
X433917Y420064D01*
X433955Y420140D01*
X433999Y420217D01*
X434004Y420222D01*
X434010Y420233D01*
X434026Y420255D01*
X434048Y420277D01*
X434070Y420310D01*
X434103Y420348D01*
X434141Y420392D01*
X434185Y420435D01*
X434234Y420479D01*
X434283Y420528D01*
X434409Y420626D01*
X434556Y420719D01*
X434720Y420801D01*
X434725D01*
X434742Y420812D01*
X434769Y420818D01*
X434802Y420834D01*
X434845Y420845D01*
X434900Y420861D01*
X434960Y420883D01*
X435026Y420899D01*
X435097Y420916D01*
X435178Y420938D01*
X435348Y420965D01*
X435539Y420987D01*
X435735Y420998D01*
X435741D01*
X435763D01*
X435795D01*
X435834Y420992D01*
D02*
G37*
G36*
X437597Y416520D02*
X436047D01*
Y414566D01*
X437597D01*
Y414063D01*
X433819D01*
Y414566D01*
X435599D01*
Y416520D01*
X433819D01*
Y417023D01*
X437597D01*
Y416520D01*
D02*
G37*
G36*
Y412644D02*
X433819D01*
Y413146D01*
X437597D01*
Y412644D01*
D02*
G37*
G36*
Y411251D02*
X434627Y409270D01*
X437597D01*
Y408789D01*
X433819D01*
Y409308D01*
X436784Y411284D01*
X433819D01*
Y411765D01*
X437597D01*
Y411251D01*
D02*
G37*
G36*
Y405207D02*
X437149D01*
Y407441D01*
X435997D01*
Y405349D01*
X435550D01*
Y407441D01*
X434267D01*
Y405120D01*
X433819D01*
Y407943D01*
X437597D01*
Y405207D01*
D02*
G37*
G36*
Y402226D02*
X434916Y401331D01*
X434911D01*
X434900Y401325D01*
X434884Y401320D01*
X434856Y401309D01*
X434791Y401287D01*
X434709Y401260D01*
X434616Y401232D01*
X434523Y401200D01*
X434436Y401172D01*
X434359Y401151D01*
X434370Y401145D01*
X434398Y401140D01*
X434447Y401123D01*
X434512Y401101D01*
X434600Y401074D01*
X434703Y401036D01*
X434824Y400998D01*
X434966Y400948D01*
X437597Y400042D01*
Y399371D01*
X433819D01*
Y399851D01*
X436980D01*
X433819Y400954D01*
Y401402D01*
X437035Y402494D01*
X433819D01*
Y402974D01*
X437597D01*
Y402226D01*
D02*
G37*
G36*
Y398349D02*
X436451Y397607D01*
X436445D01*
X436434Y397596D01*
X436418Y397585D01*
X436396Y397574D01*
X436369Y397552D01*
X436336Y397531D01*
X436254Y397481D01*
X436156Y397421D01*
X436047Y397356D01*
X435932Y397285D01*
X435812Y397219D01*
X435817D01*
X435828Y397214D01*
X435845Y397203D01*
X435866Y397187D01*
X435894Y397170D01*
X435926Y397148D01*
X436008Y397099D01*
X436107Y397039D01*
X436221Y396968D01*
X436347Y396886D01*
X436483Y396799D01*
X437597Y396073D01*
Y395489D01*
X435419Y396995D01*
X433819D01*
Y397498D01*
X435419D01*
X437597Y398956D01*
Y398349D01*
D02*
G37*
G36*
X435075Y393266D02*
X435069D01*
X435064D01*
X435047Y393261D01*
X435026D01*
X434976Y393250D01*
X434905Y393233D01*
X434834Y393212D01*
X434753Y393190D01*
X434676Y393152D01*
X434605Y393113D01*
X434600Y393108D01*
X434578Y393092D01*
X434540Y393064D01*
X434501Y393021D01*
X434452Y392966D01*
X434403Y392906D01*
X434354Y392824D01*
X434310Y392737D01*
Y392731D01*
X434305Y392726D01*
X434299Y392709D01*
X434294Y392693D01*
X434277Y392638D01*
X434256Y392567D01*
X434234Y392480D01*
X434218Y392382D01*
X434207Y392273D01*
X434201Y392152D01*
Y392103D01*
X434207Y392049D01*
X434212Y391983D01*
X434223Y391907D01*
X434234Y391819D01*
X434256Y391732D01*
X434283Y391650D01*
X434289Y391639D01*
X434299Y391612D01*
X434321Y391574D01*
X434343Y391525D01*
X434381Y391475D01*
X434419Y391421D01*
X434463Y391366D01*
X434518Y391322D01*
X434523Y391317D01*
X434545Y391306D01*
X434572Y391290D01*
X434616Y391268D01*
X434660Y391246D01*
X434714Y391230D01*
X434774Y391219D01*
X434840Y391213D01*
X434845D01*
X434873D01*
X434905Y391219D01*
X434949Y391224D01*
X434993Y391241D01*
X435047Y391257D01*
X435102Y391284D01*
X435151Y391322D01*
X435157Y391328D01*
X435173Y391344D01*
X435195Y391366D01*
X435228Y391404D01*
X435260Y391448D01*
X435299Y391508D01*
X435337Y391579D01*
X435369Y391661D01*
X435375Y391667D01*
X435381Y391694D01*
X435397Y391738D01*
X435402Y391765D01*
X435413Y391803D01*
X435430Y391841D01*
X435440Y391890D01*
X435457Y391945D01*
X435473Y392010D01*
X435490Y392076D01*
X435511Y392152D01*
X435533Y392240D01*
X435555Y392333D01*
Y392338D01*
X435561Y392354D01*
X435566Y392382D01*
X435577Y392414D01*
X435588Y392458D01*
X435599Y392507D01*
X435632Y392617D01*
X435670Y392737D01*
X435708Y392862D01*
X435746Y392971D01*
X435768Y393021D01*
X435790Y393064D01*
Y393070D01*
X435795Y393075D01*
X435817Y393108D01*
X435845Y393157D01*
X435888Y393212D01*
X435937Y393277D01*
X435997Y393343D01*
X436068Y393408D01*
X436145Y393463D01*
X436156Y393468D01*
X436183Y393485D01*
X436227Y393507D01*
X436281Y393528D01*
X436352Y393550D01*
X436434Y393572D01*
X436522Y393588D01*
X436614Y393594D01*
X436620D01*
X436625D01*
X436642D01*
X436664D01*
X436718Y393583D01*
X436789Y393572D01*
X436871Y393556D01*
X436964Y393528D01*
X437057Y393490D01*
X437149Y393436D01*
X437155D01*
X437160Y393430D01*
X437193Y393403D01*
X437237Y393365D01*
X437291Y393315D01*
X437352Y393250D01*
X437417Y393168D01*
X437477Y393070D01*
X437532Y392961D01*
Y392955D01*
X437537Y392944D01*
X437543Y392928D01*
X437554Y392906D01*
X437565Y392879D01*
X437575Y392840D01*
X437597Y392758D01*
X437619Y392655D01*
X437641Y392535D01*
X437657Y392409D01*
X437663Y392267D01*
Y392196D01*
X437657Y392158D01*
Y392120D01*
X437646Y392016D01*
X437630Y391901D01*
X437603Y391781D01*
X437570Y391650D01*
X437526Y391530D01*
Y391525D01*
X437521Y391514D01*
X437510Y391497D01*
X437499Y391475D01*
X437472Y391421D01*
X437423Y391350D01*
X437368Y391268D01*
X437297Y391186D01*
X437215Y391110D01*
X437122Y391039D01*
X437117D01*
X437111Y391033D01*
X437095Y391022D01*
X437079Y391011D01*
X437024Y390984D01*
X436953Y390951D01*
X436866Y390913D01*
X436762Y390886D01*
X436653Y390858D01*
X436532Y390847D01*
X436494Y391328D01*
X436500D01*
X436511D01*
X436527Y391333D01*
X436554Y391339D01*
X436614Y391355D01*
X436696Y391377D01*
X436784Y391410D01*
X436871Y391459D01*
X436953Y391519D01*
X437029Y391596D01*
X437035Y391606D01*
X437057Y391634D01*
X437089Y391688D01*
X437122Y391759D01*
X437155Y391852D01*
X437188Y391961D01*
X437210Y392098D01*
X437215Y392251D01*
Y392327D01*
X437210Y392360D01*
X437204Y392404D01*
X437193Y392502D01*
X437171Y392611D01*
X437144Y392720D01*
X437100Y392824D01*
X437073Y392868D01*
X437046Y392911D01*
X437040Y392922D01*
X437018Y392944D01*
X436980Y392977D01*
X436937Y393010D01*
X436876Y393048D01*
X436811Y393081D01*
X436734Y393103D01*
X436647Y393113D01*
X436636D01*
X436614D01*
X436576Y393108D01*
X436532Y393097D01*
X436478Y393081D01*
X436423Y393053D01*
X436369Y393021D01*
X436314Y392971D01*
X436309Y392966D01*
X436292Y392939D01*
X436276Y392917D01*
X436265Y392895D01*
X436249Y392862D01*
X436227Y392824D01*
X436210Y392775D01*
X436189Y392720D01*
X436167Y392660D01*
X436139Y392589D01*
X436118Y392513D01*
X436090Y392425D01*
X436068Y392327D01*
X436041Y392218D01*
Y392213D01*
X436036Y392191D01*
X436030Y392158D01*
X436019Y392120D01*
X436008Y392071D01*
X435992Y392010D01*
X435976Y391950D01*
X435959Y391885D01*
X435921Y391743D01*
X435883Y391606D01*
X435861Y391541D01*
X435839Y391481D01*
X435823Y391426D01*
X435801Y391383D01*
Y391377D01*
X435795Y391366D01*
X435784Y391350D01*
X435774Y391328D01*
X435741Y391268D01*
X435697Y391197D01*
X435637Y391115D01*
X435572Y391033D01*
X435495Y390957D01*
X435413Y390891D01*
X435402Y390886D01*
X435375Y390864D01*
X435326Y390842D01*
X435260Y390809D01*
X435184Y390782D01*
X435091Y390755D01*
X434987Y390738D01*
X434878Y390733D01*
X434873D01*
X434867D01*
X434851D01*
X434829D01*
X434769Y390744D01*
X434692Y390755D01*
X434605Y390776D01*
X434512Y390804D01*
X434414Y390847D01*
X434310Y390908D01*
X434305D01*
X434299Y390913D01*
X434267Y390940D01*
X434218Y390979D01*
X434163Y391033D01*
X434097Y391104D01*
X434026Y391192D01*
X433961Y391290D01*
X433901Y391404D01*
Y391410D01*
X433895Y391421D01*
X433890Y391437D01*
X433879Y391459D01*
X433868Y391492D01*
X433852Y391530D01*
X433830Y391617D01*
X433803Y391721D01*
X433775Y391847D01*
X433759Y391983D01*
X433753Y392131D01*
Y392218D01*
X433759Y392262D01*
Y392311D01*
X433764Y392365D01*
X433770Y392431D01*
X433792Y392567D01*
X433813Y392709D01*
X433852Y392851D01*
X433901Y392988D01*
Y392993D01*
X433906Y393004D01*
X433917Y393021D01*
X433928Y393042D01*
X433961Y393108D01*
X434010Y393184D01*
X434075Y393272D01*
X434152Y393365D01*
X434245Y393452D01*
X434348Y393534D01*
X434354D01*
X434365Y393545D01*
X434381Y393550D01*
X434403Y393567D01*
X434430Y393578D01*
X434463Y393594D01*
X434545Y393632D01*
X434649Y393670D01*
X434763Y393703D01*
X434895Y393725D01*
X435031Y393736D01*
X435075Y393266D01*
D02*
G37*
G36*
X437597Y387337D02*
X437149D01*
Y388582D01*
X433819D01*
Y389084D01*
X437149D01*
Y390329D01*
X437597D01*
Y387337D01*
D02*
G37*
G36*
Y384077D02*
X437149D01*
Y386310D01*
X435997D01*
Y384219D01*
X435550D01*
Y386310D01*
X434267D01*
Y383990D01*
X433819D01*
Y386813D01*
X437597D01*
Y384077D01*
D02*
G37*
G36*
Y382788D02*
X434627Y380807D01*
X437597D01*
Y380326D01*
X433819D01*
Y380845D01*
X436784Y382821D01*
X433819D01*
Y383302D01*
X437597D01*
Y382788D01*
D02*
G37*
G36*
X435834Y379627D02*
X435888D01*
X435943Y379622D01*
X436014Y379616D01*
X436085Y379605D01*
X436243Y379578D01*
X436418Y379540D01*
X436593Y379485D01*
X436762Y379409D01*
X436767Y379403D01*
X436784Y379398D01*
X436805Y379387D01*
X436833Y379365D01*
X436871Y379343D01*
X436915Y379316D01*
X437013Y379245D01*
X437122Y379152D01*
X437231Y379043D01*
X437341Y378917D01*
X437433Y378770D01*
X437439Y378765D01*
X437444Y378748D01*
X437455Y378726D01*
X437472Y378699D01*
X437488Y378655D01*
X437504Y378612D01*
X437526Y378557D01*
X437548Y378497D01*
X437570Y378432D01*
X437592Y378361D01*
X437625Y378208D01*
X437652Y378033D01*
X437663Y377853D01*
Y377798D01*
X437657Y377760D01*
X437652Y377711D01*
X437646Y377651D01*
X437641Y377591D01*
X437625Y377520D01*
X437592Y377372D01*
X437543Y377208D01*
X437510Y377127D01*
X437472Y377050D01*
X437423Y376974D01*
X437373Y376897D01*
X437368Y376892D01*
X437362Y376881D01*
X437346Y376859D01*
X437319Y376832D01*
X437291Y376804D01*
X437253Y376766D01*
X437210Y376728D01*
X437166Y376684D01*
X437111Y376641D01*
X437046Y376597D01*
X436980Y376548D01*
X436909Y376504D01*
X436827Y376466D01*
X436746Y376422D01*
X436658Y376389D01*
X436560Y376357D01*
X436445Y376848D01*
X436451D01*
X436461Y376853D01*
X436483Y376864D01*
X436511Y376875D01*
X436543Y376886D01*
X436587Y376903D01*
X436674Y376946D01*
X436773Y377001D01*
X436871Y377066D01*
X436964Y377148D01*
X437046Y377236D01*
X437057Y377247D01*
X437079Y377279D01*
X437106Y377334D01*
X437144Y377405D01*
X437177Y377498D01*
X437210Y377602D01*
X437231Y377727D01*
X437237Y377864D01*
Y377907D01*
X437231Y377935D01*
Y377973D01*
X437226Y378016D01*
X437210Y378120D01*
X437188Y378235D01*
X437149Y378355D01*
X437095Y378481D01*
X437024Y378595D01*
Y378601D01*
X437013Y378606D01*
X436986Y378644D01*
X436942Y378694D01*
X436876Y378754D01*
X436795Y378825D01*
X436702Y378890D01*
X436587Y378950D01*
X436461Y379005D01*
X436456D01*
X436445Y379010D01*
X436429Y379016D01*
X436402Y379021D01*
X436369Y379032D01*
X436331Y379043D01*
X436238Y379059D01*
X436129Y379081D01*
X436008Y379103D01*
X435877Y379114D01*
X435735Y379119D01*
X435730D01*
X435713D01*
X435686D01*
X435653D01*
X435615Y379114D01*
X435566D01*
X435511Y379109D01*
X435451Y379103D01*
X435320Y379087D01*
X435178Y379059D01*
X435037Y379027D01*
X434895Y378983D01*
X434889D01*
X434878Y378977D01*
X434862Y378967D01*
X434834Y378956D01*
X434769Y378923D01*
X434692Y378874D01*
X434605Y378814D01*
X434512Y378737D01*
X434430Y378650D01*
X434354Y378546D01*
Y378541D01*
X434348Y378530D01*
X434338Y378513D01*
X434327Y378491D01*
X434316Y378464D01*
X434299Y378432D01*
X434267Y378355D01*
X434234Y378257D01*
X434207Y378148D01*
X434185Y378027D01*
X434179Y377902D01*
Y377864D01*
X434185Y377831D01*
Y377793D01*
X434190Y377754D01*
X434212Y377656D01*
X434239Y377541D01*
X434283Y377427D01*
X434343Y377307D01*
X434376Y377247D01*
X434419Y377192D01*
X434425Y377187D01*
X434430Y377181D01*
X434447Y377165D01*
X434463Y377143D01*
X434490Y377121D01*
X434523Y377094D01*
X434556Y377061D01*
X434600Y377034D01*
X434649Y377001D01*
X434703Y376963D01*
X434758Y376930D01*
X434824Y376897D01*
X434895Y376870D01*
X434971Y376843D01*
X435053Y376815D01*
X435140Y376794D01*
X435015Y376291D01*
X435009D01*
X434987Y376297D01*
X434955Y376308D01*
X434911Y376324D01*
X434862Y376340D01*
X434802Y376362D01*
X434736Y376389D01*
X434665Y376422D01*
X434512Y376499D01*
X434359Y376597D01*
X434283Y376657D01*
X434207Y376717D01*
X434141Y376782D01*
X434075Y376859D01*
X434070Y376864D01*
X434059Y376875D01*
X434048Y376903D01*
X434026Y376930D01*
X433999Y376974D01*
X433972Y377017D01*
X433945Y377077D01*
X433917Y377137D01*
X433884Y377208D01*
X433857Y377285D01*
X433830Y377367D01*
X433803Y377454D01*
X433781Y377547D01*
X433770Y377645D01*
X433759Y377749D01*
X433753Y377858D01*
Y377918D01*
X433759Y377962D01*
Y378011D01*
X433764Y378071D01*
X433775Y378137D01*
X433786Y378213D01*
X433813Y378371D01*
X433857Y378535D01*
X433917Y378699D01*
X433955Y378776D01*
X433999Y378852D01*
X434004Y378857D01*
X434010Y378868D01*
X434026Y378890D01*
X434048Y378912D01*
X434070Y378945D01*
X434103Y378983D01*
X434141Y379027D01*
X434185Y379070D01*
X434234Y379114D01*
X434283Y379163D01*
X434409Y379261D01*
X434556Y379354D01*
X434720Y379436D01*
X434725D01*
X434742Y379447D01*
X434769Y379452D01*
X434802Y379469D01*
X434845Y379480D01*
X434900Y379496D01*
X434960Y379518D01*
X435026Y379534D01*
X435097Y379551D01*
X435178Y379573D01*
X435348Y379600D01*
X435539Y379622D01*
X435735Y379633D01*
X435741D01*
X435763D01*
X435795D01*
X435834Y379627D01*
D02*
G37*
G36*
X437597Y375090D02*
X433819D01*
Y375592D01*
X437597D01*
Y375090D01*
D02*
G37*
G36*
Y373725D02*
X434267D01*
Y371863D01*
X433819D01*
Y374227D01*
X437597D01*
Y373725D01*
D02*
G37*
G36*
X433273Y371235D02*
X433278Y371219D01*
X433295Y371192D01*
X433317Y371159D01*
X433344Y371126D01*
X433377Y371088D01*
X433415Y371055D01*
X433459Y371028D01*
X433464Y371022D01*
X433480Y371017D01*
X433513Y371006D01*
X433551Y370989D01*
X433601Y370979D01*
X433666Y370962D01*
X433737Y370951D01*
X433819Y370946D01*
Y371208D01*
X434348D01*
Y370678D01*
X433819D01*
X433813D01*
X433808D01*
X433792D01*
X433770D01*
X433721Y370684D01*
X433650Y370689D01*
X433579Y370706D01*
X433497Y370722D01*
X433420Y370749D01*
X433349Y370782D01*
X433344Y370788D01*
X433322Y370804D01*
X433289Y370826D01*
X433246Y370864D01*
X433202Y370908D01*
X433158Y370962D01*
X433109Y371033D01*
X433071Y371110D01*
X433267Y371241D01*
X433273Y371235D01*
D02*
G37*
G36*
X437597Y365622D02*
X437149D01*
Y366867D01*
X433819D01*
Y367370D01*
X437149D01*
Y368614D01*
X437597D01*
Y365622D01*
D02*
G37*
G36*
Y364585D02*
X436047D01*
Y362630D01*
X437597D01*
Y362128D01*
X433819D01*
Y362630D01*
X435599D01*
Y364585D01*
X433819D01*
Y365087D01*
X437597D01*
Y364585D01*
D02*
G37*
G36*
Y360708D02*
X433819D01*
Y361211D01*
X437597D01*
Y360708D01*
D02*
G37*
G36*
X435075Y359524D02*
X435069D01*
X435064D01*
X435047Y359518D01*
X435026D01*
X434976Y359507D01*
X434905Y359491D01*
X434834Y359469D01*
X434753Y359447D01*
X434676Y359409D01*
X434605Y359371D01*
X434600Y359365D01*
X434578Y359349D01*
X434540Y359321D01*
X434501Y359278D01*
X434452Y359223D01*
X434403Y359163D01*
X434354Y359081D01*
X434310Y358994D01*
Y358988D01*
X434305Y358983D01*
X434299Y358967D01*
X434294Y358950D01*
X434277Y358896D01*
X434256Y358825D01*
X434234Y358737D01*
X434218Y358639D01*
X434207Y358530D01*
X434201Y358410D01*
Y358361D01*
X434207Y358306D01*
X434212Y358240D01*
X434223Y358164D01*
X434234Y358077D01*
X434256Y357989D01*
X434283Y357907D01*
X434289Y357896D01*
X434299Y357869D01*
X434321Y357831D01*
X434343Y357782D01*
X434381Y357733D01*
X434419Y357678D01*
X434463Y357623D01*
X434518Y357580D01*
X434523Y357574D01*
X434545Y357563D01*
X434572Y357547D01*
X434616Y357525D01*
X434660Y357503D01*
X434714Y357487D01*
X434774Y357476D01*
X434840Y357470D01*
X434845D01*
X434873D01*
X434905Y357476D01*
X434949Y357481D01*
X434993Y357498D01*
X435047Y357514D01*
X435102Y357541D01*
X435151Y357580D01*
X435157Y357585D01*
X435173Y357602D01*
X435195Y357623D01*
X435228Y357662D01*
X435260Y357705D01*
X435299Y357765D01*
X435337Y357836D01*
X435369Y357918D01*
X435375Y357924D01*
X435381Y357951D01*
X435397Y357995D01*
X435402Y358022D01*
X435413Y358060D01*
X435430Y358098D01*
X435440Y358148D01*
X435457Y358202D01*
X435473Y358268D01*
X435490Y358333D01*
X435511Y358410D01*
X435533Y358497D01*
X435555Y358590D01*
Y358595D01*
X435561Y358612D01*
X435566Y358639D01*
X435577Y358672D01*
X435588Y358715D01*
X435599Y358765D01*
X435632Y358874D01*
X435670Y358994D01*
X435708Y359120D01*
X435746Y359229D01*
X435768Y359278D01*
X435790Y359321D01*
Y359327D01*
X435795Y359332D01*
X435817Y359365D01*
X435845Y359414D01*
X435888Y359469D01*
X435937Y359534D01*
X435997Y359600D01*
X436068Y359665D01*
X436145Y359720D01*
X436156Y359725D01*
X436183Y359742D01*
X436227Y359764D01*
X436281Y359786D01*
X436352Y359807D01*
X436434Y359829D01*
X436522Y359846D01*
X436614Y359851D01*
X436620D01*
X436625D01*
X436642D01*
X436664D01*
X436718Y359840D01*
X436789Y359829D01*
X436871Y359813D01*
X436964Y359786D01*
X437057Y359747D01*
X437149Y359693D01*
X437155D01*
X437160Y359687D01*
X437193Y359660D01*
X437237Y359622D01*
X437291Y359573D01*
X437352Y359507D01*
X437417Y359425D01*
X437477Y359327D01*
X437532Y359218D01*
Y359212D01*
X437537Y359201D01*
X437543Y359185D01*
X437554Y359163D01*
X437565Y359136D01*
X437575Y359098D01*
X437597Y359016D01*
X437619Y358912D01*
X437641Y358792D01*
X437657Y358666D01*
X437663Y358524D01*
Y358453D01*
X437657Y358415D01*
Y358377D01*
X437646Y358273D01*
X437630Y358158D01*
X437603Y358038D01*
X437570Y357907D01*
X437526Y357787D01*
Y357782D01*
X437521Y357771D01*
X437510Y357754D01*
X437499Y357733D01*
X437472Y357678D01*
X437423Y357607D01*
X437368Y357525D01*
X437297Y357443D01*
X437215Y357367D01*
X437122Y357296D01*
X437117D01*
X437111Y357290D01*
X437095Y357279D01*
X437079Y357269D01*
X437024Y357241D01*
X436953Y357208D01*
X436866Y357170D01*
X436762Y357143D01*
X436653Y357116D01*
X436532Y357105D01*
X436494Y357585D01*
X436500D01*
X436511D01*
X436527Y357591D01*
X436554Y357596D01*
X436614Y357612D01*
X436696Y357634D01*
X436784Y357667D01*
X436871Y357716D01*
X436953Y357776D01*
X437029Y357853D01*
X437035Y357864D01*
X437057Y357891D01*
X437089Y357946D01*
X437122Y358016D01*
X437155Y358109D01*
X437188Y358219D01*
X437210Y358355D01*
X437215Y358508D01*
Y358584D01*
X437210Y358617D01*
X437204Y358661D01*
X437193Y358759D01*
X437171Y358868D01*
X437144Y358978D01*
X437100Y359081D01*
X437073Y359125D01*
X437046Y359169D01*
X437040Y359179D01*
X437018Y359201D01*
X436980Y359234D01*
X436937Y359267D01*
X436876Y359305D01*
X436811Y359338D01*
X436734Y359360D01*
X436647Y359371D01*
X436636D01*
X436614D01*
X436576Y359365D01*
X436532Y359354D01*
X436478Y359338D01*
X436423Y359311D01*
X436369Y359278D01*
X436314Y359229D01*
X436309Y359223D01*
X436292Y359196D01*
X436276Y359174D01*
X436265Y359152D01*
X436249Y359120D01*
X436227Y359081D01*
X436210Y359032D01*
X436189Y358978D01*
X436167Y358917D01*
X436139Y358846D01*
X436118Y358770D01*
X436090Y358683D01*
X436068Y358584D01*
X436041Y358475D01*
Y358470D01*
X436036Y358448D01*
X436030Y358415D01*
X436019Y358377D01*
X436008Y358328D01*
X435992Y358268D01*
X435976Y358208D01*
X435959Y358142D01*
X435921Y358000D01*
X435883Y357864D01*
X435861Y357798D01*
X435839Y357738D01*
X435823Y357683D01*
X435801Y357640D01*
Y357634D01*
X435795Y357623D01*
X435784Y357607D01*
X435774Y357585D01*
X435741Y357525D01*
X435697Y357454D01*
X435637Y357372D01*
X435572Y357290D01*
X435495Y357214D01*
X435413Y357148D01*
X435402Y357143D01*
X435375Y357121D01*
X435326Y357099D01*
X435260Y357066D01*
X435184Y357039D01*
X435091Y357012D01*
X434987Y356996D01*
X434878Y356990D01*
X434873D01*
X434867D01*
X434851D01*
X434829D01*
X434769Y357001D01*
X434692Y357012D01*
X434605Y357034D01*
X434512Y357061D01*
X434414Y357105D01*
X434310Y357165D01*
X434305D01*
X434299Y357170D01*
X434267Y357197D01*
X434218Y357236D01*
X434163Y357290D01*
X434097Y357361D01*
X434026Y357449D01*
X433961Y357547D01*
X433901Y357662D01*
Y357667D01*
X433895Y357678D01*
X433890Y357694D01*
X433879Y357716D01*
X433868Y357749D01*
X433852Y357787D01*
X433830Y357875D01*
X433803Y357978D01*
X433775Y358104D01*
X433759Y358240D01*
X433753Y358388D01*
Y358475D01*
X433759Y358519D01*
Y358568D01*
X433764Y358623D01*
X433770Y358688D01*
X433792Y358825D01*
X433813Y358967D01*
X433852Y359108D01*
X433901Y359245D01*
Y359250D01*
X433906Y359261D01*
X433917Y359278D01*
X433928Y359300D01*
X433961Y359365D01*
X434010Y359442D01*
X434075Y359529D01*
X434152Y359622D01*
X434245Y359709D01*
X434348Y359791D01*
X434354D01*
X434365Y359802D01*
X434381Y359807D01*
X434403Y359824D01*
X434430Y359835D01*
X434463Y359851D01*
X434545Y359889D01*
X434649Y359928D01*
X434763Y359960D01*
X434895Y359982D01*
X435031Y359993D01*
X435075Y359524D01*
D02*
G37*
G36*
X437597Y353370D02*
X437592Y353332D01*
Y353288D01*
X437581Y353190D01*
X437570Y353081D01*
X437548Y352966D01*
X437521Y352851D01*
X437483Y352748D01*
Y352742D01*
X437477Y352737D01*
X437461Y352704D01*
X437433Y352655D01*
X437395Y352600D01*
X437346Y352535D01*
X437286Y352464D01*
X437210Y352398D01*
X437128Y352338D01*
X437117Y352333D01*
X437084Y352316D01*
X437040Y352289D01*
X436975Y352262D01*
X436898Y352234D01*
X436816Y352207D01*
X436724Y352191D01*
X436631Y352185D01*
X436620D01*
X436593D01*
X436543Y352191D01*
X436483Y352202D01*
X436412Y352218D01*
X436336Y352245D01*
X436260Y352278D01*
X436178Y352322D01*
X436167Y352327D01*
X436145Y352344D01*
X436101Y352376D01*
X436058Y352420D01*
X436003Y352475D01*
X435943Y352540D01*
X435888Y352622D01*
X435834Y352715D01*
Y352709D01*
X435828Y352698D01*
X435823Y352682D01*
X435812Y352660D01*
X435790Y352595D01*
X435752Y352518D01*
X435703Y352436D01*
X435642Y352344D01*
X435572Y352262D01*
X435484Y352185D01*
X435473Y352180D01*
X435440Y352158D01*
X435391Y352125D01*
X435326Y352092D01*
X435239Y352060D01*
X435146Y352027D01*
X435037Y352005D01*
X434916Y352000D01*
X434911D01*
X434905D01*
X434873D01*
X434818Y352005D01*
X434753Y352016D01*
X434676Y352027D01*
X434594Y352049D01*
X434507Y352076D01*
X434419Y352114D01*
X434409Y352120D01*
X434381Y352136D01*
X434343Y352158D01*
X434289Y352191D01*
X434234Y352234D01*
X434174Y352278D01*
X434114Y352333D01*
X434065Y352393D01*
X434059Y352398D01*
X434043Y352420D01*
X434021Y352458D01*
X433999Y352507D01*
X433966Y352568D01*
X433934Y352638D01*
X433906Y352715D01*
X433879Y352808D01*
Y352819D01*
X433868Y352851D01*
X433863Y352906D01*
X433852Y352977D01*
X433841Y353064D01*
X433830Y353168D01*
X433824Y353283D01*
X433819Y353414D01*
Y354855D01*
X437597D01*
Y353370D01*
D02*
G37*
G36*
X435746Y351459D02*
X435812D01*
X435888Y351448D01*
X435981Y351437D01*
X436085Y351421D01*
X436194Y351399D01*
X436309Y351377D01*
X436429Y351344D01*
X436549Y351301D01*
X436674Y351252D01*
X436795Y351197D01*
X436915Y351126D01*
X437024Y351050D01*
X437128Y350962D01*
X437133Y350957D01*
X437149Y350940D01*
X437177Y350908D01*
X437210Y350869D01*
X437253Y350820D01*
X437297Y350760D01*
X437346Y350689D01*
X437395Y350607D01*
X437444Y350520D01*
X437494Y350422D01*
X437537Y350312D01*
X437581Y350198D01*
X437614Y350072D01*
X437641Y349941D01*
X437657Y349805D01*
X437663Y349657D01*
Y349608D01*
X437657Y349570D01*
Y349521D01*
X437652Y349472D01*
X437641Y349406D01*
X437630Y349341D01*
X437603Y349199D01*
X437559Y349035D01*
X437494Y348877D01*
X437455Y348795D01*
X437412Y348713D01*
X437406Y348707D01*
X437401Y348696D01*
X437384Y348675D01*
X437368Y348642D01*
X437341Y348609D01*
X437308Y348565D01*
X437231Y348472D01*
X437133Y348374D01*
X437013Y348265D01*
X436871Y348161D01*
X436713Y348074D01*
X436707D01*
X436691Y348063D01*
X436669Y348052D01*
X436636Y348041D01*
X436593Y348019D01*
X436543Y348003D01*
X436483Y347981D01*
X436418Y347959D01*
X436347Y347943D01*
X436270Y347921D01*
X436183Y347899D01*
X436096Y347883D01*
X435905Y347861D01*
X435697Y347850D01*
X435692D01*
X435670D01*
X435642D01*
X435599Y347855D01*
X435550D01*
X435490Y347861D01*
X435424Y347872D01*
X435353Y347877D01*
X435195Y347905D01*
X435020Y347948D01*
X434845Y348008D01*
X434758Y348041D01*
X434671Y348085D01*
X434665D01*
X434649Y348096D01*
X434627Y348107D01*
X434594Y348129D01*
X434556Y348150D01*
X434518Y348178D01*
X434414Y348254D01*
X434305Y348347D01*
X434190Y348456D01*
X434081Y348587D01*
X433983Y348740D01*
Y348745D01*
X433972Y348756D01*
X433961Y348784D01*
X433945Y348816D01*
X433928Y348855D01*
X433912Y348898D01*
X433890Y348953D01*
X433868Y349013D01*
X433846Y349078D01*
X433824Y349149D01*
X433792Y349308D01*
X433764Y349477D01*
X433753Y349657D01*
Y349712D01*
X433759Y349745D01*
Y349794D01*
X433770Y349848D01*
X433775Y349908D01*
X433786Y349979D01*
X433819Y350127D01*
X433863Y350285D01*
X433928Y350449D01*
X433966Y350531D01*
X434010Y350613D01*
X434016Y350618D01*
X434021Y350629D01*
X434037Y350651D01*
X434059Y350684D01*
X434081Y350716D01*
X434114Y350755D01*
X434196Y350848D01*
X434294Y350951D01*
X434414Y351061D01*
X434551Y351159D01*
X434709Y351252D01*
X434714D01*
X434731Y351262D01*
X434753Y351273D01*
X434785Y351284D01*
X434829Y351301D01*
X434878Y351317D01*
X434933Y351339D01*
X434993Y351355D01*
X435064Y351377D01*
X435135Y351399D01*
X435299Y351432D01*
X435468Y351454D01*
X435653Y351465D01*
X435659D01*
X435664D01*
X435697D01*
X435746Y351459D01*
D02*
G37*
G36*
X437597Y346179D02*
Y345633D01*
X433819Y344088D01*
Y344656D01*
X434966Y345098D01*
Y346682D01*
X433819Y347091D01*
Y347621D01*
X437597Y346179D01*
D02*
G37*
G36*
Y341926D02*
X437592Y341882D01*
Y341833D01*
X437586Y341718D01*
X437570Y341598D01*
X437554Y341467D01*
X437526Y341347D01*
X437510Y341287D01*
X437494Y341238D01*
Y341232D01*
X437488Y341227D01*
X437472Y341194D01*
X437450Y341145D01*
X437412Y341085D01*
X437362Y341020D01*
X437297Y340949D01*
X437220Y340883D01*
X437133Y340817D01*
X437128D01*
X437122Y340812D01*
X437089Y340790D01*
X437035Y340768D01*
X436964Y340736D01*
X436882Y340708D01*
X436784Y340681D01*
X436680Y340665D01*
X436565Y340659D01*
X436560D01*
X436549D01*
X436527D01*
X436500Y340665D01*
X436461D01*
X436423Y340670D01*
X436331Y340692D01*
X436221Y340725D01*
X436107Y340768D01*
X435992Y340834D01*
X435937Y340878D01*
X435883Y340921D01*
X435877Y340927D01*
X435872Y340932D01*
X435855Y340949D01*
X435839Y340970D01*
X435817Y340998D01*
X435795Y341031D01*
X435768Y341074D01*
X435735Y341118D01*
X435708Y341172D01*
X435681Y341232D01*
X435648Y341298D01*
X435621Y341369D01*
X435599Y341451D01*
X435572Y341533D01*
X435555Y341626D01*
X435539Y341724D01*
X435533Y341713D01*
X435522Y341691D01*
X435501Y341658D01*
X435479Y341615D01*
X435419Y341516D01*
X435381Y341467D01*
X435348Y341424D01*
X435337Y341413D01*
X435310Y341385D01*
X435266Y341342D01*
X435211Y341287D01*
X435135Y341227D01*
X435053Y341156D01*
X434955Y341085D01*
X434845Y341009D01*
X433819Y340359D01*
Y340981D01*
X434605Y341478D01*
X434611D01*
X434621Y341489D01*
X434638Y341500D01*
X434660Y341516D01*
X434720Y341555D01*
X434796Y341604D01*
X434878Y341664D01*
X434966Y341724D01*
X435047Y341784D01*
X435124Y341839D01*
X435129Y341844D01*
X435151Y341860D01*
X435184Y341888D01*
X435222Y341926D01*
X435304Y342008D01*
X435342Y342052D01*
X435375Y342095D01*
X435381Y342101D01*
X435386Y342111D01*
X435397Y342133D01*
X435413Y342166D01*
X435430Y342199D01*
X435446Y342237D01*
X435473Y342324D01*
Y342330D01*
X435479Y342341D01*
Y342363D01*
X435484Y342390D01*
X435490Y342428D01*
Y342472D01*
X435495Y342532D01*
Y343176D01*
X433819D01*
Y343679D01*
X437597D01*
Y341926D01*
D02*
G37*
G36*
Y338421D02*
X437592Y338322D01*
X437586Y338213D01*
X437575Y338104D01*
X437559Y337995D01*
X437543Y337902D01*
Y337896D01*
X437537Y337885D01*
Y337869D01*
X437526Y337847D01*
X437510Y337787D01*
X437483Y337711D01*
X437444Y337623D01*
X437395Y337531D01*
X437341Y337438D01*
X437270Y337350D01*
X437264Y337345D01*
X437259Y337339D01*
X437242Y337323D01*
X437226Y337301D01*
X437171Y337247D01*
X437095Y337181D01*
X437002Y337110D01*
X436893Y337034D01*
X436767Y336963D01*
X436625Y336903D01*
X436620D01*
X436609Y336897D01*
X436587Y336886D01*
X436554Y336881D01*
X436516Y336864D01*
X436473Y336854D01*
X436423Y336843D01*
X436363Y336826D01*
X436303Y336810D01*
X436232Y336799D01*
X436079Y336772D01*
X435910Y336755D01*
X435724Y336750D01*
X435719D01*
X435708D01*
X435681D01*
X435653D01*
X435615Y336755D01*
X435572D01*
X435468Y336761D01*
X435348Y336777D01*
X435222Y336793D01*
X435091Y336821D01*
X434960Y336854D01*
X434955D01*
X434944Y336859D01*
X434927Y336864D01*
X434905Y336870D01*
X434845Y336892D01*
X434769Y336925D01*
X434682Y336957D01*
X434594Y337001D01*
X434501Y337056D01*
X434414Y337110D01*
X434403Y337116D01*
X434376Y337138D01*
X434338Y337170D01*
X434289Y337214D01*
X434234Y337263D01*
X434179Y337323D01*
X434119Y337383D01*
X434070Y337454D01*
X434065Y337465D01*
X434048Y337487D01*
X434026Y337525D01*
X433999Y337580D01*
X433966Y337645D01*
X433939Y337722D01*
X433906Y337809D01*
X433879Y337907D01*
Y337918D01*
X433874Y337935D01*
X433868Y337951D01*
X433863Y338006D01*
X433852Y338082D01*
X433841Y338169D01*
X433830Y338273D01*
X433824Y338388D01*
X433819Y338513D01*
Y339873D01*
X437597D01*
Y338421D01*
D02*
G37*
G36*
Y334009D02*
X433819D01*
Y334511D01*
X437597D01*
Y334009D01*
D02*
G37*
G36*
X435075Y332824D02*
X435069D01*
X435064D01*
X435047Y332819D01*
X435026D01*
X434976Y332808D01*
X434905Y332791D01*
X434834Y332769D01*
X434753Y332748D01*
X434676Y332709D01*
X434605Y332671D01*
X434600Y332666D01*
X434578Y332649D01*
X434540Y332622D01*
X434501Y332578D01*
X434452Y332524D01*
X434403Y332464D01*
X434354Y332382D01*
X434310Y332295D01*
Y332289D01*
X434305Y332284D01*
X434299Y332267D01*
X434294Y332251D01*
X434277Y332196D01*
X434256Y332125D01*
X434234Y332038D01*
X434218Y331940D01*
X434207Y331830D01*
X434201Y331710D01*
Y331661D01*
X434207Y331607D01*
X434212Y331541D01*
X434223Y331465D01*
X434234Y331377D01*
X434256Y331290D01*
X434283Y331208D01*
X434289Y331197D01*
X434299Y331170D01*
X434321Y331132D01*
X434343Y331082D01*
X434381Y331033D01*
X434419Y330979D01*
X434463Y330924D01*
X434518Y330880D01*
X434523Y330875D01*
X434545Y330864D01*
X434572Y330848D01*
X434616Y330826D01*
X434660Y330804D01*
X434714Y330787D01*
X434774Y330777D01*
X434840Y330771D01*
X434845D01*
X434873D01*
X434905Y330777D01*
X434949Y330782D01*
X434993Y330798D01*
X435047Y330815D01*
X435102Y330842D01*
X435151Y330880D01*
X435157Y330886D01*
X435173Y330902D01*
X435195Y330924D01*
X435228Y330962D01*
X435260Y331006D01*
X435299Y331066D01*
X435337Y331137D01*
X435369Y331219D01*
X435375Y331224D01*
X435381Y331252D01*
X435397Y331295D01*
X435402Y331323D01*
X435413Y331361D01*
X435430Y331399D01*
X435440Y331448D01*
X435457Y331503D01*
X435473Y331568D01*
X435490Y331634D01*
X435511Y331710D01*
X435533Y331798D01*
X435555Y331890D01*
Y331896D01*
X435561Y331912D01*
X435566Y331940D01*
X435577Y331972D01*
X435588Y332016D01*
X435599Y332065D01*
X435632Y332174D01*
X435670Y332295D01*
X435708Y332420D01*
X435746Y332529D01*
X435768Y332578D01*
X435790Y332622D01*
Y332628D01*
X435795Y332633D01*
X435817Y332666D01*
X435845Y332715D01*
X435888Y332769D01*
X435937Y332835D01*
X435997Y332901D01*
X436068Y332966D01*
X436145Y333021D01*
X436156Y333026D01*
X436183Y333043D01*
X436227Y333064D01*
X436281Y333086D01*
X436352Y333108D01*
X436434Y333130D01*
X436522Y333146D01*
X436614Y333152D01*
X436620D01*
X436625D01*
X436642D01*
X436664D01*
X436718Y333141D01*
X436789Y333130D01*
X436871Y333114D01*
X436964Y333086D01*
X437057Y333048D01*
X437149Y332993D01*
X437155D01*
X437160Y332988D01*
X437193Y332961D01*
X437237Y332922D01*
X437291Y332873D01*
X437352Y332808D01*
X437417Y332726D01*
X437477Y332628D01*
X437532Y332518D01*
Y332513D01*
X437537Y332502D01*
X437543Y332486D01*
X437554Y332464D01*
X437565Y332436D01*
X437575Y332398D01*
X437597Y332316D01*
X437619Y332213D01*
X437641Y332092D01*
X437657Y331967D01*
X437663Y331825D01*
Y331754D01*
X437657Y331716D01*
Y331678D01*
X437646Y331574D01*
X437630Y331459D01*
X437603Y331339D01*
X437570Y331208D01*
X437526Y331088D01*
Y331082D01*
X437521Y331071D01*
X437510Y331055D01*
X437499Y331033D01*
X437472Y330979D01*
X437423Y330908D01*
X437368Y330826D01*
X437297Y330744D01*
X437215Y330667D01*
X437122Y330596D01*
X437117D01*
X437111Y330591D01*
X437095Y330580D01*
X437079Y330569D01*
X437024Y330542D01*
X436953Y330509D01*
X436866Y330471D01*
X436762Y330444D01*
X436653Y330416D01*
X436532Y330405D01*
X436494Y330886D01*
X436500D01*
X436511D01*
X436527Y330891D01*
X436554Y330897D01*
X436614Y330913D01*
X436696Y330935D01*
X436784Y330968D01*
X436871Y331017D01*
X436953Y331077D01*
X437029Y331153D01*
X437035Y331164D01*
X437057Y331192D01*
X437089Y331246D01*
X437122Y331317D01*
X437155Y331410D01*
X437188Y331519D01*
X437210Y331656D01*
X437215Y331808D01*
Y331885D01*
X437210Y331918D01*
X437204Y331961D01*
X437193Y332060D01*
X437171Y332169D01*
X437144Y332278D01*
X437100Y332382D01*
X437073Y332425D01*
X437046Y332469D01*
X437040Y332480D01*
X437018Y332502D01*
X436980Y332535D01*
X436937Y332568D01*
X436876Y332606D01*
X436811Y332639D01*
X436734Y332660D01*
X436647Y332671D01*
X436636D01*
X436614D01*
X436576Y332666D01*
X436532Y332655D01*
X436478Y332639D01*
X436423Y332611D01*
X436369Y332578D01*
X436314Y332529D01*
X436309Y332524D01*
X436292Y332497D01*
X436276Y332475D01*
X436265Y332453D01*
X436249Y332420D01*
X436227Y332382D01*
X436210Y332333D01*
X436189Y332278D01*
X436167Y332218D01*
X436139Y332147D01*
X436118Y332071D01*
X436090Y331983D01*
X436068Y331885D01*
X436041Y331776D01*
Y331770D01*
X436036Y331749D01*
X436030Y331716D01*
X436019Y331678D01*
X436008Y331628D01*
X435992Y331568D01*
X435976Y331508D01*
X435959Y331443D01*
X435921Y331301D01*
X435883Y331164D01*
X435861Y331099D01*
X435839Y331039D01*
X435823Y330984D01*
X435801Y330940D01*
Y330935D01*
X435795Y330924D01*
X435784Y330908D01*
X435774Y330886D01*
X435741Y330826D01*
X435697Y330755D01*
X435637Y330673D01*
X435572Y330591D01*
X435495Y330515D01*
X435413Y330449D01*
X435402Y330444D01*
X435375Y330422D01*
X435326Y330400D01*
X435260Y330367D01*
X435184Y330340D01*
X435091Y330312D01*
X434987Y330296D01*
X434878Y330291D01*
X434873D01*
X434867D01*
X434851D01*
X434829D01*
X434769Y330302D01*
X434692Y330312D01*
X434605Y330334D01*
X434512Y330362D01*
X434414Y330405D01*
X434310Y330465D01*
X434305D01*
X434299Y330471D01*
X434267Y330498D01*
X434218Y330536D01*
X434163Y330591D01*
X434097Y330662D01*
X434026Y330749D01*
X433961Y330848D01*
X433901Y330962D01*
Y330968D01*
X433895Y330979D01*
X433890Y330995D01*
X433879Y331017D01*
X433868Y331050D01*
X433852Y331088D01*
X433830Y331175D01*
X433803Y331279D01*
X433775Y331404D01*
X433759Y331541D01*
X433753Y331688D01*
Y331776D01*
X433759Y331820D01*
Y331869D01*
X433764Y331923D01*
X433770Y331989D01*
X433792Y332125D01*
X433813Y332267D01*
X433852Y332409D01*
X433901Y332546D01*
Y332551D01*
X433906Y332562D01*
X433917Y332578D01*
X433928Y332600D01*
X433961Y332666D01*
X434010Y332742D01*
X434075Y332830D01*
X434152Y332922D01*
X434245Y333010D01*
X434348Y333092D01*
X434354D01*
X434365Y333103D01*
X434381Y333108D01*
X434403Y333124D01*
X434430Y333135D01*
X434463Y333152D01*
X434545Y333190D01*
X434649Y333228D01*
X434763Y333261D01*
X434895Y333283D01*
X435031Y333294D01*
X435075Y332824D01*
D02*
G37*
G36*
X437597Y327981D02*
X434851Y326998D01*
X434845D01*
X434834Y326993D01*
X434818Y326987D01*
X434796Y326976D01*
X434763Y326971D01*
X434731Y326960D01*
X434649Y326933D01*
X434556Y326900D01*
X434452Y326867D01*
X434234Y326802D01*
X434239D01*
X434250Y326796D01*
X434267Y326791D01*
X434289Y326785D01*
X434348Y326769D01*
X434430Y326742D01*
X434523Y326714D01*
X434627Y326682D01*
X434736Y326643D01*
X434851Y326600D01*
X437597Y325573D01*
Y325065D01*
X433819Y326540D01*
Y327064D01*
X437597Y328527D01*
Y327981D01*
D02*
G37*
G36*
Y321871D02*
X437149D01*
Y324104D01*
X435997D01*
Y322013D01*
X435550D01*
Y324104D01*
X434267D01*
Y321784D01*
X433819D01*
Y324607D01*
X437597D01*
Y321871D01*
D02*
G37*
G36*
Y319332D02*
X437592Y319289D01*
Y319240D01*
X437586Y319125D01*
X437570Y319005D01*
X437554Y318874D01*
X437526Y318754D01*
X437510Y318694D01*
X437494Y318644D01*
Y318639D01*
X437488Y318634D01*
X437472Y318601D01*
X437450Y318552D01*
X437412Y318492D01*
X437362Y318426D01*
X437297Y318355D01*
X437220Y318290D01*
X437133Y318224D01*
X437128D01*
X437122Y318219D01*
X437089Y318197D01*
X437035Y318175D01*
X436964Y318142D01*
X436882Y318115D01*
X436784Y318088D01*
X436680Y318071D01*
X436565Y318066D01*
X436560D01*
X436549D01*
X436527D01*
X436500Y318071D01*
X436461D01*
X436423Y318077D01*
X436331Y318098D01*
X436221Y318131D01*
X436107Y318175D01*
X435992Y318240D01*
X435937Y318284D01*
X435883Y318328D01*
X435877Y318333D01*
X435872Y318339D01*
X435855Y318355D01*
X435839Y318377D01*
X435817Y318404D01*
X435795Y318437D01*
X435768Y318481D01*
X435735Y318524D01*
X435708Y318579D01*
X435681Y318639D01*
X435648Y318705D01*
X435621Y318776D01*
X435599Y318857D01*
X435572Y318939D01*
X435555Y319032D01*
X435539Y319130D01*
X435533Y319120D01*
X435522Y319098D01*
X435501Y319065D01*
X435479Y319021D01*
X435419Y318923D01*
X435381Y318874D01*
X435348Y318830D01*
X435337Y318819D01*
X435310Y318792D01*
X435266Y318748D01*
X435211Y318694D01*
X435135Y318634D01*
X435053Y318563D01*
X434955Y318492D01*
X434845Y318415D01*
X433819Y317765D01*
Y318388D01*
X434605Y318885D01*
X434611D01*
X434621Y318896D01*
X434638Y318907D01*
X434660Y318923D01*
X434720Y318961D01*
X434796Y319010D01*
X434878Y319070D01*
X434966Y319130D01*
X435047Y319191D01*
X435124Y319245D01*
X435129Y319250D01*
X435151Y319267D01*
X435184Y319294D01*
X435222Y319332D01*
X435304Y319414D01*
X435342Y319458D01*
X435375Y319502D01*
X435381Y319507D01*
X435386Y319518D01*
X435397Y319540D01*
X435413Y319573D01*
X435430Y319605D01*
X435446Y319644D01*
X435473Y319731D01*
Y319737D01*
X435479Y319747D01*
Y319769D01*
X435484Y319796D01*
X435490Y319835D01*
Y319878D01*
X435495Y319938D01*
Y320583D01*
X433819D01*
Y321085D01*
X437597D01*
Y319332D01*
D02*
G37*
G36*
Y317072D02*
X436451Y316329D01*
X436445D01*
X436434Y316318D01*
X436418Y316308D01*
X436396Y316297D01*
X436369Y316275D01*
X436336Y316253D01*
X436254Y316204D01*
X436156Y316144D01*
X436047Y316078D01*
X435932Y316007D01*
X435812Y315942D01*
X435817D01*
X435828Y315936D01*
X435845Y315925D01*
X435866Y315909D01*
X435894Y315893D01*
X435926Y315871D01*
X436008Y315822D01*
X436107Y315762D01*
X436221Y315691D01*
X436347Y315609D01*
X436483Y315521D01*
X437597Y314795D01*
Y314211D01*
X435419Y315718D01*
X433819D01*
Y316220D01*
X435419D01*
X437597Y317678D01*
Y317072D01*
D02*
G37*
G36*
X435075Y311989D02*
X435069D01*
X435064D01*
X435047Y311983D01*
X435026D01*
X434976Y311972D01*
X434905Y311956D01*
X434834Y311934D01*
X434753Y311912D01*
X434676Y311874D01*
X434605Y311836D01*
X434600Y311830D01*
X434578Y311814D01*
X434540Y311787D01*
X434501Y311743D01*
X434452Y311688D01*
X434403Y311628D01*
X434354Y311546D01*
X434310Y311459D01*
Y311454D01*
X434305Y311448D01*
X434299Y311432D01*
X434294Y311415D01*
X434277Y311361D01*
X434256Y311290D01*
X434234Y311203D01*
X434218Y311104D01*
X434207Y310995D01*
X434201Y310875D01*
Y310826D01*
X434207Y310771D01*
X434212Y310706D01*
X434223Y310629D01*
X434234Y310542D01*
X434256Y310455D01*
X434283Y310373D01*
X434289Y310362D01*
X434299Y310334D01*
X434321Y310296D01*
X434343Y310247D01*
X434381Y310198D01*
X434419Y310143D01*
X434463Y310089D01*
X434518Y310045D01*
X434523Y310039D01*
X434545Y310029D01*
X434572Y310012D01*
X434616Y309990D01*
X434660Y309968D01*
X434714Y309952D01*
X434774Y309941D01*
X434840Y309936D01*
X434845D01*
X434873D01*
X434905Y309941D01*
X434949Y309947D01*
X434993Y309963D01*
X435047Y309979D01*
X435102Y310007D01*
X435151Y310045D01*
X435157Y310050D01*
X435173Y310067D01*
X435195Y310089D01*
X435228Y310127D01*
X435260Y310171D01*
X435299Y310231D01*
X435337Y310302D01*
X435369Y310384D01*
X435375Y310389D01*
X435381Y310416D01*
X435397Y310460D01*
X435402Y310487D01*
X435413Y310525D01*
X435430Y310564D01*
X435440Y310613D01*
X435457Y310667D01*
X435473Y310733D01*
X435490Y310799D01*
X435511Y310875D01*
X435533Y310962D01*
X435555Y311055D01*
Y311061D01*
X435561Y311077D01*
X435566Y311104D01*
X435577Y311137D01*
X435588Y311181D01*
X435599Y311230D01*
X435632Y311339D01*
X435670Y311459D01*
X435708Y311585D01*
X435746Y311694D01*
X435768Y311743D01*
X435790Y311787D01*
Y311792D01*
X435795Y311798D01*
X435817Y311830D01*
X435845Y311879D01*
X435888Y311934D01*
X435937Y312000D01*
X435997Y312065D01*
X436068Y312131D01*
X436145Y312185D01*
X436156Y312191D01*
X436183Y312207D01*
X436227Y312229D01*
X436281Y312251D01*
X436352Y312273D01*
X436434Y312295D01*
X436522Y312311D01*
X436614Y312316D01*
X436620D01*
X436625D01*
X436642D01*
X436664D01*
X436718Y312305D01*
X436789Y312295D01*
X436871Y312278D01*
X436964Y312251D01*
X437057Y312213D01*
X437149Y312158D01*
X437155D01*
X437160Y312153D01*
X437193Y312125D01*
X437237Y312087D01*
X437291Y312038D01*
X437352Y311972D01*
X437417Y311891D01*
X437477Y311792D01*
X437532Y311683D01*
Y311678D01*
X437537Y311667D01*
X437543Y311650D01*
X437554Y311628D01*
X437565Y311601D01*
X437575Y311563D01*
X437597Y311481D01*
X437619Y311377D01*
X437641Y311257D01*
X437657Y311132D01*
X437663Y310990D01*
Y310919D01*
X437657Y310880D01*
Y310842D01*
X437646Y310738D01*
X437630Y310624D01*
X437603Y310504D01*
X437570Y310373D01*
X437526Y310252D01*
Y310247D01*
X437521Y310236D01*
X437510Y310220D01*
X437499Y310198D01*
X437472Y310143D01*
X437423Y310072D01*
X437368Y309990D01*
X437297Y309909D01*
X437215Y309832D01*
X437122Y309761D01*
X437117D01*
X437111Y309756D01*
X437095Y309745D01*
X437079Y309734D01*
X437024Y309706D01*
X436953Y309674D01*
X436866Y309635D01*
X436762Y309608D01*
X436653Y309581D01*
X436532Y309570D01*
X436494Y310050D01*
X436500D01*
X436511D01*
X436527Y310056D01*
X436554Y310061D01*
X436614Y310078D01*
X436696Y310100D01*
X436784Y310132D01*
X436871Y310181D01*
X436953Y310242D01*
X437029Y310318D01*
X437035Y310329D01*
X437057Y310356D01*
X437089Y310411D01*
X437122Y310482D01*
X437155Y310575D01*
X437188Y310684D01*
X437210Y310820D01*
X437215Y310973D01*
Y311050D01*
X437210Y311082D01*
X437204Y311126D01*
X437193Y311224D01*
X437171Y311333D01*
X437144Y311443D01*
X437100Y311546D01*
X437073Y311590D01*
X437046Y311634D01*
X437040Y311645D01*
X437018Y311667D01*
X436980Y311699D01*
X436937Y311732D01*
X436876Y311770D01*
X436811Y311803D01*
X436734Y311825D01*
X436647Y311836D01*
X436636D01*
X436614D01*
X436576Y311830D01*
X436532Y311820D01*
X436478Y311803D01*
X436423Y311776D01*
X436369Y311743D01*
X436314Y311694D01*
X436309Y311688D01*
X436292Y311661D01*
X436276Y311639D01*
X436265Y311617D01*
X436249Y311585D01*
X436227Y311546D01*
X436210Y311497D01*
X436189Y311443D01*
X436167Y311383D01*
X436139Y311312D01*
X436118Y311235D01*
X436090Y311148D01*
X436068Y311050D01*
X436041Y310940D01*
Y310935D01*
X436036Y310913D01*
X436030Y310880D01*
X436019Y310842D01*
X436008Y310793D01*
X435992Y310733D01*
X435976Y310673D01*
X435959Y310607D01*
X435921Y310465D01*
X435883Y310329D01*
X435861Y310263D01*
X435839Y310203D01*
X435823Y310149D01*
X435801Y310105D01*
Y310100D01*
X435795Y310089D01*
X435784Y310072D01*
X435774Y310050D01*
X435741Y309990D01*
X435697Y309919D01*
X435637Y309838D01*
X435572Y309756D01*
X435495Y309679D01*
X435413Y309614D01*
X435402Y309608D01*
X435375Y309586D01*
X435326Y309564D01*
X435260Y309532D01*
X435184Y309504D01*
X435091Y309477D01*
X434987Y309461D01*
X434878Y309455D01*
X434873D01*
X434867D01*
X434851D01*
X434829D01*
X434769Y309466D01*
X434692Y309477D01*
X434605Y309499D01*
X434512Y309526D01*
X434414Y309570D01*
X434310Y309630D01*
X434305D01*
X434299Y309635D01*
X434267Y309663D01*
X434218Y309701D01*
X434163Y309756D01*
X434097Y309827D01*
X434026Y309914D01*
X433961Y310012D01*
X433901Y310127D01*
Y310132D01*
X433895Y310143D01*
X433890Y310160D01*
X433879Y310181D01*
X433868Y310214D01*
X433852Y310252D01*
X433830Y310340D01*
X433803Y310444D01*
X433775Y310569D01*
X433759Y310706D01*
X433753Y310853D01*
Y310940D01*
X433759Y310984D01*
Y311033D01*
X433764Y311088D01*
X433770Y311153D01*
X433792Y311290D01*
X433813Y311432D01*
X433852Y311574D01*
X433901Y311710D01*
Y311716D01*
X433906Y311727D01*
X433917Y311743D01*
X433928Y311765D01*
X433961Y311830D01*
X434010Y311907D01*
X434075Y311994D01*
X434152Y312087D01*
X434245Y312174D01*
X434348Y312256D01*
X434354D01*
X434365Y312267D01*
X434381Y312273D01*
X434403Y312289D01*
X434430Y312300D01*
X434463Y312316D01*
X434545Y312355D01*
X434649Y312393D01*
X434763Y312425D01*
X434895Y312447D01*
X435031Y312458D01*
X435075Y311989D01*
D02*
G37*
G36*
X437597Y308183D02*
X433819D01*
Y308685D01*
X437597D01*
Y308183D01*
D02*
G37*
G36*
Y306567D02*
X434916Y305672D01*
X434911D01*
X434900Y305666D01*
X434884Y305661D01*
X434856Y305650D01*
X434791Y305628D01*
X434709Y305601D01*
X434616Y305573D01*
X434523Y305540D01*
X434436Y305513D01*
X434359Y305491D01*
X434370Y305486D01*
X434398Y305480D01*
X434447Y305464D01*
X434512Y305442D01*
X434600Y305415D01*
X434703Y305377D01*
X434824Y305339D01*
X434966Y305289D01*
X437597Y304383D01*
Y303711D01*
X433819D01*
Y304192D01*
X436980D01*
X433819Y305295D01*
Y305743D01*
X437035Y306835D01*
X433819D01*
Y307315D01*
X437597D01*
Y306567D01*
D02*
G37*
G36*
Y301347D02*
X437592Y301265D01*
X437586Y301172D01*
X437581Y301074D01*
X437570Y300981D01*
X437559Y300900D01*
Y300888D01*
X437548Y300850D01*
X437537Y300801D01*
X437521Y300736D01*
X437494Y300665D01*
X437461Y300588D01*
X437423Y300506D01*
X437379Y300435D01*
X437373Y300424D01*
X437357Y300403D01*
X437324Y300370D01*
X437286Y300326D01*
X437237Y300277D01*
X437171Y300228D01*
X437100Y300173D01*
X437018Y300130D01*
X437008Y300124D01*
X436980Y300113D01*
X436931Y300091D01*
X436866Y300069D01*
X436789Y300053D01*
X436702Y300031D01*
X436603Y300020D01*
X436500Y300015D01*
X436494D01*
X436478D01*
X436456D01*
X436418Y300020D01*
X436380Y300026D01*
X436331Y300031D01*
X436276Y300042D01*
X436216Y300053D01*
X436090Y300091D01*
X436025Y300113D01*
X435954Y300146D01*
X435883Y300184D01*
X435817Y300222D01*
X435752Y300272D01*
X435686Y300326D01*
X435681Y300332D01*
X435670Y300342D01*
X435653Y300359D01*
X435637Y300386D01*
X435610Y300419D01*
X435582Y300463D01*
X435550Y300517D01*
X435522Y300577D01*
X435490Y300648D01*
X435457Y300730D01*
X435430Y300818D01*
X435408Y300921D01*
X435386Y301030D01*
X435369Y301151D01*
X435359Y301287D01*
X435353Y301429D01*
Y302396D01*
X433819D01*
Y302898D01*
X437597D01*
Y301347D01*
D02*
G37*
G36*
Y298896D02*
X434267D01*
Y297034D01*
X433819D01*
Y299398D01*
X437597D01*
Y298896D01*
D02*
G37*
G36*
Y293698D02*
X437149D01*
Y295931D01*
X435997D01*
Y293840D01*
X435550D01*
Y295931D01*
X434267D01*
Y293610D01*
X433819D01*
Y296433D01*
X437597D01*
Y293698D01*
D02*
G37*
G36*
X434348Y292316D02*
X433819D01*
Y292846D01*
X434348D01*
Y292316D01*
D02*
G37*
G36*
X437597Y288429D02*
X437592Y288347D01*
X437586Y288254D01*
X437581Y288156D01*
X437570Y288063D01*
X437559Y287981D01*
Y287970D01*
X437548Y287932D01*
X437537Y287883D01*
X437521Y287817D01*
X437494Y287746D01*
X437461Y287670D01*
X437423Y287588D01*
X437379Y287517D01*
X437373Y287506D01*
X437357Y287484D01*
X437324Y287452D01*
X437286Y287408D01*
X437237Y287359D01*
X437171Y287310D01*
X437100Y287255D01*
X437018Y287211D01*
X437008Y287206D01*
X436980Y287195D01*
X436931Y287173D01*
X436866Y287151D01*
X436789Y287135D01*
X436702Y287113D01*
X436603Y287102D01*
X436500Y287097D01*
X436494D01*
X436478D01*
X436456D01*
X436418Y287102D01*
X436380Y287107D01*
X436331Y287113D01*
X436276Y287124D01*
X436216Y287135D01*
X436090Y287173D01*
X436025Y287195D01*
X435954Y287228D01*
X435883Y287266D01*
X435817Y287304D01*
X435752Y287353D01*
X435686Y287408D01*
X435681Y287413D01*
X435670Y287424D01*
X435653Y287441D01*
X435637Y287468D01*
X435610Y287501D01*
X435582Y287544D01*
X435550Y287599D01*
X435522Y287659D01*
X435490Y287730D01*
X435457Y287812D01*
X435430Y287899D01*
X435408Y288003D01*
X435386Y288112D01*
X435369Y288232D01*
X435359Y288369D01*
X435353Y288511D01*
Y289477D01*
X433819D01*
Y289980D01*
X437597D01*
Y288429D01*
D02*
G37*
G36*
Y285977D02*
X434267D01*
Y284115D01*
X433819D01*
Y286480D01*
X437597D01*
Y285977D01*
D02*
G37*
G36*
Y280779D02*
X437149D01*
Y283013D01*
X435997D01*
Y280921D01*
X435550D01*
Y283013D01*
X434267D01*
Y280692D01*
X433819D01*
Y283515D01*
X437597D01*
Y280779D01*
D02*
G37*
G36*
Y278972D02*
Y278426D01*
X433819Y276881D01*
Y277449D01*
X434966Y277891D01*
Y279474D01*
X433819Y279884D01*
Y280414D01*
X437597Y278972D01*
D02*
G37*
G36*
X435075Y276177D02*
X435069D01*
X435064D01*
X435047Y276171D01*
X435026D01*
X434976Y276160D01*
X434905Y276144D01*
X434834Y276122D01*
X434753Y276100D01*
X434676Y276062D01*
X434605Y276024D01*
X434600Y276018D01*
X434578Y276002D01*
X434540Y275975D01*
X434501Y275931D01*
X434452Y275876D01*
X434403Y275816D01*
X434354Y275734D01*
X434310Y275647D01*
Y275641D01*
X434305Y275636D01*
X434299Y275620D01*
X434294Y275603D01*
X434277Y275549D01*
X434256Y275478D01*
X434234Y275390D01*
X434218Y275292D01*
X434207Y275183D01*
X434201Y275063D01*
Y275014D01*
X434207Y274959D01*
X434212Y274893D01*
X434223Y274817D01*
X434234Y274730D01*
X434256Y274642D01*
X434283Y274560D01*
X434289Y274550D01*
X434299Y274522D01*
X434321Y274484D01*
X434343Y274435D01*
X434381Y274386D01*
X434419Y274331D01*
X434463Y274276D01*
X434518Y274233D01*
X434523Y274227D01*
X434545Y274216D01*
X434572Y274200D01*
X434616Y274178D01*
X434660Y274156D01*
X434714Y274140D01*
X434774Y274129D01*
X434840Y274124D01*
X434845D01*
X434873D01*
X434905Y274129D01*
X434949Y274134D01*
X434993Y274151D01*
X435047Y274167D01*
X435102Y274195D01*
X435151Y274233D01*
X435157Y274238D01*
X435173Y274255D01*
X435195Y274276D01*
X435228Y274315D01*
X435260Y274358D01*
X435299Y274418D01*
X435337Y274489D01*
X435369Y274571D01*
X435375Y274577D01*
X435381Y274604D01*
X435397Y274648D01*
X435402Y274675D01*
X435413Y274713D01*
X435430Y274751D01*
X435440Y274801D01*
X435457Y274855D01*
X435473Y274921D01*
X435490Y274986D01*
X435511Y275063D01*
X435533Y275150D01*
X435555Y275243D01*
Y275248D01*
X435561Y275265D01*
X435566Y275292D01*
X435577Y275325D01*
X435588Y275368D01*
X435599Y275418D01*
X435632Y275527D01*
X435670Y275647D01*
X435708Y275773D01*
X435746Y275882D01*
X435768Y275931D01*
X435790Y275975D01*
Y275980D01*
X435795Y275986D01*
X435817Y276018D01*
X435845Y276067D01*
X435888Y276122D01*
X435937Y276187D01*
X435997Y276253D01*
X436068Y276319D01*
X436145Y276373D01*
X436156Y276379D01*
X436183Y276395D01*
X436227Y276417D01*
X436281Y276439D01*
X436352Y276461D01*
X436434Y276482D01*
X436522Y276499D01*
X436614Y276504D01*
X436620D01*
X436625D01*
X436642D01*
X436664D01*
X436718Y276493D01*
X436789Y276482D01*
X436871Y276466D01*
X436964Y276439D01*
X437057Y276400D01*
X437149Y276346D01*
X437155D01*
X437160Y276340D01*
X437193Y276313D01*
X437237Y276275D01*
X437291Y276226D01*
X437352Y276160D01*
X437417Y276078D01*
X437477Y275980D01*
X437532Y275871D01*
Y275865D01*
X437537Y275854D01*
X437543Y275838D01*
X437554Y275816D01*
X437565Y275789D01*
X437575Y275751D01*
X437597Y275669D01*
X437619Y275565D01*
X437641Y275445D01*
X437657Y275319D01*
X437663Y275177D01*
Y275106D01*
X437657Y275068D01*
Y275030D01*
X437646Y274926D01*
X437630Y274812D01*
X437603Y274692D01*
X437570Y274560D01*
X437526Y274440D01*
Y274435D01*
X437521Y274424D01*
X437510Y274408D01*
X437499Y274386D01*
X437472Y274331D01*
X437423Y274260D01*
X437368Y274178D01*
X437297Y274096D01*
X437215Y274020D01*
X437122Y273949D01*
X437117D01*
X437111Y273943D01*
X437095Y273933D01*
X437079Y273922D01*
X437024Y273894D01*
X436953Y273862D01*
X436866Y273823D01*
X436762Y273796D01*
X436653Y273769D01*
X436532Y273758D01*
X436494Y274238D01*
X436500D01*
X436511D01*
X436527Y274244D01*
X436554Y274249D01*
X436614Y274266D01*
X436696Y274287D01*
X436784Y274320D01*
X436871Y274369D01*
X436953Y274429D01*
X437029Y274506D01*
X437035Y274517D01*
X437057Y274544D01*
X437089Y274599D01*
X437122Y274670D01*
X437155Y274762D01*
X437188Y274872D01*
X437210Y275008D01*
X437215Y275161D01*
Y275237D01*
X437210Y275270D01*
X437204Y275314D01*
X437193Y275412D01*
X437171Y275521D01*
X437144Y275631D01*
X437100Y275734D01*
X437073Y275778D01*
X437046Y275822D01*
X437040Y275833D01*
X437018Y275854D01*
X436980Y275887D01*
X436937Y275920D01*
X436876Y275958D01*
X436811Y275991D01*
X436734Y276013D01*
X436647Y276024D01*
X436636D01*
X436614D01*
X436576Y276018D01*
X436532Y276007D01*
X436478Y275991D01*
X436423Y275964D01*
X436369Y275931D01*
X436314Y275882D01*
X436309Y275876D01*
X436292Y275849D01*
X436276Y275827D01*
X436265Y275805D01*
X436249Y275773D01*
X436227Y275734D01*
X436210Y275685D01*
X436189Y275631D01*
X436167Y275571D01*
X436139Y275500D01*
X436118Y275423D01*
X436090Y275336D01*
X436068Y275237D01*
X436041Y275128D01*
Y275123D01*
X436036Y275101D01*
X436030Y275068D01*
X436019Y275030D01*
X436008Y274981D01*
X435992Y274921D01*
X435976Y274861D01*
X435959Y274795D01*
X435921Y274653D01*
X435883Y274517D01*
X435861Y274451D01*
X435839Y274391D01*
X435823Y274337D01*
X435801Y274293D01*
Y274287D01*
X435795Y274276D01*
X435784Y274260D01*
X435774Y274238D01*
X435741Y274178D01*
X435697Y274107D01*
X435637Y274025D01*
X435572Y273943D01*
X435495Y273867D01*
X435413Y273801D01*
X435402Y273796D01*
X435375Y273774D01*
X435326Y273752D01*
X435260Y273720D01*
X435184Y273692D01*
X435091Y273665D01*
X434987Y273649D01*
X434878Y273643D01*
X434873D01*
X434867D01*
X434851D01*
X434829D01*
X434769Y273654D01*
X434692Y273665D01*
X434605Y273687D01*
X434512Y273714D01*
X434414Y273758D01*
X434310Y273818D01*
X434305D01*
X434299Y273823D01*
X434267Y273851D01*
X434218Y273889D01*
X434163Y273943D01*
X434097Y274014D01*
X434026Y274102D01*
X433961Y274200D01*
X433901Y274315D01*
Y274320D01*
X433895Y274331D01*
X433890Y274347D01*
X433879Y274369D01*
X433868Y274402D01*
X433852Y274440D01*
X433830Y274528D01*
X433803Y274631D01*
X433775Y274757D01*
X433759Y274893D01*
X433753Y275041D01*
Y275128D01*
X433759Y275172D01*
Y275221D01*
X433764Y275276D01*
X433770Y275341D01*
X433792Y275478D01*
X433813Y275620D01*
X433852Y275762D01*
X433901Y275898D01*
Y275904D01*
X433906Y275915D01*
X433917Y275931D01*
X433928Y275953D01*
X433961Y276018D01*
X434010Y276095D01*
X434075Y276182D01*
X434152Y276275D01*
X434245Y276362D01*
X434348Y276444D01*
X434354D01*
X434365Y276455D01*
X434381Y276461D01*
X434403Y276477D01*
X434430Y276488D01*
X434463Y276504D01*
X434545Y276542D01*
X434649Y276581D01*
X434763Y276613D01*
X434895Y276635D01*
X435031Y276646D01*
X435075Y276177D01*
D02*
G37*
G36*
X437597Y270214D02*
X437149D01*
Y272447D01*
X435997D01*
Y270356D01*
X435550D01*
Y272447D01*
X434267D01*
Y270127D01*
X433819D01*
Y272950D01*
X437597D01*
Y270214D01*
D02*
G37*
G36*
Y266512D02*
X437592Y266414D01*
X437586Y266305D01*
X437575Y266196D01*
X437559Y266087D01*
X437543Y265994D01*
Y265988D01*
X437537Y265977D01*
Y265961D01*
X437526Y265939D01*
X437510Y265879D01*
X437483Y265803D01*
X437444Y265715D01*
X437395Y265622D01*
X437341Y265530D01*
X437270Y265442D01*
X437264Y265437D01*
X437259Y265431D01*
X437242Y265415D01*
X437226Y265393D01*
X437171Y265338D01*
X437095Y265273D01*
X437002Y265202D01*
X436893Y265126D01*
X436767Y265055D01*
X436625Y264995D01*
X436620D01*
X436609Y264989D01*
X436587Y264978D01*
X436554Y264973D01*
X436516Y264956D01*
X436473Y264945D01*
X436423Y264934D01*
X436363Y264918D01*
X436303Y264902D01*
X436232Y264891D01*
X436079Y264863D01*
X435910Y264847D01*
X435724Y264842D01*
X435719D01*
X435708D01*
X435681D01*
X435653D01*
X435615Y264847D01*
X435572D01*
X435468Y264853D01*
X435348Y264869D01*
X435222Y264885D01*
X435091Y264913D01*
X434960Y264945D01*
X434955D01*
X434944Y264951D01*
X434927Y264956D01*
X434905Y264962D01*
X434845Y264984D01*
X434769Y265016D01*
X434682Y265049D01*
X434594Y265093D01*
X434501Y265147D01*
X434414Y265202D01*
X434403Y265208D01*
X434376Y265229D01*
X434338Y265262D01*
X434289Y265306D01*
X434234Y265355D01*
X434179Y265415D01*
X434119Y265475D01*
X434070Y265546D01*
X434065Y265557D01*
X434048Y265579D01*
X434026Y265617D01*
X433999Y265671D01*
X433966Y265737D01*
X433939Y265813D01*
X433906Y265901D01*
X433879Y265999D01*
Y266010D01*
X433874Y266026D01*
X433868Y266043D01*
X433863Y266097D01*
X433852Y266174D01*
X433841Y266261D01*
X433830Y266365D01*
X433824Y266480D01*
X433819Y266605D01*
Y267965D01*
X437597D01*
Y266512D01*
D02*
G37*
G36*
X435746Y264301D02*
X435812D01*
X435888Y264290D01*
X435981Y264279D01*
X436085Y264263D01*
X436194Y264241D01*
X436309Y264219D01*
X436429Y264186D01*
X436549Y264143D01*
X436674Y264094D01*
X436795Y264039D01*
X436915Y263968D01*
X437024Y263892D01*
X437128Y263804D01*
X437133Y263799D01*
X437149Y263782D01*
X437177Y263750D01*
X437210Y263711D01*
X437253Y263662D01*
X437297Y263602D01*
X437346Y263531D01*
X437395Y263449D01*
X437444Y263362D01*
X437494Y263264D01*
X437537Y263155D01*
X437581Y263040D01*
X437614Y262914D01*
X437641Y262783D01*
X437657Y262647D01*
X437663Y262499D01*
Y262450D01*
X437657Y262412D01*
Y262363D01*
X437652Y262314D01*
X437641Y262248D01*
X437630Y262183D01*
X437603Y262041D01*
X437559Y261877D01*
X437494Y261719D01*
X437455Y261637D01*
X437412Y261555D01*
X437406Y261549D01*
X437401Y261538D01*
X437384Y261516D01*
X437368Y261484D01*
X437341Y261451D01*
X437308Y261407D01*
X437231Y261315D01*
X437133Y261216D01*
X437013Y261107D01*
X436871Y261003D01*
X436713Y260916D01*
X436707D01*
X436691Y260905D01*
X436669Y260894D01*
X436636Y260883D01*
X436593Y260861D01*
X436543Y260845D01*
X436483Y260823D01*
X436418Y260801D01*
X436347Y260785D01*
X436270Y260763D01*
X436183Y260741D01*
X436096Y260725D01*
X435905Y260703D01*
X435697Y260692D01*
X435692D01*
X435670D01*
X435642D01*
X435599Y260698D01*
X435550D01*
X435490Y260703D01*
X435424Y260714D01*
X435353Y260719D01*
X435195Y260747D01*
X435020Y260790D01*
X434845Y260850D01*
X434758Y260883D01*
X434671Y260927D01*
X434665D01*
X434649Y260938D01*
X434627Y260949D01*
X434594Y260970D01*
X434556Y260992D01*
X434518Y261020D01*
X434414Y261096D01*
X434305Y261189D01*
X434190Y261298D01*
X434081Y261429D01*
X433983Y261582D01*
Y261588D01*
X433972Y261598D01*
X433961Y261626D01*
X433945Y261658D01*
X433928Y261697D01*
X433912Y261740D01*
X433890Y261795D01*
X433868Y261855D01*
X433846Y261920D01*
X433824Y261992D01*
X433792Y262150D01*
X433764Y262319D01*
X433753Y262499D01*
Y262554D01*
X433759Y262587D01*
Y262636D01*
X433770Y262690D01*
X433775Y262751D01*
X433786Y262821D01*
X433819Y262969D01*
X433863Y263127D01*
X433928Y263291D01*
X433966Y263373D01*
X434010Y263455D01*
X434016Y263460D01*
X434021Y263471D01*
X434037Y263493D01*
X434059Y263526D01*
X434081Y263559D01*
X434114Y263597D01*
X434196Y263690D01*
X434294Y263793D01*
X434414Y263902D01*
X434551Y264001D01*
X434709Y264094D01*
X434714D01*
X434731Y264105D01*
X434753Y264116D01*
X434785Y264126D01*
X434829Y264143D01*
X434878Y264159D01*
X434933Y264181D01*
X434993Y264197D01*
X435064Y264219D01*
X435135Y264241D01*
X435299Y264274D01*
X435468Y264296D01*
X435653Y264307D01*
X435659D01*
X435664D01*
X435697D01*
X435746Y264301D01*
D02*
G37*
G36*
X437597Y259540D02*
X434627Y257558D01*
X437597D01*
Y257078D01*
X433819D01*
Y257596D01*
X436784Y259573D01*
X433819D01*
Y260053D01*
X437597D01*
Y259540D01*
D02*
G37*
G36*
Y253528D02*
X437149D01*
Y254773D01*
X433819D01*
Y255276D01*
X437149D01*
Y256521D01*
X437597D01*
Y253528D01*
D02*
G37*
G36*
Y248833D02*
X437149D01*
Y250078D01*
X433819D01*
Y250580D01*
X437149D01*
Y251825D01*
X437597D01*
Y248833D01*
D02*
G37*
G36*
Y247796D02*
X436047D01*
Y245841D01*
X437597D01*
Y245339D01*
X433819D01*
Y245841D01*
X435599D01*
Y247796D01*
X433819D01*
Y248298D01*
X437597D01*
Y247796D01*
D02*
G37*
G36*
Y243919D02*
X433819D01*
Y244421D01*
X437597D01*
Y243919D01*
D02*
G37*
G36*
Y242527D02*
X434627Y240545D01*
X437597D01*
Y240064D01*
X433819D01*
Y240583D01*
X436784Y242559D01*
X433819D01*
Y243040D01*
X437597D01*
Y242527D01*
D02*
G37*
G36*
Y238743D02*
X435719D01*
X437597Y236876D01*
Y236193D01*
X436063Y237776D01*
X433819Y236122D01*
Y236783D01*
X435724Y238126D01*
X435129Y238743D01*
X433819D01*
Y239245D01*
X437597D01*
Y238743D01*
D02*
G37*
G36*
Y233206D02*
Y232660D01*
X433819Y231115D01*
Y231683D01*
X434966Y232125D01*
Y233709D01*
X433819Y234118D01*
Y234648D01*
X437597Y233206D01*
D02*
G37*
G36*
Y229248D02*
X437592Y229210D01*
Y229166D01*
X437581Y229068D01*
X437570Y228959D01*
X437548Y228844D01*
X437521Y228729D01*
X437483Y228625D01*
Y228620D01*
X437477Y228614D01*
X437461Y228582D01*
X437433Y228533D01*
X437395Y228478D01*
X437346Y228413D01*
X437286Y228342D01*
X437210Y228276D01*
X437128Y228216D01*
X437117Y228210D01*
X437084Y228194D01*
X437040Y228167D01*
X436975Y228139D01*
X436898Y228112D01*
X436816Y228085D01*
X436724Y228068D01*
X436631Y228063D01*
X436620D01*
X436593D01*
X436543Y228068D01*
X436483Y228079D01*
X436412Y228096D01*
X436336Y228123D01*
X436260Y228156D01*
X436178Y228200D01*
X436167Y228205D01*
X436145Y228221D01*
X436101Y228254D01*
X436058Y228298D01*
X436003Y228352D01*
X435943Y228418D01*
X435888Y228500D01*
X435834Y228593D01*
Y228587D01*
X435828Y228576D01*
X435823Y228560D01*
X435812Y228538D01*
X435790Y228473D01*
X435752Y228396D01*
X435703Y228314D01*
X435642Y228221D01*
X435572Y228139D01*
X435484Y228063D01*
X435473Y228058D01*
X435440Y228036D01*
X435391Y228003D01*
X435326Y227970D01*
X435239Y227938D01*
X435146Y227905D01*
X435037Y227883D01*
X434916Y227877D01*
X434911D01*
X434905D01*
X434873D01*
X434818Y227883D01*
X434753Y227894D01*
X434676Y227905D01*
X434594Y227927D01*
X434507Y227954D01*
X434419Y227992D01*
X434409Y227998D01*
X434381Y228014D01*
X434343Y228036D01*
X434289Y228068D01*
X434234Y228112D01*
X434174Y228156D01*
X434114Y228210D01*
X434065Y228271D01*
X434059Y228276D01*
X434043Y228298D01*
X434021Y228336D01*
X433999Y228385D01*
X433966Y228445D01*
X433934Y228516D01*
X433906Y228593D01*
X433879Y228685D01*
Y228696D01*
X433868Y228729D01*
X433863Y228784D01*
X433852Y228855D01*
X433841Y228942D01*
X433830Y229046D01*
X433824Y229160D01*
X433819Y229292D01*
Y230733D01*
X437597D01*
Y229248D01*
D02*
G37*
G36*
X435746Y227337D02*
X435812D01*
X435888Y227326D01*
X435981Y227315D01*
X436085Y227299D01*
X436194Y227277D01*
X436309Y227255D01*
X436429Y227222D01*
X436549Y227179D01*
X436674Y227129D01*
X436795Y227075D01*
X436915Y227004D01*
X437024Y226927D01*
X437128Y226840D01*
X437133Y226835D01*
X437149Y226818D01*
X437177Y226785D01*
X437210Y226747D01*
X437253Y226698D01*
X437297Y226638D01*
X437346Y226567D01*
X437395Y226485D01*
X437444Y226398D01*
X437494Y226300D01*
X437537Y226190D01*
X437581Y226076D01*
X437614Y225950D01*
X437641Y225819D01*
X437657Y225682D01*
X437663Y225535D01*
Y225486D01*
X437657Y225448D01*
Y225399D01*
X437652Y225349D01*
X437641Y225284D01*
X437630Y225218D01*
X437603Y225077D01*
X437559Y224913D01*
X437494Y224754D01*
X437455Y224672D01*
X437412Y224590D01*
X437406Y224585D01*
X437401Y224574D01*
X437384Y224552D01*
X437368Y224519D01*
X437341Y224487D01*
X437308Y224443D01*
X437231Y224350D01*
X437133Y224252D01*
X437013Y224143D01*
X436871Y224039D01*
X436713Y223952D01*
X436707D01*
X436691Y223941D01*
X436669Y223930D01*
X436636Y223919D01*
X436593Y223897D01*
X436543Y223881D01*
X436483Y223859D01*
X436418Y223837D01*
X436347Y223821D01*
X436270Y223799D01*
X436183Y223777D01*
X436096Y223761D01*
X435905Y223739D01*
X435697Y223728D01*
X435692D01*
X435670D01*
X435642D01*
X435599Y223733D01*
X435550D01*
X435490Y223739D01*
X435424Y223750D01*
X435353Y223755D01*
X435195Y223782D01*
X435020Y223826D01*
X434845Y223886D01*
X434758Y223919D01*
X434671Y223963D01*
X434665D01*
X434649Y223973D01*
X434627Y223985D01*
X434594Y224006D01*
X434556Y224028D01*
X434518Y224055D01*
X434414Y224132D01*
X434305Y224225D01*
X434190Y224334D01*
X434081Y224465D01*
X433983Y224618D01*
Y224623D01*
X433972Y224634D01*
X433961Y224661D01*
X433945Y224694D01*
X433928Y224732D01*
X433912Y224776D01*
X433890Y224831D01*
X433868Y224891D01*
X433846Y224956D01*
X433824Y225027D01*
X433792Y225186D01*
X433764Y225355D01*
X433753Y225535D01*
Y225590D01*
X433759Y225622D01*
Y225672D01*
X433770Y225726D01*
X433775Y225786D01*
X433786Y225857D01*
X433819Y226005D01*
X433863Y226163D01*
X433928Y226327D01*
X433966Y226409D01*
X434010Y226491D01*
X434016Y226496D01*
X434021Y226507D01*
X434037Y226529D01*
X434059Y226562D01*
X434081Y226594D01*
X434114Y226632D01*
X434196Y226725D01*
X434294Y226829D01*
X434414Y226938D01*
X434551Y227037D01*
X434709Y227129D01*
X434714D01*
X434731Y227140D01*
X434753Y227151D01*
X434785Y227162D01*
X434829Y227179D01*
X434878Y227195D01*
X434933Y227217D01*
X434993Y227233D01*
X435064Y227255D01*
X435135Y227277D01*
X435299Y227310D01*
X435468Y227331D01*
X435653Y227342D01*
X435659D01*
X435664D01*
X435697D01*
X435746Y227337D01*
D02*
G37*
G36*
X437597Y222576D02*
X435413D01*
X435408D01*
X435391D01*
X435364D01*
X435331D01*
X435293Y222570D01*
X435244D01*
X435140Y222565D01*
X435020Y222554D01*
X434900Y222538D01*
X434785Y222516D01*
X434736Y222505D01*
X434687Y222488D01*
X434676Y222483D01*
X434649Y222472D01*
X434611Y222445D01*
X434556Y222412D01*
X434501Y222374D01*
X434441Y222319D01*
X434381Y222254D01*
X434332Y222177D01*
X434327Y222166D01*
X434310Y222139D01*
X434294Y222090D01*
X434272Y222024D01*
X434245Y221948D01*
X434228Y221850D01*
X434212Y221746D01*
X434207Y221631D01*
Y221577D01*
X434212Y221544D01*
Y221495D01*
X434218Y221446D01*
X434239Y221325D01*
X434267Y221194D01*
X434310Y221069D01*
X434370Y220949D01*
X434409Y220894D01*
X434452Y220845D01*
X434458Y220840D01*
X434463Y220834D01*
X434480Y220823D01*
X434501Y220807D01*
X434534Y220790D01*
X434567Y220768D01*
X434616Y220747D01*
X434665Y220725D01*
X434725Y220703D01*
X434796Y220687D01*
X434878Y220665D01*
X434966Y220648D01*
X435064Y220632D01*
X435168Y220621D01*
X435288Y220610D01*
X435413D01*
X437597D01*
Y220108D01*
X435413D01*
X435408D01*
X435386D01*
X435359D01*
X435320D01*
X435271Y220113D01*
X435217D01*
X435151Y220119D01*
X435086Y220124D01*
X434938Y220141D01*
X434785Y220162D01*
X434638Y220195D01*
X434567Y220217D01*
X434501Y220239D01*
X434496D01*
X434485Y220244D01*
X434469Y220255D01*
X434447Y220266D01*
X434387Y220299D01*
X434310Y220348D01*
X434223Y220414D01*
X434136Y220490D01*
X434043Y220588D01*
X433961Y220708D01*
Y220714D01*
X433950Y220725D01*
X433945Y220741D01*
X433928Y220768D01*
X433912Y220801D01*
X433895Y220845D01*
X433879Y220889D01*
X433857Y220943D01*
X433835Y221003D01*
X433819Y221069D01*
X433803Y221140D01*
X433786Y221222D01*
X433775Y221304D01*
X433764Y221391D01*
X433753Y221587D01*
Y221637D01*
X433759Y221675D01*
Y221719D01*
X433764Y221773D01*
X433770Y221833D01*
X433775Y221893D01*
X433797Y222030D01*
X433830Y222177D01*
X433874Y222319D01*
X433934Y222456D01*
Y222461D01*
X433945Y222472D01*
X433955Y222488D01*
X433966Y222510D01*
X434010Y222570D01*
X434070Y222641D01*
X434146Y222723D01*
X434234Y222800D01*
X434343Y222876D01*
X434463Y222936D01*
X434469D01*
X434480Y222942D01*
X434501Y222947D01*
X434529Y222958D01*
X434561Y222969D01*
X434605Y222980D01*
X434654Y222996D01*
X434714Y223007D01*
X434780Y223018D01*
X434851Y223034D01*
X434927Y223045D01*
X435009Y223056D01*
X435102Y223067D01*
X435200Y223073D01*
X435304Y223078D01*
X435413D01*
X437597D01*
Y222576D01*
D02*
G37*
G36*
Y216564D02*
X437149D01*
Y217809D01*
X433819D01*
Y218312D01*
X437149D01*
Y219556D01*
X437597D01*
Y216564D01*
D02*
G37*
G36*
Y213993D02*
X433819D01*
Y214495D01*
X437597D01*
Y213993D01*
D02*
G37*
G36*
Y210400D02*
X437149D01*
Y211645D01*
X433819D01*
Y212147D01*
X437149D01*
Y213392D01*
X437597D01*
Y210400D01*
D02*
G37*
G36*
Y207386D02*
Y206840D01*
X433819Y205295D01*
Y205863D01*
X434966Y206305D01*
Y207888D01*
X433819Y208298D01*
Y208827D01*
X437597Y207386D01*
D02*
G37*
G36*
Y204383D02*
X434627Y202401D01*
X437597D01*
Y201921D01*
X433819D01*
Y202439D01*
X436784Y204416D01*
X433819D01*
Y204896D01*
X437597D01*
Y204383D01*
D02*
G37*
G36*
Y199627D02*
X437592Y199529D01*
X437586Y199420D01*
X437575Y199311D01*
X437559Y199202D01*
X437543Y199109D01*
Y199103D01*
X437537Y199092D01*
Y199076D01*
X437526Y199054D01*
X437510Y198994D01*
X437483Y198918D01*
X437444Y198830D01*
X437395Y198737D01*
X437341Y198645D01*
X437270Y198557D01*
X437264Y198552D01*
X437259Y198546D01*
X437242Y198530D01*
X437226Y198508D01*
X437171Y198453D01*
X437095Y198388D01*
X437002Y198317D01*
X436893Y198241D01*
X436767Y198170D01*
X436625Y198109D01*
X436620D01*
X436609Y198104D01*
X436587Y198093D01*
X436554Y198088D01*
X436516Y198071D01*
X436473Y198060D01*
X436423Y198049D01*
X436363Y198033D01*
X436303Y198017D01*
X436232Y198006D01*
X436079Y197978D01*
X435910Y197962D01*
X435724Y197957D01*
X435719D01*
X435708D01*
X435681D01*
X435653D01*
X435615Y197962D01*
X435572D01*
X435468Y197968D01*
X435348Y197984D01*
X435222Y198000D01*
X435091Y198028D01*
X434960Y198060D01*
X434955D01*
X434944Y198066D01*
X434927Y198071D01*
X434905Y198077D01*
X434845Y198099D01*
X434769Y198131D01*
X434682Y198164D01*
X434594Y198208D01*
X434501Y198262D01*
X434414Y198317D01*
X434403Y198322D01*
X434376Y198344D01*
X434338Y198377D01*
X434289Y198421D01*
X434234Y198470D01*
X434179Y198530D01*
X434119Y198590D01*
X434070Y198661D01*
X434065Y198672D01*
X434048Y198694D01*
X434026Y198732D01*
X433999Y198787D01*
X433966Y198852D01*
X433939Y198928D01*
X433906Y199016D01*
X433879Y199114D01*
Y199125D01*
X433874Y199142D01*
X433868Y199158D01*
X433863Y199212D01*
X433852Y199289D01*
X433841Y199376D01*
X433830Y199480D01*
X433824Y199595D01*
X433819Y199720D01*
Y201080D01*
X437597D01*
Y199627D01*
D02*
G37*
G36*
Y194348D02*
X437592Y194249D01*
X437586Y194140D01*
X437575Y194031D01*
X437559Y193922D01*
X437543Y193829D01*
Y193823D01*
X437537Y193813D01*
Y193796D01*
X437526Y193774D01*
X437510Y193714D01*
X437483Y193638D01*
X437444Y193550D01*
X437395Y193458D01*
X437341Y193365D01*
X437270Y193277D01*
X437264Y193272D01*
X437259Y193266D01*
X437242Y193250D01*
X437226Y193228D01*
X437171Y193174D01*
X437095Y193108D01*
X437002Y193037D01*
X436893Y192961D01*
X436767Y192890D01*
X436625Y192830D01*
X436620D01*
X436609Y192824D01*
X436587Y192813D01*
X436554Y192808D01*
X436516Y192791D01*
X436473Y192780D01*
X436423Y192770D01*
X436363Y192753D01*
X436303Y192737D01*
X436232Y192726D01*
X436079Y192699D01*
X435910Y192682D01*
X435724Y192677D01*
X435719D01*
X435708D01*
X435681D01*
X435653D01*
X435615Y192682D01*
X435572D01*
X435468Y192688D01*
X435348Y192704D01*
X435222Y192720D01*
X435091Y192748D01*
X434960Y192780D01*
X434955D01*
X434944Y192786D01*
X434927Y192791D01*
X434905Y192797D01*
X434845Y192819D01*
X434769Y192851D01*
X434682Y192884D01*
X434594Y192928D01*
X434501Y192983D01*
X434414Y193037D01*
X434403Y193043D01*
X434376Y193064D01*
X434338Y193097D01*
X434289Y193141D01*
X434234Y193190D01*
X434179Y193250D01*
X434119Y193310D01*
X434070Y193381D01*
X434065Y193392D01*
X434048Y193414D01*
X434026Y193452D01*
X433999Y193507D01*
X433966Y193572D01*
X433939Y193649D01*
X433906Y193736D01*
X433879Y193834D01*
Y193845D01*
X433874Y193862D01*
X433868Y193878D01*
X433863Y193933D01*
X433852Y194009D01*
X433841Y194096D01*
X433830Y194200D01*
X433824Y194315D01*
X433819Y194440D01*
Y195800D01*
X437597D01*
Y194348D01*
D02*
G37*
G36*
X435746Y192136D02*
X435812D01*
X435888Y192125D01*
X435981Y192114D01*
X436085Y192098D01*
X436194Y192076D01*
X436309Y192054D01*
X436429Y192022D01*
X436549Y191978D01*
X436674Y191929D01*
X436795Y191874D01*
X436915Y191803D01*
X437024Y191727D01*
X437128Y191639D01*
X437133Y191634D01*
X437149Y191618D01*
X437177Y191585D01*
X437210Y191547D01*
X437253Y191498D01*
X437297Y191437D01*
X437346Y191366D01*
X437395Y191285D01*
X437444Y191197D01*
X437494Y191099D01*
X437537Y190990D01*
X437581Y190875D01*
X437614Y190749D01*
X437641Y190618D01*
X437657Y190482D01*
X437663Y190334D01*
Y190285D01*
X437657Y190247D01*
Y190198D01*
X437652Y190149D01*
X437641Y190083D01*
X437630Y190018D01*
X437603Y189876D01*
X437559Y189712D01*
X437494Y189554D01*
X437455Y189472D01*
X437412Y189390D01*
X437406Y189384D01*
X437401Y189374D01*
X437384Y189352D01*
X437368Y189319D01*
X437341Y189286D01*
X437308Y189242D01*
X437231Y189150D01*
X437133Y189051D01*
X437013Y188942D01*
X436871Y188838D01*
X436713Y188751D01*
X436707D01*
X436691Y188740D01*
X436669Y188729D01*
X436636Y188718D01*
X436593Y188697D01*
X436543Y188680D01*
X436483Y188658D01*
X436418Y188636D01*
X436347Y188620D01*
X436270Y188598D01*
X436183Y188576D01*
X436096Y188560D01*
X435905Y188538D01*
X435697Y188527D01*
X435692D01*
X435670D01*
X435642D01*
X435599Y188533D01*
X435550D01*
X435490Y188538D01*
X435424Y188549D01*
X435353Y188555D01*
X435195Y188582D01*
X435020Y188626D01*
X434845Y188686D01*
X434758Y188718D01*
X434671Y188762D01*
X434665D01*
X434649Y188773D01*
X434627Y188784D01*
X434594Y188806D01*
X434556Y188828D01*
X434518Y188855D01*
X434414Y188931D01*
X434305Y189024D01*
X434190Y189133D01*
X434081Y189264D01*
X433983Y189417D01*
Y189423D01*
X433972Y189434D01*
X433961Y189461D01*
X433945Y189494D01*
X433928Y189532D01*
X433912Y189576D01*
X433890Y189630D01*
X433868Y189690D01*
X433846Y189756D01*
X433824Y189827D01*
X433792Y189985D01*
X433764Y190154D01*
X433753Y190334D01*
Y190389D01*
X433759Y190422D01*
Y190471D01*
X433770Y190526D01*
X433775Y190586D01*
X433786Y190657D01*
X433819Y190804D01*
X433863Y190962D01*
X433928Y191126D01*
X433966Y191208D01*
X434010Y191290D01*
X434016Y191295D01*
X434021Y191306D01*
X434037Y191328D01*
X434059Y191361D01*
X434081Y191394D01*
X434114Y191432D01*
X434196Y191525D01*
X434294Y191629D01*
X434414Y191738D01*
X434551Y191836D01*
X434709Y191929D01*
X434714D01*
X434731Y191940D01*
X434753Y191951D01*
X434785Y191962D01*
X434829Y191978D01*
X434878Y191994D01*
X434933Y192016D01*
X434993Y192033D01*
X435064Y192054D01*
X435135Y192076D01*
X435299Y192109D01*
X435468Y192131D01*
X435653Y192142D01*
X435659D01*
X435664D01*
X435697D01*
X435746Y192136D01*
D02*
G37*
G36*
X437597Y187375D02*
X434627Y185393D01*
X437597D01*
Y184913D01*
X433819D01*
Y185431D01*
X436784Y187408D01*
X433819D01*
Y187888D01*
X437597D01*
Y187375D01*
D02*
G37*
G36*
Y181364D02*
X437149D01*
Y182609D01*
X433819D01*
Y183111D01*
X437149D01*
Y184356D01*
X437597D01*
Y181364D01*
D02*
G37*
G36*
Y179207D02*
X435118Y178645D01*
X435113D01*
X435102Y178639D01*
X435080Y178634D01*
X435053Y178628D01*
X435015Y178623D01*
X434976Y178612D01*
X434927Y178601D01*
X434873Y178590D01*
X434758Y178563D01*
X434627Y178535D01*
X434485Y178508D01*
X434343Y178481D01*
X434348D01*
X434370Y178475D01*
X434398Y178464D01*
X434441Y178459D01*
X434485Y178448D01*
X434540Y178432D01*
X434660Y178404D01*
X434780Y178372D01*
X434840Y178361D01*
X434895Y178344D01*
X434944Y178333D01*
X434987Y178323D01*
X435020Y178312D01*
X435042Y178306D01*
X437597Y177591D01*
Y176985D01*
X435681Y176450D01*
X435675D01*
X435648Y176439D01*
X435610Y176428D01*
X435561Y176417D01*
X435495Y176400D01*
X435424Y176379D01*
X435342Y176357D01*
X435249Y176335D01*
X435146Y176308D01*
X435042Y176286D01*
X434818Y176237D01*
X434583Y176188D01*
X434343Y176149D01*
X434348D01*
X434359Y176144D01*
X434381D01*
X434409Y176133D01*
X434441Y176128D01*
X434480Y176117D01*
X434529Y176111D01*
X434583Y176095D01*
X434703Y176067D01*
X434845Y176035D01*
X434998Y176002D01*
X435168Y175958D01*
X437597Y175369D01*
Y174861D01*
X433819Y175898D01*
Y176390D01*
X436696Y177181D01*
X436702D01*
X436713Y177187D01*
X436729Y177192D01*
X436756Y177198D01*
X436816Y177214D01*
X436887Y177231D01*
X436964Y177252D01*
X437035Y177274D01*
X437095Y177290D01*
X437122Y177296D01*
X437139Y177301D01*
X437133D01*
X437128Y177307D01*
X437095Y177312D01*
X437046Y177323D01*
X436986Y177340D01*
X436920Y177356D01*
X436844Y177378D01*
X436767Y177394D01*
X436696Y177416D01*
X433819Y178213D01*
Y178737D01*
X437597Y179726D01*
Y179207D01*
D02*
G37*
G36*
X435746Y174539D02*
X435812D01*
X435888Y174528D01*
X435981Y174517D01*
X436085Y174501D01*
X436194Y174479D01*
X436309Y174457D01*
X436429Y174424D01*
X436549Y174380D01*
X436674Y174331D01*
X436795Y174277D01*
X436915Y174206D01*
X437024Y174129D01*
X437128Y174042D01*
X437133Y174036D01*
X437149Y174020D01*
X437177Y173987D01*
X437210Y173949D01*
X437253Y173900D01*
X437297Y173840D01*
X437346Y173769D01*
X437395Y173687D01*
X437444Y173600D01*
X437494Y173501D01*
X437537Y173392D01*
X437581Y173277D01*
X437614Y173152D01*
X437641Y173021D01*
X437657Y172884D01*
X437663Y172737D01*
Y172688D01*
X437657Y172650D01*
Y172600D01*
X437652Y172551D01*
X437641Y172486D01*
X437630Y172420D01*
X437603Y172278D01*
X437559Y172115D01*
X437494Y171956D01*
X437455Y171874D01*
X437412Y171792D01*
X437406Y171787D01*
X437401Y171776D01*
X437384Y171754D01*
X437368Y171721D01*
X437341Y171689D01*
X437308Y171645D01*
X437231Y171552D01*
X437133Y171454D01*
X437013Y171345D01*
X436871Y171241D01*
X436713Y171153D01*
X436707D01*
X436691Y171143D01*
X436669Y171132D01*
X436636Y171121D01*
X436593Y171099D01*
X436543Y171082D01*
X436483Y171061D01*
X436418Y171039D01*
X436347Y171022D01*
X436270Y171001D01*
X436183Y170979D01*
X436096Y170962D01*
X435905Y170941D01*
X435697Y170930D01*
X435692D01*
X435670D01*
X435642D01*
X435599Y170935D01*
X435550D01*
X435490Y170941D01*
X435424Y170951D01*
X435353Y170957D01*
X435195Y170984D01*
X435020Y171028D01*
X434845Y171088D01*
X434758Y171121D01*
X434671Y171164D01*
X434665D01*
X434649Y171175D01*
X434627Y171186D01*
X434594Y171208D01*
X434556Y171230D01*
X434518Y171257D01*
X434414Y171334D01*
X434305Y171426D01*
X434190Y171536D01*
X434081Y171667D01*
X433983Y171820D01*
Y171825D01*
X433972Y171836D01*
X433961Y171863D01*
X433945Y171896D01*
X433928Y171934D01*
X433912Y171978D01*
X433890Y172032D01*
X433868Y172093D01*
X433846Y172158D01*
X433824Y172229D01*
X433792Y172387D01*
X433764Y172557D01*
X433753Y172737D01*
Y172792D01*
X433759Y172824D01*
Y172873D01*
X433770Y172928D01*
X433775Y172988D01*
X433786Y173059D01*
X433819Y173206D01*
X433863Y173365D01*
X433928Y173529D01*
X433966Y173610D01*
X434010Y173692D01*
X434016Y173698D01*
X434021Y173709D01*
X434037Y173731D01*
X434059Y173763D01*
X434081Y173796D01*
X434114Y173834D01*
X434196Y173927D01*
X434294Y174031D01*
X434414Y174140D01*
X434551Y174238D01*
X434709Y174331D01*
X434714D01*
X434731Y174342D01*
X434753Y174353D01*
X434785Y174364D01*
X434829Y174380D01*
X434878Y174397D01*
X434933Y174419D01*
X434993Y174435D01*
X435064Y174457D01*
X435135Y174479D01*
X435299Y174511D01*
X435468Y174533D01*
X435653Y174544D01*
X435659D01*
X435664D01*
X435697D01*
X435746Y174539D01*
D02*
G37*
G36*
X437597Y168527D02*
X437592Y168483D01*
Y168434D01*
X437586Y168320D01*
X437570Y168200D01*
X437554Y168069D01*
X437526Y167948D01*
X437510Y167888D01*
X437494Y167839D01*
Y167834D01*
X437488Y167828D01*
X437472Y167796D01*
X437450Y167746D01*
X437412Y167686D01*
X437362Y167621D01*
X437297Y167550D01*
X437220Y167484D01*
X437133Y167419D01*
X437128D01*
X437122Y167413D01*
X437089Y167392D01*
X437035Y167370D01*
X436964Y167337D01*
X436882Y167310D01*
X436784Y167282D01*
X436680Y167266D01*
X436565Y167261D01*
X436560D01*
X436549D01*
X436527D01*
X436500Y167266D01*
X436461D01*
X436423Y167271D01*
X436331Y167293D01*
X436221Y167326D01*
X436107Y167370D01*
X435992Y167435D01*
X435937Y167479D01*
X435883Y167523D01*
X435877Y167528D01*
X435872Y167534D01*
X435855Y167550D01*
X435839Y167572D01*
X435817Y167599D01*
X435795Y167632D01*
X435768Y167675D01*
X435735Y167719D01*
X435708Y167774D01*
X435681Y167834D01*
X435648Y167899D01*
X435621Y167970D01*
X435599Y168052D01*
X435572Y168134D01*
X435555Y168227D01*
X435539Y168325D01*
X435533Y168314D01*
X435522Y168292D01*
X435501Y168260D01*
X435479Y168216D01*
X435419Y168118D01*
X435381Y168069D01*
X435348Y168025D01*
X435337Y168014D01*
X435310Y167987D01*
X435266Y167943D01*
X435211Y167888D01*
X435135Y167828D01*
X435053Y167757D01*
X434955Y167686D01*
X434845Y167610D01*
X433819Y166960D01*
Y167583D01*
X434605Y168079D01*
X434611D01*
X434621Y168090D01*
X434638Y168101D01*
X434660Y168118D01*
X434720Y168156D01*
X434796Y168205D01*
X434878Y168265D01*
X434966Y168325D01*
X435047Y168385D01*
X435124Y168440D01*
X435129Y168445D01*
X435151Y168462D01*
X435184Y168489D01*
X435222Y168527D01*
X435304Y168609D01*
X435342Y168653D01*
X435375Y168696D01*
X435381Y168702D01*
X435386Y168713D01*
X435397Y168735D01*
X435413Y168767D01*
X435430Y168800D01*
X435446Y168838D01*
X435473Y168926D01*
Y168931D01*
X435479Y168942D01*
Y168964D01*
X435484Y168991D01*
X435490Y169029D01*
Y169073D01*
X435495Y169133D01*
Y169778D01*
X433819D01*
Y170280D01*
X437597D01*
Y168527D01*
D02*
G37*
G36*
Y164716D02*
X437592Y164673D01*
Y164623D01*
X437586Y164509D01*
X437570Y164389D01*
X437554Y164258D01*
X437526Y164137D01*
X437510Y164077D01*
X437494Y164028D01*
Y164023D01*
X437488Y164017D01*
X437472Y163985D01*
X437450Y163935D01*
X437412Y163875D01*
X437362Y163810D01*
X437297Y163739D01*
X437220Y163673D01*
X437133Y163608D01*
X437128D01*
X437122Y163602D01*
X437089Y163581D01*
X437035Y163559D01*
X436964Y163526D01*
X436882Y163499D01*
X436784Y163471D01*
X436680Y163455D01*
X436565Y163449D01*
X436560D01*
X436549D01*
X436527D01*
X436500Y163455D01*
X436461D01*
X436423Y163460D01*
X436331Y163482D01*
X436221Y163515D01*
X436107Y163559D01*
X435992Y163624D01*
X435937Y163668D01*
X435883Y163712D01*
X435877Y163717D01*
X435872Y163722D01*
X435855Y163739D01*
X435839Y163761D01*
X435817Y163788D01*
X435795Y163821D01*
X435768Y163864D01*
X435735Y163908D01*
X435708Y163963D01*
X435681Y164023D01*
X435648Y164088D01*
X435621Y164159D01*
X435599Y164241D01*
X435572Y164323D01*
X435555Y164416D01*
X435539Y164514D01*
X435533Y164503D01*
X435522Y164481D01*
X435501Y164449D01*
X435479Y164405D01*
X435419Y164307D01*
X435381Y164258D01*
X435348Y164214D01*
X435337Y164203D01*
X435310Y164176D01*
X435266Y164132D01*
X435211Y164077D01*
X435135Y164017D01*
X435053Y163946D01*
X434955Y163875D01*
X434845Y163799D01*
X433819Y163149D01*
Y163772D01*
X434605Y164268D01*
X434611D01*
X434621Y164279D01*
X434638Y164290D01*
X434660Y164307D01*
X434720Y164345D01*
X434796Y164394D01*
X434878Y164454D01*
X434966Y164514D01*
X435047Y164574D01*
X435124Y164629D01*
X435129Y164634D01*
X435151Y164651D01*
X435184Y164678D01*
X435222Y164716D01*
X435304Y164798D01*
X435342Y164842D01*
X435375Y164885D01*
X435381Y164891D01*
X435386Y164902D01*
X435397Y164924D01*
X435413Y164956D01*
X435430Y164989D01*
X435446Y165027D01*
X435473Y165115D01*
Y165120D01*
X435479Y165131D01*
Y165153D01*
X435484Y165180D01*
X435490Y165218D01*
Y165262D01*
X435495Y165322D01*
Y165966D01*
X433819D01*
Y166469D01*
X437597D01*
Y164716D01*
D02*
G37*
G36*
Y162456D02*
X436451Y161713D01*
X436445D01*
X436434Y161702D01*
X436418Y161691D01*
X436396Y161680D01*
X436369Y161659D01*
X436336Y161637D01*
X436254Y161588D01*
X436156Y161528D01*
X436047Y161462D01*
X435932Y161391D01*
X435812Y161326D01*
X435817D01*
X435828Y161320D01*
X435845Y161309D01*
X435866Y161293D01*
X435894Y161276D01*
X435926Y161255D01*
X436008Y161205D01*
X436107Y161145D01*
X436221Y161074D01*
X436347Y160992D01*
X436483Y160905D01*
X437597Y160179D01*
Y159595D01*
X435419Y161102D01*
X433819D01*
Y161604D01*
X435419D01*
X437597Y163062D01*
Y162456D01*
D02*
G37*
G36*
Y156646D02*
Y156100D01*
X433819Y154555D01*
Y155123D01*
X434966Y155565D01*
Y157149D01*
X433819Y157558D01*
Y158088D01*
X437597Y156646D01*
D02*
G37*
G36*
Y153643D02*
X434627Y151661D01*
X437597D01*
Y151181D01*
X433819D01*
Y151699D01*
X436784Y153676D01*
X433819D01*
Y154156D01*
X437597D01*
Y153643D01*
D02*
G37*
G36*
Y148888D02*
X437592Y148789D01*
X437586Y148680D01*
X437575Y148571D01*
X437559Y148462D01*
X437543Y148369D01*
Y148363D01*
X437537Y148353D01*
Y148336D01*
X437526Y148314D01*
X437510Y148254D01*
X437483Y148178D01*
X437444Y148091D01*
X437395Y147998D01*
X437341Y147905D01*
X437270Y147818D01*
X437264Y147812D01*
X437259Y147807D01*
X437242Y147790D01*
X437226Y147768D01*
X437171Y147714D01*
X437095Y147648D01*
X437002Y147577D01*
X436893Y147501D01*
X436767Y147430D01*
X436625Y147370D01*
X436620D01*
X436609Y147364D01*
X436587Y147353D01*
X436554Y147348D01*
X436516Y147332D01*
X436473Y147321D01*
X436423Y147310D01*
X436363Y147293D01*
X436303Y147277D01*
X436232Y147266D01*
X436079Y147239D01*
X435910Y147222D01*
X435724Y147217D01*
X435719D01*
X435708D01*
X435681D01*
X435653D01*
X435615Y147222D01*
X435572D01*
X435468Y147228D01*
X435348Y147244D01*
X435222Y147260D01*
X435091Y147288D01*
X434960Y147321D01*
X434955D01*
X434944Y147326D01*
X434927Y147332D01*
X434905Y147337D01*
X434845Y147359D01*
X434769Y147392D01*
X434682Y147424D01*
X434594Y147468D01*
X434501Y147523D01*
X434414Y147577D01*
X434403Y147583D01*
X434376Y147605D01*
X434338Y147637D01*
X434289Y147681D01*
X434234Y147730D01*
X434179Y147790D01*
X434119Y147850D01*
X434070Y147921D01*
X434065Y147932D01*
X434048Y147954D01*
X434026Y147992D01*
X433999Y148047D01*
X433966Y148112D01*
X433939Y148189D01*
X433906Y148276D01*
X433879Y148374D01*
Y148385D01*
X433874Y148402D01*
X433868Y148418D01*
X433863Y148473D01*
X433852Y148549D01*
X433841Y148636D01*
X433830Y148740D01*
X433824Y148855D01*
X433819Y148980D01*
Y150340D01*
X437597D01*
Y148888D01*
D02*
G37*
G36*
X434949Y144864D02*
X434944D01*
X434933D01*
X434911D01*
X434878Y144858D01*
X434845Y144853D01*
X434807D01*
X434714Y144836D01*
X434616Y144820D01*
X434518Y144787D01*
X434430Y144754D01*
X434392Y144732D01*
X434359Y144705D01*
X434354Y144700D01*
X434338Y144678D01*
X434310Y144645D01*
X434283Y144602D01*
X434250Y144542D01*
X434228Y144476D01*
X434207Y144394D01*
X434201Y144307D01*
Y144274D01*
X434207Y144241D01*
X434212Y144192D01*
X434223Y144143D01*
X434234Y144088D01*
X434256Y144034D01*
X434283Y143979D01*
X434289Y143974D01*
X434299Y143957D01*
X434321Y143935D01*
X434343Y143903D01*
X434381Y143875D01*
X434419Y143843D01*
X434463Y143815D01*
X434518Y143793D01*
X434523D01*
X434545Y143782D01*
X434583Y143777D01*
X434632Y143766D01*
X434698Y143755D01*
X434780Y143750D01*
X434878Y143739D01*
X434993D01*
X437597D01*
Y143236D01*
X435020D01*
X435015D01*
X434998D01*
X434976D01*
X434944D01*
X434900Y143242D01*
X434856D01*
X434753Y143253D01*
X434632Y143264D01*
X434507Y143286D01*
X434392Y143318D01*
X434283Y143357D01*
X434277D01*
X434272Y143362D01*
X434239Y143378D01*
X434196Y143406D01*
X434136Y143444D01*
X434075Y143499D01*
X434010Y143559D01*
X433945Y143635D01*
X433890Y143722D01*
X433884Y143733D01*
X433868Y143766D01*
X433846Y143815D01*
X433824Y143886D01*
X433797Y143974D01*
X433775Y144072D01*
X433759Y144181D01*
X433753Y144301D01*
Y144350D01*
X433759Y144383D01*
X433764Y144427D01*
X433770Y144471D01*
X433792Y144585D01*
X433824Y144705D01*
X433874Y144831D01*
X433906Y144896D01*
X433945Y144956D01*
X433988Y145011D01*
X434037Y145066D01*
X434043Y145071D01*
X434048Y145077D01*
X434070Y145087D01*
X434092Y145104D01*
X434119Y145126D01*
X434157Y145148D01*
X434201Y145169D01*
X434250Y145197D01*
X434305Y145219D01*
X434370Y145240D01*
X434436Y145262D01*
X434512Y145284D01*
X434594Y145295D01*
X434687Y145311D01*
X434780Y145317D01*
X434884D01*
X434949Y144864D01*
D02*
G37*
G36*
X437597Y141910D02*
X435413D01*
X435408D01*
X435391D01*
X435364D01*
X435331D01*
X435293Y141904D01*
X435244D01*
X435140Y141899D01*
X435020Y141888D01*
X434900Y141872D01*
X434785Y141850D01*
X434736Y141839D01*
X434687Y141822D01*
X434676Y141817D01*
X434649Y141806D01*
X434611Y141779D01*
X434556Y141746D01*
X434501Y141708D01*
X434441Y141653D01*
X434381Y141588D01*
X434332Y141511D01*
X434327Y141500D01*
X434310Y141473D01*
X434294Y141424D01*
X434272Y141358D01*
X434245Y141282D01*
X434228Y141183D01*
X434212Y141080D01*
X434207Y140965D01*
Y140910D01*
X434212Y140878D01*
Y140829D01*
X434218Y140779D01*
X434239Y140659D01*
X434267Y140528D01*
X434310Y140403D01*
X434370Y140283D01*
X434409Y140228D01*
X434452Y140179D01*
X434458Y140173D01*
X434463Y140168D01*
X434480Y140157D01*
X434501Y140141D01*
X434534Y140124D01*
X434567Y140103D01*
X434616Y140081D01*
X434665Y140059D01*
X434725Y140037D01*
X434796Y140021D01*
X434878Y139999D01*
X434966Y139982D01*
X435064Y139966D01*
X435168Y139955D01*
X435288Y139944D01*
X435413D01*
X437597D01*
Y139442D01*
X435413D01*
X435408D01*
X435386D01*
X435359D01*
X435320D01*
X435271Y139447D01*
X435217D01*
X435151Y139453D01*
X435086Y139458D01*
X434938Y139475D01*
X434785Y139496D01*
X434638Y139529D01*
X434567Y139551D01*
X434501Y139573D01*
X434496D01*
X434485Y139578D01*
X434469Y139589D01*
X434447Y139600D01*
X434387Y139633D01*
X434310Y139682D01*
X434223Y139748D01*
X434136Y139824D01*
X434043Y139922D01*
X433961Y140042D01*
Y140048D01*
X433950Y140059D01*
X433945Y140075D01*
X433928Y140103D01*
X433912Y140135D01*
X433895Y140179D01*
X433879Y140223D01*
X433857Y140277D01*
X433835Y140337D01*
X433819Y140403D01*
X433803Y140474D01*
X433786Y140556D01*
X433775Y140638D01*
X433764Y140725D01*
X433753Y140921D01*
Y140971D01*
X433759Y141009D01*
Y141052D01*
X433764Y141107D01*
X433770Y141167D01*
X433775Y141227D01*
X433797Y141364D01*
X433830Y141511D01*
X433874Y141653D01*
X433934Y141790D01*
Y141795D01*
X433945Y141806D01*
X433955Y141822D01*
X433966Y141844D01*
X434010Y141904D01*
X434070Y141975D01*
X434146Y142057D01*
X434234Y142134D01*
X434343Y142210D01*
X434463Y142270D01*
X434469D01*
X434480Y142276D01*
X434501Y142281D01*
X434529Y142292D01*
X434561Y142303D01*
X434605Y142314D01*
X434654Y142330D01*
X434714Y142341D01*
X434780Y142352D01*
X434851Y142368D01*
X434927Y142379D01*
X435009Y142390D01*
X435102Y142401D01*
X435200Y142407D01*
X435304Y142412D01*
X435413D01*
X437597D01*
Y141910D01*
D02*
G37*
G36*
X435075Y138306D02*
X435069D01*
X435064D01*
X435047Y138301D01*
X435026D01*
X434976Y138290D01*
X434905Y138273D01*
X434834Y138251D01*
X434753Y138230D01*
X434676Y138191D01*
X434605Y138153D01*
X434600Y138148D01*
X434578Y138131D01*
X434540Y138104D01*
X434501Y138060D01*
X434452Y138006D01*
X434403Y137946D01*
X434354Y137864D01*
X434310Y137777D01*
Y137771D01*
X434305Y137766D01*
X434299Y137749D01*
X434294Y137733D01*
X434277Y137678D01*
X434256Y137607D01*
X434234Y137520D01*
X434218Y137422D01*
X434207Y137312D01*
X434201Y137192D01*
Y137143D01*
X434207Y137089D01*
X434212Y137023D01*
X434223Y136947D01*
X434234Y136859D01*
X434256Y136772D01*
X434283Y136690D01*
X434289Y136679D01*
X434299Y136652D01*
X434321Y136614D01*
X434343Y136564D01*
X434381Y136515D01*
X434419Y136461D01*
X434463Y136406D01*
X434518Y136362D01*
X434523Y136357D01*
X434545Y136346D01*
X434572Y136330D01*
X434616Y136308D01*
X434660Y136286D01*
X434714Y136270D01*
X434774Y136259D01*
X434840Y136253D01*
X434845D01*
X434873D01*
X434905Y136259D01*
X434949Y136264D01*
X434993Y136281D01*
X435047Y136297D01*
X435102Y136324D01*
X435151Y136362D01*
X435157Y136368D01*
X435173Y136384D01*
X435195Y136406D01*
X435228Y136444D01*
X435260Y136488D01*
X435299Y136548D01*
X435337Y136619D01*
X435369Y136701D01*
X435375Y136706D01*
X435381Y136734D01*
X435397Y136777D01*
X435402Y136805D01*
X435413Y136843D01*
X435430Y136881D01*
X435440Y136930D01*
X435457Y136985D01*
X435473Y137050D01*
X435490Y137116D01*
X435511Y137192D01*
X435533Y137280D01*
X435555Y137373D01*
Y137378D01*
X435561Y137394D01*
X435566Y137422D01*
X435577Y137454D01*
X435588Y137498D01*
X435599Y137547D01*
X435632Y137656D01*
X435670Y137777D01*
X435708Y137902D01*
X435746Y138011D01*
X435768Y138060D01*
X435790Y138104D01*
Y138110D01*
X435795Y138115D01*
X435817Y138148D01*
X435845Y138197D01*
X435888Y138251D01*
X435937Y138317D01*
X435997Y138383D01*
X436068Y138448D01*
X436145Y138503D01*
X436156Y138508D01*
X436183Y138524D01*
X436227Y138546D01*
X436281Y138568D01*
X436352Y138590D01*
X436434Y138612D01*
X436522Y138628D01*
X436614Y138634D01*
X436620D01*
X436625D01*
X436642D01*
X436664D01*
X436718Y138623D01*
X436789Y138612D01*
X436871Y138595D01*
X436964Y138568D01*
X437057Y138530D01*
X437149Y138475D01*
X437155D01*
X437160Y138470D01*
X437193Y138443D01*
X437237Y138404D01*
X437291Y138355D01*
X437352Y138290D01*
X437417Y138208D01*
X437477Y138110D01*
X437532Y138000D01*
Y137995D01*
X437537Y137984D01*
X437543Y137968D01*
X437554Y137946D01*
X437565Y137918D01*
X437575Y137880D01*
X437597Y137798D01*
X437619Y137695D01*
X437641Y137575D01*
X437657Y137449D01*
X437663Y137307D01*
Y137236D01*
X437657Y137198D01*
Y137160D01*
X437646Y137056D01*
X437630Y136941D01*
X437603Y136821D01*
X437570Y136690D01*
X437526Y136570D01*
Y136564D01*
X437521Y136554D01*
X437510Y136537D01*
X437499Y136515D01*
X437472Y136461D01*
X437423Y136390D01*
X437368Y136308D01*
X437297Y136226D01*
X437215Y136149D01*
X437122Y136078D01*
X437117D01*
X437111Y136073D01*
X437095Y136062D01*
X437079Y136051D01*
X437024Y136024D01*
X436953Y135991D01*
X436866Y135953D01*
X436762Y135926D01*
X436653Y135898D01*
X436532Y135887D01*
X436494Y136368D01*
X436500D01*
X436511D01*
X436527Y136373D01*
X436554Y136379D01*
X436614Y136395D01*
X436696Y136417D01*
X436784Y136450D01*
X436871Y136499D01*
X436953Y136559D01*
X437029Y136635D01*
X437035Y136646D01*
X437057Y136674D01*
X437089Y136728D01*
X437122Y136799D01*
X437155Y136892D01*
X437188Y137001D01*
X437210Y137138D01*
X437215Y137291D01*
Y137367D01*
X437210Y137400D01*
X437204Y137443D01*
X437193Y137542D01*
X437171Y137651D01*
X437144Y137760D01*
X437100Y137864D01*
X437073Y137908D01*
X437046Y137951D01*
X437040Y137962D01*
X437018Y137984D01*
X436980Y138017D01*
X436937Y138049D01*
X436876Y138088D01*
X436811Y138120D01*
X436734Y138142D01*
X436647Y138153D01*
X436636D01*
X436614D01*
X436576Y138148D01*
X436532Y138137D01*
X436478Y138120D01*
X436423Y138093D01*
X436369Y138060D01*
X436314Y138011D01*
X436309Y138006D01*
X436292Y137978D01*
X436276Y137957D01*
X436265Y137935D01*
X436249Y137902D01*
X436227Y137864D01*
X436210Y137815D01*
X436189Y137760D01*
X436167Y137700D01*
X436139Y137629D01*
X436118Y137553D01*
X436090Y137465D01*
X436068Y137367D01*
X436041Y137258D01*
Y137252D01*
X436036Y137231D01*
X436030Y137198D01*
X436019Y137160D01*
X436008Y137110D01*
X435992Y137050D01*
X435976Y136990D01*
X435959Y136925D01*
X435921Y136783D01*
X435883Y136646D01*
X435861Y136581D01*
X435839Y136521D01*
X435823Y136466D01*
X435801Y136422D01*
Y136417D01*
X435795Y136406D01*
X435784Y136390D01*
X435774Y136368D01*
X435741Y136308D01*
X435697Y136237D01*
X435637Y136155D01*
X435572Y136073D01*
X435495Y135997D01*
X435413Y135931D01*
X435402Y135926D01*
X435375Y135904D01*
X435326Y135882D01*
X435260Y135849D01*
X435184Y135822D01*
X435091Y135794D01*
X434987Y135778D01*
X434878Y135773D01*
X434873D01*
X434867D01*
X434851D01*
X434829D01*
X434769Y135784D01*
X434692Y135794D01*
X434605Y135816D01*
X434512Y135844D01*
X434414Y135887D01*
X434310Y135947D01*
X434305D01*
X434299Y135953D01*
X434267Y135980D01*
X434218Y136018D01*
X434163Y136073D01*
X434097Y136144D01*
X434026Y136231D01*
X433961Y136330D01*
X433901Y136444D01*
Y136450D01*
X433895Y136461D01*
X433890Y136477D01*
X433879Y136499D01*
X433868Y136532D01*
X433852Y136570D01*
X433830Y136657D01*
X433803Y136761D01*
X433775Y136887D01*
X433759Y137023D01*
X433753Y137171D01*
Y137258D01*
X433759Y137302D01*
Y137351D01*
X433764Y137405D01*
X433770Y137471D01*
X433792Y137607D01*
X433813Y137749D01*
X433852Y137891D01*
X433901Y138028D01*
Y138033D01*
X433906Y138044D01*
X433917Y138060D01*
X433928Y138082D01*
X433961Y138148D01*
X434010Y138224D01*
X434075Y138312D01*
X434152Y138404D01*
X434245Y138492D01*
X434348Y138574D01*
X434354D01*
X434365Y138585D01*
X434381Y138590D01*
X434403Y138606D01*
X434430Y138617D01*
X434463Y138634D01*
X434545Y138672D01*
X434649Y138710D01*
X434763Y138743D01*
X434895Y138765D01*
X435031Y138776D01*
X435075Y138306D01*
D02*
G37*
G36*
X437597Y132377D02*
X437149D01*
Y133622D01*
X433819D01*
Y134124D01*
X437149D01*
Y135369D01*
X437597D01*
Y132377D01*
D02*
G37*
G36*
X435834Y130531D02*
X435888D01*
X435943Y130526D01*
X436014Y130520D01*
X436085Y130509D01*
X436243Y130482D01*
X436418Y130444D01*
X436593Y130389D01*
X436762Y130313D01*
X436767Y130307D01*
X436784Y130302D01*
X436805Y130291D01*
X436833Y130269D01*
X436871Y130247D01*
X436915Y130220D01*
X437013Y130149D01*
X437122Y130056D01*
X437231Y129947D01*
X437341Y129821D01*
X437433Y129674D01*
X437439Y129668D01*
X437444Y129652D01*
X437455Y129630D01*
X437472Y129603D01*
X437488Y129559D01*
X437504Y129516D01*
X437526Y129461D01*
X437548Y129401D01*
X437570Y129335D01*
X437592Y129264D01*
X437625Y129112D01*
X437652Y128937D01*
X437663Y128757D01*
Y128702D01*
X437657Y128664D01*
X437652Y128615D01*
X437646Y128555D01*
X437641Y128495D01*
X437625Y128424D01*
X437592Y128276D01*
X437543Y128112D01*
X437510Y128030D01*
X437472Y127954D01*
X437423Y127877D01*
X437373Y127801D01*
X437368Y127796D01*
X437362Y127785D01*
X437346Y127763D01*
X437319Y127736D01*
X437291Y127708D01*
X437253Y127670D01*
X437210Y127632D01*
X437166Y127588D01*
X437111Y127544D01*
X437046Y127501D01*
X436980Y127452D01*
X436909Y127408D01*
X436827Y127370D01*
X436746Y127326D01*
X436658Y127293D01*
X436560Y127260D01*
X436445Y127752D01*
X436451D01*
X436461Y127757D01*
X436483Y127768D01*
X436511Y127779D01*
X436543Y127790D01*
X436587Y127806D01*
X436674Y127850D01*
X436773Y127905D01*
X436871Y127970D01*
X436964Y128052D01*
X437046Y128140D01*
X437057Y128150D01*
X437079Y128183D01*
X437106Y128238D01*
X437144Y128309D01*
X437177Y128402D01*
X437210Y128505D01*
X437231Y128631D01*
X437237Y128768D01*
Y128811D01*
X437231Y128839D01*
Y128877D01*
X437226Y128920D01*
X437210Y129024D01*
X437188Y129139D01*
X437149Y129259D01*
X437095Y129385D01*
X437024Y129499D01*
Y129505D01*
X437013Y129510D01*
X436986Y129548D01*
X436942Y129597D01*
X436876Y129657D01*
X436795Y129728D01*
X436702Y129794D01*
X436587Y129854D01*
X436461Y129909D01*
X436456D01*
X436445Y129914D01*
X436429Y129920D01*
X436402Y129925D01*
X436369Y129936D01*
X436331Y129947D01*
X436238Y129963D01*
X436129Y129985D01*
X436008Y130007D01*
X435877Y130018D01*
X435735Y130023D01*
X435730D01*
X435713D01*
X435686D01*
X435653D01*
X435615Y130018D01*
X435566D01*
X435511Y130012D01*
X435451Y130007D01*
X435320Y129991D01*
X435178Y129963D01*
X435037Y129930D01*
X434895Y129887D01*
X434889D01*
X434878Y129881D01*
X434862Y129870D01*
X434834Y129859D01*
X434769Y129827D01*
X434692Y129778D01*
X434605Y129718D01*
X434512Y129641D01*
X434430Y129554D01*
X434354Y129450D01*
Y129445D01*
X434348Y129434D01*
X434338Y129417D01*
X434327Y129395D01*
X434316Y129368D01*
X434299Y129335D01*
X434267Y129259D01*
X434234Y129161D01*
X434207Y129051D01*
X434185Y128931D01*
X434179Y128806D01*
Y128768D01*
X434185Y128735D01*
Y128697D01*
X434190Y128658D01*
X434212Y128560D01*
X434239Y128445D01*
X434283Y128331D01*
X434343Y128211D01*
X434376Y128150D01*
X434419Y128096D01*
X434425Y128091D01*
X434430Y128085D01*
X434447Y128069D01*
X434463Y128047D01*
X434490Y128025D01*
X434523Y127998D01*
X434556Y127965D01*
X434600Y127938D01*
X434649Y127905D01*
X434703Y127867D01*
X434758Y127834D01*
X434824Y127801D01*
X434895Y127774D01*
X434971Y127746D01*
X435053Y127719D01*
X435140Y127697D01*
X435015Y127195D01*
X435009D01*
X434987Y127200D01*
X434955Y127211D01*
X434911Y127228D01*
X434862Y127244D01*
X434802Y127266D01*
X434736Y127293D01*
X434665Y127326D01*
X434512Y127402D01*
X434359Y127501D01*
X434283Y127561D01*
X434207Y127621D01*
X434141Y127686D01*
X434075Y127763D01*
X434070Y127768D01*
X434059Y127779D01*
X434048Y127806D01*
X434026Y127834D01*
X433999Y127877D01*
X433972Y127921D01*
X433945Y127981D01*
X433917Y128041D01*
X433884Y128112D01*
X433857Y128189D01*
X433830Y128271D01*
X433803Y128358D01*
X433781Y128451D01*
X433770Y128549D01*
X433759Y128653D01*
X433753Y128762D01*
Y128822D01*
X433759Y128866D01*
Y128915D01*
X433764Y128975D01*
X433775Y129041D01*
X433786Y129117D01*
X433813Y129275D01*
X433857Y129439D01*
X433917Y129603D01*
X433955Y129679D01*
X433999Y129756D01*
X434004Y129761D01*
X434010Y129772D01*
X434026Y129794D01*
X434048Y129816D01*
X434070Y129849D01*
X434103Y129887D01*
X434141Y129930D01*
X434185Y129974D01*
X434234Y130018D01*
X434283Y130067D01*
X434409Y130165D01*
X434556Y130258D01*
X434720Y130340D01*
X434725D01*
X434742Y130351D01*
X434769Y130356D01*
X434802Y130373D01*
X434845Y130384D01*
X434900Y130400D01*
X434960Y130422D01*
X435026Y130438D01*
X435097Y130455D01*
X435178Y130476D01*
X435348Y130504D01*
X435539Y130526D01*
X435735Y130537D01*
X435741D01*
X435763D01*
X435795D01*
X435834Y130531D01*
D02*
G37*
G36*
X437597Y126070D02*
X435413D01*
X435408D01*
X435391D01*
X435364D01*
X435331D01*
X435293Y126065D01*
X435244D01*
X435140Y126059D01*
X435020Y126048D01*
X434900Y126032D01*
X434785Y126010D01*
X434736Y125999D01*
X434687Y125983D01*
X434676Y125977D01*
X434649Y125967D01*
X434611Y125939D01*
X434556Y125907D01*
X434501Y125868D01*
X434441Y125814D01*
X434381Y125748D01*
X434332Y125672D01*
X434327Y125661D01*
X434310Y125634D01*
X434294Y125584D01*
X434272Y125519D01*
X434245Y125442D01*
X434228Y125344D01*
X434212Y125240D01*
X434207Y125126D01*
Y125071D01*
X434212Y125038D01*
Y124989D01*
X434218Y124940D01*
X434239Y124820D01*
X434267Y124689D01*
X434310Y124563D01*
X434370Y124443D01*
X434409Y124389D01*
X434452Y124339D01*
X434458Y124334D01*
X434463Y124328D01*
X434480Y124318D01*
X434501Y124301D01*
X434534Y124285D01*
X434567Y124263D01*
X434616Y124241D01*
X434665Y124219D01*
X434725Y124197D01*
X434796Y124181D01*
X434878Y124159D01*
X434966Y124143D01*
X435064Y124127D01*
X435168Y124116D01*
X435288Y124105D01*
X435413D01*
X437597D01*
Y123602D01*
X435413D01*
X435408D01*
X435386D01*
X435359D01*
X435320D01*
X435271Y123608D01*
X435217D01*
X435151Y123613D01*
X435086Y123619D01*
X434938Y123635D01*
X434785Y123657D01*
X434638Y123690D01*
X434567Y123712D01*
X434501Y123733D01*
X434496D01*
X434485Y123739D01*
X434469Y123750D01*
X434447Y123761D01*
X434387Y123793D01*
X434310Y123843D01*
X434223Y123908D01*
X434136Y123985D01*
X434043Y124083D01*
X433961Y124203D01*
Y124208D01*
X433950Y124219D01*
X433945Y124236D01*
X433928Y124263D01*
X433912Y124296D01*
X433895Y124339D01*
X433879Y124383D01*
X433857Y124438D01*
X433835Y124498D01*
X433819Y124563D01*
X433803Y124634D01*
X433786Y124716D01*
X433775Y124798D01*
X433764Y124885D01*
X433753Y125082D01*
Y125131D01*
X433759Y125169D01*
Y125213D01*
X433764Y125268D01*
X433770Y125328D01*
X433775Y125388D01*
X433797Y125524D01*
X433830Y125672D01*
X433874Y125814D01*
X433934Y125950D01*
Y125956D01*
X433945Y125967D01*
X433955Y125983D01*
X433966Y126005D01*
X434010Y126065D01*
X434070Y126136D01*
X434146Y126218D01*
X434234Y126294D01*
X434343Y126371D01*
X434463Y126431D01*
X434469D01*
X434480Y126436D01*
X434501Y126442D01*
X434529Y126453D01*
X434561Y126463D01*
X434605Y126474D01*
X434654Y126491D01*
X434714Y126502D01*
X434780Y126513D01*
X434851Y126529D01*
X434927Y126540D01*
X435009Y126551D01*
X435102Y126562D01*
X435200Y126567D01*
X435304Y126573D01*
X435413D01*
X437597D01*
Y126070D01*
D02*
G37*
G36*
Y120059D02*
X437149D01*
Y121304D01*
X433819D01*
Y121806D01*
X437149D01*
Y123051D01*
X437597D01*
Y120059D01*
D02*
G37*
G36*
Y117487D02*
X433819D01*
Y117990D01*
X437597D01*
Y117487D01*
D02*
G37*
G36*
Y113894D02*
X437149D01*
Y115139D01*
X433819D01*
Y115642D01*
X437149D01*
Y116887D01*
X437597D01*
Y113894D01*
D02*
G37*
G36*
Y110880D02*
Y110335D01*
X433819Y108789D01*
Y109357D01*
X434966Y109800D01*
Y111383D01*
X433819Y111792D01*
Y112322D01*
X437597Y110880D01*
D02*
G37*
G36*
X435834Y108527D02*
X435888D01*
X435943Y108522D01*
X436014Y108516D01*
X436085Y108505D01*
X436243Y108478D01*
X436418Y108440D01*
X436593Y108385D01*
X436762Y108309D01*
X436767Y108303D01*
X436784Y108298D01*
X436805Y108287D01*
X436833Y108265D01*
X436871Y108243D01*
X436915Y108216D01*
X437013Y108145D01*
X437122Y108052D01*
X437231Y107943D01*
X437341Y107817D01*
X437433Y107670D01*
X437439Y107665D01*
X437444Y107648D01*
X437455Y107626D01*
X437472Y107599D01*
X437488Y107555D01*
X437504Y107512D01*
X437526Y107457D01*
X437548Y107397D01*
X437570Y107332D01*
X437592Y107261D01*
X437625Y107108D01*
X437652Y106933D01*
X437663Y106753D01*
Y106698D01*
X437657Y106660D01*
X437652Y106611D01*
X437646Y106551D01*
X437641Y106491D01*
X437625Y106420D01*
X437592Y106272D01*
X437543Y106108D01*
X437510Y106027D01*
X437472Y105950D01*
X437423Y105874D01*
X437373Y105797D01*
X437368Y105792D01*
X437362Y105781D01*
X437346Y105759D01*
X437319Y105732D01*
X437291Y105704D01*
X437253Y105666D01*
X437210Y105628D01*
X437166Y105584D01*
X437111Y105541D01*
X437046Y105497D01*
X436980Y105448D01*
X436909Y105404D01*
X436827Y105366D01*
X436746Y105322D01*
X436658Y105289D01*
X436560Y105257D01*
X436445Y105748D01*
X436451D01*
X436461Y105754D01*
X436483Y105764D01*
X436511Y105775D01*
X436543Y105786D01*
X436587Y105803D01*
X436674Y105846D01*
X436773Y105901D01*
X436871Y105967D01*
X436964Y106049D01*
X437046Y106136D01*
X437057Y106147D01*
X437079Y106179D01*
X437106Y106234D01*
X437144Y106305D01*
X437177Y106398D01*
X437210Y106502D01*
X437231Y106627D01*
X437237Y106764D01*
Y106807D01*
X437231Y106835D01*
Y106873D01*
X437226Y106917D01*
X437210Y107020D01*
X437188Y107135D01*
X437149Y107255D01*
X437095Y107381D01*
X437024Y107495D01*
Y107501D01*
X437013Y107506D01*
X436986Y107545D01*
X436942Y107594D01*
X436876Y107654D01*
X436795Y107725D01*
X436702Y107790D01*
X436587Y107850D01*
X436461Y107905D01*
X436456D01*
X436445Y107910D01*
X436429Y107916D01*
X436402Y107921D01*
X436369Y107932D01*
X436331Y107943D01*
X436238Y107959D01*
X436129Y107981D01*
X436008Y108003D01*
X435877Y108014D01*
X435735Y108019D01*
X435730D01*
X435713D01*
X435686D01*
X435653D01*
X435615Y108014D01*
X435566D01*
X435511Y108009D01*
X435451Y108003D01*
X435320Y107987D01*
X435178Y107959D01*
X435037Y107927D01*
X434895Y107883D01*
X434889D01*
X434878Y107878D01*
X434862Y107867D01*
X434834Y107856D01*
X434769Y107823D01*
X434692Y107774D01*
X434605Y107714D01*
X434512Y107637D01*
X434430Y107550D01*
X434354Y107446D01*
Y107441D01*
X434348Y107430D01*
X434338Y107413D01*
X434327Y107392D01*
X434316Y107364D01*
X434299Y107332D01*
X434267Y107255D01*
X434234Y107157D01*
X434207Y107048D01*
X434185Y106928D01*
X434179Y106802D01*
Y106764D01*
X434185Y106731D01*
Y106693D01*
X434190Y106655D01*
X434212Y106556D01*
X434239Y106442D01*
X434283Y106327D01*
X434343Y106207D01*
X434376Y106147D01*
X434419Y106092D01*
X434425Y106087D01*
X434430Y106081D01*
X434447Y106065D01*
X434463Y106043D01*
X434490Y106021D01*
X434523Y105994D01*
X434556Y105961D01*
X434600Y105934D01*
X434649Y105901D01*
X434703Y105863D01*
X434758Y105830D01*
X434824Y105797D01*
X434895Y105770D01*
X434971Y105743D01*
X435053Y105715D01*
X435140Y105694D01*
X435015Y105191D01*
X435009D01*
X434987Y105197D01*
X434955Y105208D01*
X434911Y105224D01*
X434862Y105240D01*
X434802Y105262D01*
X434736Y105289D01*
X434665Y105322D01*
X434512Y105399D01*
X434359Y105497D01*
X434283Y105557D01*
X434207Y105617D01*
X434141Y105683D01*
X434075Y105759D01*
X434070Y105764D01*
X434059Y105775D01*
X434048Y105803D01*
X434026Y105830D01*
X433999Y105874D01*
X433972Y105917D01*
X433945Y105977D01*
X433917Y106037D01*
X433884Y106108D01*
X433857Y106185D01*
X433830Y106267D01*
X433803Y106354D01*
X433781Y106447D01*
X433770Y106545D01*
X433759Y106649D01*
X433753Y106758D01*
Y106818D01*
X433759Y106862D01*
Y106911D01*
X433764Y106971D01*
X433775Y107037D01*
X433786Y107113D01*
X433813Y107272D01*
X433857Y107435D01*
X433917Y107599D01*
X433955Y107676D01*
X433999Y107752D01*
X434004Y107757D01*
X434010Y107768D01*
X434026Y107790D01*
X434048Y107812D01*
X434070Y107845D01*
X434103Y107883D01*
X434141Y107927D01*
X434185Y107970D01*
X434234Y108014D01*
X434283Y108063D01*
X434409Y108161D01*
X434556Y108254D01*
X434720Y108336D01*
X434725D01*
X434742Y108347D01*
X434769Y108353D01*
X434802Y108369D01*
X434845Y108380D01*
X434900Y108396D01*
X434960Y108418D01*
X435026Y108434D01*
X435097Y108451D01*
X435178Y108473D01*
X435348Y108500D01*
X435539Y108522D01*
X435735Y108533D01*
X435741D01*
X435763D01*
X435795D01*
X435834Y108527D01*
D02*
G37*
G36*
Y104716D02*
X435888D01*
X435943Y104711D01*
X436014Y104705D01*
X436085Y104694D01*
X436243Y104667D01*
X436418Y104629D01*
X436593Y104574D01*
X436762Y104498D01*
X436767Y104492D01*
X436784Y104487D01*
X436805Y104476D01*
X436833Y104454D01*
X436871Y104432D01*
X436915Y104405D01*
X437013Y104334D01*
X437122Y104241D01*
X437231Y104132D01*
X437341Y104006D01*
X437433Y103859D01*
X437439Y103853D01*
X437444Y103837D01*
X437455Y103815D01*
X437472Y103788D01*
X437488Y103744D01*
X437504Y103701D01*
X437526Y103646D01*
X437548Y103586D01*
X437570Y103521D01*
X437592Y103449D01*
X437625Y103297D01*
X437652Y103122D01*
X437663Y102942D01*
Y102887D01*
X437657Y102849D01*
X437652Y102800D01*
X437646Y102740D01*
X437641Y102680D01*
X437625Y102609D01*
X437592Y102461D01*
X437543Y102297D01*
X437510Y102216D01*
X437472Y102139D01*
X437423Y102063D01*
X437373Y101986D01*
X437368Y101981D01*
X437362Y101970D01*
X437346Y101948D01*
X437319Y101921D01*
X437291Y101893D01*
X437253Y101855D01*
X437210Y101817D01*
X437166Y101773D01*
X437111Y101730D01*
X437046Y101686D01*
X436980Y101637D01*
X436909Y101593D01*
X436827Y101555D01*
X436746Y101511D01*
X436658Y101478D01*
X436560Y101446D01*
X436445Y101937D01*
X436451D01*
X436461Y101943D01*
X436483Y101953D01*
X436511Y101964D01*
X436543Y101975D01*
X436587Y101992D01*
X436674Y102035D01*
X436773Y102090D01*
X436871Y102155D01*
X436964Y102237D01*
X437046Y102325D01*
X437057Y102336D01*
X437079Y102368D01*
X437106Y102423D01*
X437144Y102494D01*
X437177Y102587D01*
X437210Y102691D01*
X437231Y102816D01*
X437237Y102953D01*
Y102996D01*
X437231Y103024D01*
Y103062D01*
X437226Y103105D01*
X437210Y103209D01*
X437188Y103324D01*
X437149Y103444D01*
X437095Y103570D01*
X437024Y103684D01*
Y103690D01*
X437013Y103695D01*
X436986Y103733D01*
X436942Y103782D01*
X436876Y103843D01*
X436795Y103914D01*
X436702Y103979D01*
X436587Y104039D01*
X436461Y104094D01*
X436456D01*
X436445Y104099D01*
X436429Y104105D01*
X436402Y104110D01*
X436369Y104121D01*
X436331Y104132D01*
X436238Y104148D01*
X436129Y104170D01*
X436008Y104192D01*
X435877Y104203D01*
X435735Y104208D01*
X435730D01*
X435713D01*
X435686D01*
X435653D01*
X435615Y104203D01*
X435566D01*
X435511Y104198D01*
X435451Y104192D01*
X435320Y104176D01*
X435178Y104148D01*
X435037Y104116D01*
X434895Y104072D01*
X434889D01*
X434878Y104067D01*
X434862Y104056D01*
X434834Y104045D01*
X434769Y104012D01*
X434692Y103963D01*
X434605Y103903D01*
X434512Y103826D01*
X434430Y103739D01*
X434354Y103635D01*
Y103630D01*
X434348Y103619D01*
X434338Y103602D01*
X434327Y103580D01*
X434316Y103553D01*
X434299Y103521D01*
X434267Y103444D01*
X434234Y103346D01*
X434207Y103237D01*
X434185Y103116D01*
X434179Y102991D01*
Y102953D01*
X434185Y102920D01*
Y102882D01*
X434190Y102843D01*
X434212Y102745D01*
X434239Y102630D01*
X434283Y102516D01*
X434343Y102396D01*
X434376Y102336D01*
X434419Y102281D01*
X434425Y102276D01*
X434430Y102270D01*
X434447Y102254D01*
X434463Y102232D01*
X434490Y102210D01*
X434523Y102183D01*
X434556Y102150D01*
X434600Y102123D01*
X434649Y102090D01*
X434703Y102052D01*
X434758Y102019D01*
X434824Y101986D01*
X434895Y101959D01*
X434971Y101932D01*
X435053Y101904D01*
X435140Y101883D01*
X435015Y101380D01*
X435009D01*
X434987Y101386D01*
X434955Y101397D01*
X434911Y101413D01*
X434862Y101429D01*
X434802Y101451D01*
X434736Y101478D01*
X434665Y101511D01*
X434512Y101588D01*
X434359Y101686D01*
X434283Y101746D01*
X434207Y101806D01*
X434141Y101872D01*
X434075Y101948D01*
X434070Y101953D01*
X434059Y101964D01*
X434048Y101992D01*
X434026Y102019D01*
X433999Y102063D01*
X433972Y102106D01*
X433945Y102166D01*
X433917Y102226D01*
X433884Y102297D01*
X433857Y102374D01*
X433830Y102456D01*
X433803Y102543D01*
X433781Y102636D01*
X433770Y102734D01*
X433759Y102838D01*
X433753Y102947D01*
Y103007D01*
X433759Y103051D01*
Y103100D01*
X433764Y103160D01*
X433775Y103226D01*
X433786Y103302D01*
X433813Y103460D01*
X433857Y103624D01*
X433917Y103788D01*
X433955Y103865D01*
X433999Y103941D01*
X434004Y103946D01*
X434010Y103957D01*
X434026Y103979D01*
X434048Y104001D01*
X434070Y104034D01*
X434103Y104072D01*
X434141Y104116D01*
X434185Y104159D01*
X434234Y104203D01*
X434283Y104252D01*
X434409Y104350D01*
X434556Y104443D01*
X434720Y104525D01*
X434725D01*
X434742Y104536D01*
X434769Y104542D01*
X434802Y104558D01*
X434845Y104569D01*
X434900Y104585D01*
X434960Y104607D01*
X435026Y104623D01*
X435097Y104640D01*
X435178Y104662D01*
X435348Y104689D01*
X435539Y104711D01*
X435735Y104722D01*
X435741D01*
X435763D01*
X435795D01*
X435834Y104716D01*
D02*
G37*
G36*
X435746Y100911D02*
X435812D01*
X435888Y100900D01*
X435981Y100889D01*
X436085Y100872D01*
X436194Y100850D01*
X436309Y100829D01*
X436429Y100796D01*
X436549Y100752D01*
X436674Y100703D01*
X436795Y100648D01*
X436915Y100577D01*
X437024Y100501D01*
X437128Y100414D01*
X437133Y100408D01*
X437149Y100392D01*
X437177Y100359D01*
X437210Y100321D01*
X437253Y100272D01*
X437297Y100212D01*
X437346Y100141D01*
X437395Y100059D01*
X437444Y99971D01*
X437494Y99873D01*
X437537Y99764D01*
X437581Y99649D01*
X437614Y99524D01*
X437641Y99393D01*
X437657Y99256D01*
X437663Y99109D01*
Y99060D01*
X437657Y99021D01*
Y98972D01*
X437652Y98923D01*
X437641Y98858D01*
X437630Y98792D01*
X437603Y98650D01*
X437559Y98486D01*
X437494Y98328D01*
X437455Y98246D01*
X437412Y98164D01*
X437406Y98159D01*
X437401Y98148D01*
X437384Y98126D01*
X437368Y98093D01*
X437341Y98061D01*
X437308Y98017D01*
X437231Y97924D01*
X437133Y97826D01*
X437013Y97716D01*
X436871Y97613D01*
X436713Y97525D01*
X436707D01*
X436691Y97514D01*
X436669Y97504D01*
X436636Y97493D01*
X436593Y97471D01*
X436543Y97454D01*
X436483Y97433D01*
X436418Y97411D01*
X436347Y97394D01*
X436270Y97373D01*
X436183Y97351D01*
X436096Y97334D01*
X435905Y97312D01*
X435697Y97302D01*
X435692D01*
X435670D01*
X435642D01*
X435599Y97307D01*
X435550D01*
X435490Y97312D01*
X435424Y97323D01*
X435353Y97329D01*
X435195Y97356D01*
X435020Y97400D01*
X434845Y97460D01*
X434758Y97493D01*
X434671Y97536D01*
X434665D01*
X434649Y97547D01*
X434627Y97558D01*
X434594Y97580D01*
X434556Y97602D01*
X434518Y97629D01*
X434414Y97706D01*
X434305Y97798D01*
X434190Y97908D01*
X434081Y98039D01*
X433983Y98191D01*
Y98197D01*
X433972Y98208D01*
X433961Y98235D01*
X433945Y98268D01*
X433928Y98306D01*
X433912Y98350D01*
X433890Y98404D01*
X433868Y98465D01*
X433846Y98530D01*
X433824Y98601D01*
X433792Y98759D01*
X433764Y98929D01*
X433753Y99109D01*
Y99163D01*
X433759Y99196D01*
Y99245D01*
X433770Y99300D01*
X433775Y99360D01*
X433786Y99431D01*
X433819Y99578D01*
X433863Y99737D01*
X433928Y99901D01*
X433966Y99982D01*
X434010Y100064D01*
X434016Y100070D01*
X434021Y100081D01*
X434037Y100102D01*
X434059Y100135D01*
X434081Y100168D01*
X434114Y100206D01*
X434196Y100299D01*
X434294Y100403D01*
X434414Y100512D01*
X434551Y100610D01*
X434709Y100703D01*
X434714D01*
X434731Y100714D01*
X434753Y100725D01*
X434785Y100736D01*
X434829Y100752D01*
X434878Y100769D01*
X434933Y100791D01*
X434993Y100807D01*
X435064Y100829D01*
X435135Y100850D01*
X435299Y100883D01*
X435468Y100905D01*
X435653Y100916D01*
X435659D01*
X435664D01*
X435697D01*
X435746Y100911D01*
D02*
G37*
G36*
X437597Y94899D02*
X437592Y94855D01*
Y94806D01*
X437586Y94692D01*
X437570Y94572D01*
X437554Y94441D01*
X437526Y94320D01*
X437510Y94260D01*
X437494Y94211D01*
Y94206D01*
X437488Y94200D01*
X437472Y94168D01*
X437450Y94118D01*
X437412Y94058D01*
X437362Y93993D01*
X437297Y93922D01*
X437220Y93856D01*
X437133Y93791D01*
X437128D01*
X437122Y93785D01*
X437089Y93764D01*
X437035Y93742D01*
X436964Y93709D01*
X436882Y93682D01*
X436784Y93654D01*
X436680Y93638D01*
X436565Y93632D01*
X436560D01*
X436549D01*
X436527D01*
X436500Y93638D01*
X436461D01*
X436423Y93643D01*
X436331Y93665D01*
X436221Y93698D01*
X436107Y93742D01*
X435992Y93807D01*
X435937Y93851D01*
X435883Y93894D01*
X435877Y93900D01*
X435872Y93905D01*
X435855Y93922D01*
X435839Y93944D01*
X435817Y93971D01*
X435795Y94004D01*
X435768Y94047D01*
X435735Y94091D01*
X435708Y94146D01*
X435681Y94206D01*
X435648Y94271D01*
X435621Y94342D01*
X435599Y94424D01*
X435572Y94506D01*
X435555Y94599D01*
X435539Y94697D01*
X435533Y94686D01*
X435522Y94664D01*
X435501Y94632D01*
X435479Y94588D01*
X435419Y94490D01*
X435381Y94441D01*
X435348Y94397D01*
X435337Y94386D01*
X435310Y94359D01*
X435266Y94315D01*
X435211Y94260D01*
X435135Y94200D01*
X435053Y94129D01*
X434955Y94058D01*
X434845Y93982D01*
X433819Y93332D01*
Y93954D01*
X434605Y94451D01*
X434611D01*
X434621Y94462D01*
X434638Y94473D01*
X434660Y94490D01*
X434720Y94528D01*
X434796Y94577D01*
X434878Y94637D01*
X434966Y94697D01*
X435047Y94757D01*
X435124Y94812D01*
X435129Y94817D01*
X435151Y94834D01*
X435184Y94861D01*
X435222Y94899D01*
X435304Y94981D01*
X435342Y95025D01*
X435375Y95068D01*
X435381Y95074D01*
X435386Y95085D01*
X435397Y95107D01*
X435413Y95139D01*
X435430Y95172D01*
X435446Y95210D01*
X435473Y95298D01*
Y95303D01*
X435479Y95314D01*
Y95336D01*
X435484Y95363D01*
X435490Y95401D01*
Y95445D01*
X435495Y95505D01*
Y96149D01*
X433819D01*
Y96652D01*
X437597D01*
Y94899D01*
D02*
G37*
G36*
Y91394D02*
X437592Y91295D01*
X437586Y91186D01*
X437575Y91077D01*
X437559Y90968D01*
X437543Y90875D01*
Y90870D01*
X437537Y90859D01*
Y90842D01*
X437526Y90820D01*
X437510Y90760D01*
X437483Y90684D01*
X437444Y90597D01*
X437395Y90504D01*
X437341Y90411D01*
X437270Y90324D01*
X437264Y90318D01*
X437259Y90313D01*
X437242Y90296D01*
X437226Y90275D01*
X437171Y90220D01*
X437095Y90154D01*
X437002Y90083D01*
X436893Y90007D01*
X436767Y89936D01*
X436625Y89876D01*
X436620D01*
X436609Y89871D01*
X436587Y89860D01*
X436554Y89854D01*
X436516Y89838D01*
X436473Y89827D01*
X436423Y89816D01*
X436363Y89799D01*
X436303Y89783D01*
X436232Y89772D01*
X436079Y89745D01*
X435910Y89728D01*
X435724Y89723D01*
X435719D01*
X435708D01*
X435681D01*
X435653D01*
X435615Y89728D01*
X435572D01*
X435468Y89734D01*
X435348Y89750D01*
X435222Y89767D01*
X435091Y89794D01*
X434960Y89827D01*
X434955D01*
X434944Y89832D01*
X434927Y89838D01*
X434905Y89843D01*
X434845Y89865D01*
X434769Y89898D01*
X434682Y89930D01*
X434594Y89974D01*
X434501Y90029D01*
X434414Y90083D01*
X434403Y90089D01*
X434376Y90111D01*
X434338Y90144D01*
X434289Y90187D01*
X434234Y90236D01*
X434179Y90296D01*
X434119Y90356D01*
X434070Y90427D01*
X434065Y90438D01*
X434048Y90460D01*
X434026Y90498D01*
X433999Y90553D01*
X433966Y90618D01*
X433939Y90695D01*
X433906Y90782D01*
X433879Y90881D01*
Y90891D01*
X433874Y90908D01*
X433868Y90924D01*
X433863Y90979D01*
X433852Y91055D01*
X433841Y91143D01*
X433830Y91246D01*
X433824Y91361D01*
X433819Y91487D01*
Y92846D01*
X437597D01*
Y91394D01*
D02*
G37*
G36*
Y88451D02*
X433819D01*
Y88953D01*
X437597D01*
Y88451D01*
D02*
G37*
G36*
Y87059D02*
X434627Y85077D01*
X437597D01*
Y84596D01*
X433819D01*
Y85115D01*
X436784Y87091D01*
X433819D01*
Y87572D01*
X437597D01*
Y87059D01*
D02*
G37*
G36*
X435779Y83881D02*
X435828D01*
X435888Y83875D01*
X435948Y83864D01*
X436019Y83859D01*
X436096Y83843D01*
X436178Y83832D01*
X436352Y83788D01*
X436532Y83733D01*
X436713Y83657D01*
X436718Y83652D01*
X436734Y83646D01*
X436756Y83635D01*
X436789Y83613D01*
X436833Y83592D01*
X436876Y83564D01*
X436980Y83488D01*
X437100Y83395D01*
X437215Y83280D01*
X437330Y83149D01*
X437379Y83073D01*
X437428Y82996D01*
X437433Y82991D01*
X437439Y82974D01*
X437450Y82953D01*
X437466Y82920D01*
X437483Y82876D01*
X437504Y82827D01*
X437526Y82772D01*
X437548Y82707D01*
X437570Y82636D01*
X437586Y82560D01*
X437608Y82478D01*
X437625Y82390D01*
X437652Y82199D01*
X437663Y82101D01*
Y81926D01*
X437657Y81893D01*
Y81850D01*
X437646Y81746D01*
X437630Y81631D01*
X437603Y81511D01*
X437570Y81380D01*
X437526Y81255D01*
Y81249D01*
X437521Y81238D01*
X437515Y81222D01*
X437504Y81200D01*
X437472Y81140D01*
X437433Y81063D01*
X437379Y80982D01*
X437313Y80894D01*
X437242Y80812D01*
X437155Y80736D01*
X437144Y80725D01*
X437111Y80703D01*
X437062Y80670D01*
X436991Y80627D01*
X436904Y80583D01*
X436795Y80534D01*
X436674Y80485D01*
X436538Y80446D01*
X436418Y80900D01*
X436423D01*
X436429Y80905D01*
X436445Y80911D01*
X436467Y80916D01*
X436516Y80932D01*
X436582Y80954D01*
X436658Y80987D01*
X436729Y81025D01*
X436805Y81063D01*
X436871Y81113D01*
X436876Y81118D01*
X436898Y81134D01*
X436926Y81167D01*
X436964Y81205D01*
X437008Y81255D01*
X437051Y81320D01*
X437095Y81391D01*
X437133Y81473D01*
X437139Y81484D01*
X437149Y81511D01*
X437166Y81560D01*
X437188Y81626D01*
X437204Y81702D01*
X437220Y81790D01*
X437231Y81888D01*
X437237Y81992D01*
Y82052D01*
X437231Y82079D01*
Y82112D01*
X437226Y82194D01*
X437210Y82287D01*
X437193Y82390D01*
X437166Y82489D01*
X437128Y82587D01*
X437122Y82598D01*
X437111Y82630D01*
X437084Y82674D01*
X437057Y82729D01*
X437013Y82794D01*
X436969Y82865D01*
X436915Y82931D01*
X436855Y82991D01*
X436849Y82996D01*
X436827Y83018D01*
X436789Y83046D01*
X436746Y83078D01*
X436691Y83116D01*
X436625Y83155D01*
X436554Y83193D01*
X436478Y83231D01*
X436473D01*
X436461Y83237D01*
X436445Y83242D01*
X436418Y83253D01*
X436385Y83264D01*
X436347Y83275D01*
X436303Y83291D01*
X436254Y83302D01*
X436139Y83329D01*
X436008Y83351D01*
X435872Y83368D01*
X435719Y83373D01*
X435713D01*
X435697D01*
X435670D01*
X435637Y83368D01*
X435593D01*
X435539Y83362D01*
X435484Y83357D01*
X435424Y83351D01*
X435288Y83329D01*
X435146Y83302D01*
X435004Y83258D01*
X434867Y83204D01*
X434862D01*
X434851Y83193D01*
X434834Y83187D01*
X434813Y83171D01*
X434753Y83133D01*
X434676Y83073D01*
X434594Y83002D01*
X434512Y82914D01*
X434436Y82811D01*
X434365Y82696D01*
Y82691D01*
X434359Y82680D01*
X434348Y82663D01*
X434338Y82636D01*
X434327Y82609D01*
X434316Y82570D01*
X434283Y82483D01*
X434256Y82374D01*
X434228Y82254D01*
X434207Y82123D01*
X434201Y81986D01*
Y81932D01*
X434207Y81899D01*
Y81866D01*
X434218Y81784D01*
X434228Y81686D01*
X434250Y81582D01*
X434283Y81467D01*
X434321Y81353D01*
Y81347D01*
X434327Y81336D01*
X434332Y81326D01*
X434343Y81304D01*
X434370Y81244D01*
X434403Y81178D01*
X434441Y81102D01*
X434485Y81020D01*
X434534Y80943D01*
X434589Y80878D01*
X435299D01*
Y81992D01*
X435746D01*
Y80387D01*
X434343D01*
X434338Y80392D01*
X434332Y80403D01*
X434316Y80425D01*
X434294Y80452D01*
X434272Y80485D01*
X434245Y80523D01*
X434212Y80572D01*
X434179Y80621D01*
X434108Y80736D01*
X434032Y80867D01*
X433961Y81003D01*
X433901Y81151D01*
Y81156D01*
X433895Y81167D01*
X433890Y81189D01*
X433879Y81216D01*
X433868Y81255D01*
X433852Y81298D01*
X433841Y81347D01*
X433830Y81397D01*
X433803Y81517D01*
X433775Y81653D01*
X433759Y81801D01*
X433753Y81954D01*
Y82008D01*
X433759Y82046D01*
Y82095D01*
X433764Y82156D01*
X433775Y82221D01*
X433781Y82292D01*
X433813Y82450D01*
X433852Y82620D01*
X433912Y82794D01*
X433945Y82882D01*
X433988Y82969D01*
X433994Y82974D01*
X433999Y82991D01*
X434016Y83013D01*
X434032Y83046D01*
X434059Y83084D01*
X434086Y83122D01*
X434163Y83226D01*
X434261Y83335D01*
X434381Y83450D01*
X434518Y83559D01*
X434676Y83657D01*
X434682D01*
X434698Y83668D01*
X434720Y83679D01*
X434758Y83695D01*
X434796Y83712D01*
X434851Y83728D01*
X434905Y83750D01*
X434971Y83772D01*
X435042Y83793D01*
X435124Y83815D01*
X435206Y83832D01*
X435293Y83848D01*
X435484Y83875D01*
X435686Y83886D01*
X435692D01*
X435713D01*
X435741D01*
X435779Y83881D01*
D02*
G37*
G36*
X437597Y75472D02*
X437149D01*
Y76717D01*
X433819D01*
Y77220D01*
X437149D01*
Y78465D01*
X437597D01*
Y75472D01*
D02*
G37*
G36*
X435746Y75101D02*
X435812D01*
X435888Y75090D01*
X435981Y75079D01*
X436085Y75063D01*
X436194Y75041D01*
X436309Y75019D01*
X436429Y74986D01*
X436549Y74943D01*
X436674Y74894D01*
X436795Y74839D01*
X436915Y74768D01*
X437024Y74692D01*
X437128Y74604D01*
X437133Y74599D01*
X437149Y74582D01*
X437177Y74550D01*
X437210Y74511D01*
X437253Y74462D01*
X437297Y74402D01*
X437346Y74331D01*
X437395Y74249D01*
X437444Y74162D01*
X437494Y74064D01*
X437537Y73955D01*
X437581Y73840D01*
X437614Y73714D01*
X437641Y73583D01*
X437657Y73447D01*
X437663Y73299D01*
Y73250D01*
X437657Y73212D01*
Y73163D01*
X437652Y73114D01*
X437641Y73048D01*
X437630Y72983D01*
X437603Y72841D01*
X437559Y72677D01*
X437494Y72519D01*
X437455Y72437D01*
X437412Y72355D01*
X437406Y72349D01*
X437401Y72338D01*
X437384Y72317D01*
X437368Y72284D01*
X437341Y72251D01*
X437308Y72207D01*
X437231Y72114D01*
X437133Y72016D01*
X437013Y71907D01*
X436871Y71803D01*
X436713Y71716D01*
X436707D01*
X436691Y71705D01*
X436669Y71694D01*
X436636Y71683D01*
X436593Y71661D01*
X436543Y71645D01*
X436483Y71623D01*
X436418Y71601D01*
X436347Y71585D01*
X436270Y71563D01*
X436183Y71541D01*
X436096Y71525D01*
X435905Y71503D01*
X435697Y71492D01*
X435692D01*
X435670D01*
X435642D01*
X435599Y71498D01*
X435550D01*
X435490Y71503D01*
X435424Y71514D01*
X435353Y71519D01*
X435195Y71547D01*
X435020Y71590D01*
X434845Y71650D01*
X434758Y71683D01*
X434671Y71727D01*
X434665D01*
X434649Y71738D01*
X434627Y71749D01*
X434594Y71771D01*
X434556Y71792D01*
X434518Y71820D01*
X434414Y71896D01*
X434305Y71989D01*
X434190Y72098D01*
X434081Y72229D01*
X433983Y72382D01*
Y72387D01*
X433972Y72399D01*
X433961Y72426D01*
X433945Y72458D01*
X433928Y72497D01*
X433912Y72540D01*
X433890Y72595D01*
X433868Y72655D01*
X433846Y72721D01*
X433824Y72792D01*
X433792Y72950D01*
X433764Y73119D01*
X433753Y73299D01*
Y73354D01*
X433759Y73387D01*
Y73436D01*
X433770Y73491D01*
X433775Y73550D01*
X433786Y73621D01*
X433819Y73769D01*
X433863Y73927D01*
X433928Y74091D01*
X433966Y74173D01*
X434010Y74255D01*
X434016Y74260D01*
X434021Y74271D01*
X434037Y74293D01*
X434059Y74326D01*
X434081Y74359D01*
X434114Y74397D01*
X434196Y74490D01*
X434294Y74593D01*
X434414Y74703D01*
X434551Y74801D01*
X434709Y74894D01*
X434714D01*
X434731Y74905D01*
X434753Y74915D01*
X434785Y74926D01*
X434829Y74943D01*
X434878Y74959D01*
X434933Y74981D01*
X434993Y74997D01*
X435064Y75019D01*
X435135Y75041D01*
X435299Y75074D01*
X435468Y75096D01*
X435653Y75107D01*
X435659D01*
X435664D01*
X435697D01*
X435746Y75101D01*
D02*
G37*
G36*
X435779Y69505D02*
X435828D01*
X435888Y69499D01*
X435948Y69488D01*
X436019Y69483D01*
X436096Y69466D01*
X436178Y69455D01*
X436352Y69412D01*
X436532Y69357D01*
X436713Y69281D01*
X436718Y69275D01*
X436734Y69270D01*
X436756Y69259D01*
X436789Y69237D01*
X436833Y69215D01*
X436876Y69188D01*
X436980Y69112D01*
X437100Y69019D01*
X437215Y68904D01*
X437330Y68773D01*
X437379Y68697D01*
X437428Y68620D01*
X437433Y68615D01*
X437439Y68598D01*
X437450Y68577D01*
X437466Y68544D01*
X437483Y68500D01*
X437504Y68451D01*
X437526Y68396D01*
X437548Y68331D01*
X437570Y68260D01*
X437586Y68183D01*
X437608Y68101D01*
X437625Y68014D01*
X437652Y67823D01*
X437663Y67725D01*
Y67550D01*
X437657Y67517D01*
Y67474D01*
X437646Y67370D01*
X437630Y67255D01*
X437603Y67135D01*
X437570Y67004D01*
X437526Y66878D01*
Y66873D01*
X437521Y66862D01*
X437515Y66846D01*
X437504Y66824D01*
X437472Y66764D01*
X437433Y66687D01*
X437379Y66605D01*
X437313Y66518D01*
X437242Y66436D01*
X437155Y66360D01*
X437144Y66349D01*
X437111Y66327D01*
X437062Y66294D01*
X436991Y66250D01*
X436904Y66207D01*
X436795Y66158D01*
X436674Y66109D01*
X436538Y66070D01*
X436418Y66523D01*
X436423D01*
X436429Y66529D01*
X436445Y66534D01*
X436467Y66540D01*
X436516Y66556D01*
X436582Y66578D01*
X436658Y66611D01*
X436729Y66649D01*
X436805Y66687D01*
X436871Y66737D01*
X436876Y66742D01*
X436898Y66758D01*
X436926Y66791D01*
X436964Y66829D01*
X437008Y66878D01*
X437051Y66944D01*
X437095Y67015D01*
X437133Y67097D01*
X437139Y67108D01*
X437149Y67135D01*
X437166Y67184D01*
X437188Y67250D01*
X437204Y67326D01*
X437220Y67414D01*
X437231Y67512D01*
X437237Y67615D01*
Y67676D01*
X437231Y67703D01*
Y67736D01*
X437226Y67817D01*
X437210Y67910D01*
X437193Y68014D01*
X437166Y68112D01*
X437128Y68211D01*
X437122Y68222D01*
X437111Y68254D01*
X437084Y68298D01*
X437057Y68353D01*
X437013Y68418D01*
X436969Y68489D01*
X436915Y68555D01*
X436855Y68615D01*
X436849Y68620D01*
X436827Y68642D01*
X436789Y68669D01*
X436746Y68702D01*
X436691Y68740D01*
X436625Y68779D01*
X436554Y68817D01*
X436478Y68855D01*
X436473D01*
X436461Y68860D01*
X436445Y68866D01*
X436418Y68877D01*
X436385Y68888D01*
X436347Y68899D01*
X436303Y68915D01*
X436254Y68926D01*
X436139Y68953D01*
X436008Y68975D01*
X435872Y68991D01*
X435719Y68997D01*
X435713D01*
X435697D01*
X435670D01*
X435637Y68991D01*
X435593D01*
X435539Y68986D01*
X435484Y68980D01*
X435424Y68975D01*
X435288Y68953D01*
X435146Y68926D01*
X435004Y68882D01*
X434867Y68828D01*
X434862D01*
X434851Y68817D01*
X434834Y68811D01*
X434813Y68795D01*
X434753Y68757D01*
X434676Y68697D01*
X434594Y68626D01*
X434512Y68538D01*
X434436Y68435D01*
X434365Y68320D01*
Y68314D01*
X434359Y68304D01*
X434348Y68287D01*
X434338Y68260D01*
X434327Y68233D01*
X434316Y68194D01*
X434283Y68107D01*
X434256Y67998D01*
X434228Y67878D01*
X434207Y67747D01*
X434201Y67610D01*
Y67555D01*
X434207Y67523D01*
Y67490D01*
X434218Y67408D01*
X434228Y67310D01*
X434250Y67206D01*
X434283Y67091D01*
X434321Y66977D01*
Y66971D01*
X434327Y66960D01*
X434332Y66949D01*
X434343Y66927D01*
X434370Y66868D01*
X434403Y66802D01*
X434441Y66725D01*
X434485Y66644D01*
X434534Y66567D01*
X434589Y66502D01*
X435299D01*
Y67615D01*
X435746D01*
Y66010D01*
X434343D01*
X434338Y66016D01*
X434332Y66027D01*
X434316Y66049D01*
X434294Y66076D01*
X434272Y66109D01*
X434245Y66147D01*
X434212Y66196D01*
X434179Y66245D01*
X434108Y66360D01*
X434032Y66491D01*
X433961Y66627D01*
X433901Y66775D01*
Y66780D01*
X433895Y66791D01*
X433890Y66813D01*
X433879Y66840D01*
X433868Y66878D01*
X433852Y66922D01*
X433841Y66971D01*
X433830Y67020D01*
X433803Y67141D01*
X433775Y67277D01*
X433759Y67424D01*
X433753Y67577D01*
Y67632D01*
X433759Y67670D01*
Y67719D01*
X433764Y67779D01*
X433775Y67845D01*
X433781Y67916D01*
X433813Y68074D01*
X433852Y68243D01*
X433912Y68418D01*
X433945Y68506D01*
X433988Y68593D01*
X433994Y68598D01*
X433999Y68615D01*
X434016Y68637D01*
X434032Y68669D01*
X434059Y68708D01*
X434086Y68746D01*
X434163Y68849D01*
X434261Y68959D01*
X434381Y69073D01*
X434518Y69182D01*
X434676Y69281D01*
X434682D01*
X434698Y69292D01*
X434720Y69303D01*
X434758Y69319D01*
X434796Y69335D01*
X434851Y69352D01*
X434905Y69374D01*
X434971Y69396D01*
X435042Y69417D01*
X435124Y69439D01*
X435206Y69455D01*
X435293Y69472D01*
X435484Y69499D01*
X435686Y69510D01*
X435692D01*
X435713D01*
X435741D01*
X435779Y69505D01*
D02*
G37*
G36*
X437597Y62532D02*
X437149D01*
Y64765D01*
X435997D01*
Y62674D01*
X435550D01*
Y64765D01*
X434267D01*
Y62445D01*
X433819D01*
Y65268D01*
X437597D01*
Y62532D01*
D02*
G37*
G36*
Y59993D02*
X437592Y59950D01*
Y59900D01*
X437586Y59786D01*
X437570Y59666D01*
X437554Y59535D01*
X437526Y59415D01*
X437510Y59355D01*
X437494Y59305D01*
Y59300D01*
X437488Y59294D01*
X437472Y59262D01*
X437450Y59213D01*
X437412Y59153D01*
X437362Y59087D01*
X437297Y59016D01*
X437220Y58951D01*
X437133Y58885D01*
X437128D01*
X437122Y58880D01*
X437089Y58858D01*
X437035Y58836D01*
X436964Y58803D01*
X436882Y58776D01*
X436784Y58749D01*
X436680Y58732D01*
X436565Y58727D01*
X436560D01*
X436549D01*
X436527D01*
X436500Y58732D01*
X436461D01*
X436423Y58737D01*
X436331Y58759D01*
X436221Y58792D01*
X436107Y58836D01*
X435992Y58901D01*
X435937Y58945D01*
X435883Y58989D01*
X435877Y58994D01*
X435872Y59000D01*
X435855Y59016D01*
X435839Y59038D01*
X435817Y59065D01*
X435795Y59098D01*
X435768Y59142D01*
X435735Y59185D01*
X435708Y59240D01*
X435681Y59300D01*
X435648Y59365D01*
X435621Y59436D01*
X435599Y59518D01*
X435572Y59600D01*
X435555Y59693D01*
X435539Y59791D01*
X435533Y59780D01*
X435522Y59759D01*
X435501Y59726D01*
X435479Y59682D01*
X435419Y59584D01*
X435381Y59535D01*
X435348Y59491D01*
X435337Y59480D01*
X435310Y59453D01*
X435266Y59409D01*
X435211Y59355D01*
X435135Y59294D01*
X435053Y59224D01*
X434955Y59153D01*
X434845Y59076D01*
X433819Y58426D01*
Y59049D01*
X434605Y59546D01*
X434611D01*
X434621Y59557D01*
X434638Y59567D01*
X434660Y59584D01*
X434720Y59622D01*
X434796Y59671D01*
X434878Y59731D01*
X434966Y59791D01*
X435047Y59851D01*
X435124Y59906D01*
X435129Y59912D01*
X435151Y59928D01*
X435184Y59955D01*
X435222Y59993D01*
X435304Y60075D01*
X435342Y60119D01*
X435375Y60163D01*
X435381Y60168D01*
X435386Y60179D01*
X435397Y60201D01*
X435413Y60234D01*
X435430Y60266D01*
X435446Y60305D01*
X435473Y60392D01*
Y60397D01*
X435479Y60408D01*
Y60430D01*
X435484Y60457D01*
X435490Y60496D01*
Y60539D01*
X435495Y60599D01*
Y61244D01*
X433819D01*
Y61746D01*
X437597D01*
Y59993D01*
D02*
G37*
G36*
Y56477D02*
X437592Y56439D01*
Y56395D01*
X437581Y56297D01*
X437570Y56188D01*
X437548Y56073D01*
X437521Y55958D01*
X437483Y55855D01*
Y55849D01*
X437477Y55844D01*
X437461Y55811D01*
X437433Y55762D01*
X437395Y55707D01*
X437346Y55642D01*
X437286Y55571D01*
X437210Y55505D01*
X437128Y55445D01*
X437117Y55440D01*
X437084Y55423D01*
X437040Y55396D01*
X436975Y55369D01*
X436898Y55341D01*
X436816Y55314D01*
X436724Y55298D01*
X436631Y55292D01*
X436620D01*
X436593D01*
X436543Y55298D01*
X436483Y55309D01*
X436412Y55325D01*
X436336Y55352D01*
X436260Y55385D01*
X436178Y55429D01*
X436167Y55434D01*
X436145Y55451D01*
X436101Y55483D01*
X436058Y55527D01*
X436003Y55582D01*
X435943Y55647D01*
X435888Y55729D01*
X435834Y55822D01*
Y55816D01*
X435828Y55805D01*
X435823Y55789D01*
X435812Y55767D01*
X435790Y55702D01*
X435752Y55625D01*
X435703Y55543D01*
X435642Y55451D01*
X435572Y55369D01*
X435484Y55292D01*
X435473Y55287D01*
X435440Y55265D01*
X435391Y55232D01*
X435326Y55199D01*
X435239Y55167D01*
X435146Y55134D01*
X435037Y55112D01*
X434916Y55107D01*
X434911D01*
X434905D01*
X434873D01*
X434818Y55112D01*
X434753Y55123D01*
X434676Y55134D01*
X434594Y55156D01*
X434507Y55183D01*
X434419Y55221D01*
X434409Y55227D01*
X434381Y55243D01*
X434343Y55265D01*
X434289Y55298D01*
X434234Y55341D01*
X434174Y55385D01*
X434114Y55440D01*
X434065Y55500D01*
X434059Y55505D01*
X434043Y55527D01*
X434021Y55565D01*
X433999Y55614D01*
X433966Y55674D01*
X433934Y55746D01*
X433906Y55822D01*
X433879Y55915D01*
Y55926D01*
X433868Y55958D01*
X433863Y56013D01*
X433852Y56084D01*
X433841Y56171D01*
X433830Y56275D01*
X433824Y56390D01*
X433819Y56521D01*
Y57962D01*
X437597D01*
Y56477D01*
D02*
G37*
G36*
Y51678D02*
X437149D01*
Y53911D01*
X435997D01*
Y51820D01*
X435550D01*
Y53911D01*
X434267D01*
Y51590D01*
X433819D01*
Y54413D01*
X437597D01*
Y51678D01*
D02*
G37*
G36*
Y49139D02*
X437592Y49095D01*
Y49046D01*
X437586Y48931D01*
X437570Y48811D01*
X437554Y48680D01*
X437526Y48560D01*
X437510Y48500D01*
X437494Y48451D01*
Y48445D01*
X437488Y48440D01*
X437472Y48407D01*
X437450Y48358D01*
X437412Y48298D01*
X437362Y48232D01*
X437297Y48162D01*
X437220Y48096D01*
X437133Y48030D01*
X437128D01*
X437122Y48025D01*
X437089Y48003D01*
X437035Y47981D01*
X436964Y47949D01*
X436882Y47921D01*
X436784Y47894D01*
X436680Y47878D01*
X436565Y47872D01*
X436560D01*
X436549D01*
X436527D01*
X436500Y47878D01*
X436461D01*
X436423Y47883D01*
X436331Y47905D01*
X436221Y47938D01*
X436107Y47981D01*
X435992Y48047D01*
X435937Y48091D01*
X435883Y48134D01*
X435877Y48140D01*
X435872Y48145D01*
X435855Y48162D01*
X435839Y48183D01*
X435817Y48211D01*
X435795Y48243D01*
X435768Y48287D01*
X435735Y48331D01*
X435708Y48385D01*
X435681Y48445D01*
X435648Y48511D01*
X435621Y48582D01*
X435599Y48664D01*
X435572Y48746D01*
X435555Y48839D01*
X435539Y48937D01*
X435533Y48926D01*
X435522Y48904D01*
X435501Y48871D01*
X435479Y48828D01*
X435419Y48729D01*
X435381Y48680D01*
X435348Y48636D01*
X435337Y48626D01*
X435310Y48598D01*
X435266Y48555D01*
X435211Y48500D01*
X435135Y48440D01*
X435053Y48369D01*
X434955Y48298D01*
X434845Y48222D01*
X433819Y47572D01*
Y48194D01*
X434605Y48691D01*
X434611D01*
X434621Y48702D01*
X434638Y48713D01*
X434660Y48729D01*
X434720Y48768D01*
X434796Y48817D01*
X434878Y48877D01*
X434966Y48937D01*
X435047Y48997D01*
X435124Y49051D01*
X435129Y49057D01*
X435151Y49073D01*
X435184Y49101D01*
X435222Y49139D01*
X435304Y49221D01*
X435342Y49264D01*
X435375Y49308D01*
X435381Y49314D01*
X435386Y49325D01*
X435397Y49346D01*
X435413Y49379D01*
X435430Y49412D01*
X435446Y49450D01*
X435473Y49538D01*
Y49543D01*
X435479Y49554D01*
Y49576D01*
X435484Y49603D01*
X435490Y49641D01*
Y49685D01*
X435495Y49745D01*
Y50389D01*
X433819D01*
Y50892D01*
X437597D01*
Y49139D01*
D02*
G37*
G36*
Y43040D02*
X437149D01*
Y45093D01*
X435981D01*
Y43319D01*
X435533D01*
Y45093D01*
X433819D01*
Y45595D01*
X437597D01*
Y43040D01*
D02*
G37*
G36*
Y41806D02*
X433819D01*
Y42308D01*
X437597D01*
Y41806D01*
D02*
G37*
G36*
Y40441D02*
X434267D01*
Y38579D01*
X433819D01*
Y40943D01*
X437597D01*
Y40441D01*
D02*
G37*
G36*
Y35243D02*
X437149D01*
Y37476D01*
X435997D01*
Y35385D01*
X435550D01*
Y37476D01*
X434267D01*
Y35156D01*
X433819D01*
Y37979D01*
X437597D01*
Y35243D01*
D02*
G37*
G36*
X435075Y34162D02*
X435069D01*
X435064D01*
X435047Y34157D01*
X435026D01*
X434976Y34146D01*
X434905Y34129D01*
X434834Y34108D01*
X434753Y34086D01*
X434676Y34047D01*
X434605Y34009D01*
X434600Y34004D01*
X434578Y33987D01*
X434540Y33960D01*
X434501Y33916D01*
X434452Y33862D01*
X434403Y33802D01*
X434354Y33720D01*
X434310Y33632D01*
Y33627D01*
X434305Y33622D01*
X434299Y33605D01*
X434294Y33589D01*
X434277Y33534D01*
X434256Y33463D01*
X434234Y33376D01*
X434218Y33278D01*
X434207Y33168D01*
X434201Y33048D01*
Y32999D01*
X434207Y32945D01*
X434212Y32879D01*
X434223Y32803D01*
X434234Y32715D01*
X434256Y32628D01*
X434283Y32546D01*
X434289Y32535D01*
X434299Y32508D01*
X434321Y32469D01*
X434343Y32420D01*
X434381Y32371D01*
X434419Y32317D01*
X434463Y32262D01*
X434518Y32218D01*
X434523Y32213D01*
X434545Y32202D01*
X434572Y32186D01*
X434616Y32164D01*
X434660Y32142D01*
X434714Y32125D01*
X434774Y32115D01*
X434840Y32109D01*
X434845D01*
X434873D01*
X434905Y32115D01*
X434949Y32120D01*
X434993Y32136D01*
X435047Y32153D01*
X435102Y32180D01*
X435151Y32218D01*
X435157Y32224D01*
X435173Y32240D01*
X435195Y32262D01*
X435228Y32300D01*
X435260Y32344D01*
X435299Y32404D01*
X435337Y32475D01*
X435369Y32557D01*
X435375Y32562D01*
X435381Y32590D01*
X435397Y32633D01*
X435402Y32661D01*
X435413Y32699D01*
X435430Y32737D01*
X435440Y32786D01*
X435457Y32841D01*
X435473Y32906D01*
X435490Y32972D01*
X435511Y33048D01*
X435533Y33136D01*
X435555Y33228D01*
Y33234D01*
X435561Y33250D01*
X435566Y33278D01*
X435577Y33310D01*
X435588Y33354D01*
X435599Y33403D01*
X435632Y33512D01*
X435670Y33632D01*
X435708Y33758D01*
X435746Y33867D01*
X435768Y33916D01*
X435790Y33960D01*
Y33966D01*
X435795Y33971D01*
X435817Y34004D01*
X435845Y34053D01*
X435888Y34108D01*
X435937Y34173D01*
X435997Y34238D01*
X436068Y34304D01*
X436145Y34359D01*
X436156Y34364D01*
X436183Y34380D01*
X436227Y34402D01*
X436281Y34424D01*
X436352Y34446D01*
X436434Y34468D01*
X436522Y34484D01*
X436614Y34490D01*
X436620D01*
X436625D01*
X436642D01*
X436664D01*
X436718Y34479D01*
X436789Y34468D01*
X436871Y34451D01*
X436964Y34424D01*
X437057Y34386D01*
X437149Y34331D01*
X437155D01*
X437160Y34326D01*
X437193Y34299D01*
X437237Y34260D01*
X437291Y34211D01*
X437352Y34146D01*
X437417Y34064D01*
X437477Y33966D01*
X437532Y33856D01*
Y33851D01*
X437537Y33840D01*
X437543Y33824D01*
X437554Y33802D01*
X437565Y33774D01*
X437575Y33736D01*
X437597Y33654D01*
X437619Y33551D01*
X437641Y33430D01*
X437657Y33305D01*
X437663Y33163D01*
Y33092D01*
X437657Y33054D01*
Y33015D01*
X437646Y32912D01*
X437630Y32797D01*
X437603Y32677D01*
X437570Y32546D01*
X437526Y32426D01*
Y32420D01*
X437521Y32409D01*
X437510Y32393D01*
X437499Y32371D01*
X437472Y32317D01*
X437423Y32246D01*
X437368Y32164D01*
X437297Y32082D01*
X437215Y32005D01*
X437122Y31934D01*
X437117D01*
X437111Y31929D01*
X437095Y31918D01*
X437079Y31907D01*
X437024Y31880D01*
X436953Y31847D01*
X436866Y31809D01*
X436762Y31782D01*
X436653Y31754D01*
X436532Y31743D01*
X436494Y32224D01*
X436500D01*
X436511D01*
X436527Y32229D01*
X436554Y32235D01*
X436614Y32251D01*
X436696Y32273D01*
X436784Y32306D01*
X436871Y32355D01*
X436953Y32415D01*
X437029Y32491D01*
X437035Y32502D01*
X437057Y32530D01*
X437089Y32584D01*
X437122Y32655D01*
X437155Y32748D01*
X437188Y32857D01*
X437210Y32994D01*
X437215Y33147D01*
Y33223D01*
X437210Y33256D01*
X437204Y33299D01*
X437193Y33398D01*
X437171Y33507D01*
X437144Y33616D01*
X437100Y33720D01*
X437073Y33764D01*
X437046Y33807D01*
X437040Y33818D01*
X437018Y33840D01*
X436980Y33873D01*
X436937Y33906D01*
X436876Y33944D01*
X436811Y33976D01*
X436734Y33998D01*
X436647Y34009D01*
X436636D01*
X436614D01*
X436576Y34004D01*
X436532Y33993D01*
X436478Y33976D01*
X436423Y33949D01*
X436369Y33916D01*
X436314Y33867D01*
X436309Y33862D01*
X436292Y33834D01*
X436276Y33813D01*
X436265Y33791D01*
X436249Y33758D01*
X436227Y33720D01*
X436210Y33671D01*
X436189Y33616D01*
X436167Y33556D01*
X436139Y33485D01*
X436118Y33409D01*
X436090Y33321D01*
X436068Y33223D01*
X436041Y33114D01*
Y33108D01*
X436036Y33086D01*
X436030Y33054D01*
X436019Y33015D01*
X436008Y32966D01*
X435992Y32906D01*
X435976Y32846D01*
X435959Y32781D01*
X435921Y32639D01*
X435883Y32502D01*
X435861Y32437D01*
X435839Y32377D01*
X435823Y32322D01*
X435801Y32278D01*
Y32273D01*
X435795Y32262D01*
X435784Y32246D01*
X435774Y32224D01*
X435741Y32164D01*
X435697Y32093D01*
X435637Y32011D01*
X435572Y31929D01*
X435495Y31852D01*
X435413Y31787D01*
X435402Y31782D01*
X435375Y31760D01*
X435326Y31738D01*
X435260Y31705D01*
X435184Y31678D01*
X435091Y31651D01*
X434987Y31634D01*
X434878Y31629D01*
X434873D01*
X434867D01*
X434851D01*
X434829D01*
X434769Y31640D01*
X434692Y31651D01*
X434605Y31672D01*
X434512Y31700D01*
X434414Y31743D01*
X434310Y31803D01*
X434305D01*
X434299Y31809D01*
X434267Y31836D01*
X434218Y31874D01*
X434163Y31929D01*
X434097Y32000D01*
X434026Y32087D01*
X433961Y32186D01*
X433901Y32300D01*
Y32306D01*
X433895Y32317D01*
X433890Y32333D01*
X433879Y32355D01*
X433868Y32388D01*
X433852Y32426D01*
X433830Y32513D01*
X433803Y32617D01*
X433775Y32743D01*
X433759Y32879D01*
X433753Y33026D01*
Y33114D01*
X433759Y33158D01*
Y33207D01*
X433764Y33261D01*
X433770Y33327D01*
X433792Y33463D01*
X433813Y33605D01*
X433852Y33747D01*
X433901Y33884D01*
Y33889D01*
X433906Y33900D01*
X433917Y33916D01*
X433928Y33938D01*
X433961Y34004D01*
X434010Y34080D01*
X434075Y34168D01*
X434152Y34260D01*
X434245Y34348D01*
X434348Y34430D01*
X434354D01*
X434365Y34441D01*
X434381Y34446D01*
X434403Y34462D01*
X434430Y34473D01*
X434463Y34490D01*
X434545Y34528D01*
X434649Y34566D01*
X434763Y34599D01*
X434895Y34621D01*
X435031Y34632D01*
X435075Y34162D01*
D02*
G37*
%LPC*%
G36*
X437149Y450285D02*
X435801D01*
Y449269D01*
X435806Y449231D01*
Y449193D01*
X435812Y449149D01*
X435823Y449046D01*
X435845Y448931D01*
X435877Y448816D01*
X435921Y448713D01*
X435948Y448664D01*
X435981Y448625D01*
X435992Y448614D01*
X436014Y448593D01*
X436058Y448560D01*
X436112Y448522D01*
X436183Y448483D01*
X436270Y448451D01*
X436369Y448429D01*
X436483Y448418D01*
X436489D01*
X436494D01*
X436522D01*
X436571Y448423D01*
X436625Y448434D01*
X436685Y448445D01*
X436756Y448467D01*
X436822Y448500D01*
X436887Y448538D01*
X436893Y448543D01*
X436915Y448560D01*
X436942Y448587D01*
X436980Y448620D01*
X437018Y448669D01*
X437051Y448724D01*
X437084Y448784D01*
X437111Y448855D01*
Y448860D01*
X437117Y448882D01*
X437122Y448915D01*
X437133Y448958D01*
X437139Y449024D01*
X437144Y449106D01*
X437149Y449204D01*
Y450285D01*
D02*
G37*
G36*
X435375Y440135D02*
Y438857D01*
X436412Y439250D01*
X436418D01*
X436434Y439256D01*
X436461Y439267D01*
X436494Y439278D01*
X436532Y439294D01*
X436582Y439311D01*
X436636Y439327D01*
X436691Y439349D01*
X436816Y439392D01*
X436947Y439436D01*
X437079Y439480D01*
X437204Y439518D01*
X437199D01*
X437188Y439523D01*
X437166D01*
X437144Y439534D01*
X437106Y439540D01*
X437068Y439551D01*
X436975Y439572D01*
X436866Y439600D01*
X436746Y439638D01*
X436614Y439676D01*
X436478Y439725D01*
X435375Y440135D01*
D02*
G37*
G36*
Y423700D02*
Y422423D01*
X436412Y422816D01*
X436418D01*
X436434Y422821D01*
X436461Y422832D01*
X436494Y422843D01*
X436532Y422859D01*
X436582Y422876D01*
X436636Y422892D01*
X436691Y422914D01*
X436816Y422958D01*
X436947Y423001D01*
X437079Y423045D01*
X437204Y423083D01*
X437199D01*
X437188Y423089D01*
X437166D01*
X437144Y423100D01*
X437106Y423105D01*
X437068Y423116D01*
X436975Y423138D01*
X436866Y423165D01*
X436746Y423204D01*
X436614Y423242D01*
X436478Y423291D01*
X435375Y423700D01*
D02*
G37*
G36*
X437149Y354353D02*
X436014D01*
Y353425D01*
X436019Y353354D01*
X436025Y353277D01*
X436030Y353201D01*
X436041Y353124D01*
X436052Y353064D01*
X436058Y353053D01*
X436063Y353032D01*
X436079Y352999D01*
X436101Y352955D01*
X436123Y352911D01*
X436156Y352862D01*
X436200Y352813D01*
X436243Y352775D01*
X436249Y352769D01*
X436265Y352759D01*
X436298Y352742D01*
X436336Y352726D01*
X436380Y352709D01*
X436434Y352693D01*
X436500Y352682D01*
X436571Y352677D01*
X436582D01*
X436603D01*
X436636Y352682D01*
X436680Y352688D01*
X436734Y352698D01*
X436789Y352715D01*
X436844Y352737D01*
X436898Y352769D01*
X436904Y352775D01*
X436920Y352786D01*
X436947Y352808D01*
X436975Y352835D01*
X437008Y352873D01*
X437040Y352917D01*
X437073Y352972D01*
X437095Y353032D01*
Y353037D01*
X437106Y353064D01*
X437111Y353102D01*
X437122Y353163D01*
X437133Y353244D01*
X437139Y353337D01*
X437149Y353457D01*
Y354353D01*
D02*
G37*
G36*
X435566D02*
X434267D01*
Y353277D01*
X434272Y353163D01*
X434277Y353114D01*
X434283Y353070D01*
Y353064D01*
X434289Y353043D01*
X434294Y353010D01*
X434305Y352972D01*
X434338Y352879D01*
X434381Y352786D01*
X434387Y352780D01*
X434398Y352764D01*
X434414Y352742D01*
X434436Y352715D01*
X434469Y352688D01*
X434501Y352649D01*
X434545Y352622D01*
X434594Y352589D01*
X434600Y352584D01*
X434616Y352578D01*
X434649Y352568D01*
X434687Y352551D01*
X434731Y352535D01*
X434785Y352524D01*
X434851Y352518D01*
X434916Y352513D01*
X434927D01*
X434949D01*
X434993Y352518D01*
X435042Y352529D01*
X435097Y352540D01*
X435157Y352562D01*
X435217Y352589D01*
X435277Y352627D01*
X435282Y352633D01*
X435304Y352649D01*
X435331Y352671D01*
X435364Y352704D01*
X435402Y352748D01*
X435440Y352802D01*
X435473Y352862D01*
X435501Y352933D01*
X435506Y352944D01*
X435511Y352966D01*
X435522Y353015D01*
X435533Y353075D01*
X435544Y353152D01*
X435555Y353244D01*
X435566Y353359D01*
Y354353D01*
D02*
G37*
G36*
X435648Y350951D02*
X435642D01*
X435621D01*
X435582D01*
X435533Y350946D01*
X435479Y350940D01*
X435413Y350929D01*
X435337Y350919D01*
X435260Y350908D01*
X435086Y350864D01*
X434998Y350831D01*
X434905Y350798D01*
X434818Y350755D01*
X434731Y350706D01*
X434649Y350651D01*
X434572Y350586D01*
X434567Y350580D01*
X434556Y350569D01*
X434534Y350547D01*
X434512Y350520D01*
X434480Y350482D01*
X434447Y350438D01*
X434414Y350389D01*
X434376Y350334D01*
X434338Y350269D01*
X434305Y350198D01*
X434272Y350121D01*
X434239Y350040D01*
X434218Y349952D01*
X434196Y349865D01*
X434185Y349766D01*
X434179Y349663D01*
Y349635D01*
X434185Y349608D01*
Y349570D01*
X434190Y349521D01*
X434201Y349466D01*
X434212Y349401D01*
X434228Y349335D01*
X434250Y349259D01*
X434277Y349188D01*
X434305Y349106D01*
X434343Y349029D01*
X434392Y348953D01*
X434441Y348877D01*
X434501Y348800D01*
X434572Y348729D01*
X434578Y348724D01*
X434589Y348713D01*
X434616Y348696D01*
X434649Y348669D01*
X434687Y348642D01*
X434736Y348614D01*
X434796Y348582D01*
X434862Y348543D01*
X434938Y348511D01*
X435026Y348478D01*
X435118Y348451D01*
X435217Y348418D01*
X435326Y348396D01*
X435446Y348380D01*
X435572Y348369D01*
X435703Y348363D01*
X435708D01*
X435724D01*
X435746D01*
X435779D01*
X435817Y348369D01*
X435866D01*
X435916Y348374D01*
X435976Y348385D01*
X436101Y348401D01*
X436232Y348429D01*
X436374Y348467D01*
X436505Y348522D01*
X436511D01*
X436522Y348527D01*
X436538Y348538D01*
X436560Y348549D01*
X436625Y348587D01*
X436702Y348636D01*
X436789Y348702D01*
X436876Y348784D01*
X436964Y348877D01*
X437040Y348980D01*
Y348986D01*
X437051Y348991D01*
X437057Y349008D01*
X437073Y349035D01*
X437084Y349062D01*
X437100Y349095D01*
X437139Y349177D01*
X437171Y349275D01*
X437204Y349390D01*
X437226Y349521D01*
X437231Y349657D01*
Y349706D01*
X437226Y349745D01*
X437220Y349794D01*
X437210Y349843D01*
X437199Y349903D01*
X437188Y349969D01*
X437144Y350110D01*
X437111Y350187D01*
X437079Y350263D01*
X437035Y350345D01*
X436986Y350422D01*
X436931Y350498D01*
X436866Y350569D01*
X436860Y350574D01*
X436849Y350586D01*
X436827Y350602D01*
X436795Y350629D01*
X436756Y350656D01*
X436707Y350689D01*
X436647Y350722D01*
X436576Y350760D01*
X436500Y350793D01*
X436407Y350831D01*
X436309Y350864D01*
X436200Y350891D01*
X436079Y350919D01*
X435943Y350935D01*
X435801Y350946D01*
X435648Y350951D01*
D02*
G37*
G36*
X435375Y346534D02*
Y345256D01*
X436412Y345650D01*
X436418D01*
X436434Y345655D01*
X436461Y345666D01*
X436494Y345677D01*
X436532Y345693D01*
X436582Y345710D01*
X436636Y345726D01*
X436691Y345748D01*
X436816Y345792D01*
X436947Y345835D01*
X437079Y345879D01*
X437204Y345917D01*
X437199D01*
X437188Y345923D01*
X437166D01*
X437144Y345934D01*
X437106Y345939D01*
X437068Y345950D01*
X436975Y345972D01*
X436866Y345999D01*
X436746Y346037D01*
X436614Y346076D01*
X436478Y346125D01*
X435375Y346534D01*
D02*
G37*
G36*
X437177Y343176D02*
X435926D01*
Y342052D01*
X435932Y341986D01*
X435937Y341910D01*
X435943Y341822D01*
X435954Y341735D01*
X435970Y341647D01*
X435992Y341571D01*
X435997Y341560D01*
X436008Y341538D01*
X436025Y341506D01*
X436047Y341462D01*
X436079Y341413D01*
X436118Y341364D01*
X436167Y341314D01*
X436221Y341276D01*
X436227Y341271D01*
X436249Y341260D01*
X436281Y341243D01*
X436325Y341222D01*
X436374Y341205D01*
X436429Y341189D01*
X436494Y341178D01*
X436560Y341172D01*
X436565D01*
X436571D01*
X436603Y341178D01*
X436653Y341183D01*
X436718Y341194D01*
X436784Y341222D01*
X436860Y341254D01*
X436931Y341303D01*
X437002Y341369D01*
X437008Y341380D01*
X437029Y341407D01*
X437057Y341451D01*
X437089Y341522D01*
X437122Y341604D01*
X437149Y341713D01*
X437171Y341839D01*
X437177Y341986D01*
Y343176D01*
D02*
G37*
G36*
X437149Y339371D02*
X434267D01*
Y338475D01*
X434272Y338437D01*
X434277Y338355D01*
X434283Y338262D01*
X434294Y338164D01*
X434310Y338066D01*
X434332Y337984D01*
X434338Y337973D01*
X434343Y337946D01*
X434359Y337907D01*
X434381Y337858D01*
X434414Y337804D01*
X434447Y337749D01*
X434485Y337694D01*
X434529Y337640D01*
X434540Y337634D01*
X434561Y337613D01*
X434600Y337580D01*
X434654Y337542D01*
X434725Y337498D01*
X434807Y337449D01*
X434900Y337405D01*
X435004Y337367D01*
X435009D01*
X435020Y337361D01*
X435037Y337356D01*
X435058Y337350D01*
X435086Y337345D01*
X435124Y337334D01*
X435162Y337323D01*
X435206Y337312D01*
X435315Y337296D01*
X435440Y337279D01*
X435582Y337268D01*
X435735Y337263D01*
X435741D01*
X435763D01*
X435790D01*
X435834Y337268D01*
X435883D01*
X435937Y337274D01*
X436003Y337279D01*
X436068Y337285D01*
X436216Y337312D01*
X436369Y337345D01*
X436511Y337394D01*
X436582Y337427D01*
X436642Y337460D01*
X436647D01*
X436658Y337471D01*
X436674Y337481D01*
X436696Y337492D01*
X436751Y337536D01*
X436816Y337591D01*
X436887Y337662D01*
X436958Y337744D01*
X437018Y337836D01*
X437068Y337935D01*
X437073Y337946D01*
X437079Y337973D01*
X437095Y338022D01*
X437111Y338093D01*
X437122Y338180D01*
X437139Y338290D01*
X437144Y338355D01*
Y338426D01*
X437149Y338497D01*
Y339371D01*
D02*
G37*
G36*
X437177Y320583D02*
X435926D01*
Y319458D01*
X435932Y319392D01*
X435937Y319316D01*
X435943Y319229D01*
X435954Y319141D01*
X435970Y319054D01*
X435992Y318977D01*
X435997Y318967D01*
X436008Y318945D01*
X436025Y318912D01*
X436047Y318868D01*
X436079Y318819D01*
X436118Y318770D01*
X436167Y318721D01*
X436221Y318683D01*
X436227Y318677D01*
X436249Y318666D01*
X436281Y318650D01*
X436325Y318628D01*
X436374Y318612D01*
X436429Y318595D01*
X436494Y318584D01*
X436560Y318579D01*
X436565D01*
X436571D01*
X436603Y318584D01*
X436653Y318590D01*
X436718Y318601D01*
X436784Y318628D01*
X436860Y318661D01*
X436931Y318710D01*
X437002Y318776D01*
X437008Y318786D01*
X437029Y318814D01*
X437057Y318857D01*
X437089Y318928D01*
X437122Y319010D01*
X437149Y319120D01*
X437171Y319245D01*
X437177Y319392D01*
Y320583D01*
D02*
G37*
G36*
X437149Y302396D02*
X435801D01*
Y301380D01*
X435806Y301342D01*
Y301304D01*
X435812Y301260D01*
X435823Y301156D01*
X435845Y301041D01*
X435877Y300927D01*
X435921Y300823D01*
X435948Y300774D01*
X435981Y300736D01*
X435992Y300725D01*
X436014Y300703D01*
X436058Y300670D01*
X436112Y300632D01*
X436183Y300594D01*
X436270Y300561D01*
X436369Y300539D01*
X436483Y300528D01*
X436489D01*
X436494D01*
X436522D01*
X436571Y300534D01*
X436625Y300545D01*
X436685Y300555D01*
X436756Y300577D01*
X436822Y300610D01*
X436887Y300648D01*
X436893Y300654D01*
X436915Y300670D01*
X436942Y300697D01*
X436980Y300730D01*
X437018Y300779D01*
X437051Y300834D01*
X437084Y300894D01*
X437111Y300965D01*
Y300970D01*
X437117Y300992D01*
X437122Y301025D01*
X437133Y301069D01*
X437139Y301134D01*
X437144Y301216D01*
X437149Y301314D01*
Y302396D01*
D02*
G37*
G36*
Y289477D02*
X435801D01*
Y288462D01*
X435806Y288423D01*
Y288385D01*
X435812Y288341D01*
X435823Y288238D01*
X435845Y288123D01*
X435877Y288008D01*
X435921Y287905D01*
X435948Y287856D01*
X435981Y287817D01*
X435992Y287806D01*
X436014Y287785D01*
X436058Y287752D01*
X436112Y287714D01*
X436183Y287675D01*
X436270Y287643D01*
X436369Y287621D01*
X436483Y287610D01*
X436489D01*
X436494D01*
X436522D01*
X436571Y287615D01*
X436625Y287626D01*
X436685Y287637D01*
X436756Y287659D01*
X436822Y287692D01*
X436887Y287730D01*
X436893Y287735D01*
X436915Y287752D01*
X436942Y287779D01*
X436980Y287812D01*
X437018Y287861D01*
X437051Y287916D01*
X437084Y287976D01*
X437111Y288047D01*
Y288052D01*
X437117Y288074D01*
X437122Y288107D01*
X437133Y288150D01*
X437139Y288216D01*
X437144Y288298D01*
X437149Y288396D01*
Y289477D01*
D02*
G37*
G36*
X435375Y279327D02*
Y278049D01*
X436412Y278443D01*
X436418D01*
X436434Y278448D01*
X436461Y278459D01*
X436494Y278470D01*
X436532Y278486D01*
X436582Y278503D01*
X436636Y278519D01*
X436691Y278541D01*
X436816Y278585D01*
X436947Y278628D01*
X437079Y278672D01*
X437204Y278710D01*
X437199D01*
X437188Y278715D01*
X437166D01*
X437144Y278726D01*
X437106Y278732D01*
X437068Y278743D01*
X436975Y278765D01*
X436866Y278792D01*
X436746Y278830D01*
X436614Y278868D01*
X436478Y278918D01*
X435375Y279327D01*
D02*
G37*
G36*
X437149Y267462D02*
X434267D01*
Y266567D01*
X434272Y266529D01*
X434277Y266447D01*
X434283Y266354D01*
X434294Y266256D01*
X434310Y266158D01*
X434332Y266076D01*
X434338Y266065D01*
X434343Y266037D01*
X434359Y265999D01*
X434381Y265950D01*
X434414Y265895D01*
X434447Y265841D01*
X434485Y265786D01*
X434529Y265732D01*
X434540Y265726D01*
X434561Y265704D01*
X434600Y265671D01*
X434654Y265633D01*
X434725Y265590D01*
X434807Y265541D01*
X434900Y265497D01*
X435004Y265459D01*
X435009D01*
X435020Y265453D01*
X435037Y265448D01*
X435058Y265442D01*
X435086Y265437D01*
X435124Y265426D01*
X435162Y265415D01*
X435206Y265404D01*
X435315Y265388D01*
X435440Y265371D01*
X435582Y265360D01*
X435735Y265355D01*
X435741D01*
X435763D01*
X435790D01*
X435834Y265360D01*
X435883D01*
X435937Y265366D01*
X436003Y265371D01*
X436068Y265377D01*
X436216Y265404D01*
X436369Y265437D01*
X436511Y265486D01*
X436582Y265519D01*
X436642Y265551D01*
X436647D01*
X436658Y265562D01*
X436674Y265573D01*
X436696Y265584D01*
X436751Y265628D01*
X436816Y265683D01*
X436887Y265754D01*
X436958Y265835D01*
X437018Y265928D01*
X437068Y266026D01*
X437073Y266037D01*
X437079Y266065D01*
X437095Y266114D01*
X437111Y266185D01*
X437122Y266272D01*
X437139Y266381D01*
X437144Y266447D01*
Y266518D01*
X437149Y266589D01*
Y267462D01*
D02*
G37*
G36*
X435648Y263793D02*
X435642D01*
X435621D01*
X435582D01*
X435533Y263788D01*
X435479Y263782D01*
X435413Y263772D01*
X435337Y263761D01*
X435260Y263750D01*
X435086Y263706D01*
X434998Y263673D01*
X434905Y263640D01*
X434818Y263597D01*
X434731Y263548D01*
X434649Y263493D01*
X434572Y263427D01*
X434567Y263422D01*
X434556Y263411D01*
X434534Y263389D01*
X434512Y263362D01*
X434480Y263324D01*
X434447Y263280D01*
X434414Y263231D01*
X434376Y263176D01*
X434338Y263111D01*
X434305Y263040D01*
X434272Y262963D01*
X434239Y262881D01*
X434218Y262794D01*
X434196Y262707D01*
X434185Y262609D01*
X434179Y262505D01*
Y262477D01*
X434185Y262450D01*
Y262412D01*
X434190Y262363D01*
X434201Y262308D01*
X434212Y262243D01*
X434228Y262177D01*
X434250Y262101D01*
X434277Y262030D01*
X434305Y261948D01*
X434343Y261871D01*
X434392Y261795D01*
X434441Y261719D01*
X434501Y261642D01*
X434572Y261571D01*
X434578Y261566D01*
X434589Y261555D01*
X434616Y261538D01*
X434649Y261511D01*
X434687Y261484D01*
X434736Y261456D01*
X434796Y261424D01*
X434862Y261385D01*
X434938Y261353D01*
X435026Y261320D01*
X435118Y261293D01*
X435217Y261260D01*
X435326Y261238D01*
X435446Y261222D01*
X435572Y261211D01*
X435703Y261205D01*
X435708D01*
X435724D01*
X435746D01*
X435779D01*
X435817Y261211D01*
X435866D01*
X435916Y261216D01*
X435976Y261227D01*
X436101Y261244D01*
X436232Y261271D01*
X436374Y261309D01*
X436505Y261364D01*
X436511D01*
X436522Y261369D01*
X436538Y261380D01*
X436560Y261391D01*
X436625Y261429D01*
X436702Y261478D01*
X436789Y261544D01*
X436876Y261626D01*
X436964Y261719D01*
X437040Y261822D01*
Y261828D01*
X437051Y261833D01*
X437057Y261849D01*
X437073Y261877D01*
X437084Y261904D01*
X437100Y261937D01*
X437139Y262019D01*
X437171Y262117D01*
X437204Y262232D01*
X437226Y262363D01*
X437231Y262499D01*
Y262548D01*
X437226Y262587D01*
X437220Y262636D01*
X437210Y262685D01*
X437199Y262745D01*
X437188Y262810D01*
X437144Y262952D01*
X437111Y263029D01*
X437079Y263105D01*
X437035Y263187D01*
X436986Y263264D01*
X436931Y263340D01*
X436866Y263411D01*
X436860Y263417D01*
X436849Y263427D01*
X436827Y263444D01*
X436795Y263471D01*
X436756Y263498D01*
X436707Y263531D01*
X436647Y263564D01*
X436576Y263602D01*
X436500Y263635D01*
X436407Y263673D01*
X436309Y263706D01*
X436200Y263733D01*
X436079Y263761D01*
X435943Y263777D01*
X435801Y263788D01*
X435648Y263793D01*
D02*
G37*
G36*
X435375Y233561D02*
Y232284D01*
X436412Y232677D01*
X436418D01*
X436434Y232682D01*
X436461Y232693D01*
X436494Y232704D01*
X436532Y232720D01*
X436582Y232737D01*
X436636Y232753D01*
X436691Y232775D01*
X436816Y232819D01*
X436947Y232862D01*
X437079Y232906D01*
X437204Y232944D01*
X437199D01*
X437188Y232950D01*
X437166D01*
X437144Y232961D01*
X437106Y232966D01*
X437068Y232977D01*
X436975Y232999D01*
X436866Y233026D01*
X436746Y233064D01*
X436614Y233103D01*
X436478Y233152D01*
X435375Y233561D01*
D02*
G37*
G36*
X437149Y230231D02*
X436014D01*
Y229303D01*
X436019Y229232D01*
X436025Y229155D01*
X436030Y229079D01*
X436041Y229002D01*
X436052Y228942D01*
X436058Y228931D01*
X436063Y228909D01*
X436079Y228877D01*
X436101Y228833D01*
X436123Y228789D01*
X436156Y228740D01*
X436200Y228691D01*
X436243Y228653D01*
X436249Y228647D01*
X436265Y228636D01*
X436298Y228620D01*
X436336Y228604D01*
X436380Y228587D01*
X436434Y228571D01*
X436500Y228560D01*
X436571Y228555D01*
X436582D01*
X436603D01*
X436636Y228560D01*
X436680Y228565D01*
X436734Y228576D01*
X436789Y228593D01*
X436844Y228614D01*
X436898Y228647D01*
X436904Y228653D01*
X436920Y228664D01*
X436947Y228685D01*
X436975Y228713D01*
X437008Y228751D01*
X437040Y228795D01*
X437073Y228849D01*
X437095Y228909D01*
Y228915D01*
X437106Y228942D01*
X437111Y228980D01*
X437122Y229040D01*
X437133Y229122D01*
X437139Y229215D01*
X437149Y229335D01*
Y230231D01*
D02*
G37*
G36*
X435566D02*
X434267D01*
Y229155D01*
X434272Y229040D01*
X434277Y228991D01*
X434283Y228948D01*
Y228942D01*
X434289Y228920D01*
X434294Y228888D01*
X434305Y228849D01*
X434338Y228756D01*
X434381Y228664D01*
X434387Y228658D01*
X434398Y228642D01*
X434414Y228620D01*
X434436Y228593D01*
X434469Y228565D01*
X434501Y228527D01*
X434545Y228500D01*
X434594Y228467D01*
X434600Y228462D01*
X434616Y228456D01*
X434649Y228445D01*
X434687Y228429D01*
X434731Y228413D01*
X434785Y228402D01*
X434851Y228396D01*
X434916Y228391D01*
X434927D01*
X434949D01*
X434993Y228396D01*
X435042Y228407D01*
X435097Y228418D01*
X435157Y228440D01*
X435217Y228467D01*
X435277Y228505D01*
X435282Y228511D01*
X435304Y228527D01*
X435331Y228549D01*
X435364Y228582D01*
X435402Y228625D01*
X435440Y228680D01*
X435473Y228740D01*
X435501Y228811D01*
X435506Y228822D01*
X435511Y228844D01*
X435522Y228893D01*
X435533Y228953D01*
X435544Y229029D01*
X435555Y229122D01*
X435566Y229237D01*
Y230231D01*
D02*
G37*
G36*
X435648Y226829D02*
X435642D01*
X435621D01*
X435582D01*
X435533Y226824D01*
X435479Y226818D01*
X435413Y226807D01*
X435337Y226796D01*
X435260Y226785D01*
X435086Y226742D01*
X434998Y226709D01*
X434905Y226676D01*
X434818Y226632D01*
X434731Y226583D01*
X434649Y226529D01*
X434572Y226463D01*
X434567Y226458D01*
X434556Y226447D01*
X434534Y226425D01*
X434512Y226398D01*
X434480Y226360D01*
X434447Y226316D01*
X434414Y226267D01*
X434376Y226212D01*
X434338Y226147D01*
X434305Y226076D01*
X434272Y225999D01*
X434239Y225917D01*
X434218Y225830D01*
X434196Y225743D01*
X434185Y225644D01*
X434179Y225540D01*
Y225513D01*
X434185Y225486D01*
Y225448D01*
X434190Y225399D01*
X434201Y225344D01*
X434212Y225278D01*
X434228Y225213D01*
X434250Y225136D01*
X434277Y225065D01*
X434305Y224984D01*
X434343Y224907D01*
X434392Y224831D01*
X434441Y224754D01*
X434501Y224678D01*
X434572Y224607D01*
X434578Y224601D01*
X434589Y224590D01*
X434616Y224574D01*
X434649Y224547D01*
X434687Y224519D01*
X434736Y224492D01*
X434796Y224460D01*
X434862Y224421D01*
X434938Y224389D01*
X435026Y224356D01*
X435118Y224328D01*
X435217Y224296D01*
X435326Y224274D01*
X435446Y224257D01*
X435572Y224247D01*
X435703Y224241D01*
X435708D01*
X435724D01*
X435746D01*
X435779D01*
X435817Y224247D01*
X435866D01*
X435916Y224252D01*
X435976Y224263D01*
X436101Y224279D01*
X436232Y224307D01*
X436374Y224345D01*
X436505Y224399D01*
X436511D01*
X436522Y224405D01*
X436538Y224416D01*
X436560Y224427D01*
X436625Y224465D01*
X436702Y224514D01*
X436789Y224580D01*
X436876Y224661D01*
X436964Y224754D01*
X437040Y224858D01*
Y224864D01*
X437051Y224869D01*
X437057Y224885D01*
X437073Y224913D01*
X437084Y224940D01*
X437100Y224973D01*
X437139Y225055D01*
X437171Y225153D01*
X437204Y225268D01*
X437226Y225399D01*
X437231Y225535D01*
Y225584D01*
X437226Y225622D01*
X437220Y225672D01*
X437210Y225721D01*
X437199Y225781D01*
X437188Y225846D01*
X437144Y225988D01*
X437111Y226065D01*
X437079Y226141D01*
X437035Y226223D01*
X436986Y226300D01*
X436931Y226376D01*
X436866Y226447D01*
X436860Y226452D01*
X436849Y226463D01*
X436827Y226480D01*
X436795Y226507D01*
X436756Y226534D01*
X436707Y226567D01*
X436647Y226600D01*
X436576Y226638D01*
X436500Y226671D01*
X436407Y226709D01*
X436309Y226742D01*
X436200Y226769D01*
X436079Y226796D01*
X435943Y226813D01*
X435801Y226824D01*
X435648Y226829D01*
D02*
G37*
G36*
X435375Y207741D02*
Y206463D01*
X436412Y206856D01*
X436418D01*
X436434Y206862D01*
X436461Y206873D01*
X436494Y206884D01*
X436532Y206900D01*
X436582Y206916D01*
X436636Y206933D01*
X436691Y206955D01*
X436816Y206998D01*
X436947Y207042D01*
X437079Y207086D01*
X437204Y207124D01*
X437199D01*
X437188Y207129D01*
X437166D01*
X437144Y207140D01*
X437106Y207146D01*
X437068Y207157D01*
X436975Y207179D01*
X436866Y207206D01*
X436746Y207244D01*
X436614Y207282D01*
X436478Y207331D01*
X435375Y207741D01*
D02*
G37*
G36*
X437149Y200577D02*
X434267D01*
Y199682D01*
X434272Y199644D01*
X434277Y199562D01*
X434283Y199469D01*
X434294Y199371D01*
X434310Y199273D01*
X434332Y199191D01*
X434338Y199180D01*
X434343Y199152D01*
X434359Y199114D01*
X434381Y199065D01*
X434414Y199010D01*
X434447Y198956D01*
X434485Y198901D01*
X434529Y198847D01*
X434540Y198841D01*
X434561Y198819D01*
X434600Y198787D01*
X434654Y198748D01*
X434725Y198705D01*
X434807Y198655D01*
X434900Y198612D01*
X435004Y198574D01*
X435009D01*
X435020Y198568D01*
X435037Y198563D01*
X435058Y198557D01*
X435086Y198552D01*
X435124Y198541D01*
X435162Y198530D01*
X435206Y198519D01*
X435315Y198503D01*
X435440Y198486D01*
X435582Y198475D01*
X435735Y198470D01*
X435741D01*
X435763D01*
X435790D01*
X435834Y198475D01*
X435883D01*
X435937Y198481D01*
X436003Y198486D01*
X436068Y198492D01*
X436216Y198519D01*
X436369Y198552D01*
X436511Y198601D01*
X436582Y198634D01*
X436642Y198666D01*
X436647D01*
X436658Y198677D01*
X436674Y198688D01*
X436696Y198699D01*
X436751Y198743D01*
X436816Y198798D01*
X436887Y198869D01*
X436958Y198950D01*
X437018Y199043D01*
X437068Y199142D01*
X437073Y199152D01*
X437079Y199180D01*
X437095Y199229D01*
X437111Y199300D01*
X437122Y199387D01*
X437139Y199496D01*
X437144Y199562D01*
Y199633D01*
X437149Y199704D01*
Y200577D01*
D02*
G37*
G36*
Y195298D02*
X434267D01*
Y194402D01*
X434272Y194364D01*
X434277Y194282D01*
X434283Y194189D01*
X434294Y194091D01*
X434310Y193993D01*
X434332Y193911D01*
X434338Y193900D01*
X434343Y193873D01*
X434359Y193834D01*
X434381Y193785D01*
X434414Y193731D01*
X434447Y193676D01*
X434485Y193621D01*
X434529Y193567D01*
X434540Y193561D01*
X434561Y193540D01*
X434600Y193507D01*
X434654Y193468D01*
X434725Y193425D01*
X434807Y193376D01*
X434900Y193332D01*
X435004Y193294D01*
X435009D01*
X435020Y193288D01*
X435037Y193283D01*
X435058Y193277D01*
X435086Y193272D01*
X435124Y193261D01*
X435162Y193250D01*
X435206Y193239D01*
X435315Y193223D01*
X435440Y193206D01*
X435582Y193195D01*
X435735Y193190D01*
X435741D01*
X435763D01*
X435790D01*
X435834Y193195D01*
X435883D01*
X435937Y193201D01*
X436003Y193206D01*
X436068Y193212D01*
X436216Y193239D01*
X436369Y193272D01*
X436511Y193321D01*
X436582Y193354D01*
X436642Y193387D01*
X436647D01*
X436658Y193397D01*
X436674Y193408D01*
X436696Y193419D01*
X436751Y193463D01*
X436816Y193518D01*
X436887Y193589D01*
X436958Y193670D01*
X437018Y193763D01*
X437068Y193862D01*
X437073Y193873D01*
X437079Y193900D01*
X437095Y193949D01*
X437111Y194020D01*
X437122Y194107D01*
X437139Y194217D01*
X437144Y194282D01*
Y194353D01*
X437149Y194424D01*
Y195298D01*
D02*
G37*
G36*
X435648Y191629D02*
X435642D01*
X435621D01*
X435582D01*
X435533Y191623D01*
X435479Y191618D01*
X435413Y191607D01*
X435337Y191596D01*
X435260Y191585D01*
X435086Y191541D01*
X434998Y191508D01*
X434905Y191476D01*
X434818Y191432D01*
X434731Y191383D01*
X434649Y191328D01*
X434572Y191263D01*
X434567Y191257D01*
X434556Y191246D01*
X434534Y191225D01*
X434512Y191197D01*
X434480Y191159D01*
X434447Y191115D01*
X434414Y191066D01*
X434376Y191012D01*
X434338Y190946D01*
X434305Y190875D01*
X434272Y190799D01*
X434239Y190717D01*
X434218Y190629D01*
X434196Y190542D01*
X434185Y190444D01*
X434179Y190340D01*
Y190313D01*
X434185Y190285D01*
Y190247D01*
X434190Y190198D01*
X434201Y190143D01*
X434212Y190078D01*
X434228Y190012D01*
X434250Y189936D01*
X434277Y189865D01*
X434305Y189783D01*
X434343Y189707D01*
X434392Y189630D01*
X434441Y189554D01*
X434501Y189477D01*
X434572Y189406D01*
X434578Y189401D01*
X434589Y189390D01*
X434616Y189374D01*
X434649Y189346D01*
X434687Y189319D01*
X434736Y189292D01*
X434796Y189259D01*
X434862Y189221D01*
X434938Y189188D01*
X435026Y189155D01*
X435118Y189128D01*
X435217Y189095D01*
X435326Y189073D01*
X435446Y189057D01*
X435572Y189046D01*
X435703Y189041D01*
X435708D01*
X435724D01*
X435746D01*
X435779D01*
X435817Y189046D01*
X435866D01*
X435916Y189051D01*
X435976Y189062D01*
X436101Y189079D01*
X436232Y189106D01*
X436374Y189144D01*
X436505Y189199D01*
X436511D01*
X436522Y189204D01*
X436538Y189215D01*
X436560Y189226D01*
X436625Y189264D01*
X436702Y189313D01*
X436789Y189379D01*
X436876Y189461D01*
X436964Y189554D01*
X437040Y189657D01*
Y189663D01*
X437051Y189668D01*
X437057Y189685D01*
X437073Y189712D01*
X437084Y189739D01*
X437100Y189772D01*
X437139Y189854D01*
X437171Y189952D01*
X437204Y190067D01*
X437226Y190198D01*
X437231Y190334D01*
Y190384D01*
X437226Y190422D01*
X437220Y190471D01*
X437210Y190520D01*
X437199Y190580D01*
X437188Y190646D01*
X437144Y190788D01*
X437111Y190864D01*
X437079Y190940D01*
X437035Y191022D01*
X436986Y191099D01*
X436931Y191175D01*
X436866Y191246D01*
X436860Y191252D01*
X436849Y191263D01*
X436827Y191279D01*
X436795Y191306D01*
X436756Y191334D01*
X436707Y191366D01*
X436647Y191399D01*
X436576Y191437D01*
X436500Y191470D01*
X436407Y191508D01*
X436309Y191541D01*
X436200Y191568D01*
X436079Y191596D01*
X435943Y191612D01*
X435801Y191623D01*
X435648Y191629D01*
D02*
G37*
G36*
Y174031D02*
X435642D01*
X435621D01*
X435582D01*
X435533Y174025D01*
X435479Y174020D01*
X435413Y174009D01*
X435337Y173998D01*
X435260Y173987D01*
X435086Y173944D01*
X434998Y173911D01*
X434905Y173878D01*
X434818Y173834D01*
X434731Y173785D01*
X434649Y173731D01*
X434572Y173665D01*
X434567Y173660D01*
X434556Y173649D01*
X434534Y173627D01*
X434512Y173600D01*
X434480Y173561D01*
X434447Y173518D01*
X434414Y173468D01*
X434376Y173414D01*
X434338Y173348D01*
X434305Y173277D01*
X434272Y173201D01*
X434239Y173119D01*
X434218Y173032D01*
X434196Y172944D01*
X434185Y172846D01*
X434179Y172742D01*
Y172715D01*
X434185Y172688D01*
Y172650D01*
X434190Y172600D01*
X434201Y172546D01*
X434212Y172480D01*
X434228Y172415D01*
X434250Y172338D01*
X434277Y172267D01*
X434305Y172185D01*
X434343Y172109D01*
X434392Y172032D01*
X434441Y171956D01*
X434501Y171880D01*
X434572Y171809D01*
X434578Y171803D01*
X434589Y171792D01*
X434616Y171776D01*
X434649Y171749D01*
X434687Y171721D01*
X434736Y171694D01*
X434796Y171661D01*
X434862Y171623D01*
X434938Y171590D01*
X435026Y171557D01*
X435118Y171530D01*
X435217Y171497D01*
X435326Y171476D01*
X435446Y171459D01*
X435572Y171448D01*
X435703Y171443D01*
X435708D01*
X435724D01*
X435746D01*
X435779D01*
X435817Y171448D01*
X435866D01*
X435916Y171454D01*
X435976Y171465D01*
X436101Y171481D01*
X436232Y171508D01*
X436374Y171547D01*
X436505Y171601D01*
X436511D01*
X436522Y171607D01*
X436538Y171618D01*
X436560Y171628D01*
X436625Y171667D01*
X436702Y171716D01*
X436789Y171781D01*
X436876Y171863D01*
X436964Y171956D01*
X437040Y172060D01*
Y172065D01*
X437051Y172071D01*
X437057Y172087D01*
X437073Y172115D01*
X437084Y172142D01*
X437100Y172175D01*
X437139Y172256D01*
X437171Y172355D01*
X437204Y172469D01*
X437226Y172600D01*
X437231Y172737D01*
Y172786D01*
X437226Y172824D01*
X437220Y172873D01*
X437210Y172923D01*
X437199Y172983D01*
X437188Y173048D01*
X437144Y173190D01*
X437111Y173266D01*
X437079Y173343D01*
X437035Y173425D01*
X436986Y173501D01*
X436931Y173578D01*
X436866Y173649D01*
X436860Y173654D01*
X436849Y173665D01*
X436827Y173681D01*
X436795Y173709D01*
X436756Y173736D01*
X436707Y173769D01*
X436647Y173802D01*
X436576Y173840D01*
X436500Y173873D01*
X436407Y173911D01*
X436309Y173944D01*
X436200Y173971D01*
X436079Y173998D01*
X435943Y174014D01*
X435801Y174025D01*
X435648Y174031D01*
D02*
G37*
G36*
X437177Y169778D02*
X435926D01*
Y168653D01*
X435932Y168587D01*
X435937Y168511D01*
X435943Y168423D01*
X435954Y168336D01*
X435970Y168249D01*
X435992Y168172D01*
X435997Y168161D01*
X436008Y168140D01*
X436025Y168107D01*
X436047Y168063D01*
X436079Y168014D01*
X436118Y167965D01*
X436167Y167916D01*
X436221Y167877D01*
X436227Y167872D01*
X436249Y167861D01*
X436281Y167845D01*
X436325Y167823D01*
X436374Y167806D01*
X436429Y167790D01*
X436494Y167779D01*
X436560Y167774D01*
X436565D01*
X436571D01*
X436603Y167779D01*
X436653Y167785D01*
X436718Y167796D01*
X436784Y167823D01*
X436860Y167856D01*
X436931Y167905D01*
X437002Y167970D01*
X437008Y167981D01*
X437029Y168008D01*
X437057Y168052D01*
X437089Y168123D01*
X437122Y168205D01*
X437149Y168314D01*
X437171Y168440D01*
X437177Y168587D01*
Y169778D01*
D02*
G37*
G36*
Y165966D02*
X435926D01*
Y164842D01*
X435932Y164776D01*
X435937Y164700D01*
X435943Y164612D01*
X435954Y164525D01*
X435970Y164438D01*
X435992Y164361D01*
X435997Y164350D01*
X436008Y164329D01*
X436025Y164296D01*
X436047Y164252D01*
X436079Y164203D01*
X436118Y164154D01*
X436167Y164105D01*
X436221Y164066D01*
X436227Y164061D01*
X436249Y164050D01*
X436281Y164034D01*
X436325Y164012D01*
X436374Y163995D01*
X436429Y163979D01*
X436494Y163968D01*
X436560Y163963D01*
X436565D01*
X436571D01*
X436603Y163968D01*
X436653Y163974D01*
X436718Y163985D01*
X436784Y164012D01*
X436860Y164045D01*
X436931Y164094D01*
X437002Y164159D01*
X437008Y164170D01*
X437029Y164198D01*
X437057Y164241D01*
X437089Y164312D01*
X437122Y164394D01*
X437149Y164503D01*
X437171Y164629D01*
X437177Y164776D01*
Y165966D01*
D02*
G37*
G36*
X435375Y157001D02*
Y155724D01*
X436412Y156117D01*
X436418D01*
X436434Y156122D01*
X436461Y156133D01*
X436494Y156144D01*
X436532Y156160D01*
X436582Y156177D01*
X436636Y156193D01*
X436691Y156215D01*
X436816Y156259D01*
X436947Y156302D01*
X437079Y156346D01*
X437204Y156384D01*
X437199D01*
X437188Y156390D01*
X437166D01*
X437144Y156401D01*
X437106Y156406D01*
X437068Y156417D01*
X436975Y156439D01*
X436866Y156466D01*
X436746Y156504D01*
X436614Y156543D01*
X436478Y156592D01*
X435375Y157001D01*
D02*
G37*
G36*
X437149Y149838D02*
X434267D01*
Y148942D01*
X434272Y148904D01*
X434277Y148822D01*
X434283Y148729D01*
X434294Y148631D01*
X434310Y148533D01*
X434332Y148451D01*
X434338Y148440D01*
X434343Y148413D01*
X434359Y148374D01*
X434381Y148325D01*
X434414Y148271D01*
X434447Y148216D01*
X434485Y148161D01*
X434529Y148107D01*
X434540Y148101D01*
X434561Y148080D01*
X434600Y148047D01*
X434654Y148009D01*
X434725Y147965D01*
X434807Y147916D01*
X434900Y147872D01*
X435004Y147834D01*
X435009D01*
X435020Y147828D01*
X435037Y147823D01*
X435058Y147818D01*
X435086Y147812D01*
X435124Y147801D01*
X435162Y147790D01*
X435206Y147779D01*
X435315Y147763D01*
X435440Y147747D01*
X435582Y147736D01*
X435735Y147730D01*
X435741D01*
X435763D01*
X435790D01*
X435834Y147736D01*
X435883D01*
X435937Y147741D01*
X436003Y147747D01*
X436068Y147752D01*
X436216Y147779D01*
X436369Y147812D01*
X436511Y147861D01*
X436582Y147894D01*
X436642Y147927D01*
X436647D01*
X436658Y147938D01*
X436674Y147949D01*
X436696Y147959D01*
X436751Y148003D01*
X436816Y148058D01*
X436887Y148129D01*
X436958Y148211D01*
X437018Y148303D01*
X437068Y148402D01*
X437073Y148413D01*
X437079Y148440D01*
X437095Y148489D01*
X437111Y148560D01*
X437122Y148647D01*
X437139Y148757D01*
X437144Y148822D01*
Y148893D01*
X437149Y148964D01*
Y149838D01*
D02*
G37*
G36*
X435375Y111235D02*
Y109958D01*
X436412Y110351D01*
X436418D01*
X436434Y110356D01*
X436461Y110367D01*
X436494Y110378D01*
X436532Y110395D01*
X436582Y110411D01*
X436636Y110427D01*
X436691Y110449D01*
X436816Y110493D01*
X436947Y110537D01*
X437079Y110580D01*
X437204Y110618D01*
X437199D01*
X437188Y110624D01*
X437166D01*
X437144Y110635D01*
X437106Y110640D01*
X437068Y110651D01*
X436975Y110673D01*
X436866Y110700D01*
X436746Y110739D01*
X436614Y110777D01*
X436478Y110826D01*
X435375Y111235D01*
D02*
G37*
G36*
X435648Y100403D02*
X435642D01*
X435621D01*
X435582D01*
X435533Y100397D01*
X435479Y100392D01*
X435413Y100381D01*
X435337Y100370D01*
X435260Y100359D01*
X435086Y100315D01*
X434998Y100283D01*
X434905Y100250D01*
X434818Y100206D01*
X434731Y100157D01*
X434649Y100102D01*
X434572Y100037D01*
X434567Y100031D01*
X434556Y100021D01*
X434534Y99999D01*
X434512Y99971D01*
X434480Y99933D01*
X434447Y99890D01*
X434414Y99840D01*
X434376Y99786D01*
X434338Y99720D01*
X434305Y99649D01*
X434272Y99573D01*
X434239Y99491D01*
X434218Y99404D01*
X434196Y99316D01*
X434185Y99218D01*
X434179Y99114D01*
Y99087D01*
X434185Y99060D01*
Y99021D01*
X434190Y98972D01*
X434201Y98918D01*
X434212Y98852D01*
X434228Y98787D01*
X434250Y98710D01*
X434277Y98639D01*
X434305Y98557D01*
X434343Y98481D01*
X434392Y98404D01*
X434441Y98328D01*
X434501Y98252D01*
X434572Y98181D01*
X434578Y98175D01*
X434589Y98164D01*
X434616Y98148D01*
X434649Y98120D01*
X434687Y98093D01*
X434736Y98066D01*
X434796Y98033D01*
X434862Y97995D01*
X434938Y97962D01*
X435026Y97929D01*
X435118Y97902D01*
X435217Y97869D01*
X435326Y97847D01*
X435446Y97831D01*
X435572Y97820D01*
X435703Y97815D01*
X435708D01*
X435724D01*
X435746D01*
X435779D01*
X435817Y97820D01*
X435866D01*
X435916Y97826D01*
X435976Y97837D01*
X436101Y97853D01*
X436232Y97880D01*
X436374Y97918D01*
X436505Y97973D01*
X436511D01*
X436522Y97979D01*
X436538Y97989D01*
X436560Y98000D01*
X436625Y98039D01*
X436702Y98088D01*
X436789Y98153D01*
X436876Y98235D01*
X436964Y98328D01*
X437040Y98432D01*
Y98437D01*
X437051Y98443D01*
X437057Y98459D01*
X437073Y98486D01*
X437084Y98514D01*
X437100Y98546D01*
X437139Y98628D01*
X437171Y98727D01*
X437204Y98841D01*
X437226Y98972D01*
X437231Y99109D01*
Y99158D01*
X437226Y99196D01*
X437220Y99245D01*
X437210Y99294D01*
X437199Y99354D01*
X437188Y99420D01*
X437144Y99562D01*
X437111Y99638D01*
X437079Y99715D01*
X437035Y99797D01*
X436986Y99873D01*
X436931Y99950D01*
X436866Y100021D01*
X436860Y100026D01*
X436849Y100037D01*
X436827Y100053D01*
X436795Y100081D01*
X436756Y100108D01*
X436707Y100141D01*
X436647Y100173D01*
X436576Y100212D01*
X436500Y100244D01*
X436407Y100283D01*
X436309Y100315D01*
X436200Y100343D01*
X436079Y100370D01*
X435943Y100386D01*
X435801Y100397D01*
X435648Y100403D01*
D02*
G37*
G36*
X437177Y96149D02*
X435926D01*
Y95025D01*
X435932Y94959D01*
X435937Y94883D01*
X435943Y94795D01*
X435954Y94708D01*
X435970Y94621D01*
X435992Y94544D01*
X435997Y94533D01*
X436008Y94511D01*
X436025Y94479D01*
X436047Y94435D01*
X436079Y94386D01*
X436118Y94337D01*
X436167Y94288D01*
X436221Y94249D01*
X436227Y94244D01*
X436249Y94233D01*
X436281Y94217D01*
X436325Y94195D01*
X436374Y94178D01*
X436429Y94162D01*
X436494Y94151D01*
X436560Y94146D01*
X436565D01*
X436571D01*
X436603Y94151D01*
X436653Y94157D01*
X436718Y94168D01*
X436784Y94195D01*
X436860Y94227D01*
X436931Y94277D01*
X437002Y94342D01*
X437008Y94353D01*
X437029Y94380D01*
X437057Y94424D01*
X437089Y94495D01*
X437122Y94577D01*
X437149Y94686D01*
X437171Y94812D01*
X437177Y94959D01*
Y96149D01*
D02*
G37*
G36*
X437149Y92344D02*
X434267D01*
Y91448D01*
X434272Y91410D01*
X434277Y91328D01*
X434283Y91236D01*
X434294Y91137D01*
X434310Y91039D01*
X434332Y90957D01*
X434338Y90946D01*
X434343Y90919D01*
X434359Y90881D01*
X434381Y90831D01*
X434414Y90777D01*
X434447Y90722D01*
X434485Y90668D01*
X434529Y90613D01*
X434540Y90608D01*
X434561Y90586D01*
X434600Y90553D01*
X434654Y90515D01*
X434725Y90471D01*
X434807Y90422D01*
X434900Y90378D01*
X435004Y90340D01*
X435009D01*
X435020Y90335D01*
X435037Y90329D01*
X435058Y90324D01*
X435086Y90318D01*
X435124Y90307D01*
X435162Y90296D01*
X435206Y90285D01*
X435315Y90269D01*
X435440Y90253D01*
X435582Y90242D01*
X435735Y90236D01*
X435741D01*
X435763D01*
X435790D01*
X435834Y90242D01*
X435883D01*
X435937Y90247D01*
X436003Y90253D01*
X436068Y90258D01*
X436216Y90285D01*
X436369Y90318D01*
X436511Y90367D01*
X436582Y90400D01*
X436642Y90433D01*
X436647D01*
X436658Y90444D01*
X436674Y90455D01*
X436696Y90466D01*
X436751Y90509D01*
X436816Y90564D01*
X436887Y90635D01*
X436958Y90717D01*
X437018Y90810D01*
X437068Y90908D01*
X437073Y90919D01*
X437079Y90946D01*
X437095Y90995D01*
X437111Y91066D01*
X437122Y91154D01*
X437139Y91263D01*
X437144Y91328D01*
Y91399D01*
X437149Y91470D01*
Y92344D01*
D02*
G37*
G36*
X435648Y74593D02*
X435642D01*
X435621D01*
X435582D01*
X435533Y74588D01*
X435479Y74582D01*
X435413Y74572D01*
X435337Y74561D01*
X435260Y74550D01*
X435086Y74506D01*
X434998Y74473D01*
X434905Y74440D01*
X434818Y74397D01*
X434731Y74348D01*
X434649Y74293D01*
X434572Y74228D01*
X434567Y74222D01*
X434556Y74211D01*
X434534Y74189D01*
X434512Y74162D01*
X434480Y74124D01*
X434447Y74080D01*
X434414Y74031D01*
X434376Y73976D01*
X434338Y73911D01*
X434305Y73840D01*
X434272Y73764D01*
X434239Y73682D01*
X434218Y73594D01*
X434196Y73507D01*
X434185Y73409D01*
X434179Y73305D01*
Y73277D01*
X434185Y73250D01*
Y73212D01*
X434190Y73163D01*
X434201Y73108D01*
X434212Y73043D01*
X434228Y72977D01*
X434250Y72901D01*
X434277Y72830D01*
X434305Y72748D01*
X434343Y72672D01*
X434392Y72595D01*
X434441Y72519D01*
X434501Y72442D01*
X434572Y72371D01*
X434578Y72366D01*
X434589Y72355D01*
X434616Y72338D01*
X434649Y72311D01*
X434687Y72284D01*
X434736Y72256D01*
X434796Y72224D01*
X434862Y72185D01*
X434938Y72153D01*
X435026Y72120D01*
X435118Y72093D01*
X435217Y72060D01*
X435326Y72038D01*
X435446Y72022D01*
X435572Y72011D01*
X435703Y72005D01*
X435708D01*
X435724D01*
X435746D01*
X435779D01*
X435817Y72011D01*
X435866D01*
X435916Y72016D01*
X435976Y72027D01*
X436101Y72044D01*
X436232Y72071D01*
X436374Y72109D01*
X436505Y72164D01*
X436511D01*
X436522Y72169D01*
X436538Y72180D01*
X436560Y72191D01*
X436625Y72229D01*
X436702Y72278D01*
X436789Y72344D01*
X436876Y72426D01*
X436964Y72519D01*
X437040Y72622D01*
Y72628D01*
X437051Y72633D01*
X437057Y72650D01*
X437073Y72677D01*
X437084Y72704D01*
X437100Y72737D01*
X437139Y72819D01*
X437171Y72917D01*
X437204Y73032D01*
X437226Y73163D01*
X437231Y73299D01*
Y73348D01*
X437226Y73387D01*
X437220Y73436D01*
X437210Y73485D01*
X437199Y73545D01*
X437188Y73611D01*
X437144Y73752D01*
X437111Y73829D01*
X437079Y73905D01*
X437035Y73987D01*
X436986Y74064D01*
X436931Y74140D01*
X436866Y74211D01*
X436860Y74217D01*
X436849Y74228D01*
X436827Y74244D01*
X436795Y74271D01*
X436756Y74299D01*
X436707Y74331D01*
X436647Y74364D01*
X436576Y74402D01*
X436500Y74435D01*
X436407Y74473D01*
X436309Y74506D01*
X436200Y74533D01*
X436079Y74561D01*
X435943Y74577D01*
X435801Y74588D01*
X435648Y74593D01*
D02*
G37*
G36*
X437177Y61244D02*
X435926D01*
Y60119D01*
X435932Y60053D01*
X435937Y59977D01*
X435943Y59890D01*
X435954Y59802D01*
X435970Y59715D01*
X435992Y59639D01*
X435997Y59627D01*
X436008Y59606D01*
X436025Y59573D01*
X436047Y59529D01*
X436079Y59480D01*
X436118Y59431D01*
X436167Y59382D01*
X436221Y59344D01*
X436227Y59338D01*
X436249Y59327D01*
X436281Y59311D01*
X436325Y59289D01*
X436374Y59273D01*
X436429Y59256D01*
X436494Y59245D01*
X436560Y59240D01*
X436565D01*
X436571D01*
X436603Y59245D01*
X436653Y59251D01*
X436718Y59262D01*
X436784Y59289D01*
X436860Y59322D01*
X436931Y59371D01*
X437002Y59436D01*
X437008Y59447D01*
X437029Y59475D01*
X437057Y59518D01*
X437089Y59589D01*
X437122Y59671D01*
X437149Y59780D01*
X437171Y59906D01*
X437177Y60053D01*
Y61244D01*
D02*
G37*
G36*
X437149Y57460D02*
X436014D01*
Y56532D01*
X436019Y56461D01*
X436025Y56384D01*
X436030Y56308D01*
X436041Y56231D01*
X436052Y56171D01*
X436058Y56160D01*
X436063Y56139D01*
X436079Y56106D01*
X436101Y56062D01*
X436123Y56019D01*
X436156Y55969D01*
X436200Y55920D01*
X436243Y55882D01*
X436249Y55876D01*
X436265Y55866D01*
X436298Y55849D01*
X436336Y55833D01*
X436380Y55816D01*
X436434Y55800D01*
X436500Y55789D01*
X436571Y55784D01*
X436582D01*
X436603D01*
X436636Y55789D01*
X436680Y55795D01*
X436734Y55805D01*
X436789Y55822D01*
X436844Y55844D01*
X436898Y55876D01*
X436904Y55882D01*
X436920Y55893D01*
X436947Y55915D01*
X436975Y55942D01*
X437008Y55980D01*
X437040Y56024D01*
X437073Y56078D01*
X437095Y56139D01*
Y56144D01*
X437106Y56171D01*
X437111Y56210D01*
X437122Y56270D01*
X437133Y56352D01*
X437139Y56444D01*
X437149Y56564D01*
Y57460D01*
D02*
G37*
G36*
X435566D02*
X434267D01*
Y56384D01*
X434272Y56270D01*
X434277Y56221D01*
X434283Y56177D01*
Y56171D01*
X434289Y56150D01*
X434294Y56117D01*
X434305Y56078D01*
X434338Y55986D01*
X434381Y55893D01*
X434387Y55887D01*
X434398Y55871D01*
X434414Y55849D01*
X434436Y55822D01*
X434469Y55795D01*
X434501Y55756D01*
X434545Y55729D01*
X434594Y55696D01*
X434600Y55691D01*
X434616Y55685D01*
X434649Y55674D01*
X434687Y55658D01*
X434731Y55642D01*
X434785Y55631D01*
X434851Y55625D01*
X434916Y55620D01*
X434927D01*
X434949D01*
X434993Y55625D01*
X435042Y55636D01*
X435097Y55647D01*
X435157Y55669D01*
X435217Y55696D01*
X435277Y55735D01*
X435282Y55740D01*
X435304Y55756D01*
X435331Y55778D01*
X435364Y55811D01*
X435402Y55855D01*
X435440Y55909D01*
X435473Y55969D01*
X435501Y56040D01*
X435506Y56051D01*
X435511Y56073D01*
X435522Y56122D01*
X435533Y56182D01*
X435544Y56259D01*
X435555Y56352D01*
X435566Y56466D01*
Y57460D01*
D02*
G37*
G36*
X437177Y50389D02*
X435926D01*
Y49264D01*
X435932Y49199D01*
X435937Y49123D01*
X435943Y49035D01*
X435954Y48948D01*
X435970Y48860D01*
X435992Y48784D01*
X435997Y48773D01*
X436008Y48751D01*
X436025Y48719D01*
X436047Y48675D01*
X436079Y48626D01*
X436118Y48577D01*
X436167Y48527D01*
X436221Y48489D01*
X436227Y48484D01*
X436249Y48473D01*
X436281Y48456D01*
X436325Y48434D01*
X436374Y48418D01*
X436429Y48402D01*
X436494Y48391D01*
X436560Y48385D01*
X436565D01*
X436571D01*
X436603Y48391D01*
X436653Y48396D01*
X436718Y48407D01*
X436784Y48434D01*
X436860Y48467D01*
X436931Y48516D01*
X437002Y48582D01*
X437008Y48593D01*
X437029Y48620D01*
X437057Y48664D01*
X437089Y48735D01*
X437122Y48817D01*
X437149Y48926D01*
X437171Y49051D01*
X437177Y49199D01*
Y50389D01*
D02*
G37*
%LPD*%
M02*
