G04*
G04 #@! TF.GenerationSoftware,Altium Limited,Altium Designer,21.7.2 (23)*
G04*
G04 Layer_Color=8421504*
%FSLAX25Y25*%
%MOIN*%
G70*
G04*
G04 #@! TF.SameCoordinates,D58D4B37-6E95-4B0B-998B-53493F42131B*
G04*
G04*
G04 #@! TF.FilePolarity,Positive*
G04*
G01*
G75*
%ADD10C,0.11811*%
%ADD11C,0.31496*%
%ADD12C,0.00394*%
G36*
X53150Y53373D02*
X52935Y50781D01*
X52296Y48260D01*
X51252Y45878D01*
X49829Y43701D01*
X48067Y41787D01*
X46015Y40189D01*
X43727Y38952D01*
X41267Y38107D01*
X38702Y37679D01*
X36101D01*
X33536Y38107D01*
X31076Y38952D01*
X28788Y40189D01*
X26736Y41787D01*
X24974Y43701D01*
X23552Y45878D01*
X22507Y48260D01*
X21868Y50781D01*
X21654Y53373D01*
Y57310D01*
X21868Y59902D01*
X22507Y62424D01*
X23552Y64805D01*
X24974Y66983D01*
X26736Y68896D01*
X28788Y70494D01*
X31076Y71732D01*
X33536Y72576D01*
X36101Y73004D01*
X38702D01*
X41267Y72576D01*
X43727Y71732D01*
X46015Y70494D01*
X48067Y68896D01*
X49829Y66983D01*
X51252Y64805D01*
X52296Y62424D01*
X52935Y59902D01*
X53150Y57310D01*
Y53373D01*
D02*
G37*
G36*
X372047Y53373D02*
X371832Y50781D01*
X371194Y48260D01*
X370149Y45878D01*
X368727Y43701D01*
X366965Y41787D01*
X364913Y40189D01*
X362625Y38952D01*
X360165Y38107D01*
X357600Y37679D01*
X354999D01*
X352433Y38107D01*
X349973Y38952D01*
X347686Y40189D01*
X345633Y41787D01*
X343872Y43701D01*
X342449Y45878D01*
X341404Y48260D01*
X340766Y50781D01*
X340551Y53373D01*
Y57310D01*
X340766Y59902D01*
X341404Y62424D01*
X342449Y64805D01*
X343872Y66983D01*
X345633Y68896D01*
X347686Y70494D01*
X349973Y71732D01*
X352433Y72576D01*
X354999Y73004D01*
X357600D01*
X360165Y72576D01*
X362625Y71732D01*
X364913Y70494D01*
X366965Y68896D01*
X368727Y66983D01*
X370149Y64805D01*
X371194Y62424D01*
X371832Y59902D01*
X372047Y57310D01*
Y53373D01*
D02*
G37*
D10*
X380499Y115850D02*
D03*
Y78089D02*
D03*
X13201Y115850D02*
D03*
Y78089D02*
D03*
D11*
X356299Y98869D02*
D03*
X37402Y98869D02*
D03*
D12*
X393898Y135039D02*
G03*
X393701Y135236I-197J0D01*
G01*
X393898Y135039D02*
G03*
X393701Y135236I-197J0D01*
G01*
Y-201D02*
G03*
X393898Y-4I0J197D01*
G01*
X393701Y-201D02*
G03*
X393898Y-4I0J197D01*
G01*
X-0Y135236D02*
G03*
X-197Y135039I0J-197D01*
G01*
X-0Y135236D02*
G03*
X-197Y135039I0J-197D01*
G01*
Y-4D02*
G03*
X-0Y-201I197J0D01*
G01*
X-197Y-4D02*
G03*
X-0Y-201I197J0D01*
G01*
X393898Y-4D02*
Y135039D01*
X-0Y135236D02*
X393701D01*
X-0Y-201D02*
X393701D01*
X-197Y-4D02*
Y135039D01*
X-0D02*
X393701D01*
Y-4D02*
Y135039D01*
X-0Y-4D02*
X393701D01*
X-0D02*
Y135039D01*
M02*
