G04*
G04 #@! TF.GenerationSoftware,Altium Limited,Altium Designer,21.7.2 (23)*
G04*
G04 Layer_Color=16711935*
%FSLAX25Y25*%
%MOIN*%
G70*
G04*
G04 #@! TF.SameCoordinates,D58D4B37-6E95-4B0B-998B-53493F42131B*
G04*
G04*
G04 #@! TF.FilePolarity,Positive*
G04*
G01*
G75*
%ADD12C,0.00394*%
D12*
X393898Y135039D02*
G03*
X393701Y135236I-197J0D01*
G01*
X393898Y135039D02*
G03*
X393701Y135236I-197J0D01*
G01*
Y-201D02*
G03*
X393898Y-4I0J197D01*
G01*
X393701Y-201D02*
G03*
X393898Y-4I0J197D01*
G01*
X-0Y135236D02*
G03*
X-197Y135039I0J-197D01*
G01*
X-0Y135236D02*
G03*
X-197Y135039I0J-197D01*
G01*
Y-4D02*
G03*
X-0Y-201I197J0D01*
G01*
X-197Y-4D02*
G03*
X-0Y-201I197J0D01*
G01*
X393898Y-4D02*
Y135039D01*
X-0Y135236D02*
X393701D01*
X-0Y-201D02*
X393701D01*
X-197Y-4D02*
Y135039D01*
X-0D02*
X393701D01*
Y-4D02*
Y135039D01*
X-0Y-4D02*
X393701D01*
X-0D02*
Y135039D01*
X393898D02*
G03*
X393701Y135236I-197J0D01*
G01*
X393898Y135039D02*
G03*
X393701Y135236I-197J0D01*
G01*
Y-201D02*
G03*
X393898Y-4I0J197D01*
G01*
X393701Y-201D02*
G03*
X393898Y-4I0J197D01*
G01*
X-0Y135236D02*
G03*
X-197Y135039I0J-197D01*
G01*
X-0Y135236D02*
G03*
X-197Y135039I0J-197D01*
G01*
Y-4D02*
G03*
X-0Y-201I197J0D01*
G01*
X-197Y-4D02*
G03*
X-0Y-201I197J0D01*
G01*
X393898Y-4D02*
Y135039D01*
X-0Y135236D02*
X393701D01*
X-0Y-201D02*
X393701D01*
X-197Y-4D02*
Y135039D01*
X-0D02*
X393701D01*
Y-4D02*
Y135039D01*
X-0Y-4D02*
X393701D01*
X-0D02*
Y135039D01*
M02*
