G04*
G04 #@! TF.GenerationSoftware,Altium Limited,Altium Designer,21.7.2 (23)*
G04*
G04 Layer_Physical_Order=2*
G04 Layer_Color=36540*
%FSLAX24Y24*%
%MOIN*%
G70*
G04*
G04 #@! TF.SameCoordinates,D4D5CA1D-ADE7-4756-83AA-BB3EC795D047*
G04*
G04*
G04 #@! TF.FilePolarity,Positive*
G04*
G01*
G75*
%ADD67C,0.0100*%
%ADD73C,0.0157*%
%ADD74C,0.0118*%
G36*
X109075Y83583D02*
X109121Y83575D01*
X109121Y83575D01*
Y83575D01*
X109166Y83577D01*
X109200Y83569D01*
X109200Y83569D01*
X109245Y83555D01*
X109247Y83554D01*
X109263Y83548D01*
X109285Y83535D01*
X109302Y83522D01*
X109303Y83516D01*
X109303Y83515D01*
X109322Y83507D01*
X109340Y83490D01*
X109357Y83472D01*
X109365Y83453D01*
X109366Y83453D01*
X109372Y83452D01*
X109385Y83435D01*
X109398Y83413D01*
X109404Y83397D01*
X109411Y83381D01*
X109419Y83350D01*
X109419Y83350D01*
X109419Y83349D01*
X109426Y83321D01*
X109425Y83271D01*
X109425D01*
X109433Y83225D01*
X109434Y83214D01*
Y77637D01*
X109388Y77627D01*
X109384Y77628D01*
X109280Y77784D01*
X109146Y77918D01*
X108988Y78024D01*
X108812Y78097D01*
X108626Y78134D01*
X108436D01*
X108250Y78097D01*
X108074Y78024D01*
X107916Y77918D01*
X107782Y77784D01*
X107676Y77626D01*
X107603Y77450D01*
X107584Y77351D01*
X107532Y77345D01*
X107517Y77381D01*
X107478Y77420D01*
X107456Y77429D01*
Y77479D01*
X107488Y77492D01*
X107526Y77530D01*
X107547Y77581D01*
Y77636D01*
X107526Y77687D01*
X107488Y77725D01*
X107459Y77737D01*
Y77774D01*
X107438Y77824D01*
X107399Y77863D01*
X107348Y77884D01*
X107294D01*
X107243Y77863D01*
X107237Y77857D01*
X107232Y77863D01*
X107181Y77884D01*
X107126D01*
X107076Y77863D01*
X107070Y77857D01*
X107064Y77863D01*
X107014Y77884D01*
X106959D01*
X106908Y77863D01*
X106903Y77857D01*
X106897Y77863D01*
X106847Y77884D01*
X106792D01*
X106741Y77863D01*
X106702Y77824D01*
X106681Y77774D01*
Y77719D01*
X106702Y77668D01*
X106741Y77629D01*
X106742Y77629D01*
Y77575D01*
X106738Y77573D01*
X106699Y77535D01*
X106678Y77484D01*
Y77429D01*
X106699Y77378D01*
X106738Y77340D01*
X106760Y77331D01*
Y77276D01*
X106761Y77274D01*
X106748Y77268D01*
X106709Y77229D01*
X106688Y77179D01*
Y77124D01*
X106709Y77073D01*
X106748Y77035D01*
X106754Y77032D01*
Y76979D01*
X106738Y76973D01*
X106699Y76934D01*
X106678Y76883D01*
Y76829D01*
X106699Y76778D01*
X106738Y76739D01*
X106760Y76730D01*
Y76677D01*
X106738Y76668D01*
X106699Y76629D01*
X106678Y76578D01*
Y76524D01*
X106699Y76473D01*
X106738Y76434D01*
X106760Y76425D01*
Y76370D01*
X106781Y76320D01*
X106785Y76315D01*
X106765Y76266D01*
X98999D01*
X98989Y76312D01*
X98990Y76315D01*
X99146Y76420D01*
X99280Y76554D01*
X99386Y76712D01*
X99458Y76888D01*
X99495Y77074D01*
Y77264D01*
X99458Y77450D01*
X99386Y77626D01*
X99280Y77784D01*
X99146Y77918D01*
X98988Y78024D01*
X98812Y78097D01*
X98626Y78134D01*
X98436D01*
X98250Y78097D01*
X98074Y78024D01*
X97916Y77918D01*
X97782Y77784D01*
X97677Y77628D01*
X97674Y77627D01*
X97627Y77637D01*
Y83214D01*
X97629Y83225D01*
X97637Y83271D01*
X97637D01*
X97636Y83320D01*
X97643Y83350D01*
X97643D01*
X97657Y83395D01*
X97658Y83397D01*
X97664Y83413D01*
X97677Y83435D01*
X97689Y83452D01*
X97696Y83453D01*
X97697Y83453D01*
X97704Y83472D01*
X97721Y83490D01*
X97740Y83507D01*
X97759Y83515D01*
X97759Y83516D01*
X97760Y83522D01*
X97776Y83535D01*
X97799Y83548D01*
X97815Y83554D01*
X97831Y83561D01*
X97862Y83569D01*
X97862Y83569D01*
X97863Y83569D01*
X97880Y83576D01*
X97893Y83578D01*
X97940Y83575D01*
Y83575D01*
X97988Y83583D01*
X98000Y83584D01*
X109062D01*
X109075Y83583D01*
D02*
G37*
G36*
X107518Y77225D02*
X107566Y77215D01*
Y77097D01*
X107518Y77086D01*
X107516Y77086D01*
X107478Y77125D01*
X107466Y77130D01*
Y77179D01*
X107465Y77181D01*
X107478Y77187D01*
X107516Y77225D01*
X107518Y77225D01*
D02*
G37*
G36*
X109434Y76701D02*
Y76636D01*
X109433Y76625D01*
X109425Y76579D01*
X109425D01*
X109426Y76530D01*
X109419Y76500D01*
X109419D01*
X109405Y76455D01*
X109404Y76453D01*
X109398Y76437D01*
X109385Y76415D01*
X109372Y76398D01*
X109366Y76397D01*
X109365Y76397D01*
X109357Y76378D01*
X109340Y76360D01*
X109322Y76343D01*
X109303Y76335D01*
X109303Y76334D01*
X109302Y76328D01*
X109285Y76315D01*
X109263Y76302D01*
X109247Y76296D01*
X109231Y76289D01*
X109200Y76281D01*
X109200Y76281D01*
X109199Y76281D01*
X109182Y76274D01*
X109169Y76272D01*
X109121Y76275D01*
Y76275D01*
X109074Y76267D01*
X109062Y76266D01*
X108999D01*
X108989Y76312D01*
X108990Y76315D01*
X109146Y76420D01*
X109280Y76554D01*
X109384Y76710D01*
X109388Y76711D01*
X109434Y76701D01*
D02*
G37*
G36*
X107591Y76949D02*
X107603Y76888D01*
X107676Y76712D01*
X107782Y76554D01*
X107916Y76420D01*
X108072Y76315D01*
X108073Y76312D01*
X108063Y76266D01*
X107525D01*
X107504Y76315D01*
X107524Y76335D01*
X107545Y76386D01*
Y76441D01*
X107524Y76491D01*
X107485Y76530D01*
X107462Y76539D01*
X107459Y76588D01*
X107478Y76596D01*
X107517Y76635D01*
X107538Y76685D01*
Y76740D01*
X107517Y76791D01*
X107478Y76830D01*
X107462Y76836D01*
Y76885D01*
X107478Y76891D01*
X107517Y76930D01*
X107517Y76930D01*
X107581Y76954D01*
X107591Y76949D01*
D02*
G37*
G36*
X97677Y76710D02*
X97782Y76554D01*
X97916Y76420D01*
X98072Y76315D01*
X98073Y76312D01*
X98063Y76266D01*
X98000D01*
X97987Y76267D01*
X97940Y76275D01*
Y76275D01*
X97896Y76273D01*
X97862Y76281D01*
X97862Y76281D01*
X97817Y76295D01*
X97815Y76296D01*
X97799Y76302D01*
X97776Y76315D01*
X97760Y76328D01*
X97759Y76334D01*
X97759Y76335D01*
X97740Y76343D01*
X97721Y76360D01*
X97704Y76378D01*
X97697Y76397D01*
X97696Y76397D01*
X97689Y76398D01*
X97677Y76415D01*
X97664Y76437D01*
X97658Y76453D01*
X97651Y76469D01*
X97643Y76500D01*
X97643Y76500D01*
X97643Y76501D01*
X97636Y76529D01*
X97637Y76579D01*
X97637D01*
X97629Y76625D01*
X97627Y76636D01*
Y76701D01*
X97674Y76711D01*
X97677Y76710D01*
D02*
G37*
%LPC*%
G36*
X107565Y83209D02*
X107518D01*
X107474Y83191D01*
X107441Y83158D01*
X107423Y83114D01*
Y83067D01*
X107441Y83024D01*
X107474Y82991D01*
X107518Y82973D01*
X107565D01*
X107608Y82991D01*
X107641Y83024D01*
X107659Y83067D01*
Y83114D01*
X107641Y83158D01*
X107608Y83191D01*
X107565Y83209D01*
D02*
G37*
G36*
X98785Y82973D02*
X98731D01*
X98680Y82952D01*
X98679Y82951D01*
X98679Y82952D01*
X98628Y82973D01*
X98573D01*
X98523Y82952D01*
X98522Y82951D01*
X98521Y82952D01*
X98471Y82973D01*
X98416D01*
X98365Y82952D01*
X98326Y82913D01*
X98305Y82862D01*
Y82807D01*
X98326Y82757D01*
X98327Y82756D01*
X98326Y82755D01*
X98305Y82705D01*
Y82650D01*
X98326Y82599D01*
X98327Y82599D01*
X98326Y82598D01*
X98305Y82547D01*
Y82492D01*
X98326Y82442D01*
X98327Y82441D01*
X98326Y82440D01*
X98305Y82390D01*
Y82335D01*
X98326Y82284D01*
X98365Y82246D01*
X98416Y82225D01*
X98471D01*
X98521Y82246D01*
X98522Y82246D01*
X98523Y82246D01*
X98573Y82225D01*
X98628D01*
X98679Y82246D01*
X98679Y82246D01*
X98680Y82246D01*
X98731Y82225D01*
X98785D01*
X98836Y82246D01*
X98875Y82284D01*
X98883Y82303D01*
X98923D01*
X98974Y82324D01*
X98975Y82325D01*
X98975Y82324D01*
X99026Y82303D01*
X99081D01*
X99131Y82324D01*
X99132Y82325D01*
X99133Y82324D01*
X99183Y82303D01*
X99238D01*
X99289Y82324D01*
X99290Y82325D01*
X99290Y82324D01*
X99341Y82303D01*
X99396D01*
X99446Y82324D01*
X99485Y82363D01*
X99506Y82414D01*
Y82469D01*
X99485Y82519D01*
X99484Y82520D01*
X99485Y82521D01*
X99506Y82571D01*
Y82626D01*
X99485Y82677D01*
X99484Y82677D01*
X99485Y82678D01*
X99506Y82729D01*
Y82784D01*
X99485Y82834D01*
X99446Y82873D01*
X99396Y82894D01*
X99341D01*
X99290Y82873D01*
X99290Y82872D01*
X99289Y82873D01*
X99238Y82894D01*
X99183D01*
X99133Y82873D01*
X99132Y82872D01*
X99131Y82873D01*
X99081Y82894D01*
X99026D01*
X98975Y82873D01*
X98975Y82872D01*
X98974Y82873D01*
X98923Y82894D01*
X98883D01*
X98875Y82913D01*
X98836Y82952D01*
X98785Y82973D01*
D02*
G37*
G36*
X109219Y82770D02*
X109164D01*
X109113Y82749D01*
X109074Y82710D01*
X109053Y82659D01*
Y82604D01*
X109074Y82554D01*
X109113Y82515D01*
X109164Y82494D01*
X109219D01*
X109269Y82515D01*
X109308Y82554D01*
X109329Y82604D01*
Y82659D01*
X109308Y82710D01*
X109269Y82749D01*
X109219Y82770D01*
D02*
G37*
G36*
X105077Y82878D02*
X100589D01*
X100539Y82868D01*
X100496Y82839D01*
X100133Y82476D01*
X100117Y82469D01*
X100078Y82431D01*
X100057Y82380D01*
Y82325D01*
X100078Y82275D01*
X100117Y82236D01*
X100168Y82215D01*
X100222D01*
X100273Y82236D01*
X100312Y82275D01*
X100318Y82290D01*
X100643Y82615D01*
X105023D01*
X105308Y82330D01*
X105314Y82314D01*
X105353Y82275D01*
X105404Y82254D01*
X105459D01*
X105509Y82275D01*
X105548Y82314D01*
X105569Y82365D01*
Y82419D01*
X105548Y82470D01*
X105509Y82509D01*
X105494Y82515D01*
X105170Y82839D01*
X105127Y82868D01*
X105077Y82878D01*
D02*
G37*
G36*
X99208Y82208D02*
X99154D01*
X99103Y82187D01*
X99064Y82149D01*
X99062Y82142D01*
X99043Y82150D01*
X98988D01*
X98937Y82129D01*
X98898Y82090D01*
X98877Y82040D01*
Y81985D01*
X98898Y81934D01*
X98937Y81896D01*
X98988Y81875D01*
X99043D01*
X99093Y81896D01*
X99132Y81934D01*
X99135Y81941D01*
X99154Y81933D01*
X99208D01*
X99235Y81944D01*
X99236Y81941D01*
X99274Y81903D01*
X99325Y81882D01*
X99380D01*
X99430Y81903D01*
X99469Y81941D01*
X99490Y81992D01*
Y82047D01*
X99469Y82098D01*
X99430Y82136D01*
X99380Y82157D01*
X99325D01*
X99299Y82146D01*
X99298Y82149D01*
X99259Y82187D01*
X99208Y82208D01*
D02*
G37*
G36*
X104731Y82339D02*
X104676D01*
X104625Y82318D01*
X104587Y82279D01*
X104566Y82229D01*
Y82174D01*
X104587Y82123D01*
X104625Y82085D01*
X104676Y82064D01*
X104731D01*
X104781Y82085D01*
X104820Y82123D01*
X104841Y82174D01*
Y82229D01*
X104820Y82279D01*
X104781Y82318D01*
X104731Y82339D01*
D02*
G37*
G36*
X109209Y82323D02*
X109154D01*
X109103Y82302D01*
X109064Y82263D01*
X109044Y82213D01*
Y82158D01*
X109064Y82107D01*
X109103Y82068D01*
X109154Y82047D01*
X109209D01*
X109259Y82068D01*
X109298Y82107D01*
X109319Y82158D01*
Y82213D01*
X109298Y82263D01*
X109259Y82302D01*
X109209Y82323D01*
D02*
G37*
G36*
X99912Y82170D02*
X99857D01*
X99807Y82149D01*
X99768Y82111D01*
X99747Y82060D01*
Y82005D01*
X99768Y81954D01*
X99807Y81916D01*
X99857Y81895D01*
X99912D01*
X99963Y81916D01*
X100002Y81954D01*
X100023Y82005D01*
Y82060D01*
X100002Y82111D01*
X99963Y82149D01*
X99912Y82170D01*
D02*
G37*
G36*
X107239Y82403D02*
X107192D01*
X107149Y82385D01*
X107116Y82351D01*
X107098Y82308D01*
Y82261D01*
X107076Y82228D01*
X106785D01*
X106734Y82218D01*
X106692Y82189D01*
X106574Y82071D01*
X106559Y82062D01*
X106531Y82019D01*
X106521Y81969D01*
X106531Y81918D01*
X106559Y81876D01*
X106602Y81847D01*
X106620Y81844D01*
X106668Y81831D01*
X106678Y81781D01*
X106707Y81738D01*
X106749Y81710D01*
X106799Y81700D01*
X106850Y81710D01*
X106892Y81738D01*
X106952Y81798D01*
X107336D01*
X107821Y81313D01*
X107811Y81264D01*
X107809Y81263D01*
X107770Y81225D01*
X107749Y81174D01*
Y81119D01*
X107770Y81069D01*
X107809Y81030D01*
X107860Y81009D01*
X107915D01*
X107965Y81030D01*
X107999Y81064D01*
X108017Y81073D01*
X108054Y81080D01*
X108226Y80908D01*
Y80750D01*
X108206Y80731D01*
X107887D01*
X107858Y80781D01*
X107866Y80817D01*
X107856Y80867D01*
X107827Y80910D01*
X107785Y80938D01*
X107734Y80948D01*
X107730D01*
X107679Y80938D01*
X107638Y80911D01*
X107626Y80908D01*
X107584Y80880D01*
X106432Y79728D01*
X106057D01*
X105900Y79884D01*
X105904Y79903D01*
X105916Y79939D01*
X105943Y79965D01*
X105961Y80008D01*
Y80055D01*
X105943Y80099D01*
X105909Y80132D01*
X105866Y80150D01*
X105819D01*
X105776Y80132D01*
X105742Y80099D01*
X105695Y80089D01*
X105652Y80132D01*
X105609Y80161D01*
X105559Y80171D01*
X105509Y80161D01*
X105466Y80132D01*
X105438Y80090D01*
X105428Y80040D01*
X105438Y79989D01*
X105466Y79947D01*
X105807Y79606D01*
X105788Y79560D01*
X105643D01*
X104806Y80397D01*
X104816Y80424D01*
X104830Y80443D01*
X104878D01*
X104929Y80464D01*
X104967Y80503D01*
X104988Y80554D01*
Y80608D01*
X104967Y80659D01*
X104929Y80698D01*
X104878Y80719D01*
X104823D01*
X104773Y80698D01*
X104734Y80659D01*
X104713Y80608D01*
Y80561D01*
X104694Y80546D01*
X104667Y80536D01*
X104096Y81107D01*
X104053Y81135D01*
X104003Y81145D01*
X103325D01*
X103275Y81135D01*
X103232Y81107D01*
X103034Y80909D01*
X102944D01*
X102921Y80942D01*
Y80989D01*
X102903Y81032D01*
X102870Y81066D01*
X102827Y81084D01*
X102780D01*
X102736Y81066D01*
X102703Y81032D01*
X102685Y80989D01*
Y80942D01*
X102663Y80909D01*
X100842D01*
X100762Y80988D01*
X100756Y81004D01*
X100717Y81043D01*
X100666Y81064D01*
X100611D01*
X100561Y81043D01*
X100522Y81004D01*
X100501Y80954D01*
Y80899D01*
X100522Y80848D01*
X100561Y80809D01*
X100576Y80803D01*
X100620Y80759D01*
X100603Y80706D01*
X100570Y80692D01*
X100531Y80653D01*
X100510Y80602D01*
Y80548D01*
X100531Y80497D01*
X100570Y80458D01*
X100620Y80437D01*
X100675D01*
X100726Y80458D01*
X100765Y80497D01*
X100786Y80548D01*
Y80599D01*
X100786Y80603D01*
X100821Y80646D01*
X102680D01*
X102703Y80599D01*
X102685Y80555D01*
Y80508D01*
X102703Y80465D01*
X102736Y80432D01*
X102780Y80414D01*
X102827D01*
X102870Y80432D01*
X102903Y80465D01*
X102921Y80508D01*
Y80555D01*
X102903Y80599D01*
X102926Y80646D01*
X103089D01*
X103139Y80656D01*
X103182Y80685D01*
X103379Y80883D01*
X103586D01*
X103605Y80837D01*
X102934Y80165D01*
X102916Y80139D01*
X102910Y80108D01*
Y79980D01*
X102911Y79975D01*
X102911Y79970D01*
X102914Y79960D01*
X102916Y79950D01*
X102919Y79945D01*
X102921Y79940D01*
X102928Y79932D01*
X102934Y79924D01*
X102938Y79921D01*
X102942Y79917D01*
X102957Y79905D01*
X102966Y79900D01*
X102975Y79894D01*
X102983Y79891D01*
X102971Y79860D01*
Y79805D01*
X102992Y79755D01*
X102992Y79754D01*
X102992Y79753D01*
X102971Y79703D01*
Y79648D01*
X102992Y79597D01*
X102992Y79597D01*
X102992Y79596D01*
X102971Y79545D01*
Y79491D01*
X102992Y79440D01*
X102992Y79439D01*
X102992Y79438D01*
X102971Y79388D01*
Y79333D01*
X102992Y79282D01*
X102992Y79282D01*
X102992Y79281D01*
X102971Y79230D01*
Y79176D01*
X102992Y79125D01*
X102992Y79124D01*
X102992Y79124D01*
X102971Y79073D01*
Y79018D01*
X102992Y78967D01*
X102992Y78967D01*
X102992Y78966D01*
X102971Y78915D01*
Y78861D01*
X102992Y78810D01*
X103030Y78771D01*
X103081Y78750D01*
X103136D01*
X103187Y78771D01*
X103187Y78772D01*
X103188Y78771D01*
X103239Y78750D01*
X103293D01*
X103344Y78771D01*
X103345Y78772D01*
X103345Y78771D01*
X103396Y78750D01*
X103451D01*
X103501Y78771D01*
X103502Y78772D01*
X103503Y78771D01*
X103553Y78750D01*
X103608D01*
X103659Y78771D01*
X103660Y78772D01*
X103660Y78771D01*
X103711Y78750D01*
X103766D01*
X103816Y78771D01*
X103817Y78772D01*
X103818Y78771D01*
X103868Y78750D01*
X103885D01*
X103898Y78737D01*
X103903Y78707D01*
X103907Y78699D01*
X103908Y78690D01*
X103912Y78684D01*
X103915Y78678D01*
X103921Y78671D01*
X103926Y78664D01*
X103945Y78645D01*
X103953Y78624D01*
Y78601D01*
X103939Y78566D01*
X103938Y78564D01*
X103932Y78534D01*
X103938Y78503D01*
X103939Y78501D01*
X103953Y78466D01*
Y78443D01*
X103945Y78422D01*
X103928Y78406D01*
X103907Y78397D01*
X103884D01*
X103849Y78412D01*
X103848Y78413D01*
X103848Y78413D01*
X103848Y78413D01*
X103833Y78416D01*
X103817Y78419D01*
X103817Y78419D01*
X103817Y78419D01*
X103802Y78416D01*
X103786Y78413D01*
X103786Y78413D01*
X103786Y78413D01*
X103785Y78412D01*
X103750Y78397D01*
X103719D01*
X103688Y78391D01*
X103662Y78374D01*
X103645Y78348D01*
X103638Y78317D01*
Y78286D01*
X103624Y78251D01*
X103623Y78249D01*
X103617Y78219D01*
X103623Y78188D01*
X103624Y78186D01*
X103638Y78151D01*
Y78129D01*
X103630Y78107D01*
X103613Y78091D01*
X103592Y78082D01*
X103569D01*
X103534Y78097D01*
X103533Y78098D01*
X103502Y78104D01*
X103471Y78098D01*
X103470Y78097D01*
X103435Y78082D01*
X103412D01*
X103377Y78097D01*
X103375Y78098D01*
X103375Y78098D01*
X103375Y78098D01*
X103360Y78101D01*
X103345Y78104D01*
X103345Y78104D01*
X103345Y78104D01*
X103329Y78101D01*
X103314Y78098D01*
X103314Y78098D01*
X103314Y78098D01*
X103312Y78097D01*
X103277Y78082D01*
X103254D01*
X103219Y78097D01*
X103218Y78098D01*
X103187Y78104D01*
X103156Y78098D01*
X103155Y78097D01*
X103120Y78082D01*
X103097D01*
X103071Y78093D01*
X103071Y78093D01*
X103071Y78093D01*
X103055Y78096D01*
X103040Y78099D01*
X103040Y78099D01*
X103040Y78099D01*
X103025Y78096D01*
X103010Y78093D01*
X103009Y78093D01*
X103009Y78093D01*
X102975Y78078D01*
X102966Y78073D01*
X102957Y78068D01*
X102942Y78056D01*
X102938Y78052D01*
X102934Y78049D01*
X102928Y78041D01*
X102921Y78033D01*
X102919Y78028D01*
X102916Y78023D01*
X102914Y78013D01*
X102911Y78003D01*
X102911Y77998D01*
X102910Y77992D01*
Y76919D01*
X102916Y76889D01*
X102934Y76863D01*
X102960Y76845D01*
X102990Y76839D01*
X104880D01*
X104911Y76845D01*
X104937Y76863D01*
X104954Y76889D01*
X104960Y76919D01*
Y78900D01*
X104954Y78931D01*
X104937Y78957D01*
X104937Y78957D01*
X104920Y78974D01*
X104911Y78995D01*
Y79018D01*
X104920Y79039D01*
X104937Y79056D01*
X104954Y79082D01*
X104960Y79112D01*
Y79522D01*
X104954Y79553D01*
X104937Y79579D01*
X104937Y79579D01*
X104813Y79703D01*
X104787Y79720D01*
X104756Y79726D01*
X104721D01*
X104700Y79735D01*
X104684Y79751D01*
X104675Y79772D01*
Y79808D01*
X104675Y79808D01*
X104669Y79838D01*
X104651Y79864D01*
X104651Y79864D01*
X104367Y80149D01*
Y80394D01*
X104417Y80415D01*
X105496Y79336D01*
X105538Y79307D01*
X105589Y79297D01*
X107579D01*
X107606Y79256D01*
Y79209D01*
X107624Y79166D01*
X107658Y79132D01*
X107701Y79114D01*
X107748D01*
X107792Y79132D01*
X107825Y79166D01*
X107843Y79209D01*
Y79256D01*
X107870Y79297D01*
X107948D01*
X107981Y79247D01*
X107981Y79246D01*
Y79199D01*
X107998Y79156D01*
X108032Y79123D01*
X108075Y79105D01*
X108122D01*
X108166Y79123D01*
X108199Y79156D01*
X108217Y79199D01*
Y79246D01*
X108216Y79247D01*
X108250Y79297D01*
X108364D01*
X108414Y79307D01*
X108456Y79336D01*
X108826Y79706D01*
X108876Y79685D01*
Y79668D01*
X108897Y79617D01*
X108936Y79578D01*
X108987Y79557D01*
X109041D01*
X109092Y79578D01*
X109131Y79617D01*
X109152Y79668D01*
Y79722D01*
X109131Y79773D01*
X109092Y79812D01*
X109041Y79833D01*
X109024D01*
X109004Y79883D01*
X109039Y79918D01*
X109067Y79960D01*
X109067Y79961D01*
X109080Y79980D01*
X109091Y79991D01*
X109112Y80042D01*
Y80097D01*
X109091Y80147D01*
X109053Y80186D01*
X109002Y80207D01*
X108947D01*
X108897Y80186D01*
X108858Y80147D01*
X108837Y80097D01*
Y80093D01*
X108825Y80076D01*
X108309Y79560D01*
X107776D01*
X107754Y79593D01*
Y79640D01*
X107736Y79683D01*
X107703Y79716D01*
X107660Y79734D01*
X107613D01*
X107569Y79716D01*
X107536Y79683D01*
X107518Y79640D01*
Y79593D01*
X107496Y79560D01*
X106700D01*
X106681Y79606D01*
X107593Y80518D01*
X107658Y80512D01*
X107661Y80506D01*
X107704Y80478D01*
X107754Y80468D01*
X107976D01*
X107997Y80418D01*
X107982Y80403D01*
X107961Y80352D01*
Y80298D01*
X107982Y80247D01*
X107986Y80243D01*
X107965Y80193D01*
X107725D01*
X107674Y80183D01*
X107632Y80154D01*
X107603Y80112D01*
X107593Y80062D01*
X107603Y80011D01*
X107632Y79969D01*
X107674Y79940D01*
X107725Y79930D01*
X108140D01*
X108191Y79940D01*
X108233Y79969D01*
X108589Y80325D01*
X108618Y80367D01*
X108628Y80418D01*
Y81059D01*
X108618Y81109D01*
X108589Y81152D01*
X107552Y82189D01*
X107509Y82218D01*
X107459Y82228D01*
X107356D01*
X107334Y82261D01*
Y82308D01*
X107316Y82351D01*
X107283Y82385D01*
X107239Y82403D01*
D02*
G37*
G36*
X102620Y80246D02*
X102573D01*
X102530Y80228D01*
X102497Y80195D01*
X102479Y80152D01*
Y80105D01*
X102497Y80061D01*
X102530Y80028D01*
X102573Y80010D01*
X102620D01*
X102664Y80028D01*
X102697Y80061D01*
X102715Y80105D01*
Y80152D01*
X102697Y80195D01*
X102664Y80228D01*
X102620Y80246D01*
D02*
G37*
G36*
X99077Y80175D02*
X99030D01*
X98986Y80157D01*
X98953Y80124D01*
X98935Y80080D01*
Y80033D01*
X98953Y79990D01*
X98986Y79957D01*
X99030Y79939D01*
X99077D01*
X99120Y79957D01*
X99153Y79990D01*
X99171Y80033D01*
Y80080D01*
X99153Y80124D01*
X99120Y80157D01*
X99077Y80175D01*
D02*
G37*
G36*
X98520Y80197D02*
X98465D01*
X98414Y80176D01*
X98376Y80137D01*
X98355Y80087D01*
Y80032D01*
X98376Y79981D01*
X98414Y79942D01*
X98465Y79921D01*
X98520D01*
X98570Y79942D01*
X98609Y79981D01*
X98630Y80032D01*
Y80087D01*
X98609Y80137D01*
X98570Y80176D01*
X98520Y80197D01*
D02*
G37*
G36*
X102693Y79075D02*
X102638D01*
X102587Y79054D01*
X102587Y79053D01*
X102586Y79054D01*
X102535Y79075D01*
X102481D01*
X102430Y79054D01*
X102429Y79053D01*
X102429Y79054D01*
X102378Y79075D01*
X102323D01*
X102273Y79054D01*
X102272Y79053D01*
X102271Y79054D01*
X102221Y79075D01*
X102166D01*
X102115Y79054D01*
X102114Y79053D01*
X102114Y79054D01*
X102063Y79075D01*
X102008D01*
X101958Y79054D01*
X101957Y79053D01*
X101956Y79054D01*
X101906Y79075D01*
X101851D01*
X101800Y79054D01*
X101761Y79015D01*
X101740Y78965D01*
Y78910D01*
X101761Y78859D01*
X101762Y78858D01*
X101761Y78858D01*
X101740Y78807D01*
Y78752D01*
X101761Y78702D01*
X101762Y78701D01*
X101761Y78700D01*
X101740Y78650D01*
Y78595D01*
X101761Y78544D01*
X101762Y78544D01*
X101761Y78543D01*
X101740Y78492D01*
Y78437D01*
X101761Y78387D01*
X101762Y78386D01*
X101761Y78385D01*
X101740Y78335D01*
Y78280D01*
X101761Y78229D01*
X101800Y78190D01*
X101851Y78169D01*
X101906D01*
X101956Y78190D01*
X101957Y78191D01*
X101958Y78190D01*
X102008Y78169D01*
X102063D01*
X102114Y78190D01*
X102114Y78191D01*
X102115Y78190D01*
X102166Y78169D01*
X102221D01*
X102271Y78190D01*
X102272Y78191D01*
X102273Y78190D01*
X102323Y78169D01*
X102378D01*
X102429Y78190D01*
X102429Y78191D01*
X102430Y78190D01*
X102481Y78169D01*
X102535D01*
X102586Y78190D01*
X102587Y78191D01*
X102587Y78190D01*
X102638Y78169D01*
X102693D01*
X102744Y78190D01*
X102782Y78229D01*
X102803Y78280D01*
Y78335D01*
X102782Y78385D01*
X102782Y78386D01*
X102782Y78387D01*
X102803Y78437D01*
Y78492D01*
X102782Y78543D01*
X102782Y78544D01*
X102782Y78544D01*
X102803Y78595D01*
Y78650D01*
X102782Y78700D01*
X102782Y78701D01*
X102782Y78702D01*
X102803Y78752D01*
Y78807D01*
X102782Y78858D01*
X102782Y78858D01*
X102782Y78859D01*
X102803Y78910D01*
Y78965D01*
X102782Y79015D01*
X102744Y79054D01*
X102693Y79075D01*
D02*
G37*
G36*
X100852D02*
X100798D01*
X100747Y79054D01*
X100746Y79053D01*
X100746Y79054D01*
X100695Y79075D01*
X100640D01*
X100589Y79054D01*
X100589Y79053D01*
X100588Y79054D01*
X100537Y79075D01*
X100483D01*
X100432Y79054D01*
X100431Y79053D01*
X100431Y79054D01*
X100380Y79075D01*
X100325D01*
X100274Y79054D01*
X100274Y79053D01*
X100273Y79054D01*
X100222Y79075D01*
X100168D01*
X100117Y79054D01*
X100116Y79053D01*
X100116Y79054D01*
X100065Y79075D01*
X100010D01*
X99960Y79054D01*
X99921Y79015D01*
X99900Y78965D01*
Y78910D01*
X99921Y78859D01*
X99921Y78858D01*
X99921Y78858D01*
X99900Y78807D01*
Y78752D01*
X99921Y78702D01*
X99921Y78701D01*
X99921Y78700D01*
X99900Y78650D01*
Y78595D01*
X99921Y78544D01*
X99921Y78544D01*
X99921Y78543D01*
X99900Y78492D01*
Y78437D01*
X99921Y78387D01*
X99921Y78386D01*
X99921Y78385D01*
X99900Y78335D01*
Y78280D01*
X99921Y78229D01*
X99960Y78190D01*
X100010Y78169D01*
X100065D01*
X100116Y78190D01*
X100116Y78191D01*
X100117Y78190D01*
X100168Y78169D01*
X100222D01*
X100273Y78190D01*
X100274Y78191D01*
X100274Y78190D01*
X100325Y78169D01*
X100380D01*
X100431Y78190D01*
X100431Y78191D01*
X100432Y78190D01*
X100483Y78169D01*
X100537D01*
X100588Y78190D01*
X100589Y78191D01*
X100589Y78190D01*
X100640Y78169D01*
X100695D01*
X100746Y78190D01*
X100746Y78191D01*
X100747Y78190D01*
X100798Y78169D01*
X100852D01*
X100903Y78190D01*
X100942Y78229D01*
X100963Y78280D01*
Y78335D01*
X100942Y78385D01*
X100941Y78386D01*
X100942Y78387D01*
X100963Y78437D01*
Y78492D01*
X100942Y78543D01*
X100941Y78544D01*
X100942Y78544D01*
X100963Y78595D01*
Y78650D01*
X100942Y78700D01*
X100941Y78701D01*
X100942Y78702D01*
X100963Y78752D01*
Y78807D01*
X100942Y78858D01*
X100941Y78858D01*
X100942Y78859D01*
X100963Y78910D01*
Y78965D01*
X100942Y79015D01*
X100903Y79054D01*
X100852Y79075D01*
D02*
G37*
G36*
X101439Y79085D02*
X101392D01*
X101349Y79067D01*
X101315Y79034D01*
X101297Y78990D01*
Y78943D01*
X101315Y78900D01*
X101349Y78867D01*
X101392Y78849D01*
X101439D01*
X101482Y78867D01*
X101516Y78900D01*
X101534Y78943D01*
Y78990D01*
X101516Y79034D01*
X101482Y79067D01*
X101439Y79085D01*
D02*
G37*
G36*
X109264Y78957D02*
X109217D01*
X109173Y78939D01*
X109140Y78906D01*
X109122Y78862D01*
Y78815D01*
X109140Y78772D01*
X109173Y78739D01*
X109217Y78721D01*
X109264D01*
X109307Y78739D01*
X109340Y78772D01*
X109358Y78815D01*
Y78862D01*
X109340Y78906D01*
X109307Y78939D01*
X109264Y78957D01*
D02*
G37*
G36*
X101311Y78435D02*
X101264D01*
X101221Y78417D01*
X101187Y78384D01*
X101169Y78341D01*
Y78294D01*
X101187Y78250D01*
X101221Y78217D01*
X101264Y78199D01*
X101311D01*
X101355Y78217D01*
X101388Y78250D01*
X101406Y78294D01*
Y78341D01*
X101388Y78384D01*
X101355Y78417D01*
X101311Y78435D01*
D02*
G37*
G36*
X100872Y78061D02*
X100817D01*
X100767Y78040D01*
X100749Y78023D01*
X100717Y78007D01*
X100684Y78023D01*
X100667Y78040D01*
X100616Y78061D01*
X100561D01*
X100511Y78040D01*
X100493Y78023D01*
X100461Y78007D01*
X100428Y78023D01*
X100411Y78040D01*
X100360Y78061D01*
X100305D01*
X100255Y78040D01*
X100216Y78001D01*
X100195Y77951D01*
Y77896D01*
X100216Y77845D01*
X100255Y77807D01*
X100305Y77786D01*
X100360D01*
X100411Y77807D01*
X100428Y77824D01*
X100461Y77840D01*
X100493Y77824D01*
X100511Y77807D01*
X100561Y77786D01*
X100616D01*
X100667Y77807D01*
X100684Y77824D01*
X100717Y77840D01*
X100749Y77824D01*
X100767Y77807D01*
X100817Y77786D01*
X100872D01*
X100923Y77807D01*
X100962Y77845D01*
X100982Y77896D01*
Y77951D01*
X100962Y78001D01*
X100923Y78040D01*
X100872Y78061D01*
D02*
G37*
G36*
X102683Y78051D02*
X102628D01*
X102578Y78030D01*
X102560Y78013D01*
X102528Y77997D01*
X102495Y78013D01*
X102478Y78030D01*
X102427Y78051D01*
X102372D01*
X102322Y78030D01*
X102305Y78013D01*
X102272Y77997D01*
X102239Y78013D01*
X102222Y78030D01*
X102171Y78051D01*
X102116D01*
X102066Y78030D01*
X102027Y77992D01*
X102006Y77941D01*
Y77886D01*
X102027Y77836D01*
X102066Y77797D01*
X102116Y77776D01*
X102171D01*
X102222Y77797D01*
X102239Y77814D01*
X102272Y77830D01*
X102305Y77814D01*
X102322Y77797D01*
X102372Y77776D01*
X102427D01*
X102478Y77797D01*
X102495Y77814D01*
X102528Y77830D01*
X102560Y77814D01*
X102578Y77797D01*
X102628Y77776D01*
X102683D01*
X102734Y77797D01*
X102773Y77836D01*
X102794Y77886D01*
Y77941D01*
X102773Y77992D01*
X102734Y78030D01*
X102683Y78051D01*
D02*
G37*
G36*
X101213Y78150D02*
X101166D01*
X101122Y78132D01*
X101089Y78099D01*
X101071Y78055D01*
Y78008D01*
X101089Y77965D01*
X101122Y77932D01*
X101166Y77914D01*
X101213D01*
X101256Y77932D01*
X101289Y77965D01*
X101307Y78008D01*
Y78055D01*
X101289Y78099D01*
X101256Y78132D01*
X101213Y78150D01*
D02*
G37*
%LPD*%
G36*
X108325Y80432D02*
X108286Y80393D01*
X108234Y80401D01*
X108224Y80418D01*
X108252Y80468D01*
X108261D01*
X108298Y80475D01*
X108325Y80432D01*
D02*
G37*
G36*
X104287Y80426D02*
Y80116D01*
X104595Y79808D01*
Y79756D01*
X104616Y79706D01*
X104654Y79667D01*
X104705Y79646D01*
X104756D01*
X104880Y79522D01*
Y79112D01*
X104852Y79084D01*
X104831Y79034D01*
Y78979D01*
X104852Y78928D01*
X104880Y78900D01*
Y76919D01*
X102990D01*
Y77992D01*
X103006Y78005D01*
X103040Y78019D01*
X103081Y78002D01*
X103136D01*
X103187Y78023D01*
X103187Y78024D01*
X103188Y78023D01*
X103239Y78002D01*
X103293D01*
X103344Y78023D01*
X103345Y78024D01*
X103345Y78023D01*
X103396Y78002D01*
X103451D01*
X103501Y78023D01*
X103502Y78024D01*
X103503Y78023D01*
X103553Y78002D01*
X103608D01*
X103659Y78023D01*
X103698Y78062D01*
X103719Y78113D01*
Y78167D01*
X103698Y78218D01*
X103697Y78219D01*
X103698Y78219D01*
X103719Y78270D01*
Y78317D01*
X103766D01*
X103816Y78338D01*
X103817Y78339D01*
X103818Y78338D01*
X103868Y78317D01*
X103923D01*
X103974Y78338D01*
X104013Y78377D01*
X104034Y78428D01*
Y78482D01*
X104013Y78533D01*
X104012Y78534D01*
X104013Y78534D01*
X104034Y78585D01*
Y78640D01*
X104013Y78690D01*
X103983Y78721D01*
X103977Y78750D01*
X103983Y78780D01*
X104013Y78810D01*
X104034Y78861D01*
Y78915D01*
X104013Y78966D01*
X104012Y78967D01*
X104013Y78967D01*
X104034Y79018D01*
Y79073D01*
X104013Y79124D01*
X104012Y79124D01*
X104013Y79125D01*
X104034Y79176D01*
Y79230D01*
X104013Y79281D01*
X103974Y79320D01*
X103923Y79341D01*
X103876D01*
Y79388D01*
X103855Y79438D01*
X103816Y79477D01*
X103766Y79498D01*
X103719D01*
Y79545D01*
X103698Y79596D01*
X103697Y79597D01*
X103698Y79597D01*
X103719Y79648D01*
Y79703D01*
X103698Y79753D01*
X103659Y79792D01*
X103608Y79813D01*
X103561D01*
Y79860D01*
X103540Y79911D01*
X103501Y79950D01*
X103451Y79971D01*
X103396D01*
X103345Y79950D01*
X103345Y79949D01*
X103344Y79950D01*
X103293Y79971D01*
X103239D01*
X103188Y79950D01*
X103187Y79949D01*
X103187Y79950D01*
X103136Y79971D01*
X103081D01*
X103040Y79954D01*
X103006Y79968D01*
X102990Y79980D01*
Y80108D01*
X103738Y80857D01*
X103856D01*
X104287Y80426D01*
D02*
G37*
D67*
X104003Y81014D02*
X105589Y79429D01*
X103325Y81014D02*
X104003D01*
X105589Y79429D02*
X108364D01*
X107459Y82097D02*
X108496Y81059D01*
X106657Y81969D02*
X106785Y82097D01*
X107459D01*
X108364Y79429D02*
X108946Y80011D01*
X108975Y80054D02*
Y80069D01*
X108946Y80025D02*
X108975Y80054D01*
X108946Y80011D02*
Y80025D01*
X105077Y82746D02*
X105431Y82392D01*
X100589Y82746D02*
X105077D01*
X100195Y82353D02*
X100589Y82746D01*
X100639Y80926D02*
X100787Y80778D01*
X103089D01*
X103325Y81014D01*
X108496Y80418D02*
Y81059D01*
X108357Y80696D02*
Y80962D01*
X107965Y81354D02*
X107973D01*
X106898Y81929D02*
X107390D01*
X107965Y81354D01*
X108095Y81225D02*
X108357Y80962D01*
X107973Y81354D02*
X108095Y81233D01*
Y81225D02*
Y81233D01*
X105559Y80040D02*
X106002Y79597D01*
X106486D02*
X107676Y80787D01*
X106002Y79597D02*
X106486D01*
X107725Y80062D02*
X108140D01*
X108496Y80418D01*
X107754Y80599D02*
X108261D01*
X108357Y80696D01*
X107730Y80817D02*
X107734D01*
X107676Y80787D02*
X107699D01*
X107730Y80817D01*
X106652Y81969D02*
X106657D01*
X106799Y81831D02*
X106898Y81929D01*
D73*
X104969Y79006D02*
D03*
X105284Y79360D02*
D03*
X104276Y79774D02*
D03*
X104732Y79784D02*
D03*
X109240Y78392D02*
D03*
X103388Y83258D02*
D03*
X105628Y83140D02*
D03*
X105431D02*
D03*
X105234D02*
D03*
X105038D02*
D03*
X104841D02*
D03*
X104644D02*
D03*
X104447D02*
D03*
X104224Y83130D02*
D03*
X108975Y80069D02*
D03*
X108778Y81132D02*
D03*
X106949Y80952D02*
D03*
X106831Y81071D02*
D03*
X106595D02*
D03*
Y81307D02*
D03*
X106713Y80952D02*
D03*
X106713Y81189D02*
D03*
X106477Y81189D02*
D03*
X101140Y82392D02*
D03*
X101455D02*
D03*
X101612D02*
D03*
X102085D02*
D03*
X101927D02*
D03*
X102242D02*
D03*
X101770D02*
D03*
X101297D02*
D03*
X106240Y80008D02*
D03*
X106477Y80008D02*
D03*
X106359Y80126D02*
D03*
X99526Y81486D02*
D03*
Y81290D02*
D03*
X99605Y81093D02*
D03*
X99801Y81368D02*
D03*
X99919Y80975D02*
D03*
X100195Y82353D02*
D03*
X105431Y82392D02*
D03*
X108030Y81880D02*
D03*
X108187D02*
D03*
X108345D02*
D03*
X108935Y81250D02*
D03*
X108778Y81368D02*
D03*
X108935Y81486D02*
D03*
X108778Y81605D02*
D03*
X107185Y80716D02*
D03*
X107067Y80598D02*
D03*
X106949Y80480D02*
D03*
X106831Y80362D02*
D03*
X106713Y80244D02*
D03*
X106595Y80126D02*
D03*
X107067Y80834D02*
D03*
X106949Y80716D02*
D03*
X106831Y80598D02*
D03*
X106713Y80480D02*
D03*
X106595Y80362D02*
D03*
X106477Y80244D02*
D03*
X106831Y80834D02*
D03*
X106713Y80716D02*
D03*
X106595Y80598D02*
D03*
X106477Y80480D02*
D03*
X106359Y80362D02*
D03*
X106240Y80244D02*
D03*
X106122Y80126D02*
D03*
X106595Y80834D02*
D03*
X106477Y80716D02*
D03*
X106359Y80598D02*
D03*
X106240Y80480D02*
D03*
X106122Y80362D02*
D03*
X106004Y80244D02*
D03*
X106477Y80952D02*
D03*
X106359Y80834D02*
D03*
X106240Y80716D02*
D03*
X106122Y80598D02*
D03*
X106004Y80480D02*
D03*
X105886Y80362D02*
D03*
X106359Y81071D02*
D03*
X106240Y80952D02*
D03*
X106122Y80834D02*
D03*
X106004Y80716D02*
D03*
X105886Y80598D02*
D03*
X105768Y80480D02*
D03*
X106477Y81425D02*
D03*
X106359Y81307D02*
D03*
X106240Y81189D02*
D03*
X106122Y81071D02*
D03*
X106004Y80952D02*
D03*
X105886Y80834D02*
D03*
X105768Y80716D02*
D03*
X105650Y80598D02*
D03*
X105549Y80738D02*
D03*
X105668Y80857D02*
D03*
X105786Y80975D02*
D03*
X105904Y81093D02*
D03*
X106022Y81211D02*
D03*
X106140Y81329D02*
D03*
X106258Y81447D02*
D03*
X106376Y81565D02*
D03*
X101219Y81290D02*
D03*
X101376D02*
D03*
X101534D02*
D03*
X101691D02*
D03*
X101849D02*
D03*
X102006D02*
D03*
X102164D02*
D03*
X102321D02*
D03*
X101140Y81447D02*
D03*
X101297D02*
D03*
X101455D02*
D03*
X101612D02*
D03*
X101770D02*
D03*
X101927D02*
D03*
X102085D02*
D03*
X102242D02*
D03*
X101179Y81605D02*
D03*
X101337D02*
D03*
X101494D02*
D03*
X101652D02*
D03*
X101809D02*
D03*
X101967D02*
D03*
X102124D02*
D03*
X102282D02*
D03*
X101140Y81762D02*
D03*
X101297D02*
D03*
X101455D02*
D03*
X101612D02*
D03*
X101770D02*
D03*
X101927D02*
D03*
X102085D02*
D03*
X102242D02*
D03*
X101179Y81919D02*
D03*
X101337D02*
D03*
X101494D02*
D03*
X101652D02*
D03*
X101809D02*
D03*
X101967D02*
D03*
X102124D02*
D03*
X102282D02*
D03*
X101140Y82077D02*
D03*
X101297D02*
D03*
X101455D02*
D03*
X101612D02*
D03*
X101770D02*
D03*
X101927D02*
D03*
X102085D02*
D03*
X102242D02*
D03*
X101179Y82234D02*
D03*
X101337D02*
D03*
X101494D02*
D03*
X101652D02*
D03*
X101809D02*
D03*
X101967D02*
D03*
X102124D02*
D03*
X102282D02*
D03*
X108030Y83416D02*
D03*
X108187D02*
D03*
X108817D02*
D03*
X108975D02*
D03*
X108502D02*
D03*
X108660D02*
D03*
X108345D02*
D03*
X107872D02*
D03*
X109139Y83081D02*
D03*
X107081Y83091D02*
D03*
X97794Y78770D02*
D03*
X97951D02*
D03*
X98108D02*
D03*
Y78612D02*
D03*
X97951D02*
D03*
X97794D02*
D03*
X98108Y78455D02*
D03*
X97951D02*
D03*
X97794D02*
D03*
X99368Y83494D02*
D03*
X99211D02*
D03*
X99053D02*
D03*
X98896D02*
D03*
X99368Y83337D02*
D03*
X99211D02*
D03*
X99053D02*
D03*
X98896D02*
D03*
Y83179D02*
D03*
X99053D02*
D03*
X99211D02*
D03*
X99368D02*
D03*
X99742Y80154D02*
D03*
X108817Y79292D02*
D03*
X109024Y79144D02*
D03*
X103660Y80660D02*
D03*
X103827Y80708D02*
D03*
X104487Y80227D02*
D03*
X104221Y80030D02*
D03*
X104181Y80266D02*
D03*
X103923Y80566D02*
D03*
X103916Y80049D02*
D03*
X104044Y79941D02*
D03*
X100639Y80926D02*
D03*
X109329Y78120D02*
D03*
X109181Y78032D02*
D03*
X109339Y77904D02*
D03*
X103108Y78140D02*
D03*
Y78297D02*
D03*
Y78455D02*
D03*
Y78612D02*
D03*
X103581Y78140D02*
D03*
X103423D02*
D03*
X103266D02*
D03*
Y78297D02*
D03*
X103423D02*
D03*
X103266Y78455D02*
D03*
X103423D02*
D03*
X103266Y78612D02*
D03*
X103423D02*
D03*
X103581Y78297D02*
D03*
Y78455D02*
D03*
Y78612D02*
D03*
X103738Y78455D02*
D03*
Y78612D02*
D03*
X103896Y78455D02*
D03*
Y78612D02*
D03*
X108149Y80817D02*
D03*
X105687Y78563D02*
D03*
X105264Y78632D02*
D03*
X104073Y80118D02*
D03*
X103572Y80477D02*
D03*
X103700Y80363D02*
D03*
X103765Y80540D02*
D03*
X103862Y80401D02*
D03*
X103820Y80238D02*
D03*
X104021Y80428D02*
D03*
X103738Y77038D02*
D03*
X104053D02*
D03*
X104368Y77195D02*
D03*
X103738Y77510D02*
D03*
X103108Y77195D02*
D03*
X103896Y77353D02*
D03*
X104368Y77038D02*
D03*
X103581Y77195D02*
D03*
X103423Y77038D02*
D03*
X103266Y77195D02*
D03*
X103581Y77353D02*
D03*
X104211Y77510D02*
D03*
X103108Y77038D02*
D03*
Y77353D02*
D03*
X104368D02*
D03*
X103266D02*
D03*
X103423Y77195D02*
D03*
Y77353D02*
D03*
X104211Y77038D02*
D03*
X103266Y77510D02*
D03*
X103108D02*
D03*
X104368D02*
D03*
X103738Y77353D02*
D03*
X104211D02*
D03*
X103581Y77038D02*
D03*
X104053Y77510D02*
D03*
Y77195D02*
D03*
X103423Y77510D02*
D03*
X103266Y77038D02*
D03*
X103896Y77195D02*
D03*
X104211D02*
D03*
X103738D02*
D03*
X104053Y77353D02*
D03*
X103896Y77510D02*
D03*
Y77038D02*
D03*
X103581Y77510D02*
D03*
D74*
X107754Y80599D02*
D03*
X106652Y81969D02*
D03*
X107734Y80817D02*
D03*
X107725Y80062D02*
D03*
X106799Y81831D02*
D03*
X105559Y80040D02*
D03*
M02*
