G04*
G04 #@! TF.GenerationSoftware,Altium Limited,Altium Designer,21.7.2 (23)*
G04*
G04 Layer_Color=16711935*
%FSLAX25Y25*%
%MOIN*%
G70*
G04*
G04 #@! TF.SameCoordinates,A9B48DCA-64FB-4BA4-8F48-11090BDC09AC*
G04*
G04*
G04 #@! TF.FilePolarity,Positive*
G04*
G01*
G75*
%ADD12C,0.00787*%
D12*
X1015287Y876185D02*
G03*
X1015249Y876266I-372J-129D01*
G01*
X1014780Y877011D02*
G03*
X1014725Y877081I-334J-208D01*
G01*
X1014780Y877013D02*
G03*
X1014725Y877081I-333J-209D01*
G01*
X1015287Y876187D02*
G03*
X1015248Y876267I-372J-130D01*
G01*
X1015699Y874348D02*
G03*
X1015696Y874393I-394J0D01*
G01*
X1015598Y875267D02*
G03*
X1015578Y875354I-391J-43D01*
G01*
X1015699Y874348D02*
G03*
X1015696Y874394I-394J0D01*
G01*
X1015598Y875269D02*
G03*
X1015578Y875356I-391J-44D01*
G01*
X1013287Y878228D02*
G03*
X1013206Y878267I-211J-333D01*
G01*
X1012374Y878558D02*
G03*
X1012288Y878578I-130J-372D01*
G01*
X1013286Y878229D02*
G03*
X1013206Y878267I-209J-333D01*
G01*
X1011412Y878677D02*
G03*
X1011368Y878679I-44J-391D01*
G01*
X1011412Y878677D02*
G03*
X1011368Y878679I-44J-391D01*
G01*
X1012374Y878558D02*
G03*
X1012288Y878578I-130J-372D01*
G01*
X1014101Y877705D02*
G03*
X1014032Y877760I-279J-279D01*
G01*
X1014101Y877705D02*
G03*
X1014031Y877761I-279J-279D01*
G01*
X1015696Y807375D02*
G03*
X1015699Y807419I-391J44D01*
G01*
X1015578Y806413D02*
G03*
X1015598Y806501I-372J130D01*
G01*
X1015696Y807374D02*
G03*
X1015699Y807419I-391J46D01*
G01*
X1015578Y806412D02*
G03*
X1015598Y806499I-371J131D01*
G01*
X1015249Y805502D02*
G03*
X1015287Y805582I-333J209D01*
G01*
X1015248Y805500D02*
G03*
X1015287Y805581I-333J211D01*
G01*
X1014725Y804686D02*
G03*
X1014780Y804756I-279J279D01*
G01*
X1014725Y804686D02*
G03*
X1014780Y804755I-279J279D01*
G01*
X1014032Y804008D02*
G03*
X1014101Y804063I-209J333D01*
G01*
X1014031Y804007D02*
G03*
X1014101Y804063I-208J334D01*
G01*
X1013206Y803500D02*
G03*
X1013286Y803539I-130J372D01*
G01*
X1013206Y803500D02*
G03*
X1013287Y803539I-130J372D01*
G01*
X1012288Y803190D02*
G03*
X1012374Y803209I-44J391D01*
G01*
X1012288Y803190D02*
G03*
X1012374Y803209I-44J391D01*
G01*
X1011368Y803088D02*
G03*
X1011412Y803091I0J394D01*
G01*
X1011368Y803088D02*
G03*
X1011412Y803091I0J394D01*
G01*
X899557Y878679D02*
G03*
X899513Y878677I0J-394D01*
G01*
X899557Y878679D02*
G03*
X899513Y878677I0J-394D01*
G01*
X898637Y878578D02*
G03*
X898551Y878558I44J-391D01*
G01*
X897719Y878267D02*
G03*
X897639Y878229I130J-372D01*
G01*
X898637Y878578D02*
G03*
X898551Y878558I44J-391D01*
G01*
X897719Y878267D02*
G03*
X897638Y878228I130J-372D01*
G01*
X896894Y877761D02*
G03*
X896824Y877705I208J-334D01*
G01*
X896893Y877760D02*
G03*
X896824Y877705I209J-333D01*
G01*
X896200Y877081D02*
G03*
X896146Y877013I279J-279D01*
G01*
X896200Y877081D02*
G03*
X896145Y877011I279J-279D01*
G01*
X895677Y876267D02*
G03*
X895638Y876187I333J-211D01*
G01*
X895677Y876266D02*
G03*
X895638Y876185I333J-209D01*
G01*
X895347Y875356D02*
G03*
X895327Y875269I371J-131D01*
G01*
X895347Y875354D02*
G03*
X895327Y875267I372J-130D01*
G01*
X895229Y874394D02*
G03*
X895226Y874348I391J-46D01*
G01*
X895229Y874393D02*
G03*
X895226Y874348I391J-44D01*
G01*
X898551Y803209D02*
G03*
X898637Y803190I130J372D01*
G01*
X897638Y803539D02*
G03*
X897719Y803500I211J333D01*
G01*
X896824Y804063D02*
G03*
X896893Y804008I279J279D01*
G01*
X896824Y804063D02*
G03*
X896894Y804007I279J279D01*
G01*
X899513Y803091D02*
G03*
X899557Y803088I44J391D01*
G01*
X899513Y803091D02*
G03*
X899557Y803088I44J391D01*
G01*
X897639Y803539D02*
G03*
X897719Y803500I209J333D01*
G01*
X898551Y803209D02*
G03*
X898637Y803190I130J372D01*
G01*
X895327Y806499D02*
G03*
X895347Y806412I391J44D01*
G01*
X895226Y807419D02*
G03*
X895229Y807375I394J0D01*
G01*
X895226Y807419D02*
G03*
X895229Y807374I394J0D01*
G01*
X895327Y806501D02*
G03*
X895347Y806413I391J43D01*
G01*
X896146Y804755D02*
G03*
X896200Y804686I333J209D01*
G01*
X895638Y805581D02*
G03*
X895677Y805500I372J130D01*
G01*
X895638Y805582D02*
G03*
X895677Y805502I372J129D01*
G01*
X896145Y804756D02*
G03*
X896200Y804686I334J208D01*
G01*
X1014780Y877013D02*
X1014780Y877011D01*
X1015248Y876267D01*
X1015249Y876266D01*
X1015287Y876187D02*
X1015287Y876185D01*
X1015578Y875356D01*
X1015578Y875354D01*
X1014101Y877705D02*
X1014725Y877081D01*
X1015598Y875269D02*
X1015598Y875267D01*
X1015696Y874394D01*
X1015696Y874393D01*
X1015699Y807419D02*
Y874348D01*
X1012374Y878558D02*
X1013206Y878267D01*
X1014031Y877761D02*
X1014032Y877760D01*
X1013287Y878228D02*
X1014031Y877761D01*
X1013286Y878229D02*
X1013287Y878228D01*
X1011412Y878677D02*
X1012288Y878578D01*
X1015696Y807374D02*
X1015696Y807375D01*
X1015598Y806501D02*
X1015696Y807374D01*
X1015598Y806499D02*
X1015598Y806501D01*
X1015578Y806412D02*
X1015578Y806413D01*
X1015287Y805582D02*
X1015578Y806412D01*
X1015287Y805581D02*
X1015287Y805582D01*
X1015248Y805500D02*
X1015249Y805502D01*
X1014780Y804756D02*
X1015248Y805500D01*
X1014780Y804755D02*
X1014780Y804756D01*
X1014101Y804063D02*
X1014725Y804686D01*
X1014031Y804007D02*
X1014032Y804008D01*
X1013287Y803539D02*
X1014031Y804007D01*
X1013286Y803539D02*
X1013287Y803539D01*
X1012374Y803209D02*
X1013206Y803500D01*
X1011412Y803091D02*
X1012288Y803190D01*
X899557Y878679D02*
X1011368D01*
X898637Y878578D02*
X899513Y878677D01*
X897719Y878267D02*
X898551Y878558D01*
X897638Y878228D02*
X897639Y878229D01*
X896894Y877761D02*
X897638Y878228D01*
X896893Y877760D02*
X896894Y877761D01*
X896200Y877081D02*
X896824Y877705D01*
X896145Y877011D02*
X896146Y877013D01*
X895677Y876267D02*
X896145Y877011D01*
X895677Y876266D02*
X895677Y876267D01*
X895638Y876185D02*
X895638Y876187D01*
X895347Y875356D02*
X895638Y876185D01*
X895347Y875354D02*
X895347Y875356D01*
X895327Y875267D02*
X895327Y875269D01*
X895229Y874394D02*
X895327Y875267D01*
X895229Y874393D02*
X895229Y874394D01*
X897638Y803539D02*
X897639Y803539D01*
X896894Y804007D02*
X897638Y803539D01*
X896893Y804008D02*
X896894Y804007D01*
X899557Y803088D02*
X1011368D01*
X897719Y803500D02*
X898551Y803209D01*
X898637Y803190D02*
X899513Y803091D01*
X895347Y806413D02*
X895347Y806412D01*
X895638Y805582D01*
X895638Y805581D01*
X895226Y807419D02*
Y874348D01*
X895229Y807375D02*
X895229Y807374D01*
X895327Y806501D01*
X895327Y806499D01*
X896200Y804686D02*
X896824Y804063D01*
X895677Y805502D02*
X895677Y805500D01*
X896145Y804756D01*
X896146Y804755D01*
X1015287Y876185D02*
G03*
X1015249Y876266I-372J-129D01*
G01*
X1014780Y877011D02*
G03*
X1014725Y877081I-334J-208D01*
G01*
X1014780Y877013D02*
G03*
X1014725Y877081I-333J-209D01*
G01*
X1015287Y876187D02*
G03*
X1015248Y876267I-372J-130D01*
G01*
X1015699Y874348D02*
G03*
X1015696Y874393I-394J0D01*
G01*
X1015598Y875267D02*
G03*
X1015578Y875354I-391J-43D01*
G01*
X1015699Y874348D02*
G03*
X1015696Y874394I-394J0D01*
G01*
X1015598Y875269D02*
G03*
X1015578Y875356I-391J-44D01*
G01*
X1013287Y878228D02*
G03*
X1013206Y878267I-211J-333D01*
G01*
X1012374Y878558D02*
G03*
X1012288Y878578I-130J-372D01*
G01*
X1013286Y878229D02*
G03*
X1013206Y878267I-209J-333D01*
G01*
X1011412Y878677D02*
G03*
X1011368Y878679I-44J-391D01*
G01*
X1011412Y878677D02*
G03*
X1011368Y878679I-44J-391D01*
G01*
X1012374Y878558D02*
G03*
X1012288Y878578I-130J-372D01*
G01*
X1014101Y877705D02*
G03*
X1014032Y877760I-279J-279D01*
G01*
X1014101Y877705D02*
G03*
X1014031Y877761I-279J-279D01*
G01*
X1015696Y807375D02*
G03*
X1015699Y807419I-391J44D01*
G01*
X1015578Y806413D02*
G03*
X1015598Y806501I-372J130D01*
G01*
X1015696Y807374D02*
G03*
X1015699Y807419I-391J46D01*
G01*
X1015578Y806412D02*
G03*
X1015598Y806499I-371J131D01*
G01*
X1015249Y805502D02*
G03*
X1015287Y805582I-333J209D01*
G01*
X1015248Y805500D02*
G03*
X1015287Y805581I-333J211D01*
G01*
X1014725Y804686D02*
G03*
X1014780Y804756I-279J279D01*
G01*
X1014725Y804686D02*
G03*
X1014780Y804755I-279J279D01*
G01*
X1014032Y804008D02*
G03*
X1014101Y804063I-209J333D01*
G01*
X1014031Y804007D02*
G03*
X1014101Y804063I-208J334D01*
G01*
X1013206Y803500D02*
G03*
X1013286Y803539I-130J372D01*
G01*
X1013206Y803500D02*
G03*
X1013287Y803539I-130J372D01*
G01*
X1012288Y803190D02*
G03*
X1012374Y803209I-44J391D01*
G01*
X1012288Y803190D02*
G03*
X1012374Y803209I-44J391D01*
G01*
X1011368Y803088D02*
G03*
X1011412Y803091I0J394D01*
G01*
X1011368Y803088D02*
G03*
X1011412Y803091I0J394D01*
G01*
X899557Y878679D02*
G03*
X899513Y878677I0J-394D01*
G01*
X899557Y878679D02*
G03*
X899513Y878677I0J-394D01*
G01*
X898637Y878578D02*
G03*
X898551Y878558I44J-391D01*
G01*
X897719Y878267D02*
G03*
X897639Y878229I130J-372D01*
G01*
X898637Y878578D02*
G03*
X898551Y878558I44J-391D01*
G01*
X897719Y878267D02*
G03*
X897638Y878228I130J-372D01*
G01*
X896894Y877761D02*
G03*
X896824Y877705I208J-334D01*
G01*
X896893Y877760D02*
G03*
X896824Y877705I209J-333D01*
G01*
X896200Y877081D02*
G03*
X896146Y877013I279J-279D01*
G01*
X896200Y877081D02*
G03*
X896145Y877011I279J-279D01*
G01*
X895677Y876267D02*
G03*
X895638Y876187I333J-211D01*
G01*
X895677Y876266D02*
G03*
X895638Y876185I333J-209D01*
G01*
X895347Y875356D02*
G03*
X895327Y875269I371J-131D01*
G01*
X895347Y875354D02*
G03*
X895327Y875267I372J-130D01*
G01*
X895229Y874394D02*
G03*
X895226Y874348I391J-46D01*
G01*
X895229Y874393D02*
G03*
X895226Y874348I391J-44D01*
G01*
X898551Y803209D02*
G03*
X898637Y803190I130J372D01*
G01*
X897638Y803539D02*
G03*
X897719Y803500I211J333D01*
G01*
X896824Y804063D02*
G03*
X896893Y804008I279J279D01*
G01*
X896824Y804063D02*
G03*
X896894Y804007I279J279D01*
G01*
X899513Y803091D02*
G03*
X899557Y803088I44J391D01*
G01*
X899513Y803091D02*
G03*
X899557Y803088I44J391D01*
G01*
X897639Y803539D02*
G03*
X897719Y803500I209J333D01*
G01*
X898551Y803209D02*
G03*
X898637Y803190I130J372D01*
G01*
X895327Y806499D02*
G03*
X895347Y806412I391J44D01*
G01*
X895226Y807419D02*
G03*
X895229Y807375I394J0D01*
G01*
X895226Y807419D02*
G03*
X895229Y807374I394J0D01*
G01*
X895327Y806501D02*
G03*
X895347Y806413I391J43D01*
G01*
X896146Y804755D02*
G03*
X896200Y804686I333J209D01*
G01*
X895638Y805581D02*
G03*
X895677Y805500I372J130D01*
G01*
X895638Y805582D02*
G03*
X895677Y805502I372J129D01*
G01*
X896145Y804756D02*
G03*
X896200Y804686I334J208D01*
G01*
X1014780Y877013D02*
X1014780Y877011D01*
X1015248Y876267D01*
X1015249Y876266D01*
X1015287Y876187D02*
X1015287Y876185D01*
X1015578Y875356D01*
X1015578Y875354D01*
X1014101Y877705D02*
X1014725Y877081D01*
X1015598Y875269D02*
X1015598Y875267D01*
X1015696Y874394D01*
X1015696Y874393D01*
X1015699Y807419D02*
Y874348D01*
X1012374Y878558D02*
X1013206Y878267D01*
X1014031Y877761D02*
X1014032Y877760D01*
X1013287Y878228D02*
X1014031Y877761D01*
X1013286Y878229D02*
X1013287Y878228D01*
X1011412Y878677D02*
X1012288Y878578D01*
X1015696Y807374D02*
X1015696Y807375D01*
X1015598Y806501D02*
X1015696Y807374D01*
X1015598Y806499D02*
X1015598Y806501D01*
X1015578Y806412D02*
X1015578Y806413D01*
X1015287Y805582D02*
X1015578Y806412D01*
X1015287Y805581D02*
X1015287Y805582D01*
X1015248Y805500D02*
X1015249Y805502D01*
X1014780Y804756D02*
X1015248Y805500D01*
X1014780Y804755D02*
X1014780Y804756D01*
X1014101Y804063D02*
X1014725Y804686D01*
X1014031Y804007D02*
X1014032Y804008D01*
X1013287Y803539D02*
X1014031Y804007D01*
X1013286Y803539D02*
X1013287Y803539D01*
X1012374Y803209D02*
X1013206Y803500D01*
X1011412Y803091D02*
X1012288Y803190D01*
X899557Y878679D02*
X1011368D01*
X898637Y878578D02*
X899513Y878677D01*
X897719Y878267D02*
X898551Y878558D01*
X897638Y878228D02*
X897639Y878229D01*
X896894Y877761D02*
X897638Y878228D01*
X896893Y877760D02*
X896894Y877761D01*
X896200Y877081D02*
X896824Y877705D01*
X896145Y877011D02*
X896146Y877013D01*
X895677Y876267D02*
X896145Y877011D01*
X895677Y876266D02*
X895677Y876267D01*
X895638Y876185D02*
X895638Y876187D01*
X895347Y875356D02*
X895638Y876185D01*
X895347Y875354D02*
X895347Y875356D01*
X895327Y875267D02*
X895327Y875269D01*
X895229Y874394D02*
X895327Y875267D01*
X895229Y874393D02*
X895229Y874394D01*
X897638Y803539D02*
X897639Y803539D01*
X896894Y804007D02*
X897638Y803539D01*
X896893Y804008D02*
X896894Y804007D01*
X899557Y803088D02*
X1011368D01*
X897719Y803500D02*
X898551Y803209D01*
X898637Y803190D02*
X899513Y803091D01*
X895347Y806413D02*
X895347Y806412D01*
X895638Y805582D01*
X895638Y805581D01*
X895226Y807419D02*
Y874348D01*
X895229Y807375D02*
X895229Y807374D01*
X895327Y806501D01*
X895327Y806499D01*
X896200Y804686D02*
X896824Y804063D01*
X895677Y805502D02*
X895677Y805500D01*
X896145Y804756D01*
X896146Y804755D01*
M02*
