G04*
G04 #@! TF.GenerationSoftware,Altium Limited,Altium Designer,21.7.2 (23)*
G04*
G04 Layer_Color=16711935*
%FSLAX25Y25*%
%MOIN*%
G70*
G04*
G04 #@! TF.SameCoordinates,AC889540-4392-436D-8BBA-4FEAA821C39F*
G04*
G04*
G04 #@! TF.FilePolarity,Positive*
G04*
G01*
G75*
%ADD10C,0.00394*%
%ADD12C,0.00787*%
D10*
X119375Y72773D02*
G03*
X119356Y72813I-186J-65D01*
G01*
X119375Y72773D02*
G03*
X119355Y72814I-186J-65D01*
G01*
X118887Y73558D02*
G03*
X118859Y73594I-167J-104D01*
G01*
X118887Y73559D02*
G03*
X118858Y73595I-167J-105D01*
G01*
X119776Y71000D02*
G03*
X119774Y71022I-197J0D01*
G01*
X119676Y71899D02*
G03*
X119666Y71941I-196J-23D01*
G01*
X119676Y71897D02*
G03*
X119676Y71899I-196J-21D01*
G01*
X119774Y71021D02*
G03*
X119774Y71023I-196J-21D01*
G01*
X119776Y71000D02*
G03*
X119774Y71021I-197J0D01*
G01*
X119676Y71898D02*
G03*
X119666Y71941I-196J-22D01*
G01*
X116583Y75024D02*
G03*
X116540Y75034I-65J-186D01*
G01*
X116541Y75034D02*
G03*
X116539Y75034I-23J-196D01*
G01*
X116583Y75024D02*
G03*
X116541Y75034I-65J-186D01*
G01*
X117455Y74714D02*
G03*
X117415Y74733I-105J-167D01*
G01*
X115663Y75133D02*
G03*
X115642Y75134I-21J-196D01*
G01*
X115665Y75133D02*
G03*
X115663Y75133I-23J-196D01*
G01*
X115664Y75133D02*
G03*
X115642Y75134I-22J-196D01*
G01*
X118237Y74216D02*
G03*
X118201Y74245I-140J-138D01*
G01*
X118236Y74217D02*
G03*
X118200Y74246I-139J-139D01*
G01*
X117456Y74713D02*
G03*
X117415Y74733I-106J-166D01*
G01*
X119774Y4049D02*
G03*
X119776Y4071I-196J22D01*
G01*
X119774Y4050D02*
G03*
X119776Y4071I-196J21D01*
G01*
X119774Y4048D02*
G03*
X119774Y4050I-196J23D01*
G01*
X119676Y3172D02*
G03*
X119676Y3174I-196J23D01*
G01*
X119666Y3130D02*
G03*
X119676Y3172I-186J65D01*
G01*
X119666Y3130D02*
G03*
X119676Y3173I-186J65D01*
G01*
X119356Y2258D02*
G03*
X119375Y2298I-167J105D01*
G01*
X119355Y2257D02*
G03*
X119375Y2298I-166J106D01*
G01*
X118859Y1477D02*
G03*
X118887Y1512I-139J139D01*
G01*
X118858Y1476D02*
G03*
X118887Y1511I-138J140D01*
G01*
X118201Y826D02*
G03*
X118237Y855I-105J167D01*
G01*
X118200Y825D02*
G03*
X118236Y853I-104J167D01*
G01*
X117415Y338D02*
G03*
X117456Y358I-65J186D01*
G01*
X117415Y338D02*
G03*
X117455Y357I-65J186D01*
G01*
X116540Y37D02*
G03*
X116583Y47I-22J196D01*
G01*
X116541Y37D02*
G03*
X116583Y47I-23J196D01*
G01*
X116539Y37D02*
G03*
X116541Y37I-21J196D01*
G01*
X115663Y-62D02*
G03*
X115665Y-62I-21J196D01*
G01*
X115642Y-63D02*
G03*
X115663Y-62I0J197D01*
G01*
X115642Y-63D02*
G03*
X115664Y-62I0J197D01*
G01*
X3831Y75134D02*
G03*
X3809Y75133I0J-197D01*
G01*
X3810Y75133D02*
G03*
X3808Y75133I21J-196D01*
G01*
X3831Y75134D02*
G03*
X3810Y75133I0J-197D01*
G01*
X2932Y75034D02*
G03*
X2890Y75024I23J-196D01*
G01*
X2933Y75034D02*
G03*
X2932Y75034I21J-196D01*
G01*
X2933Y75034D02*
G03*
X2890Y75024I22J-196D01*
G01*
X2057Y74733D02*
G03*
X2018Y74714I65J-186D01*
G01*
X2057Y74733D02*
G03*
X2017Y74713I65J-186D01*
G01*
X1272Y74246D02*
G03*
X1237Y74217I104J-167D01*
G01*
X1271Y74245D02*
G03*
X1236Y74216I105J-167D01*
G01*
X614Y73595D02*
G03*
X586Y73559I138J-140D01*
G01*
X613Y73594D02*
G03*
X585Y73558I139J-139D01*
G01*
X117Y72814D02*
G03*
X98Y72773I166J-106D01*
G01*
X117Y72813D02*
G03*
X98Y72773I167J-105D01*
G01*
X-193Y71941D02*
G03*
X-203Y71898I186J-65D01*
G01*
X-203Y71899D02*
G03*
X-203Y71897I196J-23D01*
G01*
X-193Y71941D02*
G03*
X-203Y71899I186J-65D01*
G01*
X-302Y71021D02*
G03*
X-303Y71000I196J-21D01*
G01*
X-302Y71023D02*
G03*
X-302Y71021I196J-23D01*
G01*
X-302Y71022D02*
G03*
X-303Y71000I196J-22D01*
G01*
X2018Y357D02*
G03*
X2057Y338I105J167D01*
G01*
X2017Y358D02*
G03*
X2057Y338I106J166D01*
G01*
X1237Y853D02*
G03*
X1272Y825I139J139D01*
G01*
X1236Y855D02*
G03*
X1271Y826I140J138D01*
G01*
X3809Y-62D02*
G03*
X3831Y-63I22J196D01*
G01*
X3810Y-62D02*
G03*
X3831Y-63I21J196D01*
G01*
X3808Y-62D02*
G03*
X3810Y-62I23J196D01*
G01*
X2890Y47D02*
G03*
X2933Y37I65J186D01*
G01*
X2932Y37D02*
G03*
X2933Y37I23J196D01*
G01*
X2890Y47D02*
G03*
X2932Y37I65J186D01*
G01*
X-303Y4071D02*
G03*
X-302Y4049I197J0D01*
G01*
X-302Y4050D02*
G03*
X-302Y4048I196J21D01*
G01*
X-303Y4071D02*
G03*
X-302Y4050I197J0D01*
G01*
X-203Y3173D02*
G03*
X-193Y3130I196J22D01*
G01*
X-203Y3172D02*
G03*
X-193Y3130I196J23D01*
G01*
X-203Y3174D02*
G03*
X-203Y3172I196J21D01*
G01*
X585Y1512D02*
G03*
X613Y1477I167J104D01*
G01*
X586Y1511D02*
G03*
X614Y1476I167J105D01*
G01*
X98Y2298D02*
G03*
X117Y2257I186J65D01*
G01*
X98Y2298D02*
G03*
X117Y2258I186J65D01*
G01*
X-303Y4071D02*
Y71000D01*
X119375Y72773D02*
X119666Y71941D01*
X118887Y73559D02*
X118887Y73558D01*
X119355Y72814D01*
X119356Y72813D01*
X119676Y71899D02*
X119676Y71898D01*
X119676Y71897D01*
X119774Y71023D01*
X119774Y71022D01*
X119774Y71021D01*
X119776Y4071D02*
Y71000D01*
X116583Y75024D02*
X117415Y74733D01*
X116540Y75034D02*
X116541Y75034D01*
X116539Y75034D02*
X116540Y75034D01*
X115665Y75133D02*
X116539Y75034D01*
X115664Y75133D02*
X115665Y75133D01*
X115663Y75133D02*
X115664Y75133D01*
X118236Y74217D02*
X118237Y74216D01*
X118858Y73595D01*
X118859Y73594D01*
X118200Y74246D02*
X118201Y74245D01*
X117456Y74713D02*
X118200Y74246D01*
X117455Y74714D02*
X117456Y74713D01*
X119774Y4049D02*
X119774Y4050D01*
X119774Y4048D02*
X119774Y4049D01*
X119676Y3174D02*
X119774Y4048D01*
X119676Y3173D02*
X119676Y3174D01*
X119676Y3172D02*
X119676Y3173D01*
X119375Y2298D02*
X119666Y3130D01*
X119355Y2257D02*
X119356Y2258D01*
X118887Y1512D02*
X119355Y2257D01*
X118887Y1511D02*
X118887Y1512D01*
X118858Y1476D02*
X118859Y1477D01*
X118237Y855D02*
X118858Y1476D01*
X118236Y853D02*
X118237Y855D01*
X118200Y825D02*
X118201Y826D01*
X117456Y358D02*
X118200Y825D01*
X117455Y357D02*
X117456Y358D01*
X116583Y47D02*
X117415Y338D01*
X116540Y37D02*
X116541Y37D01*
X116539Y37D02*
X116540Y37D01*
X115665Y-62D02*
X116539Y37D01*
X115664Y-62D02*
X115665Y-62D01*
X115663Y-62D02*
X115664Y-62D01*
X3831Y75134D02*
X115642D01*
X3809Y75133D02*
X3810Y75133D01*
X3808Y75133D02*
X3809Y75133D01*
X2933Y75034D02*
X3808Y75133D01*
X2933Y75034D02*
X2933Y75034D01*
X2932Y75034D02*
X2933Y75034D01*
X2057Y74733D02*
X2890Y75024D01*
X2017Y74713D02*
X2018Y74714D01*
X1272Y74246D02*
X2017Y74713D01*
X1271Y74245D02*
X1272Y74246D01*
X1236Y74216D02*
X1237Y74217D01*
X614Y73595D02*
X1236Y74216D01*
X613Y73594D02*
X614Y73595D01*
X585Y73558D02*
X586Y73559D01*
X117Y72814D02*
X585Y73558D01*
X117Y72813D02*
X117Y72814D01*
X-193Y71941D02*
X98Y72773D01*
X-203Y71898D02*
X-203Y71899D01*
X-203Y71897D02*
X-203Y71898D01*
X-302Y71023D02*
X-203Y71897D01*
X-302Y71022D02*
X-302Y71023D01*
X-302Y71021D02*
X-302Y71022D01*
X2017Y358D02*
X2018Y357D01*
X1272Y825D02*
X2017Y358D01*
X1271Y826D02*
X1272Y825D01*
X3831Y-63D02*
X115642D01*
X2057Y338D02*
X2890Y47D01*
X3809Y-62D02*
X3810Y-62D01*
X3808Y-62D02*
X3809Y-62D01*
X2933Y37D02*
X3808Y-62D01*
X2933Y37D02*
X2933Y37D01*
X2932Y37D02*
X2933Y37D01*
X-193Y3130D02*
X98Y2298D01*
X-302Y4050D02*
X-302Y4049D01*
X-302Y4048D01*
X-203Y3174D01*
X-203Y3173D01*
X-203Y3172D01*
X613Y1477D02*
X614Y1476D01*
X1236Y855D01*
X1237Y853D01*
X117Y2258D02*
X117Y2257D01*
X585Y1512D01*
X586Y1511D01*
D12*
X119561Y72837D02*
G03*
X119522Y72918I-372J-129D01*
G01*
X119054Y73663D02*
G03*
X118998Y73733I-334J-208D01*
G01*
X119053Y73664D02*
G03*
X118998Y73733I-333J-209D01*
G01*
X119561Y72838D02*
G03*
X119522Y72919I-372J-130D01*
G01*
X119973Y71000D02*
G03*
X119970Y71044I-394J0D01*
G01*
X119871Y71919D02*
G03*
X119852Y72006I-391J-43D01*
G01*
X119973Y71000D02*
G03*
X119970Y71046I-394J0D01*
G01*
X119871Y71920D02*
G03*
X119851Y72007I-391J-44D01*
G01*
X117561Y74880D02*
G03*
X117480Y74919I-211J-333D01*
G01*
X116648Y75210D02*
G03*
X116562Y75230I-130J-372D01*
G01*
X117559Y74880D02*
G03*
X117480Y74919I-209J-333D01*
G01*
X115686Y75328D02*
G03*
X115642Y75331I-44J-391D01*
G01*
X115686Y75328D02*
G03*
X115642Y75331I-44J-391D01*
G01*
X116648Y75210D02*
G03*
X116562Y75230I-130J-372D01*
G01*
X118375Y74357D02*
G03*
X118306Y74411I-279J-279D01*
G01*
X118375Y74357D02*
G03*
X118305Y74412I-279J-279D01*
G01*
X119970Y4027D02*
G03*
X119973Y4071I-391J44D01*
G01*
X119852Y3065D02*
G03*
X119871Y3152I-372J130D01*
G01*
X119970Y4025D02*
G03*
X119973Y4071I-391J46D01*
G01*
X119851Y3063D02*
G03*
X119871Y3151I-371J131D01*
G01*
X119522Y2153D02*
G03*
X119561Y2234I-333J209D01*
G01*
X119522Y2152D02*
G03*
X119561Y2233I-333J211D01*
G01*
X118998Y1338D02*
G03*
X119054Y1408I-279J279D01*
G01*
X118998Y1338D02*
G03*
X119053Y1407I-279J279D01*
G01*
X118306Y659D02*
G03*
X118375Y714I-209J333D01*
G01*
X118305Y659D02*
G03*
X118375Y714I-208J334D01*
G01*
X117480Y152D02*
G03*
X117559Y190I-130J372D01*
G01*
X117480Y152D02*
G03*
X117561Y191I-130J372D01*
G01*
X116562Y-159D02*
G03*
X116648Y-139I-44J391D01*
G01*
X116562Y-159D02*
G03*
X116648Y-139I-44J391D01*
G01*
X115642Y-260D02*
G03*
X115686Y-258I0J394D01*
G01*
X115642Y-260D02*
G03*
X115686Y-258I0J394D01*
G01*
X3831Y75331D02*
G03*
X3787Y75328I0J-394D01*
G01*
X3831Y75331D02*
G03*
X3787Y75328I0J-394D01*
G01*
X2911Y75230D02*
G03*
X2825Y75210I44J-391D01*
G01*
X1992Y74919D02*
G03*
X1913Y74880I130J-372D01*
G01*
X2911Y75230D02*
G03*
X2825Y75210I44J-391D01*
G01*
X1992Y74919D02*
G03*
X1912Y74880I130J-372D01*
G01*
X1168Y74412D02*
G03*
X1098Y74357I208J-334D01*
G01*
X1166Y74411D02*
G03*
X1098Y74357I209J-333D01*
G01*
X474Y73733D02*
G03*
X419Y73664I279J-279D01*
G01*
X474Y73733D02*
G03*
X418Y73663I279J-279D01*
G01*
X-49Y72919D02*
G03*
X-88Y72838I333J-211D01*
G01*
X-50Y72918D02*
G03*
X-89Y72837I333J-209D01*
G01*
X-379Y72007D02*
G03*
X-399Y71920I371J-131D01*
G01*
X-379Y72006D02*
G03*
X-399Y71919I372J-130D01*
G01*
X-497Y71046D02*
G03*
X-500Y71000I391J-46D01*
G01*
X-498Y71044D02*
G03*
X-500Y71000I391J-44D01*
G01*
X2825Y-139D02*
G03*
X2911Y-159I130J372D01*
G01*
X1912Y191D02*
G03*
X1992Y152I211J333D01*
G01*
X1098Y714D02*
G03*
X1166Y659I279J279D01*
G01*
X1098Y714D02*
G03*
X1168Y659I279J279D01*
G01*
X3787Y-258D02*
G03*
X3831Y-260I44J391D01*
G01*
X3787Y-258D02*
G03*
X3831Y-260I44J391D01*
G01*
X1913Y190D02*
G03*
X1992Y152I209J333D01*
G01*
X2825Y-139D02*
G03*
X2911Y-159I130J372D01*
G01*
X-399Y3151D02*
G03*
X-379Y3063I391J44D01*
G01*
X-500Y4071D02*
G03*
X-498Y4027I394J0D01*
G01*
X-500Y4071D02*
G03*
X-497Y4025I394J0D01*
G01*
X-399Y3152D02*
G03*
X-379Y3065I391J43D01*
G01*
X419Y1407D02*
G03*
X474Y1338I333J209D01*
G01*
X-88Y2233D02*
G03*
X-49Y2152I372J130D01*
G01*
X-89Y2234D02*
G03*
X-50Y2153I372J129D01*
G01*
X418Y1408D02*
G03*
X474Y1338I334J208D01*
G01*
X119053Y73664D02*
X119054Y73663D01*
X119522Y72919D01*
X119522Y72918D01*
X119561Y72838D02*
X119561Y72837D01*
X119851Y72007D01*
X119852Y72006D01*
X118375Y74357D02*
X118998Y73733D01*
X119871Y71920D02*
X119871Y71919D01*
X119970Y71046D01*
X119970Y71044D01*
X119973Y4071D02*
Y71000D01*
X116648Y75210D02*
X117480Y74919D01*
X118305Y74412D02*
X118306Y74411D01*
X117561Y74880D02*
X118305Y74412D01*
X117559Y74880D02*
X117561Y74880D01*
X115686Y75328D02*
X116562Y75230D01*
X119970Y4025D02*
X119970Y4027D01*
X119871Y3152D02*
X119970Y4025D01*
X119871Y3151D02*
X119871Y3152D01*
X119851Y3063D02*
X119852Y3065D01*
X119561Y2234D02*
X119851Y3063D01*
X119561Y2233D02*
X119561Y2234D01*
X119522Y2152D02*
X119522Y2153D01*
X119054Y1408D02*
X119522Y2152D01*
X119053Y1407D02*
X119054Y1408D01*
X118375Y714D02*
X118998Y1338D01*
X118305Y659D02*
X118306Y659D01*
X117561Y191D02*
X118305Y659D01*
X117559Y190D02*
X117561Y191D01*
X116648Y-139D02*
X117480Y152D01*
X115686Y-258D02*
X116562Y-159D01*
X3831Y75331D02*
X115642D01*
X2911Y75230D02*
X3787Y75328D01*
X1992Y74919D02*
X2825Y75210D01*
X1912Y74880D02*
X1913Y74880D01*
X1168Y74412D02*
X1912Y74880D01*
X1166Y74411D02*
X1168Y74412D01*
X474Y73733D02*
X1098Y74357D01*
X418Y73663D02*
X419Y73664D01*
X-49Y72919D02*
X418Y73663D01*
X-50Y72918D02*
X-49Y72919D01*
X-89Y72837D02*
X-88Y72838D01*
X-379Y72007D02*
X-89Y72837D01*
X-379Y72006D02*
X-379Y72007D01*
X-399Y71919D02*
X-399Y71920D01*
X-497Y71046D02*
X-399Y71919D01*
X-498Y71044D02*
X-497Y71046D01*
X1912Y191D02*
X1913Y190D01*
X1168Y659D02*
X1912Y191D01*
X1166Y659D02*
X1168Y659D01*
X3831Y-260D02*
X115642D01*
X1992Y152D02*
X2825Y-139D01*
X2911Y-159D02*
X3787Y-258D01*
X-379Y3065D02*
X-379Y3063D01*
X-89Y2234D01*
X-88Y2233D01*
X-500Y4071D02*
Y71000D01*
X-498Y4027D02*
X-497Y4025D01*
X-399Y3152D01*
X-399Y3151D01*
X474Y1338D02*
X1098Y714D01*
X-50Y2153D02*
X-49Y2152D01*
X418Y1408D01*
X419Y1407D01*
X119561Y72837D02*
G03*
X119522Y72918I-372J-129D01*
G01*
X119054Y73663D02*
G03*
X118998Y73733I-334J-208D01*
G01*
X119053Y73664D02*
G03*
X118998Y73733I-333J-209D01*
G01*
X119561Y72838D02*
G03*
X119522Y72919I-372J-130D01*
G01*
X119973Y71000D02*
G03*
X119970Y71044I-394J0D01*
G01*
X119871Y71919D02*
G03*
X119852Y72006I-391J-43D01*
G01*
X119973Y71000D02*
G03*
X119970Y71046I-394J0D01*
G01*
X119871Y71920D02*
G03*
X119851Y72007I-391J-44D01*
G01*
X117561Y74880D02*
G03*
X117480Y74919I-211J-333D01*
G01*
X116648Y75210D02*
G03*
X116562Y75230I-130J-372D01*
G01*
X117559Y74880D02*
G03*
X117480Y74919I-209J-333D01*
G01*
X115686Y75328D02*
G03*
X115642Y75331I-44J-391D01*
G01*
X115686Y75328D02*
G03*
X115642Y75331I-44J-391D01*
G01*
X116648Y75210D02*
G03*
X116562Y75230I-130J-372D01*
G01*
X118375Y74357D02*
G03*
X118306Y74411I-279J-279D01*
G01*
X118375Y74357D02*
G03*
X118305Y74412I-279J-279D01*
G01*
X119970Y4027D02*
G03*
X119973Y4071I-391J44D01*
G01*
X119852Y3065D02*
G03*
X119871Y3152I-372J130D01*
G01*
X119970Y4025D02*
G03*
X119973Y4071I-391J46D01*
G01*
X119851Y3063D02*
G03*
X119871Y3151I-371J131D01*
G01*
X119522Y2153D02*
G03*
X119561Y2234I-333J209D01*
G01*
X119522Y2152D02*
G03*
X119561Y2233I-333J211D01*
G01*
X118998Y1338D02*
G03*
X119054Y1408I-279J279D01*
G01*
X118998Y1338D02*
G03*
X119053Y1407I-279J279D01*
G01*
X118306Y659D02*
G03*
X118375Y714I-209J333D01*
G01*
X118305Y659D02*
G03*
X118375Y714I-208J334D01*
G01*
X117480Y152D02*
G03*
X117559Y190I-130J372D01*
G01*
X117480Y152D02*
G03*
X117561Y191I-130J372D01*
G01*
X116562Y-159D02*
G03*
X116648Y-139I-44J391D01*
G01*
X116562Y-159D02*
G03*
X116648Y-139I-44J391D01*
G01*
X115642Y-260D02*
G03*
X115686Y-258I0J394D01*
G01*
X115642Y-260D02*
G03*
X115686Y-258I0J394D01*
G01*
X3831Y75331D02*
G03*
X3787Y75328I0J-394D01*
G01*
X3831Y75331D02*
G03*
X3787Y75328I0J-394D01*
G01*
X2911Y75230D02*
G03*
X2825Y75210I44J-391D01*
G01*
X1992Y74919D02*
G03*
X1913Y74880I130J-372D01*
G01*
X2911Y75230D02*
G03*
X2825Y75210I44J-391D01*
G01*
X1992Y74919D02*
G03*
X1912Y74880I130J-372D01*
G01*
X1168Y74412D02*
G03*
X1098Y74357I208J-334D01*
G01*
X1166Y74411D02*
G03*
X1098Y74357I209J-333D01*
G01*
X474Y73733D02*
G03*
X419Y73664I279J-279D01*
G01*
X474Y73733D02*
G03*
X418Y73663I279J-279D01*
G01*
X-49Y72919D02*
G03*
X-88Y72838I333J-211D01*
G01*
X-50Y72918D02*
G03*
X-89Y72837I333J-209D01*
G01*
X-379Y72007D02*
G03*
X-399Y71920I371J-131D01*
G01*
X-379Y72006D02*
G03*
X-399Y71919I372J-130D01*
G01*
X-497Y71046D02*
G03*
X-500Y71000I391J-46D01*
G01*
X-498Y71044D02*
G03*
X-500Y71000I391J-44D01*
G01*
X2825Y-139D02*
G03*
X2911Y-159I130J372D01*
G01*
X1912Y191D02*
G03*
X1992Y152I211J333D01*
G01*
X1098Y714D02*
G03*
X1166Y659I279J279D01*
G01*
X1098Y714D02*
G03*
X1168Y659I279J279D01*
G01*
X3787Y-258D02*
G03*
X3831Y-260I44J391D01*
G01*
X3787Y-258D02*
G03*
X3831Y-260I44J391D01*
G01*
X1913Y190D02*
G03*
X1992Y152I209J333D01*
G01*
X2825Y-139D02*
G03*
X2911Y-159I130J372D01*
G01*
X-399Y3151D02*
G03*
X-379Y3063I391J44D01*
G01*
X-500Y4071D02*
G03*
X-498Y4027I394J0D01*
G01*
X-500Y4071D02*
G03*
X-497Y4025I394J0D01*
G01*
X-399Y3152D02*
G03*
X-379Y3065I391J43D01*
G01*
X419Y1407D02*
G03*
X474Y1338I333J209D01*
G01*
X-88Y2233D02*
G03*
X-49Y2152I372J130D01*
G01*
X-89Y2234D02*
G03*
X-50Y2153I372J129D01*
G01*
X418Y1408D02*
G03*
X474Y1338I334J208D01*
G01*
X119053Y73664D02*
X119054Y73663D01*
X119522Y72919D01*
X119522Y72918D01*
X119561Y72838D02*
X119561Y72837D01*
X119851Y72007D01*
X119852Y72006D01*
X118375Y74357D02*
X118998Y73733D01*
X119871Y71920D02*
X119871Y71919D01*
X119970Y71046D01*
X119970Y71044D01*
X119973Y4071D02*
Y71000D01*
X116648Y75210D02*
X117480Y74919D01*
X118305Y74412D02*
X118306Y74411D01*
X117561Y74880D02*
X118305Y74412D01*
X117559Y74880D02*
X117561Y74880D01*
X115686Y75328D02*
X116562Y75230D01*
X119970Y4025D02*
X119970Y4027D01*
X119871Y3152D02*
X119970Y4025D01*
X119871Y3151D02*
X119871Y3152D01*
X119851Y3063D02*
X119852Y3065D01*
X119561Y2234D02*
X119851Y3063D01*
X119561Y2233D02*
X119561Y2234D01*
X119522Y2152D02*
X119522Y2153D01*
X119054Y1408D02*
X119522Y2152D01*
X119053Y1407D02*
X119054Y1408D01*
X118375Y714D02*
X118998Y1338D01*
X118305Y659D02*
X118306Y659D01*
X117561Y191D02*
X118305Y659D01*
X117559Y190D02*
X117561Y191D01*
X116648Y-139D02*
X117480Y152D01*
X115686Y-258D02*
X116562Y-159D01*
X3831Y75331D02*
X115642D01*
X2911Y75230D02*
X3787Y75328D01*
X1992Y74919D02*
X2825Y75210D01*
X1912Y74880D02*
X1913Y74880D01*
X1168Y74412D02*
X1912Y74880D01*
X1166Y74411D02*
X1168Y74412D01*
X474Y73733D02*
X1098Y74357D01*
X418Y73663D02*
X419Y73664D01*
X-49Y72919D02*
X418Y73663D01*
X-50Y72918D02*
X-49Y72919D01*
X-89Y72837D02*
X-88Y72838D01*
X-379Y72007D02*
X-89Y72837D01*
X-379Y72006D02*
X-379Y72007D01*
X-399Y71919D02*
X-399Y71920D01*
X-497Y71046D02*
X-399Y71919D01*
X-498Y71044D02*
X-497Y71046D01*
X1912Y191D02*
X1913Y190D01*
X1168Y659D02*
X1912Y191D01*
X1166Y659D02*
X1168Y659D01*
X3831Y-260D02*
X115642D01*
X1992Y152D02*
X2825Y-139D01*
X2911Y-159D02*
X3787Y-258D01*
X-379Y3065D02*
X-379Y3063D01*
X-89Y2234D01*
X-88Y2233D01*
X-500Y4071D02*
Y71000D01*
X-498Y4027D02*
X-497Y4025D01*
X-399Y3152D01*
X-399Y3151D01*
X474Y1338D02*
X1098Y714D01*
X-50Y2153D02*
X-49Y2152D01*
X418Y1408D01*
X419Y1407D01*
M02*
