G04*
G04 #@! TF.GenerationSoftware,Altium Limited,Altium Designer,21.7.2 (23)*
G04*
G04 Layer_Physical_Order=3*
G04 Layer_Color=16440176*
%FSLAX25Y25*%
%MOIN*%
G70*
G04*
G04 #@! TF.SameCoordinates,686CD908-A1E1-460F-A8F5-A8DC84BBAB16*
G04*
G04*
G04 #@! TF.FilePolarity,Positive*
G04*
G01*
G75*
%ADD12C,0.00787*%
%ADD67C,0.01772*%
%ADD68C,0.01000*%
%ADD69C,0.01181*%
%ADD73C,0.17717*%
G36*
X1010903Y877464D02*
X1011368Y877379D01*
X1011368Y877379D01*
Y877379D01*
X1011814Y877408D01*
X1012150Y877319D01*
X1012150Y877319D01*
X1012603Y877185D01*
X1012624Y877176D01*
X1012782Y877111D01*
X1013008Y876983D01*
X1013172Y876859D01*
X1013179Y876793D01*
X1013182Y876786D01*
X1013371Y876707D01*
X1013557Y876537D01*
X1013727Y876351D01*
X1013805Y876162D01*
X1013813Y876159D01*
X1013878Y876152D01*
X1014002Y875988D01*
X1014131Y875762D01*
X1014196Y875605D01*
X1014262Y875439D01*
X1014339Y875131D01*
X1014339Y875130D01*
X1014340Y875127D01*
X1014414Y874842D01*
X1014399Y874348D01*
X1014399D01*
X1014485Y873884D01*
X1014499Y873775D01*
Y831305D01*
X1013999Y831098D01*
X1013984Y831113D01*
X1013441Y831337D01*
X1012854D01*
X1012311Y831113D01*
X1011896Y830697D01*
X1011671Y830155D01*
Y829567D01*
X1011896Y829025D01*
X1012311Y828609D01*
X1012854Y828385D01*
X1013441D01*
X1013984Y828609D01*
X1013999Y828624D01*
X1014499Y828417D01*
Y818007D01*
X1014034Y817904D01*
X1013999Y817912D01*
X1012955Y819473D01*
X1011611Y820817D01*
X1010032Y821873D01*
X1008276Y822600D01*
X1006413Y822970D01*
X1004513D01*
X1002649Y822600D01*
X1000894Y821873D01*
X999314Y820817D01*
X997970Y819473D01*
X996915Y817894D01*
X996188Y816138D01*
X995817Y814275D01*
Y812375D01*
X996188Y810511D01*
X996915Y808756D01*
X997970Y807176D01*
X999314Y805832D01*
X1000876Y804789D01*
X1000883Y804753D01*
X1000780Y804289D01*
X910145D01*
X910042Y804753D01*
X910049Y804789D01*
X911611Y805832D01*
X912955Y807176D01*
X914010Y808756D01*
X914738Y810511D01*
X915108Y812375D01*
Y814275D01*
X914738Y816138D01*
X914010Y817894D01*
X912955Y819473D01*
X911611Y820817D01*
X910032Y821873D01*
X908276Y822600D01*
X906413Y822970D01*
X904513D01*
X902649Y822600D01*
X900894Y821873D01*
X899314Y820817D01*
X897970Y819473D01*
X896927Y817912D01*
X896891Y817904D01*
X896427Y818007D01*
Y873775D01*
X896440Y873884D01*
X896526Y874348D01*
X896526D01*
X896512Y874838D01*
X896586Y875130D01*
X896586D01*
X896721Y875583D01*
X896729Y875605D01*
X896794Y875762D01*
X896923Y875988D01*
X897047Y876152D01*
X897112Y876159D01*
X897120Y876162D01*
X897198Y876351D01*
X897368Y876537D01*
X897554Y876707D01*
X897743Y876786D01*
X897746Y876793D01*
X897753Y876859D01*
X897917Y876983D01*
X898143Y877111D01*
X898301Y877176D01*
X898462Y877241D01*
X898774Y877320D01*
X898775Y877319D01*
X898779Y877321D01*
X898949Y877392D01*
X899082Y877412D01*
X899557Y877379D01*
Y877379D01*
X900031Y877465D01*
X900150Y877479D01*
X994443D01*
X994650Y876979D01*
X994430Y876759D01*
X994205Y876216D01*
Y875629D01*
X994430Y875086D01*
X994845Y874671D01*
X995388Y874446D01*
X995975D01*
X996518Y874671D01*
X996933Y875086D01*
X997158Y875629D01*
Y876216D01*
X996933Y876759D01*
X996713Y876979D01*
X996920Y877479D01*
X1010775D01*
X1010903Y877464D01*
D02*
G37*
G36*
X1014499Y808643D02*
Y807992D01*
X1014485Y807884D01*
X1014399Y807419D01*
X1014399D01*
X1014414Y806930D01*
X1014339Y806637D01*
X1014339D01*
X1014205Y806184D01*
X1014196Y806163D01*
X1014131Y806005D01*
X1014002Y805779D01*
X1013878Y805616D01*
X1013813Y805608D01*
X1013805Y805605D01*
X1013727Y805416D01*
X1013557Y805230D01*
X1013371Y805060D01*
X1013182Y804982D01*
X1013179Y804975D01*
X1013172Y804909D01*
X1013008Y804785D01*
X1012782Y804657D01*
X1012624Y804591D01*
X1012463Y804527D01*
X1012151Y804448D01*
X1012150Y804448D01*
X1012147Y804447D01*
X1011976Y804376D01*
X1011844Y804355D01*
X1011368Y804389D01*
Y804389D01*
X1010894Y804303D01*
X1010775Y804289D01*
X1010145D01*
X1010042Y804753D01*
X1010049Y804789D01*
X1011611Y805832D01*
X1012955Y807176D01*
X1013999Y808738D01*
X1014034Y808745D01*
X1014499Y808643D01*
D02*
G37*
G36*
X896927Y808738D02*
X897970Y807176D01*
X899314Y805832D01*
X900876Y804789D01*
X900883Y804753D01*
X900780Y804289D01*
X900150D01*
X900022Y804304D01*
X899557Y804389D01*
Y804389D01*
X899111Y804360D01*
X898775Y804448D01*
X898775Y804448D01*
X898322Y804583D01*
X898301Y804591D01*
X898143Y804657D01*
X897917Y804785D01*
X897753Y804909D01*
X897746Y804975D01*
X897743Y804982D01*
X897554Y805060D01*
X897368Y805230D01*
X897198Y805416D01*
X897120Y805606D01*
X897112Y805608D01*
X897047Y805616D01*
X896923Y805779D01*
X896794Y806005D01*
X896729Y806163D01*
X896663Y806328D01*
X896586Y806637D01*
X896586Y806637D01*
X896585Y806641D01*
X896511Y806925D01*
X896526Y807419D01*
X896526D01*
X896440Y807884D01*
X896427Y807992D01*
Y808643D01*
X896891Y808745D01*
X896927Y808738D01*
D02*
G37*
%LPC*%
G36*
X1012457Y872705D02*
X1011870D01*
X1011327Y872481D01*
X1010912Y872065D01*
X1010687Y871523D01*
Y870936D01*
X1010912Y870393D01*
X1011327Y869977D01*
X1011870Y869753D01*
X1012457D01*
X1013000Y869977D01*
X1013415Y870393D01*
X1013640Y870936D01*
Y871523D01*
X1013415Y872065D01*
X1013000Y872481D01*
X1012457Y872705D01*
D02*
G37*
G36*
X961967Y871682D02*
X922126D01*
X921589Y871576D01*
X921133Y871271D01*
X916023Y866161D01*
X915523Y866368D01*
Y866441D01*
X915298Y866983D01*
X914883Y867399D01*
X914465Y867572D01*
X914463Y867583D01*
X914688Y868126D01*
Y868713D01*
X914463Y869256D01*
X914048Y869671D01*
X913505Y869896D01*
X912918D01*
X912375Y869671D01*
X912104Y869400D01*
X912028Y869477D01*
X911485Y869701D01*
X910898D01*
X910355Y869477D01*
X910234Y869356D01*
X909645Y869473D01*
X909576Y869637D01*
X909161Y870053D01*
X908618Y870278D01*
X908031D01*
X907876Y870213D01*
X907706Y870622D01*
X907291Y871037D01*
X906748Y871262D01*
X906161D01*
X905618Y871037D01*
X905421Y870840D01*
X905224Y871037D01*
X904681Y871262D01*
X904094D01*
X903551Y871037D01*
X903136Y870622D01*
X902911Y870079D01*
Y869492D01*
X903136Y868949D01*
X903329Y868756D01*
X903134Y868560D01*
X902909Y868018D01*
Y867430D01*
X903134Y866888D01*
X903333Y866689D01*
X903120Y866475D01*
X902895Y865933D01*
Y865345D01*
X903120Y864803D01*
X903535Y864387D01*
X904078Y864163D01*
X904665D01*
X905208Y864387D01*
X905405Y864585D01*
X905602Y864387D01*
X906145Y864163D01*
X906732D01*
X907275Y864387D01*
X907690Y864803D01*
X907866Y865228D01*
X908031Y865159D01*
X908618D01*
X909161Y865384D01*
X909174Y865398D01*
X909416Y865350D01*
X909831Y864934D01*
X910374Y864709D01*
X910961D01*
X911504Y864934D01*
X911919Y865350D01*
X912099Y865784D01*
X912201Y865799D01*
X912606Y865767D01*
X912795Y865311D01*
X913210Y864896D01*
X913753Y864671D01*
X913825D01*
X914033Y864171D01*
X912763Y862901D01*
X912459Y862446D01*
X912409Y862196D01*
X911890Y862143D01*
X911475Y862558D01*
X910932Y862783D01*
X910345D01*
X909802Y862558D01*
X909387Y862143D01*
X909162Y861600D01*
Y861013D01*
X909387Y860471D01*
X909802Y860055D01*
X910345Y859830D01*
X910932D01*
X911475Y860055D01*
X911793Y860374D01*
X912249Y860359D01*
X912354Y860326D01*
X912770Y859910D01*
X913312Y859686D01*
X913900D01*
X914442Y859910D01*
X914858Y860326D01*
X915026Y860732D01*
X915055Y860775D01*
X915065Y860826D01*
X915082Y860868D01*
Y860914D01*
X915162Y861313D01*
Y861326D01*
X922708Y868873D01*
X961384D01*
X967435Y862822D01*
X967506Y862650D01*
X967922Y862235D01*
X968346Y862059D01*
X968247Y861559D01*
X924501D01*
X923998Y861459D01*
X923572Y861174D01*
X921487Y859089D01*
X921202Y858663D01*
X921103Y858161D01*
Y850455D01*
X921202Y849953D01*
X921487Y849527D01*
X924313Y846702D01*
X924739Y846417D01*
X925241Y846317D01*
X925512D01*
X925599Y846231D01*
X926141Y846006D01*
X926729D01*
X927271Y846231D01*
X927687Y846646D01*
X927911Y847189D01*
Y847776D01*
X927687Y848318D01*
X927271Y848734D01*
X926824Y848919D01*
X926835Y849406D01*
X926838Y849421D01*
X927378Y849644D01*
X927793Y850059D01*
X928018Y850602D01*
Y851189D01*
X927793Y851732D01*
X927378Y852147D01*
X926835Y852372D01*
X926248D01*
X925705Y852147D01*
X925290Y851732D01*
X925065Y851189D01*
Y850602D01*
X925229Y850205D01*
X924806Y849922D01*
X923728Y850999D01*
Y857617D01*
X925044Y858934D01*
X972598D01*
X995563Y835968D01*
X995770Y835469D01*
X996185Y835054D01*
X996728Y834829D01*
X997315D01*
X997858Y835054D01*
X998273Y835469D01*
X998498Y836012D01*
Y836599D01*
X998273Y837142D01*
X997858Y837557D01*
X997567Y837677D01*
X994464Y840780D01*
X994603Y841348D01*
X994889Y841467D01*
X995305Y841882D01*
X995529Y842425D01*
Y843012D01*
X995305Y843555D01*
X994889Y843970D01*
X994347Y844195D01*
X993759D01*
X993217Y843970D01*
X992801Y843555D01*
X992683Y843268D01*
X992115Y843129D01*
X974070Y861174D01*
X973644Y861459D01*
X973142Y861559D01*
X969269D01*
X969169Y862059D01*
X969594Y862235D01*
X970009Y862650D01*
X970081Y862822D01*
X970915Y863656D01*
X977605D01*
X978143Y863763D01*
X978598Y864068D01*
X981581Y867050D01*
X987441D01*
X988754Y865737D01*
X988608Y865175D01*
X988306Y865050D01*
X987890Y864635D01*
X987666Y864092D01*
Y863505D01*
X987890Y862962D01*
X988306Y862547D01*
X988848Y862322D01*
X989436D01*
X989978Y862547D01*
X990394Y862962D01*
X990519Y863265D01*
X991080Y863411D01*
X995049Y859442D01*
X995505Y859137D01*
X996043Y859030D01*
X1000066D01*
X1003770Y855326D01*
Y851433D01*
X1003877Y850896D01*
X1004182Y850440D01*
X1004535Y850086D01*
Y848915D01*
X1004035Y848581D01*
X1003970Y848608D01*
X1003383D01*
X1002840Y848384D01*
X1002425Y847968D01*
X1002200Y847425D01*
Y846838D01*
X1002227Y846773D01*
X1001893Y846273D01*
X1001571D01*
X1001486Y846308D01*
X1000899D01*
X1000357Y846084D01*
X999941Y845668D01*
X999716Y845125D01*
Y844538D01*
X999941Y843996D01*
X1000357Y843580D01*
X1000899Y843355D01*
X1001486D01*
X1001746Y843463D01*
X1003818D01*
X1003877Y843165D01*
X1004182Y842709D01*
X1008970Y837921D01*
X1009042Y837748D01*
X1009457Y837333D01*
X1010000Y837108D01*
X1010587D01*
X1011130Y837333D01*
X1011545Y837748D01*
X1011770Y838291D01*
Y838878D01*
X1011545Y839421D01*
X1011130Y839836D01*
X1010957Y839908D01*
X1010451Y840414D01*
X1010568Y841004D01*
X1010736Y841073D01*
X1011151Y841488D01*
X1011376Y842031D01*
Y842618D01*
X1011151Y843161D01*
X1010736Y843576D01*
X1010193Y843801D01*
X1009606D01*
X1009063Y843576D01*
X1008648Y843161D01*
X1008578Y842993D01*
X1007989Y842876D01*
X1006580Y844285D01*
Y844847D01*
X1006934Y845201D01*
X1007238Y845657D01*
X1007345Y846194D01*
Y850668D01*
X1007238Y851206D01*
X1006934Y851662D01*
X1006580Y852015D01*
Y855908D01*
X1006473Y856445D01*
X1006169Y856901D01*
X1001971Y861099D01*
X1001899Y861271D01*
X1001484Y861687D01*
X1000941Y861911D01*
X1000354D01*
X1000181Y861840D01*
X996625D01*
X993489Y864976D01*
X993696Y865476D01*
X993923D01*
X994466Y865700D01*
X994881Y866116D01*
X995106Y866658D01*
Y867246D01*
X994881Y867788D01*
X994466Y868204D01*
X993923Y868428D01*
X993336D01*
X992793Y868204D01*
X992378Y867788D01*
X992153Y867246D01*
Y867019D01*
X991653Y866812D01*
X989016Y869448D01*
X988561Y869753D01*
X988023Y869860D01*
X980999D01*
X980461Y869753D01*
X980005Y869448D01*
X977023Y866466D01*
X976403D01*
X976295Y866926D01*
X976294Y866966D01*
X976702Y867374D01*
X976927Y867917D01*
Y868504D01*
X976702Y869047D01*
X976287Y869462D01*
X975744Y869687D01*
X975157D01*
X974614Y869462D01*
X974199Y869047D01*
X973974Y868504D01*
Y867917D01*
X974199Y867374D01*
X974607Y866966D01*
X974607Y866926D01*
X974498Y866466D01*
X970333D01*
X969795Y866359D01*
X969339Y866055D01*
X968758Y865473D01*
X962960Y871271D01*
X962504Y871576D01*
X961967Y871682D01*
D02*
G37*
G36*
X1012426Y868143D02*
X1011839D01*
X1011296Y867918D01*
X1010881Y867503D01*
X1010656Y866961D01*
Y866373D01*
X1010881Y865831D01*
X1011296Y865415D01*
X1011839Y865191D01*
X1012426D01*
X1012969Y865415D01*
X1013384Y865831D01*
X1013609Y866373D01*
Y866961D01*
X1013384Y867503D01*
X1012969Y867918D01*
X1012426Y868143D01*
D02*
G37*
G36*
X922398Y866636D02*
X921811D01*
X921268Y866411D01*
X920853Y865996D01*
X920628Y865453D01*
Y864866D01*
X920853Y864323D01*
X921268Y863908D01*
X921811Y863683D01*
X922398D01*
X922941Y863908D01*
X923356Y864323D01*
X923581Y864866D01*
Y865453D01*
X923356Y865996D01*
X922941Y866411D01*
X922398Y866636D01*
D02*
G37*
G36*
X985292Y865652D02*
X984704D01*
X984162Y865427D01*
X983746Y865012D01*
X983522Y864469D01*
Y863881D01*
X983746Y863339D01*
X984162Y862924D01*
X984704Y862699D01*
X985292D01*
X985834Y862924D01*
X986250Y863339D01*
X986474Y863881D01*
Y864469D01*
X986250Y865012D01*
X985834Y865427D01*
X985292Y865652D01*
D02*
G37*
G36*
X948207Y854144D02*
X947619D01*
X947077Y853919D01*
X946661Y853504D01*
X946437Y852961D01*
Y852374D01*
X946661Y851831D01*
X947077Y851416D01*
X947619Y851191D01*
X948207D01*
X948749Y851416D01*
X949164Y851831D01*
X949389Y852374D01*
Y852961D01*
X949164Y853504D01*
X948749Y853919D01*
X948207Y854144D01*
D02*
G37*
G36*
X998481Y851774D02*
X997893D01*
X997351Y851549D01*
X996935Y851134D01*
X996711Y850591D01*
Y850004D01*
X996935Y849461D01*
X997351Y849046D01*
X997893Y848821D01*
X998481D01*
X999023Y849046D01*
X999439Y849461D01*
X999663Y850004D01*
Y850591D01*
X999439Y851134D01*
X999023Y851549D01*
X998481Y851774D01*
D02*
G37*
G36*
X947989Y848516D02*
X947401D01*
X946859Y848291D01*
X946443Y847876D01*
X946218Y847334D01*
Y846746D01*
X946443Y846204D01*
X946859Y845788D01*
X947401Y845564D01*
X947989D01*
X948531Y845788D01*
X948946Y846204D01*
X949171Y846746D01*
Y847334D01*
X948946Y847876D01*
X948531Y848291D01*
X947989Y848516D01*
D02*
G37*
G36*
X976423Y843620D02*
X975836D01*
X975293Y843395D01*
X974878Y842980D01*
X974875Y842974D01*
X974259Y842793D01*
X973963Y842915D01*
X973376D01*
X972833Y842691D01*
X972418Y842275D01*
X972193Y841733D01*
Y841145D01*
X972418Y840603D01*
X972833Y840187D01*
X973376Y839963D01*
X973963D01*
X974506Y840187D01*
X974921Y840603D01*
X974923Y840609D01*
X975540Y840790D01*
X975836Y840667D01*
X976423D01*
X976966Y840892D01*
X977381Y841308D01*
X977606Y841850D01*
Y842437D01*
X977381Y842980D01*
X976966Y843395D01*
X976423Y843620D01*
D02*
G37*
G36*
X947684Y844302D02*
X947097D01*
X946554Y844077D01*
X946139Y843662D01*
X945914Y843120D01*
Y842532D01*
X946139Y841990D01*
X946554Y841574D01*
X947097Y841350D01*
X947684D01*
X948227Y841574D01*
X948642Y841990D01*
X948867Y842532D01*
Y843120D01*
X948642Y843662D01*
X948227Y844077D01*
X947684Y844302D01*
D02*
G37*
G36*
X998874Y843998D02*
X998287D01*
X997744Y843773D01*
X997329Y843358D01*
X997104Y842815D01*
Y842228D01*
X997329Y841685D01*
X997744Y841270D01*
X998287Y841045D01*
X998874D01*
X999417Y841270D01*
X999832Y841685D01*
X1000057Y842228D01*
Y842815D01*
X999832Y843358D01*
X999417Y843773D01*
X998874Y843998D01*
D02*
G37*
G36*
X905370Y843703D02*
X904783D01*
X904240Y843478D01*
X903825Y843063D01*
X903600Y842520D01*
Y841933D01*
X903825Y841390D01*
X904240Y840975D01*
X904783Y840750D01*
X905370D01*
X905913Y840975D01*
X906328Y841390D01*
X906553Y841933D01*
Y842520D01*
X906328Y843063D01*
X905913Y843478D01*
X905370Y843703D01*
D02*
G37*
G36*
X910981Y843677D02*
X910393D01*
X909851Y843452D01*
X909435Y843037D01*
X909211Y842494D01*
Y841907D01*
X909435Y841364D01*
X909851Y840949D01*
X910393Y840724D01*
X910981D01*
X911523Y840949D01*
X911939Y841364D01*
X912163Y841907D01*
Y842494D01*
X911939Y843037D01*
X911523Y843452D01*
X910981Y843677D01*
D02*
G37*
G36*
X955904Y840431D02*
X955317D01*
X954774Y840207D01*
X954534Y839966D01*
X954374Y840126D01*
X953832Y840351D01*
X953244D01*
X952702Y840126D01*
X952484Y839909D01*
X952186Y840207D01*
X951644Y840431D01*
X951056D01*
X950514Y840207D01*
X950099Y839791D01*
X949874Y839249D01*
Y838661D01*
X950099Y838119D01*
X950327Y837891D01*
X950085Y837649D01*
X949860Y837107D01*
Y836519D01*
X950085Y835977D01*
X950334Y835727D01*
X950132Y835524D01*
X949907Y834982D01*
Y834394D01*
X950132Y833852D01*
X950306Y833677D01*
X950094Y833466D01*
X949869Y832923D01*
Y832336D01*
X950094Y831793D01*
X950239Y831647D01*
X949986Y831395D01*
X949762Y830852D01*
Y830265D01*
X949986Y829722D01*
X950402Y829307D01*
X950945Y829082D01*
X951532D01*
X952074Y829307D01*
X952227Y829459D01*
X952392Y829294D01*
X952935Y829069D01*
X953522D01*
X954065Y829294D01*
X954264Y829493D01*
X954451Y829307D01*
X954993Y829082D01*
X955581D01*
X956123Y829307D01*
X956379Y829562D01*
X956559Y829382D01*
X957102Y829157D01*
X957689D01*
X958232Y829382D01*
X958431Y829581D01*
X958631Y829382D01*
X959173Y829157D01*
X959761D01*
X960303Y829382D01*
X960719Y829797D01*
X960943Y830340D01*
Y830927D01*
X960719Y831470D01*
X960573Y831616D01*
X960826Y831868D01*
X961051Y832411D01*
Y832998D01*
X960826Y833541D01*
X960411Y833956D01*
X959868Y834181D01*
X959439D01*
X959167Y834367D01*
X959017Y834613D01*
Y835057D01*
X958792Y835600D01*
X958602Y835790D01*
X958789Y835977D01*
X959014Y836519D01*
Y837107D01*
X958789Y837649D01*
X958374Y838065D01*
X957831Y838289D01*
X957474D01*
X957132Y838618D01*
X957087Y838751D01*
Y839249D01*
X956862Y839791D01*
X956447Y840207D01*
X955904Y840431D01*
D02*
G37*
G36*
X957388Y850480D02*
X956801D01*
X956258Y850255D01*
X955843Y849840D01*
X955618Y849297D01*
Y848710D01*
X955170Y848487D01*
X954825Y848344D01*
X954410Y847929D01*
X954185Y847386D01*
Y846799D01*
X954410Y846256D01*
X954825Y845841D01*
X955368Y845616D01*
X955420D01*
Y845166D01*
X955645Y844623D01*
X956060Y844208D01*
X956522Y844016D01*
X956509Y843987D01*
Y843399D01*
X956734Y842857D01*
X957149Y842441D01*
X957692Y842217D01*
X957833D01*
Y841834D01*
X958057Y841292D01*
X958473Y840876D01*
X959015Y840652D01*
X959309D01*
Y840456D01*
X959534Y839914D01*
X959949Y839498D01*
X960492Y839274D01*
X961079D01*
X961446Y838884D01*
X961578Y838565D01*
X961993Y838150D01*
X962536Y837925D01*
X963123D01*
X963665Y838150D01*
X964081Y838565D01*
X964306Y839108D01*
Y839695D01*
X964081Y840238D01*
X963769Y840550D01*
X963978Y840759D01*
X964203Y841301D01*
Y841889D01*
X963978Y842431D01*
X963563Y842846D01*
X963020Y843071D01*
X962662D01*
Y843150D01*
X962438Y843693D01*
X962059Y844071D01*
X962251Y844263D01*
X962475Y844806D01*
Y845393D01*
X962251Y845936D01*
X961835Y846351D01*
X961293Y846576D01*
X960705D01*
X960239Y846383D01*
X959871Y846751D01*
X959569Y846876D01*
X959608Y846972D01*
Y847559D01*
X959383Y848102D01*
X958968Y848517D01*
X958561Y848685D01*
X958571Y848710D01*
Y849297D01*
X958346Y849840D01*
X957931Y850255D01*
X957388Y850480D01*
D02*
G37*
G36*
X1004288Y835238D02*
X1003700D01*
X1003158Y835013D01*
X1002742Y834598D01*
X1002518Y834056D01*
Y833468D01*
X1002742Y832926D01*
X1003158Y832510D01*
X1003700Y832285D01*
X1004288D01*
X1004830Y832510D01*
X1005246Y832926D01*
X1005470Y833468D01*
Y834056D01*
X1005246Y834598D01*
X1004830Y835013D01*
X1004288Y835238D01*
D02*
G37*
G36*
X944427Y832629D02*
X943840D01*
X943297Y832404D01*
X943096Y832203D01*
X942931Y832368D01*
X942388Y832593D01*
X941801D01*
X941258Y832368D01*
X941057Y832167D01*
X940856Y832368D01*
X940314Y832593D01*
X939726D01*
X939184Y832368D01*
X938768Y831953D01*
X938543Y831410D01*
Y830823D01*
X938768Y830280D01*
X938965Y830083D01*
X938768Y829886D01*
X938543Y829344D01*
Y828756D01*
X938768Y828214D01*
X938965Y828016D01*
X938768Y827819D01*
X938543Y827277D01*
Y826689D01*
X938768Y826147D01*
X938922Y825993D01*
X938706Y825778D01*
X938481Y825235D01*
Y824648D01*
X938706Y824105D01*
X939121Y823690D01*
X939664Y823465D01*
X940251D01*
X940794Y823690D01*
X940995Y823891D01*
X941196Y823690D01*
X941739Y823465D01*
X942326D01*
X942869Y823690D01*
X943070Y823891D01*
X943235Y823726D01*
X943778Y823501D01*
X944365D01*
X944908Y823726D01*
X945055Y823873D01*
X945250Y823678D01*
X945793Y823453D01*
X946380D01*
X946923Y823678D01*
X947338Y824093D01*
X947563Y824636D01*
Y825223D01*
X947338Y825766D01*
X947185Y825919D01*
X947400Y826135D01*
X947625Y826677D01*
Y827265D01*
X947400Y827807D01*
X947203Y828004D01*
X947400Y828202D01*
X947625Y828744D01*
Y829332D01*
X947400Y829874D01*
X947203Y830071D01*
X947400Y830269D01*
X947625Y830811D01*
Y831398D01*
X947400Y831941D01*
X946985Y832356D01*
X946443Y832581D01*
X945855D01*
X945313Y832356D01*
X945165Y832209D01*
X944970Y832404D01*
X944427Y832629D01*
D02*
G37*
G36*
X926229Y832556D02*
X925642D01*
X925099Y832331D01*
X924898Y832130D01*
X924733Y832296D01*
X924190Y832520D01*
X923603D01*
X923060Y832296D01*
X922859Y832094D01*
X922658Y832296D01*
X922115Y832520D01*
X921528D01*
X920985Y832296D01*
X920570Y831880D01*
X920345Y831338D01*
Y830750D01*
X920570Y830208D01*
X920767Y830010D01*
X920570Y829813D01*
X920345Y829271D01*
Y828683D01*
X920570Y828141D01*
X920767Y827944D01*
X920570Y827746D01*
X920345Y827204D01*
Y826616D01*
X920570Y826074D01*
X920724Y825920D01*
X920508Y825705D01*
X920283Y825162D01*
Y824575D01*
X920508Y824032D01*
X920923Y823617D01*
X921466Y823392D01*
X922053D01*
X922596Y823617D01*
X922797Y823818D01*
X922998Y823617D01*
X923541Y823392D01*
X924128D01*
X924671Y823617D01*
X924872Y823818D01*
X925037Y823653D01*
X925580Y823428D01*
X926167D01*
X926710Y823653D01*
X926857Y823800D01*
X927052Y823605D01*
X927595Y823380D01*
X928182D01*
X928725Y823605D01*
X929140Y824020D01*
X929365Y824563D01*
Y825150D01*
X929140Y825693D01*
X928987Y825846D01*
X929202Y826062D01*
X929427Y826604D01*
Y827192D01*
X929202Y827734D01*
X929005Y827932D01*
X929202Y828129D01*
X929427Y828671D01*
Y829259D01*
X929202Y829801D01*
X929005Y829998D01*
X929202Y830196D01*
X929427Y830738D01*
Y831326D01*
X929202Y831868D01*
X928787Y832284D01*
X928244Y832508D01*
X927657D01*
X927114Y832284D01*
X926967Y832136D01*
X926772Y832331D01*
X926229Y832556D01*
D02*
G37*
G36*
X934307Y832384D02*
X933720D01*
X933177Y832159D01*
X932762Y831744D01*
X932537Y831201D01*
Y830614D01*
X932762Y830071D01*
X933177Y829656D01*
X933720Y829431D01*
X934307D01*
X934850Y829656D01*
X935265Y830071D01*
X935490Y830614D01*
Y831201D01*
X935265Y831744D01*
X934850Y832159D01*
X934307Y832384D01*
D02*
G37*
G36*
X928894Y822344D02*
X928307D01*
X927764Y822120D01*
X927647Y822003D01*
X927321Y821728D01*
X926994Y822003D01*
X926878Y822120D01*
X926335Y822344D01*
X925748D01*
X925205Y822120D01*
X925088Y822003D01*
X924762Y821728D01*
X924435Y822003D01*
X924319Y822120D01*
X923776Y822344D01*
X923189D01*
X922646Y822120D01*
X922231Y821704D01*
X922006Y821162D01*
Y820574D01*
X922231Y820032D01*
X922646Y819617D01*
X923189Y819392D01*
X923776D01*
X924319Y819617D01*
X924435Y819733D01*
X924762Y820008D01*
X925088Y819733D01*
X925205Y819617D01*
X925748Y819392D01*
X926335D01*
X926878Y819617D01*
X926994Y819733D01*
X927321Y820008D01*
X927647Y819733D01*
X927764Y819617D01*
X928307Y819392D01*
X928894D01*
X929437Y819617D01*
X929852Y820032D01*
X930077Y820574D01*
Y821162D01*
X929852Y821704D01*
X929437Y822120D01*
X928894Y822344D01*
D02*
G37*
G36*
X947004Y822246D02*
X946417D01*
X945874Y822021D01*
X945758Y821905D01*
X945431Y821630D01*
X945104Y821905D01*
X944988Y822021D01*
X944445Y822246D01*
X943858D01*
X943315Y822021D01*
X943199Y821905D01*
X942872Y821630D01*
X942545Y821905D01*
X942429Y822021D01*
X941886Y822246D01*
X941299D01*
X940756Y822021D01*
X940341Y821606D01*
X940116Y821063D01*
Y820476D01*
X940341Y819933D01*
X940756Y819518D01*
X941299Y819293D01*
X941886D01*
X942429Y819518D01*
X942545Y819635D01*
X942872Y819910D01*
X943199Y819635D01*
X943315Y819518D01*
X943858Y819293D01*
X944445D01*
X944988Y819518D01*
X945104Y819635D01*
X945431Y819910D01*
X945758Y819635D01*
X945874Y819518D01*
X946417Y819293D01*
X947004D01*
X947547Y819518D01*
X947962Y819933D01*
X948187Y820476D01*
Y821063D01*
X947962Y821606D01*
X947547Y822021D01*
X947004Y822246D01*
D02*
G37*
G36*
X933323Y826282D02*
X932736D01*
X932193Y826057D01*
X931778Y825641D01*
X931553Y825099D01*
Y824511D01*
X931778Y823969D01*
X931820Y823927D01*
X931793Y823729D01*
X931653Y823386D01*
X931209Y823202D01*
X930794Y822787D01*
X930569Y822244D01*
Y821657D01*
X930794Y821115D01*
X931209Y820699D01*
X931752Y820474D01*
X932339D01*
X932882Y820699D01*
X933297Y821115D01*
X933522Y821657D01*
Y822244D01*
X933297Y822787D01*
X933255Y822829D01*
X933282Y823026D01*
X933422Y823370D01*
X933866Y823553D01*
X934281Y823969D01*
X934506Y824511D01*
Y825099D01*
X934281Y825641D01*
X933866Y826057D01*
X933323Y826282D01*
D02*
G37*
G36*
X997757Y828637D02*
X997170D01*
X996627Y828412D01*
X996212Y827997D01*
X996140Y827824D01*
X991609Y823293D01*
X969174D01*
X968637Y823186D01*
X968181Y822882D01*
X962688Y817389D01*
X962516Y817317D01*
X962338Y817140D01*
X962161Y817317D01*
X961618Y817542D01*
X961031D01*
X960488Y817317D01*
X960352Y817181D01*
X960154Y817379D01*
X959611Y817604D01*
X959024D01*
X958481Y817379D01*
X958299Y817196D01*
X958136Y817358D01*
X957594Y817583D01*
X957006D01*
X956464Y817358D01*
X956261Y817155D01*
X956089Y817328D01*
X955546Y817552D01*
X954959D01*
X954416Y817328D01*
X954279Y817191D01*
X954092Y817379D01*
X953549Y817604D01*
X952962D01*
X952419Y817379D01*
X952206Y817165D01*
X952074Y817297D01*
X951532Y817522D01*
X950945D01*
X950402Y817297D01*
X949986Y816882D01*
X949762Y816339D01*
Y815752D01*
X949986Y815209D01*
X950169Y815026D01*
X949986Y814844D01*
X949762Y814301D01*
Y813714D01*
X949986Y813171D01*
X950149Y813009D01*
X949986Y812846D01*
X949762Y812304D01*
Y811716D01*
X949986Y811174D01*
X950402Y810758D01*
X950945Y810534D01*
X951532D01*
X952074Y810758D01*
X952288Y810972D01*
X952419Y810840D01*
X952962Y810615D01*
X953549D01*
X954092Y810840D01*
X954228Y810977D01*
X954416Y810789D01*
X954959Y810564D01*
X955546D01*
X956089Y810789D01*
X956291Y810992D01*
X956464Y810820D01*
X957006Y810595D01*
X957594D01*
X958136Y810820D01*
X958319Y811002D01*
X958481Y810840D01*
X959024Y810615D01*
X959611D01*
X960154Y810840D01*
X960290Y810977D01*
X960488Y810779D01*
X961031Y810554D01*
X961618D01*
X962161Y810779D01*
X962338Y810956D01*
X962516Y810779D01*
X963058Y810554D01*
X963646D01*
X964188Y810779D01*
X964604Y811194D01*
X964828Y811737D01*
Y812324D01*
X964604Y812867D01*
X964441Y813029D01*
X964604Y813192D01*
X964828Y813735D01*
Y814322D01*
X964604Y814865D01*
X964421Y815047D01*
X964604Y815230D01*
X964675Y815402D01*
X969756Y820483D01*
X984550D01*
X984884Y819983D01*
X984801Y819784D01*
Y819197D01*
X985026Y818654D01*
X985223Y818457D01*
X985026Y818260D01*
X984801Y817717D01*
Y817130D01*
X985026Y816587D01*
X985223Y816390D01*
X985026Y816193D01*
X984801Y815650D01*
Y815063D01*
X985026Y814520D01*
X985179Y814367D01*
X984964Y814151D01*
X984739Y813608D01*
Y813021D01*
X984964Y812479D01*
X985379Y812063D01*
X985922Y811838D01*
X986509D01*
X987052Y812063D01*
X987253Y812264D01*
X987454Y812063D01*
X987996Y811838D01*
X988584D01*
X989126Y812063D01*
X989328Y812264D01*
X989493Y812099D01*
X990036Y811874D01*
X990623D01*
X991166Y812099D01*
X991313Y812247D01*
X991508Y812051D01*
X992051Y811827D01*
X992638D01*
X993181Y812051D01*
X993596Y812467D01*
X993821Y813009D01*
Y813597D01*
X993596Y814139D01*
X993443Y814293D01*
X993658Y814508D01*
X993883Y815051D01*
Y815638D01*
X993658Y816181D01*
X993461Y816378D01*
X993658Y816575D01*
X993883Y817118D01*
Y817705D01*
X993658Y818248D01*
X993461Y818445D01*
X993658Y818642D01*
X993883Y819185D01*
Y819772D01*
X993658Y820315D01*
X993475Y820498D01*
X993268Y820781D01*
X993458Y821168D01*
X998127Y825838D01*
X998300Y825909D01*
X998715Y826324D01*
X998940Y826867D01*
Y827454D01*
X998715Y827997D01*
X998300Y828412D01*
X997757Y828637D01*
D02*
G37*
%LPD*%
D12*
X1015287Y876185D02*
G03*
X1015249Y876266I-372J-129D01*
G01*
X1014780Y877011D02*
G03*
X1014725Y877081I-334J-208D01*
G01*
X1014780Y877013D02*
G03*
X1014725Y877081I-333J-209D01*
G01*
X1015287Y876187D02*
G03*
X1015248Y876267I-372J-130D01*
G01*
X1015699Y874348D02*
G03*
X1015696Y874393I-394J0D01*
G01*
X1015598Y875267D02*
G03*
X1015578Y875354I-391J-43D01*
G01*
X1015699Y874348D02*
G03*
X1015696Y874394I-394J0D01*
G01*
X1015598Y875269D02*
G03*
X1015578Y875356I-391J-44D01*
G01*
X1013287Y878228D02*
G03*
X1013206Y878267I-211J-333D01*
G01*
X1012374Y878558D02*
G03*
X1012288Y878578I-130J-372D01*
G01*
X1013286Y878229D02*
G03*
X1013206Y878267I-209J-333D01*
G01*
X1011412Y878677D02*
G03*
X1011368Y878679I-44J-391D01*
G01*
X1011412Y878677D02*
G03*
X1011368Y878679I-44J-391D01*
G01*
X1012374Y878558D02*
G03*
X1012288Y878578I-130J-372D01*
G01*
X1014101Y877705D02*
G03*
X1014032Y877760I-279J-279D01*
G01*
X1014101Y877705D02*
G03*
X1014031Y877761I-279J-279D01*
G01*
X1015696Y807375D02*
G03*
X1015699Y807419I-391J44D01*
G01*
X1015578Y806413D02*
G03*
X1015598Y806501I-372J130D01*
G01*
X1015696Y807374D02*
G03*
X1015699Y807419I-391J46D01*
G01*
X1015578Y806412D02*
G03*
X1015598Y806499I-371J131D01*
G01*
X1015249Y805502D02*
G03*
X1015287Y805582I-333J209D01*
G01*
X1015248Y805500D02*
G03*
X1015287Y805581I-333J211D01*
G01*
X1014725Y804686D02*
G03*
X1014780Y804756I-279J279D01*
G01*
X1014725Y804686D02*
G03*
X1014780Y804755I-279J279D01*
G01*
X1014032Y804008D02*
G03*
X1014101Y804063I-209J333D01*
G01*
X1014031Y804007D02*
G03*
X1014101Y804063I-208J334D01*
G01*
X1013206Y803500D02*
G03*
X1013286Y803539I-130J372D01*
G01*
X1013206Y803500D02*
G03*
X1013287Y803539I-130J372D01*
G01*
X1012288Y803190D02*
G03*
X1012374Y803209I-44J391D01*
G01*
X1012288Y803190D02*
G03*
X1012374Y803209I-44J391D01*
G01*
X1011368Y803088D02*
G03*
X1011412Y803091I0J394D01*
G01*
X1011368Y803088D02*
G03*
X1011412Y803091I0J394D01*
G01*
X899557Y878679D02*
G03*
X899513Y878677I0J-394D01*
G01*
X899557Y878679D02*
G03*
X899513Y878677I0J-394D01*
G01*
X898637Y878578D02*
G03*
X898551Y878558I44J-391D01*
G01*
X897719Y878267D02*
G03*
X897639Y878229I130J-372D01*
G01*
X898637Y878578D02*
G03*
X898551Y878558I44J-391D01*
G01*
X897719Y878267D02*
G03*
X897638Y878228I130J-372D01*
G01*
X896894Y877761D02*
G03*
X896824Y877705I208J-334D01*
G01*
X896893Y877760D02*
G03*
X896824Y877705I209J-333D01*
G01*
X896200Y877081D02*
G03*
X896146Y877013I279J-279D01*
G01*
X896200Y877081D02*
G03*
X896145Y877011I279J-279D01*
G01*
X895677Y876267D02*
G03*
X895638Y876187I333J-211D01*
G01*
X895677Y876266D02*
G03*
X895638Y876185I333J-209D01*
G01*
X895347Y875356D02*
G03*
X895327Y875269I371J-131D01*
G01*
X895347Y875354D02*
G03*
X895327Y875267I372J-130D01*
G01*
X895229Y874394D02*
G03*
X895226Y874348I391J-46D01*
G01*
X895229Y874393D02*
G03*
X895226Y874348I391J-44D01*
G01*
X898551Y803209D02*
G03*
X898637Y803190I130J372D01*
G01*
X897638Y803539D02*
G03*
X897719Y803500I211J333D01*
G01*
X896824Y804063D02*
G03*
X896893Y804008I279J279D01*
G01*
X896824Y804063D02*
G03*
X896894Y804007I279J279D01*
G01*
X899513Y803091D02*
G03*
X899557Y803088I44J391D01*
G01*
X899513Y803091D02*
G03*
X899557Y803088I44J391D01*
G01*
X897639Y803539D02*
G03*
X897719Y803500I209J333D01*
G01*
X898551Y803209D02*
G03*
X898637Y803190I130J372D01*
G01*
X895327Y806499D02*
G03*
X895347Y806412I391J44D01*
G01*
X895226Y807419D02*
G03*
X895229Y807375I394J0D01*
G01*
X895226Y807419D02*
G03*
X895229Y807374I394J0D01*
G01*
X895327Y806501D02*
G03*
X895347Y806413I391J43D01*
G01*
X896146Y804755D02*
G03*
X896200Y804686I333J209D01*
G01*
X895638Y805581D02*
G03*
X895677Y805500I372J130D01*
G01*
X895638Y805582D02*
G03*
X895677Y805502I372J129D01*
G01*
X896145Y804756D02*
G03*
X896200Y804686I334J208D01*
G01*
X1014780Y877013D02*
X1014780Y877011D01*
X1015248Y876267D01*
X1015249Y876266D01*
X1015287Y876187D02*
X1015287Y876185D01*
X1015578Y875356D01*
X1015578Y875354D01*
X1014101Y877705D02*
X1014725Y877081D01*
X1015598Y875269D02*
X1015598Y875267D01*
X1015696Y874394D01*
X1015696Y874393D01*
X1015699Y807419D02*
Y874348D01*
X1012374Y878558D02*
X1013206Y878267D01*
X1014031Y877761D02*
X1014032Y877760D01*
X1013287Y878228D02*
X1014031Y877761D01*
X1013286Y878229D02*
X1013287Y878228D01*
X1011412Y878677D02*
X1012288Y878578D01*
X1015696Y807374D02*
X1015696Y807375D01*
X1015598Y806501D02*
X1015696Y807374D01*
X1015598Y806499D02*
X1015598Y806501D01*
X1015578Y806412D02*
X1015578Y806413D01*
X1015287Y805582D02*
X1015578Y806412D01*
X1015287Y805581D02*
X1015287Y805582D01*
X1015248Y805500D02*
X1015249Y805502D01*
X1014780Y804756D02*
X1015248Y805500D01*
X1014780Y804755D02*
X1014780Y804756D01*
X1014101Y804063D02*
X1014725Y804686D01*
X1014031Y804007D02*
X1014032Y804008D01*
X1013287Y803539D02*
X1014031Y804007D01*
X1013286Y803539D02*
X1013287Y803539D01*
X1012374Y803209D02*
X1013206Y803500D01*
X1011412Y803091D02*
X1012288Y803190D01*
X899557Y878679D02*
X1011368D01*
X898637Y878578D02*
X899513Y878677D01*
X897719Y878267D02*
X898551Y878558D01*
X897638Y878228D02*
X897639Y878229D01*
X896894Y877761D02*
X897638Y878228D01*
X896893Y877760D02*
X896894Y877761D01*
X896200Y877081D02*
X896824Y877705D01*
X896145Y877011D02*
X896146Y877013D01*
X895677Y876267D02*
X896145Y877011D01*
X895677Y876266D02*
X895677Y876267D01*
X895638Y876185D02*
X895638Y876187D01*
X895347Y875356D02*
X895638Y876185D01*
X895347Y875354D02*
X895347Y875356D01*
X895327Y875267D02*
X895327Y875269D01*
X895229Y874394D02*
X895327Y875267D01*
X895229Y874393D02*
X895229Y874394D01*
X897638Y803539D02*
X897639Y803539D01*
X896894Y804007D02*
X897638Y803539D01*
X896893Y804008D02*
X896894Y804007D01*
X899557Y803088D02*
X1011368D01*
X897719Y803500D02*
X898551Y803209D01*
X898637Y803190D02*
X899513Y803091D01*
X895347Y806413D02*
X895347Y806412D01*
X895638Y805582D01*
X895638Y805581D01*
X895226Y807419D02*
Y874348D01*
X895229Y807375D02*
X895229Y807374D01*
X895327Y806501D01*
X895327Y806499D01*
X896200Y804686D02*
X896824Y804063D01*
X895677Y805502D02*
X895677Y805500D01*
X896145Y804756D01*
X896146Y804755D01*
D67*
X982231Y847713D02*
D03*
X940018Y858073D02*
D03*
X935884D02*
D03*
X931750D02*
D03*
X933817D02*
D03*
X937951D02*
D03*
X942085D02*
D03*
X931848Y854529D02*
D03*
X994053Y842719D02*
D03*
X987067Y850825D02*
D03*
X988539Y849336D02*
D03*
X989509Y853378D02*
D03*
X986620Y856323D02*
D03*
X988099Y854871D02*
D03*
X942183Y854529D02*
D03*
X966297Y855612D02*
D03*
X976130Y842144D02*
D03*
X957396Y830634D02*
D03*
X957144Y827758D02*
D03*
X998187Y850297D02*
D03*
X1003677Y847132D02*
D03*
X1001549Y849616D02*
D03*
X926435Y847482D02*
D03*
X973669Y841439D02*
D03*
X947695Y847040D02*
D03*
X947391Y842826D02*
D03*
X953833Y874313D02*
D03*
X962360Y873132D02*
D03*
X977419Y873427D02*
D03*
X968463Y868104D02*
D03*
X971809D02*
D03*
X995681Y875922D02*
D03*
X989142Y863798D02*
D03*
X993629Y866952D02*
D03*
X1013148Y829861D02*
D03*
X997021Y836305D02*
D03*
X997463Y827161D02*
D03*
X986277Y819490D02*
D03*
X969742Y832876D02*
D03*
X974817Y826551D02*
D03*
X934014Y830908D02*
D03*
X932045Y821951D02*
D03*
X933029Y824805D02*
D03*
X1010667Y855987D02*
D03*
X999710Y870934D02*
D03*
X962829Y839402D02*
D03*
X957095Y849004D02*
D03*
X960999Y845099D02*
D03*
X967736Y847172D02*
D03*
X979085Y848439D02*
D03*
X961186Y842856D02*
D03*
X971300Y825065D02*
D03*
X972796Y826430D02*
D03*
X972812Y828494D02*
D03*
X941979Y865310D02*
D03*
X933711D02*
D03*
X931644D02*
D03*
X935778D02*
D03*
X937845D02*
D03*
X922104Y865159D02*
D03*
X939912Y865310D02*
D03*
X951350Y838955D02*
D03*
X953538Y838875D02*
D03*
X955610Y838955D02*
D03*
X974959Y828545D02*
D03*
X913618Y805343D02*
D03*
X905941Y874521D02*
D03*
X903421Y874540D02*
D03*
X901371Y874559D02*
D03*
X899096Y874596D02*
D03*
X966691Y828939D02*
D03*
X998581Y842522D02*
D03*
X1013049Y821852D02*
D03*
X957144Y823656D02*
D03*
X955175D02*
D03*
X953207D02*
D03*
X957144Y825719D02*
D03*
X953207D02*
D03*
X955175D02*
D03*
X953207Y827758D02*
D03*
X955175D02*
D03*
X959035Y845499D02*
D03*
X955662Y847093D02*
D03*
X957986Y843693D02*
D03*
X958132Y847265D02*
D03*
X956897Y845459D02*
D03*
X975451Y868211D02*
D03*
X975451Y873427D02*
D03*
X971415Y873624D02*
D03*
X973384Y873526D02*
D03*
X968758Y863486D02*
D03*
X1001193Y844832D02*
D03*
X984998Y864175D02*
D03*
X1000648Y860435D02*
D03*
X1010392Y833073D02*
D03*
X1009900Y842325D02*
D03*
X1010837Y852254D02*
D03*
X1010293Y838585D02*
D03*
X1008325Y834549D02*
D03*
X1009588Y854197D02*
D03*
X1007931Y852955D02*
D03*
Y855317D02*
D03*
X983344Y859260D02*
D03*
X976140Y851282D02*
D03*
X983522Y843408D02*
D03*
X981973Y845494D02*
D03*
X990981Y851889D02*
D03*
X980564Y846987D02*
D03*
X981038Y849276D02*
D03*
X985155Y857788D02*
D03*
X981256Y856619D02*
D03*
X987569Y852932D02*
D03*
X985399Y844843D02*
D03*
X984178Y853769D02*
D03*
X979573Y850741D02*
D03*
X986090Y854383D02*
D03*
X982713Y855234D02*
D03*
X990451Y849950D02*
D03*
X977620Y849904D02*
D03*
X988978Y851439D02*
D03*
X978116Y852126D02*
D03*
X984625Y855848D02*
D03*
X983927Y846332D02*
D03*
X983167Y857233D02*
D03*
X985657Y852318D02*
D03*
X969447Y873624D02*
D03*
X965313Y873526D02*
D03*
X1012163Y871229D02*
D03*
X1012132Y866667D02*
D03*
X962726Y841595D02*
D03*
X1013049Y825396D02*
D03*
X1009900D02*
D03*
X992344Y813303D02*
D03*
X988352Y817423D02*
D03*
X992407Y817411D02*
D03*
Y819478D02*
D03*
X988290Y813315D02*
D03*
X986277Y815356D02*
D03*
X988352D02*
D03*
X990329Y813351D02*
D03*
X986277Y817423D02*
D03*
X992407Y815344D02*
D03*
X990391Y817459D02*
D03*
Y819526D02*
D03*
Y815392D02*
D03*
X988352Y819490D02*
D03*
X986215Y813315D02*
D03*
X955287Y830558D02*
D03*
X953336Y832617D02*
D03*
X953228Y830546D02*
D03*
X957503Y832705D02*
D03*
X951383Y834688D02*
D03*
X959467Y830634D02*
D03*
X951238Y830558D02*
D03*
X955394Y832629D02*
D03*
X953374Y834675D02*
D03*
X951346Y832629D02*
D03*
X955432Y834688D02*
D03*
X957541Y834763D02*
D03*
X959574Y832705D02*
D03*
X996907Y805317D02*
D03*
X1003502Y875888D02*
D03*
X913503Y873857D02*
D03*
X911192Y868225D02*
D03*
X913211Y868419D02*
D03*
X910667Y866186D02*
D03*
X914046Y866147D02*
D03*
X967380Y873624D02*
D03*
X911267Y873895D02*
D03*
X910638Y861307D02*
D03*
X913606Y861162D02*
D03*
X934900Y856301D02*
D03*
X935982Y854529D02*
D03*
X942970Y863486D02*
D03*
X943167Y856301D02*
D03*
X936770Y863486D02*
D03*
X934703D02*
D03*
X940903D02*
D03*
X933915Y854529D02*
D03*
X941100Y856301D02*
D03*
X939033D02*
D03*
X932636Y863486D02*
D03*
X932833Y856301D02*
D03*
X940116Y854529D02*
D03*
X938049D02*
D03*
X936967Y856301D02*
D03*
X938837Y863486D02*
D03*
X914515Y875962D02*
D03*
X912153Y876061D02*
D03*
X909987D02*
D03*
X908325Y866636D02*
D03*
Y868801D02*
D03*
X906455Y869785D02*
D03*
X906452Y867724D02*
D03*
X906438Y865639D02*
D03*
X904371D02*
D03*
X904385Y867724D02*
D03*
X904388Y869785D02*
D03*
X899959Y828250D02*
D03*
X897695Y827955D02*
D03*
X897596Y824608D02*
D03*
X899270Y826183D02*
D03*
X901337Y826577D02*
D03*
X902124Y823821D02*
D03*
X899762Y823526D02*
D03*
X897596Y822344D02*
D03*
X947913Y852667D02*
D03*
X939958Y824941D02*
D03*
X944134Y829086D02*
D03*
X946149Y831105D02*
D03*
X944071Y824977D02*
D03*
X944134Y827019D02*
D03*
X946149Y826971D02*
D03*
X940020Y829050D02*
D03*
Y831117D02*
D03*
Y826983D02*
D03*
X942032Y824941D02*
D03*
X944134Y831153D02*
D03*
X946087Y824930D02*
D03*
X942095Y826983D02*
D03*
Y831117D02*
D03*
X946149Y829038D02*
D03*
X942095Y829050D02*
D03*
X921822Y828977D02*
D03*
X927951Y826898D02*
D03*
X921760Y824868D02*
D03*
X923834D02*
D03*
X927951Y828965D02*
D03*
X923897Y826910D02*
D03*
X921822D02*
D03*
X925936Y831080D02*
D03*
X923897Y828977D02*
D03*
Y831044D02*
D03*
X927889Y824857D02*
D03*
X927951Y831032D02*
D03*
X925873Y824904D02*
D03*
X925936Y826946D02*
D03*
Y829013D02*
D03*
X921822Y831044D02*
D03*
X957537Y836813D02*
D03*
X955385D02*
D03*
X953327Y836800D02*
D03*
X951337Y836813D02*
D03*
X951238Y827758D02*
D03*
Y823656D02*
D03*
Y825719D02*
D03*
X963352Y812030D02*
D03*
Y814028D02*
D03*
Y816066D02*
D03*
X961325Y812030D02*
D03*
Y814028D02*
D03*
Y816066D02*
D03*
X959317Y812092D02*
D03*
Y814090D02*
D03*
Y816127D02*
D03*
X957300Y812071D02*
D03*
Y814069D02*
D03*
Y816107D02*
D03*
X955252Y812041D02*
D03*
Y814038D02*
D03*
Y816076D02*
D03*
X953255Y812092D02*
D03*
Y814090D02*
D03*
Y816127D02*
D03*
X951238Y816045D02*
D03*
Y814008D02*
D03*
Y812010D02*
D03*
X1003994Y833762D02*
D03*
X923482Y820868D02*
D03*
X926041D02*
D03*
X928600D02*
D03*
X941593Y820770D02*
D03*
X944151D02*
D03*
X946711D02*
D03*
X915411Y856498D02*
D03*
Y854529D02*
D03*
X916199Y852561D02*
D03*
X918167Y855317D02*
D03*
X919348Y851380D02*
D03*
X1011511Y875888D02*
D03*
X917577Y843174D02*
D03*
X959309Y842128D02*
D03*
X960785Y840750D02*
D03*
X926541Y850896D02*
D03*
X910687Y842200D02*
D03*
X905077Y842226D02*
D03*
D68*
X922415Y850455D02*
Y858161D01*
X924501Y860246D01*
X973142D01*
X925241Y847630D02*
X926287D01*
X922415Y850455D02*
X925241Y847630D01*
X926287D02*
X926435Y847482D01*
X973142Y860246D02*
X997021Y836366D01*
Y836305D02*
Y836366D01*
D69*
X1005175Y851433D02*
Y855908D01*
Y845429D02*
X1005941Y846194D01*
X1005175Y843703D02*
Y845429D01*
X1004614Y844868D02*
X1005175Y845429D01*
X1005941Y846194D02*
Y850668D01*
X1001229Y844868D02*
X1004614D01*
X1001193Y844832D02*
X1001229Y844868D01*
X1005175Y851433D02*
X1005941Y850668D01*
X996043Y860435D02*
X1000648D01*
X980999Y868455D02*
X988023D01*
X996043Y860435D01*
X969174Y821888D02*
X992191D01*
X997463Y827161D01*
X922126Y870278D02*
X961967D01*
X968758Y863486D01*
X913757Y861908D02*
X922126Y870278D01*
X963352Y816066D02*
X969174Y821888D01*
X968758Y863486D02*
X970333Y865061D01*
X977605D02*
X980999Y868455D01*
X970333Y865061D02*
X977605D01*
X1000648Y860435D02*
X1005175Y855908D01*
X1000648Y860435D02*
Y860435D01*
X1005175Y843703D02*
X1010293Y838585D01*
X913606Y861162D02*
X913757Y861313D01*
Y861908D01*
D73*
X905463Y813325D02*
D03*
X1005463D02*
D03*
M02*
