G04*
G04 #@! TF.GenerationSoftware,Altium Limited,Altium Designer,21.7.2 (23)*
G04*
G04 Layer_Physical_Order=1*
G04 Layer_Color=255*
%FSLAX24Y24*%
%MOIN*%
G70*
G04*
G04 #@! TF.SameCoordinates,D4D5CA1D-ADE7-4756-83AA-BB3EC795D047*
G04*
G04*
G04 #@! TF.FilePolarity,Positive*
G04*
G01*
G75*
%ADD12C,0.0079*%
%ADD14R,0.0236X0.0250*%
%ADD15R,0.0394X0.0217*%
%ADD16R,0.0250X0.0236*%
%ADD17R,0.0335X0.0138*%
%ADD18R,0.0669X0.0945*%
%ADD19R,0.0591X0.0450*%
G04:AMPARAMS|DCode=20|XSize=45mil|YSize=59.1mil|CornerRadius=0mil|HoleSize=0mil|Usage=FLASHONLY|Rotation=225.000|XOffset=0mil|YOffset=0mil|HoleType=Round|Shape=Rectangle|*
%AMROTATEDRECTD20*
4,1,4,-0.0050,0.0368,0.0368,-0.0050,0.0050,-0.0368,-0.0368,0.0050,-0.0050,0.0368,0.0*
%
%ADD20ROTATEDRECTD20*%

%ADD21R,0.0236X0.0276*%
G04:AMPARAMS|DCode=22|XSize=25mil|YSize=23.6mil|CornerRadius=0mil|HoleSize=0mil|Usage=FLASHONLY|Rotation=225.000|XOffset=0mil|YOffset=0mil|HoleType=Round|Shape=Rectangle|*
%AMROTATEDRECTD22*
4,1,4,0.0005,0.0172,0.0172,0.0005,-0.0005,-0.0172,-0.0172,-0.0005,0.0005,0.0172,0.0*
%
%ADD22ROTATEDRECTD22*%

%ADD23R,0.0165X0.0217*%
%ADD24P,0.2004X4X180.0*%
G04:AMPARAMS|DCode=25|XSize=33.5mil|YSize=9.8mil|CornerRadius=0mil|HoleSize=0mil|Usage=FLASHONLY|Rotation=135.000|XOffset=0mil|YOffset=0mil|HoleType=Round|Shape=Rectangle|*
%AMROTATEDRECTD25*
4,1,4,0.0153,-0.0084,0.0084,-0.0153,-0.0153,0.0084,-0.0084,0.0153,0.0153,-0.0084,0.0*
%
%ADD25ROTATEDRECTD25*%

G04:AMPARAMS|DCode=26|XSize=33.5mil|YSize=9.8mil|CornerRadius=0mil|HoleSize=0mil|Usage=FLASHONLY|Rotation=45.000|XOffset=0mil|YOffset=0mil|HoleType=Round|Shape=Rectangle|*
%AMROTATEDRECTD26*
4,1,4,-0.0084,-0.0153,-0.0153,-0.0084,0.0084,0.0153,0.0153,0.0084,-0.0084,-0.0153,0.0*
%
%ADD26ROTATEDRECTD26*%

%ADD27R,0.1398X0.1398*%
%ADD28R,0.0335X0.0118*%
%ADD29R,0.0118X0.0335*%
%ADD30R,0.0450X0.0591*%
%ADD31R,0.0157X0.0157*%
%ADD32R,0.0157X0.0217*%
%ADD33R,0.0965X0.0787*%
%ADD34R,0.1181X0.1575*%
%ADD35R,0.0472X0.0256*%
%ADD36R,0.1181X0.0571*%
%ADD37R,0.0394X0.0276*%
G04:AMPARAMS|DCode=38|XSize=25mil|YSize=23.6mil|CornerRadius=0mil|HoleSize=0mil|Usage=FLASHONLY|Rotation=315.000|XOffset=0mil|YOffset=0mil|HoleType=Round|Shape=Rectangle|*
%AMROTATEDRECTD38*
4,1,4,-0.0172,0.0005,-0.0005,0.0172,0.0172,-0.0005,0.0005,-0.0172,-0.0172,0.0005,0.0*
%
%ADD38ROTATEDRECTD38*%

G04:AMPARAMS|DCode=39|XSize=23.6mil|YSize=19.7mil|CornerRadius=4.9mil|HoleSize=0mil|Usage=FLASHONLY|Rotation=0.000|XOffset=0mil|YOffset=0mil|HoleType=Round|Shape=RoundedRectangle|*
%AMROUNDEDRECTD39*
21,1,0.0236,0.0098,0,0,0.0*
21,1,0.0138,0.0197,0,0,0.0*
1,1,0.0098,0.0069,-0.0049*
1,1,0.0098,-0.0069,-0.0049*
1,1,0.0098,-0.0069,0.0049*
1,1,0.0098,0.0069,0.0049*
%
%ADD39ROUNDEDRECTD39*%
%ADD67C,0.0100*%
%ADD68C,0.0118*%
%ADD69C,0.0157*%
%ADD70C,0.0100*%
%ADD71C,0.0197*%
%ADD72C,0.1772*%
%ADD73C,0.0157*%
%ADD74C,0.0118*%
G36*
X100210Y83538D02*
X100166Y83494D01*
X99964D01*
Y83292D01*
X99569Y82897D01*
X99514D01*
X99504Y82911D01*
X99504Y82911D01*
X99435Y82980D01*
X99409Y82998D01*
X99378Y83004D01*
X98355D01*
X98324Y82998D01*
X98298Y82980D01*
X98280Y82954D01*
X98274Y82923D01*
Y81634D01*
X98280Y81603D01*
X98298Y81577D01*
X98317Y81558D01*
X98343Y81540D01*
X98374Y81534D01*
X98539D01*
Y81112D01*
X98049D01*
Y81143D01*
X98035D01*
Y81565D01*
X98160D01*
Y82313D01*
X97627D01*
Y83214D01*
X97629Y83225D01*
X97637Y83271D01*
X97637D01*
X97636Y83320D01*
X97643Y83350D01*
X97643D01*
X97657Y83395D01*
X97658Y83397D01*
X97664Y83413D01*
X97677Y83435D01*
X97689Y83452D01*
X97696Y83453D01*
X97697Y83453D01*
X97704Y83472D01*
X97721Y83490D01*
X97740Y83507D01*
X97759Y83515D01*
X97759Y83516D01*
X97760Y83522D01*
X97776Y83535D01*
X97799Y83548D01*
X97815Y83554D01*
X97831Y83561D01*
X97862Y83569D01*
X97862Y83569D01*
X97863Y83569D01*
X97880Y83576D01*
X97893Y83578D01*
X97940Y83575D01*
Y83575D01*
X97988Y83583D01*
X98000Y83584D01*
X100191D01*
X100210Y83538D01*
D02*
G37*
G36*
X101373Y83345D02*
X101323Y83315D01*
X101320Y83316D01*
Y83584D01*
X101373D01*
Y83345D01*
D02*
G37*
G36*
X100913Y83271D02*
X100847D01*
X100832Y83286D01*
Y83373D01*
X100913D01*
Y83271D01*
D02*
G37*
G36*
X101482Y83187D02*
X101436Y83168D01*
X101385Y83218D01*
X101406Y83268D01*
X101482D01*
Y83187D01*
D02*
G37*
G36*
X100424Y83232D02*
Y83128D01*
X100422Y83109D01*
X100372Y83112D01*
X100372Y83128D01*
Y83257D01*
X100374Y83259D01*
X100424Y83232D01*
D02*
G37*
G36*
X104021Y83238D02*
X104428D01*
Y83304D01*
X105761D01*
X105881Y83184D01*
Y82823D01*
X105835Y82804D01*
X105623Y83015D01*
X105581Y83044D01*
X105531Y83054D01*
X103968D01*
Y83238D01*
Y83584D01*
X104021D01*
Y83238D01*
D02*
G37*
G36*
X109075Y83583D02*
X109121Y83575D01*
X109121Y83575D01*
Y83575D01*
X109166Y83577D01*
X109200Y83569D01*
X109200Y83569D01*
X109245Y83555D01*
X109247Y83554D01*
X109263Y83548D01*
X109285Y83535D01*
X109302Y83522D01*
X109303Y83516D01*
X109303Y83515D01*
X109322Y83507D01*
X109340Y83490D01*
X109357Y83472D01*
X109365Y83453D01*
X109366Y83453D01*
X109372Y83452D01*
X109385Y83435D01*
X109398Y83413D01*
X109404Y83397D01*
X109411Y83381D01*
X109419Y83350D01*
X109419Y83350D01*
X109419Y83349D01*
X109426Y83321D01*
X109425Y83271D01*
X109425D01*
X109433Y83225D01*
X109434Y83214D01*
Y82844D01*
X109388Y82836D01*
X109384Y82836D01*
X108994D01*
Y82662D01*
X108985Y82656D01*
X108935Y82683D01*
Y82815D01*
X108811D01*
Y82884D01*
X108883D01*
Y83278D01*
X108476D01*
Y82884D01*
X108548D01*
Y82815D01*
X108443D01*
Y82520D01*
Y82264D01*
Y82008D01*
Y81752D01*
X108935D01*
Y82032D01*
X108994D01*
Y81968D01*
X109384D01*
X109388Y81968D01*
X109434Y81960D01*
Y80571D01*
X109037D01*
Y80362D01*
X109034Y80360D01*
X108984Y80387D01*
Y80571D01*
X108974Y80571D01*
Y80965D01*
X108567D01*
Y80571D01*
X108577Y80571D01*
Y80435D01*
X108542Y80428D01*
X108499Y80400D01*
X108347Y80247D01*
X108301Y80266D01*
Y80524D01*
X107907D01*
Y80381D01*
X107616D01*
X107509Y80487D01*
X107495Y80497D01*
X107333Y80659D01*
X107152Y80478D01*
X107314Y80316D01*
X107323Y80302D01*
X107468Y80157D01*
X107482Y80147D01*
X107500Y80130D01*
X107503Y80133D01*
X107511Y80128D01*
X107561Y80118D01*
X107584D01*
X107606Y80085D01*
Y80038D01*
X107624Y79995D01*
X107658Y79961D01*
X107701Y79943D01*
X107748D01*
X107792Y79961D01*
X107825Y79995D01*
X107843Y80038D01*
Y80085D01*
X107860Y80110D01*
X107907Y80116D01*
X107907Y80116D01*
X107907Y80116D01*
X108150D01*
X108169Y80070D01*
X107797Y79698D01*
X107733Y79704D01*
X107729Y79710D01*
X107232Y80207D01*
X107230Y80209D01*
X107216Y80218D01*
X107054Y80381D01*
X106734Y80060D01*
X106637Y79963D01*
X106386Y79712D01*
X106135Y79963D01*
X105996Y80102D01*
X105718Y80381D01*
X105620Y80478D01*
X105300Y80798D01*
X105138Y80636D01*
X105138Y80636D01*
X105119Y80654D01*
X105077Y80683D01*
X105040Y80690D01*
X104861Y80869D01*
X104572Y80581D01*
X104851Y80303D01*
X104975Y80427D01*
X105042Y80360D01*
X105043Y80360D01*
X105089Y80313D01*
X104876Y80100D01*
X104847Y80057D01*
X104837Y80007D01*
Y79616D01*
X104772D01*
Y79377D01*
X104668Y79274D01*
X104640Y79231D01*
X104630Y79181D01*
Y78829D01*
X104614D01*
Y78435D01*
X105021D01*
Y78829D01*
X104892D01*
Y79127D01*
X104949Y79183D01*
X105087D01*
Y78790D01*
X105481D01*
X105500Y78826D01*
X105894D01*
Y79233D01*
X105894D01*
X105880Y79266D01*
X106008Y79394D01*
X106108Y79295D01*
X106386Y79573D01*
X106479Y79481D01*
X106488Y79467D01*
X106815Y79140D01*
X106857Y79111D01*
X106908Y79101D01*
X106986D01*
Y79020D01*
X106939Y78986D01*
X106938Y78986D01*
Y78986D01*
X106530D01*
Y78734D01*
X106528Y78721D01*
Y78681D01*
X106353D01*
Y78309D01*
X104565D01*
X104534Y78303D01*
X104508Y78285D01*
X104491Y78259D01*
X104485Y78229D01*
Y78188D01*
X104369Y78126D01*
X104366Y78123D01*
X104366Y78123D01*
X104362Y78122D01*
X103616Y77718D01*
X102860D01*
X102845Y77721D01*
X102824Y77768D01*
X102828Y77775D01*
X102834Y77805D01*
Y78845D01*
X102881Y78865D01*
X102958Y78787D01*
X102984Y78770D01*
X103015Y78763D01*
X103049D01*
X103081Y78750D01*
X103136D01*
X103168Y78763D01*
X103207D01*
X103239Y78750D01*
X103293D01*
X103325Y78763D01*
X103364D01*
X103396Y78750D01*
X103451D01*
X103483Y78763D01*
X103522D01*
X103553Y78750D01*
X103608D01*
X103640Y78763D01*
X103679D01*
X103711Y78750D01*
X103766D01*
X103798Y78763D01*
X103837D01*
X103868Y78750D01*
X103923D01*
X103955Y78763D01*
X104472D01*
X104502Y78770D01*
X104528Y78787D01*
X104546Y78813D01*
X104552Y78844D01*
Y79434D01*
Y79567D01*
X104546Y79598D01*
X104528Y79624D01*
X104502Y79641D01*
X104480Y79646D01*
Y79971D01*
X104380D01*
X104358Y80002D01*
Y80057D01*
X104337Y80108D01*
X104299Y80147D01*
X104303Y80199D01*
X104319Y80239D01*
Y80293D01*
X104298Y80344D01*
X104259Y80383D01*
X104252Y80418D01*
X104254Y80420D01*
X104210Y80464D01*
X104208Y80468D01*
X103853Y80953D01*
X103879Y81002D01*
X103883Y81002D01*
X103888Y80997D01*
X103889Y80996D01*
X104097Y80792D01*
X104362Y80528D01*
X104428Y80594D01*
X104438Y80601D01*
X104450Y80609D01*
X104451Y80609D01*
X104451Y80610D01*
X104676Y80842D01*
X104791Y80957D01*
X104758Y80991D01*
X104757Y80996D01*
X104757Y80996D01*
X104757Y80997D01*
X104748Y81009D01*
X104739Y81022D01*
X104316Y81436D01*
X104308Y81441D01*
X104278Y81471D01*
X104298Y81521D01*
X104723D01*
Y81597D01*
X104724Y81605D01*
Y82047D01*
X104731Y82064D01*
X104781Y82085D01*
X104820Y82123D01*
X104841Y82174D01*
Y82229D01*
X104820Y82279D01*
X104781Y82318D01*
X104731Y82339D01*
X104724Y82362D01*
Y82791D01*
X105476D01*
X105674Y82593D01*
Y82005D01*
X105684Y81955D01*
X105712Y81912D01*
X105785Y81840D01*
X105632Y81686D01*
X105585Y81705D01*
Y81739D01*
X105583Y81752D01*
Y81959D01*
X105260D01*
Y81585D01*
X105323D01*
Y81522D01*
X105333Y81472D01*
X105361Y81430D01*
X105368Y81423D01*
X105275Y81329D01*
X105129Y81475D01*
Y81590D01*
X105195D01*
Y81998D01*
X104801D01*
Y81590D01*
X104867D01*
Y81420D01*
X104877Y81370D01*
X104905Y81328D01*
X105263Y80970D01*
X105277Y80960D01*
X105440Y80798D01*
X105718Y81077D01*
X105996Y81355D01*
X106135Y81494D01*
X106386Y81745D01*
X106734Y81397D01*
X107012Y81118D01*
X107152Y80979D01*
X107472Y80659D01*
X107575Y80762D01*
X107634Y80751D01*
X107634Y80750D01*
X107668Y80717D01*
X107656Y80668D01*
X107654Y80666D01*
X107636Y80623D01*
Y80576D01*
X107654Y80532D01*
X107687Y80499D01*
X107731Y80481D01*
X107778D01*
X107821Y80499D01*
X107854Y80532D01*
X107872Y80576D01*
Y80623D01*
X107854Y80666D01*
X107821Y80699D01*
X107833Y80749D01*
X107835Y80750D01*
X107853Y80794D01*
Y80832D01*
X107892Y80863D01*
X107892D01*
X108170Y81142D01*
X107882Y81430D01*
X107709Y81257D01*
X107691Y81244D01*
X107661Y81215D01*
X107611Y81215D01*
X107541Y81285D01*
X107265Y81561D01*
X107456Y81752D01*
X107754D01*
Y82008D01*
Y82303D01*
X107502D01*
X107489Y82306D01*
X107385D01*
X107314Y82377D01*
X107305Y82383D01*
X107299Y82447D01*
X107369Y82517D01*
X107489D01*
X107502Y82520D01*
X107754D01*
Y82815D01*
X107262D01*
Y82769D01*
X107222Y82742D01*
X107222Y82742D01*
X106935Y82455D01*
X106907Y82413D01*
X106897Y82362D01*
Y81995D01*
X106851Y81976D01*
X106664Y82162D01*
X106386Y81884D01*
X106293Y81976D01*
X106284Y81991D01*
X106143Y82131D01*
Y83238D01*
X106133Y83289D01*
X106105Y83331D01*
X105908Y83528D01*
X105898Y83534D01*
X105913Y83584D01*
X109062D01*
X109075Y83583D01*
D02*
G37*
G36*
X102256Y83538D02*
X101923Y83206D01*
X101895Y83163D01*
X101885Y83113D01*
Y83042D01*
X101878D01*
Y82549D01*
X102351D01*
Y82792D01*
X102353Y82805D01*
Y82967D01*
X102562Y83176D01*
X102724D01*
Y82786D01*
X103131D01*
Y83091D01*
Y83367D01*
X103561D01*
Y83179D01*
X103184D01*
Y82786D01*
X103591D01*
X103567Y82725D01*
X102972Y82511D01*
X102931Y82539D01*
Y82658D01*
X102439D01*
Y82390D01*
X102438Y82382D01*
Y82264D01*
X102439Y82256D01*
Y82164D01*
X102439Y82161D01*
X102436Y82145D01*
X102436Y82145D01*
X102436Y82145D01*
X102438Y82065D01*
X102439Y82058D01*
Y81971D01*
X102438Y81969D01*
X102437Y81965D01*
X102436Y81963D01*
X102435Y81956D01*
X102433Y81949D01*
X102432Y81948D01*
X102433Y81943D01*
X102432Y81938D01*
X102433Y81935D01*
X102432Y81932D01*
X102438Y81864D01*
X102439Y81859D01*
Y81595D01*
Y81112D01*
X102303D01*
X102303Y81113D01*
X102272Y81119D01*
X102154D01*
X102123Y81113D01*
X102122Y81112D01*
X102075D01*
Y81046D01*
X102073Y81039D01*
Y80701D01*
X101958D01*
Y81039D01*
X101957Y81046D01*
Y81112D01*
X101909D01*
X101909Y81113D01*
X101878Y81119D01*
X101765D01*
X101734Y81113D01*
X101734Y81112D01*
X101091D01*
Y80880D01*
X101088Y80866D01*
Y80560D01*
X101027Y80499D01*
X100934D01*
Y80827D01*
X100800D01*
X100768Y80877D01*
X100777Y80899D01*
Y80954D01*
X100776Y80954D01*
X100801Y81004D01*
X101002D01*
Y81280D01*
X101002D01*
Y81673D01*
X100770D01*
X100756Y81676D01*
X100461D01*
X100407Y81665D01*
X100379Y81707D01*
X100395Y81723D01*
X100370Y81748D01*
X100390Y81798D01*
X100510D01*
Y81792D01*
X101002D01*
Y82067D01*
X100510D01*
Y82061D01*
X100284D01*
X100257Y82055D01*
X100232Y82101D01*
X100323Y82192D01*
X100510D01*
Y82185D01*
X101002D01*
Y82461D01*
X100510D01*
Y82454D01*
X100402D01*
X100219Y82637D01*
X100224Y82687D01*
X100366D01*
Y83081D01*
X100366D01*
X100369Y83092D01*
X100418Y83081D01*
X100418Y83081D01*
X100418Y83081D01*
X100418D01*
Y82687D01*
X100826D01*
Y82753D01*
X100894D01*
Y82549D01*
X101169D01*
Y83009D01*
X101223D01*
X101285Y82947D01*
Y82805D01*
X101288Y82792D01*
Y82549D01*
X101760D01*
Y83042D01*
X101744D01*
Y83268D01*
X101780D01*
Y83584D01*
X102237D01*
X102256Y83538D01*
D02*
G37*
G36*
X109384Y82428D02*
X109388Y82428D01*
X109393Y82427D01*
Y82422D01*
X109343Y82376D01*
X109243D01*
X109217Y82426D01*
X109218Y82428D01*
X109384D01*
D02*
G37*
G36*
X104644Y82362D02*
X102853Y82264D01*
X102518D01*
Y82382D01*
X102931D01*
Y82410D01*
X103987Y82791D01*
X104644D01*
Y82362D01*
D02*
G37*
G36*
Y82047D02*
Y81605D01*
X104053D01*
X103444Y81960D01*
X102931Y82053D01*
Y82067D01*
X102518D01*
X102516Y82147D01*
X102551Y82182D01*
X102752Y82184D01*
X102853D01*
X102855Y82184D01*
X102857Y82184D01*
X102866Y82184D01*
X103797Y82185D01*
X104644Y82047D01*
D02*
G37*
G36*
X104565Y82240D02*
X104566Y82228D01*
Y82192D01*
X104526Y82148D01*
X104169Y82206D01*
X104172Y82256D01*
X104539Y82276D01*
X104565Y82240D01*
D02*
G37*
G36*
X99140Y82203D02*
X99103Y82187D01*
X99064Y82149D01*
X99062Y82142D01*
X99043Y82150D01*
X98988D01*
X98987Y82150D01*
X98937Y82183D01*
Y82204D01*
X98963Y82253D01*
X99130D01*
X99140Y82203D01*
D02*
G37*
G36*
X99958Y82687D02*
X100206D01*
X100211Y82637D01*
X99927Y82353D01*
X100160Y82120D01*
X100149Y82060D01*
X100146Y82059D01*
X99890Y82316D01*
X99762Y82188D01*
X99360D01*
X99299Y82176D01*
X99282Y82165D01*
X99259Y82187D01*
X99223Y82203D01*
X99233Y82253D01*
X99405D01*
X99407Y82253D01*
X99409Y82253D01*
X99422Y82256D01*
X99436Y82259D01*
X99438Y82260D01*
X99439Y82260D01*
X99481Y82280D01*
X99492Y82288D01*
X99494Y82289D01*
X99496D01*
Y82291D01*
X99504Y82296D01*
X99505Y82297D01*
X99506Y82299D01*
X99514Y82310D01*
X99521Y82322D01*
X99522Y82324D01*
X99523Y82325D01*
X99525Y82339D01*
X99527Y82353D01*
Y82616D01*
X99627D01*
X99681Y82626D01*
X99726Y82657D01*
X99813Y82744D01*
X99958D01*
Y82687D01*
D02*
G37*
G36*
X107238Y82082D02*
X107262Y82066D01*
Y81929D01*
X107206Y81873D01*
X107159Y81892D01*
Y82095D01*
X107206Y82114D01*
X107238Y82082D01*
D02*
G37*
G36*
X99447Y82855D02*
Y82353D01*
X99405Y82333D01*
X98916D01*
X98856Y82225D01*
Y81614D01*
X98374D01*
X98355Y81634D01*
Y82923D01*
X99378D01*
X99447Y82855D01*
D02*
G37*
G36*
X99339Y80758D02*
X98945D01*
Y81408D01*
X99339D01*
Y80758D01*
D02*
G37*
G36*
X99981Y81334D02*
X99956Y81310D01*
X100202Y81064D01*
Y80827D01*
X100066D01*
Y80745D01*
X99939D01*
Y80818D01*
X99772D01*
X99772Y80818D01*
X99772Y80818D01*
X99627D01*
X99600Y80858D01*
X99600Y80858D01*
X99508Y80950D01*
X99456Y80985D01*
X99419Y80992D01*
Y81408D01*
X99417Y81417D01*
Y81486D01*
X99347D01*
X99339Y81488D01*
X98945D01*
X98937Y81486D01*
X98873D01*
X98868Y81536D01*
X98887Y81540D01*
X98913Y81558D01*
X98918Y81565D01*
X98920D01*
Y81568D01*
X98931Y81584D01*
X98932Y81592D01*
X99723D01*
X99981Y81334D01*
D02*
G37*
G36*
X100526Y80813D02*
Y80686D01*
X100524Y80684D01*
X100474Y80708D01*
Y80805D01*
X100516Y80820D01*
X100526Y80813D01*
D02*
G37*
G36*
X98001Y80683D02*
X97706D01*
X97691Y80709D01*
X97706Y80735D01*
X98001D01*
Y80683D01*
D02*
G37*
G36*
X102888Y81985D02*
X102895Y81983D01*
X102901Y81979D01*
X102909Y81977D01*
X102917Y81974D01*
X103416Y81883D01*
X103947Y81574D01*
X103975Y81556D01*
Y81521D01*
X104031D01*
X104260Y81378D01*
X104260D01*
X104683Y80965D01*
X104393Y80665D01*
X104343Y80665D01*
X103945Y81053D01*
X103463Y81634D01*
X102931Y81840D01*
Y81870D01*
X102518D01*
X102512Y81939D01*
X102512Y81939D01*
X102558Y81987D01*
X102886D01*
X102888Y81985D01*
D02*
G37*
G36*
X102272Y80620D02*
X102277D01*
Y79951D01*
X103782D01*
X104072Y79614D01*
Y79577D01*
X104104D01*
X104112Y79567D01*
X104472D01*
Y79434D01*
Y78844D01*
X103015D01*
X102834Y79024D01*
Y79026D01*
X102833Y79034D01*
Y79105D01*
X102762D01*
X102754Y79106D01*
X102753D01*
X102661Y79198D01*
X102045D01*
Y79498D01*
X101731D01*
Y79323D01*
X101606Y79198D01*
X100367D01*
Y79424D01*
X100842Y79899D01*
X101366D01*
X101420Y79910D01*
X101430Y79917D01*
X101462D01*
X101765Y80219D01*
Y81039D01*
X101878D01*
Y80620D01*
X102154D01*
Y81039D01*
X102272D01*
Y80620D01*
D02*
G37*
G36*
X102653Y80975D02*
X102664Y80922D01*
X102694Y80876D01*
X102704Y80866D01*
X102750Y80836D01*
X102803Y80825D01*
X102833Y80831D01*
X102858Y80785D01*
X102704Y80631D01*
X102674Y80585D01*
X102670Y80567D01*
X102616Y80551D01*
X102550Y80616D01*
Y80857D01*
X102547Y80870D01*
Y81004D01*
X102653D01*
Y80975D01*
D02*
G37*
G36*
X103316Y80540D02*
X103296Y80519D01*
X103347Y80468D01*
X103347Y80467D01*
X103349Y80466D01*
X103349Y80466D01*
X103351Y80464D01*
X103730Y80081D01*
X103709Y80031D01*
X102756D01*
X102735Y80081D01*
X102776Y80122D01*
X102804Y80164D01*
X102814Y80215D01*
Y80298D01*
X102805Y80344D01*
X102805Y80349D01*
X102832Y80397D01*
X102857Y80402D01*
X102903Y80432D01*
X103159Y80688D01*
X103189Y80734D01*
X103193Y80751D01*
X103244Y80755D01*
X103316Y80540D01*
D02*
G37*
G36*
X102539Y80256D02*
X102504Y80221D01*
X102475Y80178D01*
X102465Y80128D01*
X102475Y80081D01*
X102475Y80077D01*
X102446Y80031D01*
X102357D01*
Y80373D01*
X102403Y80392D01*
X102539Y80256D01*
D02*
G37*
G36*
X109434Y79656D02*
X109174D01*
X109166Y79699D01*
X109152Y79720D01*
Y79722D01*
X109131Y79773D01*
X109092Y79812D01*
X109041Y79833D01*
X108987D01*
X108936Y79812D01*
X108897Y79773D01*
X108876Y79722D01*
Y79668D01*
X108897Y79617D01*
X108908Y79606D01*
X108913Y79599D01*
Y79527D01*
X108916Y79514D01*
Y79282D01*
X109434D01*
Y79056D01*
X109094D01*
X109044Y79056D01*
Y79056D01*
X109044D01*
Y79056D01*
X108719D01*
Y79400D01*
X108168D01*
Y79390D01*
X108118Y79351D01*
X108104Y79354D01*
X108099D01*
X108048Y79344D01*
X108006Y79315D01*
X107977Y79273D01*
X107967Y79223D01*
X107974Y79191D01*
X107943Y79141D01*
X107874D01*
X107848Y79191D01*
X107856Y79232D01*
X107846Y79283D01*
X107817Y79325D01*
X107816Y79345D01*
X108647Y80176D01*
X108713D01*
X108721Y80177D01*
X108823D01*
X108850Y80127D01*
X108837Y80097D01*
Y80042D01*
X108858Y79991D01*
X108897Y79952D01*
X108947Y79931D01*
X109002D01*
X109053Y79952D01*
X109091Y79991D01*
X109098Y80007D01*
X109258Y80167D01*
X109265Y80177D01*
X109434D01*
Y79656D01*
D02*
G37*
G36*
X99326Y80188D02*
X99053D01*
X99003Y80178D01*
X98961Y80149D01*
X98932Y80107D01*
X98922Y80057D01*
X98932Y80006D01*
X98961Y79964D01*
X99003Y79935D01*
X99053Y79925D01*
X99326D01*
Y79570D01*
X98813Y79057D01*
X98512D01*
X98504Y79055D01*
X98431D01*
Y78307D01*
X98489D01*
X98789Y78152D01*
X98773Y78104D01*
X98626Y78134D01*
X98436D01*
X98250Y78097D01*
X98074Y78024D01*
X97916Y77918D01*
X97782Y77784D01*
X97677Y77628D01*
X97674Y77627D01*
X97627Y77637D01*
Y80237D01*
X97656Y80275D01*
X98049D01*
Y80305D01*
X98362D01*
X98374Y80277D01*
X98378Y80255D01*
X98344Y80204D01*
X98332Y80143D01*
X98332Y80143D01*
Y80059D01*
X98344Y79998D01*
X98379Y79946D01*
X98431Y79911D01*
X98492Y79899D01*
X98554Y79911D01*
X98606Y79946D01*
X98641Y79998D01*
X98653Y80059D01*
Y80076D01*
X98882Y80305D01*
X99326D01*
Y80188D01*
D02*
G37*
G36*
X100066Y80433D02*
X100167D01*
X100186Y80387D01*
X99693Y79894D01*
X99647Y79913D01*
Y80410D01*
X99939D01*
Y80483D01*
X100066D01*
Y80433D01*
D02*
G37*
G36*
X103348Y81506D02*
X103843Y80831D01*
X103843Y80831D01*
X104144Y80421D01*
X104146Y80418D01*
X104154Y80407D01*
X104177Y80383D01*
X104181Y80367D01*
X104184Y80360D01*
X104185Y80352D01*
X104190Y80345D01*
X104193Y80338D01*
X104198Y80333D01*
X104203Y80326D01*
X104230Y80299D01*
X104239Y80277D01*
Y80254D01*
X104229Y80230D01*
X104226Y80217D01*
X104223Y80205D01*
X104219Y80153D01*
X104219Y80150D01*
X104218Y80147D01*
X104221Y80134D01*
X104222Y80122D01*
X104224Y80119D01*
X104225Y80116D01*
X104232Y80105D01*
X104238Y80094D01*
X104240Y80092D01*
X104242Y80090D01*
X104269Y80062D01*
X104278Y80041D01*
Y80002D01*
X104280Y79995D01*
Y79987D01*
X104283Y79979D01*
X104284Y79972D01*
X104289Y79965D01*
X104292Y79958D01*
X104313Y79926D01*
X104318Y79920D01*
X104323Y79914D01*
X104329Y79910D01*
X104335Y79904D01*
X104342Y79901D01*
X104349Y79896D01*
X104357Y79895D01*
X104364Y79892D01*
X104400Y79853D01*
Y79667D01*
X104388Y79656D01*
X104152D01*
Y79776D01*
X103824Y80104D01*
X103822Y80102D01*
X103408Y80520D01*
X103200Y81139D01*
Y81142D01*
X103189Y81196D01*
X103159Y81241D01*
X102962Y81438D01*
X102931Y81458D01*
Y81477D01*
X102876D01*
X102862Y81479D01*
X102685D01*
X102680Y81478D01*
X102521Y81480D01*
Y81789D01*
X102588Y81790D01*
X102858D01*
X103348Y81506D01*
D02*
G37*
G36*
X107471Y79597D02*
X107452Y79550D01*
X107332D01*
X107126Y79757D01*
X107219Y79849D01*
X107471Y79597D01*
D02*
G37*
G36*
X100682Y79853D02*
X100328Y79498D01*
X100265D01*
X100247Y79548D01*
X100598Y79899D01*
X100663D01*
X100682Y79853D01*
D02*
G37*
G36*
X107101Y79410D02*
X107082Y79364D01*
X106962D01*
X106848Y79478D01*
X106940Y79571D01*
X107101Y79410D01*
D02*
G37*
G36*
X105202Y79989D02*
Y79754D01*
X105212Y79704D01*
X105240Y79661D01*
X105360Y79542D01*
Y79268D01*
X105315Y79223D01*
X105166D01*
Y79616D01*
X105100D01*
Y79953D01*
X105155Y80008D01*
X105202Y79989D01*
D02*
G37*
G36*
X109434Y77637D02*
X109388Y77627D01*
X109384Y77628D01*
X109280Y77784D01*
X109146Y77918D01*
X108988Y78024D01*
X108812Y78097D01*
X108626Y78134D01*
X108436D01*
X108250Y78097D01*
X108074Y78024D01*
X107916Y77918D01*
X107782Y77784D01*
X107676Y77626D01*
X107622Y77495D01*
X107572Y77504D01*
Y77808D01*
X107960Y78197D01*
X108049D01*
X108099Y78206D01*
X108142Y78235D01*
X108154Y78253D01*
X108256D01*
Y78189D01*
X108650D01*
Y78189D01*
X108700Y78189D01*
X109044D01*
Y78596D01*
X108934D01*
X108932Y78598D01*
X108958Y78649D01*
X109044Y78649D01*
Y78649D01*
X109044D01*
Y78649D01*
X109434D01*
Y77637D01*
D02*
G37*
G36*
X107818Y78832D02*
X107719Y78734D01*
X107712Y78732D01*
X107670Y78704D01*
X107522Y78556D01*
X107439D01*
X107430Y78554D01*
X107380Y78595D01*
Y78753D01*
X107242D01*
X107216Y78803D01*
X107217Y78806D01*
X107380D01*
Y78878D01*
X107799D01*
X107818Y78832D01*
D02*
G37*
G36*
X108256Y78649D02*
X108419D01*
X108421Y78646D01*
X108394Y78596D01*
X108256D01*
Y78515D01*
X108143D01*
X108142Y78518D01*
X108099Y78546D01*
X108049Y78556D01*
X107978D01*
X107959Y78602D01*
X108023Y78666D01*
X108256D01*
Y78649D01*
D02*
G37*
G36*
X99562Y79287D02*
Y78462D01*
X99515Y78445D01*
X99123Y78913D01*
X99516Y79306D01*
X99562Y79287D01*
D02*
G37*
G36*
X101319Y79068D02*
X101316Y79066D01*
X101286Y79021D01*
X101275Y78967D01*
X101286Y78913D01*
X101316Y78867D01*
X101362Y78837D01*
X101416Y78826D01*
X101573D01*
X101627Y78837D01*
X101659Y78859D01*
X101709Y78839D01*
Y78354D01*
X101449D01*
X101387Y78416D01*
X101341Y78447D01*
X101288Y78458D01*
X101234Y78447D01*
X101188Y78416D01*
X101158Y78371D01*
X101147Y78317D01*
X101158Y78263D01*
X101187Y78220D01*
X101185Y78210D01*
X101167Y78168D01*
X101135Y78161D01*
X101090Y78131D01*
X101083Y78121D01*
X101033Y78136D01*
Y79026D01*
X101027Y79057D01*
X101026Y79058D01*
X101038Y79109D01*
X101066Y79118D01*
X101304D01*
X101319Y79068D01*
D02*
G37*
G36*
X99900Y78866D02*
Y78358D01*
X99850Y78331D01*
X99843Y78335D01*
Y78844D01*
X99893Y78870D01*
X99900Y78866D01*
D02*
G37*
G36*
X107274Y78296D02*
X107218Y78240D01*
X107056D01*
X107037Y78287D01*
X107097Y78346D01*
X107253D01*
X107274Y78296D01*
D02*
G37*
G36*
X100953Y77815D02*
X100234D01*
Y78110D01*
X100071D01*
X100057Y78113D01*
X100020D01*
X99988Y78145D01*
Y79026D01*
X100953D01*
Y77815D01*
D02*
G37*
G36*
X102754Y77805D02*
X102045D01*
Y78101D01*
X101790D01*
Y78985D01*
X101831Y79026D01*
X102754D01*
Y77805D01*
D02*
G37*
G36*
X101090Y77932D02*
X101208Y77814D01*
X101254Y77784D01*
X101307Y77773D01*
X101707D01*
X101708Y77758D01*
X101661Y77718D01*
X101045D01*
X101036Y77722D01*
X101028Y77733D01*
X101016Y77768D01*
X101027Y77784D01*
X101033Y77815D01*
Y77927D01*
X101083Y77942D01*
X101090Y77932D01*
D02*
G37*
G36*
X99562Y78264D02*
Y78232D01*
X99573Y78178D01*
X99604Y78132D01*
X99863Y77873D01*
X99908Y77843D01*
X99916Y77841D01*
X99919Y77838D01*
Y77736D01*
X100004D01*
X100087Y77638D01*
X103636D01*
X104400Y78051D01*
X104408D01*
Y78055D01*
X104565Y78141D01*
Y78229D01*
X106494D01*
Y78223D01*
X106652D01*
Y76355D01*
X106616Y76319D01*
X99664Y76333D01*
Y77372D01*
X99205Y78027D01*
X98512Y78386D01*
Y78977D01*
X98965D01*
X99562Y78264D01*
D02*
G37*
G36*
X109434Y76701D02*
Y76636D01*
X109433Y76625D01*
X109425Y76579D01*
X109425D01*
X109426Y76530D01*
X109419Y76500D01*
X109419D01*
X109405Y76455D01*
X109404Y76453D01*
X109398Y76437D01*
X109385Y76415D01*
X109372Y76398D01*
X109366Y76397D01*
X109365Y76397D01*
X109357Y76378D01*
X109340Y76360D01*
X109322Y76343D01*
X109303Y76335D01*
X109303Y76334D01*
X109302Y76328D01*
X109285Y76315D01*
X109263Y76302D01*
X109247Y76296D01*
X109231Y76289D01*
X109200Y76281D01*
X109200Y76281D01*
X109199Y76281D01*
X109182Y76274D01*
X109169Y76272D01*
X109121Y76275D01*
Y76275D01*
X109074Y76267D01*
X109062Y76266D01*
X108999D01*
X108989Y76312D01*
X108990Y76315D01*
X109146Y76420D01*
X109280Y76554D01*
X109384Y76710D01*
X109388Y76711D01*
X109434Y76701D01*
D02*
G37*
G36*
X107676Y76712D02*
X107782Y76554D01*
X107916Y76420D01*
X108072Y76315D01*
X108073Y76312D01*
X108063Y76266D01*
X107572D01*
Y76834D01*
X107622Y76844D01*
X107676Y76712D01*
D02*
G37*
G36*
X107485Y77879D02*
X107491Y77877D01*
Y76266D01*
X106745D01*
X106742Y76269D01*
X106724Y76299D01*
X106720Y76315D01*
X106726Y76324D01*
X106726Y76324D01*
X106726Y76324D01*
X106729Y76339D01*
X106732Y76354D01*
X106732Y76355D01*
X106732Y76355D01*
Y77807D01*
X106774Y77827D01*
X107404D01*
Y77879D01*
X107485D01*
D02*
G37*
G36*
X99583Y77347D02*
Y76333D01*
X99586Y76318D01*
X99587Y76315D01*
X99565Y76277D01*
X99554Y76266D01*
X98999D01*
X98989Y76312D01*
X98990Y76315D01*
X99146Y76420D01*
X99280Y76554D01*
X99386Y76712D01*
X99458Y76888D01*
X99495Y77074D01*
Y77264D01*
X99462Y77433D01*
X99509Y77453D01*
X99583Y77347D01*
D02*
G37*
G36*
X97677Y76710D02*
X97782Y76554D01*
X97916Y76420D01*
X98072Y76315D01*
X98073Y76312D01*
X98063Y76266D01*
X98000D01*
X97987Y76267D01*
X97940Y76275D01*
Y76275D01*
X97896Y76273D01*
X97862Y76281D01*
X97862Y76281D01*
X97817Y76295D01*
X97815Y76296D01*
X97799Y76302D01*
X97776Y76315D01*
X97760Y76328D01*
X97759Y76334D01*
X97759Y76335D01*
X97740Y76343D01*
X97721Y76360D01*
X97704Y76378D01*
X97697Y76397D01*
X97696Y76397D01*
X97689Y76398D01*
X97677Y76415D01*
X97664Y76437D01*
X97658Y76453D01*
X97651Y76469D01*
X97643Y76500D01*
X97643Y76500D01*
X97643Y76501D01*
X97636Y76529D01*
X97637Y76579D01*
X97637D01*
X97629Y76625D01*
X97627Y76636D01*
Y76701D01*
X97674Y76711D01*
X97677Y76710D01*
D02*
G37*
%LPC*%
G36*
X108092Y83288D02*
X107337D01*
Y82894D01*
X108092D01*
Y83288D01*
D02*
G37*
G36*
X105583Y82589D02*
X105260D01*
Y82215D01*
X105583D01*
Y82589D01*
D02*
G37*
%LPD*%
D12*
X103820Y80359D02*
X103862Y80401D01*
X103820Y80238D02*
Y80359D01*
D14*
X109240Y78852D02*
D03*
Y78392D02*
D03*
X108453Y78852D02*
D03*
Y78392D02*
D03*
X108847D02*
D03*
Y78852D02*
D03*
X107183Y78550D02*
D03*
Y79010D02*
D03*
X105697Y78569D02*
D03*
Y79029D02*
D03*
X104998Y81794D02*
D03*
Y82254D02*
D03*
X97853Y80479D02*
D03*
Y80939D02*
D03*
X99742Y80614D02*
D03*
Y80154D02*
D03*
X108104Y80320D02*
D03*
Y80780D02*
D03*
X109191Y82172D02*
D03*
Y82632D02*
D03*
D15*
X108443Y79725D02*
D03*
Y79213D02*
D03*
X109191Y79469D02*
D03*
D16*
X109240Y80374D02*
D03*
X108780D02*
D03*
X109231Y80768D02*
D03*
X108771D02*
D03*
X109139Y83081D02*
D03*
X108679D02*
D03*
X107888Y83091D02*
D03*
X108348D02*
D03*
X107081D02*
D03*
X107541D02*
D03*
X106274Y78790D02*
D03*
X106734D02*
D03*
X106097Y78484D02*
D03*
X106557D02*
D03*
X105277Y78632D02*
D03*
X104817D02*
D03*
X104224Y83130D02*
D03*
X103764D02*
D03*
Y83435D02*
D03*
X104224D02*
D03*
X103388Y83288D02*
D03*
X102928D02*
D03*
Y82982D02*
D03*
X103388D02*
D03*
X101117Y83465D02*
D03*
X101577D02*
D03*
X100168Y83297D02*
D03*
X100628D02*
D03*
X100162Y82884D02*
D03*
X100622D02*
D03*
X100730Y80630D02*
D03*
X100270D02*
D03*
X104276Y79774D02*
D03*
X104736D02*
D03*
D17*
X107508Y82668D02*
D03*
Y82412D02*
D03*
Y82156D02*
D03*
Y81900D02*
D03*
X108689D02*
D03*
Y82156D02*
D03*
Y82412D02*
D03*
Y82668D02*
D03*
D18*
X108099Y82284D02*
D03*
D19*
X104349Y82585D02*
D03*
Y81825D02*
D03*
X99122Y83353D02*
D03*
Y82593D02*
D03*
D20*
X104312Y81007D02*
D03*
X103775Y80470D02*
D03*
D21*
X104969Y79400D02*
D03*
Y79006D02*
D03*
X105284D02*
D03*
Y79400D02*
D03*
D22*
X104530Y80261D02*
D03*
X104856Y80586D02*
D03*
X99914Y80989D02*
D03*
X100240Y81314D02*
D03*
X100210Y82358D02*
D03*
X99885Y82032D02*
D03*
X100112Y81718D02*
D03*
X99786Y81393D02*
D03*
D23*
X105421Y81772D02*
D03*
Y82402D02*
D03*
D24*
X106386Y80729D02*
D03*
D25*
X105217Y80923D02*
D03*
X105356Y81063D02*
D03*
X105495Y81202D02*
D03*
X105634Y81341D02*
D03*
X105774Y81480D02*
D03*
X105913Y81619D02*
D03*
X106052Y81759D02*
D03*
X106191Y81898D02*
D03*
X107555Y80534D02*
D03*
X107416Y80394D02*
D03*
X107277Y80255D02*
D03*
X107138Y80116D02*
D03*
X106998Y79977D02*
D03*
X106859Y79838D02*
D03*
X106720Y79699D02*
D03*
X106581Y79559D02*
D03*
D26*
Y81898D02*
D03*
X106720Y81759D02*
D03*
X106859Y81619D02*
D03*
X106998Y81480D02*
D03*
X107138Y81341D02*
D03*
X107277Y81202D02*
D03*
X107416Y81063D02*
D03*
X107555Y80923D02*
D03*
X106191Y79559D02*
D03*
X106052Y79699D02*
D03*
X105913Y79838D02*
D03*
X105774Y79977D02*
D03*
X105634Y80116D02*
D03*
X105495Y80255D02*
D03*
X105356Y80394D02*
D03*
X105217Y80534D02*
D03*
D27*
X101721Y81831D02*
D03*
D28*
X102685Y82520D02*
D03*
X102685Y82323D02*
D03*
Y82126D02*
D03*
Y81929D02*
D03*
Y81732D02*
D03*
Y81536D02*
D03*
Y81339D02*
D03*
Y81142D02*
D03*
X100756Y81142D02*
D03*
X100756Y81339D02*
D03*
Y81536D02*
D03*
Y81732D02*
D03*
Y81929D02*
D03*
Y82126D02*
D03*
Y82323D02*
D03*
Y82520D02*
D03*
D29*
X102410Y80866D02*
D03*
X102213Y80866D02*
D03*
X102016D02*
D03*
X101819D02*
D03*
X101622D02*
D03*
X101425D02*
D03*
X101229D02*
D03*
X101032D02*
D03*
X101032Y82795D02*
D03*
X101229Y82795D02*
D03*
X101425D02*
D03*
X101622D02*
D03*
X101819D02*
D03*
X102016D02*
D03*
X102213D02*
D03*
X102410D02*
D03*
D30*
X98735Y78681D02*
D03*
X97975D02*
D03*
X98616Y81939D02*
D03*
X97856D02*
D03*
X98616Y82608D02*
D03*
X97856D02*
D03*
D31*
X101888Y78179D02*
D03*
X102144D02*
D03*
X102400D02*
D03*
X102656D02*
D03*
X101888Y76782D02*
D03*
X102144D02*
D03*
X102400D02*
D03*
X102656D02*
D03*
X100845Y76792D02*
D03*
X100589D02*
D03*
X100333D02*
D03*
X100077D02*
D03*
X100845Y78179D02*
D03*
X100589D02*
D03*
X100333D02*
D03*
X100077D02*
D03*
D32*
X101888Y79311D02*
D03*
X102144D02*
D03*
X102400D02*
D03*
X102656D02*
D03*
X101888Y77914D02*
D03*
X102144D02*
D03*
X102400D02*
D03*
X102656D02*
D03*
X100845Y77923D02*
D03*
X100589D02*
D03*
X100333D02*
D03*
X100077D02*
D03*
X100845Y79311D02*
D03*
X100589D02*
D03*
X100333D02*
D03*
X100077D02*
D03*
D33*
X102272Y78632D02*
D03*
Y77234D02*
D03*
X100461Y77244D02*
D03*
X100461Y78632D02*
D03*
D34*
X105707Y77284D02*
D03*
D35*
X107089Y78034D02*
D03*
Y77534D02*
D03*
Y77034D02*
D03*
Y76534D02*
D03*
D36*
X103738Y77234D02*
D03*
Y78416D02*
D03*
D37*
X98276Y80522D02*
D03*
Y80896D02*
D03*
Y81270D02*
D03*
X99142D02*
D03*
Y80896D02*
D03*
Y80522D02*
D03*
D38*
X105761Y79434D02*
D03*
X106086Y79109D02*
D03*
X107562Y81472D02*
D03*
X107887Y81147D02*
D03*
D39*
X107508Y78376D02*
D03*
X107981D02*
D03*
D67*
X107331Y82175D02*
X107489D01*
X107216Y82284D02*
X107221D01*
X107331Y82175D01*
X102419Y80562D02*
Y80857D01*
Y80562D02*
X102683Y80298D01*
X102410Y80866D02*
X102419Y80857D01*
X102683Y80215D02*
Y80298D01*
X102597Y80128D02*
X102683Y80215D01*
X109233Y80374D02*
X109240D01*
X108975Y80069D02*
X109165Y80260D01*
Y80306D02*
X109233Y80374D01*
X109165Y80260D02*
Y80306D01*
X104851Y80561D02*
X105027D01*
X107636Y79616D02*
Y79617D01*
X107138Y80115D02*
X107636Y79617D01*
X107138Y80115D02*
Y80116D01*
X100164Y82323D02*
X100756D01*
X100171Y82338D02*
X100220Y82387D01*
X100703Y80630D02*
X100730D01*
X100648Y80575D02*
X100703Y80630D01*
X109014Y79680D02*
Y79695D01*
X109044Y79527D02*
Y79649D01*
Y79527D02*
X109103Y79469D01*
X109014Y79680D02*
X109044Y79649D01*
X109103Y79469D02*
X109191D01*
X108151Y79010D02*
X108296Y79155D01*
X107188Y79010D02*
X108151D01*
X108296Y79155D02*
Y79155D01*
X108355Y79213D01*
X108113D02*
X108355D01*
X108104Y79223D02*
X108113Y79213D01*
X108099Y79223D02*
X108104D01*
X107646Y79419D02*
X107647Y79420D01*
X107278Y79419D02*
X107646D01*
X107706Y79420D02*
X108592Y80307D01*
X106859Y79838D02*
X107278Y79419D01*
X106908Y79232D02*
X107725D01*
X107647Y79420D02*
X107706D01*
X107183Y79005D02*
X107188Y79010D01*
X107762Y78611D02*
X107782D01*
X107968Y78797D02*
X108398D01*
X107782Y78611D02*
X107968Y78797D01*
X107528Y78376D02*
X107762Y78611D01*
X108355Y79213D02*
X108443D01*
X108398Y78797D02*
X108453Y78852D01*
X107488Y78376D02*
X107528D01*
X106581Y79559D02*
X106908Y79232D01*
X104969Y79380D02*
Y79400D01*
X104761Y79181D02*
X104892Y79312D01*
X104761Y78688D02*
X104817Y78632D01*
X104761Y78688D02*
Y79181D01*
X104901Y79312D02*
X104969Y79380D01*
X104892Y79312D02*
X104901D01*
X104969Y79400D02*
Y80007D01*
X100639Y80926D02*
Y81133D01*
X100648Y81142D01*
X100756D01*
X109227Y78852D02*
X109240Y78839D01*
X108847Y78852D02*
X109227D01*
X107882Y81151D02*
X107887Y81147D01*
X107555Y80923D02*
X107783Y81151D01*
X107882D01*
X107489Y82175D02*
X107508Y82156D01*
X100149Y82338D02*
X100164Y82323D01*
X100144Y82343D02*
X100149Y82338D01*
X100171D01*
X100139D02*
X100149D01*
X100092Y81738D02*
X100284Y81929D01*
X99435Y80057D02*
X99486Y80108D01*
X99053Y80057D02*
X99435D01*
X108713Y80307D02*
X108780Y80374D01*
X108592Y80307D02*
X108713D01*
X105531Y79761D02*
Y80012D01*
X105552Y80033D01*
X105559Y80040D02*
Y80041D01*
X105634Y80116D01*
X105531Y79761D02*
X105761Y79531D01*
Y79434D02*
Y79531D01*
X107561Y80249D02*
X108036D01*
X107416Y80394D02*
X107561Y80249D01*
X105027Y80561D02*
X105135Y80453D01*
X104846Y80557D02*
X104851Y80561D01*
X105135Y80453D02*
X105136D01*
X105217Y80534D01*
X107906Y78328D02*
X107932D01*
X107089Y77534D02*
X107181D01*
X107089D02*
X107112D01*
X107906Y78328D01*
X107932D02*
X107989Y78384D01*
X107181Y77534D02*
X107239Y77592D01*
X104998Y81420D02*
X105356Y81063D01*
X104998Y81420D02*
Y81768D01*
X105454Y81522D02*
Y81739D01*
X105634Y81341D02*
Y81342D01*
X105454Y81522D02*
X105634Y81342D01*
X105421Y81772D02*
X105454Y81739D01*
X105805Y82005D02*
Y82648D01*
X103448Y82923D02*
X105531D01*
X105805Y82648D01*
Y82005D02*
X106052Y81759D01*
X105815Y83435D02*
X106012Y83238D01*
Y82077D02*
X106191Y81898D01*
X106012Y82077D02*
Y83238D01*
X103388Y82982D02*
X103448Y82923D01*
X104224Y83435D02*
X105815D01*
X103764Y83120D02*
Y83435D01*
X102402Y83499D02*
X103701D01*
X103764Y83435D01*
X102016Y83113D02*
X102402Y83499D01*
X102016Y82795D02*
Y83113D01*
X102928Y82953D02*
Y83307D01*
X102222Y82805D02*
Y83021D01*
X102508Y83307D01*
X102928D01*
X102213Y82795D02*
X102222Y82805D01*
X108708Y82431D02*
X108990D01*
X109116Y82557D01*
X109191Y82625D02*
Y82632D01*
X109116Y82557D02*
X109123D01*
X109191Y82625D01*
X108689Y82412D02*
X108708Y82431D01*
X108679Y82677D02*
Y83081D01*
Y82677D02*
X108689Y82668D01*
X108771Y80768D02*
X108775Y80763D01*
Y80379D02*
Y80763D01*
Y80379D02*
X108780Y80374D01*
X105697Y79029D02*
Y79036D01*
X105629Y79104D02*
X105697Y79036D01*
X105333Y79754D02*
Y80093D01*
Y79754D02*
X105491Y79596D01*
Y79235D02*
Y79596D01*
X105622Y79104D02*
X105629D01*
X105697Y79036D01*
X105622Y79104D02*
X105629D01*
X106970Y78790D02*
X107183Y79003D01*
Y79010D01*
X106734Y78790D02*
X106970D01*
X106564Y78484D02*
X106659Y78580D01*
X106557Y78484D02*
X106564D01*
X106727Y78790D02*
X106734D01*
X106659Y78721D02*
X106727Y78790D01*
X106659Y78580D02*
Y78721D01*
X100793Y83140D02*
X101278D01*
X101416Y82805D02*
Y83001D01*
X101278Y83140D02*
X101416Y83001D01*
X100635Y83297D02*
X100793Y83140D01*
X101416Y82805D02*
X101425Y82795D01*
X101613Y82805D02*
Y83428D01*
X101577Y83465D02*
X101613Y83428D01*
Y82805D02*
X101622Y82795D01*
X100628Y83297D02*
X100635D01*
X101023Y82884D02*
X101032Y82875D01*
X100622Y82884D02*
X101023D01*
X101032Y82795D02*
Y82875D01*
X100139Y82338D02*
X100144Y82343D01*
X100284Y81929D02*
X100756D01*
X100333Y81071D02*
X100591Y81330D01*
X100333Y80693D02*
Y81071D01*
X100270Y80630D02*
X100333Y80693D01*
X99742Y80614D02*
X100254D01*
X100747Y81330D02*
X100756Y81339D01*
X100591Y81330D02*
X100747D01*
X99772Y80687D02*
X99780Y80678D01*
X105333Y80093D02*
X105495Y80255D01*
X105352Y79094D02*
X105371D01*
X105502Y79224D01*
X105697Y79029D02*
Y79036D01*
X105502Y79224D02*
X105622Y79104D01*
X105284Y79006D02*
Y79026D01*
X105352Y79094D01*
X104969Y80007D02*
X105356Y80394D01*
X108453Y78845D02*
X108779Y78520D01*
Y78460D02*
X108847Y78392D01*
X108453Y78845D02*
Y78852D01*
X108779Y78460D02*
Y78520D01*
X107197Y78034D02*
X107440Y78277D01*
X107089Y78034D02*
X107197D01*
X107440Y78277D02*
Y78328D01*
X107488Y78376D01*
X107989Y78384D02*
X108445D01*
X108453Y78392D01*
D68*
X101366Y80040D02*
X101622Y80295D01*
X100540Y80040D02*
X101366D01*
X101622Y80295D02*
Y80866D01*
X100038Y78937D02*
Y78967D01*
X99881Y79123D02*
X100038Y78967D01*
X100372Y78642D02*
X100481D01*
X99881Y79123D02*
Y79618D01*
X100057Y78957D02*
X100372Y78642D01*
X102794Y80975D02*
X102803Y80966D01*
X102794Y80975D02*
Y81142D01*
X100465Y80201D02*
X101213D01*
X99881Y79618D02*
X100465Y80201D01*
X100356Y80358D02*
X101085D01*
X101213Y80201D02*
X101425Y80414D01*
X99703Y79705D02*
X100356Y80358D01*
X101085D02*
X101229Y80502D01*
X102803Y80532D02*
X103059Y80788D01*
X100168Y83297D02*
X100175D01*
X100161D02*
X100168D01*
X99627Y82756D02*
X99755Y82884D01*
X100102Y83231D01*
X99755Y82884D02*
X100155D01*
X100385Y83514D02*
X101067D01*
X100102Y83231D02*
Y83238D01*
X99368Y82756D02*
X99627D01*
X100175Y83297D02*
X100234Y83357D01*
Y83363D01*
X100102Y83238D02*
X100161Y83297D01*
X100234Y83363D02*
X100385Y83514D01*
X101067D02*
X101117Y83465D01*
X98700Y81815D02*
X98782Y81732D01*
X99781D02*
X100199Y81314D01*
X98700Y81815D02*
Y81856D01*
X98782Y81732D02*
X99781D01*
X100199Y81314D02*
X100240D01*
X102862Y81339D02*
X103059Y81142D01*
X102685Y81339D02*
X102862D01*
X103059Y80788D02*
Y81142D01*
X102685D02*
X102794D01*
X101888Y79282D02*
Y79311D01*
X101416Y78967D02*
X101573D01*
X101888Y79282D01*
X100094Y79594D02*
X100540Y80040D01*
X101391Y78214D02*
X101854D01*
X102272Y78632D01*
X101288Y78317D02*
X101391Y78214D01*
X101307Y77914D02*
X101888D01*
X101189Y78032D02*
X101307Y77914D01*
X100094Y79335D02*
Y79594D01*
X100077Y79318D02*
X100094Y79335D01*
X100057Y77973D02*
X100077Y77953D01*
X99703Y78232D02*
X99962Y77973D01*
X99703Y78232D02*
Y79705D01*
X99962Y77973D02*
X100057D01*
X100077Y77925D02*
Y77953D01*
X101425Y80414D02*
Y80866D01*
X101229Y80502D02*
Y80866D01*
X107541Y83091D02*
X107888D01*
X100240Y81314D02*
X100461Y81536D01*
X100756D01*
D69*
X99880Y82028D02*
X99885Y82032D01*
X99360Y82028D02*
X99880D01*
X99352Y82019D02*
X99360Y82028D01*
X98616Y81939D02*
Y82608D01*
X99225D01*
X99231Y82602D01*
X98700Y80640D02*
Y81856D01*
X98616Y81939D02*
X98700Y81856D01*
Y80640D02*
X98818Y80522D01*
X99142D01*
X98492Y80143D02*
X98830Y80480D01*
X98492Y80059D02*
Y80143D01*
X98735Y78752D02*
X99486Y79503D01*
Y80108D01*
Y80745D01*
X106734Y78211D02*
Y78211D01*
X106219Y77992D02*
X106516D01*
X106734Y78211D01*
Y78211D02*
X107074Y78550D01*
X105707Y77481D02*
X106219Y77992D01*
X105707Y77284D02*
Y77481D01*
X99142Y80896D02*
X99201Y80837D01*
X99394D01*
X99486Y80745D01*
X98735Y78681D02*
Y78752D01*
D70*
X107314Y82649D02*
X107489D01*
X107028Y82362D02*
X107314Y82649D01*
X107028Y81789D02*
Y82362D01*
X107489Y82649D02*
X107508Y82668D01*
X106859Y81621D02*
X107028Y81789D01*
X106859Y81619D02*
Y81621D01*
X108697Y82164D02*
X109183D01*
X109181Y82182D02*
X109191Y82172D01*
X109183Y82164D02*
X109191Y82172D01*
X109181Y82182D02*
Y82185D01*
X108689Y82156D02*
X108697Y82164D01*
X107391Y81881D02*
X107410Y81900D01*
X107508D01*
X106998Y81480D02*
X107391Y81873D01*
Y81881D01*
D71*
X97853Y80937D02*
X97854Y80939D01*
Y81937D02*
X97856Y81939D01*
X97854Y80939D02*
Y81937D01*
X97872Y80500D02*
X98255D01*
X97853Y80479D02*
Y80481D01*
X98255Y80500D02*
X98276Y80522D01*
X97853Y80481D02*
X97872Y80500D01*
X98255Y80917D02*
X98276Y80896D01*
X97872Y80917D02*
X98255D01*
X97853Y80937D02*
X97872Y80917D01*
D72*
X98531Y77169D02*
D03*
X108531D02*
D03*
D73*
X104969Y79006D02*
D03*
X105284Y79360D02*
D03*
X104276Y79774D02*
D03*
X104732Y79784D02*
D03*
X109240Y78392D02*
D03*
X103388Y83258D02*
D03*
X103581Y79675D02*
D03*
X100668Y78780D02*
D03*
X100195Y78307D02*
D03*
Y78465D02*
D03*
X100510D02*
D03*
Y78307D02*
D03*
X100825Y78780D02*
D03*
X100195Y78622D02*
D03*
X100038Y78780D02*
D03*
X100510Y78622D02*
D03*
X100825Y78307D02*
D03*
X100195Y78937D02*
D03*
Y78780D02*
D03*
X100038Y78307D02*
D03*
X100825Y78465D02*
D03*
X100668Y78937D02*
D03*
Y78465D02*
D03*
X100510Y78937D02*
D03*
X100353Y78622D02*
D03*
X100668D02*
D03*
X100038Y78937D02*
D03*
Y78465D02*
D03*
Y78622D02*
D03*
X100825Y78937D02*
D03*
X100668Y78307D02*
D03*
X100353Y78465D02*
D03*
Y78780D02*
D03*
X100825Y78622D02*
D03*
X100353Y78307D02*
D03*
X100510Y78780D02*
D03*
X100353Y78937D02*
D03*
X100333Y77923D02*
D03*
X100589D02*
D03*
X100845D02*
D03*
X102144Y77914D02*
D03*
X102400D02*
D03*
X102656D02*
D03*
X102666Y78937D02*
D03*
X102508D02*
D03*
X102351D02*
D03*
X102193D02*
D03*
X102036D02*
D03*
X101878D02*
D03*
Y78780D02*
D03*
X102036D02*
D03*
X102193D02*
D03*
X102351D02*
D03*
X102508D02*
D03*
X102666D02*
D03*
Y78622D02*
D03*
Y78465D02*
D03*
Y78307D02*
D03*
X102508D02*
D03*
Y78465D02*
D03*
Y78622D02*
D03*
X102351D02*
D03*
Y78465D02*
D03*
Y78307D02*
D03*
X102193D02*
D03*
X102036D02*
D03*
X101878D02*
D03*
Y78465D02*
D03*
Y78622D02*
D03*
X102036D02*
D03*
X102193D02*
D03*
Y78465D02*
D03*
X102036D02*
D03*
X105628Y83140D02*
D03*
X105431D02*
D03*
X105234D02*
D03*
X105038D02*
D03*
X104841D02*
D03*
X104644D02*
D03*
X104447D02*
D03*
X104224Y83130D02*
D03*
X99015Y82012D02*
D03*
X108975Y80069D02*
D03*
X108778Y81132D02*
D03*
X106949Y80952D02*
D03*
X106831Y81071D02*
D03*
X106595D02*
D03*
Y81307D02*
D03*
X106713Y80952D02*
D03*
X106713Y81189D02*
D03*
X106477Y81189D02*
D03*
X101140Y82392D02*
D03*
X101455D02*
D03*
X101612D02*
D03*
X102085D02*
D03*
X101927D02*
D03*
X102242D02*
D03*
X101770D02*
D03*
X101297D02*
D03*
X99181Y82071D02*
D03*
X99352Y82019D02*
D03*
X104703Y82201D02*
D03*
X106240Y80008D02*
D03*
X106477Y80008D02*
D03*
X106359Y80126D02*
D03*
X99526Y81486D02*
D03*
Y81290D02*
D03*
X99605Y81093D02*
D03*
X99801Y81368D02*
D03*
X99919Y80975D02*
D03*
X100195Y82353D02*
D03*
X105431Y82392D02*
D03*
X108030Y81880D02*
D03*
X108187D02*
D03*
X108345D02*
D03*
X108935Y81250D02*
D03*
X108778Y81368D02*
D03*
X108935Y81486D02*
D03*
X108778Y81605D02*
D03*
X107185Y80716D02*
D03*
X107067Y80598D02*
D03*
X106949Y80480D02*
D03*
X106831Y80362D02*
D03*
X106713Y80244D02*
D03*
X106595Y80126D02*
D03*
X107067Y80834D02*
D03*
X106949Y80716D02*
D03*
X106831Y80598D02*
D03*
X106713Y80480D02*
D03*
X106595Y80362D02*
D03*
X106477Y80244D02*
D03*
X106831Y80834D02*
D03*
X106713Y80716D02*
D03*
X106595Y80598D02*
D03*
X106477Y80480D02*
D03*
X106359Y80362D02*
D03*
X106240Y80244D02*
D03*
X106122Y80126D02*
D03*
X106595Y80834D02*
D03*
X106477Y80716D02*
D03*
X106359Y80598D02*
D03*
X106240Y80480D02*
D03*
X106122Y80362D02*
D03*
X106004Y80244D02*
D03*
X106477Y80952D02*
D03*
X106359Y80834D02*
D03*
X106240Y80716D02*
D03*
X106122Y80598D02*
D03*
X106004Y80480D02*
D03*
X105886Y80362D02*
D03*
X106359Y81071D02*
D03*
X106240Y80952D02*
D03*
X106122Y80834D02*
D03*
X106004Y80716D02*
D03*
X105886Y80598D02*
D03*
X105768Y80480D02*
D03*
X106477Y81425D02*
D03*
X106359Y81307D02*
D03*
X106240Y81189D02*
D03*
X106122Y81071D02*
D03*
X106004Y80952D02*
D03*
X105886Y80834D02*
D03*
X105768Y80716D02*
D03*
X105650Y80598D02*
D03*
X105549Y80738D02*
D03*
X105668Y80857D02*
D03*
X105786Y80975D02*
D03*
X105904Y81093D02*
D03*
X106022Y81211D02*
D03*
X106140Y81329D02*
D03*
X106258Y81447D02*
D03*
X106376Y81565D02*
D03*
X101219Y81290D02*
D03*
X101376D02*
D03*
X101534D02*
D03*
X101691D02*
D03*
X101849D02*
D03*
X102006D02*
D03*
X102164D02*
D03*
X102321D02*
D03*
X101140Y81447D02*
D03*
X101297D02*
D03*
X101455D02*
D03*
X101612D02*
D03*
X101770D02*
D03*
X101927D02*
D03*
X102085D02*
D03*
X102242D02*
D03*
X101179Y81605D02*
D03*
X101337D02*
D03*
X101494D02*
D03*
X101652D02*
D03*
X101809D02*
D03*
X101967D02*
D03*
X102124D02*
D03*
X102282D02*
D03*
X101140Y81762D02*
D03*
X101297D02*
D03*
X101455D02*
D03*
X101612D02*
D03*
X101770D02*
D03*
X101927D02*
D03*
X102085D02*
D03*
X102242D02*
D03*
X101179Y81919D02*
D03*
X101337D02*
D03*
X101494D02*
D03*
X101652D02*
D03*
X101809D02*
D03*
X101967D02*
D03*
X102124D02*
D03*
X102282D02*
D03*
X101140Y82077D02*
D03*
X101297D02*
D03*
X101455D02*
D03*
X101612D02*
D03*
X101770D02*
D03*
X101927D02*
D03*
X102085D02*
D03*
X102242D02*
D03*
X101179Y82234D02*
D03*
X101337D02*
D03*
X101494D02*
D03*
X101652D02*
D03*
X101809D02*
D03*
X101967D02*
D03*
X102124D02*
D03*
X102282D02*
D03*
X108030Y83416D02*
D03*
X108187D02*
D03*
X108817D02*
D03*
X108975D02*
D03*
X108502D02*
D03*
X108660D02*
D03*
X108345D02*
D03*
X107872D02*
D03*
X109139Y83081D02*
D03*
X107081Y83091D02*
D03*
X97794Y78770D02*
D03*
X97951D02*
D03*
X98108D02*
D03*
Y78612D02*
D03*
X97951D02*
D03*
X97794D02*
D03*
X98108Y78455D02*
D03*
X97951D02*
D03*
X97794D02*
D03*
X99368Y83494D02*
D03*
X99211D02*
D03*
X99053D02*
D03*
X98896D02*
D03*
X99368Y83337D02*
D03*
X99211D02*
D03*
X99053D02*
D03*
X98896D02*
D03*
Y83179D02*
D03*
X99053D02*
D03*
X99211D02*
D03*
X99368D02*
D03*
X99053Y82441D02*
D03*
X98896Y82756D02*
D03*
X99368D02*
D03*
X99053Y82599D02*
D03*
Y82756D02*
D03*
X98896Y82441D02*
D03*
X99368Y82599D02*
D03*
Y82441D02*
D03*
X98896Y82599D02*
D03*
X99211Y82756D02*
D03*
Y82441D02*
D03*
Y82599D02*
D03*
X99742Y80154D02*
D03*
X100648Y80575D02*
D03*
X108817Y79292D02*
D03*
X109014Y79695D02*
D03*
X109024Y79144D02*
D03*
X108099Y80325D02*
D03*
X103660Y80660D02*
D03*
X103827Y80708D02*
D03*
X104487Y80227D02*
D03*
X104221Y80030D02*
D03*
X104181Y80266D02*
D03*
X103923Y80566D02*
D03*
X103423Y79833D02*
D03*
X103916Y80049D02*
D03*
X104044Y79941D02*
D03*
X100639Y80926D02*
D03*
X109329Y78120D02*
D03*
X109181Y78032D02*
D03*
X109339Y77904D02*
D03*
X103108Y78140D02*
D03*
Y78297D02*
D03*
Y78455D02*
D03*
Y78612D02*
D03*
X103581Y78140D02*
D03*
X103423D02*
D03*
X103266D02*
D03*
Y78297D02*
D03*
X103423D02*
D03*
X103266Y78455D02*
D03*
X103423D02*
D03*
X103266Y78612D02*
D03*
X103423D02*
D03*
X103581Y78297D02*
D03*
Y78455D02*
D03*
Y78612D02*
D03*
X103738Y78455D02*
D03*
Y78612D02*
D03*
X103896Y78455D02*
D03*
Y78612D02*
D03*
X103266Y79833D02*
D03*
X103108D02*
D03*
X103423Y79675D02*
D03*
X103266D02*
D03*
X103108D02*
D03*
Y79518D02*
D03*
X103266D02*
D03*
X103423D02*
D03*
X103581D02*
D03*
X103108Y79360D02*
D03*
X103266D02*
D03*
X103423D02*
D03*
X103581D02*
D03*
X103738D02*
D03*
X103108Y79203D02*
D03*
X103266D02*
D03*
X103423D02*
D03*
X103581D02*
D03*
X103738D02*
D03*
X103896D02*
D03*
X103738Y79045D02*
D03*
X103896D02*
D03*
Y78888D02*
D03*
X103738D02*
D03*
X103108Y79045D02*
D03*
X103266D02*
D03*
X103423D02*
D03*
X103581D02*
D03*
Y78888D02*
D03*
X103423D02*
D03*
X103266D02*
D03*
X103108D02*
D03*
X108149Y80817D02*
D03*
X107887Y81147D02*
D03*
X104851Y80581D02*
D03*
X99885Y82032D02*
D03*
X98443Y82362D02*
D03*
X98601D02*
D03*
X98758D02*
D03*
X98443Y82835D02*
D03*
Y82677D02*
D03*
Y82520D02*
D03*
X98601Y82835D02*
D03*
Y82677D02*
D03*
Y82520D02*
D03*
X98758Y82835D02*
D03*
Y82677D02*
D03*
Y82520D02*
D03*
X105687Y78563D02*
D03*
X105264Y78632D02*
D03*
X104073Y80118D02*
D03*
X103572Y80477D02*
D03*
X103700Y80363D02*
D03*
X103765Y80540D02*
D03*
X103862Y80401D02*
D03*
X103820Y80238D02*
D03*
X104021Y80428D02*
D03*
X103738Y77038D02*
D03*
X104053D02*
D03*
X104368Y77195D02*
D03*
X103738Y77510D02*
D03*
X103108Y77195D02*
D03*
X103896Y77353D02*
D03*
X104368Y77038D02*
D03*
X103581Y77195D02*
D03*
X103423Y77038D02*
D03*
X103266Y77195D02*
D03*
X103581Y77353D02*
D03*
X104211Y77510D02*
D03*
X103108Y77038D02*
D03*
Y77353D02*
D03*
X104368D02*
D03*
X103266D02*
D03*
X103423Y77195D02*
D03*
Y77353D02*
D03*
X104211Y77038D02*
D03*
X103266Y77510D02*
D03*
X103108D02*
D03*
X104368D02*
D03*
X103738Y77353D02*
D03*
X104211D02*
D03*
X103581Y77038D02*
D03*
X104053Y77510D02*
D03*
Y77195D02*
D03*
X103423Y77510D02*
D03*
X103266Y77038D02*
D03*
X103896Y77195D02*
D03*
X104211D02*
D03*
X103738D02*
D03*
X104053Y77353D02*
D03*
X103896Y77510D02*
D03*
Y77038D02*
D03*
X103581Y77510D02*
D03*
X107239Y77602D02*
D03*
X107400Y77303D02*
D03*
Y77008D02*
D03*
Y76713D02*
D03*
X106816Y76551D02*
D03*
X106984D02*
D03*
X107151D02*
D03*
X107318D02*
D03*
X107407Y76413D02*
D03*
X107232Y76411D02*
D03*
X107067Y76408D02*
D03*
X106898Y76398D02*
D03*
X106816Y76856D02*
D03*
X106984D02*
D03*
X107151D02*
D03*
X107318D02*
D03*
X107232Y76716D02*
D03*
X107067Y76713D02*
D03*
X106898Y76703D02*
D03*
X106826Y77151D02*
D03*
X106993D02*
D03*
X107161D02*
D03*
X107328D02*
D03*
X107242Y77012D02*
D03*
X107076Y77008D02*
D03*
X106908Y76998D02*
D03*
X106816Y77456D02*
D03*
X106984D02*
D03*
X107151D02*
D03*
X107318D02*
D03*
X107232Y77317D02*
D03*
X107067Y77313D02*
D03*
X106898Y77303D02*
D03*
X106901Y77593D02*
D03*
X107070Y77603D02*
D03*
X107410Y77608D02*
D03*
X107321Y77746D02*
D03*
X107154D02*
D03*
X106986D02*
D03*
X106819D02*
D03*
X109181Y82185D02*
D03*
X109191Y82632D02*
D03*
X98492Y80059D02*
D03*
D74*
X109240Y78839D02*
D03*
X107216Y82284D02*
D03*
X102803Y80966D02*
D03*
X107636Y79616D02*
D03*
X108099Y79223D02*
D03*
X107725Y79232D02*
D03*
X102803Y80532D02*
D03*
X107754Y80599D02*
D03*
X106652Y81969D02*
D03*
X107734Y80817D02*
D03*
X99053Y80057D02*
D03*
X107725Y80062D02*
D03*
X106799Y81831D02*
D03*
X105843Y80032D02*
D03*
X105559Y80040D02*
D03*
X102597Y80128D02*
D03*
X101416Y78967D02*
D03*
X101288Y78317D02*
D03*
X101189Y78032D02*
D03*
X107541Y83091D02*
D03*
M02*
