G04*
G04 #@! TF.GenerationSoftware,Altium Limited,Altium Designer,21.7.2 (23)*
G04*
G04 Layer_Physical_Order=3*
G04 Layer_Color=16440176*
%FSLAX24Y24*%
%MOIN*%
G70*
G04*
G04 #@! TF.SameCoordinates,D4D5CA1D-ADE7-4756-83AA-BB3EC795D047*
G04*
G04*
G04 #@! TF.FilePolarity,Positive*
G04*
G01*
G75*
%ADD67C,0.0100*%
%ADD68C,0.0118*%
%ADD73C,0.0157*%
%ADD74C,0.0118*%
G36*
X109075Y83583D02*
X109121Y83575D01*
X109121Y83575D01*
Y83575D01*
X109166Y83577D01*
X109200Y83569D01*
X109200Y83569D01*
X109245Y83555D01*
X109247Y83554D01*
X109263Y83548D01*
X109285Y83535D01*
X109302Y83522D01*
X109303Y83516D01*
X109303Y83515D01*
X109322Y83507D01*
X109340Y83490D01*
X109357Y83472D01*
X109365Y83453D01*
X109366Y83453D01*
X109372Y83452D01*
X109385Y83435D01*
X109398Y83413D01*
X109404Y83397D01*
X109411Y83381D01*
X109419Y83350D01*
X109419Y83350D01*
X109419Y83349D01*
X109426Y83321D01*
X109425Y83271D01*
X109425D01*
X109433Y83225D01*
X109434Y83214D01*
Y77637D01*
X109388Y77627D01*
X109384Y77628D01*
X109280Y77784D01*
X109146Y77918D01*
X108988Y78024D01*
X108812Y78097D01*
X108626Y78134D01*
X108436D01*
X108250Y78097D01*
X108074Y78024D01*
X107916Y77918D01*
X107782Y77784D01*
X107676Y77626D01*
X107603Y77450D01*
X107584Y77351D01*
X107532Y77345D01*
X107517Y77381D01*
X107478Y77420D01*
X107456Y77429D01*
Y77479D01*
X107488Y77492D01*
X107526Y77530D01*
X107547Y77581D01*
Y77636D01*
X107526Y77687D01*
X107488Y77725D01*
X107459Y77737D01*
Y77774D01*
X107438Y77824D01*
X107399Y77863D01*
X107348Y77884D01*
X107294D01*
X107243Y77863D01*
X107237Y77857D01*
X107232Y77863D01*
X107181Y77884D01*
X107126D01*
X107076Y77863D01*
X107070Y77857D01*
X107064Y77863D01*
X107014Y77884D01*
X106959D01*
X106908Y77863D01*
X106903Y77857D01*
X106897Y77863D01*
X106847Y77884D01*
X106792D01*
X106741Y77863D01*
X106702Y77824D01*
X106681Y77774D01*
Y77719D01*
X106702Y77668D01*
X106741Y77629D01*
X106742Y77629D01*
Y77575D01*
X106738Y77573D01*
X106699Y77535D01*
X106678Y77484D01*
Y77429D01*
X106699Y77378D01*
X106738Y77340D01*
X106760Y77331D01*
Y77276D01*
X106761Y77274D01*
X106748Y77268D01*
X106709Y77229D01*
X106688Y77179D01*
Y77124D01*
X106709Y77073D01*
X106748Y77035D01*
X106754Y77032D01*
Y76979D01*
X106738Y76973D01*
X106699Y76934D01*
X106678Y76883D01*
Y76829D01*
X106699Y76778D01*
X106738Y76739D01*
X106760Y76730D01*
Y76677D01*
X106738Y76668D01*
X106699Y76629D01*
X106678Y76578D01*
Y76524D01*
X106699Y76473D01*
X106738Y76434D01*
X106760Y76425D01*
Y76370D01*
X106781Y76320D01*
X106785Y76315D01*
X106765Y76266D01*
X98999D01*
X98989Y76312D01*
X98990Y76315D01*
X99146Y76420D01*
X99280Y76554D01*
X99386Y76712D01*
X99458Y76888D01*
X99495Y77074D01*
Y77264D01*
X99458Y77450D01*
X99386Y77626D01*
X99280Y77784D01*
X99146Y77918D01*
X98988Y78024D01*
X98812Y78097D01*
X98626Y78134D01*
X98436D01*
X98250Y78097D01*
X98074Y78024D01*
X97916Y77918D01*
X97782Y77784D01*
X97677Y77628D01*
X97674Y77627D01*
X97627Y77637D01*
Y83214D01*
X97629Y83225D01*
X97637Y83271D01*
X97637D01*
X97636Y83320D01*
X97643Y83350D01*
X97643D01*
X97657Y83395D01*
X97658Y83397D01*
X97664Y83413D01*
X97677Y83435D01*
X97689Y83452D01*
X97696Y83453D01*
X97697Y83453D01*
X97704Y83472D01*
X97721Y83490D01*
X97740Y83507D01*
X97759Y83515D01*
X97759Y83516D01*
X97760Y83522D01*
X97776Y83535D01*
X97799Y83548D01*
X97815Y83554D01*
X97831Y83561D01*
X97862Y83569D01*
X97862Y83569D01*
X97863Y83569D01*
X97880Y83576D01*
X97893Y83578D01*
X97940Y83575D01*
Y83575D01*
X97988Y83583D01*
X98000Y83584D01*
X109062D01*
X109075Y83583D01*
D02*
G37*
G36*
X107518Y77225D02*
X107566Y77215D01*
Y77097D01*
X107518Y77086D01*
X107516Y77086D01*
X107478Y77125D01*
X107466Y77130D01*
Y77179D01*
X107465Y77181D01*
X107478Y77187D01*
X107516Y77225D01*
X107518Y77225D01*
D02*
G37*
G36*
X109434Y76701D02*
Y76636D01*
X109433Y76625D01*
X109425Y76579D01*
X109425D01*
X109426Y76530D01*
X109419Y76500D01*
X109419D01*
X109405Y76455D01*
X109404Y76453D01*
X109398Y76437D01*
X109385Y76415D01*
X109372Y76398D01*
X109366Y76397D01*
X109365Y76397D01*
X109357Y76378D01*
X109340Y76360D01*
X109322Y76343D01*
X109303Y76335D01*
X109303Y76334D01*
X109302Y76328D01*
X109285Y76315D01*
X109263Y76302D01*
X109247Y76296D01*
X109231Y76289D01*
X109200Y76281D01*
X109200Y76281D01*
X109199Y76281D01*
X109182Y76274D01*
X109169Y76272D01*
X109121Y76275D01*
Y76275D01*
X109074Y76267D01*
X109062Y76266D01*
X108999D01*
X108989Y76312D01*
X108990Y76315D01*
X109146Y76420D01*
X109280Y76554D01*
X109384Y76710D01*
X109388Y76711D01*
X109434Y76701D01*
D02*
G37*
G36*
X107591Y76949D02*
X107603Y76888D01*
X107676Y76712D01*
X107782Y76554D01*
X107916Y76420D01*
X108072Y76315D01*
X108073Y76312D01*
X108063Y76266D01*
X107525D01*
X107504Y76315D01*
X107524Y76335D01*
X107545Y76386D01*
Y76441D01*
X107524Y76491D01*
X107485Y76530D01*
X107462Y76539D01*
X107459Y76588D01*
X107478Y76596D01*
X107517Y76635D01*
X107538Y76685D01*
Y76740D01*
X107517Y76791D01*
X107478Y76830D01*
X107462Y76836D01*
Y76885D01*
X107478Y76891D01*
X107517Y76930D01*
X107517Y76930D01*
X107581Y76954D01*
X107591Y76949D01*
D02*
G37*
G36*
X97677Y76710D02*
X97782Y76554D01*
X97916Y76420D01*
X98072Y76315D01*
X98073Y76312D01*
X98063Y76266D01*
X98000D01*
X97987Y76267D01*
X97940Y76275D01*
Y76275D01*
X97896Y76273D01*
X97862Y76281D01*
X97862Y76281D01*
X97817Y76295D01*
X97815Y76296D01*
X97799Y76302D01*
X97776Y76315D01*
X97760Y76328D01*
X97759Y76334D01*
X97759Y76335D01*
X97740Y76343D01*
X97721Y76360D01*
X97704Y76378D01*
X97697Y76397D01*
X97696Y76397D01*
X97689Y76398D01*
X97677Y76415D01*
X97664Y76437D01*
X97658Y76453D01*
X97651Y76469D01*
X97643Y76500D01*
X97643Y76500D01*
X97643Y76501D01*
X97636Y76529D01*
X97637Y76579D01*
X97637D01*
X97629Y76625D01*
X97627Y76636D01*
Y76701D01*
X97674Y76711D01*
X97677Y76710D01*
D02*
G37*
%LPC*%
G36*
X107565Y83209D02*
X107518D01*
X107474Y83191D01*
X107441Y83158D01*
X107423Y83114D01*
Y83067D01*
X107441Y83024D01*
X107474Y82991D01*
X107518Y82973D01*
X107565D01*
X107608Y82991D01*
X107641Y83024D01*
X107659Y83067D01*
Y83114D01*
X107641Y83158D01*
X107608Y83191D01*
X107565Y83209D01*
D02*
G37*
G36*
X98785Y82973D02*
X98731D01*
X98680Y82952D01*
X98679Y82951D01*
X98679Y82952D01*
X98628Y82973D01*
X98573D01*
X98523Y82952D01*
X98522Y82951D01*
X98521Y82952D01*
X98471Y82973D01*
X98416D01*
X98365Y82952D01*
X98326Y82913D01*
X98305Y82862D01*
Y82807D01*
X98326Y82757D01*
X98327Y82756D01*
X98326Y82755D01*
X98305Y82705D01*
Y82650D01*
X98326Y82599D01*
X98327Y82599D01*
X98326Y82598D01*
X98305Y82547D01*
Y82492D01*
X98326Y82442D01*
X98327Y82441D01*
X98326Y82440D01*
X98305Y82390D01*
Y82335D01*
X98326Y82284D01*
X98365Y82246D01*
X98416Y82225D01*
X98471D01*
X98521Y82246D01*
X98522Y82246D01*
X98523Y82246D01*
X98573Y82225D01*
X98628D01*
X98679Y82246D01*
X98679Y82246D01*
X98680Y82246D01*
X98731Y82225D01*
X98785D01*
X98836Y82246D01*
X98875Y82284D01*
X98883Y82303D01*
X98923D01*
X98974Y82324D01*
X98975Y82325D01*
X98975Y82324D01*
X99026Y82303D01*
X99081D01*
X99131Y82324D01*
X99132Y82325D01*
X99133Y82324D01*
X99183Y82303D01*
X99238D01*
X99289Y82324D01*
X99290Y82325D01*
X99290Y82324D01*
X99341Y82303D01*
X99367D01*
X99388Y82253D01*
X99290Y82156D01*
X99259Y82187D01*
X99208Y82208D01*
X99154D01*
X99103Y82187D01*
X99064Y82149D01*
X99062Y82142D01*
X99043Y82150D01*
X98988D01*
X98937Y82129D01*
X98898Y82090D01*
X98877Y82040D01*
Y81985D01*
X98898Y81934D01*
X98937Y81896D01*
X98988Y81875D01*
X99043D01*
X99093Y81896D01*
X99132Y81934D01*
X99135Y81941D01*
X99154Y81933D01*
X99208D01*
X99235Y81944D01*
X99236Y81941D01*
X99245Y81932D01*
X99253Y81920D01*
X99265Y81912D01*
X99274Y81903D01*
X99287Y81897D01*
X99299Y81890D01*
X99312Y81887D01*
X99325Y81882D01*
X99339D01*
X99352Y81879D01*
X99366Y81882D01*
X99380D01*
X99393Y81887D01*
X99406Y81890D01*
X99418Y81897D01*
X99430Y81903D01*
X99440Y81912D01*
X99452Y81920D01*
X100137Y82606D01*
X104100D01*
X104563Y82143D01*
Y80739D01*
X104574Y80685D01*
X104604Y80639D01*
X104729Y80515D01*
X104734Y80503D01*
X104744Y80493D01*
X104751Y80482D01*
X104763Y80474D01*
X104773Y80464D01*
X104785Y80459D01*
X104797Y80451D01*
X104810Y80448D01*
X104823Y80443D01*
X104837D01*
X104851Y80440D01*
X104864Y80443D01*
X104878D01*
X104891Y80448D01*
X104904Y80451D01*
X104916Y80459D01*
X104929Y80464D01*
X104938Y80474D01*
X104950Y80482D01*
X104958Y80493D01*
X104967Y80503D01*
X104973Y80516D01*
X104980Y80527D01*
X104983Y80541D01*
X104988Y80554D01*
Y80567D01*
X104991Y80581D01*
Y80592D01*
X104988Y80605D01*
Y80608D01*
X104987Y80611D01*
X104980Y80645D01*
X104950Y80691D01*
X104844Y80797D01*
Y82061D01*
X105260D01*
X105298Y82036D01*
X105351Y82025D01*
X106512D01*
X106534Y81992D01*
Y81945D01*
X106552Y81902D01*
X106585Y81869D01*
X106628Y81851D01*
X106675D01*
X106681Y81847D01*
Y81807D01*
X106699Y81764D01*
X106733Y81731D01*
X106776Y81713D01*
X106823D01*
X106866Y81731D01*
X106900Y81764D01*
X106918Y81807D01*
Y81847D01*
X106938Y81862D01*
X106964Y81871D01*
X107795Y81040D01*
X107807Y81032D01*
X107809Y81030D01*
X107812Y81029D01*
X107841Y81009D01*
X107895Y80999D01*
X108075D01*
X108362Y80712D01*
Y80678D01*
X108156Y80473D01*
X108106D01*
X108052Y80462D01*
X108024Y80443D01*
X108021Y80442D01*
X108018Y80440D01*
X108007Y80432D01*
X107999Y80424D01*
X107992Y80413D01*
X107982Y80403D01*
X107977Y80390D01*
X107969Y80379D01*
X107966Y80365D01*
X107961Y80352D01*
Y80339D01*
X107958Y80325D01*
X107961Y80311D01*
Y80298D01*
X107966Y80285D01*
X107969Y80271D01*
X107977Y80260D01*
X107982Y80247D01*
X107992Y80237D01*
X107999Y80226D01*
X108011Y80218D01*
X108021Y80208D01*
X108033Y80203D01*
X108045Y80195D01*
X108058Y80192D01*
X108071Y80187D01*
X108085D01*
X108099Y80184D01*
X108112Y80187D01*
X108126D01*
X108138Y80192D01*
X108214D01*
X108268Y80203D01*
X108312Y80232D01*
X108334Y80227D01*
X108362Y80216D01*
Y80207D01*
X108372Y80153D01*
X108403Y80108D01*
X108915Y79596D01*
X108926Y79588D01*
X108936Y79578D01*
X108949Y79573D01*
X108960Y79565D01*
X108974Y79563D01*
X108987Y79557D01*
X109000D01*
X109014Y79555D01*
X109028Y79557D01*
X109041D01*
X109054Y79563D01*
X109068Y79565D01*
X109079Y79573D01*
X109092Y79578D01*
X109102Y79588D01*
X109113Y79596D01*
X109121Y79607D01*
X109131Y79617D01*
X109136Y79630D01*
X109144Y79641D01*
X109146Y79655D01*
X109152Y79668D01*
Y79682D01*
X109154Y79695D01*
X109152Y79709D01*
Y79722D01*
X109146Y79735D01*
X109144Y79749D01*
X109136Y79760D01*
X109131Y79773D01*
X109121Y79783D01*
X109113Y79794D01*
X109022Y79886D01*
X109034Y79945D01*
X109053Y79952D01*
X109091Y79991D01*
X109112Y80042D01*
Y80097D01*
X109091Y80147D01*
X109053Y80186D01*
X109002Y80207D01*
X108947D01*
X108897Y80186D01*
X108858Y80147D01*
X108850Y80128D01*
X108791Y80117D01*
X108643Y80265D01*
Y80771D01*
X108632Y80824D01*
X108602Y80870D01*
X108233Y81238D01*
X108187Y81269D01*
X108134Y81280D01*
X107953D01*
X106968Y82265D01*
X106922Y82295D01*
X106868Y82306D01*
X105599D01*
X105566Y82356D01*
X105569Y82365D01*
Y82419D01*
X105548Y82470D01*
X105509Y82509D01*
X105459Y82530D01*
X105404D01*
X105353Y82509D01*
X105314Y82470D01*
X105294Y82419D01*
Y82365D01*
X105278Y82342D01*
X104762D01*
X104258Y82846D01*
X104212Y82876D01*
X104159Y82887D01*
X100079D01*
X100025Y82876D01*
X99980Y82846D01*
X99556Y82422D01*
X99506Y82443D01*
Y82469D01*
X99485Y82519D01*
X99484Y82520D01*
X99485Y82521D01*
X99506Y82571D01*
Y82626D01*
X99485Y82677D01*
X99484Y82677D01*
X99485Y82678D01*
X99506Y82729D01*
Y82784D01*
X99485Y82834D01*
X99446Y82873D01*
X99396Y82894D01*
X99341D01*
X99290Y82873D01*
X99290Y82872D01*
X99289Y82873D01*
X99238Y82894D01*
X99183D01*
X99133Y82873D01*
X99132Y82872D01*
X99131Y82873D01*
X99081Y82894D01*
X99026D01*
X98975Y82873D01*
X98975Y82872D01*
X98974Y82873D01*
X98923Y82894D01*
X98883D01*
X98875Y82913D01*
X98836Y82952D01*
X98785Y82973D01*
D02*
G37*
G36*
X109219Y82770D02*
X109164D01*
X109113Y82749D01*
X109074Y82710D01*
X109053Y82659D01*
Y82604D01*
X109074Y82554D01*
X109113Y82515D01*
X109164Y82494D01*
X109219D01*
X109269Y82515D01*
X109308Y82554D01*
X109329Y82604D01*
Y82659D01*
X109308Y82710D01*
X109269Y82749D01*
X109219Y82770D01*
D02*
G37*
G36*
X100222Y82490D02*
X100168D01*
X100117Y82469D01*
X100078Y82431D01*
X100057Y82380D01*
Y82325D01*
X100078Y82275D01*
X100117Y82236D01*
X100168Y82215D01*
X100222D01*
X100273Y82236D01*
X100312Y82275D01*
X100333Y82325D01*
Y82380D01*
X100312Y82431D01*
X100273Y82469D01*
X100222Y82490D01*
D02*
G37*
G36*
X107239Y82403D02*
X107192D01*
X107149Y82385D01*
X107116Y82351D01*
X107098Y82308D01*
Y82261D01*
X107116Y82218D01*
X107149Y82184D01*
X107192Y82166D01*
X107239D01*
X107283Y82184D01*
X107316Y82218D01*
X107334Y82261D01*
Y82308D01*
X107316Y82351D01*
X107283Y82385D01*
X107239Y82403D01*
D02*
G37*
G36*
X109209Y82323D02*
X109154D01*
X109103Y82302D01*
X109064Y82263D01*
X109044Y82213D01*
Y82158D01*
X109064Y82107D01*
X109103Y82068D01*
X109154Y82047D01*
X109209D01*
X109259Y82068D01*
X109298Y82107D01*
X109319Y82158D01*
Y82213D01*
X109298Y82263D01*
X109259Y82302D01*
X109209Y82323D01*
D02*
G37*
G36*
X99912Y82170D02*
X99857D01*
X99807Y82149D01*
X99768Y82111D01*
X99747Y82060D01*
Y82005D01*
X99768Y81954D01*
X99807Y81916D01*
X99857Y81895D01*
X99912D01*
X99963Y81916D01*
X100002Y81954D01*
X100023Y82005D01*
Y82060D01*
X100002Y82111D01*
X99963Y82149D01*
X99912Y82170D01*
D02*
G37*
G36*
X102827Y81084D02*
X102780D01*
X102736Y81066D01*
X102703Y81032D01*
X102685Y80989D01*
Y80942D01*
X102703Y80899D01*
X102736Y80865D01*
X102780Y80847D01*
X102827D01*
X102870Y80865D01*
X102903Y80899D01*
X102921Y80942D01*
Y80989D01*
X102903Y81032D01*
X102870Y81066D01*
X102827Y81084D01*
D02*
G37*
G36*
X100666Y81064D02*
X100611D01*
X100561Y81043D01*
X100522Y81004D01*
X100501Y80954D01*
Y80899D01*
X100522Y80848D01*
X100561Y80809D01*
X100611Y80788D01*
X100666D01*
X100717Y80809D01*
X100756Y80848D01*
X100777Y80899D01*
Y80954D01*
X100756Y81004D01*
X100717Y81043D01*
X100666Y81064D01*
D02*
G37*
G36*
X103855Y80846D02*
X103800D01*
X103749Y80825D01*
X103711Y80787D01*
X103687Y80797D01*
X103632D01*
X103582Y80776D01*
X103543Y80738D01*
X103522Y80687D01*
Y80632D01*
X103531Y80609D01*
X103494Y80594D01*
X103455Y80555D01*
X103434Y80504D01*
Y80449D01*
X103455Y80399D01*
X103494Y80360D01*
X103544Y80339D01*
X103562D01*
Y80336D01*
X103583Y80285D01*
X103622Y80246D01*
X103673Y80225D01*
X103682D01*
Y80210D01*
X103703Y80160D01*
X103742Y80121D01*
X103788Y80102D01*
X103778Y80077D01*
Y80028D01*
X103761Y80015D01*
X103732Y80004D01*
X103327Y80409D01*
X103284Y80437D01*
X103234Y80447D01*
X102950D01*
X102917Y80497D01*
X102921Y80508D01*
Y80555D01*
X102903Y80599D01*
X102870Y80632D01*
X102827Y80650D01*
X102780D01*
X102736Y80632D01*
X102703Y80599D01*
X102685Y80555D01*
Y80508D01*
X102690Y80497D01*
X102656Y80447D01*
X100961D01*
X100771Y80637D01*
X100765Y80653D01*
X100726Y80692D01*
X100675Y80713D01*
X100620D01*
X100570Y80692D01*
X100531Y80653D01*
X100510Y80602D01*
Y80548D01*
X100531Y80497D01*
X100570Y80458D01*
X100586Y80452D01*
X100814Y80223D01*
X100857Y80195D01*
X100907Y80185D01*
X102456D01*
X102479Y80152D01*
Y80105D01*
X102497Y80061D01*
X102530Y80028D01*
X102573Y80010D01*
X102620D01*
X102664Y80028D01*
X102697Y80061D01*
X102715Y80105D01*
Y80152D01*
X102737Y80185D01*
X103179D01*
X103329Y80036D01*
X103320Y79973D01*
X103306Y79965D01*
X103293Y79971D01*
X103239D01*
X103188Y79950D01*
X103187Y79949D01*
X103187Y79950D01*
X103136Y79971D01*
X103081D01*
X103030Y79950D01*
X102992Y79911D01*
X102971Y79860D01*
Y79805D01*
X102992Y79755D01*
X102992Y79754D01*
X102992Y79753D01*
X102971Y79703D01*
Y79648D01*
X102992Y79597D01*
X102992Y79597D01*
X102992Y79596D01*
X102971Y79545D01*
Y79491D01*
X102992Y79440D01*
X102992Y79439D01*
X102992Y79438D01*
X102971Y79388D01*
Y79333D01*
X102992Y79282D01*
X102992Y79282D01*
X102992Y79281D01*
X102971Y79230D01*
Y79176D01*
X102992Y79125D01*
X102992Y79124D01*
X102992Y79124D01*
X102971Y79073D01*
Y79018D01*
X102992Y78967D01*
X102992Y78967D01*
X102992Y78966D01*
X102971Y78915D01*
Y78861D01*
X102992Y78810D01*
X103030Y78771D01*
X103081Y78750D01*
X103136D01*
X103187Y78771D01*
X103187Y78772D01*
X103188Y78771D01*
X103239Y78750D01*
X103293D01*
X103344Y78771D01*
X103345Y78772D01*
X103345Y78771D01*
X103396Y78750D01*
X103451D01*
X103501Y78771D01*
X103502Y78772D01*
X103503Y78771D01*
X103553Y78750D01*
X103608D01*
X103659Y78771D01*
X103660Y78772D01*
X103660Y78771D01*
X103711Y78750D01*
X103766D01*
X103816Y78771D01*
X103817Y78772D01*
X103818Y78771D01*
X103868Y78750D01*
X103923D01*
X103974Y78771D01*
X104013Y78810D01*
X104034Y78861D01*
Y78915D01*
X104013Y78966D01*
X104012Y78967D01*
X104013Y78967D01*
X104034Y79018D01*
Y79073D01*
X104013Y79124D01*
X104012Y79124D01*
X104013Y79125D01*
X104034Y79176D01*
Y79230D01*
X104013Y79281D01*
X103974Y79320D01*
X103923Y79341D01*
X103876D01*
Y79388D01*
X103855Y79438D01*
X103891Y79474D01*
X103933Y79445D01*
X103983Y79435D01*
X104676D01*
X104684Y79437D01*
X107335D01*
X107632Y79140D01*
X107674Y79111D01*
X107725Y79101D01*
X107775Y79111D01*
X107817Y79140D01*
X107846Y79182D01*
X107856Y79232D01*
X107846Y79283D01*
X107817Y79325D01*
X107687Y79456D01*
X107699Y79515D01*
X107703Y79516D01*
X107736Y79549D01*
X107754Y79593D01*
Y79640D01*
X107736Y79683D01*
X107703Y79716D01*
X107660Y79734D01*
X107613D01*
X107569Y79716D01*
X107536Y79683D01*
X107534Y79679D01*
X107504Y79668D01*
X107475Y79666D01*
X107439Y79689D01*
X107389Y79699D01*
X104677D01*
X104669Y79698D01*
X104439D01*
X104411Y79739D01*
X104414Y79746D01*
Y79801D01*
X104393Y79852D01*
X104354Y79891D01*
X104349Y79893D01*
X104337Y79952D01*
X104337Y79952D01*
X104358Y80002D01*
Y80057D01*
X104337Y80108D01*
X104299Y80147D01*
X104303Y80199D01*
X104319Y80239D01*
Y80293D01*
X104298Y80344D01*
X104259Y80383D01*
X104209Y80404D01*
X104159D01*
Y80455D01*
X104138Y80506D01*
X104099Y80544D01*
X104061Y80560D01*
Y80594D01*
X104040Y80644D01*
X104001Y80683D01*
X103965Y80698D01*
Y80736D01*
X103944Y80786D01*
X103905Y80825D01*
X103855Y80846D01*
D02*
G37*
G36*
X107758Y80935D02*
X107711D01*
X107668Y80917D01*
X107634Y80884D01*
X107616Y80841D01*
Y80794D01*
X107634Y80750D01*
X107668Y80717D01*
X107656Y80668D01*
X107654Y80666D01*
X107636Y80623D01*
Y80576D01*
X107654Y80532D01*
X107687Y80499D01*
X107731Y80481D01*
X107778D01*
X107821Y80499D01*
X107854Y80532D01*
X107872Y80576D01*
Y80623D01*
X107854Y80666D01*
X107821Y80699D01*
X107833Y80749D01*
X107835Y80750D01*
X107853Y80794D01*
Y80841D01*
X107835Y80884D01*
X107801Y80917D01*
X107758Y80935D01*
D02*
G37*
G36*
X107748Y80180D02*
X107701D01*
X107658Y80162D01*
X107624Y80128D01*
X107606Y80085D01*
Y80038D01*
X107624Y79995D01*
X107658Y79961D01*
X107701Y79943D01*
X107748D01*
X107792Y79961D01*
X107825Y79995D01*
X107843Y80038D01*
Y80085D01*
X107825Y80128D01*
X107792Y80162D01*
X107748Y80180D01*
D02*
G37*
G36*
X99077Y80175D02*
X99030D01*
X98986Y80157D01*
X98953Y80124D01*
X98935Y80080D01*
Y80033D01*
X98953Y79990D01*
X98986Y79957D01*
X99030Y79939D01*
X99077D01*
X99120Y79957D01*
X99153Y79990D01*
X99171Y80033D01*
Y80080D01*
X99153Y80124D01*
X99120Y80157D01*
X99077Y80175D01*
D02*
G37*
G36*
X98520Y80197D02*
X98465D01*
X98414Y80176D01*
X98376Y80137D01*
X98355Y80087D01*
Y80032D01*
X98376Y79981D01*
X98414Y79942D01*
X98465Y79921D01*
X98520D01*
X98570Y79942D01*
X98609Y79981D01*
X98630Y80032D01*
Y80087D01*
X98609Y80137D01*
X98570Y80176D01*
X98520Y80197D01*
D02*
G37*
G36*
X105583Y80158D02*
X105536D01*
X105492Y80140D01*
X105459Y80106D01*
X105441Y80063D01*
Y80016D01*
X105459Y79973D01*
X105492Y79939D01*
X105536Y79921D01*
X105583D01*
X105626Y79939D01*
X105659Y79973D01*
X105676Y80012D01*
X105677Y80016D01*
X105724Y80009D01*
X105724Y80008D01*
X105742Y79965D01*
X105776Y79932D01*
X105819Y79914D01*
X105866D01*
X105909Y79932D01*
X105943Y79965D01*
X105961Y80008D01*
Y80055D01*
X105943Y80099D01*
X105909Y80132D01*
X105866Y80150D01*
X105819D01*
X105776Y80132D01*
X105742Y80099D01*
X105726Y80059D01*
X105724Y80055D01*
X105677Y80063D01*
X105677Y80063D01*
X105659Y80106D01*
X105626Y80140D01*
X105583Y80158D01*
D02*
G37*
G36*
X108122Y79341D02*
X108075D01*
X108032Y79323D01*
X107998Y79290D01*
X107981Y79246D01*
Y79199D01*
X107998Y79156D01*
X108032Y79123D01*
X108075Y79105D01*
X108122D01*
X108166Y79123D01*
X108199Y79156D01*
X108217Y79199D01*
Y79246D01*
X108199Y79290D01*
X108166Y79323D01*
X108122Y79341D01*
D02*
G37*
G36*
X102693Y79075D02*
X102638D01*
X102587Y79054D01*
X102587Y79053D01*
X102586Y79054D01*
X102535Y79075D01*
X102481D01*
X102430Y79054D01*
X102429Y79053D01*
X102429Y79054D01*
X102378Y79075D01*
X102323D01*
X102273Y79054D01*
X102272Y79053D01*
X102271Y79054D01*
X102221Y79075D01*
X102166D01*
X102115Y79054D01*
X102114Y79053D01*
X102114Y79054D01*
X102063Y79075D01*
X102008D01*
X101958Y79054D01*
X101957Y79053D01*
X101956Y79054D01*
X101906Y79075D01*
X101851D01*
X101800Y79054D01*
X101761Y79015D01*
X101740Y78965D01*
Y78910D01*
X101761Y78859D01*
X101762Y78858D01*
X101761Y78858D01*
X101740Y78807D01*
Y78752D01*
X101761Y78702D01*
X101762Y78701D01*
X101761Y78700D01*
X101740Y78650D01*
Y78595D01*
X101761Y78544D01*
X101762Y78544D01*
X101761Y78543D01*
X101740Y78492D01*
Y78437D01*
X101761Y78387D01*
X101762Y78386D01*
X101761Y78385D01*
X101740Y78335D01*
Y78280D01*
X101761Y78229D01*
X101800Y78190D01*
X101851Y78169D01*
X101906D01*
X101956Y78190D01*
X101957Y78191D01*
X101958Y78190D01*
X102008Y78169D01*
X102063D01*
X102114Y78190D01*
X102114Y78191D01*
X102115Y78190D01*
X102166Y78169D01*
X102221D01*
X102271Y78190D01*
X102272Y78191D01*
X102273Y78190D01*
X102323Y78169D01*
X102378D01*
X102429Y78190D01*
X102429Y78191D01*
X102430Y78190D01*
X102481Y78169D01*
X102535D01*
X102586Y78190D01*
X102587Y78191D01*
X102587Y78190D01*
X102638Y78169D01*
X102693D01*
X102744Y78190D01*
X102782Y78229D01*
X102803Y78280D01*
Y78335D01*
X102782Y78385D01*
X102782Y78386D01*
X102782Y78387D01*
X102803Y78437D01*
Y78492D01*
X102782Y78543D01*
X102782Y78544D01*
X102782Y78544D01*
X102803Y78595D01*
Y78650D01*
X102782Y78700D01*
X102782Y78701D01*
X102782Y78702D01*
X102803Y78752D01*
Y78807D01*
X102782Y78858D01*
X102782Y78858D01*
X102782Y78859D01*
X102803Y78910D01*
Y78965D01*
X102782Y79015D01*
X102744Y79054D01*
X102693Y79075D01*
D02*
G37*
G36*
X100852D02*
X100798D01*
X100747Y79054D01*
X100746Y79053D01*
X100746Y79054D01*
X100695Y79075D01*
X100640D01*
X100589Y79054D01*
X100589Y79053D01*
X100588Y79054D01*
X100537Y79075D01*
X100483D01*
X100432Y79054D01*
X100431Y79053D01*
X100431Y79054D01*
X100380Y79075D01*
X100325D01*
X100274Y79054D01*
X100274Y79053D01*
X100273Y79054D01*
X100222Y79075D01*
X100168D01*
X100117Y79054D01*
X100116Y79053D01*
X100116Y79054D01*
X100065Y79075D01*
X100010D01*
X99960Y79054D01*
X99921Y79015D01*
X99900Y78965D01*
Y78910D01*
X99921Y78859D01*
X99921Y78858D01*
X99921Y78858D01*
X99900Y78807D01*
Y78752D01*
X99921Y78702D01*
X99921Y78701D01*
X99921Y78700D01*
X99900Y78650D01*
Y78595D01*
X99921Y78544D01*
X99921Y78544D01*
X99921Y78543D01*
X99900Y78492D01*
Y78437D01*
X99921Y78387D01*
X99921Y78386D01*
X99921Y78385D01*
X99900Y78335D01*
Y78280D01*
X99921Y78229D01*
X99960Y78190D01*
X100010Y78169D01*
X100065D01*
X100116Y78190D01*
X100116Y78191D01*
X100117Y78190D01*
X100168Y78169D01*
X100222D01*
X100273Y78190D01*
X100274Y78191D01*
X100274Y78190D01*
X100325Y78169D01*
X100380D01*
X100431Y78190D01*
X100431Y78191D01*
X100432Y78190D01*
X100483Y78169D01*
X100537D01*
X100588Y78190D01*
X100589Y78191D01*
X100589Y78190D01*
X100640Y78169D01*
X100695D01*
X100746Y78190D01*
X100746Y78191D01*
X100747Y78190D01*
X100798Y78169D01*
X100852D01*
X100903Y78190D01*
X100942Y78229D01*
X100963Y78280D01*
Y78335D01*
X100942Y78385D01*
X100941Y78386D01*
X100942Y78387D01*
X100963Y78437D01*
Y78492D01*
X100942Y78543D01*
X100941Y78544D01*
X100942Y78544D01*
X100963Y78595D01*
Y78650D01*
X100942Y78700D01*
X100941Y78701D01*
X100942Y78702D01*
X100963Y78752D01*
Y78807D01*
X100942Y78858D01*
X100941Y78858D01*
X100942Y78859D01*
X100963Y78910D01*
Y78965D01*
X100942Y79015D01*
X100903Y79054D01*
X100852Y79075D01*
D02*
G37*
G36*
X101439Y79085D02*
X101392D01*
X101349Y79067D01*
X101315Y79034D01*
X101297Y78990D01*
Y78943D01*
X101315Y78900D01*
X101349Y78867D01*
X101392Y78849D01*
X101439D01*
X101482Y78867D01*
X101516Y78900D01*
X101534Y78943D01*
Y78990D01*
X101516Y79034D01*
X101482Y79067D01*
X101439Y79085D01*
D02*
G37*
G36*
X109264Y78957D02*
X109217D01*
X109173Y78939D01*
X109140Y78906D01*
X109122Y78862D01*
Y78815D01*
X109140Y78772D01*
X109173Y78739D01*
X109217Y78721D01*
X109264D01*
X109307Y78739D01*
X109340Y78772D01*
X109358Y78815D01*
Y78862D01*
X109340Y78906D01*
X109307Y78939D01*
X109264Y78957D01*
D02*
G37*
G36*
X101311Y78435D02*
X101264D01*
X101221Y78417D01*
X101187Y78384D01*
X101169Y78341D01*
Y78294D01*
X101187Y78250D01*
X101221Y78217D01*
X101264Y78199D01*
X101311D01*
X101355Y78217D01*
X101388Y78250D01*
X101406Y78294D01*
Y78341D01*
X101388Y78384D01*
X101355Y78417D01*
X101311Y78435D01*
D02*
G37*
G36*
X100872Y78061D02*
X100817D01*
X100767Y78040D01*
X100749Y78023D01*
X100717Y78007D01*
X100684Y78023D01*
X100667Y78040D01*
X100616Y78061D01*
X100561D01*
X100511Y78040D01*
X100493Y78023D01*
X100461Y78007D01*
X100428Y78023D01*
X100411Y78040D01*
X100360Y78061D01*
X100305D01*
X100255Y78040D01*
X100216Y78001D01*
X100195Y77951D01*
Y77896D01*
X100216Y77845D01*
X100255Y77807D01*
X100305Y77786D01*
X100360D01*
X100411Y77807D01*
X100428Y77824D01*
X100461Y77840D01*
X100493Y77824D01*
X100511Y77807D01*
X100561Y77786D01*
X100616D01*
X100667Y77807D01*
X100684Y77824D01*
X100717Y77840D01*
X100749Y77824D01*
X100767Y77807D01*
X100817Y77786D01*
X100872D01*
X100923Y77807D01*
X100962Y77845D01*
X100982Y77896D01*
Y77951D01*
X100962Y78001D01*
X100923Y78040D01*
X100872Y78061D01*
D02*
G37*
G36*
X102683Y78051D02*
X102628D01*
X102578Y78030D01*
X102560Y78013D01*
X102528Y77997D01*
X102495Y78013D01*
X102478Y78030D01*
X102427Y78051D01*
X102372D01*
X102322Y78030D01*
X102305Y78013D01*
X102272Y77997D01*
X102239Y78013D01*
X102222Y78030D01*
X102171Y78051D01*
X102116D01*
X102066Y78030D01*
X102027Y77992D01*
X102006Y77941D01*
Y77886D01*
X102027Y77836D01*
X102066Y77797D01*
X102116Y77776D01*
X102171D01*
X102222Y77797D01*
X102239Y77814D01*
X102272Y77830D01*
X102305Y77814D01*
X102322Y77797D01*
X102372Y77776D01*
X102427D01*
X102478Y77797D01*
X102495Y77814D01*
X102528Y77830D01*
X102560Y77814D01*
X102578Y77797D01*
X102628Y77776D01*
X102683D01*
X102734Y77797D01*
X102773Y77836D01*
X102794Y77886D01*
Y77941D01*
X102773Y77992D01*
X102734Y78030D01*
X102683Y78051D01*
D02*
G37*
G36*
X101213Y78150D02*
X101166D01*
X101122Y78132D01*
X101089Y78099D01*
X101071Y78055D01*
Y78008D01*
X101089Y77965D01*
X101122Y77932D01*
X101166Y77914D01*
X101213D01*
X101256Y77932D01*
X101289Y77965D01*
X101307Y78008D01*
Y78055D01*
X101289Y78099D01*
X101256Y78132D01*
X101213Y78150D01*
D02*
G37*
G36*
X104396Y77648D02*
X104341D01*
X104290Y77627D01*
X104290Y77626D01*
X104289Y77627D01*
X104238Y77648D01*
X104183D01*
X104133Y77627D01*
X104132Y77626D01*
X104131Y77627D01*
X104081Y77648D01*
X104026D01*
X103975Y77627D01*
X103975Y77626D01*
X103974Y77627D01*
X103923Y77648D01*
X103868D01*
X103818Y77627D01*
X103817Y77626D01*
X103816Y77627D01*
X103766Y77648D01*
X103711D01*
X103660Y77627D01*
X103660Y77626D01*
X103659Y77627D01*
X103608Y77648D01*
X103553D01*
X103503Y77627D01*
X103502Y77626D01*
X103501Y77627D01*
X103451Y77648D01*
X103396D01*
X103345Y77627D01*
X103345Y77626D01*
X103344Y77627D01*
X103293Y77648D01*
X103239D01*
X103188Y77627D01*
X103187Y77626D01*
X103187Y77627D01*
X103136Y77648D01*
X103081D01*
X103030Y77627D01*
X102992Y77588D01*
X102971Y77537D01*
Y77483D01*
X102992Y77432D01*
X102992Y77431D01*
X102992Y77431D01*
X102971Y77380D01*
Y77325D01*
X102992Y77274D01*
X102992Y77274D01*
X102992Y77273D01*
X102971Y77222D01*
Y77168D01*
X102992Y77117D01*
X102992Y77116D01*
X102992Y77116D01*
X102971Y77065D01*
Y77010D01*
X102992Y76960D01*
X103030Y76921D01*
X103081Y76900D01*
X103136D01*
X103187Y76921D01*
X103187Y76921D01*
X103188Y76921D01*
X103239Y76900D01*
X103293D01*
X103344Y76921D01*
X103345Y76921D01*
X103345Y76921D01*
X103396Y76900D01*
X103451D01*
X103501Y76921D01*
X103502Y76921D01*
X103503Y76921D01*
X103553Y76900D01*
X103608D01*
X103659Y76921D01*
X103660Y76921D01*
X103660Y76921D01*
X103711Y76900D01*
X103766D01*
X103816Y76921D01*
X103817Y76921D01*
X103818Y76921D01*
X103868Y76900D01*
X103923D01*
X103974Y76921D01*
X103975Y76921D01*
X103975Y76921D01*
X104026Y76900D01*
X104081D01*
X104131Y76921D01*
X104132Y76921D01*
X104133Y76921D01*
X104183Y76900D01*
X104238D01*
X104289Y76921D01*
X104290Y76921D01*
X104290Y76921D01*
X104341Y76900D01*
X104396D01*
X104446Y76921D01*
X104485Y76960D01*
X104506Y77010D01*
Y77065D01*
X104485Y77116D01*
X104484Y77116D01*
X104485Y77117D01*
X104506Y77168D01*
Y77222D01*
X104485Y77273D01*
X104484Y77274D01*
X104485Y77274D01*
X104506Y77325D01*
Y77380D01*
X104485Y77431D01*
X104484Y77431D01*
X104485Y77432D01*
X104506Y77483D01*
Y77537D01*
X104485Y77588D01*
X104446Y77627D01*
X104396Y77648D01*
D02*
G37*
%LPD*%
G36*
X104016Y79803D02*
X104071D01*
X104092Y79812D01*
X104094Y79812D01*
X104138Y79777D01*
Y79746D01*
X104141Y79739D01*
X104114Y79698D01*
X104038D01*
X103965Y79770D01*
X103993Y79813D01*
X104016Y79803D01*
D02*
G37*
G36*
X103851Y79513D02*
X103816Y79477D01*
X103766Y79498D01*
X103719D01*
Y79545D01*
X103714Y79558D01*
X103721Y79572D01*
X103784Y79581D01*
X103851Y79513D01*
D02*
G37*
D67*
X103234Y80316D02*
X103983Y79566D01*
X107389Y79568D02*
X107725Y79232D01*
X104677Y79568D02*
X107389D01*
X104676Y79566D02*
X104677Y79568D01*
X103983Y79566D02*
X104676D01*
X100648Y80575D02*
X100907Y80316D01*
X103234D01*
D68*
X108502Y80207D02*
X109014Y79695D01*
X108502Y80207D02*
Y80620D01*
X108214Y80333D02*
X108502Y80620D01*
X108099Y80325D02*
X108106Y80333D01*
X108214D01*
X107887Y81147D02*
X107895Y81139D01*
X108134D01*
X108502Y80771D01*
Y80620D02*
Y80771D01*
X106868Y82166D02*
X107887Y81147D01*
X105351Y82166D02*
X106868D01*
X105316Y82201D02*
X105351Y82166D01*
X104703Y82201D02*
X105316D01*
X104703Y80739D02*
X104851Y80592D01*
X104703Y80739D02*
Y82201D01*
X104851Y80581D02*
Y80592D01*
X99352Y82019D02*
X100079Y82746D01*
X104159D01*
X104703Y82201D01*
D73*
X104969Y79006D02*
D03*
X105284Y79360D02*
D03*
X104732Y79784D02*
D03*
X109240Y78392D02*
D03*
X103388Y83258D02*
D03*
X105628Y83140D02*
D03*
X105431D02*
D03*
X105234D02*
D03*
X105038D02*
D03*
X104841D02*
D03*
X104644D02*
D03*
X104447D02*
D03*
X104224Y83130D02*
D03*
X108778Y81132D02*
D03*
X106949Y80952D02*
D03*
X106831Y81071D02*
D03*
X106595D02*
D03*
Y81307D02*
D03*
X106713Y80952D02*
D03*
X106713Y81189D02*
D03*
X106477Y81189D02*
D03*
X101140Y82392D02*
D03*
X101455D02*
D03*
X101612D02*
D03*
X102085D02*
D03*
X101927D02*
D03*
X102242D02*
D03*
X101770D02*
D03*
X101297D02*
D03*
X99352Y82019D02*
D03*
X104703Y82201D02*
D03*
X106240Y80008D02*
D03*
X106477Y80008D02*
D03*
X106359Y80126D02*
D03*
X99526Y81486D02*
D03*
Y81290D02*
D03*
X99605Y81093D02*
D03*
X99801Y81368D02*
D03*
X99919Y80975D02*
D03*
X108030Y81880D02*
D03*
X108187D02*
D03*
X108345D02*
D03*
X108935Y81250D02*
D03*
X108778Y81368D02*
D03*
X108935Y81486D02*
D03*
X108778Y81605D02*
D03*
X107185Y80716D02*
D03*
X107067Y80598D02*
D03*
X106949Y80480D02*
D03*
X106831Y80362D02*
D03*
X106713Y80244D02*
D03*
X106595Y80126D02*
D03*
X107067Y80834D02*
D03*
X106949Y80716D02*
D03*
X106831Y80598D02*
D03*
X106713Y80480D02*
D03*
X106595Y80362D02*
D03*
X106477Y80244D02*
D03*
X106831Y80834D02*
D03*
X106713Y80716D02*
D03*
X106595Y80598D02*
D03*
X106477Y80480D02*
D03*
X106359Y80362D02*
D03*
X106240Y80244D02*
D03*
X106122Y80126D02*
D03*
X106595Y80834D02*
D03*
X106477Y80716D02*
D03*
X106359Y80598D02*
D03*
X106240Y80480D02*
D03*
X106122Y80362D02*
D03*
X106004Y80244D02*
D03*
X106477Y80952D02*
D03*
X106359Y80834D02*
D03*
X106240Y80716D02*
D03*
X106122Y80598D02*
D03*
X106004Y80480D02*
D03*
X105886Y80362D02*
D03*
X106359Y81071D02*
D03*
X106240Y80952D02*
D03*
X106122Y80834D02*
D03*
X106004Y80716D02*
D03*
X105886Y80598D02*
D03*
X105768Y80480D02*
D03*
X106477Y81425D02*
D03*
X106359Y81307D02*
D03*
X106240Y81189D02*
D03*
X106122Y81071D02*
D03*
X106004Y80952D02*
D03*
X105886Y80834D02*
D03*
X105768Y80716D02*
D03*
X105650Y80598D02*
D03*
X105549Y80738D02*
D03*
X105668Y80857D02*
D03*
X105786Y80975D02*
D03*
X105904Y81093D02*
D03*
X106022Y81211D02*
D03*
X106140Y81329D02*
D03*
X106258Y81447D02*
D03*
X106376Y81565D02*
D03*
X101219Y81290D02*
D03*
X101376D02*
D03*
X101534D02*
D03*
X101691D02*
D03*
X101849D02*
D03*
X102006D02*
D03*
X102164D02*
D03*
X102321D02*
D03*
X101140Y81447D02*
D03*
X101297D02*
D03*
X101455D02*
D03*
X101612D02*
D03*
X101770D02*
D03*
X101927D02*
D03*
X102085D02*
D03*
X102242D02*
D03*
X101179Y81605D02*
D03*
X101337D02*
D03*
X101494D02*
D03*
X101652D02*
D03*
X101809D02*
D03*
X101967D02*
D03*
X102124D02*
D03*
X102282D02*
D03*
X101140Y81762D02*
D03*
X101297D02*
D03*
X101455D02*
D03*
X101612D02*
D03*
X101770D02*
D03*
X101927D02*
D03*
X102085D02*
D03*
X102242D02*
D03*
X101179Y81919D02*
D03*
X101337D02*
D03*
X101494D02*
D03*
X101652D02*
D03*
X101809D02*
D03*
X101967D02*
D03*
X102124D02*
D03*
X102282D02*
D03*
X101140Y82077D02*
D03*
X101297D02*
D03*
X101455D02*
D03*
X101612D02*
D03*
X101770D02*
D03*
X101927D02*
D03*
X102085D02*
D03*
X102242D02*
D03*
X101179Y82234D02*
D03*
X101337D02*
D03*
X101494D02*
D03*
X101652D02*
D03*
X101809D02*
D03*
X101967D02*
D03*
X102124D02*
D03*
X102282D02*
D03*
X108030Y83416D02*
D03*
X108187D02*
D03*
X108817D02*
D03*
X108975D02*
D03*
X108502D02*
D03*
X108660D02*
D03*
X108345D02*
D03*
X107872D02*
D03*
X109139Y83081D02*
D03*
X107081Y83091D02*
D03*
X97794Y78770D02*
D03*
X97951D02*
D03*
X98108D02*
D03*
Y78612D02*
D03*
X97951D02*
D03*
X97794D02*
D03*
X98108Y78455D02*
D03*
X97951D02*
D03*
X97794D02*
D03*
X99368Y83494D02*
D03*
X99211D02*
D03*
X99053D02*
D03*
X98896D02*
D03*
X99368Y83337D02*
D03*
X99211D02*
D03*
X99053D02*
D03*
X98896D02*
D03*
Y83179D02*
D03*
X99053D02*
D03*
X99211D02*
D03*
X99368D02*
D03*
X99742Y80154D02*
D03*
X100648Y80575D02*
D03*
X108817Y79292D02*
D03*
X109014Y79695D02*
D03*
X109024Y79144D02*
D03*
X108099Y80325D02*
D03*
X104487Y80227D02*
D03*
X109329Y78120D02*
D03*
X109181Y78032D02*
D03*
X109339Y77904D02*
D03*
X103108Y78140D02*
D03*
Y78297D02*
D03*
Y78455D02*
D03*
Y78612D02*
D03*
X103581Y78140D02*
D03*
X103423D02*
D03*
X103266D02*
D03*
Y78297D02*
D03*
X103423D02*
D03*
X103266Y78455D02*
D03*
X103423D02*
D03*
X103266Y78612D02*
D03*
X103423D02*
D03*
X103581Y78297D02*
D03*
Y78455D02*
D03*
Y78612D02*
D03*
X103738Y78455D02*
D03*
Y78612D02*
D03*
X103896Y78455D02*
D03*
Y78612D02*
D03*
X108149Y80817D02*
D03*
X107887Y81147D02*
D03*
X104851Y80581D02*
D03*
X105687Y78563D02*
D03*
X105264Y78632D02*
D03*
D74*
X107725Y79232D02*
D03*
M02*
