G04*
G04 #@! TF.GenerationSoftware,Altium Limited,Altium Designer,21.7.2 (23)*
G04*
G04 Layer_Color=255*
%FSLAX25Y25*%
%MOIN*%
G70*
G04*
G04 #@! TF.SameCoordinates,AC889540-4392-436D-8BBA-4FEAA821C39F*
G04*
G04*
G04 #@! TF.FilePolarity,Positive*
G04*
G01*
G75*
%ADD12C,0.00787*%
%ADD14R,0.09646X0.07874*%
%ADD15R,0.01575X0.02165*%
%ADD16R,0.01575X0.01575*%
%ADD17R,0.02362X0.02500*%
%ADD18R,0.02362X0.02756*%
G04:AMPARAMS|DCode=19|XSize=25mil|YSize=23.62mil|CornerRadius=0mil|HoleSize=0mil|Usage=FLASHONLY|Rotation=225.000|XOffset=0mil|YOffset=0mil|HoleType=Round|Shape=Rectangle|*
%AMROTATEDRECTD19*
4,1,4,0.00049,0.01719,0.01719,0.00049,-0.00049,-0.01719,-0.01719,-0.00049,0.00049,0.01719,0.0*
%
%ADD19ROTATEDRECTD19*%

G04:AMPARAMS|DCode=20|XSize=45mil|YSize=59.06mil|CornerRadius=0mil|HoleSize=0mil|Usage=FLASHONLY|Rotation=225.000|XOffset=0mil|YOffset=0mil|HoleType=Round|Shape=Rectangle|*
%AMROTATEDRECTD20*
4,1,4,-0.00497,0.03679,0.03679,-0.00497,0.00497,-0.03679,-0.03679,0.00497,-0.00497,0.03679,0.0*
%
%ADD20ROTATEDRECTD20*%

%ADD21R,0.01654X0.02165*%
%ADD22R,0.05906X0.04500*%
G04:AMPARAMS|DCode=23|XSize=33.47mil|YSize=9.84mil|CornerRadius=0mil|HoleSize=0mil|Usage=FLASHONLY|Rotation=45.000|XOffset=0mil|YOffset=0mil|HoleType=Round|Shape=Rectangle|*
%AMROTATEDRECTD23*
4,1,4,-0.00835,-0.01531,-0.01531,-0.00835,0.00835,0.01531,0.01531,0.00835,-0.00835,-0.01531,0.0*
%
%ADD23ROTATEDRECTD23*%

G04:AMPARAMS|DCode=24|XSize=33.47mil|YSize=9.84mil|CornerRadius=0mil|HoleSize=0mil|Usage=FLASHONLY|Rotation=135.000|XOffset=0mil|YOffset=0mil|HoleType=Round|Shape=Rectangle|*
%AMROTATEDRECTD24*
4,1,4,0.01531,-0.00835,0.00835,-0.01531,-0.01531,0.00835,-0.00835,0.01531,0.01531,-0.00835,0.0*
%
%ADD24ROTATEDRECTD24*%

%ADD25P,0.20044X4X180.0*%
%ADD26R,0.02500X0.02362*%
G04:AMPARAMS|DCode=27|XSize=23.62mil|YSize=19.68mil|CornerRadius=4.92mil|HoleSize=0mil|Usage=FLASHONLY|Rotation=0.000|XOffset=0mil|YOffset=0mil|HoleType=Round|Shape=RoundedRectangle|*
%AMROUNDEDRECTD27*
21,1,0.02362,0.00984,0,0,0.0*
21,1,0.01378,0.01968,0,0,0.0*
1,1,0.00984,0.00689,-0.00492*
1,1,0.00984,-0.00689,-0.00492*
1,1,0.00984,-0.00689,0.00492*
1,1,0.00984,0.00689,0.00492*
%
%ADD27ROUNDEDRECTD27*%
%ADD28R,0.01575X0.01575*%
%ADD29R,0.02165X0.01575*%
%ADD30R,0.07874X0.09646*%
%ADD31R,0.03937X0.02165*%
%ADD32R,0.03347X0.01378*%
%ADD33R,0.06693X0.09449*%
%ADD34R,0.13976X0.13976*%
%ADD35R,0.03347X0.01181*%
%ADD36R,0.01181X0.03347*%
%ADD37R,0.04500X0.05906*%
%ADD38R,0.11811X0.05709*%
%ADD39R,0.03937X0.02756*%
%ADD72C,0.17717*%
D12*
X119561Y72837D02*
G03*
X119522Y72918I-372J-129D01*
G01*
X119054Y73663D02*
G03*
X118998Y73733I-334J-208D01*
G01*
X119053Y73664D02*
G03*
X118998Y73733I-333J-209D01*
G01*
X119561Y72838D02*
G03*
X119522Y72919I-372J-130D01*
G01*
X119973Y71000D02*
G03*
X119970Y71044I-394J0D01*
G01*
X119871Y71919D02*
G03*
X119852Y72006I-391J-43D01*
G01*
X119973Y71000D02*
G03*
X119970Y71046I-394J0D01*
G01*
X119871Y71920D02*
G03*
X119851Y72007I-391J-44D01*
G01*
X117561Y74880D02*
G03*
X117480Y74919I-211J-333D01*
G01*
X116648Y75210D02*
G03*
X116562Y75230I-130J-372D01*
G01*
X117559Y74880D02*
G03*
X117480Y74919I-209J-333D01*
G01*
X115686Y75328D02*
G03*
X115642Y75331I-44J-391D01*
G01*
X115686Y75328D02*
G03*
X115642Y75331I-44J-391D01*
G01*
X116648Y75210D02*
G03*
X116562Y75230I-130J-372D01*
G01*
X118375Y74357D02*
G03*
X118306Y74411I-279J-279D01*
G01*
X118375Y74357D02*
G03*
X118305Y74412I-279J-279D01*
G01*
X119970Y4027D02*
G03*
X119973Y4071I-391J44D01*
G01*
X119852Y3065D02*
G03*
X119871Y3152I-372J130D01*
G01*
X119970Y4025D02*
G03*
X119973Y4071I-391J46D01*
G01*
X119851Y3063D02*
G03*
X119871Y3151I-371J131D01*
G01*
X119522Y2153D02*
G03*
X119561Y2234I-333J209D01*
G01*
X119522Y2152D02*
G03*
X119561Y2233I-333J211D01*
G01*
X118998Y1338D02*
G03*
X119054Y1408I-279J279D01*
G01*
X118998Y1338D02*
G03*
X119053Y1407I-279J279D01*
G01*
X118306Y659D02*
G03*
X118375Y714I-209J333D01*
G01*
X118305Y659D02*
G03*
X118375Y714I-208J334D01*
G01*
X117480Y152D02*
G03*
X117559Y190I-130J372D01*
G01*
X117480Y152D02*
G03*
X117561Y191I-130J372D01*
G01*
X116562Y-159D02*
G03*
X116648Y-139I-44J391D01*
G01*
X116562Y-159D02*
G03*
X116648Y-139I-44J391D01*
G01*
X115642Y-260D02*
G03*
X115686Y-258I0J394D01*
G01*
X115642Y-260D02*
G03*
X115686Y-258I0J394D01*
G01*
X3831Y75331D02*
G03*
X3787Y75328I0J-394D01*
G01*
X3831Y75331D02*
G03*
X3787Y75328I0J-394D01*
G01*
X2911Y75230D02*
G03*
X2825Y75210I44J-391D01*
G01*
X1992Y74919D02*
G03*
X1913Y74880I130J-372D01*
G01*
X2911Y75230D02*
G03*
X2825Y75210I44J-391D01*
G01*
X1992Y74919D02*
G03*
X1912Y74880I130J-372D01*
G01*
X1168Y74412D02*
G03*
X1098Y74357I208J-334D01*
G01*
X1166Y74411D02*
G03*
X1098Y74357I209J-333D01*
G01*
X474Y73733D02*
G03*
X419Y73664I279J-279D01*
G01*
X474Y73733D02*
G03*
X418Y73663I279J-279D01*
G01*
X-49Y72919D02*
G03*
X-88Y72838I333J-211D01*
G01*
X-50Y72918D02*
G03*
X-89Y72837I333J-209D01*
G01*
X-379Y72007D02*
G03*
X-399Y71920I371J-131D01*
G01*
X-379Y72006D02*
G03*
X-399Y71919I372J-130D01*
G01*
X-497Y71046D02*
G03*
X-500Y71000I391J-46D01*
G01*
X-498Y71044D02*
G03*
X-500Y71000I391J-44D01*
G01*
X2825Y-139D02*
G03*
X2911Y-159I130J372D01*
G01*
X1912Y191D02*
G03*
X1992Y152I211J333D01*
G01*
X1098Y714D02*
G03*
X1166Y659I279J279D01*
G01*
X1098Y714D02*
G03*
X1168Y659I279J279D01*
G01*
X3787Y-258D02*
G03*
X3831Y-260I44J391D01*
G01*
X3787Y-258D02*
G03*
X3831Y-260I44J391D01*
G01*
X1913Y190D02*
G03*
X1992Y152I209J333D01*
G01*
X2825Y-139D02*
G03*
X2911Y-159I130J372D01*
G01*
X-399Y3151D02*
G03*
X-379Y3063I391J44D01*
G01*
X-500Y4071D02*
G03*
X-498Y4027I394J0D01*
G01*
X-500Y4071D02*
G03*
X-497Y4025I394J0D01*
G01*
X-399Y3152D02*
G03*
X-379Y3065I391J43D01*
G01*
X419Y1407D02*
G03*
X474Y1338I333J209D01*
G01*
X-88Y2233D02*
G03*
X-49Y2152I372J130D01*
G01*
X-89Y2234D02*
G03*
X-50Y2153I372J129D01*
G01*
X418Y1408D02*
G03*
X474Y1338I334J208D01*
G01*
X119053Y73664D02*
X119054Y73663D01*
X119522Y72919D01*
X119522Y72918D01*
X119561Y72838D02*
X119561Y72837D01*
X119851Y72007D01*
X119852Y72006D01*
X118375Y74357D02*
X118998Y73733D01*
X119871Y71920D02*
X119871Y71919D01*
X119970Y71046D01*
X119970Y71044D01*
X119973Y4071D02*
Y71000D01*
X116648Y75210D02*
X117480Y74919D01*
X118305Y74412D02*
X118306Y74411D01*
X117561Y74880D02*
X118305Y74412D01*
X117559Y74880D02*
X117561Y74880D01*
X115686Y75328D02*
X116562Y75230D01*
X119970Y4025D02*
X119970Y4027D01*
X119871Y3152D02*
X119970Y4025D01*
X119871Y3151D02*
X119871Y3152D01*
X119851Y3063D02*
X119852Y3065D01*
X119561Y2234D02*
X119851Y3063D01*
X119561Y2233D02*
X119561Y2234D01*
X119522Y2152D02*
X119522Y2153D01*
X119054Y1408D02*
X119522Y2152D01*
X119053Y1407D02*
X119054Y1408D01*
X118375Y714D02*
X118998Y1338D01*
X118305Y659D02*
X118306Y659D01*
X117561Y191D02*
X118305Y659D01*
X117559Y190D02*
X117561Y191D01*
X116648Y-139D02*
X117480Y152D01*
X115686Y-258D02*
X116562Y-159D01*
X3831Y75331D02*
X115642D01*
X2911Y75230D02*
X3787Y75328D01*
X1992Y74919D02*
X2825Y75210D01*
X1912Y74880D02*
X1913Y74880D01*
X1168Y74412D02*
X1912Y74880D01*
X1166Y74411D02*
X1168Y74412D01*
X474Y73733D02*
X1098Y74357D01*
X418Y73663D02*
X419Y73664D01*
X-49Y72919D02*
X418Y73663D01*
X-50Y72918D02*
X-49Y72919D01*
X-89Y72837D02*
X-88Y72838D01*
X-379Y72007D02*
X-89Y72837D01*
X-379Y72006D02*
X-379Y72007D01*
X-399Y71919D02*
X-399Y71920D01*
X-497Y71046D02*
X-399Y71919D01*
X-498Y71044D02*
X-497Y71046D01*
X1912Y191D02*
X1913Y190D01*
X1168Y659D02*
X1912Y191D01*
X1166Y659D02*
X1168Y659D01*
X3831Y-260D02*
X115642D01*
X1992Y152D02*
X2825Y-139D01*
X2911Y-159D02*
X3787Y-258D01*
X-379Y3065D02*
X-379Y3063D01*
X-89Y2234D01*
X-88Y2233D01*
X-500Y4071D02*
Y71000D01*
X-498Y4027D02*
X-497Y4025D01*
X-399Y3152D01*
X-399Y3151D01*
X474Y1338D02*
X1098Y714D01*
X-50Y2153D02*
X-49Y2152D01*
X418Y1408D01*
X419Y1407D01*
D14*
X47146Y24606D02*
D03*
X92815Y12992D02*
D03*
X47146Y10630D02*
D03*
X29035Y10728D02*
D03*
X29035Y24606D02*
D03*
D15*
X50984Y31398D02*
D03*
X48425D02*
D03*
X45866D02*
D03*
X43307D02*
D03*
X96653Y6201D02*
D03*
X94095D02*
D03*
X91535D02*
D03*
X88976D02*
D03*
X43307Y17421D02*
D03*
X45866D02*
D03*
X48425D02*
D03*
X50984D02*
D03*
X32874Y17520D02*
D03*
X30315D02*
D03*
X27756D02*
D03*
X25197D02*
D03*
X32874Y31398D02*
D03*
X30315D02*
D03*
X27756D02*
D03*
X25197D02*
D03*
D16*
X50984Y20079D02*
D03*
X48425D02*
D03*
X45866D02*
D03*
X43307D02*
D03*
X96653Y17520D02*
D03*
X94095D02*
D03*
X91535D02*
D03*
X88976D02*
D03*
X43307Y6102D02*
D03*
X45866D02*
D03*
X48425D02*
D03*
X50984D02*
D03*
X32874Y6201D02*
D03*
X30315D02*
D03*
X27756D02*
D03*
X25197D02*
D03*
X32874Y20079D02*
D03*
X30315D02*
D03*
X27756D02*
D03*
X25197D02*
D03*
D17*
X67323Y32320D02*
D03*
Y27720D02*
D03*
X79232Y29859D02*
D03*
Y25259D02*
D03*
X72933Y60200D02*
D03*
Y64800D02*
D03*
X105466Y46084D02*
D03*
Y41483D02*
D03*
X117421Y21913D02*
D03*
Y26513D02*
D03*
X114173Y21913D02*
D03*
Y26513D02*
D03*
X96260Y23783D02*
D03*
Y28383D02*
D03*
X76083Y60200D02*
D03*
Y64800D02*
D03*
X2953Y43074D02*
D03*
Y47674D02*
D03*
X21850Y44426D02*
D03*
Y39826D02*
D03*
X83858Y28481D02*
D03*
Y23881D02*
D03*
X116437Y63350D02*
D03*
Y67950D02*
D03*
D18*
X74114Y29528D02*
D03*
Y25591D02*
D03*
X70965D02*
D03*
Y29528D02*
D03*
D19*
X70137Y41656D02*
D03*
X66884Y38404D02*
D03*
X23571Y48177D02*
D03*
X26823Y51429D02*
D03*
X26528Y61863D02*
D03*
X23275Y58610D02*
D03*
X25544Y55465D02*
D03*
X22291Y52212D02*
D03*
D20*
X62175Y42982D02*
D03*
X67549Y48356D02*
D03*
D21*
X79823Y64862D02*
D03*
Y58563D02*
D03*
D22*
X67224Y56535D02*
D03*
Y64135D02*
D03*
X16426Y71493D02*
D03*
Y63893D02*
D03*
D23*
X76575Y46103D02*
D03*
X77967Y44711D02*
D03*
X79359Y43319D02*
D03*
X80751Y41927D02*
D03*
X82143Y40535D02*
D03*
X83535Y39143D02*
D03*
X84927Y37751D02*
D03*
X86319Y36360D02*
D03*
X99960Y50001D02*
D03*
X98568Y51392D02*
D03*
X97176Y52784D02*
D03*
X95784Y54176D02*
D03*
X94392Y55568D02*
D03*
X93000Y56960D02*
D03*
X91608Y58352D02*
D03*
X90216Y59744D02*
D03*
D24*
Y36360D02*
D03*
X91608Y37751D02*
D03*
X93000Y39143D02*
D03*
X94392Y40535D02*
D03*
X95784Y41927D02*
D03*
X97176Y43319D02*
D03*
X98568Y44711D02*
D03*
X99960Y46103D02*
D03*
X86319Y59744D02*
D03*
X84927Y58352D02*
D03*
X83535Y56960D02*
D03*
X82143Y55568D02*
D03*
X80751Y54176D02*
D03*
X79359Y52784D02*
D03*
X77967Y51392D02*
D03*
X76575Y50001D02*
D03*
D25*
X88268Y48052D02*
D03*
D26*
X99839Y72539D02*
D03*
X95239D02*
D03*
X93504Y2165D02*
D03*
X98104D02*
D03*
X105377Y24213D02*
D03*
X109977D02*
D03*
X84091Y15453D02*
D03*
X79491D02*
D03*
X116831Y42028D02*
D03*
X112231D02*
D03*
X116732Y45965D02*
D03*
X112132D02*
D03*
X115784Y72539D02*
D03*
X111184D02*
D03*
X103212D02*
D03*
X107812D02*
D03*
X87169Y26870D02*
D03*
X91768D02*
D03*
X87464Y23819D02*
D03*
X92064D02*
D03*
X66670Y69587D02*
D03*
X62070D02*
D03*
Y72638D02*
D03*
X66670D02*
D03*
X58304Y71161D02*
D03*
X53704D02*
D03*
Y68110D02*
D03*
X58304D02*
D03*
X35594Y72933D02*
D03*
X40194D02*
D03*
X26109Y71260D02*
D03*
X30709D02*
D03*
X26046Y67126D02*
D03*
X30646D02*
D03*
X31729Y44587D02*
D03*
X27129D02*
D03*
X114406Y55216D02*
D03*
X109806D02*
D03*
D27*
X79331Y19587D02*
D03*
X84055D02*
D03*
X90158Y2264D02*
D03*
X85433D02*
D03*
D28*
X70177Y10925D02*
D03*
Y8366D02*
D03*
Y5807D02*
D03*
Y3248D02*
D03*
D29*
X81496Y10925D02*
D03*
Y8366D02*
D03*
Y5807D02*
D03*
Y3248D02*
D03*
D30*
X74705Y7087D02*
D03*
D31*
X108858Y35531D02*
D03*
Y30413D02*
D03*
X116339Y32972D02*
D03*
D32*
X100197Y68405D02*
D03*
Y65847D02*
D03*
Y63287D02*
D03*
Y60728D02*
D03*
X112008D02*
D03*
Y63287D02*
D03*
Y65847D02*
D03*
Y68405D02*
D03*
D33*
X106102Y64567D02*
D03*
D34*
X41634Y56595D02*
D03*
D35*
X51279Y63484D02*
D03*
X51279Y61516D02*
D03*
Y59547D02*
D03*
Y57579D02*
D03*
Y55610D02*
D03*
Y53642D02*
D03*
Y51673D02*
D03*
Y49705D02*
D03*
X31988Y49705D02*
D03*
X31988Y51673D02*
D03*
Y53642D02*
D03*
Y55610D02*
D03*
Y57579D02*
D03*
Y59547D02*
D03*
Y61516D02*
D03*
Y63484D02*
D03*
D36*
X48524Y46949D02*
D03*
X46555Y46949D02*
D03*
X44587D02*
D03*
X42618D02*
D03*
X40650D02*
D03*
X38681D02*
D03*
X36713D02*
D03*
X34744D02*
D03*
X34744Y66240D02*
D03*
X36713Y66240D02*
D03*
X38681D02*
D03*
X40650D02*
D03*
X42618D02*
D03*
X44587D02*
D03*
X46555D02*
D03*
X48524D02*
D03*
D37*
X11772Y25098D02*
D03*
X4172D02*
D03*
X10591Y57677D02*
D03*
X2991D02*
D03*
X10591Y64370D02*
D03*
X2991D02*
D03*
D38*
X61811Y10630D02*
D03*
Y22441D02*
D03*
D39*
X7189Y43504D02*
D03*
Y47244D02*
D03*
Y50984D02*
D03*
X15843D02*
D03*
Y47244D02*
D03*
Y43504D02*
D03*
D72*
X9736Y9976D02*
D03*
X109736D02*
D03*
M02*
