G04*
G04 #@! TF.GenerationSoftware,Altium Limited,Altium Designer,21.7.2 (23)*
G04*
G04 Layer_Physical_Order=1*
G04 Layer_Color=255*
%FSLAX25Y25*%
%MOIN*%
G70*
G04*
G04 #@! TF.SameCoordinates,A9B48DCA-64FB-4BA4-8F48-11090BDC09AC*
G04*
G04*
G04 #@! TF.FilePolarity,Positive*
G04*
G01*
G75*
%ADD12C,0.00787*%
%ADD14R,0.09646X0.07874*%
%ADD15R,0.01575X0.02165*%
%ADD16R,0.01575X0.01575*%
%ADD17R,0.02362X0.02500*%
%ADD18R,0.02362X0.02756*%
G04:AMPARAMS|DCode=19|XSize=25mil|YSize=23.62mil|CornerRadius=0mil|HoleSize=0mil|Usage=FLASHONLY|Rotation=225.000|XOffset=0mil|YOffset=0mil|HoleType=Round|Shape=Rectangle|*
%AMROTATEDRECTD19*
4,1,4,0.00049,0.01719,0.01719,0.00049,-0.00049,-0.01719,-0.01719,-0.00049,0.00049,0.01719,0.0*
%
%ADD19ROTATEDRECTD19*%

G04:AMPARAMS|DCode=20|XSize=45mil|YSize=59.06mil|CornerRadius=0mil|HoleSize=0mil|Usage=FLASHONLY|Rotation=225.000|XOffset=0mil|YOffset=0mil|HoleType=Round|Shape=Rectangle|*
%AMROTATEDRECTD20*
4,1,4,-0.00497,0.03679,0.03679,-0.00497,0.00497,-0.03679,-0.03679,0.00497,-0.00497,0.03679,0.0*
%
%ADD20ROTATEDRECTD20*%

%ADD21R,0.01654X0.02165*%
%ADD22R,0.05906X0.04500*%
G04:AMPARAMS|DCode=23|XSize=33.47mil|YSize=9.84mil|CornerRadius=0mil|HoleSize=0mil|Usage=FLASHONLY|Rotation=45.000|XOffset=0mil|YOffset=0mil|HoleType=Round|Shape=Rectangle|*
%AMROTATEDRECTD23*
4,1,4,-0.00835,-0.01531,-0.01531,-0.00835,0.00835,0.01531,0.01531,0.00835,-0.00835,-0.01531,0.0*
%
%ADD23ROTATEDRECTD23*%

G04:AMPARAMS|DCode=24|XSize=33.47mil|YSize=9.84mil|CornerRadius=0mil|HoleSize=0mil|Usage=FLASHONLY|Rotation=135.000|XOffset=0mil|YOffset=0mil|HoleType=Round|Shape=Rectangle|*
%AMROTATEDRECTD24*
4,1,4,0.01531,-0.00835,0.00835,-0.01531,-0.01531,0.00835,-0.00835,0.01531,0.01531,-0.00835,0.0*
%
%ADD24ROTATEDRECTD24*%

%ADD25P,0.20044X4X180.0*%
%ADD26R,0.02500X0.02362*%
G04:AMPARAMS|DCode=27|XSize=23.62mil|YSize=19.68mil|CornerRadius=4.92mil|HoleSize=0mil|Usage=FLASHONLY|Rotation=0.000|XOffset=0mil|YOffset=0mil|HoleType=Round|Shape=RoundedRectangle|*
%AMROUNDEDRECTD27*
21,1,0.02362,0.00984,0,0,0.0*
21,1,0.01378,0.01968,0,0,0.0*
1,1,0.00984,0.00689,-0.00492*
1,1,0.00984,-0.00689,-0.00492*
1,1,0.00984,-0.00689,0.00492*
1,1,0.00984,0.00689,0.00492*
%
%ADD27ROUNDEDRECTD27*%
%ADD28R,0.01575X0.01575*%
%ADD29R,0.02165X0.01575*%
%ADD30R,0.07874X0.09646*%
%ADD31R,0.03937X0.02165*%
%ADD32R,0.03347X0.01378*%
%ADD33R,0.06693X0.09449*%
%ADD34R,0.13976X0.13976*%
%ADD35R,0.03347X0.01181*%
%ADD36R,0.01181X0.03347*%
%ADD37R,0.04500X0.05906*%
%ADD38R,0.11811X0.05709*%
%ADD39R,0.03937X0.02756*%
%ADD68C,0.01000*%
%ADD69C,0.01181*%
%ADD70C,0.01001*%
%ADD71C,0.01575*%
%ADD72C,0.01968*%
%ADD73C,0.17717*%
%ADD74C,0.01772*%
G36*
X922257Y877017D02*
X921817Y876577D01*
X919798D01*
Y874627D01*
X915816Y870645D01*
X915796Y870638D01*
X915199Y870735D01*
X915192Y870747D01*
X915192Y870747D01*
X914503Y871436D01*
X914242Y871610D01*
X913935Y871671D01*
X903699D01*
X903391Y871610D01*
X903131Y871436D01*
X902957Y871175D01*
X902896Y870868D01*
Y865935D01*
X902895Y865933D01*
Y865345D01*
X902896Y865343D01*
Y857974D01*
X902957Y857667D01*
X903131Y857407D01*
X903328Y857210D01*
X903588Y857036D01*
X903896Y856975D01*
X905547D01*
Y852758D01*
X900648D01*
Y853060D01*
X900505D01*
Y857285D01*
X901755D01*
Y864766D01*
X896427D01*
Y873775D01*
X896440Y873884D01*
X896526Y874348D01*
X896526D01*
X896512Y874838D01*
X896586Y875130D01*
X896586D01*
X896721Y875583D01*
X896729Y875605D01*
X896794Y875762D01*
X896923Y875988D01*
X897047Y876152D01*
X897112Y876159D01*
X897120Y876162D01*
X897198Y876351D01*
X897368Y876537D01*
X897554Y876707D01*
X897743Y876786D01*
X897746Y876793D01*
X897753Y876859D01*
X897917Y876983D01*
X898143Y877111D01*
X898301Y877176D01*
X898462Y877241D01*
X898774Y877320D01*
X898775Y877319D01*
X898779Y877321D01*
X898949Y877392D01*
X899082Y877412D01*
X899557Y877379D01*
Y877379D01*
X900031Y877465D01*
X900150Y877479D01*
X922065D01*
X922257Y877017D01*
D02*
G37*
G36*
X933883Y875084D02*
X933383Y874784D01*
X933357Y874797D01*
Y877479D01*
X933883D01*
Y875084D01*
D02*
G37*
G36*
X929283Y874346D02*
X928622D01*
X928472Y874496D01*
Y875369D01*
X929283D01*
Y874346D01*
D02*
G37*
G36*
X1004873Y873919D02*
X1005506D01*
Y873230D01*
X1005274D01*
Y870278D01*
Y867719D01*
Y865159D01*
Y862600D01*
X1010195D01*
Y864161D01*
X1010195Y864661D01*
X1014132D01*
X1014499Y864339D01*
Y847344D01*
X1010520D01*
Y845253D01*
X1010494Y845236D01*
X1009994Y845503D01*
Y847344D01*
X1009896Y847344D01*
Y851282D01*
X1005821D01*
Y847344D01*
X1005920Y847344D01*
Y845986D01*
X1005574Y845917D01*
X1005148Y845632D01*
X1003623Y844107D01*
X1003161Y844299D01*
Y845507D01*
X1003383Y845656D01*
X1003970D01*
X1004513Y845880D01*
X1004928Y846296D01*
X1005153Y846838D01*
Y847425D01*
X1004928Y847968D01*
X1004513Y848384D01*
X1003970Y848608D01*
X1003383D01*
X1002840Y848384D01*
X1002425Y847968D01*
X1002200Y847425D01*
Y846869D01*
X999224D01*
Y846237D01*
X998104D01*
X995288Y849053D01*
X994832Y849358D01*
X994799Y849364D01*
X993459Y850704D01*
X991650Y848895D01*
X992990Y847554D01*
X992996Y847522D01*
X993301Y847066D01*
X996529Y843838D01*
X996984Y843534D01*
X997175Y842986D01*
X997104Y842815D01*
Y842228D01*
X997329Y841685D01*
X997744Y841270D01*
X997950Y841185D01*
X997851Y840685D01*
X992390D01*
X991395Y841680D01*
X992171Y842456D01*
X992656Y842234D01*
X992801Y841882D01*
X993217Y841467D01*
X993759Y841242D01*
X994347D01*
X994889Y841467D01*
X995305Y841882D01*
X995529Y842425D01*
Y843012D01*
X995305Y843555D01*
X994889Y843970D01*
X994506Y844129D01*
X992453Y846182D01*
X992439Y846204D01*
X992298Y846298D01*
X990675Y847920D01*
X987474Y844719D01*
X986499Y843744D01*
X983994Y841239D01*
X981489Y843744D01*
X980097Y845136D01*
X977313Y847920D01*
X976338Y848895D01*
X973137Y852096D01*
X972325Y851284D01*
X970070Y853539D01*
Y856204D01*
X970570Y856253D01*
X970596Y856123D01*
X970881Y855697D01*
X972765Y853813D01*
X972906Y853718D01*
X974529Y852096D01*
X977313Y854880D01*
X980097Y857664D01*
X981489Y859056D01*
X983994Y861561D01*
X987474Y858082D01*
X990258Y855298D01*
X991650Y853906D01*
X994851Y850704D01*
X996191Y852044D01*
X996224Y852051D01*
X996680Y852355D01*
X1001484Y857160D01*
X1003495D01*
Y856596D01*
X1007570D01*
Y860534D01*
X1003495D01*
Y859970D01*
X1002238D01*
X1002124Y860141D01*
Y860729D01*
X1001899Y861271D01*
X1001484Y861687D01*
X1000941Y861911D01*
X1000354D01*
X999811Y861687D01*
X999396Y861271D01*
X999171Y860729D01*
Y860141D01*
X999243Y859969D01*
Y858892D01*
X996683Y856332D01*
X996183Y856332D01*
X995547Y856968D01*
X992787Y859728D01*
X995659Y862600D01*
X998384D01*
Y865159D01*
Y868112D01*
X995778D01*
X995755Y868117D01*
X994552D01*
X994466Y868204D01*
X993923Y868428D01*
X993336D01*
X993054Y868839D01*
X993026Y869154D01*
X994124Y870252D01*
X995735D01*
X995862Y870278D01*
X998384D01*
Y873230D01*
X993463D01*
Y872855D01*
X993077Y872779D01*
X992651Y872494D01*
X992651Y872494D01*
X990527Y870370D01*
X990242Y869944D01*
X990142Y869441D01*
Y865523D01*
X989642Y865189D01*
X989436Y865275D01*
X988848D01*
X988306Y865050D01*
X987890Y864635D01*
X987882Y864633D01*
X986778Y865737D01*
X986151Y865110D01*
X985834Y865427D01*
X985292Y865652D01*
X984704D01*
X984162Y865427D01*
X983858Y865123D01*
X983358Y865281D01*
Y872246D01*
X983258Y872748D01*
X982973Y873174D01*
X979233Y876914D01*
X979137Y876979D01*
X979288Y877479D01*
X993528D01*
Y873919D01*
X1000976D01*
Y877479D01*
X1004873D01*
Y873919D01*
D02*
G37*
G36*
X934973Y873501D02*
X934511Y873310D01*
X934008Y873813D01*
X934215Y874313D01*
X934973D01*
Y873501D01*
D02*
G37*
G36*
X1010903Y877464D02*
X1011368Y877379D01*
X1011368Y877379D01*
Y877379D01*
X1011814Y877408D01*
X1012150Y877319D01*
X1012150Y877319D01*
X1012603Y877185D01*
X1012624Y877176D01*
X1012782Y877111D01*
X1013008Y876983D01*
X1013172Y876859D01*
X1013179Y876793D01*
X1013182Y876786D01*
X1013371Y876707D01*
X1013557Y876537D01*
X1013727Y876351D01*
X1013805Y876162D01*
X1013813Y876159D01*
X1013878Y876152D01*
X1014002Y875988D01*
X1014131Y875762D01*
X1014196Y875605D01*
X1014262Y875439D01*
X1014339Y875131D01*
X1014339Y875130D01*
X1014340Y875127D01*
X1014414Y874842D01*
X1014399Y874348D01*
X1014399D01*
X1014485Y873884D01*
X1014499Y873775D01*
Y873657D01*
X1014132Y873335D01*
X1010195D01*
X1010195Y873230D01*
X1008315D01*
Y873919D01*
X1008948D01*
Y877479D01*
X1010775D01*
X1010903Y877464D01*
D02*
G37*
G36*
X924398Y873957D02*
Y872917D01*
X924372Y872725D01*
X923872Y872758D01*
X923872Y872917D01*
Y874207D01*
X923898Y874224D01*
X924398Y873957D01*
D02*
G37*
G36*
X960359Y874018D02*
X964434D01*
Y874674D01*
X977761D01*
X980733Y871702D01*
Y870807D01*
X980233Y870600D01*
X979044Y871788D01*
X978618Y872073D01*
X978116Y872173D01*
X959834D01*
Y874018D01*
Y877479D01*
X960359D01*
Y874018D01*
D02*
G37*
G36*
X1013695Y869261D02*
X1013850Y868998D01*
X1013695Y868735D01*
X1012884D01*
X1012617Y869235D01*
X1012634Y869261D01*
X1013695D01*
D02*
G37*
G36*
X942712Y877017D02*
X939385Y873690D01*
X939100Y873264D01*
X939000Y872762D01*
Y872049D01*
X938935D01*
Y867128D01*
X943659D01*
Y869552D01*
X943685Y869679D01*
Y871301D01*
X945778Y873394D01*
X947393D01*
Y869490D01*
X951468D01*
Y872541D01*
Y875307D01*
X955759D01*
Y873427D01*
X951993D01*
Y869490D01*
X956068D01*
X955828Y868886D01*
X949876Y866740D01*
X949467Y867027D01*
Y868211D01*
X944545D01*
Y865532D01*
X944530Y865455D01*
Y864274D01*
X944545Y864196D01*
Y863272D01*
X944540Y863239D01*
X944512Y863089D01*
X944512Y863085D01*
X944512Y863082D01*
X944530Y862287D01*
X944545Y862218D01*
Y861347D01*
X944530Y861324D01*
X944524Y861287D01*
X944511Y861265D01*
X944503Y861195D01*
X944479Y861121D01*
X944478Y861114D01*
X944482Y861062D01*
X944474Y861015D01*
X944480Y860988D01*
X944476Y860953D01*
X944533Y860270D01*
X944545Y860226D01*
Y857581D01*
Y852758D01*
X943184D01*
X943179Y852761D01*
X942872Y852822D01*
X941691D01*
X941384Y852761D01*
X941378Y852758D01*
X940903D01*
Y852097D01*
X940888Y852020D01*
Y848639D01*
X939738D01*
Y852020D01*
X939722Y852097D01*
Y852758D01*
X939248D01*
X939242Y852761D01*
X938935Y852822D01*
X937803D01*
X937496Y852761D01*
X937491Y852758D01*
X931061D01*
Y850433D01*
X931034Y850297D01*
Y847237D01*
X930420Y846623D01*
X929493D01*
Y849903D01*
X928269D01*
X927936Y850403D01*
X928018Y850602D01*
Y851189D01*
X928358Y851675D01*
X930175D01*
Y854431D01*
X930175D01*
Y858368D01*
X927850D01*
X927715Y858395D01*
X924762D01*
X924224Y858288D01*
X923941Y858700D01*
X924103Y858862D01*
X923850Y859114D01*
X924057Y859614D01*
X925254D01*
Y859549D01*
X930175D01*
Y862305D01*
X925254D01*
Y862240D01*
X922990D01*
X922720Y862186D01*
X922474Y862647D01*
X923379Y863552D01*
X925254D01*
Y863486D01*
X930175D01*
Y866242D01*
X925254D01*
Y866177D01*
X924170D01*
X922341Y868006D01*
X922394Y868506D01*
X923810D01*
Y872443D01*
X923810D01*
X923846Y872556D01*
X924336Y872447D01*
X924335Y872443D01*
X924335Y872443D01*
X924335D01*
Y868506D01*
X928410D01*
Y869162D01*
X929093D01*
Y867128D01*
X931848D01*
Y871721D01*
X932387D01*
X933004Y871104D01*
Y869679D01*
X933029Y869552D01*
Y867128D01*
X937754D01*
Y872049D01*
X937598D01*
Y874313D01*
X937957D01*
Y877479D01*
X942520D01*
X942712Y877017D01*
D02*
G37*
G36*
X966593Y865258D02*
X948679Y864274D01*
X945333D01*
Y865455D01*
X949467D01*
Y865739D01*
X960028Y869548D01*
X966593D01*
Y865258D01*
D02*
G37*
G36*
X993463Y865031D02*
Y864308D01*
X993269Y864160D01*
X992769Y864408D01*
Y864835D01*
X993269Y865135D01*
X993463Y865031D01*
D02*
G37*
G36*
X966593Y862108D02*
Y857679D01*
X960687D01*
X954594Y861232D01*
X949467Y862162D01*
Y862305D01*
X945333D01*
X945315Y863100D01*
X945663Y863459D01*
X947677Y863471D01*
X948679D01*
X948701Y863475D01*
X948723Y863472D01*
X948810Y863477D01*
X958128Y863486D01*
X966593Y862108D01*
D02*
G37*
G36*
X966691Y864052D02*
Y863407D01*
X966191Y862987D01*
X961842Y863695D01*
X961869Y864194D01*
X966191Y864432D01*
X966691Y864052D01*
D02*
G37*
G36*
X919735Y868506D02*
X922212D01*
X922265Y868006D01*
X919422Y865162D01*
X921750Y862834D01*
X921641Y862236D01*
X921617Y862224D01*
X919050Y864791D01*
X917775Y863515D01*
X914460D01*
X913846Y863393D01*
X913325Y863045D01*
X912977Y862524D01*
X912971Y862497D01*
X912770Y862414D01*
X912451Y862095D01*
X911996Y862110D01*
X911890Y862143D01*
X911475Y862558D01*
X910932Y862783D01*
X910345D01*
X910021Y862649D01*
X909521Y862931D01*
Y863675D01*
X909786Y864160D01*
X914205D01*
X914224Y864163D01*
X914243Y864161D01*
X914377Y864194D01*
X914427Y864204D01*
X915893D01*
Y867386D01*
X915949D01*
X916486Y867493D01*
X916942Y867798D01*
X918214Y869069D01*
X919735D01*
Y868506D01*
D02*
G37*
G36*
X973935Y866341D02*
X977163D01*
Y869328D01*
X977663Y869457D01*
X978174Y868946D01*
Y862879D01*
X978203Y862730D01*
X977625Y862152D01*
X977163Y862344D01*
Y863782D01*
X973935D01*
X973777Y864216D01*
Y865586D01*
X967395D01*
Y869548D01*
X973935D01*
Y866341D01*
D02*
G37*
G36*
X973777Y861511D02*
X973935Y861076D01*
Y860041D01*
X974132D01*
Y859382D01*
X974138Y859351D01*
Y858665D01*
X973584Y858111D01*
X973122Y858302D01*
Y861511D01*
X973777D01*
D02*
G37*
G36*
X914624Y870179D02*
Y865159D01*
X914205Y864963D01*
X909309D01*
X908718Y863880D01*
Y857778D01*
X903896D01*
X903699Y857974D01*
Y870868D01*
X913935D01*
X914624Y870179D01*
D02*
G37*
G36*
X966691Y856846D02*
X967189Y856841D01*
X967445Y856707D01*
Y852995D01*
X967529Y852572D01*
X967334Y852386D01*
X967117Y852276D01*
X963315Y855990D01*
X963233Y856043D01*
X962930Y856346D01*
X963137Y856846D01*
X966691D01*
Y856846D01*
D02*
G37*
G36*
X913541Y849215D02*
X909604D01*
Y855711D01*
X913541D01*
Y849215D01*
D02*
G37*
G36*
X919962Y854974D02*
X919717Y854729D01*
X922170Y852277D01*
Y849903D01*
X920818D01*
Y849087D01*
X919545D01*
Y849812D01*
X917874D01*
X917872Y849812D01*
X917870Y849812D01*
X916422D01*
X916153Y850215D01*
X916153Y850215D01*
X915230Y851137D01*
X914710Y851485D01*
X914344Y851558D01*
Y855711D01*
X914325Y855808D01*
Y856498D01*
X913619D01*
X913541Y856514D01*
X909604D01*
X909527Y856498D01*
X908885D01*
X908836Y856998D01*
X909026Y857036D01*
X909286Y857210D01*
X909337Y857285D01*
X909355D01*
Y857313D01*
X909410Y857395D01*
X917542D01*
X919962Y854974D01*
D02*
G37*
G36*
X900159Y848460D02*
X897211D01*
X897060Y848722D01*
X897211Y848985D01*
X900159D01*
Y848460D01*
D02*
G37*
G36*
X949032Y861487D02*
X949099Y861461D01*
X949159Y861420D01*
X949243Y861404D01*
X949323Y861372D01*
X954311Y860467D01*
X959211Y857611D01*
Y856846D01*
X960462D01*
X962749Y855415D01*
X962754D01*
X966986Y851282D01*
X964083Y848288D01*
X963583Y848281D01*
X959604Y852167D01*
X954782Y857974D01*
X949467Y860032D01*
Y860337D01*
X945333D01*
X945276Y861020D01*
X945277Y861028D01*
X945737Y861502D01*
X949016D01*
X949032Y861487D01*
D02*
G37*
G36*
X942872Y847837D02*
X942921D01*
Y841144D01*
X957973D01*
X961081Y837534D01*
Y833631D01*
X961277D01*
Y833105D01*
X961081D01*
Y830071D01*
X950303D01*
X948498Y831876D01*
Y831892D01*
X948482Y831969D01*
Y832679D01*
X947772D01*
X947695Y832695D01*
X947679D01*
X946760Y833614D01*
X940608D01*
Y836616D01*
X937459D01*
Y834732D01*
X936341Y833614D01*
X923827D01*
Y835878D01*
X928573Y840625D01*
X933496D01*
X934034Y840732D01*
X934136Y840799D01*
X934776D01*
X937803Y843826D01*
Y852020D01*
X938935D01*
Y847837D01*
X941691D01*
Y852020D01*
X942872D01*
Y847837D01*
D02*
G37*
G36*
X947077Y851416D02*
X947619Y851191D01*
X948207D01*
X948749Y851416D01*
X948841Y851508D01*
X949341Y851301D01*
Y850092D01*
X948917Y849668D01*
X948917Y849668D01*
X947807Y848558D01*
X947599Y848516D01*
X947401D01*
X946859Y848291D01*
X946443Y847876D01*
X946218Y847334D01*
Y846859D01*
X945928Y846642D01*
X945757Y846581D01*
X945563Y846728D01*
Y847837D01*
X945628D01*
Y851675D01*
X946817D01*
X947077Y851416D01*
D02*
G37*
G36*
X953316Y847035D02*
X953109Y846828D01*
X953620Y846317D01*
X953625Y846309D01*
X953640Y846297D01*
X953648Y846289D01*
X953660Y846271D01*
X956511Y843396D01*
X956734Y842857D01*
X957144Y842447D01*
X957144Y842417D01*
X957038Y841947D01*
X949166D01*
X948831Y842447D01*
X948867Y842532D01*
Y843120D01*
X948642Y843662D01*
X948227Y844077D01*
X948011Y844167D01*
X946982Y845196D01*
X947266Y845620D01*
X947401Y845564D01*
X947989D01*
X948475Y845765D01*
X948927Y845855D01*
X949382Y846159D01*
X950904Y847681D01*
X950904Y847681D01*
X951740Y848516D01*
X952044Y848972D01*
X952079Y849147D01*
X952595Y849180D01*
X953316Y847035D01*
D02*
G37*
G36*
X945914Y842551D02*
Y842532D01*
X945950Y842447D01*
X945616Y841947D01*
X943724D01*
Y844088D01*
X944186Y844280D01*
X945914Y842551D01*
D02*
G37*
G36*
X1014499Y838191D02*
X1011896D01*
X1011809Y838628D01*
X1011770Y838687D01*
Y838878D01*
X1011545Y839421D01*
X1011130Y839836D01*
X1010587Y840061D01*
X1010000D01*
X1009457Y839836D01*
X1009042Y839421D01*
X1008817Y838878D01*
Y838291D01*
X1009042Y837748D01*
X1009284Y837506D01*
Y836903D01*
X1009309Y836777D01*
Y834451D01*
X1014499D01*
Y831898D01*
X1007931D01*
Y829811D01*
X1007650Y829529D01*
X1003666D01*
Y825593D01*
X1007741D01*
Y826566D01*
X1008078D01*
X1008616Y826673D01*
X1009072Y826977D01*
X1009918Y827824D01*
X1014499D01*
Y818007D01*
X1014034Y817904D01*
X1013999Y817912D01*
X1012955Y819473D01*
X1011611Y820817D01*
X1010032Y821873D01*
X1008276Y822600D01*
X1006413Y822970D01*
X1004513D01*
X1002649Y822600D01*
X1000894Y821873D01*
X999314Y820817D01*
X997970Y819473D01*
X996915Y817894D01*
X996188Y816138D01*
X995817Y814275D01*
Y812375D01*
X996188Y810511D01*
X996915Y808756D01*
X997970Y807176D01*
X999314Y805832D01*
X1000876Y804789D01*
X1000883Y804753D01*
X1000780Y804289D01*
X991268D01*
Y805495D01*
X993176Y807404D01*
X993360Y807679D01*
X993955D01*
Y811198D01*
X994151Y811616D01*
X994151D01*
X994151Y811616D01*
Y821065D01*
X993955D01*
Y822443D01*
X983128D01*
Y821065D01*
X982931D01*
Y813524D01*
X982454Y813245D01*
X982431Y813248D01*
X982144Y813305D01*
X981223D01*
Y816833D01*
X981855D01*
Y820770D01*
X981205D01*
Y821395D01*
X981393Y821520D01*
X981676Y821944D01*
X981775Y822443D01*
Y823427D01*
X981834Y823499D01*
X985368D01*
X985402Y823492D01*
X998439D01*
X998977Y823599D01*
X999433Y823903D01*
X1001122Y825593D01*
X1003141D01*
Y829529D01*
X999066D01*
Y828353D01*
X998566Y828146D01*
X998300Y828412D01*
X997757Y828637D01*
X997170D01*
X996962Y828551D01*
X993955D01*
Y829169D01*
X992576D01*
X992309Y829669D01*
X992326Y829694D01*
X993955D01*
Y830089D01*
X1001338D01*
X1001841Y830189D01*
X1002266Y830473D01*
X1003685Y831892D01*
X1007341D01*
Y835632D01*
X1001829D01*
Y833748D01*
X1000795Y832714D01*
X993955D01*
Y833768D01*
X990018D01*
Y832222D01*
X989532Y832187D01*
Y832187D01*
X985457D01*
Y828250D01*
X985753D01*
Y826641D01*
X985395Y826309D01*
X976798D01*
X976261Y826202D01*
X975805Y825897D01*
X974654Y824746D01*
X974644Y824732D01*
X974368D01*
X973869Y824632D01*
X973446Y824350D01*
X973163Y823926D01*
X973063Y823427D01*
Y822443D01*
X973163Y821944D01*
X973446Y821520D01*
X973732Y821329D01*
Y820770D01*
X973180D01*
Y816833D01*
X975029D01*
X975194Y816529D01*
X974946Y816045D01*
X972420D01*
X964019Y818008D01*
X963946Y818011D01*
X963875Y818028D01*
X948729Y818763D01*
X948527Y818825D01*
X948370Y819281D01*
X948437Y819380D01*
X948498Y819687D01*
Y830088D01*
X948960Y830279D01*
X949735Y829503D01*
X949996Y829329D01*
X950303Y829268D01*
X950495D01*
X950945Y829082D01*
X951532D01*
X951981Y829268D01*
X952455D01*
X952935Y829069D01*
X953522D01*
X954002Y829268D01*
X954544D01*
X954993Y829082D01*
X955581D01*
X956030Y829268D01*
X956835D01*
X957102Y829157D01*
X957689D01*
X957957Y829268D01*
X958906D01*
X959173Y829157D01*
X959761D01*
X960028Y829268D01*
X961081D01*
X961388Y829329D01*
X961648Y829503D01*
X961822Y829764D01*
X961884Y830071D01*
Y832595D01*
X962019Y832798D01*
X962080Y833105D01*
Y833631D01*
X964722D01*
Y830711D01*
X967872D01*
Y826774D01*
X971809D01*
Y829051D01*
X972459Y829701D01*
X972834D01*
X973336Y829801D01*
X973762Y830086D01*
X974846Y831170D01*
X976927D01*
Y835245D01*
X973049D01*
X972843Y835552D01*
X971933Y836463D01*
Y840467D01*
X972352Y840584D01*
X972433Y840588D01*
X972833Y840187D01*
X973376Y839963D01*
X973381D01*
X978272Y835071D01*
Y833867D01*
X977616D01*
Y829792D01*
X981553D01*
Y833867D01*
X980897D01*
Y835615D01*
X980797Y836117D01*
X980513Y836543D01*
X976819Y840237D01*
X976913Y840720D01*
X977360Y840913D01*
X978426Y839847D01*
X981210Y837063D01*
X983994Y839847D01*
X985778Y838063D01*
X985850Y837956D01*
X988464Y835342D01*
X988889Y835057D01*
X989392Y834957D01*
X996418D01*
X996728Y834829D01*
X997315D01*
X997858Y835054D01*
X998273Y835469D01*
X998498Y836012D01*
Y836599D01*
X998273Y837142D01*
X997858Y837557D01*
X997852Y837559D01*
X997951Y838059D01*
X1000744D01*
X1001247Y838159D01*
X1001672Y838444D01*
X1006620Y843392D01*
X1007285D01*
X1007365Y843408D01*
X1008241D01*
X1008543Y842908D01*
X1008423Y842618D01*
Y842031D01*
X1008648Y841488D01*
X1009063Y841073D01*
X1009606Y840848D01*
X1010193D01*
X1010736Y841073D01*
X1011151Y841488D01*
X1011315Y841884D01*
X1012735Y843304D01*
X1012804Y843408D01*
X1014499D01*
Y838191D01*
D02*
G37*
G36*
X1001849Y842332D02*
X1000201Y840685D01*
X999310D01*
X999211Y841185D01*
X999417Y841270D01*
X999832Y841685D01*
X1000057Y842228D01*
Y842795D01*
X1001657D01*
X1001849Y842332D01*
D02*
G37*
G36*
X913412Y843513D02*
X911376D01*
X910981Y843677D01*
X910393D01*
X909851Y843452D01*
X909435Y843037D01*
X909211Y842494D01*
Y841907D01*
X909435Y841364D01*
X909851Y840949D01*
X910393Y840724D01*
X910981D01*
X911376Y840888D01*
X913412D01*
Y837334D01*
X908281Y832202D01*
X905274D01*
X905196Y832187D01*
X904461D01*
Y824707D01*
X905048D01*
X908048Y823155D01*
X907881Y822678D01*
X906413Y822970D01*
X904513D01*
X902649Y822600D01*
X900894Y821873D01*
X899314Y820817D01*
X897970Y819473D01*
X896927Y817912D01*
X896891Y817904D01*
X896427Y818007D01*
Y844003D01*
X896711Y844385D01*
X900648D01*
Y844687D01*
X903777D01*
X903893Y844405D01*
X903934Y844187D01*
X903593Y843677D01*
X903471Y843063D01*
X903471Y843063D01*
Y842226D01*
X903593Y841612D01*
X903941Y841091D01*
X904462Y840743D01*
X905077Y840621D01*
X905691Y840743D01*
X906212Y841091D01*
X906560Y841612D01*
X906682Y842226D01*
Y842398D01*
X908972Y844687D01*
X913412D01*
Y843513D01*
D02*
G37*
G36*
X920818Y845967D02*
X921826D01*
X922018Y845505D01*
X917085Y840572D01*
X916623Y840764D01*
Y845737D01*
X919545D01*
Y846462D01*
X920818D01*
Y845967D01*
D02*
G37*
G36*
X958986Y851654D02*
X959035Y851605D01*
X959043Y851593D01*
X961127Y849558D01*
X963772Y846912D01*
X964432Y847572D01*
X964529Y847639D01*
X964659Y847728D01*
X964659Y847728D01*
X964660Y847729D01*
X966914Y850054D01*
X968025Y851165D01*
X968482Y851414D01*
X970469Y849428D01*
X969657Y848616D01*
X971031Y847242D01*
X968298Y844509D01*
X968014Y844083D01*
X967914Y843581D01*
Y842458D01*
X965422Y839966D01*
X964960Y840158D01*
Y841318D01*
X965443Y841801D01*
X964960Y842284D01*
Y842647D01*
X964960Y842647D01*
X964899Y842954D01*
X964725Y843215D01*
X964725Y843215D01*
X964147Y843793D01*
Y844642D01*
X964147Y844642D01*
X964086Y844950D01*
X964057Y844993D01*
X964103Y845226D01*
X964042Y845533D01*
X963868Y845793D01*
X963868Y845793D01*
X959193Y850468D01*
X958681Y851167D01*
X958942Y851656D01*
X958986Y851654D01*
D02*
G37*
G36*
X953635Y856695D02*
X958582Y849944D01*
X963300Y845226D01*
X963031Y844956D01*
X963344Y844642D01*
Y843788D01*
X963181Y843624D01*
X964158Y842647D01*
Y838702D01*
X963647Y838191D01*
X961671D01*
Y839395D01*
X958390Y842676D01*
X958373Y842658D01*
X954230Y846836D01*
X952151Y853021D01*
Y853053D01*
X952044Y853591D01*
X951740Y854047D01*
X949771Y856015D01*
X949467Y856219D01*
Y856400D01*
X948913D01*
X948777Y856427D01*
X947006D01*
X946952Y856416D01*
X945367Y856433D01*
Y859527D01*
X946038Y859534D01*
X948737D01*
X953635Y856695D01*
D02*
G37*
G36*
X990918Y838444D02*
X991344Y838159D01*
X991730Y838083D01*
X991681Y837583D01*
X989935D01*
X988616Y838902D01*
X989538Y839824D01*
X990918Y838444D01*
D02*
G37*
G36*
X926976Y840163D02*
X923429Y836616D01*
X922799D01*
X922623Y837116D01*
X926131Y840625D01*
X926785D01*
X926976Y840163D01*
D02*
G37*
G36*
X969307Y839486D02*
Y835919D01*
X969407Y835417D01*
X969692Y834991D01*
X970603Y834080D01*
Y831557D01*
X970150Y831104D01*
X968659D01*
Y835041D01*
X968003D01*
Y838835D01*
X968845Y839677D01*
X969307Y839486D01*
D02*
G37*
G36*
X933545Y832311D02*
X933177Y832159D01*
X932762Y831744D01*
X932537Y831201D01*
Y830614D01*
X932762Y830071D01*
X933177Y829656D01*
X933720Y829431D01*
X934307D01*
X934850Y829656D01*
X934937Y829743D01*
X935638D01*
X936140Y829842D01*
X936566Y830127D01*
X936784Y830345D01*
X937246Y830154D01*
Y826118D01*
X933718D01*
X933323Y826282D01*
X932736D01*
X932193Y826057D01*
X931778Y825641D01*
X931553Y825099D01*
Y824511D01*
X931778Y823969D01*
X931820Y823927D01*
X931793Y823729D01*
X931653Y823386D01*
X931209Y823202D01*
X930986Y822979D01*
X930486Y823186D01*
Y831892D01*
X930425Y832199D01*
X930417Y832210D01*
X930532Y832727D01*
X930817Y832811D01*
X933446D01*
X933545Y832311D01*
D02*
G37*
G36*
X915778Y834505D02*
Y825554D01*
X915304Y825396D01*
X911325Y830705D01*
X915316Y834696D01*
X915778Y834505D01*
D02*
G37*
G36*
X919151Y830295D02*
Y825156D01*
X918651Y824889D01*
X918588Y824932D01*
Y830070D01*
X919088Y830337D01*
X919151Y830295D01*
D02*
G37*
G36*
X937246Y822640D02*
X937258Y822582D01*
X936941Y822115D01*
X936886Y822082D01*
X933770D01*
X933461Y822392D01*
X933297Y822787D01*
X933255Y822829D01*
X933282Y823026D01*
X933422Y823370D01*
X933718Y823493D01*
X937246D01*
Y822640D01*
D02*
G37*
G36*
X929683Y819785D02*
X922498D01*
Y822738D01*
X920862D01*
X920726Y822765D01*
X920357D01*
X920037Y823085D01*
Y831892D01*
X929683D01*
Y819785D01*
D02*
G37*
G36*
X947695Y819687D02*
X940608D01*
Y822640D01*
X938049D01*
Y831610D01*
X938331Y831892D01*
X947695D01*
Y819687D01*
D02*
G37*
G36*
X977788Y822970D02*
Y822443D01*
X977887Y821944D01*
X978170Y821520D01*
X978395Y821370D01*
Y820770D01*
X977780D01*
Y819507D01*
X977280Y819239D01*
X977255Y819256D01*
Y820770D01*
X976542D01*
Y821436D01*
X976668Y821520D01*
X976951Y821944D01*
X977051Y822443D01*
Y823006D01*
X977288Y823204D01*
X977788Y822970D01*
D02*
G37*
G36*
X931209Y820699D02*
X931604Y820535D01*
X932298Y819841D01*
X932724Y819557D01*
X933226Y819457D01*
X937459D01*
Y818900D01*
X936993Y818817D01*
X930600D01*
X930511Y818855D01*
X930434Y818962D01*
X930317Y819317D01*
X930425Y819478D01*
X930486Y819785D01*
Y820715D01*
X930986Y820922D01*
X931209Y820699D01*
D02*
G37*
G36*
X1014499Y808643D02*
Y807992D01*
X1014485Y807884D01*
X1014399Y807419D01*
X1014399D01*
X1014414Y806930D01*
X1014339Y806637D01*
X1014339D01*
X1014205Y806184D01*
X1014196Y806163D01*
X1014131Y806005D01*
X1014002Y805779D01*
X1013878Y805616D01*
X1013813Y805608D01*
X1013805Y805605D01*
X1013727Y805416D01*
X1013557Y805230D01*
X1013371Y805060D01*
X1013182Y804982D01*
X1013179Y804975D01*
X1013172Y804909D01*
X1013008Y804785D01*
X1012782Y804657D01*
X1012624Y804591D01*
X1012463Y804527D01*
X1012151Y804448D01*
X1012150Y804448D01*
X1012147Y804447D01*
X1011976Y804376D01*
X1011844Y804355D01*
X1011368Y804389D01*
Y804389D01*
X1010894Y804303D01*
X1010775Y804289D01*
X1010145D01*
X1010042Y804753D01*
X1010049Y804789D01*
X1011611Y805832D01*
X1012955Y807176D01*
X1013999Y808738D01*
X1014034Y808745D01*
X1014499Y808643D01*
D02*
G37*
G36*
X982931Y811714D02*
Y811616D01*
X983029D01*
X983817Y810829D01*
X990608D01*
X990707Y810730D01*
Y808908D01*
X990167Y808368D01*
X986376D01*
X985417Y807409D01*
X985195D01*
X984696Y807310D01*
X984272Y807027D01*
X983990Y806604D01*
X983890Y806104D01*
Y805882D01*
X982734Y804726D01*
Y804431D01*
X977616D01*
X976140Y805908D01*
Y812502D01*
X982144D01*
X982931Y811714D01*
D02*
G37*
G36*
X919896Y817930D02*
X919979Y818014D01*
X947596D01*
X963837Y817226D01*
X974368Y814766D01*
Y804341D01*
X915707D01*
Y816904D01*
X912206Y821908D01*
X905274Y825494D01*
Y831400D01*
X909801D01*
X919896Y817930D01*
D02*
G37*
G36*
X914904Y809606D02*
Y804341D01*
X914861Y804289D01*
X910145D01*
X910042Y804753D01*
X910049Y804789D01*
X911611Y805832D01*
X912955Y807176D01*
X914010Y808756D01*
X914404Y809706D01*
X914904Y809606D01*
D02*
G37*
G36*
X896927Y808738D02*
X897970Y807176D01*
X899314Y805832D01*
X900876Y804789D01*
X900883Y804753D01*
X900780Y804289D01*
X900150D01*
X900022Y804304D01*
X899557Y804389D01*
Y804389D01*
X899111Y804360D01*
X898775Y804448D01*
X898775Y804448D01*
X898322Y804583D01*
X898301Y804591D01*
X898143Y804657D01*
X897917Y804785D01*
X897753Y804909D01*
X897746Y804975D01*
X897743Y804982D01*
X897554Y805060D01*
X897368Y805230D01*
X897198Y805416D01*
X897120Y805606D01*
X897112Y805608D01*
X897047Y805616D01*
X896923Y805779D01*
X896794Y806005D01*
X896729Y806163D01*
X896663Y806328D01*
X896586Y806637D01*
X896586Y806637D01*
X896585Y806641D01*
X896511Y806925D01*
X896526Y807419D01*
X896526D01*
X896440Y807884D01*
X896427Y807992D01*
Y808643D01*
X896891Y808745D01*
X896927Y808738D01*
D02*
G37*
%LPC*%
G36*
X998481Y851774D02*
X997893D01*
X997351Y851549D01*
X996935Y851134D01*
X996711Y850591D01*
Y850004D01*
X996935Y849461D01*
X997351Y849046D01*
X997893Y848821D01*
X998481D01*
X999023Y849046D01*
X999439Y849461D01*
X999663Y850004D01*
Y850591D01*
X999439Y851134D01*
X999023Y851549D01*
X998481Y851774D01*
D02*
G37*
%LPD*%
D12*
X953833Y874313D02*
X954030Y874510D01*
X999266Y871525D02*
X999710Y871082D01*
Y870934D02*
Y871082D01*
X955252Y814175D02*
X957341D01*
X953255Y816045D02*
X955470D01*
X957986Y844856D02*
X958769Y845639D01*
X957986Y843693D02*
Y844856D01*
X955470Y816045D02*
X957341Y814175D01*
X957537Y813978D01*
X951238Y816045D02*
X955470D01*
X953600Y814175D02*
X957341D01*
X953403Y813978D02*
X953600Y814175D01*
X1015287Y876185D02*
G03*
X1015249Y876266I-372J-129D01*
G01*
X1014780Y877011D02*
G03*
X1014725Y877081I-334J-208D01*
G01*
X1014780Y877013D02*
G03*
X1014725Y877081I-333J-209D01*
G01*
X1015287Y876187D02*
G03*
X1015248Y876267I-372J-130D01*
G01*
X1015699Y874348D02*
G03*
X1015696Y874393I-394J0D01*
G01*
X1015598Y875267D02*
G03*
X1015578Y875354I-391J-43D01*
G01*
X1015699Y874348D02*
G03*
X1015696Y874394I-394J0D01*
G01*
X1015598Y875269D02*
G03*
X1015578Y875356I-391J-44D01*
G01*
X1013287Y878228D02*
G03*
X1013206Y878267I-211J-333D01*
G01*
X1012374Y878558D02*
G03*
X1012288Y878578I-130J-372D01*
G01*
X1013286Y878229D02*
G03*
X1013206Y878267I-209J-333D01*
G01*
X1011412Y878677D02*
G03*
X1011368Y878679I-44J-391D01*
G01*
X1011412Y878677D02*
G03*
X1011368Y878679I-44J-391D01*
G01*
X1012374Y878558D02*
G03*
X1012288Y878578I-130J-372D01*
G01*
X1014101Y877705D02*
G03*
X1014032Y877760I-279J-279D01*
G01*
X1014101Y877705D02*
G03*
X1014031Y877761I-279J-279D01*
G01*
X1015696Y807375D02*
G03*
X1015699Y807419I-391J44D01*
G01*
X1015578Y806413D02*
G03*
X1015598Y806501I-372J130D01*
G01*
X1015696Y807374D02*
G03*
X1015699Y807419I-391J46D01*
G01*
X1015578Y806412D02*
G03*
X1015598Y806499I-371J131D01*
G01*
X1015249Y805502D02*
G03*
X1015287Y805582I-333J209D01*
G01*
X1015248Y805500D02*
G03*
X1015287Y805581I-333J211D01*
G01*
X1014725Y804686D02*
G03*
X1014780Y804756I-279J279D01*
G01*
X1014725Y804686D02*
G03*
X1014780Y804755I-279J279D01*
G01*
X1014032Y804008D02*
G03*
X1014101Y804063I-209J333D01*
G01*
X1014031Y804007D02*
G03*
X1014101Y804063I-208J334D01*
G01*
X1013206Y803500D02*
G03*
X1013286Y803539I-130J372D01*
G01*
X1013206Y803500D02*
G03*
X1013287Y803539I-130J372D01*
G01*
X1012288Y803190D02*
G03*
X1012374Y803209I-44J391D01*
G01*
X1012288Y803190D02*
G03*
X1012374Y803209I-44J391D01*
G01*
X1011368Y803088D02*
G03*
X1011412Y803091I0J394D01*
G01*
X1011368Y803088D02*
G03*
X1011412Y803091I0J394D01*
G01*
X899557Y878679D02*
G03*
X899513Y878677I0J-394D01*
G01*
X899557Y878679D02*
G03*
X899513Y878677I0J-394D01*
G01*
X898637Y878578D02*
G03*
X898551Y878558I44J-391D01*
G01*
X897719Y878267D02*
G03*
X897639Y878229I130J-372D01*
G01*
X898637Y878578D02*
G03*
X898551Y878558I44J-391D01*
G01*
X897719Y878267D02*
G03*
X897638Y878228I130J-372D01*
G01*
X896894Y877761D02*
G03*
X896824Y877705I208J-334D01*
G01*
X896893Y877760D02*
G03*
X896824Y877705I209J-333D01*
G01*
X896200Y877081D02*
G03*
X896146Y877013I279J-279D01*
G01*
X896200Y877081D02*
G03*
X896145Y877011I279J-279D01*
G01*
X895677Y876267D02*
G03*
X895638Y876187I333J-211D01*
G01*
X895677Y876266D02*
G03*
X895638Y876185I333J-209D01*
G01*
X895347Y875356D02*
G03*
X895327Y875269I371J-131D01*
G01*
X895347Y875354D02*
G03*
X895327Y875267I372J-130D01*
G01*
X895229Y874394D02*
G03*
X895226Y874348I391J-46D01*
G01*
X895229Y874393D02*
G03*
X895226Y874348I391J-44D01*
G01*
X898551Y803209D02*
G03*
X898637Y803190I130J372D01*
G01*
X897638Y803539D02*
G03*
X897719Y803500I211J333D01*
G01*
X896824Y804063D02*
G03*
X896893Y804008I279J279D01*
G01*
X896824Y804063D02*
G03*
X896894Y804007I279J279D01*
G01*
X899513Y803091D02*
G03*
X899557Y803088I44J391D01*
G01*
X899513Y803091D02*
G03*
X899557Y803088I44J391D01*
G01*
X897639Y803539D02*
G03*
X897719Y803500I209J333D01*
G01*
X898551Y803209D02*
G03*
X898637Y803190I130J372D01*
G01*
X895327Y806499D02*
G03*
X895347Y806412I391J44D01*
G01*
X895226Y807419D02*
G03*
X895229Y807375I394J0D01*
G01*
X895226Y807419D02*
G03*
X895229Y807374I394J0D01*
G01*
X895327Y806501D02*
G03*
X895347Y806413I391J43D01*
G01*
X896146Y804755D02*
G03*
X896200Y804686I333J209D01*
G01*
X895638Y805581D02*
G03*
X895677Y805500I372J130D01*
G01*
X895638Y805582D02*
G03*
X895677Y805502I372J129D01*
G01*
X896145Y804756D02*
G03*
X896200Y804686I334J208D01*
G01*
X1014780Y877013D02*
X1014780Y877011D01*
X1015248Y876267D01*
X1015249Y876266D01*
X1015287Y876187D02*
X1015287Y876185D01*
X1015578Y875356D01*
X1015578Y875354D01*
X1014101Y877705D02*
X1014725Y877081D01*
X1015598Y875269D02*
X1015598Y875267D01*
X1015696Y874394D01*
X1015696Y874393D01*
X1015699Y807419D02*
Y874348D01*
X1012374Y878558D02*
X1013206Y878267D01*
X1014031Y877761D02*
X1014032Y877760D01*
X1013287Y878228D02*
X1014031Y877761D01*
X1013286Y878229D02*
X1013287Y878228D01*
X1011412Y878677D02*
X1012288Y878578D01*
X1015696Y807374D02*
X1015696Y807375D01*
X1015598Y806501D02*
X1015696Y807374D01*
X1015598Y806499D02*
X1015598Y806501D01*
X1015578Y806412D02*
X1015578Y806413D01*
X1015287Y805582D02*
X1015578Y806412D01*
X1015287Y805581D02*
X1015287Y805582D01*
X1015248Y805500D02*
X1015249Y805502D01*
X1014780Y804756D02*
X1015248Y805500D01*
X1014780Y804755D02*
X1014780Y804756D01*
X1014101Y804063D02*
X1014725Y804686D01*
X1014031Y804007D02*
X1014032Y804008D01*
X1013287Y803539D02*
X1014031Y804007D01*
X1013286Y803539D02*
X1013287Y803539D01*
X1012374Y803209D02*
X1013206Y803500D01*
X1011412Y803091D02*
X1012288Y803190D01*
X899557Y878679D02*
X1011368D01*
X898637Y878578D02*
X899513Y878677D01*
X897719Y878267D02*
X898551Y878558D01*
X897638Y878228D02*
X897639Y878229D01*
X896894Y877761D02*
X897638Y878228D01*
X896893Y877760D02*
X896894Y877761D01*
X896200Y877081D02*
X896824Y877705D01*
X896145Y877011D02*
X896146Y877013D01*
X895677Y876267D02*
X896145Y877011D01*
X895677Y876266D02*
X895677Y876267D01*
X895638Y876185D02*
X895638Y876187D01*
X895347Y875356D02*
X895638Y876185D01*
X895347Y875354D02*
X895347Y875356D01*
X895327Y875267D02*
X895327Y875269D01*
X895229Y874394D02*
X895327Y875267D01*
X895229Y874393D02*
X895229Y874394D01*
X897638Y803539D02*
X897639Y803539D01*
X896894Y804007D02*
X897638Y803539D01*
X896893Y804008D02*
X896894Y804007D01*
X899557Y803088D02*
X1011368D01*
X897719Y803500D02*
X898551Y803209D01*
X898637Y803190D02*
X899513Y803091D01*
X895347Y806413D02*
X895347Y806412D01*
X895638Y805582D01*
X895638Y805581D01*
X895226Y807419D02*
Y874348D01*
X895229Y807375D02*
X895229Y807374D01*
X895327Y806501D01*
X895327Y806499D01*
X896200Y804686D02*
X896824Y804063D01*
X895677Y805502D02*
X895677Y805500D01*
X896145Y804756D01*
X896146Y804755D01*
D14*
X942872Y827955D02*
D03*
X988541Y816341D02*
D03*
X942872Y813978D02*
D03*
X924762Y814077D02*
D03*
X924762Y827955D02*
D03*
D15*
X946711Y834746D02*
D03*
X944151D02*
D03*
X941593D02*
D03*
X939033D02*
D03*
X992380Y809549D02*
D03*
X989821D02*
D03*
X987262D02*
D03*
X984703D02*
D03*
X939033Y820770D02*
D03*
X941593D02*
D03*
X944151D02*
D03*
X946711D02*
D03*
X928600Y820868D02*
D03*
X926041D02*
D03*
X923482D02*
D03*
X920923D02*
D03*
X928600Y834746D02*
D03*
X926041D02*
D03*
X923482D02*
D03*
X920923D02*
D03*
D16*
X946711Y823427D02*
D03*
X944151D02*
D03*
X941593D02*
D03*
X939033D02*
D03*
X992380Y820868D02*
D03*
X989821D02*
D03*
X987262D02*
D03*
X984703D02*
D03*
X939033Y809451D02*
D03*
X941593D02*
D03*
X944151D02*
D03*
X946711D02*
D03*
X928600Y809549D02*
D03*
X926041D02*
D03*
X923482D02*
D03*
X920923D02*
D03*
X928600Y823427D02*
D03*
X926041D02*
D03*
X923482D02*
D03*
X920923D02*
D03*
D17*
X963049Y835668D02*
D03*
Y831068D02*
D03*
X974959Y833208D02*
D03*
Y828607D02*
D03*
X968659Y863548D02*
D03*
Y868148D02*
D03*
X1001193Y849432D02*
D03*
Y844832D02*
D03*
X1013148Y825261D02*
D03*
Y829861D02*
D03*
X1009900Y825261D02*
D03*
Y829861D02*
D03*
X991986Y827131D02*
D03*
Y831731D02*
D03*
X971809Y863548D02*
D03*
Y868148D02*
D03*
X898679Y846422D02*
D03*
Y851022D02*
D03*
X917577Y847774D02*
D03*
Y843174D02*
D03*
X979585Y831829D02*
D03*
Y827229D02*
D03*
X1012163Y866698D02*
D03*
Y871298D02*
D03*
D18*
X969841Y832876D02*
D03*
Y828939D02*
D03*
X966691D02*
D03*
Y832876D02*
D03*
D19*
X965863Y845005D02*
D03*
X962611Y841752D02*
D03*
X919297Y851525D02*
D03*
X922550Y854778D02*
D03*
X922254Y865211D02*
D03*
X919001Y861958D02*
D03*
X921270Y858813D02*
D03*
X918017Y855561D02*
D03*
D20*
X957901Y846331D02*
D03*
X963276Y851705D02*
D03*
D21*
X975549Y868211D02*
D03*
Y861911D02*
D03*
D22*
X962951Y859883D02*
D03*
Y867483D02*
D03*
X912153Y874841D02*
D03*
Y867241D02*
D03*
D23*
X972302Y849452D02*
D03*
X973694Y848059D02*
D03*
X975086Y846668D02*
D03*
X976478Y845276D02*
D03*
X977869Y843884D02*
D03*
X979261Y842492D02*
D03*
X980653Y841100D02*
D03*
X982045Y839708D02*
D03*
X995686Y853349D02*
D03*
X994294Y854741D02*
D03*
X992902Y856133D02*
D03*
X991510Y857525D02*
D03*
X990119Y858917D02*
D03*
X988727Y860309D02*
D03*
X987335Y861701D02*
D03*
X985943Y863093D02*
D03*
D24*
Y839708D02*
D03*
X987335Y841100D02*
D03*
X988727Y842492D02*
D03*
X990119Y843884D02*
D03*
X991510Y845276D02*
D03*
X992902Y846668D02*
D03*
X994294Y848059D02*
D03*
X995686Y849452D02*
D03*
X982045Y863093D02*
D03*
X980653Y861701D02*
D03*
X979261Y860309D02*
D03*
X977869Y858917D02*
D03*
X976478Y857525D02*
D03*
X975086Y856133D02*
D03*
X973694Y854741D02*
D03*
X972302Y853349D02*
D03*
D25*
X983994Y851400D02*
D03*
D26*
X995566Y875888D02*
D03*
X990966D02*
D03*
X989230Y805514D02*
D03*
X993830D02*
D03*
X1001103Y827561D02*
D03*
X1005704D02*
D03*
X979818Y818801D02*
D03*
X975218D02*
D03*
X1012557Y845376D02*
D03*
X1007957D02*
D03*
X1012459Y849313D02*
D03*
X1007859D02*
D03*
X1011511Y875888D02*
D03*
X1006911D02*
D03*
X998938D02*
D03*
X1003538D02*
D03*
X982895Y830219D02*
D03*
X987495D02*
D03*
X983190Y827167D02*
D03*
X987790D02*
D03*
X962396Y872935D02*
D03*
X957796D02*
D03*
Y875986D02*
D03*
X962396D02*
D03*
X954030Y874510D02*
D03*
X949430D02*
D03*
Y871459D02*
D03*
X954030D02*
D03*
X931320Y876282D02*
D03*
X935920D02*
D03*
X921835Y874608D02*
D03*
X926435D02*
D03*
X921773Y870474D02*
D03*
X926373D02*
D03*
X927456Y847935D02*
D03*
X922855D02*
D03*
X1010133Y858565D02*
D03*
X1005533D02*
D03*
D27*
X975057Y822935D02*
D03*
X979781D02*
D03*
X985884Y805612D02*
D03*
X981159D02*
D03*
D28*
X965903Y814274D02*
D03*
Y811715D02*
D03*
Y809155D02*
D03*
Y806596D02*
D03*
D29*
X977222Y814274D02*
D03*
Y811715D02*
D03*
Y809155D02*
D03*
Y806596D02*
D03*
D30*
X970431Y810435D02*
D03*
D31*
X1004585Y838880D02*
D03*
Y833762D02*
D03*
X1012065Y836321D02*
D03*
D32*
X995923Y871754D02*
D03*
Y869195D02*
D03*
Y866636D02*
D03*
Y864077D02*
D03*
X1007734D02*
D03*
Y866636D02*
D03*
Y869195D02*
D03*
Y871754D02*
D03*
D33*
X1001829Y867915D02*
D03*
D34*
X937360Y859943D02*
D03*
D35*
X947006Y866833D02*
D03*
X947006Y864864D02*
D03*
Y862896D02*
D03*
Y860927D02*
D03*
Y858959D02*
D03*
Y856990D02*
D03*
Y855022D02*
D03*
Y853053D02*
D03*
X927715Y853053D02*
D03*
X927715Y855022D02*
D03*
Y856990D02*
D03*
Y858959D02*
D03*
Y860927D02*
D03*
Y862896D02*
D03*
Y864864D02*
D03*
Y866833D02*
D03*
D36*
X944250Y850297D02*
D03*
X942282Y850297D02*
D03*
X940313D02*
D03*
X938344D02*
D03*
X936376D02*
D03*
X934407D02*
D03*
X932439D02*
D03*
X930470D02*
D03*
X930470Y869589D02*
D03*
X932439Y869589D02*
D03*
X934407D02*
D03*
X936376D02*
D03*
X938344D02*
D03*
X940313D02*
D03*
X942282D02*
D03*
X944250D02*
D03*
D37*
X907499Y828447D02*
D03*
X899899D02*
D03*
X906318Y861026D02*
D03*
X898718D02*
D03*
X906318Y867719D02*
D03*
X898718D02*
D03*
D38*
X957537Y813978D02*
D03*
Y825789D02*
D03*
D39*
X902915Y846852D02*
D03*
Y850593D02*
D03*
Y854333D02*
D03*
X911569D02*
D03*
Y850593D02*
D03*
Y846852D02*
D03*
D68*
X994053Y842719D02*
Y842726D01*
X991510Y845268D02*
X994053Y842726D01*
X991510Y845268D02*
Y845276D01*
X973817Y841516D02*
Y842905D01*
X975229Y844317D01*
X975508D01*
X975642Y844452D01*
X969226Y841914D02*
Y843581D01*
X972869Y847224D01*
X970620Y842202D02*
X972574Y844156D01*
X970620Y835919D02*
Y842202D01*
X972574Y844156D02*
X972574D01*
X975086Y846668D01*
X966691Y839379D02*
X969226Y841914D01*
X926435Y847482D02*
X927003D01*
X927456Y847935D01*
X979585Y831829D02*
Y835615D01*
X973669Y841439D02*
X973894D01*
X976130Y842144D02*
X977869Y843884D01*
X973894Y841306D02*
X979585Y835615D01*
X973894Y841306D02*
Y841439D01*
X973817Y841516D02*
X973894Y841439D01*
X944250Y846072D02*
X947391Y842931D01*
Y842826D02*
Y842931D01*
X944170Y876619D02*
X957164D01*
X940313Y872762D02*
X944170Y876619D01*
X957164D02*
X957796Y875986D01*
X993777Y866804D02*
X995755D01*
X993629Y866952D02*
X993777Y866804D01*
X995755D02*
X995923Y866636D01*
X989392Y836270D02*
X996986D01*
X997021Y836305D01*
X986778Y838884D02*
X989392Y836270D01*
X934014Y830908D02*
X934161Y831055D01*
X935638D01*
X938746Y834163D02*
Y834459D01*
X939033Y834746D01*
X935638Y831055D02*
X938746Y834163D01*
X921642Y865014D02*
X921792Y864864D01*
X921861Y865014D02*
X922353Y865506D01*
X921642Y865014D02*
X921861D01*
X921544D02*
X921642D01*
X921593Y865063D02*
X921642Y865014D01*
X921544D02*
X921593Y865063D01*
X944250Y846072D02*
Y850297D01*
X970620Y835919D02*
X971915Y834624D01*
X1000744Y839372D02*
X1006077Y844704D01*
X988727Y842492D02*
X991846Y839372D01*
X1000744D01*
X987426Y829529D02*
X989853D01*
X987200Y827167D02*
Y829303D01*
X966691Y832876D02*
Y839379D01*
X963049Y835737D02*
X966691Y839379D01*
X963049Y835668D02*
Y835737D01*
X971915Y831014D02*
X972834D01*
X974959Y833139D01*
Y833208D01*
X970037Y829333D02*
X970522Y829817D01*
X970718D02*
X971915Y831014D01*
X970522Y829817D02*
X970718D01*
X971915Y831014D02*
Y834624D01*
X977869Y843884D02*
Y843884D01*
X968758Y852995D02*
X972302Y849452D01*
X968758Y852995D02*
Y863486D01*
X972302Y849452D02*
Y849452D01*
X921792Y864864D02*
X927715D01*
X954629Y870860D02*
X978116D01*
X979486Y869490D01*
X973694Y854741D02*
Y854741D01*
X971809Y856625D02*
X973694Y854741D01*
X971809Y856625D02*
Y863548D01*
X975451Y858563D02*
Y859375D01*
X975445Y859382D02*
X975451Y859375D01*
X975445Y859382D02*
Y861350D01*
X975679Y861585D01*
X975451Y858563D02*
X976478Y857536D01*
X979486Y862879D02*
Y869490D01*
Y862879D02*
X980653Y861712D01*
X976478Y857525D02*
Y857536D01*
X980653Y861701D02*
Y861712D01*
X954030Y871459D02*
X954629Y870860D01*
X982045Y863093D02*
Y872246D01*
X986006Y863156D02*
Y863167D01*
X984998Y864175D02*
X986006Y863167D01*
X985943Y863093D02*
X986006Y863156D01*
X1009900Y842325D02*
X1011807Y844232D01*
X1010596Y836903D02*
Y838126D01*
X1011807Y844695D02*
X1012488Y845376D01*
X1010293Y838429D02*
Y838585D01*
X1010596Y836903D02*
X1011179Y836321D01*
X1011807Y844232D02*
Y844695D01*
X1010293Y838429D02*
X1010596Y838126D01*
X1011179Y836321D02*
X1012065D01*
X1012488Y845376D02*
X1012557D01*
X978305Y875986D02*
X982045Y872246D01*
X987200Y829303D02*
X987426Y829529D01*
X991986Y831731D02*
X992316Y831401D01*
X1001338D01*
X1003699Y833762D01*
X1003994D02*
X1004585D01*
X940395Y824608D02*
X942389Y826602D01*
X942475D01*
X933029Y824805D02*
X939821D01*
X942095Y827177D02*
X942872Y827955D01*
X939735Y824719D02*
X942047Y827031D01*
X939821Y824805D02*
X939958Y824941D01*
X942095Y826983D02*
Y827177D01*
X940395Y824522D02*
Y824608D01*
X1003994Y833762D02*
X1003994Y833762D01*
X1003699Y833762D02*
X1003994D01*
X1006077Y844704D02*
X1007285D01*
X1007957Y845376D01*
X926541Y850896D02*
Y852963D01*
X926632Y853053D01*
X927715D01*
X921073Y859010D02*
X922990Y860927D01*
X914500Y842200D02*
X915018Y842719D01*
X910687Y842200D02*
X914500D01*
X933226Y820770D02*
X939033D01*
X932045Y821951D02*
X933226Y820770D01*
X962396Y875986D02*
X978305D01*
X957796Y872837D02*
Y875986D01*
X940313Y869589D02*
Y872762D01*
X949430Y871163D02*
Y874707D01*
X942372Y869679D02*
Y871844D01*
X945234Y874707D01*
X949430D01*
X942282Y869589D02*
X942372Y869679D01*
X1007859Y849313D02*
X1007908Y849264D01*
Y845425D02*
Y849264D01*
Y845425D02*
X1007957Y845376D01*
X989853Y829529D02*
X991986Y831662D01*
Y831731D01*
X928079Y873034D02*
X932931D01*
X934317Y869679D02*
Y871648D01*
X932931Y873034D02*
X934317Y871648D01*
X926504Y874608D02*
X928079Y873034D01*
X934317Y869679D02*
X934407Y869589D01*
X936285Y869679D02*
Y875916D01*
X935920Y876282D02*
X936285Y875916D01*
Y869679D02*
X936376Y869589D01*
X926435Y874608D02*
X926504D01*
X930380Y870474D02*
X930470Y870384D01*
X926373Y870474D02*
X930380D01*
X930470Y869589D02*
Y870384D01*
X922990Y860927D02*
X927715D01*
X923482Y852349D02*
X926065Y854931D01*
X923482Y848562D02*
Y852349D01*
X922855Y847935D02*
X923482Y848562D01*
X917577Y847774D02*
X922695D01*
X927624Y854931D02*
X927715Y855022D01*
X926065Y854931D02*
X927624D01*
X917872Y848500D02*
X917957Y848414D01*
D69*
X947808Y847153D02*
X948389D01*
X949911Y848675D02*
X949911D01*
X947695Y847040D02*
X947808Y847153D01*
X948389D02*
X949911Y848675D01*
X949911D02*
X950746Y849510D01*
X933496Y842029D02*
X936376Y844909D01*
X931002Y845218D02*
X932439Y846655D01*
X918968Y837811D02*
X924801Y843644D01*
X923718Y845218D02*
X931002D01*
X921093Y837574D02*
X925549Y842029D01*
X924801Y843644D02*
X932281D01*
X923897Y828977D02*
X925374D01*
X917183Y838683D02*
X923718Y845218D01*
X925549Y842029D02*
X933496D01*
X921948Y831348D02*
X924108Y829188D01*
X932281Y843644D02*
X934407Y845770D01*
X995566Y875888D02*
X995600Y875922D01*
X995681D01*
X995566Y875888D02*
X998938D01*
X999037D01*
X987335Y861840D02*
X989142Y863647D01*
X987335Y861701D02*
Y861840D01*
X989142Y863647D02*
Y863798D01*
X997449Y827146D02*
X997463Y827161D01*
X992001Y827146D02*
X997449D01*
X991986Y827131D02*
X992001Y827146D01*
X1008078Y827971D02*
X1009900Y829792D01*
X1006113Y827971D02*
X1008078D01*
X1005704Y827561D02*
X1006113Y827971D01*
X1009900Y829861D02*
X1013148D01*
X950746Y849510D02*
Y853053D01*
X1001035Y827561D02*
X1001103D01*
X1000444Y826902D02*
Y826970D01*
X1001035Y827561D01*
X985402Y824897D02*
X998439D01*
X1000444Y826902D01*
X997522Y844832D02*
X1001193D01*
X994294Y848059D02*
X997522Y844832D01*
X975877Y818142D02*
Y818211D01*
X976730Y814470D02*
Y817289D01*
X975877Y818142D02*
X976730Y817289D01*
X975287Y818801D02*
X975877Y818211D01*
X975218Y818801D02*
X975287D01*
X976730Y814470D02*
X976927Y814274D01*
X975137Y818882D02*
X975218Y818801D01*
X976927Y814274D02*
X977222D01*
X975648Y823329D02*
Y823753D01*
X976798Y824903D02*
X985395D01*
X975648Y823753D02*
X976798Y824903D01*
X975254Y822935D02*
X975648Y823329D01*
X1000902Y858565D02*
X1005533D01*
X1000648Y858820D02*
Y860435D01*
Y858820D02*
X1000902Y858565D01*
X995686Y853349D02*
X1000902Y858565D01*
X1007833Y869293D02*
X1010227D01*
X1012163Y871229D02*
Y871298D01*
X1007734Y869195D02*
X1007833Y869293D01*
X1010227D02*
X1012163Y871229D01*
X1007009Y871754D02*
X1007734D01*
X1006911Y871852D02*
Y875888D01*
Y871852D02*
X1007009Y871754D01*
X985395Y824903D02*
X985402Y824897D01*
X980569Y806006D02*
X980963Y805612D01*
X979818Y806954D02*
X980569Y806203D01*
Y806006D02*
Y806203D01*
X979818Y806954D02*
Y818801D01*
X980963Y805612D02*
X981159D01*
X979800Y818819D02*
Y822917D01*
X979781Y822935D02*
X979800Y822917D01*
Y818819D02*
X979818Y818801D01*
X992183Y808398D02*
Y809352D01*
X992380Y809549D01*
X989230Y805514D02*
X989299D01*
X992183Y808398D01*
X985933Y805563D02*
X989181D01*
X985884Y805612D02*
X985933Y805563D01*
X989181D02*
X989230Y805514D01*
X975137Y818882D02*
Y822855D01*
X975057Y822935D02*
X975137Y822855D01*
X1009900Y829792D02*
Y829861D01*
X912153Y867241D02*
X913702Y868791D01*
X915949D02*
X921175Y874018D01*
X917799Y870474D02*
X921704D01*
X921259Y874101D02*
X921766Y874608D01*
X913702Y868791D02*
X915949D01*
X907152Y859624D02*
Y860191D01*
Y859624D02*
X907977Y858800D01*
X918124D01*
X922146Y854778D01*
X947006Y853053D02*
X947527D01*
X947913Y852667D01*
X936376Y844909D02*
Y850297D01*
X924976Y828053D02*
X925936Y829013D01*
X920529Y831301D02*
X921564D01*
X918968Y832862D02*
X920529Y831301D01*
X924959Y828053D02*
X924976D01*
X918968Y832862D02*
Y837811D01*
X921564Y831301D02*
X921822Y831044D01*
X924071Y828941D02*
X924959Y828053D01*
X921835Y874608D02*
X921904D01*
X921766D02*
X921835D01*
X924000Y876774D02*
X930828D01*
X921904Y874608D02*
X922494Y875199D01*
Y875268D01*
X924000Y876774D01*
X930828D02*
X931320Y876282D01*
X922146Y854778D02*
X922550D01*
X948777Y855022D02*
X950746Y853053D01*
X947006Y855022D02*
X948777D01*
X921093Y834986D02*
Y837574D01*
X920923Y834816D02*
X921093Y834986D01*
X920726Y821360D02*
X920923Y821163D01*
X917183Y823952D02*
X919775Y821360D01*
X917183Y823952D02*
Y838683D01*
X919775Y821360D02*
X920726D01*
X920923Y820880D02*
Y821163D01*
X934407Y845770D02*
Y850297D01*
X932439Y846655D02*
Y850297D01*
X922550Y854778D02*
X924762Y856990D01*
X927715D01*
D70*
X991456Y863038D02*
Y869441D01*
X993580Y871566D02*
X995735D01*
X991456Y869441D02*
X993580Y871566D01*
X988727Y860309D02*
X991456Y863038D01*
X995735Y871566D02*
X995923Y871754D01*
X994750Y863549D02*
Y863888D01*
X994939Y864077D02*
X995923D01*
X990119Y858917D02*
X994750Y863549D01*
Y863888D02*
X994939Y864077D01*
X1007734Y866636D02*
X1007765Y866667D01*
X1012132D01*
X1012163Y866698D01*
D71*
X910609Y866244D02*
Y867642D01*
X907044Y867241D02*
X910208D01*
X910609Y867642D02*
X911192Y868225D01*
X906318Y861026D02*
Y867719D01*
X910609Y866244D02*
X910667Y866186D01*
X906442Y867843D02*
X907044Y867241D01*
X910667Y866186D02*
X911097D01*
X912153Y867241D01*
X906318Y867719D02*
X906442Y867843D01*
X907152Y848034D02*
Y859624D01*
X918445Y861958D02*
X919001D01*
X918396Y861910D02*
X918445Y861958D01*
X914460Y861910D02*
X918396D01*
X906318Y861026D02*
X907152Y860191D01*
Y848034D02*
X908334Y846852D01*
X911569D01*
X905077Y843063D02*
X908449Y846435D01*
X905077Y842226D02*
Y843063D01*
X907499Y829150D02*
X915018Y836668D01*
Y842719D01*
Y849079D01*
X911569Y850593D02*
X912159Y850002D01*
X914095D01*
X915018Y849079D01*
X907499Y828447D02*
Y829150D01*
D72*
X898679Y851004D02*
X898698Y851024D01*
Y861006D02*
X898718Y861026D01*
X898698Y851024D02*
Y861006D01*
X898876Y846637D02*
X902700D01*
X898679Y846422D02*
Y846441D01*
X902700Y846637D02*
X902915Y846852D01*
X898679Y846441D02*
X898876Y846637D01*
X902700Y850807D02*
X902915Y850593D01*
X898876Y850807D02*
X902700D01*
X898679Y851004D02*
X898876Y850807D01*
D73*
X905463Y813325D02*
D03*
X1005463D02*
D03*
D74*
X899663Y827314D02*
D03*
X981025Y849290D02*
D03*
X982527Y847787D02*
D03*
X962829Y839402D02*
D03*
X960785Y840750D02*
D03*
X961186Y842856D02*
D03*
X959309Y842128D02*
D03*
X967736Y847172D02*
D03*
X976130Y842144D02*
D03*
X973669Y841439D02*
D03*
X984998Y864175D02*
D03*
X989142Y863798D02*
D03*
X993629Y866952D02*
D03*
X974817Y826551D02*
D03*
X972812Y828494D02*
D03*
X972796Y826430D02*
D03*
X971300Y825065D02*
D03*
X977419Y873427D02*
D03*
X975451D02*
D03*
X973384Y873526D02*
D03*
X971415Y873624D02*
D03*
X969447D02*
D03*
X967380D02*
D03*
X965313Y873526D02*
D03*
X1000648Y860435D02*
D03*
X1010837Y852254D02*
D03*
X1010667Y855987D02*
D03*
X1009588Y854197D02*
D03*
X1007931Y852955D02*
D03*
Y855317D02*
D03*
X1003677Y847132D02*
D03*
X998187Y850297D02*
D03*
X994053Y842719D02*
D03*
X998581Y842522D02*
D03*
X1009900Y842325D02*
D03*
X1010293Y838585D02*
D03*
X1010392Y833073D02*
D03*
X1008325Y834549D02*
D03*
X997021Y836305D02*
D03*
X997463Y827161D02*
D03*
X1013049Y821852D02*
D03*
X996907Y805317D02*
D03*
X951337Y836813D02*
D03*
X953327Y836800D02*
D03*
X955385Y836813D02*
D03*
X957537D02*
D03*
X955610Y838955D02*
D03*
X953538Y838875D02*
D03*
X951350Y838955D02*
D03*
X947391Y842826D02*
D03*
X947695Y847040D02*
D03*
X926541Y850896D02*
D03*
X916199Y852561D02*
D03*
X915411Y854529D02*
D03*
Y856498D02*
D03*
X905941Y874521D02*
D03*
X903421Y874540D02*
D03*
X901371Y874559D02*
D03*
X899096Y874596D02*
D03*
X905077Y842226D02*
D03*
X910687Y842200D02*
D03*
X898679Y822344D02*
D03*
X940018Y858073D02*
D03*
X935884D02*
D03*
X931750D02*
D03*
X933817D02*
D03*
X937951D02*
D03*
X942085D02*
D03*
X931848Y854529D02*
D03*
X987067Y850825D02*
D03*
X988539Y849336D02*
D03*
X989509Y853378D02*
D03*
X986620Y856323D02*
D03*
X988099Y854871D02*
D03*
X942183Y854529D02*
D03*
X966297Y855612D02*
D03*
X957396Y830634D02*
D03*
X957144Y827758D02*
D03*
X1001549Y849616D02*
D03*
X926435Y847482D02*
D03*
X953833Y874313D02*
D03*
X962360Y873132D02*
D03*
X968463Y868104D02*
D03*
X971809D02*
D03*
X995681Y875922D02*
D03*
X1013148Y829861D02*
D03*
X986277Y819490D02*
D03*
X969742Y832876D02*
D03*
X934014Y830908D02*
D03*
X932045Y821951D02*
D03*
X933029Y824805D02*
D03*
X999710Y870934D02*
D03*
X957095Y849004D02*
D03*
X960999Y845099D02*
D03*
X979085Y848439D02*
D03*
X941979Y865310D02*
D03*
X933711D02*
D03*
X931644D02*
D03*
X935778D02*
D03*
X937845D02*
D03*
X922104Y865159D02*
D03*
X939912Y865310D02*
D03*
X974959Y828545D02*
D03*
X913618Y805343D02*
D03*
X966691Y828939D02*
D03*
X957144Y823656D02*
D03*
X955175D02*
D03*
X953207D02*
D03*
X957144Y825719D02*
D03*
X953207D02*
D03*
X955175D02*
D03*
X953207Y827758D02*
D03*
X955175D02*
D03*
X959035Y845499D02*
D03*
X955662Y847093D02*
D03*
X957986Y843693D02*
D03*
X958132Y847265D02*
D03*
X956897Y845459D02*
D03*
X975451Y868211D02*
D03*
X968758Y863486D02*
D03*
X1001193Y844832D02*
D03*
X983344Y859260D02*
D03*
X976140Y851282D02*
D03*
X983522Y843408D02*
D03*
X981973Y845494D02*
D03*
X990981Y851889D02*
D03*
X980564Y846987D02*
D03*
X985155Y857788D02*
D03*
X981256Y856619D02*
D03*
X987569Y852932D02*
D03*
X985399Y844843D02*
D03*
X984178Y853769D02*
D03*
X979573Y850741D02*
D03*
X986090Y854383D02*
D03*
X982713Y855234D02*
D03*
X990451Y849950D02*
D03*
X977620Y849904D02*
D03*
X988978Y851439D02*
D03*
X978116Y852126D02*
D03*
X984625Y855848D02*
D03*
X983927Y846332D02*
D03*
X983167Y857233D02*
D03*
X985657Y852318D02*
D03*
X1012163Y871229D02*
D03*
X1012132Y866667D02*
D03*
X962726Y841595D02*
D03*
X1013049Y825396D02*
D03*
X1009900D02*
D03*
X992344Y813303D02*
D03*
X988352Y817423D02*
D03*
X992407Y817411D02*
D03*
Y819478D02*
D03*
X988290Y813315D02*
D03*
X986277Y815356D02*
D03*
X988352D02*
D03*
X990329Y813351D02*
D03*
X986277Y817423D02*
D03*
X992407Y815344D02*
D03*
X990391Y817459D02*
D03*
Y819526D02*
D03*
Y815392D02*
D03*
X988352Y819490D02*
D03*
X986215Y813315D02*
D03*
X955287Y830558D02*
D03*
X953336Y832617D02*
D03*
X953228Y830546D02*
D03*
X957503Y832705D02*
D03*
X951383Y834688D02*
D03*
X959467Y830634D02*
D03*
X951238Y830558D02*
D03*
X955394Y832629D02*
D03*
X953374Y834675D02*
D03*
X951346Y832629D02*
D03*
X955432Y834688D02*
D03*
X957541Y834763D02*
D03*
X959574Y832705D02*
D03*
X1003502Y875888D02*
D03*
X913503Y873857D02*
D03*
X911192Y868225D02*
D03*
X913211Y868419D02*
D03*
X910667Y866186D02*
D03*
X914046Y866147D02*
D03*
X911267Y873895D02*
D03*
X910638Y861307D02*
D03*
X913606Y861162D02*
D03*
X934900Y856301D02*
D03*
X935982Y854529D02*
D03*
X942970Y863486D02*
D03*
X943167Y856301D02*
D03*
X936770Y863486D02*
D03*
X934703D02*
D03*
X940903D02*
D03*
X933915Y854529D02*
D03*
X941100Y856301D02*
D03*
X939033D02*
D03*
X932636Y863486D02*
D03*
X932833Y856301D02*
D03*
X940116Y854529D02*
D03*
X938049D02*
D03*
X936967Y856301D02*
D03*
X938837Y863486D02*
D03*
X914515Y875962D02*
D03*
X912153Y876061D02*
D03*
X909987D02*
D03*
X908325Y866636D02*
D03*
Y868801D02*
D03*
X906455Y869785D02*
D03*
X906452Y867724D02*
D03*
X906438Y865639D02*
D03*
X904371D02*
D03*
X904385Y867724D02*
D03*
X904388Y869785D02*
D03*
X947913Y852667D02*
D03*
X939958Y824941D02*
D03*
X944134Y829086D02*
D03*
X946149Y831105D02*
D03*
X944071Y824977D02*
D03*
X944134Y827019D02*
D03*
X946149Y826971D02*
D03*
X940020Y829050D02*
D03*
Y831117D02*
D03*
Y826983D02*
D03*
X942032Y824941D02*
D03*
X944134Y831153D02*
D03*
X946087Y824930D02*
D03*
X942095Y826983D02*
D03*
Y831117D02*
D03*
X946149Y829038D02*
D03*
X942095Y829050D02*
D03*
X921822Y828977D02*
D03*
X927951Y826898D02*
D03*
X921760Y824868D02*
D03*
X923834D02*
D03*
X927951Y828965D02*
D03*
X923897Y826910D02*
D03*
X921822D02*
D03*
X925936Y831080D02*
D03*
X923897Y828977D02*
D03*
Y831044D02*
D03*
X927889Y824857D02*
D03*
X927951Y831032D02*
D03*
X925873Y824904D02*
D03*
X925936Y826946D02*
D03*
Y829013D02*
D03*
X921822Y831044D02*
D03*
X951238Y827758D02*
D03*
Y823656D02*
D03*
Y825719D02*
D03*
X963352Y812030D02*
D03*
Y814028D02*
D03*
Y816066D02*
D03*
X961325Y812030D02*
D03*
Y814028D02*
D03*
Y816066D02*
D03*
X959317Y812092D02*
D03*
Y814090D02*
D03*
Y816127D02*
D03*
X957300Y812071D02*
D03*
Y814069D02*
D03*
Y816107D02*
D03*
X955252Y812041D02*
D03*
Y814038D02*
D03*
Y816076D02*
D03*
X953255Y812092D02*
D03*
Y814090D02*
D03*
Y816127D02*
D03*
X951238Y816045D02*
D03*
Y814008D02*
D03*
Y812010D02*
D03*
X1003994Y833762D02*
D03*
X923482Y820868D02*
D03*
X926041D02*
D03*
X928600D02*
D03*
X941593Y820770D02*
D03*
X944151D02*
D03*
X946711D02*
D03*
X918167Y855317D02*
D03*
X919348Y851380D02*
D03*
X1011511Y875888D02*
D03*
X917577Y843174D02*
D03*
M02*
