G04*
G04 #@! TF.GenerationSoftware,Altium Limited,Altium Designer,21.7.2 (23)*
G04*
G04 Layer_Physical_Order=4*
G04 Layer_Color=16711680*
%FSLAX25Y25*%
%MOIN*%
G70*
G04*
G04 #@! TF.SameCoordinates,686CD908-A1E1-460F-A8F5-A8DC84BBAB16*
G04*
G04*
G04 #@! TF.FilePolarity,Positive*
G04*
G01*
G75*
%ADD12C,0.00787*%
%ADD17R,0.02362X0.02500*%
%ADD37R,0.04500X0.05906*%
%ADD67C,0.01772*%
%ADD68C,0.01000*%
%ADD69C,0.01181*%
%ADD70C,0.01001*%
%ADD71C,0.01575*%
%ADD72C,0.01968*%
%ADD73C,0.17717*%
%ADD74R,0.13780X0.35433*%
%ADD75R,0.04331X0.02559*%
%ADD76R,0.02362X0.01575*%
%ADD77R,0.14567X0.05906*%
%ADD78R,0.12303X0.07284*%
%ADD79R,0.05118X0.02165*%
%ADD80R,0.05807X0.03150*%
%ADD81R,0.03937X0.03800*%
G36*
X919672Y877017D02*
X914404Y871749D01*
X914100Y871294D01*
X913993Y870756D01*
Y870144D01*
X913577Y869866D01*
X913505Y869896D01*
X912918D01*
X912375Y869671D01*
X912104Y869400D01*
X912028Y869477D01*
X911485Y869701D01*
X910898D01*
X910355Y869477D01*
X910234Y869356D01*
X909645Y869473D01*
X909576Y869637D01*
X909555Y869659D01*
Y871163D01*
X906986D01*
X906748Y871262D01*
X906161D01*
X905923Y871163D01*
X904919D01*
X904681Y871262D01*
X904094D01*
X903856Y871163D01*
X896427D01*
Y873775D01*
X896440Y873884D01*
X896526Y874348D01*
X896526D01*
X896512Y874838D01*
X896586Y875130D01*
X896586D01*
X896721Y875583D01*
X896729Y875605D01*
X896794Y875762D01*
X896923Y875988D01*
X897047Y876152D01*
X897112Y876159D01*
X897120Y876162D01*
X897198Y876351D01*
X897368Y876537D01*
X897554Y876707D01*
X897743Y876786D01*
X897746Y876793D01*
X897753Y876859D01*
X897917Y876983D01*
X898143Y877111D01*
X898301Y877176D01*
X898462Y877241D01*
X898774Y877320D01*
X898775Y877319D01*
X898779Y877321D01*
X898949Y877392D01*
X899082Y877412D01*
X899557Y877379D01*
Y877379D01*
X900031Y877465D01*
X900150Y877479D01*
X919480D01*
X919672Y877017D01*
D02*
G37*
G36*
X1010903Y877464D02*
X1011368Y877379D01*
X1011368Y877379D01*
Y877379D01*
X1011814Y877408D01*
X1012150Y877319D01*
X1012150Y877319D01*
X1012603Y877185D01*
X1012624Y877176D01*
X1012782Y877111D01*
X1013008Y876983D01*
X1013172Y876859D01*
X1013179Y876793D01*
X1013182Y876786D01*
X1013371Y876707D01*
X1013557Y876537D01*
X1013727Y876351D01*
X1013805Y876162D01*
X1013813Y876159D01*
X1013878Y876152D01*
X1014002Y875988D01*
X1014131Y875762D01*
X1014196Y875605D01*
X1014262Y875439D01*
X1014339Y875131D01*
X1014339Y875130D01*
X1014340Y875127D01*
X1014414Y874842D01*
X1014399Y874348D01*
X1014399D01*
X1014485Y873884D01*
X1014499Y873775D01*
Y861871D01*
X1013999Y861670D01*
X1011723Y863945D01*
X1011698Y864435D01*
X1011745Y864578D01*
X1012358Y865191D01*
X1012426D01*
X1012969Y865415D01*
X1013384Y865831D01*
X1013609Y866373D01*
Y866961D01*
X1013384Y867503D01*
X1012969Y867918D01*
X1012426Y868143D01*
X1011839D01*
X1011724Y868096D01*
X1011441Y868520D01*
X1012827Y869906D01*
X1013000Y869977D01*
X1013415Y870393D01*
X1013640Y870936D01*
Y871523D01*
X1013415Y872065D01*
X1013000Y872481D01*
X1012457Y872705D01*
X1011870D01*
X1011327Y872481D01*
X1010912Y872065D01*
X1010840Y871893D01*
X1008169Y869222D01*
X1007072D01*
X1006750Y869589D01*
X1006750Y869722D01*
Y873722D01*
X1000844D01*
Y869722D01*
X1000844Y869589D01*
X1000523Y869222D01*
X999467D01*
Y869392D01*
X995529D01*
Y868053D01*
X995030Y867839D01*
X994942Y867922D01*
Y873408D01*
X995984Y874450D01*
X996518Y874671D01*
X996933Y875086D01*
X997158Y875629D01*
Y876216D01*
X996933Y876759D01*
X996713Y876979D01*
X996920Y877479D01*
X1010775D01*
X1010903Y877464D01*
D02*
G37*
G36*
X936025Y843687D02*
X936201Y843247D01*
X933673Y840719D01*
X933233Y840894D01*
X933183Y841366D01*
X935554Y843737D01*
X936025Y843687D01*
D02*
G37*
G36*
X960955Y835364D02*
X964821D01*
Y829536D01*
X955167Y829521D01*
X950296Y829513D01*
X950254Y831584D01*
Y840553D01*
X950254D01*
X950305Y841032D01*
X950414Y841144D01*
X955175D01*
X960955Y835364D01*
D02*
G37*
G36*
X992562Y874672D02*
X992417Y874454D01*
X992317Y873952D01*
Y867641D01*
X992153Y867246D01*
Y866658D01*
X992378Y866116D01*
X992793Y865700D01*
X993336Y865476D01*
X993923D01*
X994466Y865700D01*
X994881Y866116D01*
X995030Y866474D01*
X995529Y866374D01*
Y861518D01*
X998989D01*
X999291Y861018D01*
X999171Y860729D01*
Y860141D01*
X999396Y859599D01*
X999811Y859183D01*
X1000354Y858959D01*
X1000844D01*
X1000844Y858497D01*
Y854825D01*
Y851577D01*
X1006750D01*
Y854825D01*
Y858959D01*
X1001966D01*
X1001759Y859459D01*
X1001899Y859599D01*
X1002124Y860141D01*
Y860729D01*
X1001934Y861188D01*
X1002062Y861504D01*
X1002190Y861688D01*
X1010007D01*
X1011743Y859951D01*
Y843040D01*
X1011243Y842940D01*
X1011151Y843161D01*
X1010736Y843576D01*
X1010193Y843801D01*
X1009606D01*
X1009063Y843576D01*
X1008648Y843161D01*
X1008423Y842618D01*
Y842031D01*
X1008648Y841488D01*
X1009063Y841073D01*
X1009606Y840848D01*
X1010193D01*
X1010736Y841073D01*
X1011151Y841488D01*
X1011243Y841709D01*
X1011743Y841610D01*
Y839930D01*
X1011243Y839723D01*
X1011130Y839836D01*
X1010587Y840061D01*
X1010000D01*
X1009457Y839836D01*
X1009042Y839421D01*
X1008817Y838878D01*
Y838291D01*
X1009042Y837748D01*
X1009457Y837333D01*
X1010000Y837108D01*
X1010587D01*
X1011130Y837333D01*
X1011243Y837446D01*
X1011743Y837239D01*
Y830327D01*
X1011671Y830155D01*
Y829567D01*
X1011896Y829025D01*
X1012311Y828609D01*
X1012854Y828385D01*
X1013441D01*
X1013984Y828609D01*
X1013999Y828624D01*
X1014499Y828417D01*
Y818007D01*
X1014034Y817904D01*
X1013999Y817912D01*
X1012955Y819473D01*
X1011611Y820817D01*
X1010032Y821873D01*
X1008276Y822600D01*
X1006413Y822970D01*
X1004513D01*
X1002649Y822600D01*
X1000894Y821873D01*
X999314Y820817D01*
X997970Y819473D01*
X996915Y817894D01*
X996325Y816469D01*
X995825Y816569D01*
Y826052D01*
X996325Y826211D01*
X996627Y825909D01*
X997170Y825684D01*
X997757D01*
X998300Y825909D01*
X998715Y826324D01*
X998940Y826867D01*
Y827454D01*
X998715Y827997D01*
X998300Y828412D01*
X997757Y828637D01*
X997170D01*
X996627Y828412D01*
X996325Y828110D01*
X995825Y828270D01*
Y834761D01*
X996325Y834996D01*
X996728Y834829D01*
X997315D01*
X997858Y835054D01*
X998273Y835469D01*
X998410Y835799D01*
X998960Y835956D01*
X1001972Y832944D01*
X1002398Y832659D01*
X1002900Y832559D01*
X1003109D01*
X1003158Y832510D01*
X1003700Y832285D01*
X1004288D01*
X1004830Y832510D01*
X1005246Y832926D01*
X1005470Y833468D01*
Y834056D01*
X1005246Y834598D01*
X1004830Y835013D01*
X1004288Y835238D01*
X1003700D01*
X1003571Y835184D01*
X1003444D01*
X1002277Y836351D01*
X1002468Y836813D01*
X1006750D01*
Y840947D01*
X1000844D01*
Y838437D01*
X1000383Y838245D01*
X998009Y840619D01*
X998282Y841037D01*
X998290Y841045D01*
X998874D01*
X999112Y841144D01*
X999467D01*
Y841320D01*
X999832Y841685D01*
X1000057Y842228D01*
Y842815D01*
X999832Y843358D01*
X999778Y843413D01*
X999782Y843448D01*
X1000304Y843631D01*
X1000307Y843630D01*
X1000357Y843580D01*
X1000899Y843355D01*
X1001486D01*
X1002029Y843580D01*
X1002444Y843996D01*
X1002669Y844538D01*
Y845125D01*
X1002506Y845519D01*
X1002694Y845722D01*
X1002910Y845852D01*
X1003383Y845656D01*
X1003970D01*
X1004513Y845880D01*
X1004928Y846296D01*
X1005153Y846838D01*
Y847425D01*
X1004928Y847968D01*
X1004513Y848384D01*
X1003970Y848608D01*
X1003730D01*
X1003659Y848656D01*
X1003157Y848755D01*
X999467D01*
Y849528D01*
X999663Y850004D01*
Y850591D01*
X999467Y851066D01*
Y851380D01*
X999192D01*
X999023Y851549D01*
X998481Y851774D01*
X997893D01*
X997351Y851549D01*
X997182Y851380D01*
X995529D01*
Y848230D01*
Y845868D01*
X999467D01*
Y845868D01*
X999483Y845863D01*
X999769Y845253D01*
X999716Y845125D01*
Y844690D01*
X999569Y844456D01*
X999277Y844293D01*
X995529D01*
Y844037D01*
X995030Y843830D01*
X994889Y843970D01*
X994347Y844195D01*
X993759D01*
X993217Y843970D01*
X992801Y843555D01*
X992577Y843012D01*
Y842425D01*
X992801Y841882D01*
X993217Y841467D01*
X993612Y841303D01*
X993802Y841113D01*
X993610Y840652D01*
X980470D01*
Y804289D01*
X950254D01*
Y810278D01*
X950754Y810612D01*
X950945Y810534D01*
X951532D01*
X952074Y810758D01*
X952288Y810972D01*
X952419Y810840D01*
X952962Y810615D01*
X953549D01*
X954092Y810840D01*
X954228Y810977D01*
X954416Y810789D01*
X954959Y810564D01*
X955546D01*
X956089Y810789D01*
X956291Y810992D01*
X956464Y810820D01*
X957006Y810595D01*
X957594D01*
X958136Y810820D01*
X958319Y811002D01*
X958481Y810840D01*
X959024Y810615D01*
X959611D01*
X960154Y810840D01*
X960290Y810977D01*
X960488Y810779D01*
X961031Y810554D01*
X961618D01*
X962161Y810779D01*
X962338Y810956D01*
X962516Y810779D01*
X963058Y810554D01*
X963646D01*
X964188Y810779D01*
X964604Y811194D01*
X964828Y811737D01*
Y812324D01*
X964604Y812867D01*
X964441Y813029D01*
X964604Y813192D01*
X964828Y813735D01*
Y814322D01*
X964604Y814865D01*
X964421Y815047D01*
X964604Y815230D01*
X964828Y815772D01*
Y816359D01*
X964604Y816902D01*
X964188Y817317D01*
X963646Y817542D01*
X963058D01*
X962516Y817317D01*
X962338Y817140D01*
X962161Y817317D01*
X961618Y817542D01*
X961031D01*
X960488Y817317D01*
X960352Y817181D01*
X960154Y817379D01*
X959611Y817604D01*
X959024D01*
X958481Y817379D01*
X958299Y817196D01*
X958136Y817358D01*
X957594Y817583D01*
X957006D01*
X956464Y817358D01*
X956261Y817155D01*
X956089Y817328D01*
X955546Y817552D01*
X954959D01*
X954416Y817328D01*
X954279Y817191D01*
X954092Y817379D01*
X953549Y817604D01*
X952962D01*
X952419Y817379D01*
X952206Y817165D01*
X952074Y817297D01*
X951532Y817522D01*
X950945D01*
X950754Y817443D01*
X950254Y817777D01*
Y828675D01*
X950298Y828711D01*
X955168Y828718D01*
X964822Y828734D01*
X964865Y828742D01*
X965608D01*
Y829459D01*
X965624Y829536D01*
Y835364D01*
X965608Y835441D01*
Y836222D01*
X961232D01*
X955743Y841711D01*
X955482Y841885D01*
X955175Y841947D01*
X950414D01*
X950410Y841946D01*
X950406Y841947D01*
X950256Y841915D01*
X950107Y841885D01*
X950104Y841883D01*
X950099Y841882D01*
X949973Y841796D01*
X949847Y841711D01*
X949844Y841708D01*
X949841Y841706D01*
X949731Y841594D01*
X949671Y841501D01*
X949600Y841416D01*
X949586Y841371D01*
X949560Y841332D01*
X949540Y841223D01*
X949507Y841117D01*
X949456Y840638D01*
X948961Y840553D01*
X937567D01*
X937376Y841015D01*
X937982Y841622D01*
X946507D01*
X946554Y841574D01*
X947097Y841350D01*
X947684D01*
X948227Y841574D01*
X948642Y841990D01*
X948867Y842532D01*
Y843120D01*
X948805Y843269D01*
X948886Y843484D01*
X949128Y843796D01*
X949454Y843860D01*
X949845Y844121D01*
X951007Y845284D01*
X951007Y845284D01*
X951268Y845675D01*
X951360Y846135D01*
X951360Y846136D01*
Y850425D01*
X951268Y850886D01*
X951007Y851276D01*
X949389Y852894D01*
Y852961D01*
X949164Y853504D01*
X948749Y853919D01*
X948207Y854144D01*
X947619D01*
X947077Y853919D01*
X946661Y853504D01*
X946437Y852961D01*
Y852374D01*
X946661Y851831D01*
X947077Y851416D01*
X947619Y851191D01*
X947686D01*
X948951Y849926D01*
Y848578D01*
X948761Y848449D01*
X948451Y848325D01*
X947989Y848516D01*
X947401D01*
X946859Y848291D01*
X946722Y848155D01*
X934014D01*
X934014Y848155D01*
X933553Y848063D01*
X933162Y847802D01*
X933162Y847802D01*
X929717Y844357D01*
X929456Y843967D01*
X929365Y843506D01*
X929365Y843506D01*
Y840553D01*
X915018D01*
Y816769D01*
X914518Y816669D01*
X914010Y817894D01*
X912955Y819473D01*
X911611Y820817D01*
X910032Y821873D01*
X908276Y822600D01*
X906413Y822970D01*
X904513D01*
X902649Y822600D01*
X900894Y821873D01*
X899314Y820817D01*
X897970Y819473D01*
X896927Y817912D01*
X896891Y817904D01*
X896427Y818007D01*
Y830980D01*
X896907Y831026D01*
X896927Y831026D01*
X901919D01*
X902419Y831026D01*
X902919Y831026D01*
X907431D01*
X907931Y831026D01*
X908431Y831026D01*
X913443D01*
Y836401D01*
X912656D01*
Y839638D01*
X908718D01*
Y836755D01*
X908365Y836401D01*
X907931Y836401D01*
X907497Y836401D01*
X907144Y836755D01*
Y839638D01*
X903207D01*
Y836755D01*
X902853Y836401D01*
X902419Y836401D01*
X901985Y836401D01*
X901632Y836755D01*
Y839638D01*
X897695D01*
Y836401D01*
X896927D01*
X896907Y836401D01*
X896427Y836448D01*
Y862305D01*
X907021D01*
X907172Y861805D01*
X907116Y861767D01*
X907116Y861767D01*
X903421Y858073D01*
X899617D01*
Y850593D01*
Y845887D01*
X899260Y845530D01*
X898956Y845074D01*
X898849Y844536D01*
Y844238D01*
X897695D01*
Y840163D01*
X901632D01*
Y842655D01*
X901659Y842791D01*
Y843954D01*
X902096Y844392D01*
X902770D01*
X903207Y844238D01*
X903207Y843892D01*
Y840163D01*
X907144D01*
Y844238D01*
X906128D01*
X905692Y844392D01*
X905692Y844738D01*
Y850593D01*
Y855802D01*
X908849Y858959D01*
X915364D01*
Y862699D01*
X912080D01*
X911943Y862790D01*
X911329Y862912D01*
X911329Y862912D01*
X910638D01*
X910055Y862796D01*
X910011Y862797D01*
X909555Y863034D01*
Y864372D01*
X915362D01*
Y865466D01*
X915520Y865847D01*
X916391Y866718D01*
X916696Y867174D01*
X916803Y867711D01*
Y870174D01*
X921800Y875172D01*
X992307D01*
X992562Y874672D01*
D02*
G37*
G36*
X996460Y838455D02*
X996341Y837880D01*
X996325Y837873D01*
X995825Y838188D01*
Y838437D01*
X996287Y838629D01*
X996460Y838455D01*
D02*
G37*
G36*
X934900Y829064D02*
Y825823D01*
X934400Y825624D01*
X934234Y825800D01*
Y828072D01*
X934142Y828533D01*
X933982Y828772D01*
X934156Y829228D01*
X934213Y829290D01*
X934493Y829362D01*
X934900Y829064D01*
D02*
G37*
G36*
Y824155D02*
Y804289D01*
X930372D01*
Y820883D01*
X930502Y820954D01*
X930872Y821036D01*
X931209Y820699D01*
X931752Y820474D01*
X932339D01*
X932882Y820699D01*
X933297Y821115D01*
X933522Y821657D01*
Y822244D01*
X933297Y822787D01*
X933255Y822829D01*
X933282Y823026D01*
X933422Y823370D01*
X933866Y823553D01*
X934281Y823969D01*
X934400Y824255D01*
X934900Y824155D01*
D02*
G37*
G36*
X1014499Y808643D02*
Y807992D01*
X1014485Y807884D01*
X1014399Y807419D01*
X1014399D01*
X1014414Y806930D01*
X1014339Y806637D01*
X1014339D01*
X1014205Y806184D01*
X1014196Y806163D01*
X1014131Y806005D01*
X1014002Y805779D01*
X1013878Y805616D01*
X1013813Y805608D01*
X1013805Y805605D01*
X1013727Y805416D01*
X1013557Y805230D01*
X1013371Y805060D01*
X1013182Y804982D01*
X1013179Y804975D01*
X1013172Y804909D01*
X1013008Y804785D01*
X1012782Y804657D01*
X1012624Y804591D01*
X1012463Y804527D01*
X1012151Y804448D01*
X1012150Y804448D01*
X1012147Y804447D01*
X1011976Y804376D01*
X1011844Y804355D01*
X1011368Y804389D01*
Y804389D01*
X1010894Y804303D01*
X1010775Y804289D01*
X1010145D01*
X1010042Y804753D01*
X1010049Y804789D01*
X1011611Y805832D01*
X1012955Y807176D01*
X1013999Y808738D01*
X1014034Y808745D01*
X1014499Y808643D01*
D02*
G37*
G36*
X996915Y808756D02*
X997970Y807176D01*
X999314Y805832D01*
X1000876Y804789D01*
X1000883Y804753D01*
X1000780Y804289D01*
X995825D01*
Y810081D01*
X996325Y810180D01*
X996915Y808756D01*
D02*
G37*
G36*
X915018Y809881D02*
Y804289D01*
X910145D01*
X910042Y804753D01*
X910049Y804789D01*
X911611Y805832D01*
X912955Y807176D01*
X914010Y808756D01*
X914518Y809980D01*
X915018Y809881D01*
D02*
G37*
G36*
X896927Y808738D02*
X897970Y807176D01*
X899314Y805832D01*
X900876Y804789D01*
X900883Y804753D01*
X900780Y804289D01*
X900150D01*
X900022Y804304D01*
X899557Y804389D01*
Y804389D01*
X899111Y804360D01*
X898775Y804448D01*
X898775Y804448D01*
X898322Y804583D01*
X898301Y804591D01*
X898143Y804657D01*
X897917Y804785D01*
X897753Y804909D01*
X897746Y804975D01*
X897743Y804982D01*
X897554Y805060D01*
X897368Y805230D01*
X897198Y805416D01*
X897120Y805606D01*
X897112Y805608D01*
X897047Y805616D01*
X896923Y805779D01*
X896794Y806005D01*
X896729Y806163D01*
X896663Y806328D01*
X896586Y806637D01*
X896586Y806637D01*
X896585Y806641D01*
X896511Y806925D01*
X896526Y807419D01*
X896526D01*
X896440Y807884D01*
X896427Y807992D01*
Y808643D01*
X896891Y808745D01*
X896927Y808738D01*
D02*
G37*
%LPC*%
G36*
X975744Y869687D02*
X975157D01*
X974614Y869462D01*
X974199Y869047D01*
X973974Y868504D01*
Y867917D01*
X974199Y867374D01*
X974614Y866959D01*
X975157Y866734D01*
X975744D01*
X976287Y866959D01*
X976702Y867374D01*
X976927Y867917D01*
Y868504D01*
X976702Y869047D01*
X976287Y869462D01*
X975744Y869687D01*
D02*
G37*
G36*
X922398Y866636D02*
X921811D01*
X921268Y866411D01*
X920853Y865996D01*
X920628Y865453D01*
Y864866D01*
X920853Y864323D01*
X921268Y863908D01*
X921811Y863683D01*
X922398D01*
X922941Y863908D01*
X923356Y864323D01*
X923581Y864866D01*
Y865453D01*
X923356Y865996D01*
X922941Y866411D01*
X922398Y866636D01*
D02*
G37*
G36*
X985292Y865652D02*
X984704D01*
X984162Y865427D01*
X983746Y865012D01*
X983522Y864469D01*
Y863881D01*
X983746Y863339D01*
X984162Y862924D01*
X984704Y862699D01*
X985292D01*
X985834Y862924D01*
X986250Y863339D01*
X986474Y863881D01*
Y864469D01*
X986250Y865012D01*
X985834Y865427D01*
X985292Y865652D01*
D02*
G37*
G36*
X989436Y865275D02*
X988848D01*
X988306Y865050D01*
X987890Y864635D01*
X987666Y864092D01*
Y863505D01*
X987890Y862962D01*
X988306Y862547D01*
X988848Y862322D01*
X989436D01*
X989978Y862547D01*
X990394Y862962D01*
X990618Y863505D01*
Y864092D01*
X990394Y864635D01*
X989978Y865050D01*
X989436Y865275D01*
D02*
G37*
G36*
X956061Y867528D02*
X952124D01*
Y863453D01*
X956061D01*
Y864086D01*
X966171D01*
X967435Y862822D01*
X967506Y862650D01*
X967922Y862235D01*
X968464Y862010D01*
X969051D01*
X969594Y862235D01*
X970009Y862650D01*
X970234Y863192D01*
Y863780D01*
X970009Y864322D01*
X969594Y864738D01*
X969422Y864809D01*
X967747Y866484D01*
X967291Y866789D01*
X966753Y866896D01*
X956061D01*
Y867528D01*
D02*
G37*
G36*
X926835Y852372D02*
X926248D01*
X925705Y852147D01*
X925290Y851732D01*
X925065Y851189D01*
Y850602D01*
X925290Y850059D01*
X925705Y849644D01*
X926153Y849459D01*
X926142Y848972D01*
X926138Y848957D01*
X925599Y848734D01*
X925183Y848318D01*
X924959Y847776D01*
Y847189D01*
X925183Y846646D01*
X925599Y846231D01*
X926141Y846006D01*
X926729D01*
X927271Y846231D01*
X927687Y846646D01*
X927911Y847189D01*
Y847776D01*
X927687Y848318D01*
X927271Y848734D01*
X926824Y848919D01*
X926835Y849406D01*
X926838Y849421D01*
X927378Y849644D01*
X927793Y850059D01*
X928018Y850602D01*
Y851189D01*
X927793Y851732D01*
X927378Y852147D01*
X926835Y852372D01*
D02*
G37*
G36*
X956061Y862928D02*
X952124D01*
Y858854D01*
Y855481D01*
X956061D01*
Y856206D01*
X956963D01*
X957465Y856306D01*
X957891Y856590D01*
X958409Y857109D01*
X959308D01*
X973082Y843335D01*
X972965Y842745D01*
X972833Y842691D01*
X972418Y842275D01*
X972193Y841733D01*
Y841145D01*
X972418Y840603D01*
X972833Y840187D01*
X973376Y839963D01*
X973963D01*
X974506Y840187D01*
X974921Y840603D01*
X974923Y840609D01*
X975540Y840790D01*
X975836Y840667D01*
X976423D01*
X976966Y840892D01*
X977381Y841308D01*
X977606Y841850D01*
Y842437D01*
X977381Y842980D01*
X976966Y843395D01*
X976570Y843559D01*
X962065Y858065D01*
Y862484D01*
X956553D01*
Y862484D01*
X956061Y862503D01*
Y862928D01*
D02*
G37*
G36*
X912656Y844238D02*
X908718D01*
Y840163D01*
X912656D01*
Y844238D01*
D02*
G37*
G36*
X957388Y850480D02*
X956801D01*
X956258Y850255D01*
X955843Y849840D01*
X955618Y849297D01*
Y848710D01*
X955170Y848487D01*
X954825Y848344D01*
X954410Y847929D01*
X954185Y847386D01*
Y846799D01*
X954410Y846256D01*
X954825Y845841D01*
X955368Y845616D01*
X955420D01*
Y845166D01*
X955645Y844623D01*
X956060Y844208D01*
X956522Y844016D01*
X956509Y843987D01*
Y843399D01*
X956734Y842857D01*
X957149Y842441D01*
X957692Y842217D01*
X957833D01*
Y841834D01*
X958057Y841292D01*
X958473Y840876D01*
X959015Y840652D01*
X959309D01*
Y840456D01*
X959534Y839914D01*
X959949Y839498D01*
X960492Y839274D01*
X961079D01*
X961446Y838884D01*
X961578Y838565D01*
X961993Y838150D01*
X962536Y837925D01*
X963123D01*
X963665Y838150D01*
X964081Y838565D01*
X964306Y839108D01*
Y839695D01*
X964081Y840238D01*
X963769Y840550D01*
X963978Y840759D01*
X964203Y841301D01*
Y841889D01*
X963978Y842431D01*
X963563Y842846D01*
X963020Y843071D01*
X962662D01*
Y843150D01*
X962438Y843693D01*
X962059Y844071D01*
X962251Y844263D01*
X962475Y844806D01*
Y845393D01*
X962251Y845936D01*
X961835Y846351D01*
X961293Y846576D01*
X960705D01*
X960239Y846383D01*
X959871Y846751D01*
X959569Y846876D01*
X959608Y846972D01*
Y847559D01*
X959383Y848102D01*
X958968Y848517D01*
X958561Y848685D01*
X958571Y848710D01*
Y849297D01*
X958346Y849840D01*
X957931Y850255D01*
X957388Y850480D01*
D02*
G37*
%LPD*%
D12*
X947606Y846951D02*
X947695Y847040D01*
X935087Y844973D02*
X948993D01*
X950156Y846135D01*
X934014Y846951D02*
X947606D01*
X934112Y839455D02*
X937483Y842826D01*
X947391D01*
X931947Y841833D02*
X935087Y844973D01*
X934014Y830908D02*
X934112Y831006D01*
Y839455D01*
X931947Y829154D02*
X933029Y828072D01*
X931947Y829154D02*
Y841833D01*
X950156Y846135D02*
Y850425D01*
X930569Y843506D02*
X934014Y846951D01*
X947913Y852667D02*
X950156Y850425D01*
X933029Y824805D02*
Y828072D01*
X930569Y823427D02*
X932045Y821951D01*
X930569Y823427D02*
Y843506D01*
X1015287Y876185D02*
G03*
X1015249Y876266I-372J-129D01*
G01*
X1014780Y877011D02*
G03*
X1014725Y877081I-334J-208D01*
G01*
X1014780Y877013D02*
G03*
X1014725Y877081I-333J-209D01*
G01*
X1015287Y876187D02*
G03*
X1015248Y876267I-372J-130D01*
G01*
X1015699Y874348D02*
G03*
X1015696Y874393I-394J0D01*
G01*
X1015598Y875267D02*
G03*
X1015578Y875354I-391J-43D01*
G01*
X1015699Y874348D02*
G03*
X1015696Y874394I-394J0D01*
G01*
X1015598Y875269D02*
G03*
X1015578Y875356I-391J-44D01*
G01*
X1013287Y878228D02*
G03*
X1013206Y878267I-211J-333D01*
G01*
X1012374Y878558D02*
G03*
X1012288Y878578I-130J-372D01*
G01*
X1013286Y878229D02*
G03*
X1013206Y878267I-209J-333D01*
G01*
X1011412Y878677D02*
G03*
X1011368Y878679I-44J-391D01*
G01*
X1011412Y878677D02*
G03*
X1011368Y878679I-44J-391D01*
G01*
X1012374Y878558D02*
G03*
X1012288Y878578I-130J-372D01*
G01*
X1014101Y877705D02*
G03*
X1014032Y877760I-279J-279D01*
G01*
X1014101Y877705D02*
G03*
X1014031Y877761I-279J-279D01*
G01*
X1015696Y807375D02*
G03*
X1015699Y807419I-391J44D01*
G01*
X1015578Y806413D02*
G03*
X1015598Y806501I-372J130D01*
G01*
X1015696Y807374D02*
G03*
X1015699Y807419I-391J46D01*
G01*
X1015578Y806412D02*
G03*
X1015598Y806499I-371J131D01*
G01*
X1015249Y805502D02*
G03*
X1015287Y805582I-333J209D01*
G01*
X1015248Y805500D02*
G03*
X1015287Y805581I-333J211D01*
G01*
X1014725Y804686D02*
G03*
X1014780Y804756I-279J279D01*
G01*
X1014725Y804686D02*
G03*
X1014780Y804755I-279J279D01*
G01*
X1014032Y804008D02*
G03*
X1014101Y804063I-209J333D01*
G01*
X1014031Y804007D02*
G03*
X1014101Y804063I-208J334D01*
G01*
X1013206Y803500D02*
G03*
X1013286Y803539I-130J372D01*
G01*
X1013206Y803500D02*
G03*
X1013287Y803539I-130J372D01*
G01*
X1012288Y803190D02*
G03*
X1012374Y803209I-44J391D01*
G01*
X1012288Y803190D02*
G03*
X1012374Y803209I-44J391D01*
G01*
X1011368Y803088D02*
G03*
X1011412Y803091I0J394D01*
G01*
X1011368Y803088D02*
G03*
X1011412Y803091I0J394D01*
G01*
X899557Y878679D02*
G03*
X899513Y878677I0J-394D01*
G01*
X899557Y878679D02*
G03*
X899513Y878677I0J-394D01*
G01*
X898637Y878578D02*
G03*
X898551Y878558I44J-391D01*
G01*
X897719Y878267D02*
G03*
X897639Y878229I130J-372D01*
G01*
X898637Y878578D02*
G03*
X898551Y878558I44J-391D01*
G01*
X897719Y878267D02*
G03*
X897638Y878228I130J-372D01*
G01*
X896894Y877761D02*
G03*
X896824Y877705I208J-334D01*
G01*
X896893Y877760D02*
G03*
X896824Y877705I209J-333D01*
G01*
X896200Y877081D02*
G03*
X896146Y877013I279J-279D01*
G01*
X896200Y877081D02*
G03*
X896145Y877011I279J-279D01*
G01*
X895677Y876267D02*
G03*
X895638Y876187I333J-211D01*
G01*
X895677Y876266D02*
G03*
X895638Y876185I333J-209D01*
G01*
X895347Y875356D02*
G03*
X895327Y875269I371J-131D01*
G01*
X895347Y875354D02*
G03*
X895327Y875267I372J-130D01*
G01*
X895229Y874394D02*
G03*
X895226Y874348I391J-46D01*
G01*
X895229Y874393D02*
G03*
X895226Y874348I391J-44D01*
G01*
X898551Y803209D02*
G03*
X898637Y803190I130J372D01*
G01*
X897638Y803539D02*
G03*
X897719Y803500I211J333D01*
G01*
X896824Y804063D02*
G03*
X896893Y804008I279J279D01*
G01*
X896824Y804063D02*
G03*
X896894Y804007I279J279D01*
G01*
X899513Y803091D02*
G03*
X899557Y803088I44J391D01*
G01*
X899513Y803091D02*
G03*
X899557Y803088I44J391D01*
G01*
X897639Y803539D02*
G03*
X897719Y803500I209J333D01*
G01*
X898551Y803209D02*
G03*
X898637Y803190I130J372D01*
G01*
X895327Y806499D02*
G03*
X895347Y806412I391J44D01*
G01*
X895226Y807419D02*
G03*
X895229Y807375I394J0D01*
G01*
X895226Y807419D02*
G03*
X895229Y807374I394J0D01*
G01*
X895327Y806501D02*
G03*
X895347Y806413I391J43D01*
G01*
X896146Y804755D02*
G03*
X896200Y804686I333J209D01*
G01*
X895638Y805581D02*
G03*
X895677Y805500I372J130D01*
G01*
X895638Y805582D02*
G03*
X895677Y805502I372J129D01*
G01*
X896145Y804756D02*
G03*
X896200Y804686I334J208D01*
G01*
X1014780Y877013D02*
X1014780Y877011D01*
X1015248Y876267D01*
X1015249Y876266D01*
X1015287Y876187D02*
X1015287Y876185D01*
X1015578Y875356D01*
X1015578Y875354D01*
X1014101Y877705D02*
X1014725Y877081D01*
X1015598Y875269D02*
X1015598Y875267D01*
X1015696Y874394D01*
X1015696Y874393D01*
X1015699Y807419D02*
Y874348D01*
X1012374Y878558D02*
X1013206Y878267D01*
X1014031Y877761D02*
X1014032Y877760D01*
X1013287Y878228D02*
X1014031Y877761D01*
X1013286Y878229D02*
X1013287Y878228D01*
X1011412Y878677D02*
X1012288Y878578D01*
X1015696Y807374D02*
X1015696Y807375D01*
X1015598Y806501D02*
X1015696Y807374D01*
X1015598Y806499D02*
X1015598Y806501D01*
X1015578Y806412D02*
X1015578Y806413D01*
X1015287Y805582D02*
X1015578Y806412D01*
X1015287Y805581D02*
X1015287Y805582D01*
X1015248Y805500D02*
X1015249Y805502D01*
X1014780Y804756D02*
X1015248Y805500D01*
X1014780Y804755D02*
X1014780Y804756D01*
X1014101Y804063D02*
X1014725Y804686D01*
X1014031Y804007D02*
X1014032Y804008D01*
X1013287Y803539D02*
X1014031Y804007D01*
X1013286Y803539D02*
X1013287Y803539D01*
X1012374Y803209D02*
X1013206Y803500D01*
X1011412Y803091D02*
X1012288Y803190D01*
X899557Y878679D02*
X1011368D01*
X898637Y878578D02*
X899513Y878677D01*
X897719Y878267D02*
X898551Y878558D01*
X897638Y878228D02*
X897639Y878229D01*
X896894Y877761D02*
X897638Y878228D01*
X896893Y877760D02*
X896894Y877761D01*
X896200Y877081D02*
X896824Y877705D01*
X896145Y877011D02*
X896146Y877013D01*
X895677Y876267D02*
X896145Y877011D01*
X895677Y876266D02*
X895677Y876267D01*
X895638Y876185D02*
X895638Y876187D01*
X895347Y875356D02*
X895638Y876185D01*
X895347Y875354D02*
X895347Y875356D01*
X895327Y875267D02*
X895327Y875269D01*
X895229Y874394D02*
X895327Y875267D01*
X895229Y874393D02*
X895229Y874394D01*
X897638Y803539D02*
X897639Y803539D01*
X896894Y804007D02*
X897638Y803539D01*
X896893Y804008D02*
X896894Y804007D01*
X899557Y803088D02*
X1011368D01*
X897719Y803500D02*
X898551Y803209D01*
X898637Y803190D02*
X899513Y803091D01*
X895347Y806413D02*
X895347Y806412D01*
X895638Y805582D01*
X895638Y805581D01*
X895226Y807419D02*
Y874348D01*
X895229Y807375D02*
X895229Y807374D01*
X895327Y806501D01*
X895327Y806499D01*
X896200Y804686D02*
X896824Y804063D01*
X895677Y805502D02*
X895677Y805500D01*
X896145Y804756D01*
X896146Y804755D01*
D17*
X954093Y852919D02*
D03*
Y857518D02*
D03*
Y865491D02*
D03*
Y860891D02*
D03*
X905175Y837600D02*
D03*
Y842200D02*
D03*
X910687D02*
D03*
Y837600D02*
D03*
X899663Y842200D02*
D03*
Y837600D02*
D03*
D37*
X902655Y848132D02*
D03*
X910255D02*
D03*
Y854333D02*
D03*
X902655D02*
D03*
D67*
X982231Y847713D02*
D03*
X940018Y858073D02*
D03*
X935884D02*
D03*
X931750D02*
D03*
X933817D02*
D03*
X937951D02*
D03*
X942085D02*
D03*
X931848Y854529D02*
D03*
X994053Y842719D02*
D03*
X987067Y850825D02*
D03*
X988539Y849336D02*
D03*
X989509Y853378D02*
D03*
X986620Y856323D02*
D03*
X988099Y854871D02*
D03*
X942183Y854529D02*
D03*
X966297Y855612D02*
D03*
X976130Y842144D02*
D03*
X957396Y830634D02*
D03*
X957144Y827758D02*
D03*
X998187Y850297D02*
D03*
X1003677Y847132D02*
D03*
X1001549Y849616D02*
D03*
X926435Y847482D02*
D03*
X973669Y841439D02*
D03*
X947695Y847040D02*
D03*
X947391Y842826D02*
D03*
X953833Y874313D02*
D03*
X962360Y873132D02*
D03*
X977419Y873427D02*
D03*
X968463Y868104D02*
D03*
X971809D02*
D03*
X995681Y875922D02*
D03*
X989142Y863798D02*
D03*
X993629Y866952D02*
D03*
X1013148Y829861D02*
D03*
X997021Y836305D02*
D03*
X997463Y827161D02*
D03*
X986277Y819490D02*
D03*
X969742Y832876D02*
D03*
X974817Y826551D02*
D03*
X934014Y830908D02*
D03*
X932045Y821951D02*
D03*
X933029Y824805D02*
D03*
X1010667Y855987D02*
D03*
X999710Y870934D02*
D03*
X962829Y839402D02*
D03*
X957095Y849004D02*
D03*
X960999Y845099D02*
D03*
X967736Y847172D02*
D03*
X979085Y848439D02*
D03*
X961186Y842856D02*
D03*
X971300Y825065D02*
D03*
X972796Y826430D02*
D03*
X972812Y828494D02*
D03*
X941979Y865310D02*
D03*
X933711D02*
D03*
X931644D02*
D03*
X935778D02*
D03*
X937845D02*
D03*
X922104Y865159D02*
D03*
X939912Y865310D02*
D03*
X951350Y838955D02*
D03*
X953538Y838875D02*
D03*
X955610Y838955D02*
D03*
X974959Y828545D02*
D03*
X913618Y805343D02*
D03*
X905941Y874521D02*
D03*
X903421Y874540D02*
D03*
X901371Y874559D02*
D03*
X899096Y874596D02*
D03*
X966691Y828939D02*
D03*
X998581Y842522D02*
D03*
X1013049Y821852D02*
D03*
X957144Y823656D02*
D03*
X955175D02*
D03*
X953207D02*
D03*
X957144Y825719D02*
D03*
X953207D02*
D03*
X955175D02*
D03*
X953207Y827758D02*
D03*
X955175D02*
D03*
X959035Y845499D02*
D03*
X955662Y847093D02*
D03*
X957986Y843693D02*
D03*
X958132Y847265D02*
D03*
X956897Y845459D02*
D03*
X975451Y868211D02*
D03*
X975451Y873427D02*
D03*
X971415Y873624D02*
D03*
X973384Y873526D02*
D03*
X968758Y863486D02*
D03*
X1001193Y844832D02*
D03*
X984998Y864175D02*
D03*
X1000648Y860435D02*
D03*
X1010392Y833073D02*
D03*
X1009900Y842325D02*
D03*
X1010837Y852254D02*
D03*
X1010293Y838585D02*
D03*
X1008325Y834549D02*
D03*
X1009588Y854197D02*
D03*
X1007931Y852955D02*
D03*
Y855317D02*
D03*
X983344Y859260D02*
D03*
X976140Y851282D02*
D03*
X983522Y843408D02*
D03*
X981973Y845494D02*
D03*
X990981Y851889D02*
D03*
X980564Y846987D02*
D03*
X981038Y849276D02*
D03*
X985155Y857788D02*
D03*
X981256Y856619D02*
D03*
X987569Y852932D02*
D03*
X985399Y844843D02*
D03*
X984178Y853769D02*
D03*
X979573Y850741D02*
D03*
X986090Y854383D02*
D03*
X982713Y855234D02*
D03*
X990451Y849950D02*
D03*
X977620Y849904D02*
D03*
X988978Y851439D02*
D03*
X978116Y852126D02*
D03*
X984625Y855848D02*
D03*
X983927Y846332D02*
D03*
X983167Y857233D02*
D03*
X985657Y852318D02*
D03*
X969447Y873624D02*
D03*
X965313Y873526D02*
D03*
X1012163Y871229D02*
D03*
X1012132Y866667D02*
D03*
X962726Y841595D02*
D03*
X1013049Y825396D02*
D03*
X1009900D02*
D03*
X992344Y813303D02*
D03*
X988352Y817423D02*
D03*
X992407Y817411D02*
D03*
Y819478D02*
D03*
X988290Y813315D02*
D03*
X986277Y815356D02*
D03*
X988352D02*
D03*
X990329Y813351D02*
D03*
X986277Y817423D02*
D03*
X992407Y815344D02*
D03*
X990391Y817459D02*
D03*
Y819526D02*
D03*
Y815392D02*
D03*
X988352Y819490D02*
D03*
X986215Y813315D02*
D03*
X955287Y830558D02*
D03*
X953336Y832617D02*
D03*
X953228Y830546D02*
D03*
X957503Y832705D02*
D03*
X951383Y834688D02*
D03*
X959467Y830634D02*
D03*
X951238Y830558D02*
D03*
X955394Y832629D02*
D03*
X953374Y834675D02*
D03*
X951346Y832629D02*
D03*
X955432Y834688D02*
D03*
X957541Y834763D02*
D03*
X959574Y832705D02*
D03*
X996907Y805317D02*
D03*
X1003502Y875888D02*
D03*
X913503Y873857D02*
D03*
X911192Y868225D02*
D03*
X913211Y868419D02*
D03*
X910667Y866186D02*
D03*
X914046Y866147D02*
D03*
X967380Y873624D02*
D03*
X911267Y873895D02*
D03*
X910638Y861307D02*
D03*
X913606Y861162D02*
D03*
X934900Y856301D02*
D03*
X935982Y854529D02*
D03*
X942970Y863486D02*
D03*
X943167Y856301D02*
D03*
X936770Y863486D02*
D03*
X934703D02*
D03*
X940903D02*
D03*
X933915Y854529D02*
D03*
X941100Y856301D02*
D03*
X939033D02*
D03*
X932636Y863486D02*
D03*
X932833Y856301D02*
D03*
X940116Y854529D02*
D03*
X938049D02*
D03*
X936967Y856301D02*
D03*
X938837Y863486D02*
D03*
X914515Y875962D02*
D03*
X912153Y876061D02*
D03*
X909987D02*
D03*
X908325Y866636D02*
D03*
Y868801D02*
D03*
X906455Y869785D02*
D03*
X906452Y867724D02*
D03*
X906438Y865639D02*
D03*
X904371D02*
D03*
X904385Y867724D02*
D03*
X904388Y869785D02*
D03*
X899959Y828250D02*
D03*
X897695Y827955D02*
D03*
X897596Y824608D02*
D03*
X899270Y826183D02*
D03*
X901337Y826577D02*
D03*
X902124Y823821D02*
D03*
X899762Y823526D02*
D03*
X897596Y822344D02*
D03*
X947913Y852667D02*
D03*
X939958Y824941D02*
D03*
X944134Y829086D02*
D03*
X946149Y831105D02*
D03*
X944071Y824977D02*
D03*
X944134Y827019D02*
D03*
X946149Y826971D02*
D03*
X940020Y829050D02*
D03*
Y831117D02*
D03*
Y826983D02*
D03*
X942032Y824941D02*
D03*
X944134Y831153D02*
D03*
X946087Y824930D02*
D03*
X942095Y826983D02*
D03*
Y831117D02*
D03*
X946149Y829038D02*
D03*
X942095Y829050D02*
D03*
X921822Y828977D02*
D03*
X927951Y826898D02*
D03*
X921760Y824868D02*
D03*
X923834D02*
D03*
X927951Y828965D02*
D03*
X923897Y826910D02*
D03*
X921822D02*
D03*
X925936Y831080D02*
D03*
X923897Y828977D02*
D03*
Y831044D02*
D03*
X927889Y824857D02*
D03*
X927951Y831032D02*
D03*
X925873Y824904D02*
D03*
X925936Y826946D02*
D03*
Y829013D02*
D03*
X921822Y831044D02*
D03*
X957537Y836813D02*
D03*
X955385D02*
D03*
X953327Y836800D02*
D03*
X951337Y836813D02*
D03*
X951238Y827758D02*
D03*
Y823656D02*
D03*
Y825719D02*
D03*
X963352Y812030D02*
D03*
Y814028D02*
D03*
Y816066D02*
D03*
X961325Y812030D02*
D03*
Y814028D02*
D03*
Y816066D02*
D03*
X959317Y812092D02*
D03*
Y814090D02*
D03*
Y816127D02*
D03*
X957300Y812071D02*
D03*
Y814069D02*
D03*
Y816107D02*
D03*
X955252Y812041D02*
D03*
Y814038D02*
D03*
Y816076D02*
D03*
X953255Y812092D02*
D03*
Y814090D02*
D03*
Y816127D02*
D03*
X951238Y816045D02*
D03*
Y814008D02*
D03*
Y812010D02*
D03*
X1003994Y833762D02*
D03*
X923482Y820868D02*
D03*
X926041D02*
D03*
X928600D02*
D03*
X941593Y820770D02*
D03*
X944151D02*
D03*
X946711D02*
D03*
X915411Y856498D02*
D03*
Y854529D02*
D03*
X916199Y852561D02*
D03*
X918167Y855317D02*
D03*
X919348Y851380D02*
D03*
X1011511Y875888D02*
D03*
X917577Y843174D02*
D03*
X959309Y842128D02*
D03*
X960785Y840750D02*
D03*
X926541Y850896D02*
D03*
X910687Y842200D02*
D03*
X905077Y842226D02*
D03*
D68*
X994053Y842719D02*
X1002900Y833872D01*
X1003884D01*
X1003994Y833762D01*
X960235Y858038D02*
X976130Y842144D01*
X997498Y847443D02*
X1003157D01*
X1003468Y847132D01*
X1003677D01*
X960235Y858038D02*
Y858376D01*
X958101Y858657D02*
X960516D01*
X993629Y873952D02*
X995600Y875922D01*
X993629Y866952D02*
Y873952D01*
X995600Y875922D02*
X995681D01*
X959377Y859797D02*
X960516Y858657D01*
X959309Y859797D02*
X959377D01*
X956963Y857518D02*
X958101Y858657D01*
X954093Y857518D02*
X956963D01*
X954093D02*
Y860891D01*
D69*
X915398Y870756D02*
X921218Y876577D01*
X994495D02*
X994790Y876282D01*
X921218Y876577D02*
X994495D01*
X1008751Y867817D02*
X1012163Y871229D01*
X997498Y867817D02*
X1008751D01*
X997620Y842597D02*
X998505D01*
X997498Y842719D02*
X997620Y842597D01*
X998505D02*
X998581Y842522D01*
X954093Y865491D02*
X966753D01*
X968758Y863486D01*
X1010588Y863093D02*
X1013148Y860534D01*
Y829861D02*
Y860534D01*
X997498Y863093D02*
X1010588D01*
X911216Y866734D02*
X913459D01*
X910667Y866186D02*
X911216Y866734D01*
X915398Y867711D02*
Y870756D01*
X913459Y866734D02*
X914046Y866147D01*
Y866360D01*
X915398Y867711D01*
X900254Y844536D02*
X902655Y846937D01*
X899663Y842200D02*
X900254Y842791D01*
Y844536D01*
X902655Y846937D02*
Y847640D01*
X910687Y833714D02*
Y837600D01*
X905175Y833714D02*
Y837600D01*
X899663Y833714D02*
Y837600D01*
D70*
X1010765Y865455D02*
X1011977Y866667D01*
X997498Y865455D02*
X1010765D01*
X1011977Y866667D02*
X1012132D01*
D71*
X911708Y860927D02*
X912018D01*
X911399D02*
X911708D01*
X911329Y861307D02*
X911708Y860927D01*
X902655Y854333D02*
Y855035D01*
Y853841D02*
Y854333D01*
X910343Y860632D02*
X910638Y860927D01*
X908251Y860632D02*
X910343D01*
X910638Y861307D02*
X911329D01*
X902655Y855035D02*
X908251Y860632D01*
D72*
X902655Y848132D02*
Y853841D01*
Y847640D02*
Y848132D01*
D73*
X905463Y813325D02*
D03*
X1005463D02*
D03*
D74*
X988148Y822148D02*
D03*
X972498Y822049D02*
D03*
X922695D02*
D03*
X942577D02*
D03*
D75*
X1003797Y856892D02*
D03*
Y871655D02*
D03*
Y838880D02*
D03*
Y853644D02*
D03*
D76*
X997498Y860730D02*
D03*
Y863093D02*
D03*
Y865455D02*
D03*
Y867817D02*
D03*
Y842719D02*
D03*
Y845081D02*
D03*
Y847443D02*
D03*
Y849805D02*
D03*
D77*
X957537Y832482D02*
D03*
Y807285D02*
D03*
D78*
X902616Y866734D02*
D03*
D79*
X912018Y860829D02*
D03*
Y872640D02*
D03*
D80*
X911671Y866734D02*
D03*
D81*
X899663Y833714D02*
D03*
Y827314D02*
D03*
X905175D02*
D03*
Y833714D02*
D03*
X959309Y859797D02*
D03*
Y853397D02*
D03*
X910687Y833714D02*
D03*
Y827314D02*
D03*
M02*
