M48
;Layer_Color=9474304
;FILE_FORMAT=2:5
INCH
;TYPE=PLATED
T1F00S00C0.01181
T2F00S00C0.09843
%
T01
X0474929Y0561370
Y0564913
X0471779
X0475028Y0569379
X0472272Y0572590
X0470205Y0574067
X0472173Y0578102
X0471779Y0581843
X0472717Y0591771
X0471468Y0593715
X0469811Y0594835
Y0592472
X0472547Y0595505
X0474012Y0606185
X0474043Y0610747
X0473390Y0615406
X0465382
X0457561Y0615440
X0461590Y0610452
X0455510Y0606470
X0451022Y0603316
X0446878Y0603693
X0447035Y0597306
X0446505Y0595366
X0448500Y0595840
X0447970Y0593901
X0449979Y0594389
X0449449Y0592450
X0451389Y0592896
X0450858Y0590956
X0452861Y0591407
X0452331Y0589467
X0450419Y0588853
X0448947Y0590343
X0447537Y0591835
X0446058Y0593287
X0444593Y0594752
X0445047Y0596751
X0445224Y0598778
X0443136Y0596137
X0442905Y0588807
X0442444Y0586505
X0444407Y0587305
X0443853Y0585012
X0445807Y0585849
X0447279Y0584360
X0445402Y0582925
X0438009Y0581662
X0435549Y0580957
X0424607Y0581112
X0424709Y0578919
X0422665Y0580268
X0423066Y0582374
X0422879Y0584617
X0420915Y0585017
X0418777Y0584977
X0419866Y0583211
X0421189Y0581646
X0420012Y0586783
X0417542Y0586610
X0418975Y0588521
X0409575Y0586558
X0409270Y0582344
X0413230Y0578473
X0413216Y0576331
X0415207Y0576318
X0417265Y0576331
X0419417
X0419421Y0574281
X0419383Y0572222
X0421454
X0421347Y0570151
X0419276
X0417167Y0570076
X0415108Y0570063
X0413118Y0570076
X0413226Y0572147
X0415216Y0572135
X0417274Y0572147
X0417312Y0574206
X0415253Y0574193
X0413263Y0574206
X0415418Y0578392
X0417490Y0578473
X0417055Y0567276
X0419024
Y0565237
X0417055
X0415087
X0413118
Y0567276
X0415087
Y0563174
X0413118
X0417055
X0419024
X0419180Y0555624
Y0553587
Y0551589
X0421197Y0551610
Y0553607
Y0555645
X0423204Y0555583
X0425232
Y0553546
Y0551548
X0423204
Y0553546
X0417132Y0553556
Y0551558
X0415135Y0551610
Y0553607
Y0555645
X0417132Y0555594
X0413118Y0555563
Y0553525
Y0551528
X0408591Y0560287
X0406032
X0403472
X0403912Y0564459
X0401838
X0401900Y0566501
Y0568568
Y0570635
X0403975
Y0568568
Y0566501
X0406014Y0566536
X0408029Y0566489
Y0568556
X0406014Y0568603
Y0570670
X0408029Y0570623
X0407967Y0564447
X0405951Y0564495
X0394910Y0564323
X0393925Y0561469
X0390480Y0560386
X0387921
X0385362
X0385714Y0564386
X0383640
X0383702Y0566428
Y0568495
Y0570562
X0385776
Y0568495
Y0566428
X0387816Y0566464
X0389831Y0566416
Y0568483
X0387816Y0568531
Y0570597
X0389831Y0570550
X0395894Y0570425
X0389769Y0564374
X0387753Y0564422
X0388315Y0587000
X0388421Y0590413
X0381228Y0590898
X0378079Y0592079
X0377291Y0594047
Y0596016
X0380047Y0594835
X0375486Y0600680
X0372518Y0600825
X0372547Y0605704
X0373072Y0607743
X0375091Y0607937
X0375926Y0605665
X0370205Y0606153
Y0608319
X0368335Y0609303
X0368332Y0607242
X0366265
X0366268Y0609303
X0366251Y0605157
X0368318
X0367821Y0614039
X0365301Y0614058
X0363251Y0614076
X0360976Y0614114
X0371867Y0615579
X0374033
X0376395Y0615480
X0375383Y0613375
X0373147Y0613413
X0383984Y0604677
X0393524Y0604828
X0395591
X0397658
X0399725
X0401792
X0403859
X0404850Y0603004
X0402783
X0400716
X0398650
X0396583
X0394516
X0393630Y0597591
X0395697
X0397764
X0399831
X0401898
X0403965
X0402980Y0595819
X0405047
X0404063Y0594047
X0401996
X0399929
X0397862
X0395795
X0393728
X0394713Y0595819
X0396779
X0398847
X0400913
X0409793Y0592185
X0428177Y0595130
X0429616Y0586690
X0438020Y0590799
X0439996Y0591644
X0439500Y0589422
X0441453Y0590259
X0440965Y0587956
X0455933Y0582236
X0460461Y0582039
X0463073Y0584350
X0465557Y0586650
X0463429Y0589134
X0460067Y0589815
X0462528Y0599953
X0458901Y0575823
X0465874Y0573279
X0459343Y0566678
X0454287Y0558996
X0452271Y0559044
Y0556977
X0454287Y0556929
Y0554862
X0452271Y0554910
X0450232Y0554874
Y0556941
Y0559008
X0448158
Y0556941
Y0554874
X0448095Y0552833
X0450170
X0452209Y0552868
X0454224Y0552821
X0458787Y0544835
X0436697Y0566069
X0436839Y0568063
X0434692Y0568012
X0434676Y0565948
X0433180Y0564583
X0428571Y0568457
X0431622Y0572394
X0430638Y0603004
X0430342Y0607622
X0433689
X0437331Y0607728
X0437331Y0612945
X0439299
X0435264Y0613043
X0433295Y0613142
X0431327
X0429260
X0427193Y0613043
X0424240Y0612650
X0415713Y0613831
X0379457Y0582692
X0372567Y0581718
X0366957Y0581744
X0361543Y0566831
X0360559Y0561862
X0375498Y0544860
T02
X0367342Y0552843
X0467343
M30
