G04*
G04 #@! TF.GenerationSoftware,Altium Limited,Altium Designer,21.7.2 (23)*
G04*
G04 Layer_Color=12632256*
%FSLAX25Y25*%
%MOIN*%
G70*
G04*
G04 #@! TF.SameCoordinates,812AF89C-3657-4E70-95C4-B7CA59FF2A15*
G04*
G04*
G04 #@! TF.FilePolarity,Positive*
G04*
G01*
G75*
%ADD10C,0.00394*%
%ADD12C,0.00787*%
%ADD14C,0.00197*%
%ADD74C,0.17717*%
D10*
X949270Y822837D02*
Y835632D01*
X936474D02*
X949270D01*
X936474Y822837D02*
Y835632D01*
Y822837D02*
X949270D01*
X965903Y834057D02*
X970628D01*
Y827758D02*
Y834057D01*
X965903Y827758D02*
X970628D01*
X965903D02*
Y834057D01*
X973974Y863782D02*
X975057Y862699D01*
X973974D02*
X977124D01*
Y867423D01*
X973974D02*
X977124D01*
X973974Y862699D02*
Y867423D01*
X970074Y851400D02*
X983994Y865320D01*
X997913Y851400D01*
X983994Y837481D02*
X997913Y851400D01*
X970074D02*
X983994Y837481D01*
X971467Y850008D02*
Y852792D01*
X996907Y872541D02*
X1005962D01*
Y856006D02*
Y872541D01*
X996907Y856006D02*
X1005962D01*
X996907D02*
Y872541D01*
Y854529D02*
X1005962D01*
Y837994D02*
Y854529D01*
X996907Y837994D02*
X1005962D01*
X996907D02*
Y854529D01*
X982144Y821459D02*
X994939D01*
Y808663D02*
Y821459D01*
X982144Y808663D02*
X994939D01*
X982144D02*
Y821459D01*
X965313Y804037D02*
Y816833D01*
X978108D01*
Y804037D02*
Y816833D01*
X965313Y804037D02*
X978108D01*
X1005864Y840258D02*
X1010785D01*
Y832384D02*
Y840258D01*
X1005864Y832384D02*
X1010785D01*
X1005864D02*
Y840258D01*
Y837699D02*
X1008423Y840258D01*
X995923Y873821D02*
X1007734D01*
Y862010D02*
Y873821D01*
X995923Y862010D02*
X1007734D01*
X995923D02*
Y873821D01*
Y870868D02*
X998876Y873821D01*
X945234Y869785D02*
X947203Y867817D01*
X927518Y869785D02*
X947203D01*
X927518Y850100D02*
Y869785D01*
Y850100D02*
X947203D01*
Y869785D01*
X952026Y812994D02*
Y826774D01*
X963049D01*
Y812994D02*
Y826774D01*
X952026Y812994D02*
X963049D01*
X952026Y815848D02*
X954880Y812994D01*
X936474Y808860D02*
X949270D01*
X936474D02*
Y821655D01*
X949270D01*
Y808860D02*
Y821655D01*
X931159Y808959D02*
Y821754D01*
X918364D02*
X931159D01*
X918364Y808959D02*
Y821754D01*
Y808959D02*
X931159D01*
X931159Y822837D02*
Y835632D01*
X918364D02*
X931159D01*
X918364Y822837D02*
Y835632D01*
Y822837D02*
X931159D01*
X904093Y844884D02*
X910392D01*
X904093D02*
Y856301D01*
X910392D01*
Y844884D02*
Y856301D01*
X952419Y819490D02*
Y838978D01*
X933325D02*
X952419D01*
X933325Y819490D02*
Y838978D01*
Y819490D02*
X952419D01*
X961573Y838191D02*
X974959D01*
X961573Y823624D02*
Y838191D01*
Y823624D02*
X974959D01*
Y838191D01*
X992380Y876872D02*
X1009900D01*
Y851675D02*
Y876872D01*
X992380Y851675D02*
X1009900D01*
X992380D02*
Y876872D01*
Y858860D02*
X1009900D01*
Y833663D02*
Y858860D01*
X992380Y833663D02*
X1009900D01*
X992380D02*
Y858860D01*
X978994Y824805D02*
X998088D01*
Y805317D02*
Y824805D01*
X978994Y805317D02*
X998088D01*
X978994D02*
Y824805D01*
X961967Y800888D02*
Y819982D01*
X981455D01*
Y800888D02*
Y819982D01*
X961967Y800888D02*
X981455D01*
X892529Y879529D02*
X920136D01*
Y853939D02*
Y879529D01*
X892529Y853939D02*
X920136D01*
X892529D02*
Y879529D01*
X933325Y805514D02*
X952419D01*
X933325D02*
Y825002D01*
X952419D01*
Y805514D02*
Y825002D01*
X934309Y805612D02*
Y825100D01*
X915215D02*
X934309D01*
X915215Y805612D02*
Y825100D01*
Y805612D02*
X934309D01*
X934309Y819490D02*
Y838978D01*
X915215D02*
X934309D01*
X915215Y819490D02*
Y838978D01*
Y819490D02*
X934309D01*
X897010Y840947D02*
X917474D01*
Y860238D01*
X897010D02*
X917474D01*
X897010Y840947D02*
Y860238D01*
D12*
X1015287Y876185D02*
G03*
X1015249Y876266I-372J-129D01*
G01*
X1014780Y877011D02*
G03*
X1014725Y877081I-334J-208D01*
G01*
X1014780Y877013D02*
G03*
X1014725Y877081I-333J-209D01*
G01*
X1015287Y876187D02*
G03*
X1015248Y876267I-372J-130D01*
G01*
X1015699Y874348D02*
G03*
X1015696Y874393I-394J0D01*
G01*
X1015598Y875267D02*
G03*
X1015578Y875354I-391J-43D01*
G01*
X1015699Y874348D02*
G03*
X1015696Y874394I-394J0D01*
G01*
X1015598Y875269D02*
G03*
X1015578Y875356I-391J-44D01*
G01*
X1013287Y878228D02*
G03*
X1013206Y878267I-211J-333D01*
G01*
X1012374Y878558D02*
G03*
X1012288Y878578I-130J-372D01*
G01*
X1013286Y878229D02*
G03*
X1013206Y878267I-209J-333D01*
G01*
X1011412Y878677D02*
G03*
X1011368Y878679I-44J-391D01*
G01*
X1011412Y878677D02*
G03*
X1011368Y878679I-44J-391D01*
G01*
X1012374Y878558D02*
G03*
X1012288Y878578I-130J-372D01*
G01*
X1014101Y877705D02*
G03*
X1014032Y877760I-279J-279D01*
G01*
X1014101Y877705D02*
G03*
X1014031Y877761I-279J-279D01*
G01*
X1015696Y807375D02*
G03*
X1015699Y807419I-391J44D01*
G01*
X1015578Y806413D02*
G03*
X1015598Y806501I-372J130D01*
G01*
X1015696Y807374D02*
G03*
X1015699Y807419I-391J46D01*
G01*
X1015578Y806412D02*
G03*
X1015598Y806499I-371J131D01*
G01*
X1015249Y805502D02*
G03*
X1015287Y805582I-333J209D01*
G01*
X1015248Y805500D02*
G03*
X1015287Y805581I-333J211D01*
G01*
X1014725Y804686D02*
G03*
X1014780Y804756I-279J279D01*
G01*
X1014725Y804686D02*
G03*
X1014780Y804755I-279J279D01*
G01*
X1014032Y804008D02*
G03*
X1014101Y804063I-209J333D01*
G01*
X1014031Y804007D02*
G03*
X1014101Y804063I-208J334D01*
G01*
X1013206Y803500D02*
G03*
X1013286Y803539I-130J372D01*
G01*
X1013206Y803500D02*
G03*
X1013287Y803539I-130J372D01*
G01*
X1012288Y803190D02*
G03*
X1012374Y803209I-44J391D01*
G01*
X1012288Y803190D02*
G03*
X1012374Y803209I-44J391D01*
G01*
X1011368Y803088D02*
G03*
X1011412Y803091I0J394D01*
G01*
X1011368Y803088D02*
G03*
X1011412Y803091I0J394D01*
G01*
X899557Y878679D02*
G03*
X899513Y878677I0J-394D01*
G01*
X899557Y878679D02*
G03*
X899513Y878677I0J-394D01*
G01*
X898637Y878578D02*
G03*
X898551Y878558I44J-391D01*
G01*
X897719Y878267D02*
G03*
X897639Y878229I130J-372D01*
G01*
X898637Y878578D02*
G03*
X898551Y878558I44J-391D01*
G01*
X897719Y878267D02*
G03*
X897638Y878228I130J-372D01*
G01*
X896894Y877761D02*
G03*
X896824Y877705I208J-334D01*
G01*
X896893Y877760D02*
G03*
X896824Y877705I209J-333D01*
G01*
X896200Y877081D02*
G03*
X896146Y877013I279J-279D01*
G01*
X896200Y877081D02*
G03*
X896145Y877011I279J-279D01*
G01*
X895677Y876267D02*
G03*
X895638Y876187I333J-211D01*
G01*
X895677Y876266D02*
G03*
X895638Y876185I333J-209D01*
G01*
X895347Y875356D02*
G03*
X895327Y875269I371J-131D01*
G01*
X895347Y875354D02*
G03*
X895327Y875267I372J-130D01*
G01*
X895229Y874394D02*
G03*
X895226Y874348I391J-46D01*
G01*
X895229Y874393D02*
G03*
X895226Y874348I391J-44D01*
G01*
X898551Y803209D02*
G03*
X898637Y803190I130J372D01*
G01*
X897638Y803539D02*
G03*
X897719Y803500I211J333D01*
G01*
X896824Y804063D02*
G03*
X896893Y804008I279J279D01*
G01*
X896824Y804063D02*
G03*
X896894Y804007I279J279D01*
G01*
X899513Y803091D02*
G03*
X899557Y803088I44J391D01*
G01*
X899513Y803091D02*
G03*
X899557Y803088I44J391D01*
G01*
X897639Y803539D02*
G03*
X897719Y803500I209J333D01*
G01*
X898551Y803209D02*
G03*
X898637Y803190I130J372D01*
G01*
X895327Y806499D02*
G03*
X895347Y806412I391J44D01*
G01*
X895226Y807419D02*
G03*
X895229Y807375I394J0D01*
G01*
X895226Y807419D02*
G03*
X895229Y807374I394J0D01*
G01*
X895327Y806501D02*
G03*
X895347Y806413I391J43D01*
G01*
X896146Y804755D02*
G03*
X896200Y804686I333J209D01*
G01*
X895638Y805581D02*
G03*
X895677Y805500I372J130D01*
G01*
X895638Y805582D02*
G03*
X895677Y805502I372J129D01*
G01*
X896145Y804756D02*
G03*
X896200Y804686I334J208D01*
G01*
X1014780Y877013D02*
X1014780Y877011D01*
X1015248Y876267D01*
X1015249Y876266D01*
X1015287Y876187D02*
X1015287Y876185D01*
X1015578Y875356D01*
X1015578Y875354D01*
X1014101Y877705D02*
X1014725Y877081D01*
X1015598Y875269D02*
X1015598Y875267D01*
X1015696Y874394D01*
X1015696Y874393D01*
X1015699Y807419D02*
Y874348D01*
X1012374Y878558D02*
X1013206Y878267D01*
X1014031Y877761D02*
X1014032Y877760D01*
X1013287Y878228D02*
X1014031Y877761D01*
X1013286Y878229D02*
X1013287Y878228D01*
X1011412Y878677D02*
X1012288Y878578D01*
X1015696Y807374D02*
X1015696Y807375D01*
X1015598Y806501D02*
X1015696Y807374D01*
X1015598Y806499D02*
X1015598Y806501D01*
X1015578Y806412D02*
X1015578Y806413D01*
X1015287Y805582D02*
X1015578Y806412D01*
X1015287Y805581D02*
X1015287Y805582D01*
X1015248Y805500D02*
X1015249Y805502D01*
X1014780Y804756D02*
X1015248Y805500D01*
X1014780Y804755D02*
X1014780Y804756D01*
X1014101Y804063D02*
X1014725Y804686D01*
X1014031Y804007D02*
X1014032Y804008D01*
X1013287Y803539D02*
X1014031Y804007D01*
X1013286Y803539D02*
X1013287Y803539D01*
X1012374Y803209D02*
X1013206Y803500D01*
X1011412Y803091D02*
X1012288Y803190D01*
X899557Y878679D02*
X1011368D01*
X898637Y878578D02*
X899513Y878677D01*
X897719Y878267D02*
X898551Y878558D01*
X897638Y878228D02*
X897639Y878229D01*
X896894Y877761D02*
X897638Y878228D01*
X896893Y877760D02*
X896894Y877761D01*
X896200Y877081D02*
X896824Y877705D01*
X896145Y877011D02*
X896146Y877013D01*
X895677Y876267D02*
X896145Y877011D01*
X895677Y876266D02*
X895677Y876267D01*
X895638Y876185D02*
X895638Y876187D01*
X895347Y875356D02*
X895638Y876185D01*
X895347Y875354D02*
X895347Y875356D01*
X895327Y875267D02*
X895327Y875269D01*
X895229Y874394D02*
X895327Y875267D01*
X895229Y874393D02*
X895229Y874394D01*
X897638Y803539D02*
X897639Y803539D01*
X896894Y804007D02*
X897638Y803539D01*
X896893Y804008D02*
X896894Y804007D01*
X899557Y803088D02*
X1011368D01*
X897719Y803500D02*
X898551Y803209D01*
X898637Y803190D02*
X899513Y803091D01*
X895347Y806413D02*
X895347Y806412D01*
X895638Y805582D01*
X895638Y805581D01*
X895226Y807419D02*
Y874348D01*
X895229Y807375D02*
X895229Y807374D01*
X895327Y806501D01*
X895327Y806499D01*
X896200Y804686D02*
X896824Y804063D01*
X895677Y805502D02*
X895677Y805500D01*
X896145Y804756D01*
X896146Y804755D01*
X900844Y875593D02*
X910490D01*
Y857876D02*
Y875593D01*
X900844Y857876D02*
X910490D01*
X900844D02*
Y875593D01*
D14*
X973187Y860238D02*
X977911D01*
Y869884D01*
X973187D02*
X977911D01*
X973187Y860238D02*
Y869884D01*
X966595Y851400D02*
X983994Y868799D01*
X1001393Y851400D01*
X983994Y834001D02*
X1001393Y851400D01*
X966595D02*
X983994Y834001D01*
X1001632Y841636D02*
X1015018D01*
Y831006D02*
Y841636D01*
X1001632Y831006D02*
X1015018D01*
X1001632D02*
Y841636D01*
X993364Y874805D02*
X1010293D01*
Y861026D02*
Y874805D01*
X993364Y861026D02*
X1010293D01*
X993364D02*
Y874805D01*
X925057Y872246D02*
X949663D01*
X925057Y847640D02*
Y872246D01*
Y847640D02*
X949663D01*
Y872246D01*
X949860Y809352D02*
Y830415D01*
X965215D01*
Y809352D02*
Y830415D01*
X949860Y809352D02*
X965215D01*
D74*
X905463Y813325D02*
D03*
X1005463D02*
D03*
M02*
