G04*
G04 #@! TF.GenerationSoftware,Altium Limited,Altium Designer,21.7.2 (23)*
G04*
G04 Layer_Color=128*
%FSLAX25Y25*%
%MOIN*%
G70*
G04*
G04 #@! TF.SameCoordinates,AC889540-4392-436D-8BBA-4FEAA821C39F*
G04*
G04*
G04 #@! TF.FilePolarity,Positive*
G04*
G01*
G75*
%ADD12C,0.00787*%
%ADD17R,0.02362X0.02500*%
%ADD37R,0.04500X0.05906*%
%ADD74R,0.13780X0.35433*%
%ADD75R,0.04331X0.02559*%
%ADD76R,0.02362X0.01575*%
%ADD77R,0.14567X0.05906*%
%ADD78R,0.12303X0.07284*%
%ADD79R,0.05118X0.02165*%
%ADD80R,0.05807X0.03150*%
%ADD81R,0.03937X0.03800*%
D12*
X119561Y72837D02*
G03*
X119522Y72918I-372J-129D01*
G01*
X119054Y73663D02*
G03*
X118998Y73733I-334J-208D01*
G01*
X119053Y73664D02*
G03*
X118998Y73733I-333J-209D01*
G01*
X119561Y72838D02*
G03*
X119522Y72919I-372J-130D01*
G01*
X119973Y71000D02*
G03*
X119970Y71044I-394J0D01*
G01*
X119871Y71919D02*
G03*
X119852Y72006I-391J-43D01*
G01*
X119973Y71000D02*
G03*
X119970Y71046I-394J0D01*
G01*
X119871Y71920D02*
G03*
X119851Y72007I-391J-44D01*
G01*
X117561Y74880D02*
G03*
X117480Y74919I-211J-333D01*
G01*
X116648Y75210D02*
G03*
X116562Y75230I-130J-372D01*
G01*
X117559Y74880D02*
G03*
X117480Y74919I-209J-333D01*
G01*
X115686Y75328D02*
G03*
X115642Y75331I-44J-391D01*
G01*
X115686Y75328D02*
G03*
X115642Y75331I-44J-391D01*
G01*
X116648Y75210D02*
G03*
X116562Y75230I-130J-372D01*
G01*
X118375Y74357D02*
G03*
X118306Y74411I-279J-279D01*
G01*
X118375Y74357D02*
G03*
X118305Y74412I-279J-279D01*
G01*
X119970Y4027D02*
G03*
X119973Y4071I-391J44D01*
G01*
X119852Y3065D02*
G03*
X119871Y3152I-372J130D01*
G01*
X119970Y4025D02*
G03*
X119973Y4071I-391J46D01*
G01*
X119851Y3063D02*
G03*
X119871Y3151I-371J131D01*
G01*
X119522Y2153D02*
G03*
X119561Y2234I-333J209D01*
G01*
X119522Y2152D02*
G03*
X119561Y2233I-333J211D01*
G01*
X118998Y1338D02*
G03*
X119054Y1408I-279J279D01*
G01*
X118998Y1338D02*
G03*
X119053Y1407I-279J279D01*
G01*
X118306Y659D02*
G03*
X118375Y714I-209J333D01*
G01*
X118305Y659D02*
G03*
X118375Y714I-208J334D01*
G01*
X117480Y152D02*
G03*
X117559Y190I-130J372D01*
G01*
X117480Y152D02*
G03*
X117561Y191I-130J372D01*
G01*
X116562Y-159D02*
G03*
X116648Y-139I-44J391D01*
G01*
X116562Y-159D02*
G03*
X116648Y-139I-44J391D01*
G01*
X115642Y-260D02*
G03*
X115686Y-258I0J394D01*
G01*
X115642Y-260D02*
G03*
X115686Y-258I0J394D01*
G01*
X3831Y75331D02*
G03*
X3787Y75328I0J-394D01*
G01*
X3831Y75331D02*
G03*
X3787Y75328I0J-394D01*
G01*
X2911Y75230D02*
G03*
X2825Y75210I44J-391D01*
G01*
X1992Y74919D02*
G03*
X1913Y74880I130J-372D01*
G01*
X2911Y75230D02*
G03*
X2825Y75210I44J-391D01*
G01*
X1992Y74919D02*
G03*
X1912Y74880I130J-372D01*
G01*
X1168Y74412D02*
G03*
X1098Y74357I208J-334D01*
G01*
X1166Y74411D02*
G03*
X1098Y74357I209J-333D01*
G01*
X474Y73733D02*
G03*
X419Y73664I279J-279D01*
G01*
X474Y73733D02*
G03*
X418Y73663I279J-279D01*
G01*
X-49Y72919D02*
G03*
X-88Y72838I333J-211D01*
G01*
X-50Y72918D02*
G03*
X-89Y72837I333J-209D01*
G01*
X-379Y72007D02*
G03*
X-399Y71920I371J-131D01*
G01*
X-379Y72006D02*
G03*
X-399Y71919I372J-130D01*
G01*
X-497Y71046D02*
G03*
X-500Y71000I391J-46D01*
G01*
X-498Y71044D02*
G03*
X-500Y71000I391J-44D01*
G01*
X2825Y-139D02*
G03*
X2911Y-159I130J372D01*
G01*
X1912Y191D02*
G03*
X1992Y152I211J333D01*
G01*
X1098Y714D02*
G03*
X1166Y659I279J279D01*
G01*
X1098Y714D02*
G03*
X1168Y659I279J279D01*
G01*
X3787Y-258D02*
G03*
X3831Y-260I44J391D01*
G01*
X3787Y-258D02*
G03*
X3831Y-260I44J391D01*
G01*
X1913Y190D02*
G03*
X1992Y152I209J333D01*
G01*
X2825Y-139D02*
G03*
X2911Y-159I130J372D01*
G01*
X-399Y3151D02*
G03*
X-379Y3063I391J44D01*
G01*
X-500Y4071D02*
G03*
X-498Y4027I394J0D01*
G01*
X-500Y4071D02*
G03*
X-497Y4025I394J0D01*
G01*
X-399Y3152D02*
G03*
X-379Y3065I391J43D01*
G01*
X419Y1407D02*
G03*
X474Y1338I333J209D01*
G01*
X-88Y2233D02*
G03*
X-49Y2152I372J130D01*
G01*
X-89Y2234D02*
G03*
X-50Y2153I372J129D01*
G01*
X418Y1408D02*
G03*
X474Y1338I334J208D01*
G01*
X119053Y73664D02*
X119054Y73663D01*
X119522Y72919D01*
X119522Y72918D01*
X119561Y72838D02*
X119561Y72837D01*
X119851Y72007D01*
X119852Y72006D01*
X118375Y74357D02*
X118998Y73733D01*
X119871Y71920D02*
X119871Y71919D01*
X119970Y71046D01*
X119970Y71044D01*
X119973Y4071D02*
Y71000D01*
X116648Y75210D02*
X117480Y74919D01*
X118305Y74412D02*
X118306Y74411D01*
X117561Y74880D02*
X118305Y74412D01*
X117559Y74880D02*
X117561Y74880D01*
X115686Y75328D02*
X116562Y75230D01*
X119970Y4025D02*
X119970Y4027D01*
X119871Y3152D02*
X119970Y4025D01*
X119871Y3151D02*
X119871Y3152D01*
X119851Y3063D02*
X119852Y3065D01*
X119561Y2234D02*
X119851Y3063D01*
X119561Y2233D02*
X119561Y2234D01*
X119522Y2152D02*
X119522Y2153D01*
X119054Y1408D02*
X119522Y2152D01*
X119053Y1407D02*
X119054Y1408D01*
X118375Y714D02*
X118998Y1338D01*
X118305Y659D02*
X118306Y659D01*
X117561Y191D02*
X118305Y659D01*
X117559Y190D02*
X117561Y191D01*
X116648Y-139D02*
X117480Y152D01*
X115686Y-258D02*
X116562Y-159D01*
X3831Y75331D02*
X115642D01*
X2911Y75230D02*
X3787Y75328D01*
X1992Y74919D02*
X2825Y75210D01*
X1912Y74880D02*
X1913Y74880D01*
X1168Y74412D02*
X1912Y74880D01*
X1166Y74411D02*
X1168Y74412D01*
X474Y73733D02*
X1098Y74357D01*
X418Y73663D02*
X419Y73664D01*
X-49Y72919D02*
X418Y73663D01*
X-50Y72918D02*
X-49Y72919D01*
X-89Y72837D02*
X-88Y72838D01*
X-379Y72007D02*
X-89Y72837D01*
X-379Y72006D02*
X-379Y72007D01*
X-399Y71919D02*
X-399Y71920D01*
X-497Y71046D02*
X-399Y71919D01*
X-498Y71044D02*
X-497Y71046D01*
X1912Y191D02*
X1913Y190D01*
X1168Y659D02*
X1912Y191D01*
X1166Y659D02*
X1168Y659D01*
X3831Y-260D02*
X115642D01*
X1992Y152D02*
X2825Y-139D01*
X2911Y-159D02*
X3787Y-258D01*
X-379Y3065D02*
X-379Y3063D01*
X-89Y2234D01*
X-88Y2233D01*
X-500Y4071D02*
Y71000D01*
X-498Y4027D02*
X-497Y4025D01*
X-399Y3152D01*
X-399Y3151D01*
X474Y1338D02*
X1098Y714D01*
X-50Y2153D02*
X-49Y2152D01*
X418Y1408D01*
X419Y1407D01*
D17*
X58366Y49570D02*
D03*
Y54170D02*
D03*
Y62142D02*
D03*
Y57543D02*
D03*
X9449Y34252D02*
D03*
Y38852D02*
D03*
X14961D02*
D03*
Y34252D02*
D03*
X3937Y38852D02*
D03*
Y34252D02*
D03*
D37*
X6928Y44783D02*
D03*
X14528D02*
D03*
Y50984D02*
D03*
X6928D02*
D03*
D74*
X92421Y18799D02*
D03*
X76772Y18701D02*
D03*
X26969D02*
D03*
X46850D02*
D03*
D75*
X108071Y53543D02*
D03*
Y68307D02*
D03*
Y35531D02*
D03*
Y50295D02*
D03*
D76*
X101772Y57382D02*
D03*
Y59744D02*
D03*
Y62106D02*
D03*
Y64468D02*
D03*
Y39370D02*
D03*
Y41732D02*
D03*
Y44094D02*
D03*
Y46457D02*
D03*
D77*
X61811Y29134D02*
D03*
Y3937D02*
D03*
D78*
X6890Y63386D02*
D03*
D79*
X16291Y57480D02*
D03*
Y69291D02*
D03*
D80*
X15945Y63386D02*
D03*
D81*
X3937Y30365D02*
D03*
Y23965D02*
D03*
X9449D02*
D03*
Y30365D02*
D03*
X63583Y56448D02*
D03*
Y50048D02*
D03*
X14961Y30365D02*
D03*
Y23965D02*
D03*
M02*
