G04*
G04 #@! TF.GenerationSoftware,Altium Limited,Altium Designer,21.7.2 (23)*
G04*
G04 Layer_Physical_Order=3*
G04 Layer_Color=16440176*
%FSLAX25Y25*%
%MOIN*%
G70*
G04*
G04 #@! TF.SameCoordinates,AC889540-4392-436D-8BBA-4FEAA821C39F*
G04*
G04*
G04 #@! TF.FilePolarity,Positive*
G04*
G01*
G75*
%ADD12C,0.00787*%
%ADD67C,0.01000*%
%ADD68C,0.01181*%
%ADD72C,0.17717*%
%ADD73C,0.01772*%
G36*
X115175Y74112D02*
X115642Y74031D01*
X115642Y74031D01*
Y74031D01*
X116090Y74056D01*
X116424Y73971D01*
X116424Y73971D01*
X116877Y73836D01*
X116896Y73829D01*
X116942Y73805D01*
X117292Y73623D01*
X117446Y73508D01*
X117453Y73445D01*
X117456Y73437D01*
X117645Y73359D01*
X117829Y73187D01*
X118001Y73003D01*
X118079Y72814D01*
X118086Y72811D01*
X118150Y72804D01*
X118265Y72649D01*
X118278Y72628D01*
X118471Y72254D01*
X118531Y72100D01*
X118613Y71783D01*
X118613Y71782D01*
X118614Y71779D01*
X118684Y71495D01*
X118672Y71000D01*
X118672D01*
X118755Y70534D01*
X118768Y70422D01*
Y27961D01*
X118268Y27753D01*
X118257Y27764D01*
X117715Y27989D01*
X117128D01*
X116585Y27764D01*
X116170Y27349D01*
X115945Y26806D01*
Y26219D01*
X116170Y25676D01*
X116585Y25261D01*
X117128Y25036D01*
X117715D01*
X118257Y25261D01*
X118268Y25272D01*
X118768Y25065D01*
Y14756D01*
X118301Y14563D01*
X118268Y14569D01*
X117228Y16125D01*
X115885Y17469D01*
X114305Y18524D01*
X112550Y19251D01*
X110686Y19622D01*
X108786D01*
X106923Y19251D01*
X105167Y18524D01*
X103587Y17469D01*
X102244Y16125D01*
X101188Y14545D01*
X100461Y12790D01*
X100091Y10926D01*
Y9026D01*
X100461Y7163D01*
X101188Y5407D01*
X102244Y3828D01*
X103587Y2484D01*
X105144Y1444D01*
X105149Y1412D01*
X104956Y944D01*
X14516D01*
X14323Y1412D01*
X14329Y1444D01*
X15885Y2484D01*
X17229Y3828D01*
X18284Y5407D01*
X19011Y7163D01*
X19382Y9026D01*
Y10926D01*
X19011Y12790D01*
X18284Y14545D01*
X17229Y16125D01*
X15885Y17469D01*
X14305Y18524D01*
X12550Y19251D01*
X10686Y19622D01*
X8786D01*
X6923Y19251D01*
X5167Y18524D01*
X3588Y17469D01*
X2244Y16125D01*
X1204Y14569D01*
X1172Y14563D01*
X704Y14756D01*
Y70422D01*
X717Y70534D01*
X800Y71000D01*
X800D01*
X788Y71494D01*
X860Y71782D01*
X860D01*
X994Y72235D01*
X1002Y72254D01*
X1026Y72300D01*
X1208Y72650D01*
X1323Y72804D01*
X1386Y72811D01*
X1393Y72814D01*
X1472Y73003D01*
X1643Y73187D01*
X1828Y73359D01*
X2017Y73437D01*
X2020Y73445D01*
X2027Y73508D01*
X2181Y73623D01*
X2203Y73636D01*
X2576Y73829D01*
X2726Y73888D01*
X3048Y73971D01*
X3049Y73971D01*
X3052Y73972D01*
X3208Y74037D01*
X3355Y74060D01*
X3831Y74031D01*
Y74031D01*
X4308Y74114D01*
X4425Y74126D01*
X98712D01*
X98919Y73627D01*
X98703Y73410D01*
X98479Y72868D01*
Y72280D01*
X98703Y71738D01*
X99119Y71323D01*
X99661Y71098D01*
X100249D01*
X100791Y71323D01*
X101207Y71738D01*
X101431Y72280D01*
Y72868D01*
X101207Y73410D01*
X100990Y73627D01*
X101198Y74126D01*
X115048D01*
X115175Y74112D01*
D02*
G37*
G36*
X118768Y5197D02*
Y4649D01*
X118755Y4536D01*
X118672Y4071D01*
X118672D01*
X118684Y3576D01*
X118613Y3289D01*
X118613D01*
X118478Y2836D01*
X118471Y2817D01*
X118278Y2443D01*
X118265Y2421D01*
X118150Y2267D01*
X118086Y2260D01*
X118079Y2257D01*
X118001Y2068D01*
X117829Y1884D01*
X117645Y1712D01*
X117456Y1634D01*
X117453Y1626D01*
X117446Y1563D01*
X117292Y1448D01*
X116942Y1266D01*
X116896Y1242D01*
X116746Y1183D01*
X116424Y1099D01*
X116424Y1100D01*
X116420Y1098D01*
X116265Y1034D01*
X116117Y1011D01*
X115642Y1040D01*
Y1040D01*
X115165Y957D01*
X115048Y944D01*
X114516D01*
X114323Y1412D01*
X114329Y1444D01*
X115885Y2484D01*
X117228Y3828D01*
X118268Y5384D01*
X118301Y5390D01*
X118768Y5197D01*
D02*
G37*
G36*
X1204Y5384D02*
X2244Y3828D01*
X3588Y2484D01*
X5144Y1444D01*
X5149Y1412D01*
X4956Y944D01*
X4425D01*
X4297Y959D01*
X3831Y1040D01*
Y1040D01*
X3382Y1015D01*
X3049Y1100D01*
X3049Y1100D01*
X2596Y1235D01*
X2576Y1242D01*
X2203Y1434D01*
X2181Y1448D01*
X2027Y1563D01*
X2020Y1626D01*
X2017Y1634D01*
X1828Y1712D01*
X1643Y1884D01*
X1472Y2068D01*
X1393Y2257D01*
X1386Y2260D01*
X1323Y2267D01*
X1208Y2421D01*
X1026Y2771D01*
X1002Y2817D01*
X941Y2971D01*
X859Y3288D01*
X860Y3289D01*
X858Y3292D01*
X788Y3576D01*
X800Y4071D01*
X800D01*
X717Y4536D01*
X704Y4649D01*
Y5197D01*
X1172Y5390D01*
X1204Y5384D01*
D02*
G37*
%LPC*%
G36*
X116731Y69357D02*
X116143D01*
X115601Y69132D01*
X115185Y68717D01*
X114961Y68174D01*
Y67587D01*
X115185Y67044D01*
X115601Y66629D01*
X116143Y66404D01*
X116731D01*
X117273Y66629D01*
X117689Y67044D01*
X117913Y67587D01*
Y68174D01*
X117689Y68717D01*
X117273Y69132D01*
X116731Y69357D01*
D02*
G37*
G36*
X66240Y68334D02*
X26400D01*
X25862Y68227D01*
X25407Y67923D01*
X20296Y62813D01*
X19796Y63020D01*
Y63092D01*
X19572Y63635D01*
X19156Y64050D01*
X18739Y64223D01*
X18737Y64235D01*
X18961Y64777D01*
Y65364D01*
X18737Y65907D01*
X18321Y66322D01*
X17779Y66547D01*
X17191D01*
X16649Y66322D01*
X16378Y66052D01*
X16302Y66128D01*
X15759Y66353D01*
X15172D01*
X14629Y66128D01*
X14508Y66007D01*
X13918Y66124D01*
X13850Y66289D01*
X13435Y66704D01*
X12892Y66929D01*
X12305D01*
X12149Y66865D01*
X11980Y67273D01*
X11565Y67689D01*
X11022Y67913D01*
X10435D01*
X9892Y67689D01*
X9695Y67491D01*
X9498Y67689D01*
X8955Y67913D01*
X8368D01*
X7825Y67689D01*
X7410Y67273D01*
X7185Y66731D01*
Y66143D01*
X7410Y65601D01*
X7603Y65408D01*
X7407Y65212D01*
X7183Y64669D01*
Y64082D01*
X7407Y63539D01*
X7607Y63340D01*
X7393Y63127D01*
X7169Y62584D01*
Y61997D01*
X7393Y61454D01*
X7809Y61039D01*
X8351Y60814D01*
X8939D01*
X9481Y61039D01*
X9678Y61236D01*
X9876Y61039D01*
X10418Y60814D01*
X11005D01*
X11548Y61039D01*
X11963Y61454D01*
X12140Y61879D01*
X12305Y61811D01*
X12892D01*
X13435Y62036D01*
X13448Y62049D01*
X13689Y62001D01*
X14105Y61586D01*
X14647Y61361D01*
X15235D01*
X15777Y61586D01*
X16193Y62001D01*
X16373Y62436D01*
X16475Y62451D01*
X16879Y62419D01*
X17068Y61962D01*
X17484Y61547D01*
X18026Y61322D01*
X18099D01*
X18306Y60822D01*
X17037Y59553D01*
X16732Y59097D01*
X16683Y58848D01*
X16163Y58795D01*
X15748Y59210D01*
X15205Y59435D01*
X14618D01*
X14076Y59210D01*
X13660Y58795D01*
X13435Y58252D01*
Y57665D01*
X13660Y57122D01*
X14076Y56707D01*
X14618Y56482D01*
X15205D01*
X15748Y56707D01*
X16067Y57026D01*
X16522Y57010D01*
X16628Y56977D01*
X17043Y56562D01*
X17586Y56337D01*
X18173D01*
X18716Y56562D01*
X19131Y56977D01*
X19300Y57384D01*
X19328Y57427D01*
X19339Y57477D01*
X19356Y57520D01*
Y57566D01*
X19435Y57964D01*
Y57978D01*
X26982Y65524D01*
X65658D01*
X71709Y59474D01*
X71780Y59302D01*
X72195Y58886D01*
X72620Y58710D01*
X72521Y58210D01*
X28774D01*
X28272Y58110D01*
X27846Y57826D01*
X25761Y55740D01*
X25476Y55315D01*
X25376Y54812D01*
Y47107D01*
X25476Y46605D01*
X25761Y46179D01*
X28586Y43353D01*
X29012Y43069D01*
X29515Y42969D01*
X29786D01*
X29872Y42882D01*
X30415Y42658D01*
X31002D01*
X31545Y42882D01*
X31960Y43297D01*
X32185Y43840D01*
Y44427D01*
X31960Y44970D01*
X31545Y45385D01*
X31097Y45571D01*
X31108Y46058D01*
X31112Y46072D01*
X31651Y46296D01*
X32067Y46711D01*
X32291Y47254D01*
Y47841D01*
X32067Y48384D01*
X31651Y48799D01*
X31109Y49024D01*
X30521D01*
X29979Y48799D01*
X29563Y48384D01*
X29339Y47841D01*
Y47254D01*
X29503Y46856D01*
X29079Y46573D01*
X28001Y47651D01*
Y54269D01*
X29318Y55585D01*
X76872D01*
X99837Y32620D01*
X100043Y32121D01*
X100459Y31705D01*
X101002Y31481D01*
X101589D01*
X102131Y31705D01*
X102547Y32121D01*
X102771Y32663D01*
Y33250D01*
X102547Y33793D01*
X102131Y34209D01*
X101840Y34329D01*
X98738Y37432D01*
X98877Y38000D01*
X99163Y38118D01*
X99578Y38534D01*
X99803Y39076D01*
Y39664D01*
X99578Y40206D01*
X99163Y40622D01*
X98620Y40846D01*
X98033D01*
X97491Y40622D01*
X97075Y40206D01*
X96956Y39920D01*
X96389Y39781D01*
X78343Y57826D01*
X77918Y58110D01*
X77415Y58210D01*
X73542D01*
X73443Y58710D01*
X73868Y58886D01*
X74283Y59302D01*
X74354Y59474D01*
X75188Y60308D01*
X81879D01*
X82416Y60415D01*
X82872Y60719D01*
X85855Y63702D01*
X91715D01*
X93028Y62388D01*
X92882Y61827D01*
X92579Y61702D01*
X92164Y61286D01*
X91939Y60744D01*
Y60156D01*
X92164Y59614D01*
X92579Y59198D01*
X93122Y58974D01*
X93709D01*
X94252Y59198D01*
X94667Y59614D01*
X94793Y59916D01*
X95354Y60062D01*
X99323Y56093D01*
X99779Y55789D01*
X100317Y55682D01*
X104339D01*
X108044Y51977D01*
Y48085D01*
X108151Y47547D01*
X108455Y47092D01*
X108809Y46738D01*
Y45567D01*
X108309Y45233D01*
X108244Y45260D01*
X107657D01*
X107114Y45035D01*
X106699Y44620D01*
X106474Y44077D01*
Y43490D01*
X106501Y43425D01*
X106167Y42925D01*
X105845D01*
X105760Y42960D01*
X105173D01*
X104630Y42735D01*
X104215Y42320D01*
X103990Y41777D01*
Y41190D01*
X104215Y40647D01*
X104630Y40232D01*
X105173Y40007D01*
X105760D01*
X106020Y40115D01*
X108091D01*
X108151Y39817D01*
X108455Y39361D01*
X113244Y34572D01*
X113315Y34400D01*
X113731Y33985D01*
X114273Y33760D01*
X114861D01*
X115403Y33985D01*
X115819Y34400D01*
X116043Y34942D01*
Y35530D01*
X115819Y36072D01*
X115403Y36488D01*
X115231Y36559D01*
X114725Y37066D01*
X114842Y37655D01*
X115009Y37725D01*
X115425Y38140D01*
X115650Y38683D01*
Y39270D01*
X115425Y39813D01*
X115009Y40228D01*
X114467Y40453D01*
X113880D01*
X113337Y40228D01*
X112922Y39813D01*
X112852Y39645D01*
X112262Y39528D01*
X110854Y40936D01*
Y41499D01*
X111208Y41852D01*
X111512Y42308D01*
X111619Y42846D01*
Y47320D01*
X111512Y47857D01*
X111208Y48313D01*
X110854Y48667D01*
Y52559D01*
X110747Y53097D01*
X110442Y53553D01*
X106244Y57750D01*
X106173Y57923D01*
X105757Y58338D01*
X105215Y58563D01*
X104628D01*
X104455Y58492D01*
X100899D01*
X97763Y61627D01*
X97970Y62127D01*
X98197D01*
X98739Y62352D01*
X99155Y62767D01*
X99379Y63310D01*
Y63897D01*
X99155Y64440D01*
X98739Y64855D01*
X98197Y65080D01*
X97610D01*
X97067Y64855D01*
X96652Y64440D01*
X96427Y63897D01*
Y63670D01*
X95927Y63463D01*
X93290Y66100D01*
X92834Y66404D01*
X92297Y66511D01*
X85273D01*
X84735Y66404D01*
X84279Y66100D01*
X81297Y63118D01*
X80677D01*
X80568Y63578D01*
X80568Y63618D01*
X80976Y64026D01*
X81201Y64569D01*
Y65156D01*
X80976Y65698D01*
X80561Y66114D01*
X80018Y66339D01*
X79431D01*
X78888Y66114D01*
X78473Y65698D01*
X78248Y65156D01*
Y64569D01*
X78473Y64026D01*
X78881Y63618D01*
X78880Y63578D01*
X78772Y63118D01*
X74606D01*
X74069Y63011D01*
X73613Y62706D01*
X73032Y62125D01*
X67234Y67923D01*
X66778Y68227D01*
X66240Y68334D01*
D02*
G37*
G36*
X116700Y64795D02*
X116112D01*
X115570Y64570D01*
X115154Y64155D01*
X114929Y63612D01*
Y63025D01*
X115154Y62482D01*
X115570Y62067D01*
X116112Y61842D01*
X116700D01*
X117242Y62067D01*
X117657Y62482D01*
X117882Y63025D01*
Y63612D01*
X117657Y64155D01*
X117242Y64570D01*
X116700Y64795D01*
D02*
G37*
G36*
X26672Y63287D02*
X26084D01*
X25542Y63063D01*
X25126Y62647D01*
X24902Y62105D01*
Y61517D01*
X25126Y60975D01*
X25542Y60559D01*
X26084Y60335D01*
X26672D01*
X27214Y60559D01*
X27630Y60975D01*
X27854Y61517D01*
Y62105D01*
X27630Y62647D01*
X27214Y63063D01*
X26672Y63287D01*
D02*
G37*
G36*
X89565Y62303D02*
X88978D01*
X88435Y62078D01*
X88020Y61663D01*
X87795Y61120D01*
Y60533D01*
X88020Y59991D01*
X88435Y59575D01*
X88978Y59350D01*
X89565D01*
X90108Y59575D01*
X90523Y59991D01*
X90748Y60533D01*
Y61120D01*
X90523Y61663D01*
X90108Y62078D01*
X89565Y62303D01*
D02*
G37*
G36*
X52480Y50795D02*
X51893D01*
X51350Y50570D01*
X50935Y50155D01*
X50710Y49613D01*
Y49025D01*
X50935Y48483D01*
X51350Y48067D01*
X51893Y47842D01*
X52480D01*
X53023Y48067D01*
X53438Y48483D01*
X53663Y49025D01*
Y49613D01*
X53438Y50155D01*
X53023Y50570D01*
X52480Y50795D01*
D02*
G37*
G36*
X102754Y48425D02*
X102167D01*
X101624Y48200D01*
X101209Y47785D01*
X100984Y47243D01*
Y46655D01*
X101209Y46112D01*
X101624Y45697D01*
X102167Y45472D01*
X102754D01*
X103297Y45697D01*
X103712Y46112D01*
X103937Y46655D01*
Y47243D01*
X103712Y47785D01*
X103297Y48200D01*
X102754Y48425D01*
D02*
G37*
G36*
X52262Y45168D02*
X51675D01*
X51132Y44943D01*
X50717Y44528D01*
X50492Y43985D01*
Y43398D01*
X50717Y42855D01*
X51132Y42440D01*
X51675Y42215D01*
X52262D01*
X52805Y42440D01*
X53220Y42855D01*
X53445Y43398D01*
Y43985D01*
X53220Y44528D01*
X52805Y44943D01*
X52262Y45168D01*
D02*
G37*
G36*
X80697Y40272D02*
X80110D01*
X79567Y40047D01*
X79151Y39632D01*
X79149Y39626D01*
X78533Y39444D01*
X78237Y39567D01*
X77649D01*
X77107Y39342D01*
X76691Y38927D01*
X76467Y38384D01*
Y37797D01*
X76691Y37254D01*
X77107Y36839D01*
X77649Y36614D01*
X78237D01*
X78779Y36839D01*
X79195Y37254D01*
X79197Y37260D01*
X79813Y37442D01*
X80110Y37319D01*
X80697D01*
X81239Y37544D01*
X81655Y37959D01*
X81880Y38502D01*
Y39089D01*
X81655Y39632D01*
X81239Y40047D01*
X80697Y40272D01*
D02*
G37*
G36*
X51958Y40954D02*
X51371D01*
X50828Y40729D01*
X50413Y40314D01*
X50188Y39771D01*
Y39184D01*
X50413Y38641D01*
X50828Y38226D01*
X51371Y38001D01*
X51958D01*
X52500Y38226D01*
X52916Y38641D01*
X53141Y39184D01*
Y39771D01*
X52916Y40314D01*
X52500Y40729D01*
X51958Y40954D01*
D02*
G37*
G36*
X103148Y40650D02*
X102561D01*
X102018Y40425D01*
X101603Y40009D01*
X101378Y39467D01*
Y38880D01*
X101603Y38337D01*
X102018Y37922D01*
X102561Y37697D01*
X103148D01*
X103691Y37922D01*
X104106Y38337D01*
X104331Y38880D01*
Y39467D01*
X104106Y40009D01*
X103691Y40425D01*
X103148Y40650D01*
D02*
G37*
G36*
X9644Y40354D02*
X9057D01*
X8514Y40130D01*
X8099Y39714D01*
X7874Y39172D01*
Y38584D01*
X8099Y38042D01*
X8514Y37626D01*
X9057Y37402D01*
X9644D01*
X10187Y37626D01*
X10602Y38042D01*
X10827Y38584D01*
Y39172D01*
X10602Y39714D01*
X10187Y40130D01*
X9644Y40354D01*
D02*
G37*
G36*
X15254Y40328D02*
X14667D01*
X14124Y40104D01*
X13709Y39688D01*
X13484Y39146D01*
Y38558D01*
X13709Y38016D01*
X14124Y37600D01*
X14667Y37376D01*
X15254D01*
X15797Y37600D01*
X16212Y38016D01*
X16437Y38558D01*
Y39146D01*
X16212Y39688D01*
X15797Y40104D01*
X15254Y40328D01*
D02*
G37*
G36*
X60178Y37083D02*
X59591D01*
X59048Y36858D01*
X58808Y36618D01*
X58648Y36778D01*
X58105Y37002D01*
X57518D01*
X56975Y36778D01*
X56758Y36560D01*
X56460Y36858D01*
X55918Y37083D01*
X55330D01*
X54788Y36858D01*
X54372Y36443D01*
X54147Y35900D01*
Y35313D01*
X54372Y34770D01*
X54600Y34542D01*
X54359Y34301D01*
X54134Y33758D01*
Y33171D01*
X54359Y32628D01*
X54608Y32379D01*
X54405Y32176D01*
X54181Y31633D01*
Y31046D01*
X54405Y30503D01*
X54580Y30329D01*
X54368Y30117D01*
X54143Y29575D01*
Y28987D01*
X54368Y28445D01*
X54513Y28299D01*
X54260Y28046D01*
X54035Y27503D01*
Y26916D01*
X54260Y26374D01*
X54676Y25958D01*
X55218Y25734D01*
X55805D01*
X56348Y25958D01*
X56501Y26111D01*
X56666Y25946D01*
X57208Y25721D01*
X57796D01*
X58338Y25946D01*
X58538Y26145D01*
X58724Y25958D01*
X59267Y25734D01*
X59854D01*
X60397Y25958D01*
X60653Y26214D01*
X60833Y26034D01*
X61376Y25809D01*
X61963D01*
X62506Y26034D01*
X62705Y26233D01*
X62904Y26034D01*
X63447Y25809D01*
X64034D01*
X64577Y26034D01*
X64992Y26449D01*
X65217Y26992D01*
Y27579D01*
X64992Y28122D01*
X64847Y28267D01*
X65100Y28520D01*
X65324Y29063D01*
Y29650D01*
X65100Y30193D01*
X64684Y30608D01*
X64142Y30833D01*
X63713D01*
X63441Y31018D01*
X63291Y31265D01*
Y31709D01*
X63066Y32251D01*
X62876Y32441D01*
X63063Y32628D01*
X63287Y33171D01*
Y33758D01*
X63063Y34301D01*
X62647Y34716D01*
X62105Y34941D01*
X61748D01*
X61406Y35269D01*
X61361Y35403D01*
Y35900D01*
X61136Y36443D01*
X60720Y36858D01*
X60178Y37083D01*
D02*
G37*
G36*
X61662Y47132D02*
X61075D01*
X60532Y46907D01*
X60117Y46492D01*
X59892Y45949D01*
Y45362D01*
X59443Y45138D01*
X59099Y44996D01*
X58684Y44581D01*
X58459Y44038D01*
Y43450D01*
X58684Y42908D01*
X59099Y42493D01*
X59642Y42268D01*
X59694D01*
Y41817D01*
X59919Y41274D01*
X60334Y40859D01*
X60795Y40668D01*
X60783Y40638D01*
Y40051D01*
X61008Y39508D01*
X61423Y39093D01*
X61966Y38868D01*
X62106D01*
Y38486D01*
X62331Y37943D01*
X62746Y37528D01*
X63289Y37303D01*
X63583D01*
Y37108D01*
X63807Y36565D01*
X64223Y36150D01*
X64765Y35925D01*
X65353D01*
X65719Y35536D01*
X65851Y35217D01*
X66267Y34802D01*
X66809Y34577D01*
X67397D01*
X67939Y34802D01*
X68354Y35217D01*
X68579Y35760D01*
Y36347D01*
X68354Y36890D01*
X68043Y37201D01*
X68252Y37410D01*
X68476Y37953D01*
Y38540D01*
X68252Y39083D01*
X67836Y39498D01*
X67294Y39723D01*
X66936D01*
Y39802D01*
X66711Y40344D01*
X66333Y40723D01*
X66524Y40915D01*
X66749Y41457D01*
Y42045D01*
X66524Y42587D01*
X66109Y43003D01*
X65566Y43227D01*
X64979D01*
X64513Y43034D01*
X64145Y43402D01*
X63842Y43527D01*
X63882Y43623D01*
Y44210D01*
X63657Y44753D01*
X63242Y45168D01*
X62835Y45337D01*
X62845Y45362D01*
Y45949D01*
X62620Y46492D01*
X62205Y46907D01*
X61662Y47132D01*
D02*
G37*
G36*
X108561Y31890D02*
X107974D01*
X107431Y31665D01*
X107016Y31250D01*
X106791Y30707D01*
Y30120D01*
X107016Y29577D01*
X107431Y29162D01*
X107974Y28937D01*
X108561D01*
X109104Y29162D01*
X109519Y29577D01*
X109744Y30120D01*
Y30707D01*
X109519Y31250D01*
X109104Y31665D01*
X108561Y31890D01*
D02*
G37*
G36*
X48701Y29280D02*
X48114D01*
X47571Y29056D01*
X47370Y28855D01*
X47205Y29020D01*
X46662Y29245D01*
X46075D01*
X45532Y29020D01*
X45331Y28819D01*
X45130Y29020D01*
X44587Y29245D01*
X44000D01*
X43457Y29020D01*
X43042Y28605D01*
X42817Y28062D01*
Y27475D01*
X43042Y26932D01*
X43239Y26735D01*
X43042Y26538D01*
X42817Y25995D01*
Y25408D01*
X43042Y24865D01*
X43239Y24668D01*
X43042Y24471D01*
X42817Y23928D01*
Y23341D01*
X43042Y22798D01*
X43195Y22645D01*
X42980Y22429D01*
X42755Y21887D01*
Y21299D01*
X42980Y20757D01*
X43395Y20341D01*
X43938Y20117D01*
X44525D01*
X45068Y20341D01*
X45269Y20542D01*
X45470Y20341D01*
X46012Y20117D01*
X46600D01*
X47142Y20341D01*
X47344Y20542D01*
X47509Y20377D01*
X48052Y20152D01*
X48639D01*
X49181Y20377D01*
X49329Y20525D01*
X49524Y20330D01*
X50067Y20105D01*
X50654D01*
X51197Y20330D01*
X51612Y20745D01*
X51837Y21287D01*
Y21875D01*
X51612Y22417D01*
X51459Y22571D01*
X51674Y22786D01*
X51899Y23329D01*
Y23916D01*
X51674Y24459D01*
X51477Y24656D01*
X51674Y24853D01*
X51899Y25396D01*
Y25983D01*
X51674Y26526D01*
X51477Y26723D01*
X51674Y26920D01*
X51899Y27463D01*
Y28050D01*
X51674Y28593D01*
X51259Y29008D01*
X50716Y29233D01*
X50129D01*
X49586Y29008D01*
X49439Y28861D01*
X49244Y29056D01*
X48701Y29280D01*
D02*
G37*
G36*
X30503Y29208D02*
X29916D01*
X29373Y28983D01*
X29172Y28782D01*
X29006Y28947D01*
X28464Y29172D01*
X27876D01*
X27334Y28947D01*
X27133Y28746D01*
X26932Y28947D01*
X26389Y29172D01*
X25802D01*
X25259Y28947D01*
X24844Y28532D01*
X24619Y27989D01*
Y27402D01*
X24844Y26859D01*
X25041Y26662D01*
X24844Y26465D01*
X24619Y25922D01*
Y25335D01*
X24844Y24792D01*
X25041Y24595D01*
X24844Y24398D01*
X24619Y23855D01*
Y23268D01*
X24844Y22725D01*
X24997Y22572D01*
X24782Y22356D01*
X24557Y21814D01*
Y21226D01*
X24782Y20684D01*
X25197Y20268D01*
X25739Y20044D01*
X26327D01*
X26869Y20268D01*
X27071Y20470D01*
X27272Y20268D01*
X27814Y20044D01*
X28402D01*
X28944Y20268D01*
X29145Y20470D01*
X29311Y20304D01*
X29853Y20079D01*
X30441D01*
X30983Y20304D01*
X31131Y20452D01*
X31326Y20257D01*
X31869Y20032D01*
X32456D01*
X32998Y20257D01*
X33414Y20672D01*
X33639Y21215D01*
Y21802D01*
X33414Y22344D01*
X33261Y22498D01*
X33476Y22713D01*
X33701Y23256D01*
Y23843D01*
X33476Y24386D01*
X33279Y24583D01*
X33476Y24780D01*
X33701Y25323D01*
Y25910D01*
X33476Y26453D01*
X33279Y26650D01*
X33476Y26847D01*
X33701Y27390D01*
Y27977D01*
X33476Y28520D01*
X33061Y28935D01*
X32518Y29160D01*
X31931D01*
X31388Y28935D01*
X31241Y28788D01*
X31045Y28983D01*
X30503Y29208D01*
D02*
G37*
G36*
X38581Y29035D02*
X37994D01*
X37451Y28811D01*
X37036Y28395D01*
X36811Y27853D01*
Y27265D01*
X37036Y26723D01*
X37451Y26307D01*
X37994Y26083D01*
X38581D01*
X39124Y26307D01*
X39539Y26723D01*
X39764Y27265D01*
Y27853D01*
X39539Y28395D01*
X39124Y28811D01*
X38581Y29035D01*
D02*
G37*
G36*
X33168Y18996D02*
X32580D01*
X32038Y18771D01*
X31921Y18655D01*
X31594Y18380D01*
X31268Y18655D01*
X31151Y18771D01*
X30609Y18996D01*
X30021D01*
X29479Y18771D01*
X29362Y18655D01*
X29035Y18380D01*
X28709Y18655D01*
X28592Y18771D01*
X28050Y18996D01*
X27462D01*
X26920Y18771D01*
X26504Y18356D01*
X26280Y17813D01*
Y17226D01*
X26504Y16683D01*
X26920Y16268D01*
X27462Y16043D01*
X28050D01*
X28592Y16268D01*
X28709Y16385D01*
X29035Y16660D01*
X29362Y16385D01*
X29479Y16268D01*
X30021Y16043D01*
X30609D01*
X31151Y16268D01*
X31268Y16385D01*
X31594Y16660D01*
X31921Y16385D01*
X32038Y16268D01*
X32580Y16043D01*
X33168D01*
X33710Y16268D01*
X34126Y16683D01*
X34350Y17226D01*
Y17813D01*
X34126Y18356D01*
X33710Y18771D01*
X33168Y18996D01*
D02*
G37*
G36*
X51278Y18898D02*
X50691D01*
X50148Y18673D01*
X50031Y18556D01*
X49705Y18281D01*
X49378Y18556D01*
X49262Y18673D01*
X48719Y18898D01*
X48131D01*
X47589Y18673D01*
X47472Y18556D01*
X47146Y18281D01*
X46819Y18556D01*
X46702Y18673D01*
X46160Y18898D01*
X45573D01*
X45030Y18673D01*
X44614Y18258D01*
X44390Y17715D01*
Y17128D01*
X44614Y16585D01*
X45030Y16170D01*
X45573Y15945D01*
X46160D01*
X46702Y16170D01*
X46819Y16286D01*
X47146Y16561D01*
X47472Y16286D01*
X47589Y16170D01*
X48131Y15945D01*
X48719D01*
X49262Y16170D01*
X49378Y16286D01*
X49705Y16561D01*
X50031Y16286D01*
X50148Y16170D01*
X50691Y15945D01*
X51278D01*
X51820Y16170D01*
X52236Y16585D01*
X52461Y17128D01*
Y17715D01*
X52236Y18258D01*
X51820Y18673D01*
X51278Y18898D01*
D02*
G37*
G36*
X37597Y22933D02*
X37010D01*
X36467Y22708D01*
X36051Y22293D01*
X35827Y21750D01*
Y21163D01*
X36051Y20620D01*
X36093Y20579D01*
X36066Y20381D01*
X35927Y20038D01*
X35483Y19854D01*
X35067Y19439D01*
X34843Y18896D01*
Y18309D01*
X35067Y17766D01*
X35483Y17351D01*
X36025Y17126D01*
X36613D01*
X37155Y17351D01*
X37571Y17766D01*
X37795Y18309D01*
Y18896D01*
X37571Y19439D01*
X37529Y19480D01*
X37556Y19678D01*
X37695Y20021D01*
X38139Y20205D01*
X38555Y20620D01*
X38780Y21163D01*
Y21750D01*
X38555Y22293D01*
X38139Y22708D01*
X37597Y22933D01*
D02*
G37*
G36*
X102031Y25289D02*
X101443D01*
X100901Y25064D01*
X100485Y24648D01*
X100414Y24476D01*
X95883Y19945D01*
X73448D01*
X72910Y19838D01*
X72455Y19533D01*
X66962Y14040D01*
X66789Y13969D01*
X66612Y13792D01*
X66434Y13969D01*
X65892Y14194D01*
X65304D01*
X64762Y13969D01*
X64625Y13832D01*
X64427Y14030D01*
X63885Y14255D01*
X63297D01*
X62755Y14030D01*
X62572Y13848D01*
X62410Y14010D01*
X61867Y14235D01*
X61280D01*
X60738Y14010D01*
X60535Y13807D01*
X60362Y13979D01*
X59820Y14204D01*
X59232D01*
X58690Y13979D01*
X58553Y13843D01*
X58365Y14030D01*
X57823Y14255D01*
X57235D01*
X56693Y14030D01*
X56480Y13817D01*
X56348Y13948D01*
X55805Y14173D01*
X55218D01*
X54676Y13948D01*
X54260Y13533D01*
X54035Y12991D01*
Y12403D01*
X54260Y11861D01*
X54443Y11678D01*
X54260Y11496D01*
X54035Y10953D01*
Y10366D01*
X54260Y9823D01*
X54423Y9660D01*
X54260Y9498D01*
X54035Y8955D01*
Y8368D01*
X54260Y7825D01*
X54676Y7410D01*
X55218Y7185D01*
X55805D01*
X56348Y7410D01*
X56561Y7623D01*
X56693Y7492D01*
X57235Y7267D01*
X57823D01*
X58365Y7492D01*
X58502Y7628D01*
X58690Y7440D01*
X59232Y7216D01*
X59820D01*
X60362Y7440D01*
X60565Y7644D01*
X60738Y7471D01*
X61280Y7247D01*
X61867D01*
X62410Y7471D01*
X62593Y7654D01*
X62755Y7492D01*
X63297Y7267D01*
X63885D01*
X64427Y7492D01*
X64564Y7628D01*
X64762Y7430D01*
X65304Y7205D01*
X65892D01*
X66434Y7430D01*
X66612Y7608D01*
X66789Y7430D01*
X67332Y7205D01*
X67919D01*
X68462Y7430D01*
X68877Y7846D01*
X69102Y8388D01*
Y8976D01*
X68877Y9518D01*
X68714Y9681D01*
X68877Y9844D01*
X69102Y10386D01*
Y10973D01*
X68877Y11516D01*
X68695Y11699D01*
X68877Y11881D01*
X68949Y12053D01*
X74030Y17135D01*
X88823D01*
X89157Y16635D01*
X89075Y16435D01*
Y15848D01*
X89300Y15305D01*
X89497Y15108D01*
X89300Y14911D01*
X89075Y14368D01*
Y13781D01*
X89300Y13239D01*
X89497Y13041D01*
X89300Y12844D01*
X89075Y12302D01*
Y11714D01*
X89300Y11172D01*
X89453Y11018D01*
X89237Y10803D01*
X89013Y10260D01*
Y9673D01*
X89237Y9130D01*
X89653Y8715D01*
X90195Y8490D01*
X90783D01*
X91325Y8715D01*
X91526Y8916D01*
X91728Y8715D01*
X92270Y8490D01*
X92857D01*
X93400Y8715D01*
X93601Y8916D01*
X93767Y8751D01*
X94309Y8526D01*
X94897D01*
X95439Y8751D01*
X95587Y8898D01*
X95782Y8703D01*
X96324Y8478D01*
X96912D01*
X97454Y8703D01*
X97870Y9118D01*
X98094Y9661D01*
Y10248D01*
X97870Y10791D01*
X97716Y10944D01*
X97932Y11160D01*
X98157Y11702D01*
Y12290D01*
X97932Y12832D01*
X97735Y13029D01*
X97932Y13227D01*
X98157Y13769D01*
Y14356D01*
X97932Y14899D01*
X97735Y15096D01*
X97932Y15293D01*
X98157Y15836D01*
Y16423D01*
X97932Y16966D01*
X97749Y17150D01*
X97541Y17432D01*
X97732Y17820D01*
X102401Y22489D01*
X102573Y22561D01*
X102989Y22976D01*
X103213Y23518D01*
Y24106D01*
X102989Y24648D01*
X102573Y25064D01*
X102031Y25289D01*
D02*
G37*
%LPD*%
D12*
X119561Y72837D02*
G03*
X119522Y72918I-372J-129D01*
G01*
X119054Y73663D02*
G03*
X118998Y73733I-334J-208D01*
G01*
X119053Y73664D02*
G03*
X118998Y73733I-333J-209D01*
G01*
X119561Y72838D02*
G03*
X119522Y72919I-372J-130D01*
G01*
X119973Y71000D02*
G03*
X119970Y71044I-394J0D01*
G01*
X119871Y71919D02*
G03*
X119852Y72006I-391J-43D01*
G01*
X119973Y71000D02*
G03*
X119970Y71046I-394J0D01*
G01*
X119871Y71920D02*
G03*
X119851Y72007I-391J-44D01*
G01*
X117561Y74880D02*
G03*
X117480Y74919I-211J-333D01*
G01*
X116648Y75210D02*
G03*
X116562Y75230I-130J-372D01*
G01*
X117559Y74880D02*
G03*
X117480Y74919I-209J-333D01*
G01*
X115686Y75328D02*
G03*
X115642Y75331I-44J-391D01*
G01*
X115686Y75328D02*
G03*
X115642Y75331I-44J-391D01*
G01*
X116648Y75210D02*
G03*
X116562Y75230I-130J-372D01*
G01*
X118375Y74357D02*
G03*
X118306Y74411I-279J-279D01*
G01*
X118375Y74357D02*
G03*
X118305Y74412I-279J-279D01*
G01*
X119970Y4027D02*
G03*
X119973Y4071I-391J44D01*
G01*
X119852Y3065D02*
G03*
X119871Y3152I-372J130D01*
G01*
X119970Y4025D02*
G03*
X119973Y4071I-391J46D01*
G01*
X119851Y3063D02*
G03*
X119871Y3151I-371J131D01*
G01*
X119522Y2153D02*
G03*
X119561Y2234I-333J209D01*
G01*
X119522Y2152D02*
G03*
X119561Y2233I-333J211D01*
G01*
X118998Y1338D02*
G03*
X119054Y1408I-279J279D01*
G01*
X118998Y1338D02*
G03*
X119053Y1407I-279J279D01*
G01*
X118306Y659D02*
G03*
X118375Y714I-209J333D01*
G01*
X118305Y659D02*
G03*
X118375Y714I-208J334D01*
G01*
X117480Y152D02*
G03*
X117559Y190I-130J372D01*
G01*
X117480Y152D02*
G03*
X117561Y191I-130J372D01*
G01*
X116562Y-159D02*
G03*
X116648Y-139I-44J391D01*
G01*
X116562Y-159D02*
G03*
X116648Y-139I-44J391D01*
G01*
X115642Y-260D02*
G03*
X115686Y-258I0J394D01*
G01*
X115642Y-260D02*
G03*
X115686Y-258I0J394D01*
G01*
X3831Y75331D02*
G03*
X3787Y75328I0J-394D01*
G01*
X3831Y75331D02*
G03*
X3787Y75328I0J-394D01*
G01*
X2911Y75230D02*
G03*
X2825Y75210I44J-391D01*
G01*
X1992Y74919D02*
G03*
X1913Y74880I130J-372D01*
G01*
X2911Y75230D02*
G03*
X2825Y75210I44J-391D01*
G01*
X1992Y74919D02*
G03*
X1912Y74880I130J-372D01*
G01*
X1168Y74412D02*
G03*
X1098Y74357I208J-334D01*
G01*
X1166Y74411D02*
G03*
X1098Y74357I209J-333D01*
G01*
X474Y73733D02*
G03*
X419Y73664I279J-279D01*
G01*
X474Y73733D02*
G03*
X418Y73663I279J-279D01*
G01*
X-49Y72919D02*
G03*
X-88Y72838I333J-211D01*
G01*
X-50Y72918D02*
G03*
X-89Y72837I333J-209D01*
G01*
X-379Y72007D02*
G03*
X-399Y71920I371J-131D01*
G01*
X-379Y72006D02*
G03*
X-399Y71919I372J-130D01*
G01*
X-497Y71046D02*
G03*
X-500Y71000I391J-46D01*
G01*
X-498Y71044D02*
G03*
X-500Y71000I391J-44D01*
G01*
X2825Y-139D02*
G03*
X2911Y-159I130J372D01*
G01*
X1912Y191D02*
G03*
X1992Y152I211J333D01*
G01*
X1098Y714D02*
G03*
X1166Y659I279J279D01*
G01*
X1098Y714D02*
G03*
X1168Y659I279J279D01*
G01*
X3787Y-258D02*
G03*
X3831Y-260I44J391D01*
G01*
X3787Y-258D02*
G03*
X3831Y-260I44J391D01*
G01*
X1913Y190D02*
G03*
X1992Y152I209J333D01*
G01*
X2825Y-139D02*
G03*
X2911Y-159I130J372D01*
G01*
X-399Y3151D02*
G03*
X-379Y3063I391J44D01*
G01*
X-500Y4071D02*
G03*
X-498Y4027I394J0D01*
G01*
X-500Y4071D02*
G03*
X-497Y4025I394J0D01*
G01*
X-399Y3152D02*
G03*
X-379Y3065I391J43D01*
G01*
X419Y1407D02*
G03*
X474Y1338I333J209D01*
G01*
X-88Y2233D02*
G03*
X-49Y2152I372J130D01*
G01*
X-89Y2234D02*
G03*
X-50Y2153I372J129D01*
G01*
X418Y1408D02*
G03*
X474Y1338I334J208D01*
G01*
X119053Y73664D02*
X119054Y73663D01*
X119522Y72919D01*
X119522Y72918D01*
X119561Y72838D02*
X119561Y72837D01*
X119851Y72007D01*
X119852Y72006D01*
X118375Y74357D02*
X118998Y73733D01*
X119871Y71920D02*
X119871Y71919D01*
X119970Y71046D01*
X119970Y71044D01*
X119973Y4071D02*
Y71000D01*
X116648Y75210D02*
X117480Y74919D01*
X118305Y74412D02*
X118306Y74411D01*
X117561Y74880D02*
X118305Y74412D01*
X117559Y74880D02*
X117561Y74880D01*
X115686Y75328D02*
X116562Y75230D01*
X119970Y4025D02*
X119970Y4027D01*
X119871Y3152D02*
X119970Y4025D01*
X119871Y3151D02*
X119871Y3152D01*
X119851Y3063D02*
X119852Y3065D01*
X119561Y2234D02*
X119851Y3063D01*
X119561Y2233D02*
X119561Y2234D01*
X119522Y2152D02*
X119522Y2153D01*
X119054Y1408D02*
X119522Y2152D01*
X119053Y1407D02*
X119054Y1408D01*
X118375Y714D02*
X118998Y1338D01*
X118305Y659D02*
X118306Y659D01*
X117561Y191D02*
X118305Y659D01*
X117559Y190D02*
X117561Y191D01*
X116648Y-139D02*
X117480Y152D01*
X115686Y-258D02*
X116562Y-159D01*
X3831Y75331D02*
X115642D01*
X2911Y75230D02*
X3787Y75328D01*
X1992Y74919D02*
X2825Y75210D01*
X1912Y74880D02*
X1913Y74880D01*
X1168Y74412D02*
X1912Y74880D01*
X1166Y74411D02*
X1168Y74412D01*
X474Y73733D02*
X1098Y74357D01*
X418Y73663D02*
X419Y73664D01*
X-49Y72919D02*
X418Y73663D01*
X-50Y72918D02*
X-49Y72919D01*
X-89Y72837D02*
X-88Y72838D01*
X-379Y72007D02*
X-89Y72837D01*
X-379Y72006D02*
X-379Y72007D01*
X-399Y71919D02*
X-399Y71920D01*
X-497Y71046D02*
X-399Y71919D01*
X-498Y71044D02*
X-497Y71046D01*
X1912Y191D02*
X1913Y190D01*
X1168Y659D02*
X1912Y191D01*
X1166Y659D02*
X1168Y659D01*
X3831Y-260D02*
X115642D01*
X1992Y152D02*
X2825Y-139D01*
X2911Y-159D02*
X3787Y-258D01*
X-379Y3065D02*
X-379Y3063D01*
X-89Y2234D01*
X-88Y2233D01*
X-500Y4071D02*
Y71000D01*
X-498Y4027D02*
X-497Y4025D01*
X-399Y3152D01*
X-399Y3151D01*
X474Y1338D02*
X1098Y714D01*
X-50Y2153D02*
X-49Y2152D01*
X418Y1408D01*
X419Y1407D01*
D67*
X26689Y47107D02*
Y54812D01*
X28774Y56898D01*
X77415D01*
X29515Y44282D02*
X30561D01*
X26689Y47107D02*
X29515Y44282D01*
X30561D02*
X30709Y44134D01*
X77415Y56898D02*
X101295Y33018D01*
Y32957D02*
Y33018D01*
D68*
X109449Y48085D02*
Y52559D01*
Y42080D02*
X110214Y42846D01*
X109449Y40354D02*
Y42080D01*
X108888Y41520D02*
X109449Y42080D01*
X110214Y42846D02*
Y47320D01*
X105503Y41520D02*
X108888D01*
X105466Y41483D02*
X105503Y41520D01*
X109449Y48085D02*
X110214Y47320D01*
X100317Y57087D02*
X104921D01*
X85273Y65106D02*
X92297D01*
X100317Y57087D01*
X73448Y18540D02*
X96465D01*
X101737Y23812D01*
X26400Y66929D02*
X66240D01*
X73032Y60138D01*
X18030Y58560D02*
X26400Y66929D01*
X67626Y12717D02*
X73448Y18540D01*
X73032Y60138D02*
X74606Y61713D01*
X81879D02*
X85273Y65106D01*
X74606Y61713D02*
X81879D01*
X104921Y57087D02*
X109449Y52559D01*
X104921Y57087D02*
Y57087D01*
X109449Y40354D02*
X114567Y35236D01*
X17880Y57814D02*
X18030Y57964D01*
Y58560D01*
D72*
X9736Y9976D02*
D03*
X109736D02*
D03*
D73*
X3937Y23965D02*
D03*
X85299Y45941D02*
D03*
X86801Y44439D02*
D03*
X67103Y36053D02*
D03*
X65059Y37402D02*
D03*
X65460Y39508D02*
D03*
X63583Y38780D02*
D03*
X72009Y43823D02*
D03*
X80403Y38795D02*
D03*
X77943Y38091D02*
D03*
X89272Y60827D02*
D03*
X93416Y60450D02*
D03*
X97903Y63604D02*
D03*
X79090Y23203D02*
D03*
X77086Y25146D02*
D03*
X77069Y23082D02*
D03*
X75574Y21716D02*
D03*
X81693Y70079D02*
D03*
X79724D02*
D03*
X77658Y70177D02*
D03*
X75689Y70276D02*
D03*
X73721D02*
D03*
X71653D02*
D03*
X69587Y70177D02*
D03*
X104921Y57087D02*
D03*
X115111Y48905D02*
D03*
X114941Y52639D02*
D03*
X113862Y50848D02*
D03*
X112205Y49606D02*
D03*
Y51968D02*
D03*
X107950Y43784D02*
D03*
X102461Y46949D02*
D03*
X98327Y39370D02*
D03*
X102854Y39173D02*
D03*
X114173Y38976D02*
D03*
X114567Y35236D02*
D03*
X114665Y29724D02*
D03*
X112598Y31201D02*
D03*
X101295Y32957D02*
D03*
X101737Y23812D02*
D03*
X117323Y18504D02*
D03*
X101181Y1969D02*
D03*
X55610Y33465D02*
D03*
X57600Y33452D02*
D03*
X59659Y33465D02*
D03*
X61811D02*
D03*
X59884Y35607D02*
D03*
X57812Y35526D02*
D03*
X55624Y35607D02*
D03*
X51664Y39478D02*
D03*
X51968Y43692D02*
D03*
X30815Y47547D02*
D03*
X20472Y49213D02*
D03*
X19685Y51181D02*
D03*
Y53150D02*
D03*
X10215Y71173D02*
D03*
X7695Y71191D02*
D03*
X5645Y71210D02*
D03*
X3370Y71248D02*
D03*
X9350Y38878D02*
D03*
X14961Y38852D02*
D03*
X2953Y18996D02*
D03*
X44291Y54724D02*
D03*
X40157D02*
D03*
X36024D02*
D03*
X38091D02*
D03*
X42224D02*
D03*
X46358D02*
D03*
X36122Y51181D02*
D03*
X91340Y47476D02*
D03*
X92813Y45987D02*
D03*
X93782Y50030D02*
D03*
X90894Y52974D02*
D03*
X92373Y51523D02*
D03*
X46457Y51181D02*
D03*
X70571Y52264D02*
D03*
X61669Y27285D02*
D03*
X61417Y24409D02*
D03*
X105823Y46268D02*
D03*
X30709Y44134D02*
D03*
X58107Y70965D02*
D03*
X66634Y69784D02*
D03*
X72736Y64756D02*
D03*
X76083D02*
D03*
X99955Y72574D02*
D03*
X117421Y26513D02*
D03*
X90551Y16142D02*
D03*
X74016Y29528D02*
D03*
X38287Y27559D02*
D03*
X36319Y18602D02*
D03*
X37303Y21457D02*
D03*
X103983Y67585D02*
D03*
X61368Y45655D02*
D03*
X65273Y41751D02*
D03*
X83359Y45090D02*
D03*
X46253Y61962D02*
D03*
X37985D02*
D03*
X35918D02*
D03*
X40052D02*
D03*
X42119D02*
D03*
X26378Y61811D02*
D03*
X44186Y61962D02*
D03*
X79232Y25197D02*
D03*
X17892Y1994D02*
D03*
X70965Y25591D02*
D03*
X61417Y20308D02*
D03*
X59449D02*
D03*
X57480D02*
D03*
X61417Y22371D02*
D03*
X57480D02*
D03*
X59449D02*
D03*
X57480Y24409D02*
D03*
X59449D02*
D03*
X63308Y42151D02*
D03*
X59935Y43744D02*
D03*
X62259Y40345D02*
D03*
X62405Y43917D02*
D03*
X61170Y42111D02*
D03*
X79724Y64862D02*
D03*
X73032Y60138D02*
D03*
X105466Y41483D02*
D03*
X87618Y55912D02*
D03*
X80413Y47933D02*
D03*
X87795Y40059D02*
D03*
X86247Y42146D02*
D03*
X95255Y48541D02*
D03*
X84838Y43639D02*
D03*
X89429Y54439D02*
D03*
X85529Y53271D02*
D03*
X91843Y49583D02*
D03*
X89673Y41494D02*
D03*
X88452Y50421D02*
D03*
X83847Y47393D02*
D03*
X90364Y51035D02*
D03*
X86987Y51886D02*
D03*
X94725Y46601D02*
D03*
X81893Y46555D02*
D03*
X93252Y48090D02*
D03*
X82390Y48778D02*
D03*
X88898Y52500D02*
D03*
X88201Y42983D02*
D03*
X87441Y53885D02*
D03*
X89931Y48969D02*
D03*
X116437Y67881D02*
D03*
X116406Y63319D02*
D03*
X67000Y38246D02*
D03*
X117323Y22047D02*
D03*
X114173D02*
D03*
X96618Y9955D02*
D03*
X92626Y14075D02*
D03*
X96680Y14063D02*
D03*
Y16130D02*
D03*
X92564Y9966D02*
D03*
X90551Y12008D02*
D03*
X92626D02*
D03*
X94603Y10002D02*
D03*
X90551Y14075D02*
D03*
X96680Y11996D02*
D03*
X94665Y14111D02*
D03*
Y16177D02*
D03*
Y12044D02*
D03*
X92626Y16142D02*
D03*
X90489Y9966D02*
D03*
X59561Y27210D02*
D03*
X57609Y29268D02*
D03*
X57502Y27197D02*
D03*
X61777Y29356D02*
D03*
X55657Y31340D02*
D03*
X63741Y27285D02*
D03*
X55512Y27210D02*
D03*
X59668Y29281D02*
D03*
X57647Y31327D02*
D03*
X55619Y29281D02*
D03*
X59706Y31340D02*
D03*
X61814Y31415D02*
D03*
X63848Y29356D02*
D03*
X107776Y72539D02*
D03*
X17776Y70508D02*
D03*
X15465Y64877D02*
D03*
X17485Y65071D02*
D03*
X14941Y62837D02*
D03*
X18320Y62799D02*
D03*
X15540Y70547D02*
D03*
X14912Y57959D02*
D03*
X17880Y57814D02*
D03*
X39173Y52953D02*
D03*
X40256Y51181D02*
D03*
X47244Y60138D02*
D03*
X47441Y52953D02*
D03*
X41043Y60138D02*
D03*
X38976D02*
D03*
X45177D02*
D03*
X38189Y51181D02*
D03*
X45374Y52953D02*
D03*
X43307D02*
D03*
X36909Y60138D02*
D03*
X37106Y52953D02*
D03*
X44390Y51181D02*
D03*
X42323D02*
D03*
X41240Y52953D02*
D03*
X43110Y60138D02*
D03*
X18789Y72614D02*
D03*
X16426Y72712D02*
D03*
X14261D02*
D03*
X12598Y63287D02*
D03*
Y65453D02*
D03*
X10728Y66437D02*
D03*
X10726Y64376D02*
D03*
X10712Y62291D02*
D03*
X8645D02*
D03*
X8659Y64376D02*
D03*
X8661Y66437D02*
D03*
X52187Y49319D02*
D03*
X44231Y21593D02*
D03*
X48407Y25737D02*
D03*
X50423Y27756D02*
D03*
X48345Y21629D02*
D03*
X48407Y23670D02*
D03*
X50423Y23623D02*
D03*
X44293Y25701D02*
D03*
Y27768D02*
D03*
Y23634D02*
D03*
X46306Y21593D02*
D03*
X48407Y27804D02*
D03*
X50360Y21581D02*
D03*
X46368Y23634D02*
D03*
Y27768D02*
D03*
X50423Y25690D02*
D03*
X46368Y25701D02*
D03*
X26095Y25629D02*
D03*
X32225Y23550D02*
D03*
X26033Y21520D02*
D03*
X28108D02*
D03*
X32225Y25617D02*
D03*
X28170Y23562D02*
D03*
X26095D02*
D03*
X30209Y27731D02*
D03*
X28170Y25629D02*
D03*
Y27696D02*
D03*
X32162Y21508D02*
D03*
X32225Y27683D02*
D03*
X30147Y21556D02*
D03*
X30209Y23597D02*
D03*
Y25664D02*
D03*
X26095Y27696D02*
D03*
X55512Y24409D02*
D03*
Y20308D02*
D03*
Y22371D02*
D03*
X67626Y8682D02*
D03*
Y10680D02*
D03*
Y12717D02*
D03*
X65598Y8682D02*
D03*
Y10680D02*
D03*
Y12717D02*
D03*
X63591Y8743D02*
D03*
Y10741D02*
D03*
Y12779D02*
D03*
X61574Y8723D02*
D03*
Y10721D02*
D03*
Y12758D02*
D03*
X59526Y8692D02*
D03*
Y10690D02*
D03*
Y12728D02*
D03*
X57529Y8743D02*
D03*
Y10741D02*
D03*
Y12779D02*
D03*
X55512Y12697D02*
D03*
Y10659D02*
D03*
Y8661D02*
D03*
X108268Y30413D02*
D03*
X27756Y17520D02*
D03*
X30315D02*
D03*
X32874D02*
D03*
X45866Y17421D02*
D03*
X48425D02*
D03*
X50984D02*
D03*
X22441Y51968D02*
D03*
X23622Y48031D02*
D03*
X115784Y72539D02*
D03*
X21850Y39826D02*
D03*
M02*
