G04*
G04 #@! TF.GenerationSoftware,Altium Limited,Altium Designer,21.7.2 (23)*
G04*
G04 Layer_Physical_Order=2*
G04 Layer_Color=36540*
%FSLAX25Y25*%
%MOIN*%
G70*
G04*
G04 #@! TF.SameCoordinates,D8E768A5-1DCB-495D-BD04-48C81D0C3767*
G04*
G04*
G04 #@! TF.FilePolarity,Positive*
G04*
G01*
G75*
%ADD12C,0.00787*%
%ADD67C,0.01000*%
%ADD72C,0.17717*%
%ADD73C,0.01772*%
G36*
X1010902Y877461D02*
X1011368Y877379D01*
X1011368Y877379D01*
Y877379D01*
X1011817Y877404D01*
X1012150Y877319D01*
X1012150Y877319D01*
X1012603Y877185D01*
X1012622Y877177D01*
X1012668Y877153D01*
X1013018Y876971D01*
X1013172Y876856D01*
X1013179Y876793D01*
X1013182Y876786D01*
X1013371Y876707D01*
X1013555Y876536D01*
X1013727Y876351D01*
X1013805Y876162D01*
X1013813Y876159D01*
X1013876Y876152D01*
X1013991Y875998D01*
X1014004Y875976D01*
X1014197Y875603D01*
X1014258Y875448D01*
X1014339Y875131D01*
X1014339Y875130D01*
X1014340Y875127D01*
X1014411Y874843D01*
X1014399Y874348D01*
X1014399D01*
X1014482Y873883D01*
X1014495Y873770D01*
Y831309D01*
X1013995Y831102D01*
X1013984Y831113D01*
X1013441Y831337D01*
X1012854D01*
X1012311Y831113D01*
X1011896Y830697D01*
X1011671Y830155D01*
Y829567D01*
X1011896Y829025D01*
X1012311Y828609D01*
X1012854Y828385D01*
X1013441D01*
X1013984Y828609D01*
X1013995Y828620D01*
X1014495Y828413D01*
Y818104D01*
X1014027Y817912D01*
X1013995Y817917D01*
X1012955Y819473D01*
X1011611Y820817D01*
X1010032Y821873D01*
X1008276Y822600D01*
X1006413Y822970D01*
X1004513D01*
X1002649Y822600D01*
X1000894Y821873D01*
X999314Y820817D01*
X997970Y819473D01*
X996915Y817894D01*
X996188Y816138D01*
X995817Y814275D01*
Y812375D01*
X996188Y810511D01*
X996915Y808756D01*
X997970Y807176D01*
X999314Y805832D01*
X1000870Y804793D01*
X1000876Y804760D01*
X1000682Y804293D01*
X910243D01*
X910049Y804760D01*
X910055Y804793D01*
X911611Y805832D01*
X912955Y807176D01*
X914010Y808756D01*
X914738Y810511D01*
X915108Y812375D01*
Y814275D01*
X914738Y816138D01*
X914010Y817894D01*
X912955Y819473D01*
X911611Y820817D01*
X910032Y821873D01*
X908276Y822600D01*
X906413Y822970D01*
X904513D01*
X902649Y822600D01*
X900894Y821873D01*
X899314Y820817D01*
X897970Y819473D01*
X896931Y817917D01*
X896898Y817912D01*
X896430Y818104D01*
Y873770D01*
X896443Y873883D01*
X896526Y874348D01*
X896526D01*
X896514Y874843D01*
X896586Y875130D01*
X896586D01*
X896721Y875583D01*
X896728Y875603D01*
X896752Y875649D01*
X896934Y875998D01*
X897049Y876152D01*
X897112Y876159D01*
X897120Y876162D01*
X897198Y876351D01*
X897370Y876536D01*
X897554Y876707D01*
X897743Y876786D01*
X897746Y876793D01*
X897753Y876856D01*
X897908Y876972D01*
X897929Y876985D01*
X898303Y877177D01*
X898453Y877236D01*
X898774Y877320D01*
X898775Y877319D01*
X898779Y877321D01*
X898934Y877385D01*
X899081Y877408D01*
X899557Y877379D01*
Y877379D01*
X900034Y877462D01*
X900151Y877475D01*
X994439D01*
X994646Y876975D01*
X994430Y876759D01*
X994205Y876216D01*
Y875629D01*
X994430Y875086D01*
X994845Y874671D01*
X995388Y874446D01*
X995975D01*
X996518Y874671D01*
X996933Y875086D01*
X997158Y875629D01*
Y876216D01*
X996933Y876759D01*
X996717Y876975D01*
X996924Y877475D01*
X1010774D01*
X1010902Y877461D01*
D02*
G37*
G36*
X1014495Y808545D02*
Y807998D01*
X1014482Y807885D01*
X1014399Y807419D01*
X1014399D01*
X1014411Y806925D01*
X1014339Y806637D01*
X1014339D01*
X1014204Y806184D01*
X1014197Y806165D01*
X1014004Y805792D01*
X1013991Y805770D01*
X1013876Y805615D01*
X1013813Y805608D01*
X1013805Y805605D01*
X1013727Y805416D01*
X1013555Y805232D01*
X1013371Y805060D01*
X1013182Y804982D01*
X1013179Y804975D01*
X1013172Y804911D01*
X1013018Y804797D01*
X1012668Y804614D01*
X1012622Y804591D01*
X1012472Y804532D01*
X1012151Y804448D01*
X1012150Y804448D01*
X1012147Y804447D01*
X1011991Y804383D01*
X1011844Y804359D01*
X1011368Y804389D01*
Y804389D01*
X1010891Y804306D01*
X1010774Y804293D01*
X1010243D01*
X1010049Y804760D01*
X1010055Y804793D01*
X1011611Y805832D01*
X1012955Y807176D01*
X1013995Y808732D01*
X1014027Y808738D01*
X1014495Y808545D01*
D02*
G37*
G36*
X896931Y808732D02*
X897970Y807176D01*
X899314Y805832D01*
X900870Y804793D01*
X900876Y804760D01*
X900682Y804293D01*
X900151D01*
X900023Y804307D01*
X899557Y804389D01*
Y804389D01*
X899108Y804364D01*
X898775Y804448D01*
X898775Y804448D01*
X898322Y804583D01*
X898303Y804591D01*
X897929Y804783D01*
X897908Y804796D01*
X897753Y804911D01*
X897746Y804975D01*
X897743Y804982D01*
X897554Y805060D01*
X897370Y805232D01*
X897198Y805416D01*
X897120Y805606D01*
X897112Y805608D01*
X897049Y805615D01*
X896934Y805769D01*
X896752Y806119D01*
X896728Y806165D01*
X896667Y806320D01*
X896586Y806637D01*
X896586Y806637D01*
X896585Y806641D01*
X896514Y806924D01*
X896526Y807419D01*
X896526D01*
X896443Y807885D01*
X896430Y807998D01*
Y808545D01*
X896898Y808738D01*
X896931Y808732D01*
D02*
G37*
%LPC*%
G36*
X906748Y871262D02*
X906161D01*
X905618Y871037D01*
X905421Y870840D01*
X905224Y871037D01*
X904681Y871262D01*
X904094D01*
X903551Y871037D01*
X903136Y870622D01*
X902911Y870079D01*
Y869492D01*
X903136Y868949D01*
X903329Y868756D01*
X903134Y868560D01*
X902909Y868018D01*
Y867430D01*
X903134Y866888D01*
X903333Y866689D01*
X903120Y866475D01*
X902895Y865933D01*
Y865345D01*
X903120Y864803D01*
X903535Y864387D01*
X904078Y864163D01*
X904665D01*
X905208Y864387D01*
X905405Y864585D01*
X905602Y864387D01*
X906145Y864163D01*
X906732D01*
X907275Y864387D01*
X907690Y864803D01*
X907866Y865228D01*
X908031Y865159D01*
X908618D01*
X909161Y865384D01*
X909174Y865398D01*
X909416Y865350D01*
X909831Y864934D01*
X910374Y864709D01*
X910961D01*
X911504Y864934D01*
X911919Y865350D01*
X912099Y865784D01*
X912201Y865799D01*
X912606Y865767D01*
X912795Y865311D01*
X913210Y864896D01*
X913753Y864671D01*
X914340D01*
X914883Y864896D01*
X915298Y865311D01*
X915523Y865853D01*
Y866441D01*
X915298Y866983D01*
X914883Y867399D01*
X914465Y867572D01*
X914463Y867583D01*
X914688Y868126D01*
Y868713D01*
X914463Y869256D01*
X914048Y869671D01*
X913505Y869896D01*
X912918D01*
X912375Y869671D01*
X912104Y869400D01*
X912028Y869477D01*
X911485Y869701D01*
X910898D01*
X910355Y869477D01*
X910234Y869356D01*
X909645Y869473D01*
X909576Y869637D01*
X909161Y870053D01*
X908618Y870278D01*
X908031D01*
X907876Y870213D01*
X907706Y870622D01*
X907291Y871037D01*
X906748Y871262D01*
D02*
G37*
G36*
X1012457Y872705D02*
X1011870D01*
X1011327Y872481D01*
X1010912Y872065D01*
X1010687Y871523D01*
Y870936D01*
X1010912Y870393D01*
X1011327Y869977D01*
X1011870Y869753D01*
X1012457D01*
X1013000Y869977D01*
X1013415Y870393D01*
X1013640Y870936D01*
Y871523D01*
X1013415Y872065D01*
X1013000Y872481D01*
X1012457Y872705D01*
D02*
G37*
G36*
X973384Y871590D02*
X927222D01*
X926720Y871490D01*
X926294Y871206D01*
X921663Y866575D01*
X921268Y866411D01*
X920853Y865996D01*
X920628Y865453D01*
Y864866D01*
X920853Y864323D01*
X921268Y863908D01*
X921811Y863683D01*
X922398D01*
X922941Y863908D01*
X923356Y864323D01*
X923520Y864719D01*
X927766Y868965D01*
X972840D01*
X974035Y867770D01*
X974199Y867374D01*
X974614Y866959D01*
X975157Y866734D01*
X975744D01*
X976287Y866959D01*
X976702Y867374D01*
X976927Y867917D01*
Y868504D01*
X976702Y869047D01*
X976287Y869462D01*
X975892Y869626D01*
X974312Y871206D01*
X973886Y871490D01*
X973384Y871590D01*
D02*
G37*
G36*
X993923Y868428D02*
X993336D01*
X992793Y868204D01*
X992378Y867788D01*
X992153Y867246D01*
Y866658D01*
X992319Y866259D01*
X991895Y865975D01*
X990970Y866900D01*
X990545Y867184D01*
X990042Y867284D01*
X986794D01*
X986292Y867184D01*
X985866Y866900D01*
X984557Y865591D01*
X984162Y865427D01*
X983746Y865012D01*
X983522Y864469D01*
Y863881D01*
X983746Y863339D01*
X984162Y862924D01*
X984704Y862699D01*
X985292D01*
X985834Y862924D01*
X986250Y863339D01*
X986413Y863734D01*
X986990Y864311D01*
X987206Y864290D01*
X987666Y864092D01*
Y863505D01*
X987890Y862962D01*
X988306Y862547D01*
X988701Y862383D01*
X996837Y854247D01*
X997263Y853962D01*
X997766Y853862D01*
X999342D01*
X1000012Y853192D01*
X1000173Y852951D01*
X1002410Y850714D01*
Y847931D01*
X1002200Y847425D01*
Y846838D01*
X1002425Y846296D01*
X1002840Y845880D01*
X1002907Y845852D01*
X1003025Y845263D01*
X1000710Y842948D01*
X1000010D01*
X999996Y842963D01*
X999832Y843358D01*
X999417Y843773D01*
X998874Y843998D01*
X998287D01*
X997744Y843773D01*
X997329Y843358D01*
X997104Y842815D01*
Y842228D01*
X997329Y841685D01*
X997744Y841270D01*
X998140Y841106D01*
X998538Y840708D01*
X998964Y840423D01*
X999467Y840323D01*
X1001254D01*
X1001756Y840423D01*
X1002182Y840708D01*
X1006778Y845304D01*
X1007063Y845729D01*
X1007163Y846232D01*
Y851689D01*
X1007063Y852192D01*
X1006778Y852617D01*
X1001576Y857820D01*
X1001150Y858104D01*
X1000648Y858204D01*
X999666D01*
X992653Y865217D01*
X992936Y865641D01*
X993336Y865476D01*
X993923D01*
X994466Y865700D01*
X994881Y866116D01*
X995106Y866658D01*
Y867246D01*
X994881Y867788D01*
X994466Y868204D01*
X993923Y868428D01*
D02*
G37*
G36*
X1012426Y868143D02*
X1011839D01*
X1011296Y867918D01*
X1010881Y867503D01*
X1010656Y866961D01*
Y866373D01*
X1010881Y865831D01*
X1011296Y865415D01*
X1011839Y865191D01*
X1012426D01*
X1012969Y865415D01*
X1013384Y865831D01*
X1013609Y866373D01*
Y866961D01*
X1013384Y867503D01*
X1012969Y867918D01*
X1012426Y868143D01*
D02*
G37*
G36*
X948207Y854144D02*
X947619D01*
X947077Y853919D01*
X946661Y853504D01*
X946437Y852961D01*
Y852374D01*
X946661Y851831D01*
X947077Y851416D01*
X947619Y851191D01*
X947539Y850724D01*
X928569D01*
X927957Y851337D01*
X927793Y851732D01*
X927378Y852147D01*
X926835Y852372D01*
X926248D01*
X925705Y852147D01*
X925290Y851732D01*
X925065Y851189D01*
Y850602D01*
X925290Y850059D01*
X925705Y849644D01*
X926100Y849480D01*
X926160Y849421D01*
X925981Y848892D01*
X925599Y848734D01*
X925183Y848318D01*
X924959Y847776D01*
Y847189D01*
X925183Y846646D01*
X925599Y846231D01*
X926141Y846006D01*
X926729D01*
X927271Y846231D01*
X927687Y846646D01*
X927911Y847189D01*
Y847612D01*
X927959Y847813D01*
X928319Y848099D01*
X946012D01*
X946328Y847599D01*
X946218Y847334D01*
Y846746D01*
X946443Y846204D01*
X946859Y845788D01*
X947401Y845564D01*
X947989D01*
X948531Y845788D01*
X948946Y846204D01*
X949171Y846746D01*
Y847334D01*
X949061Y847599D01*
X949377Y848099D01*
X951041D01*
X951544Y848199D01*
X951969Y848483D01*
X953947Y850461D01*
X955757D01*
X955964Y849961D01*
X955843Y849840D01*
X955702Y849498D01*
X949489Y843286D01*
X949367Y843103D01*
X949008Y843115D01*
X948850Y843161D01*
X948642Y843662D01*
X948227Y844077D01*
X947684Y844302D01*
X947097D01*
X946554Y844077D01*
X946139Y843662D01*
X945914Y843120D01*
Y842532D01*
X946139Y841990D01*
X946554Y841574D01*
X947097Y841350D01*
X947684D01*
X948227Y841574D01*
X948642Y841990D01*
X948754Y842260D01*
X949254Y842161D01*
Y840457D01*
X949276Y840345D01*
X949286Y840232D01*
X949307Y840193D01*
X949315Y840150D01*
X949379Y840055D01*
X949431Y839954D01*
X949465Y839926D01*
X949489Y839889D01*
X949584Y839826D01*
X949671Y839753D01*
X949954Y839598D01*
X949988Y839524D01*
X949874Y839249D01*
Y838661D01*
X950099Y838119D01*
X950327Y837891D01*
X950085Y837649D01*
X949860Y837107D01*
Y836519D01*
X950085Y835977D01*
X950334Y835727D01*
X950132Y835524D01*
X949907Y834982D01*
Y834394D01*
X950132Y833852D01*
X950306Y833677D01*
X950094Y833466D01*
X949869Y832923D01*
Y832336D01*
X950094Y831793D01*
X950239Y831647D01*
X949986Y831395D01*
X949762Y830852D01*
Y830265D01*
X949986Y829722D01*
X950402Y829307D01*
X950945Y829082D01*
X951532D01*
X952074Y829307D01*
X952227Y829459D01*
X952392Y829294D01*
X952935Y829069D01*
X953522D01*
X954065Y829294D01*
X954264Y829493D01*
X954451Y829307D01*
X954993Y829082D01*
X955581D01*
X956123Y829307D01*
X956379Y829562D01*
X956559Y829382D01*
X957102Y829157D01*
X957196D01*
X957533Y828796D01*
X957530Y828657D01*
X957530Y828657D01*
X957555Y828530D01*
X957571Y828402D01*
X957585Y828377D01*
X957591Y828350D01*
X957663Y828242D01*
X957697Y828182D01*
X957817Y827892D01*
Y827624D01*
X957715Y827376D01*
X957644Y827306D01*
X957470Y827046D01*
X957409Y826738D01*
X957470Y826431D01*
X957644Y826171D01*
X957644Y826171D01*
X957715Y826101D01*
X957817Y825853D01*
Y825585D01*
X957715Y825338D01*
X957632Y825255D01*
X957458Y824995D01*
X957397Y824688D01*
X957458Y824380D01*
X957632Y824120D01*
X957632Y824120D01*
X957715Y824038D01*
X957817Y823790D01*
Y823522D01*
X957715Y823275D01*
X957525Y823085D01*
X957278Y822983D01*
X957010D01*
X956762Y823085D01*
X956727Y823120D01*
X956467Y823294D01*
X956159Y823355D01*
X955852Y823294D01*
X955592Y823120D01*
X955592Y823120D01*
X955557Y823085D01*
X955309Y822983D01*
X955041D01*
X954794Y823085D01*
X954759Y823120D01*
X954498Y823294D01*
X954191Y823355D01*
X953884Y823294D01*
X953623Y823120D01*
X953623Y823120D01*
X953588Y823085D01*
X953341Y822983D01*
X953073D01*
X952825Y823085D01*
X952790Y823120D01*
X952530Y823294D01*
X952222Y823355D01*
X951915Y823294D01*
X951655Y823120D01*
X951655Y823120D01*
X951620Y823085D01*
X951372Y822983D01*
X951104D01*
X950864Y823082D01*
X950840Y823087D01*
X950818Y823100D01*
X950687Y823117D01*
X950557Y823143D01*
X950533Y823138D01*
X950508Y823142D01*
X950380Y823108D01*
X950250Y823082D01*
X950229Y823068D01*
X950205Y823062D01*
X949705Y822818D01*
X949599Y822737D01*
X949489Y822664D01*
X949475Y822643D01*
X949456Y822628D01*
X949389Y822513D01*
X949315Y822403D01*
X949310Y822379D01*
X949298Y822357D01*
X949280Y822226D01*
X949254Y822096D01*
Y810829D01*
X949315Y810522D01*
X949489Y810261D01*
X949750Y810087D01*
X950057Y810026D01*
X968955D01*
X969262Y810087D01*
X969522Y810261D01*
X969696Y810522D01*
X969757Y810829D01*
Y831604D01*
X969731Y831738D01*
X969696Y831911D01*
X969696Y831911D01*
Y831911D01*
X969631Y832010D01*
X969522Y832172D01*
X969522Y832172D01*
X969522Y832172D01*
X969436Y832230D01*
X969171Y832495D01*
X969069Y832742D01*
Y833010D01*
X969171Y833257D01*
X969436Y833523D01*
X969522Y833580D01*
X969522Y833580D01*
X969522Y833580D01*
X969631Y833742D01*
X969696Y833841D01*
Y833841D01*
X969696Y833841D01*
X969731Y834014D01*
X969757Y834148D01*
Y836856D01*
X969696Y837163D01*
X969522Y837424D01*
X963822Y843124D01*
Y843696D01*
X964284Y843887D01*
X978388Y829782D01*
X978814Y829498D01*
X979316Y829398D01*
X994500D01*
X995002Y829498D01*
X995428Y829782D01*
X1001646Y836000D01*
X1005183D01*
X1005685Y836100D01*
X1006111Y836385D01*
X1010540Y840814D01*
X1010705Y841060D01*
X1010736Y841073D01*
X1011151Y841488D01*
X1011376Y842031D01*
Y842618D01*
X1011151Y843161D01*
X1010736Y843576D01*
X1010193Y843801D01*
X1009606D01*
X1009063Y843576D01*
X1008648Y843161D01*
X1008423Y842618D01*
Y842420D01*
X1008403Y842389D01*
X1004639Y838626D01*
X1001103D01*
X1000600Y838526D01*
X1000174Y838241D01*
X998891Y836957D01*
X998301Y837075D01*
X998273Y837142D01*
X997858Y837557D01*
X997315Y837782D01*
X996728D01*
X996185Y837557D01*
X995770Y837142D01*
X995545Y836599D01*
Y836012D01*
X995770Y835469D01*
X996185Y835054D01*
X996252Y835026D01*
X996369Y834436D01*
X993956Y832023D01*
X979860D01*
X978753Y833130D01*
X978960Y833630D01*
X983029D01*
X983532Y833730D01*
X983958Y834015D01*
X992133Y842190D01*
X992723Y842073D01*
X992801Y841882D01*
X993217Y841467D01*
X993759Y841242D01*
X994347D01*
X994889Y841467D01*
X995305Y841882D01*
X995529Y842425D01*
Y843012D01*
X995305Y843555D01*
X994889Y843970D01*
X994699Y844049D01*
X994582Y844639D01*
X998964Y849021D01*
X999023Y849046D01*
X999439Y849461D01*
X999663Y850004D01*
Y850591D01*
X999439Y851134D01*
X999023Y851549D01*
X998481Y851774D01*
X997893D01*
X997351Y851549D01*
X996935Y851134D01*
X996711Y850591D01*
Y850480D01*
X982486Y836255D01*
X978849D01*
X975152Y839952D01*
X975181Y840453D01*
X975630Y840753D01*
X975836Y840667D01*
X976423D01*
X976966Y840892D01*
X977381Y841308D01*
X977606Y841850D01*
Y842437D01*
X977381Y842980D01*
X976966Y843395D01*
X976423Y843620D01*
X975836D01*
X975293Y843395D01*
X974878Y842980D01*
X974875Y842974D01*
X974259Y842793D01*
X973963Y842915D01*
X973376D01*
X972833Y842691D01*
X972418Y842275D01*
X972193Y841733D01*
Y841145D01*
X972418Y840603D01*
X972473Y840548D01*
X972423Y840076D01*
X971983Y839900D01*
X959181Y852702D01*
X958756Y852986D01*
X958253Y853086D01*
X953403D01*
X952901Y852986D01*
X952475Y852702D01*
X950498Y850724D01*
X948286D01*
X948207Y851191D01*
X948749Y851416D01*
X949164Y851831D01*
X949389Y852374D01*
Y852961D01*
X949164Y853504D01*
X948749Y853919D01*
X948207Y854144D01*
D02*
G37*
G36*
X905370Y843703D02*
X904783D01*
X904240Y843478D01*
X903825Y843063D01*
X903600Y842520D01*
Y841933D01*
X903825Y841390D01*
X904240Y840975D01*
X904783Y840750D01*
X905370D01*
X905913Y840975D01*
X906328Y841390D01*
X906553Y841933D01*
Y842520D01*
X906328Y843063D01*
X905913Y843478D01*
X905370Y843703D01*
D02*
G37*
G36*
X910981Y843677D02*
X910393D01*
X909851Y843452D01*
X909435Y843037D01*
X909211Y842494D01*
Y841907D01*
X909435Y841364D01*
X909851Y840949D01*
X910393Y840724D01*
X910981D01*
X911523Y840949D01*
X911939Y841364D01*
X912163Y841907D01*
Y842494D01*
X911939Y843037D01*
X911523Y843452D01*
X910981Y843677D01*
D02*
G37*
G36*
X1004288Y835238D02*
X1003700D01*
X1003158Y835013D01*
X1002742Y834598D01*
X1002518Y834056D01*
Y833468D01*
X1002742Y832926D01*
X1003158Y832510D01*
X1003700Y832285D01*
X1004288D01*
X1004830Y832510D01*
X1005246Y832926D01*
X1005470Y833468D01*
Y834056D01*
X1005246Y834598D01*
X1004830Y835013D01*
X1004288Y835238D01*
D02*
G37*
G36*
X944427Y832629D02*
X943840D01*
X943297Y832404D01*
X943096Y832203D01*
X942931Y832368D01*
X942388Y832593D01*
X941801D01*
X941258Y832368D01*
X941057Y832167D01*
X940856Y832368D01*
X940314Y832593D01*
X939726D01*
X939184Y832368D01*
X938768Y831953D01*
X938543Y831410D01*
Y830823D01*
X938768Y830280D01*
X938965Y830083D01*
X938768Y829886D01*
X938543Y829344D01*
Y828756D01*
X938768Y828214D01*
X938965Y828016D01*
X938768Y827819D01*
X938543Y827277D01*
Y826689D01*
X938768Y826147D01*
X938922Y825993D01*
X938706Y825778D01*
X938481Y825235D01*
Y824648D01*
X938706Y824105D01*
X939121Y823690D01*
X939664Y823465D01*
X940251D01*
X940794Y823690D01*
X940995Y823891D01*
X941196Y823690D01*
X941739Y823465D01*
X942326D01*
X942869Y823690D01*
X943070Y823891D01*
X943235Y823726D01*
X943778Y823501D01*
X944365D01*
X944908Y823726D01*
X945055Y823873D01*
X945250Y823678D01*
X945793Y823453D01*
X946380D01*
X946923Y823678D01*
X947338Y824093D01*
X947563Y824636D01*
Y825223D01*
X947338Y825766D01*
X947185Y825919D01*
X947400Y826135D01*
X947625Y826677D01*
Y827265D01*
X947400Y827807D01*
X947203Y828004D01*
X947400Y828202D01*
X947625Y828744D01*
Y829332D01*
X947400Y829874D01*
X947203Y830071D01*
X947400Y830269D01*
X947625Y830811D01*
Y831398D01*
X947400Y831941D01*
X946985Y832356D01*
X946443Y832581D01*
X945855D01*
X945313Y832356D01*
X945165Y832209D01*
X944970Y832404D01*
X944427Y832629D01*
D02*
G37*
G36*
X926229Y832556D02*
X925642D01*
X925099Y832331D01*
X924898Y832130D01*
X924733Y832296D01*
X924190Y832520D01*
X923603D01*
X923060Y832296D01*
X922859Y832094D01*
X922658Y832296D01*
X922115Y832520D01*
X921528D01*
X920985Y832296D01*
X920570Y831880D01*
X920345Y831338D01*
Y830750D01*
X920570Y830208D01*
X920767Y830010D01*
X920570Y829813D01*
X920345Y829271D01*
Y828683D01*
X920570Y828141D01*
X920767Y827944D01*
X920570Y827746D01*
X920345Y827204D01*
Y826616D01*
X920570Y826074D01*
X920724Y825920D01*
X920508Y825705D01*
X920283Y825162D01*
Y824575D01*
X920508Y824032D01*
X920923Y823617D01*
X921466Y823392D01*
X922053D01*
X922596Y823617D01*
X922797Y823818D01*
X922998Y823617D01*
X923541Y823392D01*
X924128D01*
X924671Y823617D01*
X924872Y823818D01*
X925037Y823653D01*
X925580Y823428D01*
X926167D01*
X926710Y823653D01*
X926857Y823800D01*
X927052Y823605D01*
X927595Y823380D01*
X928182D01*
X928725Y823605D01*
X929140Y824020D01*
X929365Y824563D01*
Y825150D01*
X929140Y825693D01*
X928987Y825846D01*
X929202Y826062D01*
X929427Y826604D01*
Y827192D01*
X929202Y827734D01*
X929005Y827932D01*
X929202Y828129D01*
X929427Y828671D01*
Y829259D01*
X929202Y829801D01*
X929005Y829998D01*
X929202Y830196D01*
X929427Y830738D01*
Y831326D01*
X929202Y831868D01*
X928787Y832284D01*
X928244Y832508D01*
X927657D01*
X927114Y832284D01*
X926967Y832136D01*
X926772Y832331D01*
X926229Y832556D01*
D02*
G37*
G36*
X934307Y832384D02*
X933720D01*
X933177Y832159D01*
X932762Y831744D01*
X932537Y831201D01*
Y830614D01*
X932762Y830071D01*
X933177Y829656D01*
X933720Y829431D01*
X934307D01*
X934850Y829656D01*
X935265Y830071D01*
X935490Y830614D01*
Y831201D01*
X935265Y831744D01*
X934850Y832159D01*
X934307Y832384D01*
D02*
G37*
G36*
X997757Y828637D02*
X997170D01*
X996627Y828412D01*
X996212Y827997D01*
X995987Y827454D01*
Y826867D01*
X996212Y826324D01*
X996627Y825909D01*
X997170Y825684D01*
X997757D01*
X998300Y825909D01*
X998715Y826324D01*
X998940Y826867D01*
Y827454D01*
X998715Y827997D01*
X998300Y828412D01*
X997757Y828637D01*
D02*
G37*
G36*
X928894Y822344D02*
X928307D01*
X927764Y822120D01*
X927647Y822003D01*
X927321Y821728D01*
X926994Y822003D01*
X926878Y822120D01*
X926335Y822344D01*
X925748D01*
X925205Y822120D01*
X925088Y822003D01*
X924762Y821728D01*
X924435Y822003D01*
X924319Y822120D01*
X923776Y822344D01*
X923189D01*
X922646Y822120D01*
X922231Y821704D01*
X922006Y821162D01*
Y820574D01*
X922231Y820032D01*
X922646Y819617D01*
X923189Y819392D01*
X923776D01*
X924319Y819617D01*
X924435Y819733D01*
X924762Y820008D01*
X925088Y819733D01*
X925205Y819617D01*
X925748Y819392D01*
X926335D01*
X926878Y819617D01*
X926994Y819733D01*
X927321Y820008D01*
X927647Y819733D01*
X927764Y819617D01*
X928307Y819392D01*
X928894D01*
X929437Y819617D01*
X929852Y820032D01*
X930077Y820574D01*
Y821162D01*
X929852Y821704D01*
X929437Y822120D01*
X928894Y822344D01*
D02*
G37*
G36*
X947004Y822246D02*
X946417D01*
X945874Y822021D01*
X945758Y821905D01*
X945431Y821630D01*
X945104Y821905D01*
X944988Y822021D01*
X944445Y822246D01*
X943858D01*
X943315Y822021D01*
X943199Y821905D01*
X942872Y821630D01*
X942545Y821905D01*
X942429Y822021D01*
X941886Y822246D01*
X941299D01*
X940756Y822021D01*
X940341Y821606D01*
X940116Y821063D01*
Y820476D01*
X940341Y819933D01*
X940756Y819518D01*
X941299Y819293D01*
X941886D01*
X942429Y819518D01*
X942545Y819635D01*
X942872Y819910D01*
X943199Y819635D01*
X943315Y819518D01*
X943858Y819293D01*
X944445D01*
X944988Y819518D01*
X945104Y819635D01*
X945431Y819910D01*
X945758Y819635D01*
X945874Y819518D01*
X946417Y819293D01*
X947004D01*
X947547Y819518D01*
X947962Y819933D01*
X948187Y820476D01*
Y821063D01*
X947962Y821606D01*
X947547Y822021D01*
X947004Y822246D01*
D02*
G37*
G36*
X990685Y821002D02*
X990098D01*
X989555Y820778D01*
X989354Y820576D01*
X989189Y820742D01*
X988646Y820967D01*
X988059D01*
X987516Y820742D01*
X987315Y820541D01*
X987114Y820742D01*
X986571Y820967D01*
X985984D01*
X985441Y820742D01*
X985026Y820326D01*
X984801Y819784D01*
Y819197D01*
X985026Y818654D01*
X985223Y818457D01*
X985026Y818260D01*
X984801Y817717D01*
Y817130D01*
X985026Y816587D01*
X985223Y816390D01*
X985026Y816193D01*
X984801Y815650D01*
Y815063D01*
X985026Y814520D01*
X985179Y814367D01*
X984964Y814151D01*
X984739Y813608D01*
Y813021D01*
X984964Y812479D01*
X985379Y812063D01*
X985922Y811838D01*
X986509D01*
X987052Y812063D01*
X987253Y812264D01*
X987454Y812063D01*
X987996Y811838D01*
X988584D01*
X989126Y812063D01*
X989328Y812264D01*
X989493Y812099D01*
X990036Y811874D01*
X990623D01*
X991166Y812099D01*
X991313Y812247D01*
X991508Y812051D01*
X992051Y811827D01*
X992638D01*
X993181Y812051D01*
X993596Y812467D01*
X993821Y813009D01*
Y813597D01*
X993596Y814139D01*
X993443Y814293D01*
X993658Y814508D01*
X993883Y815051D01*
Y815638D01*
X993658Y816181D01*
X993461Y816378D01*
X993658Y816575D01*
X993883Y817118D01*
Y817705D01*
X993658Y818248D01*
X993461Y818445D01*
X993658Y818642D01*
X993883Y819185D01*
Y819772D01*
X993658Y820315D01*
X993243Y820730D01*
X992700Y820955D01*
X992113D01*
X991570Y820730D01*
X991423Y820582D01*
X991228Y820778D01*
X990685Y821002D01*
D02*
G37*
G36*
X933323Y826282D02*
X932736D01*
X932193Y826057D01*
X931778Y825641D01*
X931553Y825099D01*
Y824511D01*
X931778Y823969D01*
X931820Y823927D01*
X931793Y823729D01*
X931653Y823386D01*
X931209Y823202D01*
X930794Y822787D01*
X930569Y822244D01*
Y821657D01*
X930794Y821115D01*
X931209Y820699D01*
X931752Y820474D01*
X932339D01*
X932882Y820699D01*
X933297Y821115D01*
X933522Y821657D01*
Y822244D01*
X933297Y822787D01*
X933255Y822829D01*
X933282Y823026D01*
X933422Y823370D01*
X933866Y823553D01*
X934281Y823969D01*
X934506Y824511D01*
Y825099D01*
X934281Y825641D01*
X933866Y826057D01*
X933323Y826282D01*
D02*
G37*
%LPD*%
G36*
X963019Y845152D02*
Y842792D01*
X968955Y836856D01*
Y834148D01*
X968906Y834128D01*
X968491Y833712D01*
X968266Y833170D01*
Y832582D01*
X968491Y832040D01*
X968906Y831624D01*
X968955Y831604D01*
Y810829D01*
X950057D01*
Y822096D01*
X950557Y822340D01*
X950945Y822180D01*
X951532D01*
X952074Y822405D01*
X952222Y822553D01*
X952370Y822405D01*
X952913Y822180D01*
X953500D01*
X954043Y822405D01*
X954191Y822553D01*
X954339Y822405D01*
X954881Y822180D01*
X955469D01*
X956011Y822405D01*
X956159Y822553D01*
X956307Y822405D01*
X956850Y822180D01*
X957437D01*
X957980Y822405D01*
X958395Y822820D01*
X958620Y823363D01*
Y823950D01*
X958395Y824492D01*
X958200Y824688D01*
X958395Y824883D01*
X958620Y825425D01*
Y826013D01*
X958395Y826555D01*
X958212Y826738D01*
X958395Y826922D01*
X958620Y827464D01*
Y828051D01*
X958395Y828594D01*
X958333Y828657D01*
X958365Y829127D01*
X958399Y829223D01*
X958722Y829344D01*
X959173Y829157D01*
X959761D01*
X960303Y829382D01*
X960719Y829797D01*
X960943Y830340D01*
Y830927D01*
X960719Y831470D01*
X960573Y831616D01*
X960826Y831868D01*
X961051Y832411D01*
Y832998D01*
X960826Y833541D01*
X960411Y833956D01*
X959868Y834181D01*
X959439D01*
X959167Y834367D01*
X959017Y834613D01*
Y835057D01*
X958792Y835600D01*
X958602Y835790D01*
X958789Y835977D01*
X959014Y836519D01*
Y837107D01*
X958789Y837649D01*
X958374Y838065D01*
X957831Y838289D01*
X957474D01*
X957132Y838618D01*
X957087Y838751D01*
Y839249D01*
X956862Y839791D01*
X956447Y840207D01*
X955904Y840431D01*
X955317D01*
X954774Y840207D01*
X954534Y839966D01*
X954374Y840126D01*
X953832Y840351D01*
X953244D01*
X952702Y840126D01*
X952484Y839909D01*
X952186Y840207D01*
X951644Y840431D01*
X951056D01*
X950557Y840225D01*
X950339Y840302D01*
X950057Y840457D01*
Y842719D01*
X957537Y850199D01*
X957972D01*
X963019Y845152D01*
D02*
G37*
%LPC*%
G36*
X966985Y830415D02*
X966397D01*
X965855Y830191D01*
X965439Y829775D01*
X965215Y829233D01*
Y828645D01*
X965439Y828103D01*
X965855Y827687D01*
X966397Y827463D01*
X966985D01*
X967527Y827687D01*
X967943Y828103D01*
X968167Y828645D01*
Y829233D01*
X967943Y829775D01*
X967527Y830191D01*
X966985Y830415D01*
D02*
G37*
%LPD*%
G36*
X967072Y829510D02*
X967262Y829321D01*
X967364Y829073D01*
Y828805D01*
X967262Y828557D01*
X967072Y828368D01*
X966825Y828265D01*
X966557D01*
X966309Y828368D01*
X966120Y828557D01*
X966017Y828805D01*
Y829073D01*
X966120Y829321D01*
X966309Y829510D01*
X966557Y829613D01*
X966825D01*
X967072Y829510D01*
D02*
G37*
D12*
X1015287Y876185D02*
G03*
X1015249Y876266I-372J-129D01*
G01*
X1014780Y877011D02*
G03*
X1014725Y877081I-334J-208D01*
G01*
X1014780Y877013D02*
G03*
X1014725Y877081I-333J-209D01*
G01*
X1015287Y876187D02*
G03*
X1015248Y876267I-372J-130D01*
G01*
X1015699Y874348D02*
G03*
X1015696Y874393I-394J0D01*
G01*
X1015598Y875267D02*
G03*
X1015578Y875354I-391J-43D01*
G01*
X1015699Y874348D02*
G03*
X1015696Y874394I-394J0D01*
G01*
X1015598Y875269D02*
G03*
X1015578Y875356I-391J-44D01*
G01*
X1013287Y878228D02*
G03*
X1013206Y878267I-211J-333D01*
G01*
X1012374Y878558D02*
G03*
X1012288Y878578I-130J-372D01*
G01*
X1013286Y878229D02*
G03*
X1013206Y878267I-209J-333D01*
G01*
X1011412Y878677D02*
G03*
X1011368Y878679I-44J-391D01*
G01*
X1011412Y878677D02*
G03*
X1011368Y878679I-44J-391D01*
G01*
X1012374Y878558D02*
G03*
X1012288Y878578I-130J-372D01*
G01*
X1014101Y877705D02*
G03*
X1014032Y877760I-279J-279D01*
G01*
X1014101Y877705D02*
G03*
X1014031Y877761I-279J-279D01*
G01*
X1015696Y807375D02*
G03*
X1015699Y807419I-391J44D01*
G01*
X1015578Y806413D02*
G03*
X1015598Y806501I-372J130D01*
G01*
X1015696Y807374D02*
G03*
X1015699Y807419I-391J46D01*
G01*
X1015578Y806412D02*
G03*
X1015598Y806499I-371J131D01*
G01*
X1015249Y805502D02*
G03*
X1015287Y805582I-333J209D01*
G01*
X1015248Y805500D02*
G03*
X1015287Y805581I-333J211D01*
G01*
X1014725Y804686D02*
G03*
X1014780Y804756I-279J279D01*
G01*
X1014725Y804686D02*
G03*
X1014780Y804755I-279J279D01*
G01*
X1014032Y804008D02*
G03*
X1014101Y804063I-209J333D01*
G01*
X1014031Y804007D02*
G03*
X1014101Y804063I-208J334D01*
G01*
X1013206Y803500D02*
G03*
X1013286Y803539I-130J372D01*
G01*
X1013206Y803500D02*
G03*
X1013287Y803539I-130J372D01*
G01*
X1012288Y803190D02*
G03*
X1012374Y803209I-44J391D01*
G01*
X1012288Y803190D02*
G03*
X1012374Y803209I-44J391D01*
G01*
X1011368Y803088D02*
G03*
X1011412Y803091I0J394D01*
G01*
X1011368Y803088D02*
G03*
X1011412Y803091I0J394D01*
G01*
X899557Y878679D02*
G03*
X899513Y878677I0J-394D01*
G01*
X899557Y878679D02*
G03*
X899513Y878677I0J-394D01*
G01*
X898637Y878578D02*
G03*
X898551Y878558I44J-391D01*
G01*
X897719Y878267D02*
G03*
X897639Y878229I130J-372D01*
G01*
X898637Y878578D02*
G03*
X898551Y878558I44J-391D01*
G01*
X897719Y878267D02*
G03*
X897638Y878228I130J-372D01*
G01*
X896894Y877761D02*
G03*
X896824Y877705I208J-334D01*
G01*
X896893Y877760D02*
G03*
X896824Y877705I209J-333D01*
G01*
X896200Y877081D02*
G03*
X896146Y877013I279J-279D01*
G01*
X896200Y877081D02*
G03*
X896145Y877011I279J-279D01*
G01*
X895677Y876267D02*
G03*
X895638Y876187I333J-211D01*
G01*
X895677Y876266D02*
G03*
X895638Y876185I333J-209D01*
G01*
X895347Y875356D02*
G03*
X895327Y875269I371J-131D01*
G01*
X895347Y875354D02*
G03*
X895327Y875267I372J-130D01*
G01*
X895229Y874394D02*
G03*
X895226Y874348I391J-46D01*
G01*
X895229Y874393D02*
G03*
X895226Y874348I391J-44D01*
G01*
X898551Y803209D02*
G03*
X898637Y803190I130J372D01*
G01*
X897638Y803539D02*
G03*
X897719Y803500I211J333D01*
G01*
X896824Y804063D02*
G03*
X896893Y804008I279J279D01*
G01*
X896824Y804063D02*
G03*
X896894Y804007I279J279D01*
G01*
X899513Y803091D02*
G03*
X899557Y803088I44J391D01*
G01*
X899513Y803091D02*
G03*
X899557Y803088I44J391D01*
G01*
X897639Y803539D02*
G03*
X897719Y803500I209J333D01*
G01*
X898551Y803209D02*
G03*
X898637Y803190I130J372D01*
G01*
X895327Y806499D02*
G03*
X895347Y806412I391J44D01*
G01*
X895226Y807419D02*
G03*
X895229Y807375I394J0D01*
G01*
X895226Y807419D02*
G03*
X895229Y807374I394J0D01*
G01*
X895327Y806501D02*
G03*
X895347Y806413I391J43D01*
G01*
X896146Y804755D02*
G03*
X896200Y804686I333J209D01*
G01*
X895638Y805581D02*
G03*
X895677Y805500I372J130D01*
G01*
X895638Y805582D02*
G03*
X895677Y805502I372J129D01*
G01*
X896145Y804756D02*
G03*
X896200Y804686I334J208D01*
G01*
X1014780Y877013D02*
X1014780Y877011D01*
X1015248Y876267D01*
X1015249Y876266D01*
X1015287Y876187D02*
X1015287Y876185D01*
X1015578Y875356D01*
X1015578Y875354D01*
X1014101Y877705D02*
X1014725Y877081D01*
X1015598Y875269D02*
X1015598Y875267D01*
X1015696Y874394D01*
X1015696Y874393D01*
X1015699Y807419D02*
Y874348D01*
X1012374Y878558D02*
X1013206Y878267D01*
X1014031Y877761D02*
X1014032Y877760D01*
X1013287Y878228D02*
X1014031Y877761D01*
X1013286Y878229D02*
X1013287Y878228D01*
X1011412Y878677D02*
X1012288Y878578D01*
X1015696Y807374D02*
X1015696Y807375D01*
X1015598Y806501D02*
X1015696Y807374D01*
X1015598Y806499D02*
X1015598Y806501D01*
X1015578Y806412D02*
X1015578Y806413D01*
X1015287Y805582D02*
X1015578Y806412D01*
X1015287Y805581D02*
X1015287Y805582D01*
X1015248Y805500D02*
X1015249Y805502D01*
X1014780Y804756D02*
X1015248Y805500D01*
X1014780Y804755D02*
X1014780Y804756D01*
X1014101Y804063D02*
X1014725Y804686D01*
X1014031Y804007D02*
X1014032Y804008D01*
X1013287Y803539D02*
X1014031Y804007D01*
X1013286Y803539D02*
X1013287Y803539D01*
X1012374Y803209D02*
X1013206Y803500D01*
X1011412Y803091D02*
X1012288Y803190D01*
X899557Y878679D02*
X1011368D01*
X898637Y878578D02*
X899513Y878677D01*
X897719Y878267D02*
X898551Y878558D01*
X897638Y878228D02*
X897639Y878229D01*
X896894Y877761D02*
X897638Y878228D01*
X896893Y877760D02*
X896894Y877761D01*
X896200Y877081D02*
X896824Y877705D01*
X896145Y877011D02*
X896146Y877013D01*
X895677Y876267D02*
X896145Y877011D01*
X895677Y876266D02*
X895677Y876267D01*
X895638Y876185D02*
X895638Y876187D01*
X895347Y875356D02*
X895638Y876185D01*
X895347Y875354D02*
X895347Y875356D01*
X895327Y875267D02*
X895327Y875269D01*
X895229Y874394D02*
X895327Y875267D01*
X895229Y874393D02*
X895229Y874394D01*
X897638Y803539D02*
X897639Y803539D01*
X896894Y804007D02*
X897638Y803539D01*
X896893Y804008D02*
X896894Y804007D01*
X899557Y803088D02*
X1011368D01*
X897719Y803500D02*
X898551Y803209D01*
X898637Y803190D02*
X899513Y803091D01*
X895347Y806413D02*
X895347Y806412D01*
X895638Y805582D01*
X895638Y805581D01*
X895226Y807419D02*
Y874348D01*
X895229Y807375D02*
X895229Y807374D01*
X895327Y806501D01*
X895327Y806499D01*
X896200Y804686D02*
X896824Y804063D01*
X895677Y805502D02*
X895677Y805500D01*
X896145Y804756D01*
X896146Y804755D01*
D67*
X989142Y863798D02*
X997766Y855175D01*
X999885D01*
X983029Y834943D02*
X998187Y850100D01*
Y850297D01*
X1003722Y847178D02*
Y851258D01*
X1003677Y847132D02*
X1003722Y847178D01*
X999467Y841636D02*
X1001254D01*
X1000648Y856892D02*
X1005850Y851689D01*
Y846232D02*
Y851689D01*
X1001254Y841636D02*
X1005850Y846232D01*
X1001101Y853880D02*
Y853959D01*
X999885Y855175D02*
X1001101Y853959D01*
Y853880D02*
X1003722Y851258D01*
X978305Y834943D02*
X983029D01*
X926541Y850896D02*
X928026Y849411D01*
X951041D01*
X953403Y851774D01*
X973669Y841439D02*
X973817Y841291D01*
Y839431D02*
Y841291D01*
Y839431D02*
X978305Y834943D01*
X922104Y865159D02*
X927222Y870278D01*
X973384D02*
X975451Y868211D01*
X927222Y870278D02*
X973384D01*
X990042Y865972D02*
X999122Y856892D01*
X986794Y865972D02*
X990042D01*
X999122Y856892D02*
X1000648D01*
X984998Y864175D02*
X986794Y865972D01*
X1001103Y837313D02*
X1005183D01*
X994500Y830711D02*
X1001103Y837313D01*
X979316Y830711D02*
X994500D01*
X953403Y851774D02*
X958253D01*
X979316Y830711D01*
X998581Y842522D02*
X999467Y841636D01*
X1009612Y841742D02*
Y841882D01*
X1005183Y837313D02*
X1009612Y841742D01*
Y841882D02*
X1009900Y842169D01*
Y842325D01*
D72*
X905463Y813325D02*
D03*
X1005463D02*
D03*
D73*
X899663Y827314D02*
D03*
X981025Y849290D02*
D03*
X982527Y847787D02*
D03*
X962829Y839402D02*
D03*
X960785Y840750D02*
D03*
X961186Y842856D02*
D03*
X959309Y842128D02*
D03*
X967736Y847172D02*
D03*
X976130Y842144D02*
D03*
X973669Y841439D02*
D03*
X984998Y864175D02*
D03*
X989142Y863798D02*
D03*
X993629Y866952D02*
D03*
X974817Y826551D02*
D03*
X972812Y828494D02*
D03*
X972796Y826430D02*
D03*
X971300Y825065D02*
D03*
X977419Y873427D02*
D03*
X975451D02*
D03*
X973384Y873526D02*
D03*
X971415Y873624D02*
D03*
X969447D02*
D03*
X967380D02*
D03*
X965313Y873526D02*
D03*
X1000648Y860435D02*
D03*
X1010837Y852254D02*
D03*
X1010667Y855987D02*
D03*
X1009588Y854197D02*
D03*
X1007931Y852955D02*
D03*
Y855317D02*
D03*
X1003677Y847132D02*
D03*
X998187Y850297D02*
D03*
X994053Y842719D02*
D03*
X998581Y842522D02*
D03*
X1009900Y842325D02*
D03*
X1010293Y838585D02*
D03*
X1010392Y833073D02*
D03*
X1008325Y834549D02*
D03*
X997021Y836305D02*
D03*
X997463Y827161D02*
D03*
X1013049Y821852D02*
D03*
X996907Y805317D02*
D03*
X951337Y836813D02*
D03*
X953327Y836800D02*
D03*
X955385Y836813D02*
D03*
X957537D02*
D03*
X955610Y838955D02*
D03*
X953538Y838875D02*
D03*
X951350Y838955D02*
D03*
X947391Y842826D02*
D03*
X947695Y847040D02*
D03*
X926541Y850896D02*
D03*
X916199Y852561D02*
D03*
X915411Y854529D02*
D03*
Y856498D02*
D03*
X905941Y874521D02*
D03*
X903421Y874540D02*
D03*
X901371Y874559D02*
D03*
X899096Y874596D02*
D03*
X905077Y842226D02*
D03*
X910687Y842200D02*
D03*
X898679Y822344D02*
D03*
X940018Y858073D02*
D03*
X935884D02*
D03*
X931750D02*
D03*
X933817D02*
D03*
X937951D02*
D03*
X942085D02*
D03*
X931848Y854529D02*
D03*
X987067Y850825D02*
D03*
X988539Y849336D02*
D03*
X989509Y853378D02*
D03*
X986620Y856323D02*
D03*
X988099Y854871D02*
D03*
X942183Y854529D02*
D03*
X966297Y855612D02*
D03*
X957396Y830634D02*
D03*
X957144Y827758D02*
D03*
X1001549Y849616D02*
D03*
X926435Y847482D02*
D03*
X953833Y874313D02*
D03*
X962360Y873132D02*
D03*
X968463Y868104D02*
D03*
X971809D02*
D03*
X995681Y875922D02*
D03*
X1013148Y829861D02*
D03*
X986277Y819490D02*
D03*
X969742Y832876D02*
D03*
X934014Y830908D02*
D03*
X932045Y821951D02*
D03*
X933029Y824805D02*
D03*
X999710Y870934D02*
D03*
X957095Y849004D02*
D03*
X960999Y845099D02*
D03*
X979085Y848439D02*
D03*
X941979Y865310D02*
D03*
X933711D02*
D03*
X931644D02*
D03*
X935778D02*
D03*
X937845D02*
D03*
X922104Y865159D02*
D03*
X939912Y865310D02*
D03*
X974959Y828545D02*
D03*
X913618Y805343D02*
D03*
X966691Y828939D02*
D03*
X957144Y823656D02*
D03*
X955175D02*
D03*
X953207D02*
D03*
X957144Y825719D02*
D03*
X953207D02*
D03*
X955175D02*
D03*
X953207Y827758D02*
D03*
X955175D02*
D03*
X959035Y845499D02*
D03*
X955662Y847093D02*
D03*
X957986Y843693D02*
D03*
X958132Y847265D02*
D03*
X956897Y845459D02*
D03*
X975451Y868211D02*
D03*
X968758Y863486D02*
D03*
X1001193Y844832D02*
D03*
X983344Y859260D02*
D03*
X976140Y851282D02*
D03*
X983522Y843408D02*
D03*
X981973Y845494D02*
D03*
X990981Y851889D02*
D03*
X980564Y846987D02*
D03*
X985155Y857788D02*
D03*
X981256Y856619D02*
D03*
X987569Y852932D02*
D03*
X985399Y844843D02*
D03*
X984178Y853769D02*
D03*
X979573Y850741D02*
D03*
X986090Y854383D02*
D03*
X982713Y855234D02*
D03*
X990451Y849950D02*
D03*
X977620Y849904D02*
D03*
X988978Y851439D02*
D03*
X978116Y852126D02*
D03*
X984625Y855848D02*
D03*
X983927Y846332D02*
D03*
X983167Y857233D02*
D03*
X985657Y852318D02*
D03*
X1012163Y871229D02*
D03*
X1012132Y866667D02*
D03*
X962726Y841595D02*
D03*
X1013049Y825396D02*
D03*
X1009900D02*
D03*
X992344Y813303D02*
D03*
X988352Y817423D02*
D03*
X992407Y817411D02*
D03*
Y819478D02*
D03*
X988290Y813315D02*
D03*
X986277Y815356D02*
D03*
X988352D02*
D03*
X990329Y813351D02*
D03*
X986277Y817423D02*
D03*
X992407Y815344D02*
D03*
X990391Y817459D02*
D03*
Y819526D02*
D03*
Y815392D02*
D03*
X988352Y819490D02*
D03*
X986215Y813315D02*
D03*
X955287Y830558D02*
D03*
X953336Y832617D02*
D03*
X953228Y830546D02*
D03*
X957503Y832705D02*
D03*
X951383Y834688D02*
D03*
X959467Y830634D02*
D03*
X951238Y830558D02*
D03*
X955394Y832629D02*
D03*
X953374Y834675D02*
D03*
X951346Y832629D02*
D03*
X955432Y834688D02*
D03*
X957541Y834763D02*
D03*
X959574Y832705D02*
D03*
X1003502Y875888D02*
D03*
X913503Y873857D02*
D03*
X911192Y868225D02*
D03*
X913211Y868419D02*
D03*
X910667Y866186D02*
D03*
X914046Y866147D02*
D03*
X911267Y873895D02*
D03*
X910638Y861307D02*
D03*
X913606Y861162D02*
D03*
X934900Y856301D02*
D03*
X935982Y854529D02*
D03*
X942970Y863486D02*
D03*
X943167Y856301D02*
D03*
X936770Y863486D02*
D03*
X934703D02*
D03*
X940903D02*
D03*
X933915Y854529D02*
D03*
X941100Y856301D02*
D03*
X939033D02*
D03*
X932636Y863486D02*
D03*
X932833Y856301D02*
D03*
X940116Y854529D02*
D03*
X938049D02*
D03*
X936967Y856301D02*
D03*
X938837Y863486D02*
D03*
X914515Y875962D02*
D03*
X912153Y876061D02*
D03*
X909987D02*
D03*
X908325Y866636D02*
D03*
Y868801D02*
D03*
X906455Y869785D02*
D03*
X906452Y867724D02*
D03*
X906438Y865639D02*
D03*
X904371D02*
D03*
X904385Y867724D02*
D03*
X904388Y869785D02*
D03*
X947913Y852667D02*
D03*
X939958Y824941D02*
D03*
X944134Y829086D02*
D03*
X946149Y831105D02*
D03*
X944071Y824977D02*
D03*
X944134Y827019D02*
D03*
X946149Y826971D02*
D03*
X940020Y829050D02*
D03*
Y831117D02*
D03*
Y826983D02*
D03*
X942032Y824941D02*
D03*
X944134Y831153D02*
D03*
X946087Y824930D02*
D03*
X942095Y826983D02*
D03*
Y831117D02*
D03*
X946149Y829038D02*
D03*
X942095Y829050D02*
D03*
X921822Y828977D02*
D03*
X927951Y826898D02*
D03*
X921760Y824868D02*
D03*
X923834D02*
D03*
X927951Y828965D02*
D03*
X923897Y826910D02*
D03*
X921822D02*
D03*
X925936Y831080D02*
D03*
X923897Y828977D02*
D03*
Y831044D02*
D03*
X927889Y824857D02*
D03*
X927951Y831032D02*
D03*
X925873Y824904D02*
D03*
X925936Y826946D02*
D03*
Y829013D02*
D03*
X921822Y831044D02*
D03*
X951238Y827758D02*
D03*
Y823656D02*
D03*
Y825719D02*
D03*
X963352Y812030D02*
D03*
Y814028D02*
D03*
Y816066D02*
D03*
X961325Y812030D02*
D03*
Y814028D02*
D03*
Y816066D02*
D03*
X959317Y812092D02*
D03*
Y814090D02*
D03*
Y816127D02*
D03*
X957300Y812071D02*
D03*
Y814069D02*
D03*
Y816107D02*
D03*
X955252Y812041D02*
D03*
Y814038D02*
D03*
Y816076D02*
D03*
X953255Y812092D02*
D03*
Y814090D02*
D03*
Y816127D02*
D03*
X951238Y816045D02*
D03*
Y814008D02*
D03*
Y812010D02*
D03*
X1003994Y833762D02*
D03*
X923482Y820868D02*
D03*
X926041D02*
D03*
X928600D02*
D03*
X941593Y820770D02*
D03*
X944151D02*
D03*
X946711D02*
D03*
X918167Y855317D02*
D03*
X919348Y851380D02*
D03*
X1011511Y875888D02*
D03*
X917577Y843174D02*
D03*
M02*
