G04*
G04 #@! TF.GenerationSoftware,Altium Limited,Altium Designer,21.7.2 (23)*
G04*
G04 Layer_Color=8388736*
%FSLAX25Y25*%
%MOIN*%
G70*
G04*
G04 #@! TF.SameCoordinates,D8E768A5-1DCB-495D-BD04-48C81D0C3767*
G04*
G04*
G04 #@! TF.FilePolarity,Negative*
G04*
G01*
G75*
%ADD12C,0.00787*%
%ADD40R,0.10446X0.08674*%
%ADD41R,0.02375X0.02965*%
%ADD42R,0.02375X0.02375*%
%ADD43R,0.03162X0.03300*%
%ADD44R,0.03162X0.03556*%
G04:AMPARAMS|DCode=45|XSize=33mil|YSize=31.62mil|CornerRadius=0mil|HoleSize=0mil|Usage=FLASHONLY|Rotation=225.000|XOffset=0mil|YOffset=0mil|HoleType=Round|Shape=Rectangle|*
%AMROTATEDRECTD45*
4,1,4,0.00049,0.02285,0.02285,0.00049,-0.00049,-0.02285,-0.02285,-0.00049,0.00049,0.02285,0.0*
%
%ADD45ROTATEDRECTD45*%

G04:AMPARAMS|DCode=46|XSize=53mil|YSize=67.06mil|CornerRadius=0mil|HoleSize=0mil|Usage=FLASHONLY|Rotation=225.000|XOffset=0mil|YOffset=0mil|HoleType=Round|Shape=Rectangle|*
%AMROTATEDRECTD46*
4,1,4,-0.00497,0.04245,0.04245,-0.00497,0.00497,-0.04245,-0.04245,0.00497,-0.00497,0.04245,0.0*
%
%ADD46ROTATEDRECTD46*%

%ADD47R,0.02454X0.02965*%
%ADD48R,0.06706X0.05300*%
G04:AMPARAMS|DCode=49|XSize=41.47mil|YSize=17.84mil|CornerRadius=0mil|HoleSize=0mil|Usage=FLASHONLY|Rotation=45.000|XOffset=0mil|YOffset=0mil|HoleType=Round|Shape=Rectangle|*
%AMROTATEDRECTD49*
4,1,4,-0.00835,-0.02097,-0.02097,-0.00835,0.00835,0.02097,0.02097,0.00835,-0.00835,-0.02097,0.0*
%
%ADD49ROTATEDRECTD49*%

G04:AMPARAMS|DCode=50|XSize=41.47mil|YSize=17.84mil|CornerRadius=0mil|HoleSize=0mil|Usage=FLASHONLY|Rotation=135.000|XOffset=0mil|YOffset=0mil|HoleType=Round|Shape=Rectangle|*
%AMROTATEDRECTD50*
4,1,4,0.02097,-0.00835,0.00835,-0.02097,-0.02097,0.00835,-0.00835,0.02097,0.02097,-0.00835,0.0*
%
%ADD50ROTATEDRECTD50*%

%ADD51P,0.21175X4X180.0*%
%ADD52R,0.03300X0.03162*%
G04:AMPARAMS|DCode=53|XSize=27.56mil|YSize=23.62mil|CornerRadius=6.89mil|HoleSize=0mil|Usage=FLASHONLY|Rotation=0.000|XOffset=0mil|YOffset=0mil|HoleType=Round|Shape=RoundedRectangle|*
%AMROUNDEDRECTD53*
21,1,0.02756,0.00984,0,0,0.0*
21,1,0.01378,0.02362,0,0,0.0*
1,1,0.01378,0.00689,-0.00492*
1,1,0.01378,-0.00689,-0.00492*
1,1,0.01378,-0.00689,0.00492*
1,1,0.01378,0.00689,0.00492*
%
%ADD53ROUNDEDRECTD53*%
%ADD54R,0.02375X0.02375*%
%ADD55R,0.02965X0.02375*%
%ADD56R,0.08674X0.10446*%
%ADD57R,0.04737X0.02965*%
%ADD58R,0.04147X0.02178*%
%ADD59R,0.07493X0.10249*%
%ADD60R,0.14776X0.14776*%
%ADD61R,0.04147X0.01981*%
%ADD62R,0.01981X0.04147*%
%ADD63R,0.05300X0.06706*%
%ADD64R,0.12611X0.06509*%
%ADD65R,0.04737X0.03556*%
%ADD66C,0.19685*%
D12*
X1015287Y876185D02*
G03*
X1015249Y876266I-372J-129D01*
G01*
X1014780Y877011D02*
G03*
X1014725Y877081I-334J-208D01*
G01*
X1014780Y877013D02*
G03*
X1014725Y877081I-333J-209D01*
G01*
X1015287Y876187D02*
G03*
X1015248Y876267I-372J-130D01*
G01*
X1015699Y874348D02*
G03*
X1015696Y874393I-394J0D01*
G01*
X1015598Y875267D02*
G03*
X1015578Y875354I-391J-43D01*
G01*
X1015699Y874348D02*
G03*
X1015696Y874394I-394J0D01*
G01*
X1015598Y875269D02*
G03*
X1015578Y875356I-391J-44D01*
G01*
X1013287Y878228D02*
G03*
X1013206Y878267I-211J-333D01*
G01*
X1012374Y878558D02*
G03*
X1012288Y878578I-130J-372D01*
G01*
X1013286Y878229D02*
G03*
X1013206Y878267I-209J-333D01*
G01*
X1011412Y878677D02*
G03*
X1011368Y878679I-44J-391D01*
G01*
X1011412Y878677D02*
G03*
X1011368Y878679I-44J-391D01*
G01*
X1012374Y878558D02*
G03*
X1012288Y878578I-130J-372D01*
G01*
X1014101Y877705D02*
G03*
X1014032Y877760I-279J-279D01*
G01*
X1014101Y877705D02*
G03*
X1014031Y877761I-279J-279D01*
G01*
X1015696Y807375D02*
G03*
X1015699Y807419I-391J44D01*
G01*
X1015578Y806413D02*
G03*
X1015598Y806501I-372J130D01*
G01*
X1015696Y807374D02*
G03*
X1015699Y807419I-391J46D01*
G01*
X1015578Y806412D02*
G03*
X1015598Y806499I-371J131D01*
G01*
X1015249Y805502D02*
G03*
X1015287Y805582I-333J209D01*
G01*
X1015248Y805500D02*
G03*
X1015287Y805581I-333J211D01*
G01*
X1014725Y804686D02*
G03*
X1014780Y804756I-279J279D01*
G01*
X1014725Y804686D02*
G03*
X1014780Y804755I-279J279D01*
G01*
X1014032Y804008D02*
G03*
X1014101Y804063I-209J333D01*
G01*
X1014031Y804007D02*
G03*
X1014101Y804063I-208J334D01*
G01*
X1013206Y803500D02*
G03*
X1013286Y803539I-130J372D01*
G01*
X1013206Y803500D02*
G03*
X1013287Y803539I-130J372D01*
G01*
X1012288Y803190D02*
G03*
X1012374Y803209I-44J391D01*
G01*
X1012288Y803190D02*
G03*
X1012374Y803209I-44J391D01*
G01*
X1011368Y803088D02*
G03*
X1011412Y803091I0J394D01*
G01*
X1011368Y803088D02*
G03*
X1011412Y803091I0J394D01*
G01*
X899557Y878679D02*
G03*
X899513Y878677I0J-394D01*
G01*
X899557Y878679D02*
G03*
X899513Y878677I0J-394D01*
G01*
X898637Y878578D02*
G03*
X898551Y878558I44J-391D01*
G01*
X897719Y878267D02*
G03*
X897639Y878229I130J-372D01*
G01*
X898637Y878578D02*
G03*
X898551Y878558I44J-391D01*
G01*
X897719Y878267D02*
G03*
X897638Y878228I130J-372D01*
G01*
X896894Y877761D02*
G03*
X896824Y877705I208J-334D01*
G01*
X896893Y877760D02*
G03*
X896824Y877705I209J-333D01*
G01*
X896200Y877081D02*
G03*
X896146Y877013I279J-279D01*
G01*
X896200Y877081D02*
G03*
X896145Y877011I279J-279D01*
G01*
X895677Y876267D02*
G03*
X895638Y876187I333J-211D01*
G01*
X895677Y876266D02*
G03*
X895638Y876185I333J-209D01*
G01*
X895347Y875356D02*
G03*
X895327Y875269I371J-131D01*
G01*
X895347Y875354D02*
G03*
X895327Y875267I372J-130D01*
G01*
X895229Y874394D02*
G03*
X895226Y874348I391J-46D01*
G01*
X895229Y874393D02*
G03*
X895226Y874348I391J-44D01*
G01*
X898551Y803209D02*
G03*
X898637Y803190I130J372D01*
G01*
X897638Y803539D02*
G03*
X897719Y803500I211J333D01*
G01*
X896824Y804063D02*
G03*
X896893Y804008I279J279D01*
G01*
X896824Y804063D02*
G03*
X896894Y804007I279J279D01*
G01*
X899513Y803091D02*
G03*
X899557Y803088I44J391D01*
G01*
X899513Y803091D02*
G03*
X899557Y803088I44J391D01*
G01*
X897639Y803539D02*
G03*
X897719Y803500I209J333D01*
G01*
X898551Y803209D02*
G03*
X898637Y803190I130J372D01*
G01*
X895327Y806499D02*
G03*
X895347Y806412I391J44D01*
G01*
X895226Y807419D02*
G03*
X895229Y807375I394J0D01*
G01*
X895226Y807419D02*
G03*
X895229Y807374I394J0D01*
G01*
X895327Y806501D02*
G03*
X895347Y806413I391J43D01*
G01*
X896146Y804755D02*
G03*
X896200Y804686I333J209D01*
G01*
X895638Y805581D02*
G03*
X895677Y805500I372J130D01*
G01*
X895638Y805582D02*
G03*
X895677Y805502I372J129D01*
G01*
X896145Y804756D02*
G03*
X896200Y804686I334J208D01*
G01*
X1014780Y877013D02*
X1014780Y877011D01*
X1015248Y876267D01*
X1015249Y876266D01*
X1015287Y876187D02*
X1015287Y876185D01*
X1015578Y875356D01*
X1015578Y875354D01*
X1014101Y877705D02*
X1014725Y877081D01*
X1015598Y875269D02*
X1015598Y875267D01*
X1015696Y874394D01*
X1015696Y874393D01*
X1015699Y807419D02*
Y874348D01*
X1012374Y878558D02*
X1013206Y878267D01*
X1014031Y877761D02*
X1014032Y877760D01*
X1013287Y878228D02*
X1014031Y877761D01*
X1013286Y878229D02*
X1013287Y878228D01*
X1011412Y878677D02*
X1012288Y878578D01*
X1015696Y807374D02*
X1015696Y807375D01*
X1015598Y806501D02*
X1015696Y807374D01*
X1015598Y806499D02*
X1015598Y806501D01*
X1015578Y806412D02*
X1015578Y806413D01*
X1015287Y805582D02*
X1015578Y806412D01*
X1015287Y805581D02*
X1015287Y805582D01*
X1015248Y805500D02*
X1015249Y805502D01*
X1014780Y804756D02*
X1015248Y805500D01*
X1014780Y804755D02*
X1014780Y804756D01*
X1014101Y804063D02*
X1014725Y804686D01*
X1014031Y804007D02*
X1014032Y804008D01*
X1013287Y803539D02*
X1014031Y804007D01*
X1013286Y803539D02*
X1013287Y803539D01*
X1012374Y803209D02*
X1013206Y803500D01*
X1011412Y803091D02*
X1012288Y803190D01*
X899557Y878679D02*
X1011368D01*
X898637Y878578D02*
X899513Y878677D01*
X897719Y878267D02*
X898551Y878558D01*
X897638Y878228D02*
X897639Y878229D01*
X896894Y877761D02*
X897638Y878228D01*
X896893Y877760D02*
X896894Y877761D01*
X896200Y877081D02*
X896824Y877705D01*
X896145Y877011D02*
X896146Y877013D01*
X895677Y876267D02*
X896145Y877011D01*
X895677Y876266D02*
X895677Y876267D01*
X895638Y876185D02*
X895638Y876187D01*
X895347Y875356D02*
X895638Y876185D01*
X895347Y875354D02*
X895347Y875356D01*
X895327Y875267D02*
X895327Y875269D01*
X895229Y874394D02*
X895327Y875267D01*
X895229Y874393D02*
X895229Y874394D01*
X897638Y803539D02*
X897639Y803539D01*
X896894Y804007D02*
X897638Y803539D01*
X896893Y804008D02*
X896894Y804007D01*
X899557Y803088D02*
X1011368D01*
X897719Y803500D02*
X898551Y803209D01*
X898637Y803190D02*
X899513Y803091D01*
X895347Y806413D02*
X895347Y806412D01*
X895638Y805582D01*
X895638Y805581D01*
X895226Y807419D02*
Y874348D01*
X895229Y807375D02*
X895229Y807374D01*
X895327Y806501D01*
X895327Y806499D01*
X896200Y804686D02*
X896824Y804063D01*
X895677Y805502D02*
X895677Y805500D01*
X896145Y804756D01*
X896146Y804755D01*
D40*
X942872Y827955D02*
D03*
X988541Y816341D02*
D03*
X942872Y813978D02*
D03*
X924762Y814077D02*
D03*
X924762Y827955D02*
D03*
D41*
X946711Y834746D02*
D03*
X944151D02*
D03*
X941593D02*
D03*
X939033D02*
D03*
X992380Y809549D02*
D03*
X989821D02*
D03*
X987262D02*
D03*
X984703D02*
D03*
X939033Y820770D02*
D03*
X941593D02*
D03*
X944151D02*
D03*
X946711D02*
D03*
X928600Y820868D02*
D03*
X926041D02*
D03*
X923482D02*
D03*
X920923D02*
D03*
X928600Y834746D02*
D03*
X926041D02*
D03*
X923482D02*
D03*
X920923D02*
D03*
D42*
X946711Y823427D02*
D03*
X944151D02*
D03*
X941593D02*
D03*
X939033D02*
D03*
X992380Y820868D02*
D03*
X989821D02*
D03*
X987262D02*
D03*
X984703D02*
D03*
X939033Y809451D02*
D03*
X941593D02*
D03*
X944151D02*
D03*
X946711D02*
D03*
X928600Y809549D02*
D03*
X926041D02*
D03*
X923482D02*
D03*
X920923D02*
D03*
X928600Y823427D02*
D03*
X926041D02*
D03*
X923482D02*
D03*
X920923D02*
D03*
D43*
X963049Y835668D02*
D03*
Y831068D02*
D03*
X974959Y833208D02*
D03*
Y828607D02*
D03*
X968659Y863548D02*
D03*
Y868148D02*
D03*
X1001193Y849432D02*
D03*
Y844832D02*
D03*
X1013148Y825261D02*
D03*
Y829861D02*
D03*
X1009900Y825261D02*
D03*
Y829861D02*
D03*
X991986Y827131D02*
D03*
Y831731D02*
D03*
X971809Y863548D02*
D03*
Y868148D02*
D03*
X898679Y846422D02*
D03*
Y851022D02*
D03*
X917577Y847774D02*
D03*
Y843174D02*
D03*
X979585Y831829D02*
D03*
Y827229D02*
D03*
X1012163Y866698D02*
D03*
Y871298D02*
D03*
D44*
X969841Y832876D02*
D03*
Y828939D02*
D03*
X966691D02*
D03*
Y832876D02*
D03*
D45*
X965863Y845005D02*
D03*
X962611Y841752D02*
D03*
X919297Y851525D02*
D03*
X922550Y854778D02*
D03*
X922254Y865211D02*
D03*
X919001Y861958D02*
D03*
X921270Y858813D02*
D03*
X918017Y855561D02*
D03*
D46*
X957901Y846331D02*
D03*
X963276Y851705D02*
D03*
D47*
X975549Y868211D02*
D03*
Y861911D02*
D03*
D48*
X962951Y859883D02*
D03*
Y867483D02*
D03*
X912153Y874841D02*
D03*
Y867241D02*
D03*
D49*
X972302Y849452D02*
D03*
X973694Y848059D02*
D03*
X975086Y846668D02*
D03*
X976478Y845276D02*
D03*
X977869Y843884D02*
D03*
X979261Y842492D02*
D03*
X980653Y841100D02*
D03*
X982045Y839708D02*
D03*
X995686Y853349D02*
D03*
X994294Y854741D02*
D03*
X992902Y856133D02*
D03*
X991510Y857525D02*
D03*
X990119Y858917D02*
D03*
X988727Y860309D02*
D03*
X987335Y861701D02*
D03*
X985943Y863093D02*
D03*
D50*
Y839708D02*
D03*
X987335Y841100D02*
D03*
X988727Y842492D02*
D03*
X990119Y843884D02*
D03*
X991510Y845276D02*
D03*
X992902Y846668D02*
D03*
X994294Y848059D02*
D03*
X995686Y849452D02*
D03*
X982045Y863093D02*
D03*
X980653Y861701D02*
D03*
X979261Y860309D02*
D03*
X977869Y858917D02*
D03*
X976478Y857525D02*
D03*
X975086Y856133D02*
D03*
X973694Y854741D02*
D03*
X972302Y853349D02*
D03*
D51*
X983994Y851400D02*
D03*
D52*
X995566Y875888D02*
D03*
X990966D02*
D03*
X989230Y805514D02*
D03*
X993830D02*
D03*
X1001103Y827561D02*
D03*
X1005704D02*
D03*
X979818Y818801D02*
D03*
X975218D02*
D03*
X1012557Y845376D02*
D03*
X1007957D02*
D03*
X1012459Y849313D02*
D03*
X1007859D02*
D03*
X1011511Y875888D02*
D03*
X1006911D02*
D03*
X998938D02*
D03*
X1003538D02*
D03*
X982895Y830219D02*
D03*
X987495D02*
D03*
X983190Y827167D02*
D03*
X987790D02*
D03*
X962396Y872935D02*
D03*
X957796D02*
D03*
Y875986D02*
D03*
X962396D02*
D03*
X954030Y874510D02*
D03*
X949430D02*
D03*
Y871459D02*
D03*
X954030D02*
D03*
X931320Y876282D02*
D03*
X935920D02*
D03*
X921835Y874608D02*
D03*
X926435D02*
D03*
X921773Y870474D02*
D03*
X926373D02*
D03*
X927456Y847935D02*
D03*
X922855D02*
D03*
X1010133Y858565D02*
D03*
X1005533D02*
D03*
D53*
X975057Y822935D02*
D03*
X979781D02*
D03*
X985884Y805612D02*
D03*
X981159D02*
D03*
D54*
X965903Y814274D02*
D03*
Y811715D02*
D03*
Y809155D02*
D03*
Y806596D02*
D03*
D55*
X977222Y814274D02*
D03*
Y811715D02*
D03*
Y809155D02*
D03*
Y806596D02*
D03*
D56*
X970431Y810435D02*
D03*
D57*
X1004585Y838880D02*
D03*
Y833762D02*
D03*
X1012065Y836321D02*
D03*
D58*
X995923Y871754D02*
D03*
Y869195D02*
D03*
Y866636D02*
D03*
Y864077D02*
D03*
X1007734D02*
D03*
Y866636D02*
D03*
Y869195D02*
D03*
Y871754D02*
D03*
D59*
X1001829Y867915D02*
D03*
D60*
X937360Y859943D02*
D03*
D61*
X947006Y866833D02*
D03*
X947006Y864864D02*
D03*
Y862896D02*
D03*
Y860927D02*
D03*
Y858959D02*
D03*
Y856990D02*
D03*
Y855022D02*
D03*
Y853053D02*
D03*
X927715Y853053D02*
D03*
X927715Y855022D02*
D03*
Y856990D02*
D03*
Y858959D02*
D03*
Y860927D02*
D03*
Y862896D02*
D03*
Y864864D02*
D03*
Y866833D02*
D03*
D62*
X944250Y850297D02*
D03*
X942282Y850297D02*
D03*
X940313D02*
D03*
X938344D02*
D03*
X936376D02*
D03*
X934407D02*
D03*
X932439D02*
D03*
X930470D02*
D03*
X930470Y869589D02*
D03*
X932439Y869589D02*
D03*
X934407D02*
D03*
X936376D02*
D03*
X938344D02*
D03*
X940313D02*
D03*
X942282D02*
D03*
X944250D02*
D03*
D63*
X907499Y828447D02*
D03*
X899899D02*
D03*
X906318Y861026D02*
D03*
X898718D02*
D03*
X906318Y867719D02*
D03*
X898718D02*
D03*
D64*
X957537Y813978D02*
D03*
Y825789D02*
D03*
D65*
X902915Y846852D02*
D03*
Y850593D02*
D03*
Y854333D02*
D03*
X911569D02*
D03*
Y850593D02*
D03*
Y846852D02*
D03*
D66*
X905463Y813325D02*
D03*
X1005463D02*
D03*
M02*
