ISO-10303-21;
HEADER;
/* Generated by software containing ST-Developer
 * from STEP Tools, Inc. (www.steptools.com) 
 */

FILE_DESCRIPTION(
/* description */ (''),
/* implementation_level */ '2;1');

FILE_NAME(
/* name */ 'BearigHoldRight.stp',
/* time_stamp */ '2026-04-10T21:52:57+02:00',
/* author */ ('szymo'),
/* organization */ (''),
/* preprocessor_version */ 'ST-DEVELOPER v20.1',
/* originating_system */ 'Autodesk Inventor 2026',
/* authorisation */ '');

FILE_SCHEMA (('AUTOMOTIVE_DESIGN { 1 0 10303 214 3 1 1 }'));
ENDSEC;

DATA;
#10=MECHANICAL_DESIGN_GEOMETRIC_PRESENTATION_REPRESENTATION('',(#13),#689);
#11=SHAPE_REPRESENTATION_RELATIONSHIP('SRR','None',#696,#12);
#12=ADVANCED_BREP_SHAPE_REPRESENTATION('',(#14),#688);
#13=STYLED_ITEM('',(#705),#14);
#14=MANIFOLD_SOLID_BREP('Solid1',#392);
#15=LINE('',#585,#48);
#16=LINE('',#588,#49);
#17=LINE('',#599,#50);
#18=LINE('',#602,#51);
#19=LINE('',#613,#52);
#20=LINE('',#616,#53);
#21=LINE('',#619,#54);
#22=LINE('',#621,#55);
#23=LINE('',#622,#56);
#24=LINE('',#626,#57);
#25=LINE('',#627,#58);
#26=LINE('',#629,#59);
#27=LINE('',#635,#60);
#28=LINE('',#636,#61);
#29=LINE('',#639,#62);
#30=LINE('',#640,#63);
#31=LINE('',#643,#64);
#32=LINE('',#645,#65);
#33=LINE('',#648,#66);
#34=LINE('',#652,#67);
#35=LINE('',#654,#68);
#36=LINE('',#655,#69);
#37=LINE('',#656,#70);
#38=LINE('',#661,#71);
#39=LINE('',#663,#72);
#40=LINE('',#665,#73);
#41=LINE('',#671,#74);
#42=LINE('',#672,#75);
#43=LINE('',#673,#76);
#44=LINE('',#675,#77);
#45=LINE('',#678,#78);
#46=LINE('',#679,#79);
#47=LINE('',#681,#80);
#48=VECTOR('',#469,2.1);
#49=VECTOR('',#472,2.);
#50=VECTOR('',#487,2.1);
#51=VECTOR('',#490,2.);
#52=VECTOR('',#503,10.);
#53=VECTOR('',#506,10.);
#54=VECTOR('',#509,10.);
#55=VECTOR('',#510,10.);
#56=VECTOR('',#511,10.);
#57=VECTOR('',#514,10.);
#58=VECTOR('',#515,10.);
#59=VECTOR('',#516,10.);
#60=VECTOR('',#523,10.);
#61=VECTOR('',#524,10.);
#62=VECTOR('',#527,10.);
#63=VECTOR('',#528,10.);
#64=VECTOR('',#531,10.);
#65=VECTOR('',#532,10.);
#66=VECTOR('',#535,10.);
#67=VECTOR('',#538,10.);
#68=VECTOR('',#539,10.);
#69=VECTOR('',#540,10.);
#70=VECTOR('',#541,10.);
#71=VECTOR('',#546,10.);
#72=VECTOR('',#547,10.);
#73=VECTOR('',#548,10.);
#74=VECTOR('',#555,10.);
#75=VECTOR('',#556,10.);
#76=VECTOR('',#557,10.);
#77=VECTOR('',#560,10.);
#78=VECTOR('',#563,10.);
#79=VECTOR('',#564,10.);
#80=VECTOR('',#567,5.);
#81=CYLINDRICAL_SURFACE('',#418,2.1);
#82=CYLINDRICAL_SURFACE('',#420,2.);
#83=CYLINDRICAL_SURFACE('',#426,2.1);
#84=CYLINDRICAL_SURFACE('',#428,2.);
#85=CYLINDRICAL_SURFACE('',#433,14.4999999999998);
#86=CYLINDRICAL_SURFACE('',#439,14.4999999999999);
#87=CYLINDRICAL_SURFACE('',#452,5.);
#88=CYLINDRICAL_SURFACE('',#453,13.8499999999999);
#89=CYLINDRICAL_SURFACE('',#455,13.8499999999998);
#90=FACE_BOUND('',#120,.T.);
#91=FACE_BOUND('',#125,.T.);
#92=FACE_BOUND('',#138,.T.);
#93=FACE_BOUND('',#140,.T.);
#94=FACE_BOUND('',#141,.T.);
#95=FACE_OUTER_BOUND('',#119,.T.);
#96=FACE_OUTER_BOUND('',#121,.T.);
#97=FACE_OUTER_BOUND('',#122,.T.);
#98=FACE_OUTER_BOUND('',#123,.T.);
#99=FACE_OUTER_BOUND('',#124,.T.);
#100=FACE_OUTER_BOUND('',#126,.T.);
#101=FACE_OUTER_BOUND('',#127,.T.);
#102=FACE_OUTER_BOUND('',#128,.T.);
#103=FACE_OUTER_BOUND('',#129,.T.);
#104=FACE_OUTER_BOUND('',#130,.T.);
#105=FACE_OUTER_BOUND('',#131,.T.);
#106=FACE_OUTER_BOUND('',#132,.T.);
#107=FACE_OUTER_BOUND('',#133,.T.);
#108=FACE_OUTER_BOUND('',#134,.T.);
#109=FACE_OUTER_BOUND('',#135,.T.);
#110=FACE_OUTER_BOUND('',#136,.T.);
#111=FACE_OUTER_BOUND('',#137,.T.);
#112=FACE_OUTER_BOUND('',#139,.T.);
#113=FACE_OUTER_BOUND('',#142,.T.);
#114=FACE_OUTER_BOUND('',#143,.T.);
#115=FACE_OUTER_BOUND('',#144,.T.);
#116=FACE_OUTER_BOUND('',#145,.T.);
#117=FACE_OUTER_BOUND('',#146,.T.);
#118=FACE_OUTER_BOUND('',#147,.T.);
#119=EDGE_LOOP('',(#251));
#120=EDGE_LOOP('',(#252));
#121=EDGE_LOOP('',(#253,#254,#255,#256));
#122=EDGE_LOOP('',(#257,#258,#259,#260));
#123=EDGE_LOOP('',(#261));
#124=EDGE_LOOP('',(#262));
#125=EDGE_LOOP('',(#263));
#126=EDGE_LOOP('',(#264,#265,#266,#267));
#127=EDGE_LOOP('',(#268,#269,#270,#271));
#128=EDGE_LOOP('',(#272));
#129=EDGE_LOOP('',(#273));
#130=EDGE_LOOP('',(#274,#275,#276,#277));
#131=EDGE_LOOP('',(#278,#279,#280,#281));
#132=EDGE_LOOP('',(#282,#283,#284,#285,#286,#287));
#133=EDGE_LOOP('',(#288,#289,#290,#291));
#134=EDGE_LOOP('',(#292,#293,#294,#295));
#135=EDGE_LOOP('',(#296,#297,#298,#299,#300,#301));
#136=EDGE_LOOP('',(#302,#303,#304,#305,#306,#307,#308,#309));
#137=EDGE_LOOP('',(#310,#311,#312,#313,#314,#315));
#138=EDGE_LOOP('',(#316));
#139=EDGE_LOOP('',(#317,#318,#319,#320,#321,#322,#323,#324));
#140=EDGE_LOOP('',(#325));
#141=EDGE_LOOP('',(#326));
#142=EDGE_LOOP('',(#327,#328,#329,#330));
#143=EDGE_LOOP('',(#331,#332,#333,#334));
#144=EDGE_LOOP('',(#335,#336,#337,#338));
#145=EDGE_LOOP('',(#339,#340,#341,#342));
#146=EDGE_LOOP('',(#343,#344,#345,#346));
#147=EDGE_LOOP('',(#347,#348,#349,#350,#351,#352));
#148=CIRCLE('',#416,2.1);
#149=CIRCLE('',#417,2.);
#150=CIRCLE('',#419,2.1);
#151=CIRCLE('',#421,2.);
#152=CIRCLE('',#424,2.1);
#153=CIRCLE('',#425,2.);
#154=CIRCLE('',#427,2.1);
#155=CIRCLE('',#429,2.);
#156=CIRCLE('',#432,5.);
#157=CIRCLE('',#434,14.4999999999998);
#158=CIRCLE('',#435,14.4999999999998);
#159=CIRCLE('',#438,14.4999999999999);
#160=CIRCLE('',#440,14.4999999999999);
#161=CIRCLE('',#443,13.8499999999998);
#162=CIRCLE('',#446,13.8499999999998);
#163=CIRCLE('',#447,13.8499999999999);
#164=CIRCLE('',#448,5.);
#165=CIRCLE('',#454,13.8499999999999);
#166=VERTEX_POINT('',#578);
#167=VERTEX_POINT('',#580);
#168=VERTEX_POINT('',#583);
#169=VERTEX_POINT('',#587);
#170=VERTEX_POINT('',#592);
#171=VERTEX_POINT('',#594);
#172=VERTEX_POINT('',#597);
#173=VERTEX_POINT('',#601);
#174=VERTEX_POINT('',#606);
#175=VERTEX_POINT('',#609);
#176=VERTEX_POINT('',#610);
#177=VERTEX_POINT('',#612);
#178=VERTEX_POINT('',#614);
#179=VERTEX_POINT('',#618);
#180=VERTEX_POINT('',#620);
#181=VERTEX_POINT('',#624);
#182=VERTEX_POINT('',#625);
#183=VERTEX_POINT('',#628);
#184=VERTEX_POINT('',#632);
#185=VERTEX_POINT('',#633);
#186=VERTEX_POINT('',#638);
#187=VERTEX_POINT('',#642);
#188=VERTEX_POINT('',#644);
#189=VERTEX_POINT('',#646);
#190=VERTEX_POINT('',#650);
#191=VERTEX_POINT('',#651);
#192=VERTEX_POINT('',#653);
#193=VERTEX_POINT('',#658);
#194=VERTEX_POINT('',#660);
#195=VERTEX_POINT('',#662);
#196=VERTEX_POINT('',#664);
#197=VERTEX_POINT('',#667);
#198=VERTEX_POINT('',#670);
#199=VERTEX_POINT('',#677);
#200=EDGE_CURVE('',#166,#166,#148,.T.);
#201=EDGE_CURVE('',#167,#167,#149,.T.);
#202=EDGE_CURVE('',#168,#168,#150,.T.);
#203=EDGE_CURVE('',#168,#166,#15,.T.);
#204=EDGE_CURVE('',#167,#169,#16,.T.);
#205=EDGE_CURVE('',#169,#169,#151,.T.);
#206=EDGE_CURVE('',#170,#170,#152,.T.);
#207=EDGE_CURVE('',#171,#171,#153,.T.);
#208=EDGE_CURVE('',#172,#172,#154,.T.);
#209=EDGE_CURVE('',#172,#170,#17,.T.);
#210=EDGE_CURVE('',#171,#173,#18,.T.);
#211=EDGE_CURVE('',#173,#173,#155,.T.);
#212=EDGE_CURVE('',#174,#174,#156,.T.);
#213=EDGE_CURVE('',#175,#176,#157,.T.);
#214=EDGE_CURVE('',#175,#177,#19,.T.);
#215=EDGE_CURVE('',#178,#177,#158,.T.);
#216=EDGE_CURVE('',#176,#178,#20,.T.);
#217=EDGE_CURVE('',#176,#179,#21,.T.);
#218=EDGE_CURVE('',#180,#178,#22,.T.);
#219=EDGE_CURVE('',#179,#180,#23,.T.);
#220=EDGE_CURVE('',#181,#182,#24,.T.);
#221=EDGE_CURVE('',#182,#180,#25,.T.);
#222=EDGE_CURVE('',#177,#183,#26,.T.);
#223=EDGE_CURVE('',#183,#181,#159,.T.);
#224=EDGE_CURVE('',#184,#185,#160,.T.);
#225=EDGE_CURVE('',#184,#181,#27,.T.);
#226=EDGE_CURVE('',#185,#183,#28,.T.);
#227=EDGE_CURVE('',#186,#184,#29,.T.);
#228=EDGE_CURVE('',#186,#182,#30,.T.);
#229=EDGE_CURVE('',#179,#187,#31,.T.);
#230=EDGE_CURVE('',#187,#188,#32,.T.);
#231=EDGE_CURVE('',#188,#189,#161,.T.);
#232=EDGE_CURVE('',#189,#175,#33,.T.);
#233=EDGE_CURVE('',#190,#191,#34,.T.);
#234=EDGE_CURVE('',#190,#192,#35,.T.);
#235=EDGE_CURVE('',#185,#192,#36,.T.);
#236=EDGE_CURVE('',#191,#189,#37,.T.);
#237=EDGE_CURVE('',#191,#193,#162,.T.);
#238=EDGE_CURVE('',#193,#194,#38,.T.);
#239=EDGE_CURVE('',#194,#195,#39,.T.);
#240=EDGE_CURVE('',#195,#196,#40,.T.);
#241=EDGE_CURVE('',#196,#190,#163,.T.);
#242=EDGE_CURVE('',#197,#197,#164,.T.);
#243=EDGE_CURVE('',#198,#186,#41,.T.);
#244=EDGE_CURVE('',#195,#198,#42,.T.);
#245=EDGE_CURVE('',#194,#187,#43,.T.);
#246=EDGE_CURVE('',#193,#188,#44,.T.);
#247=EDGE_CURVE('',#199,#198,#45,.T.);
#248=EDGE_CURVE('',#196,#199,#46,.T.);
#249=EDGE_CURVE('',#174,#197,#47,.T.);
#250=EDGE_CURVE('',#192,#199,#165,.T.);
#251=ORIENTED_EDGE('',*,*,#200,.T.);
#252=ORIENTED_EDGE('',*,*,#201,.F.);
#253=ORIENTED_EDGE('',*,*,#202,.F.);
#254=ORIENTED_EDGE('',*,*,#203,.T.);
#255=ORIENTED_EDGE('',*,*,#200,.F.);
#256=ORIENTED_EDGE('',*,*,#203,.F.);
#257=ORIENTED_EDGE('',*,*,#201,.T.);
#258=ORIENTED_EDGE('',*,*,#204,.T.);
#259=ORIENTED_EDGE('',*,*,#205,.F.);
#260=ORIENTED_EDGE('',*,*,#204,.F.);
#261=ORIENTED_EDGE('',*,*,#205,.T.);
#262=ORIENTED_EDGE('',*,*,#206,.T.);
#263=ORIENTED_EDGE('',*,*,#207,.F.);
#264=ORIENTED_EDGE('',*,*,#208,.F.);
#265=ORIENTED_EDGE('',*,*,#209,.T.);
#266=ORIENTED_EDGE('',*,*,#206,.F.);
#267=ORIENTED_EDGE('',*,*,#209,.F.);
#268=ORIENTED_EDGE('',*,*,#207,.T.);
#269=ORIENTED_EDGE('',*,*,#210,.T.);
#270=ORIENTED_EDGE('',*,*,#211,.F.);
#271=ORIENTED_EDGE('',*,*,#210,.F.);
#272=ORIENTED_EDGE('',*,*,#211,.T.);
#273=ORIENTED_EDGE('',*,*,#212,.T.);
#274=ORIENTED_EDGE('',*,*,#213,.F.);
#275=ORIENTED_EDGE('',*,*,#214,.T.);
#276=ORIENTED_EDGE('',*,*,#215,.F.);
#277=ORIENTED_EDGE('',*,*,#216,.F.);
#278=ORIENTED_EDGE('',*,*,#217,.F.);
#279=ORIENTED_EDGE('',*,*,#216,.T.);
#280=ORIENTED_EDGE('',*,*,#218,.F.);
#281=ORIENTED_EDGE('',*,*,#219,.F.);
#282=ORIENTED_EDGE('',*,*,#220,.T.);
#283=ORIENTED_EDGE('',*,*,#221,.T.);
#284=ORIENTED_EDGE('',*,*,#218,.T.);
#285=ORIENTED_EDGE('',*,*,#215,.T.);
#286=ORIENTED_EDGE('',*,*,#222,.T.);
#287=ORIENTED_EDGE('',*,*,#223,.T.);
#288=ORIENTED_EDGE('',*,*,#224,.F.);
#289=ORIENTED_EDGE('',*,*,#225,.T.);
#290=ORIENTED_EDGE('',*,*,#223,.F.);
#291=ORIENTED_EDGE('',*,*,#226,.F.);
#292=ORIENTED_EDGE('',*,*,#227,.F.);
#293=ORIENTED_EDGE('',*,*,#228,.T.);
#294=ORIENTED_EDGE('',*,*,#220,.F.);
#295=ORIENTED_EDGE('',*,*,#225,.F.);
#296=ORIENTED_EDGE('',*,*,#217,.T.);
#297=ORIENTED_EDGE('',*,*,#229,.T.);
#298=ORIENTED_EDGE('',*,*,#230,.T.);
#299=ORIENTED_EDGE('',*,*,#231,.T.);
#300=ORIENTED_EDGE('',*,*,#232,.T.);
#301=ORIENTED_EDGE('',*,*,#213,.T.);
#302=ORIENTED_EDGE('',*,*,#233,.F.);
#303=ORIENTED_EDGE('',*,*,#234,.T.);
#304=ORIENTED_EDGE('',*,*,#235,.F.);
#305=ORIENTED_EDGE('',*,*,#226,.T.);
#306=ORIENTED_EDGE('',*,*,#222,.F.);
#307=ORIENTED_EDGE('',*,*,#214,.F.);
#308=ORIENTED_EDGE('',*,*,#232,.F.);
#309=ORIENTED_EDGE('',*,*,#236,.F.);
#310=ORIENTED_EDGE('',*,*,#233,.T.);
#311=ORIENTED_EDGE('',*,*,#237,.T.);
#312=ORIENTED_EDGE('',*,*,#238,.T.);
#313=ORIENTED_EDGE('',*,*,#239,.T.);
#314=ORIENTED_EDGE('',*,*,#240,.T.);
#315=ORIENTED_EDGE('',*,*,#241,.T.);
#316=ORIENTED_EDGE('',*,*,#242,.T.);
#317=ORIENTED_EDGE('',*,*,#243,.F.);
#318=ORIENTED_EDGE('',*,*,#244,.F.);
#319=ORIENTED_EDGE('',*,*,#239,.F.);
#320=ORIENTED_EDGE('',*,*,#245,.T.);
#321=ORIENTED_EDGE('',*,*,#229,.F.);
#322=ORIENTED_EDGE('',*,*,#219,.T.);
#323=ORIENTED_EDGE('',*,*,#221,.F.);
#324=ORIENTED_EDGE('',*,*,#228,.F.);
#325=ORIENTED_EDGE('',*,*,#202,.T.);
#326=ORIENTED_EDGE('',*,*,#208,.T.);
#327=ORIENTED_EDGE('',*,*,#245,.F.);
#328=ORIENTED_EDGE('',*,*,#238,.F.);
#329=ORIENTED_EDGE('',*,*,#246,.T.);
#330=ORIENTED_EDGE('',*,*,#230,.F.);
#331=ORIENTED_EDGE('',*,*,#247,.F.);
#332=ORIENTED_EDGE('',*,*,#248,.F.);
#333=ORIENTED_EDGE('',*,*,#240,.F.);
#334=ORIENTED_EDGE('',*,*,#244,.T.);
#335=ORIENTED_EDGE('',*,*,#212,.F.);
#336=ORIENTED_EDGE('',*,*,#249,.T.);
#337=ORIENTED_EDGE('',*,*,#242,.F.);
#338=ORIENTED_EDGE('',*,*,#249,.F.);
#339=ORIENTED_EDGE('',*,*,#250,.F.);
#340=ORIENTED_EDGE('',*,*,#234,.F.);
#341=ORIENTED_EDGE('',*,*,#241,.F.);
#342=ORIENTED_EDGE('',*,*,#248,.T.);
#343=ORIENTED_EDGE('',*,*,#246,.F.);
#344=ORIENTED_EDGE('',*,*,#237,.F.);
#345=ORIENTED_EDGE('',*,*,#236,.T.);
#346=ORIENTED_EDGE('',*,*,#231,.F.);
#347=ORIENTED_EDGE('',*,*,#224,.T.);
#348=ORIENTED_EDGE('',*,*,#235,.T.);
#349=ORIENTED_EDGE('',*,*,#250,.T.);
#350=ORIENTED_EDGE('',*,*,#247,.T.);
#351=ORIENTED_EDGE('',*,*,#243,.T.);
#352=ORIENTED_EDGE('',*,*,#227,.T.);
#353=PLANE('',#415);
#354=PLANE('',#422);
#355=PLANE('',#423);
#356=PLANE('',#430);
#357=PLANE('',#431);
#358=PLANE('',#436);
#359=PLANE('',#437);
#360=PLANE('',#441);
#361=PLANE('',#442);
#362=PLANE('',#444);
#363=PLANE('',#445);
#364=PLANE('',#449);
#365=PLANE('',#450);
#366=PLANE('',#451);
#367=PLANE('',#456);
#368=ADVANCED_FACE('',(#95,#90),#353,.T.);
#369=ADVANCED_FACE('',(#96),#81,.F.);
#370=ADVANCED_FACE('',(#97),#82,.F.);
#371=ADVANCED_FACE('',(#98),#354,.T.);
#372=ADVANCED_FACE('',(#99,#91),#355,.T.);
#373=ADVANCED_FACE('',(#100),#83,.F.);
#374=ADVANCED_FACE('',(#101),#84,.F.);
#375=ADVANCED_FACE('',(#102),#356,.T.);
#376=ADVANCED_FACE('',(#103),#357,.F.);
#377=ADVANCED_FACE('',(#104),#85,.F.);
#378=ADVANCED_FACE('',(#105),#358,.T.);
#379=ADVANCED_FACE('',(#106),#359,.T.);
#380=ADVANCED_FACE('',(#107),#86,.F.);
#381=ADVANCED_FACE('',(#108),#360,.T.);
#382=ADVANCED_FACE('',(#109),#361,.F.);
#383=ADVANCED_FACE('',(#110),#362,.T.);
#384=ADVANCED_FACE('',(#111,#92),#363,.T.);
#385=ADVANCED_FACE('',(#112,#93,#94),#364,.T.);
#386=ADVANCED_FACE('',(#113),#365,.T.);
#387=ADVANCED_FACE('',(#114),#366,.T.);
#388=ADVANCED_FACE('',(#115),#87,.F.);
#389=ADVANCED_FACE('',(#116),#88,.F.);
#390=ADVANCED_FACE('',(#117),#89,.F.);
#391=ADVANCED_FACE('',(#118),#367,.F.);
#392=CLOSED_SHELL('',(#368,#369,#370,#371,#372,#373,#374,#375,#376,#377,
#378,#379,#380,#381,#382,#383,#384,#385,#386,#387,#388,#389,#390,#391));
#393=DERIVED_UNIT_ELEMENT(#396,1.);
#394=DERIVED_UNIT_ELEMENT(#691,-3.);
#395=DIMENSIONAL_EXPONENTS(0.,1.,0.,0.,0.,0.,0.);
#396=(
CONVERSION_BASED_UNIT('gram',#398)
MASS_UNIT()
NAMED_UNIT(#395)
);
#397=(
MASS_UNIT()
NAMED_UNIT(*)
SI_UNIT(.KILO.,.GRAM.)
);
#398=MASS_MEASURE_WITH_UNIT(MASS_MEASURE(0.001),#397);
#399=DERIVED_UNIT((#393,#394));
#400=MEASURE_REPRESENTATION_ITEM('density measure',
POSITIVE_RATIO_MEASURE(1.),#399);
#401=PROPERTY_DEFINITION_REPRESENTATION(#406,#403);
#402=PROPERTY_DEFINITION_REPRESENTATION(#407,#404);
#403=REPRESENTATION('material name',(#405),#688);
#404=REPRESENTATION('density',(#400),#688);
#405=DESCRIPTIVE_REPRESENTATION_ITEM('Generic','Generic');
#406=PROPERTY_DEFINITION('material property','material name',#698);
#407=PROPERTY_DEFINITION('material property','density of part',#698);
#408=DATE_TIME_ROLE('creation_date');
#409=APPLIED_DATE_AND_TIME_ASSIGNMENT(#410,#408,(#698));
#410=DATE_AND_TIME(#411,#412);
#411=CALENDAR_DATE(2026,4,4);
#412=LOCAL_TIME(0,0,0.,#413);
#413=COORDINATED_UNIVERSAL_TIME_OFFSET(0,0,.BEHIND.);
#414=AXIS2_PLACEMENT_3D('',#576,#457,#458);
#415=AXIS2_PLACEMENT_3D('',#577,#459,#460);
#416=AXIS2_PLACEMENT_3D('',#579,#461,#462);
#417=AXIS2_PLACEMENT_3D('',#581,#463,#464);
#418=AXIS2_PLACEMENT_3D('',#582,#465,#466);
#419=AXIS2_PLACEMENT_3D('',#584,#467,#468);
#420=AXIS2_PLACEMENT_3D('',#586,#470,#471);
#421=AXIS2_PLACEMENT_3D('',#589,#473,#474);
#422=AXIS2_PLACEMENT_3D('',#590,#475,#476);
#423=AXIS2_PLACEMENT_3D('',#591,#477,#478);
#424=AXIS2_PLACEMENT_3D('',#593,#479,#480);
#425=AXIS2_PLACEMENT_3D('',#595,#481,#482);
#426=AXIS2_PLACEMENT_3D('',#596,#483,#484);
#427=AXIS2_PLACEMENT_3D('',#598,#485,#486);
#428=AXIS2_PLACEMENT_3D('',#600,#488,#489);
#429=AXIS2_PLACEMENT_3D('',#603,#491,#492);
#430=AXIS2_PLACEMENT_3D('',#604,#493,#494);
#431=AXIS2_PLACEMENT_3D('',#605,#495,#496);
#432=AXIS2_PLACEMENT_3D('',#607,#497,#498);
#433=AXIS2_PLACEMENT_3D('',#608,#499,#500);
#434=AXIS2_PLACEMENT_3D('',#611,#501,#502);
#435=AXIS2_PLACEMENT_3D('',#615,#504,#505);
#436=AXIS2_PLACEMENT_3D('',#617,#507,#508);
#437=AXIS2_PLACEMENT_3D('',#623,#512,#513);
#438=AXIS2_PLACEMENT_3D('',#630,#517,#518);
#439=AXIS2_PLACEMENT_3D('',#631,#519,#520);
#440=AXIS2_PLACEMENT_3D('',#634,#521,#522);
#441=AXIS2_PLACEMENT_3D('',#637,#525,#526);
#442=AXIS2_PLACEMENT_3D('',#641,#529,#530);
#443=AXIS2_PLACEMENT_3D('',#647,#533,#534);
#444=AXIS2_PLACEMENT_3D('',#649,#536,#537);
#445=AXIS2_PLACEMENT_3D('',#657,#542,#543);
#446=AXIS2_PLACEMENT_3D('',#659,#544,#545);
#447=AXIS2_PLACEMENT_3D('',#666,#549,#550);
#448=AXIS2_PLACEMENT_3D('',#668,#551,#552);
#449=AXIS2_PLACEMENT_3D('',#669,#553,#554);
#450=AXIS2_PLACEMENT_3D('',#674,#558,#559);
#451=AXIS2_PLACEMENT_3D('',#676,#561,#562);
#452=AXIS2_PLACEMENT_3D('',#680,#565,#566);
#453=AXIS2_PLACEMENT_3D('',#682,#568,#569);
#454=AXIS2_PLACEMENT_3D('',#683,#570,#571);
#455=AXIS2_PLACEMENT_3D('',#684,#572,#573);
#456=AXIS2_PLACEMENT_3D('',#685,#574,#575);
#457=DIRECTION('axis',(0.,0.,1.));
#458=DIRECTION('refdir',(1.,0.,0.));
#459=DIRECTION('center_axis',(1.,3.06554118739782E-16,0.));
#460=DIRECTION('ref_axis',(0.,0.,-1.));
#461=DIRECTION('center_axis',(1.,3.06554118739782E-16,0.));
#462=DIRECTION('ref_axis',(0.,0.,-1.));
#463=DIRECTION('center_axis',(1.,3.06554118739782E-16,0.));
#464=DIRECTION('ref_axis',(0.,0.,-1.));
#465=DIRECTION('center_axis',(1.,3.06554118739782E-16,0.));
#466=DIRECTION('ref_axis',(0.,0.,-1.));
#467=DIRECTION('center_axis',(-1.,-3.06554118739782E-16,0.));
#468=DIRECTION('ref_axis',(0.,0.,-1.));
#469=DIRECTION('',(-1.,-3.06554118739782E-16,0.));
#470=DIRECTION('center_axis',(1.,3.06554118739782E-16,0.));
#471=DIRECTION('ref_axis',(0.,0.,-1.));
#472=DIRECTION('',(-1.,-3.06554118739782E-16,0.));
#473=DIRECTION('center_axis',(1.,3.06554118739782E-16,0.));
#474=DIRECTION('ref_axis',(0.,0.,-1.));
#475=DIRECTION('center_axis',(1.,3.06554118739782E-16,0.));
#476=DIRECTION('ref_axis',(0.,0.,-1.));
#477=DIRECTION('center_axis',(1.,3.06554118739782E-16,0.));
#478=DIRECTION('ref_axis',(0.,0.,-1.));
#479=DIRECTION('center_axis',(1.,3.06554118739782E-16,0.));
#480=DIRECTION('ref_axis',(0.,0.,-1.));
#481=DIRECTION('center_axis',(1.,3.06554118739782E-16,0.));
#482=DIRECTION('ref_axis',(0.,0.,-1.));
#483=DIRECTION('center_axis',(1.,3.06554118739782E-16,0.));
#484=DIRECTION('ref_axis',(0.,0.,-1.));
#485=DIRECTION('center_axis',(-1.,-3.06554118739782E-16,0.));
#486=DIRECTION('ref_axis',(0.,0.,-1.));
#487=DIRECTION('',(-1.,-3.06554118739782E-16,0.));
#488=DIRECTION('center_axis',(1.,3.06554118739782E-16,0.));
#489=DIRECTION('ref_axis',(0.,0.,-1.));
#490=DIRECTION('',(-1.,-3.06554118739782E-16,0.));
#491=DIRECTION('center_axis',(1.,3.06554118739782E-16,0.));
#492=DIRECTION('ref_axis',(0.,0.,-1.));
#493=DIRECTION('center_axis',(1.,3.06554118739782E-16,0.));
#494=DIRECTION('ref_axis',(0.,0.,-1.));
#495=DIRECTION('center_axis',(0.,0.,-1.));
#496=DIRECTION('ref_axis',(-1.,0.,0.));
#497=DIRECTION('center_axis',(0.,0.,1.));
#498=DIRECTION('ref_axis',(-1.,0.,0.));
#499=DIRECTION('center_axis',(0.,0.,-1.));
#500=DIRECTION('ref_axis',(1.,0.,0.));
#501=DIRECTION('center_axis',(0.,0.,-1.));
#502=DIRECTION('ref_axis',(1.,0.,0.));
#503=DIRECTION('',(0.,0.,-1.));
#504=DIRECTION('center_axis',(0.,0.,1.));
#505=DIRECTION('ref_axis',(1.,0.,0.));
#506=DIRECTION('',(0.,0.,-1.));
#507=DIRECTION('center_axis',(3.55271367880158E-16,-1.,0.));
#508=DIRECTION('ref_axis',(-1.,-3.55271367880158E-16,0.));
#509=DIRECTION('',(1.,3.55271367880158E-16,0.));
#510=DIRECTION('',(-1.,-3.55271367880158E-16,0.));
#511=DIRECTION('',(0.,0.,-1.));
#512=DIRECTION('center_axis',(0.,0.,-1.));
#513=DIRECTION('ref_axis',(-1.,0.,0.));
#514=DIRECTION('',(1.,0.,0.));
#515=DIRECTION('',(3.12215199070183E-16,-1.,0.));
#516=DIRECTION('',(-3.19184997014533E-16,1.,0.));
#517=DIRECTION('center_axis',(0.,0.,1.));
#518=DIRECTION('ref_axis',(3.52208683674189E-15,1.,0.));
#519=DIRECTION('center_axis',(0.,0.,-1.));
#520=DIRECTION('ref_axis',(-1.,0.,0.));
#521=DIRECTION('center_axis',(6.07254368409315E-15,5.51647984074715E-16,
-1.));
#522=DIRECTION('ref_axis',(-1.,0.,0.));
#523=DIRECTION('',(0.,0.,-1.));
#524=DIRECTION('',(0.,0.,-1.));
#525=DIRECTION('center_axis',(0.,1.,0.));
#526=DIRECTION('ref_axis',(1.,0.,0.));
#527=DIRECTION('',(-1.,0.,-6.07254368409315E-15));
#528=DIRECTION('',(0.,0.,-1.));
#529=DIRECTION('center_axis',(0.,0.,1.));
#530=DIRECTION('ref_axis',(1.,0.,0.));
#531=DIRECTION('',(3.06554118739782E-16,-1.,0.));
#532=DIRECTION('',(-1.,0.,0.));
#533=DIRECTION('center_axis',(0.,0.,1.));
#534=DIRECTION('ref_axis',(-1.,0.,0.));
#535=DIRECTION('',(-2.98268872287355E-16,1.,0.));
#536=DIRECTION('center_axis',(-1.,-2.98268872287355E-16,0.));
#537=DIRECTION('ref_axis',(-2.98268872287355E-16,1.,0.));
#538=DIRECTION('',(2.98268872287355E-16,-1.,0.));
#539=DIRECTION('',(0.,0.,-1.));
#540=DIRECTION('',(-2.98268872287355E-16,1.,5.51647984074713E-16));
#541=DIRECTION('',(0.,0.,-1.));
#542=DIRECTION('center_axis',(0.,0.,1.));
#543=DIRECTION('ref_axis',(1.,0.,0.));
#544=DIRECTION('center_axis',(0.,0.,-1.));
#545=DIRECTION('ref_axis',(-1.,0.,0.));
#546=DIRECTION('',(1.,0.,0.));
#547=DIRECTION('',(-3.06554118739782E-16,1.,0.));
#548=DIRECTION('',(-1.,0.,0.));
#549=DIRECTION('center_axis',(0.,0.,-1.));
#550=DIRECTION('ref_axis',(-1.,0.,0.));
#551=DIRECTION('center_axis',(0.,0.,-1.));
#552=DIRECTION('ref_axis',(-1.,0.,0.));
#553=DIRECTION('center_axis',(1.,3.06554118739782E-16,0.));
#554=DIRECTION('ref_axis',(3.06554118739782E-16,-1.,0.));
#555=DIRECTION('',(3.06554118739782E-16,-1.,-5.51647984074713E-16));
#556=DIRECTION('',(0.,0.,-1.));
#557=DIRECTION('',(0.,0.,-1.));
#558=DIRECTION('center_axis',(0.,-1.,0.));
#559=DIRECTION('ref_axis',(-1.,0.,0.));
#560=DIRECTION('',(0.,0.,-1.));
#561=DIRECTION('center_axis',(0.,1.,0.));
#562=DIRECTION('ref_axis',(1.,0.,0.));
#563=DIRECTION('',(1.,0.,6.07254368409315E-15));
#564=DIRECTION('',(0.,0.,-1.));
#565=DIRECTION('center_axis',(0.,0.,-1.));
#566=DIRECTION('ref_axis',(-1.,0.,0.));
#567=DIRECTION('',(0.,0.,1.));
#568=DIRECTION('center_axis',(0.,0.,-1.));
#569=DIRECTION('ref_axis',(-1.,0.,0.));
#570=DIRECTION('center_axis',(-6.07254368409315E-15,-5.51647984074715E-16,
1.));
#571=DIRECTION('ref_axis',(-1.,0.,0.));
#572=DIRECTION('center_axis',(0.,0.,-1.));
#573=DIRECTION('ref_axis',(-1.,0.,0.));
#574=DIRECTION('center_axis',(-6.07254368409315E-15,-5.51647984074715E-16,
1.));
#575=DIRECTION('ref_axis',(1.,0.,6.07254368409315E-15));
#576=CARTESIAN_POINT('',(0.,0.,0.));
#577=CARTESIAN_POINT('Origin',(-2.99999999999999,31.6239601385197,-2.2));
#578=CARTESIAN_POINT('',(-2.99999999999999,31.6239601385197,-0.1));
#579=CARTESIAN_POINT('Origin',(-2.99999999999999,31.6239601385197,-2.2));
#580=CARTESIAN_POINT('',(-2.99999999999999,31.6239601385197,-0.2));
#581=CARTESIAN_POINT('Origin',(-2.99999999999999,31.6239601385197,-2.2));
#582=CARTESIAN_POINT('Origin',(-2.49999999999999,31.6239601385197,-2.2));
#583=CARTESIAN_POINT('',(-1.99999999999999,31.6239601385197,-0.1));
#584=CARTESIAN_POINT('Origin',(-1.99999999999999,31.6239601385197,-2.2));
#585=CARTESIAN_POINT('',(-2.49999999999999,31.6239601385197,-0.1));
#586=CARTESIAN_POINT('Origin',(-4.74999999999999,31.6239601385197,-2.2));
#587=CARTESIAN_POINT('',(-7.49999999999999,31.6239601385197,-0.2));
#588=CARTESIAN_POINT('',(-4.74999999999999,31.6239601385197,-0.2));
#589=CARTESIAN_POINT('Origin',(-7.49999999999999,31.6239601385197,-2.2));
#590=CARTESIAN_POINT('Origin',(-7.49999999999999,31.6239601385197,-2.2));
#591=CARTESIAN_POINT('Origin',(-2.99999999999999,38.1718804155601,-2.2));
#592=CARTESIAN_POINT('',(-2.99999999999999,38.1718804155601,-0.0999999999999998));
#593=CARTESIAN_POINT('Origin',(-2.99999999999999,38.1718804155601,-2.2));
#594=CARTESIAN_POINT('',(-2.99999999999999,38.1718804155601,-0.2));
#595=CARTESIAN_POINT('Origin',(-2.99999999999999,38.1718804155601,-2.2));
#596=CARTESIAN_POINT('Origin',(-2.49999999999999,38.1718804155601,-2.2));
#597=CARTESIAN_POINT('',(-1.99999999999999,38.1718804155601,-0.0999999999999998));
#598=CARTESIAN_POINT('Origin',(-1.99999999999999,38.1718804155601,-2.2));
#599=CARTESIAN_POINT('',(-2.49999999999999,38.1718804155601,-0.0999999999999998));
#600=CARTESIAN_POINT('Origin',(-4.74999999999999,38.1718804155601,-2.2));
#601=CARTESIAN_POINT('',(-7.49999999999999,38.1718804155601,-0.2));
#602=CARTESIAN_POINT('',(-4.74999999999999,38.1718804155601,-0.2));
#603=CARTESIAN_POINT('Origin',(-7.49999999999999,38.1718804155601,-2.2));
#604=CARTESIAN_POINT('Origin',(-7.49999999999999,38.1718804155601,-2.2));
#605=CARTESIAN_POINT('Origin',(-10.5,34.8979202770392,-3.8));
#606=CARTESIAN_POINT('',(-7.99999999999995,35.0011984039955,-3.8));
#607=CARTESIAN_POINT('Origin',(-12.9999999999999,35.0011984039955,-3.8));
#608=CARTESIAN_POINT('Origin',(-14.4999999999962,14.4999999999996,-3.8));
#609=CARTESIAN_POINT('',(-18.9999999999999,28.2840487520883,-3.8));
#610=CARTESIAN_POINT('',(-14.4999999999962,28.9999999999993,-3.8));
#611=CARTESIAN_POINT('Origin',(-14.4999999999962,14.4999999999996,-3.8));
#612=CARTESIAN_POINT('',(-18.9999999999999,28.2840487520883,-4.4));
#613=CARTESIAN_POINT('',(-18.9999999999999,28.2840487520883,-3.8));
#614=CARTESIAN_POINT('',(-14.4999999999962,28.9999999999993,-4.4));
#615=CARTESIAN_POINT('Origin',(-14.4999999999962,14.4999999999996,-4.4));
#616=CARTESIAN_POINT('',(-14.4999999999962,28.9999999999993,-3.8));
#617=CARTESIAN_POINT('Origin',(-1.99999999999998,28.9999999999994,-3.8));
#618=CARTESIAN_POINT('',(-1.99999999999998,28.9999999999994,-3.8));
#619=CARTESIAN_POINT('',(-6.24999999999997,28.9999999999993,-3.8));
#620=CARTESIAN_POINT('',(-1.99999999999998,28.9999999999994,-4.4));
#621=CARTESIAN_POINT('',(-1.99999999999998,28.9999999999994,-4.4));
#622=CARTESIAN_POINT('',(-1.99999999999998,28.9999999999994,-3.8));
#623=CARTESIAN_POINT('Origin',(-10.5,34.8979202770392,-4.4));
#624=CARTESIAN_POINT('',(-14.4999999999999,40.7958405540803,-4.4));
#625=CARTESIAN_POINT('',(-1.99999999999999,40.7958405540803,-4.4));
#626=CARTESIAN_POINT('',(-14.4999999999999,40.7958405540803,-4.4));
#627=CARTESIAN_POINT('',(-1.99999999999999,40.7958405540803,-4.4));
#628=CARTESIAN_POINT('',(-18.9999999999999,41.5117918019901,-4.4));
#629=CARTESIAN_POINT('',(-18.9999999999999,27.5985686240899,-4.4));
#630=CARTESIAN_POINT('Origin',(-14.4999999999999,55.2958405540802,-4.4));
#631=CARTESIAN_POINT('Origin',(-14.4999999999999,55.2958405540802,0.));
#632=CARTESIAN_POINT('',(-14.4999999999999,40.7958405540803,-3.40000000000487));
#633=CARTESIAN_POINT('',(-19.,41.5117918019901,-3.4000000000049));
#634=CARTESIAN_POINT('Origin',(-14.4999999999999,55.2958405540802,-3.40000000000485));
#635=CARTESIAN_POINT('',(-14.4999999999999,40.7958405540803,0.));
#636=CARTESIAN_POINT('',(-18.9999999999999,41.5117918019901,0.));
#637=CARTESIAN_POINT('Origin',(-14.4999999999999,40.7958405540803,0.));
#638=CARTESIAN_POINT('',(-1.99999999999999,40.7958405540803,-3.4000000000048));
#639=CARTESIAN_POINT('',(-12.4999999999999,40.7958405540803,-3.40000000000486));
#640=CARTESIAN_POINT('',(-1.99999999999999,40.7958405540803,0.));
#641=CARTESIAN_POINT('Origin',(-10.5,34.55518021304,-3.8));
#642=CARTESIAN_POINT('',(-1.99999999999998,28.3499999999997,-3.8));
#643=CARTESIAN_POINT('',(-1.99999999999998,-1.70415944591976,-3.8));
#644=CARTESIAN_POINT('',(-14.4999999999999,28.3499999999997,-3.8));
#645=CARTESIAN_POINT('',(-14.4999999999999,28.3499999999997,-3.8));
#646=CARTESIAN_POINT('',(-18.9999999999999,27.5985686240899,-3.8));
#647=CARTESIAN_POINT('Origin',(-14.4999999999999,14.4999999999999,-3.8));
#648=CARTESIAN_POINT('',(-19.,65.2958405540802,-3.8));
#649=CARTESIAN_POINT('Origin',(-18.9999999999999,27.5985686240899,0.));
#650=CARTESIAN_POINT('',(-18.9999999999999,42.1972719299901,0.));
#651=CARTESIAN_POINT('',(-18.9999999999999,27.5985686240899,0.));
#652=CARTESIAN_POINT('',(-19.,65.2958405540802,0.));
#653=CARTESIAN_POINT('',(-18.9999999999999,42.1972719299901,-3.4000000000049));
#654=CARTESIAN_POINT('',(-18.9999999999999,42.1972719299901,0.));
#655=CARTESIAN_POINT('',(-18.9999999999999,31.2482444505649,-3.40000000000491));
#656=CARTESIAN_POINT('',(-18.9999999999999,27.5985686240899,0.));
#657=CARTESIAN_POINT('Origin',(-10.5,34.89792027704,0.));
#658=CARTESIAN_POINT('',(-14.4999999999999,28.3499999999997,0.));
#659=CARTESIAN_POINT('Origin',(-14.4999999999999,14.4999999999999,0.));
#660=CARTESIAN_POINT('',(-1.99999999999998,28.3499999999997,0.));
#661=CARTESIAN_POINT('',(-14.4999999999999,28.3499999999997,0.));
#662=CARTESIAN_POINT('',(-1.99999999999999,41.4458405540803,0.));
#663=CARTESIAN_POINT('',(-1.99999999999998,-1.70415944591976,0.));
#664=CARTESIAN_POINT('',(-14.4999999999999,41.4458405540803,0.));
#665=CARTESIAN_POINT('',(-1.99999999999999,41.4458405540803,0.));
#666=CARTESIAN_POINT('Origin',(-14.4999999999999,55.2958405540802,0.));
#667=CARTESIAN_POINT('',(-7.99999999999995,35.0011984039955,0.));
#668=CARTESIAN_POINT('Origin',(-12.9999999999999,35.0011984039955,0.));
#669=CARTESIAN_POINT('Origin',(-1.99999999999999,41.4458405540803,0.));
#670=CARTESIAN_POINT('',(-1.99999999999999,41.4458405540803,-3.4000000000048));
#671=CARTESIAN_POINT('',(-1.99999999999999,38.1718804155601,-3.4000000000048));
#672=CARTESIAN_POINT('',(-1.99999999999999,41.4458405540803,0.));
#673=CARTESIAN_POINT('',(-1.99999999999998,28.3499999999997,0.));
#674=CARTESIAN_POINT('Origin',(-1.99999999999998,28.3499999999997,0.));
#675=CARTESIAN_POINT('',(-14.4999999999999,28.3499999999997,0.));
#676=CARTESIAN_POINT('Origin',(-14.4999999999999,41.4458405540803,0.));
#677=CARTESIAN_POINT('',(-14.4999999999999,41.4458405540803,-3.40000000000487));
#678=CARTESIAN_POINT('',(-12.4999999999999,41.4458405540803,-3.40000000000486));
#679=CARTESIAN_POINT('',(-14.4999999999999,41.4458405540803,0.));
#680=CARTESIAN_POINT('Origin',(-12.9999999999999,35.0011984039955,0.));
#681=CARTESIAN_POINT('',(-7.99999999999995,35.0011984039955,0.));
#682=CARTESIAN_POINT('Origin',(-14.4999999999999,55.2958405540802,0.));
#683=CARTESIAN_POINT('Origin',(-14.4999999999999,55.2958405540802,-3.40000000000485));
#684=CARTESIAN_POINT('Origin',(-14.4999999999999,14.4999999999999,0.));
#685=CARTESIAN_POINT('Origin',(-10.5,34.89792027704,-3.40000000000485));
#686=UNCERTAINTY_MEASURE_WITH_UNIT(LENGTH_MEASURE(0.01),#690,
'DISTANCE_ACCURACY_VALUE',
'Maximum model space distance between geometric entities at asserted c
onnectivities');
#687=UNCERTAINTY_MEASURE_WITH_UNIT(LENGTH_MEASURE(0.01),#690,
'DISTANCE_ACCURACY_VALUE',
'Maximum model space distance between geometric entities at asserted c
onnectivities');
#688=(
GEOMETRIC_REPRESENTATION_CONTEXT(3)
GLOBAL_UNCERTAINTY_ASSIGNED_CONTEXT((#686))
GLOBAL_UNIT_ASSIGNED_CONTEXT((#690,#692,#693))
REPRESENTATION_CONTEXT('','3D')
);
#689=(
GEOMETRIC_REPRESENTATION_CONTEXT(3)
GLOBAL_UNCERTAINTY_ASSIGNED_CONTEXT((#687))
GLOBAL_UNIT_ASSIGNED_CONTEXT((#690,#692,#693))
REPRESENTATION_CONTEXT('','3D')
);
#690=(
LENGTH_UNIT()
NAMED_UNIT(*)
SI_UNIT(.MILLI.,.METRE.)
);
#691=(
LENGTH_UNIT()
NAMED_UNIT(*)
SI_UNIT(.CENTI.,.METRE.)
);
#692=(
NAMED_UNIT(*)
PLANE_ANGLE_UNIT()
SI_UNIT($,.RADIAN.)
);
#693=(
NAMED_UNIT(*)
SI_UNIT($,.STERADIAN.)
SOLID_ANGLE_UNIT()
);
#694=SHAPE_DEFINITION_REPRESENTATION(#695,#696);
#695=PRODUCT_DEFINITION_SHAPE('',$,#698);
#696=SHAPE_REPRESENTATION('',(#414),#688);
#697=PRODUCT_DEFINITION_CONTEXT('part definition',#702,'design');
#698=PRODUCT_DEFINITION('BearigHoldRight','BearigHoldRight',#699,#697);
#699=PRODUCT_DEFINITION_FORMATION('',$,#704);
#700=PRODUCT_RELATED_PRODUCT_CATEGORY('BearigHoldRight',
'BearigHoldRight',(#704));
#701=APPLICATION_PROTOCOL_DEFINITION('international standard',
'automotive_design',2009,#702);
#702=APPLICATION_CONTEXT(
'Core Data for Automotive Mechanical Design Process');
#703=PRODUCT_CONTEXT('part definition',#702,'mechanical');
#704=PRODUCT('BearigHoldRight','BearigHoldRight',$,(#703));
#705=PRESENTATION_STYLE_ASSIGNMENT((#706));
#706=SURFACE_STYLE_USAGE(.BOTH.,#709);
#707=SURFACE_STYLE_RENDERING_WITH_PROPERTIES($,#713,(#708));
#708=SURFACE_STYLE_TRANSPARENT(0.);
#709=SURFACE_SIDE_STYLE('',(#710,#707));
#710=SURFACE_STYLE_FILL_AREA(#711);
#711=FILL_AREA_STYLE('',(#712));
#712=FILL_AREA_STYLE_COLOUR('',#713);
#713=COLOUR_RGB('',0.498039215686275,0.498039215686275,0.498039215686275);
ENDSEC;
END-ISO-10303-21;
