ISO-10303-21;
HEADER;
/* Generated by software containing ST-Developer
 * from STEP Tools, Inc. (www.steptools.com) 
 */

FILE_DESCRIPTION(
/* description */ (''),
/* implementation_level */ '2;1');

FILE_NAME(
/* name */ 'BearigHoldLeft.stp',
/* time_stamp */ '2026-04-10T21:52:49+02:00',
/* author */ ('szymo'),
/* organization */ (''),
/* preprocessor_version */ 'ST-DEVELOPER v20.1',
/* originating_system */ 'Autodesk Inventor 2026',
/* authorisation */ '');

FILE_SCHEMA (('AUTOMOTIVE_DESIGN { 1 0 10303 214 3 1 1 }'));
ENDSEC;

DATA;
#10=MECHANICAL_DESIGN_GEOMETRIC_PRESENTATION_REPRESENTATION('',(#13),#588);
#11=SHAPE_REPRESENTATION_RELATIONSHIP('SRR','None',#595,#12);
#12=ADVANCED_BREP_SHAPE_REPRESENTATION('',(#14),#587);
#13=STYLED_ITEM('',(#604),#14);
#14=MANIFOLD_SOLID_BREP('Solid1',#331);
#15=LINE('',#502,#41);
#16=LINE('',#505,#42);
#17=LINE('',#516,#43);
#18=LINE('',#519,#44);
#19=LINE('',#528,#45);
#20=LINE('',#530,#46);
#21=LINE('',#534,#47);
#22=LINE('',#537,#48);
#23=LINE('',#540,#49);
#24=LINE('',#542,#50);
#25=LINE('',#543,#51);
#26=LINE('',#546,#52);
#27=LINE('',#548,#53);
#28=LINE('',#550,#54);
#29=LINE('',#551,#55);
#30=LINE('',#554,#56);
#31=LINE('',#555,#57);
#32=LINE('',#558,#58);
#33=LINE('',#562,#59);
#34=LINE('',#564,#60);
#35=LINE('',#566,#61);
#36=LINE('',#567,#62);
#37=LINE('',#571,#63);
#38=LINE('',#577,#64);
#39=LINE('',#580,#65);
#40=LINE('',#581,#66);
#41=VECTOR('',#403,2.1);
#42=VECTOR('',#406,2.);
#43=VECTOR('',#421,2.1);
#44=VECTOR('',#424,2.);
#45=VECTOR('',#435,10.);
#46=VECTOR('',#436,10.);
#47=VECTOR('',#439,10.);
#48=VECTOR('',#442,10.);
#49=VECTOR('',#445,10.);
#50=VECTOR('',#446,10.);
#51=VECTOR('',#447,10.);
#52=VECTOR('',#450,10.);
#53=VECTOR('',#451,10.);
#54=VECTOR('',#452,10.);
#55=VECTOR('',#453,10.);
#56=VECTOR('',#456,10.);
#57=VECTOR('',#457,10.);
#58=VECTOR('',#460,10.);
#59=VECTOR('',#465,10.);
#60=VECTOR('',#466,10.);
#61=VECTOR('',#467,10.);
#62=VECTOR('',#468,10.);
#63=VECTOR('',#473,10.);
#64=VECTOR('',#482,4.99999999999999);
#65=VECTOR('',#485,10.);
#66=VECTOR('',#486,10.);
#67=CYLINDRICAL_SURFACE('',#357,2.1);
#68=CYLINDRICAL_SURFACE('',#359,2.);
#69=CYLINDRICAL_SURFACE('',#365,2.1);
#70=CYLINDRICAL_SURFACE('',#367,2.);
#71=CYLINDRICAL_SURFACE('',#378,14.4999999999998);
#72=CYLINDRICAL_SURFACE('',#385,13.8500000000009);
#73=CYLINDRICAL_SURFACE('',#386,4.99999999999999);
#74=CYLINDRICAL_SURFACE('',#388,13.8499999999999);
#75=FACE_BOUND('',#102,.T.);
#76=FACE_BOUND('',#107,.T.);
#77=FACE_BOUND('',#115,.T.);
#78=FACE_BOUND('',#116,.T.);
#79=FACE_BOUND('',#121,.T.);
#80=FACE_OUTER_BOUND('',#101,.T.);
#81=FACE_OUTER_BOUND('',#103,.T.);
#82=FACE_OUTER_BOUND('',#104,.T.);
#83=FACE_OUTER_BOUND('',#105,.T.);
#84=FACE_OUTER_BOUND('',#106,.T.);
#85=FACE_OUTER_BOUND('',#108,.T.);
#86=FACE_OUTER_BOUND('',#109,.T.);
#87=FACE_OUTER_BOUND('',#110,.T.);
#88=FACE_OUTER_BOUND('',#111,.T.);
#89=FACE_OUTER_BOUND('',#112,.T.);
#90=FACE_OUTER_BOUND('',#113,.T.);
#91=FACE_OUTER_BOUND('',#114,.T.);
#92=FACE_OUTER_BOUND('',#117,.T.);
#93=FACE_OUTER_BOUND('',#118,.T.);
#94=FACE_OUTER_BOUND('',#119,.T.);
#95=FACE_OUTER_BOUND('',#120,.T.);
#96=FACE_OUTER_BOUND('',#122,.T.);
#97=FACE_OUTER_BOUND('',#123,.T.);
#98=FACE_OUTER_BOUND('',#124,.T.);
#99=FACE_OUTER_BOUND('',#125,.T.);
#100=FACE_OUTER_BOUND('',#126,.T.);
#101=EDGE_LOOP('',(#213));
#102=EDGE_LOOP('',(#214));
#103=EDGE_LOOP('',(#215,#216,#217,#218));
#104=EDGE_LOOP('',(#219,#220,#221,#222));
#105=EDGE_LOOP('',(#223));
#106=EDGE_LOOP('',(#224));
#107=EDGE_LOOP('',(#225));
#108=EDGE_LOOP('',(#226,#227,#228,#229));
#109=EDGE_LOOP('',(#230,#231,#232,#233));
#110=EDGE_LOOP('',(#234));
#111=EDGE_LOOP('',(#235));
#112=EDGE_LOOP('',(#236,#237,#238,#239,#240,#241));
#113=EDGE_LOOP('',(#242,#243,#244,#245));
#114=EDGE_LOOP('',(#246,#247,#248,#249,#250,#251));
#115=EDGE_LOOP('',(#252));
#116=EDGE_LOOP('',(#253));
#117=EDGE_LOOP('',(#254,#255,#256,#257));
#118=EDGE_LOOP('',(#258,#259,#260,#261));
#119=EDGE_LOOP('',(#262,#263,#264,#265,#266,#267));
#120=EDGE_LOOP('',(#268,#269,#270,#271,#272,#273));
#121=EDGE_LOOP('',(#274));
#122=EDGE_LOOP('',(#275,#276,#277,#278));
#123=EDGE_LOOP('',(#279,#280,#281,#282));
#124=EDGE_LOOP('',(#283,#284,#285,#286));
#125=EDGE_LOOP('',(#287,#288,#289,#290));
#126=EDGE_LOOP('',(#291,#292,#293,#294,#295,#296));
#127=CIRCLE('',#355,2.1);
#128=CIRCLE('',#356,2.);
#129=CIRCLE('',#358,2.1);
#130=CIRCLE('',#360,2.);
#131=CIRCLE('',#363,2.1);
#132=CIRCLE('',#364,2.);
#133=CIRCLE('',#366,2.1);
#134=CIRCLE('',#368,2.);
#135=CIRCLE('',#371,4.99999999999999);
#136=CIRCLE('',#373,13.8500000000009);
#137=CIRCLE('',#374,14.4999999999998);
#138=CIRCLE('',#379,14.4999999999998);
#139=CIRCLE('',#382,13.8500000000009);
#140=CIRCLE('',#383,13.8499999999999);
#141=CIRCLE('',#384,4.99999999999999);
#142=CIRCLE('',#389,13.8499999999999);
#143=VERTEX_POINT('',#495);
#144=VERTEX_POINT('',#497);
#145=VERTEX_POINT('',#500);
#146=VERTEX_POINT('',#504);
#147=VERTEX_POINT('',#509);
#148=VERTEX_POINT('',#511);
#149=VERTEX_POINT('',#514);
#150=VERTEX_POINT('',#518);
#151=VERTEX_POINT('',#523);
#152=VERTEX_POINT('',#526);
#153=VERTEX_POINT('',#527);
#154=VERTEX_POINT('',#529);
#155=VERTEX_POINT('',#531);
#156=VERTEX_POINT('',#533);
#157=VERTEX_POINT('',#535);
#158=VERTEX_POINT('',#539);
#159=VERTEX_POINT('',#541);
#160=VERTEX_POINT('',#545);
#161=VERTEX_POINT('',#547);
#162=VERTEX_POINT('',#549);
#163=VERTEX_POINT('',#553);
#164=VERTEX_POINT('',#557);
#165=VERTEX_POINT('',#561);
#166=VERTEX_POINT('',#563);
#167=VERTEX_POINT('',#565);
#168=VERTEX_POINT('',#570);
#169=VERTEX_POINT('',#573);
#170=VERTEX_POINT('',#579);
#171=EDGE_CURVE('',#143,#143,#127,.T.);
#172=EDGE_CURVE('',#144,#144,#128,.T.);
#173=EDGE_CURVE('',#145,#145,#129,.T.);
#174=EDGE_CURVE('',#145,#143,#15,.T.);
#175=EDGE_CURVE('',#144,#146,#16,.T.);
#176=EDGE_CURVE('',#146,#146,#130,.T.);
#177=EDGE_CURVE('',#147,#147,#131,.T.);
#178=EDGE_CURVE('',#148,#148,#132,.T.);
#179=EDGE_CURVE('',#149,#149,#133,.T.);
#180=EDGE_CURVE('',#149,#147,#17,.T.);
#181=EDGE_CURVE('',#148,#150,#18,.T.);
#182=EDGE_CURVE('',#150,#150,#134,.T.);
#183=EDGE_CURVE('',#151,#151,#135,.T.);
#184=EDGE_CURVE('',#152,#153,#19,.T.);
#185=EDGE_CURVE('',#153,#154,#20,.T.);
#186=EDGE_CURVE('',#154,#155,#136,.T.);
#187=EDGE_CURVE('',#155,#156,#21,.T.);
#188=EDGE_CURVE('',#156,#157,#137,.T.);
#189=EDGE_CURVE('',#157,#152,#22,.T.);
#190=EDGE_CURVE('',#158,#153,#23,.T.);
#191=EDGE_CURVE('',#158,#159,#24,.T.);
#192=EDGE_CURVE('',#159,#154,#25,.T.);
#193=EDGE_CURVE('',#160,#152,#26,.T.);
#194=EDGE_CURVE('',#161,#160,#27,.T.);
#195=EDGE_CURVE('',#162,#161,#28,.T.);
#196=EDGE_CURVE('',#162,#158,#29,.T.);
#197=EDGE_CURVE('',#163,#157,#30,.T.);
#198=EDGE_CURVE('',#160,#163,#31,.T.);
#199=EDGE_CURVE('',#164,#156,#32,.T.);
#200=EDGE_CURVE('',#163,#164,#138,.T.);
#201=EDGE_CURVE('',#165,#155,#33,.T.);
#202=EDGE_CURVE('',#165,#166,#34,.T.);
#203=EDGE_CURVE('',#166,#167,#35,.T.);
#204=EDGE_CURVE('',#164,#167,#36,.T.);
#205=EDGE_CURVE('',#159,#165,#139,.T.);
#206=EDGE_CURVE('',#168,#162,#37,.T.);
#207=EDGE_CURVE('',#166,#168,#140,.T.);
#208=EDGE_CURVE('',#169,#169,#141,.T.);
#209=EDGE_CURVE('',#151,#169,#38,.T.);
#210=EDGE_CURVE('',#170,#161,#39,.T.);
#211=EDGE_CURVE('',#168,#170,#40,.T.);
#212=EDGE_CURVE('',#167,#170,#142,.T.);
#213=ORIENTED_EDGE('',*,*,#171,.T.);
#214=ORIENTED_EDGE('',*,*,#172,.F.);
#215=ORIENTED_EDGE('',*,*,#173,.F.);
#216=ORIENTED_EDGE('',*,*,#174,.T.);
#217=ORIENTED_EDGE('',*,*,#171,.F.);
#218=ORIENTED_EDGE('',*,*,#174,.F.);
#219=ORIENTED_EDGE('',*,*,#172,.T.);
#220=ORIENTED_EDGE('',*,*,#175,.T.);
#221=ORIENTED_EDGE('',*,*,#176,.F.);
#222=ORIENTED_EDGE('',*,*,#175,.F.);
#223=ORIENTED_EDGE('',*,*,#176,.T.);
#224=ORIENTED_EDGE('',*,*,#177,.T.);
#225=ORIENTED_EDGE('',*,*,#178,.F.);
#226=ORIENTED_EDGE('',*,*,#179,.F.);
#227=ORIENTED_EDGE('',*,*,#180,.T.);
#228=ORIENTED_EDGE('',*,*,#177,.F.);
#229=ORIENTED_EDGE('',*,*,#180,.F.);
#230=ORIENTED_EDGE('',*,*,#178,.T.);
#231=ORIENTED_EDGE('',*,*,#181,.T.);
#232=ORIENTED_EDGE('',*,*,#182,.F.);
#233=ORIENTED_EDGE('',*,*,#181,.F.);
#234=ORIENTED_EDGE('',*,*,#182,.T.);
#235=ORIENTED_EDGE('',*,*,#183,.F.);
#236=ORIENTED_EDGE('',*,*,#184,.T.);
#237=ORIENTED_EDGE('',*,*,#185,.T.);
#238=ORIENTED_EDGE('',*,*,#186,.T.);
#239=ORIENTED_EDGE('',*,*,#187,.T.);
#240=ORIENTED_EDGE('',*,*,#188,.T.);
#241=ORIENTED_EDGE('',*,*,#189,.T.);
#242=ORIENTED_EDGE('',*,*,#190,.F.);
#243=ORIENTED_EDGE('',*,*,#191,.T.);
#244=ORIENTED_EDGE('',*,*,#192,.T.);
#245=ORIENTED_EDGE('',*,*,#185,.F.);
#246=ORIENTED_EDGE('',*,*,#193,.F.);
#247=ORIENTED_EDGE('',*,*,#194,.F.);
#248=ORIENTED_EDGE('',*,*,#195,.F.);
#249=ORIENTED_EDGE('',*,*,#196,.T.);
#250=ORIENTED_EDGE('',*,*,#190,.T.);
#251=ORIENTED_EDGE('',*,*,#184,.F.);
#252=ORIENTED_EDGE('',*,*,#173,.T.);
#253=ORIENTED_EDGE('',*,*,#179,.T.);
#254=ORIENTED_EDGE('',*,*,#197,.F.);
#255=ORIENTED_EDGE('',*,*,#198,.F.);
#256=ORIENTED_EDGE('',*,*,#193,.T.);
#257=ORIENTED_EDGE('',*,*,#189,.F.);
#258=ORIENTED_EDGE('',*,*,#199,.F.);
#259=ORIENTED_EDGE('',*,*,#200,.F.);
#260=ORIENTED_EDGE('',*,*,#197,.T.);
#261=ORIENTED_EDGE('',*,*,#188,.F.);
#262=ORIENTED_EDGE('',*,*,#201,.F.);
#263=ORIENTED_EDGE('',*,*,#202,.T.);
#264=ORIENTED_EDGE('',*,*,#203,.T.);
#265=ORIENTED_EDGE('',*,*,#204,.F.);
#266=ORIENTED_EDGE('',*,*,#199,.T.);
#267=ORIENTED_EDGE('',*,*,#187,.F.);
#268=ORIENTED_EDGE('',*,*,#202,.F.);
#269=ORIENTED_EDGE('',*,*,#205,.F.);
#270=ORIENTED_EDGE('',*,*,#191,.F.);
#271=ORIENTED_EDGE('',*,*,#196,.F.);
#272=ORIENTED_EDGE('',*,*,#206,.F.);
#273=ORIENTED_EDGE('',*,*,#207,.F.);
#274=ORIENTED_EDGE('',*,*,#208,.F.);
#275=ORIENTED_EDGE('',*,*,#192,.F.);
#276=ORIENTED_EDGE('',*,*,#205,.T.);
#277=ORIENTED_EDGE('',*,*,#201,.T.);
#278=ORIENTED_EDGE('',*,*,#186,.F.);
#279=ORIENTED_EDGE('',*,*,#183,.T.);
#280=ORIENTED_EDGE('',*,*,#209,.T.);
#281=ORIENTED_EDGE('',*,*,#208,.T.);
#282=ORIENTED_EDGE('',*,*,#209,.F.);
#283=ORIENTED_EDGE('',*,*,#210,.F.);
#284=ORIENTED_EDGE('',*,*,#211,.F.);
#285=ORIENTED_EDGE('',*,*,#206,.T.);
#286=ORIENTED_EDGE('',*,*,#195,.T.);
#287=ORIENTED_EDGE('',*,*,#212,.F.);
#288=ORIENTED_EDGE('',*,*,#203,.F.);
#289=ORIENTED_EDGE('',*,*,#207,.T.);
#290=ORIENTED_EDGE('',*,*,#211,.T.);
#291=ORIENTED_EDGE('',*,*,#200,.T.);
#292=ORIENTED_EDGE('',*,*,#204,.T.);
#293=ORIENTED_EDGE('',*,*,#212,.T.);
#294=ORIENTED_EDGE('',*,*,#210,.T.);
#295=ORIENTED_EDGE('',*,*,#194,.T.);
#296=ORIENTED_EDGE('',*,*,#198,.T.);
#297=PLANE('',#354);
#298=PLANE('',#361);
#299=PLANE('',#362);
#300=PLANE('',#369);
#301=PLANE('',#370);
#302=PLANE('',#372);
#303=PLANE('',#375);
#304=PLANE('',#376);
#305=PLANE('',#377);
#306=PLANE('',#380);
#307=PLANE('',#381);
#308=PLANE('',#387);
#309=PLANE('',#390);
#310=ADVANCED_FACE('',(#80,#75),#297,.T.);
#311=ADVANCED_FACE('',(#81),#67,.F.);
#312=ADVANCED_FACE('',(#82),#68,.F.);
#313=ADVANCED_FACE('',(#83),#298,.T.);
#314=ADVANCED_FACE('',(#84,#76),#299,.T.);
#315=ADVANCED_FACE('',(#85),#69,.F.);
#316=ADVANCED_FACE('',(#86),#70,.F.);
#317=ADVANCED_FACE('',(#87),#300,.T.);
#318=ADVANCED_FACE('',(#88),#301,.F.);
#319=ADVANCED_FACE('',(#89),#302,.T.);
#320=ADVANCED_FACE('',(#90),#303,.T.);
#321=ADVANCED_FACE('',(#91,#77,#78),#304,.T.);
#322=ADVANCED_FACE('',(#92),#305,.T.);
#323=ADVANCED_FACE('',(#93),#71,.F.);
#324=ADVANCED_FACE('',(#94),#306,.T.);
#325=ADVANCED_FACE('',(#95,#79),#307,.F.);
#326=ADVANCED_FACE('',(#96),#72,.F.);
#327=ADVANCED_FACE('',(#97),#73,.F.);
#328=ADVANCED_FACE('',(#98),#308,.T.);
#329=ADVANCED_FACE('',(#99),#74,.F.);
#330=ADVANCED_FACE('',(#100),#309,.F.);
#331=CLOSED_SHELL('',(#310,#311,#312,#313,#314,#315,#316,#317,#318,#319,
#320,#321,#322,#323,#324,#325,#326,#327,#328,#329,#330));
#332=DERIVED_UNIT_ELEMENT(#335,1.);
#333=DERIVED_UNIT_ELEMENT(#590,-3.);
#334=DIMENSIONAL_EXPONENTS(0.,1.,0.,0.,0.,0.,0.);
#335=(
CONVERSION_BASED_UNIT('gram',#337)
MASS_UNIT()
NAMED_UNIT(#334)
);
#336=(
MASS_UNIT()
NAMED_UNIT(*)
SI_UNIT(.KILO.,.GRAM.)
);
#337=MASS_MEASURE_WITH_UNIT(MASS_MEASURE(0.001),#336);
#338=DERIVED_UNIT((#332,#333));
#339=MEASURE_REPRESENTATION_ITEM('density measure',
POSITIVE_RATIO_MEASURE(1.),#338);
#340=PROPERTY_DEFINITION_REPRESENTATION(#345,#342);
#341=PROPERTY_DEFINITION_REPRESENTATION(#346,#343);
#342=REPRESENTATION('material name',(#344),#587);
#343=REPRESENTATION('density',(#339),#587);
#344=DESCRIPTIVE_REPRESENTATION_ITEM('Generic','Generic');
#345=PROPERTY_DEFINITION('material property','material name',#597);
#346=PROPERTY_DEFINITION('material property','density of part',#597);
#347=DATE_TIME_ROLE('creation_date');
#348=APPLIED_DATE_AND_TIME_ASSIGNMENT(#349,#347,(#597));
#349=DATE_AND_TIME(#350,#351);
#350=CALENDAR_DATE(2026,4,4);
#351=LOCAL_TIME(0,0,0.,#352);
#352=COORDINATED_UNIVERSAL_TIME_OFFSET(0,0,.BEHIND.);
#353=AXIS2_PLACEMENT_3D('',#493,#391,#392);
#354=AXIS2_PLACEMENT_3D('',#494,#393,#394);
#355=AXIS2_PLACEMENT_3D('',#496,#395,#396);
#356=AXIS2_PLACEMENT_3D('',#498,#397,#398);
#357=AXIS2_PLACEMENT_3D('',#499,#399,#400);
#358=AXIS2_PLACEMENT_3D('',#501,#401,#402);
#359=AXIS2_PLACEMENT_3D('',#503,#404,#405);
#360=AXIS2_PLACEMENT_3D('',#506,#407,#408);
#361=AXIS2_PLACEMENT_3D('',#507,#409,#410);
#362=AXIS2_PLACEMENT_3D('',#508,#411,#412);
#363=AXIS2_PLACEMENT_3D('',#510,#413,#414);
#364=AXIS2_PLACEMENT_3D('',#512,#415,#416);
#365=AXIS2_PLACEMENT_3D('',#513,#417,#418);
#366=AXIS2_PLACEMENT_3D('',#515,#419,#420);
#367=AXIS2_PLACEMENT_3D('',#517,#422,#423);
#368=AXIS2_PLACEMENT_3D('',#520,#425,#426);
#369=AXIS2_PLACEMENT_3D('',#521,#427,#428);
#370=AXIS2_PLACEMENT_3D('',#522,#429,#430);
#371=AXIS2_PLACEMENT_3D('',#524,#431,#432);
#372=AXIS2_PLACEMENT_3D('',#525,#433,#434);
#373=AXIS2_PLACEMENT_3D('',#532,#437,#438);
#374=AXIS2_PLACEMENT_3D('',#536,#440,#441);
#375=AXIS2_PLACEMENT_3D('',#538,#443,#444);
#376=AXIS2_PLACEMENT_3D('',#544,#448,#449);
#377=AXIS2_PLACEMENT_3D('',#552,#454,#455);
#378=AXIS2_PLACEMENT_3D('',#556,#458,#459);
#379=AXIS2_PLACEMENT_3D('',#559,#461,#462);
#380=AXIS2_PLACEMENT_3D('',#560,#463,#464);
#381=AXIS2_PLACEMENT_3D('',#568,#469,#470);
#382=AXIS2_PLACEMENT_3D('',#569,#471,#472);
#383=AXIS2_PLACEMENT_3D('',#572,#474,#475);
#384=AXIS2_PLACEMENT_3D('',#574,#476,#477);
#385=AXIS2_PLACEMENT_3D('',#575,#478,#479);
#386=AXIS2_PLACEMENT_3D('',#576,#480,#481);
#387=AXIS2_PLACEMENT_3D('',#578,#483,#484);
#388=AXIS2_PLACEMENT_3D('',#582,#487,#488);
#389=AXIS2_PLACEMENT_3D('',#583,#489,#490);
#390=AXIS2_PLACEMENT_3D('',#584,#491,#492);
#391=DIRECTION('axis',(0.,0.,1.));
#392=DIRECTION('refdir',(1.,0.,0.));
#393=DIRECTION('center_axis',(1.,3.9349742370011E-16,-2.2857532860024E-15));
#394=DIRECTION('ref_axis',(-2.2857532860024E-15,-9.6889386987151E-31,-1.));
#395=DIRECTION('center_axis',(1.,3.9349742370011E-16,-2.2857532860024E-15));
#396=DIRECTION('ref_axis',(-2.2857532860024E-15,-9.6889386987151E-31,-1.));
#397=DIRECTION('center_axis',(1.,3.9349742370011E-16,-2.2857532860024E-15));
#398=DIRECTION('ref_axis',(-2.2857532860024E-15,-9.6889386987151E-31,-1.));
#399=DIRECTION('center_axis',(1.,3.9349742370011E-16,-2.2857532860024E-15));
#400=DIRECTION('ref_axis',(-2.2857532860024E-15,-9.6889386987151E-31,-1.));
#401=DIRECTION('center_axis',(-1.,-3.9349742370011E-16,2.2857532860024E-15));
#402=DIRECTION('ref_axis',(-2.2857532860024E-15,-9.6889386987151E-31,-1.));
#403=DIRECTION('',(-1.,-3.9349742370011E-16,2.2857532860024E-15));
#404=DIRECTION('center_axis',(1.,3.9349742370011E-16,-2.2857532860024E-15));
#405=DIRECTION('ref_axis',(-2.2857532860024E-15,-9.6889386987151E-31,-1.));
#406=DIRECTION('',(-1.,-3.9349742370011E-16,2.2857532860024E-15));
#407=DIRECTION('center_axis',(1.,3.9349742370011E-16,-2.2857532860024E-15));
#408=DIRECTION('ref_axis',(-2.2857532860024E-15,-9.6889386987151E-31,-1.));
#409=DIRECTION('center_axis',(1.,3.9349742370011E-16,-2.2857532860024E-15));
#410=DIRECTION('ref_axis',(-2.2857532860024E-15,-9.6889386987151E-31,-1.));
#411=DIRECTION('center_axis',(1.,3.9349742370011E-16,-2.2857532860024E-15));
#412=DIRECTION('ref_axis',(-2.2857532860024E-15,-9.6889386987151E-31,-1.));
#413=DIRECTION('center_axis',(1.,3.9349742370011E-16,-2.2857532860024E-15));
#414=DIRECTION('ref_axis',(-2.2857532860024E-15,-9.6889386987151E-31,-1.));
#415=DIRECTION('center_axis',(1.,3.9349742370011E-16,-2.2857532860024E-15));
#416=DIRECTION('ref_axis',(-2.2857532860024E-15,-9.6889386987151E-31,-1.));
#417=DIRECTION('center_axis',(1.,3.9349742370011E-16,-2.2857532860024E-15));
#418=DIRECTION('ref_axis',(-2.2857532860024E-15,-9.6889386987151E-31,-1.));
#419=DIRECTION('center_axis',(-1.,-3.9349742370011E-16,2.2857532860024E-15));
#420=DIRECTION('ref_axis',(-2.2857532860024E-15,-9.6889386987151E-31,-1.));
#421=DIRECTION('',(-1.,-3.9349742370011E-16,2.2857532860024E-15));
#422=DIRECTION('center_axis',(1.,3.9349742370011E-16,-2.2857532860024E-15));
#423=DIRECTION('ref_axis',(-2.2857532860024E-15,-9.6889386987151E-31,-1.));
#424=DIRECTION('',(-1.,-3.9349742370011E-16,2.2857532860024E-15));
#425=DIRECTION('center_axis',(1.,3.9349742370011E-16,-2.2857532860024E-15));
#426=DIRECTION('ref_axis',(-2.2857532860024E-15,-9.6889386987151E-31,-1.));
#427=DIRECTION('center_axis',(1.,3.9349742370011E-16,-2.2857532860024E-15));
#428=DIRECTION('ref_axis',(-2.2857532860024E-15,-9.6889386987151E-31,-1.));
#429=DIRECTION('center_axis',(2.33146835188093E-15,-4.18096279767136E-29,
1.));
#430=DIRECTION('ref_axis',(1.,0.,-2.33146835188093E-15));
#431=DIRECTION('center_axis',(2.33146835188093E-15,-4.18096279767136E-29,
1.));
#432=DIRECTION('ref_axis',(1.,1.2836953722246E-16,-2.2857532860024E-15));
#433=DIRECTION('center_axis',(2.33146835188093E-15,-4.18096279767136E-29,
1.));
#434=DIRECTION('ref_axis',(1.,0.,-2.33146835188093E-15));
#435=DIRECTION('',(-5.01532864188698E-16,1.,4.28495134847256E-29));
#436=DIRECTION('',(-1.,-5.5511151231259E-17,2.33146835188093E-15));
#437=DIRECTION('center_axis',(-2.33146835188093E-15,4.14151975241031E-29,
-1.));
#438=DIRECTION('ref_axis',(0.324909747292397,0.94574502701013,-7.57516793029814E-16));
#439=DIRECTION('',(3.74696148245816E-16,-1.,-4.25537976956483E-29));
#440=DIRECTION('center_axis',(-2.33146835188093E-15,4.16802054844415E-29,
-1.));
#441=DIRECTION('ref_axis',(5.5511151231259E-17,-1.,-4.18096279767136E-29));
#442=DIRECTION('',(1.,5.5511151231259E-17,-2.33146835188093E-15));
#443=DIRECTION('center_axis',(-1.2836953722246E-16,1.,2.93421091528847E-31));
#444=DIRECTION('ref_axis',(-1.,-1.2836953722246E-16,2.3314683518803E-15));
#445=DIRECTION('',(2.2857532860024E-15,0.,1.));
#446=DIRECTION('',(-1.,-1.2836953722246E-16,2.3314683518803E-15));
#447=DIRECTION('',(2.77555756156289E-15,0.,1.));
#448=DIRECTION('center_axis',(1.,3.9349742370011E-16,-2.2857532860024E-15));
#449=DIRECTION('ref_axis',(-3.9349742370011E-16,1.,-2.931736796971E-30));
#450=DIRECTION('',(2.31296463464433E-15,0.,1.));
#451=DIRECTION('',(-3.93497423700107E-16,1.,1.36183465837643E-15));
#452=DIRECTION('',(2.2857532860024E-15,0.,1.));
#453=DIRECTION('',(-3.9349742370011E-16,1.,-2.931736796971E-30));
#454=DIRECTION('center_axis',(1.2836953722246E-16,-1.,-2.9691419976121E-31));
#455=DIRECTION('ref_axis',(1.,1.2836953722246E-16,-2.3314683518803E-15));
#456=DIRECTION('',(2.31296463464433E-15,0.,1.));
#457=DIRECTION('',(-1.,-1.2836953722246E-16,-6.46161303094136E-16));
#458=DIRECTION('center_axis',(2.31296463464433E-15,0.,1.));
#459=DIRECTION('ref_axis',(1.,1.2836953722246E-16,-2.31296463464433E-15));
#460=DIRECTION('',(2.31296463464433E-15,0.,1.));
#461=DIRECTION('center_axis',(-6.46161303094136E-16,-1.36183465837643E-15,
1.));
#462=DIRECTION('ref_axis',(1.,1.2836953722246E-16,-2.31296463464433E-15));
#463=DIRECTION('center_axis',(-1.,-4.59779395319522E-16,2.2857532860024E-15));
#464=DIRECTION('ref_axis',(4.59779395319522E-16,-1.,2.77720247784011E-30));
#465=DIRECTION('',(2.2857532860024E-15,0.,1.));
#466=DIRECTION('',(4.59779395319522E-16,-1.,2.77720247784011E-30));
#467=DIRECTION('',(2.2857532860024E-15,0.,1.));
#468=DIRECTION('',(4.59779395319519E-16,-1.,-1.36183465837643E-15));
#469=DIRECTION('center_axis',(2.3314683518803E-15,3.84916358687424E-30,
1.));
#470=DIRECTION('ref_axis',(1.,0.,-2.3314683518803E-15));
#471=DIRECTION('center_axis',(-2.3314683518803E-15,-3.84916358687424E-30,
-1.));
#472=DIRECTION('ref_axis',(1.,1.2836953722246E-16,-2.3314683518803E-15));
#473=DIRECTION('',(1.,4.83640905102508E-16,-2.3314683518803E-15));
#474=DIRECTION('center_axis',(-2.3314683518803E-15,-3.84916358687424E-30,
-1.));
#475=DIRECTION('ref_axis',(1.,1.2836953722246E-16,-2.3314683518803E-15));
#476=DIRECTION('center_axis',(-2.3314683518803E-15,-3.84916358687424E-30,
-1.));
#477=DIRECTION('ref_axis',(1.,1.2836953722246E-16,-2.3314683518803E-15));
#478=DIRECTION('center_axis',(2.2857532860024E-15,0.,1.));
#479=DIRECTION('ref_axis',(1.,1.2836953722246E-16,-2.2857532860024E-15));
#480=DIRECTION('center_axis',(2.2857532860024E-15,0.,1.));
#481=DIRECTION('ref_axis',(1.,1.2836953722246E-16,-2.2857532860024E-15));
#482=DIRECTION('',(-2.2857532860024E-15,0.,-1.));
#483=DIRECTION('center_axis',(4.83640905102508E-16,-1.,-1.10548378808323E-30));
#484=DIRECTION('ref_axis',(1.,4.83640905102508E-16,-2.3314683518803E-15));
#485=DIRECTION('',(1.,4.83640905102508E-16,6.46161303094137E-16));
#486=DIRECTION('',(2.2857532860024E-15,0.,1.));
#487=DIRECTION('center_axis',(2.2857532860024E-15,0.,1.));
#488=DIRECTION('ref_axis',(1.,1.2836953722246E-16,-2.2857532860024E-15));
#489=DIRECTION('center_axis',(6.46161303094136E-16,1.36183465837643E-15,
-1.));
#490=DIRECTION('ref_axis',(1.,1.2836953722246E-16,-2.2857532860024E-15));
#491=DIRECTION('center_axis',(6.46161303094136E-16,1.36183465837643E-15,
-1.));
#492=DIRECTION('ref_axis',(-1.,0.,-6.46161303094136E-16));
#493=CARTESIAN_POINT('',(0.,0.,0.));
#494=CARTESIAN_POINT('Origin',(8.70000000000019,5.52396013851978,2.20000000000691));
#495=CARTESIAN_POINT('',(8.70000000000019,5.52396013851978,4.30000000000691));
#496=CARTESIAN_POINT('Origin',(8.70000000000019,5.52396013851978,2.20000000000691));
#497=CARTESIAN_POINT('',(8.70000000000019,5.52396013851978,4.20000000000691));
#498=CARTESIAN_POINT('Origin',(8.70000000000019,5.52396013851978,2.20000000000691));
#499=CARTESIAN_POINT('Origin',(9.20000000000018,5.52396013851978,2.20000000000691));
#500=CARTESIAN_POINT('',(9.70000000000019,5.52396013851978,4.30000000000691));
#501=CARTESIAN_POINT('Origin',(9.70000000000019,5.52396013851978,2.20000000000691));
#502=CARTESIAN_POINT('',(9.20000000000019,5.52396013851978,4.30000000000691));
#503=CARTESIAN_POINT('Origin',(6.95000000000018,5.52396013851978,2.20000000000691));
#504=CARTESIAN_POINT('',(4.20000000000019,5.52396013851978,4.20000000000692));
#505=CARTESIAN_POINT('',(6.95000000000019,5.52396013851978,4.20000000000691));
#506=CARTESIAN_POINT('Origin',(4.20000000000018,5.52396013851978,2.20000000000692));
#507=CARTESIAN_POINT('Origin',(4.20000000000018,5.52396013851978,2.20000000000692));
#508=CARTESIAN_POINT('Origin',(8.70000000000019,-1.02396013851999,2.20000000000691));
#509=CARTESIAN_POINT('',(8.70000000000019,-1.02396013851999,4.30000000000691));
#510=CARTESIAN_POINT('Origin',(8.70000000000019,-1.02396013851999,2.20000000000691));
#511=CARTESIAN_POINT('',(8.70000000000019,-1.02396013851999,4.20000000000691));
#512=CARTESIAN_POINT('Origin',(8.70000000000019,-1.02396013851999,2.20000000000691));
#513=CARTESIAN_POINT('Origin',(9.20000000000019,-1.02396013851999,2.20000000000691));
#514=CARTESIAN_POINT('',(9.70000000000019,-1.02396013851999,4.30000000000691));
#515=CARTESIAN_POINT('Origin',(9.70000000000019,-1.02396013851999,2.20000000000691));
#516=CARTESIAN_POINT('',(9.20000000000019,-1.02396013851999,4.30000000000691));
#517=CARTESIAN_POINT('Origin',(6.95000000000019,-1.02396013851999,2.20000000000691));
#518=CARTESIAN_POINT('',(4.20000000000019,-1.02396013851999,4.20000000000692));
#519=CARTESIAN_POINT('',(6.95000000000019,-1.02396013851999,4.20000000000691));
#520=CARTESIAN_POINT('Origin',(4.20000000000019,-1.02396013851999,2.20000000000692));
#521=CARTESIAN_POINT('Origin',(4.20000000000019,-1.02396013851999,2.20000000000692));
#522=CARTESIAN_POINT('Origin',(1.20000000000015,2.5927400639998,3.79999999999937));
#523=CARTESIAN_POINT('',(-6.29999999999989,2.35327812695584,3.79999999999938));
#524=CARTESIAN_POINT('Origin',(-1.2999999999999,2.35327812695584,3.79999999999937));
#525=CARTESIAN_POINT('Origin',(1.20000000000015,2.5927400639998,4.39999999999937));
#526=CARTESIAN_POINT('',(9.70000000000019,-3.64792027704003,4.39999999999935));
#527=CARTESIAN_POINT('',(9.70000000000019,8.79792027703967,4.39999999999935));
#528=CARTESIAN_POINT('',(9.70000000000019,-3.64792027704003,4.39999999999935));
#529=CARTESIAN_POINT('',(-2.7999999999999,8.79792027703967,4.39999999999938));
#530=CARTESIAN_POINT('',(9.70000000000019,8.79792027703967,4.39999999999935));
#531=CARTESIAN_POINT('',(-7.29999999999989,9.54935165294942,4.39999999999939));
#532=CARTESIAN_POINT('Origin',(-2.79999999999991,22.6479202770406,4.39999999999938));
#533=CARTESIAN_POINT('',(-7.29999999999989,-4.36387152494982,4.39999999999939));
#534=CARTESIAN_POINT('',(-7.29999999999989,9.54935165294942,4.39999999999939));
#535=CARTESIAN_POINT('',(-2.7999999999999,-3.64792027704003,4.39999999999938));
#536=CARTESIAN_POINT('Origin',(-2.7999999999999,-18.1479202770398,4.39999999999938));
#537=CARTESIAN_POINT('',(-2.7999999999999,-3.64792027704003,4.39999999999938));
#538=CARTESIAN_POINT('Origin',(9.70000000000018,8.79792027703967,1.44686485015203E-11));
#539=CARTESIAN_POINT('',(9.70000000000018,8.79792027703967,1.44686485015203E-11));
#540=CARTESIAN_POINT('',(9.70000000000018,8.79792027703967,1.44686485015203E-11));
#541=CARTESIAN_POINT('',(-2.79999999999991,8.79792027703967,1.44977918559188E-11));
#542=CARTESIAN_POINT('',(9.70000000000018,8.79792027703967,1.44686485015203E-11));
#543=CARTESIAN_POINT('',(-2.7999999999999,8.79792027703967,3.99999999999938));
#544=CARTESIAN_POINT('Origin',(9.70000000000018,-4.29792027703987,1.44686485015203E-11));
#545=CARTESIAN_POINT('',(9.70000000000019,-3.64792027704003,3.40000000000025));
#546=CARTESIAN_POINT('',(9.70000000000018,-3.64792027704003,1.44686485015203E-11));
#547=CARTESIAN_POINT('',(9.70000000000019,-4.29792027703987,3.40000000000025));
#548=CARTESIAN_POINT('',(9.70000000000019,-1.02396013852,3.40000000000025));
#549=CARTESIAN_POINT('',(9.70000000000018,-4.29792027703987,1.44686485015203E-11));
#550=CARTESIAN_POINT('',(9.70000000000018,-4.29792027703987,1.44686485015203E-11));
#551=CARTESIAN_POINT('',(9.70000000000019,-32.6479202770388,1.44686485015203E-11));
#552=CARTESIAN_POINT('Origin',(-2.79999999999991,-3.64792027704003,1.44977918559188E-11));
#553=CARTESIAN_POINT('',(-2.7999999999999,-3.64792027704003,3.40000000000024));
#554=CARTESIAN_POINT('',(-2.79999999999991,-3.64792027704003,1.44977918559188E-11));
#555=CARTESIAN_POINT('',(-0.799999999999881,-3.64792027704003,3.40000000000024));
#556=CARTESIAN_POINT('Origin',(-2.7999999999999,-18.1479202770398,1.44977918559188E-11));
#557=CARTESIAN_POINT('',(-7.29999999999989,-4.36387152494982,3.40000000000024));
#558=CARTESIAN_POINT('',(-7.2999999999999,-4.36387152494982,1.45082834635023E-11));
#559=CARTESIAN_POINT('Origin',(-2.7999999999999,-18.1479202770398,3.40000000000026));
#560=CARTESIAN_POINT('Origin',(-7.29999999999991,9.54935165294942,1.45082834635023E-11));
#561=CARTESIAN_POINT('',(-7.2999999999999,9.54935165294942,1.45082834635023E-11));
#562=CARTESIAN_POINT('',(-7.2999999999999,9.54935165294942,1.45082834635023E-11));
#563=CARTESIAN_POINT('',(-7.2999999999999,-5.04935165294969,1.45082834635023E-11));
#564=CARTESIAN_POINT('',(-7.29999999999992,34.3520797229612,1.45082834635023E-11));
#565=CARTESIAN_POINT('',(-7.29999999999989,-5.04935165294969,3.40000000000024));
#566=CARTESIAN_POINT('',(-7.2999999999999,-5.04935165294969,1.45082834635023E-11));
#567=CARTESIAN_POINT('',(-7.2999999999999,5.89967582647464,3.40000000000025));
#568=CARTESIAN_POINT('Origin',(1.20000000000014,2.24999999999987,1.44884659825113E-11));
#569=CARTESIAN_POINT('Origin',(-2.79999999999992,22.6479202770406,1.44977918559188E-11));
#570=CARTESIAN_POINT('',(-2.79999999999991,-4.29792027703988,1.44977918559188E-11));
#571=CARTESIAN_POINT('',(-2.79999999999991,-4.29792027703988,1.44977918559188E-11));
#572=CARTESIAN_POINT('Origin',(-2.79999999999991,-18.1479202770398,1.44977918559188E-11));
#573=CARTESIAN_POINT('',(-6.2999999999999,2.35327812695584,1.45059519951504E-11));
#574=CARTESIAN_POINT('Origin',(-1.29999999999991,2.35327812695584,1.4494294653391E-11));
#575=CARTESIAN_POINT('Origin',(-2.79999999999992,22.6479202770406,1.44977918559188E-11));
#576=CARTESIAN_POINT('Origin',(-1.29999999999991,2.35327812695584,1.4494294653391E-11));
#577=CARTESIAN_POINT('',(-6.2999999999999,2.35327812695584,1.4505723419821E-11));
#578=CARTESIAN_POINT('Origin',(-2.79999999999991,-4.29792027703988,1.44977918559188E-11));
#579=CARTESIAN_POINT('',(-2.7999999999999,-4.29792027703988,3.40000000000024));
#580=CARTESIAN_POINT('',(-0.79999999999988,-4.29792027703987,3.40000000000024));
#581=CARTESIAN_POINT('',(-2.79999999999991,-4.29792027703988,1.44977918559188E-11));
#582=CARTESIAN_POINT('Origin',(-2.79999999999991,-18.1479202770398,1.44977918559188E-11));
#583=CARTESIAN_POINT('Origin',(-2.79999999999991,-18.1479202770398,3.40000000000026));
#584=CARTESIAN_POINT('Origin',(1.20000000000015,2.24999999999987,3.40000000000025));
#585=UNCERTAINTY_MEASURE_WITH_UNIT(LENGTH_MEASURE(0.01),#589,
'DISTANCE_ACCURACY_VALUE',
'Maximum model space distance between geometric entities at asserted c
onnectivities');
#586=UNCERTAINTY_MEASURE_WITH_UNIT(LENGTH_MEASURE(0.01),#589,
'DISTANCE_ACCURACY_VALUE',
'Maximum model space distance between geometric entities at asserted c
onnectivities');
#587=(
GEOMETRIC_REPRESENTATION_CONTEXT(3)
GLOBAL_UNCERTAINTY_ASSIGNED_CONTEXT((#585))
GLOBAL_UNIT_ASSIGNED_CONTEXT((#589,#591,#592))
REPRESENTATION_CONTEXT('','3D')
);
#588=(
GEOMETRIC_REPRESENTATION_CONTEXT(3)
GLOBAL_UNCERTAINTY_ASSIGNED_CONTEXT((#586))
GLOBAL_UNIT_ASSIGNED_CONTEXT((#589,#591,#592))
REPRESENTATION_CONTEXT('','3D')
);
#589=(
LENGTH_UNIT()
NAMED_UNIT(*)
SI_UNIT(.MILLI.,.METRE.)
);
#590=(
LENGTH_UNIT()
NAMED_UNIT(*)
SI_UNIT(.CENTI.,.METRE.)
);
#591=(
NAMED_UNIT(*)
PLANE_ANGLE_UNIT()
SI_UNIT($,.RADIAN.)
);
#592=(
NAMED_UNIT(*)
SI_UNIT($,.STERADIAN.)
SOLID_ANGLE_UNIT()
);
#593=SHAPE_DEFINITION_REPRESENTATION(#594,#595);
#594=PRODUCT_DEFINITION_SHAPE('',$,#597);
#595=SHAPE_REPRESENTATION('',(#353),#587);
#596=PRODUCT_DEFINITION_CONTEXT('part definition',#601,'design');
#597=PRODUCT_DEFINITION('BearigHold','BearigHoldLeft',#598,#596);
#598=PRODUCT_DEFINITION_FORMATION('',$,#603);
#599=PRODUCT_RELATED_PRODUCT_CATEGORY('BearigHoldLeft','BearigHoldLeft',
(#603));
#600=APPLICATION_PROTOCOL_DEFINITION('international standard',
'automotive_design',2009,#601);
#601=APPLICATION_CONTEXT(
'Core Data for Automotive Mechanical Design Process');
#602=PRODUCT_CONTEXT('part definition',#601,'mechanical');
#603=PRODUCT('BearigHold','BearigHoldLeft',$,(#602));
#604=PRESENTATION_STYLE_ASSIGNMENT((#605));
#605=SURFACE_STYLE_USAGE(.BOTH.,#608);
#606=SURFACE_STYLE_RENDERING_WITH_PROPERTIES($,#612,(#607));
#607=SURFACE_STYLE_TRANSPARENT(0.);
#608=SURFACE_SIDE_STYLE('',(#609,#606));
#609=SURFACE_STYLE_FILL_AREA(#610);
#610=FILL_AREA_STYLE('',(#611));
#611=FILL_AREA_STYLE_COLOUR('',#612);
#612=COLOUR_RGB('',0.498039215686275,0.498039215686275,0.498039215686275);
ENDSEC;
END-ISO-10303-21;
