ISO-10303-21;
HEADER;
/* Generated by software containing ST-Developer
 * from STEP Tools, Inc. (www.steptools.com) 
 */

FILE_DESCRIPTION(
/* description */ (''),
/* implementation_level */ '2;1');

FILE_NAME(
/* name */ 'Ceiling.stp',
/* time_stamp */ '2026-04-10T21:51:31+02:00',
/* author */ ('szymo'),
/* organization */ (''),
/* preprocessor_version */ 'ST-DEVELOPER v20.1',
/* originating_system */ 'Autodesk Inventor 2026',
/* authorisation */ '');

FILE_SCHEMA (('AUTOMOTIVE_DESIGN { 1 0 10303 214 3 1 1 }'));
ENDSEC;

DATA;
#10=MECHANICAL_DESIGN_GEOMETRIC_PRESENTATION_REPRESENTATION('',(#13),#1184);
#11=SHAPE_REPRESENTATION_RELATIONSHIP('SRR','None',#1191,#12);
#12=ADVANCED_BREP_SHAPE_REPRESENTATION('',(#14),#1183);
#13=STYLED_ITEM('',(#1200),#14);
#14=MANIFOLD_SOLID_BREP('Solid1',#712);
#15=FACE_BOUND('',#111,.T.);
#16=FACE_BOUND('',#112,.T.);
#17=FACE_BOUND('',#115,.T.);
#18=FACE_BOUND('',#116,.T.);
#19=FACE_BOUND('',#117,.T.);
#20=FACE_BOUND('',#118,.T.);
#21=FACE_BOUND('',#119,.T.);
#22=FACE_BOUND('',#120,.T.);
#23=FACE_BOUND('',#122,.T.);
#24=FACE_BOUND('',#123,.T.);
#25=FACE_BOUND('',#124,.T.);
#26=FACE_BOUND('',#125,.T.);
#27=FACE_BOUND('',#126,.T.);
#28=FACE_BOUND('',#127,.T.);
#29=FACE_BOUND('',#128,.T.);
#30=FACE_BOUND('',#129,.T.);
#31=PLANE('',#767);
#32=PLANE('',#768);
#33=PLANE('',#769);
#34=PLANE('',#770);
#35=PLANE('',#771);
#36=PLANE('',#772);
#37=PLANE('',#773);
#38=PLANE('',#774);
#39=PLANE('',#775);
#40=PLANE('',#776);
#41=PLANE('',#777);
#42=PLANE('',#778);
#43=PLANE('',#779);
#44=PLANE('',#780);
#45=PLANE('',#781);
#46=PLANE('',#782);
#47=PLANE('',#783);
#48=PLANE('',#784);
#49=PLANE('',#785);
#50=PLANE('',#786);
#51=PLANE('',#787);
#52=PLANE('',#788);
#53=PLANE('',#789);
#54=PLANE('',#790);
#55=(
BOUNDED_CURVE()
B_SPLINE_CURVE(2,(#1010,#1011,#1012),.UNSPECIFIED.,.F.,.F.)
B_SPLINE_CURVE_WITH_KNOTS((3,3),(0.,0.0944579632829488),.UNSPECIFIED.)
CURVE()
GEOMETRIC_REPRESENTATION_ITEM()
RATIONAL_B_SPLINE_CURVE((1.,1.05398873555079,1.07832139733284))
REPRESENTATION_ITEM('')
);
#56=(
BOUNDED_CURVE()
B_SPLINE_CURVE(2,(#1016,#1017,#1018),.UNSPECIFIED.,.F.,.F.)
B_SPLINE_CURVE_WITH_KNOTS((3,3),(0.24946254622995,0.343920509512899),
 .UNSPECIFIED.)
CURVE()
GEOMETRIC_REPRESENTATION_ITEM()
RATIONAL_B_SPLINE_CURVE((1.07832139733284,1.05398873555079,1.))
REPRESENTATION_ITEM('')
);
#57=(
BOUNDED_CURVE()
B_SPLINE_CURVE(2,(#1022,#1023,#1024),.UNSPECIFIED.,.F.,.F.)
B_SPLINE_CURVE_WITH_KNOTS((3,3),(0.,0.138962134413459),.UNSPECIFIED.)
CURVE()
GEOMETRIC_REPRESENTATION_ITEM()
RATIONAL_B_SPLINE_CURVE((1.,1.03702945863265,1.))
REPRESENTATION_ITEM('')
);
#58=CYLINDRICAL_SURFACE('',#738,1.7);
#59=CYLINDRICAL_SURFACE('',#765,1.7);
#60=FACE_OUTER_BOUND('',#95,.T.);
#61=FACE_OUTER_BOUND('',#96,.T.);
#62=FACE_OUTER_BOUND('',#97,.T.);
#63=FACE_OUTER_BOUND('',#98,.T.);
#64=FACE_OUTER_BOUND('',#99,.T.);
#65=FACE_OUTER_BOUND('',#100,.T.);
#66=FACE_OUTER_BOUND('',#101,.T.);
#67=FACE_OUTER_BOUND('',#102,.T.);
#68=FACE_OUTER_BOUND('',#103,.T.);
#69=FACE_OUTER_BOUND('',#104,.T.);
#70=FACE_OUTER_BOUND('',#105,.T.);
#71=FACE_OUTER_BOUND('',#106,.T.);
#72=FACE_OUTER_BOUND('',#107,.T.);
#73=FACE_OUTER_BOUND('',#108,.T.);
#74=FACE_OUTER_BOUND('',#109,.T.);
#75=FACE_OUTER_BOUND('',#110,.T.);
#76=FACE_OUTER_BOUND('',#113,.T.);
#77=FACE_OUTER_BOUND('',#114,.T.);
#78=FACE_OUTER_BOUND('',#121,.T.);
#79=FACE_OUTER_BOUND('',#130,.T.);
#80=FACE_OUTER_BOUND('',#131,.T.);
#81=FACE_OUTER_BOUND('',#132,.T.);
#82=FACE_OUTER_BOUND('',#133,.T.);
#83=FACE_OUTER_BOUND('',#134,.T.);
#84=FACE_OUTER_BOUND('',#135,.T.);
#85=FACE_OUTER_BOUND('',#136,.T.);
#86=FACE_OUTER_BOUND('',#137,.T.);
#87=FACE_OUTER_BOUND('',#138,.T.);
#88=FACE_OUTER_BOUND('',#139,.T.);
#89=FACE_OUTER_BOUND('',#140,.T.);
#90=FACE_OUTER_BOUND('',#141,.T.);
#91=FACE_OUTER_BOUND('',#142,.T.);
#92=FACE_OUTER_BOUND('',#143,.T.);
#93=FACE_OUTER_BOUND('',#144,.T.);
#94=FACE_OUTER_BOUND('',#145,.T.);
#95=EDGE_LOOP('',(#474,#475,#476,#477));
#96=EDGE_LOOP('',(#478,#479,#480,#481));
#97=EDGE_LOOP('',(#482,#483,#484,#485));
#98=EDGE_LOOP('',(#486,#487,#488,#489));
#99=EDGE_LOOP('',(#490,#491,#492,#493));
#100=EDGE_LOOP('',(#494,#495,#496,#497,#498,#499));
#101=EDGE_LOOP('',(#500,#501,#502,#503));
#102=EDGE_LOOP('',(#504,#505,#506,#507));
#103=EDGE_LOOP('',(#508,#509,#510,#511));
#104=EDGE_LOOP('',(#512,#513,#514,#515));
#105=EDGE_LOOP('',(#516,#517,#518,#519));
#106=EDGE_LOOP('',(#520,#521,#522,#523,#524,#525));
#107=EDGE_LOOP('',(#526,#527,#528,#529,#530,#531));
#108=EDGE_LOOP('',(#532,#533,#534));
#109=EDGE_LOOP('',(#535,#536,#537,#538));
#110=EDGE_LOOP('',(#539,#540,#541,#542,#543,#544,#545,#546,#547,#548,#549,
#550,#551,#552,#553,#554,#555,#556,#557,#558));
#111=EDGE_LOOP('',(#559));
#112=EDGE_LOOP('',(#560));
#113=EDGE_LOOP('',(#561,#562,#563,#564));
#114=EDGE_LOOP('',(#565,#566,#567,#568,#569,#570,#571,#572,#573));
#115=EDGE_LOOP('',(#574));
#116=EDGE_LOOP('',(#575));
#117=EDGE_LOOP('',(#576));
#118=EDGE_LOOP('',(#577));
#119=EDGE_LOOP('',(#578));
#120=EDGE_LOOP('',(#579));
#121=EDGE_LOOP('',(#580,#581,#582,#583,#584,#585,#586,#587,#588,#589,#590,
#591,#592,#593));
#122=EDGE_LOOP('',(#594));
#123=EDGE_LOOP('',(#595));
#124=EDGE_LOOP('',(#596));
#125=EDGE_LOOP('',(#597));
#126=EDGE_LOOP('',(#598));
#127=EDGE_LOOP('',(#599));
#128=EDGE_LOOP('',(#600));
#129=EDGE_LOOP('',(#601));
#130=EDGE_LOOP('',(#602,#603,#604,#605));
#131=EDGE_LOOP('',(#606,#607,#608,#609));
#132=EDGE_LOOP('',(#610,#611,#612,#613));
#133=EDGE_LOOP('',(#614,#615,#616,#617));
#134=EDGE_LOOP('',(#618,#619,#620,#621));
#135=EDGE_LOOP('',(#622,#623,#624,#625));
#136=EDGE_LOOP('',(#626,#627,#628,#629));
#137=EDGE_LOOP('',(#630,#631,#632,#633));
#138=EDGE_LOOP('',(#634,#635,#636,#637));
#139=EDGE_LOOP('',(#638,#639,#640,#641));
#140=EDGE_LOOP('',(#642,#643,#644,#645));
#141=EDGE_LOOP('',(#646,#647,#648,#649));
#142=EDGE_LOOP('',(#650,#651,#652,#653));
#143=EDGE_LOOP('',(#654,#655,#656,#657));
#144=EDGE_LOOP('',(#658,#659,#660,#661));
#145=EDGE_LOOP('',(#662,#663,#664,#665,#666,#667));
#146=LINE('',#983,#219);
#147=LINE('',#987,#220);
#148=LINE('',#993,#221);
#149=LINE('',#999,#222);
#150=LINE('',#1005,#223);
#151=LINE('',#1030,#224);
#152=LINE('',#1036,#225);
#153=LINE('',#1042,#226);
#154=LINE('',#1048,#227);
#155=LINE('',#1052,#228);
#156=LINE('',#1056,#229);
#157=LINE('',#1058,#230);
#158=LINE('',#1060,#231);
#159=LINE('',#1062,#232);
#160=LINE('',#1063,#233);
#161=LINE('',#1066,#234);
#162=LINE('',#1068,#235);
#163=LINE('',#1069,#236);
#164=LINE('',#1070,#237);
#165=LINE('',#1075,#238);
#166=LINE('',#1077,#239);
#167=LINE('',#1079,#240);
#168=LINE('',#1080,#241);
#169=LINE('',#1083,#242);
#170=LINE('',#1085,#243);
#171=LINE('',#1087,#244);
#172=LINE('',#1089,#245);
#173=LINE('',#1091,#246);
#174=LINE('',#1093,#247);
#175=LINE('',#1095,#248);
#176=LINE('',#1097,#249);
#177=LINE('',#1099,#250);
#178=LINE('',#1101,#251);
#179=LINE('',#1103,#252);
#180=LINE('',#1104,#253);
#181=LINE('',#1106,#254);
#182=LINE('',#1108,#255);
#183=LINE('',#1110,#256);
#184=LINE('',#1112,#257);
#185=LINE('',#1113,#258);
#186=LINE('',#1116,#259);
#187=LINE('',#1117,#260);
#188=LINE('',#1120,#261);
#189=LINE('',#1122,#262);
#190=LINE('',#1124,#263);
#191=LINE('',#1126,#264);
#192=LINE('',#1128,#265);
#193=LINE('',#1130,#266);
#194=LINE('',#1131,#267);
#195=LINE('',#1134,#268);
#196=LINE('',#1136,#269);
#197=LINE('',#1138,#270);
#198=LINE('',#1140,#271);
#199=LINE('',#1141,#272);
#200=LINE('',#1143,#273);
#201=LINE('',#1145,#274);
#202=LINE('',#1147,#275);
#203=LINE('',#1149,#276);
#204=LINE('',#1150,#277);
#205=LINE('',#1152,#278);
#206=LINE('',#1153,#279);
#207=LINE('',#1155,#280);
#208=LINE('',#1157,#281);
#209=LINE('',#1160,#282);
#210=LINE('',#1162,#283);
#211=LINE('',#1164,#284);
#212=LINE('',#1166,#285);
#213=LINE('',#1169,#286);
#214=LINE('',#1171,#287);
#215=LINE('',#1173,#288);
#216=LINE('',#1175,#289);
#217=LINE('',#1177,#290);
#218=LINE('',#1179,#291);
#219=VECTOR('',#797,2.35);
#220=VECTOR('',#802,1.7);
#221=VECTOR('',#809,2.35);
#222=VECTOR('',#816,2.35);
#223=VECTOR('',#823,2.35);
#224=VECTOR('',#838,2.35);
#225=VECTOR('',#845,2.35);
#226=VECTOR('',#852,2.35);
#227=VECTOR('',#859,2.35);
#228=VECTOR('',#864,1.7);
#229=VECTOR('',#869,10.);
#230=VECTOR('',#870,10.);
#231=VECTOR('',#871,10.);
#232=VECTOR('',#872,10.);
#233=VECTOR('',#873,10.);
#234=VECTOR('',#876,10.);
#235=VECTOR('',#877,10.);
#236=VECTOR('',#878,10.);
#237=VECTOR('',#879,10.);
#238=VECTOR('',#884,10.);
#239=VECTOR('',#885,10.);
#240=VECTOR('',#886,10.);
#241=VECTOR('',#887,10.);
#242=VECTOR('',#890,10.);
#243=VECTOR('',#891,10.);
#244=VECTOR('',#892,10.);
#245=VECTOR('',#893,10.);
#246=VECTOR('',#894,10.);
#247=VECTOR('',#895,10.);
#248=VECTOR('',#896,10.);
#249=VECTOR('',#897,10.);
#250=VECTOR('',#898,10.);
#251=VECTOR('',#899,10.);
#252=VECTOR('',#900,10.);
#253=VECTOR('',#901,10.);
#254=VECTOR('',#902,10.);
#255=VECTOR('',#903,10.);
#256=VECTOR('',#904,10.);
#257=VECTOR('',#905,10.);
#258=VECTOR('',#906,10.);
#259=VECTOR('',#909,10.);
#260=VECTOR('',#910,10.);
#261=VECTOR('',#913,10.);
#262=VECTOR('',#914,10.);
#263=VECTOR('',#915,10.);
#264=VECTOR('',#916,10.);
#265=VECTOR('',#917,10.);
#266=VECTOR('',#918,10.);
#267=VECTOR('',#919,10.);
#268=VECTOR('',#922,10.);
#269=VECTOR('',#923,10.);
#270=VECTOR('',#924,10.);
#271=VECTOR('',#925,10.);
#272=VECTOR('',#926,10.);
#273=VECTOR('',#927,10.);
#274=VECTOR('',#928,10.);
#275=VECTOR('',#929,10.);
#276=VECTOR('',#930,10.);
#277=VECTOR('',#931,10.);
#278=VECTOR('',#934,10.);
#279=VECTOR('',#935,10.);
#280=VECTOR('',#938,10.);
#281=VECTOR('',#941,10.);
#282=VECTOR('',#946,10.);
#283=VECTOR('',#949,10.);
#284=VECTOR('',#952,10.);
#285=VECTOR('',#955,10.);
#286=VECTOR('',#960,10.);
#287=VECTOR('',#963,10.);
#288=VECTOR('',#966,10.);
#289=VECTOR('',#969,10.);
#290=VECTOR('',#972,10.);
#291=VECTOR('',#975,10.);
#292=CIRCLE('',#736,3.);
#293=CIRCLE('',#737,1.7);
#294=CIRCLE('',#739,1.7);
#295=CIRCLE('',#741,3.);
#296=CIRCLE('',#742,2.6);
#297=CIRCLE('',#744,3.);
#298=CIRCLE('',#745,2.6);
#299=CIRCLE('',#747,3.);
#300=CIRCLE('',#748,2.6);
#301=CIRCLE('',#750,3.);
#302=CIRCLE('',#751,2.6);
#303=CIRCLE('',#752,2.6);
#304=CIRCLE('',#754,3.);
#305=CIRCLE('',#755,2.6);
#306=CIRCLE('',#757,3.);
#307=CIRCLE('',#758,2.6);
#308=CIRCLE('',#760,3.);
#309=CIRCLE('',#761,2.6);
#310=CIRCLE('',#763,3.);
#311=CIRCLE('',#764,1.7);
#312=CIRCLE('',#766,1.7);
#313=VERTEX_POINT('',#980);
#314=VERTEX_POINT('',#982);
#315=VERTEX_POINT('',#986);
#316=VERTEX_POINT('',#990);
#317=VERTEX_POINT('',#992);
#318=VERTEX_POINT('',#996);
#319=VERTEX_POINT('',#998);
#320=VERTEX_POINT('',#1002);
#321=VERTEX_POINT('',#1004);
#322=VERTEX_POINT('',#1008);
#323=VERTEX_POINT('',#1009);
#324=VERTEX_POINT('',#1013);
#325=VERTEX_POINT('',#1015);
#326=VERTEX_POINT('',#1019);
#327=VERTEX_POINT('',#1021);
#328=VERTEX_POINT('',#1027);
#329=VERTEX_POINT('',#1029);
#330=VERTEX_POINT('',#1033);
#331=VERTEX_POINT('',#1035);
#332=VERTEX_POINT('',#1039);
#333=VERTEX_POINT('',#1041);
#334=VERTEX_POINT('',#1045);
#335=VERTEX_POINT('',#1047);
#336=VERTEX_POINT('',#1051);
#337=VERTEX_POINT('',#1055);
#338=VERTEX_POINT('',#1057);
#339=VERTEX_POINT('',#1059);
#340=VERTEX_POINT('',#1061);
#341=VERTEX_POINT('',#1065);
#342=VERTEX_POINT('',#1067);
#343=VERTEX_POINT('',#1073);
#344=VERTEX_POINT('',#1074);
#345=VERTEX_POINT('',#1076);
#346=VERTEX_POINT('',#1078);
#347=VERTEX_POINT('',#1082);
#348=VERTEX_POINT('',#1084);
#349=VERTEX_POINT('',#1086);
#350=VERTEX_POINT('',#1088);
#351=VERTEX_POINT('',#1090);
#352=VERTEX_POINT('',#1092);
#353=VERTEX_POINT('',#1094);
#354=VERTEX_POINT('',#1096);
#355=VERTEX_POINT('',#1098);
#356=VERTEX_POINT('',#1100);
#357=VERTEX_POINT('',#1102);
#358=VERTEX_POINT('',#1105);
#359=VERTEX_POINT('',#1107);
#360=VERTEX_POINT('',#1109);
#361=VERTEX_POINT('',#1111);
#362=VERTEX_POINT('',#1115);
#363=VERTEX_POINT('',#1119);
#364=VERTEX_POINT('',#1121);
#365=VERTEX_POINT('',#1123);
#366=VERTEX_POINT('',#1125);
#367=VERTEX_POINT('',#1127);
#368=VERTEX_POINT('',#1129);
#369=VERTEX_POINT('',#1133);
#370=VERTEX_POINT('',#1135);
#371=VERTEX_POINT('',#1137);
#372=VERTEX_POINT('',#1139);
#373=VERTEX_POINT('',#1142);
#374=VERTEX_POINT('',#1144);
#375=VERTEX_POINT('',#1146);
#376=VERTEX_POINT('',#1148);
#377=EDGE_CURVE('',#313,#313,#292,.T.);
#378=EDGE_CURVE('',#313,#314,#146,.T.);
#379=EDGE_CURVE('',#314,#314,#293,.T.);
#380=EDGE_CURVE('',#314,#315,#147,.T.);
#381=EDGE_CURVE('',#315,#315,#294,.T.);
#382=EDGE_CURVE('',#316,#316,#295,.T.);
#383=EDGE_CURVE('',#316,#317,#148,.T.);
#384=EDGE_CURVE('',#317,#317,#296,.T.);
#385=EDGE_CURVE('',#318,#318,#297,.T.);
#386=EDGE_CURVE('',#318,#319,#149,.T.);
#387=EDGE_CURVE('',#319,#319,#298,.T.);
#388=EDGE_CURVE('',#320,#320,#299,.T.);
#389=EDGE_CURVE('',#320,#321,#150,.T.);
#390=EDGE_CURVE('',#321,#321,#300,.T.);
#391=EDGE_CURVE('',#322,#323,#55,.T.);
#392=EDGE_CURVE('',#324,#322,#301,.T.);
#393=EDGE_CURVE('',#325,#324,#56,.T.);
#394=EDGE_CURVE('',#326,#325,#302,.T.);
#395=EDGE_CURVE('',#327,#326,#57,.T.);
#396=EDGE_CURVE('',#323,#327,#303,.T.);
#397=EDGE_CURVE('',#328,#328,#304,.T.);
#398=EDGE_CURVE('',#328,#329,#151,.T.);
#399=EDGE_CURVE('',#329,#329,#305,.T.);
#400=EDGE_CURVE('',#330,#330,#306,.T.);
#401=EDGE_CURVE('',#330,#331,#152,.T.);
#402=EDGE_CURVE('',#331,#331,#307,.T.);
#403=EDGE_CURVE('',#332,#332,#308,.T.);
#404=EDGE_CURVE('',#332,#333,#153,.T.);
#405=EDGE_CURVE('',#333,#333,#309,.T.);
#406=EDGE_CURVE('',#334,#334,#310,.T.);
#407=EDGE_CURVE('',#334,#335,#154,.T.);
#408=EDGE_CURVE('',#335,#335,#311,.T.);
#409=EDGE_CURVE('',#335,#336,#155,.T.);
#410=EDGE_CURVE('',#336,#336,#312,.T.);
#411=EDGE_CURVE('',#326,#337,#156,.T.);
#412=EDGE_CURVE('',#337,#338,#157,.T.);
#413=EDGE_CURVE('',#339,#338,#158,.T.);
#414=EDGE_CURVE('',#340,#339,#159,.T.);
#415=EDGE_CURVE('',#340,#327,#160,.T.);
#416=EDGE_CURVE('',#341,#324,#161,.T.);
#417=EDGE_CURVE('',#341,#342,#162,.T.);
#418=EDGE_CURVE('',#338,#342,#163,.T.);
#419=EDGE_CURVE('',#325,#337,#164,.T.);
#420=EDGE_CURVE('',#343,#344,#165,.T.);
#421=EDGE_CURVE('',#345,#343,#166,.T.);
#422=EDGE_CURVE('',#346,#345,#167,.T.);
#423=EDGE_CURVE('',#344,#346,#168,.T.);
#424=EDGE_CURVE('',#346,#347,#169,.T.);
#425=EDGE_CURVE('',#347,#348,#170,.T.);
#426=EDGE_CURVE('',#348,#349,#171,.T.);
#427=EDGE_CURVE('',#349,#350,#172,.T.);
#428=EDGE_CURVE('',#350,#351,#173,.T.);
#429=EDGE_CURVE('',#351,#352,#174,.T.);
#430=EDGE_CURVE('',#352,#353,#175,.T.);
#431=EDGE_CURVE('',#353,#354,#176,.T.);
#432=EDGE_CURVE('',#354,#355,#177,.T.);
#433=EDGE_CURVE('',#355,#356,#178,.T.);
#434=EDGE_CURVE('',#356,#357,#179,.T.);
#435=EDGE_CURVE('',#357,#339,#180,.T.);
#436=EDGE_CURVE('',#342,#358,#181,.T.);
#437=EDGE_CURVE('',#358,#359,#182,.T.);
#438=EDGE_CURVE('',#359,#360,#183,.T.);
#439=EDGE_CURVE('',#360,#361,#184,.T.);
#440=EDGE_CURVE('',#361,#344,#185,.T.);
#441=EDGE_CURVE('',#362,#345,#186,.T.);
#442=EDGE_CURVE('',#362,#347,#187,.T.);
#443=EDGE_CURVE('',#363,#340,#188,.T.);
#444=EDGE_CURVE('',#364,#363,#189,.T.);
#445=EDGE_CURVE('',#365,#364,#190,.T.);
#446=EDGE_CURVE('',#366,#365,#191,.T.);
#447=EDGE_CURVE('',#367,#366,#192,.T.);
#448=EDGE_CURVE('',#368,#367,#193,.T.);
#449=EDGE_CURVE('',#368,#323,#194,.T.);
#450=EDGE_CURVE('',#322,#369,#195,.T.);
#451=EDGE_CURVE('',#369,#370,#196,.T.);
#452=EDGE_CURVE('',#370,#371,#197,.T.);
#453=EDGE_CURVE('',#371,#372,#198,.T.);
#454=EDGE_CURVE('',#372,#362,#199,.T.);
#455=EDGE_CURVE('',#343,#373,#200,.T.);
#456=EDGE_CURVE('',#373,#374,#201,.T.);
#457=EDGE_CURVE('',#374,#375,#202,.T.);
#458=EDGE_CURVE('',#375,#376,#203,.T.);
#459=EDGE_CURVE('',#376,#341,#204,.T.);
#460=EDGE_CURVE('',#351,#369,#205,.T.);
#461=EDGE_CURVE('',#370,#350,#206,.T.);
#462=EDGE_CURVE('',#371,#349,#207,.T.);
#463=EDGE_CURVE('',#372,#348,#208,.T.);
#464=EDGE_CURVE('',#373,#361,#209,.T.);
#465=EDGE_CURVE('',#374,#360,#210,.T.);
#466=EDGE_CURVE('',#375,#359,#211,.T.);
#467=EDGE_CURVE('',#376,#358,#212,.T.);
#468=EDGE_CURVE('',#363,#357,#213,.T.);
#469=EDGE_CURVE('',#364,#356,#214,.T.);
#470=EDGE_CURVE('',#365,#355,#215,.T.);
#471=EDGE_CURVE('',#366,#354,#216,.T.);
#472=EDGE_CURVE('',#367,#353,#217,.T.);
#473=EDGE_CURVE('',#368,#352,#218,.T.);
#474=ORIENTED_EDGE('',*,*,#377,.F.);
#475=ORIENTED_EDGE('',*,*,#378,.T.);
#476=ORIENTED_EDGE('',*,*,#379,.F.);
#477=ORIENTED_EDGE('',*,*,#378,.F.);
#478=ORIENTED_EDGE('',*,*,#379,.T.);
#479=ORIENTED_EDGE('',*,*,#380,.T.);
#480=ORIENTED_EDGE('',*,*,#381,.F.);
#481=ORIENTED_EDGE('',*,*,#380,.F.);
#482=ORIENTED_EDGE('',*,*,#382,.F.);
#483=ORIENTED_EDGE('',*,*,#383,.T.);
#484=ORIENTED_EDGE('',*,*,#384,.F.);
#485=ORIENTED_EDGE('',*,*,#383,.F.);
#486=ORIENTED_EDGE('',*,*,#385,.F.);
#487=ORIENTED_EDGE('',*,*,#386,.T.);
#488=ORIENTED_EDGE('',*,*,#387,.F.);
#489=ORIENTED_EDGE('',*,*,#386,.F.);
#490=ORIENTED_EDGE('',*,*,#388,.F.);
#491=ORIENTED_EDGE('',*,*,#389,.T.);
#492=ORIENTED_EDGE('',*,*,#390,.F.);
#493=ORIENTED_EDGE('',*,*,#389,.F.);
#494=ORIENTED_EDGE('',*,*,#391,.F.);
#495=ORIENTED_EDGE('',*,*,#392,.F.);
#496=ORIENTED_EDGE('',*,*,#393,.F.);
#497=ORIENTED_EDGE('',*,*,#394,.F.);
#498=ORIENTED_EDGE('',*,*,#395,.F.);
#499=ORIENTED_EDGE('',*,*,#396,.F.);
#500=ORIENTED_EDGE('',*,*,#397,.F.);
#501=ORIENTED_EDGE('',*,*,#398,.T.);
#502=ORIENTED_EDGE('',*,*,#399,.F.);
#503=ORIENTED_EDGE('',*,*,#398,.F.);
#504=ORIENTED_EDGE('',*,*,#400,.F.);
#505=ORIENTED_EDGE('',*,*,#401,.T.);
#506=ORIENTED_EDGE('',*,*,#402,.F.);
#507=ORIENTED_EDGE('',*,*,#401,.F.);
#508=ORIENTED_EDGE('',*,*,#403,.F.);
#509=ORIENTED_EDGE('',*,*,#404,.T.);
#510=ORIENTED_EDGE('',*,*,#405,.F.);
#511=ORIENTED_EDGE('',*,*,#404,.F.);
#512=ORIENTED_EDGE('',*,*,#406,.F.);
#513=ORIENTED_EDGE('',*,*,#407,.T.);
#514=ORIENTED_EDGE('',*,*,#408,.F.);
#515=ORIENTED_EDGE('',*,*,#407,.F.);
#516=ORIENTED_EDGE('',*,*,#408,.T.);
#517=ORIENTED_EDGE('',*,*,#409,.T.);
#518=ORIENTED_EDGE('',*,*,#410,.F.);
#519=ORIENTED_EDGE('',*,*,#409,.F.);
#520=ORIENTED_EDGE('',*,*,#395,.T.);
#521=ORIENTED_EDGE('',*,*,#411,.T.);
#522=ORIENTED_EDGE('',*,*,#412,.T.);
#523=ORIENTED_EDGE('',*,*,#413,.F.);
#524=ORIENTED_EDGE('',*,*,#414,.F.);
#525=ORIENTED_EDGE('',*,*,#415,.T.);
#526=ORIENTED_EDGE('',*,*,#393,.T.);
#527=ORIENTED_EDGE('',*,*,#416,.F.);
#528=ORIENTED_EDGE('',*,*,#417,.T.);
#529=ORIENTED_EDGE('',*,*,#418,.F.);
#530=ORIENTED_EDGE('',*,*,#412,.F.);
#531=ORIENTED_EDGE('',*,*,#419,.F.);
#532=ORIENTED_EDGE('',*,*,#394,.T.);
#533=ORIENTED_EDGE('',*,*,#419,.T.);
#534=ORIENTED_EDGE('',*,*,#411,.F.);
#535=ORIENTED_EDGE('',*,*,#420,.F.);
#536=ORIENTED_EDGE('',*,*,#421,.F.);
#537=ORIENTED_EDGE('',*,*,#422,.F.);
#538=ORIENTED_EDGE('',*,*,#423,.F.);
#539=ORIENTED_EDGE('',*,*,#423,.T.);
#540=ORIENTED_EDGE('',*,*,#424,.T.);
#541=ORIENTED_EDGE('',*,*,#425,.T.);
#542=ORIENTED_EDGE('',*,*,#426,.T.);
#543=ORIENTED_EDGE('',*,*,#427,.T.);
#544=ORIENTED_EDGE('',*,*,#428,.T.);
#545=ORIENTED_EDGE('',*,*,#429,.T.);
#546=ORIENTED_EDGE('',*,*,#430,.T.);
#547=ORIENTED_EDGE('',*,*,#431,.T.);
#548=ORIENTED_EDGE('',*,*,#432,.T.);
#549=ORIENTED_EDGE('',*,*,#433,.T.);
#550=ORIENTED_EDGE('',*,*,#434,.T.);
#551=ORIENTED_EDGE('',*,*,#435,.T.);
#552=ORIENTED_EDGE('',*,*,#413,.T.);
#553=ORIENTED_EDGE('',*,*,#418,.T.);
#554=ORIENTED_EDGE('',*,*,#436,.T.);
#555=ORIENTED_EDGE('',*,*,#437,.T.);
#556=ORIENTED_EDGE('',*,*,#438,.T.);
#557=ORIENTED_EDGE('',*,*,#439,.T.);
#558=ORIENTED_EDGE('',*,*,#440,.T.);
#559=ORIENTED_EDGE('',*,*,#381,.T.);
#560=ORIENTED_EDGE('',*,*,#410,.T.);
#561=ORIENTED_EDGE('',*,*,#422,.T.);
#562=ORIENTED_EDGE('',*,*,#441,.F.);
#563=ORIENTED_EDGE('',*,*,#442,.T.);
#564=ORIENTED_EDGE('',*,*,#424,.F.);
#565=ORIENTED_EDGE('',*,*,#396,.T.);
#566=ORIENTED_EDGE('',*,*,#415,.F.);
#567=ORIENTED_EDGE('',*,*,#443,.F.);
#568=ORIENTED_EDGE('',*,*,#444,.F.);
#569=ORIENTED_EDGE('',*,*,#445,.F.);
#570=ORIENTED_EDGE('',*,*,#446,.F.);
#571=ORIENTED_EDGE('',*,*,#447,.F.);
#572=ORIENTED_EDGE('',*,*,#448,.F.);
#573=ORIENTED_EDGE('',*,*,#449,.T.);
#574=ORIENTED_EDGE('',*,*,#384,.T.);
#575=ORIENTED_EDGE('',*,*,#387,.T.);
#576=ORIENTED_EDGE('',*,*,#390,.T.);
#577=ORIENTED_EDGE('',*,*,#399,.T.);
#578=ORIENTED_EDGE('',*,*,#402,.T.);
#579=ORIENTED_EDGE('',*,*,#405,.T.);
#580=ORIENTED_EDGE('',*,*,#392,.T.);
#581=ORIENTED_EDGE('',*,*,#450,.T.);
#582=ORIENTED_EDGE('',*,*,#451,.T.);
#583=ORIENTED_EDGE('',*,*,#452,.T.);
#584=ORIENTED_EDGE('',*,*,#453,.T.);
#585=ORIENTED_EDGE('',*,*,#454,.T.);
#586=ORIENTED_EDGE('',*,*,#441,.T.);
#587=ORIENTED_EDGE('',*,*,#421,.T.);
#588=ORIENTED_EDGE('',*,*,#455,.T.);
#589=ORIENTED_EDGE('',*,*,#456,.T.);
#590=ORIENTED_EDGE('',*,*,#457,.T.);
#591=ORIENTED_EDGE('',*,*,#458,.T.);
#592=ORIENTED_EDGE('',*,*,#459,.T.);
#593=ORIENTED_EDGE('',*,*,#416,.T.);
#594=ORIENTED_EDGE('',*,*,#377,.T.);
#595=ORIENTED_EDGE('',*,*,#382,.T.);
#596=ORIENTED_EDGE('',*,*,#385,.T.);
#597=ORIENTED_EDGE('',*,*,#388,.T.);
#598=ORIENTED_EDGE('',*,*,#397,.T.);
#599=ORIENTED_EDGE('',*,*,#400,.T.);
#600=ORIENTED_EDGE('',*,*,#403,.T.);
#601=ORIENTED_EDGE('',*,*,#406,.T.);
#602=ORIENTED_EDGE('',*,*,#460,.F.);
#603=ORIENTED_EDGE('',*,*,#428,.F.);
#604=ORIENTED_EDGE('',*,*,#461,.F.);
#605=ORIENTED_EDGE('',*,*,#451,.F.);
#606=ORIENTED_EDGE('',*,*,#461,.T.);
#607=ORIENTED_EDGE('',*,*,#427,.F.);
#608=ORIENTED_EDGE('',*,*,#462,.F.);
#609=ORIENTED_EDGE('',*,*,#452,.F.);
#610=ORIENTED_EDGE('',*,*,#462,.T.);
#611=ORIENTED_EDGE('',*,*,#426,.F.);
#612=ORIENTED_EDGE('',*,*,#463,.F.);
#613=ORIENTED_EDGE('',*,*,#453,.F.);
#614=ORIENTED_EDGE('',*,*,#463,.T.);
#615=ORIENTED_EDGE('',*,*,#425,.F.);
#616=ORIENTED_EDGE('',*,*,#442,.F.);
#617=ORIENTED_EDGE('',*,*,#454,.F.);
#618=ORIENTED_EDGE('',*,*,#420,.T.);
#619=ORIENTED_EDGE('',*,*,#440,.F.);
#620=ORIENTED_EDGE('',*,*,#464,.F.);
#621=ORIENTED_EDGE('',*,*,#455,.F.);
#622=ORIENTED_EDGE('',*,*,#464,.T.);
#623=ORIENTED_EDGE('',*,*,#439,.F.);
#624=ORIENTED_EDGE('',*,*,#465,.F.);
#625=ORIENTED_EDGE('',*,*,#456,.F.);
#626=ORIENTED_EDGE('',*,*,#465,.T.);
#627=ORIENTED_EDGE('',*,*,#438,.F.);
#628=ORIENTED_EDGE('',*,*,#466,.F.);
#629=ORIENTED_EDGE('',*,*,#457,.F.);
#630=ORIENTED_EDGE('',*,*,#466,.T.);
#631=ORIENTED_EDGE('',*,*,#437,.F.);
#632=ORIENTED_EDGE('',*,*,#467,.F.);
#633=ORIENTED_EDGE('',*,*,#458,.F.);
#634=ORIENTED_EDGE('',*,*,#467,.T.);
#635=ORIENTED_EDGE('',*,*,#436,.F.);
#636=ORIENTED_EDGE('',*,*,#417,.F.);
#637=ORIENTED_EDGE('',*,*,#459,.F.);
#638=ORIENTED_EDGE('',*,*,#443,.T.);
#639=ORIENTED_EDGE('',*,*,#414,.T.);
#640=ORIENTED_EDGE('',*,*,#435,.F.);
#641=ORIENTED_EDGE('',*,*,#468,.F.);
#642=ORIENTED_EDGE('',*,*,#444,.T.);
#643=ORIENTED_EDGE('',*,*,#468,.T.);
#644=ORIENTED_EDGE('',*,*,#434,.F.);
#645=ORIENTED_EDGE('',*,*,#469,.F.);
#646=ORIENTED_EDGE('',*,*,#445,.T.);
#647=ORIENTED_EDGE('',*,*,#469,.T.);
#648=ORIENTED_EDGE('',*,*,#433,.F.);
#649=ORIENTED_EDGE('',*,*,#470,.F.);
#650=ORIENTED_EDGE('',*,*,#446,.T.);
#651=ORIENTED_EDGE('',*,*,#470,.T.);
#652=ORIENTED_EDGE('',*,*,#432,.F.);
#653=ORIENTED_EDGE('',*,*,#471,.F.);
#654=ORIENTED_EDGE('',*,*,#447,.T.);
#655=ORIENTED_EDGE('',*,*,#471,.T.);
#656=ORIENTED_EDGE('',*,*,#431,.F.);
#657=ORIENTED_EDGE('',*,*,#472,.F.);
#658=ORIENTED_EDGE('',*,*,#448,.T.);
#659=ORIENTED_EDGE('',*,*,#472,.T.);
#660=ORIENTED_EDGE('',*,*,#430,.F.);
#661=ORIENTED_EDGE('',*,*,#473,.F.);
#662=ORIENTED_EDGE('',*,*,#391,.T.);
#663=ORIENTED_EDGE('',*,*,#449,.F.);
#664=ORIENTED_EDGE('',*,*,#473,.T.);
#665=ORIENTED_EDGE('',*,*,#429,.F.);
#666=ORIENTED_EDGE('',*,*,#460,.T.);
#667=ORIENTED_EDGE('',*,*,#450,.F.);
#668=CONICAL_SURFACE('',#735,2.35,0.785398163397448);
#669=CONICAL_SURFACE('',#740,2.35,0.785398163397448);
#670=CONICAL_SURFACE('',#743,2.35,0.785398163397448);
#671=CONICAL_SURFACE('',#746,2.35,0.785398163397448);
#672=CONICAL_SURFACE('',#749,2.35,0.785398163397448);
#673=CONICAL_SURFACE('',#753,2.35,0.785398163397448);
#674=CONICAL_SURFACE('',#756,2.35,0.785398163397448);
#675=CONICAL_SURFACE('',#759,2.35,0.785398163397448);
#676=CONICAL_SURFACE('',#762,2.35,0.785398163397448);
#677=ADVANCED_FACE('',(#60),#668,.F.);
#678=ADVANCED_FACE('',(#61),#58,.F.);
#679=ADVANCED_FACE('',(#62),#669,.F.);
#680=ADVANCED_FACE('',(#63),#670,.F.);
#681=ADVANCED_FACE('',(#64),#671,.F.);
#682=ADVANCED_FACE('',(#65),#672,.F.);
#683=ADVANCED_FACE('',(#66),#673,.F.);
#684=ADVANCED_FACE('',(#67),#674,.F.);
#685=ADVANCED_FACE('',(#68),#675,.F.);
#686=ADVANCED_FACE('',(#69),#676,.F.);
#687=ADVANCED_FACE('',(#70),#59,.F.);
#688=ADVANCED_FACE('',(#71),#31,.T.);
#689=ADVANCED_FACE('',(#72),#32,.T.);
#690=ADVANCED_FACE('',(#73),#33,.T.);
#691=ADVANCED_FACE('',(#74),#34,.F.);
#692=ADVANCED_FACE('',(#75,#15,#16),#35,.T.);
#693=ADVANCED_FACE('',(#76),#36,.T.);
#694=ADVANCED_FACE('',(#77,#17,#18,#19,#20,#21,#22),#37,.T.);
#695=ADVANCED_FACE('',(#78,#23,#24,#25,#26,#27,#28,#29,#30),#38,.T.);
#696=ADVANCED_FACE('',(#79),#39,.T.);
#697=ADVANCED_FACE('',(#80),#40,.T.);
#698=ADVANCED_FACE('',(#81),#41,.T.);
#699=ADVANCED_FACE('',(#82),#42,.T.);
#700=ADVANCED_FACE('',(#83),#43,.T.);
#701=ADVANCED_FACE('',(#84),#44,.T.);
#702=ADVANCED_FACE('',(#85),#45,.T.);
#703=ADVANCED_FACE('',(#86),#46,.T.);
#704=ADVANCED_FACE('',(#87),#47,.T.);
#705=ADVANCED_FACE('',(#88),#48,.T.);
#706=ADVANCED_FACE('',(#89),#49,.T.);
#707=ADVANCED_FACE('',(#90),#50,.T.);
#708=ADVANCED_FACE('',(#91),#51,.T.);
#709=ADVANCED_FACE('',(#92),#52,.T.);
#710=ADVANCED_FACE('',(#93),#53,.T.);
#711=ADVANCED_FACE('',(#94),#54,.T.);
#712=CLOSED_SHELL('',(#677,#678,#679,#680,#681,#682,#683,#684,#685,#686,
#687,#688,#689,#690,#691,#692,#693,#694,#695,#696,#697,#698,#699,#700,#701,
#702,#703,#704,#705,#706,#707,#708,#709,#710,#711));
#713=DERIVED_UNIT_ELEMENT(#716,1.);
#714=DERIVED_UNIT_ELEMENT(#1186,-3.);
#715=DIMENSIONAL_EXPONENTS(0.,1.,0.,0.,0.,0.,0.);
#716=(
CONVERSION_BASED_UNIT('gram',#718)
MASS_UNIT()
NAMED_UNIT(#715)
);
#717=(
MASS_UNIT()
NAMED_UNIT(*)
SI_UNIT(.KILO.,.GRAM.)
);
#718=MASS_MEASURE_WITH_UNIT(MASS_MEASURE(0.001),#717);
#719=DERIVED_UNIT((#713,#714));
#720=MEASURE_REPRESENTATION_ITEM('density measure',
POSITIVE_RATIO_MEASURE(1.),#719);
#721=PROPERTY_DEFINITION_REPRESENTATION(#726,#723);
#722=PROPERTY_DEFINITION_REPRESENTATION(#727,#724);
#723=REPRESENTATION('material name',(#725),#1183);
#724=REPRESENTATION('density',(#720),#1183);
#725=DESCRIPTIVE_REPRESENTATION_ITEM('Generic','Generic');
#726=PROPERTY_DEFINITION('material property','material name',#1193);
#727=PROPERTY_DEFINITION('material property','density of part',#1193);
#728=DATE_TIME_ROLE('creation_date');
#729=APPLIED_DATE_AND_TIME_ASSIGNMENT(#730,#728,(#1193));
#730=DATE_AND_TIME(#731,#732);
#731=CALENDAR_DATE(2026,7,4);
#732=LOCAL_TIME(0,0,0.,#733);
#733=COORDINATED_UNIVERSAL_TIME_OFFSET(0,0,.BEHIND.);
#734=AXIS2_PLACEMENT_3D('',#978,#791,#792);
#735=AXIS2_PLACEMENT_3D('',#979,#793,#794);
#736=AXIS2_PLACEMENT_3D('',#981,#795,#796);
#737=AXIS2_PLACEMENT_3D('',#984,#798,#799);
#738=AXIS2_PLACEMENT_3D('',#985,#800,#801);
#739=AXIS2_PLACEMENT_3D('',#988,#803,#804);
#740=AXIS2_PLACEMENT_3D('',#989,#805,#806);
#741=AXIS2_PLACEMENT_3D('',#991,#807,#808);
#742=AXIS2_PLACEMENT_3D('',#994,#810,#811);
#743=AXIS2_PLACEMENT_3D('',#995,#812,#813);
#744=AXIS2_PLACEMENT_3D('',#997,#814,#815);
#745=AXIS2_PLACEMENT_3D('',#1000,#817,#818);
#746=AXIS2_PLACEMENT_3D('',#1001,#819,#820);
#747=AXIS2_PLACEMENT_3D('',#1003,#821,#822);
#748=AXIS2_PLACEMENT_3D('',#1006,#824,#825);
#749=AXIS2_PLACEMENT_3D('',#1007,#826,#827);
#750=AXIS2_PLACEMENT_3D('',#1014,#828,#829);
#751=AXIS2_PLACEMENT_3D('',#1020,#830,#831);
#752=AXIS2_PLACEMENT_3D('',#1025,#832,#833);
#753=AXIS2_PLACEMENT_3D('',#1026,#834,#835);
#754=AXIS2_PLACEMENT_3D('',#1028,#836,#837);
#755=AXIS2_PLACEMENT_3D('',#1031,#839,#840);
#756=AXIS2_PLACEMENT_3D('',#1032,#841,#842);
#757=AXIS2_PLACEMENT_3D('',#1034,#843,#844);
#758=AXIS2_PLACEMENT_3D('',#1037,#846,#847);
#759=AXIS2_PLACEMENT_3D('',#1038,#848,#849);
#760=AXIS2_PLACEMENT_3D('',#1040,#850,#851);
#761=AXIS2_PLACEMENT_3D('',#1043,#853,#854);
#762=AXIS2_PLACEMENT_3D('',#1044,#855,#856);
#763=AXIS2_PLACEMENT_3D('',#1046,#857,#858);
#764=AXIS2_PLACEMENT_3D('',#1049,#860,#861);
#765=AXIS2_PLACEMENT_3D('',#1050,#862,#863);
#766=AXIS2_PLACEMENT_3D('',#1053,#865,#866);
#767=AXIS2_PLACEMENT_3D('',#1054,#867,#868);
#768=AXIS2_PLACEMENT_3D('',#1064,#874,#875);
#769=AXIS2_PLACEMENT_3D('',#1071,#880,#881);
#770=AXIS2_PLACEMENT_3D('',#1072,#882,#883);
#771=AXIS2_PLACEMENT_3D('',#1081,#888,#889);
#772=AXIS2_PLACEMENT_3D('',#1114,#907,#908);
#773=AXIS2_PLACEMENT_3D('',#1118,#911,#912);
#774=AXIS2_PLACEMENT_3D('',#1132,#920,#921);
#775=AXIS2_PLACEMENT_3D('',#1151,#932,#933);
#776=AXIS2_PLACEMENT_3D('',#1154,#936,#937);
#777=AXIS2_PLACEMENT_3D('',#1156,#939,#940);
#778=AXIS2_PLACEMENT_3D('',#1158,#942,#943);
#779=AXIS2_PLACEMENT_3D('',#1159,#944,#945);
#780=AXIS2_PLACEMENT_3D('',#1161,#947,#948);
#781=AXIS2_PLACEMENT_3D('',#1163,#950,#951);
#782=AXIS2_PLACEMENT_3D('',#1165,#953,#954);
#783=AXIS2_PLACEMENT_3D('',#1167,#956,#957);
#784=AXIS2_PLACEMENT_3D('',#1168,#958,#959);
#785=AXIS2_PLACEMENT_3D('',#1170,#961,#962);
#786=AXIS2_PLACEMENT_3D('',#1172,#964,#965);
#787=AXIS2_PLACEMENT_3D('',#1174,#967,#968);
#788=AXIS2_PLACEMENT_3D('',#1176,#970,#971);
#789=AXIS2_PLACEMENT_3D('',#1178,#973,#974);
#790=AXIS2_PLACEMENT_3D('',#1180,#976,#977);
#791=DIRECTION('axis',(0.,0.,1.));
#792=DIRECTION('refdir',(1.,0.,0.));
#793=DIRECTION('center_axis',(0.,0.,-1.));
#794=DIRECTION('ref_axis',(-1.,0.,0.));
#795=DIRECTION('center_axis',(0.,0.,1.));
#796=DIRECTION('ref_axis',(-1.,0.,0.));
#797=DIRECTION('',(-0.707106781186547,8.65956056235493E-17,0.707106781186548));
#798=DIRECTION('center_axis',(0.,0.,-1.));
#799=DIRECTION('ref_axis',(-1.,0.,0.));
#800=DIRECTION('center_axis',(0.,0.,-1.));
#801=DIRECTION('ref_axis',(-1.,0.,0.));
#802=DIRECTION('',(0.,0.,1.));
#803=DIRECTION('center_axis',(0.,0.,-1.));
#804=DIRECTION('ref_axis',(-1.,0.,0.));
#805=DIRECTION('center_axis',(0.,0.,-1.));
#806=DIRECTION('ref_axis',(-1.,0.,0.));
#807=DIRECTION('center_axis',(0.,0.,1.));
#808=DIRECTION('ref_axis',(-1.,0.,0.));
#809=DIRECTION('',(-0.707106781186547,8.65956056235493E-17,0.707106781186548));
#810=DIRECTION('center_axis',(0.,0.,-1.));
#811=DIRECTION('ref_axis',(-1.,0.,0.));
#812=DIRECTION('center_axis',(0.,0.,-1.));
#813=DIRECTION('ref_axis',(-1.,0.,0.));
#814=DIRECTION('center_axis',(0.,0.,1.));
#815=DIRECTION('ref_axis',(-1.,0.,0.));
#816=DIRECTION('',(-0.707106781186547,8.65956056235493E-17,0.707106781186548));
#817=DIRECTION('center_axis',(0.,0.,-1.));
#818=DIRECTION('ref_axis',(-1.,0.,0.));
#819=DIRECTION('center_axis',(0.,0.,-1.));
#820=DIRECTION('ref_axis',(-1.,0.,0.));
#821=DIRECTION('center_axis',(0.,0.,1.));
#822=DIRECTION('ref_axis',(-1.,0.,0.));
#823=DIRECTION('',(-0.707106781186547,8.65956056235493E-17,0.707106781186548));
#824=DIRECTION('center_axis',(0.,0.,-1.));
#825=DIRECTION('ref_axis',(-1.,0.,0.));
#826=DIRECTION('center_axis',(0.,0.,-1.));
#827=DIRECTION('ref_axis',(1.83697019872103E-16,-1.,0.));
#828=DIRECTION('center_axis',(0.,0.,1.));
#829=DIRECTION('ref_axis',(-1.,0.,0.));
#830=DIRECTION('center_axis',(0.,0.,-1.));
#831=DIRECTION('ref_axis',(-1.,0.,0.));
#832=DIRECTION('center_axis',(0.,0.,-1.));
#833=DIRECTION('ref_axis',(-1.,0.,0.));
#834=DIRECTION('center_axis',(0.,0.,-1.));
#835=DIRECTION('ref_axis',(-1.,0.,0.));
#836=DIRECTION('center_axis',(0.,0.,1.));
#837=DIRECTION('ref_axis',(-1.,0.,0.));
#838=DIRECTION('',(-0.707106781186547,8.65956056235493E-17,0.707106781186548));
#839=DIRECTION('center_axis',(0.,0.,-1.));
#840=DIRECTION('ref_axis',(-1.,0.,0.));
#841=DIRECTION('center_axis',(0.,0.,-1.));
#842=DIRECTION('ref_axis',(-1.,0.,0.));
#843=DIRECTION('center_axis',(0.,0.,1.));
#844=DIRECTION('ref_axis',(-1.,0.,0.));
#845=DIRECTION('',(-0.707106781186547,8.65956056235493E-17,0.707106781186548));
#846=DIRECTION('center_axis',(0.,0.,-1.));
#847=DIRECTION('ref_axis',(-1.,0.,0.));
#848=DIRECTION('center_axis',(0.,0.,-1.));
#849=DIRECTION('ref_axis',(-1.,0.,0.));
#850=DIRECTION('center_axis',(0.,0.,1.));
#851=DIRECTION('ref_axis',(-1.,0.,0.));
#852=DIRECTION('',(-0.707106781186547,8.65956056235493E-17,0.707106781186548));
#853=DIRECTION('center_axis',(0.,0.,-1.));
#854=DIRECTION('ref_axis',(-1.,0.,0.));
#855=DIRECTION('center_axis',(0.,0.,-1.));
#856=DIRECTION('ref_axis',(-1.,0.,0.));
#857=DIRECTION('center_axis',(0.,0.,1.));
#858=DIRECTION('ref_axis',(-1.,0.,0.));
#859=DIRECTION('',(-0.707106781186547,8.65956056235493E-17,0.707106781186548));
#860=DIRECTION('center_axis',(0.,0.,-1.));
#861=DIRECTION('ref_axis',(-1.,0.,0.));
#862=DIRECTION('center_axis',(0.,0.,-1.));
#863=DIRECTION('ref_axis',(-1.,0.,0.));
#864=DIRECTION('',(0.,0.,1.));
#865=DIRECTION('center_axis',(0.,0.,-1.));
#866=DIRECTION('ref_axis',(-1.,0.,0.));
#867=DIRECTION('center_axis',(1.,0.,0.));
#868=DIRECTION('ref_axis',(0.,1.,0.));
#869=DIRECTION('',(0.,1.,0.));
#870=DIRECTION('',(0.,0.,1.));
#871=DIRECTION('',(0.,1.,0.));
#872=DIRECTION('',(0.,0.,1.));
#873=DIRECTION('',(0.,1.,0.));
#874=DIRECTION('center_axis',(-1.77635683940025E-16,1.,0.));
#875=DIRECTION('ref_axis',(-1.,-1.77635683940025E-16,0.));
#876=DIRECTION('',(1.,1.77635683940025E-16,0.));
#877=DIRECTION('',(0.,0.,1.));
#878=DIRECTION('',(-1.,-1.77635683940025E-16,0.));
#879=DIRECTION('',(-1.,-1.77635683940025E-16,0.));
#880=DIRECTION('center_axis',(0.,0.,1.));
#881=DIRECTION('ref_axis',(1.,0.,0.));
#882=DIRECTION('center_axis',(-3.49027996883442E-16,0.982426472941339,0.186650007404341));
#883=DIRECTION('ref_axis',(-7.36793371615131E-17,0.186650007404341,-0.982426472941339));
#884=DIRECTION('',(5.52595028711348E-17,-0.186650007404341,0.982426472941339));
#885=DIRECTION('',(-1.,-3.5527136788005E-16,0.));
#886=DIRECTION('',(-7.36793371615131E-17,0.186650007404341,-0.982426472941339));
#887=DIRECTION('',(1.,3.5527136788005E-16,0.));
#888=DIRECTION('center_axis',(0.,0.,1.));
#889=DIRECTION('ref_axis',(1.,0.,0.));
#890=DIRECTION('',(-3.94745964311167E-16,1.,0.));
#891=DIRECTION('',(-1.,-7.94948460310417E-13,0.));
#892=DIRECTION('',(3.83696854434517E-15,1.,0.));
#893=DIRECTION('',(1.,-3.21803775248884E-16,0.));
#894=DIRECTION('',(1.03620815631685E-14,1.,0.));
#895=DIRECTION('',(-1.,-1.77635683940025E-16,0.));
#896=DIRECTION('',(-2.8564984622956E-15,-1.,0.));
#897=DIRECTION('',(-1.,-2.40048221540583E-15,0.));
#898=DIRECTION('',(-4.34510318360853E-15,1.,0.));
#899=DIRECTION('',(-1.,0.,0.));
#900=DIRECTION('',(0.,-1.,0.));
#901=DIRECTION('',(-1.,9.02659589583594E-13,0.));
#902=DIRECTION('',(1.03620815631682E-14,-1.,0.));
#903=DIRECTION('',(1.,6.43607550504614E-16,0.));
#904=DIRECTION('',(-3.06957483547615E-15,-1.,0.));
#905=DIRECTION('',(-1.,1.55701538618568E-11,0.));
#906=DIRECTION('',(2.96059473233375E-16,-1.,0.));
#907=DIRECTION('center_axis',(1.,3.94745964311167E-16,0.));
#908=DIRECTION('ref_axis',(-3.94745964311167E-16,1.,0.));
#909=DIRECTION('',(3.94745964311167E-16,-1.,0.));
#910=DIRECTION('',(0.,0.,1.));
#911=DIRECTION('center_axis',(0.,0.,1.));
#912=DIRECTION('ref_axis',(1.,0.,0.));
#913=DIRECTION('',(-1.,9.02659589583594E-13,0.));
#914=DIRECTION('',(0.,-1.,0.));
#915=DIRECTION('',(-1.,0.,0.));
#916=DIRECTION('',(-4.34510318360853E-15,1.,0.));
#917=DIRECTION('',(-1.,-2.40048221540583E-15,0.));
#918=DIRECTION('',(-2.8564984622956E-15,-1.,0.));
#919=DIRECTION('',(-1.,-1.77635683940025E-16,0.));
#920=DIRECTION('center_axis',(0.,0.,-1.));
#921=DIRECTION('ref_axis',(-1.,0.,0.));
#922=DIRECTION('',(1.,1.77635683940025E-16,0.));
#923=DIRECTION('',(-1.03620815631685E-14,-1.,0.));
#924=DIRECTION('',(-1.,3.21803775248884E-16,0.));
#925=DIRECTION('',(-3.83696854434517E-15,-1.,0.));
#926=DIRECTION('',(1.,7.94948460310417E-13,0.));
#927=DIRECTION('',(-2.96059473233375E-16,1.,0.));
#928=DIRECTION('',(1.,-1.55701538618568E-11,0.));
#929=DIRECTION('',(3.06957483547615E-15,1.,0.));
#930=DIRECTION('',(-1.,-6.43607550504614E-16,0.));
#931=DIRECTION('',(-1.03620815631682E-14,1.,0.));
#932=DIRECTION('center_axis',(1.,-1.03620815631685E-14,0.));
#933=DIRECTION('ref_axis',(1.03620815631685E-14,1.,0.));
#934=DIRECTION('',(0.,0.,-1.));
#935=DIRECTION('',(0.,0.,1.));
#936=DIRECTION('center_axis',(-3.21803775248884E-16,-1.,0.));
#937=DIRECTION('ref_axis',(1.,-3.21803775248884E-16,0.));
#938=DIRECTION('',(0.,0.,1.));
#939=DIRECTION('center_axis',(1.,-3.83696854434517E-15,0.));
#940=DIRECTION('ref_axis',(3.83696854434517E-15,1.,0.));
#941=DIRECTION('',(0.,0.,1.));
#942=DIRECTION('center_axis',(-7.94948460310417E-13,1.,0.));
#943=DIRECTION('ref_axis',(-1.,-7.94948460310417E-13,0.));
#944=DIRECTION('center_axis',(-1.,-2.96059473233375E-16,0.));
#945=DIRECTION('ref_axis',(2.96059473233375E-16,-1.,0.));
#946=DIRECTION('',(0.,0.,1.));
#947=DIRECTION('center_axis',(1.55701538618568E-11,1.,0.));
#948=DIRECTION('ref_axis',(-1.,1.55701538618568E-11,0.));
#949=DIRECTION('',(0.,0.,1.));
#950=DIRECTION('center_axis',(-1.,3.06957483547615E-15,0.));
#951=DIRECTION('ref_axis',(-3.06957483547615E-15,-1.,0.));
#952=DIRECTION('',(0.,0.,1.));
#953=DIRECTION('center_axis',(6.43607550504614E-16,-1.,0.));
#954=DIRECTION('ref_axis',(1.,6.43607550504614E-16,0.));
#955=DIRECTION('',(0.,0.,1.));
#956=DIRECTION('center_axis',(-1.,-1.03620815631682E-14,0.));
#957=DIRECTION('ref_axis',(1.03620815631682E-14,-1.,0.));
#958=DIRECTION('center_axis',(9.02659589583594E-13,1.,0.));
#959=DIRECTION('ref_axis',(-1.,9.02659589583594E-13,0.));
#960=DIRECTION('',(0.,0.,1.));
#961=DIRECTION('center_axis',(-1.,0.,0.));
#962=DIRECTION('ref_axis',(0.,-1.,0.));
#963=DIRECTION('',(0.,0.,1.));
#964=DIRECTION('center_axis',(0.,1.,0.));
#965=DIRECTION('ref_axis',(-1.,0.,0.));
#966=DIRECTION('',(0.,0.,1.));
#967=DIRECTION('center_axis',(1.,4.34510318360853E-15,0.));
#968=DIRECTION('ref_axis',(-4.34510318360853E-15,1.,0.));
#969=DIRECTION('',(0.,0.,1.));
#970=DIRECTION('center_axis',(-2.40048221540583E-15,1.,0.));
#971=DIRECTION('ref_axis',(-1.,-2.40048221540583E-15,0.));
#972=DIRECTION('',(0.,0.,1.));
#973=DIRECTION('center_axis',(-1.,2.8564984622956E-15,0.));
#974=DIRECTION('ref_axis',(-2.8564984622956E-15,-1.,0.));
#975=DIRECTION('',(0.,0.,1.));
#976=DIRECTION('center_axis',(-1.77635683940025E-16,1.,0.));
#977=DIRECTION('ref_axis',(-1.,-1.77635683940025E-16,0.));
#978=CARTESIAN_POINT('',(0.,0.,0.));
#979=CARTESIAN_POINT('Origin',(-46.1120405192163,-80.4779140164171,0.25));
#980=CARTESIAN_POINT('',(-43.1120405192163,-80.4779140164171,-0.400000000000007));
#981=CARTESIAN_POINT('Origin',(-46.1120405192163,-80.4779140164171,-0.4));
#982=CARTESIAN_POINT('',(-44.4120405192163,-80.4779140164171,0.900000000000003));
#983=CARTESIAN_POINT('',(-43.7620405192163,-80.4779140164171,0.25));
#984=CARTESIAN_POINT('Origin',(-46.1120405192163,-80.4779140164171,0.900000000000001));
#985=CARTESIAN_POINT('Origin',(-46.1120405192163,-80.4779140164171,4.6));
#986=CARTESIAN_POINT('',(-44.4120405192163,-80.4779140164171,2.));
#987=CARTESIAN_POINT('',(-44.4120405192163,-80.4779140164171,4.6));
#988=CARTESIAN_POINT('Origin',(-46.1120405192163,-80.4779140164171,2.));
#989=CARTESIAN_POINT('Origin',(-20.6500000008817,-58.1774928955389,0.25));
#990=CARTESIAN_POINT('',(-17.6500000008817,-58.1774928955389,-0.400000000000002));
#991=CARTESIAN_POINT('Origin',(-20.6500000008817,-58.1774928955389,-0.4));
#992=CARTESIAN_POINT('',(-18.0500000008817,-58.1774928955389,0.));
#993=CARTESIAN_POINT('',(-18.3000000008817,-58.1774928955389,0.25));
#994=CARTESIAN_POINT('Origin',(-20.6500000008817,-58.1774928955389,0.));
#995=CARTESIAN_POINT('Origin',(-20.6500000008817,-45.2613168764045,0.25));
#996=CARTESIAN_POINT('',(-17.6500000008817,-45.2613168764045,-0.400000000000002));
#997=CARTESIAN_POINT('Origin',(-20.6500000008817,-45.2613168764045,-0.4));
#998=CARTESIAN_POINT('',(-18.0500000008817,-45.2613168764045,0.));
#999=CARTESIAN_POINT('',(-18.3000000008817,-45.2613168764045,0.25));
#1000=CARTESIAN_POINT('Origin',(-20.6500000008817,-45.2613168764045,0.));
#1001=CARTESIAN_POINT('Origin',(-23.3000000008818,-12.9281632340805,0.25));
#1002=CARTESIAN_POINT('',(-20.3000000008818,-12.9281632340805,-0.400000000000002));
#1003=CARTESIAN_POINT('Origin',(-23.3000000008818,-12.9281632340805,-0.4));
#1004=CARTESIAN_POINT('',(-20.7000000008818,-12.9281632340805,0.));
#1005=CARTESIAN_POINT('',(-20.9500000008818,-12.9281632340805,0.25));
#1006=CARTESIAN_POINT('Origin',(-23.3000000008818,-12.9281632340805,0.));
#1007=CARTESIAN_POINT('Origin',(-24.3428388211574,-2.50716117973496,0.25));
#1008=CARTESIAN_POINT('',(-22.6953732467583,-3.95516952522712E-15,-0.4));
#1009=CARTESIAN_POINT('',(-23.6542585289401,-4.16333634234434E-15,6.93889390390723E-17));
#1010=CARTESIAN_POINT('Ctrl Pts',(-22.6953732467583,-3.67761376907083E-15,
-0.4));
#1011=CARTESIAN_POINT('Ctrl Pts',(-23.2090617907829,-4.07895656280908E-15,
-0.117905269251223));
#1012=CARTESIAN_POINT('Ctrl Pts',(-23.6542585289401,-4.16333634234434E-15,
6.93889390390723E-17));
#1013=CARTESIAN_POINT('',(-25.9903043955565,-4.57966997657877E-15,-0.4));
#1014=CARTESIAN_POINT('Origin',(-24.3428388211574,-2.50716117973496,-0.4));
#1015=CARTESIAN_POINT('',(-25.0314191133747,-4.37150315946155E-15,6.93889390390723E-17));
#1016=CARTESIAN_POINT('Ctrl Pts',(-25.0314191133747,-4.37150315946155E-15,
6.93889390390723E-17));
#1017=CARTESIAN_POINT('Ctrl Pts',(-25.4766158515326,-4.38551502032731E-15,
-0.117905269251033));
#1018=CARTESIAN_POINT('Ctrl Pts',(-25.9903043955565,-4.30211422042248E-15,
-0.4));
#1019=CARTESIAN_POINT('',(-26.85,-1.81858088426848,2.08166817117217E-16));
#1020=CARTESIAN_POINT('Origin',(-24.3428388211574,-2.50716117973496,0.));
#1021=CARTESIAN_POINT('',(-26.85,-3.19574147520144,2.08166817117217E-16));
#1022=CARTESIAN_POINT('Ctrl Pts',(-26.85,-3.19574147520144,2.08166817117217E-16));
#1023=CARTESIAN_POINT('Ctrl Pts',(-26.85,-2.50716117973496,0.182362624347963));
#1024=CARTESIAN_POINT('Ctrl Pts',(-26.85,-1.81858088426848,2.08166817117217E-16));
#1025=CARTESIAN_POINT('Origin',(-24.3428388211574,-2.50716117973496,0.));
#1026=CARTESIAN_POINT('Origin',(22.2529999987427,-13.1961753222101,0.25));
#1027=CARTESIAN_POINT('',(25.2529999987427,-13.1961753222101,-0.400000000000002));
#1028=CARTESIAN_POINT('Origin',(22.2529999987427,-13.1961753222101,-0.4));
#1029=CARTESIAN_POINT('',(24.8529999987427,-13.1961753222101,0.));
#1030=CARTESIAN_POINT('',(24.6029999987427,-13.1961753222101,0.25));
#1031=CARTESIAN_POINT('Origin',(22.2529999987427,-13.1961753222101,0.));
#1032=CARTESIAN_POINT('Origin',(20.6499999987483,-23.7673257609568,0.25));
#1033=CARTESIAN_POINT('',(23.6499999987483,-23.7673257609568,-0.400000000000002));
#1034=CARTESIAN_POINT('Origin',(20.6499999987483,-23.7673257609568,-0.4));
#1035=CARTESIAN_POINT('',(23.2499999987483,-23.7673257609568,0.));
#1036=CARTESIAN_POINT('',(22.9999999987483,-23.7673257609568,0.25));
#1037=CARTESIAN_POINT('Origin',(20.6499999987483,-23.7673257609568,0.));
#1038=CARTESIAN_POINT('Origin',(22.2499999987658,-55.8509470948135,0.25));
#1039=CARTESIAN_POINT('',(25.2499999987658,-55.8509470948135,-0.4));
#1040=CARTESIAN_POINT('Origin',(22.2499999987658,-55.8509470948135,-0.4));
#1041=CARTESIAN_POINT('',(24.8499999987658,-55.8509470948135,0.));
#1042=CARTESIAN_POINT('',(24.5999999987658,-55.8509470948135,0.25));
#1043=CARTESIAN_POINT('Origin',(22.2499999987658,-55.8509470948135,0.));
#1044=CARTESIAN_POINT('Origin',(46.1120405192166,-80.4779140164171,0.25));
#1045=CARTESIAN_POINT('',(49.1120405192166,-80.4779140164171,-0.400000000000007));
#1046=CARTESIAN_POINT('Origin',(46.1120405192166,-80.4779140164171,-0.4));
#1047=CARTESIAN_POINT('',(47.8120405192166,-80.4779140164171,0.900000000000003));
#1048=CARTESIAN_POINT('',(48.4620405192166,-80.4779140164171,0.25));
#1049=CARTESIAN_POINT('Origin',(46.1120405192166,-80.4779140164171,0.900000000000001));
#1050=CARTESIAN_POINT('Origin',(46.1120405192166,-80.4779140164171,4.6));
#1051=CARTESIAN_POINT('',(47.8120405192166,-80.4779140164171,2.));
#1052=CARTESIAN_POINT('',(47.8120405192166,-80.4779140164171,4.6));
#1053=CARTESIAN_POINT('Origin',(46.1120405192166,-80.4779140164171,2.));
#1054=CARTESIAN_POINT('Origin',(-26.85,-65.2958405540802,0.));
#1055=CARTESIAN_POINT('',(-26.85,-5.27355936696949E-14,0.));
#1056=CARTESIAN_POINT('',(-26.85,-65.2958405540802,0.));
#1057=CARTESIAN_POINT('',(-26.85,-5.27355936696949E-14,2.));
#1058=CARTESIAN_POINT('',(-26.85,-5.27355936696949E-14,0.));
#1059=CARTESIAN_POINT('',(-26.85,-65.2958405540802,2.));
#1060=CARTESIAN_POINT('',(-26.85,-65.2958405540802,2.));
#1061=CARTESIAN_POINT('',(-26.85,-65.2958405540802,0.));
#1062=CARTESIAN_POINT('',(-26.85,-65.2958405540802,0.));
#1063=CARTESIAN_POINT('',(-26.85,-65.2958405540802,0.));
#1064=CARTESIAN_POINT('Origin',(36.2500000000302,6.43929354283127E-15,0.));
#1065=CARTESIAN_POINT('',(-36.250000000029,-2.57571741713036E-13,-0.4));
#1066=CARTESIAN_POINT('',(50.,8.88178419700125E-15,-0.4));
#1067=CARTESIAN_POINT('',(-36.250000000029,-2.57571741713036E-13,2.));
#1068=CARTESIAN_POINT('',(-36.250000000029,-2.57571741713036E-13,0.));
#1069=CARTESIAN_POINT('',(50.,8.88178419700125E-15,2.));
#1070=CARTESIAN_POINT('',(50.,8.88178419700125E-15,0.));
#1071=CARTESIAN_POINT('Origin',(1.77635683940025E-14,-43.147920277031,0.));
#1072=CARTESIAN_POINT('Origin',(50.,-86.092262978036,2.00000000000025));
#1073=CARTESIAN_POINT('',(-50.,-85.6362899051308,-0.4));
#1074=CARTESIAN_POINT('',(-50.,-86.092262978036,2.00000000000025));
#1075=CARTESIAN_POINT('',(-50.,-85.546637845041,-0.871880812708328));
#1076=CARTESIAN_POINT('',(50.,-85.6362899051308,-0.399999999999749));
#1077=CARTESIAN_POINT('',(25.,-85.6362899051308,-0.4));
#1078=CARTESIAN_POINT('',(50.,-86.092262978036,2.00000000000025));
#1079=CARTESIAN_POINT('',(50.,-85.9124392103134,1.05350322600322));
#1080=CARTESIAN_POINT('',(25.,-86.0922629780359,2.));
#1081=CARTESIAN_POINT('Origin',(1.77635683940025E-14,-43.147920277031,2.));
#1082=CARTESIAN_POINT('',(50.,-65.2958405540623,2.));
#1083=CARTESIAN_POINT('',(50.,-90.,2.));
#1084=CARTESIAN_POINT('',(29.3499999999272,-65.2958405540878,2.));
#1085=CARTESIAN_POINT('',(50.,-65.2958405540623,2.));
#1086=CARTESIAN_POINT('',(29.3499999999274,-19.0000000000076,2.));
#1087=CARTESIAN_POINT('',(29.3499999999272,-65.2958405540878,2.));
#1088=CARTESIAN_POINT('',(36.25000000003,-19.0000000000076,2.));
#1089=CARTESIAN_POINT('',(29.3499999999274,-19.0000000000076,2.));
#1090=CARTESIAN_POINT('',(36.2500000000302,-7.84288906724566E-12,2.));
#1091=CARTESIAN_POINT('',(36.25000000003,-19.0000000000076,2.));
#1092=CARTESIAN_POINT('',(26.8499999999996,-1.35599864670155E-12,2.));
#1093=CARTESIAN_POINT('',(50.,8.88178419700125E-15,2.));
#1094=CARTESIAN_POINT('',(26.8499999999994,-65.2958405540807,2.));
#1095=CARTESIAN_POINT('',(26.8499999999996,-1.35891298214119E-12,2.));
#1096=CARTESIAN_POINT('',(17.6499999999991,-65.2958405540807,2.));
#1097=CARTESIAN_POINT('',(26.8499999999994,-65.2958405540807,2.));
#1098=CARTESIAN_POINT('',(17.649999999999,-63.1458405540803,2.));
#1099=CARTESIAN_POINT('',(17.6499999999991,-65.2958405540807,2.));
#1100=CARTESIAN_POINT('',(-17.64999999997,-63.1458405540803,2.));
#1101=CARTESIAN_POINT('',(17.649999999999,-63.1458405540803,2.));
#1102=CARTESIAN_POINT('',(-17.64999999997,-65.2958405540885,2.));
#1103=CARTESIAN_POINT('',(-17.64999999997,-24.9409051331862,2.));
#1104=CARTESIAN_POINT('',(-17.64999999997,-65.2958405540885,2.));
#1105=CARTESIAN_POINT('',(-36.2500000000288,-19.0000000000003,2.));
#1106=CARTESIAN_POINT('',(-36.250000000029,-2.57571741713036E-13,2.));
#1107=CARTESIAN_POINT('',(-29.3499999999996,-19.0000000000003,2.));
#1108=CARTESIAN_POINT('',(-36.2500000000288,-19.0000000000003,2.));
#1109=CARTESIAN_POINT('',(-29.3499999999998,-65.2958405540802,2.));
#1110=CARTESIAN_POINT('',(-29.3499999999996,-19.0000000000003,2.));
#1111=CARTESIAN_POINT('',(-50.,-65.2958405540623,2.));
#1112=CARTESIAN_POINT('',(-29.3499999999998,-65.2958405540802,2.));
#1113=CARTESIAN_POINT('',(-50.,-8.88178419700125E-15,2.));
#1114=CARTESIAN_POINT('Origin',(50.,-86.295840554062,0.));
#1115=CARTESIAN_POINT('',(50.,-65.2958405540623,-0.4));
#1116=CARTESIAN_POINT('',(50.,-90.,-0.4));
#1117=CARTESIAN_POINT('',(50.,-65.2958405540623,0.));
#1118=CARTESIAN_POINT('Origin',(1.77635683940025E-14,-43.147920277031,0.));
#1119=CARTESIAN_POINT('',(-17.64999999997,-65.2958405540885,0.));
#1120=CARTESIAN_POINT('',(-17.64999999997,-65.2958405540885,0.));
#1121=CARTESIAN_POINT('',(-17.64999999997,-63.1458405540803,0.));
#1122=CARTESIAN_POINT('',(-17.64999999997,-24.9409051331862,0.));
#1123=CARTESIAN_POINT('',(17.649999999999,-63.1458405540803,0.));
#1124=CARTESIAN_POINT('',(17.649999999999,-63.1458405540803,0.));
#1125=CARTESIAN_POINT('',(17.6499999999991,-65.2958405540807,0.));
#1126=CARTESIAN_POINT('',(17.6499999999991,-65.2958405540807,0.));
#1127=CARTESIAN_POINT('',(26.8499999999994,-65.2958405540807,0.));
#1128=CARTESIAN_POINT('',(26.8499999999994,-65.2958405540807,0.));
#1129=CARTESIAN_POINT('',(26.8499999999996,-1.35599864670155E-12,0.));
#1130=CARTESIAN_POINT('',(26.8499999999996,-1.35891298214119E-12,0.));
#1131=CARTESIAN_POINT('',(50.,8.88178419700125E-15,0.));
#1132=CARTESIAN_POINT('Origin',(1.77635683940025E-14,-43.147920277031,-0.4));
#1133=CARTESIAN_POINT('',(36.2500000000302,-7.84288906724566E-12,-0.4));
#1134=CARTESIAN_POINT('',(50.,8.88178419700125E-15,-0.4));
#1135=CARTESIAN_POINT('',(36.25000000003,-19.0000000000076,-0.4));
#1136=CARTESIAN_POINT('',(36.25000000003,-19.0000000000076,-0.4));
#1137=CARTESIAN_POINT('',(29.3499999999274,-19.0000000000076,-0.4));
#1138=CARTESIAN_POINT('',(29.3499999999274,-19.0000000000076,-0.4));
#1139=CARTESIAN_POINT('',(29.3499999999272,-65.2958405540878,-0.4));
#1140=CARTESIAN_POINT('',(29.3499999999272,-65.2958405540878,-0.4));
#1141=CARTESIAN_POINT('',(50.,-65.2958405540623,-0.4));
#1142=CARTESIAN_POINT('',(-50.,-65.2958405540623,-0.4));
#1143=CARTESIAN_POINT('',(-50.,-8.88178419700125E-15,-0.4));
#1144=CARTESIAN_POINT('',(-29.3499999999998,-65.2958405540802,-0.4));
#1145=CARTESIAN_POINT('',(-29.3499999999998,-65.2958405540802,-0.4));
#1146=CARTESIAN_POINT('',(-29.3499999999996,-19.0000000000003,-0.4));
#1147=CARTESIAN_POINT('',(-29.3499999999996,-19.0000000000003,-0.4));
#1148=CARTESIAN_POINT('',(-36.2500000000288,-19.0000000000003,-0.4));
#1149=CARTESIAN_POINT('',(-36.2500000000288,-19.0000000000003,-0.4));
#1150=CARTESIAN_POINT('',(-36.250000000029,-2.57571741713036E-13,-0.4));
#1151=CARTESIAN_POINT('Origin',(36.25000000003,-19.0000000000076,0.));
#1152=CARTESIAN_POINT('',(36.2500000000302,-7.84288906724566E-12,0.));
#1153=CARTESIAN_POINT('',(36.25000000003,-19.0000000000076,0.));
#1154=CARTESIAN_POINT('Origin',(29.3499999999274,-19.0000000000076,0.));
#1155=CARTESIAN_POINT('',(29.3499999999274,-19.0000000000076,0.));
#1156=CARTESIAN_POINT('Origin',(29.3499999999272,-65.2958405540878,0.));
#1157=CARTESIAN_POINT('',(29.3499999999272,-65.2958405540878,0.));
#1158=CARTESIAN_POINT('Origin',(50.,-65.2958405540623,0.));
#1159=CARTESIAN_POINT('Origin',(-50.,-65.2958405540623,0.));
#1160=CARTESIAN_POINT('',(-50.,-65.2958405540623,0.));
#1161=CARTESIAN_POINT('Origin',(-29.3499999999998,-65.2958405540802,0.));
#1162=CARTESIAN_POINT('',(-29.3499999999998,-65.2958405540802,0.));
#1163=CARTESIAN_POINT('Origin',(-29.3499999999996,-19.0000000000003,0.));
#1164=CARTESIAN_POINT('',(-29.3499999999996,-19.0000000000003,0.));
#1165=CARTESIAN_POINT('Origin',(-36.2500000000288,-19.0000000000003,0.));
#1166=CARTESIAN_POINT('',(-36.2500000000288,-19.0000000000003,0.));
#1167=CARTESIAN_POINT('Origin',(-36.250000000029,-2.57571741713036E-13,
0.));
#1168=CARTESIAN_POINT('Origin',(-17.64999999997,-65.2958405540885,0.));
#1169=CARTESIAN_POINT('',(-17.64999999997,-65.2958405540885,0.));
#1170=CARTESIAN_POINT('Origin',(-17.64999999997,-63.1458405540803,0.));
#1171=CARTESIAN_POINT('',(-17.64999999997,-63.1458405540803,0.));
#1172=CARTESIAN_POINT('Origin',(17.649999999999,-63.1458405540803,0.));
#1173=CARTESIAN_POINT('',(17.649999999999,-63.1458405540803,0.));
#1174=CARTESIAN_POINT('Origin',(17.6499999999991,-65.2958405540807,0.));
#1175=CARTESIAN_POINT('',(17.6499999999991,-65.2958405540807,0.));
#1176=CARTESIAN_POINT('Origin',(26.8499999999994,-65.2958405540807,0.));
#1177=CARTESIAN_POINT('',(26.8499999999994,-65.2958405540807,0.));
#1178=CARTESIAN_POINT('Origin',(26.8499999999996,-1.35599864670155E-12,
0.));
#1179=CARTESIAN_POINT('',(26.8499999999996,-1.35599864670155E-12,0.));
#1180=CARTESIAN_POINT('Origin',(36.2500000000302,6.43929354283127E-15,0.));
#1181=UNCERTAINTY_MEASURE_WITH_UNIT(LENGTH_MEASURE(0.01),#1185,
'DISTANCE_ACCURACY_VALUE',
'Maximum model space distance between geometric entities at asserted c
onnectivities');
#1182=UNCERTAINTY_MEASURE_WITH_UNIT(LENGTH_MEASURE(0.01),#1185,
'DISTANCE_ACCURACY_VALUE',
'Maximum model space distance between geometric entities at asserted c
onnectivities');
#1183=(
GEOMETRIC_REPRESENTATION_CONTEXT(3)
GLOBAL_UNCERTAINTY_ASSIGNED_CONTEXT((#1181))
GLOBAL_UNIT_ASSIGNED_CONTEXT((#1185,#1187,#1188))
REPRESENTATION_CONTEXT('','3D')
);
#1184=(
GEOMETRIC_REPRESENTATION_CONTEXT(3)
GLOBAL_UNCERTAINTY_ASSIGNED_CONTEXT((#1182))
GLOBAL_UNIT_ASSIGNED_CONTEXT((#1185,#1187,#1188))
REPRESENTATION_CONTEXT('','3D')
);
#1185=(
LENGTH_UNIT()
NAMED_UNIT(*)
SI_UNIT(.MILLI.,.METRE.)
);
#1186=(
LENGTH_UNIT()
NAMED_UNIT(*)
SI_UNIT(.CENTI.,.METRE.)
);
#1187=(
NAMED_UNIT(*)
PLANE_ANGLE_UNIT()
SI_UNIT($,.RADIAN.)
);
#1188=(
NAMED_UNIT(*)
SI_UNIT($,.STERADIAN.)
SOLID_ANGLE_UNIT()
);
#1189=SHAPE_DEFINITION_REPRESENTATION(#1190,#1191);
#1190=PRODUCT_DEFINITION_SHAPE('',$,#1193);
#1191=SHAPE_REPRESENTATION('',(#734),#1183);
#1192=PRODUCT_DEFINITION_CONTEXT('part definition',#1197,'design');
#1193=PRODUCT_DEFINITION('Ceiling','Ceiling',#1194,#1192);
#1194=PRODUCT_DEFINITION_FORMATION('',$,#1199);
#1195=PRODUCT_RELATED_PRODUCT_CATEGORY('Ceiling','Ceiling',(#1199));
#1196=APPLICATION_PROTOCOL_DEFINITION('international standard',
'automotive_design',2009,#1197);
#1197=APPLICATION_CONTEXT(
'Core Data for Automotive Mechanical Design Process');
#1198=PRODUCT_CONTEXT('part definition',#1197,'mechanical');
#1199=PRODUCT('Ceiling','Ceiling',$,(#1198));
#1200=PRESENTATION_STYLE_ASSIGNMENT((#1201));
#1201=SURFACE_STYLE_USAGE(.BOTH.,#1204);
#1202=SURFACE_STYLE_RENDERING_WITH_PROPERTIES($,#1208,(#1203));
#1203=SURFACE_STYLE_TRANSPARENT(0.);
#1204=SURFACE_SIDE_STYLE('',(#1205,#1202));
#1205=SURFACE_STYLE_FILL_AREA(#1206);
#1206=FILL_AREA_STYLE('',(#1207));
#1207=FILL_AREA_STYLE_COLOUR('',#1208);
#1208=COLOUR_RGB('',0.337254901960784,0.337254901960784,0.337254901960784);
ENDSEC;
END-ISO-10303-21;
