ISO-10303-21;
HEADER;
/* Generated by software containing ST-Developer
 * from STEP Tools, Inc. (www.steptools.com) 
 */

FILE_DESCRIPTION(
/* description */ (''),
/* implementation_level */ '2;1');

FILE_NAME(
/* name */ 'GearboxBearingHolderCover.stp',
/* time_stamp */ '2026-04-26T22:21:09+02:00',
/* author */ ('szymo'),
/* organization */ (''),
/* preprocessor_version */ 'ST-DEVELOPER v20.1',
/* originating_system */ 'Autodesk Inventor 2026',
/* authorisation */ '');

FILE_SCHEMA (('AUTOMOTIVE_DESIGN { 1 0 10303 214 3 1 1 }'));
ENDSEC;

DATA;
#10=MECHANICAL_DESIGN_GEOMETRIC_PRESENTATION_REPRESENTATION('',(#13),#867);
#11=SHAPE_REPRESENTATION_RELATIONSHIP('SRR','None',#874,#12);
#12=ADVANCED_BREP_SHAPE_REPRESENTATION('',(#14),#866);
#13=STYLED_ITEM('',(#883),#14);
#14=MANIFOLD_SOLID_BREP('Solid1',#461);
#15=FACE_BOUND('',#76,.T.);
#16=FACE_BOUND('',#77,.T.);
#17=FACE_BOUND('',#78,.T.);
#18=FACE_BOUND('',#79,.T.);
#19=FACE_BOUND('',#92,.T.);
#20=FACE_BOUND('',#94,.T.);
#21=FACE_BOUND('',#96,.T.);
#22=FACE_BOUND('',#97,.T.);
#23=FACE_BOUND('',#98,.T.);
#24=FACE_BOUND('',#99,.T.);
#25=FACE_BOUND('',#100,.T.);
#26=PLANE('',#502);
#27=PLANE('',#507);
#28=PLANE('',#508);
#29=PLANE('',#517);
#30=PLANE('',#526);
#31=PLANE('',#533);
#32=PLANE('',#537);
#33=PLANE('',#538);
#34=ELLIPSE('',#498,1.4142135623731,1.);
#35=ELLIPSE('',#499,1.4142135623731,1.);
#36=ELLIPSE('',#503,1.4142135623731,1.);
#37=ELLIPSE('',#525,1.41421356237309,1.);
#38=B_SPLINE_CURVE_WITH_KNOTS('',3,(#708,#709,#710,#711,#712,#713,#714,
#715,#716,#717),.UNSPECIFIED.,.F.,.F.,(4,2,2,2,4),(0.720847393311707,0.723318207201711,
0.753059988362294,0.784685627401035,0.797767127794581),.UNSPECIFIED.);
#39=B_SPLINE_CURVE_WITH_KNOTS('',3,(#721,#722,#723,#724,#725,#726,#727,
#728,#729,#730),.UNSPECIFIED.,.F.,.F.,(4,2,2,2,4),(0.372279383896046,0.385360884289592,
0.416986523328333,0.446728304488916,0.44919911837892),.UNSPECIFIED.);
#40=B_SPLINE_CURVE_WITH_KNOTS('',3,(#818,#819,#820,#821,#822,#823,#824,
#825,#826,#827,#828,#829,#830,#831,#832,#833,#834,#835,#836,#837,#838,#839,
#840,#841,#842,#843),.UNSPECIFIED.,.F.,.F.,(4,2,2,2,2,2,2,2,2,2,2,2,4),
(0.,0.0380189512680462,0.0760379025360924,0.114008696183026,0.151979489829961,
0.190075283685604,0.228171077541247,0.266204817842636,0.304238558144026,
0.342272298445416,0.380306038746805,0.418401832602448,0.456497626458092),
 .UNSPECIFIED.);
#41=B_SPLINE_CURVE_WITH_KNOTS('',3,(#844,#845,#846,#847,#848,#849,#850,
#851,#852,#853),.UNSPECIFIED.,.F.,.F.,(4,2,2,2,4),(0.456497626458092,0.494468420105026,
0.53243921375196,0.570458165020006,0.608477116288052),.UNSPECIFIED.);
#42=FACE_OUTER_BOUND('',#66,.T.);
#43=FACE_OUTER_BOUND('',#67,.T.);
#44=FACE_OUTER_BOUND('',#68,.T.);
#45=FACE_OUTER_BOUND('',#69,.T.);
#46=FACE_OUTER_BOUND('',#70,.T.);
#47=FACE_OUTER_BOUND('',#71,.T.);
#48=FACE_OUTER_BOUND('',#72,.T.);
#49=FACE_OUTER_BOUND('',#73,.T.);
#50=FACE_OUTER_BOUND('',#74,.T.);
#51=FACE_OUTER_BOUND('',#75,.T.);
#52=FACE_OUTER_BOUND('',#80,.T.);
#53=FACE_OUTER_BOUND('',#81,.T.);
#54=FACE_OUTER_BOUND('',#82,.T.);
#55=FACE_OUTER_BOUND('',#83,.T.);
#56=FACE_OUTER_BOUND('',#84,.T.);
#57=FACE_OUTER_BOUND('',#85,.T.);
#58=FACE_OUTER_BOUND('',#86,.T.);
#59=FACE_OUTER_BOUND('',#87,.T.);
#60=FACE_OUTER_BOUND('',#88,.T.);
#61=FACE_OUTER_BOUND('',#89,.T.);
#62=FACE_OUTER_BOUND('',#90,.T.);
#63=FACE_OUTER_BOUND('',#91,.T.);
#64=FACE_OUTER_BOUND('',#93,.T.);
#65=FACE_OUTER_BOUND('',#95,.T.);
#66=EDGE_LOOP('',(#293,#294,#295,#296));
#67=EDGE_LOOP('',(#297,#298,#299,#300));
#68=EDGE_LOOP('',(#301,#302,#303,#304));
#69=EDGE_LOOP('',(#305,#306,#307,#308));
#70=EDGE_LOOP('',(#309,#310,#311,#312));
#71=EDGE_LOOP('',(#313,#314,#315,#316,#317,#318,#319));
#72=EDGE_LOOP('',(#320,#321,#322,#323));
#73=EDGE_LOOP('',(#324,#325,#326,#327));
#74=EDGE_LOOP('',(#328,#329,#330,#331));
#75=EDGE_LOOP('',(#332,#333,#334,#335,#336,#337,#338,#339,#340,#341,#342,
#343));
#76=EDGE_LOOP('',(#344));
#77=EDGE_LOOP('',(#345));
#78=EDGE_LOOP('',(#346));
#79=EDGE_LOOP('',(#347));
#80=EDGE_LOOP('',(#348,#349,#350,#351));
#81=EDGE_LOOP('',(#352,#353,#354,#355));
#82=EDGE_LOOP('',(#356,#357,#358,#359));
#83=EDGE_LOOP('',(#360,#361,#362,#363));
#84=EDGE_LOOP('',(#364,#365,#366,#367));
#85=EDGE_LOOP('',(#368,#369,#370,#371));
#86=EDGE_LOOP('',(#372,#373,#374,#375));
#87=EDGE_LOOP('',(#376,#377,#378,#379,#380,#381,#382));
#88=EDGE_LOOP('',(#383,#384,#385,#386));
#89=EDGE_LOOP('',(#387,#388,#389,#390,#391));
#90=EDGE_LOOP('',(#392));
#91=EDGE_LOOP('',(#393,#394,#395,#396));
#92=EDGE_LOOP('',(#397,#398));
#93=EDGE_LOOP('',(#399,#400,#401,#402));
#94=EDGE_LOOP('',(#403));
#95=EDGE_LOOP('',(#404,#405,#406,#407,#408,#409,#410,#411,#412,#413,#414,
#415));
#96=EDGE_LOOP('',(#416));
#97=EDGE_LOOP('',(#417));
#98=EDGE_LOOP('',(#418));
#99=EDGE_LOOP('',(#419));
#100=EDGE_LOOP('',(#420));
#101=LINE('',#685,#130);
#102=LINE('',#691,#131);
#103=LINE('',#697,#132);
#104=LINE('',#703,#133);
#105=LINE('',#719,#134);
#106=LINE('',#731,#135);
#107=LINE('',#738,#136);
#108=LINE('',#742,#137);
#109=LINE('',#747,#138);
#110=LINE('',#753,#139);
#111=LINE('',#756,#140);
#112=LINE('',#759,#141);
#113=LINE('',#761,#142);
#114=LINE('',#762,#143);
#115=LINE('',#768,#144);
#116=LINE('',#772,#145);
#117=LINE('',#780,#146);
#118=LINE('',#783,#147);
#119=LINE('',#786,#148);
#120=LINE('',#787,#149);
#121=LINE('',#791,#150);
#122=LINE('',#794,#151);
#123=LINE('',#801,#152);
#124=LINE('',#804,#153);
#125=LINE('',#805,#154);
#126=LINE('',#808,#155);
#127=LINE('',#816,#156);
#128=LINE('',#859,#157);
#129=LINE('',#862,#158);
#130=VECTOR('',#545,1.0065);
#131=VECTOR('',#552,1.0065);
#132=VECTOR('',#559,1.0065);
#133=VECTOR('',#566,1.0065);
#134=VECTOR('',#571,10.);
#135=VECTOR('',#572,10.);
#136=VECTOR('',#579,10.);
#137=VECTOR('',#582,10.);
#138=VECTOR('',#589,10.);
#139=VECTOR('',#594,10.);
#140=VECTOR('',#597,10.);
#141=VECTOR('',#600,10.);
#142=VECTOR('',#601,10.);
#143=VECTOR('',#602,10.);
#144=VECTOR('',#609,10.);
#145=VECTOR('',#612,10.);
#146=VECTOR('',#621,10.);
#147=VECTOR('',#624,10.);
#148=VECTOR('',#627,10.);
#149=VECTOR('',#628,10.);
#150=VECTOR('',#633,10.);
#151=VECTOR('',#636,10.);
#152=VECTOR('',#647,10.);
#153=VECTOR('',#650,10.);
#154=VECTOR('',#651,10.);
#155=VECTOR('',#654,10.);
#156=VECTOR('',#665,1.0065);
#157=VECTOR('',#672,5.);
#158=VECTOR('',#677,10.);
#159=CIRCLE('',#485,1.0065);
#160=CIRCLE('',#486,1.0065);
#161=CIRCLE('',#488,1.0065);
#162=CIRCLE('',#489,1.0065);
#163=CIRCLE('',#491,1.0065);
#164=CIRCLE('',#492,1.0065);
#165=CIRCLE('',#494,1.0065);
#166=CIRCLE('',#495,1.0065);
#167=CIRCLE('',#500,1.);
#168=CIRCLE('',#501,1.);
#169=CIRCLE('',#505,1.);
#170=CIRCLE('',#506,1.);
#171=CIRCLE('',#509,13.9999999999998);
#172=CIRCLE('',#510,1.);
#173=CIRCLE('',#511,1.);
#174=CIRCLE('',#512,1.);
#175=CIRCLE('',#513,13.9999999999999);
#176=CIRCLE('',#514,1.);
#177=CIRCLE('',#516,1.);
#178=CIRCLE('',#519,1.);
#179=CIRCLE('',#521,1.);
#180=CIRCLE('',#523,13.9999999999998);
#181=CIRCLE('',#528,1.);
#182=CIRCLE('',#530,13.9999999999999);
#183=CIRCLE('',#532,1.0065);
#184=CIRCLE('',#534,5.);
#185=CIRCLE('',#536,5.);
#186=VERTEX_POINT('',#682);
#187=VERTEX_POINT('',#684);
#188=VERTEX_POINT('',#688);
#189=VERTEX_POINT('',#690);
#190=VERTEX_POINT('',#694);
#191=VERTEX_POINT('',#696);
#192=VERTEX_POINT('',#700);
#193=VERTEX_POINT('',#702);
#194=VERTEX_POINT('',#706);
#195=VERTEX_POINT('',#707);
#196=VERTEX_POINT('',#718);
#197=VERTEX_POINT('',#720);
#198=VERTEX_POINT('',#733);
#199=VERTEX_POINT('',#735);
#200=VERTEX_POINT('',#737);
#201=VERTEX_POINT('',#739);
#202=VERTEX_POINT('',#741);
#203=VERTEX_POINT('',#745);
#204=VERTEX_POINT('',#749);
#205=VERTEX_POINT('',#750);
#206=VERTEX_POINT('',#752);
#207=VERTEX_POINT('',#754);
#208=VERTEX_POINT('',#758);
#209=VERTEX_POINT('',#760);
#210=VERTEX_POINT('',#764);
#211=VERTEX_POINT('',#767);
#212=VERTEX_POINT('',#769);
#213=VERTEX_POINT('',#771);
#214=VERTEX_POINT('',#773);
#215=VERTEX_POINT('',#775);
#216=VERTEX_POINT('',#779);
#217=VERTEX_POINT('',#781);
#218=VERTEX_POINT('',#785);
#219=VERTEX_POINT('',#789);
#220=VERTEX_POINT('',#793);
#221=VERTEX_POINT('',#799);
#222=VERTEX_POINT('',#803);
#223=VERTEX_POINT('',#807);
#224=VERTEX_POINT('',#813);
#225=VERTEX_POINT('',#815);
#226=VERTEX_POINT('',#817);
#227=VERTEX_POINT('',#855);
#228=VERTEX_POINT('',#858);
#229=EDGE_CURVE('',#186,#186,#159,.T.);
#230=EDGE_CURVE('',#186,#187,#101,.T.);
#231=EDGE_CURVE('',#187,#187,#160,.T.);
#232=EDGE_CURVE('',#188,#188,#161,.T.);
#233=EDGE_CURVE('',#188,#189,#102,.T.);
#234=EDGE_CURVE('',#189,#189,#162,.T.);
#235=EDGE_CURVE('',#190,#190,#163,.T.);
#236=EDGE_CURVE('',#190,#191,#103,.T.);
#237=EDGE_CURVE('',#191,#191,#164,.T.);
#238=EDGE_CURVE('',#192,#192,#165,.T.);
#239=EDGE_CURVE('',#192,#193,#104,.T.);
#240=EDGE_CURVE('',#193,#193,#166,.T.);
#241=EDGE_CURVE('',#194,#195,#38,.T.);
#242=EDGE_CURVE('',#195,#196,#105,.T.);
#243=EDGE_CURVE('',#196,#197,#39,.T.);
#244=EDGE_CURVE('',#197,#194,#106,.T.);
#245=EDGE_CURVE('',#196,#198,#34,.T.);
#246=EDGE_CURVE('',#199,#198,#35,.T.);
#247=EDGE_CURVE('',#199,#200,#107,.T.);
#248=EDGE_CURVE('',#200,#201,#167,.T.);
#249=EDGE_CURVE('',#201,#202,#108,.T.);
#250=EDGE_CURVE('',#202,#197,#168,.T.);
#251=EDGE_CURVE('',#203,#195,#36,.T.);
#252=EDGE_CURVE('',#198,#203,#109,.T.);
#253=EDGE_CURVE('',#204,#205,#169,.T.);
#254=EDGE_CURVE('',#205,#206,#110,.T.);
#255=EDGE_CURVE('',#206,#207,#170,.T.);
#256=EDGE_CURVE('',#207,#204,#111,.T.);
#257=EDGE_CURVE('',#208,#205,#112,.T.);
#258=EDGE_CURVE('',#209,#208,#113,.T.);
#259=EDGE_CURVE('',#209,#206,#114,.T.);
#260=EDGE_CURVE('',#202,#210,#171,.T.);
#261=EDGE_CURVE('',#208,#210,#172,.T.);
#262=EDGE_CURVE('',#204,#211,#115,.T.);
#263=EDGE_CURVE('',#212,#211,#173,.T.);
#264=EDGE_CURVE('',#212,#213,#116,.T.);
#265=EDGE_CURVE('',#214,#213,#174,.T.);
#266=EDGE_CURVE('',#214,#215,#175,.T.);
#267=EDGE_CURVE('',#194,#215,#176,.T.);
#268=EDGE_CURVE('',#211,#216,#117,.T.);
#269=EDGE_CURVE('',#216,#217,#177,.T.);
#270=EDGE_CURVE('',#217,#212,#118,.T.);
#271=EDGE_CURVE('',#217,#218,#119,.T.);
#272=EDGE_CURVE('',#213,#218,#120,.T.);
#273=EDGE_CURVE('',#218,#219,#178,.T.);
#274=EDGE_CURVE('',#219,#214,#121,.T.);
#275=EDGE_CURVE('',#210,#220,#122,.T.);
#276=EDGE_CURVE('',#220,#209,#179,.T.);
#277=EDGE_CURVE('',#201,#220,#180,.T.);
#278=EDGE_CURVE('',#203,#221,#37,.T.);
#279=EDGE_CURVE('',#221,#199,#123,.T.);
#280=EDGE_CURVE('',#222,#221,#124,.T.);
#281=EDGE_CURVE('',#222,#200,#125,.T.);
#282=EDGE_CURVE('',#215,#223,#126,.T.);
#283=EDGE_CURVE('',#223,#222,#181,.T.);
#284=EDGE_CURVE('',#219,#223,#182,.T.);
#285=EDGE_CURVE('',#224,#224,#183,.T.);
#286=EDGE_CURVE('',#224,#225,#127,.T.);
#287=EDGE_CURVE('',#226,#225,#40,.T.);
#288=EDGE_CURVE('',#225,#226,#41,.T.);
#289=EDGE_CURVE('',#227,#227,#184,.T.);
#290=EDGE_CURVE('',#227,#228,#128,.T.);
#291=EDGE_CURVE('',#228,#228,#185,.T.);
#292=EDGE_CURVE('',#207,#216,#129,.T.);
#293=ORIENTED_EDGE('',*,*,#229,.F.);
#294=ORIENTED_EDGE('',*,*,#230,.T.);
#295=ORIENTED_EDGE('',*,*,#231,.F.);
#296=ORIENTED_EDGE('',*,*,#230,.F.);
#297=ORIENTED_EDGE('',*,*,#232,.F.);
#298=ORIENTED_EDGE('',*,*,#233,.T.);
#299=ORIENTED_EDGE('',*,*,#234,.F.);
#300=ORIENTED_EDGE('',*,*,#233,.F.);
#301=ORIENTED_EDGE('',*,*,#235,.F.);
#302=ORIENTED_EDGE('',*,*,#236,.T.);
#303=ORIENTED_EDGE('',*,*,#237,.F.);
#304=ORIENTED_EDGE('',*,*,#236,.F.);
#305=ORIENTED_EDGE('',*,*,#238,.F.);
#306=ORIENTED_EDGE('',*,*,#239,.T.);
#307=ORIENTED_EDGE('',*,*,#240,.F.);
#308=ORIENTED_EDGE('',*,*,#239,.F.);
#309=ORIENTED_EDGE('',*,*,#241,.T.);
#310=ORIENTED_EDGE('',*,*,#242,.T.);
#311=ORIENTED_EDGE('',*,*,#243,.T.);
#312=ORIENTED_EDGE('',*,*,#244,.T.);
#313=ORIENTED_EDGE('',*,*,#243,.F.);
#314=ORIENTED_EDGE('',*,*,#245,.T.);
#315=ORIENTED_EDGE('',*,*,#246,.F.);
#316=ORIENTED_EDGE('',*,*,#247,.T.);
#317=ORIENTED_EDGE('',*,*,#248,.T.);
#318=ORIENTED_EDGE('',*,*,#249,.T.);
#319=ORIENTED_EDGE('',*,*,#250,.T.);
#320=ORIENTED_EDGE('',*,*,#242,.F.);
#321=ORIENTED_EDGE('',*,*,#251,.F.);
#322=ORIENTED_EDGE('',*,*,#252,.F.);
#323=ORIENTED_EDGE('',*,*,#245,.F.);
#324=ORIENTED_EDGE('',*,*,#253,.T.);
#325=ORIENTED_EDGE('',*,*,#254,.T.);
#326=ORIENTED_EDGE('',*,*,#255,.T.);
#327=ORIENTED_EDGE('',*,*,#256,.T.);
#328=ORIENTED_EDGE('',*,*,#254,.F.);
#329=ORIENTED_EDGE('',*,*,#257,.F.);
#330=ORIENTED_EDGE('',*,*,#258,.F.);
#331=ORIENTED_EDGE('',*,*,#259,.T.);
#332=ORIENTED_EDGE('',*,*,#244,.F.);
#333=ORIENTED_EDGE('',*,*,#250,.F.);
#334=ORIENTED_EDGE('',*,*,#260,.T.);
#335=ORIENTED_EDGE('',*,*,#261,.F.);
#336=ORIENTED_EDGE('',*,*,#257,.T.);
#337=ORIENTED_EDGE('',*,*,#253,.F.);
#338=ORIENTED_EDGE('',*,*,#262,.T.);
#339=ORIENTED_EDGE('',*,*,#263,.F.);
#340=ORIENTED_EDGE('',*,*,#264,.T.);
#341=ORIENTED_EDGE('',*,*,#265,.F.);
#342=ORIENTED_EDGE('',*,*,#266,.T.);
#343=ORIENTED_EDGE('',*,*,#267,.F.);
#344=ORIENTED_EDGE('',*,*,#231,.T.);
#345=ORIENTED_EDGE('',*,*,#234,.T.);
#346=ORIENTED_EDGE('',*,*,#237,.T.);
#347=ORIENTED_EDGE('',*,*,#240,.T.);
#348=ORIENTED_EDGE('',*,*,#263,.T.);
#349=ORIENTED_EDGE('',*,*,#268,.T.);
#350=ORIENTED_EDGE('',*,*,#269,.T.);
#351=ORIENTED_EDGE('',*,*,#270,.T.);
#352=ORIENTED_EDGE('',*,*,#270,.F.);
#353=ORIENTED_EDGE('',*,*,#271,.T.);
#354=ORIENTED_EDGE('',*,*,#272,.F.);
#355=ORIENTED_EDGE('',*,*,#264,.F.);
#356=ORIENTED_EDGE('',*,*,#265,.T.);
#357=ORIENTED_EDGE('',*,*,#272,.T.);
#358=ORIENTED_EDGE('',*,*,#273,.T.);
#359=ORIENTED_EDGE('',*,*,#274,.T.);
#360=ORIENTED_EDGE('',*,*,#261,.T.);
#361=ORIENTED_EDGE('',*,*,#275,.T.);
#362=ORIENTED_EDGE('',*,*,#276,.T.);
#363=ORIENTED_EDGE('',*,*,#258,.T.);
#364=ORIENTED_EDGE('',*,*,#275,.F.);
#365=ORIENTED_EDGE('',*,*,#260,.F.);
#366=ORIENTED_EDGE('',*,*,#249,.F.);
#367=ORIENTED_EDGE('',*,*,#277,.T.);
#368=ORIENTED_EDGE('',*,*,#246,.T.);
#369=ORIENTED_EDGE('',*,*,#252,.T.);
#370=ORIENTED_EDGE('',*,*,#278,.T.);
#371=ORIENTED_EDGE('',*,*,#279,.T.);
#372=ORIENTED_EDGE('',*,*,#279,.F.);
#373=ORIENTED_EDGE('',*,*,#280,.F.);
#374=ORIENTED_EDGE('',*,*,#281,.T.);
#375=ORIENTED_EDGE('',*,*,#247,.F.);
#376=ORIENTED_EDGE('',*,*,#241,.F.);
#377=ORIENTED_EDGE('',*,*,#267,.T.);
#378=ORIENTED_EDGE('',*,*,#282,.T.);
#379=ORIENTED_EDGE('',*,*,#283,.T.);
#380=ORIENTED_EDGE('',*,*,#280,.T.);
#381=ORIENTED_EDGE('',*,*,#278,.F.);
#382=ORIENTED_EDGE('',*,*,#251,.T.);
#383=ORIENTED_EDGE('',*,*,#274,.F.);
#384=ORIENTED_EDGE('',*,*,#284,.T.);
#385=ORIENTED_EDGE('',*,*,#282,.F.);
#386=ORIENTED_EDGE('',*,*,#266,.F.);
#387=ORIENTED_EDGE('',*,*,#285,.F.);
#388=ORIENTED_EDGE('',*,*,#286,.T.);
#389=ORIENTED_EDGE('',*,*,#287,.F.);
#390=ORIENTED_EDGE('',*,*,#288,.F.);
#391=ORIENTED_EDGE('',*,*,#286,.F.);
#392=ORIENTED_EDGE('',*,*,#289,.F.);
#393=ORIENTED_EDGE('',*,*,#289,.T.);
#394=ORIENTED_EDGE('',*,*,#290,.T.);
#395=ORIENTED_EDGE('',*,*,#291,.T.);
#396=ORIENTED_EDGE('',*,*,#290,.F.);
#397=ORIENTED_EDGE('',*,*,#287,.T.);
#398=ORIENTED_EDGE('',*,*,#288,.T.);
#399=ORIENTED_EDGE('',*,*,#256,.F.);
#400=ORIENTED_EDGE('',*,*,#292,.T.);
#401=ORIENTED_EDGE('',*,*,#268,.F.);
#402=ORIENTED_EDGE('',*,*,#262,.F.);
#403=ORIENTED_EDGE('',*,*,#285,.T.);
#404=ORIENTED_EDGE('',*,*,#255,.F.);
#405=ORIENTED_EDGE('',*,*,#259,.F.);
#406=ORIENTED_EDGE('',*,*,#276,.F.);
#407=ORIENTED_EDGE('',*,*,#277,.F.);
#408=ORIENTED_EDGE('',*,*,#248,.F.);
#409=ORIENTED_EDGE('',*,*,#281,.F.);
#410=ORIENTED_EDGE('',*,*,#283,.F.);
#411=ORIENTED_EDGE('',*,*,#284,.F.);
#412=ORIENTED_EDGE('',*,*,#273,.F.);
#413=ORIENTED_EDGE('',*,*,#271,.F.);
#414=ORIENTED_EDGE('',*,*,#269,.F.);
#415=ORIENTED_EDGE('',*,*,#292,.F.);
#416=ORIENTED_EDGE('',*,*,#229,.T.);
#417=ORIENTED_EDGE('',*,*,#232,.T.);
#418=ORIENTED_EDGE('',*,*,#235,.T.);
#419=ORIENTED_EDGE('',*,*,#238,.T.);
#420=ORIENTED_EDGE('',*,*,#291,.F.);
#421=CYLINDRICAL_SURFACE('',#484,1.0065);
#422=CYLINDRICAL_SURFACE('',#487,1.0065);
#423=CYLINDRICAL_SURFACE('',#490,1.0065);
#424=CYLINDRICAL_SURFACE('',#493,1.0065);
#425=CYLINDRICAL_SURFACE('',#496,1.);
#426=CYLINDRICAL_SURFACE('',#497,1.);
#427=CYLINDRICAL_SURFACE('',#504,1.);
#428=CYLINDRICAL_SURFACE('',#515,1.);
#429=CYLINDRICAL_SURFACE('',#518,1.);
#430=CYLINDRICAL_SURFACE('',#520,1.);
#431=CYLINDRICAL_SURFACE('',#522,13.9999999999998);
#432=CYLINDRICAL_SURFACE('',#524,1.);
#433=CYLINDRICAL_SURFACE('',#527,1.);
#434=CYLINDRICAL_SURFACE('',#529,13.9999999999999);
#435=CYLINDRICAL_SURFACE('',#531,1.0065);
#436=CYLINDRICAL_SURFACE('',#535,5.);
#437=ADVANCED_FACE('',(#42),#421,.F.);
#438=ADVANCED_FACE('',(#43),#422,.F.);
#439=ADVANCED_FACE('',(#44),#423,.F.);
#440=ADVANCED_FACE('',(#45),#424,.F.);
#441=ADVANCED_FACE('',(#46),#425,.T.);
#442=ADVANCED_FACE('',(#47),#426,.T.);
#443=ADVANCED_FACE('',(#48),#26,.T.);
#444=ADVANCED_FACE('',(#49),#427,.T.);
#445=ADVANCED_FACE('',(#50),#27,.T.);
#446=ADVANCED_FACE('',(#51,#15,#16,#17,#18),#28,.T.);
#447=ADVANCED_FACE('',(#52),#428,.T.);
#448=ADVANCED_FACE('',(#53),#29,.T.);
#449=ADVANCED_FACE('',(#54),#429,.T.);
#450=ADVANCED_FACE('',(#55),#430,.T.);
#451=ADVANCED_FACE('',(#56),#431,.F.);
#452=ADVANCED_FACE('',(#57),#432,.T.);
#453=ADVANCED_FACE('',(#58),#30,.T.);
#454=ADVANCED_FACE('',(#59),#433,.T.);
#455=ADVANCED_FACE('',(#60),#434,.F.);
#456=ADVANCED_FACE('',(#61),#435,.F.);
#457=ADVANCED_FACE('',(#62),#31,.F.);
#458=ADVANCED_FACE('',(#63,#19),#436,.F.);
#459=ADVANCED_FACE('',(#64,#20),#32,.T.);
#460=ADVANCED_FACE('',(#65,#21,#22,#23,#24,#25),#33,.F.);
#461=CLOSED_SHELL('',(#437,#438,#439,#440,#441,#442,#443,#444,#445,#446,
#447,#448,#449,#450,#451,#452,#453,#454,#455,#456,#457,#458,#459,#460));
#462=DERIVED_UNIT_ELEMENT(#465,1.);
#463=DERIVED_UNIT_ELEMENT(#869,-3.);
#464=DIMENSIONAL_EXPONENTS(0.,1.,0.,0.,0.,0.,0.);
#465=(
CONVERSION_BASED_UNIT('gram',#467)
MASS_UNIT()
NAMED_UNIT(#464)
);
#466=(
MASS_UNIT()
NAMED_UNIT(*)
SI_UNIT(.KILO.,.GRAM.)
);
#467=MASS_MEASURE_WITH_UNIT(MASS_MEASURE(0.001),#466);
#468=DERIVED_UNIT((#462,#463));
#469=MEASURE_REPRESENTATION_ITEM('density measure',
POSITIVE_RATIO_MEASURE(1.13),#468);
#470=PROPERTY_DEFINITION_REPRESENTATION(#475,#472);
#471=PROPERTY_DEFINITION_REPRESENTATION(#476,#473);
#472=REPRESENTATION('material name',(#474),#866);
#473=REPRESENTATION('density',(#469),#866);
#474=DESCRIPTIVE_REPRESENTATION_ITEM('Nylon 6/6','Nylon 6/6');
#475=PROPERTY_DEFINITION('material property','material name',#876);
#476=PROPERTY_DEFINITION('material property','density of part',#876);
#477=DATE_TIME_ROLE('creation_date');
#478=APPLIED_DATE_AND_TIME_ASSIGNMENT(#479,#477,(#876));
#479=DATE_AND_TIME(#480,#481);
#480=CALENDAR_DATE(2026,14,4);
#481=LOCAL_TIME(0,0,0.,#482);
#482=COORDINATED_UNIVERSAL_TIME_OFFSET(0,0,.BEHIND.);
#483=AXIS2_PLACEMENT_3D('',#680,#539,#540);
#484=AXIS2_PLACEMENT_3D('',#681,#541,#542);
#485=AXIS2_PLACEMENT_3D('',#683,#543,#544);
#486=AXIS2_PLACEMENT_3D('',#686,#546,#547);
#487=AXIS2_PLACEMENT_3D('',#687,#548,#549);
#488=AXIS2_PLACEMENT_3D('',#689,#550,#551);
#489=AXIS2_PLACEMENT_3D('',#692,#553,#554);
#490=AXIS2_PLACEMENT_3D('',#693,#555,#556);
#491=AXIS2_PLACEMENT_3D('',#695,#557,#558);
#492=AXIS2_PLACEMENT_3D('',#698,#560,#561);
#493=AXIS2_PLACEMENT_3D('',#699,#562,#563);
#494=AXIS2_PLACEMENT_3D('',#701,#564,#565);
#495=AXIS2_PLACEMENT_3D('',#704,#567,#568);
#496=AXIS2_PLACEMENT_3D('',#705,#569,#570);
#497=AXIS2_PLACEMENT_3D('',#732,#573,#574);
#498=AXIS2_PLACEMENT_3D('',#734,#575,#576);
#499=AXIS2_PLACEMENT_3D('',#736,#577,#578);
#500=AXIS2_PLACEMENT_3D('',#740,#580,#581);
#501=AXIS2_PLACEMENT_3D('',#743,#583,#584);
#502=AXIS2_PLACEMENT_3D('',#744,#585,#586);
#503=AXIS2_PLACEMENT_3D('',#746,#587,#588);
#504=AXIS2_PLACEMENT_3D('',#748,#590,#591);
#505=AXIS2_PLACEMENT_3D('',#751,#592,#593);
#506=AXIS2_PLACEMENT_3D('',#755,#595,#596);
#507=AXIS2_PLACEMENT_3D('',#757,#598,#599);
#508=AXIS2_PLACEMENT_3D('',#763,#603,#604);
#509=AXIS2_PLACEMENT_3D('',#765,#605,#606);
#510=AXIS2_PLACEMENT_3D('',#766,#607,#608);
#511=AXIS2_PLACEMENT_3D('',#770,#610,#611);
#512=AXIS2_PLACEMENT_3D('',#774,#613,#614);
#513=AXIS2_PLACEMENT_3D('',#776,#615,#616);
#514=AXIS2_PLACEMENT_3D('',#777,#617,#618);
#515=AXIS2_PLACEMENT_3D('',#778,#619,#620);
#516=AXIS2_PLACEMENT_3D('',#782,#622,#623);
#517=AXIS2_PLACEMENT_3D('',#784,#625,#626);
#518=AXIS2_PLACEMENT_3D('',#788,#629,#630);
#519=AXIS2_PLACEMENT_3D('',#790,#631,#632);
#520=AXIS2_PLACEMENT_3D('',#792,#634,#635);
#521=AXIS2_PLACEMENT_3D('',#795,#637,#638);
#522=AXIS2_PLACEMENT_3D('',#796,#639,#640);
#523=AXIS2_PLACEMENT_3D('',#797,#641,#642);
#524=AXIS2_PLACEMENT_3D('',#798,#643,#644);
#525=AXIS2_PLACEMENT_3D('',#800,#645,#646);
#526=AXIS2_PLACEMENT_3D('',#802,#648,#649);
#527=AXIS2_PLACEMENT_3D('',#806,#652,#653);
#528=AXIS2_PLACEMENT_3D('',#809,#655,#656);
#529=AXIS2_PLACEMENT_3D('',#810,#657,#658);
#530=AXIS2_PLACEMENT_3D('',#811,#659,#660);
#531=AXIS2_PLACEMENT_3D('',#812,#661,#662);
#532=AXIS2_PLACEMENT_3D('',#814,#663,#664);
#533=AXIS2_PLACEMENT_3D('',#854,#666,#667);
#534=AXIS2_PLACEMENT_3D('',#856,#668,#669);
#535=AXIS2_PLACEMENT_3D('',#857,#670,#671);
#536=AXIS2_PLACEMENT_3D('',#860,#673,#674);
#537=AXIS2_PLACEMENT_3D('',#861,#675,#676);
#538=AXIS2_PLACEMENT_3D('',#863,#678,#679);
#539=DIRECTION('axis',(0.,0.,1.));
#540=DIRECTION('refdir',(1.,0.,0.));
#541=DIRECTION('center_axis',(0.,0.,-1.));
#542=DIRECTION('ref_axis',(-1.,0.,0.));
#543=DIRECTION('center_axis',(0.,0.,1.));
#544=DIRECTION('ref_axis',(-1.,0.,0.));
#545=DIRECTION('',(0.,0.,1.));
#546=DIRECTION('center_axis',(-2.64811259196068E-15,8.62232053969446E-17,
-1.));
#547=DIRECTION('ref_axis',(-1.,0.,0.));
#548=DIRECTION('center_axis',(0.,0.,-1.));
#549=DIRECTION('ref_axis',(-1.,0.,0.));
#550=DIRECTION('center_axis',(0.,0.,1.));
#551=DIRECTION('ref_axis',(-1.,0.,0.));
#552=DIRECTION('',(0.,0.,1.));
#553=DIRECTION('center_axis',(-2.64811259196068E-15,8.62232053969446E-17,
-1.));
#554=DIRECTION('ref_axis',(-1.,0.,0.));
#555=DIRECTION('center_axis',(0.,0.,-1.));
#556=DIRECTION('ref_axis',(-1.,0.,0.));
#557=DIRECTION('center_axis',(0.,0.,1.));
#558=DIRECTION('ref_axis',(-1.,0.,0.));
#559=DIRECTION('',(0.,0.,1.));
#560=DIRECTION('center_axis',(-2.64811259196068E-15,8.62232053969446E-17,
-1.));
#561=DIRECTION('ref_axis',(-1.,0.,0.));
#562=DIRECTION('center_axis',(0.,0.,-1.));
#563=DIRECTION('ref_axis',(-1.,0.,0.));
#564=DIRECTION('center_axis',(0.,0.,1.));
#565=DIRECTION('ref_axis',(-1.,0.,0.));
#566=DIRECTION('',(0.,0.,1.));
#567=DIRECTION('center_axis',(-2.64811259196068E-15,8.62232053969446E-17,
-1.));
#568=DIRECTION('ref_axis',(-1.,0.,0.));
#569=DIRECTION('center_axis',(0.,-1.,-8.62232053969446E-17));
#570=DIRECTION('ref_axis',(0.382683432365089,0.,0.923879532511287));
#571=DIRECTION('',(0.,1.,8.62232053969446E-17));
#572=DIRECTION('',(0.,-1.,-8.62232053969446E-17));
#573=DIRECTION('center_axis',(0.,0.,1.));
#574=DIRECTION('ref_axis',(0.573003781255701,0.819552723542951,0.));
#575=DIRECTION('center_axis',(-0.707106781186548,6.096901323182E-17,-0.707106781186547));
#576=DIRECTION('ref_axis',(0.707106781186547,-9.81307786677359E-17,-0.707106781186548));
#577=DIRECTION('center_axis',(0.,-0.707106781186547,0.707106781186548));
#578=DIRECTION('ref_axis',(-4.90653893338679E-17,0.707106781186548,0.707106781186547));
#579=DIRECTION('',(0.,0.,-1.));
#580=DIRECTION('center_axis',(0.,0.,1.));
#581=DIRECTION('ref_axis',(0.573003781255701,0.819552723542951,0.));
#582=DIRECTION('',(0.,0.,1.));
#583=DIRECTION('center_axis',(-2.64811259196068E-15,8.62232053969446E-17,
-1.));
#584=DIRECTION('ref_axis',(0.573003781255701,0.819552723542951,0.));
#585=DIRECTION('center_axis',(0.707106781186548,-6.096901323182E-17,0.707106781186547));
#586=DIRECTION('ref_axis',(0.707106781186547,0.,-0.707106781186548));
#587=DIRECTION('center_axis',(-0.707106781186548,6.096901323182E-17,-0.707106781186547));
#588=DIRECTION('ref_axis',(0.707106781186547,-4.90653893338679E-17,-0.707106781186548));
#589=DIRECTION('',(0.,-1.,-8.62232053969446E-17));
#590=DIRECTION('center_axis',(0.,0.,1.));
#591=DIRECTION('ref_axis',(-0.707106781186549,0.707106781186546,0.));
#592=DIRECTION('center_axis',(-2.64811259196068E-15,8.62232053969446E-17,
-1.));
#593=DIRECTION('ref_axis',(-0.707106781186549,0.707106781186546,0.));
#594=DIRECTION('',(0.,0.,-1.));
#595=DIRECTION('center_axis',(0.,0.,1.));
#596=DIRECTION('ref_axis',(-0.707106781186549,0.707106781186546,0.));
#597=DIRECTION('',(0.,0.,1.));
#598=DIRECTION('center_axis',(0.,1.,0.));
#599=DIRECTION('ref_axis',(-1.,0.,0.));
#600=DIRECTION('',(-1.,1.09887137908188E-32,2.64811259196068E-15));
#601=DIRECTION('',(0.,0.,1.));
#602=DIRECTION('',(-1.,0.,0.));
#603=DIRECTION('center_axis',(2.64811259196068E-15,-8.62232053969446E-17,
1.));
#604=DIRECTION('ref_axis',(1.,0.,-2.64811259196068E-15));
#605=DIRECTION('center_axis',(-2.64811259196068E-15,8.62232053969444E-17,
-1.));
#606=DIRECTION('ref_axis',(0.692857142857139,0.721074877936988,-1.77259033712295E-15));
#607=DIRECTION('center_axis',(-2.64811259196068E-15,8.62232053969446E-17,
-1.));
#608=DIRECTION('ref_axis',(0.360783947762006,0.932649421292514,0.));
#609=DIRECTION('',(2.94318881035877E-16,-1.,-8.62232053969454E-17));
#610=DIRECTION('center_axis',(-2.64811259196068E-15,8.62232053969446E-17,
-1.));
#611=DIRECTION('ref_axis',(-0.707106781186549,-0.707106781186546,0.));
#612=DIRECTION('',(1.,-1.09887137908188E-32,-2.64811259196068E-15));
#613=DIRECTION('center_axis',(-2.64811259196068E-15,8.62232053969446E-17,
-1.));
#614=DIRECTION('ref_axis',(0.360783947762006,-0.932649421292515,0.));
#615=DIRECTION('center_axis',(-2.64811259196068E-15,8.62232053969446E-17,
-1.));
#616=DIRECTION('ref_axis',(-0.439285714285717,-0.898347405642432,1.08581963859393E-15));
#617=DIRECTION('center_axis',(-2.64811259196068E-15,8.62232053969446E-17,
-1.));
#618=DIRECTION('ref_axis',(0.573003781255701,-0.819552723542951,0.));
#619=DIRECTION('center_axis',(0.,0.,1.));
#620=DIRECTION('ref_axis',(-0.707106781186549,-0.707106781186546,0.));
#621=DIRECTION('',(0.,0.,-1.));
#622=DIRECTION('center_axis',(0.,0.,1.));
#623=DIRECTION('ref_axis',(-0.707106781186549,-0.707106781186546,0.));
#624=DIRECTION('',(0.,0.,1.));
#625=DIRECTION('center_axis',(0.,-1.,0.));
#626=DIRECTION('ref_axis',(1.,0.,0.));
#627=DIRECTION('',(1.,0.,0.));
#628=DIRECTION('',(0.,0.,-1.));
#629=DIRECTION('center_axis',(0.,0.,1.));
#630=DIRECTION('ref_axis',(0.360783947762006,-0.932649421292515,0.));
#631=DIRECTION('center_axis',(0.,0.,1.));
#632=DIRECTION('ref_axis',(0.360783947762006,-0.932649421292515,0.));
#633=DIRECTION('',(0.,0.,1.));
#634=DIRECTION('center_axis',(0.,0.,1.));
#635=DIRECTION('ref_axis',(0.360783947762006,0.932649421292514,0.));
#636=DIRECTION('',(0.,0.,-1.));
#637=DIRECTION('center_axis',(0.,0.,1.));
#638=DIRECTION('ref_axis',(0.360783947762006,0.932649421292514,0.));
#639=DIRECTION('center_axis',(0.,0.,1.));
#640=DIRECTION('ref_axis',(-1.,0.,0.));
#641=DIRECTION('center_axis',(0.,0.,-1.));
#642=DIRECTION('ref_axis',(-1.,0.,0.));
#643=DIRECTION('center_axis',(0.,1.,8.62232053969446E-17));
#644=DIRECTION('ref_axis',(0.923879532511287,0.,0.38268343236509));
#645=DIRECTION('center_axis',(0.,0.707106781186549,0.707106781186546));
#646=DIRECTION('ref_axis',(-4.90653893338681E-17,-0.707106781186546,0.707106781186549));
#647=DIRECTION('',(0.,1.,8.62232053969446E-17));
#648=DIRECTION('center_axis',(1.,0.,0.));
#649=DIRECTION('ref_axis',(0.,1.,0.));
#650=DIRECTION('',(0.,0.,1.));
#651=DIRECTION('',(0.,1.,0.));
#652=DIRECTION('center_axis',(0.,0.,1.));
#653=DIRECTION('ref_axis',(0.573003781255701,-0.819552723542951,0.));
#654=DIRECTION('',(0.,0.,-1.));
#655=DIRECTION('center_axis',(0.,0.,1.));
#656=DIRECTION('ref_axis',(0.573003781255701,-0.819552723542951,0.));
#657=DIRECTION('center_axis',(0.,0.,1.));
#658=DIRECTION('ref_axis',(-1.,0.,0.));
#659=DIRECTION('center_axis',(0.,0.,-1.));
#660=DIRECTION('ref_axis',(-1.,0.,0.));
#661=DIRECTION('center_axis',(-1.,-2.94318881035878E-16,0.));
#662=DIRECTION('ref_axis',(0.,0.,1.));
#663=DIRECTION('center_axis',(1.,2.94318881035878E-16,0.));
#664=DIRECTION('ref_axis',(0.,0.,1.));
#665=DIRECTION('',(1.,2.94318881035878E-16,0.));
#666=DIRECTION('center_axis',(2.64811259196068E-15,-8.62232053969446E-17,
1.));
#667=DIRECTION('ref_axis',(1.,0.,-2.64811259196068E-15));
#668=DIRECTION('center_axis',(2.64811259196068E-15,-8.62232053969446E-17,
1.));
#669=DIRECTION('ref_axis',(-1.,0.,0.));
#670=DIRECTION('center_axis',(0.,0.,1.));
#671=DIRECTION('ref_axis',(-1.,0.,0.));
#672=DIRECTION('',(0.,0.,-1.));
#673=DIRECTION('center_axis',(0.,0.,-1.));
#674=DIRECTION('ref_axis',(-1.,0.,0.));
#675=DIRECTION('center_axis',(-1.,-2.94318881035878E-16,0.));
#676=DIRECTION('ref_axis',(2.94318881035878E-16,-1.,0.));
#677=DIRECTION('',(2.94318881035878E-16,-1.,0.));
#678=DIRECTION('center_axis',(0.,0.,1.));
#679=DIRECTION('ref_axis',(1.,0.,0.));
#680=CARTESIAN_POINT('',(0.,0.,0.));
#681=CARTESIAN_POINT('Origin',(6.05008150205215,-39.3417368789503,27.6599048060564));
#682=CARTESIAN_POINT('',(7.05658150205215,-39.3417368789503,0.));
#683=CARTESIAN_POINT('Origin',(6.05008150205215,-39.3417368789503,0.));
#684=CARTESIAN_POINT('',(7.05658150205215,-39.3417368789503,3.99999999999916));
#685=CARTESIAN_POINT('',(7.05658150205215,-39.3417368789503,27.6599048060564));
#686=CARTESIAN_POINT('Origin',(6.05008150205215,-39.3417368789503,3.99999999999916));
#687=CARTESIAN_POINT('Origin',(7.50390814576135,-29.5481063447611,27.6599048060564));
#688=CARTESIAN_POINT('',(8.51040814576135,-29.5481063447611,0.));
#689=CARTESIAN_POINT('Origin',(7.50390814576135,-29.5481063447611,0.));
#690=CARTESIAN_POINT('',(8.51040814576135,-29.5481063447611,3.99999999999916));
#691=CARTESIAN_POINT('',(8.51040814576135,-29.5481063447611,27.6599048060564));
#692=CARTESIAN_POINT('Origin',(7.50390814576135,-29.5481063447611,3.99999999999916));
#693=CARTESIAN_POINT('Origin',(18.3621532161824,-30.7884627550659,27.6599048060564));
#694=CARTESIAN_POINT('',(19.3686532161824,-30.7884627550659,0.));
#695=CARTESIAN_POINT('Origin',(18.3621532161824,-30.7884627550659,0.));
#696=CARTESIAN_POINT('',(19.3686532161824,-30.7884627550659,3.99999999999916));
#697=CARTESIAN_POINT('',(19.3686532161824,-30.7884627550659,27.6599048060564));
#698=CARTESIAN_POINT('Origin',(18.3621532161824,-30.7884627550659,3.99999999999916));
#699=CARTESIAN_POINT('Origin',(18.4905923180156,-39.5783857242724,27.6599048060564));
#700=CARTESIAN_POINT('',(19.4970923180156,-39.5783857242724,0.));
#701=CARTESIAN_POINT('Origin',(18.4905923180156,-39.5783857242724,0.));
#702=CARTESIAN_POINT('',(19.4970923180156,-39.5783857242724,3.99999999999916));
#703=CARTESIAN_POINT('',(19.4970923180156,-39.5783857242724,27.6599048060564));
#704=CARTESIAN_POINT('Origin',(18.4905923180156,-39.5783857242724,3.99999999999916));
#705=CARTESIAN_POINT('Origin',(19.6357864376269,-37.1414541770916,2.99999999999914));
#706=CARTESIAN_POINT('',(19.6357864376269,-42.5256547187625,3.99999999999916));
#707=CARTESIAN_POINT('',(20.3428932188134,-42.4189576775843,3.70710678118569));
#708=CARTESIAN_POINT('Ctrl Pts',(19.6357864376269,-42.5256547187625,3.99999999999914));
#709=CARTESIAN_POINT('Ctrl Pts',(19.6442975519784,-42.5275212427903,3.99999999999914));
#710=CARTESIAN_POINT('Ctrl Pts',(19.6528334299585,-42.5292765522444,3.99989129016734));
#711=CARTESIAN_POINT('Ctrl Pts',(19.764333587499,-42.5506914270864,3.99703601430872));
#712=CARTESIAN_POINT('Ctrl Pts',(19.8699153222962,-42.5530547525269,3.97718981363421));
#713=CARTESIAN_POINT('Ctrl Pts',(20.0621007100999,-42.5311864142734,3.91062739625772));
#714=CARTESIAN_POINT('Ctrl Pts',(20.1596947022551,-42.5041649039575,3.85844374026272));
#715=CARTESIAN_POINT('Ctrl Pts',(20.2794817608691,-42.4527485450239,3.7665557594737));
#716=CARTESIAN_POINT('Ctrl Pts',(20.3124504234795,-42.436203078272,3.73754957651963));
#717=CARTESIAN_POINT('Ctrl Pts',(20.3428932188134,-42.4189576775843,3.70710678118569));
#718=CARTESIAN_POINT('',(20.3428932188134,-27.9181144773598,3.70710678118569));
#719=CARTESIAN_POINT('',(20.3428932188134,-37.1414541770916,3.70710678118569));
#720=CARTESIAN_POINT('',(19.6357864376269,-27.8114174361816,3.99999999999916));
#721=CARTESIAN_POINT('Ctrl Pts',(20.3428932188134,-27.9181144773598,3.70710678118569));
#722=CARTESIAN_POINT('Ctrl Pts',(20.3124504234795,-27.9008690766721,3.73754957651963));
#723=CARTESIAN_POINT('Ctrl Pts',(20.2794817608691,-27.8843236099202,3.7665557594737));
#724=CARTESIAN_POINT('Ctrl Pts',(20.1596947022551,-27.8329072509866,3.85844374026272));
#725=CARTESIAN_POINT('Ctrl Pts',(20.0621007100999,-27.8058857406707,3.91062739625772));
#726=CARTESIAN_POINT('Ctrl Pts',(19.8699153222962,-27.7840174024172,3.97718981363421));
#727=CARTESIAN_POINT('Ctrl Pts',(19.764333587499,-27.7863807278577,3.99703601430872));
#728=CARTESIAN_POINT('Ctrl Pts',(19.6528334299585,-27.8077956026997,3.99989129016734));
#729=CARTESIAN_POINT('Ctrl Pts',(19.6442975519784,-27.8095509121538,3.99999999999914));
#730=CARTESIAN_POINT('Ctrl Pts',(19.6357864376269,-27.8114174361816,3.99999999999914));
#731=CARTESIAN_POINT('',(19.6357864376269,-37.1414541770916,3.99999999999914));
#732=CARTESIAN_POINT('Origin',(19.85,-28.7882042858553,0.));
#733=CARTESIAN_POINT('',(20.5571067811865,-28.0810975046688,3.49289321881259));
#734=CARTESIAN_POINT('Origin',(19.85,-28.7882042858553,4.19999999999914));
#735=CARTESIAN_POINT('',(20.85,-28.7882042858553,2.78578643762604));
#736=CARTESIAN_POINT('Origin',(19.85,-28.7882042858553,2.78578643762604));
#737=CARTESIAN_POINT('',(20.85,-28.7882042858553,0.));
#738=CARTESIAN_POINT('',(20.85,-28.7882042858553,0.));
#739=CARTESIAN_POINT('',(19.5066666666666,-27.8489906667983,0.));
#740=CARTESIAN_POINT('Origin',(19.85,-28.7882042858553,0.));
#741=CARTESIAN_POINT('',(19.5066666666666,-27.8489906667983,3.99999999999914));
#742=CARTESIAN_POINT('',(19.5066666666666,-27.8489906667983,0.));
#743=CARTESIAN_POINT('Origin',(19.85,-28.7882042858553,3.99999999999916));
#744=CARTESIAN_POINT('Origin',(20.45,-39.1143722767112,3.59999999999914));
#745=CARTESIAN_POINT('',(20.5571067811865,-42.2559746502753,3.49289321881259));
#746=CARTESIAN_POINT('Origin',(19.85,-41.5488678690888,4.19999999999914));
#747=CARTESIAN_POINT('',(20.5571067811865,-41.0872903763308,3.49289321881259));
#748=CARTESIAN_POINT('Origin',(4.00000000000015,-25.7950482911176,0.));
#749=CARTESIAN_POINT('',(3.00000000000015,-25.7950482911176,3.99999999999919));
#750=CARTESIAN_POINT('',(4.00000000000015,-24.7950482911176,3.99999999999918));
#751=CARTESIAN_POINT('Origin',(4.00000000000015,-25.7950482911176,3.99999999999916));
#752=CARTESIAN_POINT('',(4.00000000000015,-24.7950482911176,0.));
#753=CARTESIAN_POINT('',(4.00000000000015,-24.7950482911176,0.));
#754=CARTESIAN_POINT('',(3.00000000000015,-25.7950482911176,0.));
#755=CARTESIAN_POINT('Origin',(4.00000000000015,-25.7950482911176,0.));
#756=CARTESIAN_POINT('',(3.00000000000015,-25.7950482911176,0.));
#757=CARTESIAN_POINT('Origin',(5.00000000000015,-24.7950482911176,0.));
#758=CARTESIAN_POINT('',(4.60545179724415,-24.7950482911176,3.99999999999918));
#759=CARTESIAN_POINT('',(5.00000000000015,-24.7950482911176,3.99999999999918));
#760=CARTESIAN_POINT('',(4.60545179724415,-24.7950482911176,0.));
#761=CARTESIAN_POINT('',(4.60545179724415,-24.7950482911176,0.));
#762=CARTESIAN_POINT('',(5.00000000000015,-24.7950482911176,0.));
#763=CARTESIAN_POINT('Origin',(11.9250000000001,-35.168536077472,3.99999999999916));
#764=CARTESIAN_POINT('',(5.27842167742788,-25.0553784050431,3.99999999999918));
#765=CARTESIAN_POINT('Origin',(14.7,-14.6999999999999,3.99999999999916));
#766=CARTESIAN_POINT('Origin',(4.60545179724415,-25.7950482911176,3.99999999999916));
#767=CARTESIAN_POINT('',(3.00000000000016,-44.5420238638265,3.99999999999919));
#768=CARTESIAN_POINT('',(3.00000000000015,-24.7950482911176,3.99999999999919));
#769=CARTESIAN_POINT('',(4.00000000000015,-45.5420238638265,3.99999999999918));
#770=CARTESIAN_POINT('Origin',(4.00000000000015,-44.5420238638265,3.99999999999916));
#771=CARTESIAN_POINT('',(4.60545179724416,-45.5420238638265,3.99999999999918));
#772=CARTESIAN_POINT('',(3.00000000000016,-45.5420238638265,3.99999999999919));
#773=CARTESIAN_POINT('',(5.27842167742789,-45.281693749901,3.99999999999918));
#774=CARTESIAN_POINT('Origin',(4.60545179724416,-44.5420238638265,3.99999999999916));
#775=CARTESIAN_POINT('',(19.5066666666666,-42.4880814881459,3.99999999999914));
#776=CARTESIAN_POINT('Origin',(14.7,-55.6370721549443,3.99999999999915));
#777=CARTESIAN_POINT('Origin',(19.85,-41.5488678690888,3.99999999999916));
#778=CARTESIAN_POINT('Origin',(4.00000000000015,-44.5420238638265,0.));
#779=CARTESIAN_POINT('',(3.00000000000015,-44.5420238638265,0.));
#780=CARTESIAN_POINT('',(3.00000000000015,-44.5420238638265,0.));
#781=CARTESIAN_POINT('',(4.00000000000015,-45.5420238638265,0.));
#782=CARTESIAN_POINT('Origin',(4.00000000000015,-44.5420238638265,0.));
#783=CARTESIAN_POINT('',(4.00000000000015,-45.5420238638265,0.));
#784=CARTESIAN_POINT('Origin',(3.00000000000015,-45.5420238638265,0.));
#785=CARTESIAN_POINT('',(4.60545179724416,-45.5420238638265,0.));
#786=CARTESIAN_POINT('',(3.00000000000015,-45.5420238638265,0.));
#787=CARTESIAN_POINT('',(4.60545179724416,-45.5420238638265,0.));
#788=CARTESIAN_POINT('Origin',(4.60545179724416,-44.5420238638265,0.));
#789=CARTESIAN_POINT('',(5.27842167742789,-45.281693749901,0.));
#790=CARTESIAN_POINT('Origin',(4.60545179724416,-44.5420238638265,0.));
#791=CARTESIAN_POINT('',(5.27842167742788,-45.281693749901,0.));
#792=CARTESIAN_POINT('Origin',(4.60545179724415,-25.7950482911176,0.));
#793=CARTESIAN_POINT('',(5.27842167742788,-25.0553784050431,0.));
#794=CARTESIAN_POINT('',(5.27842167742788,-25.0553784050431,0.));
#795=CARTESIAN_POINT('Origin',(4.60545179724415,-25.7950482911176,0.));
#796=CARTESIAN_POINT('Origin',(14.7,-14.6999999999999,0.));
#797=CARTESIAN_POINT('Origin',(14.7,-14.6999999999999,0.));
#798=CARTESIAN_POINT('Origin',(19.85,-41.0872903763308,2.78578643762604));
#799=CARTESIAN_POINT('',(20.85,-41.5488678690888,2.78578643762604));
#800=CARTESIAN_POINT('Origin',(19.85,-41.5488678690888,2.78578643762604));
#801=CARTESIAN_POINT('',(20.85,-41.0872903763308,2.78578643762604));
#802=CARTESIAN_POINT('Origin',(20.85,-43.0602084759504,0.));
#803=CARTESIAN_POINT('',(20.85,-41.5488678690888,0.));
#804=CARTESIAN_POINT('',(20.85,-41.5488678690888,0.));
#805=CARTESIAN_POINT('',(20.85,-43.0602084759504,0.));
#806=CARTESIAN_POINT('Origin',(19.85,-41.5488678690888,0.));
#807=CARTESIAN_POINT('',(19.5066666666666,-42.4880814881458,0.));
#808=CARTESIAN_POINT('',(19.5066666666666,-42.4880814881458,0.));
#809=CARTESIAN_POINT('Origin',(19.85,-41.5488678690888,0.));
#810=CARTESIAN_POINT('Origin',(14.7,-55.6370721549443,0.));
#811=CARTESIAN_POINT('Origin',(14.7,-55.6370721549443,0.));
#812=CARTESIAN_POINT('Origin',(6.50000000000015,-35.168536077472,1.99999999999959));
#813=CARTESIAN_POINT('',(3.00000000000015,-35.168536077472,0.993499999999595));
#814=CARTESIAN_POINT('Origin',(3.00000000000015,-35.168536077472,1.99999999999959));
#815=CARTESIAN_POINT('',(7.35107500008384,-35.168536077472,0.993499999999595));
#816=CARTESIAN_POINT('',(6.50000000000015,-35.168536077472,0.993499999999595));
#817=CARTESIAN_POINT('',(7.43218443040406,-36.175036077472,1.99999999999959));
#818=CARTESIAN_POINT('Ctrl Pts',(7.43218443040406,-36.175036077472,1.99999999999959));
#819=CARTESIAN_POINT('Ctrl Pts',(7.43218443040406,-36.175036077472,2.12672983755975));
#820=CARTESIAN_POINT('Ctrl Pts',(7.42731421163073,-36.1496436764755,2.26170626503789));
#821=CARTESIAN_POINT('Ctrl Pts',(7.41008147593908,-36.0467612261102,2.50968905096173));
#822=CARTESIAN_POINT('Ctrl Pts',(7.3980120496286,-35.9692860740091,2.62272186976967));
#823=CARTESIAN_POINT('Ctrl Pts',(7.37615192928816,-35.7907788159439,2.80109718533741));
#824=CARTESIAN_POINT('Ctrl Pts',(7.36493089798357,-35.6777877050256,2.87846368389189));
#825=CARTESIAN_POINT('Ctrl Pts',(7.35094762664172,-35.4299479107897,2.98117252517561));
#826=CARTESIAN_POINT('Ctrl Pts',(7.34845054393871,-35.2950781772242,3.00649999999959));
#827=CARTESIAN_POINT('Ctrl Pts',(7.3537080959632,-35.041577399941,3.00649999999959));
#828=CARTESIAN_POINT('Ctrl Pts',(7.36183571859118,-34.9065146648834,2.98102309497065));
#829=CARTESIAN_POINT('Ctrl Pts',(7.38623523074063,-34.6585700840301,2.87806389732616));
#830=CARTESIAN_POINT('Ctrl Pts',(7.40224543102928,-34.5456531339325,2.80060429708733));
#831=CARTESIAN_POINT('Ctrl Pts',(7.4317027449343,-34.3675085449539,2.62229696385089));
#832=CARTESIAN_POINT('Ctrl Pts',(7.44710273058351,-34.2901967529519,2.50945605491183));
#833=CARTESIAN_POINT('Ctrl Pts',(7.4688069044456,-34.187449606049,2.26171494388137));
#834=CARTESIAN_POINT('Ctrl Pts',(7.47480689274637,-34.162036077472,2.12677913433756));
#835=CARTESIAN_POINT('Ctrl Pts',(7.47480689274637,-34.162036077472,1.87322086566163));
#836=CARTESIAN_POINT('Ctrl Pts',(7.4688069044456,-34.187449606049,1.73828505611781));
#837=CARTESIAN_POINT('Ctrl Pts',(7.44710273058351,-34.2901967529519,1.49054394508736));
#838=CARTESIAN_POINT('Ctrl Pts',(7.4317027449343,-34.3675085449539,1.3777030361483));
#839=CARTESIAN_POINT('Ctrl Pts',(7.40224543102928,-34.5456531339325,1.19939570291186));
#840=CARTESIAN_POINT('Ctrl Pts',(7.38623523074063,-34.6585700840301,1.12193610267303));
#841=CARTESIAN_POINT('Ctrl Pts',(7.36183571859118,-34.9065146648834,1.01897690502854));
#842=CARTESIAN_POINT('Ctrl Pts',(7.3537080959632,-35.041577399941,0.993499999999595));
#843=CARTESIAN_POINT('Ctrl Pts',(7.35107500008384,-35.168536077472,0.993499999999595));
#844=CARTESIAN_POINT('Ctrl Pts',(7.35107500008384,-35.168536077472,0.993499999999595));
#845=CARTESIAN_POINT('Ctrl Pts',(7.34845054393871,-35.2950781772242,0.993499999999595));
#846=CARTESIAN_POINT('Ctrl Pts',(7.35094762664172,-35.4299479107897,1.01882747482358));
#847=CARTESIAN_POINT('Ctrl Pts',(7.36493089798357,-35.6777877050256,1.1215363161073));
#848=CARTESIAN_POINT('Ctrl Pts',(7.37615192928816,-35.7907788159439,1.19890281466178));
#849=CARTESIAN_POINT('Ctrl Pts',(7.3980120496286,-35.9692860740091,1.37727813022952));
#850=CARTESIAN_POINT('Ctrl Pts',(7.41008147593908,-36.0467612261102,1.49031094903746));
#851=CARTESIAN_POINT('Ctrl Pts',(7.42731421163073,-36.1496436764755,1.7382937349613));
#852=CARTESIAN_POINT('Ctrl Pts',(7.43218443040406,-36.175036077472,1.87327016243944));
#853=CARTESIAN_POINT('Ctrl Pts',(7.43218443040406,-36.175036077472,1.99999999999959));
#854=CARTESIAN_POINT('Origin',(11.9250000000001,-35.168536077472,3.59999999999916));
#855=CARTESIAN_POINT('',(17.35,-35.2722127152135,3.59999999999916));
#856=CARTESIAN_POINT('Origin',(12.35,-35.2722127152135,3.59999999999916));
#857=CARTESIAN_POINT('Origin',(12.35,-35.2722127152135,0.));
#858=CARTESIAN_POINT('',(17.35,-35.2722127152135,0.));
#859=CARTESIAN_POINT('',(17.35,-35.2722127152135,0.));
#860=CARTESIAN_POINT('Origin',(12.35,-35.2722127152135,0.));
#861=CARTESIAN_POINT('Origin',(3.00000000000015,-24.7950482911176,0.));
#862=CARTESIAN_POINT('',(3.00000000000015,-24.7950482911176,0.));
#863=CARTESIAN_POINT('Origin',(11.9250000000001,-35.168536077472,0.));
#864=UNCERTAINTY_MEASURE_WITH_UNIT(LENGTH_MEASURE(0.01),#868,
'DISTANCE_ACCURACY_VALUE',
'Maximum model space distance between geometric entities at asserted c
onnectivities');
#865=UNCERTAINTY_MEASURE_WITH_UNIT(LENGTH_MEASURE(0.01),#868,
'DISTANCE_ACCURACY_VALUE',
'Maximum model space distance between geometric entities at asserted c
onnectivities');
#866=(
GEOMETRIC_REPRESENTATION_CONTEXT(3)
GLOBAL_UNCERTAINTY_ASSIGNED_CONTEXT((#864))
GLOBAL_UNIT_ASSIGNED_CONTEXT((#868,#870,#871))
REPRESENTATION_CONTEXT('','3D')
);
#867=(
GEOMETRIC_REPRESENTATION_CONTEXT(3)
GLOBAL_UNCERTAINTY_ASSIGNED_CONTEXT((#865))
GLOBAL_UNIT_ASSIGNED_CONTEXT((#868,#870,#871))
REPRESENTATION_CONTEXT('','3D')
);
#868=(
LENGTH_UNIT()
NAMED_UNIT(*)
SI_UNIT(.MILLI.,.METRE.)
);
#869=(
LENGTH_UNIT()
NAMED_UNIT(*)
SI_UNIT(.CENTI.,.METRE.)
);
#870=(
NAMED_UNIT(*)
PLANE_ANGLE_UNIT()
SI_UNIT($,.RADIAN.)
);
#871=(
NAMED_UNIT(*)
SI_UNIT($,.STERADIAN.)
SOLID_ANGLE_UNIT()
);
#872=SHAPE_DEFINITION_REPRESENTATION(#873,#874);
#873=PRODUCT_DEFINITION_SHAPE('',$,#876);
#874=SHAPE_REPRESENTATION('',(#483),#866);
#875=PRODUCT_DEFINITION_CONTEXT('part definition',#880,'design');
#876=PRODUCT_DEFINITION('GearboxBearingHolderCover',
'GearboxBearingHolderCover',#877,#875);
#877=PRODUCT_DEFINITION_FORMATION('',$,#882);
#878=PRODUCT_RELATED_PRODUCT_CATEGORY('GearboxBearingHolderCover',
'GearboxBearingHolderCover',(#882));
#879=APPLICATION_PROTOCOL_DEFINITION('international standard',
'automotive_design',2009,#880);
#880=APPLICATION_CONTEXT(
'Core Data for Automotive Mechanical Design Process');
#881=PRODUCT_CONTEXT('part definition',#880,'mechanical');
#882=PRODUCT('GearboxBearingHolderCover','GearboxBearingHolderCover',$,
(#881));
#883=PRESENTATION_STYLE_ASSIGNMENT((#884));
#884=SURFACE_STYLE_USAGE(.BOTH.,#887);
#885=SURFACE_STYLE_RENDERING_WITH_PROPERTIES($,#891,(#886));
#886=SURFACE_STYLE_TRANSPARENT(0.);
#887=SURFACE_SIDE_STYLE('',(#888,#885));
#888=SURFACE_STYLE_FILL_AREA(#889);
#889=FILL_AREA_STYLE('',(#890));
#890=FILL_AREA_STYLE_COLOUR('',#891);
#891=COLOUR_RGB('',0.43921568627451,0.43921568627451,0.43921568627451);
ENDSEC;
END-ISO-10303-21;
