ISO-10303-21;
HEADER;
/* Generated by software containing ST-Developer
 * from STEP Tools, Inc. (www.steptools.com) 
 */

FILE_DESCRIPTION(
/* description */ (''),
/* implementation_level */ '2;1');

FILE_NAME(
/* name */ 'GearboxBearingHolderCover_MIR.stp',
/* time_stamp */ '2026-04-14T20:37:38+02:00',
/* author */ ('szymo'),
/* organization */ (''),
/* preprocessor_version */ 'ST-DEVELOPER v20.1',
/* originating_system */ 'Autodesk Inventor 2026',
/* authorisation */ '');

FILE_SCHEMA (('AUTOMOTIVE_DESIGN { 1 0 10303 214 3 1 1 }'));
ENDSEC;

DATA;
#10=MECHANICAL_DESIGN_GEOMETRIC_PRESENTATION_REPRESENTATION('',(#251,#252,
#253,#254,#255,#256,#257,#258,#259,#260,#261,#262,#263,#264,#265,#266,#267,
#268,#269),#505);
#11=SHAPE_REPRESENTATION_RELATIONSHIP('SRR','None',#512,#12);
#12=ADVANCED_BREP_SHAPE_REPRESENTATION('',(#13),#504);
#13=MANIFOLD_SOLID_BREP('Solid1',#288);
#14=LINE('',#437,#33);
#15=LINE('',#440,#34);
#16=LINE('',#451,#35);
#17=LINE('',#454,#36);
#18=LINE('',#465,#37);
#19=LINE('',#467,#38);
#20=LINE('',#469,#39);
#21=LINE('',#472,#40);
#22=LINE('',#475,#41);
#23=LINE('',#477,#42);
#24=LINE('',#478,#43);
#25=LINE('',#481,#44);
#26=LINE('',#485,#45);
#27=LINE('',#486,#46);
#28=LINE('',#489,#47);
#29=LINE('',#493,#48);
#30=LINE('',#494,#49);
#31=LINE('',#497,#50);
#32=LINE('',#498,#51);
#33=VECTOR('',#355,1.75);
#34=VECTOR('',#358,1.5);
#35=VECTOR('',#373,1.75);
#36=VECTOR('',#376,1.5);
#37=VECTOR('',#389,10.);
#38=VECTOR('',#390,10.);
#39=VECTOR('',#391,10.);
#40=VECTOR('',#394,10.);
#41=VECTOR('',#397,10.);
#42=VECTOR('',#398,10.);
#43=VECTOR('',#399,10.);
#44=VECTOR('',#402,10.);
#45=VECTOR('',#407,10.);
#46=VECTOR('',#408,10.);
#47=VECTOR('',#411,5.);
#48=VECTOR('',#416,10.);
#49=VECTOR('',#417,10.);
#50=VECTOR('',#420,10.);
#51=VECTOR('',#421,10.);
#52=CYLINDRICAL_SURFACE('',#314,1.75);
#53=CYLINDRICAL_SURFACE('',#316,1.5);
#54=CYLINDRICAL_SURFACE('',#322,1.75);
#55=CYLINDRICAL_SURFACE('',#324,1.5);
#56=CYLINDRICAL_SURFACE('',#333,13.9999999999999);
#57=CYLINDRICAL_SURFACE('',#336,5.);
#58=CYLINDRICAL_SURFACE('',#340,13.9999999999998);
#59=FACE_BOUND('',#83,.T.);
#60=FACE_BOUND('',#88,.T.);
#61=FACE_BOUND('',#99,.T.);
#62=FACE_BOUND('',#100,.T.);
#63=FACE_BOUND('',#104,.T.);
#64=FACE_OUTER_BOUND('',#82,.T.);
#65=FACE_OUTER_BOUND('',#84,.T.);
#66=FACE_OUTER_BOUND('',#85,.T.);
#67=FACE_OUTER_BOUND('',#86,.T.);
#68=FACE_OUTER_BOUND('',#87,.T.);
#69=FACE_OUTER_BOUND('',#89,.T.);
#70=FACE_OUTER_BOUND('',#90,.T.);
#71=FACE_OUTER_BOUND('',#91,.T.);
#72=FACE_OUTER_BOUND('',#92,.T.);
#73=FACE_OUTER_BOUND('',#93,.T.);
#74=FACE_OUTER_BOUND('',#94,.T.);
#75=FACE_OUTER_BOUND('',#95,.T.);
#76=FACE_OUTER_BOUND('',#96,.T.);
#77=FACE_OUTER_BOUND('',#97,.T.);
#78=FACE_OUTER_BOUND('',#98,.T.);
#79=FACE_OUTER_BOUND('',#101,.T.);
#80=FACE_OUTER_BOUND('',#102,.T.);
#81=FACE_OUTER_BOUND('',#103,.T.);
#82=EDGE_LOOP('',(#174));
#83=EDGE_LOOP('',(#175));
#84=EDGE_LOOP('',(#176,#177,#178,#179));
#85=EDGE_LOOP('',(#180,#181,#182,#183));
#86=EDGE_LOOP('',(#184));
#87=EDGE_LOOP('',(#185));
#88=EDGE_LOOP('',(#186));
#89=EDGE_LOOP('',(#187,#188,#189,#190));
#90=EDGE_LOOP('',(#191,#192,#193,#194));
#91=EDGE_LOOP('',(#195));
#92=EDGE_LOOP('',(#196));
#93=EDGE_LOOP('',(#197,#198,#199,#200,#201,#202));
#94=EDGE_LOOP('',(#203,#204,#205,#206));
#95=EDGE_LOOP('',(#207,#208,#209,#210));
#96=EDGE_LOOP('',(#211,#212,#213,#214));
#97=EDGE_LOOP('',(#215,#216,#217,#218));
#98=EDGE_LOOP('',(#219,#220,#221,#222));
#99=EDGE_LOOP('',(#223));
#100=EDGE_LOOP('',(#224));
#101=EDGE_LOOP('',(#225,#226,#227,#228));
#102=EDGE_LOOP('',(#229,#230,#231,#232));
#103=EDGE_LOOP('',(#233,#234,#235,#236,#237,#238));
#104=EDGE_LOOP('',(#239));
#105=CIRCLE('',#312,1.75);
#106=CIRCLE('',#313,1.5);
#107=CIRCLE('',#315,1.75);
#108=CIRCLE('',#317,1.5);
#109=CIRCLE('',#320,1.75);
#110=CIRCLE('',#321,1.5);
#111=CIRCLE('',#323,1.75);
#112=CIRCLE('',#325,1.5);
#113=CIRCLE('',#328,5.);
#114=CIRCLE('',#330,13.9999999999999);
#115=CIRCLE('',#331,13.9999999999998);
#116=CIRCLE('',#334,13.9999999999999);
#117=CIRCLE('',#337,5.);
#118=CIRCLE('',#341,13.9999999999998);
#119=VERTEX_POINT('',#430);
#120=VERTEX_POINT('',#432);
#121=VERTEX_POINT('',#435);
#122=VERTEX_POINT('',#439);
#123=VERTEX_POINT('',#444);
#124=VERTEX_POINT('',#446);
#125=VERTEX_POINT('',#449);
#126=VERTEX_POINT('',#453);
#127=VERTEX_POINT('',#458);
#128=VERTEX_POINT('',#461);
#129=VERTEX_POINT('',#462);
#130=VERTEX_POINT('',#464);
#131=VERTEX_POINT('',#466);
#132=VERTEX_POINT('',#468);
#133=VERTEX_POINT('',#470);
#134=VERTEX_POINT('',#474);
#135=VERTEX_POINT('',#476);
#136=VERTEX_POINT('',#480);
#137=VERTEX_POINT('',#484);
#138=VERTEX_POINT('',#488);
#139=VERTEX_POINT('',#492);
#140=VERTEX_POINT('',#496);
#141=EDGE_CURVE('',#119,#119,#105,.T.);
#142=EDGE_CURVE('',#120,#120,#106,.T.);
#143=EDGE_CURVE('',#121,#121,#107,.T.);
#144=EDGE_CURVE('',#121,#119,#14,.T.);
#145=EDGE_CURVE('',#120,#122,#15,.T.);
#146=EDGE_CURVE('',#122,#122,#108,.T.);
#147=EDGE_CURVE('',#123,#123,#109,.T.);
#148=EDGE_CURVE('',#124,#124,#110,.T.);
#149=EDGE_CURVE('',#125,#125,#111,.T.);
#150=EDGE_CURVE('',#125,#123,#16,.T.);
#151=EDGE_CURVE('',#124,#126,#17,.T.);
#152=EDGE_CURVE('',#126,#126,#112,.T.);
#153=EDGE_CURVE('',#127,#127,#113,.T.);
#154=EDGE_CURVE('',#128,#129,#114,.T.);
#155=EDGE_CURVE('',#130,#128,#18,.T.);
#156=EDGE_CURVE('',#131,#130,#19,.T.);
#157=EDGE_CURVE('',#132,#131,#20,.T.);
#158=EDGE_CURVE('',#133,#132,#115,.T.);
#159=EDGE_CURVE('',#129,#133,#21,.T.);
#160=EDGE_CURVE('',#134,#129,#22,.T.);
#161=EDGE_CURVE('',#135,#133,#23,.T.);
#162=EDGE_CURVE('',#134,#135,#24,.T.);
#163=EDGE_CURVE('',#136,#128,#25,.T.);
#164=EDGE_CURVE('',#136,#134,#116,.T.);
#165=EDGE_CURVE('',#137,#130,#26,.T.);
#166=EDGE_CURVE('',#137,#136,#27,.T.);
#167=EDGE_CURVE('',#127,#138,#28,.T.);
#168=EDGE_CURVE('',#138,#138,#117,.T.);
#169=EDGE_CURVE('',#139,#131,#29,.T.);
#170=EDGE_CURVE('',#139,#137,#30,.T.);
#171=EDGE_CURVE('',#140,#132,#31,.T.);
#172=EDGE_CURVE('',#140,#139,#32,.T.);
#173=EDGE_CURVE('',#135,#140,#118,.T.);
#174=ORIENTED_EDGE('',*,*,#141,.F.);
#175=ORIENTED_EDGE('',*,*,#142,.T.);
#176=ORIENTED_EDGE('',*,*,#143,.T.);
#177=ORIENTED_EDGE('',*,*,#144,.T.);
#178=ORIENTED_EDGE('',*,*,#141,.T.);
#179=ORIENTED_EDGE('',*,*,#144,.F.);
#180=ORIENTED_EDGE('',*,*,#142,.F.);
#181=ORIENTED_EDGE('',*,*,#145,.T.);
#182=ORIENTED_EDGE('',*,*,#146,.T.);
#183=ORIENTED_EDGE('',*,*,#145,.F.);
#184=ORIENTED_EDGE('',*,*,#146,.F.);
#185=ORIENTED_EDGE('',*,*,#147,.F.);
#186=ORIENTED_EDGE('',*,*,#148,.T.);
#187=ORIENTED_EDGE('',*,*,#149,.T.);
#188=ORIENTED_EDGE('',*,*,#150,.T.);
#189=ORIENTED_EDGE('',*,*,#147,.T.);
#190=ORIENTED_EDGE('',*,*,#150,.F.);
#191=ORIENTED_EDGE('',*,*,#148,.F.);
#192=ORIENTED_EDGE('',*,*,#151,.T.);
#193=ORIENTED_EDGE('',*,*,#152,.T.);
#194=ORIENTED_EDGE('',*,*,#151,.F.);
#195=ORIENTED_EDGE('',*,*,#152,.F.);
#196=ORIENTED_EDGE('',*,*,#153,.T.);
#197=ORIENTED_EDGE('',*,*,#154,.F.);
#198=ORIENTED_EDGE('',*,*,#155,.F.);
#199=ORIENTED_EDGE('',*,*,#156,.F.);
#200=ORIENTED_EDGE('',*,*,#157,.F.);
#201=ORIENTED_EDGE('',*,*,#158,.F.);
#202=ORIENTED_EDGE('',*,*,#159,.F.);
#203=ORIENTED_EDGE('',*,*,#160,.T.);
#204=ORIENTED_EDGE('',*,*,#159,.T.);
#205=ORIENTED_EDGE('',*,*,#161,.F.);
#206=ORIENTED_EDGE('',*,*,#162,.F.);
#207=ORIENTED_EDGE('',*,*,#163,.T.);
#208=ORIENTED_EDGE('',*,*,#154,.T.);
#209=ORIENTED_EDGE('',*,*,#160,.F.);
#210=ORIENTED_EDGE('',*,*,#164,.F.);
#211=ORIENTED_EDGE('',*,*,#165,.T.);
#212=ORIENTED_EDGE('',*,*,#155,.T.);
#213=ORIENTED_EDGE('',*,*,#163,.F.);
#214=ORIENTED_EDGE('',*,*,#166,.F.);
#215=ORIENTED_EDGE('',*,*,#153,.F.);
#216=ORIENTED_EDGE('',*,*,#167,.T.);
#217=ORIENTED_EDGE('',*,*,#168,.F.);
#218=ORIENTED_EDGE('',*,*,#167,.F.);
#219=ORIENTED_EDGE('',*,*,#169,.T.);
#220=ORIENTED_EDGE('',*,*,#156,.T.);
#221=ORIENTED_EDGE('',*,*,#165,.F.);
#222=ORIENTED_EDGE('',*,*,#170,.F.);
#223=ORIENTED_EDGE('',*,*,#143,.F.);
#224=ORIENTED_EDGE('',*,*,#149,.F.);
#225=ORIENTED_EDGE('',*,*,#171,.T.);
#226=ORIENTED_EDGE('',*,*,#157,.T.);
#227=ORIENTED_EDGE('',*,*,#169,.F.);
#228=ORIENTED_EDGE('',*,*,#172,.F.);
#229=ORIENTED_EDGE('',*,*,#161,.T.);
#230=ORIENTED_EDGE('',*,*,#158,.T.);
#231=ORIENTED_EDGE('',*,*,#171,.F.);
#232=ORIENTED_EDGE('',*,*,#173,.F.);
#233=ORIENTED_EDGE('',*,*,#166,.T.);
#234=ORIENTED_EDGE('',*,*,#164,.T.);
#235=ORIENTED_EDGE('',*,*,#162,.T.);
#236=ORIENTED_EDGE('',*,*,#173,.T.);
#237=ORIENTED_EDGE('',*,*,#172,.T.);
#238=ORIENTED_EDGE('',*,*,#170,.T.);
#239=ORIENTED_EDGE('',*,*,#168,.T.);
#240=PLANE('',#311);
#241=PLANE('',#318);
#242=PLANE('',#319);
#243=PLANE('',#326);
#244=PLANE('',#327);
#245=PLANE('',#329);
#246=PLANE('',#332);
#247=PLANE('',#335);
#248=PLANE('',#338);
#249=PLANE('',#339);
#250=PLANE('',#342);
#251=STYLED_ITEM('',(#521),#270);
#252=STYLED_ITEM('',(#521),#271);
#253=STYLED_ITEM('',(#521),#272);
#254=STYLED_ITEM('',(#521),#273);
#255=STYLED_ITEM('',(#521),#274);
#256=STYLED_ITEM('',(#521),#275);
#257=STYLED_ITEM('',(#521),#276);
#258=STYLED_ITEM('',(#521),#277);
#259=STYLED_ITEM('',(#521),#278);
#260=STYLED_ITEM('',(#521),#279);
#261=STYLED_ITEM('',(#521),#280);
#262=STYLED_ITEM('',(#521),#281);
#263=STYLED_ITEM('',(#521),#282);
#264=STYLED_ITEM('',(#521),#283);
#265=STYLED_ITEM('',(#521),#284);
#266=STYLED_ITEM('',(#521),#285);
#267=STYLED_ITEM('',(#521),#286);
#268=STYLED_ITEM('',(#521),#287);
#269=STYLED_ITEM('',(#521),#13);
#270=ADVANCED_FACE('',(#64,#59),#240,.F.);
#271=ADVANCED_FACE('',(#65),#52,.F.);
#272=ADVANCED_FACE('',(#66),#53,.F.);
#273=ADVANCED_FACE('',(#67),#241,.F.);
#274=ADVANCED_FACE('',(#68,#60),#242,.F.);
#275=ADVANCED_FACE('',(#69),#54,.F.);
#276=ADVANCED_FACE('',(#70),#55,.F.);
#277=ADVANCED_FACE('',(#71),#243,.F.);
#278=ADVANCED_FACE('',(#72),#244,.T.);
#279=ADVANCED_FACE('',(#73),#245,.F.);
#280=ADVANCED_FACE('',(#74),#246,.F.);
#281=ADVANCED_FACE('',(#75),#56,.F.);
#282=ADVANCED_FACE('',(#76),#247,.F.);
#283=ADVANCED_FACE('',(#77),#57,.F.);
#284=ADVANCED_FACE('',(#78,#61,#62),#248,.F.);
#285=ADVANCED_FACE('',(#79),#249,.F.);
#286=ADVANCED_FACE('',(#80),#58,.F.);
#287=ADVANCED_FACE('',(#81,#63),#250,.T.);
#288=CLOSED_SHELL('',(#270,#271,#272,#273,#274,#275,#276,#277,#278,#279,
#280,#281,#282,#283,#284,#285,#286,#287));
#289=DERIVED_UNIT_ELEMENT(#292,1.);
#290=DERIVED_UNIT_ELEMENT(#507,-3.);
#291=DIMENSIONAL_EXPONENTS(0.,1.,0.,0.,0.,0.,0.);
#292=(
CONVERSION_BASED_UNIT('gram',#294)
MASS_UNIT()
NAMED_UNIT(#291)
);
#293=(
MASS_UNIT()
NAMED_UNIT(*)
SI_UNIT(.KILO.,.GRAM.)
);
#294=MASS_MEASURE_WITH_UNIT(MASS_MEASURE(0.001),#293);
#295=DERIVED_UNIT((#289,#290));
#296=MEASURE_REPRESENTATION_ITEM('density measure',
POSITIVE_RATIO_MEASURE(1.),#295);
#297=PROPERTY_DEFINITION_REPRESENTATION(#302,#299);
#298=PROPERTY_DEFINITION_REPRESENTATION(#303,#300);
#299=REPRESENTATION('material name',(#301),#504);
#300=REPRESENTATION('density',(#296),#504);
#301=DESCRIPTIVE_REPRESENTATION_ITEM('Generic','Generic');
#302=PROPERTY_DEFINITION('material property','material name',#514);
#303=PROPERTY_DEFINITION('material property','density of part',#514);
#304=DATE_TIME_ROLE('creation_date');
#305=APPLIED_DATE_AND_TIME_ASSIGNMENT(#306,#304,(#514));
#306=DATE_AND_TIME(#307,#308);
#307=CALENDAR_DATE(2026,14,4);
#308=LOCAL_TIME(0,0,0.,#309);
#309=COORDINATED_UNIVERSAL_TIME_OFFSET(0,0,.BEHIND.);
#310=AXIS2_PLACEMENT_3D('',#428,#343,#344);
#311=AXIS2_PLACEMENT_3D('',#429,#345,#346);
#312=AXIS2_PLACEMENT_3D('',#431,#347,#348);
#313=AXIS2_PLACEMENT_3D('',#433,#349,#350);
#314=AXIS2_PLACEMENT_3D('',#434,#351,#352);
#315=AXIS2_PLACEMENT_3D('',#436,#353,#354);
#316=AXIS2_PLACEMENT_3D('',#438,#356,#357);
#317=AXIS2_PLACEMENT_3D('',#441,#359,#360);
#318=AXIS2_PLACEMENT_3D('',#442,#361,#362);
#319=AXIS2_PLACEMENT_3D('',#443,#363,#364);
#320=AXIS2_PLACEMENT_3D('',#445,#365,#366);
#321=AXIS2_PLACEMENT_3D('',#447,#367,#368);
#322=AXIS2_PLACEMENT_3D('',#448,#369,#370);
#323=AXIS2_PLACEMENT_3D('',#450,#371,#372);
#324=AXIS2_PLACEMENT_3D('',#452,#374,#375);
#325=AXIS2_PLACEMENT_3D('',#455,#377,#378);
#326=AXIS2_PLACEMENT_3D('',#456,#379,#380);
#327=AXIS2_PLACEMENT_3D('',#457,#381,#382);
#328=AXIS2_PLACEMENT_3D('',#459,#383,#384);
#329=AXIS2_PLACEMENT_3D('',#460,#385,#386);
#330=AXIS2_PLACEMENT_3D('',#463,#387,#388);
#331=AXIS2_PLACEMENT_3D('',#471,#392,#393);
#332=AXIS2_PLACEMENT_3D('',#473,#395,#396);
#333=AXIS2_PLACEMENT_3D('',#479,#400,#401);
#334=AXIS2_PLACEMENT_3D('',#482,#403,#404);
#335=AXIS2_PLACEMENT_3D('',#483,#405,#406);
#336=AXIS2_PLACEMENT_3D('',#487,#409,#410);
#337=AXIS2_PLACEMENT_3D('',#490,#412,#413);
#338=AXIS2_PLACEMENT_3D('',#491,#414,#415);
#339=AXIS2_PLACEMENT_3D('',#495,#418,#419);
#340=AXIS2_PLACEMENT_3D('',#499,#422,#423);
#341=AXIS2_PLACEMENT_3D('',#500,#424,#425);
#342=AXIS2_PLACEMENT_3D('',#501,#426,#427);
#343=DIRECTION('axis',(0.,0.,1.));
#344=DIRECTION('refdir',(1.,0.,0.));
#345=DIRECTION('center_axis',(1.,3.36622511360659E-16,0.));
#346=DIRECTION('ref_axis',(0.,0.,-1.));
#347=DIRECTION('center_axis',(1.,3.36622511360659E-16,0.));
#348=DIRECTION('ref_axis',(0.,0.,-1.));
#349=DIRECTION('center_axis',(1.,3.36622511360659E-16,0.));
#350=DIRECTION('ref_axis',(0.,0.,-1.));
#351=DIRECTION('center_axis',(1.,3.36622511360659E-16,0.));
#352=DIRECTION('ref_axis',(0.,0.,-1.));
#353=DIRECTION('center_axis',(-1.,-3.36622511360659E-16,0.));
#354=DIRECTION('ref_axis',(0.,0.,-1.));
#355=DIRECTION('',(1.,3.36622511360659E-16,0.));
#356=DIRECTION('center_axis',(1.,3.36622511360659E-16,0.));
#357=DIRECTION('ref_axis',(0.,0.,-1.));
#358=DIRECTION('',(1.,3.36622511360659E-16,0.));
#359=DIRECTION('center_axis',(1.,3.36622511360659E-16,0.));
#360=DIRECTION('ref_axis',(0.,0.,-1.));
#361=DIRECTION('center_axis',(1.,3.36622511360659E-16,0.));
#362=DIRECTION('ref_axis',(0.,0.,-1.));
#363=DIRECTION('center_axis',(1.,3.36622511360659E-16,0.));
#364=DIRECTION('ref_axis',(0.,0.,-1.));
#365=DIRECTION('center_axis',(1.,3.36622511360659E-16,0.));
#366=DIRECTION('ref_axis',(0.,0.,-1.));
#367=DIRECTION('center_axis',(1.,3.36622511360659E-16,0.));
#368=DIRECTION('ref_axis',(0.,0.,-1.));
#369=DIRECTION('center_axis',(1.,3.36622511360659E-16,0.));
#370=DIRECTION('ref_axis',(0.,0.,-1.));
#371=DIRECTION('center_axis',(-1.,-3.36622511360659E-16,0.));
#372=DIRECTION('ref_axis',(0.,0.,-1.));
#373=DIRECTION('',(1.,3.36622511360659E-16,0.));
#374=DIRECTION('center_axis',(1.,3.36622511360659E-16,0.));
#375=DIRECTION('ref_axis',(0.,0.,-1.));
#376=DIRECTION('',(1.,3.36622511360659E-16,0.));
#377=DIRECTION('center_axis',(1.,3.36622511360659E-16,0.));
#378=DIRECTION('ref_axis',(0.,0.,-1.));
#379=DIRECTION('center_axis',(1.,3.36622511360659E-16,0.));
#380=DIRECTION('ref_axis',(0.,0.,-1.));
#381=DIRECTION('center_axis',(-2.54143215705547E-15,8.62232053969292E-17,
1.));
#382=DIRECTION('ref_axis',(1.,0.,2.54143215705547E-15));
#383=DIRECTION('center_axis',(-2.54143215705547E-15,8.62232053969292E-17,
1.));
#384=DIRECTION('ref_axis',(-1.,0.,0.));
#385=DIRECTION('center_axis',(-2.54143215705547E-15,8.62232053969292E-17,
1.));
#386=DIRECTION('ref_axis',(1.,0.,2.54143215705547E-15));
#387=DIRECTION('center_axis',(2.54143215705547E-15,-8.62232053969292E-17,
-1.));
#388=DIRECTION('ref_axis',(-0.332142857142859,-0.943229093300762,-7.62790302031113E-16));
#389=DIRECTION('',(1.,-2.01870428414817E-32,2.54143215705547E-15));
#390=DIRECTION('',(3.36622511360659E-16,-1.,8.62232053969301E-17));
#391=DIRECTION('',(-1.,2.01870428414817E-32,-2.54143215705547E-15));
#392=DIRECTION('center_axis',(2.54143215705547E-15,-8.62232053969292E-17,
-1.));
#393=DIRECTION('ref_axis',(0.835714285714283,0.549164485972159,2.07656043755425E-15));
#394=DIRECTION('',(2.39317469721637E-31,1.,-8.62232053969292E-17));
#395=DIRECTION('center_axis',(-1.,0.,0.));
#396=DIRECTION('ref_axis',(0.,1.,0.));
#397=DIRECTION('',(0.,0.,-1.));
#398=DIRECTION('',(0.,0.,-1.));
#399=DIRECTION('',(0.,1.,0.));
#400=DIRECTION('center_axis',(0.,0.,1.));
#401=DIRECTION('ref_axis',(-1.,0.,0.));
#402=DIRECTION('',(0.,0.,-1.));
#403=DIRECTION('center_axis',(0.,0.,-1.));
#404=DIRECTION('ref_axis',(-1.,0.,0.));
#405=DIRECTION('center_axis',(0.,1.,0.));
#406=DIRECTION('ref_axis',(1.,0.,0.));
#407=DIRECTION('',(2.77555756156289E-15,0.,-1.));
#408=DIRECTION('',(1.,0.,0.));
#409=DIRECTION('center_axis',(0.,0.,1.));
#410=DIRECTION('ref_axis',(-1.,0.,0.));
#411=DIRECTION('',(0.,0.,1.));
#412=DIRECTION('center_axis',(0.,0.,-1.));
#413=DIRECTION('ref_axis',(-1.,0.,0.));
#414=DIRECTION('center_axis',(1.,3.36622511360659E-16,0.));
#415=DIRECTION('ref_axis',(3.36622511360659E-16,-1.,0.));
#416=DIRECTION('',(0.,0.,-1.));
#417=DIRECTION('',(3.36622511360659E-16,-1.,0.));
#418=DIRECTION('center_axis',(0.,-1.,0.));
#419=DIRECTION('ref_axis',(-1.,0.,0.));
#420=DIRECTION('',(0.,0.,-1.));
#421=DIRECTION('',(-1.,0.,0.));
#422=DIRECTION('center_axis',(0.,0.,1.));
#423=DIRECTION('ref_axis',(-1.,0.,0.));
#424=DIRECTION('center_axis',(0.,0.,-1.));
#425=DIRECTION('ref_axis',(-1.,0.,0.));
#426=DIRECTION('center_axis',(0.,0.,1.));
#427=DIRECTION('ref_axis',(1.,0.,0.));
#428=CARTESIAN_POINT('',(0.,0.,0.));
#429=CARTESIAN_POINT('Origin',(2.50000000000015,-40.1685360774716,-1.99999999999959));
#430=CARTESIAN_POINT('',(2.50000000000015,-40.1685360774716,-0.249999999999594));
#431=CARTESIAN_POINT('Origin',(2.50000000000015,-40.1685360774716,-1.99999999999959));
#432=CARTESIAN_POINT('',(2.50000000000015,-40.1685360774716,-0.499999999999594));
#433=CARTESIAN_POINT('Origin',(2.50000000000015,-40.1685360774716,-1.99999999999959));
#434=CARTESIAN_POINT('Origin',(2.25000000000015,-40.1685360774716,-1.99999999999959));
#435=CARTESIAN_POINT('',(2.00000000000015,-40.1685360774716,-0.249999999999594));
#436=CARTESIAN_POINT('Origin',(2.00000000000015,-40.1685360774716,-1.99999999999959));
#437=CARTESIAN_POINT('',(2.25000000000015,-40.1685360774716,-0.249999999999594));
#438=CARTESIAN_POINT('Origin',(4.75000000000015,-40.1685360774716,-1.99999999999959));
#439=CARTESIAN_POINT('',(7.50000000000015,-40.1685360774716,-0.499999999999594));
#440=CARTESIAN_POINT('',(4.75000000000015,-40.1685360774716,-0.499999999999594));
#441=CARTESIAN_POINT('Origin',(7.50000000000015,-40.1685360774716,-1.99999999999959));
#442=CARTESIAN_POINT('Origin',(7.50000000000015,-40.1685360774716,-1.99999999999959));
#443=CARTESIAN_POINT('Origin',(2.50000000000015,-30.1685360774724,-1.99999999999959));
#444=CARTESIAN_POINT('',(2.50000000000015,-30.1685360774724,-0.249999999999594));
#445=CARTESIAN_POINT('Origin',(2.50000000000015,-30.1685360774724,-1.99999999999959));
#446=CARTESIAN_POINT('',(2.50000000000015,-30.1685360774724,-0.499999999999594));
#447=CARTESIAN_POINT('Origin',(2.50000000000015,-30.1685360774724,-1.99999999999959));
#448=CARTESIAN_POINT('Origin',(2.25000000000015,-30.1685360774724,-1.99999999999959));
#449=CARTESIAN_POINT('',(2.00000000000015,-30.1685360774724,-0.249999999999594));
#450=CARTESIAN_POINT('Origin',(2.00000000000015,-30.1685360774724,-1.99999999999959));
#451=CARTESIAN_POINT('',(2.25000000000015,-30.1685360774724,-0.249999999999594));
#452=CARTESIAN_POINT('Origin',(4.75000000000015,-30.1685360774724,-1.99999999999959));
#453=CARTESIAN_POINT('',(7.50000000000015,-30.1685360774724,-0.499999999999594));
#454=CARTESIAN_POINT('',(4.75000000000015,-30.1685360774724,-0.499999999999594));
#455=CARTESIAN_POINT('Origin',(7.50000000000015,-30.1685360774724,-1.99999999999959));
#456=CARTESIAN_POINT('Origin',(7.50000000000015,-30.1685360774724,-1.99999999999959));
#457=CARTESIAN_POINT('Origin',(10.6750000000001,-35.168536077472,-3.59999999999917));
#458=CARTESIAN_POINT('',(17.35,-35.2722127152135,-3.59999999999917));
#459=CARTESIAN_POINT('Origin',(12.35,-35.2722127152135,-3.59999999999917));
#460=CARTESIAN_POINT('Origin',(10.6750000000001,-35.168536077472,-3.99999999999917));
#461=CARTESIAN_POINT('',(3.00000000000016,-47.948769351334,-3.99999999999918));
#462=CARTESIAN_POINT('',(19.35,-42.4318648487337,-3.99999999999914));
#463=CARTESIAN_POINT('Origin',(14.7,-55.6370721549443,-3.99999999999915));
#464=CARTESIAN_POINT('',(2.00000000000016,-47.948769351334,-3.99999999999919));
#465=CARTESIAN_POINT('',(2.00000000000016,-47.948769351334,-3.99999999999919));
#466=CARTESIAN_POINT('',(2.00000000000015,-22.38830280361,-3.99999999999919));
#467=CARTESIAN_POINT('',(2.00000000000015,-22.38830280361,-3.99999999999919));
#468=CARTESIAN_POINT('',(3.00000000000015,-22.38830280361,-3.99999999999919));
#469=CARTESIAN_POINT('',(3.00000000000015,-22.38830280361,-3.99999999999919));
#470=CARTESIAN_POINT('',(19.35,-27.9052073062104,-3.99999999999914));
#471=CARTESIAN_POINT('Origin',(14.7,-14.6999999999999,-3.99999999999916));
#472=CARTESIAN_POINT('',(19.35,-42.4318648487337,-3.99999999999914));
#473=CARTESIAN_POINT('Origin',(19.35,-42.4318648487337,0.));
#474=CARTESIAN_POINT('',(19.35,-42.4318648487337,0.));
#475=CARTESIAN_POINT('',(19.35,-42.4318648487337,0.));
#476=CARTESIAN_POINT('',(19.35,-27.9052073062104,0.));
#477=CARTESIAN_POINT('',(19.35,-27.9052073062104,0.));
#478=CARTESIAN_POINT('',(19.35,-42.4318648487337,0.));
#479=CARTESIAN_POINT('Origin',(14.7,-55.6370721549443,0.));
#480=CARTESIAN_POINT('',(3.00000000000016,-47.948769351334,0.));
#481=CARTESIAN_POINT('',(3.00000000000016,-47.948769351334,0.));
#482=CARTESIAN_POINT('Origin',(14.7,-55.6370721549443,0.));
#483=CARTESIAN_POINT('Origin',(2.00000000000016,-47.948769351334,0.));
#484=CARTESIAN_POINT('',(2.00000000000016,-47.948769351334,0.));
#485=CARTESIAN_POINT('',(2.00000000000016,-47.948769351334,-3.59999999999919));
#486=CARTESIAN_POINT('',(2.00000000000016,-47.948769351334,0.));
#487=CARTESIAN_POINT('Origin',(12.35,-35.2722127152135,0.));
#488=CARTESIAN_POINT('',(17.35,-35.2722127152135,0.));
#489=CARTESIAN_POINT('',(17.35,-35.2722127152135,0.));
#490=CARTESIAN_POINT('Origin',(12.35,-35.2722127152135,0.));
#491=CARTESIAN_POINT('Origin',(2.00000000000015,-22.38830280361,0.));
#492=CARTESIAN_POINT('',(2.00000000000015,-22.38830280361,0.));
#493=CARTESIAN_POINT('',(2.00000000000015,-22.38830280361,0.));
#494=CARTESIAN_POINT('',(2.00000000000015,-22.38830280361,0.));
#495=CARTESIAN_POINT('Origin',(3.00000000000015,-22.38830280361,0.));
#496=CARTESIAN_POINT('',(3.00000000000015,-22.38830280361,0.));
#497=CARTESIAN_POINT('',(3.00000000000015,-22.38830280361,0.));
#498=CARTESIAN_POINT('',(3.00000000000015,-22.38830280361,0.));
#499=CARTESIAN_POINT('Origin',(14.7,-14.6999999999999,0.));
#500=CARTESIAN_POINT('Origin',(14.7,-14.6999999999999,0.));
#501=CARTESIAN_POINT('Origin',(10.6750000000001,-35.168536077472,0.));
#502=UNCERTAINTY_MEASURE_WITH_UNIT(LENGTH_MEASURE(0.01),#506,
'DISTANCE_ACCURACY_VALUE',
'Maximum model space distance between geometric entities at asserted c
onnectivities');
#503=UNCERTAINTY_MEASURE_WITH_UNIT(LENGTH_MEASURE(0.01),#506,
'DISTANCE_ACCURACY_VALUE',
'Maximum model space distance between geometric entities at asserted c
onnectivities');
#504=(
GEOMETRIC_REPRESENTATION_CONTEXT(3)
GLOBAL_UNCERTAINTY_ASSIGNED_CONTEXT((#502))
GLOBAL_UNIT_ASSIGNED_CONTEXT((#506,#508,#509))
REPRESENTATION_CONTEXT('','3D')
);
#505=(
GEOMETRIC_REPRESENTATION_CONTEXT(3)
GLOBAL_UNCERTAINTY_ASSIGNED_CONTEXT((#503))
GLOBAL_UNIT_ASSIGNED_CONTEXT((#506,#508,#509))
REPRESENTATION_CONTEXT('','3D')
);
#506=(
LENGTH_UNIT()
NAMED_UNIT(*)
SI_UNIT(.MILLI.,.METRE.)
);
#507=(
LENGTH_UNIT()
NAMED_UNIT(*)
SI_UNIT(.CENTI.,.METRE.)
);
#508=(
NAMED_UNIT(*)
PLANE_ANGLE_UNIT()
SI_UNIT($,.RADIAN.)
);
#509=(
NAMED_UNIT(*)
SI_UNIT($,.STERADIAN.)
SOLID_ANGLE_UNIT()
);
#510=SHAPE_DEFINITION_REPRESENTATION(#511,#512);
#511=PRODUCT_DEFINITION_SHAPE('',$,#514);
#512=SHAPE_REPRESENTATION('',(#310),#504);
#513=PRODUCT_DEFINITION_CONTEXT('part definition',#518,'design');
#514=PRODUCT_DEFINITION('GearboxBearingHolderCover_MIR',
'GearboxBearingHolderCover_MIR',#515,#513);
#515=PRODUCT_DEFINITION_FORMATION('',$,#520);
#516=PRODUCT_RELATED_PRODUCT_CATEGORY('GearboxBearingHolderCover_MIR',
'GearboxBearingHolderCover_MIR',(#520));
#517=APPLICATION_PROTOCOL_DEFINITION('international standard',
'automotive_design',2009,#518);
#518=APPLICATION_CONTEXT(
'Core Data for Automotive Mechanical Design Process');
#519=PRODUCT_CONTEXT('part definition',#518,'mechanical');
#520=PRODUCT('GearboxBearingHolderCover_MIR',
'GearboxBearingHolderCover_MIR',$,(#519));
#521=PRESENTATION_STYLE_ASSIGNMENT((#522));
#522=SURFACE_STYLE_USAGE(.BOTH.,#525);
#523=SURFACE_STYLE_RENDERING_WITH_PROPERTIES($,#529,(#524));
#524=SURFACE_STYLE_TRANSPARENT(0.);
#525=SURFACE_SIDE_STYLE('',(#526,#523));
#526=SURFACE_STYLE_FILL_AREA(#527);
#527=FILL_AREA_STYLE('',(#528));
#528=FILL_AREA_STYLE_COLOUR('',#529);
#529=COLOUR_RGB('',0.43921568627451,0.43921568627451,0.43921568627451);
ENDSEC;
END-ISO-10303-21;
