ISO-10303-21;
HEADER;
/* Generated by software containing ST-Developer
 * from STEP Tools, Inc. (www.steptools.com) 
 */

FILE_DESCRIPTION(
/* description */ (''),
/* implementation_level */ '2;1');

FILE_NAME(
/* name */ 'LeftGearboxCoverr.stp',
/* time_stamp */ '2026-04-26T22:29:07+02:00',
/* author */ ('szymo'),
/* organization */ (''),
/* preprocessor_version */ 'ST-DEVELOPER v20.1',
/* originating_system */ 'Autodesk Inventor 2026',
/* authorisation */ '');

FILE_SCHEMA (('AUTOMOTIVE_DESIGN { 1 0 10303 214 3 1 1 }'));
ENDSEC;

DATA;
#10=MECHANICAL_DESIGN_GEOMETRIC_PRESENTATION_REPRESENTATION('',(#13),#2028);
#11=SHAPE_REPRESENTATION_RELATIONSHIP('SRR','None',#2035,#12);
#12=ADVANCED_BREP_SHAPE_REPRESENTATION('',(#14),#2027);
#13=STYLED_ITEM('',(#2044),#14);
#14=MANIFOLD_SOLID_BREP('Solid3',#1162);
#15=(
BOUNDED_CURVE()
B_SPLINE_CURVE(2,(#1933,#1934,#1935),.UNSPECIFIED.,.F.,.F.)
B_SPLINE_CURVE_WITH_KNOTS((3,3),(0.,0.0386593842261062),.UNSPECIFIED.)
CURVE()
GEOMETRIC_REPRESENTATION_ITEM()
RATIONAL_B_SPLINE_CURVE((1.,1.00356259628651,1.00356259628651))
REPRESENTATION_ITEM('')
);
#16=(
BOUNDED_CURVE()
B_SPLINE_CURVE(2,(#1938,#1939,#1940),.UNSPECIFIED.,.F.,.F.)
B_SPLINE_CURVE_WITH_KNOTS((3,3),(0.0386593842261062,0.0773187684522123),
 .UNSPECIFIED.)
CURVE()
GEOMETRIC_REPRESENTATION_ITEM()
RATIONAL_B_SPLINE_CURVE((1.00356259628651,1.00356259628651,1.))
REPRESENTATION_ITEM('')
);
#17=CONICAL_SURFACE('',#1230,2.425,0.785398163397448);
#18=CONICAL_SURFACE('',#1237,2.425,0.785398163397448);
#19=CONICAL_SURFACE('',#1244,2.425,0.785398163397448);
#20=CONICAL_SURFACE('',#1249,2.425,0.785398163397448);
#21=CONICAL_SURFACE('',#1254,2.425,0.785398163397448);
#22=CONICAL_SURFACE('',#1259,2.425,0.785398163397448);
#23=B_SPLINE_CURVE_WITH_KNOTS('',3,(#1786,#1787,#1788,#1789,#1790,#1791,
#1792,#1793,#1794,#1795,#1796,#1797,#1798,#1799,#1800,#1801,#1802,#1803,
#1804,#1805,#1806,#1807,#1808,#1809,#1810,#1811,#1812,#1813,#1814,#1815,
#1816,#1817,#1818,#1819,#1820,#1821,#1822,#1823),.UNSPECIFIED.,.F.,.F.,
(4,2,2,2,2,2,2,2,2,2,2,2,2,2,2,2,2,2,4),(0.355772478265936,0.363025533285278,
0.387434433137898,0.415002893482654,0.446206713614466,0.477410533746277,
0.508614353878088,0.539818174009899,0.567386634354655,0.591795534207275,
0.616204434059895,0.666160117339655,0.716115800619416,0.766071483899176,
0.816027167178936,0.840436067031555,0.864844966884175,0.892413427228931,
0.919939999495465),.UNSPECIFIED.);
#24=B_SPLINE_CURVE_WITH_KNOTS('',3,(#1825,#1826,#1827,#1828,#1829,#1830,
#1831,#1832,#1833,#1834,#1835,#1836,#1837,#1838),.UNSPECIFIED.,.F.,.F.,
(4,2,2,2,2,2,4),(0.12163805548034,0.138793900313618,0.188749583593378,0.238705266873138,
0.288660950152898,0.338616633432659,0.355772478265936),.UNSPECIFIED.);
#25=B_SPLINE_CURVE_WITH_KNOTS('',3,(#1840,#1841,#1842,#1843,#1844,#1845,
#1846,#1847,#1848,#1849),.UNSPECIFIED.,.F.,.F.,(4,2,2,2,4),(0.034881067997089,
0.0624076402636224,0.0899761006083787,0.114385000460998,0.12163805548034),
 .UNSPECIFIED.);
#26=B_SPLINE_CURVE_WITH_KNOTS('',3,(#1854,#1855,#1856,#1857,#1858,#1859),
 .UNSPECIFIED.,.F.,.F.,(4,2,4),(0.,0.0312038201318112,0.034881067997089),
 .UNSPECIFIED.);
#27=B_SPLINE_CURVE_WITH_KNOTS('',3,(#1860,#1861,#1862,#1863,#1864,#1865),
 .UNSPECIFIED.,.F.,.F.,(4,2,4),(0.919939999495465,0.923617247360742,0.954821067492554),
 .UNSPECIFIED.);
#28=FACE_BOUND('',#146,.T.);
#29=FACE_BOUND('',#151,.T.);
#30=FACE_BOUND('',#155,.T.);
#31=FACE_BOUND('',#156,.T.);
#32=FACE_BOUND('',#161,.T.);
#33=FACE_BOUND('',#166,.T.);
#34=FACE_BOUND('',#199,.T.);
#35=FACE_BOUND('',#200,.T.);
#36=FACE_BOUND('',#201,.T.);
#37=FACE_BOUND('',#202,.T.);
#38=FACE_BOUND('',#205,.T.);
#39=FACE_BOUND('',#214,.T.);
#40=FACE_BOUND('',#215,.T.);
#41=FACE_BOUND('',#216,.T.);
#42=FACE_BOUND('',#217,.T.);
#43=FACE_BOUND('',#218,.T.);
#44=FACE_BOUND('',#219,.T.);
#45=FACE_BOUND('',#220,.T.);
#46=FACE_BOUND('',#221,.T.);
#47=FACE_BOUND('',#222,.T.);
#48=FACE_BOUND('',#223,.T.);
#49=FACE_BOUND('',#224,.T.);
#50=FACE_BOUND('',#225,.T.);
#51=FACE_BOUND('',#226,.T.);
#52=FACE_BOUND('',#227,.T.);
#53=PLANE('',#1188);
#54=PLANE('',#1190);
#55=PLANE('',#1194);
#56=PLANE('',#1195);
#57=PLANE('',#1200);
#58=PLANE('',#1201);
#59=PLANE('',#1210);
#60=PLANE('',#1211);
#61=PLANE('',#1215);
#62=PLANE('',#1216);
#63=PLANE('',#1217);
#64=PLANE('',#1221);
#65=PLANE('',#1222);
#66=PLANE('',#1225);
#67=PLANE('',#1229);
#68=PLANE('',#1264);
#69=PLANE('',#1265);
#70=PLANE('',#1266);
#71=PLANE('',#1267);
#72=PLANE('',#1268);
#73=PLANE('',#1272);
#74=PLANE('',#1276);
#75=PLANE('',#1283);
#76=PLANE('',#1287);
#77=PLANE('',#1288);
#78=PLANE('',#1289);
#79=PLANE('',#1290);
#80=PLANE('',#1291);
#81=PLANE('',#1292);
#82=PLANE('',#1293);
#83=PLANE('',#1294);
#84=PLANE('',#1295);
#85=FACE_OUTER_BOUND('',#144,.T.);
#86=FACE_OUTER_BOUND('',#145,.T.);
#87=FACE_OUTER_BOUND('',#147,.T.);
#88=FACE_OUTER_BOUND('',#148,.T.);
#89=FACE_OUTER_BOUND('',#149,.T.);
#90=FACE_OUTER_BOUND('',#150,.T.);
#91=FACE_OUTER_BOUND('',#152,.T.);
#92=FACE_OUTER_BOUND('',#153,.T.);
#93=FACE_OUTER_BOUND('',#154,.T.);
#94=FACE_OUTER_BOUND('',#157,.T.);
#95=FACE_OUTER_BOUND('',#158,.T.);
#96=FACE_OUTER_BOUND('',#159,.T.);
#97=FACE_OUTER_BOUND('',#160,.T.);
#98=FACE_OUTER_BOUND('',#162,.T.);
#99=FACE_OUTER_BOUND('',#163,.T.);
#100=FACE_OUTER_BOUND('',#164,.T.);
#101=FACE_OUTER_BOUND('',#165,.T.);
#102=FACE_OUTER_BOUND('',#167,.T.);
#103=FACE_OUTER_BOUND('',#168,.T.);
#104=FACE_OUTER_BOUND('',#169,.T.);
#105=FACE_OUTER_BOUND('',#170,.T.);
#106=FACE_OUTER_BOUND('',#171,.T.);
#107=FACE_OUTER_BOUND('',#172,.T.);
#108=FACE_OUTER_BOUND('',#173,.T.);
#109=FACE_OUTER_BOUND('',#174,.T.);
#110=FACE_OUTER_BOUND('',#175,.T.);
#111=FACE_OUTER_BOUND('',#176,.T.);
#112=FACE_OUTER_BOUND('',#177,.T.);
#113=FACE_OUTER_BOUND('',#178,.T.);
#114=FACE_OUTER_BOUND('',#179,.T.);
#115=FACE_OUTER_BOUND('',#180,.T.);
#116=FACE_OUTER_BOUND('',#181,.T.);
#117=FACE_OUTER_BOUND('',#182,.T.);
#118=FACE_OUTER_BOUND('',#183,.T.);
#119=FACE_OUTER_BOUND('',#184,.T.);
#120=FACE_OUTER_BOUND('',#185,.T.);
#121=FACE_OUTER_BOUND('',#186,.T.);
#122=FACE_OUTER_BOUND('',#187,.T.);
#123=FACE_OUTER_BOUND('',#188,.T.);
#124=FACE_OUTER_BOUND('',#189,.T.);
#125=FACE_OUTER_BOUND('',#190,.T.);
#126=FACE_OUTER_BOUND('',#191,.T.);
#127=FACE_OUTER_BOUND('',#192,.T.);
#128=FACE_OUTER_BOUND('',#193,.T.);
#129=FACE_OUTER_BOUND('',#194,.T.);
#130=FACE_OUTER_BOUND('',#195,.T.);
#131=FACE_OUTER_BOUND('',#196,.T.);
#132=FACE_OUTER_BOUND('',#197,.T.);
#133=FACE_OUTER_BOUND('',#198,.T.);
#134=FACE_OUTER_BOUND('',#203,.T.);
#135=FACE_OUTER_BOUND('',#204,.T.);
#136=FACE_OUTER_BOUND('',#206,.T.);
#137=FACE_OUTER_BOUND('',#207,.T.);
#138=FACE_OUTER_BOUND('',#208,.T.);
#139=FACE_OUTER_BOUND('',#209,.T.);
#140=FACE_OUTER_BOUND('',#210,.T.);
#141=FACE_OUTER_BOUND('',#211,.T.);
#142=FACE_OUTER_BOUND('',#212,.T.);
#143=FACE_OUTER_BOUND('',#213,.T.);
#144=EDGE_LOOP('',(#756,#757,#758,#759));
#145=EDGE_LOOP('',(#760,#761,#762,#763,#764));
#146=EDGE_LOOP('',(#765));
#147=EDGE_LOOP('',(#766,#767,#768,#769,#770,#771));
#148=EDGE_LOOP('',(#772,#773,#774,#775));
#149=EDGE_LOOP('',(#776,#777,#778,#779,#780,#781,#782,#783));
#150=EDGE_LOOP('',(#784,#785,#786,#787,#788,#789,#790));
#151=EDGE_LOOP('',(#791));
#152=EDGE_LOOP('',(#792,#793,#794,#795));
#153=EDGE_LOOP('',(#796,#797,#798,#799,#800,#801,#802,#803));
#154=EDGE_LOOP('',(#804,#805,#806,#807,#808,#809,#810));
#155=EDGE_LOOP('',(#811));
#156=EDGE_LOOP('',(#812));
#157=EDGE_LOOP('',(#813,#814,#815,#816));
#158=EDGE_LOOP('',(#817,#818,#819,#820));
#159=EDGE_LOOP('',(#821,#822,#823,#824));
#160=EDGE_LOOP('',(#825,#826,#827,#828));
#161=EDGE_LOOP('',(#829));
#162=EDGE_LOOP('',(#830,#831,#832,#833));
#163=EDGE_LOOP('',(#834,#835,#836,#837));
#164=EDGE_LOOP('',(#838,#839,#840,#841));
#165=EDGE_LOOP('',(#842,#843,#844,#845));
#166=EDGE_LOOP('',(#846));
#167=EDGE_LOOP('',(#847,#848,#849,#850));
#168=EDGE_LOOP('',(#851,#852,#853,#854));
#169=EDGE_LOOP('',(#855,#856,#857,#858,#859,#860,#861,#862,#863,#864,#865,
#866,#867,#868));
#170=EDGE_LOOP('',(#869,#870,#871,#872,#873,#874,#875,#876,#877,#878,#879));
#171=EDGE_LOOP('',(#880));
#172=EDGE_LOOP('',(#881,#882,#883,#884));
#173=EDGE_LOOP('',(#885));
#174=EDGE_LOOP('',(#886,#887,#888,#889,#890,#891));
#175=EDGE_LOOP('',(#892,#893,#894,#895));
#176=EDGE_LOOP('',(#896,#897,#898,#899,#900,#901));
#177=EDGE_LOOP('',(#902,#903,#904,#905));
#178=EDGE_LOOP('',(#906,#907,#908,#909));
#179=EDGE_LOOP('',(#910,#911,#912,#913));
#180=EDGE_LOOP('',(#914,#915,#916,#917));
#181=EDGE_LOOP('',(#918,#919,#920,#921));
#182=EDGE_LOOP('',(#922,#923,#924,#925));
#183=EDGE_LOOP('',(#926,#927,#928,#929));
#184=EDGE_LOOP('',(#930,#931,#932,#933,#934,#935));
#185=EDGE_LOOP('',(#936,#937,#938,#939));
#186=EDGE_LOOP('',(#940,#941,#942));
#187=EDGE_LOOP('',(#943,#944,#945));
#188=EDGE_LOOP('',(#946,#947,#948,#949,#950,#951));
#189=EDGE_LOOP('',(#952,#953,#954,#955,#956));
#190=EDGE_LOOP('',(#957,#958,#959,#960,#961,#962,#963,#964));
#191=EDGE_LOOP('',(#965,#966,#967,#968));
#192=EDGE_LOOP('',(#969));
#193=EDGE_LOOP('',(#970,#971,#972,#973));
#194=EDGE_LOOP('',(#974));
#195=EDGE_LOOP('',(#975,#976,#977,#978));
#196=EDGE_LOOP('',(#979,#980,#981,#982));
#197=EDGE_LOOP('',(#983,#984,#985,#986,#987,#988,#989,#990,#991,#992,#993));
#198=EDGE_LOOP('',(#994,#995,#996,#997,#998,#999,#1000,#1001,#1002,#1003,
#1004,#1005,#1006,#1007));
#199=EDGE_LOOP('',(#1008));
#200=EDGE_LOOP('',(#1009));
#201=EDGE_LOOP('',(#1010));
#202=EDGE_LOOP('',(#1011));
#203=EDGE_LOOP('',(#1012,#1013,#1014,#1015));
#204=EDGE_LOOP('',(#1016,#1017,#1018,#1019));
#205=EDGE_LOOP('',(#1020));
#206=EDGE_LOOP('',(#1021,#1022,#1023,#1024));
#207=EDGE_LOOP('',(#1025,#1026,#1027,#1028));
#208=EDGE_LOOP('',(#1029,#1030,#1031,#1032));
#209=EDGE_LOOP('',(#1033,#1034,#1035,#1036));
#210=EDGE_LOOP('',(#1037,#1038,#1039,#1040));
#211=EDGE_LOOP('',(#1041,#1042,#1043,#1044,#1045,#1046,#1047,#1048));
#212=EDGE_LOOP('',(#1049,#1050,#1051,#1052,#1053));
#213=EDGE_LOOP('',(#1054,#1055,#1056,#1057,#1058,#1059,#1060,#1061,#1062,
#1063,#1064,#1065,#1066,#1067));
#214=EDGE_LOOP('',(#1068));
#215=EDGE_LOOP('',(#1069));
#216=EDGE_LOOP('',(#1070));
#217=EDGE_LOOP('',(#1071));
#218=EDGE_LOOP('',(#1072));
#219=EDGE_LOOP('',(#1073));
#220=EDGE_LOOP('',(#1074));
#221=EDGE_LOOP('',(#1075));
#222=EDGE_LOOP('',(#1076));
#223=EDGE_LOOP('',(#1077));
#224=EDGE_LOOP('',(#1078));
#225=EDGE_LOOP('',(#1079));
#226=EDGE_LOOP('',(#1080));
#227=EDGE_LOOP('',(#1081));
#228=LINE('',#1630,#332);
#229=LINE('',#1633,#333);
#230=LINE('',#1636,#334);
#231=LINE('',#1638,#335);
#232=LINE('',#1640,#336);
#233=LINE('',#1641,#337);
#234=LINE('',#1646,#338);
#235=LINE('',#1648,#339);
#236=LINE('',#1650,#340);
#237=LINE('',#1651,#341);
#238=LINE('',#1657,#342);
#239=LINE('',#1660,#343);
#240=LINE('',#1663,#344);
#241=LINE('',#1665,#345);
#242=LINE('',#1667,#346);
#243=LINE('',#1669,#347);
#244=LINE('',#1671,#348);
#245=LINE('',#1673,#349);
#246=LINE('',#1674,#350);
#247=LINE('',#1677,#351);
#248=LINE('',#1679,#352);
#249=LINE('',#1681,#353);
#250=LINE('',#1683,#354);
#251=LINE('',#1684,#355);
#252=LINE('',#1692,#356);
#253=LINE('',#1695,#357);
#254=LINE('',#1697,#358);
#255=LINE('',#1699,#359);
#256=LINE('',#1701,#360);
#257=LINE('',#1703,#361);
#258=LINE('',#1704,#362);
#259=LINE('',#1706,#363);
#260=LINE('',#1708,#364);
#261=LINE('',#1709,#365);
#262=LINE('',#1718,#366);
#263=LINE('',#1724,#367);
#264=LINE('',#1729,#368);
#265=LINE('',#1731,#369);
#266=LINE('',#1733,#370);
#267=LINE('',#1734,#371);
#268=LINE('',#1737,#372);
#269=LINE('',#1740,#373);
#270=LINE('',#1744,#374);
#271=LINE('',#1747,#375);
#272=LINE('',#1748,#376);
#273=LINE('',#1752,#377);
#274=LINE('',#1754,#378);
#275=LINE('',#1756,#379);
#276=LINE('',#1757,#380);
#277=LINE('',#1760,#381);
#278=LINE('',#1763,#382);
#279=LINE('',#1767,#383);
#280=LINE('',#1770,#384);
#281=LINE('',#1771,#385);
#282=LINE('',#1773,#386);
#283=LINE('',#1775,#387);
#284=LINE('',#1777,#388);
#285=LINE('',#1779,#389);
#286=LINE('',#1780,#390);
#287=LINE('',#1781,#391);
#288=LINE('',#1784,#392);
#289=LINE('',#1851,#393);
#290=LINE('',#1871,#394);
#291=LINE('',#1880,#395);
#292=LINE('',#1885,#396);
#293=LINE('',#1893,#397);
#294=LINE('',#1898,#398);
#295=LINE('',#1904,#399);
#296=LINE('',#1908,#400);
#297=LINE('',#1914,#401);
#298=LINE('',#1918,#402);
#299=LINE('',#1924,#403);
#300=LINE('',#1928,#404);
#301=LINE('',#1942,#405);
#302=LINE('',#1946,#406);
#303=LINE('',#1949,#407);
#304=LINE('',#1952,#408);
#305=LINE('',#1953,#409);
#306=LINE('',#1955,#410);
#307=LINE('',#1957,#411);
#308=LINE('',#1959,#412);
#309=LINE('',#1961,#413);
#310=LINE('',#1963,#414);
#311=LINE('',#1964,#415);
#312=LINE('',#1969,#416);
#313=LINE('',#1976,#417);
#314=LINE('',#1982,#418);
#315=LINE('',#1986,#419);
#316=LINE('',#1990,#420);
#317=LINE('',#1991,#421);
#318=LINE('',#1993,#422);
#319=LINE('',#1998,#423);
#320=LINE('',#2002,#424);
#321=LINE('',#2003,#425);
#322=LINE('',#2006,#426);
#323=LINE('',#2007,#427);
#324=LINE('',#2010,#428);
#325=LINE('',#2011,#429);
#326=LINE('',#2013,#430);
#327=LINE('',#2015,#431);
#328=LINE('',#2017,#432);
#329=LINE('',#2020,#433);
#330=LINE('',#2021,#434);
#331=LINE('',#2023,#435);
#332=VECTOR('',#1302,10.);
#333=VECTOR('',#1305,10.);
#334=VECTOR('',#1308,10.);
#335=VECTOR('',#1309,10.);
#336=VECTOR('',#1310,10.);
#337=VECTOR('',#1311,10.);
#338=VECTOR('',#1316,10.);
#339=VECTOR('',#1317,10.);
#340=VECTOR('',#1318,10.);
#341=VECTOR('',#1319,10.);
#342=VECTOR('',#1324,4.);
#343=VECTOR('',#1327,4.);
#344=VECTOR('',#1330,10.);
#345=VECTOR('',#1331,10.);
#346=VECTOR('',#1332,10.);
#347=VECTOR('',#1333,10.);
#348=VECTOR('',#1334,10.);
#349=VECTOR('',#1335,10.);
#350=VECTOR('',#1336,10.);
#351=VECTOR('',#1339,10.);
#352=VECTOR('',#1340,10.);
#353=VECTOR('',#1341,10.);
#354=VECTOR('',#1342,10.);
#355=VECTOR('',#1343,10.);
#356=VECTOR('',#1350,4.);
#357=VECTOR('',#1353,4.);
#358=VECTOR('',#1356,10.);
#359=VECTOR('',#1357,10.);
#360=VECTOR('',#1358,10.);
#361=VECTOR('',#1359,10.);
#362=VECTOR('',#1360,10.);
#363=VECTOR('',#1363,10.);
#364=VECTOR('',#1364,10.);
#365=VECTOR('',#1365,10.);
#366=VECTOR('',#1374,1.);
#367=VECTOR('',#1381,1.);
#368=VECTOR('',#1386,10.);
#369=VECTOR('',#1387,10.);
#370=VECTOR('',#1388,10.);
#371=VECTOR('',#1389,10.);
#372=VECTOR('',#1392,10.);
#373=VECTOR('',#1395,10.);
#374=VECTOR('',#1400,10.);
#375=VECTOR('',#1403,10.);
#376=VECTOR('',#1404,10.);
#377=VECTOR('',#1407,10.);
#378=VECTOR('',#1408,10.);
#379=VECTOR('',#1409,10.);
#380=VECTOR('',#1410,10.);
#381=VECTOR('',#1413,10.);
#382=VECTOR('',#1416,10.);
#383=VECTOR('',#1421,10.);
#384=VECTOR('',#1424,10.);
#385=VECTOR('',#1425,10.);
#386=VECTOR('',#1428,10.);
#387=VECTOR('',#1429,10.);
#388=VECTOR('',#1430,10.);
#389=VECTOR('',#1431,10.);
#390=VECTOR('',#1432,10.);
#391=VECTOR('',#1433,10.);
#392=VECTOR('',#1436,1.2295);
#393=VECTOR('',#1437,1.2295);
#394=VECTOR('',#1446,1.2295);
#395=VECTOR('',#1457,2.425);
#396=VECTOR('',#1464,1.6);
#397=VECTOR('',#1473,2.425);
#398=VECTOR('',#1480,1.6);
#399=VECTOR('',#1487,2.425);
#400=VECTOR('',#1492,1.6);
#401=VECTOR('',#1499,2.425);
#402=VECTOR('',#1504,1.6);
#403=VECTOR('',#1511,2.425);
#404=VECTOR('',#1516,1.6);
#405=VECTOR('',#1523,2.425);
#406=VECTOR('',#1528,1.6);
#407=VECTOR('',#1533,10.);
#408=VECTOR('',#1536,10.);
#409=VECTOR('',#1537,10.);
#410=VECTOR('',#1540,10.);
#411=VECTOR('',#1543,10.);
#412=VECTOR('',#1546,10.);
#413=VECTOR('',#1547,10.);
#414=VECTOR('',#1548,10.);
#415=VECTOR('',#1549,10.);
#416=VECTOR('',#1554,4.);
#417=VECTOR('',#1563,1.25);
#418=VECTOR('',#1572,0.7835);
#419=VECTOR('',#1577,0.7835);
#420=VECTOR('',#1582,0.7835);
#421=VECTOR('',#1583,0.7835);
#422=VECTOR('',#1586,10.);
#423=VECTOR('',#1591,4.99999999999999);
#424=VECTOR('',#1596,10.);
#425=VECTOR('',#1597,10.);
#426=VECTOR('',#1600,10.);
#427=VECTOR('',#1601,10.);
#428=VECTOR('',#1604,10.);
#429=VECTOR('',#1605,10.);
#430=VECTOR('',#1608,10.);
#431=VECTOR('',#1611,10.);
#432=VECTOR('',#1614,10.);
#433=VECTOR('',#1617,10.);
#434=VECTOR('',#1618,10.);
#435=VECTOR('',#1621,10.);
#436=CIRCLE('',#1186,1.);
#437=CIRCLE('',#1187,1.);
#438=CIRCLE('',#1189,1.2295);
#439=CIRCLE('',#1192,4.);
#440=CIRCLE('',#1193,4.);
#441=CIRCLE('',#1196,0.7835);
#442=CIRCLE('',#1198,4.);
#443=CIRCLE('',#1199,4.);
#444=CIRCLE('',#1202,0.7835);
#445=CIRCLE('',#1203,0.7835);
#446=CIRCLE('',#1205,1.);
#447=CIRCLE('',#1206,1.);
#448=CIRCLE('',#1208,1.);
#449=CIRCLE('',#1209,1.);
#450=CIRCLE('',#1212,2.);
#451=CIRCLE('',#1214,2.);
#452=CIRCLE('',#1218,2.);
#453=CIRCLE('',#1220,2.);
#454=CIRCLE('',#1224,1.2295);
#455=CIRCLE('',#1227,1.2295);
#456=CIRCLE('',#1228,1.2295);
#457=CIRCLE('',#1231,3.25);
#458=CIRCLE('',#1232,3.25);
#459=CIRCLE('',#1233,1.6);
#460=CIRCLE('',#1234,3.25);
#461=CIRCLE('',#1236,1.6);
#462=CIRCLE('',#1238,3.25);
#463=CIRCLE('',#1239,3.25);
#464=CIRCLE('',#1240,1.6);
#465=CIRCLE('',#1241,3.25);
#466=CIRCLE('',#1243,1.6);
#467=CIRCLE('',#1245,3.25);
#468=CIRCLE('',#1246,1.6);
#469=CIRCLE('',#1248,1.6);
#470=CIRCLE('',#1250,3.25);
#471=CIRCLE('',#1251,1.6);
#472=CIRCLE('',#1253,1.6);
#473=CIRCLE('',#1255,3.25);
#474=CIRCLE('',#1256,1.6);
#475=CIRCLE('',#1258,1.6);
#476=CIRCLE('',#1260,3.25);
#477=CIRCLE('',#1261,1.6);
#478=CIRCLE('',#1263,1.6);
#479=CIRCLE('',#1270,4.);
#480=CIRCLE('',#1271,4.);
#481=CIRCLE('',#1274,1.25);
#482=CIRCLE('',#1275,1.25);
#483=CIRCLE('',#1278,0.7835);
#484=CIRCLE('',#1280,0.7835);
#485=CIRCLE('',#1282,0.7835);
#486=CIRCLE('',#1284,4.99999999999999);
#487=CIRCLE('',#1286,4.99999999999999);
#488=VERTEX_POINT('',#1626);
#489=VERTEX_POINT('',#1627);
#490=VERTEX_POINT('',#1629);
#491=VERTEX_POINT('',#1631);
#492=VERTEX_POINT('',#1635);
#493=VERTEX_POINT('',#1637);
#494=VERTEX_POINT('',#1639);
#495=VERTEX_POINT('',#1642);
#496=VERTEX_POINT('',#1645);
#497=VERTEX_POINT('',#1647);
#498=VERTEX_POINT('',#1649);
#499=VERTEX_POINT('',#1653);
#500=VERTEX_POINT('',#1654);
#501=VERTEX_POINT('',#1656);
#502=VERTEX_POINT('',#1658);
#503=VERTEX_POINT('',#1662);
#504=VERTEX_POINT('',#1664);
#505=VERTEX_POINT('',#1666);
#506=VERTEX_POINT('',#1668);
#507=VERTEX_POINT('',#1670);
#508=VERTEX_POINT('',#1672);
#509=VERTEX_POINT('',#1676);
#510=VERTEX_POINT('',#1678);
#511=VERTEX_POINT('',#1680);
#512=VERTEX_POINT('',#1682);
#513=VERTEX_POINT('',#1685);
#514=VERTEX_POINT('',#1688);
#515=VERTEX_POINT('',#1689);
#516=VERTEX_POINT('',#1691);
#517=VERTEX_POINT('',#1693);
#518=VERTEX_POINT('',#1698);
#519=VERTEX_POINT('',#1700);
#520=VERTEX_POINT('',#1702);
#521=VERTEX_POINT('',#1707);
#522=VERTEX_POINT('',#1710);
#523=VERTEX_POINT('',#1712);
#524=VERTEX_POINT('',#1715);
#525=VERTEX_POINT('',#1717);
#526=VERTEX_POINT('',#1721);
#527=VERTEX_POINT('',#1723);
#528=VERTEX_POINT('',#1727);
#529=VERTEX_POINT('',#1728);
#530=VERTEX_POINT('',#1730);
#531=VERTEX_POINT('',#1732);
#532=VERTEX_POINT('',#1736);
#533=VERTEX_POINT('',#1738);
#534=VERTEX_POINT('',#1742);
#535=VERTEX_POINT('',#1746);
#536=VERTEX_POINT('',#1750);
#537=VERTEX_POINT('',#1751);
#538=VERTEX_POINT('',#1753);
#539=VERTEX_POINT('',#1755);
#540=VERTEX_POINT('',#1759);
#541=VERTEX_POINT('',#1761);
#542=VERTEX_POINT('',#1765);
#543=VERTEX_POINT('',#1769);
#544=VERTEX_POINT('',#1774);
#545=VERTEX_POINT('',#1776);
#546=VERTEX_POINT('',#1778);
#547=VERTEX_POINT('',#1783);
#548=VERTEX_POINT('',#1785);
#549=VERTEX_POINT('',#1824);
#550=VERTEX_POINT('',#1839);
#551=VERTEX_POINT('',#1850);
#552=VERTEX_POINT('',#1853);
#553=VERTEX_POINT('',#1868);
#554=VERTEX_POINT('',#1870);
#555=VERTEX_POINT('',#1875);
#556=VERTEX_POINT('',#1877);
#557=VERTEX_POINT('',#1879);
#558=VERTEX_POINT('',#1884);
#559=VERTEX_POINT('',#1888);
#560=VERTEX_POINT('',#1890);
#561=VERTEX_POINT('',#1892);
#562=VERTEX_POINT('',#1897);
#563=VERTEX_POINT('',#1901);
#564=VERTEX_POINT('',#1903);
#565=VERTEX_POINT('',#1907);
#566=VERTEX_POINT('',#1911);
#567=VERTEX_POINT('',#1913);
#568=VERTEX_POINT('',#1917);
#569=VERTEX_POINT('',#1921);
#570=VERTEX_POINT('',#1923);
#571=VERTEX_POINT('',#1927);
#572=VERTEX_POINT('',#1931);
#573=VERTEX_POINT('',#1932);
#574=VERTEX_POINT('',#1936);
#575=VERTEX_POINT('',#1941);
#576=VERTEX_POINT('',#1945);
#577=VERTEX_POINT('',#1951);
#578=VERTEX_POINT('',#1960);
#579=VERTEX_POINT('',#1962);
#580=VERTEX_POINT('',#1966);
#581=VERTEX_POINT('',#1968);
#582=VERTEX_POINT('',#1973);
#583=VERTEX_POINT('',#1975);
#584=VERTEX_POINT('',#1980);
#585=VERTEX_POINT('',#1984);
#586=VERTEX_POINT('',#1988);
#587=VERTEX_POINT('',#1994);
#588=VERTEX_POINT('',#1997);
#589=VERTEX_POINT('',#2001);
#590=VERTEX_POINT('',#2005);
#591=VERTEX_POINT('',#2009);
#592=VERTEX_POINT('',#2019);
#593=EDGE_CURVE('',#488,#489,#436,.T.);
#594=EDGE_CURVE('',#489,#490,#228,.T.);
#595=EDGE_CURVE('',#490,#491,#437,.F.);
#596=EDGE_CURVE('',#491,#488,#229,.T.);
#597=EDGE_CURVE('',#488,#492,#230,.T.);
#598=EDGE_CURVE('',#493,#492,#231,.T.);
#599=EDGE_CURVE('',#494,#493,#232,.T.);
#600=EDGE_CURVE('',#489,#494,#233,.T.);
#601=EDGE_CURVE('',#495,#495,#438,.T.);
#602=EDGE_CURVE('',#491,#496,#234,.T.);
#603=EDGE_CURVE('',#497,#496,#235,.T.);
#604=EDGE_CURVE('',#497,#498,#236,.T.);
#605=EDGE_CURVE('',#492,#498,#237,.T.);
#606=EDGE_CURVE('',#499,#500,#439,.T.);
#607=EDGE_CURVE('',#499,#501,#238,.T.);
#608=EDGE_CURVE('',#501,#502,#440,.T.);
#609=EDGE_CURVE('',#502,#500,#239,.T.);
#610=EDGE_CURVE('',#503,#502,#240,.T.);
#611=EDGE_CURVE('',#504,#503,#241,.T.);
#612=EDGE_CURVE('',#505,#504,#242,.T.);
#613=EDGE_CURVE('',#505,#506,#243,.T.);
#614=EDGE_CURVE('',#507,#506,#244,.T.);
#615=EDGE_CURVE('',#508,#507,#245,.T.);
#616=EDGE_CURVE('',#500,#508,#246,.T.);
#617=EDGE_CURVE('',#501,#509,#247,.T.);
#618=EDGE_CURVE('',#509,#510,#248,.T.);
#619=EDGE_CURVE('',#510,#511,#249,.T.);
#620=EDGE_CURVE('',#511,#512,#250,.T.);
#621=EDGE_CURVE('',#512,#503,#251,.T.);
#622=EDGE_CURVE('',#513,#513,#441,.T.);
#623=EDGE_CURVE('',#514,#515,#442,.F.);
#624=EDGE_CURVE('',#515,#516,#252,.T.);
#625=EDGE_CURVE('',#516,#517,#443,.T.);
#626=EDGE_CURVE('',#517,#514,#253,.T.);
#627=EDGE_CURVE('',#514,#499,#254,.T.);
#628=EDGE_CURVE('',#518,#517,#255,.T.);
#629=EDGE_CURVE('',#519,#518,#256,.T.);
#630=EDGE_CURVE('',#520,#519,#257,.T.);
#631=EDGE_CURVE('',#520,#509,#258,.T.);
#632=EDGE_CURVE('',#516,#493,#259,.T.);
#633=EDGE_CURVE('',#498,#521,#260,.T.);
#634=EDGE_CURVE('',#521,#518,#261,.T.);
#635=EDGE_CURVE('',#522,#522,#444,.T.);
#636=EDGE_CURVE('',#523,#523,#445,.T.);
#637=EDGE_CURVE('',#524,#524,#446,.T.);
#638=EDGE_CURVE('',#524,#525,#262,.T.);
#639=EDGE_CURVE('',#525,#525,#447,.T.);
#640=EDGE_CURVE('',#526,#526,#448,.T.);
#641=EDGE_CURVE('',#526,#527,#263,.T.);
#642=EDGE_CURVE('',#527,#527,#449,.T.);
#643=EDGE_CURVE('',#528,#529,#264,.T.);
#644=EDGE_CURVE('',#530,#528,#265,.T.);
#645=EDGE_CURVE('',#530,#531,#266,.T.);
#646=EDGE_CURVE('',#531,#529,#267,.T.);
#647=EDGE_CURVE('',#529,#532,#268,.T.);
#648=EDGE_CURVE('',#533,#531,#450,.T.);
#649=EDGE_CURVE('',#532,#533,#269,.T.);
#650=EDGE_CURVE('',#534,#530,#451,.T.);
#651=EDGE_CURVE('',#534,#533,#270,.T.);
#652=EDGE_CURVE('',#532,#535,#271,.T.);
#653=EDGE_CURVE('',#535,#534,#272,.T.);
#654=EDGE_CURVE('',#536,#537,#273,.T.);
#655=EDGE_CURVE('',#538,#536,#274,.T.);
#656=EDGE_CURVE('',#538,#539,#275,.T.);
#657=EDGE_CURVE('',#539,#537,#276,.T.);
#658=EDGE_CURVE('',#537,#540,#277,.T.);
#659=EDGE_CURVE('',#541,#539,#452,.T.);
#660=EDGE_CURVE('',#540,#541,#278,.T.);
#661=EDGE_CURVE('',#542,#538,#453,.T.);
#662=EDGE_CURVE('',#542,#541,#279,.T.);
#663=EDGE_CURVE('',#540,#543,#280,.T.);
#664=EDGE_CURVE('',#543,#542,#281,.T.);
#665=EDGE_CURVE('',#536,#535,#282,.T.);
#666=EDGE_CURVE('',#544,#543,#283,.T.);
#667=EDGE_CURVE('',#545,#544,#284,.T.);
#668=EDGE_CURVE('',#546,#545,#285,.T.);
#669=EDGE_CURVE('',#546,#521,#286,.T.);
#670=EDGE_CURVE('',#528,#497,#287,.T.);
#671=EDGE_CURVE('',#495,#547,#288,.T.);
#672=EDGE_CURVE('',#548,#547,#23,.T.);
#673=EDGE_CURVE('',#549,#548,#24,.T.);
#674=EDGE_CURVE('',#550,#549,#25,.T.);
#675=EDGE_CURVE('',#550,#551,#289,.T.);
#676=EDGE_CURVE('',#551,#551,#454,.T.);
#677=EDGE_CURVE('',#552,#550,#26,.T.);
#678=EDGE_CURVE('',#547,#552,#27,.T.);
#679=EDGE_CURVE('',#553,#553,#455,.T.);
#680=EDGE_CURVE('',#553,#554,#290,.T.);
#681=EDGE_CURVE('',#554,#554,#456,.T.);
#682=EDGE_CURVE('',#508,#555,#457,.T.);
#683=EDGE_CURVE('',#556,#508,#458,.T.);
#684=EDGE_CURVE('',#556,#557,#291,.T.);
#685=EDGE_CURVE('',#557,#557,#459,.T.);
#686=EDGE_CURVE('',#555,#556,#460,.T.);
#687=EDGE_CURVE('',#557,#558,#292,.T.);
#688=EDGE_CURVE('',#558,#558,#461,.T.);
#689=EDGE_CURVE('',#507,#559,#462,.T.);
#690=EDGE_CURVE('',#560,#507,#463,.T.);
#691=EDGE_CURVE('',#560,#561,#293,.T.);
#692=EDGE_CURVE('',#561,#561,#464,.T.);
#693=EDGE_CURVE('',#559,#560,#465,.T.);
#694=EDGE_CURVE('',#561,#562,#294,.T.);
#695=EDGE_CURVE('',#562,#562,#466,.T.);
#696=EDGE_CURVE('',#563,#563,#467,.T.);
#697=EDGE_CURVE('',#563,#564,#295,.T.);
#698=EDGE_CURVE('',#564,#564,#468,.T.);
#699=EDGE_CURVE('',#564,#565,#296,.T.);
#700=EDGE_CURVE('',#565,#565,#469,.T.);
#701=EDGE_CURVE('',#566,#566,#470,.T.);
#702=EDGE_CURVE('',#566,#567,#297,.T.);
#703=EDGE_CURVE('',#567,#567,#471,.T.);
#704=EDGE_CURVE('',#567,#568,#298,.T.);
#705=EDGE_CURVE('',#568,#568,#472,.T.);
#706=EDGE_CURVE('',#569,#569,#473,.T.);
#707=EDGE_CURVE('',#569,#570,#299,.T.);
#708=EDGE_CURVE('',#570,#570,#474,.T.);
#709=EDGE_CURVE('',#570,#571,#300,.T.);
#710=EDGE_CURVE('',#571,#571,#475,.T.);
#711=EDGE_CURVE('',#572,#573,#15,.T.);
#712=EDGE_CURVE('',#574,#572,#476,.T.);
#713=EDGE_CURVE('',#573,#574,#16,.T.);
#714=EDGE_CURVE('',#573,#575,#301,.T.);
#715=EDGE_CURVE('',#575,#575,#477,.T.);
#716=EDGE_CURVE('',#575,#576,#302,.T.);
#717=EDGE_CURVE('',#576,#576,#478,.T.);
#718=EDGE_CURVE('',#506,#560,#303,.T.);
#719=EDGE_CURVE('',#560,#577,#304,.T.);
#720=EDGE_CURVE('',#577,#559,#305,.T.);
#721=EDGE_CURVE('',#555,#515,#306,.T.);
#722=EDGE_CURVE('',#559,#555,#307,.T.);
#723=EDGE_CURVE('',#496,#574,#308,.T.);
#724=EDGE_CURVE('',#578,#490,#309,.T.);
#725=EDGE_CURVE('',#578,#579,#310,.T.);
#726=EDGE_CURVE('',#572,#579,#311,.T.);
#727=EDGE_CURVE('',#580,#580,#479,.T.);
#728=EDGE_CURVE('',#580,#581,#312,.T.);
#729=EDGE_CURVE('',#581,#581,#480,.T.);
#730=EDGE_CURVE('',#582,#582,#481,.T.);
#731=EDGE_CURVE('',#582,#583,#313,.T.);
#732=EDGE_CURVE('',#583,#583,#482,.T.);
#733=EDGE_CURVE('',#584,#584,#483,.T.);
#734=EDGE_CURVE('',#584,#513,#314,.T.);
#735=EDGE_CURVE('',#585,#585,#484,.T.);
#736=EDGE_CURVE('',#585,#523,#315,.T.);
#737=EDGE_CURVE('',#586,#586,#485,.T.);
#738=EDGE_CURVE('',#586,#549,#316,.T.);
#739=EDGE_CURVE('',#548,#522,#317,.T.);
#740=EDGE_CURVE('',#579,#544,#318,.T.);
#741=EDGE_CURVE('',#587,#587,#486,.T.);
#742=EDGE_CURVE('',#587,#588,#319,.T.);
#743=EDGE_CURVE('',#588,#588,#487,.T.);
#744=EDGE_CURVE('',#504,#589,#320,.T.);
#745=EDGE_CURVE('',#589,#512,#321,.T.);
#746=EDGE_CURVE('',#589,#590,#322,.T.);
#747=EDGE_CURVE('',#590,#511,#323,.T.);
#748=EDGE_CURVE('',#590,#591,#324,.T.);
#749=EDGE_CURVE('',#591,#510,#325,.T.);
#750=EDGE_CURVE('',#591,#520,#326,.T.);
#751=EDGE_CURVE('',#519,#546,#327,.T.);
#752=EDGE_CURVE('',#545,#578,#328,.T.);
#753=EDGE_CURVE('',#592,#577,#329,.T.);
#754=EDGE_CURVE('',#494,#592,#330,.T.);
#755=EDGE_CURVE('',#592,#505,#331,.T.);
#756=ORIENTED_EDGE('',*,*,#593,.T.);
#757=ORIENTED_EDGE('',*,*,#594,.T.);
#758=ORIENTED_EDGE('',*,*,#595,.T.);
#759=ORIENTED_EDGE('',*,*,#596,.T.);
#760=ORIENTED_EDGE('',*,*,#593,.F.);
#761=ORIENTED_EDGE('',*,*,#597,.T.);
#762=ORIENTED_EDGE('',*,*,#598,.F.);
#763=ORIENTED_EDGE('',*,*,#599,.F.);
#764=ORIENTED_EDGE('',*,*,#600,.F.);
#765=ORIENTED_EDGE('',*,*,#601,.T.);
#766=ORIENTED_EDGE('',*,*,#596,.F.);
#767=ORIENTED_EDGE('',*,*,#602,.T.);
#768=ORIENTED_EDGE('',*,*,#603,.F.);
#769=ORIENTED_EDGE('',*,*,#604,.T.);
#770=ORIENTED_EDGE('',*,*,#605,.F.);
#771=ORIENTED_EDGE('',*,*,#597,.F.);
#772=ORIENTED_EDGE('',*,*,#606,.F.);
#773=ORIENTED_EDGE('',*,*,#607,.T.);
#774=ORIENTED_EDGE('',*,*,#608,.T.);
#775=ORIENTED_EDGE('',*,*,#609,.T.);
#776=ORIENTED_EDGE('',*,*,#609,.F.);
#777=ORIENTED_EDGE('',*,*,#610,.F.);
#778=ORIENTED_EDGE('',*,*,#611,.F.);
#779=ORIENTED_EDGE('',*,*,#612,.F.);
#780=ORIENTED_EDGE('',*,*,#613,.T.);
#781=ORIENTED_EDGE('',*,*,#614,.F.);
#782=ORIENTED_EDGE('',*,*,#615,.F.);
#783=ORIENTED_EDGE('',*,*,#616,.F.);
#784=ORIENTED_EDGE('',*,*,#608,.F.);
#785=ORIENTED_EDGE('',*,*,#617,.T.);
#786=ORIENTED_EDGE('',*,*,#618,.T.);
#787=ORIENTED_EDGE('',*,*,#619,.T.);
#788=ORIENTED_EDGE('',*,*,#620,.T.);
#789=ORIENTED_EDGE('',*,*,#621,.T.);
#790=ORIENTED_EDGE('',*,*,#610,.T.);
#791=ORIENTED_EDGE('',*,*,#622,.T.);
#792=ORIENTED_EDGE('',*,*,#623,.T.);
#793=ORIENTED_EDGE('',*,*,#624,.T.);
#794=ORIENTED_EDGE('',*,*,#625,.T.);
#795=ORIENTED_EDGE('',*,*,#626,.T.);
#796=ORIENTED_EDGE('',*,*,#627,.F.);
#797=ORIENTED_EDGE('',*,*,#626,.F.);
#798=ORIENTED_EDGE('',*,*,#628,.F.);
#799=ORIENTED_EDGE('',*,*,#629,.F.);
#800=ORIENTED_EDGE('',*,*,#630,.F.);
#801=ORIENTED_EDGE('',*,*,#631,.T.);
#802=ORIENTED_EDGE('',*,*,#617,.F.);
#803=ORIENTED_EDGE('',*,*,#607,.F.);
#804=ORIENTED_EDGE('',*,*,#625,.F.);
#805=ORIENTED_EDGE('',*,*,#632,.T.);
#806=ORIENTED_EDGE('',*,*,#598,.T.);
#807=ORIENTED_EDGE('',*,*,#605,.T.);
#808=ORIENTED_EDGE('',*,*,#633,.T.);
#809=ORIENTED_EDGE('',*,*,#634,.T.);
#810=ORIENTED_EDGE('',*,*,#628,.T.);
#811=ORIENTED_EDGE('',*,*,#635,.T.);
#812=ORIENTED_EDGE('',*,*,#636,.T.);
#813=ORIENTED_EDGE('',*,*,#637,.F.);
#814=ORIENTED_EDGE('',*,*,#638,.T.);
#815=ORIENTED_EDGE('',*,*,#639,.F.);
#816=ORIENTED_EDGE('',*,*,#638,.F.);
#817=ORIENTED_EDGE('',*,*,#640,.F.);
#818=ORIENTED_EDGE('',*,*,#641,.T.);
#819=ORIENTED_EDGE('',*,*,#642,.F.);
#820=ORIENTED_EDGE('',*,*,#641,.F.);
#821=ORIENTED_EDGE('',*,*,#643,.F.);
#822=ORIENTED_EDGE('',*,*,#644,.F.);
#823=ORIENTED_EDGE('',*,*,#645,.T.);
#824=ORIENTED_EDGE('',*,*,#646,.T.);
#825=ORIENTED_EDGE('',*,*,#647,.F.);
#826=ORIENTED_EDGE('',*,*,#646,.F.);
#827=ORIENTED_EDGE('',*,*,#648,.F.);
#828=ORIENTED_EDGE('',*,*,#649,.F.);
#829=ORIENTED_EDGE('',*,*,#637,.T.);
#830=ORIENTED_EDGE('',*,*,#650,.F.);
#831=ORIENTED_EDGE('',*,*,#651,.T.);
#832=ORIENTED_EDGE('',*,*,#648,.T.);
#833=ORIENTED_EDGE('',*,*,#645,.F.);
#834=ORIENTED_EDGE('',*,*,#652,.F.);
#835=ORIENTED_EDGE('',*,*,#649,.T.);
#836=ORIENTED_EDGE('',*,*,#651,.F.);
#837=ORIENTED_EDGE('',*,*,#653,.F.);
#838=ORIENTED_EDGE('',*,*,#654,.F.);
#839=ORIENTED_EDGE('',*,*,#655,.F.);
#840=ORIENTED_EDGE('',*,*,#656,.T.);
#841=ORIENTED_EDGE('',*,*,#657,.T.);
#842=ORIENTED_EDGE('',*,*,#658,.F.);
#843=ORIENTED_EDGE('',*,*,#657,.F.);
#844=ORIENTED_EDGE('',*,*,#659,.F.);
#845=ORIENTED_EDGE('',*,*,#660,.F.);
#846=ORIENTED_EDGE('',*,*,#640,.T.);
#847=ORIENTED_EDGE('',*,*,#661,.F.);
#848=ORIENTED_EDGE('',*,*,#662,.T.);
#849=ORIENTED_EDGE('',*,*,#659,.T.);
#850=ORIENTED_EDGE('',*,*,#656,.F.);
#851=ORIENTED_EDGE('',*,*,#663,.F.);
#852=ORIENTED_EDGE('',*,*,#660,.T.);
#853=ORIENTED_EDGE('',*,*,#662,.F.);
#854=ORIENTED_EDGE('',*,*,#664,.F.);
#855=ORIENTED_EDGE('',*,*,#643,.T.);
#856=ORIENTED_EDGE('',*,*,#647,.T.);
#857=ORIENTED_EDGE('',*,*,#652,.T.);
#858=ORIENTED_EDGE('',*,*,#665,.F.);
#859=ORIENTED_EDGE('',*,*,#654,.T.);
#860=ORIENTED_EDGE('',*,*,#658,.T.);
#861=ORIENTED_EDGE('',*,*,#663,.T.);
#862=ORIENTED_EDGE('',*,*,#666,.F.);
#863=ORIENTED_EDGE('',*,*,#667,.F.);
#864=ORIENTED_EDGE('',*,*,#668,.F.);
#865=ORIENTED_EDGE('',*,*,#669,.T.);
#866=ORIENTED_EDGE('',*,*,#633,.F.);
#867=ORIENTED_EDGE('',*,*,#604,.F.);
#868=ORIENTED_EDGE('',*,*,#670,.F.);
#869=ORIENTED_EDGE('',*,*,#601,.F.);
#870=ORIENTED_EDGE('',*,*,#671,.T.);
#871=ORIENTED_EDGE('',*,*,#672,.F.);
#872=ORIENTED_EDGE('',*,*,#673,.F.);
#873=ORIENTED_EDGE('',*,*,#674,.F.);
#874=ORIENTED_EDGE('',*,*,#675,.T.);
#875=ORIENTED_EDGE('',*,*,#676,.F.);
#876=ORIENTED_EDGE('',*,*,#675,.F.);
#877=ORIENTED_EDGE('',*,*,#677,.F.);
#878=ORIENTED_EDGE('',*,*,#678,.F.);
#879=ORIENTED_EDGE('',*,*,#671,.F.);
#880=ORIENTED_EDGE('',*,*,#676,.T.);
#881=ORIENTED_EDGE('',*,*,#679,.F.);
#882=ORIENTED_EDGE('',*,*,#680,.T.);
#883=ORIENTED_EDGE('',*,*,#681,.F.);
#884=ORIENTED_EDGE('',*,*,#680,.F.);
#885=ORIENTED_EDGE('',*,*,#681,.T.);
#886=ORIENTED_EDGE('',*,*,#682,.F.);
#887=ORIENTED_EDGE('',*,*,#683,.F.);
#888=ORIENTED_EDGE('',*,*,#684,.T.);
#889=ORIENTED_EDGE('',*,*,#685,.F.);
#890=ORIENTED_EDGE('',*,*,#684,.F.);
#891=ORIENTED_EDGE('',*,*,#686,.F.);
#892=ORIENTED_EDGE('',*,*,#685,.T.);
#893=ORIENTED_EDGE('',*,*,#687,.T.);
#894=ORIENTED_EDGE('',*,*,#688,.F.);
#895=ORIENTED_EDGE('',*,*,#687,.F.);
#896=ORIENTED_EDGE('',*,*,#689,.F.);
#897=ORIENTED_EDGE('',*,*,#690,.F.);
#898=ORIENTED_EDGE('',*,*,#691,.T.);
#899=ORIENTED_EDGE('',*,*,#692,.F.);
#900=ORIENTED_EDGE('',*,*,#691,.F.);
#901=ORIENTED_EDGE('',*,*,#693,.F.);
#902=ORIENTED_EDGE('',*,*,#692,.T.);
#903=ORIENTED_EDGE('',*,*,#694,.T.);
#904=ORIENTED_EDGE('',*,*,#695,.F.);
#905=ORIENTED_EDGE('',*,*,#694,.F.);
#906=ORIENTED_EDGE('',*,*,#696,.F.);
#907=ORIENTED_EDGE('',*,*,#697,.T.);
#908=ORIENTED_EDGE('',*,*,#698,.F.);
#909=ORIENTED_EDGE('',*,*,#697,.F.);
#910=ORIENTED_EDGE('',*,*,#698,.T.);
#911=ORIENTED_EDGE('',*,*,#699,.T.);
#912=ORIENTED_EDGE('',*,*,#700,.F.);
#913=ORIENTED_EDGE('',*,*,#699,.F.);
#914=ORIENTED_EDGE('',*,*,#701,.F.);
#915=ORIENTED_EDGE('',*,*,#702,.T.);
#916=ORIENTED_EDGE('',*,*,#703,.F.);
#917=ORIENTED_EDGE('',*,*,#702,.F.);
#918=ORIENTED_EDGE('',*,*,#703,.T.);
#919=ORIENTED_EDGE('',*,*,#704,.T.);
#920=ORIENTED_EDGE('',*,*,#705,.F.);
#921=ORIENTED_EDGE('',*,*,#704,.F.);
#922=ORIENTED_EDGE('',*,*,#706,.F.);
#923=ORIENTED_EDGE('',*,*,#707,.T.);
#924=ORIENTED_EDGE('',*,*,#708,.F.);
#925=ORIENTED_EDGE('',*,*,#707,.F.);
#926=ORIENTED_EDGE('',*,*,#708,.T.);
#927=ORIENTED_EDGE('',*,*,#709,.T.);
#928=ORIENTED_EDGE('',*,*,#710,.F.);
#929=ORIENTED_EDGE('',*,*,#709,.F.);
#930=ORIENTED_EDGE('',*,*,#711,.F.);
#931=ORIENTED_EDGE('',*,*,#712,.F.);
#932=ORIENTED_EDGE('',*,*,#713,.F.);
#933=ORIENTED_EDGE('',*,*,#714,.T.);
#934=ORIENTED_EDGE('',*,*,#715,.F.);
#935=ORIENTED_EDGE('',*,*,#714,.F.);
#936=ORIENTED_EDGE('',*,*,#715,.T.);
#937=ORIENTED_EDGE('',*,*,#716,.T.);
#938=ORIENTED_EDGE('',*,*,#717,.F.);
#939=ORIENTED_EDGE('',*,*,#716,.F.);
#940=ORIENTED_EDGE('',*,*,#690,.T.);
#941=ORIENTED_EDGE('',*,*,#614,.T.);
#942=ORIENTED_EDGE('',*,*,#718,.T.);
#943=ORIENTED_EDGE('',*,*,#693,.T.);
#944=ORIENTED_EDGE('',*,*,#719,.T.);
#945=ORIENTED_EDGE('',*,*,#720,.T.);
#946=ORIENTED_EDGE('',*,*,#682,.T.);
#947=ORIENTED_EDGE('',*,*,#721,.T.);
#948=ORIENTED_EDGE('',*,*,#623,.F.);
#949=ORIENTED_EDGE('',*,*,#627,.T.);
#950=ORIENTED_EDGE('',*,*,#606,.T.);
#951=ORIENTED_EDGE('',*,*,#616,.T.);
#952=ORIENTED_EDGE('',*,*,#686,.T.);
#953=ORIENTED_EDGE('',*,*,#683,.T.);
#954=ORIENTED_EDGE('',*,*,#615,.T.);
#955=ORIENTED_EDGE('',*,*,#689,.T.);
#956=ORIENTED_EDGE('',*,*,#722,.T.);
#957=ORIENTED_EDGE('',*,*,#711,.T.);
#958=ORIENTED_EDGE('',*,*,#713,.T.);
#959=ORIENTED_EDGE('',*,*,#723,.F.);
#960=ORIENTED_EDGE('',*,*,#602,.F.);
#961=ORIENTED_EDGE('',*,*,#595,.F.);
#962=ORIENTED_EDGE('',*,*,#724,.F.);
#963=ORIENTED_EDGE('',*,*,#725,.T.);
#964=ORIENTED_EDGE('',*,*,#726,.F.);
#965=ORIENTED_EDGE('',*,*,#727,.F.);
#966=ORIENTED_EDGE('',*,*,#728,.T.);
#967=ORIENTED_EDGE('',*,*,#729,.T.);
#968=ORIENTED_EDGE('',*,*,#728,.F.);
#969=ORIENTED_EDGE('',*,*,#729,.F.);
#970=ORIENTED_EDGE('',*,*,#730,.F.);
#971=ORIENTED_EDGE('',*,*,#731,.T.);
#972=ORIENTED_EDGE('',*,*,#732,.T.);
#973=ORIENTED_EDGE('',*,*,#731,.F.);
#974=ORIENTED_EDGE('',*,*,#732,.F.);
#975=ORIENTED_EDGE('',*,*,#733,.F.);
#976=ORIENTED_EDGE('',*,*,#734,.T.);
#977=ORIENTED_EDGE('',*,*,#622,.F.);
#978=ORIENTED_EDGE('',*,*,#734,.F.);
#979=ORIENTED_EDGE('',*,*,#735,.F.);
#980=ORIENTED_EDGE('',*,*,#736,.T.);
#981=ORIENTED_EDGE('',*,*,#636,.F.);
#982=ORIENTED_EDGE('',*,*,#736,.F.);
#983=ORIENTED_EDGE('',*,*,#737,.F.);
#984=ORIENTED_EDGE('',*,*,#738,.T.);
#985=ORIENTED_EDGE('',*,*,#673,.T.);
#986=ORIENTED_EDGE('',*,*,#739,.T.);
#987=ORIENTED_EDGE('',*,*,#635,.F.);
#988=ORIENTED_EDGE('',*,*,#739,.F.);
#989=ORIENTED_EDGE('',*,*,#672,.T.);
#990=ORIENTED_EDGE('',*,*,#678,.T.);
#991=ORIENTED_EDGE('',*,*,#677,.T.);
#992=ORIENTED_EDGE('',*,*,#674,.T.);
#993=ORIENTED_EDGE('',*,*,#738,.F.);
#994=ORIENTED_EDGE('',*,*,#644,.T.);
#995=ORIENTED_EDGE('',*,*,#670,.T.);
#996=ORIENTED_EDGE('',*,*,#603,.T.);
#997=ORIENTED_EDGE('',*,*,#723,.T.);
#998=ORIENTED_EDGE('',*,*,#712,.T.);
#999=ORIENTED_EDGE('',*,*,#726,.T.);
#1000=ORIENTED_EDGE('',*,*,#740,.T.);
#1001=ORIENTED_EDGE('',*,*,#666,.T.);
#1002=ORIENTED_EDGE('',*,*,#664,.T.);
#1003=ORIENTED_EDGE('',*,*,#661,.T.);
#1004=ORIENTED_EDGE('',*,*,#655,.T.);
#1005=ORIENTED_EDGE('',*,*,#665,.T.);
#1006=ORIENTED_EDGE('',*,*,#653,.T.);
#1007=ORIENTED_EDGE('',*,*,#650,.T.);
#1008=ORIENTED_EDGE('',*,*,#696,.T.);
#1009=ORIENTED_EDGE('',*,*,#701,.T.);
#1010=ORIENTED_EDGE('',*,*,#706,.T.);
#1011=ORIENTED_EDGE('',*,*,#741,.T.);
#1012=ORIENTED_EDGE('',*,*,#741,.F.);
#1013=ORIENTED_EDGE('',*,*,#742,.T.);
#1014=ORIENTED_EDGE('',*,*,#743,.F.);
#1015=ORIENTED_EDGE('',*,*,#742,.F.);
#1016=ORIENTED_EDGE('',*,*,#744,.F.);
#1017=ORIENTED_EDGE('',*,*,#611,.T.);
#1018=ORIENTED_EDGE('',*,*,#621,.F.);
#1019=ORIENTED_EDGE('',*,*,#745,.F.);
#1020=ORIENTED_EDGE('',*,*,#679,.T.);
#1021=ORIENTED_EDGE('',*,*,#746,.F.);
#1022=ORIENTED_EDGE('',*,*,#745,.T.);
#1023=ORIENTED_EDGE('',*,*,#620,.F.);
#1024=ORIENTED_EDGE('',*,*,#747,.F.);
#1025=ORIENTED_EDGE('',*,*,#748,.F.);
#1026=ORIENTED_EDGE('',*,*,#747,.T.);
#1027=ORIENTED_EDGE('',*,*,#619,.F.);
#1028=ORIENTED_EDGE('',*,*,#749,.F.);
#1029=ORIENTED_EDGE('',*,*,#750,.F.);
#1030=ORIENTED_EDGE('',*,*,#749,.T.);
#1031=ORIENTED_EDGE('',*,*,#618,.F.);
#1032=ORIENTED_EDGE('',*,*,#631,.F.);
#1033=ORIENTED_EDGE('',*,*,#751,.F.);
#1034=ORIENTED_EDGE('',*,*,#629,.T.);
#1035=ORIENTED_EDGE('',*,*,#634,.F.);
#1036=ORIENTED_EDGE('',*,*,#669,.F.);
#1037=ORIENTED_EDGE('',*,*,#752,.F.);
#1038=ORIENTED_EDGE('',*,*,#667,.T.);
#1039=ORIENTED_EDGE('',*,*,#740,.F.);
#1040=ORIENTED_EDGE('',*,*,#725,.F.);
#1041=ORIENTED_EDGE('',*,*,#624,.F.);
#1042=ORIENTED_EDGE('',*,*,#721,.F.);
#1043=ORIENTED_EDGE('',*,*,#722,.F.);
#1044=ORIENTED_EDGE('',*,*,#720,.F.);
#1045=ORIENTED_EDGE('',*,*,#753,.F.);
#1046=ORIENTED_EDGE('',*,*,#754,.F.);
#1047=ORIENTED_EDGE('',*,*,#599,.T.);
#1048=ORIENTED_EDGE('',*,*,#632,.F.);
#1049=ORIENTED_EDGE('',*,*,#755,.F.);
#1050=ORIENTED_EDGE('',*,*,#753,.T.);
#1051=ORIENTED_EDGE('',*,*,#719,.F.);
#1052=ORIENTED_EDGE('',*,*,#718,.F.);
#1053=ORIENTED_EDGE('',*,*,#613,.F.);
#1054=ORIENTED_EDGE('',*,*,#594,.F.);
#1055=ORIENTED_EDGE('',*,*,#600,.T.);
#1056=ORIENTED_EDGE('',*,*,#754,.T.);
#1057=ORIENTED_EDGE('',*,*,#755,.T.);
#1058=ORIENTED_EDGE('',*,*,#612,.T.);
#1059=ORIENTED_EDGE('',*,*,#744,.T.);
#1060=ORIENTED_EDGE('',*,*,#746,.T.);
#1061=ORIENTED_EDGE('',*,*,#748,.T.);
#1062=ORIENTED_EDGE('',*,*,#750,.T.);
#1063=ORIENTED_EDGE('',*,*,#630,.T.);
#1064=ORIENTED_EDGE('',*,*,#751,.T.);
#1065=ORIENTED_EDGE('',*,*,#668,.T.);
#1066=ORIENTED_EDGE('',*,*,#752,.T.);
#1067=ORIENTED_EDGE('',*,*,#724,.T.);
#1068=ORIENTED_EDGE('',*,*,#639,.T.);
#1069=ORIENTED_EDGE('',*,*,#642,.T.);
#1070=ORIENTED_EDGE('',*,*,#688,.T.);
#1071=ORIENTED_EDGE('',*,*,#695,.T.);
#1072=ORIENTED_EDGE('',*,*,#700,.T.);
#1073=ORIENTED_EDGE('',*,*,#705,.T.);
#1074=ORIENTED_EDGE('',*,*,#710,.T.);
#1075=ORIENTED_EDGE('',*,*,#717,.T.);
#1076=ORIENTED_EDGE('',*,*,#727,.T.);
#1077=ORIENTED_EDGE('',*,*,#730,.T.);
#1078=ORIENTED_EDGE('',*,*,#733,.T.);
#1079=ORIENTED_EDGE('',*,*,#735,.T.);
#1080=ORIENTED_EDGE('',*,*,#737,.T.);
#1081=ORIENTED_EDGE('',*,*,#743,.T.);
#1082=CYLINDRICAL_SURFACE('',#1185,1.);
#1083=CYLINDRICAL_SURFACE('',#1191,4.);
#1084=CYLINDRICAL_SURFACE('',#1197,4.);
#1085=CYLINDRICAL_SURFACE('',#1204,1.);
#1086=CYLINDRICAL_SURFACE('',#1207,1.);
#1087=CYLINDRICAL_SURFACE('',#1213,2.);
#1088=CYLINDRICAL_SURFACE('',#1219,2.);
#1089=CYLINDRICAL_SURFACE('',#1223,1.2295);
#1090=CYLINDRICAL_SURFACE('',#1226,1.2295);
#1091=CYLINDRICAL_SURFACE('',#1235,1.6);
#1092=CYLINDRICAL_SURFACE('',#1242,1.6);
#1093=CYLINDRICAL_SURFACE('',#1247,1.6);
#1094=CYLINDRICAL_SURFACE('',#1252,1.6);
#1095=CYLINDRICAL_SURFACE('',#1257,1.6);
#1096=CYLINDRICAL_SURFACE('',#1262,1.6);
#1097=CYLINDRICAL_SURFACE('',#1269,4.);
#1098=CYLINDRICAL_SURFACE('',#1273,1.25);
#1099=CYLINDRICAL_SURFACE('',#1277,0.7835);
#1100=CYLINDRICAL_SURFACE('',#1279,0.7835);
#1101=CYLINDRICAL_SURFACE('',#1281,0.7835);
#1102=CYLINDRICAL_SURFACE('',#1285,4.99999999999999);
#1103=ADVANCED_FACE('',(#85),#1082,.T.);
#1104=ADVANCED_FACE('',(#86,#28),#53,.T.);
#1105=ADVANCED_FACE('',(#87),#54,.T.);
#1106=ADVANCED_FACE('',(#88),#1083,.T.);
#1107=ADVANCED_FACE('',(#89),#55,.T.);
#1108=ADVANCED_FACE('',(#90,#29),#56,.F.);
#1109=ADVANCED_FACE('',(#91),#1084,.T.);
#1110=ADVANCED_FACE('',(#92),#57,.T.);
#1111=ADVANCED_FACE('',(#93,#30,#31),#58,.F.);
#1112=ADVANCED_FACE('',(#94),#1085,.F.);
#1113=ADVANCED_FACE('',(#95),#1086,.F.);
#1114=ADVANCED_FACE('',(#96),#59,.F.);
#1115=ADVANCED_FACE('',(#97,#32),#60,.T.);
#1116=ADVANCED_FACE('',(#98),#1087,.F.);
#1117=ADVANCED_FACE('',(#99),#61,.F.);
#1118=ADVANCED_FACE('',(#100),#62,.F.);
#1119=ADVANCED_FACE('',(#101,#33),#63,.T.);
#1120=ADVANCED_FACE('',(#102),#1088,.F.);
#1121=ADVANCED_FACE('',(#103),#64,.F.);
#1122=ADVANCED_FACE('',(#104),#65,.T.);
#1123=ADVANCED_FACE('',(#105),#1089,.F.);
#1124=ADVANCED_FACE('',(#106),#66,.T.);
#1125=ADVANCED_FACE('',(#107),#1090,.F.);
#1126=ADVANCED_FACE('',(#108),#67,.T.);
#1127=ADVANCED_FACE('',(#109),#17,.F.);
#1128=ADVANCED_FACE('',(#110),#1091,.F.);
#1129=ADVANCED_FACE('',(#111),#18,.F.);
#1130=ADVANCED_FACE('',(#112),#1092,.F.);
#1131=ADVANCED_FACE('',(#113),#19,.F.);
#1132=ADVANCED_FACE('',(#114),#1093,.F.);
#1133=ADVANCED_FACE('',(#115),#20,.F.);
#1134=ADVANCED_FACE('',(#116),#1094,.F.);
#1135=ADVANCED_FACE('',(#117),#21,.F.);
#1136=ADVANCED_FACE('',(#118),#1095,.F.);
#1137=ADVANCED_FACE('',(#119),#22,.F.);
#1138=ADVANCED_FACE('',(#120),#1096,.F.);
#1139=ADVANCED_FACE('',(#121),#68,.F.);
#1140=ADVANCED_FACE('',(#122),#69,.F.);
#1141=ADVANCED_FACE('',(#123),#70,.F.);
#1142=ADVANCED_FACE('',(#124),#71,.F.);
#1143=ADVANCED_FACE('',(#125),#72,.T.);
#1144=ADVANCED_FACE('',(#126),#1097,.F.);
#1145=ADVANCED_FACE('',(#127),#73,.T.);
#1146=ADVANCED_FACE('',(#128),#1098,.F.);
#1147=ADVANCED_FACE('',(#129),#74,.T.);
#1148=ADVANCED_FACE('',(#130),#1099,.F.);
#1149=ADVANCED_FACE('',(#131),#1100,.F.);
#1150=ADVANCED_FACE('',(#132),#1101,.F.);
#1151=ADVANCED_FACE('',(#133,#34,#35,#36,#37),#75,.F.);
#1152=ADVANCED_FACE('',(#134),#1102,.F.);
#1153=ADVANCED_FACE('',(#135,#38),#76,.T.);
#1154=ADVANCED_FACE('',(#136),#77,.T.);
#1155=ADVANCED_FACE('',(#137),#78,.T.);
#1156=ADVANCED_FACE('',(#138),#79,.T.);
#1157=ADVANCED_FACE('',(#139),#80,.T.);
#1158=ADVANCED_FACE('',(#140),#81,.T.);
#1159=ADVANCED_FACE('',(#141),#82,.T.);
#1160=ADVANCED_FACE('',(#142),#83,.T.);
#1161=ADVANCED_FACE('',(#143,#39,#40,#41,#42,#43,#44,#45,#46,#47,#48,#49,
#50,#51,#52),#84,.T.);
#1162=CLOSED_SHELL('',(#1103,#1104,#1105,#1106,#1107,#1108,#1109,#1110,
#1111,#1112,#1113,#1114,#1115,#1116,#1117,#1118,#1119,#1120,#1121,#1122,
#1123,#1124,#1125,#1126,#1127,#1128,#1129,#1130,#1131,#1132,#1133,#1134,
#1135,#1136,#1137,#1138,#1139,#1140,#1141,#1142,#1143,#1144,#1145,#1146,
#1147,#1148,#1149,#1150,#1151,#1152,#1153,#1154,#1155,#1156,#1157,#1158,
#1159,#1160,#1161));
#1163=DERIVED_UNIT_ELEMENT(#1166,1.);
#1164=DERIVED_UNIT_ELEMENT(#2030,-3.);
#1165=DIMENSIONAL_EXPONENTS(0.,1.,0.,0.,0.,0.,0.);
#1166=(
CONVERSION_BASED_UNIT('gram',#1168)
MASS_UNIT()
NAMED_UNIT(#1165)
);
#1167=(
MASS_UNIT()
NAMED_UNIT(*)
SI_UNIT(.KILO.,.GRAM.)
);
#1168=MASS_MEASURE_WITH_UNIT(MASS_MEASURE(0.001),#1167);
#1169=DERIVED_UNIT((#1163,#1164));
#1170=MEASURE_REPRESENTATION_ITEM('density measure',
POSITIVE_RATIO_MEASURE(1.13),#1169);
#1171=PROPERTY_DEFINITION_REPRESENTATION(#1176,#1173);
#1172=PROPERTY_DEFINITION_REPRESENTATION(#1177,#1174);
#1173=REPRESENTATION('material name',(#1175),#2027);
#1174=REPRESENTATION('density',(#1170),#2027);
#1175=DESCRIPTIVE_REPRESENTATION_ITEM('Nylon 6/6','Nylon 6/6');
#1176=PROPERTY_DEFINITION('material property','material name',#2037);
#1177=PROPERTY_DEFINITION('material property','density of part',#2037);
#1178=DATE_TIME_ROLE('creation_date');
#1179=APPLIED_DATE_AND_TIME_ASSIGNMENT(#1180,#1178,(#2037));
#1180=DATE_AND_TIME(#1181,#1182);
#1181=CALENDAR_DATE(2026,13,4);
#1182=LOCAL_TIME(0,0,0.,#1183);
#1183=COORDINATED_UNIVERSAL_TIME_OFFSET(0,0,.BEHIND.);
#1184=AXIS2_PLACEMENT_3D('',#1624,#1296,#1297);
#1185=AXIS2_PLACEMENT_3D('',#1625,#1298,#1299);
#1186=AXIS2_PLACEMENT_3D('',#1628,#1300,#1301);
#1187=AXIS2_PLACEMENT_3D('',#1632,#1303,#1304);
#1188=AXIS2_PLACEMENT_3D('',#1634,#1306,#1307);
#1189=AXIS2_PLACEMENT_3D('',#1643,#1312,#1313);
#1190=AXIS2_PLACEMENT_3D('',#1644,#1314,#1315);
#1191=AXIS2_PLACEMENT_3D('',#1652,#1320,#1321);
#1192=AXIS2_PLACEMENT_3D('',#1655,#1322,#1323);
#1193=AXIS2_PLACEMENT_3D('',#1659,#1325,#1326);
#1194=AXIS2_PLACEMENT_3D('',#1661,#1328,#1329);
#1195=AXIS2_PLACEMENT_3D('',#1675,#1337,#1338);
#1196=AXIS2_PLACEMENT_3D('',#1686,#1344,#1345);
#1197=AXIS2_PLACEMENT_3D('',#1687,#1346,#1347);
#1198=AXIS2_PLACEMENT_3D('',#1690,#1348,#1349);
#1199=AXIS2_PLACEMENT_3D('',#1694,#1351,#1352);
#1200=AXIS2_PLACEMENT_3D('',#1696,#1354,#1355);
#1201=AXIS2_PLACEMENT_3D('',#1705,#1361,#1362);
#1202=AXIS2_PLACEMENT_3D('',#1711,#1366,#1367);
#1203=AXIS2_PLACEMENT_3D('',#1713,#1368,#1369);
#1204=AXIS2_PLACEMENT_3D('',#1714,#1370,#1371);
#1205=AXIS2_PLACEMENT_3D('',#1716,#1372,#1373);
#1206=AXIS2_PLACEMENT_3D('',#1719,#1375,#1376);
#1207=AXIS2_PLACEMENT_3D('',#1720,#1377,#1378);
#1208=AXIS2_PLACEMENT_3D('',#1722,#1379,#1380);
#1209=AXIS2_PLACEMENT_3D('',#1725,#1382,#1383);
#1210=AXIS2_PLACEMENT_3D('',#1726,#1384,#1385);
#1211=AXIS2_PLACEMENT_3D('',#1735,#1390,#1391);
#1212=AXIS2_PLACEMENT_3D('',#1739,#1393,#1394);
#1213=AXIS2_PLACEMENT_3D('',#1741,#1396,#1397);
#1214=AXIS2_PLACEMENT_3D('',#1743,#1398,#1399);
#1215=AXIS2_PLACEMENT_3D('',#1745,#1401,#1402);
#1216=AXIS2_PLACEMENT_3D('',#1749,#1405,#1406);
#1217=AXIS2_PLACEMENT_3D('',#1758,#1411,#1412);
#1218=AXIS2_PLACEMENT_3D('',#1762,#1414,#1415);
#1219=AXIS2_PLACEMENT_3D('',#1764,#1417,#1418);
#1220=AXIS2_PLACEMENT_3D('',#1766,#1419,#1420);
#1221=AXIS2_PLACEMENT_3D('',#1768,#1422,#1423);
#1222=AXIS2_PLACEMENT_3D('',#1772,#1426,#1427);
#1223=AXIS2_PLACEMENT_3D('',#1782,#1434,#1435);
#1224=AXIS2_PLACEMENT_3D('',#1852,#1438,#1439);
#1225=AXIS2_PLACEMENT_3D('',#1866,#1440,#1441);
#1226=AXIS2_PLACEMENT_3D('',#1867,#1442,#1443);
#1227=AXIS2_PLACEMENT_3D('',#1869,#1444,#1445);
#1228=AXIS2_PLACEMENT_3D('',#1872,#1447,#1448);
#1229=AXIS2_PLACEMENT_3D('',#1873,#1449,#1450);
#1230=AXIS2_PLACEMENT_3D('',#1874,#1451,#1452);
#1231=AXIS2_PLACEMENT_3D('',#1876,#1453,#1454);
#1232=AXIS2_PLACEMENT_3D('',#1878,#1455,#1456);
#1233=AXIS2_PLACEMENT_3D('',#1881,#1458,#1459);
#1234=AXIS2_PLACEMENT_3D('',#1882,#1460,#1461);
#1235=AXIS2_PLACEMENT_3D('',#1883,#1462,#1463);
#1236=AXIS2_PLACEMENT_3D('',#1886,#1465,#1466);
#1237=AXIS2_PLACEMENT_3D('',#1887,#1467,#1468);
#1238=AXIS2_PLACEMENT_3D('',#1889,#1469,#1470);
#1239=AXIS2_PLACEMENT_3D('',#1891,#1471,#1472);
#1240=AXIS2_PLACEMENT_3D('',#1894,#1474,#1475);
#1241=AXIS2_PLACEMENT_3D('',#1895,#1476,#1477);
#1242=AXIS2_PLACEMENT_3D('',#1896,#1478,#1479);
#1243=AXIS2_PLACEMENT_3D('',#1899,#1481,#1482);
#1244=AXIS2_PLACEMENT_3D('',#1900,#1483,#1484);
#1245=AXIS2_PLACEMENT_3D('',#1902,#1485,#1486);
#1246=AXIS2_PLACEMENT_3D('',#1905,#1488,#1489);
#1247=AXIS2_PLACEMENT_3D('',#1906,#1490,#1491);
#1248=AXIS2_PLACEMENT_3D('',#1909,#1493,#1494);
#1249=AXIS2_PLACEMENT_3D('',#1910,#1495,#1496);
#1250=AXIS2_PLACEMENT_3D('',#1912,#1497,#1498);
#1251=AXIS2_PLACEMENT_3D('',#1915,#1500,#1501);
#1252=AXIS2_PLACEMENT_3D('',#1916,#1502,#1503);
#1253=AXIS2_PLACEMENT_3D('',#1919,#1505,#1506);
#1254=AXIS2_PLACEMENT_3D('',#1920,#1507,#1508);
#1255=AXIS2_PLACEMENT_3D('',#1922,#1509,#1510);
#1256=AXIS2_PLACEMENT_3D('',#1925,#1512,#1513);
#1257=AXIS2_PLACEMENT_3D('',#1926,#1514,#1515);
#1258=AXIS2_PLACEMENT_3D('',#1929,#1517,#1518);
#1259=AXIS2_PLACEMENT_3D('',#1930,#1519,#1520);
#1260=AXIS2_PLACEMENT_3D('',#1937,#1521,#1522);
#1261=AXIS2_PLACEMENT_3D('',#1943,#1524,#1525);
#1262=AXIS2_PLACEMENT_3D('',#1944,#1526,#1527);
#1263=AXIS2_PLACEMENT_3D('',#1947,#1529,#1530);
#1264=AXIS2_PLACEMENT_3D('',#1948,#1531,#1532);
#1265=AXIS2_PLACEMENT_3D('',#1950,#1534,#1535);
#1266=AXIS2_PLACEMENT_3D('',#1954,#1538,#1539);
#1267=AXIS2_PLACEMENT_3D('',#1956,#1541,#1542);
#1268=AXIS2_PLACEMENT_3D('',#1958,#1544,#1545);
#1269=AXIS2_PLACEMENT_3D('',#1965,#1550,#1551);
#1270=AXIS2_PLACEMENT_3D('',#1967,#1552,#1553);
#1271=AXIS2_PLACEMENT_3D('',#1970,#1555,#1556);
#1272=AXIS2_PLACEMENT_3D('',#1971,#1557,#1558);
#1273=AXIS2_PLACEMENT_3D('',#1972,#1559,#1560);
#1274=AXIS2_PLACEMENT_3D('',#1974,#1561,#1562);
#1275=AXIS2_PLACEMENT_3D('',#1977,#1564,#1565);
#1276=AXIS2_PLACEMENT_3D('',#1978,#1566,#1567);
#1277=AXIS2_PLACEMENT_3D('',#1979,#1568,#1569);
#1278=AXIS2_PLACEMENT_3D('',#1981,#1570,#1571);
#1279=AXIS2_PLACEMENT_3D('',#1983,#1573,#1574);
#1280=AXIS2_PLACEMENT_3D('',#1985,#1575,#1576);
#1281=AXIS2_PLACEMENT_3D('',#1987,#1578,#1579);
#1282=AXIS2_PLACEMENT_3D('',#1989,#1580,#1581);
#1283=AXIS2_PLACEMENT_3D('',#1992,#1584,#1585);
#1284=AXIS2_PLACEMENT_3D('',#1995,#1587,#1588);
#1285=AXIS2_PLACEMENT_3D('',#1996,#1589,#1590);
#1286=AXIS2_PLACEMENT_3D('',#1999,#1592,#1593);
#1287=AXIS2_PLACEMENT_3D('',#2000,#1594,#1595);
#1288=AXIS2_PLACEMENT_3D('',#2004,#1598,#1599);
#1289=AXIS2_PLACEMENT_3D('',#2008,#1602,#1603);
#1290=AXIS2_PLACEMENT_3D('',#2012,#1606,#1607);
#1291=AXIS2_PLACEMENT_3D('',#2014,#1609,#1610);
#1292=AXIS2_PLACEMENT_3D('',#2016,#1612,#1613);
#1293=AXIS2_PLACEMENT_3D('',#2018,#1615,#1616);
#1294=AXIS2_PLACEMENT_3D('',#2022,#1619,#1620);
#1295=AXIS2_PLACEMENT_3D('',#2024,#1622,#1623);
#1296=DIRECTION('axis',(0.,0.,1.));
#1297=DIRECTION('refdir',(1.,0.,0.));
#1298=DIRECTION('center_axis',(1.,6.48305415839515E-16,0.));
#1299=DIRECTION('ref_axis',(0.,-0.707106781186548,0.707106781186547));
#1300=DIRECTION('center_axis',(-1.,-9.10952225333462E-16,0.));
#1301=DIRECTION('ref_axis',(0.,-0.707106781186548,0.707106781186547));
#1302=DIRECTION('',(-1.,-6.48305415839515E-16,0.));
#1303=DIRECTION('center_axis',(-1.,-1.91677716867866E-16,0.));
#1304=DIRECTION('ref_axis',(0.,-0.707106781186548,0.707106781186547));
#1305=DIRECTION('',(1.,6.48305415839515E-16,0.));
#1306=DIRECTION('center_axis',(1.,9.10952225333462E-16,0.));
#1307=DIRECTION('ref_axis',(9.10952225333462E-16,-1.,0.));
#1308=DIRECTION('',(0.,0.,-1.));
#1309=DIRECTION('',(9.10952225333462E-16,-1.,9.94155499758295E-15));
#1310=DIRECTION('',(0.,0.,-1.));
#1311=DIRECTION('',(-9.10952225333462E-16,1.,0.));
#1312=DIRECTION('center_axis',(-1.,-9.10952225333462E-16,0.));
#1313=DIRECTION('ref_axis',(0.,0.,-1.));
#1314=DIRECTION('center_axis',(6.48305415839515E-16,-1.,0.));
#1315=DIRECTION('ref_axis',(-1.,-6.48305415839515E-16,0.));
#1316=DIRECTION('',(0.,0.,-1.));
#1317=DIRECTION('',(1.,6.48305415839515E-16,0.));
#1318=DIRECTION('',(0.,0.,-1.));
#1319=DIRECTION('',(-1.,-6.48305415839515E-16,-5.67205992714189E-16));
#1320=DIRECTION('center_axis',(0.,0.,-1.));
#1321=DIRECTION('ref_axis',(5.55111512312578E-16,-1.,0.));
#1322=DIRECTION('center_axis',(0.,0.,1.));
#1323=DIRECTION('ref_axis',(5.55111512312578E-16,-1.,0.));
#1324=DIRECTION('',(0.,0.,-1.));
#1325=DIRECTION('center_axis',(-5.67205992714195E-16,9.94155499758295E-15,
1.));
#1326=DIRECTION('ref_axis',(5.55111512312578E-16,-1.,0.));
#1327=DIRECTION('',(0.,0.,1.));
#1328=DIRECTION('center_axis',(5.09991772782056E-16,-1.,0.));
#1329=DIRECTION('ref_axis',(-1.,-5.09991772782056E-16,0.));
#1330=DIRECTION('',(-1.,-6.27538571669878E-16,-5.67205992714189E-16));
#1331=DIRECTION('',(0.,0.,-1.));
#1332=DIRECTION('',(1.,5.09991772782056E-16,0.));
#1333=DIRECTION('',(0.,0.,-1.));
#1334=DIRECTION('',(1.,6.27538571669878E-16,0.));
#1335=DIRECTION('',(1.,6.27538571669878E-16,0.));
#1336=DIRECTION('',(1.,6.27538571669878E-16,0.));
#1337=DIRECTION('center_axis',(-5.67205992714195E-16,9.94155499758295E-15,
1.));
#1338=DIRECTION('ref_axis',(1.,0.,5.67205992714195E-16));
#1339=DIRECTION('',(8.92678254832479E-15,1.,-9.94155499758295E-15));
#1340=DIRECTION('',(-1.,-5.55111512312991E-16,-5.67205992714189E-16));
#1341=DIRECTION('',(-1.68631895114094E-16,1.,-9.94155499758295E-15));
#1342=DIRECTION('',(1.,2.44929359829471E-16,5.67205992714193E-16));
#1343=DIRECTION('',(9.10952225333462E-16,-1.,9.94155499758295E-15));
#1344=DIRECTION('center_axis',(-5.67205992714195E-16,9.94155499758295E-15,
1.));
#1345=DIRECTION('ref_axis',(1.,0.,0.));
#1346=DIRECTION('center_axis',(0.,0.,-1.));
#1347=DIRECTION('ref_axis',(-1.,8.88178419700125E-15,0.));
#1348=DIRECTION('center_axis',(0.,0.,1.));
#1349=DIRECTION('ref_axis',(-1.,8.88178419700125E-15,0.));
#1350=DIRECTION('',(0.,0.,-1.));
#1351=DIRECTION('center_axis',(-5.67205992714195E-16,9.94155499758295E-15,
1.));
#1352=DIRECTION('ref_axis',(-1.,8.88178419700125E-15,0.));
#1353=DIRECTION('',(0.,0.,1.));
#1354=DIRECTION('center_axis',(-1.,8.92678254832479E-15,0.));
#1355=DIRECTION('ref_axis',(8.92678254832479E-15,1.,0.));
#1356=DIRECTION('',(8.92678254832479E-15,1.,0.));
#1357=DIRECTION('',(-1.37506978606578E-16,1.,-9.94155499758295E-15));
#1358=DIRECTION('',(0.,0.,-1.));
#1359=DIRECTION('',(-8.92678254832479E-15,-1.,0.));
#1360=DIRECTION('',(0.,0.,-1.));
#1361=DIRECTION('center_axis',(-5.67205992714195E-16,9.94155499758295E-15,
1.));
#1362=DIRECTION('ref_axis',(1.,0.,5.67205992714195E-16));
#1363=DIRECTION('',(1.,7.13396321044263E-16,5.67205992714188E-16));
#1364=DIRECTION('',(-1.68631895114094E-16,1.,-9.94155499758295E-15));
#1365=DIRECTION('',(1.,0.,5.67205992714195E-16));
#1366=DIRECTION('center_axis',(-5.67205992714195E-16,9.94155499758295E-15,
1.));
#1367=DIRECTION('ref_axis',(1.,0.,0.));
#1368=DIRECTION('center_axis',(-5.67205992714195E-16,9.94155499758295E-15,
1.));
#1369=DIRECTION('ref_axis',(1.,0.,0.));
#1370=DIRECTION('center_axis',(0.,0.,-1.));
#1371=DIRECTION('ref_axis',(-1.,0.,0.));
#1372=DIRECTION('center_axis',(0.,0.,1.));
#1373=DIRECTION('ref_axis',(-1.,0.,0.));
#1374=DIRECTION('',(0.,0.,1.));
#1375=DIRECTION('center_axis',(0.,0.,-1.));
#1376=DIRECTION('ref_axis',(-1.,0.,0.));
#1377=DIRECTION('center_axis',(0.,0.,-1.));
#1378=DIRECTION('ref_axis',(-1.,0.,0.));
#1379=DIRECTION('center_axis',(0.,0.,1.));
#1380=DIRECTION('ref_axis',(-1.,0.,0.));
#1381=DIRECTION('',(0.,0.,1.));
#1382=DIRECTION('center_axis',(0.,0.,-1.));
#1383=DIRECTION('ref_axis',(-1.,0.,0.));
#1384=DIRECTION('center_axis',(0.,1.,0.));
#1385=DIRECTION('ref_axis',(-1.,0.,0.));
#1386=DIRECTION('',(0.,0.,1.));
#1387=DIRECTION('',(-1.,0.,0.));
#1388=DIRECTION('',(0.,0.,1.));
#1389=DIRECTION('',(-1.,0.,0.));
#1390=DIRECTION('center_axis',(0.,0.,-1.));
#1391=DIRECTION('ref_axis',(-1.,0.,0.));
#1392=DIRECTION('',(1.68631895114094E-16,-1.,0.));
#1393=DIRECTION('center_axis',(0.,0.,1.));
#1394=DIRECTION('ref_axis',(-1.,0.,0.));
#1395=DIRECTION('',(1.,0.,0.));
#1396=DIRECTION('center_axis',(0.,0.,1.));
#1397=DIRECTION('ref_axis',(1.,-1.22464679914735E-16,0.));
#1398=DIRECTION('center_axis',(0.,0.,1.));
#1399=DIRECTION('ref_axis',(-1.,0.,0.));
#1400=DIRECTION('',(0.,0.,1.));
#1401=DIRECTION('center_axis',(0.,-1.,0.));
#1402=DIRECTION('ref_axis',(1.,0.,0.));
#1403=DIRECTION('',(0.,0.,-1.));
#1404=DIRECTION('',(1.,0.,0.));
#1405=DIRECTION('center_axis',(0.,1.,0.));
#1406=DIRECTION('ref_axis',(-1.,0.,0.));
#1407=DIRECTION('',(0.,0.,1.));
#1408=DIRECTION('',(-1.,0.,0.));
#1409=DIRECTION('',(0.,0.,1.));
#1410=DIRECTION('',(-1.,0.,0.));
#1411=DIRECTION('center_axis',(0.,0.,-1.));
#1412=DIRECTION('ref_axis',(-1.,0.,0.));
#1413=DIRECTION('',(1.68631895114094E-16,-1.,0.));
#1414=DIRECTION('center_axis',(0.,0.,1.));
#1415=DIRECTION('ref_axis',(-1.,0.,0.));
#1416=DIRECTION('',(1.,0.,0.));
#1417=DIRECTION('center_axis',(0.,0.,1.));
#1418=DIRECTION('ref_axis',(0.999898823963866,0.0142246910574004,0.));
#1419=DIRECTION('center_axis',(0.,0.,1.));
#1420=DIRECTION('ref_axis',(-1.,0.,0.));
#1421=DIRECTION('',(0.,0.,1.));
#1422=DIRECTION('center_axis',(0.,-1.,0.));
#1423=DIRECTION('ref_axis',(1.,0.,0.));
#1424=DIRECTION('',(0.,0.,-1.));
#1425=DIRECTION('',(1.,0.,0.));
#1426=DIRECTION('center_axis',(-1.,-1.68631895114094E-16,0.));
#1427=DIRECTION('ref_axis',(-1.68631895114094E-16,1.,0.));
#1428=DIRECTION('',(-1.68631895114094E-16,1.,0.));
#1429=DIRECTION('',(-1.68631895114094E-16,1.,0.));
#1430=DIRECTION('',(0.,0.,-1.));
#1431=DIRECTION('',(1.68631895114094E-16,-1.,0.));
#1432=DIRECTION('',(0.,0.,-1.));
#1433=DIRECTION('',(-1.68631895114094E-16,1.,0.));
#1434=DIRECTION('center_axis',(1.,9.10952225333462E-16,0.));
#1435=DIRECTION('ref_axis',(0.,0.,-1.));
#1436=DIRECTION('',(-1.,-9.10952225333462E-16,0.));
#1437=DIRECTION('',(-1.,-9.10952225333462E-16,0.));
#1438=DIRECTION('center_axis',(1.,9.10952225333462E-16,0.));
#1439=DIRECTION('ref_axis',(0.,0.,-1.));
#1440=DIRECTION('center_axis',(1.,9.10952225333462E-16,0.));
#1441=DIRECTION('ref_axis',(0.,0.,-1.));
#1442=DIRECTION('center_axis',(1.,9.10952225333462E-16,0.));
#1443=DIRECTION('ref_axis',(0.,0.,-1.));
#1444=DIRECTION('center_axis',(-1.,-9.10952225333462E-16,0.));
#1445=DIRECTION('ref_axis',(0.,0.,-1.));
#1446=DIRECTION('',(-1.,-9.10952225333462E-16,0.));
#1447=DIRECTION('center_axis',(1.,9.10952225333462E-16,0.));
#1448=DIRECTION('ref_axis',(0.,0.,-1.));
#1449=DIRECTION('center_axis',(1.,9.10952225333462E-16,0.));
#1450=DIRECTION('ref_axis',(0.,0.,-1.));
#1451=DIRECTION('center_axis',(0.,0.,-1.));
#1452=DIRECTION('ref_axis',(-1.,0.,0.));
#1453=DIRECTION('center_axis',(0.,0.,1.));
#1454=DIRECTION('ref_axis',(-1.,0.,0.));
#1455=DIRECTION('center_axis',(0.,0.,1.));
#1456=DIRECTION('ref_axis',(-1.,0.,0.));
#1457=DIRECTION('',(-0.707106781186548,8.65956056235493E-17,0.707106781186548));
#1458=DIRECTION('center_axis',(0.,0.,-1.));
#1459=DIRECTION('ref_axis',(-1.,0.,0.));
#1460=DIRECTION('center_axis',(0.,0.,1.));
#1461=DIRECTION('ref_axis',(-1.,0.,0.));
#1462=DIRECTION('center_axis',(0.,0.,-1.));
#1463=DIRECTION('ref_axis',(-1.,0.,0.));
#1464=DIRECTION('',(0.,0.,1.));
#1465=DIRECTION('center_axis',(0.,0.,-1.));
#1466=DIRECTION('ref_axis',(-1.,0.,0.));
#1467=DIRECTION('center_axis',(0.,0.,-1.));
#1468=DIRECTION('ref_axis',(-1.,0.,0.));
#1469=DIRECTION('center_axis',(0.,0.,1.));
#1470=DIRECTION('ref_axis',(-1.,0.,0.));
#1471=DIRECTION('center_axis',(0.,0.,1.));
#1472=DIRECTION('ref_axis',(-1.,0.,0.));
#1473=DIRECTION('',(-0.707106781186548,8.65956056235493E-17,0.707106781186548));
#1474=DIRECTION('center_axis',(0.,0.,-1.));
#1475=DIRECTION('ref_axis',(-1.,0.,0.));
#1476=DIRECTION('center_axis',(0.,0.,1.));
#1477=DIRECTION('ref_axis',(-1.,0.,0.));
#1478=DIRECTION('center_axis',(0.,0.,-1.));
#1479=DIRECTION('ref_axis',(-1.,0.,0.));
#1480=DIRECTION('',(0.,0.,1.));
#1481=DIRECTION('center_axis',(0.,0.,-1.));
#1482=DIRECTION('ref_axis',(-1.,0.,0.));
#1483=DIRECTION('center_axis',(0.,0.,-1.));
#1484=DIRECTION('ref_axis',(-1.,0.,0.));
#1485=DIRECTION('center_axis',(0.,0.,1.));
#1486=DIRECTION('ref_axis',(-1.,0.,0.));
#1487=DIRECTION('',(-0.707106781186548,8.65956056235493E-17,0.707106781186548));
#1488=DIRECTION('center_axis',(0.,0.,-1.));
#1489=DIRECTION('ref_axis',(-1.,0.,0.));
#1490=DIRECTION('center_axis',(0.,0.,-1.));
#1491=DIRECTION('ref_axis',(-1.,0.,0.));
#1492=DIRECTION('',(0.,0.,1.));
#1493=DIRECTION('center_axis',(0.,0.,-1.));
#1494=DIRECTION('ref_axis',(-1.,0.,0.));
#1495=DIRECTION('center_axis',(0.,0.,-1.));
#1496=DIRECTION('ref_axis',(-1.,0.,0.));
#1497=DIRECTION('center_axis',(0.,0.,1.));
#1498=DIRECTION('ref_axis',(-1.,0.,0.));
#1499=DIRECTION('',(-0.707106781186548,8.65956056235493E-17,0.707106781186548));
#1500=DIRECTION('center_axis',(0.,0.,-1.));
#1501=DIRECTION('ref_axis',(-1.,0.,0.));
#1502=DIRECTION('center_axis',(0.,0.,-1.));
#1503=DIRECTION('ref_axis',(-1.,0.,0.));
#1504=DIRECTION('',(0.,0.,1.));
#1505=DIRECTION('center_axis',(0.,0.,-1.));
#1506=DIRECTION('ref_axis',(-1.,0.,0.));
#1507=DIRECTION('center_axis',(0.,0.,-1.));
#1508=DIRECTION('ref_axis',(-1.,0.,0.));
#1509=DIRECTION('center_axis',(0.,0.,1.));
#1510=DIRECTION('ref_axis',(-1.,0.,0.));
#1511=DIRECTION('',(-0.707106781186548,8.65956056235493E-17,0.707106781186548));
#1512=DIRECTION('center_axis',(0.,0.,-1.));
#1513=DIRECTION('ref_axis',(-1.,0.,0.));
#1514=DIRECTION('center_axis',(0.,0.,-1.));
#1515=DIRECTION('ref_axis',(-1.,0.,0.));
#1516=DIRECTION('',(0.,0.,1.));
#1517=DIRECTION('center_axis',(0.,0.,-1.));
#1518=DIRECTION('ref_axis',(-1.,0.,0.));
#1519=DIRECTION('center_axis',(0.,0.,-1.));
#1520=DIRECTION('ref_axis',(-1.,0.,0.));
#1521=DIRECTION('center_axis',(0.,0.,1.));
#1522=DIRECTION('ref_axis',(-1.,0.,0.));
#1523=DIRECTION('',(-0.707106781186548,8.65956056235493E-17,0.707106781186548));
#1524=DIRECTION('center_axis',(0.,0.,-1.));
#1525=DIRECTION('ref_axis',(-1.,0.,0.));
#1526=DIRECTION('center_axis',(0.,0.,-1.));
#1527=DIRECTION('ref_axis',(-1.,0.,0.));
#1528=DIRECTION('',(0.,0.,1.));
#1529=DIRECTION('center_axis',(0.,0.,-1.));
#1530=DIRECTION('ref_axis',(-1.,0.,0.));
#1531=DIRECTION('center_axis',(0.,0.,1.));
#1532=DIRECTION('ref_axis',(1.,0.,0.));
#1533=DIRECTION('',(1.36642833800019E-15,-1.,0.));
#1534=DIRECTION('center_axis',(0.,0.,1.));
#1535=DIRECTION('ref_axis',(1.,0.,0.));
#1536=DIRECTION('',(1.36642833800019E-15,-1.,0.));
#1537=DIRECTION('',(-1.,-7.13396321044263E-16,0.));
#1538=DIRECTION('center_axis',(0.,0.,1.));
#1539=DIRECTION('ref_axis',(1.,0.,0.));
#1540=DIRECTION('',(-1.,-7.13396321044263E-16,0.));
#1541=DIRECTION('center_axis',(0.,0.,1.));
#1542=DIRECTION('ref_axis',(1.,0.,0.));
#1543=DIRECTION('',(-1.,-7.13396321044263E-16,0.));
#1544=DIRECTION('center_axis',(1.,1.91677716867866E-16,0.));
#1545=DIRECTION('ref_axis',(1.91677716867866E-16,-1.,0.));
#1546=DIRECTION('',(1.91677716867866E-16,-1.,0.));
#1547=DIRECTION('',(-1.91677716867866E-16,1.,0.));
#1548=DIRECTION('',(0.,0.,-1.));
#1549=DIRECTION('',(1.91677716867866E-16,-1.,0.));
#1550=DIRECTION('center_axis',(0.,0.,-1.));
#1551=DIRECTION('ref_axis',(1.,0.,0.));
#1552=DIRECTION('center_axis',(0.,0.,-1.));
#1553=DIRECTION('ref_axis',(1.,0.,0.));
#1554=DIRECTION('',(0.,0.,-1.));
#1555=DIRECTION('center_axis',(0.,0.,-1.));
#1556=DIRECTION('ref_axis',(1.,0.,0.));
#1557=DIRECTION('center_axis',(0.,0.,1.));
#1558=DIRECTION('ref_axis',(1.,0.,0.));
#1559=DIRECTION('center_axis',(0.,0.,-1.));
#1560=DIRECTION('ref_axis',(1.,0.,0.));
#1561=DIRECTION('center_axis',(0.,0.,-1.));
#1562=DIRECTION('ref_axis',(1.,0.,0.));
#1563=DIRECTION('',(0.,0.,-1.));
#1564=DIRECTION('center_axis',(0.,0.,-1.));
#1565=DIRECTION('ref_axis',(1.,0.,0.));
#1566=DIRECTION('center_axis',(0.,0.,1.));
#1567=DIRECTION('ref_axis',(1.,0.,0.));
#1568=DIRECTION('center_axis',(0.,0.,1.));
#1569=DIRECTION('ref_axis',(1.,0.,0.));
#1570=DIRECTION('center_axis',(0.,0.,-1.));
#1571=DIRECTION('ref_axis',(1.,0.,0.));
#1572=DIRECTION('',(0.,0.,-1.));
#1573=DIRECTION('center_axis',(0.,0.,1.));
#1574=DIRECTION('ref_axis',(1.,0.,0.));
#1575=DIRECTION('center_axis',(0.,0.,-1.));
#1576=DIRECTION('ref_axis',(1.,0.,0.));
#1577=DIRECTION('',(0.,0.,-1.));
#1578=DIRECTION('center_axis',(0.,0.,1.));
#1579=DIRECTION('ref_axis',(1.,0.,0.));
#1580=DIRECTION('center_axis',(0.,0.,-1.));
#1581=DIRECTION('ref_axis',(1.,0.,0.));
#1582=DIRECTION('',(0.,0.,-1.));
#1583=DIRECTION('',(0.,0.,-1.));
#1584=DIRECTION('center_axis',(0.,0.,1.));
#1585=DIRECTION('ref_axis',(1.,0.,0.));
#1586=DIRECTION('',(-1.,0.,0.));
#1587=DIRECTION('center_axis',(0.,0.,1.));
#1588=DIRECTION('ref_axis',(-1.,0.,0.));
#1589=DIRECTION('center_axis',(0.,0.,-1.));
#1590=DIRECTION('ref_axis',(-1.,0.,0.));
#1591=DIRECTION('',(0.,0.,1.));
#1592=DIRECTION('center_axis',(0.,0.,-1.));
#1593=DIRECTION('ref_axis',(-1.,0.,0.));
#1594=DIRECTION('center_axis',(1.,9.10952225333462E-16,0.));
#1595=DIRECTION('ref_axis',(9.10952225333462E-16,-1.,0.));
#1596=DIRECTION('',(-9.10952225333462E-16,1.,0.));
#1597=DIRECTION('',(0.,0.,-1.));
#1598=DIRECTION('center_axis',(-2.44929359829471E-16,1.,0.));
#1599=DIRECTION('ref_axis',(1.,2.44929359829471E-16,0.));
#1600=DIRECTION('',(-1.,-2.44929359829471E-16,0.));
#1601=DIRECTION('',(0.,0.,-1.));
#1602=DIRECTION('center_axis',(-1.,-1.68631895114094E-16,0.));
#1603=DIRECTION('ref_axis',(-1.68631895114094E-16,1.,0.));
#1604=DIRECTION('',(1.68631895114094E-16,-1.,0.));
#1605=DIRECTION('',(0.,0.,-1.));
#1606=DIRECTION('center_axis',(5.55111512312991E-16,-1.,0.));
#1607=DIRECTION('ref_axis',(-1.,-5.55111512312991E-16,0.));
#1608=DIRECTION('',(1.,5.55111512312991E-16,0.));
#1609=DIRECTION('center_axis',(0.,1.,0.));
#1610=DIRECTION('ref_axis',(1.,0.,0.));
#1611=DIRECTION('',(-1.,0.,0.));
#1612=DIRECTION('center_axis',(0.,-1.,0.));
#1613=DIRECTION('ref_axis',(-1.,0.,0.));
#1614=DIRECTION('',(1.,0.,0.));
#1615=DIRECTION('center_axis',(-7.13396321044263E-16,1.,0.));
#1616=DIRECTION('ref_axis',(1.,7.13396321044263E-16,0.));
#1617=DIRECTION('',(0.,0.,-1.));
#1618=DIRECTION('',(-1.,-7.13396321044263E-16,0.));
#1619=DIRECTION('center_axis',(1.,1.36642833800019E-15,0.));
#1620=DIRECTION('ref_axis',(1.36642833800019E-15,-1.,0.));
#1621=DIRECTION('',(-1.36642833800019E-15,1.,0.));
#1622=DIRECTION('center_axis',(0.,0.,1.));
#1623=DIRECTION('ref_axis',(1.,0.,0.));
#1624=CARTESIAN_POINT('',(0.,0.,0.));
#1625=CARTESIAN_POINT('Origin',(20.5499999999998,-18.5,-1.));
#1626=CARTESIAN_POINT('',(27.3999999999997,-19.5,-1.));
#1627=CARTESIAN_POINT('',(27.3999999999997,-18.5,0.));
#1628=CARTESIAN_POINT('Origin',(27.3999999999997,-18.5,-1.));
#1629=CARTESIAN_POINT('',(23.0999999999997,-18.5,0.));
#1630=CARTESIAN_POINT('',(20.5499999999998,-18.5,0.));
#1631=CARTESIAN_POINT('',(23.0999999999997,-19.5,-1.));
#1632=CARTESIAN_POINT('Origin',(23.0999999999997,-18.5,-1.));
#1633=CARTESIAN_POINT('',(20.5499999999998,-19.5,-1.));
#1634=CARTESIAN_POINT('Origin',(27.3999999999997,-13.,0.));
#1635=CARTESIAN_POINT('',(27.3999999999997,-19.5,-7.70000000002858));
#1636=CARTESIAN_POINT('',(27.3999999999997,-19.5,0.));
#1637=CARTESIAN_POINT('',(27.3999999999997,-13.,-7.70000000002865));
#1638=CARTESIAN_POINT('',(27.3999999999997,-11.375,-7.70000000002866));
#1639=CARTESIAN_POINT('',(27.3999999999997,-13.,0.));
#1640=CARTESIAN_POINT('',(27.3999999999997,-13.,0.));
#1641=CARTESIAN_POINT('',(27.3999999999997,-19.5,0.));
#1642=CARTESIAN_POINT('',(27.3999999999997,-16.25,-2.62050000001429));
#1643=CARTESIAN_POINT('Origin',(27.3999999999997,-16.25,-3.85000000001429));
#1644=CARTESIAN_POINT('Origin',(27.3999999999997,-19.5,0.));
#1645=CARTESIAN_POINT('',(23.0999999999997,-19.5,-2.));
#1646=CARTESIAN_POINT('',(23.0999999999997,-19.5,0.));
#1647=CARTESIAN_POINT('',(2.5492782447228E-14,-19.5,-2.));
#1648=CARTESIAN_POINT('',(20.5499999999998,-19.5,-2.));
#1649=CARTESIAN_POINT('',(2.66453525910038E-14,-19.5,-7.7000000000286));
#1650=CARTESIAN_POINT('',(2.66453525910038E-14,-19.5,0.));
#1651=CARTESIAN_POINT('',(20.5499999999998,-19.5,-7.70000000002859));
#1652=CARTESIAN_POINT('Origin',(6.49999999999917,-2.49999999999996,0.));
#1653=CARTESIAN_POINT('',(2.49999999999917,-2.49999999999993,-2.));
#1654=CARTESIAN_POINT('',(6.49999999999918,-6.49999999999996,-2.));
#1655=CARTESIAN_POINT('Origin',(6.49999999999917,-2.49999999999996,-2.));
#1656=CARTESIAN_POINT('',(2.49999999999917,-2.49999999999993,-7.70000000002876));
#1657=CARTESIAN_POINT('',(2.49999999999917,-2.49999999999993,0.));
#1658=CARTESIAN_POINT('',(6.49999999999918,-6.49999999999996,-7.70000000002872));
#1659=CARTESIAN_POINT('Origin',(6.49999999999917,-2.49999999999996,-7.70000000002869));
#1660=CARTESIAN_POINT('',(6.49999999999918,-6.49999999999996,0.));
#1661=CARTESIAN_POINT('Origin',(27.3999999999997,-6.49999999999995,0.));
#1662=CARTESIAN_POINT('',(27.3999999999997,-6.49999999999995,-7.70000000002871));
#1663=CARTESIAN_POINT('',(20.5499999999998,-6.49999999999996,-7.70000000002871));
#1664=CARTESIAN_POINT('',(27.3999999999997,-6.49999999999995,0.));
#1665=CARTESIAN_POINT('',(27.3999999999997,-6.49999999999995,0.));
#1666=CARTESIAN_POINT('',(23.0999999999997,-6.49999999999996,0.));
#1667=CARTESIAN_POINT('',(7.8075129151218,-6.49999999999996,0.));
#1668=CARTESIAN_POINT('',(23.0999999999997,-6.49999999999996,-2.));
#1669=CARTESIAN_POINT('',(23.0999999999997,-6.49999999999996,0.));
#1670=CARTESIAN_POINT('',(19.8499999999998,-6.49999999999995,-2.));
#1671=CARTESIAN_POINT('',(20.5499999999998,-6.49999999999995,-2.));
#1672=CARTESIAN_POINT('',(9.84999999999981,-6.49999999999996,-2.));
#1673=CARTESIAN_POINT('',(20.5499999999998,-6.49999999999995,-2.));
#1674=CARTESIAN_POINT('',(20.5499999999998,-6.49999999999995,-2.));
#1675=CARTESIAN_POINT('Origin',(13.6999999999999,-9.74999999999996,-7.70000000002869));
#1676=CARTESIAN_POINT('',(2.49999999999919,-0.999999999999837,-7.70000000002878));
#1677=CARTESIAN_POINT('',(2.49999999999912,-8.12499999999995,-7.70000000002871));
#1678=CARTESIAN_POINT('',(2.07472927726826E-14,-0.999999999999837,-7.70000000002878));
#1679=CARTESIAN_POINT('',(8.09999999999952,-0.999999999999832,-7.70000000002878));
#1680=CARTESIAN_POINT('',(2.22044604925031E-14,3.76569089448349E-14,-7.70000000002879));
#1681=CARTESIAN_POINT('',(2.33146835171283E-14,-5.37499999999994,-7.70000000002874));
#1682=CARTESIAN_POINT('',(27.3999999999997,4.43679734041623E-14,-7.70000000002877));
#1683=CARTESIAN_POINT('',(6.84999999999994,3.94129173741931E-14,-7.70000000002879));
#1684=CARTESIAN_POINT('',(27.3999999999997,-4.87499999999999,-7.70000000002873));
#1685=CARTESIAN_POINT('',(13.5414999999984,-2.99999999999994,-7.70000000002868));
#1686=CARTESIAN_POINT('Origin',(14.3249999999984,-2.99999999999994,-7.70000000002868));
#1687=CARTESIAN_POINT('Origin',(6.49999999999904,-17.,0.));
#1688=CARTESIAN_POINT('',(2.49999999999904,-16.9999999999999,-2.));
#1689=CARTESIAN_POINT('',(6.49999999999904,-13.,-2.));
#1690=CARTESIAN_POINT('Origin',(6.49999999999904,-17.,-2.));
#1691=CARTESIAN_POINT('',(6.49999999999904,-13.,-7.70000000002866));
#1692=CARTESIAN_POINT('',(6.49999999999904,-13.,0.));
#1693=CARTESIAN_POINT('',(2.49999999999919,-16.9999999999999,-7.70000000002862));
#1694=CARTESIAN_POINT('Origin',(6.49999999999904,-17.,-7.70000000002869));
#1695=CARTESIAN_POINT('',(2.49999999999904,-16.9999999999999,0.));
#1696=CARTESIAN_POINT('Origin',(2.49999999999904,-17.5000000000281,0.));
#1697=CARTESIAN_POINT('',(2.49999999999919,-0.999999999999837,-2.));
#1698=CARTESIAN_POINT('',(2.49999999999919,-17.5000000000281,-7.70000000002861));
#1699=CARTESIAN_POINT('',(2.49999999999919,-13.625000000014,-7.70000000002865));
#1700=CARTESIAN_POINT('',(2.49999999999919,-17.5000000000281,0.));
#1701=CARTESIAN_POINT('',(2.49999999999919,-17.5000000000281,0.));
#1702=CARTESIAN_POINT('',(2.49999999999919,-0.999999999999837,0.));
#1703=CARTESIAN_POINT('',(2.49999999999919,-0.999999999999837,0.));
#1704=CARTESIAN_POINT('',(2.49999999999919,-0.999999999999837,0.));
#1705=CARTESIAN_POINT('Origin',(13.6999999999999,-9.74999999999996,-7.70000000002869));
#1706=CARTESIAN_POINT('',(8.09999999999953,-13.,-7.70000000002866));
#1707=CARTESIAN_POINT('',(2.38697950294409E-14,-17.5000000000281,-7.70000000002862));
#1708=CARTESIAN_POINT('',(2.33146835171283E-14,-14.625,-7.70000000002865));
#1709=CARTESIAN_POINT('',(6.84999999999994,-17.5000000000281,-7.70000000002861));
#1710=CARTESIAN_POINT('',(23.1414999999975,-15.5491035536408,-7.70000000002868));
#1711=CARTESIAN_POINT('Origin',(23.9249999999975,-15.5491035536408,-7.70000000002868));
#1712=CARTESIAN_POINT('',(3.94149999999943,-15.5491035536408,-7.70000000002868));
#1713=CARTESIAN_POINT('Origin',(4.72499999999943,-15.5491035536408,-7.70000000002868));
#1714=CARTESIAN_POINT('Origin',(1.49999999999977,-28.9809849039369,69.7256583792422));
#1715=CARTESIAN_POINT('',(2.49999999999977,-28.9809849039369,-0.499999999999998));
#1716=CARTESIAN_POINT('Origin',(1.49999999999977,-28.9809849039369,-0.499999999999998));
#1717=CARTESIAN_POINT('',(2.49999999999977,-28.9809849039369,0.));
#1718=CARTESIAN_POINT('',(2.49999999999977,-28.9809849039369,69.7256583792422));
#1719=CARTESIAN_POINT('Origin',(1.49999999999977,-28.9809849039369,0.));
#1720=CARTESIAN_POINT('Origin',(1.44310699256159,-40.2761796340014,69.7256583792422));
#1721=CARTESIAN_POINT('',(2.44310699256159,-40.2761796340014,-0.499999999999998));
#1722=CARTESIAN_POINT('Origin',(1.44310699256159,-40.2761796340014,-0.499999999999998));
#1723=CARTESIAN_POINT('',(2.44310699256159,-40.2761796340014,0.));
#1724=CARTESIAN_POINT('',(2.44310699256159,-40.2761796340014,69.7256583792422));
#1725=CARTESIAN_POINT('Origin',(1.44310699256159,-40.2761796340014,0.));
#1726=CARTESIAN_POINT('Origin',(1.49999999999977,-26.9809849039369,-2.));
#1727=CARTESIAN_POINT('',(2.67841304690819E-14,-26.9809849039369,-2.));
#1728=CARTESIAN_POINT('',(2.67841304690819E-14,-26.9809849039369,-0.5));
#1729=CARTESIAN_POINT('',(2.67841304690819E-14,-26.9809849039369,-1.));
#1730=CARTESIAN_POINT('',(1.49999999999977,-26.9809849039369,-2.));
#1731=CARTESIAN_POINT('',(7.59999999999981,-26.9809849039369,-2.));
#1732=CARTESIAN_POINT('',(1.49999999999977,-26.9809849039369,-0.5));
#1733=CARTESIAN_POINT('',(1.49999999999977,-26.9809849039369,-2.));
#1734=CARTESIAN_POINT('',(-0.50000000000023,-26.9809849039369,-0.5));
#1735=CARTESIAN_POINT('Origin',(1.49999999999977,-28.9809849039369,-0.5));
#1736=CARTESIAN_POINT('',(2.74780198594726E-14,-30.9809849039369,-0.5));
#1737=CARTESIAN_POINT('',(3.02535774210355E-14,-47.4090285294405,-0.5));
#1738=CARTESIAN_POINT('',(1.49999999999977,-30.9809849039369,-0.5));
#1739=CARTESIAN_POINT('Origin',(1.49999999999977,-28.9809849039369,-0.5));
#1740=CARTESIAN_POINT('',(1.49999999999977,-30.9809849039369,-0.5));
#1741=CARTESIAN_POINT('Origin',(1.49999999999977,-28.9809849039369,-2.));
#1742=CARTESIAN_POINT('',(1.49999999999977,-30.9809849039369,-2.));
#1743=CARTESIAN_POINT('Origin',(1.49999999999977,-28.9809849039369,-2.));
#1744=CARTESIAN_POINT('',(1.49999999999977,-30.9809849039369,-2.));
#1745=CARTESIAN_POINT('Origin',(-0.50000000000023,-30.9809849039369,-2.));
#1746=CARTESIAN_POINT('',(2.74780198594726E-14,-30.9809849039369,-2.));
#1747=CARTESIAN_POINT('',(2.74433253899531E-14,-30.9809849039369,-1.));
#1748=CARTESIAN_POINT('',(6.59999999999981,-30.9809849039369,-2.));
#1749=CARTESIAN_POINT('Origin',(1.44310699256159,-38.2761796340014,-2.));
#1750=CARTESIAN_POINT('',(2.86576318231369E-14,-38.2761796340014,-2.));
#1751=CARTESIAN_POINT('',(2.86576318231369E-14,-38.2761796340014,-0.5));
#1752=CARTESIAN_POINT('',(2.87270207621759E-14,-38.2761796340014,-1.));
#1753=CARTESIAN_POINT('',(1.44310699256159,-38.2761796340014,-2.));
#1754=CARTESIAN_POINT('',(7.57155349628072,-38.2761796340014,-2.));
#1755=CARTESIAN_POINT('',(1.44310699256159,-38.2761796340014,-0.5));
#1756=CARTESIAN_POINT('',(1.44310699256159,-38.2761796340014,-2.));
#1757=CARTESIAN_POINT('',(-0.556893007438409,-38.2761796340014,-0.5));
#1758=CARTESIAN_POINT('Origin',(1.44310699256159,-40.27577495033,-0.5));
#1759=CARTESIAN_POINT('',(2.94209101525666E-14,-42.2753702666587,-0.5));
#1760=CARTESIAN_POINT('',(3.10862446895044E-14,-53.0564235526371,-0.5));
#1761=CARTESIAN_POINT('',(1.49999999999977,-42.2753702666587,-0.5));
#1762=CARTESIAN_POINT('Origin',(1.44310699256159,-40.2761796340014,-0.5));
#1763=CARTESIAN_POINT('',(1.49999999999977,-42.2753702666587,-0.5));
#1764=CARTESIAN_POINT('Origin',(1.44310699256159,-40.2761796340014,-2.));
#1765=CARTESIAN_POINT('',(1.49999999999977,-42.2753702666587,-2.));
#1766=CARTESIAN_POINT('Origin',(1.44310699256159,-40.2761796340014,-2.));
#1767=CARTESIAN_POINT('',(1.49999999999977,-42.2753702666587,-2.));
#1768=CARTESIAN_POINT('Origin',(-0.55689300743841,-42.2753702666587,-2.));
#1769=CARTESIAN_POINT('',(2.94209101525666E-14,-42.2753702666587,-2.));
#1770=CARTESIAN_POINT('',(2.9316826744008E-14,-42.2753702666587,-1.));
#1771=CARTESIAN_POINT('',(6.57155349628072,-42.2753702666587,-2.));
#1772=CARTESIAN_POINT('Origin',(3.33066907387547E-14,-65.8370721549441,
0.));
#1773=CARTESIAN_POINT('',(2.22044604925031E-14,3.5527136788005E-14,-2.));
#1774=CARTESIAN_POINT('',(3.5527136788005E-14,-65.8370721549441,-2.));
#1775=CARTESIAN_POINT('',(2.22044604925031E-14,3.5527136788005E-14,-2.));
#1776=CARTESIAN_POINT('',(3.33066907387547E-14,-65.8370721549441,0.));
#1777=CARTESIAN_POINT('',(3.33066907387547E-14,-65.8370721549441,0.));
#1778=CARTESIAN_POINT('',(2.38697950294409E-14,-17.5000000000281,0.));
#1779=CARTESIAN_POINT('',(2.22044604925031E-14,3.5527136788005E-14,0.));
#1780=CARTESIAN_POINT('',(2.38697950294409E-14,-17.5000000000281,0.));
#1781=CARTESIAN_POINT('',(2.22044604925031E-14,3.5527136788005E-14,-2.));
#1782=CARTESIAN_POINT('Origin',(22.3999999999997,-16.25,-3.85000000001429));
#1783=CARTESIAN_POINT('',(24.2751662839522,-16.2499999982388,-2.62050000001429));
#1784=CARTESIAN_POINT('',(22.3999999999997,-16.25,-2.62050000001429));
#1785=CARTESIAN_POINT('',(23.1414999999975,-15.5491035541378,-4.86015564291017));
#1786=CARTESIAN_POINT('Ctrl Pts',(23.1414999999975,-15.5491035546347,-4.86015564291017));
#1787=CARTESIAN_POINT('Ctrl Pts',(23.1415000000244,-15.5703742732568,-4.87491433002679));
#1788=CARTESIAN_POINT('Ctrl Pts',(23.1423706456116,-15.592214894485,-4.88906685131172));
#1789=CARTESIAN_POINT('Ctrl Pts',(23.1504635394468,-15.6890039372382,-4.94752086339959));
#1790=CARTESIAN_POINT('Ctrl Pts',(23.1686421013317,-15.7676630325504,-4.98349943241037));
#1791=CARTESIAN_POINT('Ctrl Pts',(23.2296302654296,-15.9205237047792,-5.03765058489654));
#1792=CARTESIAN_POINT('Ctrl Pts',(23.2867150896455,-16.0125913976021,-5.05827054791768));
#1793=CARTESIAN_POINT('Ctrl Pts',(23.4187249000662,-16.1559505591342,-5.07830424746789));
#1794=CARTESIAN_POINT('Ctrl Pts',(23.509410649982,-16.2223207427382,-5.07998158194848));
#1795=CARTESIAN_POINT('Ctrl Pts',(23.7105414524181,-16.3106437122284,-5.07879745343663));
#1796=CARTESIAN_POINT('Ctrl Pts',(23.8209872662247,-16.3326035536408,-5.07672201535677));
#1797=CARTESIAN_POINT('Ctrl Pts',(24.0290127337702,-16.3326035536408,-5.07672201535677));
#1798=CARTESIAN_POINT('Ctrl Pts',(24.1394585475768,-16.3106437122284,-5.07879745343663));
#1799=CARTESIAN_POINT('Ctrl Pts',(24.340589350013,-16.2223207427382,-5.07998158194848));
#1800=CARTESIAN_POINT('Ctrl Pts',(24.4312750999287,-16.1559505591342,-5.07830424746789));
#1801=CARTESIAN_POINT('Ctrl Pts',(24.5632849103494,-16.0125913976021,-5.05827054791768));
#1802=CARTESIAN_POINT('Ctrl Pts',(24.6203697345653,-15.9205237047792,-5.03765058489654));
#1803=CARTESIAN_POINT('Ctrl Pts',(24.6813578986632,-15.7676630325504,-4.98349943241037));
#1804=CARTESIAN_POINT('Ctrl Pts',(24.6995364605481,-15.6890039372382,-4.94752086339959));
#1805=CARTESIAN_POINT('Ctrl Pts',(24.7120144415154,-15.5397703184709,-4.85739388717172));
#1806=CARTESIAN_POINT('Ctrl Pts',(24.7067164843152,-15.4692512355486,-4.8032098851887));
#1807=CARTESIAN_POINT('Ctrl Pts',(24.6744066342024,-15.2897246515872,-4.63536550105179));
#1808=CARTESIAN_POINT('Ctrl Pts',(24.6259154095577,-15.1899162599045,-4.49520139487162));
#1809=CARTESIAN_POINT('Ctrl Pts',(24.5386556345247,-15.0554180725365,-4.18620765725352));
#1810=CARTESIAN_POINT('Ctrl Pts',(24.5033169832154,-15.0205,-4.01651894428016));
#1811=CARTESIAN_POINT('Ctrl Pts',(24.5033169832154,-15.0205,-3.68348105574842));
#1812=CARTESIAN_POINT('Ctrl Pts',(24.5386556345247,-15.0554180725365,-3.51379234277506));
#1813=CARTESIAN_POINT('Ctrl Pts',(24.6259154095577,-15.1899162599045,-3.20479860515696));
#1814=CARTESIAN_POINT('Ctrl Pts',(24.6744066342024,-15.2897246515872,-3.0646344989768));
#1815=CARTESIAN_POINT('Ctrl Pts',(24.7067164843152,-15.4692512355486,-2.89679011483988));
#1816=CARTESIAN_POINT('Ctrl Pts',(24.7120144415154,-15.5397703184709,-2.84260611285686));
#1817=CARTESIAN_POINT('Ctrl Pts',(24.6995364605481,-15.6890039372382,-2.75247913662899));
#1818=CARTESIAN_POINT('Ctrl Pts',(24.6813578986632,-15.7676630325504,-2.71650056761821));
#1819=CARTESIAN_POINT('Ctrl Pts',(24.6203697345653,-15.9205237047792,-2.66234941513204));
#1820=CARTESIAN_POINT('Ctrl Pts',(24.5632849103494,-16.0125913976021,-2.64172945211091));
#1821=CARTESIAN_POINT('Ctrl Pts',(24.4395346534057,-16.1469809025812,-2.62294921555902));
#1822=CARTESIAN_POINT('Ctrl Pts',(24.3617721033935,-16.2067319241789,-2.62050000013825));
#1823=CARTESIAN_POINT('Ctrl Pts',(24.2751662839522,-16.2499999964776,-2.62050000001429));
#1824=CARTESIAN_POINT('',(23.1414999999975,-15.5491035541378,-2.83984435711841));
#1825=CARTESIAN_POINT('Ctrl Pts',(23.1414999999975,-15.5491035546347,-2.83984435711841));
#1826=CARTESIAN_POINT('Ctrl Pts',(23.1414999999336,-15.4987913555407,-2.87475347409606));
#1827=CARTESIAN_POINT('Ctrl Pts',(23.1464348158102,-15.4517413385512,-2.91316060333796));
#1828=CARTESIAN_POINT('Ctrl Pts',(23.1755933657925,-15.2897246515872,-3.0646344989768));
#1829=CARTESIAN_POINT('Ctrl Pts',(23.2240845904372,-15.1899162599045,-3.20479860515696));
#1830=CARTESIAN_POINT('Ctrl Pts',(23.3113443654702,-15.0554180725365,-3.51379234277506));
#1831=CARTESIAN_POINT('Ctrl Pts',(23.3466830167795,-15.0205,-3.68348105574842));
#1832=CARTESIAN_POINT('Ctrl Pts',(23.3466830167795,-15.0205,-4.01651894428016));
#1833=CARTESIAN_POINT('Ctrl Pts',(23.3113443654702,-15.0554180725365,-4.18620765725352));
#1834=CARTESIAN_POINT('Ctrl Pts',(23.2240845904372,-15.1899162599045,-4.49520139487162));
#1835=CARTESIAN_POINT('Ctrl Pts',(23.1755933657925,-15.2897246515872,-4.63536550105179));
#1836=CARTESIAN_POINT('Ctrl Pts',(23.1464348158103,-15.4517413385512,-4.78683939669063));
#1837=CARTESIAN_POINT('Ctrl Pts',(23.1414999999336,-15.4987913555407,-4.82524652593252));
#1838=CARTESIAN_POINT('Ctrl Pts',(23.1414999999975,-15.5491035546347,-4.86015564291017));
#1839=CARTESIAN_POINT('',(23.5748337160427,-16.2499999982388,-2.62050000001429));
#1840=CARTESIAN_POINT('Ctrl Pts',(23.5748337160427,-16.2499999964776,-2.62050000001429));
#1841=CARTESIAN_POINT('Ctrl Pts',(23.4882278966014,-16.2067319241789,-2.62050000013825));
#1842=CARTESIAN_POINT('Ctrl Pts',(23.4104653465892,-16.1469809025812,-2.62294921555902));
#1843=CARTESIAN_POINT('Ctrl Pts',(23.2867150896455,-16.0125913976021,-2.64172945211091));
#1844=CARTESIAN_POINT('Ctrl Pts',(23.2296302654296,-15.9205237047792,-2.66234941513204));
#1845=CARTESIAN_POINT('Ctrl Pts',(23.1686421013317,-15.7676630325504,-2.71650056761821));
#1846=CARTESIAN_POINT('Ctrl Pts',(23.1504635394468,-15.6890039372382,-2.75247913662899));
#1847=CARTESIAN_POINT('Ctrl Pts',(23.1423706456116,-15.592214894485,-2.81093314871686));
#1848=CARTESIAN_POINT('Ctrl Pts',(23.1415000000244,-15.5703742732568,-2.8250856700018));
#1849=CARTESIAN_POINT('Ctrl Pts',(23.1414999999975,-15.5491035546347,-2.83984435711841));
#1850=CARTESIAN_POINT('',(17.3999999999997,-16.25,-2.62050000001429));
#1851=CARTESIAN_POINT('',(22.3999999999997,-16.25,-2.62050000001429));
#1852=CARTESIAN_POINT('Origin',(17.3999999999997,-16.25,-3.85000000001429));
#1853=CARTESIAN_POINT('',(23.9249999999975,-16.3326035536408,-2.62327798467181));
#1854=CARTESIAN_POINT('Ctrl Pts',(23.9249999999975,-16.3326035536408,-2.62327798467181));
#1855=CARTESIAN_POINT('Ctrl Pts',(23.8209872662247,-16.3326035536408,-2.62327798467181));
#1856=CARTESIAN_POINT('Ctrl Pts',(23.7105414524181,-16.3106437122284,-2.62120254659195));
#1857=CARTESIAN_POINT('Ctrl Pts',(23.5981248129418,-16.261277969645,-2.62054070988471));
#1858=CARTESIAN_POINT('Ctrl Pts',(23.5864033027525,-16.2557801359354,-2.62049999999773));
#1859=CARTESIAN_POINT('Ctrl Pts',(23.5748337160427,-16.2499999964776,-2.62050000001429));
#1860=CARTESIAN_POINT('Ctrl Pts',(24.2751662839522,-16.2499999964776,-2.62050000001429));
#1861=CARTESIAN_POINT('Ctrl Pts',(24.2635966972424,-16.2557801359354,-2.62049999999773));
#1862=CARTESIAN_POINT('Ctrl Pts',(24.2518751870531,-16.261277969645,-2.62054070988471));
#1863=CARTESIAN_POINT('Ctrl Pts',(24.1394585475768,-16.3106437122284,-2.62120254659195));
#1864=CARTESIAN_POINT('Ctrl Pts',(24.0290127337702,-16.3326035536408,-2.62327798467181));
#1865=CARTESIAN_POINT('Ctrl Pts',(23.9249999999975,-16.3326035536408,-2.62327798467181));
#1866=CARTESIAN_POINT('Origin',(17.3999999999997,-16.25,-3.85000000001429));
#1867=CARTESIAN_POINT('Origin',(22.3999999999997,-3.24999999999996,-3.85000000001436));
#1868=CARTESIAN_POINT('',(27.3999999999997,-3.24999999999996,-2.62050000001436));
#1869=CARTESIAN_POINT('Origin',(27.3999999999997,-3.24999999999996,-3.85000000001436));
#1870=CARTESIAN_POINT('',(17.3999999999997,-3.24999999999996,-2.62050000001436));
#1871=CARTESIAN_POINT('',(22.3999999999997,-3.24999999999996,-2.62050000001436));
#1872=CARTESIAN_POINT('Origin',(17.3999999999997,-3.24999999999996,-3.85000000001436));
#1873=CARTESIAN_POINT('Origin',(17.3999999999997,-3.24999999999996,-3.85000000001436));
#1874=CARTESIAN_POINT('Origin',(9.84999999999981,-9.75000000000149,-1.175));
#1875=CARTESIAN_POINT('',(9.84999999999982,-13.,-2.));
#1876=CARTESIAN_POINT('Origin',(9.84999999999981,-9.75000000000149,-2.));
#1877=CARTESIAN_POINT('',(13.0999999999998,-9.75000000000149,-2.));
#1878=CARTESIAN_POINT('Origin',(9.84999999999981,-9.75000000000149,-2.));
#1879=CARTESIAN_POINT('',(11.4499999999998,-9.75000000000149,-0.35));
#1880=CARTESIAN_POINT('',(12.2749999999998,-9.75000000000149,-1.175));
#1881=CARTESIAN_POINT('Origin',(9.84999999999981,-9.75000000000149,-0.35));
#1882=CARTESIAN_POINT('Origin',(9.84999999999981,-9.75000000000149,-2.));
#1883=CARTESIAN_POINT('Origin',(9.84999999999981,-9.75000000000149,0.5));
#1884=CARTESIAN_POINT('',(11.4499999999998,-9.75000000000149,0.));
#1885=CARTESIAN_POINT('',(11.4499999999998,-9.75000000000149,0.5));
#1886=CARTESIAN_POINT('Origin',(9.84999999999981,-9.75000000000149,0.));
#1887=CARTESIAN_POINT('Origin',(19.8499999999998,-9.75000000000149,-1.175));
#1888=CARTESIAN_POINT('',(19.8499999999998,-13.,-2.));
#1889=CARTESIAN_POINT('Origin',(19.8499999999998,-9.75000000000149,-2.));
#1890=CARTESIAN_POINT('',(23.0999999999997,-9.75000000000149,-2.));
#1891=CARTESIAN_POINT('Origin',(19.8499999999998,-9.75000000000149,-2.));
#1892=CARTESIAN_POINT('',(21.4499999999998,-9.75000000000149,-0.35));
#1893=CARTESIAN_POINT('',(22.2749999999998,-9.75000000000149,-1.175));
#1894=CARTESIAN_POINT('Origin',(19.8499999999998,-9.75000000000149,-0.35));
#1895=CARTESIAN_POINT('Origin',(19.8499999999998,-9.75000000000149,-2.));
#1896=CARTESIAN_POINT('Origin',(19.8499999999998,-9.75000000000149,0.5));
#1897=CARTESIAN_POINT('',(21.4499999999998,-9.75000000000149,0.));
#1898=CARTESIAN_POINT('',(21.4499999999998,-9.75000000000149,0.5));
#1899=CARTESIAN_POINT('Origin',(19.8499999999998,-9.75000000000149,0.));
#1900=CARTESIAN_POINT('Origin',(17.9751928920308,-23.0000000000001,-1.175));
#1901=CARTESIAN_POINT('',(21.2251928920308,-23.0000000000001,-2.));
#1902=CARTESIAN_POINT('Origin',(17.9751928920308,-23.0000000000001,-2.));
#1903=CARTESIAN_POINT('',(19.5751928920308,-23.0000000000001,-0.35));
#1904=CARTESIAN_POINT('',(20.4001928920308,-23.0000000000001,-1.175));
#1905=CARTESIAN_POINT('Origin',(17.9751928920308,-23.0000000000001,-0.35));
#1906=CARTESIAN_POINT('Origin',(17.9751928920308,-23.0000000000001,0.5));
#1907=CARTESIAN_POINT('',(19.5751928920308,-23.0000000000001,0.));
#1908=CARTESIAN_POINT('',(19.5751928920308,-23.0000000000001,0.5));
#1909=CARTESIAN_POINT('Origin',(17.9751928920308,-23.0000000000001,0.));
#1910=CARTESIAN_POINT('Origin',(4.00000000000009,-24.0348865207844,-1.175));
#1911=CARTESIAN_POINT('',(7.25000000000009,-24.0348865207844,-2.));
#1912=CARTESIAN_POINT('Origin',(4.00000000000009,-24.0348865207844,-2.));
#1913=CARTESIAN_POINT('',(5.60000000000009,-24.0348865207844,-0.35));
#1914=CARTESIAN_POINT('',(6.42500000000009,-24.0348865207844,-1.175));
#1915=CARTESIAN_POINT('Origin',(4.00000000000009,-24.0348865207844,-0.35));
#1916=CARTESIAN_POINT('Origin',(4.00000000000009,-24.0348865207844,0.5));
#1917=CARTESIAN_POINT('',(5.60000000000009,-24.0348865207844,0.));
#1918=CARTESIAN_POINT('',(5.60000000000009,-24.0348865207844,0.5));
#1919=CARTESIAN_POINT('Origin',(4.00000000000009,-24.0348865207844,0.));
#1920=CARTESIAN_POINT('Origin',(3.50000000000015,-57.970954822483,-1.175));
#1921=CARTESIAN_POINT('',(6.75000000000015,-57.970954822483,-2.));
#1922=CARTESIAN_POINT('Origin',(3.50000000000015,-57.970954822483,-2.));
#1923=CARTESIAN_POINT('',(5.10000000000015,-57.970954822483,-0.35));
#1924=CARTESIAN_POINT('',(5.92500000000015,-57.970954822483,-1.175));
#1925=CARTESIAN_POINT('Origin',(3.50000000000015,-57.970954822483,-0.35));
#1926=CARTESIAN_POINT('Origin',(3.50000000000015,-57.970954822483,0.5));
#1927=CARTESIAN_POINT('',(5.10000000000015,-57.970954822483,0.));
#1928=CARTESIAN_POINT('',(5.10000000000015,-57.970954822483,0.5));
#1929=CARTESIAN_POINT('Origin',(3.50000000000015,-57.970954822483,0.));
#1930=CARTESIAN_POINT('Origin',(19.8729930459803,-45.254926556158,-1.175));
#1931=CARTESIAN_POINT('',(23.0999999999997,-45.6408360257369,-2.));
#1932=CARTESIAN_POINT('',(23.0999999999997,-45.254926556158,-1.97700695401936));
#1933=CARTESIAN_POINT('Ctrl Pts',(23.0999999999997,-45.6408360257369,-2.));
#1934=CARTESIAN_POINT('Ctrl Pts',(23.0999999999997,-45.4471963114313,-1.97700695401936));
#1935=CARTESIAN_POINT('Ctrl Pts',(23.0999999999997,-45.254926556158,-1.97700695401936));
#1936=CARTESIAN_POINT('',(23.0999999999997,-44.8690170865791,-2.));
#1937=CARTESIAN_POINT('Origin',(19.8729930459803,-45.254926556158,-2.));
#1938=CARTESIAN_POINT('Ctrl Pts',(23.0999999999997,-45.254926556158,-1.97700695401936));
#1939=CARTESIAN_POINT('Ctrl Pts',(23.0999999999997,-45.0626568008847,-1.97700695401936));
#1940=CARTESIAN_POINT('Ctrl Pts',(23.0999999999997,-44.869017086579,-2.));
#1941=CARTESIAN_POINT('',(21.4729930459803,-45.254926556158,-0.35));
#1942=CARTESIAN_POINT('',(22.2979930459803,-45.254926556158,-1.175));
#1943=CARTESIAN_POINT('Origin',(19.8729930459803,-45.254926556158,-0.35));
#1944=CARTESIAN_POINT('Origin',(19.8729930459803,-45.254926556158,0.5));
#1945=CARTESIAN_POINT('',(21.4729930459803,-45.254926556158,0.));
#1946=CARTESIAN_POINT('',(21.4729930459803,-45.254926556158,0.5));
#1947=CARTESIAN_POINT('Origin',(19.8729930459803,-45.254926556158,0.));
#1948=CARTESIAN_POINT('Origin',(13.6999999999999,-32.918536077472,-2.));
#1949=CARTESIAN_POINT('',(23.0999999999997,-13.,-2.));
#1950=CARTESIAN_POINT('Origin',(13.6999999999999,-32.918536077472,-2.));
#1951=CARTESIAN_POINT('',(23.0999999999997,-13.,-2.));
#1952=CARTESIAN_POINT('',(23.0999999999997,-13.,-2.));
#1953=CARTESIAN_POINT('',(8.09999999999952,-13.,-2.));
#1954=CARTESIAN_POINT('Origin',(13.6999999999999,-32.918536077472,-2.));
#1955=CARTESIAN_POINT('',(8.09999999999952,-13.,-2.));
#1956=CARTESIAN_POINT('Origin',(13.6999999999999,-32.918536077472,-2.));
#1957=CARTESIAN_POINT('',(8.09999999999952,-13.,-2.));
#1958=CARTESIAN_POINT('Origin',(23.0999999999997,-19.5,0.));
#1959=CARTESIAN_POINT('',(23.0999999999997,-65.8370721549441,-2.));
#1960=CARTESIAN_POINT('',(23.0999999999997,-65.8370721549441,0.));
#1961=CARTESIAN_POINT('',(23.0999999999997,-65.8370721549441,0.));
#1962=CARTESIAN_POINT('',(23.0999999999997,-65.8370721549441,-2.));
#1963=CARTESIAN_POINT('',(23.0999999999997,-65.8370721549441,0.));
#1964=CARTESIAN_POINT('',(23.0999999999997,-65.8370721549441,-2.));
#1965=CARTESIAN_POINT('Origin',(14.6999999999999,-55.6370721549442,0.));
#1966=CARTESIAN_POINT('',(10.6999999999999,-55.6370721549442,0.));
#1967=CARTESIAN_POINT('Origin',(14.6999999999999,-55.6370721549442,0.));
#1968=CARTESIAN_POINT('',(10.6999999999999,-55.6370721549442,-1.5));
#1969=CARTESIAN_POINT('',(10.6999999999999,-55.6370721549442,0.));
#1970=CARTESIAN_POINT('Origin',(14.6999999999999,-55.6370721549442,-1.5));
#1971=CARTESIAN_POINT('Origin',(14.6999999999999,-55.6370721549442,-1.5));
#1972=CARTESIAN_POINT('Origin',(9.00197156088405,-47.4192578526479,0.));
#1973=CARTESIAN_POINT('',(7.75197156088405,-47.4192578526479,0.));
#1974=CARTESIAN_POINT('Origin',(9.00197156088405,-47.4192578526479,0.));
#1975=CARTESIAN_POINT('',(7.75197156088405,-47.4192578526479,-1.5));
#1976=CARTESIAN_POINT('',(7.75197156088405,-47.4192578526479,0.));
#1977=CARTESIAN_POINT('Origin',(9.00197156088405,-47.4192578526479,-1.5));
#1978=CARTESIAN_POINT('Origin',(9.00197156088405,-47.4192578526479,-1.5));
#1979=CARTESIAN_POINT('Origin',(14.3249999999984,-2.99999999999994,-71.7256583792422));
#1980=CARTESIAN_POINT('',(13.5414999999984,-2.99999999999994,0.));
#1981=CARTESIAN_POINT('Origin',(14.3249999999984,-2.99999999999994,0.));
#1982=CARTESIAN_POINT('',(13.5414999999984,-2.99999999999994,-71.7256583792422));
#1983=CARTESIAN_POINT('Origin',(4.72499999999943,-15.5491035536408,-71.7256583792422));
#1984=CARTESIAN_POINT('',(3.94149999999943,-15.5491035536408,0.));
#1985=CARTESIAN_POINT('Origin',(4.72499999999943,-15.5491035536408,0.));
#1986=CARTESIAN_POINT('',(3.94149999999943,-15.5491035536408,-71.7256583792422));
#1987=CARTESIAN_POINT('Origin',(23.9249999999975,-15.5491035536408,-71.7256583792422));
#1988=CARTESIAN_POINT('',(23.1414999999975,-15.5491035536408,0.));
#1989=CARTESIAN_POINT('Origin',(23.9249999999975,-15.5491035536408,0.));
#1990=CARTESIAN_POINT('',(23.1414999999975,-15.5491035536408,-71.7256583792422));
#1991=CARTESIAN_POINT('',(23.1414999999975,-15.5491035536408,-71.7256583792422));
#1992=CARTESIAN_POINT('Origin',(13.6999999999999,-32.918536077472,-2.));
#1993=CARTESIAN_POINT('',(3.5527136788005E-14,-65.8370721549441,-2.));
#1994=CARTESIAN_POINT('',(17.3499999999999,-35.2722127152134,-2.));
#1995=CARTESIAN_POINT('Origin',(12.3499999999999,-35.2722127152134,-2.));
#1996=CARTESIAN_POINT('Origin',(12.3499999999999,-35.2722127152134,0.));
#1997=CARTESIAN_POINT('',(17.3499999999999,-35.2722127152134,0.));
#1998=CARTESIAN_POINT('',(17.3499999999999,-35.2722127152134,0.));
#1999=CARTESIAN_POINT('Origin',(12.3499999999999,-35.2722127152134,0.));
#2000=CARTESIAN_POINT('Origin',(27.3999999999997,4.44089209850063E-14,0.));
#2001=CARTESIAN_POINT('',(27.3999999999997,4.43679734041623E-14,0.));
#2002=CARTESIAN_POINT('',(27.3999999999997,-19.5,0.));
#2003=CARTESIAN_POINT('',(27.3999999999997,4.43679734041623E-14,0.));
#2004=CARTESIAN_POINT('Origin',(2.22044604925031E-14,3.76569089448349E-14,
0.));
#2005=CARTESIAN_POINT('',(2.22044604925031E-14,3.76569089448349E-14,0.));
#2006=CARTESIAN_POINT('',(27.3999999999997,4.43679734041623E-14,0.));
#2007=CARTESIAN_POINT('',(2.22044604925031E-14,3.76569089448349E-14,0.));
#2008=CARTESIAN_POINT('Origin',(2.23730923876172E-14,-0.999999999999837,
0.));
#2009=CARTESIAN_POINT('',(2.07472927726826E-14,-0.999999999999837,0.));
#2010=CARTESIAN_POINT('',(2.22044604925031E-14,3.5527136788005E-14,0.));
#2011=CARTESIAN_POINT('',(2.07472927726826E-14,-0.999999999999837,0.));
#2012=CARTESIAN_POINT('Origin',(2.49999999999919,-0.999999999999836,0.));
#2013=CARTESIAN_POINT('',(2.08166817117217E-14,-0.999999999999837,0.));
#2014=CARTESIAN_POINT('Origin',(2.38697950294409E-14,-17.5000000000281,
0.));
#2015=CARTESIAN_POINT('',(2.49999999999919,-17.5000000000281,0.));
#2016=CARTESIAN_POINT('Origin',(23.0999999999997,-65.8370721549441,0.));
#2017=CARTESIAN_POINT('',(3.5527136788005E-14,-65.8370721549441,0.));
#2018=CARTESIAN_POINT('Origin',(23.0999999999997,-13.,0.));
#2019=CARTESIAN_POINT('',(23.0999999999997,-13.,0.));
#2020=CARTESIAN_POINT('',(23.0999999999997,-13.,0.));
#2021=CARTESIAN_POINT('',(27.3999999999997,-13.,0.));
#2022=CARTESIAN_POINT('Origin',(23.0999999999997,-6.49999999999996,0.));
#2023=CARTESIAN_POINT('',(23.0999999999997,-13.,0.));
#2024=CARTESIAN_POINT('Origin',(13.6999999999999,-32.918536077472,0.));
#2025=UNCERTAINTY_MEASURE_WITH_UNIT(LENGTH_MEASURE(0.01),#2029,
'DISTANCE_ACCURACY_VALUE',
'Maximum model space distance between geometric entities at asserted c
onnectivities');
#2026=UNCERTAINTY_MEASURE_WITH_UNIT(LENGTH_MEASURE(0.01),#2029,
'DISTANCE_ACCURACY_VALUE',
'Maximum model space distance between geometric entities at asserted c
onnectivities');
#2027=(
GEOMETRIC_REPRESENTATION_CONTEXT(3)
GLOBAL_UNCERTAINTY_ASSIGNED_CONTEXT((#2025))
GLOBAL_UNIT_ASSIGNED_CONTEXT((#2029,#2031,#2032))
REPRESENTATION_CONTEXT('','3D')
);
#2028=(
GEOMETRIC_REPRESENTATION_CONTEXT(3)
GLOBAL_UNCERTAINTY_ASSIGNED_CONTEXT((#2026))
GLOBAL_UNIT_ASSIGNED_CONTEXT((#2029,#2031,#2032))
REPRESENTATION_CONTEXT('','3D')
);
#2029=(
LENGTH_UNIT()
NAMED_UNIT(*)
SI_UNIT(.MILLI.,.METRE.)
);
#2030=(
LENGTH_UNIT()
NAMED_UNIT(*)
SI_UNIT(.CENTI.,.METRE.)
);
#2031=(
NAMED_UNIT(*)
PLANE_ANGLE_UNIT()
SI_UNIT($,.RADIAN.)
);
#2032=(
NAMED_UNIT(*)
SI_UNIT($,.STERADIAN.)
SOLID_ANGLE_UNIT()
);
#2033=SHAPE_DEFINITION_REPRESENTATION(#2034,#2035);
#2034=PRODUCT_DEFINITION_SHAPE('',$,#2037);
#2035=SHAPE_REPRESENTATION('',(#1184),#2027);
#2036=PRODUCT_DEFINITION_CONTEXT('part definition',#2041,'design');
#2037=PRODUCT_DEFINITION('LeftGearboxCoverr','LeftGearboxCoverr',#2038,
#2036);
#2038=PRODUCT_DEFINITION_FORMATION('',$,#2043);
#2039=PRODUCT_RELATED_PRODUCT_CATEGORY('LeftGearboxCoverr',
'LeftGearboxCoverr',(#2043));
#2040=APPLICATION_PROTOCOL_DEFINITION('international standard',
'automotive_design',2009,#2041);
#2041=APPLICATION_CONTEXT(
'Core Data for Automotive Mechanical Design Process');
#2042=PRODUCT_CONTEXT('part definition',#2041,'mechanical');
#2043=PRODUCT('LeftGearboxCoverr','LeftGearboxCoverr',$,(#2042));
#2044=PRESENTATION_STYLE_ASSIGNMENT((#2045));
#2045=SURFACE_STYLE_USAGE(.BOTH.,#2048);
#2046=SURFACE_STYLE_RENDERING_WITH_PROPERTIES($,#2052,(#2047));
#2047=SURFACE_STYLE_TRANSPARENT(0.);
#2048=SURFACE_SIDE_STYLE('',(#2049,#2046));
#2049=SURFACE_STYLE_FILL_AREA(#2050);
#2050=FILL_AREA_STYLE('',(#2051));
#2051=FILL_AREA_STYLE_COLOUR('',#2052);
#2052=COLOUR_RGB('',0.498039215686275,0.498039215686275,0.498039215686275);
ENDSEC;
END-ISO-10303-21;
