ISO-10303-21;
HEADER;
/* Generated by software containing ST-Developer
 * from STEP Tools, Inc. (www.steptools.com) 
 */

FILE_DESCRIPTION(
/* description */ (''),
/* implementation_level */ '2;1');

FILE_NAME(
/* name */ 'LeftGearboxCover.stp',
/* time_stamp */ '2026-04-10T21:52:42+02:00',
/* author */ ('szymo'),
/* organization */ (''),
/* preprocessor_version */ 'ST-DEVELOPER v20.1',
/* originating_system */ 'Autodesk Inventor 2026',
/* authorisation */ '');

FILE_SCHEMA (('AUTOMOTIVE_DESIGN { 1 0 10303 214 3 1 1 }'));
ENDSEC;

DATA;
#10=MECHANICAL_DESIGN_GEOMETRIC_PRESENTATION_REPRESENTATION('',(#13),#1573);
#11=SHAPE_REPRESENTATION_RELATIONSHIP('SRR','None',#1580,#12);
#12=ADVANCED_BREP_SHAPE_REPRESENTATION('',(#14),#1572);
#13=STYLED_ITEM('',(#1589),#14);
#14=MANIFOLD_SOLID_BREP('Solid1',#920);
#15=FACE_BOUND('',#152,.T.);
#16=FACE_BOUND('',#153,.T.);
#17=FACE_BOUND('',#158,.T.);
#18=FACE_BOUND('',#162,.T.);
#19=FACE_BOUND('',#164,.T.);
#20=FACE_BOUND('',#168,.T.);
#21=FACE_BOUND('',#170,.T.);
#22=FACE_BOUND('',#174,.T.);
#23=FACE_BOUND('',#176,.T.);
#24=FACE_BOUND('',#177,.T.);
#25=FACE_BOUND('',#178,.T.);
#26=FACE_BOUND('',#179,.T.);
#27=FACE_BOUND('',#180,.T.);
#28=FACE_BOUND('',#181,.T.);
#29=FACE_BOUND('',#182,.T.);
#30=FACE_BOUND('',#183,.T.);
#31=FACE_BOUND('',#184,.T.);
#32=FACE_BOUND('',#185,.T.);
#33=FACE_BOUND('',#186,.T.);
#34=FACE_BOUND('',#189,.T.);
#35=FACE_BOUND('',#191,.T.);
#36=FACE_BOUND('',#192,.T.);
#37=FACE_BOUND('',#199,.T.);
#38=FACE_BOUND('',#202,.T.);
#39=FACE_BOUND('',#203,.T.);
#40=PLANE('',#975);
#41=PLANE('',#976);
#42=PLANE('',#987);
#43=PLANE('',#994);
#44=PLANE('',#995);
#45=PLANE('',#1002);
#46=PLANE('',#1003);
#47=PLANE('',#1010);
#48=PLANE('',#1011);
#49=PLANE('',#1015);
#50=PLANE('',#1016);
#51=PLANE('',#1017);
#52=PLANE('',#1018);
#53=PLANE('',#1021);
#54=PLANE('',#1024);
#55=PLANE('',#1025);
#56=PLANE('',#1029);
#57=PLANE('',#1030);
#58=PLANE('',#1031);
#59=PLANE('',#1032);
#60=PLANE('',#1033);
#61=PLANE('',#1034);
#62=PLANE('',#1036);
#63=PLANE('',#1037);
#64=PLANE('',#1038);
#65=PLANE('',#1039);
#66=PLANE('',#1040);
#67=CYLINDRICAL_SURFACE('',#946,1.2295);
#68=CYLINDRICAL_SURFACE('',#951,1.2295);
#69=CYLINDRICAL_SURFACE('',#956,1.2295);
#70=CYLINDRICAL_SURFACE('',#962,1.2295);
#71=CYLINDRICAL_SURFACE('',#967,1.2295);
#72=CYLINDRICAL_SURFACE('',#973,1.2295);
#73=CYLINDRICAL_SURFACE('',#978,1.25);
#74=CYLINDRICAL_SURFACE('',#981,1.25);
#75=CYLINDRICAL_SURFACE('',#984,1.25);
#76=CYLINDRICAL_SURFACE('',#990,1.75);
#77=CYLINDRICAL_SURFACE('',#992,1.5);
#78=CYLINDRICAL_SURFACE('',#998,1.75);
#79=CYLINDRICAL_SURFACE('',#1000,1.5);
#80=CYLINDRICAL_SURFACE('',#1006,1.75);
#81=CYLINDRICAL_SURFACE('',#1008,1.5);
#82=CYLINDRICAL_SURFACE('',#1019,1.25);
#83=CYLINDRICAL_SURFACE('',#1022,1.65000000000008);
#84=CYLINDRICAL_SURFACE('',#1028,5.);
#85=CYLINDRICAL_SURFACE('',#1035,5.6);
#86=FACE_OUTER_BOUND('',#138,.T.);
#87=FACE_OUTER_BOUND('',#139,.T.);
#88=FACE_OUTER_BOUND('',#140,.T.);
#89=FACE_OUTER_BOUND('',#141,.T.);
#90=FACE_OUTER_BOUND('',#142,.T.);
#91=FACE_OUTER_BOUND('',#143,.T.);
#92=FACE_OUTER_BOUND('',#144,.T.);
#93=FACE_OUTER_BOUND('',#145,.T.);
#94=FACE_OUTER_BOUND('',#146,.T.);
#95=FACE_OUTER_BOUND('',#147,.T.);
#96=FACE_OUTER_BOUND('',#148,.T.);
#97=FACE_OUTER_BOUND('',#149,.T.);
#98=FACE_OUTER_BOUND('',#150,.T.);
#99=FACE_OUTER_BOUND('',#151,.T.);
#100=FACE_OUTER_BOUND('',#154,.T.);
#101=FACE_OUTER_BOUND('',#155,.T.);
#102=FACE_OUTER_BOUND('',#156,.T.);
#103=FACE_OUTER_BOUND('',#157,.T.);
#104=FACE_OUTER_BOUND('',#159,.T.);
#105=FACE_OUTER_BOUND('',#160,.T.);
#106=FACE_OUTER_BOUND('',#161,.T.);
#107=FACE_OUTER_BOUND('',#163,.T.);
#108=FACE_OUTER_BOUND('',#165,.T.);
#109=FACE_OUTER_BOUND('',#166,.T.);
#110=FACE_OUTER_BOUND('',#167,.T.);
#111=FACE_OUTER_BOUND('',#169,.T.);
#112=FACE_OUTER_BOUND('',#171,.T.);
#113=FACE_OUTER_BOUND('',#172,.T.);
#114=FACE_OUTER_BOUND('',#173,.T.);
#115=FACE_OUTER_BOUND('',#175,.T.);
#116=FACE_OUTER_BOUND('',#187,.T.);
#117=FACE_OUTER_BOUND('',#188,.T.);
#118=FACE_OUTER_BOUND('',#190,.T.);
#119=FACE_OUTER_BOUND('',#193,.T.);
#120=FACE_OUTER_BOUND('',#194,.T.);
#121=FACE_OUTER_BOUND('',#195,.T.);
#122=FACE_OUTER_BOUND('',#196,.T.);
#123=FACE_OUTER_BOUND('',#197,.T.);
#124=FACE_OUTER_BOUND('',#198,.T.);
#125=FACE_OUTER_BOUND('',#200,.T.);
#126=FACE_OUTER_BOUND('',#201,.T.);
#127=FACE_OUTER_BOUND('',#204,.T.);
#128=FACE_OUTER_BOUND('',#205,.T.);
#129=FACE_OUTER_BOUND('',#206,.T.);
#130=FACE_OUTER_BOUND('',#207,.T.);
#131=FACE_OUTER_BOUND('',#208,.T.);
#132=FACE_OUTER_BOUND('',#209,.T.);
#133=FACE_OUTER_BOUND('',#210,.T.);
#134=FACE_OUTER_BOUND('',#211,.T.);
#135=FACE_OUTER_BOUND('',#212,.T.);
#136=FACE_OUTER_BOUND('',#213,.T.);
#137=FACE_OUTER_BOUND('',#214,.T.);
#138=EDGE_LOOP('',(#616,#617,#618,#619));
#139=EDGE_LOOP('',(#620,#621,#622,#623));
#140=EDGE_LOOP('',(#624,#625,#626,#627));
#141=EDGE_LOOP('',(#628,#629,#630,#631));
#142=EDGE_LOOP('',(#632,#633,#634,#635));
#143=EDGE_LOOP('',(#636,#637,#638,#639));
#144=EDGE_LOOP('',(#640,#641,#642,#643,#644));
#145=EDGE_LOOP('',(#645,#646,#647,#648));
#146=EDGE_LOOP('',(#649,#650,#651,#652));
#147=EDGE_LOOP('',(#653,#654,#655,#656));
#148=EDGE_LOOP('',(#657,#658,#659,#660,#661));
#149=EDGE_LOOP('',(#662,#663,#664,#665));
#150=EDGE_LOOP('',(#666,#667,#668));
#151=EDGE_LOOP('',(#669,#670,#671,#672,#673,#674,#675,#676,#677,#678));
#152=EDGE_LOOP('',(#679));
#153=EDGE_LOOP('',(#680));
#154=EDGE_LOOP('',(#681,#682,#683,#684));
#155=EDGE_LOOP('',(#685,#686,#687,#688));
#156=EDGE_LOOP('',(#689,#690,#691,#692));
#157=EDGE_LOOP('',(#693,#694));
#158=EDGE_LOOP('',(#695));
#159=EDGE_LOOP('',(#696,#697,#698,#699));
#160=EDGE_LOOP('',(#700,#701,#702,#703));
#161=EDGE_LOOP('',(#704));
#162=EDGE_LOOP('',(#705));
#163=EDGE_LOOP('',(#706));
#164=EDGE_LOOP('',(#707));
#165=EDGE_LOOP('',(#708,#709,#710,#711));
#166=EDGE_LOOP('',(#712,#713,#714,#715));
#167=EDGE_LOOP('',(#716));
#168=EDGE_LOOP('',(#717));
#169=EDGE_LOOP('',(#718));
#170=EDGE_LOOP('',(#719));
#171=EDGE_LOOP('',(#720,#721,#722,#723));
#172=EDGE_LOOP('',(#724,#725,#726,#727));
#173=EDGE_LOOP('',(#728));
#174=EDGE_LOOP('',(#729));
#175=EDGE_LOOP('',(#730,#731,#732,#733,#734,#735,#736,#737,#738,#739,#740,
#741));
#176=EDGE_LOOP('',(#742));
#177=EDGE_LOOP('',(#743));
#178=EDGE_LOOP('',(#744));
#179=EDGE_LOOP('',(#745));
#180=EDGE_LOOP('',(#746));
#181=EDGE_LOOP('',(#747));
#182=EDGE_LOOP('',(#748));
#183=EDGE_LOOP('',(#749));
#184=EDGE_LOOP('',(#750));
#185=EDGE_LOOP('',(#751));
#186=EDGE_LOOP('',(#752));
#187=EDGE_LOOP('',(#753,#754,#755,#756));
#188=EDGE_LOOP('',(#757,#758,#759,#760,#761,#762));
#189=EDGE_LOOP('',(#763));
#190=EDGE_LOOP('',(#764,#765,#766,#767,#768,#769));
#191=EDGE_LOOP('',(#770));
#192=EDGE_LOOP('',(#771));
#193=EDGE_LOOP('',(#772,#773,#774,#775,#776));
#194=EDGE_LOOP('',(#777,#778,#779,#780));
#195=EDGE_LOOP('',(#781));
#196=EDGE_LOOP('',(#782,#783,#784,#785));
#197=EDGE_LOOP('',(#786));
#198=EDGE_LOOP('',(#787));
#199=EDGE_LOOP('',(#788));
#200=EDGE_LOOP('',(#789,#790,#791,#792));
#201=EDGE_LOOP('',(#793,#794,#795,#796));
#202=EDGE_LOOP('',(#797));
#203=EDGE_LOOP('',(#798));
#204=EDGE_LOOP('',(#799,#800,#801,#802));
#205=EDGE_LOOP('',(#803,#804,#805,#806));
#206=EDGE_LOOP('',(#807,#808,#809,#810,#811,#812));
#207=EDGE_LOOP('',(#813,#814,#815,#816,#817,#818));
#208=EDGE_LOOP('',(#819,#820,#821,#822,#823,#824));
#209=EDGE_LOOP('',(#825,#826,#827,#828));
#210=EDGE_LOOP('',(#829,#830,#831,#832,#833));
#211=EDGE_LOOP('',(#834,#835,#836,#837,#838,#839,#840,#841));
#212=EDGE_LOOP('',(#842,#843,#844,#845));
#213=EDGE_LOOP('',(#846,#847,#848,#849,#850,#851,#852,#853,#854,#855,#856,
#857));
#214=EDGE_LOOP('',(#858,#859,#860,#861));
#215=LINE('',#1321,#292);
#216=LINE('',#1325,#293);
#217=LINE('',#1331,#294);
#218=LINE('',#1335,#295);
#219=LINE('',#1341,#296);
#220=LINE('',#1345,#297);
#221=LINE('',#1353,#298);
#222=LINE('',#1357,#299);
#223=LINE('',#1363,#300);
#224=LINE('',#1367,#301);
#225=LINE('',#1375,#302);
#226=LINE('',#1379,#303);
#227=LINE('',#1383,#304);
#228=LINE('',#1384,#305);
#229=LINE('',#1386,#306);
#230=LINE('',#1388,#307);
#231=LINE('',#1389,#308);
#232=LINE('',#1391,#309);
#233=LINE('',#1393,#310);
#234=LINE('',#1394,#311);
#235=LINE('',#1401,#312);
#236=LINE('',#1407,#313);
#237=LINE('',#1413,#314);
#238=LINE('',#1418,#315);
#239=LINE('',#1424,#316);
#240=LINE('',#1426,#317);
#241=LINE('',#1430,#318);
#242=LINE('',#1441,#319);
#243=LINE('',#1444,#320);
#244=LINE('',#1455,#321);
#245=LINE('',#1458,#322);
#246=LINE('',#1463,#323);
#247=LINE('',#1465,#324);
#248=LINE('',#1467,#325);
#249=LINE('',#1469,#326);
#250=LINE('',#1471,#327);
#251=LINE('',#1473,#328);
#252=LINE('',#1475,#329);
#253=LINE('',#1477,#330);
#254=LINE('',#1479,#331);
#255=LINE('',#1481,#332);
#256=LINE('',#1482,#333);
#257=LINE('',#1492,#334);
#258=LINE('',#1494,#335);
#259=LINE('',#1496,#336);
#260=LINE('',#1497,#337);
#261=LINE('',#1501,#338);
#262=LINE('',#1502,#339);
#263=LINE('',#1504,#340);
#264=LINE('',#1506,#341);
#265=LINE('',#1507,#342);
#266=LINE('',#1511,#343);
#267=LINE('',#1513,#344);
#268=LINE('',#1515,#345);
#269=LINE('',#1517,#346);
#270=LINE('',#1519,#347);
#271=LINE('',#1520,#348);
#272=LINE('',#1522,#349);
#273=LINE('',#1523,#350);
#274=LINE('',#1526,#351);
#275=LINE('',#1531,#352);
#276=LINE('',#1540,#353);
#277=LINE('',#1543,#354);
#278=LINE('',#1545,#355);
#279=LINE('',#1546,#356);
#280=LINE('',#1548,#357);
#281=LINE('',#1549,#358);
#282=LINE('',#1551,#359);
#283=LINE('',#1553,#360);
#284=LINE('',#1555,#361);
#285=LINE('',#1556,#362);
#286=LINE('',#1558,#363);
#287=LINE('',#1560,#364);
#288=LINE('',#1562,#365);
#289=LINE('',#1564,#366);
#290=LINE('',#1566,#367);
#291=LINE('',#1568,#368);
#292=VECTOR('',#1047,2.36475);
#293=VECTOR('',#1052,1.2295);
#294=VECTOR('',#1059,2.36475);
#295=VECTOR('',#1064,1.2295);
#296=VECTOR('',#1071,2.36475);
#297=VECTOR('',#1076,1.2295);
#298=VECTOR('',#1085,2.36475);
#299=VECTOR('',#1090,1.2295);
#300=VECTOR('',#1097,2.36475);
#301=VECTOR('',#1102,1.2295);
#302=VECTOR('',#1111,2.36475);
#303=VECTOR('',#1116,1.2295);
#304=VECTOR('',#1121,10.);
#305=VECTOR('',#1122,10.);
#306=VECTOR('',#1125,10.);
#307=VECTOR('',#1126,10.);
#308=VECTOR('',#1127,10.);
#309=VECTOR('',#1128,10.);
#310=VECTOR('',#1129,10.);
#311=VECTOR('',#1130,10.);
#312=VECTOR('',#1137,1.25);
#313=VECTOR('',#1144,1.25);
#314=VECTOR('',#1151,1.25);
#315=VECTOR('',#1156,10.);
#316=VECTOR('',#1163,10.);
#317=VECTOR('',#1164,10.);
#318=VECTOR('',#1169,1.5);
#319=VECTOR('',#1184,1.75);
#320=VECTOR('',#1187,1.5);
#321=VECTOR('',#1202,1.75);
#322=VECTOR('',#1205,1.5);
#323=VECTOR('',#1212,10.);
#324=VECTOR('',#1213,10.);
#325=VECTOR('',#1214,10.);
#326=VECTOR('',#1215,10.);
#327=VECTOR('',#1216,10.);
#328=VECTOR('',#1217,10.);
#329=VECTOR('',#1218,10.);
#330=VECTOR('',#1219,10.);
#331=VECTOR('',#1220,10.);
#332=VECTOR('',#1221,10.);
#333=VECTOR('',#1222,10.);
#334=VECTOR('',#1231,10.);
#335=VECTOR('',#1232,10.);
#336=VECTOR('',#1233,10.);
#337=VECTOR('',#1234,10.);
#338=VECTOR('',#1237,10.);
#339=VECTOR('',#1238,10.);
#340=VECTOR('',#1239,10.);
#341=VECTOR('',#1240,10.);
#342=VECTOR('',#1241,10.);
#343=VECTOR('',#1244,10.);
#344=VECTOR('',#1245,10.);
#345=VECTOR('',#1246,10.);
#346=VECTOR('',#1247,10.);
#347=VECTOR('',#1248,10.);
#348=VECTOR('',#1249,10.);
#349=VECTOR('',#1252,10.);
#350=VECTOR('',#1253,10.);
#351=VECTOR('',#1256,1.25);
#352=VECTOR('',#1263,1.65000000000008);
#353=VECTOR('',#1276,5.);
#354=VECTOR('',#1279,10.);
#355=VECTOR('',#1280,10.);
#356=VECTOR('',#1281,10.);
#357=VECTOR('',#1284,10.);
#358=VECTOR('',#1285,10.);
#359=VECTOR('',#1288,10.);
#360=VECTOR('',#1291,10.);
#361=VECTOR('',#1294,10.);
#362=VECTOR('',#1295,10.);
#363=VECTOR('',#1298,10.);
#364=VECTOR('',#1301,5.6);
#365=VECTOR('',#1304,10.);
#366=VECTOR('',#1307,10.);
#367=VECTOR('',#1310,10.);
#368=VECTOR('',#1313,10.);
#369=CIRCLE('',#944,3.5);
#370=CIRCLE('',#945,1.2295);
#371=CIRCLE('',#947,1.2295);
#372=CIRCLE('',#949,3.5);
#373=CIRCLE('',#950,1.2295);
#374=CIRCLE('',#952,1.2295);
#375=CIRCLE('',#954,3.5);
#376=CIRCLE('',#955,1.2295);
#377=CIRCLE('',#957,1.2295);
#378=CIRCLE('',#959,3.5);
#379=CIRCLE('',#960,3.5);
#380=CIRCLE('',#961,1.2295);
#381=CIRCLE('',#963,1.2295);
#382=CIRCLE('',#965,3.5);
#383=CIRCLE('',#966,1.2295);
#384=CIRCLE('',#968,1.2295);
#385=CIRCLE('',#970,3.5);
#386=CIRCLE('',#971,3.5);
#387=CIRCLE('',#972,1.2295);
#388=CIRCLE('',#974,1.2295);
#389=CIRCLE('',#977,5.);
#390=CIRCLE('',#979,1.25);
#391=CIRCLE('',#980,1.25);
#392=CIRCLE('',#982,1.25);
#393=CIRCLE('',#983,1.25);
#394=CIRCLE('',#985,1.25);
#395=CIRCLE('',#986,1.25);
#396=CIRCLE('',#988,1.75);
#397=CIRCLE('',#989,1.5);
#398=CIRCLE('',#991,1.75);
#399=CIRCLE('',#993,1.5);
#400=CIRCLE('',#996,1.75);
#401=CIRCLE('',#997,1.5);
#402=CIRCLE('',#999,1.75);
#403=CIRCLE('',#1001,1.5);
#404=CIRCLE('',#1004,1.75);
#405=CIRCLE('',#1005,1.5);
#406=CIRCLE('',#1007,1.75);
#407=CIRCLE('',#1009,1.5);
#408=CIRCLE('',#1012,5.6);
#409=CIRCLE('',#1013,1.65000000000008);
#410=CIRCLE('',#1014,1.25);
#411=CIRCLE('',#1020,1.25);
#412=CIRCLE('',#1023,1.65000000000008);
#413=CIRCLE('',#1026,5.6);
#414=CIRCLE('',#1027,5.);
#415=VERTEX_POINT('',#1318);
#416=VERTEX_POINT('',#1320);
#417=VERTEX_POINT('',#1324);
#418=VERTEX_POINT('',#1328);
#419=VERTEX_POINT('',#1330);
#420=VERTEX_POINT('',#1334);
#421=VERTEX_POINT('',#1338);
#422=VERTEX_POINT('',#1340);
#423=VERTEX_POINT('',#1344);
#424=VERTEX_POINT('',#1348);
#425=VERTEX_POINT('',#1349);
#426=VERTEX_POINT('',#1352);
#427=VERTEX_POINT('',#1356);
#428=VERTEX_POINT('',#1360);
#429=VERTEX_POINT('',#1362);
#430=VERTEX_POINT('',#1366);
#431=VERTEX_POINT('',#1370);
#432=VERTEX_POINT('',#1371);
#433=VERTEX_POINT('',#1374);
#434=VERTEX_POINT('',#1378);
#435=VERTEX_POINT('',#1382);
#436=VERTEX_POINT('',#1387);
#437=VERTEX_POINT('',#1390);
#438=VERTEX_POINT('',#1392);
#439=VERTEX_POINT('',#1395);
#440=VERTEX_POINT('',#1398);
#441=VERTEX_POINT('',#1400);
#442=VERTEX_POINT('',#1404);
#443=VERTEX_POINT('',#1406);
#444=VERTEX_POINT('',#1410);
#445=VERTEX_POINT('',#1412);
#446=VERTEX_POINT('',#1416);
#447=VERTEX_POINT('',#1417);
#448=VERTEX_POINT('',#1420);
#449=VERTEX_POINT('',#1423);
#450=VERTEX_POINT('',#1425);
#451=VERTEX_POINT('',#1429);
#452=VERTEX_POINT('',#1434);
#453=VERTEX_POINT('',#1436);
#454=VERTEX_POINT('',#1439);
#455=VERTEX_POINT('',#1443);
#456=VERTEX_POINT('',#1448);
#457=VERTEX_POINT('',#1450);
#458=VERTEX_POINT('',#1453);
#459=VERTEX_POINT('',#1457);
#460=VERTEX_POINT('',#1462);
#461=VERTEX_POINT('',#1464);
#462=VERTEX_POINT('',#1466);
#463=VERTEX_POINT('',#1468);
#464=VERTEX_POINT('',#1470);
#465=VERTEX_POINT('',#1472);
#466=VERTEX_POINT('',#1474);
#467=VERTEX_POINT('',#1476);
#468=VERTEX_POINT('',#1478);
#469=VERTEX_POINT('',#1480);
#470=VERTEX_POINT('',#1483);
#471=VERTEX_POINT('',#1485);
#472=VERTEX_POINT('',#1487);
#473=VERTEX_POINT('',#1490);
#474=VERTEX_POINT('',#1491);
#475=VERTEX_POINT('',#1493);
#476=VERTEX_POINT('',#1495);
#477=VERTEX_POINT('',#1499);
#478=VERTEX_POINT('',#1500);
#479=VERTEX_POINT('',#1503);
#480=VERTEX_POINT('',#1505);
#481=VERTEX_POINT('',#1509);
#482=VERTEX_POINT('',#1510);
#483=VERTEX_POINT('',#1512);
#484=VERTEX_POINT('',#1514);
#485=VERTEX_POINT('',#1516);
#486=VERTEX_POINT('',#1518);
#487=VERTEX_POINT('',#1525);
#488=VERTEX_POINT('',#1530);
#489=VERTEX_POINT('',#1535);
#490=VERTEX_POINT('',#1537);
#491=VERTEX_POINT('',#1542);
#492=VERTEX_POINT('',#1544);
#493=EDGE_CURVE('',#415,#415,#369,.T.);
#494=EDGE_CURVE('',#415,#416,#215,.T.);
#495=EDGE_CURVE('',#416,#416,#370,.T.);
#496=EDGE_CURVE('',#416,#417,#216,.T.);
#497=EDGE_CURVE('',#417,#417,#371,.T.);
#498=EDGE_CURVE('',#418,#418,#372,.T.);
#499=EDGE_CURVE('',#418,#419,#217,.T.);
#500=EDGE_CURVE('',#419,#419,#373,.T.);
#501=EDGE_CURVE('',#419,#420,#218,.T.);
#502=EDGE_CURVE('',#420,#420,#374,.T.);
#503=EDGE_CURVE('',#421,#421,#375,.T.);
#504=EDGE_CURVE('',#421,#422,#219,.T.);
#505=EDGE_CURVE('',#422,#422,#376,.T.);
#506=EDGE_CURVE('',#422,#423,#220,.T.);
#507=EDGE_CURVE('',#423,#423,#377,.T.);
#508=EDGE_CURVE('',#424,#425,#378,.T.);
#509=EDGE_CURVE('',#425,#424,#379,.T.);
#510=EDGE_CURVE('',#425,#426,#221,.T.);
#511=EDGE_CURVE('',#426,#426,#380,.T.);
#512=EDGE_CURVE('',#426,#427,#222,.T.);
#513=EDGE_CURVE('',#427,#427,#381,.T.);
#514=EDGE_CURVE('',#428,#428,#382,.T.);
#515=EDGE_CURVE('',#428,#429,#223,.T.);
#516=EDGE_CURVE('',#429,#429,#383,.T.);
#517=EDGE_CURVE('',#429,#430,#224,.T.);
#518=EDGE_CURVE('',#430,#430,#384,.T.);
#519=EDGE_CURVE('',#431,#432,#385,.T.);
#520=EDGE_CURVE('',#432,#431,#386,.T.);
#521=EDGE_CURVE('',#432,#433,#225,.T.);
#522=EDGE_CURVE('',#433,#433,#387,.T.);
#523=EDGE_CURVE('',#433,#434,#226,.T.);
#524=EDGE_CURVE('',#434,#434,#388,.T.);
#525=EDGE_CURVE('',#435,#431,#227,.T.);
#526=EDGE_CURVE('',#432,#435,#228,.T.);
#527=EDGE_CURVE('',#421,#432,#229,.T.);
#528=EDGE_CURVE('',#436,#421,#230,.T.);
#529=EDGE_CURVE('',#436,#424,#231,.T.);
#530=EDGE_CURVE('',#424,#437,#232,.T.);
#531=EDGE_CURVE('',#438,#437,#233,.T.);
#532=EDGE_CURVE('',#431,#438,#234,.T.);
#533=EDGE_CURVE('',#439,#439,#389,.T.);
#534=EDGE_CURVE('',#440,#440,#390,.T.);
#535=EDGE_CURVE('',#440,#441,#235,.T.);
#536=EDGE_CURVE('',#441,#441,#391,.T.);
#537=EDGE_CURVE('',#442,#442,#392,.T.);
#538=EDGE_CURVE('',#442,#443,#236,.T.);
#539=EDGE_CURVE('',#443,#443,#393,.T.);
#540=EDGE_CURVE('',#444,#444,#394,.T.);
#541=EDGE_CURVE('',#444,#445,#237,.T.);
#542=EDGE_CURVE('',#445,#445,#395,.T.);
#543=EDGE_CURVE('',#446,#447,#238,.T.);
#544=EDGE_CURVE('',#446,#447,#396,.T.);
#545=EDGE_CURVE('',#448,#448,#397,.T.);
#546=EDGE_CURVE('',#447,#449,#239,.T.);
#547=EDGE_CURVE('',#450,#446,#240,.T.);
#548=EDGE_CURVE('',#449,#450,#398,.T.);
#549=EDGE_CURVE('',#448,#451,#241,.T.);
#550=EDGE_CURVE('',#451,#451,#399,.T.);
#551=EDGE_CURVE('',#452,#452,#400,.T.);
#552=EDGE_CURVE('',#453,#453,#401,.T.);
#553=EDGE_CURVE('',#454,#454,#402,.T.);
#554=EDGE_CURVE('',#454,#452,#242,.T.);
#555=EDGE_CURVE('',#453,#455,#243,.T.);
#556=EDGE_CURVE('',#455,#455,#403,.T.);
#557=EDGE_CURVE('',#456,#456,#404,.T.);
#558=EDGE_CURVE('',#457,#457,#405,.T.);
#559=EDGE_CURVE('',#458,#458,#406,.T.);
#560=EDGE_CURVE('',#458,#456,#244,.T.);
#561=EDGE_CURVE('',#457,#459,#245,.T.);
#562=EDGE_CURVE('',#459,#459,#407,.T.);
#563=EDGE_CURVE('',#450,#460,#246,.T.);
#564=EDGE_CURVE('',#460,#461,#247,.T.);
#565=EDGE_CURVE('',#461,#462,#248,.T.);
#566=EDGE_CURVE('',#462,#463,#249,.T.);
#567=EDGE_CURVE('',#463,#464,#250,.T.);
#568=EDGE_CURVE('',#464,#465,#251,.T.);
#569=EDGE_CURVE('',#465,#466,#252,.T.);
#570=EDGE_CURVE('',#466,#467,#253,.T.);
#571=EDGE_CURVE('',#467,#468,#254,.T.);
#572=EDGE_CURVE('',#468,#469,#255,.T.);
#573=EDGE_CURVE('',#469,#449,#256,.T.);
#574=EDGE_CURVE('',#470,#470,#408,.T.);
#575=EDGE_CURVE('',#471,#471,#409,.T.);
#576=EDGE_CURVE('',#472,#472,#410,.T.);
#577=EDGE_CURVE('',#473,#474,#257,.T.);
#578=EDGE_CURVE('',#475,#473,#258,.T.);
#579=EDGE_CURVE('',#476,#475,#259,.T.);
#580=EDGE_CURVE('',#476,#474,#260,.T.);
#581=EDGE_CURVE('',#477,#478,#261,.T.);
#582=EDGE_CURVE('',#478,#473,#262,.T.);
#583=EDGE_CURVE('',#474,#479,#263,.T.);
#584=EDGE_CURVE('',#479,#480,#264,.T.);
#585=EDGE_CURVE('',#480,#477,#265,.T.);
#586=EDGE_CURVE('',#481,#482,#266,.T.);
#587=EDGE_CURVE('',#482,#483,#267,.T.);
#588=EDGE_CURVE('',#483,#484,#268,.T.);
#589=EDGE_CURVE('',#484,#485,#269,.T.);
#590=EDGE_CURVE('',#485,#486,#270,.T.);
#591=EDGE_CURVE('',#486,#481,#271,.T.);
#592=EDGE_CURVE('',#437,#485,#272,.T.);
#593=EDGE_CURVE('',#436,#486,#273,.T.);
#594=EDGE_CURVE('',#472,#487,#274,.T.);
#595=EDGE_CURVE('',#487,#487,#411,.T.);
#596=EDGE_CURVE('',#471,#488,#275,.T.);
#597=EDGE_CURVE('',#488,#488,#412,.T.);
#598=EDGE_CURVE('',#489,#489,#413,.T.);
#599=EDGE_CURVE('',#490,#490,#414,.T.);
#600=EDGE_CURVE('',#439,#490,#276,.T.);
#601=EDGE_CURVE('',#491,#475,#277,.T.);
#602=EDGE_CURVE('',#491,#492,#278,.T.);
#603=EDGE_CURVE('',#476,#492,#279,.T.);
#604=EDGE_CURVE('',#467,#477,#280,.T.);
#605=EDGE_CURVE('',#468,#480,#281,.T.);
#606=EDGE_CURVE('',#466,#478,#282,.T.);
#607=EDGE_CURVE('',#491,#465,#283,.T.);
#608=EDGE_CURVE('',#464,#484,#284,.T.);
#609=EDGE_CURVE('',#492,#483,#285,.T.);
#610=EDGE_CURVE('',#463,#438,#286,.T.);
#611=EDGE_CURVE('',#470,#489,#287,.T.);
#612=EDGE_CURVE('',#462,#435,#288,.T.);
#613=EDGE_CURVE('',#461,#481,#289,.T.);
#614=EDGE_CURVE('',#460,#482,#290,.T.);
#615=EDGE_CURVE('',#469,#479,#291,.T.);
#616=ORIENTED_EDGE('',*,*,#493,.F.);
#617=ORIENTED_EDGE('',*,*,#494,.T.);
#618=ORIENTED_EDGE('',*,*,#495,.F.);
#619=ORIENTED_EDGE('',*,*,#494,.F.);
#620=ORIENTED_EDGE('',*,*,#495,.T.);
#621=ORIENTED_EDGE('',*,*,#496,.T.);
#622=ORIENTED_EDGE('',*,*,#497,.F.);
#623=ORIENTED_EDGE('',*,*,#496,.F.);
#624=ORIENTED_EDGE('',*,*,#498,.F.);
#625=ORIENTED_EDGE('',*,*,#499,.T.);
#626=ORIENTED_EDGE('',*,*,#500,.F.);
#627=ORIENTED_EDGE('',*,*,#499,.F.);
#628=ORIENTED_EDGE('',*,*,#500,.T.);
#629=ORIENTED_EDGE('',*,*,#501,.T.);
#630=ORIENTED_EDGE('',*,*,#502,.F.);
#631=ORIENTED_EDGE('',*,*,#501,.F.);
#632=ORIENTED_EDGE('',*,*,#503,.F.);
#633=ORIENTED_EDGE('',*,*,#504,.T.);
#634=ORIENTED_EDGE('',*,*,#505,.F.);
#635=ORIENTED_EDGE('',*,*,#504,.F.);
#636=ORIENTED_EDGE('',*,*,#505,.T.);
#637=ORIENTED_EDGE('',*,*,#506,.T.);
#638=ORIENTED_EDGE('',*,*,#507,.F.);
#639=ORIENTED_EDGE('',*,*,#506,.F.);
#640=ORIENTED_EDGE('',*,*,#508,.F.);
#641=ORIENTED_EDGE('',*,*,#509,.F.);
#642=ORIENTED_EDGE('',*,*,#510,.T.);
#643=ORIENTED_EDGE('',*,*,#511,.F.);
#644=ORIENTED_EDGE('',*,*,#510,.F.);
#645=ORIENTED_EDGE('',*,*,#511,.T.);
#646=ORIENTED_EDGE('',*,*,#512,.T.);
#647=ORIENTED_EDGE('',*,*,#513,.F.);
#648=ORIENTED_EDGE('',*,*,#512,.F.);
#649=ORIENTED_EDGE('',*,*,#514,.F.);
#650=ORIENTED_EDGE('',*,*,#515,.T.);
#651=ORIENTED_EDGE('',*,*,#516,.F.);
#652=ORIENTED_EDGE('',*,*,#515,.F.);
#653=ORIENTED_EDGE('',*,*,#516,.T.);
#654=ORIENTED_EDGE('',*,*,#517,.T.);
#655=ORIENTED_EDGE('',*,*,#518,.F.);
#656=ORIENTED_EDGE('',*,*,#517,.F.);
#657=ORIENTED_EDGE('',*,*,#519,.F.);
#658=ORIENTED_EDGE('',*,*,#520,.F.);
#659=ORIENTED_EDGE('',*,*,#521,.T.);
#660=ORIENTED_EDGE('',*,*,#522,.F.);
#661=ORIENTED_EDGE('',*,*,#521,.F.);
#662=ORIENTED_EDGE('',*,*,#522,.T.);
#663=ORIENTED_EDGE('',*,*,#523,.T.);
#664=ORIENTED_EDGE('',*,*,#524,.F.);
#665=ORIENTED_EDGE('',*,*,#523,.F.);
#666=ORIENTED_EDGE('',*,*,#520,.T.);
#667=ORIENTED_EDGE('',*,*,#525,.F.);
#668=ORIENTED_EDGE('',*,*,#526,.F.);
#669=ORIENTED_EDGE('',*,*,#519,.T.);
#670=ORIENTED_EDGE('',*,*,#527,.F.);
#671=ORIENTED_EDGE('',*,*,#503,.T.);
#672=ORIENTED_EDGE('',*,*,#528,.F.);
#673=ORIENTED_EDGE('',*,*,#529,.T.);
#674=ORIENTED_EDGE('',*,*,#508,.T.);
#675=ORIENTED_EDGE('',*,*,#509,.T.);
#676=ORIENTED_EDGE('',*,*,#530,.T.);
#677=ORIENTED_EDGE('',*,*,#531,.F.);
#678=ORIENTED_EDGE('',*,*,#532,.F.);
#679=ORIENTED_EDGE('',*,*,#533,.F.);
#680=ORIENTED_EDGE('',*,*,#514,.T.);
#681=ORIENTED_EDGE('',*,*,#534,.F.);
#682=ORIENTED_EDGE('',*,*,#535,.T.);
#683=ORIENTED_EDGE('',*,*,#536,.F.);
#684=ORIENTED_EDGE('',*,*,#535,.F.);
#685=ORIENTED_EDGE('',*,*,#537,.F.);
#686=ORIENTED_EDGE('',*,*,#538,.T.);
#687=ORIENTED_EDGE('',*,*,#539,.F.);
#688=ORIENTED_EDGE('',*,*,#538,.F.);
#689=ORIENTED_EDGE('',*,*,#540,.F.);
#690=ORIENTED_EDGE('',*,*,#541,.T.);
#691=ORIENTED_EDGE('',*,*,#542,.F.);
#692=ORIENTED_EDGE('',*,*,#541,.F.);
#693=ORIENTED_EDGE('',*,*,#543,.F.);
#694=ORIENTED_EDGE('',*,*,#544,.T.);
#695=ORIENTED_EDGE('',*,*,#545,.F.);
#696=ORIENTED_EDGE('',*,*,#546,.F.);
#697=ORIENTED_EDGE('',*,*,#544,.F.);
#698=ORIENTED_EDGE('',*,*,#547,.F.);
#699=ORIENTED_EDGE('',*,*,#548,.F.);
#700=ORIENTED_EDGE('',*,*,#545,.T.);
#701=ORIENTED_EDGE('',*,*,#549,.T.);
#702=ORIENTED_EDGE('',*,*,#550,.F.);
#703=ORIENTED_EDGE('',*,*,#549,.F.);
#704=ORIENTED_EDGE('',*,*,#550,.T.);
#705=ORIENTED_EDGE('',*,*,#537,.T.);
#706=ORIENTED_EDGE('',*,*,#551,.T.);
#707=ORIENTED_EDGE('',*,*,#552,.F.);
#708=ORIENTED_EDGE('',*,*,#553,.F.);
#709=ORIENTED_EDGE('',*,*,#554,.T.);
#710=ORIENTED_EDGE('',*,*,#551,.F.);
#711=ORIENTED_EDGE('',*,*,#554,.F.);
#712=ORIENTED_EDGE('',*,*,#552,.T.);
#713=ORIENTED_EDGE('',*,*,#555,.T.);
#714=ORIENTED_EDGE('',*,*,#556,.F.);
#715=ORIENTED_EDGE('',*,*,#555,.F.);
#716=ORIENTED_EDGE('',*,*,#556,.T.);
#717=ORIENTED_EDGE('',*,*,#534,.T.);
#718=ORIENTED_EDGE('',*,*,#557,.T.);
#719=ORIENTED_EDGE('',*,*,#558,.F.);
#720=ORIENTED_EDGE('',*,*,#559,.F.);
#721=ORIENTED_EDGE('',*,*,#560,.T.);
#722=ORIENTED_EDGE('',*,*,#557,.F.);
#723=ORIENTED_EDGE('',*,*,#560,.F.);
#724=ORIENTED_EDGE('',*,*,#558,.T.);
#725=ORIENTED_EDGE('',*,*,#561,.T.);
#726=ORIENTED_EDGE('',*,*,#562,.F.);
#727=ORIENTED_EDGE('',*,*,#561,.F.);
#728=ORIENTED_EDGE('',*,*,#562,.T.);
#729=ORIENTED_EDGE('',*,*,#540,.T.);
#730=ORIENTED_EDGE('',*,*,#548,.T.);
#731=ORIENTED_EDGE('',*,*,#563,.T.);
#732=ORIENTED_EDGE('',*,*,#564,.T.);
#733=ORIENTED_EDGE('',*,*,#565,.T.);
#734=ORIENTED_EDGE('',*,*,#566,.T.);
#735=ORIENTED_EDGE('',*,*,#567,.T.);
#736=ORIENTED_EDGE('',*,*,#568,.T.);
#737=ORIENTED_EDGE('',*,*,#569,.T.);
#738=ORIENTED_EDGE('',*,*,#570,.T.);
#739=ORIENTED_EDGE('',*,*,#571,.T.);
#740=ORIENTED_EDGE('',*,*,#572,.T.);
#741=ORIENTED_EDGE('',*,*,#573,.T.);
#742=ORIENTED_EDGE('',*,*,#497,.T.);
#743=ORIENTED_EDGE('',*,*,#502,.T.);
#744=ORIENTED_EDGE('',*,*,#507,.T.);
#745=ORIENTED_EDGE('',*,*,#513,.T.);
#746=ORIENTED_EDGE('',*,*,#518,.T.);
#747=ORIENTED_EDGE('',*,*,#524,.T.);
#748=ORIENTED_EDGE('',*,*,#574,.T.);
#749=ORIENTED_EDGE('',*,*,#575,.T.);
#750=ORIENTED_EDGE('',*,*,#576,.T.);
#751=ORIENTED_EDGE('',*,*,#559,.T.);
#752=ORIENTED_EDGE('',*,*,#553,.T.);
#753=ORIENTED_EDGE('',*,*,#577,.F.);
#754=ORIENTED_EDGE('',*,*,#578,.F.);
#755=ORIENTED_EDGE('',*,*,#579,.F.);
#756=ORIENTED_EDGE('',*,*,#580,.T.);
#757=ORIENTED_EDGE('',*,*,#581,.T.);
#758=ORIENTED_EDGE('',*,*,#582,.T.);
#759=ORIENTED_EDGE('',*,*,#577,.T.);
#760=ORIENTED_EDGE('',*,*,#583,.T.);
#761=ORIENTED_EDGE('',*,*,#584,.T.);
#762=ORIENTED_EDGE('',*,*,#585,.T.);
#763=ORIENTED_EDGE('',*,*,#542,.T.);
#764=ORIENTED_EDGE('',*,*,#586,.T.);
#765=ORIENTED_EDGE('',*,*,#587,.T.);
#766=ORIENTED_EDGE('',*,*,#588,.T.);
#767=ORIENTED_EDGE('',*,*,#589,.T.);
#768=ORIENTED_EDGE('',*,*,#590,.T.);
#769=ORIENTED_EDGE('',*,*,#591,.T.);
#770=ORIENTED_EDGE('',*,*,#536,.T.);
#771=ORIENTED_EDGE('',*,*,#539,.T.);
#772=ORIENTED_EDGE('',*,*,#590,.F.);
#773=ORIENTED_EDGE('',*,*,#592,.F.);
#774=ORIENTED_EDGE('',*,*,#530,.F.);
#775=ORIENTED_EDGE('',*,*,#529,.F.);
#776=ORIENTED_EDGE('',*,*,#593,.T.);
#777=ORIENTED_EDGE('',*,*,#576,.F.);
#778=ORIENTED_EDGE('',*,*,#594,.T.);
#779=ORIENTED_EDGE('',*,*,#595,.F.);
#780=ORIENTED_EDGE('',*,*,#594,.F.);
#781=ORIENTED_EDGE('',*,*,#595,.T.);
#782=ORIENTED_EDGE('',*,*,#575,.F.);
#783=ORIENTED_EDGE('',*,*,#596,.T.);
#784=ORIENTED_EDGE('',*,*,#597,.T.);
#785=ORIENTED_EDGE('',*,*,#596,.F.);
#786=ORIENTED_EDGE('',*,*,#597,.F.);
#787=ORIENTED_EDGE('',*,*,#598,.T.);
#788=ORIENTED_EDGE('',*,*,#599,.F.);
#789=ORIENTED_EDGE('',*,*,#533,.T.);
#790=ORIENTED_EDGE('',*,*,#600,.T.);
#791=ORIENTED_EDGE('',*,*,#599,.T.);
#792=ORIENTED_EDGE('',*,*,#600,.F.);
#793=ORIENTED_EDGE('',*,*,#579,.T.);
#794=ORIENTED_EDGE('',*,*,#601,.F.);
#795=ORIENTED_EDGE('',*,*,#602,.T.);
#796=ORIENTED_EDGE('',*,*,#603,.F.);
#797=ORIENTED_EDGE('',*,*,#493,.T.);
#798=ORIENTED_EDGE('',*,*,#498,.T.);
#799=ORIENTED_EDGE('',*,*,#571,.F.);
#800=ORIENTED_EDGE('',*,*,#604,.T.);
#801=ORIENTED_EDGE('',*,*,#585,.F.);
#802=ORIENTED_EDGE('',*,*,#605,.F.);
#803=ORIENTED_EDGE('',*,*,#570,.F.);
#804=ORIENTED_EDGE('',*,*,#606,.T.);
#805=ORIENTED_EDGE('',*,*,#581,.F.);
#806=ORIENTED_EDGE('',*,*,#604,.F.);
#807=ORIENTED_EDGE('',*,*,#569,.F.);
#808=ORIENTED_EDGE('',*,*,#607,.F.);
#809=ORIENTED_EDGE('',*,*,#601,.T.);
#810=ORIENTED_EDGE('',*,*,#578,.T.);
#811=ORIENTED_EDGE('',*,*,#582,.F.);
#812=ORIENTED_EDGE('',*,*,#606,.F.);
#813=ORIENTED_EDGE('',*,*,#568,.F.);
#814=ORIENTED_EDGE('',*,*,#608,.T.);
#815=ORIENTED_EDGE('',*,*,#588,.F.);
#816=ORIENTED_EDGE('',*,*,#609,.F.);
#817=ORIENTED_EDGE('',*,*,#602,.F.);
#818=ORIENTED_EDGE('',*,*,#607,.T.);
#819=ORIENTED_EDGE('',*,*,#567,.F.);
#820=ORIENTED_EDGE('',*,*,#610,.T.);
#821=ORIENTED_EDGE('',*,*,#531,.T.);
#822=ORIENTED_EDGE('',*,*,#592,.T.);
#823=ORIENTED_EDGE('',*,*,#589,.F.);
#824=ORIENTED_EDGE('',*,*,#608,.F.);
#825=ORIENTED_EDGE('',*,*,#574,.F.);
#826=ORIENTED_EDGE('',*,*,#611,.T.);
#827=ORIENTED_EDGE('',*,*,#598,.F.);
#828=ORIENTED_EDGE('',*,*,#611,.F.);
#829=ORIENTED_EDGE('',*,*,#566,.F.);
#830=ORIENTED_EDGE('',*,*,#612,.T.);
#831=ORIENTED_EDGE('',*,*,#525,.T.);
#832=ORIENTED_EDGE('',*,*,#532,.T.);
#833=ORIENTED_EDGE('',*,*,#610,.F.);
#834=ORIENTED_EDGE('',*,*,#565,.F.);
#835=ORIENTED_EDGE('',*,*,#613,.T.);
#836=ORIENTED_EDGE('',*,*,#591,.F.);
#837=ORIENTED_EDGE('',*,*,#593,.F.);
#838=ORIENTED_EDGE('',*,*,#528,.T.);
#839=ORIENTED_EDGE('',*,*,#527,.T.);
#840=ORIENTED_EDGE('',*,*,#526,.T.);
#841=ORIENTED_EDGE('',*,*,#612,.F.);
#842=ORIENTED_EDGE('',*,*,#564,.F.);
#843=ORIENTED_EDGE('',*,*,#614,.T.);
#844=ORIENTED_EDGE('',*,*,#586,.F.);
#845=ORIENTED_EDGE('',*,*,#613,.F.);
#846=ORIENTED_EDGE('',*,*,#546,.T.);
#847=ORIENTED_EDGE('',*,*,#573,.F.);
#848=ORIENTED_EDGE('',*,*,#615,.T.);
#849=ORIENTED_EDGE('',*,*,#583,.F.);
#850=ORIENTED_EDGE('',*,*,#580,.F.);
#851=ORIENTED_EDGE('',*,*,#603,.T.);
#852=ORIENTED_EDGE('',*,*,#609,.T.);
#853=ORIENTED_EDGE('',*,*,#587,.F.);
#854=ORIENTED_EDGE('',*,*,#614,.F.);
#855=ORIENTED_EDGE('',*,*,#563,.F.);
#856=ORIENTED_EDGE('',*,*,#547,.T.);
#857=ORIENTED_EDGE('',*,*,#543,.T.);
#858=ORIENTED_EDGE('',*,*,#572,.F.);
#859=ORIENTED_EDGE('',*,*,#605,.T.);
#860=ORIENTED_EDGE('',*,*,#584,.F.);
#861=ORIENTED_EDGE('',*,*,#615,.F.);
#862=CONICAL_SURFACE('',#943,2.36475,0.785398163397448);
#863=CONICAL_SURFACE('',#948,2.36475,0.785398163397448);
#864=CONICAL_SURFACE('',#953,2.36475,0.785398163397448);
#865=CONICAL_SURFACE('',#958,2.36475,0.785398163397448);
#866=CONICAL_SURFACE('',#964,2.36475,0.785398163397448);
#867=CONICAL_SURFACE('',#969,2.36475,0.785398163397448);
#868=ADVANCED_FACE('',(#86),#862,.F.);
#869=ADVANCED_FACE('',(#87),#67,.F.);
#870=ADVANCED_FACE('',(#88),#863,.F.);
#871=ADVANCED_FACE('',(#89),#68,.F.);
#872=ADVANCED_FACE('',(#90),#864,.F.);
#873=ADVANCED_FACE('',(#91),#69,.F.);
#874=ADVANCED_FACE('',(#92),#865,.F.);
#875=ADVANCED_FACE('',(#93),#70,.F.);
#876=ADVANCED_FACE('',(#94),#866,.F.);
#877=ADVANCED_FACE('',(#95),#71,.F.);
#878=ADVANCED_FACE('',(#96),#867,.F.);
#879=ADVANCED_FACE('',(#97),#72,.F.);
#880=ADVANCED_FACE('',(#98),#40,.T.);
#881=ADVANCED_FACE('',(#99,#15,#16),#41,.T.);
#882=ADVANCED_FACE('',(#100),#73,.F.);
#883=ADVANCED_FACE('',(#101),#74,.F.);
#884=ADVANCED_FACE('',(#102),#75,.F.);
#885=ADVANCED_FACE('',(#103,#17),#42,.T.);
#886=ADVANCED_FACE('',(#104),#76,.F.);
#887=ADVANCED_FACE('',(#105),#77,.F.);
#888=ADVANCED_FACE('',(#106,#18),#43,.T.);
#889=ADVANCED_FACE('',(#107,#19),#44,.T.);
#890=ADVANCED_FACE('',(#108),#78,.F.);
#891=ADVANCED_FACE('',(#109),#79,.F.);
#892=ADVANCED_FACE('',(#110,#20),#45,.T.);
#893=ADVANCED_FACE('',(#111,#21),#46,.T.);
#894=ADVANCED_FACE('',(#112),#80,.F.);
#895=ADVANCED_FACE('',(#113),#81,.F.);
#896=ADVANCED_FACE('',(#114,#22),#47,.T.);
#897=ADVANCED_FACE('',(#115,#23,#24,#25,#26,#27,#28,#29,#30,#31,#32,#33),
#48,.F.);
#898=ADVANCED_FACE('',(#116),#49,.T.);
#899=ADVANCED_FACE('',(#117,#34),#50,.F.);
#900=ADVANCED_FACE('',(#118,#35,#36),#51,.F.);
#901=ADVANCED_FACE('',(#119),#52,.T.);
#902=ADVANCED_FACE('',(#120),#82,.F.);
#903=ADVANCED_FACE('',(#121),#53,.T.);
#904=ADVANCED_FACE('',(#122),#83,.F.);
#905=ADVANCED_FACE('',(#123),#54,.T.);
#906=ADVANCED_FACE('',(#124,#37),#55,.F.);
#907=ADVANCED_FACE('',(#125),#84,.F.);
#908=ADVANCED_FACE('',(#126,#38,#39),#56,.T.);
#909=ADVANCED_FACE('',(#127),#57,.T.);
#910=ADVANCED_FACE('',(#128),#58,.T.);
#911=ADVANCED_FACE('',(#129),#59,.T.);
#912=ADVANCED_FACE('',(#130),#60,.T.);
#913=ADVANCED_FACE('',(#131),#61,.T.);
#914=ADVANCED_FACE('',(#132),#85,.F.);
#915=ADVANCED_FACE('',(#133),#62,.T.);
#916=ADVANCED_FACE('',(#134),#63,.T.);
#917=ADVANCED_FACE('',(#135),#64,.T.);
#918=ADVANCED_FACE('',(#136),#65,.T.);
#919=ADVANCED_FACE('',(#137),#66,.T.);
#920=CLOSED_SHELL('',(#868,#869,#870,#871,#872,#873,#874,#875,#876,#877,
#878,#879,#880,#881,#882,#883,#884,#885,#886,#887,#888,#889,#890,#891,#892,
#893,#894,#895,#896,#897,#898,#899,#900,#901,#902,#903,#904,#905,#906,#907,
#908,#909,#910,#911,#912,#913,#914,#915,#916,#917,#918,#919));
#921=DERIVED_UNIT_ELEMENT(#924,1.);
#922=DERIVED_UNIT_ELEMENT(#1575,-3.);
#923=DIMENSIONAL_EXPONENTS(0.,1.,0.,0.,0.,0.,0.);
#924=(
CONVERSION_BASED_UNIT('gram',#926)
MASS_UNIT()
NAMED_UNIT(#923)
);
#925=(
MASS_UNIT()
NAMED_UNIT(*)
SI_UNIT(.KILO.,.GRAM.)
);
#926=MASS_MEASURE_WITH_UNIT(MASS_MEASURE(0.001),#925);
#927=DERIVED_UNIT((#921,#922));
#928=MEASURE_REPRESENTATION_ITEM('density measure',
POSITIVE_RATIO_MEASURE(1.),#927);
#929=PROPERTY_DEFINITION_REPRESENTATION(#934,#931);
#930=PROPERTY_DEFINITION_REPRESENTATION(#935,#932);
#931=REPRESENTATION('material name',(#933),#1572);
#932=REPRESENTATION('density',(#928),#1572);
#933=DESCRIPTIVE_REPRESENTATION_ITEM('Generic','Generic');
#934=PROPERTY_DEFINITION('material property','material name',#1582);
#935=PROPERTY_DEFINITION('material property','density of part',#1582);
#936=DATE_TIME_ROLE('creation_date');
#937=APPLIED_DATE_AND_TIME_ASSIGNMENT(#938,#936,(#1582));
#938=DATE_AND_TIME(#939,#940);
#939=CALENDAR_DATE(2026,4,4);
#940=LOCAL_TIME(0,0,0.,#941);
#941=COORDINATED_UNIVERSAL_TIME_OFFSET(0,0,.BEHIND.);
#942=AXIS2_PLACEMENT_3D('',#1316,#1041,#1042);
#943=AXIS2_PLACEMENT_3D('',#1317,#1043,#1044);
#944=AXIS2_PLACEMENT_3D('',#1319,#1045,#1046);
#945=AXIS2_PLACEMENT_3D('',#1322,#1048,#1049);
#946=AXIS2_PLACEMENT_3D('',#1323,#1050,#1051);
#947=AXIS2_PLACEMENT_3D('',#1326,#1053,#1054);
#948=AXIS2_PLACEMENT_3D('',#1327,#1055,#1056);
#949=AXIS2_PLACEMENT_3D('',#1329,#1057,#1058);
#950=AXIS2_PLACEMENT_3D('',#1332,#1060,#1061);
#951=AXIS2_PLACEMENT_3D('',#1333,#1062,#1063);
#952=AXIS2_PLACEMENT_3D('',#1336,#1065,#1066);
#953=AXIS2_PLACEMENT_3D('',#1337,#1067,#1068);
#954=AXIS2_PLACEMENT_3D('',#1339,#1069,#1070);
#955=AXIS2_PLACEMENT_3D('',#1342,#1072,#1073);
#956=AXIS2_PLACEMENT_3D('',#1343,#1074,#1075);
#957=AXIS2_PLACEMENT_3D('',#1346,#1077,#1078);
#958=AXIS2_PLACEMENT_3D('',#1347,#1079,#1080);
#959=AXIS2_PLACEMENT_3D('',#1350,#1081,#1082);
#960=AXIS2_PLACEMENT_3D('',#1351,#1083,#1084);
#961=AXIS2_PLACEMENT_3D('',#1354,#1086,#1087);
#962=AXIS2_PLACEMENT_3D('',#1355,#1088,#1089);
#963=AXIS2_PLACEMENT_3D('',#1358,#1091,#1092);
#964=AXIS2_PLACEMENT_3D('',#1359,#1093,#1094);
#965=AXIS2_PLACEMENT_3D('',#1361,#1095,#1096);
#966=AXIS2_PLACEMENT_3D('',#1364,#1098,#1099);
#967=AXIS2_PLACEMENT_3D('',#1365,#1100,#1101);
#968=AXIS2_PLACEMENT_3D('',#1368,#1103,#1104);
#969=AXIS2_PLACEMENT_3D('',#1369,#1105,#1106);
#970=AXIS2_PLACEMENT_3D('',#1372,#1107,#1108);
#971=AXIS2_PLACEMENT_3D('',#1373,#1109,#1110);
#972=AXIS2_PLACEMENT_3D('',#1376,#1112,#1113);
#973=AXIS2_PLACEMENT_3D('',#1377,#1114,#1115);
#974=AXIS2_PLACEMENT_3D('',#1380,#1117,#1118);
#975=AXIS2_PLACEMENT_3D('',#1381,#1119,#1120);
#976=AXIS2_PLACEMENT_3D('',#1385,#1123,#1124);
#977=AXIS2_PLACEMENT_3D('',#1396,#1131,#1132);
#978=AXIS2_PLACEMENT_3D('',#1397,#1133,#1134);
#979=AXIS2_PLACEMENT_3D('',#1399,#1135,#1136);
#980=AXIS2_PLACEMENT_3D('',#1402,#1138,#1139);
#981=AXIS2_PLACEMENT_3D('',#1403,#1140,#1141);
#982=AXIS2_PLACEMENT_3D('',#1405,#1142,#1143);
#983=AXIS2_PLACEMENT_3D('',#1408,#1145,#1146);
#984=AXIS2_PLACEMENT_3D('',#1409,#1147,#1148);
#985=AXIS2_PLACEMENT_3D('',#1411,#1149,#1150);
#986=AXIS2_PLACEMENT_3D('',#1414,#1152,#1153);
#987=AXIS2_PLACEMENT_3D('',#1415,#1154,#1155);
#988=AXIS2_PLACEMENT_3D('',#1419,#1157,#1158);
#989=AXIS2_PLACEMENT_3D('',#1421,#1159,#1160);
#990=AXIS2_PLACEMENT_3D('',#1422,#1161,#1162);
#991=AXIS2_PLACEMENT_3D('',#1427,#1165,#1166);
#992=AXIS2_PLACEMENT_3D('',#1428,#1167,#1168);
#993=AXIS2_PLACEMENT_3D('',#1431,#1170,#1171);
#994=AXIS2_PLACEMENT_3D('',#1432,#1172,#1173);
#995=AXIS2_PLACEMENT_3D('',#1433,#1174,#1175);
#996=AXIS2_PLACEMENT_3D('',#1435,#1176,#1177);
#997=AXIS2_PLACEMENT_3D('',#1437,#1178,#1179);
#998=AXIS2_PLACEMENT_3D('',#1438,#1180,#1181);
#999=AXIS2_PLACEMENT_3D('',#1440,#1182,#1183);
#1000=AXIS2_PLACEMENT_3D('',#1442,#1185,#1186);
#1001=AXIS2_PLACEMENT_3D('',#1445,#1188,#1189);
#1002=AXIS2_PLACEMENT_3D('',#1446,#1190,#1191);
#1003=AXIS2_PLACEMENT_3D('',#1447,#1192,#1193);
#1004=AXIS2_PLACEMENT_3D('',#1449,#1194,#1195);
#1005=AXIS2_PLACEMENT_3D('',#1451,#1196,#1197);
#1006=AXIS2_PLACEMENT_3D('',#1452,#1198,#1199);
#1007=AXIS2_PLACEMENT_3D('',#1454,#1200,#1201);
#1008=AXIS2_PLACEMENT_3D('',#1456,#1203,#1204);
#1009=AXIS2_PLACEMENT_3D('',#1459,#1206,#1207);
#1010=AXIS2_PLACEMENT_3D('',#1460,#1208,#1209);
#1011=AXIS2_PLACEMENT_3D('',#1461,#1210,#1211);
#1012=AXIS2_PLACEMENT_3D('',#1484,#1223,#1224);
#1013=AXIS2_PLACEMENT_3D('',#1486,#1225,#1226);
#1014=AXIS2_PLACEMENT_3D('',#1488,#1227,#1228);
#1015=AXIS2_PLACEMENT_3D('',#1489,#1229,#1230);
#1016=AXIS2_PLACEMENT_3D('',#1498,#1235,#1236);
#1017=AXIS2_PLACEMENT_3D('',#1508,#1242,#1243);
#1018=AXIS2_PLACEMENT_3D('',#1521,#1250,#1251);
#1019=AXIS2_PLACEMENT_3D('',#1524,#1254,#1255);
#1020=AXIS2_PLACEMENT_3D('',#1527,#1257,#1258);
#1021=AXIS2_PLACEMENT_3D('',#1528,#1259,#1260);
#1022=AXIS2_PLACEMENT_3D('',#1529,#1261,#1262);
#1023=AXIS2_PLACEMENT_3D('',#1532,#1264,#1265);
#1024=AXIS2_PLACEMENT_3D('',#1533,#1266,#1267);
#1025=AXIS2_PLACEMENT_3D('',#1534,#1268,#1269);
#1026=AXIS2_PLACEMENT_3D('',#1536,#1270,#1271);
#1027=AXIS2_PLACEMENT_3D('',#1538,#1272,#1273);
#1028=AXIS2_PLACEMENT_3D('',#1539,#1274,#1275);
#1029=AXIS2_PLACEMENT_3D('',#1541,#1277,#1278);
#1030=AXIS2_PLACEMENT_3D('',#1547,#1282,#1283);
#1031=AXIS2_PLACEMENT_3D('',#1550,#1286,#1287);
#1032=AXIS2_PLACEMENT_3D('',#1552,#1289,#1290);
#1033=AXIS2_PLACEMENT_3D('',#1554,#1292,#1293);
#1034=AXIS2_PLACEMENT_3D('',#1557,#1296,#1297);
#1035=AXIS2_PLACEMENT_3D('',#1559,#1299,#1300);
#1036=AXIS2_PLACEMENT_3D('',#1561,#1302,#1303);
#1037=AXIS2_PLACEMENT_3D('',#1563,#1305,#1306);
#1038=AXIS2_PLACEMENT_3D('',#1565,#1308,#1309);
#1039=AXIS2_PLACEMENT_3D('',#1567,#1311,#1312);
#1040=AXIS2_PLACEMENT_3D('',#1569,#1314,#1315);
#1041=DIRECTION('axis',(0.,0.,1.));
#1042=DIRECTION('refdir',(1.,0.,0.));
#1043=DIRECTION('center_axis',(-1.00029200686439E-15,-5.71024204623267E-16,
1.));
#1044=DIRECTION('ref_axis',(0.924876197734554,0.380268351120724,1.14228870067512E-15));
#1045=DIRECTION('center_axis',(1.00029200686439E-15,5.71024204623267E-16,
-1.));
#1046=DIRECTION('ref_axis',(0.924876197734554,0.380268351120724,1.14228870067512E-15));
#1047=DIRECTION('',(0.653986231176134,0.268890329748091,-0.707106781186547));
#1048=DIRECTION('center_axis',(-1.00029200686439E-15,-5.71024204623267E-16,
1.));
#1049=DIRECTION('ref_axis',(0.924876197734554,0.380268351120724,1.14228870067512E-15));
#1050=DIRECTION('center_axis',(-1.00029200686439E-15,-5.71024204623267E-16,
1.));
#1051=DIRECTION('ref_axis',(0.924876197734554,0.380268351120724,1.14228870067512E-15));
#1052=DIRECTION('',(1.00029200686439E-15,5.71024204623267E-16,-1.));
#1053=DIRECTION('center_axis',(9.03782493391133E-16,-1.27414469231791E-16,
1.));
#1054=DIRECTION('ref_axis',(0.924876197734554,0.380268351120724,1.14228870067512E-15));
#1055=DIRECTION('center_axis',(-1.00029200686439E-15,-5.71024204623267E-16,
1.));
#1056=DIRECTION('ref_axis',(0.924876197734554,0.380268351120724,1.14228870067512E-15));
#1057=DIRECTION('center_axis',(1.00029200686439E-15,5.71024204623267E-16,
-1.));
#1058=DIRECTION('ref_axis',(0.924876197734554,0.380268351120724,1.14228870067512E-15));
#1059=DIRECTION('',(0.653986231176134,0.268890329748091,-0.707106781186547));
#1060=DIRECTION('center_axis',(-1.00029200686439E-15,-5.71024204623267E-16,
1.));
#1061=DIRECTION('ref_axis',(0.924876197734554,0.380268351120724,1.14228870067512E-15));
#1062=DIRECTION('center_axis',(-1.00029200686439E-15,-5.71024204623267E-16,
1.));
#1063=DIRECTION('ref_axis',(0.924876197734554,0.380268351120724,1.14228870067512E-15));
#1064=DIRECTION('',(1.00029200686439E-15,5.71024204623267E-16,-1.));
#1065=DIRECTION('center_axis',(9.03782493391133E-16,-1.27414469231791E-16,
1.));
#1066=DIRECTION('ref_axis',(0.924876197734554,0.380268351120724,1.14228870067512E-15));
#1067=DIRECTION('center_axis',(-1.00029200686439E-15,-5.71024204623267E-16,
1.));
#1068=DIRECTION('ref_axis',(0.924876197734554,0.380268351120724,1.14228870067512E-15));
#1069=DIRECTION('center_axis',(1.00029200686439E-15,5.71024204623267E-16,
-1.));
#1070=DIRECTION('ref_axis',(0.924876197734554,0.380268351120724,1.14228870067512E-15));
#1071=DIRECTION('',(0.653986231176134,0.268890329748091,-0.707106781186547));
#1072=DIRECTION('center_axis',(-1.00029200686439E-15,-5.71024204623267E-16,
1.));
#1073=DIRECTION('ref_axis',(0.924876197734554,0.380268351120724,1.14228870067512E-15));
#1074=DIRECTION('center_axis',(-1.00029200686439E-15,-5.71024204623267E-16,
1.));
#1075=DIRECTION('ref_axis',(0.924876197734554,0.380268351120724,1.14228870067512E-15));
#1076=DIRECTION('',(1.00029200686439E-15,5.71024204623267E-16,-1.));
#1077=DIRECTION('center_axis',(9.03782493391133E-16,-1.27414469231791E-16,
1.));
#1078=DIRECTION('ref_axis',(0.924876197734554,0.380268351120724,1.14228870067512E-15));
#1079=DIRECTION('center_axis',(-1.00029200686439E-15,-5.71024204623267E-16,
1.));
#1080=DIRECTION('ref_axis',(0.924876197734554,0.380268351120724,1.14228870067512E-15));
#1081=DIRECTION('center_axis',(1.00029200686439E-15,5.71024204623267E-16,
-1.));
#1082=DIRECTION('ref_axis',(0.924876197734554,0.380268351120724,1.14228870067512E-15));
#1083=DIRECTION('center_axis',(1.00029200686439E-15,5.71024204623267E-16,
-1.));
#1084=DIRECTION('ref_axis',(0.924876197734554,0.380268351120724,1.14228870067512E-15));
#1085=DIRECTION('',(0.653986231176134,0.268890329748091,-0.707106781186547));
#1086=DIRECTION('center_axis',(-1.00029200686439E-15,-5.71024204623267E-16,
1.));
#1087=DIRECTION('ref_axis',(0.924876197734554,0.380268351120724,1.14228870067512E-15));
#1088=DIRECTION('center_axis',(-1.00029200686439E-15,-5.71024204623267E-16,
1.));
#1089=DIRECTION('ref_axis',(0.924876197734554,0.380268351120724,1.14228870067512E-15));
#1090=DIRECTION('',(1.00029200686439E-15,5.71024204623267E-16,-1.));
#1091=DIRECTION('center_axis',(9.03782493391133E-16,-1.27414469231791E-16,
1.));
#1092=DIRECTION('ref_axis',(0.924876197734554,0.380268351120724,1.14228870067512E-15));
#1093=DIRECTION('center_axis',(-1.00029200686439E-15,-5.71024204623267E-16,
1.));
#1094=DIRECTION('ref_axis',(0.924876197734554,0.380268351120724,1.14228870067512E-15));
#1095=DIRECTION('center_axis',(1.00029200686439E-15,5.71024204623267E-16,
-1.));
#1096=DIRECTION('ref_axis',(0.924876197734554,0.380268351120724,1.14228870067512E-15));
#1097=DIRECTION('',(0.653986231176134,0.268890329748091,-0.707106781186547));
#1098=DIRECTION('center_axis',(-1.00029200686439E-15,-5.71024204623267E-16,
1.));
#1099=DIRECTION('ref_axis',(0.924876197734554,0.380268351120724,1.14228870067512E-15));
#1100=DIRECTION('center_axis',(-1.00029200686439E-15,-5.71024204623267E-16,
1.));
#1101=DIRECTION('ref_axis',(0.924876197734554,0.380268351120724,1.14228870067512E-15));
#1102=DIRECTION('',(1.00029200686439E-15,5.71024204623267E-16,-1.));
#1103=DIRECTION('center_axis',(9.03782493391133E-16,-1.27414469231791E-16,
1.));
#1104=DIRECTION('ref_axis',(0.924876197734554,0.380268351120724,1.14228870067512E-15));
#1105=DIRECTION('center_axis',(-1.00029200686439E-15,-5.71024204623267E-16,
1.));
#1106=DIRECTION('ref_axis',(0.924876197734554,0.380268351120724,1.14228870067512E-15));
#1107=DIRECTION('center_axis',(1.00029200686439E-15,5.71024204623267E-16,
-1.));
#1108=DIRECTION('ref_axis',(0.924876197734554,0.380268351120724,1.14228870067512E-15));
#1109=DIRECTION('center_axis',(1.00029200686439E-15,5.71024204623267E-16,
-1.));
#1110=DIRECTION('ref_axis',(0.924876197734554,0.380268351120724,1.14228870067512E-15));
#1111=DIRECTION('',(0.653986231176134,0.268890329748091,-0.707106781186547));
#1112=DIRECTION('center_axis',(-1.00029200686439E-15,-5.71024204623267E-16,
1.));
#1113=DIRECTION('ref_axis',(0.924876197734554,0.380268351120724,1.14228870067512E-15));
#1114=DIRECTION('center_axis',(-1.00029200686439E-15,-5.71024204623267E-16,
1.));
#1115=DIRECTION('ref_axis',(0.924876197734554,0.380268351120724,1.14228870067512E-15));
#1116=DIRECTION('',(1.00029200686439E-15,5.71024204623267E-16,-1.));
#1117=DIRECTION('center_axis',(9.03782493391133E-16,-1.27414469231791E-16,
1.));
#1118=DIRECTION('ref_axis',(0.924876197734554,0.380268351120724,1.14228870067512E-15));
#1119=DIRECTION('center_axis',(-1.00029200686439E-15,-5.71024204623267E-16,
1.));
#1120=DIRECTION('ref_axis',(1.,0.,1.00029200686439E-15));
#1121=DIRECTION('',(0.924876197734554,0.380268351120724,1.14228870067512E-15));
#1122=DIRECTION('',(-0.380268351120723,0.924876197734554,1.47747303096805E-16));
#1123=DIRECTION('center_axis',(-1.00029200686439E-15,-5.71024204623267E-16,
1.));
#1124=DIRECTION('ref_axis',(1.,0.,1.00029200686439E-15));
#1125=DIRECTION('',(-0.380268351120723,0.924876197734554,1.47747303096805E-16));
#1126=DIRECTION('',(-0.380268351120723,0.924876197734554,1.47747303096805E-16));
#1127=DIRECTION('',(0.924876197734554,0.380268351120723,1.14228870067512E-15));
#1128=DIRECTION('',(0.924876197734554,0.380268351120723,1.14228870067512E-15));
#1129=DIRECTION('',(0.380268351120723,-0.924876197734554,-1.47747303096804E-16));
#1130=DIRECTION('',(0.924876197734554,0.380268351120724,1.14228870067512E-15));
#1131=DIRECTION('center_axis',(-1.00029200686439E-15,-5.71024204623267E-16,
1.));
#1132=DIRECTION('ref_axis',(-1.,0.,0.));
#1133=DIRECTION('center_axis',(-9.03782493391133E-16,1.27414469231791E-16,
-1.));
#1134=DIRECTION('ref_axis',(-0.924876197734554,-0.380268351120723,7.8743522594295E-16));
#1135=DIRECTION('center_axis',(9.03782493391133E-16,-1.27414469231791E-16,
1.));
#1136=DIRECTION('ref_axis',(-0.924876197734554,-0.380268351120723,7.8743522594295E-16));
#1137=DIRECTION('',(9.03782493391133E-16,-1.27414469231791E-16,1.));
#1138=DIRECTION('center_axis',(2.74605643242893E-15,-9.62000824297579E-15,
-1.));
#1139=DIRECTION('ref_axis',(-0.924876197734554,-0.380268351120723,7.8743522594295E-16));
#1140=DIRECTION('center_axis',(-9.03782493391133E-16,1.27414469231791E-16,
-1.));
#1141=DIRECTION('ref_axis',(-0.924876197734554,-0.380268351120723,7.8743522594295E-16));
#1142=DIRECTION('center_axis',(9.03782493391133E-16,-1.27414469231791E-16,
1.));
#1143=DIRECTION('ref_axis',(-0.924876197734554,-0.380268351120723,7.8743522594295E-16));
#1144=DIRECTION('',(9.03782493391133E-16,-1.27414469231791E-16,1.));
#1145=DIRECTION('center_axis',(2.74605643242893E-15,-9.62000824297579E-15,
-1.));
#1146=DIRECTION('ref_axis',(-0.924876197734554,-0.380268351120723,7.8743522594295E-16));
#1147=DIRECTION('center_axis',(-9.03782493391133E-16,1.27414469231791E-16,
-1.));
#1148=DIRECTION('ref_axis',(-0.924876197734554,-0.380268351120723,7.8743522594295E-16));
#1149=DIRECTION('center_axis',(9.03782493391133E-16,-1.27414469231791E-16,
1.));
#1150=DIRECTION('ref_axis',(-0.924876197734554,-0.380268351120723,7.8743522594295E-16));
#1151=DIRECTION('',(9.03782493391133E-16,-1.27414469231791E-16,1.));
#1152=DIRECTION('center_axis',(2.74605643242893E-15,-9.62000824297579E-15,
-1.));
#1153=DIRECTION('ref_axis',(-0.924876197734554,-0.380268351120723,7.8743522594295E-16));
#1154=DIRECTION('center_axis',(-9.03782493391133E-16,1.27414469231791E-16,
-1.));
#1155=DIRECTION('ref_axis',(-0.924876197734554,-0.380268351120723,7.8743522594295E-16));
#1156=DIRECTION('',(0.380268351120723,-0.924876197734554,-4.61522488373087E-16));
#1157=DIRECTION('center_axis',(-9.03782493391133E-16,1.27414469231791E-16,
-1.));
#1158=DIRECTION('ref_axis',(-0.924876197734554,-0.380268351120723,7.8743522594295E-16));
#1159=DIRECTION('center_axis',(-9.03782493391133E-16,1.27414469231791E-16,
-1.));
#1160=DIRECTION('ref_axis',(-0.924876197734554,-0.380268351120723,7.8743522594295E-16));
#1161=DIRECTION('center_axis',(-9.03782493391133E-16,1.27414469231791E-16,
-1.));
#1162=DIRECTION('ref_axis',(0.924876197734555,0.380268351120723,-7.87435225942951E-16));
#1163=DIRECTION('',(-9.03782493391133E-16,1.27414469231791E-16,-1.));
#1164=DIRECTION('',(9.03782493391133E-16,-1.27414469231791E-16,1.));
#1165=DIRECTION('center_axis',(9.03782493391133E-16,-1.27414469231791E-16,
1.));
#1166=DIRECTION('ref_axis',(-0.924876197734554,-0.380268351120723,7.8743522594295E-16));
#1167=DIRECTION('center_axis',(-9.03782493391133E-16,1.27414469231791E-16,
-1.));
#1168=DIRECTION('ref_axis',(-0.924876197734554,-0.380268351120723,7.8743522594295E-16));
#1169=DIRECTION('',(9.03782493391133E-16,-1.27414469231791E-16,1.));
#1170=DIRECTION('center_axis',(-9.03782493391133E-16,1.27414469231791E-16,
-1.));
#1171=DIRECTION('ref_axis',(-0.924876197734554,-0.380268351120723,7.8743522594295E-16));
#1172=DIRECTION('center_axis',(-9.03782493391133E-16,1.27414469231791E-16,
-1.));
#1173=DIRECTION('ref_axis',(-0.924876197734554,-0.380268351120723,7.8743522594295E-16));
#1174=DIRECTION('center_axis',(-9.03782493391133E-16,1.27414469231791E-16,
-1.));
#1175=DIRECTION('ref_axis',(-0.924876197734554,-0.380268351120723,7.8743522594295E-16));
#1176=DIRECTION('center_axis',(-9.03782493391133E-16,1.27414469231791E-16,
-1.));
#1177=DIRECTION('ref_axis',(-0.924876197734554,-0.380268351120723,7.8743522594295E-16));
#1178=DIRECTION('center_axis',(-9.03782493391133E-16,1.27414469231791E-16,
-1.));
#1179=DIRECTION('ref_axis',(-0.924876197734554,-0.380268351120723,7.8743522594295E-16));
#1180=DIRECTION('center_axis',(-9.03782493391133E-16,1.27414469231791E-16,
-1.));
#1181=DIRECTION('ref_axis',(-0.924876197734554,-0.380268351120723,7.8743522594295E-16));
#1182=DIRECTION('center_axis',(9.03782493391133E-16,-1.27414469231791E-16,
1.));
#1183=DIRECTION('ref_axis',(-0.924876197734554,-0.380268351120723,7.8743522594295E-16));
#1184=DIRECTION('',(9.03782493391133E-16,-1.27414469231791E-16,1.));
#1185=DIRECTION('center_axis',(-9.03782493391133E-16,1.27414469231791E-16,
-1.));
#1186=DIRECTION('ref_axis',(-0.924876197734554,-0.380268351120723,7.8743522594295E-16));
#1187=DIRECTION('',(9.03782493391133E-16,-1.27414469231791E-16,1.));
#1188=DIRECTION('center_axis',(-9.03782493391133E-16,1.27414469231791E-16,
-1.));
#1189=DIRECTION('ref_axis',(-0.924876197734554,-0.380268351120723,7.8743522594295E-16));
#1190=DIRECTION('center_axis',(-9.03782493391133E-16,1.27414469231791E-16,
-1.));
#1191=DIRECTION('ref_axis',(-0.924876197734554,-0.380268351120723,7.8743522594295E-16));
#1192=DIRECTION('center_axis',(-9.03782493391133E-16,1.27414469231791E-16,
-1.));
#1193=DIRECTION('ref_axis',(-0.924876197734554,-0.380268351120723,7.8743522594295E-16));
#1194=DIRECTION('center_axis',(-9.03782493391133E-16,1.27414469231791E-16,
-1.));
#1195=DIRECTION('ref_axis',(-0.924876197734554,-0.380268351120723,7.8743522594295E-16));
#1196=DIRECTION('center_axis',(-9.03782493391133E-16,1.27414469231791E-16,
-1.));
#1197=DIRECTION('ref_axis',(-0.924876197734554,-0.380268351120723,7.8743522594295E-16));
#1198=DIRECTION('center_axis',(-9.03782493391133E-16,1.27414469231791E-16,
-1.));
#1199=DIRECTION('ref_axis',(-0.924876197734554,-0.380268351120723,7.8743522594295E-16));
#1200=DIRECTION('center_axis',(9.03782493391133E-16,-1.27414469231791E-16,
1.));
#1201=DIRECTION('ref_axis',(-0.924876197734554,-0.380268351120723,7.8743522594295E-16));
#1202=DIRECTION('',(9.03782493391133E-16,-1.27414469231791E-16,1.));
#1203=DIRECTION('center_axis',(-9.03782493391133E-16,1.27414469231791E-16,
-1.));
#1204=DIRECTION('ref_axis',(-0.924876197734554,-0.380268351120723,7.8743522594295E-16));
#1205=DIRECTION('',(9.03782493391133E-16,-1.27414469231791E-16,1.));
#1206=DIRECTION('center_axis',(-9.03782493391133E-16,1.27414469231791E-16,
-1.));
#1207=DIRECTION('ref_axis',(-0.924876197734554,-0.380268351120723,7.8743522594295E-16));
#1208=DIRECTION('center_axis',(-9.03782493391133E-16,1.27414469231791E-16,
-1.));
#1209=DIRECTION('ref_axis',(-0.924876197734554,-0.380268351120723,7.8743522594295E-16));
#1210=DIRECTION('center_axis',(9.03782493391133E-16,-1.27414469231791E-16,
1.));
#1211=DIRECTION('ref_axis',(1.,0.,-9.03782493391133E-16));
#1212=DIRECTION('',(-0.380268351120723,0.924876197734554,4.61522488373087E-16));
#1213=DIRECTION('',(-0.924876197734554,-0.380268351120724,7.8743522594295E-16));
#1214=DIRECTION('',(-0.380268351120723,0.924876197734554,4.61522488373086E-16));
#1215=DIRECTION('',(0.924876197734554,0.380268351120724,-7.8743522594295E-16));
#1216=DIRECTION('',(0.380268351120723,-0.924876197734554,-4.61522488373087E-16));
#1217=DIRECTION('',(-0.924876197734554,-0.380268351120723,7.8743522594295E-16));
#1218=DIRECTION('',(0.380268351120723,-0.924876197734554,-4.61522488373087E-16));
#1219=DIRECTION('',(0.924876197734554,0.380268351120724,-7.8743522594295E-16));
#1220=DIRECTION('',(0.380268351120723,-0.924876197734554,-4.61522488373087E-16));
#1221=DIRECTION('',(-0.924876197734554,-0.380268351120723,7.8743522594295E-16));
#1222=DIRECTION('',(-0.380268351120723,0.924876197734554,4.61522488373087E-16));
#1223=DIRECTION('center_axis',(9.03782493391133E-16,-1.27414469231791E-16,
1.));
#1224=DIRECTION('ref_axis',(-1.,0.,0.));
#1225=DIRECTION('center_axis',(9.03782493391133E-16,-1.27414469231791E-16,
1.));
#1226=DIRECTION('ref_axis',(-0.924876197734554,-0.380268351120723,8.98466493446087E-16));
#1227=DIRECTION('center_axis',(9.03782493391133E-16,-1.27414469231791E-16,
1.));
#1228=DIRECTION('ref_axis',(-0.924876197734554,-0.380268351120723,7.8743522594295E-16));
#1229=DIRECTION('center_axis',(-0.380268351120723,0.924876197734554,7.05134267636444E-17));
#1230=DIRECTION('ref_axis',(-0.924876197734554,-0.380268351120723,-1.14228870067512E-15));
#1231=DIRECTION('',(-0.924876197734554,-0.380268351120723,1.11842244033478E-15));
#1232=DIRECTION('',(-8.58143400672687E-16,-4.29071700336343E-16,1.));
#1233=DIRECTION('',(0.924876197734554,0.380268351120723,1.14228870067512E-15));
#1234=DIRECTION('',(-8.58143400672687E-16,-4.29071700336343E-16,1.));
#1235=DIRECTION('center_axis',(2.74605643242893E-15,-9.62000824297579E-15,
-1.));
#1236=DIRECTION('ref_axis',(-1.,0.,-2.74605643242893E-15));
#1237=DIRECTION('',(-0.924876197734553,-0.380268351120726,1.11842244033481E-15));
#1238=DIRECTION('',(-0.380268351120723,0.924876197734554,-9.94155499758272E-15));
#1239=DIRECTION('',(0.380268351120723,-0.924876197734554,9.94155499758272E-15));
#1240=DIRECTION('',(0.924876197734554,0.380268351120723,-1.11842244033478E-15));
#1241=DIRECTION('',(-0.380268351120723,0.924876197734554,-9.94155499758272E-15));
#1242=DIRECTION('center_axis',(2.74605643242893E-15,-9.62000824297579E-15,
-1.));
#1243=DIRECTION('ref_axis',(-1.,0.,-2.74605643242893E-15));
#1244=DIRECTION('',(0.924876197734554,0.380268351120724,-1.11842244033479E-15));
#1245=DIRECTION('',(0.380268351120723,-0.924876197734554,9.94155499758272E-15));
#1246=DIRECTION('',(0.924876197734554,0.380268351120723,-1.11842244033478E-15));
#1247=DIRECTION('',(-0.380268351120723,0.924876197734554,-9.94155499758272E-15));
#1248=DIRECTION('',(-0.924876197734554,-0.380268351120723,1.11842244033478E-15));
#1249=DIRECTION('',(0.380268351120723,-0.924876197734554,9.94155499758272E-15));
#1250=DIRECTION('center_axis',(-0.380268351120723,0.924876197734554,9.32753126384485E-18));
#1251=DIRECTION('ref_axis',(-0.924876197734554,-0.380268351120723,-1.14228870067512E-15));
#1252=DIRECTION('',(-1.01904528829882E-15,-4.29071700336343E-16,1.));
#1253=DIRECTION('',(-1.01904528829882E-15,-4.29071700336343E-16,1.));
#1254=DIRECTION('center_axis',(-9.03782493391133E-16,1.27414469231791E-16,
-1.));
#1255=DIRECTION('ref_axis',(-0.924876197734554,-0.380268351120723,7.8743522594295E-16));
#1256=DIRECTION('',(9.03782493391133E-16,-1.27414469231791E-16,1.));
#1257=DIRECTION('center_axis',(-9.03782493391133E-16,1.27414469231791E-16,
-1.));
#1258=DIRECTION('ref_axis',(-0.924876197734554,-0.380268351120723,7.8743522594295E-16));
#1259=DIRECTION('center_axis',(-9.03782493391133E-16,1.27414469231791E-16,
-1.));
#1260=DIRECTION('ref_axis',(-0.924876197734554,-0.380268351120723,7.8743522594295E-16));
#1261=DIRECTION('center_axis',(9.71445146547012E-16,0.,1.));
#1262=DIRECTION('ref_axis',(-0.924876197734554,-0.380268351120723,8.98466493446087E-16));
#1263=DIRECTION('',(9.71445146547012E-16,0.,1.));
#1264=DIRECTION('center_axis',(9.03782493391133E-16,-1.27414469231791E-16,
1.));
#1265=DIRECTION('ref_axis',(-0.924876197734554,-0.380268351120723,7.8743522594295E-16));
#1266=DIRECTION('center_axis',(-9.03782493391133E-16,1.27414469231791E-16,
-1.));
#1267=DIRECTION('ref_axis',(-1.,0.,9.03782493391133E-16));
#1268=DIRECTION('center_axis',(0.,0.,1.));
#1269=DIRECTION('ref_axis',(1.,0.,0.));
#1270=DIRECTION('center_axis',(0.,0.,-1.));
#1271=DIRECTION('ref_axis',(-1.,0.,0.));
#1272=DIRECTION('center_axis',(0.,0.,-1.));
#1273=DIRECTION('ref_axis',(-1.,0.,0.));
#1274=DIRECTION('center_axis',(0.,0.,1.));
#1275=DIRECTION('ref_axis',(-1.,0.,0.));
#1276=DIRECTION('',(0.,0.,-1.));
#1277=DIRECTION('center_axis',(-1.00029200686439E-15,-5.71024204623267E-16,
1.));
#1278=DIRECTION('ref_axis',(1.,0.,1.00029200686439E-15));
#1279=DIRECTION('',(0.380268351120723,-0.924876197734554,-1.47747303096804E-16));
#1280=DIRECTION('',(-0.924876197734554,-0.380268351120723,-1.14228870067512E-15));
#1281=DIRECTION('',(-0.380268351120723,0.924876197734554,1.47747303096804E-16));
#1282=DIRECTION('center_axis',(0.924876197734554,0.380268351120723,0.));
#1283=DIRECTION('ref_axis',(0.380268351120723,-0.924876197734554,0.));
#1284=DIRECTION('',(0.,0.,1.));
#1285=DIRECTION('',(0.,0.,1.));
#1286=DIRECTION('center_axis',(-0.380268351120724,0.924876197734554,0.));
#1287=DIRECTION('ref_axis',(0.924876197734554,0.380268351120724,0.));
#1288=DIRECTION('',(0.,0.,1.));
#1289=DIRECTION('center_axis',(0.924876197734554,0.380268351120723,0.));
#1290=DIRECTION('ref_axis',(0.380268351120723,-0.924876197734554,0.));
#1291=DIRECTION('',(0.,0.,-1.));
#1292=DIRECTION('center_axis',(0.380268351120723,-0.924876197734554,0.));
#1293=DIRECTION('ref_axis',(-0.924876197734554,-0.380268351120723,0.));
#1294=DIRECTION('',(-1.01904528829882E-15,-4.29071700336343E-16,1.));
#1295=DIRECTION('',(-1.01904528829882E-15,-4.29071700336343E-16,1.));
#1296=DIRECTION('center_axis',(0.924876197734554,0.380268351120723,0.));
#1297=DIRECTION('ref_axis',(0.380268351120723,-0.924876197734554,0.));
#1298=DIRECTION('',(0.,0.,1.));
#1299=DIRECTION('center_axis',(0.,0.,-1.));
#1300=DIRECTION('ref_axis',(-1.,0.,0.));
#1301=DIRECTION('',(0.,0.,1.));
#1302=DIRECTION('center_axis',(-0.380268351120724,0.924876197734554,0.));
#1303=DIRECTION('ref_axis',(0.924876197734554,0.380268351120724,0.));
#1304=DIRECTION('',(0.,0.,1.));
#1305=DIRECTION('center_axis',(-0.924876197734554,-0.380268351120723,0.));
#1306=DIRECTION('ref_axis',(-0.380268351120723,0.924876197734554,0.));
#1307=DIRECTION('',(0.,0.,1.));
#1308=DIRECTION('center_axis',(0.380268351120724,-0.924876197734554,0.));
#1309=DIRECTION('ref_axis',(-0.924876197734554,-0.380268351120724,0.));
#1310=DIRECTION('',(0.,0.,1.));
#1311=DIRECTION('center_axis',(-0.924876197734554,-0.380268351120723,0.));
#1312=DIRECTION('ref_axis',(-0.380268351120723,0.924876197734554,0.));
#1313=DIRECTION('',(0.,0.,1.));
#1314=DIRECTION('center_axis',(0.380268351120723,-0.924876197734554,0.));
#1315=DIRECTION('ref_axis',(-0.924876197734554,-0.380268351120723,0.));
#1316=CARTESIAN_POINT('',(0.,0.,0.));
#1317=CARTESIAN_POINT('Origin',(22.4231687400294,-24.5619425502288,1.16474999999996));
#1318=CARTESIAN_POINT('',(19.1861020479584,-25.8928817791514,2.29999999999996));
#1319=CARTESIAN_POINT('Origin',(22.4231687400294,-24.5619425502288,2.29999999999996));
#1320=CARTESIAN_POINT('',(21.2860334549148,-25.0294824879318,0.0294999999999582));
#1321=CARTESIAN_POINT('',(20.2360677514366,-25.4611821335416,1.16474999999996));
#1322=CARTESIAN_POINT('Origin',(22.4231687400294,-24.5619425502288,0.0294999999999612));
#1323=CARTESIAN_POINT('Origin',(22.4231687400295,-24.5619425502288,-83.7300751049109));
#1324=CARTESIAN_POINT('',(21.2860334549147,-25.0294824879318,-0.199999999999802));
#1325=CARTESIAN_POINT('',(21.2860334549148,-25.0294824879317,-83.7300751049109));
#1326=CARTESIAN_POINT('Origin',(22.4231687400294,-24.5619425502288,-0.1999999999998));
#1327=CARTESIAN_POINT('Origin',(10.7697286485528,-29.3533237743414,1.16474999999995));
#1328=CARTESIAN_POINT('',(7.53266195648181,-30.684263003264,2.29999999999995));
#1329=CARTESIAN_POINT('Origin',(10.7697286485528,-29.3533237743414,2.29999999999995));
#1330=CARTESIAN_POINT('',(9.63259336343812,-29.8208637120443,0.0294999999999457));
#1331=CARTESIAN_POINT('',(8.58262765995997,-30.2525633576542,1.16474999999995));
#1332=CARTESIAN_POINT('Origin',(10.7697286485528,-29.3533237743414,0.0294999999999468));
#1333=CARTESIAN_POINT('Origin',(10.7697286485528,-29.3533237743414,-83.7300751049109));
#1334=CARTESIAN_POINT('',(9.63259336343812,-29.8208637120443,-0.199999999999819));
#1335=CARTESIAN_POINT('',(9.63259336343821,-29.8208637120443,-83.7300751049109));
#1336=CARTESIAN_POINT('Origin',(10.7697286485528,-29.3533237743414,-0.199999999999818));
#1337=CARTESIAN_POINT('Origin',(1.24510145958804,-15.3918648106325,1.16474999999995));
#1338=CARTESIAN_POINT('',(-1.9919652324827,-16.7228040395549,2.29999999999994));
#1339=CARTESIAN_POINT('Origin',(1.24510145958804,-15.3918648106325,2.29999999999995));
#1340=CARTESIAN_POINT('',(0.107966174473412,-15.8594047483354,0.0294999999999437));
#1341=CARTESIAN_POINT('',(-0.941999529004743,-16.2911043939452,1.16474999999994));
#1342=CARTESIAN_POINT('Origin',(1.24510145958804,-15.3918648106325,0.0294999999999451));
#1343=CARTESIAN_POINT('Origin',(1.24510145958813,-15.3918648106324,-83.7300751049109));
#1344=CARTESIAN_POINT('',(0.107966174473411,-15.8594047483354,-0.199999999999819));
#1345=CARTESIAN_POINT('',(0.107966174473494,-15.8594047483354,-83.7300751049109));
#1346=CARTESIAN_POINT('Origin',(1.24510145958805,-15.3918648106325,-0.199999999999818));
#1347=CARTESIAN_POINT('Origin',(17.7044505548741,-11.7703701805364,1.16474999999997));
#1348=CARTESIAN_POINT('',(19.0353897837908,-15.0074368725932,2.29999999999997));
#1349=CARTESIAN_POINT('',(14.4673838628032,-13.1013094094589,2.29999999999996));
#1350=CARTESIAN_POINT('Origin',(17.7044505548741,-11.7703701805364,2.29999999999997));
#1351=CARTESIAN_POINT('Origin',(17.7044505548741,-11.7703701805364,2.29999999999997));
#1352=CARTESIAN_POINT('',(16.5673152697595,-12.2379101182393,0.0294999999999621));
#1353=CARTESIAN_POINT('',(15.5173495662813,-12.6696097638491,1.16474999999996));
#1354=CARTESIAN_POINT('Origin',(17.7044505548741,-11.7703701805364,0.0294999999999637));
#1355=CARTESIAN_POINT('Origin',(17.7044505548742,-11.7703701805364,-83.7300751049109));
#1356=CARTESIAN_POINT('',(16.5673152697595,-12.2379101182393,-0.199999999999802));
#1357=CARTESIAN_POINT('',(16.5673152697596,-12.2379101182393,-83.7300751049109));
#1358=CARTESIAN_POINT('Origin',(17.7044505548741,-11.7703701805364,-0.1999999999998));
#1359=CARTESIAN_POINT('Origin',(8.71778106565475,9.37199533535145,1.16474999999997));
#1360=CARTESIAN_POINT('',(5.48071437358381,8.04105610642891,2.29999999999997));
#1361=CARTESIAN_POINT('Origin',(8.71778106565475,9.37199533535145,2.29999999999997));
#1362=CARTESIAN_POINT('',(7.58064578054012,8.90445539764852,0.0294999999999659));
#1363=CARTESIAN_POINT('',(6.53068007706196,8.47275575203872,1.16474999999997));
#1364=CARTESIAN_POINT('Origin',(8.71778106565475,9.37199533535145,0.0294999999999668));
#1365=CARTESIAN_POINT('Origin',(8.71778106565484,9.3719953353515,-83.7300751049109));
#1366=CARTESIAN_POINT('',(7.58064578054012,8.90445539764852,-0.199999999999802));
#1367=CARTESIAN_POINT('',(7.5806457805402,8.90445539764857,-83.7300751049109));
#1368=CARTESIAN_POINT('Origin',(8.71778106565475,9.37199533535145,-0.1999999999998));
#1369=CARTESIAN_POINT('Origin',(-12.5914588209395,18.2609627893102,1.16474999999995));
#1370=CARTESIAN_POINT('',(-13.922398049862,21.498029481381,2.29999999999996));
#1371=CARTESIAN_POINT('',(-15.8285255130111,16.9300235603874,2.29999999999995));
#1372=CARTESIAN_POINT('Origin',(-12.5914588209395,18.2609627893102,2.29999999999995));
#1373=CARTESIAN_POINT('Origin',(-12.5914588209395,18.2609627893102,2.29999999999995));
#1374=CARTESIAN_POINT('',(-13.7285941060542,17.7934228516073,0.029499999999949));
#1375=CARTESIAN_POINT('',(-14.7785598095323,17.3617232059975,1.16474999999995));
#1376=CARTESIAN_POINT('Origin',(-12.5914588209395,18.2609627893102,0.0294999999999507));
#1377=CARTESIAN_POINT('Origin',(-12.5914588209395,18.2609627893102,-83.7300751049109));
#1378=CARTESIAN_POINT('',(-13.7285941060542,17.7934228516073,-0.199999999999802));
#1379=CARTESIAN_POINT('',(-13.7285941060541,17.7934228516073,-83.7300751049109));
#1380=CARTESIAN_POINT('Origin',(-12.5914588209395,18.2609627893102,-0.1999999999998));
#1381=CARTESIAN_POINT('Origin',(7.74133473875369,-4.32416885050076,2.29999999999996));
#1382=CARTESIAN_POINT('',(-17.1594647419336,20.1670902524583,2.29999999999995));
#1383=CARTESIAN_POINT('',(1.6695838735491,27.908765611517,2.29999999999997));
#1384=CARTESIAN_POINT('',(-11.0522849476562,5.31340808204974,2.29999999999995));
#1385=CARTESIAN_POINT('Origin',(7.74133473875369,-4.32416885050076,2.29999999999996));
#1386=CARTESIAN_POINT('',(-11.0522849476562,5.31340808204974,2.29999999999995));
#1387=CARTESIAN_POINT('',(0.445378209314404,-22.6508307301246,2.29999999999994));
#1388=CARTESIAN_POINT('',(-11.0522849476562,5.31340808204974,2.29999999999995));
#1389=CARTESIAN_POINT('',(19.2744268247971,-14.9091553710658,2.29999999999997));
#1390=CARTESIAN_POINT('',(25.4170355481472,-12.3835852498651,2.29999999999997));
#1391=CARTESIAN_POINT('',(19.2744268247971,-14.9091553710658,2.29999999999997));
#1392=CARTESIAN_POINT('',(7.81219259689921,30.4343357327177,2.29999999999998));
#1393=CARTESIAN_POINT('',(23.8625989201627,-8.60293552218591,2.29999999999997));
#1394=CARTESIAN_POINT('',(1.6695838735491,27.908765611517,2.29999999999997));
#1395=CARTESIAN_POINT('',(11.3840194468207,-2.90821462647158,2.29999999999996));
#1396=CARTESIAN_POINT('Origin',(6.38401944682075,-2.90821462647158,2.29999999999996));
#1397=CARTESIAN_POINT('Origin',(23.8853079416569,-16.7445624136466,85.8300751049111));
#1398=CARTESIAN_POINT('',(25.041403188825,-16.2692269747457,4.30000000000016));
#1399=CARTESIAN_POINT('Origin',(23.8853079416568,-16.7445624136466,4.30000000000016));
#1400=CARTESIAN_POINT('',(25.041403188825,-16.2692269747457,9.20000000002923));
#1401=CARTESIAN_POINT('',(25.0414031888251,-16.2692269747457,85.8300751049111));
#1402=CARTESIAN_POINT('Origin',(23.8853079416568,-16.7445624136466,9.20000000002923));
#1403=CARTESIAN_POINT('Origin',(6.12768494515531,-24.0457147551637,85.8300751049111));
#1404=CARTESIAN_POINT('',(7.28378019232342,-23.5703793162628,4.30000000000017));
#1405=CARTESIAN_POINT('Origin',(6.12768494515523,-24.0457147551637,4.30000000000017));
#1406=CARTESIAN_POINT('',(7.28378019232343,-23.5703793162628,9.20000000002925));
#1407=CARTESIAN_POINT('',(7.2837801923235,-23.5703793162628,85.8300751049111));
#1408=CARTESIAN_POINT('Origin',(6.12768494515524,-24.0457147551637,9.20000000002925));
#1409=CARTESIAN_POINT('Origin',(19.7785233597923,-32.0015057640737,85.8300751049111));
#1410=CARTESIAN_POINT('',(20.9346186069604,-31.5261703251728,4.30000000000016));
#1411=CARTESIAN_POINT('Origin',(19.7785233597922,-32.0015057640737,4.30000000000016));
#1412=CARTESIAN_POINT('',(20.9346186069604,-31.5261703251728,9.20000000002924));
#1413=CARTESIAN_POINT('',(20.9346186069605,-31.5261703251728,85.8300751049111));
#1414=CARTESIAN_POINT('Origin',(19.7785233597922,-32.0015057640737,9.20000000002924));
#1415=CARTESIAN_POINT('Origin',(6.12768494515523,-24.0457147551637,0.300000000000202));
#1416=CARTESIAN_POINT('',(4.4201910605729,-24.4290744219441,0.300000000000203));
#1417=CARTESIAN_POINT('',(4.64435594755284,-24.97428089975,0.300000000000203));
#1418=CARTESIAN_POINT('',(7.48868948893706,-31.8921755472831,0.3000000000002));
#1419=CARTESIAN_POINT('Origin',(6.12768494515523,-24.0457147551637,0.300000000000202));
#1420=CARTESIAN_POINT('',(7.51499924175706,-23.4753122284826,0.300000000000201));
#1421=CARTESIAN_POINT('Origin',(6.12768494515523,-24.0457147551637,0.300000000000202));
#1422=CARTESIAN_POINT('Origin',(6.12768494515523,-24.0457147551637,0.0500000000002017));
#1423=CARTESIAN_POINT('',(4.64435594755284,-24.97428089975,-0.199999999999797));
#1424=CARTESIAN_POINT('',(4.64435594755284,-24.97428089975,0.0500000000002029));
#1425=CARTESIAN_POINT('',(4.4201910605729,-24.4290744219441,-0.199999999999797));
#1426=CARTESIAN_POINT('',(4.4201910605729,-24.4290744219441,0.0500000000002032));
#1427=CARTESIAN_POINT('Origin',(6.12768494515523,-24.0457147551637,-0.199999999999799));
#1428=CARTESIAN_POINT('Origin',(6.12768494515523,-24.0457147551637,2.0500000000002));
#1429=CARTESIAN_POINT('',(7.51499924175706,-23.4753122284826,4.3000000000002));
#1430=CARTESIAN_POINT('',(7.51499924175706,-23.4753122284826,2.0500000000002));
#1431=CARTESIAN_POINT('Origin',(6.12768494515523,-24.0457147551637,4.3000000000002));
#1432=CARTESIAN_POINT('Origin',(6.12768494515523,-24.0457147551637,4.3000000000002));
#1433=CARTESIAN_POINT('Origin',(23.8853079416568,-16.7445624136466,0.300000000000187));
#1434=CARTESIAN_POINT('',(25.5038412876923,-16.0790927991853,0.300000000000185));
#1435=CARTESIAN_POINT('Origin',(23.8853079416568,-16.7445624136466,0.300000000000187));
#1436=CARTESIAN_POINT('',(25.2726222382587,-16.1741598869655,0.300000000000186));
#1437=CARTESIAN_POINT('Origin',(23.8853079416568,-16.7445624136466,0.300000000000187));
#1438=CARTESIAN_POINT('Origin',(23.8853079416568,-16.7445624136466,0.0500000000001866));
#1439=CARTESIAN_POINT('',(25.5038412876923,-16.0790927991853,-0.199999999999815));
#1440=CARTESIAN_POINT('Origin',(23.8853079416568,-16.7445624136466,-0.199999999999814));
#1441=CARTESIAN_POINT('',(25.5038412876923,-16.0790927991853,0.0500000000001852));
#1442=CARTESIAN_POINT('Origin',(23.8853079416568,-16.7445624136466,2.05000000000019));
#1443=CARTESIAN_POINT('',(25.2726222382587,-16.1741598869655,4.30000000000019));
#1444=CARTESIAN_POINT('',(25.2726222382587,-16.1741598869655,2.05000000000019));
#1445=CARTESIAN_POINT('Origin',(23.8853079416568,-16.7445624136466,4.30000000000019));
#1446=CARTESIAN_POINT('Origin',(23.8853079416568,-16.7445624136466,4.30000000000019));
#1447=CARTESIAN_POINT('Origin',(19.7785233597922,-32.0015057640737,0.300000000000188));
#1448=CARTESIAN_POINT('',(21.3970567058277,-31.3360361496124,0.300000000000187));
#1449=CARTESIAN_POINT('Origin',(19.7785233597922,-32.0015057640737,0.300000000000188));
#1450=CARTESIAN_POINT('',(21.1658376563941,-31.4311032373926,0.300000000000187));
#1451=CARTESIAN_POINT('Origin',(19.7785233597922,-32.0015057640737,0.300000000000189));
#1452=CARTESIAN_POINT('Origin',(19.7785233597922,-32.0015057640737,0.0500000000001884));
#1453=CARTESIAN_POINT('',(21.3970567058277,-31.3360361496124,-0.199999999999813));
#1454=CARTESIAN_POINT('Origin',(19.7785233597922,-32.0015057640737,-0.199999999999812));
#1455=CARTESIAN_POINT('',(21.3970567058277,-31.3360361496124,0.050000000000187));
#1456=CARTESIAN_POINT('Origin',(19.7785233597922,-32.0015057640737,2.05000000000019));
#1457=CARTESIAN_POINT('',(21.1658376563941,-31.4311032373926,4.30000000000019));
#1458=CARTESIAN_POINT('',(21.1658376563941,-31.4311032373926,2.05000000000019));
#1459=CARTESIAN_POINT('Origin',(19.7785233597922,-32.0015057640737,4.30000000000019));
#1460=CARTESIAN_POINT('Origin',(19.7785233597922,-32.0015057640737,4.30000000000019));
#1461=CARTESIAN_POINT('Origin',(7.74133473875369,-4.32416885050076,-0.199999999999797));
#1462=CARTESIAN_POINT('',(3.41014097805061,-21.9724637755637,-0.199999999999796));
#1463=CARTESIAN_POINT('',(4.13731445681773,-23.741071234358,-0.199999999999797));
#1464=CARTESIAN_POINT('',(0.635512384847522,-23.1132688289256,-0.199999999999793));
#1465=CARTESIAN_POINT('',(8.36604662751535,-19.9348136833156,-0.1999999999998));
#1466=CARTESIAN_POINT('',(-17.1594647419336,20.1670902524583,-0.199999999999772));
#1467=CARTESIAN_POINT('',(-2.15479638426568,-16.3267714586422,-0.19999999999979));
#1468=CARTESIAN_POINT('',(7.81219259689921,30.4343357327177,-0.199999999999793));
#1469=CARTESIAN_POINT('',(-10.8162447958673,22.7751428713873,-0.199999999999777));
#1470=CARTESIAN_POINT('',(27.6986456548715,-17.9328424362725,-0.199999999999817));
#1471=CARTESIAN_POINT('',(13.9193723911766,15.5806535623092,-0.1999999999998));
#1472=CARTESIAN_POINT('',(24.5540665825743,-19.2257548300829,-0.199999999999814));
#1473=CARTESIAN_POINT('',(21.5560369315214,-20.4584125574732,-0.199999999999812));
#1474=CARTESIAN_POINT('',(28.3567500937815,-28.4745168074284,-0.199999999999819));
#1475=CARTESIAN_POINT('',(20.7180198478654,-9.89584791599628,-0.19999999999981));
#1476=CARTESIAN_POINT('',(31.5013291660788,-27.181604413618,-0.199999999999822));
#1477=CARTESIAN_POINT('',(23.78643090658,-30.3536307317239,-0.199999999999815));
#1478=CARTESIAN_POINT('',(32.6421342194409,-29.9562330068217,-0.199999999999823));
#1479=CARTESIAN_POINT('',(25.7639406757663,-13.2273165108587,-0.199999999999815));
#1480=CARTESIAN_POINT('',(10.4451054738112,-39.0826734337192,-0.199999999999804));
#1481=CARTESIAN_POINT('',(26.4995254960908,-32.4818031280224,-0.199999999999818));
#1482=CARTESIAN_POINT('',(4.13731445681773,-23.741071234358,-0.199999999999797));
#1483=CARTESIAN_POINT('',(11.9840194468207,-2.90821462647158,-0.199999999999797));
#1484=CARTESIAN_POINT('Origin',(6.38401944682075,-2.90821462647158,-0.199999999999797));
#1485=CARTESIAN_POINT('',(1.57996936268688,17.0596621457125,-0.199999999999791));
#1486=CARTESIAN_POINT('Origin',(0.053923636424793,16.4322193663632,-0.19999999999979));
#1487=CARTESIAN_POINT('',(-0.707113310759341,7.09304492705952,-0.199999999999789));
#1488=CARTESIAN_POINT('Origin',(-1.86320855792753,6.61770948815861,-0.199999999999788));
#1489=CARTESIAN_POINT('Origin',(27.6912804793202,-26.855983461393,2.29999999999997));
#1490=CARTESIAN_POINT('',(27.6912804793202,-26.855983461393,9.20000000002931));
#1491=CARTESIAN_POINT('',(8.63883080598781,-34.6895114944801,9.20000000002933));
#1492=CARTESIAN_POINT('',(23.1209612921188,-28.7350973856885,9.20000000002932));
#1493=CARTESIAN_POINT('',(27.6912804793202,-26.855983461393,2.29999999999997));
#1494=CARTESIAN_POINT('',(27.6912804793202,-26.855983461393,2.29999999999997));
#1495=CARTESIAN_POINT('',(8.63883080598782,-34.6895114944801,2.29999999999994));
#1496=CARTESIAN_POINT('',(23.1209612921188,-28.7350973856885,2.29999999999996));
#1497=CARTESIAN_POINT('',(8.63883080598782,-34.6895114944801,2.29999999999994));
#1498=CARTESIAN_POINT('Origin',(16.5437562143777,-25.7331293417922,9.20000000002927));
#1499=CARTESIAN_POINT('',(31.5013291660788,-27.181604413618,9.20000000002933));
#1500=CARTESIAN_POINT('',(28.3567500937815,-28.4745168074284,9.20000000002933));
#1501=CARTESIAN_POINT('',(25.3587204427287,-29.7071745348188,9.20000000002933));
#1502=CARTESIAN_POINT('',(27.020572341281,-25.2247091503147,9.20000000002929));
#1503=CARTESIAN_POINT('',(10.4451054738112,-39.0826734337192,9.20000000002938));
#1504=CARTESIAN_POINT('',(7.63538786071799,-32.2489705103841,9.20000000002931));
#1505=CARTESIAN_POINT('',(32.642134219441,-29.9562330068217,9.20000000002935));
#1506=CARTESIAN_POINT('',(15.401011123276,-37.0450233414712,9.20000000002937));
#1507=CARTESIAN_POINT('',(30.7355539402594,-25.3191110531062,9.20000000002931));
#1508=CARTESIAN_POINT('Origin',(16.5437562143777,-25.7331293417922,9.20000000002927));
#1509=CARTESIAN_POINT('',(0.635512384847519,-23.1132688289256,9.2000000000292));
#1510=CARTESIAN_POINT('',(3.4101409780506,-21.9724637755637,9.2000000000292));
#1511=CARTESIAN_POINT('',(6.9787323309138,-20.5052162099966,9.20000000002919));
#1512=CARTESIAN_POINT('',(5.50161690924183,-27.05928286317,9.20000000002925));
#1513=CARTESIAN_POINT('',(5.02104294674938,-25.8904466509259,9.20000000002924));
#1514=CARTESIAN_POINT('',(27.6986456548715,-17.9328424362725,9.20000000002922));
#1515=CARTESIAN_POINT('',(10.4575225587066,-25.021632770922,9.20000000002925));
#1516=CARTESIAN_POINT('',(25.4170355481472,-12.3835852498651,9.20000000002917));
#1517=CARTESIAN_POINT('',(28.2638096579747,-19.3074157678316,9.20000000002924));
#1518=CARTESIAN_POINT('',(0.445378209314397,-22.6508307301246,9.2000000000292));
#1519=CARTESIAN_POINT('',(19.2744268247971,-14.9091553710658,9.20000000002917));
#1520=CARTESIAN_POINT('',(2.15134726577974,-26.8000326548874,9.20000000002924));
#1521=CARTESIAN_POINT('Origin',(25.4170355481472,-12.3835852498651,2.29999999999997));
#1522=CARTESIAN_POINT('',(25.4170355481472,-12.3835852498651,2.29999999999997));
#1523=CARTESIAN_POINT('',(0.445378209314404,-22.6508307301246,2.29999999999994));
#1524=CARTESIAN_POINT('Origin',(-1.86320855792753,6.61770948815861,0.800000000000213));
#1525=CARTESIAN_POINT('',(-0.707113310759339,7.09304492705952,1.80000000000021));
#1526=CARTESIAN_POINT('',(-0.70711331075934,7.09304492705952,0.800000000000212));
#1527=CARTESIAN_POINT('Origin',(-1.86320855792753,6.61770948815861,1.80000000000021));
#1528=CARTESIAN_POINT('Origin',(-1.86320855792753,6.61770948815861,1.80000000000021));
#1529=CARTESIAN_POINT('Origin',(0.053923636424793,16.4322193663632,-0.199999999999788));
#1530=CARTESIAN_POINT('',(1.57996936268688,17.0596621457125,1.80000000000021));
#1531=CARTESIAN_POINT('',(1.57996936268688,17.0596621457125,-0.199999999999789));
#1532=CARTESIAN_POINT('Origin',(0.053923636424795,16.4322193663632,1.80000000000021));
#1533=CARTESIAN_POINT('Origin',(0.053923636424795,16.4322193663632,1.80000000000021));
#1534=CARTESIAN_POINT('Origin',(7.74133473875369,-4.32416885050076,0.));
#1535=CARTESIAN_POINT('',(11.9840194468207,-2.90821462647158,0.));
#1536=CARTESIAN_POINT('Origin',(6.38401944682075,-2.90821462647158,0.));
#1537=CARTESIAN_POINT('',(11.3840194468207,-2.90821462647158,0.));
#1538=CARTESIAN_POINT('Origin',(6.38401944682075,-2.90821462647158,0.));
#1539=CARTESIAN_POINT('Origin',(6.38401944682075,-2.90821462647158,0.));
#1540=CARTESIAN_POINT('',(11.3840194468207,-2.90821462647158,0.));
#1541=CARTESIAN_POINT('Origin',(7.74133473875369,-4.32416885050076,2.29999999999996));
#1542=CARTESIAN_POINT('',(24.5540665825743,-19.2257548300829,2.29999999999997));
#1543=CARTESIAN_POINT('',(22.6193616034691,-14.5202289046691,2.29999999999997));
#1544=CARTESIAN_POINT('',(5.50161690924184,-27.05928286317,2.29999999999995));
#1545=CARTESIAN_POINT('',(10.4575225587066,-25.021632770922,2.29999999999995));
#1546=CARTESIAN_POINT('',(0.619832208937409,-15.1859664052803,2.29999999999995));
#1547=CARTESIAN_POINT('Origin',(31.5013291660788,-27.181604413618,0.));
#1548=CARTESIAN_POINT('',(31.5013291660788,-27.181604413618,0.));
#1549=CARTESIAN_POINT('',(32.6421342194409,-29.9562330068217,0.));
#1550=CARTESIAN_POINT('Origin',(28.3567500937815,-28.4745168074284,0.));
#1551=CARTESIAN_POINT('',(28.3567500937815,-28.4745168074284,0.));
#1552=CARTESIAN_POINT('Origin',(24.5540665825743,-19.2257548300829,0.));
#1553=CARTESIAN_POINT('',(24.5540665825743,-19.2257548300829,0.));
#1554=CARTESIAN_POINT('Origin',(27.6986456548716,-17.9328424362725,0.));
#1555=CARTESIAN_POINT('',(27.6986456548715,-17.9328424362725,2.29999999999997));
#1556=CARTESIAN_POINT('',(5.50161690924184,-27.05928286317,2.29999999999995));
#1557=CARTESIAN_POINT('Origin',(7.81219259689921,30.4343357327177,0.));
#1558=CARTESIAN_POINT('',(7.81219259689921,30.4343357327177,0.));
#1559=CARTESIAN_POINT('Origin',(6.38401944682075,-2.90821462647158,0.));
#1560=CARTESIAN_POINT('',(11.9840194468207,-2.90821462647158,0.));
#1561=CARTESIAN_POINT('Origin',(-17.1594647419336,20.1670902524582,0.));
#1562=CARTESIAN_POINT('',(-17.1594647419336,20.1670902524583,0.));
#1563=CARTESIAN_POINT('Origin',(0.635512384847519,-23.1132688289256,0.));
#1564=CARTESIAN_POINT('',(0.635512384847522,-23.1132688289256,0.));
#1565=CARTESIAN_POINT('Origin',(3.41014097805061,-21.9724637755637,0.));
#1566=CARTESIAN_POINT('',(3.41014097805061,-21.9724637755637,0.));
#1567=CARTESIAN_POINT('Origin',(10.4451054738112,-39.0826734337192,0.));
#1568=CARTESIAN_POINT('',(10.4451054738112,-39.0826734337192,0.));
#1569=CARTESIAN_POINT('Origin',(32.6421342194409,-29.9562330068217,0.));
#1570=UNCERTAINTY_MEASURE_WITH_UNIT(LENGTH_MEASURE(0.01),#1574,
'DISTANCE_ACCURACY_VALUE',
'Maximum model space distance between geometric entities at asserted c
onnectivities');
#1571=UNCERTAINTY_MEASURE_WITH_UNIT(LENGTH_MEASURE(0.01),#1574,
'DISTANCE_ACCURACY_VALUE',
'Maximum model space distance between geometric entities at asserted c
onnectivities');
#1572=(
GEOMETRIC_REPRESENTATION_CONTEXT(3)
GLOBAL_UNCERTAINTY_ASSIGNED_CONTEXT((#1570))
GLOBAL_UNIT_ASSIGNED_CONTEXT((#1574,#1576,#1577))
REPRESENTATION_CONTEXT('','3D')
);
#1573=(
GEOMETRIC_REPRESENTATION_CONTEXT(3)
GLOBAL_UNCERTAINTY_ASSIGNED_CONTEXT((#1571))
GLOBAL_UNIT_ASSIGNED_CONTEXT((#1574,#1576,#1577))
REPRESENTATION_CONTEXT('','3D')
);
#1574=(
LENGTH_UNIT()
NAMED_UNIT(*)
SI_UNIT(.MILLI.,.METRE.)
);
#1575=(
LENGTH_UNIT()
NAMED_UNIT(*)
SI_UNIT(.CENTI.,.METRE.)
);
#1576=(
NAMED_UNIT(*)
PLANE_ANGLE_UNIT()
SI_UNIT($,.RADIAN.)
);
#1577=(
NAMED_UNIT(*)
SI_UNIT($,.STERADIAN.)
SOLID_ANGLE_UNIT()
);
#1578=SHAPE_DEFINITION_REPRESENTATION(#1579,#1580);
#1579=PRODUCT_DEFINITION_SHAPE('',$,#1582);
#1580=SHAPE_REPRESENTATION('',(#942),#1572);
#1581=PRODUCT_DEFINITION_CONTEXT('part definition',#1586,'design');
#1582=PRODUCT_DEFINITION('LeftGearboxCover','LeftGearboxCover',#1583,#1581);
#1583=PRODUCT_DEFINITION_FORMATION('',$,#1588);
#1584=PRODUCT_RELATED_PRODUCT_CATEGORY('LeftGearboxCover',
'LeftGearboxCover',(#1588));
#1585=APPLICATION_PROTOCOL_DEFINITION('international standard',
'automotive_design',2009,#1586);
#1586=APPLICATION_CONTEXT(
'Core Data for Automotive Mechanical Design Process');
#1587=PRODUCT_CONTEXT('part definition',#1586,'mechanical');
#1588=PRODUCT('LeftGearboxCover','LeftGearboxCover',$,(#1587));
#1589=PRESENTATION_STYLE_ASSIGNMENT((#1590));
#1590=SURFACE_STYLE_USAGE(.BOTH.,#1593);
#1591=SURFACE_STYLE_RENDERING_WITH_PROPERTIES($,#1597,(#1592));
#1592=SURFACE_STYLE_TRANSPARENT(0.);
#1593=SURFACE_SIDE_STYLE('',(#1594,#1591));
#1594=SURFACE_STYLE_FILL_AREA(#1595);
#1595=FILL_AREA_STYLE('',(#1596));
#1596=FILL_AREA_STYLE_COLOUR('',#1597);
#1597=COLOUR_RGB('',0.749019607843137,0.749019607843137,0.749019607843137);
ENDSEC;
END-ISO-10303-21;
