ISO-10303-21;
HEADER;
/* Generated by software containing ST-Developer
 * from STEP Tools, Inc. (www.steptools.com) 
 */

FILE_DESCRIPTION(
/* description */ (''),
/* implementation_level */ '2;1');

FILE_NAME(
/* name */ 'LunasCover.stp',
/* time_stamp */ '2026-05-12T19:36:43+02:00',
/* author */ ('szymo'),
/* organization */ (''),
/* preprocessor_version */ 'ST-DEVELOPER v20.1',
/* originating_system */ 'Autodesk Inventor 2026',
/* authorisation */ '');

FILE_SCHEMA (('AUTOMOTIVE_DESIGN { 1 0 10303 214 3 1 1 }'));
ENDSEC;

DATA;
#10=MECHANICAL_DESIGN_GEOMETRIC_PRESENTATION_REPRESENTATION('',(#13),#759);
#11=SHAPE_REPRESENTATION_RELATIONSHIP('SRR','None',#766,#12);
#12=ADVANCED_BREP_SHAPE_REPRESENTATION('',(#14),#758);
#13=STYLED_ITEM('',(#775),#14);
#14=MANIFOLD_SOLID_BREP('Solid1',#422);
#15=CYLINDRICAL_SURFACE('',#458,2.25);
#16=CYLINDRICAL_SURFACE('',#463,2.25);
#17=CYLINDRICAL_SURFACE('',#468,2.25);
#18=CYLINDRICAL_SURFACE('',#472,1.1);
#19=CYLINDRICAL_SURFACE('',#476,1.1);
#20=CYLINDRICAL_SURFACE('',#480,1.1);
#21=CYLINDRICAL_SURFACE('',#482,4.00000000000013);
#22=CYLINDRICAL_SURFACE('',#485,5.00000000000016);
#23=CYLINDRICAL_SURFACE('',#488,5.00000000000016);
#24=CYLINDRICAL_SURFACE('',#491,4.00000000000013);
#25=CYLINDRICAL_SURFACE('',#493,0.500000000000017);
#26=CYLINDRICAL_SURFACE('',#496,0.500000000000017);
#27=FACE_BOUND('',#71,.T.);
#28=FACE_BOUND('',#72,.T.);
#29=FACE_BOUND('',#73,.T.);
#30=FACE_BOUND('',#80,.T.);
#31=FACE_BOUND('',#83,.T.);
#32=FACE_BOUND('',#86,.T.);
#33=FACE_BOUND('',#99,.T.);
#34=FACE_BOUND('',#100,.T.);
#35=FACE_BOUND('',#101,.T.);
#36=PLANE('',#449);
#37=PLANE('',#470);
#38=PLANE('',#474);
#39=PLANE('',#478);
#40=PLANE('',#484);
#41=PLANE('',#487);
#42=PLANE('',#490);
#43=PLANE('',#495);
#44=PLANE('',#498);
#45=FACE_OUTER_BOUND('',#69,.T.);
#46=FACE_OUTER_BOUND('',#70,.T.);
#47=FACE_OUTER_BOUND('',#74,.T.);
#48=FACE_OUTER_BOUND('',#75,.T.);
#49=FACE_OUTER_BOUND('',#76,.T.);
#50=FACE_OUTER_BOUND('',#77,.T.);
#51=FACE_OUTER_BOUND('',#78,.T.);
#52=FACE_OUTER_BOUND('',#79,.T.);
#53=FACE_OUTER_BOUND('',#81,.T.);
#54=FACE_OUTER_BOUND('',#82,.T.);
#55=FACE_OUTER_BOUND('',#84,.T.);
#56=FACE_OUTER_BOUND('',#85,.T.);
#57=FACE_OUTER_BOUND('',#87,.T.);
#58=FACE_OUTER_BOUND('',#88,.T.);
#59=FACE_OUTER_BOUND('',#89,.T.);
#60=FACE_OUTER_BOUND('',#90,.T.);
#61=FACE_OUTER_BOUND('',#91,.T.);
#62=FACE_OUTER_BOUND('',#92,.T.);
#63=FACE_OUTER_BOUND('',#93,.T.);
#64=FACE_OUTER_BOUND('',#94,.T.);
#65=FACE_OUTER_BOUND('',#95,.T.);
#66=FACE_OUTER_BOUND('',#96,.T.);
#67=FACE_OUTER_BOUND('',#97,.T.);
#68=FACE_OUTER_BOUND('',#98,.T.);
#69=EDGE_LOOP('',(#281,#282,#283,#284,#285));
#70=EDGE_LOOP('',(#286,#287,#288,#289,#290,#291,#292,#293,#294,#295));
#71=EDGE_LOOP('',(#296));
#72=EDGE_LOOP('',(#297));
#73=EDGE_LOOP('',(#298));
#74=EDGE_LOOP('',(#299,#300,#301,#302,#303));
#75=EDGE_LOOP('',(#304,#305,#306,#307,#308));
#76=EDGE_LOOP('',(#309,#310,#311,#312,#313));
#77=EDGE_LOOP('',(#314,#315,#316,#317,#318));
#78=EDGE_LOOP('',(#319,#320,#321,#322,#323));
#79=EDGE_LOOP('',(#324));
#80=EDGE_LOOP('',(#325));
#81=EDGE_LOOP('',(#326,#327,#328,#329));
#82=EDGE_LOOP('',(#330));
#83=EDGE_LOOP('',(#331));
#84=EDGE_LOOP('',(#332,#333,#334,#335));
#85=EDGE_LOOP('',(#336));
#86=EDGE_LOOP('',(#337));
#87=EDGE_LOOP('',(#338,#339,#340,#341));
#88=EDGE_LOOP('',(#342,#343,#344,#345));
#89=EDGE_LOOP('',(#346,#347,#348,#349));
#90=EDGE_LOOP('',(#350,#351,#352,#353));
#91=EDGE_LOOP('',(#354,#355,#356,#357));
#92=EDGE_LOOP('',(#358,#359,#360,#361));
#93=EDGE_LOOP('',(#362,#363,#364,#365));
#94=EDGE_LOOP('',(#366,#367,#368,#369));
#95=EDGE_LOOP('',(#370,#371,#372,#373));
#96=EDGE_LOOP('',(#374,#375,#376,#377));
#97=EDGE_LOOP('',(#378,#379,#380,#381));
#98=EDGE_LOOP('',(#382,#383,#384,#385,#386,#387,#388,#389,#390,#391));
#99=EDGE_LOOP('',(#392));
#100=EDGE_LOOP('',(#393));
#101=EDGE_LOOP('',(#394));
#102=LINE('',#641,#129);
#103=LINE('',#650,#130);
#104=LINE('',#656,#131);
#105=LINE('',#660,#132);
#106=LINE('',#664,#133);
#107=LINE('',#672,#134);
#108=LINE('',#676,#135);
#109=LINE('',#682,#136);
#110=LINE('',#686,#137);
#111=LINE('',#692,#138);
#112=LINE('',#699,#139);
#113=LINE('',#706,#140);
#114=LINE('',#713,#141);
#115=LINE('',#719,#142);
#116=LINE('',#720,#143);
#117=LINE('',#723,#144);
#118=LINE('',#724,#145);
#119=LINE('',#728,#146);
#120=LINE('',#731,#147);
#121=LINE('',#732,#148);
#122=LINE('',#736,#149);
#123=LINE('',#739,#150);
#124=LINE('',#740,#151);
#125=LINE('',#744,#152);
#126=LINE('',#748,#153);
#127=LINE('',#751,#154);
#128=LINE('',#752,#155);
#129=VECTOR('',#505,2.5);
#130=VECTOR('',#514,10.);
#131=VECTOR('',#519,10.);
#132=VECTOR('',#522,10.);
#133=VECTOR('',#525,10.);
#134=VECTOR('',#534,2.25);
#135=VECTOR('',#539,2.5);
#136=VECTOR('',#546,2.25);
#137=VECTOR('',#551,2.5);
#138=VECTOR('',#558,2.25);
#139=VECTOR('',#567,1.1);
#140=VECTOR('',#576,1.1);
#141=VECTOR('',#585,1.1);
#142=VECTOR('',#592,10.);
#143=VECTOR('',#593,10.);
#144=VECTOR('',#596,10.);
#145=VECTOR('',#597,10.);
#146=VECTOR('',#602,10.);
#147=VECTOR('',#605,10.);
#148=VECTOR('',#606,10.);
#149=VECTOR('',#611,10.);
#150=VECTOR('',#614,10.);
#151=VECTOR('',#615,10.);
#152=VECTOR('',#620,10.);
#153=VECTOR('',#625,10.);
#154=VECTOR('',#628,10.);
#155=VECTOR('',#629,10.);
#156=CIRCLE('',#446,2.75);
#157=CIRCLE('',#447,2.25);
#158=CIRCLE('',#448,2.25);
#159=CIRCLE('',#450,0.500000000000017);
#160=CIRCLE('',#451,0.500000000000017);
#161=CIRCLE('',#452,4.00000000000013);
#162=CIRCLE('',#453,5.00000000000016);
#163=CIRCLE('',#454,5.00000000000016);
#164=CIRCLE('',#455,4.00000000000013);
#165=CIRCLE('',#456,2.75);
#166=CIRCLE('',#457,2.75);
#167=CIRCLE('',#459,2.25);
#168=CIRCLE('',#461,2.25);
#169=CIRCLE('',#462,2.25);
#170=CIRCLE('',#464,2.25);
#171=CIRCLE('',#466,2.25);
#172=CIRCLE('',#467,2.25);
#173=CIRCLE('',#469,2.25);
#174=CIRCLE('',#471,1.1);
#175=CIRCLE('',#473,1.1);
#176=CIRCLE('',#475,1.1);
#177=CIRCLE('',#477,1.1);
#178=CIRCLE('',#479,1.1);
#179=CIRCLE('',#481,1.1);
#180=CIRCLE('',#483,4.00000000000013);
#181=CIRCLE('',#486,5.00000000000016);
#182=CIRCLE('',#489,5.00000000000016);
#183=CIRCLE('',#492,4.00000000000013);
#184=CIRCLE('',#494,0.500000000000017);
#185=CIRCLE('',#497,0.500000000000017);
#186=VERTEX_POINT('',#638);
#187=VERTEX_POINT('',#640);
#188=VERTEX_POINT('',#642);
#189=VERTEX_POINT('',#646);
#190=VERTEX_POINT('',#647);
#191=VERTEX_POINT('',#649);
#192=VERTEX_POINT('',#651);
#193=VERTEX_POINT('',#653);
#194=VERTEX_POINT('',#655);
#195=VERTEX_POINT('',#657);
#196=VERTEX_POINT('',#659);
#197=VERTEX_POINT('',#661);
#198=VERTEX_POINT('',#663);
#199=VERTEX_POINT('',#666);
#200=VERTEX_POINT('',#668);
#201=VERTEX_POINT('',#671);
#202=VERTEX_POINT('',#675);
#203=VERTEX_POINT('',#677);
#204=VERTEX_POINT('',#681);
#205=VERTEX_POINT('',#685);
#206=VERTEX_POINT('',#687);
#207=VERTEX_POINT('',#691);
#208=VERTEX_POINT('',#695);
#209=VERTEX_POINT('',#698);
#210=VERTEX_POINT('',#702);
#211=VERTEX_POINT('',#705);
#212=VERTEX_POINT('',#709);
#213=VERTEX_POINT('',#712);
#214=VERTEX_POINT('',#716);
#215=VERTEX_POINT('',#717);
#216=VERTEX_POINT('',#722);
#217=VERTEX_POINT('',#726);
#218=VERTEX_POINT('',#730);
#219=VERTEX_POINT('',#734);
#220=VERTEX_POINT('',#738);
#221=VERTEX_POINT('',#742);
#222=VERTEX_POINT('',#746);
#223=VERTEX_POINT('',#750);
#224=EDGE_CURVE('',#186,#186,#156,.T.);
#225=EDGE_CURVE('',#186,#187,#102,.T.);
#226=EDGE_CURVE('',#187,#188,#157,.T.);
#227=EDGE_CURVE('',#188,#187,#158,.T.);
#228=EDGE_CURVE('',#189,#190,#159,.T.);
#229=EDGE_CURVE('',#190,#191,#103,.T.);
#230=EDGE_CURVE('',#191,#192,#160,.T.);
#231=EDGE_CURVE('',#192,#193,#161,.T.);
#232=EDGE_CURVE('',#193,#194,#104,.T.);
#233=EDGE_CURVE('',#194,#195,#162,.T.);
#234=EDGE_CURVE('',#195,#196,#105,.T.);
#235=EDGE_CURVE('',#196,#197,#163,.T.);
#236=EDGE_CURVE('',#197,#198,#106,.T.);
#237=EDGE_CURVE('',#198,#189,#164,.T.);
#238=EDGE_CURVE('',#199,#199,#165,.T.);
#239=EDGE_CURVE('',#200,#200,#166,.T.);
#240=EDGE_CURVE('',#188,#201,#107,.T.);
#241=EDGE_CURVE('',#201,#201,#167,.T.);
#242=EDGE_CURVE('',#199,#202,#108,.T.);
#243=EDGE_CURVE('',#202,#203,#168,.T.);
#244=EDGE_CURVE('',#203,#202,#169,.T.);
#245=EDGE_CURVE('',#203,#204,#109,.T.);
#246=EDGE_CURVE('',#204,#204,#170,.T.);
#247=EDGE_CURVE('',#200,#205,#110,.T.);
#248=EDGE_CURVE('',#205,#206,#171,.T.);
#249=EDGE_CURVE('',#206,#205,#172,.T.);
#250=EDGE_CURVE('',#206,#207,#111,.T.);
#251=EDGE_CURVE('',#207,#207,#173,.T.);
#252=EDGE_CURVE('',#208,#208,#174,.T.);
#253=EDGE_CURVE('',#208,#209,#112,.T.);
#254=EDGE_CURVE('',#209,#209,#175,.T.);
#255=EDGE_CURVE('',#210,#210,#176,.T.);
#256=EDGE_CURVE('',#210,#211,#113,.T.);
#257=EDGE_CURVE('',#211,#211,#177,.T.);
#258=EDGE_CURVE('',#212,#212,#178,.T.);
#259=EDGE_CURVE('',#212,#213,#114,.T.);
#260=EDGE_CURVE('',#213,#213,#179,.T.);
#261=EDGE_CURVE('',#214,#215,#180,.T.);
#262=EDGE_CURVE('',#215,#189,#115,.T.);
#263=EDGE_CURVE('',#214,#198,#116,.T.);
#264=EDGE_CURVE('',#216,#214,#117,.T.);
#265=EDGE_CURVE('',#216,#197,#118,.T.);
#266=EDGE_CURVE('',#217,#216,#181,.T.);
#267=EDGE_CURVE('',#217,#196,#119,.T.);
#268=EDGE_CURVE('',#218,#217,#120,.T.);
#269=EDGE_CURVE('',#218,#195,#121,.T.);
#270=EDGE_CURVE('',#219,#218,#182,.T.);
#271=EDGE_CURVE('',#219,#194,#122,.T.);
#272=EDGE_CURVE('',#220,#219,#123,.T.);
#273=EDGE_CURVE('',#220,#193,#124,.T.);
#274=EDGE_CURVE('',#221,#220,#183,.T.);
#275=EDGE_CURVE('',#221,#192,#125,.T.);
#276=EDGE_CURVE('',#222,#221,#184,.T.);
#277=EDGE_CURVE('',#222,#191,#126,.T.);
#278=EDGE_CURVE('',#223,#222,#127,.T.);
#279=EDGE_CURVE('',#223,#190,#128,.T.);
#280=EDGE_CURVE('',#215,#223,#185,.T.);
#281=ORIENTED_EDGE('',*,*,#224,.T.);
#282=ORIENTED_EDGE('',*,*,#225,.T.);
#283=ORIENTED_EDGE('',*,*,#226,.T.);
#284=ORIENTED_EDGE('',*,*,#227,.T.);
#285=ORIENTED_EDGE('',*,*,#225,.F.);
#286=ORIENTED_EDGE('',*,*,#228,.T.);
#287=ORIENTED_EDGE('',*,*,#229,.T.);
#288=ORIENTED_EDGE('',*,*,#230,.T.);
#289=ORIENTED_EDGE('',*,*,#231,.T.);
#290=ORIENTED_EDGE('',*,*,#232,.T.);
#291=ORIENTED_EDGE('',*,*,#233,.T.);
#292=ORIENTED_EDGE('',*,*,#234,.T.);
#293=ORIENTED_EDGE('',*,*,#235,.T.);
#294=ORIENTED_EDGE('',*,*,#236,.T.);
#295=ORIENTED_EDGE('',*,*,#237,.T.);
#296=ORIENTED_EDGE('',*,*,#238,.F.);
#297=ORIENTED_EDGE('',*,*,#239,.F.);
#298=ORIENTED_EDGE('',*,*,#224,.F.);
#299=ORIENTED_EDGE('',*,*,#226,.F.);
#300=ORIENTED_EDGE('',*,*,#227,.F.);
#301=ORIENTED_EDGE('',*,*,#240,.T.);
#302=ORIENTED_EDGE('',*,*,#241,.T.);
#303=ORIENTED_EDGE('',*,*,#240,.F.);
#304=ORIENTED_EDGE('',*,*,#238,.T.);
#305=ORIENTED_EDGE('',*,*,#242,.T.);
#306=ORIENTED_EDGE('',*,*,#243,.T.);
#307=ORIENTED_EDGE('',*,*,#244,.T.);
#308=ORIENTED_EDGE('',*,*,#242,.F.);
#309=ORIENTED_EDGE('',*,*,#243,.F.);
#310=ORIENTED_EDGE('',*,*,#244,.F.);
#311=ORIENTED_EDGE('',*,*,#245,.T.);
#312=ORIENTED_EDGE('',*,*,#246,.T.);
#313=ORIENTED_EDGE('',*,*,#245,.F.);
#314=ORIENTED_EDGE('',*,*,#239,.T.);
#315=ORIENTED_EDGE('',*,*,#247,.T.);
#316=ORIENTED_EDGE('',*,*,#248,.T.);
#317=ORIENTED_EDGE('',*,*,#249,.T.);
#318=ORIENTED_EDGE('',*,*,#247,.F.);
#319=ORIENTED_EDGE('',*,*,#248,.F.);
#320=ORIENTED_EDGE('',*,*,#249,.F.);
#321=ORIENTED_EDGE('',*,*,#250,.T.);
#322=ORIENTED_EDGE('',*,*,#251,.T.);
#323=ORIENTED_EDGE('',*,*,#250,.F.);
#324=ORIENTED_EDGE('',*,*,#246,.F.);
#325=ORIENTED_EDGE('',*,*,#252,.T.);
#326=ORIENTED_EDGE('',*,*,#252,.F.);
#327=ORIENTED_EDGE('',*,*,#253,.T.);
#328=ORIENTED_EDGE('',*,*,#254,.F.);
#329=ORIENTED_EDGE('',*,*,#253,.F.);
#330=ORIENTED_EDGE('',*,*,#241,.F.);
#331=ORIENTED_EDGE('',*,*,#255,.T.);
#332=ORIENTED_EDGE('',*,*,#255,.F.);
#333=ORIENTED_EDGE('',*,*,#256,.T.);
#334=ORIENTED_EDGE('',*,*,#257,.F.);
#335=ORIENTED_EDGE('',*,*,#256,.F.);
#336=ORIENTED_EDGE('',*,*,#251,.F.);
#337=ORIENTED_EDGE('',*,*,#258,.T.);
#338=ORIENTED_EDGE('',*,*,#258,.F.);
#339=ORIENTED_EDGE('',*,*,#259,.T.);
#340=ORIENTED_EDGE('',*,*,#260,.F.);
#341=ORIENTED_EDGE('',*,*,#259,.F.);
#342=ORIENTED_EDGE('',*,*,#261,.T.);
#343=ORIENTED_EDGE('',*,*,#262,.T.);
#344=ORIENTED_EDGE('',*,*,#237,.F.);
#345=ORIENTED_EDGE('',*,*,#263,.F.);
#346=ORIENTED_EDGE('',*,*,#264,.T.);
#347=ORIENTED_EDGE('',*,*,#263,.T.);
#348=ORIENTED_EDGE('',*,*,#236,.F.);
#349=ORIENTED_EDGE('',*,*,#265,.F.);
#350=ORIENTED_EDGE('',*,*,#266,.T.);
#351=ORIENTED_EDGE('',*,*,#265,.T.);
#352=ORIENTED_EDGE('',*,*,#235,.F.);
#353=ORIENTED_EDGE('',*,*,#267,.F.);
#354=ORIENTED_EDGE('',*,*,#268,.T.);
#355=ORIENTED_EDGE('',*,*,#267,.T.);
#356=ORIENTED_EDGE('',*,*,#234,.F.);
#357=ORIENTED_EDGE('',*,*,#269,.F.);
#358=ORIENTED_EDGE('',*,*,#270,.T.);
#359=ORIENTED_EDGE('',*,*,#269,.T.);
#360=ORIENTED_EDGE('',*,*,#233,.F.);
#361=ORIENTED_EDGE('',*,*,#271,.F.);
#362=ORIENTED_EDGE('',*,*,#272,.T.);
#363=ORIENTED_EDGE('',*,*,#271,.T.);
#364=ORIENTED_EDGE('',*,*,#232,.F.);
#365=ORIENTED_EDGE('',*,*,#273,.F.);
#366=ORIENTED_EDGE('',*,*,#274,.T.);
#367=ORIENTED_EDGE('',*,*,#273,.T.);
#368=ORIENTED_EDGE('',*,*,#231,.F.);
#369=ORIENTED_EDGE('',*,*,#275,.F.);
#370=ORIENTED_EDGE('',*,*,#276,.T.);
#371=ORIENTED_EDGE('',*,*,#275,.T.);
#372=ORIENTED_EDGE('',*,*,#230,.F.);
#373=ORIENTED_EDGE('',*,*,#277,.F.);
#374=ORIENTED_EDGE('',*,*,#278,.T.);
#375=ORIENTED_EDGE('',*,*,#277,.T.);
#376=ORIENTED_EDGE('',*,*,#229,.F.);
#377=ORIENTED_EDGE('',*,*,#279,.F.);
#378=ORIENTED_EDGE('',*,*,#280,.T.);
#379=ORIENTED_EDGE('',*,*,#279,.T.);
#380=ORIENTED_EDGE('',*,*,#228,.F.);
#381=ORIENTED_EDGE('',*,*,#262,.F.);
#382=ORIENTED_EDGE('',*,*,#280,.F.);
#383=ORIENTED_EDGE('',*,*,#261,.F.);
#384=ORIENTED_EDGE('',*,*,#264,.F.);
#385=ORIENTED_EDGE('',*,*,#266,.F.);
#386=ORIENTED_EDGE('',*,*,#268,.F.);
#387=ORIENTED_EDGE('',*,*,#270,.F.);
#388=ORIENTED_EDGE('',*,*,#272,.F.);
#389=ORIENTED_EDGE('',*,*,#274,.F.);
#390=ORIENTED_EDGE('',*,*,#276,.F.);
#391=ORIENTED_EDGE('',*,*,#278,.F.);
#392=ORIENTED_EDGE('',*,*,#254,.T.);
#393=ORIENTED_EDGE('',*,*,#257,.T.);
#394=ORIENTED_EDGE('',*,*,#260,.T.);
#395=CONICAL_SURFACE('',#445,2.5,0.785398163397449);
#396=CONICAL_SURFACE('',#460,2.5,0.785398163397449);
#397=CONICAL_SURFACE('',#465,2.5,0.785398163397449);
#398=ADVANCED_FACE('',(#45),#395,.F.);
#399=ADVANCED_FACE('',(#46,#27,#28,#29),#36,.T.);
#400=ADVANCED_FACE('',(#47),#15,.F.);
#401=ADVANCED_FACE('',(#48),#396,.F.);
#402=ADVANCED_FACE('',(#49),#16,.F.);
#403=ADVANCED_FACE('',(#50),#397,.F.);
#404=ADVANCED_FACE('',(#51),#17,.F.);
#405=ADVANCED_FACE('',(#52,#30),#37,.F.);
#406=ADVANCED_FACE('',(#53),#18,.F.);
#407=ADVANCED_FACE('',(#54,#31),#38,.F.);
#408=ADVANCED_FACE('',(#55),#19,.F.);
#409=ADVANCED_FACE('',(#56,#32),#39,.F.);
#410=ADVANCED_FACE('',(#57),#20,.F.);
#411=ADVANCED_FACE('',(#58),#21,.T.);
#412=ADVANCED_FACE('',(#59),#40,.T.);
#413=ADVANCED_FACE('',(#60),#22,.T.);
#414=ADVANCED_FACE('',(#61),#41,.T.);
#415=ADVANCED_FACE('',(#62),#23,.T.);
#416=ADVANCED_FACE('',(#63),#42,.T.);
#417=ADVANCED_FACE('',(#64),#24,.T.);
#418=ADVANCED_FACE('',(#65),#25,.F.);
#419=ADVANCED_FACE('',(#66),#43,.T.);
#420=ADVANCED_FACE('',(#67),#26,.F.);
#421=ADVANCED_FACE('',(#68,#33,#34,#35),#44,.F.);
#422=CLOSED_SHELL('',(#398,#399,#400,#401,#402,#403,#404,#405,#406,#407,
#408,#409,#410,#411,#412,#413,#414,#415,#416,#417,#418,#419,#420,#421));
#423=DERIVED_UNIT_ELEMENT(#426,1.);
#424=DERIVED_UNIT_ELEMENT(#761,-3.);
#425=DIMENSIONAL_EXPONENTS(0.,1.,0.,0.,0.,0.,0.);
#426=(
CONVERSION_BASED_UNIT('gram',#428)
MASS_UNIT()
NAMED_UNIT(#425)
);
#427=(
MASS_UNIT()
NAMED_UNIT(*)
SI_UNIT(.KILO.,.GRAM.)
);
#428=MASS_MEASURE_WITH_UNIT(MASS_MEASURE(0.001),#427);
#429=DERIVED_UNIT((#423,#424));
#430=MEASURE_REPRESENTATION_ITEM('density measure',
POSITIVE_RATIO_MEASURE(1.13),#429);
#431=PROPERTY_DEFINITION_REPRESENTATION(#436,#433);
#432=PROPERTY_DEFINITION_REPRESENTATION(#437,#434);
#433=REPRESENTATION('material name',(#435),#758);
#434=REPRESENTATION('density',(#430),#758);
#435=DESCRIPTIVE_REPRESENTATION_ITEM('Nylon 6/6','Nylon 6/6');
#436=PROPERTY_DEFINITION('material property','material name',#768);
#437=PROPERTY_DEFINITION('material property','density of part',#768);
#438=DATE_TIME_ROLE('creation_date');
#439=APPLIED_DATE_AND_TIME_ASSIGNMENT(#440,#438,(#768));
#440=DATE_AND_TIME(#441,#442);
#441=CALENDAR_DATE(2026,20,4);
#442=LOCAL_TIME(0,0,0.,#443);
#443=COORDINATED_UNIVERSAL_TIME_OFFSET(0,0,.BEHIND.);
#444=AXIS2_PLACEMENT_3D('',#636,#499,#500);
#445=AXIS2_PLACEMENT_3D('',#637,#501,#502);
#446=AXIS2_PLACEMENT_3D('',#639,#503,#504);
#447=AXIS2_PLACEMENT_3D('',#643,#506,#507);
#448=AXIS2_PLACEMENT_3D('',#644,#508,#509);
#449=AXIS2_PLACEMENT_3D('',#645,#510,#511);
#450=AXIS2_PLACEMENT_3D('',#648,#512,#513);
#451=AXIS2_PLACEMENT_3D('',#652,#515,#516);
#452=AXIS2_PLACEMENT_3D('',#654,#517,#518);
#453=AXIS2_PLACEMENT_3D('',#658,#520,#521);
#454=AXIS2_PLACEMENT_3D('',#662,#523,#524);
#455=AXIS2_PLACEMENT_3D('',#665,#526,#527);
#456=AXIS2_PLACEMENT_3D('',#667,#528,#529);
#457=AXIS2_PLACEMENT_3D('',#669,#530,#531);
#458=AXIS2_PLACEMENT_3D('',#670,#532,#533);
#459=AXIS2_PLACEMENT_3D('',#673,#535,#536);
#460=AXIS2_PLACEMENT_3D('',#674,#537,#538);
#461=AXIS2_PLACEMENT_3D('',#678,#540,#541);
#462=AXIS2_PLACEMENT_3D('',#679,#542,#543);
#463=AXIS2_PLACEMENT_3D('',#680,#544,#545);
#464=AXIS2_PLACEMENT_3D('',#683,#547,#548);
#465=AXIS2_PLACEMENT_3D('',#684,#549,#550);
#466=AXIS2_PLACEMENT_3D('',#688,#552,#553);
#467=AXIS2_PLACEMENT_3D('',#689,#554,#555);
#468=AXIS2_PLACEMENT_3D('',#690,#556,#557);
#469=AXIS2_PLACEMENT_3D('',#693,#559,#560);
#470=AXIS2_PLACEMENT_3D('',#694,#561,#562);
#471=AXIS2_PLACEMENT_3D('',#696,#563,#564);
#472=AXIS2_PLACEMENT_3D('',#697,#565,#566);
#473=AXIS2_PLACEMENT_3D('',#700,#568,#569);
#474=AXIS2_PLACEMENT_3D('',#701,#570,#571);
#475=AXIS2_PLACEMENT_3D('',#703,#572,#573);
#476=AXIS2_PLACEMENT_3D('',#704,#574,#575);
#477=AXIS2_PLACEMENT_3D('',#707,#577,#578);
#478=AXIS2_PLACEMENT_3D('',#708,#579,#580);
#479=AXIS2_PLACEMENT_3D('',#710,#581,#582);
#480=AXIS2_PLACEMENT_3D('',#711,#583,#584);
#481=AXIS2_PLACEMENT_3D('',#714,#586,#587);
#482=AXIS2_PLACEMENT_3D('',#715,#588,#589);
#483=AXIS2_PLACEMENT_3D('',#718,#590,#591);
#484=AXIS2_PLACEMENT_3D('',#721,#594,#595);
#485=AXIS2_PLACEMENT_3D('',#725,#598,#599);
#486=AXIS2_PLACEMENT_3D('',#727,#600,#601);
#487=AXIS2_PLACEMENT_3D('',#729,#603,#604);
#488=AXIS2_PLACEMENT_3D('',#733,#607,#608);
#489=AXIS2_PLACEMENT_3D('',#735,#609,#610);
#490=AXIS2_PLACEMENT_3D('',#737,#612,#613);
#491=AXIS2_PLACEMENT_3D('',#741,#616,#617);
#492=AXIS2_PLACEMENT_3D('',#743,#618,#619);
#493=AXIS2_PLACEMENT_3D('',#745,#621,#622);
#494=AXIS2_PLACEMENT_3D('',#747,#623,#624);
#495=AXIS2_PLACEMENT_3D('',#749,#626,#627);
#496=AXIS2_PLACEMENT_3D('',#753,#630,#631);
#497=AXIS2_PLACEMENT_3D('',#754,#632,#633);
#498=AXIS2_PLACEMENT_3D('',#755,#634,#635);
#499=DIRECTION('axis',(0.,0.,1.));
#500=DIRECTION('refdir',(1.,0.,0.));
#501=DIRECTION('center_axis',(0.,0.,1.));
#502=DIRECTION('ref_axis',(1.,0.,0.));
#503=DIRECTION('center_axis',(0.,0.,1.));
#504=DIRECTION('ref_axis',(1.,0.,0.));
#505=DIRECTION('',(0.707106781186548,8.65956056235494E-17,-0.707106781186547));
#506=DIRECTION('center_axis',(0.,0.,-1.));
#507=DIRECTION('ref_axis',(1.,0.,0.));
#508=DIRECTION('center_axis',(0.,0.,-1.));
#509=DIRECTION('ref_axis',(1.,0.,0.));
#510=DIRECTION('center_axis',(0.,0.,1.));
#511=DIRECTION('ref_axis',(1.,0.,0.));
#512=DIRECTION('center_axis',(0.,0.,-1.));
#513=DIRECTION('ref_axis',(0.116489958967551,0.993191869408796,0.));
#514=DIRECTION('',(-1.,0.,0.));
#515=DIRECTION('center_axis',(0.,0.,-1.));
#516=DIRECTION('ref_axis',(-0.0388888888876147,0.999243541045469,0.));
#517=DIRECTION('center_axis',(0.,0.,1.));
#518=DIRECTION('ref_axis',(-0.0388888888890469,0.999243541045413,0.));
#519=DIRECTION('',(2.22044604925024E-15,-1.,0.));
#520=DIRECTION('center_axis',(0.,0.,1.));
#521=DIRECTION('ref_axis',(-1.,-5.47117906535269E-13,0.));
#522=DIRECTION('',(1.,2.00040184617163E-16,0.));
#523=DIRECTION('center_axis',(0.,0.,1.));
#524=DIRECTION('ref_axis',(-4.24105195406564E-14,-1.,0.));
#525=DIRECTION('',(-2.22044604925024E-15,1.,0.));
#526=DIRECTION('center_axis',(0.,0.,1.));
#527=DIRECTION('ref_axis',(1.,-6.83897383169192E-13,0.));
#528=DIRECTION('center_axis',(0.,0.,1.));
#529=DIRECTION('ref_axis',(1.,0.,0.));
#530=DIRECTION('center_axis',(0.,0.,1.));
#531=DIRECTION('ref_axis',(1.,0.,0.));
#532=DIRECTION('center_axis',(0.,0.,-1.));
#533=DIRECTION('ref_axis',(-1.,0.,0.));
#534=DIRECTION('',(0.,0.,-1.));
#535=DIRECTION('center_axis',(0.,0.,-1.));
#536=DIRECTION('ref_axis',(-1.,0.,0.));
#537=DIRECTION('center_axis',(0.,0.,1.));
#538=DIRECTION('ref_axis',(1.,0.,0.));
#539=DIRECTION('',(0.707106781186548,8.65956056235494E-17,-0.707106781186547));
#540=DIRECTION('center_axis',(0.,0.,-1.));
#541=DIRECTION('ref_axis',(1.,0.,0.));
#542=DIRECTION('center_axis',(0.,0.,-1.));
#543=DIRECTION('ref_axis',(1.,0.,0.));
#544=DIRECTION('center_axis',(0.,0.,-1.));
#545=DIRECTION('ref_axis',(-1.,0.,0.));
#546=DIRECTION('',(0.,0.,-1.));
#547=DIRECTION('center_axis',(0.,0.,-1.));
#548=DIRECTION('ref_axis',(-1.,0.,0.));
#549=DIRECTION('center_axis',(0.,0.,1.));
#550=DIRECTION('ref_axis',(1.,0.,0.));
#551=DIRECTION('',(0.707106781186548,8.65956056235494E-17,-0.707106781186547));
#552=DIRECTION('center_axis',(0.,0.,-1.));
#553=DIRECTION('ref_axis',(1.,0.,0.));
#554=DIRECTION('center_axis',(0.,0.,-1.));
#555=DIRECTION('ref_axis',(1.,0.,0.));
#556=DIRECTION('center_axis',(0.,0.,-1.));
#557=DIRECTION('ref_axis',(-1.,0.,0.));
#558=DIRECTION('',(0.,0.,-1.));
#559=DIRECTION('center_axis',(0.,0.,-1.));
#560=DIRECTION('ref_axis',(-1.,0.,0.));
#561=DIRECTION('center_axis',(0.,0.,-1.));
#562=DIRECTION('ref_axis',(-1.,0.,0.));
#563=DIRECTION('center_axis',(0.,0.,-1.));
#564=DIRECTION('ref_axis',(-1.,0.,0.));
#565=DIRECTION('center_axis',(0.,0.,-1.));
#566=DIRECTION('ref_axis',(-1.,0.,0.));
#567=DIRECTION('',(0.,0.,-1.));
#568=DIRECTION('center_axis',(0.,0.,1.));
#569=DIRECTION('ref_axis',(-1.,0.,0.));
#570=DIRECTION('center_axis',(0.,0.,-1.));
#571=DIRECTION('ref_axis',(-1.,0.,0.));
#572=DIRECTION('center_axis',(0.,0.,-1.));
#573=DIRECTION('ref_axis',(-1.,0.,0.));
#574=DIRECTION('center_axis',(0.,0.,-1.));
#575=DIRECTION('ref_axis',(-1.,0.,0.));
#576=DIRECTION('',(0.,0.,-1.));
#577=DIRECTION('center_axis',(0.,0.,1.));
#578=DIRECTION('ref_axis',(-1.,0.,0.));
#579=DIRECTION('center_axis',(0.,0.,-1.));
#580=DIRECTION('ref_axis',(-1.,0.,0.));
#581=DIRECTION('center_axis',(0.,0.,-1.));
#582=DIRECTION('ref_axis',(-1.,0.,0.));
#583=DIRECTION('center_axis',(0.,0.,-1.));
#584=DIRECTION('ref_axis',(-1.,0.,0.));
#585=DIRECTION('',(0.,0.,-1.));
#586=DIRECTION('center_axis',(0.,0.,1.));
#587=DIRECTION('ref_axis',(-1.,0.,0.));
#588=DIRECTION('center_axis',(0.,0.,1.));
#589=DIRECTION('ref_axis',(1.,-6.83897383169192E-13,0.));
#590=DIRECTION('center_axis',(0.,0.,1.));
#591=DIRECTION('ref_axis',(1.,-6.83897383169192E-13,0.));
#592=DIRECTION('',(0.,0.,1.));
#593=DIRECTION('',(0.,0.,1.));
#594=DIRECTION('center_axis',(1.,2.22044604925024E-15,0.));
#595=DIRECTION('ref_axis',(-2.22044604925024E-15,1.,0.));
#596=DIRECTION('',(-2.22044604925024E-15,1.,0.));
#597=DIRECTION('',(0.,0.,1.));
#598=DIRECTION('center_axis',(0.,0.,1.));
#599=DIRECTION('ref_axis',(-4.24105195406564E-14,-1.,0.));
#600=DIRECTION('center_axis',(0.,0.,1.));
#601=DIRECTION('ref_axis',(-4.24105195406564E-14,-1.,0.));
#602=DIRECTION('',(0.,0.,1.));
#603=DIRECTION('center_axis',(2.00040184617163E-16,-1.,0.));
#604=DIRECTION('ref_axis',(1.,2.00040184617163E-16,0.));
#605=DIRECTION('',(1.,2.00040184617163E-16,0.));
#606=DIRECTION('',(0.,0.,1.));
#607=DIRECTION('center_axis',(0.,0.,1.));
#608=DIRECTION('ref_axis',(-1.,-5.47117906535269E-13,0.));
#609=DIRECTION('center_axis',(0.,0.,1.));
#610=DIRECTION('ref_axis',(-1.,-5.47117906535269E-13,0.));
#611=DIRECTION('',(0.,0.,1.));
#612=DIRECTION('center_axis',(-1.,-2.22044604925024E-15,0.));
#613=DIRECTION('ref_axis',(2.22044604925024E-15,-1.,0.));
#614=DIRECTION('',(2.22044604925024E-15,-1.,0.));
#615=DIRECTION('',(0.,0.,1.));
#616=DIRECTION('center_axis',(0.,0.,1.));
#617=DIRECTION('ref_axis',(-0.0388888888890469,0.999243541045413,0.));
#618=DIRECTION('center_axis',(0.,0.,1.));
#619=DIRECTION('ref_axis',(-0.0388888888890469,0.999243541045413,0.));
#620=DIRECTION('',(0.,0.,1.));
#621=DIRECTION('center_axis',(0.,0.,1.));
#622=DIRECTION('ref_axis',(-0.0388888888876147,0.999243541045469,0.));
#623=DIRECTION('center_axis',(0.,0.,-1.));
#624=DIRECTION('ref_axis',(-0.0388888888876147,0.999243541045469,0.));
#625=DIRECTION('',(0.,0.,1.));
#626=DIRECTION('center_axis',(0.,1.,0.));
#627=DIRECTION('ref_axis',(-1.,0.,0.));
#628=DIRECTION('',(-1.,0.,0.));
#629=DIRECTION('',(0.,0.,1.));
#630=DIRECTION('center_axis',(0.,0.,1.));
#631=DIRECTION('ref_axis',(0.116489958967551,0.993191869408796,0.));
#632=DIRECTION('center_axis',(0.,0.,-1.));
#633=DIRECTION('ref_axis',(0.116489958967551,0.993191869408796,0.));
#634=DIRECTION('center_axis',(0.,0.,1.));
#635=DIRECTION('ref_axis',(1.,0.,0.));
#636=CARTESIAN_POINT('',(0.,0.,0.));
#637=CARTESIAN_POINT('Origin',(0.00561775466916714,-6.34973297088036,2.75));
#638=CARTESIAN_POINT('',(-2.74438224533083,-6.34973297088036,3.));
#639=CARTESIAN_POINT('Origin',(0.00561775466916714,-6.34973297088036,3.));
#640=CARTESIAN_POINT('',(-2.24438224533083,-6.34973297088036,2.5));
#641=CARTESIAN_POINT('',(-2.49438224533083,-6.34973297088036,2.75));
#642=CARTESIAN_POINT('',(2.25561775466917,-6.34973297088036,2.5));
#643=CARTESIAN_POINT('Origin',(0.00561775466916714,-6.34973297088036,2.5));
#644=CARTESIAN_POINT('Origin',(0.00561775466916714,-6.34973297088036,2.5));
#645=CARTESIAN_POINT('Origin',(3.79696274421804E-13,1.36779476633819E-12,
3.));
#646=CARTESIAN_POINT('',(9.48055555555468,9.496974164182,3.));
#647=CARTESIAN_POINT('',(9.44175502051524,9.50000000000032,3.));
#648=CARTESIAN_POINT('Origin',(9.49999999999933,9.99659593470746,3.));
#649=CARTESIAN_POINT('',(-9.44175502051528,9.50000000000032,3.));
#650=CARTESIAN_POINT('',(9.44175502051524,9.50000000000032,3.));
#651=CARTESIAN_POINT('',(-9.48055555555473,9.496974164182,3.));
#652=CARTESIAN_POINT('Origin',(-9.49999999999864,9.99659593470746,3.));
#653=CARTESIAN_POINT('',(-13.3249999999988,5.50000000000018,3.));
#654=CARTESIAN_POINT('Origin',(-9.32499999999864,5.50000000000292,3.));
#655=CARTESIAN_POINT('',(-13.3249999999988,-4.50000000000014,3.));
#656=CARTESIAN_POINT('',(-13.3249999999988,5.50000000000018,3.));
#657=CARTESIAN_POINT('',(-8.32499999999922,-9.50000000000031,3.));
#658=CARTESIAN_POINT('Origin',(-8.32499999999873,-4.49999999999741,3.));
#659=CARTESIAN_POINT('',(8.32499999999928,-9.5000000000003,3.));
#660=CARTESIAN_POINT('',(-8.32499999999922,-9.50000000000031,3.));
#661=CARTESIAN_POINT('',(13.3249999999988,-4.50000000000014,3.));
#662=CARTESIAN_POINT('Origin',(8.32499999999949,-4.49999999999741,3.));
#663=CARTESIAN_POINT('',(13.3249999999988,5.50000000000019,3.));
#664=CARTESIAN_POINT('',(13.3249999999988,-4.50000000000014,3.));
#665=CARTESIAN_POINT('Origin',(9.32499999999936,5.50000000000292,3.));
#666=CARTESIAN_POINT('',(6.28762875466817,6.23066530717271,3.));
#667=CARTESIAN_POINT('Origin',(9.03762875466817,6.23066530717271,3.));
#668=CARTESIAN_POINT('',(-11.7763932453299,6.23066530717272,3.));
#669=CARTESIAN_POINT('Origin',(-9.02639324532989,6.23066530717272,3.));
#670=CARTESIAN_POINT('Origin',(0.00561775466916714,-6.34973297088036,2.));
#671=CARTESIAN_POINT('',(2.25561775466917,-6.34973297088036,1.));
#672=CARTESIAN_POINT('',(2.25561775466917,-6.34973297088036,2.));
#673=CARTESIAN_POINT('Origin',(0.00561775466916714,-6.34973297088036,1.));
#674=CARTESIAN_POINT('Origin',(9.03762875466817,6.23066530717271,2.75));
#675=CARTESIAN_POINT('',(6.78762875466817,6.23066530717271,2.5));
#676=CARTESIAN_POINT('',(6.53762875466817,6.23066530717271,2.75));
#677=CARTESIAN_POINT('',(11.2876287546682,6.23066530717271,2.5));
#678=CARTESIAN_POINT('Origin',(9.03762875466817,6.23066530717271,2.5));
#679=CARTESIAN_POINT('Origin',(9.03762875466817,6.23066530717271,2.5));
#680=CARTESIAN_POINT('Origin',(9.03762875466817,6.23066530717271,2.));
#681=CARTESIAN_POINT('',(11.2876287546682,6.23066530717271,1.));
#682=CARTESIAN_POINT('',(11.2876287546682,6.23066530717271,2.));
#683=CARTESIAN_POINT('Origin',(9.03762875466817,6.23066530717271,1.));
#684=CARTESIAN_POINT('Origin',(-9.02639324532989,6.23066530717272,2.75));
#685=CARTESIAN_POINT('',(-11.2763932453299,6.23066530717272,2.5));
#686=CARTESIAN_POINT('',(-11.5263932453299,6.23066530717272,2.75));
#687=CARTESIAN_POINT('',(-6.77639324532989,6.23066530717272,2.5));
#688=CARTESIAN_POINT('Origin',(-9.02639324532989,6.23066530717272,2.5));
#689=CARTESIAN_POINT('Origin',(-9.02639324532989,6.23066530717272,2.5));
#690=CARTESIAN_POINT('Origin',(-9.02639324532989,6.23066530717272,2.));
#691=CARTESIAN_POINT('',(-6.77639324532989,6.23066530717272,1.));
#692=CARTESIAN_POINT('',(-6.77639324532989,6.23066530717272,2.));
#693=CARTESIAN_POINT('Origin',(-9.02639324532989,6.23066530717272,1.));
#694=CARTESIAN_POINT('Origin',(9.03762875466817,6.23066530717271,1.));
#695=CARTESIAN_POINT('',(10.1376287546682,6.23066530717271,1.));
#696=CARTESIAN_POINT('Origin',(9.03762875466817,6.23066530717271,1.));
#697=CARTESIAN_POINT('Origin',(9.03762875466817,6.23066530717271,-3.));
#698=CARTESIAN_POINT('',(10.1376287546682,6.23066530717271,0.));
#699=CARTESIAN_POINT('',(10.1376287546682,6.23066530717271,-3.));
#700=CARTESIAN_POINT('Origin',(9.03762875466817,6.23066530717271,0.));
#701=CARTESIAN_POINT('Origin',(0.00561775466916714,-6.34973297088036,1.));
#702=CARTESIAN_POINT('',(1.10561775466917,-6.34973297088036,1.));
#703=CARTESIAN_POINT('Origin',(0.00561775466916714,-6.34973297088036,1.));
#704=CARTESIAN_POINT('Origin',(0.00561775466916714,-6.34973297088036,-3.));
#705=CARTESIAN_POINT('',(1.10561775466917,-6.34973297088036,0.));
#706=CARTESIAN_POINT('',(1.10561775466917,-6.34973297088036,-3.));
#707=CARTESIAN_POINT('Origin',(0.00561775466916714,-6.34973297088036,0.));
#708=CARTESIAN_POINT('Origin',(-9.02639324532989,6.23066530717272,1.));
#709=CARTESIAN_POINT('',(-7.92639324532989,6.23066530717272,1.));
#710=CARTESIAN_POINT('Origin',(-9.02639324532989,6.23066530717272,1.));
#711=CARTESIAN_POINT('Origin',(-9.02639324532989,6.23066530717272,-3.));
#712=CARTESIAN_POINT('',(-7.92639324532989,6.23066530717272,0.));
#713=CARTESIAN_POINT('',(-7.92639324532989,6.23066530717272,-3.));
#714=CARTESIAN_POINT('Origin',(-9.02639324532989,6.23066530717272,0.));
#715=CARTESIAN_POINT('Origin',(9.32499999999936,5.50000000000292,0.));
#716=CARTESIAN_POINT('',(13.3249999999988,5.50000000000019,0.));
#717=CARTESIAN_POINT('',(9.48055555555468,9.496974164182,0.));
#718=CARTESIAN_POINT('Origin',(9.32499999999936,5.50000000000292,0.));
#719=CARTESIAN_POINT('',(9.48055555555468,9.496974164182,0.));
#720=CARTESIAN_POINT('',(13.3249999999988,5.50000000000019,0.));
#721=CARTESIAN_POINT('Origin',(13.3249999999988,-4.50000000000013,0.));
#722=CARTESIAN_POINT('',(13.3249999999988,-4.50000000000013,0.));
#723=CARTESIAN_POINT('',(13.3249999999988,-4.50000000000014,0.));
#724=CARTESIAN_POINT('',(13.3249999999988,-4.50000000000013,0.));
#725=CARTESIAN_POINT('Origin',(8.32499999999949,-4.49999999999741,0.));
#726=CARTESIAN_POINT('',(8.32499999999928,-9.5000000000003,0.));
#727=CARTESIAN_POINT('Origin',(8.32499999999949,-4.49999999999741,0.));
#728=CARTESIAN_POINT('',(8.32499999999928,-9.5000000000003,0.));
#729=CARTESIAN_POINT('Origin',(-8.32499999999923,-9.50000000000031,0.));
#730=CARTESIAN_POINT('',(-8.32499999999923,-9.50000000000031,0.));
#731=CARTESIAN_POINT('',(-8.32499999999922,-9.50000000000031,0.));
#732=CARTESIAN_POINT('',(-8.32499999999923,-9.50000000000031,0.));
#733=CARTESIAN_POINT('Origin',(-8.32499999999873,-4.49999999999741,0.));
#734=CARTESIAN_POINT('',(-13.3249999999988,-4.50000000000014,0.));
#735=CARTESIAN_POINT('Origin',(-8.32499999999873,-4.49999999999741,0.));
#736=CARTESIAN_POINT('',(-13.3249999999988,-4.50000000000014,0.));
#737=CARTESIAN_POINT('Origin',(-13.3249999999988,5.50000000000018,0.));
#738=CARTESIAN_POINT('',(-13.3249999999988,5.50000000000018,0.));
#739=CARTESIAN_POINT('',(-13.3249999999988,5.50000000000018,0.));
#740=CARTESIAN_POINT('',(-13.3249999999988,5.50000000000018,0.));
#741=CARTESIAN_POINT('Origin',(-9.32499999999864,5.50000000000292,0.));
#742=CARTESIAN_POINT('',(-9.48055555555473,9.496974164182,0.));
#743=CARTESIAN_POINT('Origin',(-9.32499999999864,5.50000000000292,0.));
#744=CARTESIAN_POINT('',(-9.48055555555473,9.496974164182,0.));
#745=CARTESIAN_POINT('Origin',(-9.49999999999864,9.99659593470746,0.));
#746=CARTESIAN_POINT('',(-9.44175502051528,9.50000000000032,0.));
#747=CARTESIAN_POINT('Origin',(-9.49999999999864,9.99659593470746,0.));
#748=CARTESIAN_POINT('',(-9.44175502051528,9.50000000000032,0.));
#749=CARTESIAN_POINT('Origin',(9.44175502051524,9.50000000000032,0.));
#750=CARTESIAN_POINT('',(9.44175502051524,9.50000000000032,0.));
#751=CARTESIAN_POINT('',(9.44175502051524,9.50000000000032,0.));
#752=CARTESIAN_POINT('',(9.44175502051524,9.50000000000032,0.));
#753=CARTESIAN_POINT('Origin',(9.49999999999933,9.99659593470746,0.));
#754=CARTESIAN_POINT('Origin',(9.49999999999933,9.99659593470746,0.));
#755=CARTESIAN_POINT('Origin',(3.79696274421804E-13,1.36779476633819E-12,
0.));
#756=UNCERTAINTY_MEASURE_WITH_UNIT(LENGTH_MEASURE(0.01),#760,
'DISTANCE_ACCURACY_VALUE',
'Maximum model space distance between geometric entities at asserted c
onnectivities');
#757=UNCERTAINTY_MEASURE_WITH_UNIT(LENGTH_MEASURE(0.01),#760,
'DISTANCE_ACCURACY_VALUE',
'Maximum model space distance between geometric entities at asserted c
onnectivities');
#758=(
GEOMETRIC_REPRESENTATION_CONTEXT(3)
GLOBAL_UNCERTAINTY_ASSIGNED_CONTEXT((#756))
GLOBAL_UNIT_ASSIGNED_CONTEXT((#760,#762,#763))
REPRESENTATION_CONTEXT('','3D')
);
#759=(
GEOMETRIC_REPRESENTATION_CONTEXT(3)
GLOBAL_UNCERTAINTY_ASSIGNED_CONTEXT((#757))
GLOBAL_UNIT_ASSIGNED_CONTEXT((#760,#762,#763))
REPRESENTATION_CONTEXT('','3D')
);
#760=(
LENGTH_UNIT()
NAMED_UNIT(*)
SI_UNIT(.MILLI.,.METRE.)
);
#761=(
LENGTH_UNIT()
NAMED_UNIT(*)
SI_UNIT(.CENTI.,.METRE.)
);
#762=(
NAMED_UNIT(*)
PLANE_ANGLE_UNIT()
SI_UNIT($,.RADIAN.)
);
#763=(
NAMED_UNIT(*)
SI_UNIT($,.STERADIAN.)
SOLID_ANGLE_UNIT()
);
#764=SHAPE_DEFINITION_REPRESENTATION(#765,#766);
#765=PRODUCT_DEFINITION_SHAPE('',$,#768);
#766=SHAPE_REPRESENTATION('',(#444),#758);
#767=PRODUCT_DEFINITION_CONTEXT('part definition',#772,'design');
#768=PRODUCT_DEFINITION('LunasCover','LunasCover',#769,#767);
#769=PRODUCT_DEFINITION_FORMATION('',$,#774);
#770=PRODUCT_RELATED_PRODUCT_CATEGORY('LunasCover','LunasCover',(#774));
#771=APPLICATION_PROTOCOL_DEFINITION('international standard',
'automotive_design',2009,#772);
#772=APPLICATION_CONTEXT(
'Core Data for Automotive Mechanical Design Process');
#773=PRODUCT_CONTEXT('part definition',#772,'mechanical');
#774=PRODUCT('LunasCover','LunasCover',$,(#773));
#775=PRESENTATION_STYLE_ASSIGNMENT((#776));
#776=SURFACE_STYLE_USAGE(.BOTH.,#779);
#777=SURFACE_STYLE_RENDERING_WITH_PROPERTIES($,#783,(#778));
#778=SURFACE_STYLE_TRANSPARENT(0.);
#779=SURFACE_SIDE_STYLE('',(#780,#777));
#780=SURFACE_STYLE_FILL_AREA(#781);
#781=FILL_AREA_STYLE('',(#782));
#782=FILL_AREA_STYLE_COLOUR('',#783);
#783=COLOUR_RGB('',0.498039215686275,0.498039215686275,0.498039215686275);
ENDSEC;
END-ISO-10303-21;
