ISO-10303-21;
HEADER;
/* Generated by software containing ST-Developer
 * from STEP Tools, Inc. (www.steptools.com) 
 */

FILE_DESCRIPTION(
/* description */ (''),
/* implementation_level */ '2;1');

FILE_NAME(
/* name */ 'PCB_Holder_Floor.stp',
/* time_stamp */ '2026-04-10T21:53:03+02:00',
/* author */ ('szymo'),
/* organization */ (''),
/* preprocessor_version */ 'ST-DEVELOPER v20.1',
/* originating_system */ 'Autodesk Inventor 2026',
/* authorisation */ '');

FILE_SCHEMA (('AUTOMOTIVE_DESIGN { 1 0 10303 214 3 1 1 }'));
ENDSEC;

DATA;
#10=MECHANICAL_DESIGN_GEOMETRIC_PRESENTATION_REPRESENTATION('',(#13),#974);
#11=SHAPE_REPRESENTATION_RELATIONSHIP('SRR','None',#981,#12);
#12=ADVANCED_BREP_SHAPE_REPRESENTATION('',(#14),#973);
#13=STYLED_ITEM('',(#990),#14);
#14=MANIFOLD_SOLID_BREP('Solid1',#571);
#15=FACE_BOUND('',#89,.T.);
#16=FACE_BOUND('',#93,.T.);
#17=FACE_BOUND('',#98,.T.);
#18=FACE_BOUND('',#102,.T.);
#19=FACE_BOUND('',#109,.T.);
#20=FACE_BOUND('',#110,.T.);
#21=FACE_BOUND('',#111,.T.);
#22=FACE_BOUND('',#112,.T.);
#23=FACE_BOUND('',#113,.T.);
#24=FACE_BOUND('',#114,.T.);
#25=PLANE('',#616);
#26=PLANE('',#620);
#27=PLANE('',#621);
#28=PLANE('',#626);
#29=PLANE('',#627);
#30=PLANE('',#633);
#31=PLANE('',#634);
#32=PLANE('',#635);
#33=PLANE('',#636);
#34=PLANE('',#637);
#35=PLANE('',#638);
#36=PLANE('',#639);
#37=PLANE('',#640);
#38=PLANE('',#641);
#39=PLANE('',#642);
#40=PLANE('',#643);
#41=CYLINDRICAL_SURFACE('',#597,1.7);
#42=CYLINDRICAL_SURFACE('',#602,1.7);
#43=CYLINDRICAL_SURFACE('',#608,1.7);
#44=CYLINDRICAL_SURFACE('',#614,1.7);
#45=CYLINDRICAL_SURFACE('',#617,1.);
#46=CYLINDRICAL_SURFACE('',#623,1.);
#47=CYLINDRICAL_SURFACE('',#629,1.25);
#48=CYLINDRICAL_SURFACE('',#631,1.25);
#49=FACE_OUTER_BOUND('',#77,.T.);
#50=FACE_OUTER_BOUND('',#78,.T.);
#51=FACE_OUTER_BOUND('',#79,.T.);
#52=FACE_OUTER_BOUND('',#80,.T.);
#53=FACE_OUTER_BOUND('',#81,.T.);
#54=FACE_OUTER_BOUND('',#82,.T.);
#55=FACE_OUTER_BOUND('',#83,.T.);
#56=FACE_OUTER_BOUND('',#84,.T.);
#57=FACE_OUTER_BOUND('',#85,.T.);
#58=FACE_OUTER_BOUND('',#86,.T.);
#59=FACE_OUTER_BOUND('',#87,.T.);
#60=FACE_OUTER_BOUND('',#88,.T.);
#61=FACE_OUTER_BOUND('',#90,.T.);
#62=FACE_OUTER_BOUND('',#91,.T.);
#63=FACE_OUTER_BOUND('',#92,.T.);
#64=FACE_OUTER_BOUND('',#94,.T.);
#65=FACE_OUTER_BOUND('',#95,.T.);
#66=FACE_OUTER_BOUND('',#96,.T.);
#67=FACE_OUTER_BOUND('',#97,.T.);
#68=FACE_OUTER_BOUND('',#99,.T.);
#69=FACE_OUTER_BOUND('',#100,.T.);
#70=FACE_OUTER_BOUND('',#101,.T.);
#71=FACE_OUTER_BOUND('',#103,.T.);
#72=FACE_OUTER_BOUND('',#104,.T.);
#73=FACE_OUTER_BOUND('',#105,.T.);
#74=FACE_OUTER_BOUND('',#106,.T.);
#75=FACE_OUTER_BOUND('',#107,.T.);
#76=FACE_OUTER_BOUND('',#108,.T.);
#77=EDGE_LOOP('',(#379,#380,#381,#382,#383,#384));
#78=EDGE_LOOP('',(#385,#386,#387,#388));
#79=EDGE_LOOP('',(#389,#390,#391,#392,#393,#394));
#80=EDGE_LOOP('',(#395,#396,#397,#398));
#81=EDGE_LOOP('',(#399,#400,#401,#402,#403,#404));
#82=EDGE_LOOP('',(#405,#406,#407,#408));
#83=EDGE_LOOP('',(#409,#410,#411,#412,#413,#414));
#84=EDGE_LOOP('',(#415,#416,#417,#418));
#85=EDGE_LOOP('',(#419,#420,#421,#422,#423,#424,#425,#426,#427,#428,#429,
#430,#431,#432));
#86=EDGE_LOOP('',(#433,#434,#435,#436));
#87=EDGE_LOOP('',(#437,#438,#439,#440));
#88=EDGE_LOOP('',(#441,#442,#443,#444,#445));
#89=EDGE_LOOP('',(#446));
#90=EDGE_LOOP('',(#447,#448,#449,#450));
#91=EDGE_LOOP('',(#451,#452,#453,#454));
#92=EDGE_LOOP('',(#455,#456,#457,#458,#459));
#93=EDGE_LOOP('',(#460));
#94=EDGE_LOOP('',(#461,#462,#463,#464));
#95=EDGE_LOOP('',(#465,#466,#467,#468));
#96=EDGE_LOOP('',(#469,#470,#471,#472));
#97=EDGE_LOOP('',(#473,#474,#475,#476,#477));
#98=EDGE_LOOP('',(#478));
#99=EDGE_LOOP('',(#479,#480,#481,#482));
#100=EDGE_LOOP('',(#483,#484,#485,#486));
#101=EDGE_LOOP('',(#487,#488,#489,#490,#491));
#102=EDGE_LOOP('',(#492));
#103=EDGE_LOOP('',(#493,#494,#495,#496));
#104=EDGE_LOOP('',(#497,#498,#499,#500));
#105=EDGE_LOOP('',(#501,#502,#503,#504,#505,#506,#507,#508));
#106=EDGE_LOOP('',(#509,#510,#511,#512));
#107=EDGE_LOOP('',(#513,#514,#515,#516,#517,#518,#519,#520,#521,#522));
#108=EDGE_LOOP('',(#523,#524,#525,#526));
#109=EDGE_LOOP('',(#527));
#110=EDGE_LOOP('',(#528));
#111=EDGE_LOOP('',(#529));
#112=EDGE_LOOP('',(#530));
#113=EDGE_LOOP('',(#531,#532,#533,#534));
#114=EDGE_LOOP('',(#535,#536,#537,#538));
#115=LINE('',#811,#167);
#116=LINE('',#815,#168);
#117=LINE('',#829,#169);
#118=LINE('',#833,#170);
#119=LINE('',#844,#171);
#120=LINE('',#849,#172);
#121=LINE('',#860,#173);
#122=LINE('',#865,#174);
#123=LINE('',#868,#175);
#124=LINE('',#870,#176);
#125=LINE('',#872,#177);
#126=LINE('',#873,#178);
#127=LINE('',#874,#179);
#128=LINE('',#876,#180);
#129=LINE('',#878,#181);
#130=LINE('',#879,#182);
#131=LINE('',#885,#183);
#132=LINE('',#888,#184);
#133=LINE('',#891,#185);
#134=LINE('',#893,#186);
#135=LINE('',#894,#187);
#136=LINE('',#897,#188);
#137=LINE('',#899,#189);
#138=LINE('',#900,#190);
#139=LINE('',#908,#191);
#140=LINE('',#911,#192);
#141=LINE('',#914,#193);
#142=LINE('',#916,#194);
#143=LINE('',#917,#195);
#144=LINE('',#920,#196);
#145=LINE('',#922,#197);
#146=LINE('',#923,#198);
#147=LINE('',#929,#199);
#148=LINE('',#932,#200);
#149=LINE('',#936,#201);
#150=LINE('',#938,#202);
#151=LINE('',#939,#203);
#152=LINE('',#941,#204);
#153=LINE('',#942,#205);
#154=LINE('',#946,#206);
#155=LINE('',#948,#207);
#156=LINE('',#949,#208);
#157=LINE('',#951,#209);
#158=LINE('',#952,#210);
#159=LINE('',#956,#211);
#160=LINE('',#958,#212);
#161=LINE('',#959,#213);
#162=LINE('',#962,#214);
#163=LINE('',#963,#215);
#164=LINE('',#966,#216);
#165=LINE('',#967,#217);
#166=LINE('',#969,#218);
#167=VECTOR('',#650,2.475);
#168=VECTOR('',#655,1.7);
#169=VECTOR('',#662,2.475);
#170=VECTOR('',#667,1.7);
#171=VECTOR('',#674,2.475);
#172=VECTOR('',#681,1.7);
#173=VECTOR('',#688,2.475);
#174=VECTOR('',#695,1.7);
#175=VECTOR('',#700,10.);
#176=VECTOR('',#701,10.);
#177=VECTOR('',#702,10.);
#178=VECTOR('',#703,10.);
#179=VECTOR('',#704,10.);
#180=VECTOR('',#705,10.);
#181=VECTOR('',#706,10.);
#182=VECTOR('',#707,10.);
#183=VECTOR('',#712,10.);
#184=VECTOR('',#715,10.);
#185=VECTOR('',#718,10.);
#186=VECTOR('',#719,10.);
#187=VECTOR('',#720,10.);
#188=VECTOR('',#723,10.);
#189=VECTOR('',#724,10.);
#190=VECTOR('',#725,10.);
#191=VECTOR('',#732,10.);
#192=VECTOR('',#735,10.);
#193=VECTOR('',#738,10.);
#194=VECTOR('',#739,10.);
#195=VECTOR('',#740,10.);
#196=VECTOR('',#743,10.);
#197=VECTOR('',#744,10.);
#198=VECTOR('',#745,10.);
#199=VECTOR('',#752,1.25);
#200=VECTOR('',#755,1.25);
#201=VECTOR('',#760,10.);
#202=VECTOR('',#761,10.);
#203=VECTOR('',#762,10.);
#204=VECTOR('',#765,10.);
#205=VECTOR('',#766,10.);
#206=VECTOR('',#771,10.);
#207=VECTOR('',#772,10.);
#208=VECTOR('',#773,10.);
#209=VECTOR('',#776,10.);
#210=VECTOR('',#777,10.);
#211=VECTOR('',#782,10.);
#212=VECTOR('',#783,10.);
#213=VECTOR('',#784,10.);
#214=VECTOR('',#787,10.);
#215=VECTOR('',#788,10.);
#216=VECTOR('',#791,10.);
#217=VECTOR('',#792,10.);
#218=VECTOR('',#795,10.);
#219=CIRCLE('',#595,3.25);
#220=CIRCLE('',#596,1.7);
#221=CIRCLE('',#598,1.7);
#222=CIRCLE('',#600,3.25);
#223=CIRCLE('',#601,1.7);
#224=CIRCLE('',#603,1.7);
#225=CIRCLE('',#605,3.25);
#226=CIRCLE('',#606,1.7);
#227=CIRCLE('',#607,3.25);
#228=CIRCLE('',#609,1.7);
#229=CIRCLE('',#611,3.25);
#230=CIRCLE('',#612,1.7);
#231=CIRCLE('',#613,3.25);
#232=CIRCLE('',#615,1.7);
#233=CIRCLE('',#618,1.);
#234=CIRCLE('',#619,1.);
#235=CIRCLE('',#622,1.25);
#236=CIRCLE('',#624,1.);
#237=CIRCLE('',#625,1.);
#238=CIRCLE('',#628,1.25);
#239=CIRCLE('',#630,1.25);
#240=CIRCLE('',#632,1.25);
#241=(
BOUNDED_CURVE()
B_SPLINE_CURVE(2,(#802,#803,#804),.UNSPECIFIED.,.F.,.F.)
B_SPLINE_CURVE_WITH_KNOTS((3,3),(0.,0.273404462293342),.UNSPECIFIED.)
CURVE()
GEOMETRIC_REPRESENTATION_ITEM()
RATIONAL_B_SPLINE_CURVE((1.,1.27380952382036,1.27380952382036))
REPRESENTATION_ITEM('')
);
#242=(
BOUNDED_CURVE()
B_SPLINE_CURVE(2,(#807,#808,#809),.UNSPECIFIED.,.F.,.F.)
B_SPLINE_CURVE_WITH_KNOTS((3,3),(0.273404462293342,0.546808924586684),
 .UNSPECIFIED.)
CURVE()
GEOMETRIC_REPRESENTATION_ITEM()
RATIONAL_B_SPLINE_CURVE((1.27380952382036,1.27380952382036,1.))
REPRESENTATION_ITEM('')
);
#243=(
BOUNDED_CURVE()
B_SPLINE_CURVE(2,(#820,#821,#822),.UNSPECIFIED.,.F.,.F.)
B_SPLINE_CURVE_WITH_KNOTS((3,3),(0.,0.273404462293343),.UNSPECIFIED.)
CURVE()
GEOMETRIC_REPRESENTATION_ITEM()
RATIONAL_B_SPLINE_CURVE((1.,1.27380952382036,1.27380952382036))
REPRESENTATION_ITEM('')
);
#244=(
BOUNDED_CURVE()
B_SPLINE_CURVE(2,(#825,#826,#827),.UNSPECIFIED.,.F.,.F.)
B_SPLINE_CURVE_WITH_KNOTS((3,3),(0.273404462293343,0.546808924586686),
 .UNSPECIFIED.)
CURVE()
GEOMETRIC_REPRESENTATION_ITEM()
RATIONAL_B_SPLINE_CURVE((1.27380952382036,1.27380952382036,1.))
REPRESENTATION_ITEM('')
);
#245=(
BOUNDED_CURVE()
B_SPLINE_CURVE(2,(#838,#839,#840),.UNSPECIFIED.,.F.,.F.)
B_SPLINE_CURVE_WITH_KNOTS((3,3),(0.,0.546808924579693),.UNSPECIFIED.)
CURVE()
GEOMETRIC_REPRESENTATION_ITEM()
RATIONAL_B_SPLINE_CURVE((1.,1.54761904761904,1.))
REPRESENTATION_ITEM('')
);
#246=(
BOUNDED_CURVE()
B_SPLINE_CURVE(2,(#854,#855,#856),.UNSPECIFIED.,.F.,.F.)
B_SPLINE_CURVE_WITH_KNOTS((3,3),(0.,0.546808924579692),.UNSPECIFIED.)
CURVE()
GEOMETRIC_REPRESENTATION_ITEM()
RATIONAL_B_SPLINE_CURVE((1.,1.54761904761904,1.))
REPRESENTATION_ITEM('')
);
#247=VERTEX_POINT('',#800);
#248=VERTEX_POINT('',#801);
#249=VERTEX_POINT('',#805);
#250=VERTEX_POINT('',#810);
#251=VERTEX_POINT('',#814);
#252=VERTEX_POINT('',#818);
#253=VERTEX_POINT('',#819);
#254=VERTEX_POINT('',#823);
#255=VERTEX_POINT('',#828);
#256=VERTEX_POINT('',#832);
#257=VERTEX_POINT('',#836);
#258=VERTEX_POINT('',#837);
#259=VERTEX_POINT('',#841);
#260=VERTEX_POINT('',#843);
#261=VERTEX_POINT('',#848);
#262=VERTEX_POINT('',#852);
#263=VERTEX_POINT('',#853);
#264=VERTEX_POINT('',#857);
#265=VERTEX_POINT('',#859);
#266=VERTEX_POINT('',#864);
#267=VERTEX_POINT('',#869);
#268=VERTEX_POINT('',#871);
#269=VERTEX_POINT('',#875);
#270=VERTEX_POINT('',#877);
#271=VERTEX_POINT('',#881);
#272=VERTEX_POINT('',#882);
#273=VERTEX_POINT('',#884);
#274=VERTEX_POINT('',#886);
#275=VERTEX_POINT('',#890);
#276=VERTEX_POINT('',#892);
#277=VERTEX_POINT('',#896);
#278=VERTEX_POINT('',#898);
#279=VERTEX_POINT('',#901);
#280=VERTEX_POINT('',#904);
#281=VERTEX_POINT('',#905);
#282=VERTEX_POINT('',#907);
#283=VERTEX_POINT('',#909);
#284=VERTEX_POINT('',#913);
#285=VERTEX_POINT('',#915);
#286=VERTEX_POINT('',#919);
#287=VERTEX_POINT('',#921);
#288=VERTEX_POINT('',#924);
#289=VERTEX_POINT('',#927);
#290=VERTEX_POINT('',#931);
#291=VERTEX_POINT('',#935);
#292=VERTEX_POINT('',#937);
#293=VERTEX_POINT('',#945);
#294=VERTEX_POINT('',#947);
#295=VERTEX_POINT('',#955);
#296=VERTEX_POINT('',#957);
#297=VERTEX_POINT('',#961);
#298=VERTEX_POINT('',#965);
#299=EDGE_CURVE('',#247,#248,#241,.T.);
#300=EDGE_CURVE('',#249,#247,#219,.T.);
#301=EDGE_CURVE('',#248,#249,#242,.T.);
#302=EDGE_CURVE('',#248,#250,#115,.T.);
#303=EDGE_CURVE('',#250,#250,#220,.T.);
#304=EDGE_CURVE('',#250,#251,#116,.T.);
#305=EDGE_CURVE('',#251,#251,#221,.T.);
#306=EDGE_CURVE('',#252,#253,#243,.T.);
#307=EDGE_CURVE('',#254,#252,#222,.T.);
#308=EDGE_CURVE('',#253,#254,#244,.T.);
#309=EDGE_CURVE('',#253,#255,#117,.T.);
#310=EDGE_CURVE('',#255,#255,#223,.T.);
#311=EDGE_CURVE('',#255,#256,#118,.T.);
#312=EDGE_CURVE('',#256,#256,#224,.T.);
#313=EDGE_CURVE('',#257,#258,#245,.T.);
#314=EDGE_CURVE('',#259,#257,#225,.T.);
#315=EDGE_CURVE('',#259,#260,#119,.T.);
#316=EDGE_CURVE('',#260,#260,#226,.T.);
#317=EDGE_CURVE('',#258,#259,#227,.T.);
#318=EDGE_CURVE('',#260,#261,#120,.T.);
#319=EDGE_CURVE('',#261,#261,#228,.T.);
#320=EDGE_CURVE('',#262,#263,#246,.T.);
#321=EDGE_CURVE('',#264,#262,#229,.T.);
#322=EDGE_CURVE('',#264,#265,#121,.T.);
#323=EDGE_CURVE('',#265,#265,#230,.T.);
#324=EDGE_CURVE('',#263,#264,#231,.T.);
#325=EDGE_CURVE('',#265,#266,#122,.T.);
#326=EDGE_CURVE('',#266,#266,#232,.T.);
#327=EDGE_CURVE('',#247,#254,#123,.T.);
#328=EDGE_CURVE('',#252,#267,#124,.T.);
#329=EDGE_CURVE('',#267,#268,#125,.T.);
#330=EDGE_CURVE('',#268,#263,#126,.T.);
#331=EDGE_CURVE('',#262,#258,#127,.T.);
#332=EDGE_CURVE('',#257,#269,#128,.T.);
#333=EDGE_CURVE('',#269,#270,#129,.T.);
#334=EDGE_CURVE('',#270,#249,#130,.T.);
#335=EDGE_CURVE('',#271,#272,#233,.T.);
#336=EDGE_CURVE('',#272,#273,#131,.T.);
#337=EDGE_CURVE('',#273,#274,#234,.T.);
#338=EDGE_CURVE('',#274,#271,#132,.T.);
#339=EDGE_CURVE('',#275,#274,#133,.T.);
#340=EDGE_CURVE('',#276,#275,#134,.T.);
#341=EDGE_CURVE('',#276,#271,#135,.T.);
#342=EDGE_CURVE('',#277,#273,#136,.T.);
#343=EDGE_CURVE('',#278,#277,#137,.T.);
#344=EDGE_CURVE('',#275,#278,#138,.T.);
#345=EDGE_CURVE('',#279,#279,#235,.T.);
#346=EDGE_CURVE('',#280,#281,#236,.T.);
#347=EDGE_CURVE('',#281,#282,#139,.T.);
#348=EDGE_CURVE('',#282,#283,#237,.T.);
#349=EDGE_CURVE('',#283,#280,#140,.T.);
#350=EDGE_CURVE('',#284,#283,#141,.T.);
#351=EDGE_CURVE('',#285,#284,#142,.T.);
#352=EDGE_CURVE('',#285,#280,#143,.T.);
#353=EDGE_CURVE('',#286,#282,#144,.T.);
#354=EDGE_CURVE('',#287,#286,#145,.T.);
#355=EDGE_CURVE('',#284,#287,#146,.T.);
#356=EDGE_CURVE('',#288,#288,#238,.T.);
#357=EDGE_CURVE('',#289,#289,#239,.T.);
#358=EDGE_CURVE('',#289,#279,#147,.T.);
#359=EDGE_CURVE('',#288,#290,#148,.T.);
#360=EDGE_CURVE('',#290,#290,#240,.T.);
#361=EDGE_CURVE('',#278,#291,#149,.T.);
#362=EDGE_CURVE('',#292,#277,#150,.T.);
#363=EDGE_CURVE('',#291,#292,#151,.T.);
#364=EDGE_CURVE('',#291,#276,#152,.T.);
#365=EDGE_CURVE('',#272,#292,#153,.T.);
#366=EDGE_CURVE('',#287,#293,#154,.T.);
#367=EDGE_CURVE('',#294,#286,#155,.T.);
#368=EDGE_CURVE('',#293,#294,#156,.T.);
#369=EDGE_CURVE('',#293,#285,#157,.T.);
#370=EDGE_CURVE('',#281,#294,#158,.T.);
#371=EDGE_CURVE('',#267,#295,#159,.T.);
#372=EDGE_CURVE('',#296,#295,#160,.T.);
#373=EDGE_CURVE('',#268,#296,#161,.T.);
#374=EDGE_CURVE('',#297,#296,#162,.T.);
#375=EDGE_CURVE('',#269,#297,#163,.T.);
#376=EDGE_CURVE('',#298,#297,#164,.T.);
#377=EDGE_CURVE('',#270,#298,#165,.T.);
#378=EDGE_CURVE('',#295,#298,#166,.T.);
#379=ORIENTED_EDGE('',*,*,#299,.F.);
#380=ORIENTED_EDGE('',*,*,#300,.F.);
#381=ORIENTED_EDGE('',*,*,#301,.F.);
#382=ORIENTED_EDGE('',*,*,#302,.T.);
#383=ORIENTED_EDGE('',*,*,#303,.F.);
#384=ORIENTED_EDGE('',*,*,#302,.F.);
#385=ORIENTED_EDGE('',*,*,#303,.T.);
#386=ORIENTED_EDGE('',*,*,#304,.T.);
#387=ORIENTED_EDGE('',*,*,#305,.F.);
#388=ORIENTED_EDGE('',*,*,#304,.F.);
#389=ORIENTED_EDGE('',*,*,#306,.F.);
#390=ORIENTED_EDGE('',*,*,#307,.F.);
#391=ORIENTED_EDGE('',*,*,#308,.F.);
#392=ORIENTED_EDGE('',*,*,#309,.T.);
#393=ORIENTED_EDGE('',*,*,#310,.F.);
#394=ORIENTED_EDGE('',*,*,#309,.F.);
#395=ORIENTED_EDGE('',*,*,#310,.T.);
#396=ORIENTED_EDGE('',*,*,#311,.T.);
#397=ORIENTED_EDGE('',*,*,#312,.F.);
#398=ORIENTED_EDGE('',*,*,#311,.F.);
#399=ORIENTED_EDGE('',*,*,#313,.F.);
#400=ORIENTED_EDGE('',*,*,#314,.F.);
#401=ORIENTED_EDGE('',*,*,#315,.T.);
#402=ORIENTED_EDGE('',*,*,#316,.F.);
#403=ORIENTED_EDGE('',*,*,#315,.F.);
#404=ORIENTED_EDGE('',*,*,#317,.F.);
#405=ORIENTED_EDGE('',*,*,#316,.T.);
#406=ORIENTED_EDGE('',*,*,#318,.T.);
#407=ORIENTED_EDGE('',*,*,#319,.F.);
#408=ORIENTED_EDGE('',*,*,#318,.F.);
#409=ORIENTED_EDGE('',*,*,#320,.F.);
#410=ORIENTED_EDGE('',*,*,#321,.F.);
#411=ORIENTED_EDGE('',*,*,#322,.T.);
#412=ORIENTED_EDGE('',*,*,#323,.F.);
#413=ORIENTED_EDGE('',*,*,#322,.F.);
#414=ORIENTED_EDGE('',*,*,#324,.F.);
#415=ORIENTED_EDGE('',*,*,#323,.T.);
#416=ORIENTED_EDGE('',*,*,#325,.T.);
#417=ORIENTED_EDGE('',*,*,#326,.F.);
#418=ORIENTED_EDGE('',*,*,#325,.F.);
#419=ORIENTED_EDGE('',*,*,#300,.T.);
#420=ORIENTED_EDGE('',*,*,#327,.T.);
#421=ORIENTED_EDGE('',*,*,#307,.T.);
#422=ORIENTED_EDGE('',*,*,#328,.T.);
#423=ORIENTED_EDGE('',*,*,#329,.T.);
#424=ORIENTED_EDGE('',*,*,#330,.T.);
#425=ORIENTED_EDGE('',*,*,#324,.T.);
#426=ORIENTED_EDGE('',*,*,#321,.T.);
#427=ORIENTED_EDGE('',*,*,#331,.T.);
#428=ORIENTED_EDGE('',*,*,#317,.T.);
#429=ORIENTED_EDGE('',*,*,#314,.T.);
#430=ORIENTED_EDGE('',*,*,#332,.T.);
#431=ORIENTED_EDGE('',*,*,#333,.T.);
#432=ORIENTED_EDGE('',*,*,#334,.T.);
#433=ORIENTED_EDGE('',*,*,#335,.T.);
#434=ORIENTED_EDGE('',*,*,#336,.T.);
#435=ORIENTED_EDGE('',*,*,#337,.T.);
#436=ORIENTED_EDGE('',*,*,#338,.T.);
#437=ORIENTED_EDGE('',*,*,#338,.F.);
#438=ORIENTED_EDGE('',*,*,#339,.F.);
#439=ORIENTED_EDGE('',*,*,#340,.F.);
#440=ORIENTED_EDGE('',*,*,#341,.T.);
#441=ORIENTED_EDGE('',*,*,#337,.F.);
#442=ORIENTED_EDGE('',*,*,#342,.F.);
#443=ORIENTED_EDGE('',*,*,#343,.F.);
#444=ORIENTED_EDGE('',*,*,#344,.F.);
#445=ORIENTED_EDGE('',*,*,#339,.T.);
#446=ORIENTED_EDGE('',*,*,#345,.T.);
#447=ORIENTED_EDGE('',*,*,#346,.T.);
#448=ORIENTED_EDGE('',*,*,#347,.T.);
#449=ORIENTED_EDGE('',*,*,#348,.T.);
#450=ORIENTED_EDGE('',*,*,#349,.T.);
#451=ORIENTED_EDGE('',*,*,#349,.F.);
#452=ORIENTED_EDGE('',*,*,#350,.F.);
#453=ORIENTED_EDGE('',*,*,#351,.F.);
#454=ORIENTED_EDGE('',*,*,#352,.T.);
#455=ORIENTED_EDGE('',*,*,#348,.F.);
#456=ORIENTED_EDGE('',*,*,#353,.F.);
#457=ORIENTED_EDGE('',*,*,#354,.F.);
#458=ORIENTED_EDGE('',*,*,#355,.F.);
#459=ORIENTED_EDGE('',*,*,#350,.T.);
#460=ORIENTED_EDGE('',*,*,#356,.T.);
#461=ORIENTED_EDGE('',*,*,#357,.F.);
#462=ORIENTED_EDGE('',*,*,#358,.T.);
#463=ORIENTED_EDGE('',*,*,#345,.F.);
#464=ORIENTED_EDGE('',*,*,#358,.F.);
#465=ORIENTED_EDGE('',*,*,#356,.F.);
#466=ORIENTED_EDGE('',*,*,#359,.T.);
#467=ORIENTED_EDGE('',*,*,#360,.F.);
#468=ORIENTED_EDGE('',*,*,#359,.F.);
#469=ORIENTED_EDGE('',*,*,#361,.F.);
#470=ORIENTED_EDGE('',*,*,#343,.T.);
#471=ORIENTED_EDGE('',*,*,#362,.F.);
#472=ORIENTED_EDGE('',*,*,#363,.F.);
#473=ORIENTED_EDGE('',*,*,#335,.F.);
#474=ORIENTED_EDGE('',*,*,#341,.F.);
#475=ORIENTED_EDGE('',*,*,#364,.F.);
#476=ORIENTED_EDGE('',*,*,#363,.T.);
#477=ORIENTED_EDGE('',*,*,#365,.F.);
#478=ORIENTED_EDGE('',*,*,#357,.T.);
#479=ORIENTED_EDGE('',*,*,#336,.F.);
#480=ORIENTED_EDGE('',*,*,#365,.T.);
#481=ORIENTED_EDGE('',*,*,#362,.T.);
#482=ORIENTED_EDGE('',*,*,#342,.T.);
#483=ORIENTED_EDGE('',*,*,#366,.F.);
#484=ORIENTED_EDGE('',*,*,#354,.T.);
#485=ORIENTED_EDGE('',*,*,#367,.F.);
#486=ORIENTED_EDGE('',*,*,#368,.F.);
#487=ORIENTED_EDGE('',*,*,#346,.F.);
#488=ORIENTED_EDGE('',*,*,#352,.F.);
#489=ORIENTED_EDGE('',*,*,#369,.F.);
#490=ORIENTED_EDGE('',*,*,#368,.T.);
#491=ORIENTED_EDGE('',*,*,#370,.F.);
#492=ORIENTED_EDGE('',*,*,#360,.T.);
#493=ORIENTED_EDGE('',*,*,#347,.F.);
#494=ORIENTED_EDGE('',*,*,#370,.T.);
#495=ORIENTED_EDGE('',*,*,#367,.T.);
#496=ORIENTED_EDGE('',*,*,#353,.T.);
#497=ORIENTED_EDGE('',*,*,#329,.F.);
#498=ORIENTED_EDGE('',*,*,#371,.T.);
#499=ORIENTED_EDGE('',*,*,#372,.F.);
#500=ORIENTED_EDGE('',*,*,#373,.F.);
#501=ORIENTED_EDGE('',*,*,#313,.T.);
#502=ORIENTED_EDGE('',*,*,#331,.F.);
#503=ORIENTED_EDGE('',*,*,#320,.T.);
#504=ORIENTED_EDGE('',*,*,#330,.F.);
#505=ORIENTED_EDGE('',*,*,#373,.T.);
#506=ORIENTED_EDGE('',*,*,#374,.F.);
#507=ORIENTED_EDGE('',*,*,#375,.F.);
#508=ORIENTED_EDGE('',*,*,#332,.F.);
#509=ORIENTED_EDGE('',*,*,#333,.F.);
#510=ORIENTED_EDGE('',*,*,#375,.T.);
#511=ORIENTED_EDGE('',*,*,#376,.F.);
#512=ORIENTED_EDGE('',*,*,#377,.F.);
#513=ORIENTED_EDGE('',*,*,#299,.T.);
#514=ORIENTED_EDGE('',*,*,#301,.T.);
#515=ORIENTED_EDGE('',*,*,#334,.F.);
#516=ORIENTED_EDGE('',*,*,#377,.T.);
#517=ORIENTED_EDGE('',*,*,#378,.F.);
#518=ORIENTED_EDGE('',*,*,#371,.F.);
#519=ORIENTED_EDGE('',*,*,#328,.F.);
#520=ORIENTED_EDGE('',*,*,#306,.T.);
#521=ORIENTED_EDGE('',*,*,#308,.T.);
#522=ORIENTED_EDGE('',*,*,#327,.F.);
#523=ORIENTED_EDGE('',*,*,#378,.T.);
#524=ORIENTED_EDGE('',*,*,#376,.T.);
#525=ORIENTED_EDGE('',*,*,#374,.T.);
#526=ORIENTED_EDGE('',*,*,#372,.T.);
#527=ORIENTED_EDGE('',*,*,#305,.T.);
#528=ORIENTED_EDGE('',*,*,#312,.T.);
#529=ORIENTED_EDGE('',*,*,#319,.T.);
#530=ORIENTED_EDGE('',*,*,#326,.T.);
#531=ORIENTED_EDGE('',*,*,#340,.T.);
#532=ORIENTED_EDGE('',*,*,#344,.T.);
#533=ORIENTED_EDGE('',*,*,#361,.T.);
#534=ORIENTED_EDGE('',*,*,#364,.T.);
#535=ORIENTED_EDGE('',*,*,#351,.T.);
#536=ORIENTED_EDGE('',*,*,#355,.T.);
#537=ORIENTED_EDGE('',*,*,#366,.T.);
#538=ORIENTED_EDGE('',*,*,#369,.T.);
#539=CONICAL_SURFACE('',#594,2.475,0.785398163397448);
#540=CONICAL_SURFACE('',#599,2.475,0.785398163397448);
#541=CONICAL_SURFACE('',#604,2.475,0.785398163397448);
#542=CONICAL_SURFACE('',#610,2.475,0.785398163397448);
#543=ADVANCED_FACE('',(#49),#539,.F.);
#544=ADVANCED_FACE('',(#50),#41,.F.);
#545=ADVANCED_FACE('',(#51),#540,.F.);
#546=ADVANCED_FACE('',(#52),#42,.F.);
#547=ADVANCED_FACE('',(#53),#541,.F.);
#548=ADVANCED_FACE('',(#54),#43,.F.);
#549=ADVANCED_FACE('',(#55),#542,.F.);
#550=ADVANCED_FACE('',(#56),#44,.F.);
#551=ADVANCED_FACE('',(#57),#25,.T.);
#552=ADVANCED_FACE('',(#58),#45,.T.);
#553=ADVANCED_FACE('',(#59),#26,.T.);
#554=ADVANCED_FACE('',(#60,#15),#27,.T.);
#555=ADVANCED_FACE('',(#61),#46,.T.);
#556=ADVANCED_FACE('',(#62),#28,.T.);
#557=ADVANCED_FACE('',(#63,#16),#29,.T.);
#558=ADVANCED_FACE('',(#64),#47,.F.);
#559=ADVANCED_FACE('',(#65),#48,.F.);
#560=ADVANCED_FACE('',(#66),#30,.T.);
#561=ADVANCED_FACE('',(#67,#17),#31,.T.);
#562=ADVANCED_FACE('',(#68),#32,.T.);
#563=ADVANCED_FACE('',(#69),#33,.T.);
#564=ADVANCED_FACE('',(#70,#18),#34,.T.);
#565=ADVANCED_FACE('',(#71),#35,.T.);
#566=ADVANCED_FACE('',(#72),#36,.T.);
#567=ADVANCED_FACE('',(#73),#37,.T.);
#568=ADVANCED_FACE('',(#74),#38,.T.);
#569=ADVANCED_FACE('',(#75),#39,.T.);
#570=ADVANCED_FACE('',(#76,#19,#20,#21,#22,#23,#24),#40,.T.);
#571=CLOSED_SHELL('',(#543,#544,#545,#546,#547,#548,#549,#550,#551,#552,
#553,#554,#555,#556,#557,#558,#559,#560,#561,#562,#563,#564,#565,#566,#567,
#568,#569,#570));
#572=DERIVED_UNIT_ELEMENT(#575,1.);
#573=DERIVED_UNIT_ELEMENT(#976,-3.);
#574=DIMENSIONAL_EXPONENTS(0.,1.,0.,0.,0.,0.,0.);
#575=(
CONVERSION_BASED_UNIT('gram',#577)
MASS_UNIT()
NAMED_UNIT(#574)
);
#576=(
MASS_UNIT()
NAMED_UNIT(*)
SI_UNIT(.KILO.,.GRAM.)
);
#577=MASS_MEASURE_WITH_UNIT(MASS_MEASURE(0.001),#576);
#578=DERIVED_UNIT((#572,#573));
#579=MEASURE_REPRESENTATION_ITEM('density measure',
POSITIVE_RATIO_MEASURE(1.),#578);
#580=PROPERTY_DEFINITION_REPRESENTATION(#585,#582);
#581=PROPERTY_DEFINITION_REPRESENTATION(#586,#583);
#582=REPRESENTATION('material name',(#584),#973);
#583=REPRESENTATION('density',(#579),#973);
#584=DESCRIPTIVE_REPRESENTATION_ITEM('Generic','Generic');
#585=PROPERTY_DEFINITION('material property','material name',#983);
#586=PROPERTY_DEFINITION('material property','density of part',#983);
#587=DATE_TIME_ROLE('creation_date');
#588=APPLIED_DATE_AND_TIME_ASSIGNMENT(#589,#587,(#983));
#589=DATE_AND_TIME(#590,#591);
#590=CALENDAR_DATE(2026,5,4);
#591=LOCAL_TIME(0,0,0.,#592);
#592=COORDINATED_UNIVERSAL_TIME_OFFSET(0,0,.BEHIND.);
#593=AXIS2_PLACEMENT_3D('',#798,#644,#645);
#594=AXIS2_PLACEMENT_3D('',#799,#646,#647);
#595=AXIS2_PLACEMENT_3D('',#806,#648,#649);
#596=AXIS2_PLACEMENT_3D('',#812,#651,#652);
#597=AXIS2_PLACEMENT_3D('',#813,#653,#654);
#598=AXIS2_PLACEMENT_3D('',#816,#656,#657);
#599=AXIS2_PLACEMENT_3D('',#817,#658,#659);
#600=AXIS2_PLACEMENT_3D('',#824,#660,#661);
#601=AXIS2_PLACEMENT_3D('',#830,#663,#664);
#602=AXIS2_PLACEMENT_3D('',#831,#665,#666);
#603=AXIS2_PLACEMENT_3D('',#834,#668,#669);
#604=AXIS2_PLACEMENT_3D('',#835,#670,#671);
#605=AXIS2_PLACEMENT_3D('',#842,#672,#673);
#606=AXIS2_PLACEMENT_3D('',#845,#675,#676);
#607=AXIS2_PLACEMENT_3D('',#846,#677,#678);
#608=AXIS2_PLACEMENT_3D('',#847,#679,#680);
#609=AXIS2_PLACEMENT_3D('',#850,#682,#683);
#610=AXIS2_PLACEMENT_3D('',#851,#684,#685);
#611=AXIS2_PLACEMENT_3D('',#858,#686,#687);
#612=AXIS2_PLACEMENT_3D('',#861,#689,#690);
#613=AXIS2_PLACEMENT_3D('',#862,#691,#692);
#614=AXIS2_PLACEMENT_3D('',#863,#693,#694);
#615=AXIS2_PLACEMENT_3D('',#866,#696,#697);
#616=AXIS2_PLACEMENT_3D('',#867,#698,#699);
#617=AXIS2_PLACEMENT_3D('',#880,#708,#709);
#618=AXIS2_PLACEMENT_3D('',#883,#710,#711);
#619=AXIS2_PLACEMENT_3D('',#887,#713,#714);
#620=AXIS2_PLACEMENT_3D('',#889,#716,#717);
#621=AXIS2_PLACEMENT_3D('',#895,#721,#722);
#622=AXIS2_PLACEMENT_3D('',#902,#726,#727);
#623=AXIS2_PLACEMENT_3D('',#903,#728,#729);
#624=AXIS2_PLACEMENT_3D('',#906,#730,#731);
#625=AXIS2_PLACEMENT_3D('',#910,#733,#734);
#626=AXIS2_PLACEMENT_3D('',#912,#736,#737);
#627=AXIS2_PLACEMENT_3D('',#918,#741,#742);
#628=AXIS2_PLACEMENT_3D('',#925,#746,#747);
#629=AXIS2_PLACEMENT_3D('',#926,#748,#749);
#630=AXIS2_PLACEMENT_3D('',#928,#750,#751);
#631=AXIS2_PLACEMENT_3D('',#930,#753,#754);
#632=AXIS2_PLACEMENT_3D('',#933,#756,#757);
#633=AXIS2_PLACEMENT_3D('',#934,#758,#759);
#634=AXIS2_PLACEMENT_3D('',#940,#763,#764);
#635=AXIS2_PLACEMENT_3D('',#943,#767,#768);
#636=AXIS2_PLACEMENT_3D('',#944,#769,#770);
#637=AXIS2_PLACEMENT_3D('',#950,#774,#775);
#638=AXIS2_PLACEMENT_3D('',#953,#778,#779);
#639=AXIS2_PLACEMENT_3D('',#954,#780,#781);
#640=AXIS2_PLACEMENT_3D('',#960,#785,#786);
#641=AXIS2_PLACEMENT_3D('',#964,#789,#790);
#642=AXIS2_PLACEMENT_3D('',#968,#793,#794);
#643=AXIS2_PLACEMENT_3D('',#970,#796,#797);
#644=DIRECTION('axis',(0.,0.,1.));
#645=DIRECTION('refdir',(1.,0.,0.));
#646=DIRECTION('center_axis',(0.,0.,1.));
#647=DIRECTION('ref_axis',(1.,0.,0.));
#648=DIRECTION('center_axis',(0.,0.,-1.));
#649=DIRECTION('ref_axis',(1.,0.,0.));
#650=DIRECTION('',(0.707106781186547,8.65956056235493E-17,-0.707106781186548));
#651=DIRECTION('center_axis',(0.,0.,1.));
#652=DIRECTION('ref_axis',(1.,0.,0.));
#653=DIRECTION('center_axis',(0.,0.,1.));
#654=DIRECTION('ref_axis',(1.,0.,0.));
#655=DIRECTION('',(0.,0.,-1.));
#656=DIRECTION('center_axis',(0.,0.,1.));
#657=DIRECTION('ref_axis',(1.,0.,0.));
#658=DIRECTION('center_axis',(0.,0.,1.));
#659=DIRECTION('ref_axis',(1.,0.,0.));
#660=DIRECTION('center_axis',(0.,0.,-1.));
#661=DIRECTION('ref_axis',(1.,0.,0.));
#662=DIRECTION('',(0.707106781186547,8.65956056235493E-17,-0.707106781186548));
#663=DIRECTION('center_axis',(0.,0.,1.));
#664=DIRECTION('ref_axis',(1.,0.,0.));
#665=DIRECTION('center_axis',(0.,0.,1.));
#666=DIRECTION('ref_axis',(1.,0.,0.));
#667=DIRECTION('',(0.,0.,-1.));
#668=DIRECTION('center_axis',(0.,0.,1.));
#669=DIRECTION('ref_axis',(1.,0.,0.));
#670=DIRECTION('center_axis',(0.,0.,1.));
#671=DIRECTION('ref_axis',(1.,0.,0.));
#672=DIRECTION('center_axis',(0.,0.,-1.));
#673=DIRECTION('ref_axis',(1.,0.,0.));
#674=DIRECTION('',(0.707106781186547,8.65956056235493E-17,-0.707106781186548));
#675=DIRECTION('center_axis',(0.,0.,1.));
#676=DIRECTION('ref_axis',(1.,0.,0.));
#677=DIRECTION('center_axis',(0.,0.,-1.));
#678=DIRECTION('ref_axis',(1.,0.,0.));
#679=DIRECTION('center_axis',(0.,0.,1.));
#680=DIRECTION('ref_axis',(1.,0.,0.));
#681=DIRECTION('',(0.,0.,-1.));
#682=DIRECTION('center_axis',(0.,0.,1.));
#683=DIRECTION('ref_axis',(1.,0.,0.));
#684=DIRECTION('center_axis',(0.,0.,1.));
#685=DIRECTION('ref_axis',(1.,0.,0.));
#686=DIRECTION('center_axis',(0.,0.,-1.));
#687=DIRECTION('ref_axis',(1.,0.,0.));
#688=DIRECTION('',(0.707106781186547,8.65956056235493E-17,-0.707106781186548));
#689=DIRECTION('center_axis',(0.,0.,1.));
#690=DIRECTION('ref_axis',(1.,0.,0.));
#691=DIRECTION('center_axis',(0.,0.,-1.));
#692=DIRECTION('ref_axis',(1.,0.,0.));
#693=DIRECTION('center_axis',(0.,0.,1.));
#694=DIRECTION('ref_axis',(1.,0.,0.));
#695=DIRECTION('',(0.,0.,-1.));
#696=DIRECTION('center_axis',(0.,0.,1.));
#697=DIRECTION('ref_axis',(1.,0.,0.));
#698=DIRECTION('center_axis',(0.,0.,1.));
#699=DIRECTION('ref_axis',(1.,0.,0.));
#700=DIRECTION('',(3.39107068397901E-16,-1.,0.));
#701=DIRECTION('',(3.39107068397901E-16,-1.,0.));
#702=DIRECTION('',(1.,1.25804308739499E-16,0.));
#703=DIRECTION('',(-6.35825753246065E-16,1.,0.));
#704=DIRECTION('',(-6.35825753246065E-16,1.,0.));
#705=DIRECTION('',(-6.35825753246065E-16,1.,0.));
#706=DIRECTION('',(-1.,-2.51608617478999E-16,0.));
#707=DIRECTION('',(3.39107068397901E-16,-1.,0.));
#708=DIRECTION('center_axis',(0.,-1.,0.));
#709=DIRECTION('ref_axis',(0.70710678118655,0.,-0.707106781186545));
#710=DIRECTION('center_axis',(0.,1.,0.));
#711=DIRECTION('ref_axis',(0.70710678118655,0.,-0.707106781186545));
#712=DIRECTION('',(0.,1.,0.));
#713=DIRECTION('center_axis',(0.,-1.,0.));
#714=DIRECTION('ref_axis',(0.70710678118655,0.,-0.707106781186545));
#715=DIRECTION('',(0.,-1.,0.));
#716=DIRECTION('center_axis',(1.,0.,0.));
#717=DIRECTION('ref_axis',(0.,-1.,0.));
#718=DIRECTION('',(0.,0.,-1.));
#719=DIRECTION('',(0.,1.,0.));
#720=DIRECTION('',(0.,0.,-1.));
#721=DIRECTION('center_axis',(0.,1.,0.));
#722=DIRECTION('ref_axis',(1.,0.,0.));
#723=DIRECTION('',(1.,0.,0.));
#724=DIRECTION('',(0.,0.,-1.));
#725=DIRECTION('',(-1.,0.,0.));
#726=DIRECTION('center_axis',(0.,-1.,0.));
#727=DIRECTION('ref_axis',(1.,8.88178419700125E-16,0.));
#728=DIRECTION('center_axis',(0.,1.,0.));
#729=DIRECTION('ref_axis',(-0.707106781186548,0.,-0.707106781186547));
#730=DIRECTION('center_axis',(0.,-1.,0.));
#731=DIRECTION('ref_axis',(-0.707106781186548,0.,-0.707106781186547));
#732=DIRECTION('',(0.,-1.,0.));
#733=DIRECTION('center_axis',(0.,1.,0.));
#734=DIRECTION('ref_axis',(-0.707106781186548,0.,-0.707106781186547));
#735=DIRECTION('',(0.,1.,0.));
#736=DIRECTION('center_axis',(-1.,0.,0.));
#737=DIRECTION('ref_axis',(0.,1.,0.));
#738=DIRECTION('',(0.,0.,-1.));
#739=DIRECTION('',(0.,-1.,0.));
#740=DIRECTION('',(0.,0.,-1.));
#741=DIRECTION('center_axis',(0.,-1.,0.));
#742=DIRECTION('ref_axis',(-1.,0.,0.));
#743=DIRECTION('',(-1.,0.,0.));
#744=DIRECTION('',(0.,0.,-1.));
#745=DIRECTION('',(1.,0.,0.));
#746=DIRECTION('center_axis',(0.,1.,0.));
#747=DIRECTION('ref_axis',(1.,8.88178419700125E-16,0.));
#748=DIRECTION('center_axis',(8.88178419700125E-16,-1.,0.));
#749=DIRECTION('ref_axis',(1.,8.88178419700125E-16,0.));
#750=DIRECTION('center_axis',(0.,1.,0.));
#751=DIRECTION('ref_axis',(1.,8.88178419700125E-16,0.));
#752=DIRECTION('',(-8.88178419700125E-16,1.,0.));
#753=DIRECTION('center_axis',(8.88178419700125E-16,-1.,0.));
#754=DIRECTION('ref_axis',(1.,8.88178419700125E-16,0.));
#755=DIRECTION('',(-8.88178419700125E-16,1.,0.));
#756=DIRECTION('center_axis',(0.,-1.,0.));
#757=DIRECTION('ref_axis',(1.,8.88178419700125E-16,0.));
#758=DIRECTION('center_axis',(-1.,0.,0.));
#759=DIRECTION('ref_axis',(0.,1.,0.));
#760=DIRECTION('',(0.,-1.,0.));
#761=DIRECTION('',(0.,1.,0.));
#762=DIRECTION('',(0.,0.,-1.));
#763=DIRECTION('center_axis',(0.,-1.,0.));
#764=DIRECTION('ref_axis',(-1.,0.,0.));
#765=DIRECTION('',(1.,0.,0.));
#766=DIRECTION('',(-1.,0.,0.));
#767=DIRECTION('center_axis',(0.,0.,-1.));
#768=DIRECTION('ref_axis',(-1.,0.,0.));
#769=DIRECTION('center_axis',(1.,0.,0.));
#770=DIRECTION('ref_axis',(0.,-1.,0.));
#771=DIRECTION('',(0.,1.,0.));
#772=DIRECTION('',(0.,-1.,0.));
#773=DIRECTION('',(0.,0.,-1.));
#774=DIRECTION('center_axis',(0.,1.,0.));
#775=DIRECTION('ref_axis',(1.,0.,0.));
#776=DIRECTION('',(-1.,0.,0.));
#777=DIRECTION('',(1.,0.,0.));
#778=DIRECTION('center_axis',(0.,0.,-1.));
#779=DIRECTION('ref_axis',(-1.,0.,0.));
#780=DIRECTION('center_axis',(1.25804308739499E-16,-1.,0.));
#781=DIRECTION('ref_axis',(-1.,-1.25804308739499E-16,0.));
#782=DIRECTION('',(0.,0.,-1.));
#783=DIRECTION('',(-1.,-1.25804308739499E-16,0.));
#784=DIRECTION('',(0.,0.,-1.));
#785=DIRECTION('center_axis',(1.,6.35825753246065E-16,0.));
#786=DIRECTION('ref_axis',(6.35825753246065E-16,-1.,0.));
#787=DIRECTION('',(6.35825753246065E-16,-1.,0.));
#788=DIRECTION('',(0.,0.,-1.));
#789=DIRECTION('center_axis',(-2.51608617478999E-16,1.,0.));
#790=DIRECTION('ref_axis',(1.,2.51608617478999E-16,0.));
#791=DIRECTION('',(1.,2.51608617478999E-16,0.));
#792=DIRECTION('',(0.,0.,-1.));
#793=DIRECTION('center_axis',(-1.,-3.39107068397901E-16,0.));
#794=DIRECTION('ref_axis',(-3.39107068397901E-16,1.,0.));
#795=DIRECTION('',(-3.39107068397901E-16,1.,0.));
#796=DIRECTION('center_axis',(0.,0.,-1.));
#797=DIRECTION('ref_axis',(-1.,0.,0.));
#798=CARTESIAN_POINT('',(0.,0.,0.));
#799=CARTESIAN_POINT('Origin',(-34.55,33.6718804155605,-0.775));
#800=CARTESIAN_POINT('',(-36.6499999999706,31.1914570645731,0.));
#801=CARTESIAN_POINT('',(-36.6499999999706,33.6718804155605,-1.15000000002941));
#802=CARTESIAN_POINT('Ctrl Pts',(-36.6499999999706,31.1914570645731,-5.55111512312578E-16));
#803=CARTESIAN_POINT('Ctrl Pts',(-36.6499999999706,32.6982562964896,-1.15000000002941));
#804=CARTESIAN_POINT('Ctrl Pts',(-36.6499999999706,33.6718804155605,-1.15000000002941));
#805=CARTESIAN_POINT('',(-36.6499999999706,36.1523037665478,0.));
#806=CARTESIAN_POINT('Origin',(-34.55,33.6718804155605,0.));
#807=CARTESIAN_POINT('Ctrl Pts',(-36.6499999999706,33.6718804155605,-1.15000000002941));
#808=CARTESIAN_POINT('Ctrl Pts',(-36.6499999999706,34.6455045346313,-1.15000000002941));
#809=CARTESIAN_POINT('Ctrl Pts',(-36.6499999999706,36.1523037665478,0.));
#810=CARTESIAN_POINT('',(-36.25,33.6718804155605,-1.55));
#811=CARTESIAN_POINT('',(-37.025,33.6718804155605,-0.775));
#812=CARTESIAN_POINT('Origin',(-34.55,33.6718804155605,-1.55));
#813=CARTESIAN_POINT('Origin',(-34.55,33.6718804155605,-43.9561282771102));
#814=CARTESIAN_POINT('',(-36.25,33.6718804155605,-2.));
#815=CARTESIAN_POINT('',(-36.25,33.6718804155605,-43.9561282771102));
#816=CARTESIAN_POINT('Origin',(-34.55,33.6718804155605,-2.));
#817=CARTESIAN_POINT('Origin',(-34.55,27.1239601385207,-0.775));
#818=CARTESIAN_POINT('',(-36.6499999999706,24.6435367875333,0.));
#819=CARTESIAN_POINT('',(-36.6499999999706,27.1239601385207,-1.15000000002942));
#820=CARTESIAN_POINT('Ctrl Pts',(-36.6499999999706,24.6435367875333,-4.16333634234434E-16));
#821=CARTESIAN_POINT('Ctrl Pts',(-36.6499999999706,26.1503360194498,-1.15000000002942));
#822=CARTESIAN_POINT('Ctrl Pts',(-36.6499999999706,27.1239601385207,-1.15000000002942));
#823=CARTESIAN_POINT('',(-36.6499999999706,29.6043834895081,0.));
#824=CARTESIAN_POINT('Origin',(-34.55,27.1239601385207,0.));
#825=CARTESIAN_POINT('Ctrl Pts',(-36.6499999999706,27.1239601385207,-1.15000000002942));
#826=CARTESIAN_POINT('Ctrl Pts',(-36.6499999999706,28.0975842575916,-1.15000000002942));
#827=CARTESIAN_POINT('Ctrl Pts',(-36.6499999999706,29.6043834895081,4.16333634234434E-16));
#828=CARTESIAN_POINT('',(-36.25,27.1239601385207,-1.55));
#829=CARTESIAN_POINT('',(-37.025,27.1239601385207,-0.775));
#830=CARTESIAN_POINT('Origin',(-34.55,27.1239601385207,-1.55));
#831=CARTESIAN_POINT('Origin',(-34.55,27.1239601385207,-43.9561282771102));
#832=CARTESIAN_POINT('',(-36.25,27.1239601385207,-2.));
#833=CARTESIAN_POINT('',(-36.25,27.1239601385207,-43.9561282771102));
#834=CARTESIAN_POINT('Origin',(-34.55,27.1239601385207,-2.));
#835=CARTESIAN_POINT('Origin',(-3.44999999999999,33.6718804155604,-0.775));
#836=CARTESIAN_POINT('',(-1.34999999999999,36.1523037665228,0.));
#837=CARTESIAN_POINT('',(-1.34999999999998,31.1914570645979,0.));
#838=CARTESIAN_POINT('Ctrl Pts',(-1.34999999999999,36.1523037665228,0.));
#839=CARTESIAN_POINT('Ctrl Pts',(-1.34999999999999,33.6718804155604,-1.89307692307692));
#840=CARTESIAN_POINT('Ctrl Pts',(-1.34999999999998,31.1914570645979,2.77555756156289E-16));
#841=CARTESIAN_POINT('',(-6.69999999999999,33.6718804155604,1.52655665885959E-15));
#842=CARTESIAN_POINT('Origin',(-3.44999999999999,33.6718804155604,0.));
#843=CARTESIAN_POINT('',(-5.14999999999999,33.6718804155604,-1.55));
#844=CARTESIAN_POINT('',(-5.92499999999999,33.6718804155604,-0.775));
#845=CARTESIAN_POINT('Origin',(-3.44999999999999,33.6718804155604,-1.55));
#846=CARTESIAN_POINT('Origin',(-3.44999999999999,33.6718804155604,0.));
#847=CARTESIAN_POINT('Origin',(-3.44999999999999,33.6718804155604,-43.9561282771102));
#848=CARTESIAN_POINT('',(-5.14999999999999,33.6718804155604,-2.));
#849=CARTESIAN_POINT('',(-5.14999999999999,33.6718804155604,-43.9561282771102));
#850=CARTESIAN_POINT('Origin',(-3.44999999999999,33.6718804155604,-2.));
#851=CARTESIAN_POINT('Origin',(-3.44999999999999,27.12396013852,-0.775));
#852=CARTESIAN_POINT('',(-1.34999999999998,29.6043834894825,0.));
#853=CARTESIAN_POINT('',(-1.34999999999998,24.6435367875576,0.));
#854=CARTESIAN_POINT('Ctrl Pts',(-1.34999999999998,29.6043834894825,0.));
#855=CARTESIAN_POINT('Ctrl Pts',(-1.34999999999998,27.12396013852,-1.89307692307692));
#856=CARTESIAN_POINT('Ctrl Pts',(-1.34999999999998,24.6435367875576,0.));
#857=CARTESIAN_POINT('',(-6.69999999999999,27.12396013852,5.55111512312578E-16));
#858=CARTESIAN_POINT('Origin',(-3.44999999999999,27.12396013852,0.));
#859=CARTESIAN_POINT('',(-5.14999999999999,27.12396013852,-1.55));
#860=CARTESIAN_POINT('',(-5.92499999999999,27.12396013852,-0.775));
#861=CARTESIAN_POINT('Origin',(-3.44999999999999,27.12396013852,-1.55));
#862=CARTESIAN_POINT('Origin',(-3.44999999999999,27.12396013852,0.));
#863=CARTESIAN_POINT('Origin',(-3.44999999999999,27.12396013852,-43.9561282771102));
#864=CARTESIAN_POINT('',(-5.14999999999999,27.12396013852,-2.));
#865=CARTESIAN_POINT('',(-5.14999999999999,27.12396013852,-43.9561282771102));
#866=CARTESIAN_POINT('Origin',(-3.44999999999999,27.12396013852,-2.));
#867=CARTESIAN_POINT('Origin',(-18.9999999999853,30.397920277042,0.));
#868=CARTESIAN_POINT('',(-36.6499999999706,36.9458405540823,0.));
#869=CARTESIAN_POINT('',(-36.6499999999706,17.8500000000017,0.));
#870=CARTESIAN_POINT('',(-36.6499999999706,36.9458405540823,0.));
#871=CARTESIAN_POINT('',(-1.34999999999998,17.8500000000017,0.));
#872=CARTESIAN_POINT('',(-36.6499999999706,17.8500000000017,0.));
#873=CARTESIAN_POINT('',(-1.34999999999998,23.8500000000017,0.));
#874=CARTESIAN_POINT('',(-1.34999999999998,23.8500000000017,0.));
#875=CARTESIAN_POINT('',(-1.34999999999999,42.9458405540823,0.));
#876=CARTESIAN_POINT('',(-1.34999999999998,23.8500000000017,0.));
#877=CARTESIAN_POINT('',(-36.6499999999706,42.9458405540823,0.));
#878=CARTESIAN_POINT('',(-1.34999999999999,42.9458405540823,0.));
#879=CARTESIAN_POINT('',(-36.6499999999706,36.9458405540823,0.));
#880=CARTESIAN_POINT('Origin',(-27.5499999999857,29.7458405540803,-6.5));
#881=CARTESIAN_POINT('',(-26.5499999999857,27.4958405540803,-6.5));
#882=CARTESIAN_POINT('',(-27.5499999999857,27.4958405540803,-7.5));
#883=CARTESIAN_POINT('Origin',(-27.5499999999857,27.4958405540803,-6.5));
#884=CARTESIAN_POINT('',(-27.5499999999857,30.4958405540803,-7.5));
#885=CARTESIAN_POINT('',(-27.5499999999857,29.7458405540803,-7.5));
#886=CARTESIAN_POINT('',(-26.5499999999857,30.4958405540803,-6.5));
#887=CARTESIAN_POINT('Origin',(-27.5499999999857,30.4958405540803,-6.5));
#888=CARTESIAN_POINT('',(-26.5499999999857,29.7458405540803,-6.5));
#889=CARTESIAN_POINT('Origin',(-26.5499999999857,30.4958405540803,0.));
#890=CARTESIAN_POINT('',(-26.5499999999857,30.4958405540803,-2.));
#891=CARTESIAN_POINT('',(-26.5499999999857,30.4958405540803,0.));
#892=CARTESIAN_POINT('',(-26.5499999999857,27.4958405540803,-2.));
#893=CARTESIAN_POINT('',(-26.5499999999857,30.4468804155611,-2.));
#894=CARTESIAN_POINT('',(-26.5499999999857,27.4958405540803,0.));
#895=CARTESIAN_POINT('Origin',(-32.0499999999857,30.4958405540803,0.));
#896=CARTESIAN_POINT('',(-32.0499999999857,30.4958405540803,-7.5));
#897=CARTESIAN_POINT('',(-26.5499999999857,30.4958405540803,-7.5));
#898=CARTESIAN_POINT('',(-32.0499999999857,30.4958405540803,-2.));
#899=CARTESIAN_POINT('',(-32.0499999999857,30.4958405540803,0.));
#900=CARTESIAN_POINT('',(-25.5249999999855,30.4958405540803,-2.));
#901=CARTESIAN_POINT('',(-30.5499999999857,30.4958405540803,-4.75));
#902=CARTESIAN_POINT('Origin',(-29.2999999999857,30.4958405540803,-4.75));
#903=CARTESIAN_POINT('Origin',(-10.45,28.2458405540803,-6.5));
#904=CARTESIAN_POINT('',(-11.45,30.4958405540803,-6.5));
#905=CARTESIAN_POINT('',(-10.45,30.4958405540803,-7.5));
#906=CARTESIAN_POINT('Origin',(-10.45,30.4958405540803,-6.5));
#907=CARTESIAN_POINT('',(-10.45,27.4958405540803,-7.5));
#908=CARTESIAN_POINT('',(-10.45,28.2458405540803,-7.5));
#909=CARTESIAN_POINT('',(-11.45,27.4958405540803,-6.5));
#910=CARTESIAN_POINT('Origin',(-10.45,27.4958405540803,-6.5));
#911=CARTESIAN_POINT('',(-11.45,28.2458405540803,-6.5));
#912=CARTESIAN_POINT('Origin',(-11.45,27.4958405540803,0.));
#913=CARTESIAN_POINT('',(-11.45,27.4958405540803,-2.));
#914=CARTESIAN_POINT('',(-11.45,27.4958405540803,0.));
#915=CARTESIAN_POINT('',(-11.45,30.4958405540803,-2.));
#916=CARTESIAN_POINT('',(-11.45,28.9468804155612,-2.));
#917=CARTESIAN_POINT('',(-11.45,30.4958405540803,0.));
#918=CARTESIAN_POINT('Origin',(-5.94999999999998,27.4958405540803,0.));
#919=CARTESIAN_POINT('',(-5.94999999999998,27.4958405540803,-7.5));
#920=CARTESIAN_POINT('',(-11.45,27.4958405540803,-7.5));
#921=CARTESIAN_POINT('',(-5.94999999999998,27.4958405540803,-2.));
#922=CARTESIAN_POINT('',(-5.94999999999998,27.4958405540803,0.));
#923=CARTESIAN_POINT('',(-12.4749999999926,27.4958405540803,-2.));
#924=CARTESIAN_POINT('',(-9.94999999999999,27.4958405540803,-4.75));
#925=CARTESIAN_POINT('Origin',(-8.69999999999999,27.4958405540803,-4.75));
#926=CARTESIAN_POINT('Origin',(-29.2999999999857,71.4519688311905,-4.75));
#927=CARTESIAN_POINT('',(-30.5499999999857,27.4958405540803,-4.75));
#928=CARTESIAN_POINT('Origin',(-29.2999999999857,27.4958405540803,-4.75));
#929=CARTESIAN_POINT('',(-30.5499999999857,71.4519688311905,-4.75));
#930=CARTESIAN_POINT('Origin',(-8.70000000000002,71.4519688311905,-4.75));
#931=CARTESIAN_POINT('',(-9.94999999999999,30.4958405540803,-4.75));
#932=CARTESIAN_POINT('',(-9.95000000000002,71.4519688311905,-4.75));
#933=CARTESIAN_POINT('Origin',(-8.69999999999999,30.4958405540803,-4.75));
#934=CARTESIAN_POINT('Origin',(-32.0499999999857,27.4958405540803,0.));
#935=CARTESIAN_POINT('',(-32.0499999999857,27.4958405540803,-2.));
#936=CARTESIAN_POINT('',(-32.0499999999857,28.9468804155612,-2.));
#937=CARTESIAN_POINT('',(-32.0499999999857,27.4958405540803,-7.5));
#938=CARTESIAN_POINT('',(-32.0499999999857,30.4958405540803,-7.5));
#939=CARTESIAN_POINT('',(-32.0499999999857,27.4958405540803,0.));
#940=CARTESIAN_POINT('Origin',(-26.5499999999857,27.4958405540803,0.));
#941=CARTESIAN_POINT('',(-22.7749999999855,27.4958405540803,-2.));
#942=CARTESIAN_POINT('',(-32.0499999999857,27.4958405540803,-7.5));
#943=CARTESIAN_POINT('Origin',(-29.2999999999857,28.9958405540803,-7.5));
#944=CARTESIAN_POINT('Origin',(-5.94999999999998,30.4958405540803,0.));
#945=CARTESIAN_POINT('',(-5.94999999999998,30.4958405540803,-2.));
#946=CARTESIAN_POINT('',(-5.94999999999999,30.4468804155612,-2.));
#947=CARTESIAN_POINT('',(-5.94999999999998,30.4958405540803,-7.5));
#948=CARTESIAN_POINT('',(-5.94999999999998,27.4958405540803,-7.5));
#949=CARTESIAN_POINT('',(-5.94999999999998,30.4958405540803,0.));
#950=CARTESIAN_POINT('Origin',(-11.45,30.4958405540803,0.));
#951=CARTESIAN_POINT('',(-15.2249999999926,30.4958405540803,-2.));
#952=CARTESIAN_POINT('',(-5.94999999999998,30.4958405540803,-7.5));
#953=CARTESIAN_POINT('Origin',(-8.69999999999999,28.9958405540803,-7.5));
#954=CARTESIAN_POINT('Origin',(-1.34999999999998,17.8500000000017,0.));
#955=CARTESIAN_POINT('',(-36.6499999999706,17.8500000000017,-2.));
#956=CARTESIAN_POINT('',(-36.6499999999706,17.8500000000017,0.));
#957=CARTESIAN_POINT('',(-1.34999999999998,17.8500000000017,-2.));
#958=CARTESIAN_POINT('',(-36.6499999999706,17.8500000000017,-2.));
#959=CARTESIAN_POINT('',(-1.34999999999998,17.8500000000017,0.));
#960=CARTESIAN_POINT('Origin',(-1.34999999999999,42.9458405540823,0.));
#961=CARTESIAN_POINT('',(-1.34999999999999,42.9458405540823,-2.));
#962=CARTESIAN_POINT('',(-1.34999999999998,23.8500000000017,-2.));
#963=CARTESIAN_POINT('',(-1.34999999999999,42.9458405540823,0.));
#964=CARTESIAN_POINT('Origin',(-36.6499999999706,42.9458405540823,0.));
#965=CARTESIAN_POINT('',(-36.6499999999706,42.9458405540823,-2.));
#966=CARTESIAN_POINT('',(-1.34999999999999,42.9458405540823,-2.));
#967=CARTESIAN_POINT('',(-36.6499999999706,42.9458405540823,0.));
#968=CARTESIAN_POINT('Origin',(-36.6499999999706,17.8500000000017,0.));
#969=CARTESIAN_POINT('',(-36.6499999999706,36.9458405540823,-2.));
#970=CARTESIAN_POINT('Origin',(-18.9999999999853,30.397920277042,-2.));
#971=UNCERTAINTY_MEASURE_WITH_UNIT(LENGTH_MEASURE(0.01),#975,
'DISTANCE_ACCURACY_VALUE',
'Maximum model space distance between geometric entities at asserted c
onnectivities');
#972=UNCERTAINTY_MEASURE_WITH_UNIT(LENGTH_MEASURE(0.01),#975,
'DISTANCE_ACCURACY_VALUE',
'Maximum model space distance between geometric entities at asserted c
onnectivities');
#973=(
GEOMETRIC_REPRESENTATION_CONTEXT(3)
GLOBAL_UNCERTAINTY_ASSIGNED_CONTEXT((#971))
GLOBAL_UNIT_ASSIGNED_CONTEXT((#975,#977,#978))
REPRESENTATION_CONTEXT('','3D')
);
#974=(
GEOMETRIC_REPRESENTATION_CONTEXT(3)
GLOBAL_UNCERTAINTY_ASSIGNED_CONTEXT((#972))
GLOBAL_UNIT_ASSIGNED_CONTEXT((#975,#977,#978))
REPRESENTATION_CONTEXT('','3D')
);
#975=(
LENGTH_UNIT()
NAMED_UNIT(*)
SI_UNIT(.MILLI.,.METRE.)
);
#976=(
LENGTH_UNIT()
NAMED_UNIT(*)
SI_UNIT(.CENTI.,.METRE.)
);
#977=(
NAMED_UNIT(*)
PLANE_ANGLE_UNIT()
SI_UNIT($,.RADIAN.)
);
#978=(
NAMED_UNIT(*)
SI_UNIT($,.STERADIAN.)
SOLID_ANGLE_UNIT()
);
#979=SHAPE_DEFINITION_REPRESENTATION(#980,#981);
#980=PRODUCT_DEFINITION_SHAPE('',$,#983);
#981=SHAPE_REPRESENTATION('',(#593),#973);
#982=PRODUCT_DEFINITION_CONTEXT('part definition',#987,'design');
#983=PRODUCT_DEFINITION('PCB_Holder_Floor','PCB_Holder_Floor',#984,#982);
#984=PRODUCT_DEFINITION_FORMATION('',$,#989);
#985=PRODUCT_RELATED_PRODUCT_CATEGORY('PCB_Holder_Floor',
'PCB_Holder_Floor',(#989));
#986=APPLICATION_PROTOCOL_DEFINITION('international standard',
'automotive_design',2009,#987);
#987=APPLICATION_CONTEXT(
'Core Data for Automotive Mechanical Design Process');
#988=PRODUCT_CONTEXT('part definition',#987,'mechanical');
#989=PRODUCT('PCB_Holder_Floor','PCB_Holder_Floor',$,(#988));
#990=PRESENTATION_STYLE_ASSIGNMENT((#991));
#991=SURFACE_STYLE_USAGE(.BOTH.,#994);
#992=SURFACE_STYLE_RENDERING_WITH_PROPERTIES($,#998,(#993));
#993=SURFACE_STYLE_TRANSPARENT(0.);
#994=SURFACE_SIDE_STYLE('',(#995,#992));
#995=SURFACE_STYLE_FILL_AREA(#996);
#996=FILL_AREA_STYLE('',(#997));
#997=FILL_AREA_STYLE_COLOUR('',#998);
#998=COLOUR_RGB('',0.749019607843137,0.749019607843137,0.749019607843137);
ENDSEC;
END-ISO-10303-21;
