ISO-10303-21;
HEADER;
/* Generated by software containing ST-Developer
 * from STEP Tools, Inc. (www.steptools.com) 
 */

FILE_DESCRIPTION(
/* description */ (''),
/* implementation_level */ '2;1');

FILE_NAME(
/* name */ 'PCB_Controller.stp',
/* time_stamp */ '2026-04-10T21:51:42+02:00',
/* author */ ('szymo'),
/* organization */ (''),
/* preprocessor_version */ 'ST-DEVELOPER v20.1',
/* originating_system */ 'Autodesk Inventor 2026',
/* authorisation */ '');

FILE_SCHEMA (('AUTOMOTIVE_DESIGN { 1 0 10303 214 3 1 1 }'));
ENDSEC;

DATA;
#10=MECHANICAL_DESIGN_GEOMETRIC_PRESENTATION_REPRESENTATION('',(#13),#1978);
#11=SHAPE_REPRESENTATION_RELATIONSHIP('SRR','None',#1985,#12);
#12=ADVANCED_BREP_SHAPE_REPRESENTATION('',(#14),#1977);
#13=STYLED_ITEM('',(#1994),#14);
#14=MANIFOLD_SOLID_BREP('Solid1',#1225);
#15=FACE_BOUND('',#147,.T.);
#16=FACE_BOUND('',#148,.T.);
#17=FACE_BOUND('',#154,.T.);
#18=FACE_BOUND('',#155,.T.);
#19=FACE_BOUND('',#156,.T.);
#20=FACE_BOUND('',#157,.T.);
#21=FACE_BOUND('',#158,.T.);
#22=FACE_BOUND('',#159,.T.);
#23=FACE_BOUND('',#187,.T.);
#24=PLANE('',#1251);
#25=PLANE('',#1252);
#26=PLANE('',#1260);
#27=PLANE('',#1265);
#28=PLANE('',#1270);
#29=PLANE('',#1271);
#30=PLANE('',#1272);
#31=PLANE('',#1273);
#32=PLANE('',#1274);
#33=PLANE('',#1275);
#34=PLANE('',#1276);
#35=PLANE('',#1277);
#36=PLANE('',#1278);
#37=PLANE('',#1279);
#38=PLANE('',#1280);
#39=PLANE('',#1281);
#40=PLANE('',#1282);
#41=PLANE('',#1283);
#42=PLANE('',#1284);
#43=PLANE('',#1285);
#44=PLANE('',#1286);
#45=PLANE('',#1287);
#46=PLANE('',#1288);
#47=PLANE('',#1289);
#48=PLANE('',#1290);
#49=PLANE('',#1291);
#50=PLANE('',#1292);
#51=PLANE('',#1293);
#52=PLANE('',#1294);
#53=PLANE('',#1295);
#54=PLANE('',#1296);
#55=PLANE('',#1297);
#56=PLANE('',#1298);
#57=PLANE('',#1299);
#58=PLANE('',#1300);
#59=PLANE('',#1301);
#60=PLANE('',#1302);
#61=PLANE('',#1303);
#62=PLANE('',#1304);
#63=PLANE('',#1305);
#64=PLANE('',#1306);
#65=PLANE('',#1307);
#66=PLANE('',#1308);
#67=PLANE('',#1309);
#68=PLANE('',#1310);
#69=PLANE('',#1311);
#70=PLANE('',#1312);
#71=PLANE('',#1313);
#72=PLANE('',#1314);
#73=PLANE('',#1315);
#74=PLANE('',#1316);
#75=PLANE('',#1317);
#76=PLANE('',#1318);
#77=PLANE('',#1319);
#78=PLANE('',#1320);
#79=PLANE('',#1321);
#80=PLANE('',#1322);
#81=FACE_OUTER_BOUND('',#144,.T.);
#82=FACE_OUTER_BOUND('',#145,.T.);
#83=FACE_OUTER_BOUND('',#146,.T.);
#84=FACE_OUTER_BOUND('',#149,.T.);
#85=FACE_OUTER_BOUND('',#150,.T.);
#86=FACE_OUTER_BOUND('',#151,.T.);
#87=FACE_OUTER_BOUND('',#152,.T.);
#88=FACE_OUTER_BOUND('',#153,.T.);
#89=FACE_OUTER_BOUND('',#160,.T.);
#90=FACE_OUTER_BOUND('',#161,.T.);
#91=FACE_OUTER_BOUND('',#162,.T.);
#92=FACE_OUTER_BOUND('',#163,.T.);
#93=FACE_OUTER_BOUND('',#164,.T.);
#94=FACE_OUTER_BOUND('',#165,.T.);
#95=FACE_OUTER_BOUND('',#166,.T.);
#96=FACE_OUTER_BOUND('',#167,.T.);
#97=FACE_OUTER_BOUND('',#168,.T.);
#98=FACE_OUTER_BOUND('',#169,.T.);
#99=FACE_OUTER_BOUND('',#170,.T.);
#100=FACE_OUTER_BOUND('',#171,.T.);
#101=FACE_OUTER_BOUND('',#172,.T.);
#102=FACE_OUTER_BOUND('',#173,.T.);
#103=FACE_OUTER_BOUND('',#174,.T.);
#104=FACE_OUTER_BOUND('',#175,.T.);
#105=FACE_OUTER_BOUND('',#176,.T.);
#106=FACE_OUTER_BOUND('',#177,.T.);
#107=FACE_OUTER_BOUND('',#178,.T.);
#108=FACE_OUTER_BOUND('',#179,.T.);
#109=FACE_OUTER_BOUND('',#180,.T.);
#110=FACE_OUTER_BOUND('',#181,.T.);
#111=FACE_OUTER_BOUND('',#182,.T.);
#112=FACE_OUTER_BOUND('',#183,.T.);
#113=FACE_OUTER_BOUND('',#184,.T.);
#114=FACE_OUTER_BOUND('',#185,.T.);
#115=FACE_OUTER_BOUND('',#186,.T.);
#116=FACE_OUTER_BOUND('',#188,.T.);
#117=FACE_OUTER_BOUND('',#189,.T.);
#118=FACE_OUTER_BOUND('',#190,.T.);
#119=FACE_OUTER_BOUND('',#191,.T.);
#120=FACE_OUTER_BOUND('',#192,.T.);
#121=FACE_OUTER_BOUND('',#193,.T.);
#122=FACE_OUTER_BOUND('',#194,.T.);
#123=FACE_OUTER_BOUND('',#195,.T.);
#124=FACE_OUTER_BOUND('',#196,.T.);
#125=FACE_OUTER_BOUND('',#197,.T.);
#126=FACE_OUTER_BOUND('',#198,.T.);
#127=FACE_OUTER_BOUND('',#199,.T.);
#128=FACE_OUTER_BOUND('',#200,.T.);
#129=FACE_OUTER_BOUND('',#201,.T.);
#130=FACE_OUTER_BOUND('',#202,.T.);
#131=FACE_OUTER_BOUND('',#203,.T.);
#132=FACE_OUTER_BOUND('',#204,.T.);
#133=FACE_OUTER_BOUND('',#205,.T.);
#134=FACE_OUTER_BOUND('',#206,.T.);
#135=FACE_OUTER_BOUND('',#207,.T.);
#136=FACE_OUTER_BOUND('',#208,.T.);
#137=FACE_OUTER_BOUND('',#209,.T.);
#138=FACE_OUTER_BOUND('',#210,.T.);
#139=FACE_OUTER_BOUND('',#211,.T.);
#140=FACE_OUTER_BOUND('',#212,.T.);
#141=FACE_OUTER_BOUND('',#213,.T.);
#142=FACE_OUTER_BOUND('',#214,.T.);
#143=FACE_OUTER_BOUND('',#215,.T.);
#144=EDGE_LOOP('',(#820,#821,#822,#823));
#145=EDGE_LOOP('',(#824,#825,#826,#827));
#146=EDGE_LOOP('',(#828,#829,#830,#831,#832,#833,#834,#835));
#147=EDGE_LOOP('',(#836));
#148=EDGE_LOOP('',(#837));
#149=EDGE_LOOP('',(#838,#839,#840,#841));
#150=EDGE_LOOP('',(#842,#843,#844,#845));
#151=EDGE_LOOP('',(#846,#847,#848,#849));
#152=EDGE_LOOP('',(#850,#851,#852,#853));
#153=EDGE_LOOP('',(#854,#855,#856,#857,#858,#859,#860,#861));
#154=EDGE_LOOP('',(#862,#863,#864,#865,#866,#867,#868,#869,#870,#871,#872,
#873));
#155=EDGE_LOOP('',(#874,#875,#876,#877,#878,#879,#880,#881));
#156=EDGE_LOOP('',(#882,#883,#884,#885,#886,#887,#888,#889,#890,#891,#892,
#893,#894));
#157=EDGE_LOOP('',(#895,#896,#897,#898,#899,#900,#901,#902,#903,#904));
#158=EDGE_LOOP('',(#905));
#159=EDGE_LOOP('',(#906));
#160=EDGE_LOOP('',(#907,#908,#909,#910));
#161=EDGE_LOOP('',(#911,#912,#913,#914));
#162=EDGE_LOOP('',(#915,#916,#917,#918));
#163=EDGE_LOOP('',(#919,#920,#921,#922));
#164=EDGE_LOOP('',(#923,#924,#925,#926));
#165=EDGE_LOOP('',(#927,#928,#929,#930));
#166=EDGE_LOOP('',(#931,#932,#933,#934));
#167=EDGE_LOOP('',(#935,#936,#937,#938));
#168=EDGE_LOOP('',(#939,#940,#941,#942));
#169=EDGE_LOOP('',(#943,#944,#945,#946));
#170=EDGE_LOOP('',(#947,#948,#949,#950));
#171=EDGE_LOOP('',(#951,#952,#953,#954));
#172=EDGE_LOOP('',(#955,#956,#957,#958));
#173=EDGE_LOOP('',(#959,#960,#961,#962));
#174=EDGE_LOOP('',(#963,#964,#965,#966,#967,#968,#969,#970,#971,#972,#973,
#974));
#175=EDGE_LOOP('',(#975,#976,#977,#978));
#176=EDGE_LOOP('',(#979,#980,#981,#982));
#177=EDGE_LOOP('',(#983,#984,#985,#986));
#178=EDGE_LOOP('',(#987,#988,#989,#990));
#179=EDGE_LOOP('',(#991,#992,#993,#994));
#180=EDGE_LOOP('',(#995,#996,#997,#998));
#181=EDGE_LOOP('',(#999,#1000,#1001,#1002));
#182=EDGE_LOOP('',(#1003,#1004,#1005,#1006));
#183=EDGE_LOOP('',(#1007,#1008,#1009,#1010));
#184=EDGE_LOOP('',(#1011,#1012,#1013,#1014));
#185=EDGE_LOOP('',(#1015,#1016,#1017,#1018));
#186=EDGE_LOOP('',(#1019,#1020,#1021,#1022,#1023,#1024,#1025,#1026));
#187=EDGE_LOOP('',(#1027,#1028,#1029));
#188=EDGE_LOOP('',(#1030,#1031,#1032,#1033));
#189=EDGE_LOOP('',(#1034,#1035,#1036,#1037));
#190=EDGE_LOOP('',(#1038,#1039,#1040,#1041));
#191=EDGE_LOOP('',(#1042,#1043,#1044,#1045));
#192=EDGE_LOOP('',(#1046,#1047,#1048,#1049));
#193=EDGE_LOOP('',(#1050,#1051,#1052,#1053));
#194=EDGE_LOOP('',(#1054,#1055,#1056,#1057));
#195=EDGE_LOOP('',(#1058,#1059,#1060,#1061));
#196=EDGE_LOOP('',(#1062,#1063,#1064,#1065));
#197=EDGE_LOOP('',(#1066,#1067,#1068,#1069));
#198=EDGE_LOOP('',(#1070,#1071,#1072,#1073));
#199=EDGE_LOOP('',(#1074,#1075,#1076,#1077));
#200=EDGE_LOOP('',(#1078,#1079,#1080,#1081));
#201=EDGE_LOOP('',(#1082,#1083,#1084,#1085,#1086,#1087,#1088,#1089,#1090,
#1091,#1092,#1093,#1094));
#202=EDGE_LOOP('',(#1095,#1096,#1097,#1098));
#203=EDGE_LOOP('',(#1099,#1100,#1101,#1102));
#204=EDGE_LOOP('',(#1103,#1104,#1105,#1106));
#205=EDGE_LOOP('',(#1107,#1108,#1109,#1110));
#206=EDGE_LOOP('',(#1111,#1112,#1113,#1114));
#207=EDGE_LOOP('',(#1115,#1116,#1117,#1118));
#208=EDGE_LOOP('',(#1119,#1120,#1121,#1122));
#209=EDGE_LOOP('',(#1123,#1124,#1125,#1126));
#210=EDGE_LOOP('',(#1127,#1128,#1129,#1130));
#211=EDGE_LOOP('',(#1131,#1132,#1133,#1134));
#212=EDGE_LOOP('',(#1135,#1136,#1137,#1138,#1139,#1140,#1141,#1142,#1143,
#1144));
#213=EDGE_LOOP('',(#1145,#1146,#1147));
#214=EDGE_LOOP('',(#1148,#1149,#1150,#1151));
#215=EDGE_LOOP('',(#1152,#1153,#1154,#1155));
#216=LINE('',#1637,#372);
#217=LINE('',#1640,#373);
#218=LINE('',#1643,#374);
#219=LINE('',#1645,#375);
#220=LINE('',#1646,#376);
#221=LINE('',#1649,#377);
#222=LINE('',#1653,#378);
#223=LINE('',#1657,#379);
#224=LINE('',#1665,#380);
#225=LINE('',#1668,#381);
#226=LINE('',#1671,#382);
#227=LINE('',#1672,#383);
#228=LINE('',#1676,#384);
#229=LINE('',#1680,#385);
#230=LINE('',#1682,#386);
#231=LINE('',#1683,#387);
#232=LINE('',#1686,#388);
#233=LINE('',#1688,#389);
#234=LINE('',#1690,#390);
#235=LINE('',#1692,#391);
#236=LINE('',#1694,#392);
#237=LINE('',#1696,#393);
#238=LINE('',#1698,#394);
#239=LINE('',#1700,#395);
#240=LINE('',#1702,#396);
#241=LINE('',#1704,#397);
#242=LINE('',#1706,#398);
#243=LINE('',#1707,#399);
#244=LINE('',#1710,#400);
#245=LINE('',#1712,#401);
#246=LINE('',#1714,#402);
#247=LINE('',#1716,#403);
#248=LINE('',#1718,#404);
#249=LINE('',#1720,#405);
#250=LINE('',#1722,#406);
#251=LINE('',#1723,#407);
#252=LINE('',#1726,#408);
#253=LINE('',#1728,#409);
#254=LINE('',#1730,#410);
#255=LINE('',#1732,#411);
#256=LINE('',#1734,#412);
#257=LINE('',#1736,#413);
#258=LINE('',#1738,#414);
#259=LINE('',#1740,#415);
#260=LINE('',#1742,#416);
#261=LINE('',#1744,#417);
#262=LINE('',#1746,#418);
#263=LINE('',#1748,#419);
#264=LINE('',#1749,#420);
#265=LINE('',#1752,#421);
#266=LINE('',#1754,#422);
#267=LINE('',#1756,#423);
#268=LINE('',#1758,#424);
#269=LINE('',#1760,#425);
#270=LINE('',#1762,#426);
#271=LINE('',#1764,#427);
#272=LINE('',#1766,#428);
#273=LINE('',#1768,#429);
#274=LINE('',#1769,#430);
#275=LINE('',#1775,#431);
#276=LINE('',#1777,#432);
#277=LINE('',#1780,#433);
#278=LINE('',#1782,#434);
#279=LINE('',#1783,#435);
#280=LINE('',#1786,#436);
#281=LINE('',#1787,#437);
#282=LINE('',#1790,#438);
#283=LINE('',#1791,#439);
#284=LINE('',#1794,#440);
#285=LINE('',#1795,#441);
#286=LINE('',#1798,#442);
#287=LINE('',#1799,#443);
#288=LINE('',#1802,#444);
#289=LINE('',#1803,#445);
#290=LINE('',#1806,#446);
#291=LINE('',#1807,#447);
#292=LINE('',#1810,#448);
#293=LINE('',#1811,#449);
#294=LINE('',#1814,#450);
#295=LINE('',#1815,#451);
#296=LINE('',#1818,#452);
#297=LINE('',#1819,#453);
#298=LINE('',#1822,#454);
#299=LINE('',#1823,#455);
#300=LINE('',#1825,#456);
#301=LINE('',#1830,#457);
#302=LINE('',#1832,#458);
#303=LINE('',#1834,#459);
#304=LINE('',#1835,#460);
#305=LINE('',#1838,#461);
#306=LINE('',#1840,#462);
#307=LINE('',#1841,#463);
#308=LINE('',#1843,#464);
#309=LINE('',#1844,#465);
#310=LINE('',#1847,#466);
#311=LINE('',#1849,#467);
#312=LINE('',#1850,#468);
#313=LINE('',#1853,#469);
#314=LINE('',#1854,#470);
#315=LINE('',#1857,#471);
#316=LINE('',#1858,#472);
#317=LINE('',#1861,#473);
#318=LINE('',#1862,#474);
#319=LINE('',#1865,#475);
#320=LINE('',#1866,#476);
#321=LINE('',#1869,#477);
#322=LINE('',#1870,#478);
#323=LINE('',#1873,#479);
#324=LINE('',#1874,#480);
#325=LINE('',#1876,#481);
#326=LINE('',#1880,#482);
#327=LINE('',#1882,#483);
#328=LINE('',#1883,#484);
#329=LINE('',#1886,#485);
#330=LINE('',#1887,#486);
#331=LINE('',#1890,#487);
#332=LINE('',#1891,#488);
#333=LINE('',#1894,#489);
#334=LINE('',#1895,#490);
#335=LINE('',#1898,#491);
#336=LINE('',#1899,#492);
#337=LINE('',#1902,#493);
#338=LINE('',#1903,#494);
#339=LINE('',#1906,#495);
#340=LINE('',#1907,#496);
#341=LINE('',#1910,#497);
#342=LINE('',#1911,#498);
#343=LINE('',#1914,#499);
#344=LINE('',#1915,#500);
#345=LINE('',#1918,#501);
#346=LINE('',#1919,#502);
#347=LINE('',#1922,#503);
#348=LINE('',#1923,#504);
#349=LINE('',#1926,#505);
#350=LINE('',#1927,#506);
#351=LINE('',#1929,#507);
#352=LINE('',#1933,#508);
#353=LINE('',#1935,#509);
#354=LINE('',#1936,#510);
#355=LINE('',#1939,#511);
#356=LINE('',#1940,#512);
#357=LINE('',#1943,#513);
#358=LINE('',#1944,#514);
#359=LINE('',#1947,#515);
#360=LINE('',#1948,#516);
#361=LINE('',#1951,#517);
#362=LINE('',#1952,#518);
#363=LINE('',#1955,#519);
#364=LINE('',#1956,#520);
#365=LINE('',#1959,#521);
#366=LINE('',#1960,#522);
#367=LINE('',#1963,#523);
#368=LINE('',#1964,#524);
#369=LINE('',#1967,#525);
#370=LINE('',#1968,#526);
#371=LINE('',#1970,#527);
#372=VECTOR('',#1329,10.);
#373=VECTOR('',#1332,10.);
#374=VECTOR('',#1335,10.);
#375=VECTOR('',#1336,10.);
#376=VECTOR('',#1337,10.);
#377=VECTOR('',#1340,10.);
#378=VECTOR('',#1343,10.);
#379=VECTOR('',#1346,10.);
#380=VECTOR('',#1355,10.);
#381=VECTOR('',#1358,10.);
#382=VECTOR('',#1361,10.);
#383=VECTOR('',#1362,10.);
#384=VECTOR('',#1367,10.);
#385=VECTOR('',#1372,10.);
#386=VECTOR('',#1375,10.);
#387=VECTOR('',#1376,10.);
#388=VECTOR('',#1377,10.);
#389=VECTOR('',#1378,10.);
#390=VECTOR('',#1379,10.);
#391=VECTOR('',#1380,10.);
#392=VECTOR('',#1381,10.);
#393=VECTOR('',#1382,10.);
#394=VECTOR('',#1383,10.);
#395=VECTOR('',#1384,10.);
#396=VECTOR('',#1385,10.);
#397=VECTOR('',#1386,10.);
#398=VECTOR('',#1387,10.);
#399=VECTOR('',#1388,10.);
#400=VECTOR('',#1389,10.);
#401=VECTOR('',#1390,10.);
#402=VECTOR('',#1391,10.);
#403=VECTOR('',#1392,10.);
#404=VECTOR('',#1393,10.);
#405=VECTOR('',#1394,10.);
#406=VECTOR('',#1395,10.);
#407=VECTOR('',#1396,10.);
#408=VECTOR('',#1397,10.);
#409=VECTOR('',#1398,10.);
#410=VECTOR('',#1399,10.);
#411=VECTOR('',#1400,10.);
#412=VECTOR('',#1401,10.);
#413=VECTOR('',#1402,10.);
#414=VECTOR('',#1403,10.);
#415=VECTOR('',#1404,10.);
#416=VECTOR('',#1405,10.);
#417=VECTOR('',#1406,10.);
#418=VECTOR('',#1407,10.);
#419=VECTOR('',#1408,10.);
#420=VECTOR('',#1409,10.);
#421=VECTOR('',#1410,10.);
#422=VECTOR('',#1411,10.);
#423=VECTOR('',#1412,10.);
#424=VECTOR('',#1413,10.);
#425=VECTOR('',#1414,10.);
#426=VECTOR('',#1415,10.);
#427=VECTOR('',#1416,10.);
#428=VECTOR('',#1417,10.);
#429=VECTOR('',#1418,10.);
#430=VECTOR('',#1419,10.);
#431=VECTOR('',#1426,1.25);
#432=VECTOR('',#1429,1.25);
#433=VECTOR('',#1432,10.);
#434=VECTOR('',#1433,10.);
#435=VECTOR('',#1434,10.);
#436=VECTOR('',#1437,10.);
#437=VECTOR('',#1438,10.);
#438=VECTOR('',#1441,10.);
#439=VECTOR('',#1442,10.);
#440=VECTOR('',#1445,10.);
#441=VECTOR('',#1446,10.);
#442=VECTOR('',#1449,10.);
#443=VECTOR('',#1450,10.);
#444=VECTOR('',#1453,10.);
#445=VECTOR('',#1454,10.);
#446=VECTOR('',#1457,10.);
#447=VECTOR('',#1458,10.);
#448=VECTOR('',#1461,10.);
#449=VECTOR('',#1462,10.);
#450=VECTOR('',#1465,10.);
#451=VECTOR('',#1466,10.);
#452=VECTOR('',#1469,10.);
#453=VECTOR('',#1470,10.);
#454=VECTOR('',#1473,10.);
#455=VECTOR('',#1474,10.);
#456=VECTOR('',#1477,10.);
#457=VECTOR('',#1482,10.);
#458=VECTOR('',#1483,10.);
#459=VECTOR('',#1484,10.);
#460=VECTOR('',#1485,10.);
#461=VECTOR('',#1488,10.);
#462=VECTOR('',#1489,10.);
#463=VECTOR('',#1490,10.);
#464=VECTOR('',#1493,10.);
#465=VECTOR('',#1494,10.);
#466=VECTOR('',#1497,10.);
#467=VECTOR('',#1498,10.);
#468=VECTOR('',#1499,10.);
#469=VECTOR('',#1502,10.);
#470=VECTOR('',#1503,10.);
#471=VECTOR('',#1506,10.);
#472=VECTOR('',#1507,10.);
#473=VECTOR('',#1510,10.);
#474=VECTOR('',#1511,10.);
#475=VECTOR('',#1514,10.);
#476=VECTOR('',#1515,10.);
#477=VECTOR('',#1518,10.);
#478=VECTOR('',#1519,10.);
#479=VECTOR('',#1522,10.);
#480=VECTOR('',#1523,10.);
#481=VECTOR('',#1526,10.);
#482=VECTOR('',#1531,10.);
#483=VECTOR('',#1532,10.);
#484=VECTOR('',#1533,10.);
#485=VECTOR('',#1536,10.);
#486=VECTOR('',#1537,10.);
#487=VECTOR('',#1540,10.);
#488=VECTOR('',#1541,10.);
#489=VECTOR('',#1544,10.);
#490=VECTOR('',#1545,10.);
#491=VECTOR('',#1548,10.);
#492=VECTOR('',#1549,10.);
#493=VECTOR('',#1552,10.);
#494=VECTOR('',#1553,10.);
#495=VECTOR('',#1556,10.);
#496=VECTOR('',#1557,10.);
#497=VECTOR('',#1560,10.);
#498=VECTOR('',#1561,10.);
#499=VECTOR('',#1564,10.);
#500=VECTOR('',#1565,10.);
#501=VECTOR('',#1568,10.);
#502=VECTOR('',#1569,10.);
#503=VECTOR('',#1572,10.);
#504=VECTOR('',#1573,10.);
#505=VECTOR('',#1576,10.);
#506=VECTOR('',#1577,10.);
#507=VECTOR('',#1580,10.);
#508=VECTOR('',#1585,10.);
#509=VECTOR('',#1586,10.);
#510=VECTOR('',#1587,10.);
#511=VECTOR('',#1590,10.);
#512=VECTOR('',#1591,10.);
#513=VECTOR('',#1594,10.);
#514=VECTOR('',#1595,10.);
#515=VECTOR('',#1598,10.);
#516=VECTOR('',#1599,10.);
#517=VECTOR('',#1602,10.);
#518=VECTOR('',#1603,10.);
#519=VECTOR('',#1606,10.);
#520=VECTOR('',#1607,10.);
#521=VECTOR('',#1610,10.);
#522=VECTOR('',#1611,10.);
#523=VECTOR('',#1614,10.);
#524=VECTOR('',#1615,10.);
#525=VECTOR('',#1618,10.);
#526=VECTOR('',#1619,10.);
#527=VECTOR('',#1622,10.);
#528=CIRCLE('',#1249,1.);
#529=CIRCLE('',#1250,1.);
#530=CIRCLE('',#1253,1.);
#531=CIRCLE('',#1254,1.);
#532=CIRCLE('',#1255,1.);
#533=CIRCLE('',#1256,1.25);
#534=CIRCLE('',#1257,1.25);
#535=CIRCLE('',#1259,1.);
#536=CIRCLE('',#1262,1.);
#537=CIRCLE('',#1264,1.);
#538=CIRCLE('',#1266,1.25);
#539=CIRCLE('',#1267,1.25);
#540=VERTEX_POINT('',#1633);
#541=VERTEX_POINT('',#1634);
#542=VERTEX_POINT('',#1636);
#543=VERTEX_POINT('',#1638);
#544=VERTEX_POINT('',#1642);
#545=VERTEX_POINT('',#1644);
#546=VERTEX_POINT('',#1648);
#547=VERTEX_POINT('',#1650);
#548=VERTEX_POINT('',#1652);
#549=VERTEX_POINT('',#1654);
#550=VERTEX_POINT('',#1656);
#551=VERTEX_POINT('',#1659);
#552=VERTEX_POINT('',#1661);
#553=VERTEX_POINT('',#1664);
#554=VERTEX_POINT('',#1666);
#555=VERTEX_POINT('',#1670);
#556=VERTEX_POINT('',#1674);
#557=VERTEX_POINT('',#1678);
#558=VERTEX_POINT('',#1684);
#559=VERTEX_POINT('',#1685);
#560=VERTEX_POINT('',#1687);
#561=VERTEX_POINT('',#1689);
#562=VERTEX_POINT('',#1691);
#563=VERTEX_POINT('',#1693);
#564=VERTEX_POINT('',#1695);
#565=VERTEX_POINT('',#1697);
#566=VERTEX_POINT('',#1699);
#567=VERTEX_POINT('',#1701);
#568=VERTEX_POINT('',#1703);
#569=VERTEX_POINT('',#1705);
#570=VERTEX_POINT('',#1708);
#571=VERTEX_POINT('',#1709);
#572=VERTEX_POINT('',#1711);
#573=VERTEX_POINT('',#1713);
#574=VERTEX_POINT('',#1715);
#575=VERTEX_POINT('',#1717);
#576=VERTEX_POINT('',#1719);
#577=VERTEX_POINT('',#1721);
#578=VERTEX_POINT('',#1724);
#579=VERTEX_POINT('',#1725);
#580=VERTEX_POINT('',#1727);
#581=VERTEX_POINT('',#1729);
#582=VERTEX_POINT('',#1731);
#583=VERTEX_POINT('',#1733);
#584=VERTEX_POINT('',#1735);
#585=VERTEX_POINT('',#1737);
#586=VERTEX_POINT('',#1739);
#587=VERTEX_POINT('',#1741);
#588=VERTEX_POINT('',#1743);
#589=VERTEX_POINT('',#1745);
#590=VERTEX_POINT('',#1747);
#591=VERTEX_POINT('',#1750);
#592=VERTEX_POINT('',#1751);
#593=VERTEX_POINT('',#1753);
#594=VERTEX_POINT('',#1755);
#595=VERTEX_POINT('',#1757);
#596=VERTEX_POINT('',#1759);
#597=VERTEX_POINT('',#1761);
#598=VERTEX_POINT('',#1763);
#599=VERTEX_POINT('',#1765);
#600=VERTEX_POINT('',#1767);
#601=VERTEX_POINT('',#1770);
#602=VERTEX_POINT('',#1772);
#603=VERTEX_POINT('',#1779);
#604=VERTEX_POINT('',#1781);
#605=VERTEX_POINT('',#1785);
#606=VERTEX_POINT('',#1789);
#607=VERTEX_POINT('',#1793);
#608=VERTEX_POINT('',#1797);
#609=VERTEX_POINT('',#1801);
#610=VERTEX_POINT('',#1805);
#611=VERTEX_POINT('',#1809);
#612=VERTEX_POINT('',#1813);
#613=VERTEX_POINT('',#1817);
#614=VERTEX_POINT('',#1821);
#615=VERTEX_POINT('',#1828);
#616=VERTEX_POINT('',#1829);
#617=VERTEX_POINT('',#1831);
#618=VERTEX_POINT('',#1833);
#619=VERTEX_POINT('',#1837);
#620=VERTEX_POINT('',#1839);
#621=VERTEX_POINT('',#1846);
#622=VERTEX_POINT('',#1848);
#623=VERTEX_POINT('',#1852);
#624=VERTEX_POINT('',#1856);
#625=VERTEX_POINT('',#1860);
#626=VERTEX_POINT('',#1864);
#627=VERTEX_POINT('',#1868);
#628=VERTEX_POINT('',#1872);
#629=VERTEX_POINT('',#1879);
#630=VERTEX_POINT('',#1881);
#631=VERTEX_POINT('',#1885);
#632=VERTEX_POINT('',#1889);
#633=VERTEX_POINT('',#1893);
#634=VERTEX_POINT('',#1897);
#635=VERTEX_POINT('',#1901);
#636=VERTEX_POINT('',#1905);
#637=VERTEX_POINT('',#1909);
#638=VERTEX_POINT('',#1913);
#639=VERTEX_POINT('',#1917);
#640=VERTEX_POINT('',#1921);
#641=VERTEX_POINT('',#1925);
#642=VERTEX_POINT('',#1932);
#643=VERTEX_POINT('',#1934);
#644=VERTEX_POINT('',#1938);
#645=VERTEX_POINT('',#1942);
#646=VERTEX_POINT('',#1946);
#647=VERTEX_POINT('',#1950);
#648=VERTEX_POINT('',#1954);
#649=VERTEX_POINT('',#1958);
#650=VERTEX_POINT('',#1962);
#651=VERTEX_POINT('',#1966);
#652=EDGE_CURVE('',#540,#541,#528,.T.);
#653=EDGE_CURVE('',#541,#542,#216,.T.);
#654=EDGE_CURVE('',#542,#543,#529,.T.);
#655=EDGE_CURVE('',#543,#540,#217,.T.);
#656=EDGE_CURVE('',#544,#543,#218,.T.);
#657=EDGE_CURVE('',#545,#544,#219,.T.);
#658=EDGE_CURVE('',#545,#540,#220,.T.);
#659=EDGE_CURVE('',#546,#542,#221,.T.);
#660=EDGE_CURVE('',#547,#546,#530,.T.);
#661=EDGE_CURVE('',#548,#547,#222,.T.);
#662=EDGE_CURVE('',#549,#548,#531,.T.);
#663=EDGE_CURVE('',#549,#550,#223,.T.);
#664=EDGE_CURVE('',#544,#550,#532,.T.);
#665=EDGE_CURVE('',#551,#551,#533,.T.);
#666=EDGE_CURVE('',#552,#552,#534,.T.);
#667=EDGE_CURVE('',#546,#553,#224,.T.);
#668=EDGE_CURVE('',#553,#554,#535,.T.);
#669=EDGE_CURVE('',#554,#547,#225,.T.);
#670=EDGE_CURVE('',#555,#554,#226,.T.);
#671=EDGE_CURVE('',#548,#555,#227,.T.);
#672=EDGE_CURVE('',#555,#556,#536,.T.);
#673=EDGE_CURVE('',#556,#549,#228,.T.);
#674=EDGE_CURVE('',#557,#545,#537,.T.);
#675=EDGE_CURVE('',#550,#557,#229,.T.);
#676=EDGE_CURVE('',#557,#556,#230,.T.);
#677=EDGE_CURVE('',#541,#553,#231,.T.);
#678=EDGE_CURVE('',#558,#559,#232,.T.);
#679=EDGE_CURVE('',#559,#560,#233,.T.);
#680=EDGE_CURVE('',#560,#561,#234,.T.);
#681=EDGE_CURVE('',#561,#562,#235,.T.);
#682=EDGE_CURVE('',#562,#563,#236,.T.);
#683=EDGE_CURVE('',#563,#564,#237,.T.);
#684=EDGE_CURVE('',#564,#565,#238,.T.);
#685=EDGE_CURVE('',#565,#566,#239,.T.);
#686=EDGE_CURVE('',#566,#567,#240,.T.);
#687=EDGE_CURVE('',#567,#568,#241,.T.);
#688=EDGE_CURVE('',#568,#569,#242,.T.);
#689=EDGE_CURVE('',#569,#558,#243,.T.);
#690=EDGE_CURVE('',#570,#571,#244,.T.);
#691=EDGE_CURVE('',#571,#572,#245,.T.);
#692=EDGE_CURVE('',#572,#573,#246,.T.);
#693=EDGE_CURVE('',#573,#574,#247,.T.);
#694=EDGE_CURVE('',#574,#575,#248,.T.);
#695=EDGE_CURVE('',#575,#576,#249,.T.);
#696=EDGE_CURVE('',#576,#577,#250,.T.);
#697=EDGE_CURVE('',#577,#570,#251,.T.);
#698=EDGE_CURVE('',#578,#579,#252,.T.);
#699=EDGE_CURVE('',#579,#580,#253,.T.);
#700=EDGE_CURVE('',#580,#581,#254,.T.);
#701=EDGE_CURVE('',#581,#582,#255,.T.);
#702=EDGE_CURVE('',#582,#583,#256,.T.);
#703=EDGE_CURVE('',#583,#584,#257,.T.);
#704=EDGE_CURVE('',#584,#585,#258,.T.);
#705=EDGE_CURVE('',#585,#586,#259,.T.);
#706=EDGE_CURVE('',#586,#587,#260,.T.);
#707=EDGE_CURVE('',#587,#588,#261,.T.);
#708=EDGE_CURVE('',#588,#589,#262,.T.);
#709=EDGE_CURVE('',#589,#590,#263,.T.);
#710=EDGE_CURVE('',#590,#578,#264,.T.);
#711=EDGE_CURVE('',#591,#592,#265,.T.);
#712=EDGE_CURVE('',#592,#593,#266,.T.);
#713=EDGE_CURVE('',#593,#594,#267,.T.);
#714=EDGE_CURVE('',#594,#595,#268,.T.);
#715=EDGE_CURVE('',#595,#596,#269,.T.);
#716=EDGE_CURVE('',#596,#597,#270,.T.);
#717=EDGE_CURVE('',#597,#598,#271,.T.);
#718=EDGE_CURVE('',#598,#599,#272,.T.);
#719=EDGE_CURVE('',#599,#600,#273,.T.);
#720=EDGE_CURVE('',#600,#591,#274,.T.);
#721=EDGE_CURVE('',#601,#601,#538,.T.);
#722=EDGE_CURVE('',#602,#602,#539,.T.);
#723=EDGE_CURVE('',#552,#602,#275,.T.);
#724=EDGE_CURVE('',#551,#601,#276,.T.);
#725=EDGE_CURVE('',#558,#603,#277,.T.);
#726=EDGE_CURVE('',#603,#604,#278,.T.);
#727=EDGE_CURVE('',#559,#604,#279,.T.);
#728=EDGE_CURVE('',#569,#605,#280,.T.);
#729=EDGE_CURVE('',#605,#603,#281,.T.);
#730=EDGE_CURVE('',#568,#606,#282,.T.);
#731=EDGE_CURVE('',#606,#605,#283,.T.);
#732=EDGE_CURVE('',#567,#607,#284,.T.);
#733=EDGE_CURVE('',#607,#606,#285,.T.);
#734=EDGE_CURVE('',#566,#608,#286,.T.);
#735=EDGE_CURVE('',#608,#607,#287,.T.);
#736=EDGE_CURVE('',#565,#609,#288,.T.);
#737=EDGE_CURVE('',#609,#608,#289,.T.);
#738=EDGE_CURVE('',#564,#610,#290,.T.);
#739=EDGE_CURVE('',#610,#609,#291,.T.);
#740=EDGE_CURVE('',#563,#611,#292,.T.);
#741=EDGE_CURVE('',#611,#610,#293,.T.);
#742=EDGE_CURVE('',#562,#612,#294,.T.);
#743=EDGE_CURVE('',#612,#611,#295,.T.);
#744=EDGE_CURVE('',#561,#613,#296,.T.);
#745=EDGE_CURVE('',#613,#612,#297,.T.);
#746=EDGE_CURVE('',#560,#614,#298,.T.);
#747=EDGE_CURVE('',#614,#613,#299,.T.);
#748=EDGE_CURVE('',#604,#614,#300,.T.);
#749=EDGE_CURVE('',#615,#616,#301,.T.);
#750=EDGE_CURVE('',#615,#617,#302,.T.);
#751=EDGE_CURVE('',#617,#618,#303,.T.);
#752=EDGE_CURVE('',#616,#618,#304,.T.);
#753=EDGE_CURVE('',#616,#619,#305,.T.);
#754=EDGE_CURVE('',#618,#620,#306,.T.);
#755=EDGE_CURVE('',#619,#620,#307,.T.);
#756=EDGE_CURVE('',#619,#615,#308,.T.);
#757=EDGE_CURVE('',#620,#617,#309,.T.);
#758=EDGE_CURVE('',#570,#621,#310,.T.);
#759=EDGE_CURVE('',#621,#622,#311,.T.);
#760=EDGE_CURVE('',#571,#622,#312,.T.);
#761=EDGE_CURVE('',#577,#623,#313,.T.);
#762=EDGE_CURVE('',#623,#621,#314,.T.);
#763=EDGE_CURVE('',#576,#624,#315,.T.);
#764=EDGE_CURVE('',#624,#623,#316,.T.);
#765=EDGE_CURVE('',#575,#625,#317,.T.);
#766=EDGE_CURVE('',#625,#624,#318,.T.);
#767=EDGE_CURVE('',#574,#626,#319,.T.);
#768=EDGE_CURVE('',#626,#625,#320,.T.);
#769=EDGE_CURVE('',#573,#627,#321,.T.);
#770=EDGE_CURVE('',#627,#626,#322,.T.);
#771=EDGE_CURVE('',#572,#628,#323,.T.);
#772=EDGE_CURVE('',#628,#627,#324,.T.);
#773=EDGE_CURVE('',#622,#628,#325,.T.);
#774=EDGE_CURVE('',#578,#629,#326,.T.);
#775=EDGE_CURVE('',#629,#630,#327,.T.);
#776=EDGE_CURVE('',#579,#630,#328,.T.);
#777=EDGE_CURVE('',#590,#631,#329,.T.);
#778=EDGE_CURVE('',#631,#629,#330,.T.);
#779=EDGE_CURVE('',#589,#632,#331,.T.);
#780=EDGE_CURVE('',#632,#631,#332,.T.);
#781=EDGE_CURVE('',#588,#633,#333,.T.);
#782=EDGE_CURVE('',#633,#632,#334,.T.);
#783=EDGE_CURVE('',#587,#634,#335,.T.);
#784=EDGE_CURVE('',#634,#633,#336,.T.);
#785=EDGE_CURVE('',#586,#635,#337,.T.);
#786=EDGE_CURVE('',#635,#634,#338,.T.);
#787=EDGE_CURVE('',#585,#636,#339,.T.);
#788=EDGE_CURVE('',#636,#635,#340,.T.);
#789=EDGE_CURVE('',#584,#637,#341,.T.);
#790=EDGE_CURVE('',#637,#636,#342,.T.);
#791=EDGE_CURVE('',#583,#638,#343,.T.);
#792=EDGE_CURVE('',#638,#637,#344,.T.);
#793=EDGE_CURVE('',#582,#639,#345,.T.);
#794=EDGE_CURVE('',#639,#638,#346,.T.);
#795=EDGE_CURVE('',#581,#640,#347,.T.);
#796=EDGE_CURVE('',#640,#639,#348,.T.);
#797=EDGE_CURVE('',#580,#641,#349,.T.);
#798=EDGE_CURVE('',#641,#640,#350,.T.);
#799=EDGE_CURVE('',#630,#641,#351,.T.);
#800=EDGE_CURVE('',#591,#642,#352,.T.);
#801=EDGE_CURVE('',#642,#643,#353,.T.);
#802=EDGE_CURVE('',#592,#643,#354,.T.);
#803=EDGE_CURVE('',#600,#644,#355,.T.);
#804=EDGE_CURVE('',#644,#642,#356,.T.);
#805=EDGE_CURVE('',#599,#645,#357,.T.);
#806=EDGE_CURVE('',#645,#644,#358,.T.);
#807=EDGE_CURVE('',#598,#646,#359,.T.);
#808=EDGE_CURVE('',#646,#645,#360,.T.);
#809=EDGE_CURVE('',#597,#647,#361,.T.);
#810=EDGE_CURVE('',#647,#646,#362,.T.);
#811=EDGE_CURVE('',#596,#648,#363,.T.);
#812=EDGE_CURVE('',#648,#647,#364,.T.);
#813=EDGE_CURVE('',#595,#649,#365,.T.);
#814=EDGE_CURVE('',#649,#648,#366,.T.);
#815=EDGE_CURVE('',#594,#650,#367,.T.);
#816=EDGE_CURVE('',#650,#649,#368,.T.);
#817=EDGE_CURVE('',#593,#651,#369,.T.);
#818=EDGE_CURVE('',#651,#650,#370,.T.);
#819=EDGE_CURVE('',#643,#651,#371,.T.);
#820=ORIENTED_EDGE('',*,*,#652,.T.);
#821=ORIENTED_EDGE('',*,*,#653,.T.);
#822=ORIENTED_EDGE('',*,*,#654,.T.);
#823=ORIENTED_EDGE('',*,*,#655,.T.);
#824=ORIENTED_EDGE('',*,*,#655,.F.);
#825=ORIENTED_EDGE('',*,*,#656,.F.);
#826=ORIENTED_EDGE('',*,*,#657,.F.);
#827=ORIENTED_EDGE('',*,*,#658,.T.);
#828=ORIENTED_EDGE('',*,*,#654,.F.);
#829=ORIENTED_EDGE('',*,*,#659,.F.);
#830=ORIENTED_EDGE('',*,*,#660,.F.);
#831=ORIENTED_EDGE('',*,*,#661,.F.);
#832=ORIENTED_EDGE('',*,*,#662,.F.);
#833=ORIENTED_EDGE('',*,*,#663,.T.);
#834=ORIENTED_EDGE('',*,*,#664,.F.);
#835=ORIENTED_EDGE('',*,*,#656,.T.);
#836=ORIENTED_EDGE('',*,*,#665,.T.);
#837=ORIENTED_EDGE('',*,*,#666,.T.);
#838=ORIENTED_EDGE('',*,*,#660,.T.);
#839=ORIENTED_EDGE('',*,*,#667,.T.);
#840=ORIENTED_EDGE('',*,*,#668,.T.);
#841=ORIENTED_EDGE('',*,*,#669,.T.);
#842=ORIENTED_EDGE('',*,*,#669,.F.);
#843=ORIENTED_EDGE('',*,*,#670,.F.);
#844=ORIENTED_EDGE('',*,*,#671,.F.);
#845=ORIENTED_EDGE('',*,*,#661,.T.);
#846=ORIENTED_EDGE('',*,*,#662,.T.);
#847=ORIENTED_EDGE('',*,*,#671,.T.);
#848=ORIENTED_EDGE('',*,*,#672,.T.);
#849=ORIENTED_EDGE('',*,*,#673,.T.);
#850=ORIENTED_EDGE('',*,*,#674,.T.);
#851=ORIENTED_EDGE('',*,*,#657,.T.);
#852=ORIENTED_EDGE('',*,*,#664,.T.);
#853=ORIENTED_EDGE('',*,*,#675,.T.);
#854=ORIENTED_EDGE('',*,*,#652,.F.);
#855=ORIENTED_EDGE('',*,*,#658,.F.);
#856=ORIENTED_EDGE('',*,*,#674,.F.);
#857=ORIENTED_EDGE('',*,*,#676,.T.);
#858=ORIENTED_EDGE('',*,*,#672,.F.);
#859=ORIENTED_EDGE('',*,*,#670,.T.);
#860=ORIENTED_EDGE('',*,*,#668,.F.);
#861=ORIENTED_EDGE('',*,*,#677,.F.);
#862=ORIENTED_EDGE('',*,*,#678,.T.);
#863=ORIENTED_EDGE('',*,*,#679,.T.);
#864=ORIENTED_EDGE('',*,*,#680,.T.);
#865=ORIENTED_EDGE('',*,*,#681,.T.);
#866=ORIENTED_EDGE('',*,*,#682,.T.);
#867=ORIENTED_EDGE('',*,*,#683,.T.);
#868=ORIENTED_EDGE('',*,*,#684,.T.);
#869=ORIENTED_EDGE('',*,*,#685,.T.);
#870=ORIENTED_EDGE('',*,*,#686,.T.);
#871=ORIENTED_EDGE('',*,*,#687,.T.);
#872=ORIENTED_EDGE('',*,*,#688,.T.);
#873=ORIENTED_EDGE('',*,*,#689,.T.);
#874=ORIENTED_EDGE('',*,*,#690,.T.);
#875=ORIENTED_EDGE('',*,*,#691,.T.);
#876=ORIENTED_EDGE('',*,*,#692,.T.);
#877=ORIENTED_EDGE('',*,*,#693,.T.);
#878=ORIENTED_EDGE('',*,*,#694,.T.);
#879=ORIENTED_EDGE('',*,*,#695,.T.);
#880=ORIENTED_EDGE('',*,*,#696,.T.);
#881=ORIENTED_EDGE('',*,*,#697,.T.);
#882=ORIENTED_EDGE('',*,*,#698,.T.);
#883=ORIENTED_EDGE('',*,*,#699,.T.);
#884=ORIENTED_EDGE('',*,*,#700,.T.);
#885=ORIENTED_EDGE('',*,*,#701,.T.);
#886=ORIENTED_EDGE('',*,*,#702,.T.);
#887=ORIENTED_EDGE('',*,*,#703,.T.);
#888=ORIENTED_EDGE('',*,*,#704,.T.);
#889=ORIENTED_EDGE('',*,*,#705,.T.);
#890=ORIENTED_EDGE('',*,*,#706,.T.);
#891=ORIENTED_EDGE('',*,*,#707,.T.);
#892=ORIENTED_EDGE('',*,*,#708,.T.);
#893=ORIENTED_EDGE('',*,*,#709,.T.);
#894=ORIENTED_EDGE('',*,*,#710,.T.);
#895=ORIENTED_EDGE('',*,*,#711,.T.);
#896=ORIENTED_EDGE('',*,*,#712,.T.);
#897=ORIENTED_EDGE('',*,*,#713,.T.);
#898=ORIENTED_EDGE('',*,*,#714,.T.);
#899=ORIENTED_EDGE('',*,*,#715,.T.);
#900=ORIENTED_EDGE('',*,*,#716,.T.);
#901=ORIENTED_EDGE('',*,*,#717,.T.);
#902=ORIENTED_EDGE('',*,*,#718,.T.);
#903=ORIENTED_EDGE('',*,*,#719,.T.);
#904=ORIENTED_EDGE('',*,*,#720,.T.);
#905=ORIENTED_EDGE('',*,*,#721,.T.);
#906=ORIENTED_EDGE('',*,*,#722,.T.);
#907=ORIENTED_EDGE('',*,*,#666,.F.);
#908=ORIENTED_EDGE('',*,*,#723,.T.);
#909=ORIENTED_EDGE('',*,*,#722,.F.);
#910=ORIENTED_EDGE('',*,*,#723,.F.);
#911=ORIENTED_EDGE('',*,*,#665,.F.);
#912=ORIENTED_EDGE('',*,*,#724,.T.);
#913=ORIENTED_EDGE('',*,*,#721,.F.);
#914=ORIENTED_EDGE('',*,*,#724,.F.);
#915=ORIENTED_EDGE('',*,*,#678,.F.);
#916=ORIENTED_EDGE('',*,*,#725,.T.);
#917=ORIENTED_EDGE('',*,*,#726,.T.);
#918=ORIENTED_EDGE('',*,*,#727,.F.);
#919=ORIENTED_EDGE('',*,*,#689,.F.);
#920=ORIENTED_EDGE('',*,*,#728,.T.);
#921=ORIENTED_EDGE('',*,*,#729,.T.);
#922=ORIENTED_EDGE('',*,*,#725,.F.);
#923=ORIENTED_EDGE('',*,*,#688,.F.);
#924=ORIENTED_EDGE('',*,*,#730,.T.);
#925=ORIENTED_EDGE('',*,*,#731,.T.);
#926=ORIENTED_EDGE('',*,*,#728,.F.);
#927=ORIENTED_EDGE('',*,*,#687,.F.);
#928=ORIENTED_EDGE('',*,*,#732,.T.);
#929=ORIENTED_EDGE('',*,*,#733,.T.);
#930=ORIENTED_EDGE('',*,*,#730,.F.);
#931=ORIENTED_EDGE('',*,*,#686,.F.);
#932=ORIENTED_EDGE('',*,*,#734,.T.);
#933=ORIENTED_EDGE('',*,*,#735,.T.);
#934=ORIENTED_EDGE('',*,*,#732,.F.);
#935=ORIENTED_EDGE('',*,*,#685,.F.);
#936=ORIENTED_EDGE('',*,*,#736,.T.);
#937=ORIENTED_EDGE('',*,*,#737,.T.);
#938=ORIENTED_EDGE('',*,*,#734,.F.);
#939=ORIENTED_EDGE('',*,*,#684,.F.);
#940=ORIENTED_EDGE('',*,*,#738,.T.);
#941=ORIENTED_EDGE('',*,*,#739,.T.);
#942=ORIENTED_EDGE('',*,*,#736,.F.);
#943=ORIENTED_EDGE('',*,*,#683,.F.);
#944=ORIENTED_EDGE('',*,*,#740,.T.);
#945=ORIENTED_EDGE('',*,*,#741,.T.);
#946=ORIENTED_EDGE('',*,*,#738,.F.);
#947=ORIENTED_EDGE('',*,*,#682,.F.);
#948=ORIENTED_EDGE('',*,*,#742,.T.);
#949=ORIENTED_EDGE('',*,*,#743,.T.);
#950=ORIENTED_EDGE('',*,*,#740,.F.);
#951=ORIENTED_EDGE('',*,*,#681,.F.);
#952=ORIENTED_EDGE('',*,*,#744,.T.);
#953=ORIENTED_EDGE('',*,*,#745,.T.);
#954=ORIENTED_EDGE('',*,*,#742,.F.);
#955=ORIENTED_EDGE('',*,*,#680,.F.);
#956=ORIENTED_EDGE('',*,*,#746,.T.);
#957=ORIENTED_EDGE('',*,*,#747,.T.);
#958=ORIENTED_EDGE('',*,*,#744,.F.);
#959=ORIENTED_EDGE('',*,*,#679,.F.);
#960=ORIENTED_EDGE('',*,*,#727,.T.);
#961=ORIENTED_EDGE('',*,*,#748,.T.);
#962=ORIENTED_EDGE('',*,*,#746,.F.);
#963=ORIENTED_EDGE('',*,*,#748,.F.);
#964=ORIENTED_EDGE('',*,*,#726,.F.);
#965=ORIENTED_EDGE('',*,*,#729,.F.);
#966=ORIENTED_EDGE('',*,*,#731,.F.);
#967=ORIENTED_EDGE('',*,*,#733,.F.);
#968=ORIENTED_EDGE('',*,*,#735,.F.);
#969=ORIENTED_EDGE('',*,*,#737,.F.);
#970=ORIENTED_EDGE('',*,*,#739,.F.);
#971=ORIENTED_EDGE('',*,*,#741,.F.);
#972=ORIENTED_EDGE('',*,*,#743,.F.);
#973=ORIENTED_EDGE('',*,*,#745,.F.);
#974=ORIENTED_EDGE('',*,*,#747,.F.);
#975=ORIENTED_EDGE('',*,*,#749,.F.);
#976=ORIENTED_EDGE('',*,*,#750,.T.);
#977=ORIENTED_EDGE('',*,*,#751,.T.);
#978=ORIENTED_EDGE('',*,*,#752,.F.);
#979=ORIENTED_EDGE('',*,*,#753,.F.);
#980=ORIENTED_EDGE('',*,*,#752,.T.);
#981=ORIENTED_EDGE('',*,*,#754,.T.);
#982=ORIENTED_EDGE('',*,*,#755,.F.);
#983=ORIENTED_EDGE('',*,*,#756,.F.);
#984=ORIENTED_EDGE('',*,*,#755,.T.);
#985=ORIENTED_EDGE('',*,*,#757,.T.);
#986=ORIENTED_EDGE('',*,*,#750,.F.);
#987=ORIENTED_EDGE('',*,*,#690,.F.);
#988=ORIENTED_EDGE('',*,*,#758,.T.);
#989=ORIENTED_EDGE('',*,*,#759,.T.);
#990=ORIENTED_EDGE('',*,*,#760,.F.);
#991=ORIENTED_EDGE('',*,*,#697,.F.);
#992=ORIENTED_EDGE('',*,*,#761,.T.);
#993=ORIENTED_EDGE('',*,*,#762,.T.);
#994=ORIENTED_EDGE('',*,*,#758,.F.);
#995=ORIENTED_EDGE('',*,*,#696,.F.);
#996=ORIENTED_EDGE('',*,*,#763,.T.);
#997=ORIENTED_EDGE('',*,*,#764,.T.);
#998=ORIENTED_EDGE('',*,*,#761,.F.);
#999=ORIENTED_EDGE('',*,*,#695,.F.);
#1000=ORIENTED_EDGE('',*,*,#765,.T.);
#1001=ORIENTED_EDGE('',*,*,#766,.T.);
#1002=ORIENTED_EDGE('',*,*,#763,.F.);
#1003=ORIENTED_EDGE('',*,*,#694,.F.);
#1004=ORIENTED_EDGE('',*,*,#767,.T.);
#1005=ORIENTED_EDGE('',*,*,#768,.T.);
#1006=ORIENTED_EDGE('',*,*,#765,.F.);
#1007=ORIENTED_EDGE('',*,*,#693,.F.);
#1008=ORIENTED_EDGE('',*,*,#769,.T.);
#1009=ORIENTED_EDGE('',*,*,#770,.T.);
#1010=ORIENTED_EDGE('',*,*,#767,.F.);
#1011=ORIENTED_EDGE('',*,*,#692,.F.);
#1012=ORIENTED_EDGE('',*,*,#771,.T.);
#1013=ORIENTED_EDGE('',*,*,#772,.T.);
#1014=ORIENTED_EDGE('',*,*,#769,.F.);
#1015=ORIENTED_EDGE('',*,*,#691,.F.);
#1016=ORIENTED_EDGE('',*,*,#760,.T.);
#1017=ORIENTED_EDGE('',*,*,#773,.T.);
#1018=ORIENTED_EDGE('',*,*,#771,.F.);
#1019=ORIENTED_EDGE('',*,*,#773,.F.);
#1020=ORIENTED_EDGE('',*,*,#759,.F.);
#1021=ORIENTED_EDGE('',*,*,#762,.F.);
#1022=ORIENTED_EDGE('',*,*,#764,.F.);
#1023=ORIENTED_EDGE('',*,*,#766,.F.);
#1024=ORIENTED_EDGE('',*,*,#768,.F.);
#1025=ORIENTED_EDGE('',*,*,#770,.F.);
#1026=ORIENTED_EDGE('',*,*,#772,.F.);
#1027=ORIENTED_EDGE('',*,*,#751,.F.);
#1028=ORIENTED_EDGE('',*,*,#757,.F.);
#1029=ORIENTED_EDGE('',*,*,#754,.F.);
#1030=ORIENTED_EDGE('',*,*,#698,.F.);
#1031=ORIENTED_EDGE('',*,*,#774,.T.);
#1032=ORIENTED_EDGE('',*,*,#775,.T.);
#1033=ORIENTED_EDGE('',*,*,#776,.F.);
#1034=ORIENTED_EDGE('',*,*,#710,.F.);
#1035=ORIENTED_EDGE('',*,*,#777,.T.);
#1036=ORIENTED_EDGE('',*,*,#778,.T.);
#1037=ORIENTED_EDGE('',*,*,#774,.F.);
#1038=ORIENTED_EDGE('',*,*,#709,.F.);
#1039=ORIENTED_EDGE('',*,*,#779,.T.);
#1040=ORIENTED_EDGE('',*,*,#780,.T.);
#1041=ORIENTED_EDGE('',*,*,#777,.F.);
#1042=ORIENTED_EDGE('',*,*,#708,.F.);
#1043=ORIENTED_EDGE('',*,*,#781,.T.);
#1044=ORIENTED_EDGE('',*,*,#782,.T.);
#1045=ORIENTED_EDGE('',*,*,#779,.F.);
#1046=ORIENTED_EDGE('',*,*,#707,.F.);
#1047=ORIENTED_EDGE('',*,*,#783,.T.);
#1048=ORIENTED_EDGE('',*,*,#784,.T.);
#1049=ORIENTED_EDGE('',*,*,#781,.F.);
#1050=ORIENTED_EDGE('',*,*,#706,.F.);
#1051=ORIENTED_EDGE('',*,*,#785,.T.);
#1052=ORIENTED_EDGE('',*,*,#786,.T.);
#1053=ORIENTED_EDGE('',*,*,#783,.F.);
#1054=ORIENTED_EDGE('',*,*,#705,.F.);
#1055=ORIENTED_EDGE('',*,*,#787,.T.);
#1056=ORIENTED_EDGE('',*,*,#788,.T.);
#1057=ORIENTED_EDGE('',*,*,#785,.F.);
#1058=ORIENTED_EDGE('',*,*,#704,.F.);
#1059=ORIENTED_EDGE('',*,*,#789,.T.);
#1060=ORIENTED_EDGE('',*,*,#790,.T.);
#1061=ORIENTED_EDGE('',*,*,#787,.F.);
#1062=ORIENTED_EDGE('',*,*,#703,.F.);
#1063=ORIENTED_EDGE('',*,*,#791,.T.);
#1064=ORIENTED_EDGE('',*,*,#792,.T.);
#1065=ORIENTED_EDGE('',*,*,#789,.F.);
#1066=ORIENTED_EDGE('',*,*,#702,.F.);
#1067=ORIENTED_EDGE('',*,*,#793,.T.);
#1068=ORIENTED_EDGE('',*,*,#794,.T.);
#1069=ORIENTED_EDGE('',*,*,#791,.F.);
#1070=ORIENTED_EDGE('',*,*,#701,.F.);
#1071=ORIENTED_EDGE('',*,*,#795,.T.);
#1072=ORIENTED_EDGE('',*,*,#796,.T.);
#1073=ORIENTED_EDGE('',*,*,#793,.F.);
#1074=ORIENTED_EDGE('',*,*,#700,.F.);
#1075=ORIENTED_EDGE('',*,*,#797,.T.);
#1076=ORIENTED_EDGE('',*,*,#798,.T.);
#1077=ORIENTED_EDGE('',*,*,#795,.F.);
#1078=ORIENTED_EDGE('',*,*,#699,.F.);
#1079=ORIENTED_EDGE('',*,*,#776,.T.);
#1080=ORIENTED_EDGE('',*,*,#799,.T.);
#1081=ORIENTED_EDGE('',*,*,#797,.F.);
#1082=ORIENTED_EDGE('',*,*,#799,.F.);
#1083=ORIENTED_EDGE('',*,*,#775,.F.);
#1084=ORIENTED_EDGE('',*,*,#778,.F.);
#1085=ORIENTED_EDGE('',*,*,#780,.F.);
#1086=ORIENTED_EDGE('',*,*,#782,.F.);
#1087=ORIENTED_EDGE('',*,*,#784,.F.);
#1088=ORIENTED_EDGE('',*,*,#786,.F.);
#1089=ORIENTED_EDGE('',*,*,#788,.F.);
#1090=ORIENTED_EDGE('',*,*,#790,.F.);
#1091=ORIENTED_EDGE('',*,*,#792,.F.);
#1092=ORIENTED_EDGE('',*,*,#794,.F.);
#1093=ORIENTED_EDGE('',*,*,#796,.F.);
#1094=ORIENTED_EDGE('',*,*,#798,.F.);
#1095=ORIENTED_EDGE('',*,*,#711,.F.);
#1096=ORIENTED_EDGE('',*,*,#800,.T.);
#1097=ORIENTED_EDGE('',*,*,#801,.T.);
#1098=ORIENTED_EDGE('',*,*,#802,.F.);
#1099=ORIENTED_EDGE('',*,*,#720,.F.);
#1100=ORIENTED_EDGE('',*,*,#803,.T.);
#1101=ORIENTED_EDGE('',*,*,#804,.T.);
#1102=ORIENTED_EDGE('',*,*,#800,.F.);
#1103=ORIENTED_EDGE('',*,*,#719,.F.);
#1104=ORIENTED_EDGE('',*,*,#805,.T.);
#1105=ORIENTED_EDGE('',*,*,#806,.T.);
#1106=ORIENTED_EDGE('',*,*,#803,.F.);
#1107=ORIENTED_EDGE('',*,*,#718,.F.);
#1108=ORIENTED_EDGE('',*,*,#807,.T.);
#1109=ORIENTED_EDGE('',*,*,#808,.T.);
#1110=ORIENTED_EDGE('',*,*,#805,.F.);
#1111=ORIENTED_EDGE('',*,*,#717,.F.);
#1112=ORIENTED_EDGE('',*,*,#809,.T.);
#1113=ORIENTED_EDGE('',*,*,#810,.T.);
#1114=ORIENTED_EDGE('',*,*,#807,.F.);
#1115=ORIENTED_EDGE('',*,*,#716,.F.);
#1116=ORIENTED_EDGE('',*,*,#811,.T.);
#1117=ORIENTED_EDGE('',*,*,#812,.T.);
#1118=ORIENTED_EDGE('',*,*,#809,.F.);
#1119=ORIENTED_EDGE('',*,*,#715,.F.);
#1120=ORIENTED_EDGE('',*,*,#813,.T.);
#1121=ORIENTED_EDGE('',*,*,#814,.T.);
#1122=ORIENTED_EDGE('',*,*,#811,.F.);
#1123=ORIENTED_EDGE('',*,*,#714,.F.);
#1124=ORIENTED_EDGE('',*,*,#815,.T.);
#1125=ORIENTED_EDGE('',*,*,#816,.T.);
#1126=ORIENTED_EDGE('',*,*,#813,.F.);
#1127=ORIENTED_EDGE('',*,*,#713,.F.);
#1128=ORIENTED_EDGE('',*,*,#817,.T.);
#1129=ORIENTED_EDGE('',*,*,#818,.T.);
#1130=ORIENTED_EDGE('',*,*,#815,.F.);
#1131=ORIENTED_EDGE('',*,*,#712,.F.);
#1132=ORIENTED_EDGE('',*,*,#802,.T.);
#1133=ORIENTED_EDGE('',*,*,#819,.T.);
#1134=ORIENTED_EDGE('',*,*,#817,.F.);
#1135=ORIENTED_EDGE('',*,*,#819,.F.);
#1136=ORIENTED_EDGE('',*,*,#801,.F.);
#1137=ORIENTED_EDGE('',*,*,#804,.F.);
#1138=ORIENTED_EDGE('',*,*,#806,.F.);
#1139=ORIENTED_EDGE('',*,*,#808,.F.);
#1140=ORIENTED_EDGE('',*,*,#810,.F.);
#1141=ORIENTED_EDGE('',*,*,#812,.F.);
#1142=ORIENTED_EDGE('',*,*,#814,.F.);
#1143=ORIENTED_EDGE('',*,*,#816,.F.);
#1144=ORIENTED_EDGE('',*,*,#818,.F.);
#1145=ORIENTED_EDGE('',*,*,#749,.T.);
#1146=ORIENTED_EDGE('',*,*,#753,.T.);
#1147=ORIENTED_EDGE('',*,*,#756,.T.);
#1148=ORIENTED_EDGE('',*,*,#653,.F.);
#1149=ORIENTED_EDGE('',*,*,#677,.T.);
#1150=ORIENTED_EDGE('',*,*,#667,.F.);
#1151=ORIENTED_EDGE('',*,*,#659,.T.);
#1152=ORIENTED_EDGE('',*,*,#673,.F.);
#1153=ORIENTED_EDGE('',*,*,#676,.F.);
#1154=ORIENTED_EDGE('',*,*,#675,.F.);
#1155=ORIENTED_EDGE('',*,*,#663,.F.);
#1156=CYLINDRICAL_SURFACE('',#1248,1.);
#1157=CYLINDRICAL_SURFACE('',#1258,1.);
#1158=CYLINDRICAL_SURFACE('',#1261,1.);
#1159=CYLINDRICAL_SURFACE('',#1263,1.);
#1160=CYLINDRICAL_SURFACE('',#1268,1.25);
#1161=CYLINDRICAL_SURFACE('',#1269,1.25);
#1162=ADVANCED_FACE('',(#81),#1156,.T.);
#1163=ADVANCED_FACE('',(#82),#24,.T.);
#1164=ADVANCED_FACE('',(#83,#15,#16),#25,.T.);
#1165=ADVANCED_FACE('',(#84),#1157,.T.);
#1166=ADVANCED_FACE('',(#85),#26,.T.);
#1167=ADVANCED_FACE('',(#86),#1158,.T.);
#1168=ADVANCED_FACE('',(#87),#1159,.T.);
#1169=ADVANCED_FACE('',(#88,#17,#18,#19,#20,#21,#22),#27,.T.);
#1170=ADVANCED_FACE('',(#89),#1160,.F.);
#1171=ADVANCED_FACE('',(#90),#1161,.F.);
#1172=ADVANCED_FACE('',(#91),#28,.F.);
#1173=ADVANCED_FACE('',(#92),#29,.F.);
#1174=ADVANCED_FACE('',(#93),#30,.F.);
#1175=ADVANCED_FACE('',(#94),#31,.F.);
#1176=ADVANCED_FACE('',(#95),#32,.F.);
#1177=ADVANCED_FACE('',(#96),#33,.F.);
#1178=ADVANCED_FACE('',(#97),#34,.F.);
#1179=ADVANCED_FACE('',(#98),#35,.F.);
#1180=ADVANCED_FACE('',(#99),#36,.F.);
#1181=ADVANCED_FACE('',(#100),#37,.F.);
#1182=ADVANCED_FACE('',(#101),#38,.F.);
#1183=ADVANCED_FACE('',(#102),#39,.F.);
#1184=ADVANCED_FACE('',(#103),#40,.F.);
#1185=ADVANCED_FACE('',(#104),#41,.T.);
#1186=ADVANCED_FACE('',(#105),#42,.T.);
#1187=ADVANCED_FACE('',(#106),#43,.T.);
#1188=ADVANCED_FACE('',(#107),#44,.F.);
#1189=ADVANCED_FACE('',(#108),#45,.F.);
#1190=ADVANCED_FACE('',(#109),#46,.F.);
#1191=ADVANCED_FACE('',(#110),#47,.F.);
#1192=ADVANCED_FACE('',(#111),#48,.F.);
#1193=ADVANCED_FACE('',(#112),#49,.F.);
#1194=ADVANCED_FACE('',(#113),#50,.F.);
#1195=ADVANCED_FACE('',(#114),#51,.F.);
#1196=ADVANCED_FACE('',(#115,#23),#52,.F.);
#1197=ADVANCED_FACE('',(#116),#53,.F.);
#1198=ADVANCED_FACE('',(#117),#54,.F.);
#1199=ADVANCED_FACE('',(#118),#55,.F.);
#1200=ADVANCED_FACE('',(#119),#56,.F.);
#1201=ADVANCED_FACE('',(#120),#57,.F.);
#1202=ADVANCED_FACE('',(#121),#58,.F.);
#1203=ADVANCED_FACE('',(#122),#59,.F.);
#1204=ADVANCED_FACE('',(#123),#60,.F.);
#1205=ADVANCED_FACE('',(#124),#61,.F.);
#1206=ADVANCED_FACE('',(#125),#62,.F.);
#1207=ADVANCED_FACE('',(#126),#63,.F.);
#1208=ADVANCED_FACE('',(#127),#64,.F.);
#1209=ADVANCED_FACE('',(#128),#65,.F.);
#1210=ADVANCED_FACE('',(#129),#66,.F.);
#1211=ADVANCED_FACE('',(#130),#67,.F.);
#1212=ADVANCED_FACE('',(#131),#68,.F.);
#1213=ADVANCED_FACE('',(#132),#69,.F.);
#1214=ADVANCED_FACE('',(#133),#70,.F.);
#1215=ADVANCED_FACE('',(#134),#71,.F.);
#1216=ADVANCED_FACE('',(#135),#72,.F.);
#1217=ADVANCED_FACE('',(#136),#73,.F.);
#1218=ADVANCED_FACE('',(#137),#74,.F.);
#1219=ADVANCED_FACE('',(#138),#75,.F.);
#1220=ADVANCED_FACE('',(#139),#76,.F.);
#1221=ADVANCED_FACE('',(#140),#77,.F.);
#1222=ADVANCED_FACE('',(#141),#78,.T.);
#1223=ADVANCED_FACE('',(#142),#79,.T.);
#1224=ADVANCED_FACE('',(#143),#80,.F.);
#1225=CLOSED_SHELL('',(#1162,#1163,#1164,#1165,#1166,#1167,#1168,#1169,
#1170,#1171,#1172,#1173,#1174,#1175,#1176,#1177,#1178,#1179,#1180,#1181,
#1182,#1183,#1184,#1185,#1186,#1187,#1188,#1189,#1190,#1191,#1192,#1193,
#1194,#1195,#1196,#1197,#1198,#1199,#1200,#1201,#1202,#1203,#1204,#1205,
#1206,#1207,#1208,#1209,#1210,#1211,#1212,#1213,#1214,#1215,#1216,#1217,
#1218,#1219,#1220,#1221,#1222,#1223,#1224));
#1226=DERIVED_UNIT_ELEMENT(#1229,1.);
#1227=DERIVED_UNIT_ELEMENT(#1980,-3.);
#1228=DIMENSIONAL_EXPONENTS(0.,1.,0.,0.,0.,0.,0.);
#1229=(
CONVERSION_BASED_UNIT('gram',#1231)
MASS_UNIT()
NAMED_UNIT(#1228)
);
#1230=(
MASS_UNIT()
NAMED_UNIT(*)
SI_UNIT(.KILO.,.GRAM.)
);
#1231=MASS_MEASURE_WITH_UNIT(MASS_MEASURE(0.001),#1230);
#1232=DERIVED_UNIT((#1226,#1227));
#1233=MEASURE_REPRESENTATION_ITEM('density measure',
POSITIVE_RATIO_MEASURE(1.),#1232);
#1234=PROPERTY_DEFINITION_REPRESENTATION(#1239,#1236);
#1235=PROPERTY_DEFINITION_REPRESENTATION(#1240,#1237);
#1236=REPRESENTATION('material name',(#1238),#1977);
#1237=REPRESENTATION('density',(#1233),#1977);
#1238=DESCRIPTIVE_REPRESENTATION_ITEM('Generic','Generic');
#1239=PROPERTY_DEFINITION('material property','material name',#1987);
#1240=PROPERTY_DEFINITION('material property','density of part',#1987);
#1241=DATE_TIME_ROLE('creation_date');
#1242=APPLIED_DATE_AND_TIME_ASSIGNMENT(#1243,#1241,(#1987));
#1243=DATE_AND_TIME(#1244,#1245);
#1244=CALENDAR_DATE(2026,5,4);
#1245=LOCAL_TIME(0,0,0.,#1246);
#1246=COORDINATED_UNIVERSAL_TIME_OFFSET(0,0,.BEHIND.);
#1247=AXIS2_PLACEMENT_3D('',#1631,#1323,#1324);
#1248=AXIS2_PLACEMENT_3D('',#1632,#1325,#1326);
#1249=AXIS2_PLACEMENT_3D('',#1635,#1327,#1328);
#1250=AXIS2_PLACEMENT_3D('',#1639,#1330,#1331);
#1251=AXIS2_PLACEMENT_3D('',#1641,#1333,#1334);
#1252=AXIS2_PLACEMENT_3D('',#1647,#1338,#1339);
#1253=AXIS2_PLACEMENT_3D('',#1651,#1341,#1342);
#1254=AXIS2_PLACEMENT_3D('',#1655,#1344,#1345);
#1255=AXIS2_PLACEMENT_3D('',#1658,#1347,#1348);
#1256=AXIS2_PLACEMENT_3D('',#1660,#1349,#1350);
#1257=AXIS2_PLACEMENT_3D('',#1662,#1351,#1352);
#1258=AXIS2_PLACEMENT_3D('',#1663,#1353,#1354);
#1259=AXIS2_PLACEMENT_3D('',#1667,#1356,#1357);
#1260=AXIS2_PLACEMENT_3D('',#1669,#1359,#1360);
#1261=AXIS2_PLACEMENT_3D('',#1673,#1363,#1364);
#1262=AXIS2_PLACEMENT_3D('',#1675,#1365,#1366);
#1263=AXIS2_PLACEMENT_3D('',#1677,#1368,#1369);
#1264=AXIS2_PLACEMENT_3D('',#1679,#1370,#1371);
#1265=AXIS2_PLACEMENT_3D('',#1681,#1373,#1374);
#1266=AXIS2_PLACEMENT_3D('',#1771,#1420,#1421);
#1267=AXIS2_PLACEMENT_3D('',#1773,#1422,#1423);
#1268=AXIS2_PLACEMENT_3D('',#1774,#1424,#1425);
#1269=AXIS2_PLACEMENT_3D('',#1776,#1427,#1428);
#1270=AXIS2_PLACEMENT_3D('',#1778,#1430,#1431);
#1271=AXIS2_PLACEMENT_3D('',#1784,#1435,#1436);
#1272=AXIS2_PLACEMENT_3D('',#1788,#1439,#1440);
#1273=AXIS2_PLACEMENT_3D('',#1792,#1443,#1444);
#1274=AXIS2_PLACEMENT_3D('',#1796,#1447,#1448);
#1275=AXIS2_PLACEMENT_3D('',#1800,#1451,#1452);
#1276=AXIS2_PLACEMENT_3D('',#1804,#1455,#1456);
#1277=AXIS2_PLACEMENT_3D('',#1808,#1459,#1460);
#1278=AXIS2_PLACEMENT_3D('',#1812,#1463,#1464);
#1279=AXIS2_PLACEMENT_3D('',#1816,#1467,#1468);
#1280=AXIS2_PLACEMENT_3D('',#1820,#1471,#1472);
#1281=AXIS2_PLACEMENT_3D('',#1824,#1475,#1476);
#1282=AXIS2_PLACEMENT_3D('',#1826,#1478,#1479);
#1283=AXIS2_PLACEMENT_3D('',#1827,#1480,#1481);
#1284=AXIS2_PLACEMENT_3D('',#1836,#1486,#1487);
#1285=AXIS2_PLACEMENT_3D('',#1842,#1491,#1492);
#1286=AXIS2_PLACEMENT_3D('',#1845,#1495,#1496);
#1287=AXIS2_PLACEMENT_3D('',#1851,#1500,#1501);
#1288=AXIS2_PLACEMENT_3D('',#1855,#1504,#1505);
#1289=AXIS2_PLACEMENT_3D('',#1859,#1508,#1509);
#1290=AXIS2_PLACEMENT_3D('',#1863,#1512,#1513);
#1291=AXIS2_PLACEMENT_3D('',#1867,#1516,#1517);
#1292=AXIS2_PLACEMENT_3D('',#1871,#1520,#1521);
#1293=AXIS2_PLACEMENT_3D('',#1875,#1524,#1525);
#1294=AXIS2_PLACEMENT_3D('',#1877,#1527,#1528);
#1295=AXIS2_PLACEMENT_3D('',#1878,#1529,#1530);
#1296=AXIS2_PLACEMENT_3D('',#1884,#1534,#1535);
#1297=AXIS2_PLACEMENT_3D('',#1888,#1538,#1539);
#1298=AXIS2_PLACEMENT_3D('',#1892,#1542,#1543);
#1299=AXIS2_PLACEMENT_3D('',#1896,#1546,#1547);
#1300=AXIS2_PLACEMENT_3D('',#1900,#1550,#1551);
#1301=AXIS2_PLACEMENT_3D('',#1904,#1554,#1555);
#1302=AXIS2_PLACEMENT_3D('',#1908,#1558,#1559);
#1303=AXIS2_PLACEMENT_3D('',#1912,#1562,#1563);
#1304=AXIS2_PLACEMENT_3D('',#1916,#1566,#1567);
#1305=AXIS2_PLACEMENT_3D('',#1920,#1570,#1571);
#1306=AXIS2_PLACEMENT_3D('',#1924,#1574,#1575);
#1307=AXIS2_PLACEMENT_3D('',#1928,#1578,#1579);
#1308=AXIS2_PLACEMENT_3D('',#1930,#1581,#1582);
#1309=AXIS2_PLACEMENT_3D('',#1931,#1583,#1584);
#1310=AXIS2_PLACEMENT_3D('',#1937,#1588,#1589);
#1311=AXIS2_PLACEMENT_3D('',#1941,#1592,#1593);
#1312=AXIS2_PLACEMENT_3D('',#1945,#1596,#1597);
#1313=AXIS2_PLACEMENT_3D('',#1949,#1600,#1601);
#1314=AXIS2_PLACEMENT_3D('',#1953,#1604,#1605);
#1315=AXIS2_PLACEMENT_3D('',#1957,#1608,#1609);
#1316=AXIS2_PLACEMENT_3D('',#1961,#1612,#1613);
#1317=AXIS2_PLACEMENT_3D('',#1965,#1616,#1617);
#1318=AXIS2_PLACEMENT_3D('',#1969,#1620,#1621);
#1319=AXIS2_PLACEMENT_3D('',#1971,#1623,#1624);
#1320=AXIS2_PLACEMENT_3D('',#1972,#1625,#1626);
#1321=AXIS2_PLACEMENT_3D('',#1973,#1627,#1628);
#1322=AXIS2_PLACEMENT_3D('',#1974,#1629,#1630);
#1323=DIRECTION('axis',(0.,0.,1.));
#1324=DIRECTION('refdir',(1.,0.,0.));
#1325=DIRECTION('center_axis',(-1.04129639489174E-28,1.,1.06241437763173E-16));
#1326=DIRECTION('ref_axis',(0.707106781186549,0.,0.707106781186546));
#1327=DIRECTION('center_axis',(2.55223683821543E-16,-1.,-1.06241437763173E-16));
#1328=DIRECTION('ref_axis',(0.707106781186549,0.,0.707106781186546));
#1329=DIRECTION('',(1.04129639489174E-28,-1.,-1.06241437763173E-16));
#1330=DIRECTION('center_axis',(-8.50745612739172E-17,1.,1.06241437763173E-16));
#1331=DIRECTION('ref_axis',(0.707106781186549,0.,0.707106781186546));
#1332=DIRECTION('',(-1.04129639489174E-28,1.,1.06241437763173E-16));
#1333=DIRECTION('center_axis',(1.,1.04129639489174E-28,1.10628826130907E-44));
#1334=DIRECTION('ref_axis',(-1.04129639489174E-28,1.,1.11022302462516E-16));
#1335=DIRECTION('',(0.,-1.06241437763173E-16,1.));
#1336=DIRECTION('',(1.04129639489174E-28,-1.,-1.11022302462516E-16));
#1337=DIRECTION('',(0.,-1.06241437763173E-16,1.));
#1338=DIRECTION('center_axis',(8.50745612739172E-17,-1.,-1.06241437763173E-16));
#1339=DIRECTION('ref_axis',(1.,8.50745612739172E-17,-5.08465174257263E-32));
#1340=DIRECTION('',(1.,8.50745612739172E-17,-5.08465174257263E-32));
#1341=DIRECTION('center_axis',(-8.50745612739172E-17,1.,1.06241437763173E-16));
#1342=DIRECTION('ref_axis',(-0.707106781186549,0.,0.707106781186546));
#1343=DIRECTION('',(0.,-1.06241437763173E-16,1.));
#1344=DIRECTION('center_axis',(-8.50745612739172E-17,1.,1.06241437763173E-16));
#1345=DIRECTION('ref_axis',(-0.707106781186548,0.,-0.707106781186547));
#1346=DIRECTION('',(1.,8.50745612739172E-17,-5.08465174257263E-32));
#1347=DIRECTION('center_axis',(-8.50745612739172E-17,1.,1.06241437763173E-16));
#1348=DIRECTION('ref_axis',(0.707106781186548,0.,-0.707106781186547));
#1349=DIRECTION('center_axis',(-8.50745612739172E-17,1.,1.06241437763173E-16));
#1350=DIRECTION('ref_axis',(1.,8.50745612739172E-17,1.10628826130907E-44));
#1351=DIRECTION('center_axis',(-8.50745612739172E-17,1.,1.06241437763173E-16));
#1352=DIRECTION('ref_axis',(1.,8.50745612739172E-17,1.10628826130907E-44));
#1353=DIRECTION('center_axis',(1.04129639489174E-28,-1.,-1.06241437763173E-16));
#1354=DIRECTION('ref_axis',(-0.707106781186549,0.,0.707106781186546));
#1355=DIRECTION('',(-1.04129639489174E-28,1.,1.06241437763173E-16));
#1356=DIRECTION('center_axis',(2.55223683821543E-16,-1.,-1.06241437763173E-16));
#1357=DIRECTION('ref_axis',(-0.707106781186549,0.,0.707106781186546));
#1358=DIRECTION('',(1.04129639489174E-28,-1.,-1.06241437763173E-16));
#1359=DIRECTION('center_axis',(-1.,-1.04129639489174E-28,-1.10628826130907E-44));
#1360=DIRECTION('ref_axis',(1.04129639489174E-28,-1.,-1.11022302462516E-16));
#1361=DIRECTION('',(0.,-1.06241437763173E-16,1.));
#1362=DIRECTION('',(-1.04129639489174E-28,1.,1.11022302462516E-16));
#1363=DIRECTION('center_axis',(1.04129639489174E-28,-1.,-1.11022302462516E-16));
#1364=DIRECTION('ref_axis',(-0.707106781186548,0.,-0.707106781186547));
#1365=DIRECTION('center_axis',(2.55223683821543E-16,-1.,-1.06241437763173E-16));
#1366=DIRECTION('ref_axis',(-0.707106781186548,0.,-0.707106781186547));
#1367=DIRECTION('',(1.04129639489174E-28,-1.,-1.11022302462516E-16));
#1368=DIRECTION('center_axis',(-1.04129639489174E-28,1.,1.11022302462516E-16));
#1369=DIRECTION('ref_axis',(0.707106781186548,0.,-0.707106781186547));
#1370=DIRECTION('center_axis',(2.55223683821543E-16,-1.,-1.06241437763173E-16));
#1371=DIRECTION('ref_axis',(0.707106781186548,0.,-0.707106781186547));
#1372=DIRECTION('',(-1.04129639489174E-28,1.,1.11022302462516E-16));
#1373=DIRECTION('center_axis',(-2.55223683821543E-16,1.,1.06241437763173E-16));
#1374=DIRECTION('ref_axis',(-1.,-2.55223683821543E-16,3.19561700785121E-32));
#1375=DIRECTION('',(-1.,-2.55223683821543E-16,3.19561700785121E-32));
#1376=DIRECTION('',(-1.,-2.55223683821543E-16,3.19561700785121E-32));
#1377=DIRECTION('',(0.,-1.06241437763173E-16,1.));
#1378=DIRECTION('',(-1.,-2.55223683821543E-16,0.));
#1379=DIRECTION('',(0.,1.06241437763173E-16,-1.));
#1380=DIRECTION('',(1.,2.55223683821543E-16,0.));
#1381=DIRECTION('',(0.,1.06241437763173E-16,-1.));
#1382=DIRECTION('',(-1.,-2.55223683821543E-16,0.));
#1383=DIRECTION('',(0.,1.06241437763173E-16,-1.));
#1384=DIRECTION('',(1.,2.55223683821543E-16,0.));
#1385=DIRECTION('',(0.,-1.06241437763173E-16,1.));
#1386=DIRECTION('',(-1.,-2.55223683821543E-16,0.));
#1387=DIRECTION('',(0.,-1.06241437763173E-16,1.));
#1388=DIRECTION('',(1.,2.55223683821543E-16,0.));
#1389=DIRECTION('',(-1.,-2.55223683821543E-16,0.));
#1390=DIRECTION('',(0.319451166674568,1.82206181043918E-16,-0.947602739606771));
#1391=DIRECTION('',(1.,2.55223683821543E-16,0.));
#1392=DIRECTION('',(0.319451166674567,-1.9143173924372E-17,0.947602739606771));
#1393=DIRECTION('',(-1.,-2.55223683821543E-16,0.));
#1394=DIRECTION('',(-0.30877436393838,2.22434530033306E-17,-0.951135317488762));
#1395=DIRECTION('',(-1.,-2.55223683821543E-16,0.));
#1396=DIRECTION('',(-0.30877436393838,-1.79856514271345E-16,0.951135317488762));
#1397=DIRECTION('',(0.,-1.06241437763173E-16,1.));
#1398=DIRECTION('',(-1.,-2.55223683821543E-16,0.));
#1399=DIRECTION('',(0.,1.06241437763173E-16,-1.));
#1400=DIRECTION('',(-0.406841728378542,-2.008870560444E-16,0.913498663408962));
#1401=DIRECTION('',(-1.,-2.55223683821543E-16,0.));
#1402=DIRECTION('',(-0.403671360964849,-5.82576943607715E-18,-0.914904056356068));
#1403=DIRECTION('',(0.,-1.06241437763173E-16,1.));
#1404=DIRECTION('',(-1.,-2.55223683821543E-16,0.));
#1405=DIRECTION('',(0.,1.06241437763173E-16,-1.));
#1406=DIRECTION('',(1.,2.55223683821543E-16,0.));
#1407=DIRECTION('',(0.409094040958195,7.46600194191904E-18,0.912492227721691));
#1408=DIRECTION('',(0.397944692264712,1.99031804841073E-16,-0.917409408006231));
#1409=DIRECTION('',(1.,2.55223683821543E-16,0.));
#1410=DIRECTION('',(0.,-1.06241437763173E-16,1.));
#1411=DIRECTION('',(-1.,-2.55223683821543E-16,0.));
#1412=DIRECTION('',(-0.456554296231786,-2.20009347720336E-17,-0.889695551631174));
#1413=DIRECTION('',(0.,-1.06241437763173E-16,1.));
#1414=DIRECTION('',(-1.,-2.55223683821543E-16,0.));
#1415=DIRECTION('',(0.,1.06241437763173E-16,-1.));
#1416=DIRECTION('',(1.,2.55223683821543E-16,0.));
#1417=DIRECTION('',(0.45340638691382,2.10266401498722E-17,0.891303903450308));
#1418=DIRECTION('',(0.,1.06241437763173E-16,-1.));
#1419=DIRECTION('',(1.,2.55223683821543E-16,0.));
#1420=DIRECTION('center_axis',(2.55223683821543E-16,-1.,-1.06241437763173E-16));
#1421=DIRECTION('ref_axis',(1.,8.50745612739172E-17,1.10628826130907E-44));
#1422=DIRECTION('center_axis',(2.55223683821543E-16,-1.,-1.06241437763173E-16));
#1423=DIRECTION('ref_axis',(1.,8.50745612739172E-17,1.10628826130907E-44));
#1424=DIRECTION('center_axis',(8.50745612739172E-17,-1.,-1.06241437763173E-16));
#1425=DIRECTION('ref_axis',(1.,8.50745612739172E-17,1.10628826130907E-44));
#1426=DIRECTION('',(-8.50745612739172E-17,1.,1.06241437763173E-16));
#1427=DIRECTION('center_axis',(8.50745612739172E-17,-1.,-1.06241437763173E-16));
#1428=DIRECTION('ref_axis',(1.,8.50745612739172E-17,1.10628826130907E-44));
#1429=DIRECTION('',(-8.50745612739172E-17,1.,1.06241437763173E-16));
#1430=DIRECTION('center_axis',(1.,0.,0.));
#1431=DIRECTION('ref_axis',(0.,0.,1.));
#1432=DIRECTION('',(0.,-1.,0.));
#1433=DIRECTION('',(0.,0.,1.));
#1434=DIRECTION('',(0.,-1.,0.));
#1435=DIRECTION('center_axis',(0.,0.,-1.));
#1436=DIRECTION('ref_axis',(1.,0.,0.));
#1437=DIRECTION('',(0.,-1.,0.));
#1438=DIRECTION('',(1.,0.,0.));
#1439=DIRECTION('center_axis',(1.,0.,0.));
#1440=DIRECTION('ref_axis',(0.,0.,1.));
#1441=DIRECTION('',(0.,-1.,0.));
#1442=DIRECTION('',(0.,0.,1.));
#1443=DIRECTION('center_axis',(0.,0.,1.));
#1444=DIRECTION('ref_axis',(-1.,0.,0.));
#1445=DIRECTION('',(0.,-1.,0.));
#1446=DIRECTION('',(-1.,0.,0.));
#1447=DIRECTION('center_axis',(1.,0.,0.));
#1448=DIRECTION('ref_axis',(0.,0.,1.));
#1449=DIRECTION('',(0.,-1.,0.));
#1450=DIRECTION('',(0.,0.,1.));
#1451=DIRECTION('center_axis',(0.,0.,-1.));
#1452=DIRECTION('ref_axis',(1.,0.,0.));
#1453=DIRECTION('',(0.,-1.,0.));
#1454=DIRECTION('',(1.,0.,0.));
#1455=DIRECTION('center_axis',(-1.,0.,0.));
#1456=DIRECTION('ref_axis',(0.,0.,-1.));
#1457=DIRECTION('',(0.,-1.,0.));
#1458=DIRECTION('',(0.,0.,-1.));
#1459=DIRECTION('center_axis',(0.,0.,1.));
#1460=DIRECTION('ref_axis',(-1.,0.,0.));
#1461=DIRECTION('',(0.,-1.,0.));
#1462=DIRECTION('',(-1.,0.,0.));
#1463=DIRECTION('center_axis',(-1.,0.,0.));
#1464=DIRECTION('ref_axis',(0.,0.,-1.));
#1465=DIRECTION('',(0.,-1.,0.));
#1466=DIRECTION('',(0.,0.,-1.));
#1467=DIRECTION('center_axis',(0.,0.,-1.));
#1468=DIRECTION('ref_axis',(1.,0.,0.));
#1469=DIRECTION('',(0.,-1.,0.));
#1470=DIRECTION('',(1.,0.,0.));
#1471=DIRECTION('center_axis',(-1.,0.,0.));
#1472=DIRECTION('ref_axis',(0.,0.,-1.));
#1473=DIRECTION('',(0.,-1.,0.));
#1474=DIRECTION('',(0.,0.,-1.));
#1475=DIRECTION('center_axis',(0.,0.,1.));
#1476=DIRECTION('ref_axis',(-1.,0.,0.));
#1477=DIRECTION('',(-1.,0.,0.));
#1478=DIRECTION('center_axis',(0.,-1.,0.));
#1479=DIRECTION('ref_axis',(0.,0.,-1.));
#1480=DIRECTION('center_axis',(-0.950467445728689,-3.29759638251454E-16,
-0.31082412166687));
#1481=DIRECTION('ref_axis',(0.31082412166687,0.,-0.950467445728689));
#1482=DIRECTION('',(-0.31082412166687,-1.80308705333721E-16,0.950467445728689));
#1483=DIRECTION('',(3.46944695195361E-16,-1.,0.));
#1484=DIRECTION('',(-0.31082412166687,0.,0.950467445728689));
#1485=DIRECTION('',(3.46944695195361E-16,-1.,0.));
#1486=DIRECTION('center_axis',(0.,0.,1.));
#1487=DIRECTION('ref_axis',(-1.,0.,0.));
#1488=DIRECTION('',(1.,2.55223683821543E-16,0.));
#1489=DIRECTION('',(1.,0.,0.));
#1490=DIRECTION('',(3.46944695195361E-16,-1.,0.));
#1491=DIRECTION('center_axis',(0.949983248285707,3.29591648517184E-16,-0.312300861312513));
#1492=DIRECTION('ref_axis',(0.312300861312513,0.,0.949983248285707));
#1493=DIRECTION('',(-0.312300861312513,2.12210098639823E-17,-0.949983248285707));
#1494=DIRECTION('',(-0.312300861312513,0.,-0.949983248285707));
#1495=DIRECTION('center_axis',(0.,0.,1.));
#1496=DIRECTION('ref_axis',(-1.,0.,0.));
#1497=DIRECTION('',(0.,-1.,0.));
#1498=DIRECTION('',(-1.,0.,0.));
#1499=DIRECTION('',(0.,-1.,0.));
#1500=DIRECTION('center_axis',(0.951135317488762,0.,0.30877436393838));
#1501=DIRECTION('ref_axis',(-0.30877436393838,0.,0.951135317488762));
#1502=DIRECTION('',(0.,-1.,0.));
#1503=DIRECTION('',(-0.30877436393838,0.,0.951135317488762));
#1504=DIRECTION('center_axis',(0.,0.,1.));
#1505=DIRECTION('ref_axis',(-1.,-9.54310087054035E-16,0.));
#1506=DIRECTION('',(0.,-1.,0.));
#1507=DIRECTION('',(-1.,-9.54310087054035E-16,0.));
#1508=DIRECTION('center_axis',(-0.951135317488762,0.,0.30877436393838));
#1509=DIRECTION('ref_axis',(-0.30877436393838,0.,-0.951135317488762));
#1510=DIRECTION('',(0.,-1.,0.));
#1511=DIRECTION('',(-0.30877436393838,0.,-0.951135317488762));
#1512=DIRECTION('center_axis',(0.,0.,1.));
#1513=DIRECTION('ref_axis',(-1.,0.,0.));
#1514=DIRECTION('',(0.,-1.,0.));
#1515=DIRECTION('',(-1.,0.,0.));
#1516=DIRECTION('center_axis',(0.947602739606771,0.,-0.319451166674567));
#1517=DIRECTION('ref_axis',(0.319451166674567,0.,0.947602739606771));
#1518=DIRECTION('',(0.,-1.,0.));
#1519=DIRECTION('',(0.319451166674567,0.,0.947602739606771));
#1520=DIRECTION('center_axis',(0.,0.,-1.));
#1521=DIRECTION('ref_axis',(1.,0.,0.));
#1522=DIRECTION('',(0.,-1.,0.));
#1523=DIRECTION('',(1.,0.,0.));
#1524=DIRECTION('center_axis',(-0.947602739606771,0.,-0.319451166674568));
#1525=DIRECTION('ref_axis',(0.319451166674568,3.4516088146557E-16,-0.947602739606771));
#1526=DIRECTION('',(0.319451166674568,3.4516088146557E-16,-0.947602739606771));
#1527=DIRECTION('center_axis',(0.,-1.,0.));
#1528=DIRECTION('ref_axis',(0.,0.,-1.));
#1529=DIRECTION('center_axis',(1.,0.,0.));
#1530=DIRECTION('ref_axis',(0.,0.,1.));
#1531=DIRECTION('',(0.,-1.,0.));
#1532=DIRECTION('',(0.,0.,1.));
#1533=DIRECTION('',(0.,-1.,0.));
#1534=DIRECTION('center_axis',(0.,0.,-1.));
#1535=DIRECTION('ref_axis',(1.,0.,0.));
#1536=DIRECTION('',(0.,-1.,0.));
#1537=DIRECTION('',(1.,0.,0.));
#1538=DIRECTION('center_axis',(-0.917409408006231,0.,-0.397944692264712));
#1539=DIRECTION('ref_axis',(0.397944692264712,0.,-0.917409408006231));
#1540=DIRECTION('',(0.,-1.,0.));
#1541=DIRECTION('',(0.397944692264712,0.,-0.917409408006231));
#1542=DIRECTION('center_axis',(0.912492227721691,0.,-0.409094040958196));
#1543=DIRECTION('ref_axis',(0.409094040958195,0.,0.912492227721691));
#1544=DIRECTION('',(0.,-1.,0.));
#1545=DIRECTION('',(0.409094040958195,0.,0.912492227721691));
#1546=DIRECTION('center_axis',(0.,0.,-1.));
#1547=DIRECTION('ref_axis',(1.,0.,0.));
#1548=DIRECTION('',(0.,-1.,0.));
#1549=DIRECTION('',(1.,0.,0.));
#1550=DIRECTION('center_axis',(-1.,0.,0.));
#1551=DIRECTION('ref_axis',(0.,0.,-1.));
#1552=DIRECTION('',(0.,-1.,0.));
#1553=DIRECTION('',(0.,0.,-1.));
#1554=DIRECTION('center_axis',(0.,0.,1.));
#1555=DIRECTION('ref_axis',(-1.,0.,0.));
#1556=DIRECTION('',(0.,-1.,0.));
#1557=DIRECTION('',(-1.,0.,0.));
#1558=DIRECTION('center_axis',(1.,0.,0.));
#1559=DIRECTION('ref_axis',(0.,0.,1.));
#1560=DIRECTION('',(0.,-1.,0.));
#1561=DIRECTION('',(0.,0.,1.));
#1562=DIRECTION('center_axis',(-0.914904056356068,0.,0.403671360964849));
#1563=DIRECTION('ref_axis',(-0.403671360964849,0.,-0.914904056356068));
#1564=DIRECTION('',(0.,-1.,0.));
#1565=DIRECTION('',(-0.403671360964849,0.,-0.914904056356068));
#1566=DIRECTION('center_axis',(0.,0.,1.));
#1567=DIRECTION('ref_axis',(-1.,0.,0.));
#1568=DIRECTION('',(0.,-1.,0.));
#1569=DIRECTION('',(-1.,0.,0.));
#1570=DIRECTION('center_axis',(0.913498663408962,0.,0.406841728378542));
#1571=DIRECTION('ref_axis',(-0.406841728378542,0.,0.913498663408962));
#1572=DIRECTION('',(0.,-1.,0.));
#1573=DIRECTION('',(-0.406841728378542,0.,0.913498663408962));
#1574=DIRECTION('center_axis',(-1.,0.,0.));
#1575=DIRECTION('ref_axis',(0.,0.,-1.));
#1576=DIRECTION('',(0.,-1.,0.));
#1577=DIRECTION('',(0.,0.,-1.));
#1578=DIRECTION('center_axis',(0.,0.,1.));
#1579=DIRECTION('ref_axis',(-1.,0.,0.));
#1580=DIRECTION('',(-1.,0.,0.));
#1581=DIRECTION('center_axis',(0.,-1.,0.));
#1582=DIRECTION('ref_axis',(0.,0.,-1.));
#1583=DIRECTION('center_axis',(1.,0.,0.));
#1584=DIRECTION('ref_axis',(0.,0.,1.));
#1585=DIRECTION('',(0.,-1.,0.));
#1586=DIRECTION('',(0.,0.,1.));
#1587=DIRECTION('',(0.,-1.,0.));
#1588=DIRECTION('center_axis',(0.,0.,-1.));
#1589=DIRECTION('ref_axis',(1.,0.,0.));
#1590=DIRECTION('',(0.,-1.,0.));
#1591=DIRECTION('',(1.,0.,0.));
#1592=DIRECTION('center_axis',(-1.,0.,0.));
#1593=DIRECTION('ref_axis',(0.,0.,-1.));
#1594=DIRECTION('',(0.,-1.,0.));
#1595=DIRECTION('',(0.,0.,-1.));
#1596=DIRECTION('center_axis',(0.891303903450308,0.,-0.45340638691382));
#1597=DIRECTION('ref_axis',(0.45340638691382,0.,0.891303903450308));
#1598=DIRECTION('',(0.,-1.,0.));
#1599=DIRECTION('',(0.45340638691382,0.,0.891303903450308));
#1600=DIRECTION('center_axis',(0.,0.,-1.));
#1601=DIRECTION('ref_axis',(1.,0.,0.));
#1602=DIRECTION('',(0.,-1.,0.));
#1603=DIRECTION('',(1.,0.,0.));
#1604=DIRECTION('center_axis',(-1.,0.,0.));
#1605=DIRECTION('ref_axis',(0.,3.64246394653525E-16,-1.));
#1606=DIRECTION('',(0.,-1.,0.));
#1607=DIRECTION('',(0.,3.64246394653525E-16,-1.));
#1608=DIRECTION('center_axis',(0.,0.,1.));
#1609=DIRECTION('ref_axis',(-1.,0.,0.));
#1610=DIRECTION('',(0.,-1.,0.));
#1611=DIRECTION('',(-1.,0.,0.));
#1612=DIRECTION('center_axis',(1.,0.,0.));
#1613=DIRECTION('ref_axis',(0.,-4.2244365695719E-16,1.));
#1614=DIRECTION('',(0.,-1.,0.));
#1615=DIRECTION('',(0.,-4.2244365695719E-16,1.));
#1616=DIRECTION('center_axis',(-0.889695551631174,0.,0.456554296231786));
#1617=DIRECTION('ref_axis',(-0.456554296231786,0.,-0.889695551631174));
#1618=DIRECTION('',(0.,-1.,0.));
#1619=DIRECTION('',(-0.456554296231786,0.,-0.889695551631174));
#1620=DIRECTION('center_axis',(0.,0.,1.));
#1621=DIRECTION('ref_axis',(-1.,0.,0.));
#1622=DIRECTION('',(-1.,0.,0.));
#1623=DIRECTION('center_axis',(0.,-1.,0.));
#1624=DIRECTION('ref_axis',(0.,0.,-1.));
#1625=DIRECTION('center_axis',(-2.55223683821543E-16,1.,1.06241437763173E-16));
#1626=DIRECTION('ref_axis',(-1.,-2.55223683821543E-16,3.19561700785121E-32));
#1627=DIRECTION('center_axis',(0.,-1.06241437763173E-16,1.));
#1628=DIRECTION('ref_axis',(1.,0.,0.));
#1629=DIRECTION('center_axis',(6.02916910993449E-32,-1.11022302462516E-16,
1.));
#1630=DIRECTION('ref_axis',(1.,0.,-6.02916910993449E-32));
#1631=CARTESIAN_POINT('',(0.,0.,0.));
#1632=CARTESIAN_POINT('Origin',(12.800000000059,-5.7520797229596,20.0000000000005));
#1633=CARTESIAN_POINT('',(13.800000000059,-5.15207972295959,20.0000000000005));
#1634=CARTESIAN_POINT('',(12.800000000059,-5.15207972295959,21.0000000000005));
#1635=CARTESIAN_POINT('Origin',(12.800000000059,-5.15207972295959,20.0000000000005));
#1636=CARTESIAN_POINT('',(12.800000000059,-5.9520797229596,21.0000000000005));
#1637=CARTESIAN_POINT('',(12.800000000059,-5.7520797229596,21.0000000000005));
#1638=CARTESIAN_POINT('',(13.800000000059,-5.9520797229596,20.0000000000005));
#1639=CARTESIAN_POINT('Origin',(12.800000000059,-5.9520797229596,20.0000000000005));
#1640=CARTESIAN_POINT('',(13.800000000059,-5.7520797229596,20.0000000000005));
#1641=CARTESIAN_POINT('Origin',(13.800000000059,-5.95207972295959,0.100000000000459));
#1642=CARTESIAN_POINT('',(13.800000000059,-5.95207972295959,1.10000000000046));
#1643=CARTESIAN_POINT('',(13.800000000059,-5.95207972295959,0.100000000000459));
#1644=CARTESIAN_POINT('',(13.800000000059,-5.15207972295959,1.10000000000046));
#1645=CARTESIAN_POINT('',(13.800000000059,-5.75207972295959,1.10000000000046));
#1646=CARTESIAN_POINT('',(13.800000000059,-5.15207972295959,0.100000000000459));
#1647=CARTESIAN_POINT('Origin',(-12.2999999999856,-5.9520797229596,0.100000000000459));
#1648=CARTESIAN_POINT('',(-11.2999999999856,-5.9520797229596,21.0000000000005));
#1649=CARTESIAN_POINT('',(-12.2999999999856,-5.9520797229596,21.0000000000005));
#1650=CARTESIAN_POINT('',(-12.2999999999856,-5.9520797229596,20.0000000000005));
#1651=CARTESIAN_POINT('Origin',(-11.2999999999856,-5.9520797229596,20.0000000000005));
#1652=CARTESIAN_POINT('',(-12.2999999999856,-5.9520797229596,1.10000000000046));
#1653=CARTESIAN_POINT('',(-12.2999999999856,-5.9520797229596,0.100000000000459));
#1654=CARTESIAN_POINT('',(-11.2999999999856,-5.9520797229596,0.100000000000459));
#1655=CARTESIAN_POINT('Origin',(-11.2999999999856,-5.9520797229596,1.10000000000046));
#1656=CARTESIAN_POINT('',(12.800000000059,-5.95207972295959,0.100000000000459));
#1657=CARTESIAN_POINT('',(-12.2999999999856,-5.9520797229596,0.100000000000459));
#1658=CARTESIAN_POINT('Origin',(12.800000000059,-5.9520797229596,1.10000000000046));
#1659=CARTESIAN_POINT('',(9.8000000000592,-5.9520797229596,18.8503339083628));
#1660=CARTESIAN_POINT('Origin',(11.0500000000592,-5.9520797229596,18.8503339083628));
#1661=CARTESIAN_POINT('',(-10.7999999999265,-5.9520797229596,18.8503339083628));
#1662=CARTESIAN_POINT('Origin',(-9.54999999992651,-5.9520797229596,18.8503339083628));
#1663=CARTESIAN_POINT('Origin',(-11.2999999999856,-5.3520797229596,20.0000000000005));
#1664=CARTESIAN_POINT('',(-11.2999999999856,-5.1520797229596,21.0000000000005));
#1665=CARTESIAN_POINT('',(-11.2999999999856,-5.3520797229596,21.0000000000005));
#1666=CARTESIAN_POINT('',(-12.2999999999856,-5.1520797229596,20.0000000000005));
#1667=CARTESIAN_POINT('Origin',(-11.2999999999856,-5.15207972295959,20.0000000000005));
#1668=CARTESIAN_POINT('',(-12.2999999999856,-5.3520797229596,20.0000000000005));
#1669=CARTESIAN_POINT('Origin',(-12.2999999999856,-5.1520797229596,0.100000000000459));
#1670=CARTESIAN_POINT('',(-12.2999999999856,-5.1520797229596,1.10000000000046));
#1671=CARTESIAN_POINT('',(-12.2999999999856,-5.1520797229596,0.100000000000459));
#1672=CARTESIAN_POINT('',(-12.2999999999856,-5.3520797229596,1.10000000000046));
#1673=CARTESIAN_POINT('Origin',(-11.2999999999856,-5.3520797229596,1.10000000000046));
#1674=CARTESIAN_POINT('',(-11.2999999999856,-5.1520797229596,0.100000000000459));
#1675=CARTESIAN_POINT('Origin',(-11.2999999999856,-5.15207972295959,1.10000000000046));
#1676=CARTESIAN_POINT('',(-11.2999999999856,-5.3520797229596,0.100000000000459));
#1677=CARTESIAN_POINT('Origin',(12.800000000059,-5.75207972295959,1.10000000000046));
#1678=CARTESIAN_POINT('',(12.800000000059,-5.15207972295959,0.100000000000459));
#1679=CARTESIAN_POINT('Origin',(12.800000000059,-5.15207972295959,1.10000000000046));
#1680=CARTESIAN_POINT('',(12.800000000059,-5.75207972295959,0.100000000000459));
#1681=CARTESIAN_POINT('Origin',(13.800000000059,-5.15207972295959,0.100000000000459));
#1682=CARTESIAN_POINT('',(13.800000000059,-5.15207972295959,0.100000000000459));
#1683=CARTESIAN_POINT('',(13.800000000059,-5.15207972295959,21.0000000000005));
#1684=CARTESIAN_POINT('',(1.92589532126584,-5.1520797229596,11.9517437854957));
#1685=CARTESIAN_POINT('',(1.92589532126584,-5.1520797229596,12.2629658314814));
#1686=CARTESIAN_POINT('',(1.92589532126584,-5.15207972295959,6.02587189274806));
#1687=CARTESIAN_POINT('',(0.745227559510309,-5.1520797229596,12.2629658314814));
#1688=CARTESIAN_POINT('',(7.86294766066241,-5.15207972295959,12.2629658314814));
#1689=CARTESIAN_POINT('',(0.745227559510309,-5.1520797229596,11.9517437854957));
#1690=CARTESIAN_POINT('',(0.745227559510309,-5.1520797229596,6.18148291574095));
#1691=CARTESIAN_POINT('',(1.13302010887353,-5.1520797229596,11.9517437854957));
#1692=CARTESIAN_POINT('',(7.27261377978464,-5.15207972295959,11.9517437854957));
#1693=CARTESIAN_POINT('',(1.13302010887353,-5.1520797229596,9.52618783979707));
#1694=CARTESIAN_POINT('',(1.13302010887353,-5.15207972295959,6.02587189274806));
#1695=CARTESIAN_POINT('',(0.745227559510309,-5.1520797229596,9.52618783979707));
#1696=CARTESIAN_POINT('',(7.46651005446625,-5.15207972295959,9.52618783979707));
#1697=CARTESIAN_POINT('',(0.745227559510309,-5.1520797229596,9.2149657938113));
#1698=CARTESIAN_POINT('',(0.745227559510309,-5.15207972295959,4.81309391989876));
#1699=CARTESIAN_POINT('',(1.92589532126584,-5.1520797229596,9.2149657938113));
#1700=CARTESIAN_POINT('',(7.27261377978464,-5.15207972295959,9.2149657938113));
#1701=CARTESIAN_POINT('',(1.92589532126584,-5.1520797229596,9.52618783979707));
#1702=CARTESIAN_POINT('',(1.92589532126584,-5.15207972295959,4.65748289690588));
#1703=CARTESIAN_POINT('',(1.53810277190262,-5.1520797229596,9.52618783979707));
#1704=CARTESIAN_POINT('',(7.86294766066241,-5.15207972295959,9.52618783979707));
#1705=CARTESIAN_POINT('',(1.53810277190262,-5.1520797229596,11.9517437854957));
#1706=CARTESIAN_POINT('',(1.53810277190262,-5.15207972295959,4.81309391989876));
#1707=CARTESIAN_POINT('',(7.6690513859808,-5.15207972295959,11.9517437854957));
#1708=CARTESIAN_POINT('',(-1.56917765547909,-5.1520797229596,12.2629658314814));
#1709=CARTESIAN_POINT('',(-1.97920035098415,-5.1520797229596,12.2629658314814));
#1710=CARTESIAN_POINT('',(6.11541117228994,-5.15207972295959,12.2629658314814));
#1711=CARTESIAN_POINT('',(-0.95167359598352,-5.1520797229596,9.2149657938113));
#1712=CARTESIAN_POINT('',(0.666868561060903,-5.15207972295959,4.41380949142472));
#1713=CARTESIAN_POINT('',(-0.452730315911098,-5.1520797229596,9.2149657938113));
#1714=CARTESIAN_POINT('',(6.42416320203773,-5.15207972295959,9.2149657938113));
#1715=CARTESIAN_POINT('',(0.574796439089529,-5.1520797229596,12.2629658314814));
#1716=CARTESIAN_POINT('',(-1.10509994854064,-5.1520797229596,7.27981164317464));
#1717=CARTESIAN_POINT('',(0.147483629918594,-5.1520797229596,12.2629658314814));
#1718=CARTESIAN_POINT('',(7.18739821957425,-5.15207972295959,12.2629658314814));
#1719=CARTESIAN_POINT('',(-0.129158188735421,-5.1520797229596,11.4108102293775));
#1720=CARTESIAN_POINT('',(-0.987737563452884,-5.1520797229596,8.76607911975679));
#1721=CARTESIAN_POINT('',(-1.29253583682508,-5.1520797229596,11.4108102293775));
#1722=CARTESIAN_POINT('',(6.83542090566178,-5.15207972295959,11.4108102293775));
#1723=CARTESIAN_POINT('',(1.08785193233409,-5.15207972295959,4.07836576187834));
#1724=CARTESIAN_POINT('',(-2.26819225082808,-5.1520797229596,9.2149657938113));
#1725=CARTESIAN_POINT('',(-2.26819225082808,-5.1520797229596,12.2629658314814));
#1726=CARTESIAN_POINT('',(-2.26819225082808,-5.1520797229596,4.65748289690588));
#1727=CARTESIAN_POINT('',(-2.67327491385717,-5.1520797229596,12.2629658314814));
#1728=CARTESIAN_POINT('',(5.76590387461545,-5.15207972295959,12.2629658314814));
#1729=CARTESIAN_POINT('',(-2.67327491385717,-5.1520797229596,9.63733857050627));
#1730=CARTESIAN_POINT('',(-2.67327491385717,-5.1520797229596,6.18148291574095));
#1731=CARTESIAN_POINT('',(-3.46862014248746,-5.1520797229596,11.4231603105675));
#1732=CARTESIAN_POINT('',(0.462327858929836,-5.15207972295959,2.59683917695035));
#1733=CARTESIAN_POINT('',(-3.71562176628569,-5.1520797229596,11.4231603105675));
#1734=CARTESIAN_POINT('',(5.16568992878575,-5.15207972295959,11.4231603105675));
#1735=CARTESIAN_POINT('',(-4.50355694620204,-5.1520797229596,9.63733857050627));
#1736=CARTESIAN_POINT('',(-4.37946949642008,-5.1520797229596,9.91857752408734));
#1737=CARTESIAN_POINT('',(-4.50355694620204,-5.1520797229596,12.2629658314814));
#1738=CARTESIAN_POINT('',(-4.50355694620204,-5.1520797229596,4.86866928525337));
#1739=CARTESIAN_POINT('',(-4.88146943061333,-5.1520797229596,12.2629658314814));
#1740=CARTESIAN_POINT('',(4.64822152692847,-5.15207972295959,12.2629658314814));
#1741=CARTESIAN_POINT('',(-4.88146943061333,-5.1520797229596,9.2149657938113));
#1742=CARTESIAN_POINT('',(-4.88146943061333,-5.1520797229596,6.18148291574095));
#1743=CARTESIAN_POINT('',(-4.3281857933053,-5.1520797229596,9.2149657938113));
#1744=CARTESIAN_POINT('',(4.45926528472282,-5.15207972295959,9.2149657938113));
#1745=CARTESIAN_POINT('',(-3.56742079200676,-5.1520797229596,10.9118669493051));
#1746=CARTESIAN_POINT('',(-4.51252411253292,-5.1520797229596,8.80379558176789));
#1747=CARTESIAN_POINT('',(-2.83135595308804,-5.1520797229596,9.2149657938113));
#1748=CARTESIAN_POINT('',(-0.218680117008182,-5.1520797229596,3.19178358110371));
#1749=CARTESIAN_POINT('',(5.48432202348547,-5.15207972295959,9.2149657938113));
#1750=CARTESIAN_POINT('',(4.6083329557146,-5.15207972295959,9.2149657938113));
#1751=CARTESIAN_POINT('',(4.6083329557146,-5.15207972295959,12.2629658314814));
#1752=CARTESIAN_POINT('',(4.6083329557146,-5.15207972295959,4.65748289690588));
#1753=CARTESIAN_POINT('',(4.15384996792586,-5.15207972295959,12.2629658314814));
#1754=CARTESIAN_POINT('',(9.20416647788679,-5.15207972295959,12.2629658314814));
#1755=CARTESIAN_POINT('',(2.80522110198753,-5.15207972295959,9.63486855426829));
#1756=CARTESIAN_POINT('',(2.68891667166471,-5.15207972295959,9.4082240233828));
#1757=CARTESIAN_POINT('',(2.80522110198753,-5.1520797229596,12.2629658314814));
#1758=CARTESIAN_POINT('',(2.80522110198753,-5.15207972295959,4.86743427713437));
#1759=CARTESIAN_POINT('',(2.42730861757624,-5.1520797229596,12.2629658314814));
#1760=CARTESIAN_POINT('',(8.30261055102325,-5.15207972295959,12.2629658314814));
#1761=CARTESIAN_POINT('',(2.42730861757624,-5.15207972295959,9.2149657938113));
#1762=CARTESIAN_POINT('',(2.42730861757624,-5.15207972295959,6.18148291574095));
#1763=CARTESIAN_POINT('',(3.00282240102612,-5.15207972295959,9.2149657938113));
#1764=CARTESIAN_POINT('',(8.11365430881761,-5.15207972295959,9.2149657938113));
#1765=CARTESIAN_POINT('',(4.23042047130331,-5.15207972295959,11.62817165832));
#1766=CARTESIAN_POINT('',(2.27086686404958,-5.15207972295959,7.77609142836647));
#1767=CARTESIAN_POINT('',(4.23042047130331,-5.15207972295959,9.2149657938113));
#1768=CARTESIAN_POINT('',(4.23042047130331,-5.15207972295959,5.86408582916023));
#1769=CARTESIAN_POINT('',(9.01521023568114,-5.15207972295959,9.2149657938113));
#1770=CARTESIAN_POINT('',(9.8000000000592,-5.15207972295959,18.8503339083628));
#1771=CARTESIAN_POINT('Origin',(11.0500000000592,-5.15207972295959,18.8503339083628));
#1772=CARTESIAN_POINT('',(-10.7999999999265,-5.15207972295959,18.8503339083628));
#1773=CARTESIAN_POINT('Origin',(-9.54999999992651,-5.15207972295959,18.8503339083628));
#1774=CARTESIAN_POINT('Origin',(-9.54999999992651,27.4942952674983,18.8503339083628));
#1775=CARTESIAN_POINT('',(-10.7999999999265,27.4942952674983,18.8503339083628));
#1776=CARTESIAN_POINT('Origin',(11.0500000000592,27.4942952674983,18.8503339083628));
#1777=CARTESIAN_POINT('',(9.8000000000592,27.4942952674983,18.8503339083628));
#1778=CARTESIAN_POINT('Origin',(1.92589532126584,-5.1520797229596,11.9517437854957));
#1779=CARTESIAN_POINT('',(1.92589532126584,-5.2520797229596,11.9517437854957));
#1780=CARTESIAN_POINT('',(1.92589532126584,-5.1520797229596,11.9517437854957));
#1781=CARTESIAN_POINT('',(1.92589532126584,-5.2520797229596,12.2629658314814));
#1782=CARTESIAN_POINT('',(1.92589532126584,-5.2520797229596,11.9517437854957));
#1783=CARTESIAN_POINT('',(1.92589532126584,-5.1520797229596,12.2629658314814));
#1784=CARTESIAN_POINT('Origin',(1.53810277190262,-5.1520797229596,11.9517437854957));
#1785=CARTESIAN_POINT('',(1.53810277190262,-5.2520797229596,11.9517437854957));
#1786=CARTESIAN_POINT('',(1.53810277190262,-5.1520797229596,11.9517437854957));
#1787=CARTESIAN_POINT('',(1.53810277190262,-5.2520797229596,11.9517437854957));
#1788=CARTESIAN_POINT('Origin',(1.53810277190262,-5.1520797229596,9.52618783979707));
#1789=CARTESIAN_POINT('',(1.53810277190262,-5.2520797229596,9.52618783979707));
#1790=CARTESIAN_POINT('',(1.53810277190262,-5.1520797229596,9.52618783979707));
#1791=CARTESIAN_POINT('',(1.53810277190262,-5.2520797229596,9.52618783979707));
#1792=CARTESIAN_POINT('Origin',(1.92589532126584,-5.1520797229596,9.52618783979707));
#1793=CARTESIAN_POINT('',(1.92589532126584,-5.2520797229596,9.52618783979707));
#1794=CARTESIAN_POINT('',(1.92589532126584,-5.1520797229596,9.52618783979707));
#1795=CARTESIAN_POINT('',(1.92589532126584,-5.2520797229596,9.52618783979707));
#1796=CARTESIAN_POINT('Origin',(1.92589532126584,-5.1520797229596,9.2149657938113));
#1797=CARTESIAN_POINT('',(1.92589532126584,-5.2520797229596,9.2149657938113));
#1798=CARTESIAN_POINT('',(1.92589532126584,-5.1520797229596,9.2149657938113));
#1799=CARTESIAN_POINT('',(1.92589532126584,-5.2520797229596,9.2149657938113));
#1800=CARTESIAN_POINT('Origin',(0.745227559510309,-5.1520797229596,9.2149657938113));
#1801=CARTESIAN_POINT('',(0.745227559510309,-5.2520797229596,9.2149657938113));
#1802=CARTESIAN_POINT('',(0.745227559510309,-5.1520797229596,9.2149657938113));
#1803=CARTESIAN_POINT('',(0.745227559510309,-5.2520797229596,9.2149657938113));
#1804=CARTESIAN_POINT('Origin',(0.745227559510309,-5.1520797229596,9.52618783979707));
#1805=CARTESIAN_POINT('',(0.745227559510309,-5.2520797229596,9.52618783979707));
#1806=CARTESIAN_POINT('',(0.745227559510309,-5.1520797229596,9.52618783979707));
#1807=CARTESIAN_POINT('',(0.745227559510309,-5.2520797229596,9.52618783979707));
#1808=CARTESIAN_POINT('Origin',(1.13302010887353,-5.1520797229596,9.52618783979707));
#1809=CARTESIAN_POINT('',(1.13302010887353,-5.2520797229596,9.52618783979707));
#1810=CARTESIAN_POINT('',(1.13302010887353,-5.1520797229596,9.52618783979707));
#1811=CARTESIAN_POINT('',(1.13302010887353,-5.2520797229596,9.52618783979707));
#1812=CARTESIAN_POINT('Origin',(1.13302010887353,-5.1520797229596,11.9517437854957));
#1813=CARTESIAN_POINT('',(1.13302010887353,-5.2520797229596,11.9517437854957));
#1814=CARTESIAN_POINT('',(1.13302010887353,-5.1520797229596,11.9517437854957));
#1815=CARTESIAN_POINT('',(1.13302010887353,-5.2520797229596,11.9517437854957));
#1816=CARTESIAN_POINT('Origin',(0.745227559510309,-5.1520797229596,11.9517437854957));
#1817=CARTESIAN_POINT('',(0.745227559510309,-5.2520797229596,11.9517437854957));
#1818=CARTESIAN_POINT('',(0.745227559510309,-5.1520797229596,11.9517437854957));
#1819=CARTESIAN_POINT('',(0.745227559510309,-5.2520797229596,11.9517437854957));
#1820=CARTESIAN_POINT('Origin',(0.745227559510309,-5.1520797229596,12.2629658314814));
#1821=CARTESIAN_POINT('',(0.745227559510309,-5.2520797229596,12.2629658314814));
#1822=CARTESIAN_POINT('',(0.745227559510309,-5.1520797229596,12.2629658314814));
#1823=CARTESIAN_POINT('',(0.745227559510309,-5.2520797229596,12.2629658314814));
#1824=CARTESIAN_POINT('Origin',(1.92589532126584,-5.1520797229596,12.2629658314814));
#1825=CARTESIAN_POINT('',(1.92589532126584,-5.2520797229596,12.2629658314814));
#1826=CARTESIAN_POINT('Origin',(1.33556144038807,-5.2520797229596,10.7389658126464));
#1827=CARTESIAN_POINT('Origin',(-1.18138510611587,-5.1520797229596,11.06500795606));
#1828=CARTESIAN_POINT('',(-0.712082020899238,-5.1520797229596,9.62992852179232));
#1829=CARTESIAN_POINT('',(-1.18138510611587,-5.1520797229596,11.06500795606));
#1830=CARTESIAN_POINT('',(1.16198927681723,-5.15207972295959,3.89921576403829));
#1831=CARTESIAN_POINT('',(-0.712082020899238,-5.2520797229596,9.62992852179232));
#1832=CARTESIAN_POINT('',(-0.712082020899238,-5.1520797229596,9.62992852179232));
#1833=CARTESIAN_POINT('',(-1.18138510611587,-5.2520797229596,11.06500795606));
#1834=CARTESIAN_POINT('',(-1.15509030706039,-5.2520797229596,10.9846012284219));
#1835=CARTESIAN_POINT('',(-1.18138510611587,-5.1520797229596,11.06500795606));
#1836=CARTESIAN_POINT('Origin',(-0.240308919444623,-5.1520797229596,11.06500795606));
#1837=CARTESIAN_POINT('',(-0.240308919444623,-5.1520797229596,11.06500795606));
#1838=CARTESIAN_POINT('',(6.77984554030718,-5.15207972295959,11.06500795606));
#1839=CARTESIAN_POINT('',(-0.240308919444623,-5.2520797229596,11.06500795606));
#1840=CARTESIAN_POINT('',(-0.471754647474055,-5.2520797229596,11.06500795606));
#1841=CARTESIAN_POINT('',(-0.240308919444623,-5.1520797229596,11.06500795606));
#1842=CARTESIAN_POINT('Origin',(-0.712082020899238,-5.1520797229596,9.62992852179232));
#1843=CARTESIAN_POINT('',(-1.41805946966861,-5.1520797229596,7.48242643941009));
#1844=CARTESIAN_POINT('',(-0.50197803709685,-5.2520797229596,10.2690406400603));
#1845=CARTESIAN_POINT('Origin',(-1.56917765547909,-5.1520797229596,12.2629658314814));
#1846=CARTESIAN_POINT('',(-1.56917765547909,-5.2520797229596,12.2629658314814));
#1847=CARTESIAN_POINT('',(-1.56917765547909,-5.1520797229596,12.2629658314814));
#1848=CARTESIAN_POINT('',(-1.97920035098415,-5.2520797229596,12.2629658314814));
#1849=CARTESIAN_POINT('',(-1.56917765547909,-5.2520797229596,12.2629658314814));
#1850=CARTESIAN_POINT('',(-1.97920035098415,-5.1520797229596,12.2629658314814));
#1851=CARTESIAN_POINT('Origin',(-1.29253583682508,-5.1520797229596,11.4108102293775));
#1852=CARTESIAN_POINT('',(-1.29253583682508,-5.2520797229596,11.4108102293775));
#1853=CARTESIAN_POINT('',(-1.29253583682508,-5.1520797229596,11.4108102293775));
#1854=CARTESIAN_POINT('',(-1.29253583682508,-5.2520797229596,11.4108102293775));
#1855=CARTESIAN_POINT('Origin',(-0.129158188735421,-5.1520797229596,11.4108102293775));
#1856=CARTESIAN_POINT('',(-0.129158188735421,-5.2520797229596,11.4108102293775));
#1857=CARTESIAN_POINT('',(-0.129158188735421,-5.1520797229596,11.4108102293775));
#1858=CARTESIAN_POINT('',(-0.129158188735421,-5.2520797229596,11.4108102293775));
#1859=CARTESIAN_POINT('Origin',(0.147483629918594,-5.1520797229596,12.2629658314814));
#1860=CARTESIAN_POINT('',(0.147483629918594,-5.2520797229596,12.2629658314814));
#1861=CARTESIAN_POINT('',(0.147483629918594,-5.1520797229596,12.2629658314814));
#1862=CARTESIAN_POINT('',(0.147483629918594,-5.2520797229596,12.2629658314814));
#1863=CARTESIAN_POINT('Origin',(0.574796439089529,-5.1520797229596,12.2629658314814));
#1864=CARTESIAN_POINT('',(0.574796439089529,-5.2520797229596,12.2629658314814));
#1865=CARTESIAN_POINT('',(0.574796439089529,-5.1520797229596,12.2629658314814));
#1866=CARTESIAN_POINT('',(0.574796439089529,-5.2520797229596,12.2629658314814));
#1867=CARTESIAN_POINT('Origin',(-0.452730315911098,-5.1520797229596,9.2149657938113));
#1868=CARTESIAN_POINT('',(-0.452730315911098,-5.2520797229596,9.2149657938113));
#1869=CARTESIAN_POINT('',(-0.452730315911098,-5.1520797229596,9.2149657938113));
#1870=CARTESIAN_POINT('',(-0.452730315911098,-5.2520797229596,9.2149657938113));
#1871=CARTESIAN_POINT('Origin',(-0.95167359598352,-5.1520797229596,9.2149657938113));
#1872=CARTESIAN_POINT('',(-0.95167359598352,-5.2520797229596,9.2149657938113));
#1873=CARTESIAN_POINT('',(-0.95167359598352,-5.1520797229596,9.2149657938113));
#1874=CARTESIAN_POINT('',(-0.95167359598352,-5.2520797229596,9.2149657938113));
#1875=CARTESIAN_POINT('Origin',(-1.97920035098415,-5.1520797229596,12.2629658314814));
#1876=CARTESIAN_POINT('',(-1.97920035098415,-5.2520797229596,12.2629658314814));
#1877=CARTESIAN_POINT('Origin',(-0.703200375503488,-5.2520797229596,11.0433736318945));
#1878=CARTESIAN_POINT('Origin',(-2.26819225082808,-5.1520797229596,9.2149657938113));
#1879=CARTESIAN_POINT('',(-2.26819225082808,-5.2520797229596,9.2149657938113));
#1880=CARTESIAN_POINT('',(-2.26819225082808,-5.1520797229596,9.2149657938113));
#1881=CARTESIAN_POINT('',(-2.26819225082808,-5.2520797229596,12.2629658314814));
#1882=CARTESIAN_POINT('',(-2.26819225082808,-5.2520797229596,9.2149657938113));
#1883=CARTESIAN_POINT('',(-2.26819225082808,-5.1520797229596,12.2629658314814));
#1884=CARTESIAN_POINT('Origin',(-2.83135595308804,-5.1520797229596,9.2149657938113));
#1885=CARTESIAN_POINT('',(-2.83135595308804,-5.2520797229596,9.2149657938113));
#1886=CARTESIAN_POINT('',(-2.83135595308804,-5.1520797229596,9.2149657938113));
#1887=CARTESIAN_POINT('',(-2.83135595308804,-5.2520797229596,9.2149657938113));
#1888=CARTESIAN_POINT('Origin',(-3.56742079200676,-5.1520797229596,10.9118669493051));
#1889=CARTESIAN_POINT('',(-3.56742079200676,-5.2520797229596,10.9118669493051));
#1890=CARTESIAN_POINT('',(-3.56742079200676,-5.1520797229596,10.9118669493051));
#1891=CARTESIAN_POINT('',(-3.56742079200676,-5.2520797229596,10.9118669493051));
#1892=CARTESIAN_POINT('Origin',(-4.3281857933053,-5.1520797229596,9.2149657938113));
#1893=CARTESIAN_POINT('',(-4.3281857933053,-5.2520797229596,9.2149657938113));
#1894=CARTESIAN_POINT('',(-4.3281857933053,-5.1520797229596,9.2149657938113));
#1895=CARTESIAN_POINT('',(-4.3281857933053,-5.2520797229596,9.2149657938113));
#1896=CARTESIAN_POINT('Origin',(-4.88146943061333,-5.1520797229596,9.2149657938113));
#1897=CARTESIAN_POINT('',(-4.88146943061333,-5.2520797229596,9.2149657938113));
#1898=CARTESIAN_POINT('',(-4.88146943061333,-5.1520797229596,9.2149657938113));
#1899=CARTESIAN_POINT('',(-4.88146943061333,-5.2520797229596,9.2149657938113));
#1900=CARTESIAN_POINT('Origin',(-4.88146943061333,-5.1520797229596,12.2629658314814));
#1901=CARTESIAN_POINT('',(-4.88146943061333,-5.2520797229596,12.2629658314814));
#1902=CARTESIAN_POINT('',(-4.88146943061333,-5.1520797229596,12.2629658314814));
#1903=CARTESIAN_POINT('',(-4.88146943061333,-5.2520797229596,12.2629658314814));
#1904=CARTESIAN_POINT('Origin',(-4.50355694620204,-5.1520797229596,12.2629658314814));
#1905=CARTESIAN_POINT('',(-4.50355694620204,-5.2520797229596,12.2629658314814));
#1906=CARTESIAN_POINT('',(-4.50355694620204,-5.1520797229596,12.2629658314814));
#1907=CARTESIAN_POINT('',(-4.50355694620204,-5.2520797229596,12.2629658314814));
#1908=CARTESIAN_POINT('Origin',(-4.50355694620204,-5.1520797229596,9.63733857050627));
#1909=CARTESIAN_POINT('',(-4.50355694620204,-5.2520797229596,9.63733857050627));
#1910=CARTESIAN_POINT('',(-4.50355694620204,-5.1520797229596,9.63733857050627));
#1911=CARTESIAN_POINT('',(-4.50355694620204,-5.2520797229596,9.63733857050627));
#1912=CARTESIAN_POINT('Origin',(-3.71562176628569,-5.1520797229596,11.4231603105675));
#1913=CARTESIAN_POINT('',(-3.71562176628569,-5.2520797229596,11.4231603105675));
#1914=CARTESIAN_POINT('',(-3.71562176628569,-5.1520797229596,11.4231603105675));
#1915=CARTESIAN_POINT('',(-3.71562176628569,-5.2520797229596,11.4231603105675));
#1916=CARTESIAN_POINT('Origin',(-3.46862014248746,-5.1520797229596,11.4231603105675));
#1917=CARTESIAN_POINT('',(-3.46862014248746,-5.2520797229596,11.4231603105675));
#1918=CARTESIAN_POINT('',(-3.46862014248746,-5.1520797229596,11.4231603105675));
#1919=CARTESIAN_POINT('',(-3.46862014248746,-5.2520797229596,11.4231603105675));
#1920=CARTESIAN_POINT('Origin',(-2.67327491385717,-5.1520797229596,9.63733857050627));
#1921=CARTESIAN_POINT('',(-2.67327491385717,-5.2520797229596,9.63733857050627));
#1922=CARTESIAN_POINT('',(-2.67327491385717,-5.1520797229596,9.63733857050627));
#1923=CARTESIAN_POINT('',(-2.67327491385717,-5.2520797229596,9.63733857050627));
#1924=CARTESIAN_POINT('Origin',(-2.67327491385717,-5.1520797229596,12.2629658314814));
#1925=CARTESIAN_POINT('',(-2.67327491385717,-5.2520797229596,12.2629658314814));
#1926=CARTESIAN_POINT('',(-2.67327491385717,-5.1520797229596,12.2629658314814));
#1927=CARTESIAN_POINT('',(-2.67327491385717,-5.2520797229596,12.2629658314814));
#1928=CARTESIAN_POINT('Origin',(-2.26819225082808,-5.1520797229596,12.2629658314814));
#1929=CARTESIAN_POINT('',(-2.26819225082808,-5.2520797229596,12.2629658314814));
#1930=CARTESIAN_POINT('Origin',(-3.57962728546426,-5.2520797229596,10.6181014090441));
#1931=CARTESIAN_POINT('Origin',(4.6083329557146,-5.15207972295959,9.2149657938113));
#1932=CARTESIAN_POINT('',(4.6083329557146,-5.25207972295959,9.2149657938113));
#1933=CARTESIAN_POINT('',(4.6083329557146,-5.15207972295959,9.2149657938113));
#1934=CARTESIAN_POINT('',(4.6083329557146,-5.25207972295959,12.2629658314814));
#1935=CARTESIAN_POINT('',(4.6083329557146,-5.25207972295959,9.2149657938113));
#1936=CARTESIAN_POINT('',(4.6083329557146,-5.15207972295959,12.2629658314814));
#1937=CARTESIAN_POINT('Origin',(4.23042047130331,-5.15207972295959,9.2149657938113));
#1938=CARTESIAN_POINT('',(4.23042047130331,-5.25207972295959,9.2149657938113));
#1939=CARTESIAN_POINT('',(4.23042047130331,-5.15207972295959,9.2149657938113));
#1940=CARTESIAN_POINT('',(4.23042047130331,-5.25207972295959,9.2149657938113));
#1941=CARTESIAN_POINT('Origin',(4.23042047130331,-5.15207972295959,11.62817165832));
#1942=CARTESIAN_POINT('',(4.23042047130331,-5.25207972295959,11.62817165832));
#1943=CARTESIAN_POINT('',(4.23042047130331,-5.15207972295959,11.62817165832));
#1944=CARTESIAN_POINT('',(4.23042047130331,-5.25207972295959,11.62817165832));
#1945=CARTESIAN_POINT('Origin',(3.00282240102612,-5.15207972295959,9.2149657938113));
#1946=CARTESIAN_POINT('',(3.00282240102612,-5.25207972295959,9.2149657938113));
#1947=CARTESIAN_POINT('',(3.00282240102612,-5.15207972295959,9.2149657938113));
#1948=CARTESIAN_POINT('',(3.00282240102612,-5.25207972295959,9.2149657938113));
#1949=CARTESIAN_POINT('Origin',(2.42730861757624,-5.15207972295959,9.2149657938113));
#1950=CARTESIAN_POINT('',(2.42730861757624,-5.25207972295959,9.2149657938113));
#1951=CARTESIAN_POINT('',(2.42730861757624,-5.15207972295959,9.2149657938113));
#1952=CARTESIAN_POINT('',(2.42730861757624,-5.25207972295959,9.2149657938113));
#1953=CARTESIAN_POINT('Origin',(2.42730861757624,-5.1520797229596,12.2629658314814));
#1954=CARTESIAN_POINT('',(2.42730861757624,-5.2520797229596,12.2629658314814));
#1955=CARTESIAN_POINT('',(2.42730861757624,-5.1520797229596,12.2629658314814));
#1956=CARTESIAN_POINT('',(2.42730861757624,-5.2520797229596,12.2629658314814));
#1957=CARTESIAN_POINT('Origin',(2.80522110198753,-5.1520797229596,12.2629658314814));
#1958=CARTESIAN_POINT('',(2.80522110198753,-5.2520797229596,12.2629658314814));
#1959=CARTESIAN_POINT('',(2.80522110198753,-5.1520797229596,12.2629658314814));
#1960=CARTESIAN_POINT('',(2.80522110198753,-5.2520797229596,12.2629658314814));
#1961=CARTESIAN_POINT('Origin',(2.80522110198753,-5.15207972295959,9.63486855426829));
#1962=CARTESIAN_POINT('',(2.80522110198753,-5.25207972295959,9.63486855426829));
#1963=CARTESIAN_POINT('',(2.80522110198753,-5.15207972295959,9.63486855426829));
#1964=CARTESIAN_POINT('',(2.80522110198753,-5.25207972295959,9.63486855426829));
#1965=CARTESIAN_POINT('Origin',(4.15384996792586,-5.15207972295959,12.2629658314814));
#1966=CARTESIAN_POINT('',(4.15384996792586,-5.25207972295959,12.2629658314814));
#1967=CARTESIAN_POINT('',(4.15384996792586,-5.15207972295959,12.2629658314814));
#1968=CARTESIAN_POINT('',(4.15384996792586,-5.25207972295959,12.2629658314814));
#1969=CARTESIAN_POINT('Origin',(4.6083329557146,-5.15207972295959,12.2629658314814));
#1970=CARTESIAN_POINT('',(4.6083329557146,-5.25207972295959,12.2629658314814));
#1971=CARTESIAN_POINT('Origin',(3.51414162760912,-5.25207972295959,10.7046473043994));
#1972=CARTESIAN_POINT('Origin',(13.800000000059,-5.15207972295959,0.100000000000459));
#1973=CARTESIAN_POINT('Origin',(0.750000000036695,-5.5520797229596,21.0000000000005));
#1974=CARTESIAN_POINT('Origin',(0.750000000036695,-5.55207972295959,0.100000000000459));
#1975=UNCERTAINTY_MEASURE_WITH_UNIT(LENGTH_MEASURE(0.01),#1979,
'DISTANCE_ACCURACY_VALUE',
'Maximum model space distance between geometric entities at asserted c
onnectivities');
#1976=UNCERTAINTY_MEASURE_WITH_UNIT(LENGTH_MEASURE(0.01),#1979,
'DISTANCE_ACCURACY_VALUE',
'Maximum model space distance between geometric entities at asserted c
onnectivities');
#1977=(
GEOMETRIC_REPRESENTATION_CONTEXT(3)
GLOBAL_UNCERTAINTY_ASSIGNED_CONTEXT((#1975))
GLOBAL_UNIT_ASSIGNED_CONTEXT((#1979,#1981,#1982))
REPRESENTATION_CONTEXT('','3D')
);
#1978=(
GEOMETRIC_REPRESENTATION_CONTEXT(3)
GLOBAL_UNCERTAINTY_ASSIGNED_CONTEXT((#1976))
GLOBAL_UNIT_ASSIGNED_CONTEXT((#1979,#1981,#1982))
REPRESENTATION_CONTEXT('','3D')
);
#1979=(
LENGTH_UNIT()
NAMED_UNIT(*)
SI_UNIT(.MILLI.,.METRE.)
);
#1980=(
LENGTH_UNIT()
NAMED_UNIT(*)
SI_UNIT(.CENTI.,.METRE.)
);
#1981=(
NAMED_UNIT(*)
PLANE_ANGLE_UNIT()
SI_UNIT($,.RADIAN.)
);
#1982=(
NAMED_UNIT(*)
SI_UNIT($,.STERADIAN.)
SOLID_ANGLE_UNIT()
);
#1983=SHAPE_DEFINITION_REPRESENTATION(#1984,#1985);
#1984=PRODUCT_DEFINITION_SHAPE('',$,#1987);
#1985=SHAPE_REPRESENTATION('',(#1247),#1977);
#1986=PRODUCT_DEFINITION_CONTEXT('part definition',#1991,'design');
#1987=PRODUCT_DEFINITION('PCB_Controller','PCB_Controller',#1988,#1986);
#1988=PRODUCT_DEFINITION_FORMATION('',$,#1993);
#1989=PRODUCT_RELATED_PRODUCT_CATEGORY('PCB_Controller',
'PCB_Controller',(#1993));
#1990=APPLICATION_PROTOCOL_DEFINITION('international standard',
'automotive_design',2009,#1991);
#1991=APPLICATION_CONTEXT(
'Core Data for Automotive Mechanical Design Process');
#1992=PRODUCT_CONTEXT('part definition',#1991,'mechanical');
#1993=PRODUCT('PCB_Controller','PCB_Controller',$,(#1992));
#1994=PRESENTATION_STYLE_ASSIGNMENT((#1995));
#1995=SURFACE_STYLE_USAGE(.BOTH.,#1998);
#1996=SURFACE_STYLE_RENDERING_WITH_PROPERTIES($,#2002,(#1997));
#1997=SURFACE_STYLE_TRANSPARENT(0.);
#1998=SURFACE_SIDE_STYLE('',(#1999,#1996));
#1999=SURFACE_STYLE_FILL_AREA(#2000);
#2000=FILL_AREA_STYLE('',(#2001));
#2001=FILL_AREA_STYLE_COLOUR('',#2002);
#2002=COLOUR_RGB('',0.0549019607843137,0.556862745098039,0.);
ENDSEC;
END-ISO-10303-21;
