ISO-10303-21;
HEADER;
/* Generated by software containing ST-Developer
 * from STEP Tools, Inc. (www.steptools.com) 
 */

FILE_DESCRIPTION(
/* description */ (''),
/* implementation_level */ '2;1');

FILE_NAME(
/* name */ 'plug.stp',
/* time_stamp */ '2026-05-12T19:36:32+02:00',
/* author */ ('szymo'),
/* organization */ (''),
/* preprocessor_version */ 'ST-DEVELOPER v20.1',
/* originating_system */ 'Autodesk Inventor 2026',
/* authorisation */ '');

FILE_SCHEMA (('AUTOMOTIVE_DESIGN { 1 0 10303 214 3 1 1 }'));
ENDSEC;

DATA;
#10=MECHANICAL_DESIGN_GEOMETRIC_PRESENTATION_REPRESENTATION('',(#13),#945);
#11=SHAPE_REPRESENTATION_RELATIONSHIP('SRR','None',#952,#12);
#12=ADVANCED_BREP_SHAPE_REPRESENTATION('',(#14),#944);
#13=STYLED_ITEM('',(#961),#14);
#14=MANIFOLD_SOLID_BREP('Bry\X2\0142\X0\a1',#547);
#15=CONICAL_SURFACE('',#603,2.3,0.785398163397448);
#16=CONICAL_SURFACE('',#606,2.3,0.785398163397448);
#17=CONICAL_SURFACE('',#609,2.3,0.785398163397448);
#18=CONICAL_SURFACE('',#612,2.3,0.785398163397448);
#19=CONICAL_SURFACE('',#615,2.3,0.785398163397448);
#20=CONICAL_SURFACE('',#618,2.3,0.785398163397448);
#21=CONICAL_SURFACE('',#621,2.3,0.785398163397448);
#22=FACE_BOUND('',#83,.T.);
#23=FACE_BOUND('',#84,.T.);
#24=FACE_BOUND('',#85,.T.);
#25=FACE_BOUND('',#86,.T.);
#26=FACE_BOUND('',#87,.T.);
#27=FACE_BOUND('',#88,.T.);
#28=FACE_BOUND('',#89,.T.);
#29=FACE_BOUND('',#94,.T.);
#30=FACE_BOUND('',#95,.T.);
#31=FACE_BOUND('',#96,.T.);
#32=FACE_BOUND('',#97,.T.);
#33=FACE_BOUND('',#98,.T.);
#34=FACE_BOUND('',#99,.T.);
#35=FACE_BOUND('',#100,.T.);
#36=PLANE('',#573);
#37=PLANE('',#577);
#38=PLANE('',#581);
#39=PLANE('',#582);
#40=PLANE('',#593);
#41=PLANE('',#594);
#42=PLANE('',#595);
#43=PLANE('',#624);
#44=PLANE('',#625);
#45=PLANE('',#626);
#46=PLANE('',#627);
#47=FACE_OUTER_BOUND('',#76,.T.);
#48=FACE_OUTER_BOUND('',#77,.T.);
#49=FACE_OUTER_BOUND('',#78,.T.);
#50=FACE_OUTER_BOUND('',#79,.T.);
#51=FACE_OUTER_BOUND('',#80,.T.);
#52=FACE_OUTER_BOUND('',#81,.T.);
#53=FACE_OUTER_BOUND('',#82,.T.);
#54=FACE_OUTER_BOUND('',#90,.T.);
#55=FACE_OUTER_BOUND('',#91,.T.);
#56=FACE_OUTER_BOUND('',#92,.T.);
#57=FACE_OUTER_BOUND('',#93,.T.);
#58=FACE_OUTER_BOUND('',#101,.T.);
#59=FACE_OUTER_BOUND('',#102,.T.);
#60=FACE_OUTER_BOUND('',#103,.T.);
#61=FACE_OUTER_BOUND('',#104,.T.);
#62=FACE_OUTER_BOUND('',#105,.T.);
#63=FACE_OUTER_BOUND('',#106,.T.);
#64=FACE_OUTER_BOUND('',#107,.T.);
#65=FACE_OUTER_BOUND('',#108,.T.);
#66=FACE_OUTER_BOUND('',#109,.T.);
#67=FACE_OUTER_BOUND('',#110,.T.);
#68=FACE_OUTER_BOUND('',#111,.T.);
#69=FACE_OUTER_BOUND('',#112,.T.);
#70=FACE_OUTER_BOUND('',#113,.T.);
#71=FACE_OUTER_BOUND('',#114,.T.);
#72=FACE_OUTER_BOUND('',#115,.T.);
#73=FACE_OUTER_BOUND('',#116,.T.);
#74=FACE_OUTER_BOUND('',#117,.T.);
#75=FACE_OUTER_BOUND('',#118,.T.);
#76=EDGE_LOOP('',(#359,#360,#361,#362));
#77=EDGE_LOOP('',(#363,#364,#365,#366));
#78=EDGE_LOOP('',(#367,#368,#369,#370));
#79=EDGE_LOOP('',(#371,#372,#373,#374));
#80=EDGE_LOOP('',(#375,#376,#377,#378));
#81=EDGE_LOOP('',(#379,#380,#381,#382));
#82=EDGE_LOOP('',(#383,#384,#385,#386,#387,#388,#389,#390,#391,#392,#393,
#394));
#83=EDGE_LOOP('',(#395));
#84=EDGE_LOOP('',(#396));
#85=EDGE_LOOP('',(#397));
#86=EDGE_LOOP('',(#398));
#87=EDGE_LOOP('',(#399));
#88=EDGE_LOOP('',(#400));
#89=EDGE_LOOP('',(#401));
#90=EDGE_LOOP('',(#402,#403,#404,#405));
#91=EDGE_LOOP('',(#406,#407,#408,#409));
#92=EDGE_LOOP('',(#410,#411,#412,#413));
#93=EDGE_LOOP('',(#414,#415,#416,#417,#418,#419,#420,#421,#422,#423,#424,
#425));
#94=EDGE_LOOP('',(#426));
#95=EDGE_LOOP('',(#427));
#96=EDGE_LOOP('',(#428));
#97=EDGE_LOOP('',(#429));
#98=EDGE_LOOP('',(#430));
#99=EDGE_LOOP('',(#431));
#100=EDGE_LOOP('',(#432));
#101=EDGE_LOOP('',(#433,#434,#435,#436));
#102=EDGE_LOOP('',(#437,#438,#439,#440));
#103=EDGE_LOOP('',(#441,#442,#443,#444));
#104=EDGE_LOOP('',(#445,#446,#447,#448));
#105=EDGE_LOOP('',(#449,#450,#451,#452));
#106=EDGE_LOOP('',(#453,#454,#455,#456));
#107=EDGE_LOOP('',(#457,#458,#459,#460));
#108=EDGE_LOOP('',(#461,#462,#463,#464));
#109=EDGE_LOOP('',(#465,#466,#467,#468));
#110=EDGE_LOOP('',(#469,#470,#471,#472));
#111=EDGE_LOOP('',(#473,#474,#475,#476));
#112=EDGE_LOOP('',(#477,#478,#479,#480));
#113=EDGE_LOOP('',(#481,#482,#483,#484));
#114=EDGE_LOOP('',(#485,#486,#487,#488));
#115=EDGE_LOOP('',(#489,#490,#491,#492));
#116=EDGE_LOOP('',(#493,#494,#495,#496,#497));
#117=EDGE_LOOP('',(#498,#499,#500,#501));
#118=EDGE_LOOP('',(#502,#503,#504,#505,#506));
#119=LINE('',#797,#164);
#120=LINE('',#800,#165);
#121=LINE('',#803,#166);
#122=LINE('',#805,#167);
#123=LINE('',#806,#168);
#124=LINE('',#812,#169);
#125=LINE('',#815,#170);
#126=LINE('',#818,#171);
#127=LINE('',#820,#172);
#128=LINE('',#821,#173);
#129=LINE('',#826,#174);
#130=LINE('',#830,#175);
#131=LINE('',#832,#176);
#132=LINE('',#833,#177);
#133=LINE('',#836,#178);
#134=LINE('',#838,#179);
#135=LINE('',#840,#180);
#136=LINE('',#841,#181);
#137=LINE('',#843,#182);
#138=LINE('',#862,#183);
#139=LINE('',#864,#184);
#140=LINE('',#867,#185);
#141=LINE('',#868,#186);
#142=LINE('',#871,#187);
#143=LINE('',#873,#188);
#144=LINE('',#874,#189);
#145=LINE('',#891,#190);
#146=LINE('',#894,#191);
#147=LINE('',#897,#192);
#148=LINE('',#900,#193);
#149=LINE('',#903,#194);
#150=LINE('',#906,#195);
#151=LINE('',#909,#196);
#152=LINE('',#912,#197);
#153=LINE('',#915,#198);
#154=LINE('',#918,#199);
#155=LINE('',#921,#200);
#156=LINE('',#924,#201);
#157=LINE('',#927,#202);
#158=LINE('',#930,#203);
#159=LINE('',#934,#204);
#160=LINE('',#935,#205);
#161=LINE('',#936,#206);
#162=LINE('',#938,#207);
#163=LINE('',#940,#208);
#164=VECTOR('',#634,10.);
#165=VECTOR('',#637,10.);
#166=VECTOR('',#640,10.);
#167=VECTOR('',#641,10.);
#168=VECTOR('',#642,10.);
#169=VECTOR('',#647,10.);
#170=VECTOR('',#650,10.);
#171=VECTOR('',#653,10.);
#172=VECTOR('',#654,10.);
#173=VECTOR('',#655,10.);
#174=VECTOR('',#660,10.);
#175=VECTOR('',#665,10.);
#176=VECTOR('',#666,10.);
#177=VECTOR('',#667,10.);
#178=VECTOR('',#670,10.);
#179=VECTOR('',#671,10.);
#180=VECTOR('',#672,10.);
#181=VECTOR('',#673,10.);
#182=VECTOR('',#674,10.);
#183=VECTOR('',#695,10.);
#184=VECTOR('',#698,10.);
#185=VECTOR('',#701,10.);
#186=VECTOR('',#702,10.);
#187=VECTOR('',#705,10.);
#188=VECTOR('',#706,10.);
#189=VECTOR('',#707,10.);
#190=VECTOR('',#724,2.3);
#191=VECTOR('',#729,1.6);
#192=VECTOR('',#732,2.3);
#193=VECTOR('',#737,1.6);
#194=VECTOR('',#740,2.3);
#195=VECTOR('',#745,1.6);
#196=VECTOR('',#748,2.3);
#197=VECTOR('',#753,1.6);
#198=VECTOR('',#756,2.3);
#199=VECTOR('',#761,1.6);
#200=VECTOR('',#764,2.3);
#201=VECTOR('',#769,1.6);
#202=VECTOR('',#772,2.3);
#203=VECTOR('',#777,1.6);
#204=VECTOR('',#780,10.);
#205=VECTOR('',#781,10.);
#206=VECTOR('',#782,10.);
#207=VECTOR('',#785,10.);
#208=VECTOR('',#788,10.);
#209=CIRCLE('',#571,1.);
#210=CIRCLE('',#572,1.);
#211=CIRCLE('',#575,1.);
#212=CIRCLE('',#576,1.);
#213=CIRCLE('',#579,1.);
#214=CIRCLE('',#580,1.);
#215=CIRCLE('',#583,1.);
#216=CIRCLE('',#584,3.);
#217=CIRCLE('',#585,3.);
#218=CIRCLE('',#586,3.);
#219=CIRCLE('',#587,3.);
#220=CIRCLE('',#588,3.);
#221=CIRCLE('',#589,3.);
#222=CIRCLE('',#590,3.);
#223=CIRCLE('',#592,1.);
#224=CIRCLE('',#596,1.6);
#225=CIRCLE('',#597,1.6);
#226=CIRCLE('',#598,1.6);
#227=CIRCLE('',#599,1.6);
#228=CIRCLE('',#600,1.6);
#229=CIRCLE('',#601,1.6);
#230=CIRCLE('',#602,1.6);
#231=CIRCLE('',#604,1.6);
#232=CIRCLE('',#607,1.6);
#233=CIRCLE('',#610,1.6);
#234=CIRCLE('',#613,1.6);
#235=CIRCLE('',#616,1.6);
#236=CIRCLE('',#619,1.6);
#237=CIRCLE('',#622,1.6);
#238=VERTEX_POINT('',#793);
#239=VERTEX_POINT('',#794);
#240=VERTEX_POINT('',#796);
#241=VERTEX_POINT('',#798);
#242=VERTEX_POINT('',#802);
#243=VERTEX_POINT('',#804);
#244=VERTEX_POINT('',#808);
#245=VERTEX_POINT('',#809);
#246=VERTEX_POINT('',#811);
#247=VERTEX_POINT('',#813);
#248=VERTEX_POINT('',#817);
#249=VERTEX_POINT('',#819);
#250=VERTEX_POINT('',#823);
#251=VERTEX_POINT('',#825);
#252=VERTEX_POINT('',#829);
#253=VERTEX_POINT('',#831);
#254=VERTEX_POINT('',#835);
#255=VERTEX_POINT('',#837);
#256=VERTEX_POINT('',#839);
#257=VERTEX_POINT('',#842);
#258=VERTEX_POINT('',#845);
#259=VERTEX_POINT('',#847);
#260=VERTEX_POINT('',#849);
#261=VERTEX_POINT('',#851);
#262=VERTEX_POINT('',#853);
#263=VERTEX_POINT('',#855);
#264=VERTEX_POINT('',#857);
#265=VERTEX_POINT('',#860);
#266=VERTEX_POINT('',#866);
#267=VERTEX_POINT('',#870);
#268=VERTEX_POINT('',#872);
#269=VERTEX_POINT('',#875);
#270=VERTEX_POINT('',#877);
#271=VERTEX_POINT('',#879);
#272=VERTEX_POINT('',#881);
#273=VERTEX_POINT('',#883);
#274=VERTEX_POINT('',#885);
#275=VERTEX_POINT('',#887);
#276=VERTEX_POINT('',#890);
#277=VERTEX_POINT('',#896);
#278=VERTEX_POINT('',#902);
#279=VERTEX_POINT('',#908);
#280=VERTEX_POINT('',#914);
#281=VERTEX_POINT('',#920);
#282=VERTEX_POINT('',#926);
#283=VERTEX_POINT('',#932);
#284=VERTEX_POINT('',#933);
#285=EDGE_CURVE('',#238,#239,#209,.T.);
#286=EDGE_CURVE('',#239,#240,#119,.T.);
#287=EDGE_CURVE('',#240,#241,#210,.T.);
#288=EDGE_CURVE('',#241,#238,#120,.T.);
#289=EDGE_CURVE('',#242,#239,#121,.T.);
#290=EDGE_CURVE('',#243,#242,#122,.T.);
#291=EDGE_CURVE('',#240,#243,#123,.T.);
#292=EDGE_CURVE('',#244,#245,#211,.T.);
#293=EDGE_CURVE('',#245,#246,#124,.T.);
#294=EDGE_CURVE('',#246,#247,#212,.T.);
#295=EDGE_CURVE('',#247,#244,#125,.T.);
#296=EDGE_CURVE('',#248,#245,#126,.T.);
#297=EDGE_CURVE('',#249,#248,#127,.T.);
#298=EDGE_CURVE('',#246,#249,#128,.T.);
#299=EDGE_CURVE('',#242,#250,#213,.T.);
#300=EDGE_CURVE('',#250,#251,#129,.T.);
#301=EDGE_CURVE('',#251,#243,#214,.T.);
#302=EDGE_CURVE('',#252,#250,#130,.T.);
#303=EDGE_CURVE('',#253,#252,#131,.T.);
#304=EDGE_CURVE('',#253,#251,#132,.T.);
#305=EDGE_CURVE('',#238,#254,#133,.T.);
#306=EDGE_CURVE('',#255,#254,#134,.T.);
#307=EDGE_CURVE('',#255,#256,#135,.T.);
#308=EDGE_CURVE('',#248,#256,#136,.T.);
#309=EDGE_CURVE('',#244,#257,#137,.T.);
#310=EDGE_CURVE('',#252,#257,#215,.T.);
#311=EDGE_CURVE('',#258,#258,#216,.T.);
#312=EDGE_CURVE('',#259,#259,#217,.T.);
#313=EDGE_CURVE('',#260,#260,#218,.T.);
#314=EDGE_CURVE('',#261,#261,#219,.T.);
#315=EDGE_CURVE('',#262,#262,#220,.T.);
#316=EDGE_CURVE('',#263,#263,#221,.T.);
#317=EDGE_CURVE('',#264,#264,#222,.T.);
#318=EDGE_CURVE('',#265,#253,#223,.T.);
#319=EDGE_CURVE('',#257,#265,#138,.T.);
#320=EDGE_CURVE('',#265,#247,#139,.T.);
#321=EDGE_CURVE('',#266,#241,#140,.T.);
#322=EDGE_CURVE('',#254,#266,#141,.T.);
#323=EDGE_CURVE('',#267,#249,#142,.T.);
#324=EDGE_CURVE('',#267,#268,#143,.T.);
#325=EDGE_CURVE('',#266,#268,#144,.T.);
#326=EDGE_CURVE('',#269,#269,#224,.T.);
#327=EDGE_CURVE('',#270,#270,#225,.T.);
#328=EDGE_CURVE('',#271,#271,#226,.T.);
#329=EDGE_CURVE('',#272,#272,#227,.T.);
#330=EDGE_CURVE('',#273,#273,#228,.T.);
#331=EDGE_CURVE('',#274,#274,#229,.T.);
#332=EDGE_CURVE('',#275,#275,#230,.T.);
#333=EDGE_CURVE('',#258,#276,#145,.T.);
#334=EDGE_CURVE('',#276,#276,#231,.T.);
#335=EDGE_CURVE('',#276,#275,#146,.T.);
#336=EDGE_CURVE('',#259,#277,#147,.T.);
#337=EDGE_CURVE('',#277,#277,#232,.T.);
#338=EDGE_CURVE('',#277,#274,#148,.T.);
#339=EDGE_CURVE('',#260,#278,#149,.T.);
#340=EDGE_CURVE('',#278,#278,#233,.T.);
#341=EDGE_CURVE('',#278,#273,#150,.T.);
#342=EDGE_CURVE('',#261,#279,#151,.T.);
#343=EDGE_CURVE('',#279,#279,#234,.T.);
#344=EDGE_CURVE('',#279,#272,#152,.T.);
#345=EDGE_CURVE('',#262,#280,#153,.T.);
#346=EDGE_CURVE('',#280,#280,#235,.T.);
#347=EDGE_CURVE('',#280,#271,#154,.T.);
#348=EDGE_CURVE('',#263,#281,#155,.T.);
#349=EDGE_CURVE('',#281,#281,#236,.T.);
#350=EDGE_CURVE('',#281,#270,#156,.T.);
#351=EDGE_CURVE('',#264,#282,#157,.T.);
#352=EDGE_CURVE('',#282,#282,#237,.T.);
#353=EDGE_CURVE('',#282,#269,#158,.T.);
#354=EDGE_CURVE('',#283,#284,#159,.T.);
#355=EDGE_CURVE('',#268,#284,#160,.T.);
#356=EDGE_CURVE('',#283,#267,#161,.T.);
#357=EDGE_CURVE('',#256,#283,#162,.T.);
#358=EDGE_CURVE('',#284,#255,#163,.T.);
#359=ORIENTED_EDGE('',*,*,#285,.T.);
#360=ORIENTED_EDGE('',*,*,#286,.T.);
#361=ORIENTED_EDGE('',*,*,#287,.T.);
#362=ORIENTED_EDGE('',*,*,#288,.T.);
#363=ORIENTED_EDGE('',*,*,#286,.F.);
#364=ORIENTED_EDGE('',*,*,#289,.F.);
#365=ORIENTED_EDGE('',*,*,#290,.F.);
#366=ORIENTED_EDGE('',*,*,#291,.F.);
#367=ORIENTED_EDGE('',*,*,#292,.T.);
#368=ORIENTED_EDGE('',*,*,#293,.T.);
#369=ORIENTED_EDGE('',*,*,#294,.T.);
#370=ORIENTED_EDGE('',*,*,#295,.T.);
#371=ORIENTED_EDGE('',*,*,#293,.F.);
#372=ORIENTED_EDGE('',*,*,#296,.F.);
#373=ORIENTED_EDGE('',*,*,#297,.F.);
#374=ORIENTED_EDGE('',*,*,#298,.F.);
#375=ORIENTED_EDGE('',*,*,#299,.T.);
#376=ORIENTED_EDGE('',*,*,#300,.T.);
#377=ORIENTED_EDGE('',*,*,#301,.T.);
#378=ORIENTED_EDGE('',*,*,#290,.T.);
#379=ORIENTED_EDGE('',*,*,#300,.F.);
#380=ORIENTED_EDGE('',*,*,#302,.F.);
#381=ORIENTED_EDGE('',*,*,#303,.F.);
#382=ORIENTED_EDGE('',*,*,#304,.T.);
#383=ORIENTED_EDGE('',*,*,#299,.F.);
#384=ORIENTED_EDGE('',*,*,#289,.T.);
#385=ORIENTED_EDGE('',*,*,#285,.F.);
#386=ORIENTED_EDGE('',*,*,#305,.T.);
#387=ORIENTED_EDGE('',*,*,#306,.F.);
#388=ORIENTED_EDGE('',*,*,#307,.T.);
#389=ORIENTED_EDGE('',*,*,#308,.F.);
#390=ORIENTED_EDGE('',*,*,#296,.T.);
#391=ORIENTED_EDGE('',*,*,#292,.F.);
#392=ORIENTED_EDGE('',*,*,#309,.T.);
#393=ORIENTED_EDGE('',*,*,#310,.F.);
#394=ORIENTED_EDGE('',*,*,#302,.T.);
#395=ORIENTED_EDGE('',*,*,#311,.T.);
#396=ORIENTED_EDGE('',*,*,#312,.T.);
#397=ORIENTED_EDGE('',*,*,#313,.T.);
#398=ORIENTED_EDGE('',*,*,#314,.T.);
#399=ORIENTED_EDGE('',*,*,#315,.T.);
#400=ORIENTED_EDGE('',*,*,#316,.T.);
#401=ORIENTED_EDGE('',*,*,#317,.T.);
#402=ORIENTED_EDGE('',*,*,#318,.T.);
#403=ORIENTED_EDGE('',*,*,#303,.T.);
#404=ORIENTED_EDGE('',*,*,#310,.T.);
#405=ORIENTED_EDGE('',*,*,#319,.T.);
#406=ORIENTED_EDGE('',*,*,#295,.F.);
#407=ORIENTED_EDGE('',*,*,#320,.F.);
#408=ORIENTED_EDGE('',*,*,#319,.F.);
#409=ORIENTED_EDGE('',*,*,#309,.F.);
#410=ORIENTED_EDGE('',*,*,#288,.F.);
#411=ORIENTED_EDGE('',*,*,#321,.F.);
#412=ORIENTED_EDGE('',*,*,#322,.F.);
#413=ORIENTED_EDGE('',*,*,#305,.F.);
#414=ORIENTED_EDGE('',*,*,#301,.F.);
#415=ORIENTED_EDGE('',*,*,#304,.F.);
#416=ORIENTED_EDGE('',*,*,#318,.F.);
#417=ORIENTED_EDGE('',*,*,#320,.T.);
#418=ORIENTED_EDGE('',*,*,#294,.F.);
#419=ORIENTED_EDGE('',*,*,#298,.T.);
#420=ORIENTED_EDGE('',*,*,#323,.F.);
#421=ORIENTED_EDGE('',*,*,#324,.T.);
#422=ORIENTED_EDGE('',*,*,#325,.F.);
#423=ORIENTED_EDGE('',*,*,#321,.T.);
#424=ORIENTED_EDGE('',*,*,#287,.F.);
#425=ORIENTED_EDGE('',*,*,#291,.T.);
#426=ORIENTED_EDGE('',*,*,#326,.T.);
#427=ORIENTED_EDGE('',*,*,#327,.T.);
#428=ORIENTED_EDGE('',*,*,#328,.T.);
#429=ORIENTED_EDGE('',*,*,#329,.T.);
#430=ORIENTED_EDGE('',*,*,#330,.T.);
#431=ORIENTED_EDGE('',*,*,#331,.T.);
#432=ORIENTED_EDGE('',*,*,#332,.T.);
#433=ORIENTED_EDGE('',*,*,#311,.F.);
#434=ORIENTED_EDGE('',*,*,#333,.T.);
#435=ORIENTED_EDGE('',*,*,#334,.F.);
#436=ORIENTED_EDGE('',*,*,#333,.F.);
#437=ORIENTED_EDGE('',*,*,#334,.T.);
#438=ORIENTED_EDGE('',*,*,#335,.T.);
#439=ORIENTED_EDGE('',*,*,#332,.F.);
#440=ORIENTED_EDGE('',*,*,#335,.F.);
#441=ORIENTED_EDGE('',*,*,#312,.F.);
#442=ORIENTED_EDGE('',*,*,#336,.T.);
#443=ORIENTED_EDGE('',*,*,#337,.F.);
#444=ORIENTED_EDGE('',*,*,#336,.F.);
#445=ORIENTED_EDGE('',*,*,#337,.T.);
#446=ORIENTED_EDGE('',*,*,#338,.T.);
#447=ORIENTED_EDGE('',*,*,#331,.F.);
#448=ORIENTED_EDGE('',*,*,#338,.F.);
#449=ORIENTED_EDGE('',*,*,#313,.F.);
#450=ORIENTED_EDGE('',*,*,#339,.T.);
#451=ORIENTED_EDGE('',*,*,#340,.F.);
#452=ORIENTED_EDGE('',*,*,#339,.F.);
#453=ORIENTED_EDGE('',*,*,#340,.T.);
#454=ORIENTED_EDGE('',*,*,#341,.T.);
#455=ORIENTED_EDGE('',*,*,#330,.F.);
#456=ORIENTED_EDGE('',*,*,#341,.F.);
#457=ORIENTED_EDGE('',*,*,#314,.F.);
#458=ORIENTED_EDGE('',*,*,#342,.T.);
#459=ORIENTED_EDGE('',*,*,#343,.F.);
#460=ORIENTED_EDGE('',*,*,#342,.F.);
#461=ORIENTED_EDGE('',*,*,#343,.T.);
#462=ORIENTED_EDGE('',*,*,#344,.T.);
#463=ORIENTED_EDGE('',*,*,#329,.F.);
#464=ORIENTED_EDGE('',*,*,#344,.F.);
#465=ORIENTED_EDGE('',*,*,#315,.F.);
#466=ORIENTED_EDGE('',*,*,#345,.T.);
#467=ORIENTED_EDGE('',*,*,#346,.F.);
#468=ORIENTED_EDGE('',*,*,#345,.F.);
#469=ORIENTED_EDGE('',*,*,#346,.T.);
#470=ORIENTED_EDGE('',*,*,#347,.T.);
#471=ORIENTED_EDGE('',*,*,#328,.F.);
#472=ORIENTED_EDGE('',*,*,#347,.F.);
#473=ORIENTED_EDGE('',*,*,#316,.F.);
#474=ORIENTED_EDGE('',*,*,#348,.T.);
#475=ORIENTED_EDGE('',*,*,#349,.F.);
#476=ORIENTED_EDGE('',*,*,#348,.F.);
#477=ORIENTED_EDGE('',*,*,#349,.T.);
#478=ORIENTED_EDGE('',*,*,#350,.T.);
#479=ORIENTED_EDGE('',*,*,#327,.F.);
#480=ORIENTED_EDGE('',*,*,#350,.F.);
#481=ORIENTED_EDGE('',*,*,#317,.F.);
#482=ORIENTED_EDGE('',*,*,#351,.T.);
#483=ORIENTED_EDGE('',*,*,#352,.F.);
#484=ORIENTED_EDGE('',*,*,#351,.F.);
#485=ORIENTED_EDGE('',*,*,#352,.T.);
#486=ORIENTED_EDGE('',*,*,#353,.T.);
#487=ORIENTED_EDGE('',*,*,#326,.F.);
#488=ORIENTED_EDGE('',*,*,#353,.F.);
#489=ORIENTED_EDGE('',*,*,#354,.T.);
#490=ORIENTED_EDGE('',*,*,#355,.F.);
#491=ORIENTED_EDGE('',*,*,#324,.F.);
#492=ORIENTED_EDGE('',*,*,#356,.F.);
#493=ORIENTED_EDGE('',*,*,#297,.T.);
#494=ORIENTED_EDGE('',*,*,#308,.T.);
#495=ORIENTED_EDGE('',*,*,#357,.T.);
#496=ORIENTED_EDGE('',*,*,#356,.T.);
#497=ORIENTED_EDGE('',*,*,#323,.T.);
#498=ORIENTED_EDGE('',*,*,#307,.F.);
#499=ORIENTED_EDGE('',*,*,#358,.F.);
#500=ORIENTED_EDGE('',*,*,#354,.F.);
#501=ORIENTED_EDGE('',*,*,#357,.F.);
#502=ORIENTED_EDGE('',*,*,#322,.T.);
#503=ORIENTED_EDGE('',*,*,#325,.T.);
#504=ORIENTED_EDGE('',*,*,#355,.T.);
#505=ORIENTED_EDGE('',*,*,#358,.T.);
#506=ORIENTED_EDGE('',*,*,#306,.T.);
#507=CYLINDRICAL_SURFACE('',#570,1.);
#508=CYLINDRICAL_SURFACE('',#574,1.);
#509=CYLINDRICAL_SURFACE('',#578,1.);
#510=CYLINDRICAL_SURFACE('',#591,1.);
#511=CYLINDRICAL_SURFACE('',#605,1.6);
#512=CYLINDRICAL_SURFACE('',#608,1.6);
#513=CYLINDRICAL_SURFACE('',#611,1.6);
#514=CYLINDRICAL_SURFACE('',#614,1.6);
#515=CYLINDRICAL_SURFACE('',#617,1.6);
#516=CYLINDRICAL_SURFACE('',#620,1.6);
#517=CYLINDRICAL_SURFACE('',#623,1.6);
#518=ADVANCED_FACE('',(#47),#507,.F.);
#519=ADVANCED_FACE('',(#48),#36,.F.);
#520=ADVANCED_FACE('',(#49),#508,.F.);
#521=ADVANCED_FACE('',(#50),#37,.F.);
#522=ADVANCED_FACE('',(#51),#509,.T.);
#523=ADVANCED_FACE('',(#52),#38,.T.);
#524=ADVANCED_FACE('',(#53,#22,#23,#24,#25,#26,#27,#28),#39,.T.);
#525=ADVANCED_FACE('',(#54),#510,.T.);
#526=ADVANCED_FACE('',(#55),#40,.F.);
#527=ADVANCED_FACE('',(#56),#41,.F.);
#528=ADVANCED_FACE('',(#57,#29,#30,#31,#32,#33,#34,#35),#42,.T.);
#529=ADVANCED_FACE('',(#58),#15,.F.);
#530=ADVANCED_FACE('',(#59),#511,.F.);
#531=ADVANCED_FACE('',(#60),#16,.F.);
#532=ADVANCED_FACE('',(#61),#512,.F.);
#533=ADVANCED_FACE('',(#62),#17,.F.);
#534=ADVANCED_FACE('',(#63),#513,.F.);
#535=ADVANCED_FACE('',(#64),#18,.F.);
#536=ADVANCED_FACE('',(#65),#514,.F.);
#537=ADVANCED_FACE('',(#66),#19,.F.);
#538=ADVANCED_FACE('',(#67),#515,.F.);
#539=ADVANCED_FACE('',(#68),#20,.F.);
#540=ADVANCED_FACE('',(#69),#516,.F.);
#541=ADVANCED_FACE('',(#70),#21,.F.);
#542=ADVANCED_FACE('',(#71),#517,.F.);
#543=ADVANCED_FACE('',(#72),#43,.T.);
#544=ADVANCED_FACE('',(#73),#44,.T.);
#545=ADVANCED_FACE('',(#74),#45,.T.);
#546=ADVANCED_FACE('',(#75),#46,.T.);
#547=CLOSED_SHELL('',(#518,#519,#520,#521,#522,#523,#524,#525,#526,#527,
#528,#529,#530,#531,#532,#533,#534,#535,#536,#537,#538,#539,#540,#541,#542,
#543,#544,#545,#546));
#548=DERIVED_UNIT_ELEMENT(#551,1.);
#549=DERIVED_UNIT_ELEMENT(#947,-3.);
#550=DIMENSIONAL_EXPONENTS(0.,1.,0.,0.,0.,0.,0.);
#551=(
CONVERSION_BASED_UNIT('gram',#553)
MASS_UNIT()
NAMED_UNIT(#550)
);
#552=(
MASS_UNIT()
NAMED_UNIT(*)
SI_UNIT(.KILO.,.GRAM.)
);
#553=MASS_MEASURE_WITH_UNIT(MASS_MEASURE(0.001),#552);
#554=DERIVED_UNIT((#548,#549));
#555=MEASURE_REPRESENTATION_ITEM('density measure',
POSITIVE_RATIO_MEASURE(7.85),#554);
#556=PROPERTY_DEFINITION_REPRESENTATION(#561,#558);
#557=PROPERTY_DEFINITION_REPRESENTATION(#562,#559);
#558=REPRESENTATION('material name',(#560),#944);
#559=REPRESENTATION('density',(#555),#944);
#560=DESCRIPTIVE_REPRESENTATION_ITEM('Steel, Carbon','Steel, Carbon');
#561=PROPERTY_DEFINITION('material property','material name',#954);
#562=PROPERTY_DEFINITION('material property','density of part',#954);
#563=DATE_TIME_ROLE('creation_date');
#564=APPLIED_DATE_AND_TIME_ASSIGNMENT(#565,#563,(#954));
#565=DATE_AND_TIME(#566,#567);
#566=CALENDAR_DATE(2022,27,1);
#567=LOCAL_TIME(0,0,0.,#568);
#568=COORDINATED_UNIVERSAL_TIME_OFFSET(0,0,.BEHIND.);
#569=AXIS2_PLACEMENT_3D('',#791,#628,#629);
#570=AXIS2_PLACEMENT_3D('',#792,#630,#631);
#571=AXIS2_PLACEMENT_3D('',#795,#632,#633);
#572=AXIS2_PLACEMENT_3D('',#799,#635,#636);
#573=AXIS2_PLACEMENT_3D('',#801,#638,#639);
#574=AXIS2_PLACEMENT_3D('',#807,#643,#644);
#575=AXIS2_PLACEMENT_3D('',#810,#645,#646);
#576=AXIS2_PLACEMENT_3D('',#814,#648,#649);
#577=AXIS2_PLACEMENT_3D('',#816,#651,#652);
#578=AXIS2_PLACEMENT_3D('',#822,#656,#657);
#579=AXIS2_PLACEMENT_3D('',#824,#658,#659);
#580=AXIS2_PLACEMENT_3D('',#827,#661,#662);
#581=AXIS2_PLACEMENT_3D('',#828,#663,#664);
#582=AXIS2_PLACEMENT_3D('',#834,#668,#669);
#583=AXIS2_PLACEMENT_3D('',#844,#675,#676);
#584=AXIS2_PLACEMENT_3D('',#846,#677,#678);
#585=AXIS2_PLACEMENT_3D('',#848,#679,#680);
#586=AXIS2_PLACEMENT_3D('',#850,#681,#682);
#587=AXIS2_PLACEMENT_3D('',#852,#683,#684);
#588=AXIS2_PLACEMENT_3D('',#854,#685,#686);
#589=AXIS2_PLACEMENT_3D('',#856,#687,#688);
#590=AXIS2_PLACEMENT_3D('',#858,#689,#690);
#591=AXIS2_PLACEMENT_3D('',#859,#691,#692);
#592=AXIS2_PLACEMENT_3D('',#861,#693,#694);
#593=AXIS2_PLACEMENT_3D('',#863,#696,#697);
#594=AXIS2_PLACEMENT_3D('',#865,#699,#700);
#595=AXIS2_PLACEMENT_3D('',#869,#703,#704);
#596=AXIS2_PLACEMENT_3D('',#876,#708,#709);
#597=AXIS2_PLACEMENT_3D('',#878,#710,#711);
#598=AXIS2_PLACEMENT_3D('',#880,#712,#713);
#599=AXIS2_PLACEMENT_3D('',#882,#714,#715);
#600=AXIS2_PLACEMENT_3D('',#884,#716,#717);
#601=AXIS2_PLACEMENT_3D('',#886,#718,#719);
#602=AXIS2_PLACEMENT_3D('',#888,#720,#721);
#603=AXIS2_PLACEMENT_3D('',#889,#722,#723);
#604=AXIS2_PLACEMENT_3D('',#892,#725,#726);
#605=AXIS2_PLACEMENT_3D('',#893,#727,#728);
#606=AXIS2_PLACEMENT_3D('',#895,#730,#731);
#607=AXIS2_PLACEMENT_3D('',#898,#733,#734);
#608=AXIS2_PLACEMENT_3D('',#899,#735,#736);
#609=AXIS2_PLACEMENT_3D('',#901,#738,#739);
#610=AXIS2_PLACEMENT_3D('',#904,#741,#742);
#611=AXIS2_PLACEMENT_3D('',#905,#743,#744);
#612=AXIS2_PLACEMENT_3D('',#907,#746,#747);
#613=AXIS2_PLACEMENT_3D('',#910,#749,#750);
#614=AXIS2_PLACEMENT_3D('',#911,#751,#752);
#615=AXIS2_PLACEMENT_3D('',#913,#754,#755);
#616=AXIS2_PLACEMENT_3D('',#916,#757,#758);
#617=AXIS2_PLACEMENT_3D('',#917,#759,#760);
#618=AXIS2_PLACEMENT_3D('',#919,#762,#763);
#619=AXIS2_PLACEMENT_3D('',#922,#765,#766);
#620=AXIS2_PLACEMENT_3D('',#923,#767,#768);
#621=AXIS2_PLACEMENT_3D('',#925,#770,#771);
#622=AXIS2_PLACEMENT_3D('',#928,#773,#774);
#623=AXIS2_PLACEMENT_3D('',#929,#775,#776);
#624=AXIS2_PLACEMENT_3D('',#931,#778,#779);
#625=AXIS2_PLACEMENT_3D('',#937,#783,#784);
#626=AXIS2_PLACEMENT_3D('',#939,#786,#787);
#627=AXIS2_PLACEMENT_3D('',#941,#789,#790);
#628=DIRECTION('axis',(0.,0.,1.));
#629=DIRECTION('refdir',(1.,0.,0.));
#630=DIRECTION('center_axis',(0.,1.,0.));
#631=DIRECTION('ref_axis',(-0.707106781186551,0.,0.707106781186544));
#632=DIRECTION('center_axis',(0.,-1.,-2.44929359829471E-16));
#633=DIRECTION('ref_axis',(-0.707106781186551,0.,0.707106781186544));
#634=DIRECTION('',(0.,1.,0.));
#635=DIRECTION('center_axis',(0.,1.,1.14287664299648E-16));
#636=DIRECTION('ref_axis',(-0.707106781186551,0.,0.707106781186544));
#637=DIRECTION('',(0.,-1.,0.));
#638=DIRECTION('center_axis',(-1.,0.,-5.18432418690243E-16));
#639=DIRECTION('ref_axis',(-5.18432418690243E-16,-2.44929359829471E-16,
1.));
#640=DIRECTION('',(-5.18432418690243E-16,-2.44929359829471E-16,1.));
#641=DIRECTION('',(0.,-1.,0.));
#642=DIRECTION('',(5.18432418690243E-16,1.14287664299648E-16,-1.));
#643=DIRECTION('center_axis',(0.,1.,3.44255201434157E-16));
#644=DIRECTION('ref_axis',(0.707106781186549,-2.43425187392832E-16,0.707106781186546));
#645=DIRECTION('center_axis',(0.,-1.,-2.44929359829471E-16));
#646=DIRECTION('ref_axis',(0.707106781186549,-2.43425187392832E-16,0.707106781186546));
#647=DIRECTION('',(0.,1.,3.44255201434157E-16));
#648=DIRECTION('center_axis',(0.,1.,1.14287664299648E-16));
#649=DIRECTION('ref_axis',(0.707106781186549,-2.43425187392832E-16,0.707106781186546));
#650=DIRECTION('',(0.,-1.,-3.44255201434157E-16));
#651=DIRECTION('center_axis',(0.,-3.44255201434157E-16,1.));
#652=DIRECTION('ref_axis',(1.,0.,0.));
#653=DIRECTION('',(1.,0.,0.));
#654=DIRECTION('',(0.,-1.,-3.44255201434157E-16));
#655=DIRECTION('',(-1.,0.,0.));
#656=DIRECTION('center_axis',(0.,-1.,0.));
#657=DIRECTION('ref_axis',(0.707106781186544,0.,-0.707106781186551));
#658=DIRECTION('center_axis',(0.,1.,2.44929359829471E-16));
#659=DIRECTION('ref_axis',(0.707106781186544,0.,-0.707106781186551));
#660=DIRECTION('',(0.,1.,0.));
#661=DIRECTION('center_axis',(0.,-1.,-1.14287664299648E-16));
#662=DIRECTION('ref_axis',(0.707106781186544,0.,-0.707106781186551));
#663=DIRECTION('center_axis',(0.,0.,-1.));
#664=DIRECTION('ref_axis',(0.,1.,0.));
#665=DIRECTION('',(1.,0.,0.));
#666=DIRECTION('',(0.,-1.,0.));
#667=DIRECTION('',(1.,0.,0.));
#668=DIRECTION('center_axis',(0.,-1.,-2.44929359829471E-16));
#669=DIRECTION('ref_axis',(0.,2.44929359829471E-16,-1.));
#670=DIRECTION('',(1.,0.,0.));
#671=DIRECTION('',(0.,2.44929359829471E-16,-1.));
#672=DIRECTION('',(-1.,0.,0.));
#673=DIRECTION('',(0.,-2.44929359829471E-16,1.));
#674=DIRECTION('',(0.,2.44929359829471E-16,-1.));
#675=DIRECTION('center_axis',(0.,1.,2.44929359829471E-16));
#676=DIRECTION('ref_axis',(-0.707106781186544,0.,-0.707106781186551));
#677=DIRECTION('center_axis',(0.,1.,2.44929359829471E-16));
#678=DIRECTION('ref_axis',(1.,0.,0.));
#679=DIRECTION('center_axis',(0.,1.,2.44929359829471E-16));
#680=DIRECTION('ref_axis',(1.,0.,0.));
#681=DIRECTION('center_axis',(0.,1.,2.44929359829471E-16));
#682=DIRECTION('ref_axis',(1.,0.,0.));
#683=DIRECTION('center_axis',(0.,1.,2.44929359829471E-16));
#684=DIRECTION('ref_axis',(1.,0.,0.));
#685=DIRECTION('center_axis',(0.,1.,2.44929359829471E-16));
#686=DIRECTION('ref_axis',(1.,0.,0.));
#687=DIRECTION('center_axis',(0.,1.,2.44929359829471E-16));
#688=DIRECTION('ref_axis',(1.,0.,0.));
#689=DIRECTION('center_axis',(0.,1.,2.44929359829471E-16));
#690=DIRECTION('ref_axis',(1.,0.,0.));
#691=DIRECTION('center_axis',(0.,1.,0.));
#692=DIRECTION('ref_axis',(-0.707106781186544,0.,-0.707106781186551));
#693=DIRECTION('center_axis',(0.,-1.,-1.14287664299648E-16));
#694=DIRECTION('ref_axis',(-0.707106781186544,0.,-0.707106781186551));
#695=DIRECTION('',(0.,1.,0.));
#696=DIRECTION('center_axis',(1.,0.,0.));
#697=DIRECTION('ref_axis',(0.,2.44929359829471E-16,-1.));
#698=DIRECTION('',(0.,-1.14287664299648E-16,1.));
#699=DIRECTION('center_axis',(0.,0.,1.));
#700=DIRECTION('ref_axis',(1.,0.,0.));
#701=DIRECTION('',(-1.,0.,0.));
#702=DIRECTION('',(0.,1.,0.));
#703=DIRECTION('center_axis',(0.,1.,1.14287664299648E-16));
#704=DIRECTION('ref_axis',(0.,-1.14287664299648E-16,1.));
#705=DIRECTION('',(0.,1.14287664299648E-16,-1.));
#706=DIRECTION('',(1.,0.,0.));
#707=DIRECTION('',(0.,-1.14287664299648E-16,1.));
#708=DIRECTION('center_axis',(0.,-1.,-1.14287664299648E-16));
#709=DIRECTION('ref_axis',(1.,0.,0.));
#710=DIRECTION('center_axis',(0.,-1.,-1.14287664299648E-16));
#711=DIRECTION('ref_axis',(1.,0.,0.));
#712=DIRECTION('center_axis',(0.,-1.,-1.14287664299648E-16));
#713=DIRECTION('ref_axis',(1.,0.,0.));
#714=DIRECTION('center_axis',(0.,-1.,-1.14287664299648E-16));
#715=DIRECTION('ref_axis',(1.,0.,0.));
#716=DIRECTION('center_axis',(0.,-1.,-1.14287664299648E-16));
#717=DIRECTION('ref_axis',(1.,0.,0.));
#718=DIRECTION('center_axis',(0.,-1.,-1.14287664299648E-16));
#719=DIRECTION('ref_axis',(1.,0.,0.));
#720=DIRECTION('center_axis',(0.,-1.,-1.14287664299648E-16));
#721=DIRECTION('ref_axis',(1.,0.,0.));
#722=DIRECTION('center_axis',(0.,-1.,-2.44929359829471E-16));
#723=DIRECTION('ref_axis',(1.,0.,0.));
#724=DIRECTION('',(0.707106781186547,0.707106781186548,2.59786816870648E-16));
#725=DIRECTION('center_axis',(0.,-1.,-2.44929359829471E-16));
#726=DIRECTION('ref_axis',(1.,0.,0.));
#727=DIRECTION('center_axis',(0.,-1.,-2.44929359829471E-16));
#728=DIRECTION('ref_axis',(1.,0.,0.));
#729=DIRECTION('',(0.,1.,2.44929359829471E-16));
#730=DIRECTION('center_axis',(0.,-1.,-2.44929359829471E-16));
#731=DIRECTION('ref_axis',(1.,0.,0.));
#732=DIRECTION('',(0.707106781186547,0.707106781186548,2.59786816870648E-16));
#733=DIRECTION('center_axis',(0.,-1.,-2.44929359829471E-16));
#734=DIRECTION('ref_axis',(1.,0.,0.));
#735=DIRECTION('center_axis',(0.,-1.,-2.44929359829471E-16));
#736=DIRECTION('ref_axis',(1.,0.,0.));
#737=DIRECTION('',(0.,1.,2.44929359829471E-16));
#738=DIRECTION('center_axis',(0.,-1.,-2.44929359829471E-16));
#739=DIRECTION('ref_axis',(1.,0.,0.));
#740=DIRECTION('',(0.707106781186547,0.707106781186548,2.59786816870648E-16));
#741=DIRECTION('center_axis',(0.,-1.,-2.44929359829471E-16));
#742=DIRECTION('ref_axis',(1.,0.,0.));
#743=DIRECTION('center_axis',(0.,-1.,-2.44929359829471E-16));
#744=DIRECTION('ref_axis',(1.,0.,0.));
#745=DIRECTION('',(0.,1.,2.44929359829471E-16));
#746=DIRECTION('center_axis',(0.,-1.,-2.44929359829471E-16));
#747=DIRECTION('ref_axis',(1.,0.,0.));
#748=DIRECTION('',(0.707106781186547,0.707106781186548,2.59786816870648E-16));
#749=DIRECTION('center_axis',(0.,-1.,-2.44929359829471E-16));
#750=DIRECTION('ref_axis',(1.,0.,0.));
#751=DIRECTION('center_axis',(0.,-1.,-2.44929359829471E-16));
#752=DIRECTION('ref_axis',(1.,0.,0.));
#753=DIRECTION('',(0.,1.,2.44929359829471E-16));
#754=DIRECTION('center_axis',(0.,-1.,-2.44929359829471E-16));
#755=DIRECTION('ref_axis',(1.,0.,0.));
#756=DIRECTION('',(0.707106781186547,0.707106781186548,2.59786816870648E-16));
#757=DIRECTION('center_axis',(0.,-1.,-2.44929359829471E-16));
#758=DIRECTION('ref_axis',(1.,0.,0.));
#759=DIRECTION('center_axis',(0.,-1.,-2.44929359829471E-16));
#760=DIRECTION('ref_axis',(1.,0.,0.));
#761=DIRECTION('',(0.,1.,2.44929359829471E-16));
#762=DIRECTION('center_axis',(0.,-1.,-2.44929359829471E-16));
#763=DIRECTION('ref_axis',(1.,0.,0.));
#764=DIRECTION('',(0.707106781186547,0.707106781186548,2.59786816870648E-16));
#765=DIRECTION('center_axis',(0.,-1.,-2.44929359829471E-16));
#766=DIRECTION('ref_axis',(1.,0.,0.));
#767=DIRECTION('center_axis',(0.,-1.,-2.44929359829471E-16));
#768=DIRECTION('ref_axis',(1.,0.,0.));
#769=DIRECTION('',(0.,1.,2.44929359829471E-16));
#770=DIRECTION('center_axis',(0.,-1.,-2.44929359829471E-16));
#771=DIRECTION('ref_axis',(1.,0.,0.));
#772=DIRECTION('',(0.707106781186547,0.707106781186548,2.59786816870648E-16));
#773=DIRECTION('center_axis',(0.,-1.,-2.44929359829471E-16));
#774=DIRECTION('ref_axis',(1.,0.,0.));
#775=DIRECTION('center_axis',(0.,-1.,-2.44929359829471E-16));
#776=DIRECTION('ref_axis',(1.,0.,0.));
#777=DIRECTION('',(0.,1.,2.44929359829471E-16));
#778=DIRECTION('center_axis',(0.,0.,-1.));
#779=DIRECTION('ref_axis',(0.,1.,0.));
#780=DIRECTION('',(1.,0.,0.));
#781=DIRECTION('',(0.,1.,0.));
#782=DIRECTION('',(0.,-1.,0.));
#783=DIRECTION('center_axis',(-1.,0.,0.));
#784=DIRECTION('ref_axis',(0.,0.,1.));
#785=DIRECTION('',(0.,0.707106781186548,-0.707106781186547));
#786=DIRECTION('center_axis',(0.,0.707106781186547,0.707106781186548));
#787=DIRECTION('ref_axis',(0.,-0.707106781186548,0.707106781186547));
#788=DIRECTION('',(0.,-0.707106781186548,0.707106781186547));
#789=DIRECTION('center_axis',(1.,0.,0.));
#790=DIRECTION('ref_axis',(0.,0.,-1.));
#791=CARTESIAN_POINT('',(0.,0.,0.));
#792=CARTESIAN_POINT('Origin',(30.5,5.77200529374131E-15,-16.));
#793=CARTESIAN_POINT('',(30.5,3.67394039744206E-15,-15.));
#794=CARTESIAN_POINT('',(29.5,3.91886975727153E-15,-16.));
#795=CARTESIAN_POINT('Origin',(30.5,-9.86076131526265E-31,-16.));
#796=CARTESIAN_POINT('',(29.5,2.,-16.));
#797=CARTESIAN_POINT('',(29.5,5.77200529374131E-15,-16.));
#798=CARTESIAN_POINT('',(30.5,2.,-15.));
#799=CARTESIAN_POINT('Origin',(30.5,2.,-16.));
#800=CARTESIAN_POINT('',(30.5,5.77200529374131E-15,-15.));
#801=CARTESIAN_POINT('Origin',(29.5,7.87007019004055E-15,-32.132));
#802=CARTESIAN_POINT('',(29.5,4.40872847693047E-15,-18.));
#803=CARTESIAN_POINT('',(29.5,3.93503509502027E-15,-16.066));
#804=CARTESIAN_POINT('',(29.5,2.,-18.));
#805=CARTESIAN_POINT('',(29.5,6.29425902234873E-15,-18.));
#806=CARTESIAN_POINT('',(29.5,2.,-25.566));
#807=CARTESIAN_POINT('Origin',(-30.5,4.01819559887622E-15,-16.));
#808=CARTESIAN_POINT('',(-29.5,3.91886975727153E-15,-16.));
#809=CARTESIAN_POINT('',(-30.5,3.67394039744206E-15,-15.));
#810=CARTESIAN_POINT('Origin',(-30.5,5.50808322294651E-15,-16.));
#811=CARTESIAN_POINT('',(-30.5,2.,-15.));
#812=CARTESIAN_POINT('',(-30.5,3.67394039744206E-15,-15.));
#813=CARTESIAN_POINT('',(-29.5,2.,-16.));
#814=CARTESIAN_POINT('Origin',(-30.5,2.,-16.));
#815=CARTESIAN_POINT('',(-29.5,4.01819559887622E-15,-16.));
#816=CARTESIAN_POINT('Origin',(-50.,3.67394039744206E-15,-15.));
#817=CARTESIAN_POINT('',(-50.,3.67394039744206E-15,-15.));
#818=CARTESIAN_POINT('',(-25.,3.67394039744206E-15,-15.));
#819=CARTESIAN_POINT('',(-50.,2.,-15.));
#820=CARTESIAN_POINT('',(-50.,0.500000000000004,-15.));
#821=CARTESIAN_POINT('',(-25.,2.,-15.));
#822=CARTESIAN_POINT('Origin',(28.5,6.29425902234873E-15,-18.));
#823=CARTESIAN_POINT('',(28.5,4.65365783675994E-15,-19.));
#824=CARTESIAN_POINT('Origin',(28.5,-9.86076131526265E-31,-18.));
#825=CARTESIAN_POINT('',(28.5,2.,-19.));
#826=CARTESIAN_POINT('',(28.5,6.29425902234873E-15,-19.));
#827=CARTESIAN_POINT('Origin',(28.5,2.,-18.));
#828=CARTESIAN_POINT('Origin',(0.,4.71844785465692E-15,-19.));
#829=CARTESIAN_POINT('',(-28.5,4.65365783675994E-15,-19.));
#830=CARTESIAN_POINT('',(0.,4.65365783675994E-15,-19.));
#831=CARTESIAN_POINT('',(-28.5,2.,-19.));
#832=CARTESIAN_POINT('',(-28.5,4.19619412604949E-15,-19.));
#833=CARTESIAN_POINT('',(0.,2.,-19.));
#834=CARTESIAN_POINT('Origin',(0.,-9.86076131526265E-31,0.));
#835=CARTESIAN_POINT('',(50.,3.67394039744206E-15,-15.));
#836=CARTESIAN_POINT('',(14.75,3.67394039744206E-15,-15.));
#837=CARTESIAN_POINT('',(50.,0.,0.));
#838=CARTESIAN_POINT('',(50.,4.65365783675994E-15,-19.));
#839=CARTESIAN_POINT('',(-50.,0.,0.));
#840=CARTESIAN_POINT('',(0.,0.,0.));
#841=CARTESIAN_POINT('',(-50.,4.65365783675994E-15,-19.));
#842=CARTESIAN_POINT('',(-29.5,4.40872847693047E-15,-18.));
#843=CARTESIAN_POINT('',(-29.5,1.83697019872103E-15,-7.5));
#844=CARTESIAN_POINT('Origin',(-28.5,-9.86076131526265E-31,-18.));
#845=CARTESIAN_POINT('',(-21.,1.94289029309402E-15,-15.));
#846=CARTESIAN_POINT('Origin',(-18.,3.60822483003176E-15,-15.));
#847=CARTESIAN_POINT('',(15.,2.77555756156289E-15,-15.));
#848=CARTESIAN_POINT('Origin',(18.,3.60822483003176E-15,-15.));
#849=CARTESIAN_POINT('',(-3.,2.77555756156289E-15,-15.));
#850=CARTESIAN_POINT('Origin',(0.,3.60822483003176E-15,-15.));
#851=CARTESIAN_POINT('',(6.,1.2490009027033E-15,-8.3));
#852=CARTESIAN_POINT('Origin',(9.,2.08166817117217E-15,-8.3));
#853=CARTESIAN_POINT('',(-30.,1.2490009027033E-15,-8.3));
#854=CARTESIAN_POINT('Origin',(-27.,2.08166817117217E-15,-8.3));
#855=CARTESIAN_POINT('',(-12.,1.2490009027033E-15,-8.3));
#856=CARTESIAN_POINT('Origin',(-9.,2.08166817117217E-15,-8.3));
#857=CARTESIAN_POINT('',(24.,1.2490009027033E-15,-8.3));
#858=CARTESIAN_POINT('Origin',(27.,2.08166817117217E-15,-8.3));
#859=CARTESIAN_POINT('Origin',(-28.5,4.19619412604949E-15,-18.));
#860=CARTESIAN_POINT('',(-29.5,2.,-18.));
#861=CARTESIAN_POINT('Origin',(-28.5,2.,-18.));
#862=CARTESIAN_POINT('',(-29.5,4.19619412604949E-15,-18.));
#863=CARTESIAN_POINT('Origin',(-29.5,3.67394039744206E-15,-15.));
#864=CARTESIAN_POINT('',(-29.5,2.,-17.));
#865=CARTESIAN_POINT('Origin',(29.5,3.67394039744206E-15,-15.));
#866=CARTESIAN_POINT('',(50.,2.,-15.));
#867=CARTESIAN_POINT('',(14.75,2.,-15.));
#868=CARTESIAN_POINT('',(50.,0.500000000000003,-15.));
#869=CARTESIAN_POINT('Origin',(0.,2.,-19.));
#870=CARTESIAN_POINT('',(-50.,2.,-4.3));
#871=CARTESIAN_POINT('',(-50.,2.,-2.));
#872=CARTESIAN_POINT('',(50.,2.,-4.3));
#873=CARTESIAN_POINT('',(0.,2.,-4.3));
#874=CARTESIAN_POINT('',(50.,2.,-2.));
#875=CARTESIAN_POINT('',(25.4,2.,-8.3));
#876=CARTESIAN_POINT('Origin',(27.,2.,-8.3));
#877=CARTESIAN_POINT('',(-10.6,2.,-8.3));
#878=CARTESIAN_POINT('Origin',(-9.,2.,-8.3));
#879=CARTESIAN_POINT('',(-28.6,2.,-8.3));
#880=CARTESIAN_POINT('Origin',(-27.,2.,-8.3));
#881=CARTESIAN_POINT('',(7.4,2.,-8.3));
#882=CARTESIAN_POINT('Origin',(9.,2.,-8.3));
#883=CARTESIAN_POINT('',(-1.6,2.,-15.));
#884=CARTESIAN_POINT('Origin',(0.,2.,-15.));
#885=CARTESIAN_POINT('',(16.4,2.,-15.));
#886=CARTESIAN_POINT('Origin',(18.,2.,-15.));
#887=CARTESIAN_POINT('',(-19.6,2.,-15.));
#888=CARTESIAN_POINT('Origin',(-18.,2.,-15.));
#889=CARTESIAN_POINT('Origin',(-18.,0.700000000000004,-15.));
#890=CARTESIAN_POINT('',(-19.6,1.4,-15.));
#891=CARTESIAN_POINT('',(-20.3,0.700000000000004,-15.));
#892=CARTESIAN_POINT('Origin',(-18.,1.4,-15.));
#893=CARTESIAN_POINT('Origin',(-18.,4.4,-15.));
#894=CARTESIAN_POINT('',(-19.6,4.4,-15.));
#895=CARTESIAN_POINT('Origin',(18.,0.700000000000004,-15.));
#896=CARTESIAN_POINT('',(16.4,1.4,-15.));
#897=CARTESIAN_POINT('',(15.7,0.700000000000004,-15.));
#898=CARTESIAN_POINT('Origin',(18.,1.4,-15.));
#899=CARTESIAN_POINT('Origin',(18.,4.4,-15.));
#900=CARTESIAN_POINT('',(16.4,4.4,-15.));
#901=CARTESIAN_POINT('Origin',(0.,0.700000000000004,-15.));
#902=CARTESIAN_POINT('',(-1.6,1.4,-15.));
#903=CARTESIAN_POINT('',(-2.3,0.700000000000004,-15.));
#904=CARTESIAN_POINT('Origin',(0.,1.4,-15.));
#905=CARTESIAN_POINT('Origin',(0.,4.4,-15.));
#906=CARTESIAN_POINT('',(-1.6,4.4,-15.));
#907=CARTESIAN_POINT('Origin',(9.,0.700000000000002,-8.3));
#908=CARTESIAN_POINT('',(7.4,1.4,-8.3));
#909=CARTESIAN_POINT('',(6.7,0.700000000000002,-8.3));
#910=CARTESIAN_POINT('Origin',(9.,1.4,-8.3));
#911=CARTESIAN_POINT('Origin',(9.,4.4,-8.3));
#912=CARTESIAN_POINT('',(7.4,4.4,-8.3));
#913=CARTESIAN_POINT('Origin',(-27.,0.700000000000002,-8.3));
#914=CARTESIAN_POINT('',(-28.6,1.4,-8.3));
#915=CARTESIAN_POINT('',(-29.3,0.700000000000002,-8.3));
#916=CARTESIAN_POINT('Origin',(-27.,1.4,-8.3));
#917=CARTESIAN_POINT('Origin',(-27.,4.4,-8.3));
#918=CARTESIAN_POINT('',(-28.6,4.4,-8.3));
#919=CARTESIAN_POINT('Origin',(-9.,0.700000000000002,-8.3));
#920=CARTESIAN_POINT('',(-10.6,1.4,-8.3));
#921=CARTESIAN_POINT('',(-11.3,0.700000000000002,-8.3));
#922=CARTESIAN_POINT('Origin',(-9.,1.4,-8.3));
#923=CARTESIAN_POINT('Origin',(-9.,4.4,-8.3));
#924=CARTESIAN_POINT('',(-10.6,4.4,-8.3));
#925=CARTESIAN_POINT('Origin',(27.,0.700000000000002,-8.3));
#926=CARTESIAN_POINT('',(25.4,1.4,-8.3));
#927=CARTESIAN_POINT('',(24.7,0.700000000000002,-8.3));
#928=CARTESIAN_POINT('Origin',(27.,1.4,-8.3));
#929=CARTESIAN_POINT('Origin',(27.,4.4,-8.3));
#930=CARTESIAN_POINT('',(25.4,4.4,-8.3));
#931=CARTESIAN_POINT('Origin',(0.,2.,-4.3));
#932=CARTESIAN_POINT('',(-50.,4.3,-4.3));
#933=CARTESIAN_POINT('',(50.,4.3,-4.3));
#934=CARTESIAN_POINT('',(0.,4.3,-4.3));
#935=CARTESIAN_POINT('',(50.,2.,-4.3));
#936=CARTESIAN_POINT('',(-50.,2.,-4.3));
#937=CARTESIAN_POINT('Origin',(-50.,1.,-9.5));
#938=CARTESIAN_POINT('',(-50.,0.,0.));
#939=CARTESIAN_POINT('Origin',(0.,2.,-2.));
#940=CARTESIAN_POINT('',(50.,4.3,-4.3));
#941=CARTESIAN_POINT('Origin',(50.,1.,-9.5));
#942=UNCERTAINTY_MEASURE_WITH_UNIT(LENGTH_MEASURE(0.01),#946,
'DISTANCE_ACCURACY_VALUE',
'Maximum model space distance between geometric entities at asserted c
onnectivities');
#943=UNCERTAINTY_MEASURE_WITH_UNIT(LENGTH_MEASURE(0.01),#946,
'DISTANCE_ACCURACY_VALUE',
'Maximum model space distance between geometric entities at asserted c
onnectivities');
#944=(
GEOMETRIC_REPRESENTATION_CONTEXT(3)
GLOBAL_UNCERTAINTY_ASSIGNED_CONTEXT((#942))
GLOBAL_UNIT_ASSIGNED_CONTEXT((#946,#948,#949))
REPRESENTATION_CONTEXT('','3D')
);
#945=(
GEOMETRIC_REPRESENTATION_CONTEXT(3)
GLOBAL_UNCERTAINTY_ASSIGNED_CONTEXT((#943))
GLOBAL_UNIT_ASSIGNED_CONTEXT((#946,#948,#949))
REPRESENTATION_CONTEXT('','3D')
);
#946=(
LENGTH_UNIT()
NAMED_UNIT(*)
SI_UNIT(.MILLI.,.METRE.)
);
#947=(
LENGTH_UNIT()
NAMED_UNIT(*)
SI_UNIT(.CENTI.,.METRE.)
);
#948=(
NAMED_UNIT(*)
PLANE_ANGLE_UNIT()
SI_UNIT($,.RADIAN.)
);
#949=(
NAMED_UNIT(*)
SI_UNIT($,.STERADIAN.)
SOLID_ANGLE_UNIT()
);
#950=SHAPE_DEFINITION_REPRESENTATION(#951,#952);
#951=PRODUCT_DEFINITION_SHAPE('',$,#954);
#952=SHAPE_REPRESENTATION('',(#569),#944);
#953=PRODUCT_DEFINITION_CONTEXT('part definition',#958,'design');
#954=PRODUCT_DEFINITION('Plog2','plug',#955,#953);
#955=PRODUCT_DEFINITION_FORMATION('',$,#960);
#956=PRODUCT_RELATED_PRODUCT_CATEGORY('plug','plug',(#960));
#957=APPLICATION_PROTOCOL_DEFINITION('international standard',
'automotive_design',2009,#958);
#958=APPLICATION_CONTEXT(
'Core Data for Automotive Mechanical Design Process');
#959=PRODUCT_CONTEXT('part definition',#958,'mechanical');
#960=PRODUCT('Plog2','plug',$,(#959));
#961=PRESENTATION_STYLE_ASSIGNMENT((#962));
#962=SURFACE_STYLE_USAGE(.BOTH.,#965);
#963=SURFACE_STYLE_RENDERING_WITH_PROPERTIES($,#969,(#964));
#964=SURFACE_STYLE_TRANSPARENT(0.);
#965=SURFACE_SIDE_STYLE('',(#966,#963));
#966=SURFACE_STYLE_FILL_AREA(#967);
#967=FILL_AREA_STYLE('',(#968));
#968=FILL_AREA_STYLE_COLOUR('',#969);
#969=COLOUR_RGB('',0.270588235294118,0.270588235294118,0.270588235294118);
ENDSEC;
END-ISO-10303-21;
