ISO-10303-21;
HEADER;
/* Generated by software containing ST-Developer
 * from STEP Tools, Inc. (www.steptools.com) 
 */

FILE_DESCRIPTION(
/* description */ (''),
/* implementation_level */ '2;1');

FILE_NAME(
/* name */ 'RightGearboxCover.stp',
/* time_stamp */ '2026-04-26T22:28:31+02:00',
/* author */ ('szymo'),
/* organization */ (''),
/* preprocessor_version */ 'ST-DEVELOPER v20.1',
/* originating_system */ 'Autodesk Inventor 2026',
/* authorisation */ '');

FILE_SCHEMA (('AUTOMOTIVE_DESIGN { 1 0 10303 214 3 1 1 }'));
ENDSEC;

DATA;
#10=MECHANICAL_DESIGN_GEOMETRIC_PRESENTATION_REPRESENTATION('',(#13),#2008);
#11=SHAPE_REPRESENTATION_RELATIONSHIP('SRR','None',#2015,#12);
#12=ADVANCED_BREP_SHAPE_REPRESENTATION('',(#14),#2007);
#13=STYLED_ITEM('',(#2024),#14);
#14=MANIFOLD_SOLID_BREP('Solid1',#1150);
#15=(
BOUNDED_CURVE()
B_SPLINE_CURVE(2,(#1919,#1920,#1921),.UNSPECIFIED.,.F.,.F.)
B_SPLINE_CURVE_WITH_KNOTS((3,3),(0.,0.257299802087291),.UNSPECIFIED.)
CURVE()
GEOMETRIC_REPRESENTATION_ITEM()
RATIONAL_B_SPLINE_CURVE((1.,1.08500700971959,1.))
REPRESENTATION_ITEM('')
);
#16=(
BOUNDED_CURVE()
B_SPLINE_CURVE(2,(#1956,#1957,#1958),.UNSPECIFIED.,.F.,.F.)
B_SPLINE_CURVE_WITH_KNOTS((3,3),(0.,0.102903089098304),.UNSPECIFIED.)
CURVE()
GEOMETRIC_REPRESENTATION_ITEM()
RATIONAL_B_SPLINE_CURVE((1.,1.01269044430897,1.))
REPRESENTATION_ITEM('')
);
#17=CONICAL_SURFACE('',#1240,2.425,0.785398163397448);
#18=CONICAL_SURFACE('',#1246,2.425,0.785398163397448);
#19=CONICAL_SURFACE('',#1249,2.425,0.785398163397448);
#20=CONICAL_SURFACE('',#1252,2.425,0.785398163397448);
#21=CONICAL_SURFACE('',#1255,2.425,0.785398163397448);
#22=CONICAL_SURFACE('',#1258,2.425,0.785398163397448);
#23=B_SPLINE_CURVE_WITH_KNOTS('',3,(#1826,#1827,#1828,#1829,#1830,#1831,
#1832,#1833,#1834,#1835,#1836,#1837,#1838,#1839,#1840,#1841,#1842,#1843,
#1844,#1845,#1846,#1847,#1848,#1849,#1850,#1851,#1852,#1853,#1854,#1855,
#1856,#1857,#1858,#1859,#1860,#1861,#1862,#1863),.UNSPECIFIED.,.F.,.F.,
(4,2,2,2,2,2,2,2,2,2,2,2,2,2,2,2,2,2,4),(0.355772478265929,0.363025533285272,
0.387434433137892,0.415002893482647,0.446206713614458,0.47741053374627,
0.508614353878081,0.539818174009892,0.567386634354648,0.591795534207267,
0.616204434059886,0.666160117339645,0.716115800619405,0.766071483899164,
0.816027167178924,0.840436067031542,0.864844966884161,0.892413427228917,
0.919939999495456),.UNSPECIFIED.);
#24=B_SPLINE_CURVE_WITH_KNOTS('',3,(#1865,#1866,#1867,#1868,#1869,#1870,
#1871,#1872,#1873,#1874,#1875,#1876,#1877,#1878),.UNSPECIFIED.,.F.,.F.,
(4,2,2,2,2,2,4),(0.12163805548034,0.138793900313616,0.188749583593375,0.238705266873134,
0.288660950152894,0.338616633432653,0.355772478265929),.UNSPECIFIED.);
#25=B_SPLINE_CURVE_WITH_KNOTS('',3,(#1880,#1881,#1882,#1883,#1884,#1885,
#1886,#1887,#1888,#1889),.UNSPECIFIED.,.F.,.F.,(4,2,2,2,4),(0.0348810679970828,
0.0624076402636218,0.0899761006083779,0.114385000460997,0.12163805548034),
 .UNSPECIFIED.);
#26=B_SPLINE_CURVE_WITH_KNOTS('',3,(#1894,#1895,#1896,#1897,#1898,#1899),
 .UNSPECIFIED.,.F.,.F.,(4,2,4),(0.,0.0312038201318109,0.0348810679970828),
 .UNSPECIFIED.);
#27=B_SPLINE_CURVE_WITH_KNOTS('',3,(#1900,#1901,#1902,#1903,#1904,#1905),
 .UNSPECIFIED.,.F.,.F.,(4,2,4),(0.919939999495456,0.923617247360728,0.954821067492539),
 .UNSPECIFIED.);
#28=FACE_BOUND('',#145,.T.);
#29=FACE_BOUND('',#147,.T.);
#30=FACE_BOUND('',#148,.T.);
#31=FACE_BOUND('',#149,.T.);
#32=FACE_BOUND('',#150,.T.);
#33=FACE_BOUND('',#151,.T.);
#34=FACE_BOUND('',#152,.T.);
#35=FACE_BOUND('',#153,.T.);
#36=FACE_BOUND('',#154,.T.);
#37=FACE_BOUND('',#155,.T.);
#38=FACE_BOUND('',#156,.T.);
#39=FACE_BOUND('',#157,.T.);
#40=FACE_BOUND('',#158,.T.);
#41=FACE_BOUND('',#159,.T.);
#42=FACE_BOUND('',#160,.T.);
#43=FACE_BOUND('',#166,.T.);
#44=FACE_BOUND('',#167,.T.);
#45=FACE_BOUND('',#170,.T.);
#46=FACE_BOUND('',#177,.T.);
#47=FACE_BOUND('',#182,.T.);
#48=FACE_BOUND('',#184,.T.);
#49=FACE_BOUND('',#185,.T.);
#50=FACE_BOUND('',#186,.T.);
#51=FACE_BOUND('',#187,.T.);
#52=FACE_BOUND('',#188,.T.);
#53=FACE_BOUND('',#225,.T.);
#54=PLANE('',#1176);
#55=PLANE('',#1178);
#56=PLANE('',#1196);
#57=PLANE('',#1200);
#58=PLANE('',#1201);
#59=PLANE('',#1204);
#60=PLANE('',#1205);
#61=PLANE('',#1211);
#62=PLANE('',#1212);
#63=PLANE('',#1216);
#64=PLANE('',#1217);
#65=PLANE('',#1218);
#66=PLANE('',#1222);
#67=PLANE('',#1223);
#68=PLANE('',#1233);
#69=PLANE('',#1237);
#70=PLANE('',#1238);
#71=PLANE('',#1261);
#72=PLANE('',#1262);
#73=PLANE('',#1265);
#74=PLANE('',#1268);
#75=PLANE('',#1272);
#76=PLANE('',#1274);
#77=PLANE('',#1275);
#78=PLANE('',#1276);
#79=PLANE('',#1277);
#80=PLANE('',#1278);
#81=PLANE('',#1279);
#82=PLANE('',#1280);
#83=PLANE('',#1281);
#84=PLANE('',#1282);
#85=FACE_OUTER_BOUND('',#143,.T.);
#86=FACE_OUTER_BOUND('',#144,.T.);
#87=FACE_OUTER_BOUND('',#146,.T.);
#88=FACE_OUTER_BOUND('',#161,.T.);
#89=FACE_OUTER_BOUND('',#162,.T.);
#90=FACE_OUTER_BOUND('',#163,.T.);
#91=FACE_OUTER_BOUND('',#164,.T.);
#92=FACE_OUTER_BOUND('',#165,.T.);
#93=FACE_OUTER_BOUND('',#168,.T.);
#94=FACE_OUTER_BOUND('',#169,.T.);
#95=FACE_OUTER_BOUND('',#171,.T.);
#96=FACE_OUTER_BOUND('',#172,.T.);
#97=FACE_OUTER_BOUND('',#173,.T.);
#98=FACE_OUTER_BOUND('',#174,.T.);
#99=FACE_OUTER_BOUND('',#175,.T.);
#100=FACE_OUTER_BOUND('',#176,.T.);
#101=FACE_OUTER_BOUND('',#178,.T.);
#102=FACE_OUTER_BOUND('',#179,.T.);
#103=FACE_OUTER_BOUND('',#180,.T.);
#104=FACE_OUTER_BOUND('',#181,.T.);
#105=FACE_OUTER_BOUND('',#183,.T.);
#106=FACE_OUTER_BOUND('',#189,.T.);
#107=FACE_OUTER_BOUND('',#190,.T.);
#108=FACE_OUTER_BOUND('',#191,.T.);
#109=FACE_OUTER_BOUND('',#192,.T.);
#110=FACE_OUTER_BOUND('',#193,.T.);
#111=FACE_OUTER_BOUND('',#194,.T.);
#112=FACE_OUTER_BOUND('',#195,.T.);
#113=FACE_OUTER_BOUND('',#196,.T.);
#114=FACE_OUTER_BOUND('',#197,.T.);
#115=FACE_OUTER_BOUND('',#198,.T.);
#116=FACE_OUTER_BOUND('',#199,.T.);
#117=FACE_OUTER_BOUND('',#200,.T.);
#118=FACE_OUTER_BOUND('',#201,.T.);
#119=FACE_OUTER_BOUND('',#202,.T.);
#120=FACE_OUTER_BOUND('',#203,.T.);
#121=FACE_OUTER_BOUND('',#204,.T.);
#122=FACE_OUTER_BOUND('',#205,.T.);
#123=FACE_OUTER_BOUND('',#206,.T.);
#124=FACE_OUTER_BOUND('',#207,.T.);
#125=FACE_OUTER_BOUND('',#208,.T.);
#126=FACE_OUTER_BOUND('',#209,.T.);
#127=FACE_OUTER_BOUND('',#210,.T.);
#128=FACE_OUTER_BOUND('',#211,.T.);
#129=FACE_OUTER_BOUND('',#212,.T.);
#130=FACE_OUTER_BOUND('',#213,.T.);
#131=FACE_OUTER_BOUND('',#214,.T.);
#132=FACE_OUTER_BOUND('',#215,.T.);
#133=FACE_OUTER_BOUND('',#216,.T.);
#134=FACE_OUTER_BOUND('',#217,.T.);
#135=FACE_OUTER_BOUND('',#218,.T.);
#136=FACE_OUTER_BOUND('',#219,.T.);
#137=FACE_OUTER_BOUND('',#220,.T.);
#138=FACE_OUTER_BOUND('',#221,.T.);
#139=FACE_OUTER_BOUND('',#222,.T.);
#140=FACE_OUTER_BOUND('',#223,.T.);
#141=FACE_OUTER_BOUND('',#224,.T.);
#142=FACE_OUTER_BOUND('',#226,.T.);
#143=EDGE_LOOP('',(#749,#750,#751,#752));
#144=EDGE_LOOP('',(#753,#754,#755,#756,#757));
#145=EDGE_LOOP('',(#758));
#146=EDGE_LOOP('',(#759,#760,#761,#762,#763,#764,#765,#766,#767,#768,#769,
#770,#771,#772));
#147=EDGE_LOOP('',(#773));
#148=EDGE_LOOP('',(#774));
#149=EDGE_LOOP('',(#775));
#150=EDGE_LOOP('',(#776));
#151=EDGE_LOOP('',(#777));
#152=EDGE_LOOP('',(#778));
#153=EDGE_LOOP('',(#779));
#154=EDGE_LOOP('',(#780));
#155=EDGE_LOOP('',(#781));
#156=EDGE_LOOP('',(#782));
#157=EDGE_LOOP('',(#783));
#158=EDGE_LOOP('',(#784));
#159=EDGE_LOOP('',(#785));
#160=EDGE_LOOP('',(#786));
#161=EDGE_LOOP('',(#787,#788,#789,#790));
#162=EDGE_LOOP('',(#791,#792,#793,#794,#795,#796,#797,#798));
#163=EDGE_LOOP('',(#799,#800,#801,#802));
#164=EDGE_LOOP('',(#803,#804,#805,#806,#807,#808));
#165=EDGE_LOOP('',(#809,#810,#811,#812,#813,#814,#815));
#166=EDGE_LOOP('',(#816));
#167=EDGE_LOOP('',(#817));
#168=EDGE_LOOP('',(#818,#819,#820,#821,#822,#823,#824,#825));
#169=EDGE_LOOP('',(#826,#827,#828,#829,#830,#831,#832));
#170=EDGE_LOOP('',(#833));
#171=EDGE_LOOP('',(#834,#835,#836,#837));
#172=EDGE_LOOP('',(#838,#839,#840,#841));
#173=EDGE_LOOP('',(#842,#843,#844,#845));
#174=EDGE_LOOP('',(#846,#847,#848,#849));
#175=EDGE_LOOP('',(#850,#851,#852,#853));
#176=EDGE_LOOP('',(#854,#855,#856,#857));
#177=EDGE_LOOP('',(#858));
#178=EDGE_LOOP('',(#859,#860,#861,#862));
#179=EDGE_LOOP('',(#863,#864,#865,#866));
#180=EDGE_LOOP('',(#867,#868,#869,#870));
#181=EDGE_LOOP('',(#871,#872,#873,#874));
#182=EDGE_LOOP('',(#875));
#183=EDGE_LOOP('',(#876,#877,#878,#879,#880,#881,#882,#883,#884,#885,#886,
#887,#888,#889,#890));
#184=EDGE_LOOP('',(#891));
#185=EDGE_LOOP('',(#892));
#186=EDGE_LOOP('',(#893));
#187=EDGE_LOOP('',(#894));
#188=EDGE_LOOP('',(#895));
#189=EDGE_LOOP('',(#896,#897,#898,#899,#900,#901,#902,#903,#904,#905,#906));
#190=EDGE_LOOP('',(#907));
#191=EDGE_LOOP('',(#908,#909,#910,#911));
#192=EDGE_LOOP('',(#912));
#193=EDGE_LOOP('',(#913,#914));
#194=EDGE_LOOP('',(#915,#916,#917,#918,#919,#920,#921,#922));
#195=EDGE_LOOP('',(#923,#924,#925,#926));
#196=EDGE_LOOP('',(#927,#928,#929,#930));
#197=EDGE_LOOP('',(#931,#932,#933,#934));
#198=EDGE_LOOP('',(#935,#936,#937,#938));
#199=EDGE_LOOP('',(#939,#940,#941,#942));
#200=EDGE_LOOP('',(#943,#944,#945,#946));
#201=EDGE_LOOP('',(#947,#948,#949,#950));
#202=EDGE_LOOP('',(#951,#952,#953,#954));
#203=EDGE_LOOP('',(#955,#956,#957,#958));
#204=EDGE_LOOP('',(#959,#960,#961,#962,#963,#964));
#205=EDGE_LOOP('',(#965,#966,#967,#968));
#206=EDGE_LOOP('',(#969,#970,#971));
#207=EDGE_LOOP('',(#972,#973,#974,#975,#976,#977,#978));
#208=EDGE_LOOP('',(#979,#980,#981,#982));
#209=EDGE_LOOP('',(#983));
#210=EDGE_LOOP('',(#984,#985,#986,#987));
#211=EDGE_LOOP('',(#988));
#212=EDGE_LOOP('',(#989,#990,#991,#992));
#213=EDGE_LOOP('',(#993,#994,#995,#996,#997,#998,#999,#1000,#1001,#1002,
#1003));
#214=EDGE_LOOP('',(#1004,#1005,#1006,#1007));
#215=EDGE_LOOP('',(#1008,#1009,#1010,#1011,#1012,#1013,#1014,#1015,#1016,
#1017,#1018,#1019,#1020,#1021));
#216=EDGE_LOOP('',(#1022,#1023,#1024,#1025));
#217=EDGE_LOOP('',(#1026,#1027,#1028,#1029,#1030,#1031));
#218=EDGE_LOOP('',(#1032,#1033,#1034,#1035,#1036,#1037));
#219=EDGE_LOOP('',(#1038,#1039,#1040,#1041));
#220=EDGE_LOOP('',(#1042,#1043,#1044,#1045));
#221=EDGE_LOOP('',(#1046,#1047,#1048,#1049));
#222=EDGE_LOOP('',(#1050,#1051,#1052,#1053));
#223=EDGE_LOOP('',(#1054,#1055,#1056,#1057));
#224=EDGE_LOOP('',(#1058,#1059,#1060,#1061));
#225=EDGE_LOOP('',(#1062));
#226=EDGE_LOOP('',(#1063,#1064,#1065,#1066,#1067,#1068,#1069,#1070));
#227=LINE('',#1613,#329);
#228=LINE('',#1616,#330);
#229=LINE('',#1619,#331);
#230=LINE('',#1621,#332);
#231=LINE('',#1623,#333);
#232=LINE('',#1624,#334);
#233=LINE('',#1629,#335);
#234=LINE('',#1631,#336);
#235=LINE('',#1633,#337);
#236=LINE('',#1635,#338);
#237=LINE('',#1637,#339);
#238=LINE('',#1639,#340);
#239=LINE('',#1641,#341);
#240=LINE('',#1643,#342);
#241=LINE('',#1645,#343);
#242=LINE('',#1647,#344);
#243=LINE('',#1649,#345);
#244=LINE('',#1650,#346);
#245=LINE('',#1684,#347);
#246=LINE('',#1687,#348);
#247=LINE('',#1690,#349);
#248=LINE('',#1692,#350);
#249=LINE('',#1694,#351);
#250=LINE('',#1695,#352);
#251=LINE('',#1697,#353);
#252=LINE('',#1698,#354);
#253=LINE('',#1704,#355);
#254=LINE('',#1707,#356);
#255=LINE('',#1709,#357);
#256=LINE('',#1711,#358);
#257=LINE('',#1712,#359);
#258=LINE('',#1715,#360);
#259=LINE('',#1717,#361);
#260=LINE('',#1719,#362);
#261=LINE('',#1720,#363);
#262=LINE('',#1727,#364);
#263=LINE('',#1728,#365);
#264=LINE('',#1729,#366);
#265=LINE('',#1730,#367);
#266=LINE('',#1733,#368);
#267=LINE('',#1735,#369);
#268=LINE('',#1737,#370);
#269=LINE('',#1738,#371);
#270=LINE('',#1744,#372);
#271=LINE('',#1748,#373);
#272=LINE('',#1752,#374);
#273=LINE('',#1754,#375);
#274=LINE('',#1756,#376);
#275=LINE('',#1757,#377);
#276=LINE('',#1761,#378);
#277=LINE('',#1763,#379);
#278=LINE('',#1765,#380);
#279=LINE('',#1766,#381);
#280=LINE('',#1771,#382);
#281=LINE('',#1775,#383);
#282=LINE('',#1777,#384);
#283=LINE('',#1779,#385);
#284=LINE('',#1780,#386);
#285=LINE('',#1784,#387);
#286=LINE('',#1786,#388);
#287=LINE('',#1788,#389);
#288=LINE('',#1789,#390);
#289=LINE('',#1794,#391);
#290=LINE('',#1797,#392);
#291=LINE('',#1799,#393);
#292=LINE('',#1801,#394);
#293=LINE('',#1807,#395);
#294=LINE('',#1809,#396);
#295=LINE('',#1810,#397);
#296=LINE('',#1811,#398);
#297=LINE('',#1824,#399);
#298=LINE('',#1891,#400);
#299=LINE('',#1911,#401);
#300=LINE('',#1926,#402);
#301=LINE('',#1930,#403);
#302=LINE('',#1933,#404);
#303=LINE('',#1936,#405);
#304=LINE('',#1939,#406);
#305=LINE('',#1942,#407);
#306=LINE('',#1945,#408);
#307=LINE('',#1948,#409);
#308=LINE('',#1951,#410);
#309=LINE('',#1954,#411);
#310=LINE('',#1960,#412);
#311=LINE('',#1963,#413);
#312=LINE('',#1965,#414);
#313=LINE('',#1967,#415);
#314=LINE('',#1968,#416);
#315=LINE('',#1971,#417);
#316=LINE('',#1976,#418);
#317=LINE('',#1980,#419);
#318=LINE('',#1982,#420);
#319=LINE('',#1983,#421);
#320=LINE('',#1985,#422);
#321=LINE('',#1987,#423);
#322=LINE('',#1988,#424);
#323=LINE('',#1989,#425);
#324=LINE('',#1991,#426);
#325=LINE('',#1993,#427);
#326=LINE('',#1998,#428);
#327=LINE('',#2000,#429);
#328=LINE('',#2002,#430);
#329=VECTOR('',#1289,10.);
#330=VECTOR('',#1292,10.);
#331=VECTOR('',#1295,10.);
#332=VECTOR('',#1296,10.);
#333=VECTOR('',#1297,10.);
#334=VECTOR('',#1298,10.);
#335=VECTOR('',#1303,10.);
#336=VECTOR('',#1304,10.);
#337=VECTOR('',#1305,10.);
#338=VECTOR('',#1306,10.);
#339=VECTOR('',#1307,10.);
#340=VECTOR('',#1308,10.);
#341=VECTOR('',#1309,10.);
#342=VECTOR('',#1310,10.);
#343=VECTOR('',#1311,10.);
#344=VECTOR('',#1312,10.);
#345=VECTOR('',#1313,10.);
#346=VECTOR('',#1314,10.);
#347=VECTOR('',#1347,4.);
#348=VECTOR('',#1350,4.);
#349=VECTOR('',#1353,10.);
#350=VECTOR('',#1354,10.);
#351=VECTOR('',#1355,10.);
#352=VECTOR('',#1356,10.);
#353=VECTOR('',#1357,10.);
#354=VECTOR('',#1358,10.);
#355=VECTOR('',#1363,4.);
#356=VECTOR('',#1366,4.);
#357=VECTOR('',#1369,10.);
#358=VECTOR('',#1370,10.);
#359=VECTOR('',#1371,10.);
#360=VECTOR('',#1374,10.);
#361=VECTOR('',#1375,10.);
#362=VECTOR('',#1376,10.);
#363=VECTOR('',#1377,10.);
#364=VECTOR('',#1384,10.);
#365=VECTOR('',#1385,10.);
#366=VECTOR('',#1386,10.);
#367=VECTOR('',#1387,10.);
#368=VECTOR('',#1390,10.);
#369=VECTOR('',#1391,10.);
#370=VECTOR('',#1392,10.);
#371=VECTOR('',#1393,10.);
#372=VECTOR('',#1400,1.);
#373=VECTOR('',#1405,1.);
#374=VECTOR('',#1408,10.);
#375=VECTOR('',#1409,10.);
#376=VECTOR('',#1410,10.);
#377=VECTOR('',#1411,10.);
#378=VECTOR('',#1414,10.);
#379=VECTOR('',#1415,10.);
#380=VECTOR('',#1416,10.);
#381=VECTOR('',#1417,10.);
#382=VECTOR('',#1426,10.);
#383=VECTOR('',#1429,10.);
#384=VECTOR('',#1430,10.);
#385=VECTOR('',#1431,10.);
#386=VECTOR('',#1432,10.);
#387=VECTOR('',#1435,10.);
#388=VECTOR('',#1436,10.);
#389=VECTOR('',#1437,10.);
#390=VECTOR('',#1438,10.);
#391=VECTOR('',#1447,10.);
#392=VECTOR('',#1450,10.);
#393=VECTOR('',#1451,10.);
#394=VECTOR('',#1452,10.);
#395=VECTOR('',#1457,10.);
#396=VECTOR('',#1458,10.);
#397=VECTOR('',#1459,10.);
#398=VECTOR('',#1460,10.);
#399=VECTOR('',#1473,1.2295);
#400=VECTOR('',#1474,1.2295);
#401=VECTOR('',#1483,1.2295);
#402=VECTOR('',#1498,2.425);
#403=VECTOR('',#1505,1.6);
#404=VECTOR('',#1508,2.425);
#405=VECTOR('',#1513,1.6);
#406=VECTOR('',#1516,2.425);
#407=VECTOR('',#1521,1.6);
#408=VECTOR('',#1524,2.425);
#409=VECTOR('',#1529,1.6);
#410=VECTOR('',#1532,2.425);
#411=VECTOR('',#1537,1.6);
#412=VECTOR('',#1540,2.425);
#413=VECTOR('',#1545,1.6);
#414=VECTOR('',#1548,10.);
#415=VECTOR('',#1551,10.);
#416=VECTOR('',#1552,10.);
#417=VECTOR('',#1555,4.);
#418=VECTOR('',#1562,1.25);
#419=VECTOR('',#1569,0.7835);
#420=VECTOR('',#1572,0.7835);
#421=VECTOR('',#1573,0.7835);
#422=VECTOR('',#1576,0.7835);
#423=VECTOR('',#1579,10.);
#424=VECTOR('',#1580,10.);
#425=VECTOR('',#1581,10.);
#426=VECTOR('',#1584,5.);
#427=VECTOR('',#1587,10.);
#428=VECTOR('',#1596,10.);
#429=VECTOR('',#1599,10.);
#430=VECTOR('',#1602,10.);
#431=CIRCLE('',#1174,1.);
#432=CIRCLE('',#1175,1.);
#433=CIRCLE('',#1177,1.2295);
#434=CIRCLE('',#1179,5.);
#435=CIRCLE('',#1180,0.7835);
#436=CIRCLE('',#1181,0.7835);
#437=CIRCLE('',#1182,0.7835);
#438=CIRCLE('',#1183,1.25);
#439=CIRCLE('',#1184,4.);
#440=CIRCLE('',#1185,1.6);
#441=CIRCLE('',#1186,1.6);
#442=CIRCLE('',#1187,1.6);
#443=CIRCLE('',#1188,1.6);
#444=CIRCLE('',#1189,1.6);
#445=CIRCLE('',#1190,1.6);
#446=CIRCLE('',#1191,1.);
#447=CIRCLE('',#1192,1.);
#448=CIRCLE('',#1194,4.);
#449=CIRCLE('',#1195,4.);
#450=CIRCLE('',#1198,4.);
#451=CIRCLE('',#1199,4.);
#452=CIRCLE('',#1202,0.7835);
#453=CIRCLE('',#1203,0.7835);
#454=CIRCLE('',#1206,0.7835);
#455=CIRCLE('',#1208,1.);
#456=CIRCLE('',#1210,1.);
#457=CIRCLE('',#1214,2.);
#458=CIRCLE('',#1215,2.);
#459=CIRCLE('',#1220,2.);
#460=CIRCLE('',#1221,2.);
#461=CIRCLE('',#1224,3.25);
#462=CIRCLE('',#1225,3.25);
#463=CIRCLE('',#1226,5.);
#464=CIRCLE('',#1227,3.25);
#465=CIRCLE('',#1228,3.25);
#466=CIRCLE('',#1229,3.25);
#467=CIRCLE('',#1230,3.25);
#468=CIRCLE('',#1232,1.2295);
#469=CIRCLE('',#1235,1.2295);
#470=CIRCLE('',#1236,1.2295);
#471=CIRCLE('',#1239,3.25);
#472=CIRCLE('',#1241,3.25);
#473=CIRCLE('',#1242,3.25);
#474=CIRCLE('',#1243,1.6);
#475=CIRCLE('',#1244,3.25);
#476=CIRCLE('',#1247,1.6);
#477=CIRCLE('',#1250,1.6);
#478=CIRCLE('',#1253,1.6);
#479=CIRCLE('',#1256,1.6);
#480=CIRCLE('',#1259,1.6);
#481=CIRCLE('',#1264,4.);
#482=CIRCLE('',#1267,1.25);
#483=VERTEX_POINT('',#1609);
#484=VERTEX_POINT('',#1610);
#485=VERTEX_POINT('',#1612);
#486=VERTEX_POINT('',#1614);
#487=VERTEX_POINT('',#1618);
#488=VERTEX_POINT('',#1620);
#489=VERTEX_POINT('',#1622);
#490=VERTEX_POINT('',#1625);
#491=VERTEX_POINT('',#1628);
#492=VERTEX_POINT('',#1630);
#493=VERTEX_POINT('',#1632);
#494=VERTEX_POINT('',#1634);
#495=VERTEX_POINT('',#1636);
#496=VERTEX_POINT('',#1638);
#497=VERTEX_POINT('',#1640);
#498=VERTEX_POINT('',#1642);
#499=VERTEX_POINT('',#1644);
#500=VERTEX_POINT('',#1646);
#501=VERTEX_POINT('',#1648);
#502=VERTEX_POINT('',#1651);
#503=VERTEX_POINT('',#1653);
#504=VERTEX_POINT('',#1655);
#505=VERTEX_POINT('',#1657);
#506=VERTEX_POINT('',#1659);
#507=VERTEX_POINT('',#1661);
#508=VERTEX_POINT('',#1663);
#509=VERTEX_POINT('',#1665);
#510=VERTEX_POINT('',#1667);
#511=VERTEX_POINT('',#1669);
#512=VERTEX_POINT('',#1671);
#513=VERTEX_POINT('',#1673);
#514=VERTEX_POINT('',#1675);
#515=VERTEX_POINT('',#1677);
#516=VERTEX_POINT('',#1680);
#517=VERTEX_POINT('',#1681);
#518=VERTEX_POINT('',#1683);
#519=VERTEX_POINT('',#1685);
#520=VERTEX_POINT('',#1689);
#521=VERTEX_POINT('',#1691);
#522=VERTEX_POINT('',#1693);
#523=VERTEX_POINT('',#1696);
#524=VERTEX_POINT('',#1700);
#525=VERTEX_POINT('',#1701);
#526=VERTEX_POINT('',#1703);
#527=VERTEX_POINT('',#1705);
#528=VERTEX_POINT('',#1710);
#529=VERTEX_POINT('',#1714);
#530=VERTEX_POINT('',#1716);
#531=VERTEX_POINT('',#1718);
#532=VERTEX_POINT('',#1721);
#533=VERTEX_POINT('',#1723);
#534=VERTEX_POINT('',#1726);
#535=VERTEX_POINT('',#1732);
#536=VERTEX_POINT('',#1734);
#537=VERTEX_POINT('',#1736);
#538=VERTEX_POINT('',#1739);
#539=VERTEX_POINT('',#1742);
#540=VERTEX_POINT('',#1746);
#541=VERTEX_POINT('',#1750);
#542=VERTEX_POINT('',#1751);
#543=VERTEX_POINT('',#1753);
#544=VERTEX_POINT('',#1755);
#545=VERTEX_POINT('',#1759);
#546=VERTEX_POINT('',#1760);
#547=VERTEX_POINT('',#1762);
#548=VERTEX_POINT('',#1764);
#549=VERTEX_POINT('',#1773);
#550=VERTEX_POINT('',#1774);
#551=VERTEX_POINT('',#1776);
#552=VERTEX_POINT('',#1778);
#553=VERTEX_POINT('',#1782);
#554=VERTEX_POINT('',#1783);
#555=VERTEX_POINT('',#1785);
#556=VERTEX_POINT('',#1787);
#557=VERTEX_POINT('',#1796);
#558=VERTEX_POINT('',#1798);
#559=VERTEX_POINT('',#1800);
#560=VERTEX_POINT('',#1802);
#561=VERTEX_POINT('',#1804);
#562=VERTEX_POINT('',#1806);
#563=VERTEX_POINT('',#1808);
#564=VERTEX_POINT('',#1812);
#565=VERTEX_POINT('',#1814);
#566=VERTEX_POINT('',#1816);
#567=VERTEX_POINT('',#1818);
#568=VERTEX_POINT('',#1820);
#569=VERTEX_POINT('',#1823);
#570=VERTEX_POINT('',#1825);
#571=VERTEX_POINT('',#1864);
#572=VERTEX_POINT('',#1879);
#573=VERTEX_POINT('',#1890);
#574=VERTEX_POINT('',#1893);
#575=VERTEX_POINT('',#1908);
#576=VERTEX_POINT('',#1910);
#577=VERTEX_POINT('',#1917);
#578=VERTEX_POINT('',#1918);
#579=VERTEX_POINT('',#1923);
#580=VERTEX_POINT('',#1925);
#581=VERTEX_POINT('',#1932);
#582=VERTEX_POINT('',#1938);
#583=VERTEX_POINT('',#1944);
#584=VERTEX_POINT('',#1950);
#585=VERTEX_POINT('',#1959);
#586=VERTEX_POINT('',#1970);
#587=VERTEX_POINT('',#1975);
#588=EDGE_CURVE('',#483,#484,#431,.T.);
#589=EDGE_CURVE('',#484,#485,#227,.T.);
#590=EDGE_CURVE('',#485,#486,#432,.F.);
#591=EDGE_CURVE('',#486,#483,#228,.T.);
#592=EDGE_CURVE('',#483,#487,#229,.T.);
#593=EDGE_CURVE('',#487,#488,#230,.T.);
#594=EDGE_CURVE('',#489,#488,#231,.T.);
#595=EDGE_CURVE('',#484,#489,#232,.T.);
#596=EDGE_CURVE('',#490,#490,#433,.T.);
#597=EDGE_CURVE('',#491,#486,#233,.T.);
#598=EDGE_CURVE('',#492,#491,#234,.T.);
#599=EDGE_CURVE('',#493,#492,#235,.T.);
#600=EDGE_CURVE('',#494,#493,#236,.T.);
#601=EDGE_CURVE('',#495,#494,#237,.T.);
#602=EDGE_CURVE('',#496,#495,#238,.T.);
#603=EDGE_CURVE('',#497,#496,#239,.T.);
#604=EDGE_CURVE('',#498,#497,#240,.T.);
#605=EDGE_CURVE('',#499,#498,#241,.T.);
#606=EDGE_CURVE('',#500,#499,#242,.T.);
#607=EDGE_CURVE('',#501,#500,#243,.T.);
#608=EDGE_CURVE('',#487,#501,#244,.T.);
#609=EDGE_CURVE('',#502,#502,#434,.T.);
#610=EDGE_CURVE('',#503,#503,#435,.T.);
#611=EDGE_CURVE('',#504,#504,#436,.T.);
#612=EDGE_CURVE('',#505,#505,#437,.T.);
#613=EDGE_CURVE('',#506,#506,#438,.T.);
#614=EDGE_CURVE('',#507,#507,#439,.T.);
#615=EDGE_CURVE('',#508,#508,#440,.T.);
#616=EDGE_CURVE('',#509,#509,#441,.T.);
#617=EDGE_CURVE('',#510,#510,#442,.T.);
#618=EDGE_CURVE('',#511,#511,#443,.T.);
#619=EDGE_CURVE('',#512,#512,#444,.T.);
#620=EDGE_CURVE('',#513,#513,#445,.T.);
#621=EDGE_CURVE('',#514,#514,#446,.T.);
#622=EDGE_CURVE('',#515,#515,#447,.T.);
#623=EDGE_CURVE('',#516,#517,#448,.F.);
#624=EDGE_CURVE('',#517,#518,#245,.T.);
#625=EDGE_CURVE('',#518,#519,#449,.T.);
#626=EDGE_CURVE('',#519,#516,#246,.T.);
#627=EDGE_CURVE('',#520,#517,#247,.T.);
#628=EDGE_CURVE('',#521,#520,#248,.T.);
#629=EDGE_CURVE('',#522,#521,#249,.T.);
#630=EDGE_CURVE('',#500,#522,#250,.T.);
#631=EDGE_CURVE('',#499,#523,#251,.T.);
#632=EDGE_CURVE('',#518,#523,#252,.T.);
#633=EDGE_CURVE('',#524,#525,#450,.T.);
#634=EDGE_CURVE('',#525,#526,#253,.T.);
#635=EDGE_CURVE('',#527,#526,#451,.T.);
#636=EDGE_CURVE('',#527,#524,#254,.T.);
#637=EDGE_CURVE('',#488,#525,#255,.T.);
#638=EDGE_CURVE('',#501,#528,#256,.T.);
#639=EDGE_CURVE('',#526,#528,#257,.T.);
#640=EDGE_CURVE('',#524,#529,#258,.T.);
#641=EDGE_CURVE('',#529,#530,#259,.T.);
#642=EDGE_CURVE('',#530,#531,#260,.T.);
#643=EDGE_CURVE('',#531,#489,#261,.T.);
#644=EDGE_CURVE('',#532,#532,#452,.T.);
#645=EDGE_CURVE('',#533,#533,#453,.T.);
#646=EDGE_CURVE('',#534,#519,#262,.T.);
#647=EDGE_CURVE('',#495,#534,#263,.T.);
#648=EDGE_CURVE('',#494,#529,#264,.T.);
#649=EDGE_CURVE('',#516,#527,#265,.T.);
#650=EDGE_CURVE('',#523,#535,#266,.T.);
#651=EDGE_CURVE('',#535,#536,#267,.T.);
#652=EDGE_CURVE('',#536,#537,#268,.T.);
#653=EDGE_CURVE('',#537,#534,#269,.T.);
#654=EDGE_CURVE('',#538,#538,#454,.T.);
#655=EDGE_CURVE('',#539,#539,#455,.T.);
#656=EDGE_CURVE('',#539,#515,#270,.T.);
#657=EDGE_CURVE('',#540,#540,#456,.T.);
#658=EDGE_CURVE('',#540,#514,#271,.T.);
#659=EDGE_CURVE('',#541,#542,#272,.T.);
#660=EDGE_CURVE('',#541,#543,#273,.T.);
#661=EDGE_CURVE('',#544,#543,#274,.T.);
#662=EDGE_CURVE('',#542,#544,#275,.T.);
#663=EDGE_CURVE('',#545,#546,#276,.T.);
#664=EDGE_CURVE('',#547,#545,#277,.T.);
#665=EDGE_CURVE('',#547,#548,#278,.T.);
#666=EDGE_CURVE('',#548,#546,#279,.T.);
#667=EDGE_CURVE('',#544,#547,#457,.T.);
#668=EDGE_CURVE('',#543,#548,#458,.T.);
#669=EDGE_CURVE('',#546,#541,#280,.T.);
#670=EDGE_CURVE('',#549,#550,#281,.T.);
#671=EDGE_CURVE('',#549,#551,#282,.T.);
#672=EDGE_CURVE('',#552,#551,#283,.T.);
#673=EDGE_CURVE('',#550,#552,#284,.T.);
#674=EDGE_CURVE('',#553,#554,#285,.T.);
#675=EDGE_CURVE('',#555,#553,#286,.T.);
#676=EDGE_CURVE('',#555,#556,#287,.T.);
#677=EDGE_CURVE('',#556,#554,#288,.T.);
#678=EDGE_CURVE('',#552,#555,#459,.T.);
#679=EDGE_CURVE('',#551,#556,#460,.T.);
#680=EDGE_CURVE('',#554,#549,#289,.T.);
#681=EDGE_CURVE('',#545,#557,#290,.T.);
#682=EDGE_CURVE('',#557,#558,#291,.T.);
#683=EDGE_CURVE('',#558,#559,#292,.T.);
#684=EDGE_CURVE('',#559,#560,#461,.T.);
#685=EDGE_CURVE('',#560,#561,#462,.T.);
#686=EDGE_CURVE('',#561,#562,#293,.T.);
#687=EDGE_CURVE('',#562,#563,#294,.T.);
#688=EDGE_CURVE('',#563,#550,#295,.T.);
#689=EDGE_CURVE('',#553,#542,#296,.T.);
#690=EDGE_CURVE('',#564,#564,#463,.T.);
#691=EDGE_CURVE('',#565,#565,#464,.T.);
#692=EDGE_CURVE('',#566,#566,#465,.T.);
#693=EDGE_CURVE('',#567,#567,#466,.T.);
#694=EDGE_CURVE('',#568,#568,#467,.T.);
#695=EDGE_CURVE('',#490,#569,#297,.T.);
#696=EDGE_CURVE('',#570,#569,#23,.T.);
#697=EDGE_CURVE('',#571,#570,#24,.T.);
#698=EDGE_CURVE('',#572,#571,#25,.T.);
#699=EDGE_CURVE('',#572,#573,#298,.T.);
#700=EDGE_CURVE('',#573,#573,#468,.T.);
#701=EDGE_CURVE('',#574,#572,#26,.T.);
#702=EDGE_CURVE('',#569,#574,#27,.T.);
#703=EDGE_CURVE('',#575,#575,#469,.T.);
#704=EDGE_CURVE('',#575,#576,#299,.T.);
#705=EDGE_CURVE('',#576,#576,#470,.T.);
#706=EDGE_CURVE('',#520,#521,#471,.T.);
#707=EDGE_CURVE('',#577,#578,#15,.T.);
#708=EDGE_CURVE('',#521,#577,#472,.T.);
#709=EDGE_CURVE('',#579,#520,#473,.T.);
#710=EDGE_CURVE('',#579,#580,#300,.T.);
#711=EDGE_CURVE('',#580,#580,#474,.T.);
#712=EDGE_CURVE('',#578,#579,#475,.T.);
#713=EDGE_CURVE('',#580,#513,#301,.T.);
#714=EDGE_CURVE('',#568,#581,#302,.T.);
#715=EDGE_CURVE('',#581,#581,#476,.T.);
#716=EDGE_CURVE('',#581,#512,#303,.T.);
#717=EDGE_CURVE('',#567,#582,#304,.T.);
#718=EDGE_CURVE('',#582,#582,#477,.T.);
#719=EDGE_CURVE('',#582,#511,#305,.T.);
#720=EDGE_CURVE('',#566,#583,#306,.T.);
#721=EDGE_CURVE('',#583,#583,#478,.T.);
#722=EDGE_CURVE('',#583,#510,#307,.T.);
#723=EDGE_CURVE('',#565,#584,#308,.T.);
#724=EDGE_CURVE('',#584,#584,#479,.T.);
#725=EDGE_CURVE('',#584,#509,#309,.T.);
#726=EDGE_CURVE('',#561,#559,#16,.T.);
#727=EDGE_CURVE('',#560,#585,#310,.T.);
#728=EDGE_CURVE('',#585,#585,#480,.T.);
#729=EDGE_CURVE('',#585,#508,#311,.T.);
#730=EDGE_CURVE('',#577,#522,#312,.T.);
#731=EDGE_CURVE('',#491,#558,#313,.T.);
#732=EDGE_CURVE('',#485,#562,#314,.T.);
#733=EDGE_CURVE('',#507,#586,#315,.T.);
#734=EDGE_CURVE('',#586,#586,#481,.T.);
#735=EDGE_CURVE('',#506,#587,#316,.T.);
#736=EDGE_CURVE('',#587,#587,#482,.T.);
#737=EDGE_CURVE('',#505,#533,#317,.T.);
#738=EDGE_CURVE('',#504,#570,#318,.T.);
#739=EDGE_CURVE('',#571,#532,#319,.T.);
#740=EDGE_CURVE('',#503,#538,#320,.T.);
#741=EDGE_CURVE('',#563,#531,#321,.T.);
#742=EDGE_CURVE('',#493,#530,#322,.T.);
#743=EDGE_CURVE('',#492,#557,#323,.T.);
#744=EDGE_CURVE('',#564,#502,#324,.T.);
#745=EDGE_CURVE('',#528,#578,#325,.T.);
#746=EDGE_CURVE('',#496,#537,#326,.T.);
#747=EDGE_CURVE('',#497,#536,#327,.T.);
#748=EDGE_CURVE('',#498,#535,#328,.T.);
#749=ORIENTED_EDGE('',*,*,#588,.T.);
#750=ORIENTED_EDGE('',*,*,#589,.T.);
#751=ORIENTED_EDGE('',*,*,#590,.T.);
#752=ORIENTED_EDGE('',*,*,#591,.T.);
#753=ORIENTED_EDGE('',*,*,#588,.F.);
#754=ORIENTED_EDGE('',*,*,#592,.T.);
#755=ORIENTED_EDGE('',*,*,#593,.T.);
#756=ORIENTED_EDGE('',*,*,#594,.F.);
#757=ORIENTED_EDGE('',*,*,#595,.F.);
#758=ORIENTED_EDGE('',*,*,#596,.T.);
#759=ORIENTED_EDGE('',*,*,#591,.F.);
#760=ORIENTED_EDGE('',*,*,#597,.F.);
#761=ORIENTED_EDGE('',*,*,#598,.F.);
#762=ORIENTED_EDGE('',*,*,#599,.F.);
#763=ORIENTED_EDGE('',*,*,#600,.F.);
#764=ORIENTED_EDGE('',*,*,#601,.F.);
#765=ORIENTED_EDGE('',*,*,#602,.F.);
#766=ORIENTED_EDGE('',*,*,#603,.F.);
#767=ORIENTED_EDGE('',*,*,#604,.F.);
#768=ORIENTED_EDGE('',*,*,#605,.F.);
#769=ORIENTED_EDGE('',*,*,#606,.F.);
#770=ORIENTED_EDGE('',*,*,#607,.F.);
#771=ORIENTED_EDGE('',*,*,#608,.F.);
#772=ORIENTED_EDGE('',*,*,#592,.F.);
#773=ORIENTED_EDGE('',*,*,#609,.F.);
#774=ORIENTED_EDGE('',*,*,#610,.T.);
#775=ORIENTED_EDGE('',*,*,#611,.T.);
#776=ORIENTED_EDGE('',*,*,#612,.T.);
#777=ORIENTED_EDGE('',*,*,#613,.T.);
#778=ORIENTED_EDGE('',*,*,#614,.T.);
#779=ORIENTED_EDGE('',*,*,#615,.T.);
#780=ORIENTED_EDGE('',*,*,#616,.T.);
#781=ORIENTED_EDGE('',*,*,#617,.T.);
#782=ORIENTED_EDGE('',*,*,#618,.T.);
#783=ORIENTED_EDGE('',*,*,#619,.T.);
#784=ORIENTED_EDGE('',*,*,#620,.T.);
#785=ORIENTED_EDGE('',*,*,#621,.T.);
#786=ORIENTED_EDGE('',*,*,#622,.T.);
#787=ORIENTED_EDGE('',*,*,#623,.T.);
#788=ORIENTED_EDGE('',*,*,#624,.T.);
#789=ORIENTED_EDGE('',*,*,#625,.T.);
#790=ORIENTED_EDGE('',*,*,#626,.T.);
#791=ORIENTED_EDGE('',*,*,#624,.F.);
#792=ORIENTED_EDGE('',*,*,#627,.F.);
#793=ORIENTED_EDGE('',*,*,#628,.F.);
#794=ORIENTED_EDGE('',*,*,#629,.F.);
#795=ORIENTED_EDGE('',*,*,#630,.F.);
#796=ORIENTED_EDGE('',*,*,#606,.T.);
#797=ORIENTED_EDGE('',*,*,#631,.T.);
#798=ORIENTED_EDGE('',*,*,#632,.F.);
#799=ORIENTED_EDGE('',*,*,#633,.T.);
#800=ORIENTED_EDGE('',*,*,#634,.T.);
#801=ORIENTED_EDGE('',*,*,#635,.F.);
#802=ORIENTED_EDGE('',*,*,#636,.T.);
#803=ORIENTED_EDGE('',*,*,#634,.F.);
#804=ORIENTED_EDGE('',*,*,#637,.F.);
#805=ORIENTED_EDGE('',*,*,#593,.F.);
#806=ORIENTED_EDGE('',*,*,#608,.T.);
#807=ORIENTED_EDGE('',*,*,#638,.T.);
#808=ORIENTED_EDGE('',*,*,#639,.F.);
#809=ORIENTED_EDGE('',*,*,#633,.F.);
#810=ORIENTED_EDGE('',*,*,#640,.T.);
#811=ORIENTED_EDGE('',*,*,#641,.T.);
#812=ORIENTED_EDGE('',*,*,#642,.T.);
#813=ORIENTED_EDGE('',*,*,#643,.T.);
#814=ORIENTED_EDGE('',*,*,#594,.T.);
#815=ORIENTED_EDGE('',*,*,#637,.T.);
#816=ORIENTED_EDGE('',*,*,#644,.T.);
#817=ORIENTED_EDGE('',*,*,#645,.T.);
#818=ORIENTED_EDGE('',*,*,#626,.F.);
#819=ORIENTED_EDGE('',*,*,#646,.F.);
#820=ORIENTED_EDGE('',*,*,#647,.F.);
#821=ORIENTED_EDGE('',*,*,#601,.T.);
#822=ORIENTED_EDGE('',*,*,#648,.T.);
#823=ORIENTED_EDGE('',*,*,#640,.F.);
#824=ORIENTED_EDGE('',*,*,#636,.F.);
#825=ORIENTED_EDGE('',*,*,#649,.F.);
#826=ORIENTED_EDGE('',*,*,#625,.F.);
#827=ORIENTED_EDGE('',*,*,#632,.T.);
#828=ORIENTED_EDGE('',*,*,#650,.T.);
#829=ORIENTED_EDGE('',*,*,#651,.T.);
#830=ORIENTED_EDGE('',*,*,#652,.T.);
#831=ORIENTED_EDGE('',*,*,#653,.T.);
#832=ORIENTED_EDGE('',*,*,#646,.T.);
#833=ORIENTED_EDGE('',*,*,#654,.T.);
#834=ORIENTED_EDGE('',*,*,#655,.F.);
#835=ORIENTED_EDGE('',*,*,#656,.T.);
#836=ORIENTED_EDGE('',*,*,#622,.F.);
#837=ORIENTED_EDGE('',*,*,#656,.F.);
#838=ORIENTED_EDGE('',*,*,#657,.F.);
#839=ORIENTED_EDGE('',*,*,#658,.T.);
#840=ORIENTED_EDGE('',*,*,#621,.F.);
#841=ORIENTED_EDGE('',*,*,#658,.F.);
#842=ORIENTED_EDGE('',*,*,#659,.F.);
#843=ORIENTED_EDGE('',*,*,#660,.T.);
#844=ORIENTED_EDGE('',*,*,#661,.F.);
#845=ORIENTED_EDGE('',*,*,#662,.F.);
#846=ORIENTED_EDGE('',*,*,#663,.F.);
#847=ORIENTED_EDGE('',*,*,#664,.F.);
#848=ORIENTED_EDGE('',*,*,#665,.T.);
#849=ORIENTED_EDGE('',*,*,#666,.T.);
#850=ORIENTED_EDGE('',*,*,#667,.F.);
#851=ORIENTED_EDGE('',*,*,#661,.T.);
#852=ORIENTED_EDGE('',*,*,#668,.T.);
#853=ORIENTED_EDGE('',*,*,#665,.F.);
#854=ORIENTED_EDGE('',*,*,#668,.F.);
#855=ORIENTED_EDGE('',*,*,#660,.F.);
#856=ORIENTED_EDGE('',*,*,#669,.F.);
#857=ORIENTED_EDGE('',*,*,#666,.F.);
#858=ORIENTED_EDGE('',*,*,#655,.T.);
#859=ORIENTED_EDGE('',*,*,#670,.F.);
#860=ORIENTED_EDGE('',*,*,#671,.T.);
#861=ORIENTED_EDGE('',*,*,#672,.F.);
#862=ORIENTED_EDGE('',*,*,#673,.F.);
#863=ORIENTED_EDGE('',*,*,#674,.F.);
#864=ORIENTED_EDGE('',*,*,#675,.F.);
#865=ORIENTED_EDGE('',*,*,#676,.T.);
#866=ORIENTED_EDGE('',*,*,#677,.T.);
#867=ORIENTED_EDGE('',*,*,#678,.F.);
#868=ORIENTED_EDGE('',*,*,#672,.T.);
#869=ORIENTED_EDGE('',*,*,#679,.T.);
#870=ORIENTED_EDGE('',*,*,#676,.F.);
#871=ORIENTED_EDGE('',*,*,#680,.F.);
#872=ORIENTED_EDGE('',*,*,#677,.F.);
#873=ORIENTED_EDGE('',*,*,#679,.F.);
#874=ORIENTED_EDGE('',*,*,#671,.F.);
#875=ORIENTED_EDGE('',*,*,#657,.T.);
#876=ORIENTED_EDGE('',*,*,#664,.T.);
#877=ORIENTED_EDGE('',*,*,#681,.T.);
#878=ORIENTED_EDGE('',*,*,#682,.T.);
#879=ORIENTED_EDGE('',*,*,#683,.T.);
#880=ORIENTED_EDGE('',*,*,#684,.T.);
#881=ORIENTED_EDGE('',*,*,#685,.T.);
#882=ORIENTED_EDGE('',*,*,#686,.T.);
#883=ORIENTED_EDGE('',*,*,#687,.T.);
#884=ORIENTED_EDGE('',*,*,#688,.T.);
#885=ORIENTED_EDGE('',*,*,#673,.T.);
#886=ORIENTED_EDGE('',*,*,#678,.T.);
#887=ORIENTED_EDGE('',*,*,#675,.T.);
#888=ORIENTED_EDGE('',*,*,#689,.T.);
#889=ORIENTED_EDGE('',*,*,#662,.T.);
#890=ORIENTED_EDGE('',*,*,#667,.T.);
#891=ORIENTED_EDGE('',*,*,#690,.T.);
#892=ORIENTED_EDGE('',*,*,#691,.T.);
#893=ORIENTED_EDGE('',*,*,#692,.T.);
#894=ORIENTED_EDGE('',*,*,#693,.T.);
#895=ORIENTED_EDGE('',*,*,#694,.T.);
#896=ORIENTED_EDGE('',*,*,#596,.F.);
#897=ORIENTED_EDGE('',*,*,#695,.T.);
#898=ORIENTED_EDGE('',*,*,#696,.F.);
#899=ORIENTED_EDGE('',*,*,#697,.F.);
#900=ORIENTED_EDGE('',*,*,#698,.F.);
#901=ORIENTED_EDGE('',*,*,#699,.T.);
#902=ORIENTED_EDGE('',*,*,#700,.F.);
#903=ORIENTED_EDGE('',*,*,#699,.F.);
#904=ORIENTED_EDGE('',*,*,#701,.F.);
#905=ORIENTED_EDGE('',*,*,#702,.F.);
#906=ORIENTED_EDGE('',*,*,#695,.F.);
#907=ORIENTED_EDGE('',*,*,#700,.T.);
#908=ORIENTED_EDGE('',*,*,#703,.F.);
#909=ORIENTED_EDGE('',*,*,#704,.T.);
#910=ORIENTED_EDGE('',*,*,#705,.F.);
#911=ORIENTED_EDGE('',*,*,#704,.F.);
#912=ORIENTED_EDGE('',*,*,#705,.T.);
#913=ORIENTED_EDGE('',*,*,#628,.T.);
#914=ORIENTED_EDGE('',*,*,#706,.T.);
#915=ORIENTED_EDGE('',*,*,#707,.F.);
#916=ORIENTED_EDGE('',*,*,#708,.F.);
#917=ORIENTED_EDGE('',*,*,#706,.F.);
#918=ORIENTED_EDGE('',*,*,#709,.F.);
#919=ORIENTED_EDGE('',*,*,#710,.T.);
#920=ORIENTED_EDGE('',*,*,#711,.F.);
#921=ORIENTED_EDGE('',*,*,#710,.F.);
#922=ORIENTED_EDGE('',*,*,#712,.F.);
#923=ORIENTED_EDGE('',*,*,#711,.T.);
#924=ORIENTED_EDGE('',*,*,#713,.T.);
#925=ORIENTED_EDGE('',*,*,#620,.F.);
#926=ORIENTED_EDGE('',*,*,#713,.F.);
#927=ORIENTED_EDGE('',*,*,#694,.F.);
#928=ORIENTED_EDGE('',*,*,#714,.T.);
#929=ORIENTED_EDGE('',*,*,#715,.F.);
#930=ORIENTED_EDGE('',*,*,#714,.F.);
#931=ORIENTED_EDGE('',*,*,#715,.T.);
#932=ORIENTED_EDGE('',*,*,#716,.T.);
#933=ORIENTED_EDGE('',*,*,#619,.F.);
#934=ORIENTED_EDGE('',*,*,#716,.F.);
#935=ORIENTED_EDGE('',*,*,#693,.F.);
#936=ORIENTED_EDGE('',*,*,#717,.T.);
#937=ORIENTED_EDGE('',*,*,#718,.F.);
#938=ORIENTED_EDGE('',*,*,#717,.F.);
#939=ORIENTED_EDGE('',*,*,#718,.T.);
#940=ORIENTED_EDGE('',*,*,#719,.T.);
#941=ORIENTED_EDGE('',*,*,#618,.F.);
#942=ORIENTED_EDGE('',*,*,#719,.F.);
#943=ORIENTED_EDGE('',*,*,#692,.F.);
#944=ORIENTED_EDGE('',*,*,#720,.T.);
#945=ORIENTED_EDGE('',*,*,#721,.F.);
#946=ORIENTED_EDGE('',*,*,#720,.F.);
#947=ORIENTED_EDGE('',*,*,#721,.T.);
#948=ORIENTED_EDGE('',*,*,#722,.T.);
#949=ORIENTED_EDGE('',*,*,#617,.F.);
#950=ORIENTED_EDGE('',*,*,#722,.F.);
#951=ORIENTED_EDGE('',*,*,#691,.F.);
#952=ORIENTED_EDGE('',*,*,#723,.T.);
#953=ORIENTED_EDGE('',*,*,#724,.F.);
#954=ORIENTED_EDGE('',*,*,#723,.F.);
#955=ORIENTED_EDGE('',*,*,#724,.T.);
#956=ORIENTED_EDGE('',*,*,#725,.T.);
#957=ORIENTED_EDGE('',*,*,#616,.F.);
#958=ORIENTED_EDGE('',*,*,#725,.F.);
#959=ORIENTED_EDGE('',*,*,#726,.F.);
#960=ORIENTED_EDGE('',*,*,#685,.F.);
#961=ORIENTED_EDGE('',*,*,#727,.T.);
#962=ORIENTED_EDGE('',*,*,#728,.F.);
#963=ORIENTED_EDGE('',*,*,#727,.F.);
#964=ORIENTED_EDGE('',*,*,#684,.F.);
#965=ORIENTED_EDGE('',*,*,#728,.T.);
#966=ORIENTED_EDGE('',*,*,#729,.T.);
#967=ORIENTED_EDGE('',*,*,#615,.F.);
#968=ORIENTED_EDGE('',*,*,#729,.F.);
#969=ORIENTED_EDGE('',*,*,#708,.T.);
#970=ORIENTED_EDGE('',*,*,#730,.T.);
#971=ORIENTED_EDGE('',*,*,#629,.T.);
#972=ORIENTED_EDGE('',*,*,#726,.T.);
#973=ORIENTED_EDGE('',*,*,#683,.F.);
#974=ORIENTED_EDGE('',*,*,#731,.F.);
#975=ORIENTED_EDGE('',*,*,#597,.T.);
#976=ORIENTED_EDGE('',*,*,#590,.F.);
#977=ORIENTED_EDGE('',*,*,#732,.T.);
#978=ORIENTED_EDGE('',*,*,#686,.F.);
#979=ORIENTED_EDGE('',*,*,#614,.F.);
#980=ORIENTED_EDGE('',*,*,#733,.T.);
#981=ORIENTED_EDGE('',*,*,#734,.T.);
#982=ORIENTED_EDGE('',*,*,#733,.F.);
#983=ORIENTED_EDGE('',*,*,#734,.F.);
#984=ORIENTED_EDGE('',*,*,#613,.F.);
#985=ORIENTED_EDGE('',*,*,#735,.T.);
#986=ORIENTED_EDGE('',*,*,#736,.T.);
#987=ORIENTED_EDGE('',*,*,#735,.F.);
#988=ORIENTED_EDGE('',*,*,#736,.F.);
#989=ORIENTED_EDGE('',*,*,#612,.F.);
#990=ORIENTED_EDGE('',*,*,#737,.T.);
#991=ORIENTED_EDGE('',*,*,#645,.F.);
#992=ORIENTED_EDGE('',*,*,#737,.F.);
#993=ORIENTED_EDGE('',*,*,#611,.F.);
#994=ORIENTED_EDGE('',*,*,#738,.T.);
#995=ORIENTED_EDGE('',*,*,#696,.T.);
#996=ORIENTED_EDGE('',*,*,#702,.T.);
#997=ORIENTED_EDGE('',*,*,#701,.T.);
#998=ORIENTED_EDGE('',*,*,#698,.T.);
#999=ORIENTED_EDGE('',*,*,#739,.T.);
#1000=ORIENTED_EDGE('',*,*,#644,.F.);
#1001=ORIENTED_EDGE('',*,*,#739,.F.);
#1002=ORIENTED_EDGE('',*,*,#697,.T.);
#1003=ORIENTED_EDGE('',*,*,#738,.F.);
#1004=ORIENTED_EDGE('',*,*,#610,.F.);
#1005=ORIENTED_EDGE('',*,*,#740,.T.);
#1006=ORIENTED_EDGE('',*,*,#654,.F.);
#1007=ORIENTED_EDGE('',*,*,#740,.F.);
#1008=ORIENTED_EDGE('',*,*,#659,.T.);
#1009=ORIENTED_EDGE('',*,*,#689,.F.);
#1010=ORIENTED_EDGE('',*,*,#674,.T.);
#1011=ORIENTED_EDGE('',*,*,#680,.T.);
#1012=ORIENTED_EDGE('',*,*,#670,.T.);
#1013=ORIENTED_EDGE('',*,*,#688,.F.);
#1014=ORIENTED_EDGE('',*,*,#741,.T.);
#1015=ORIENTED_EDGE('',*,*,#642,.F.);
#1016=ORIENTED_EDGE('',*,*,#742,.F.);
#1017=ORIENTED_EDGE('',*,*,#599,.T.);
#1018=ORIENTED_EDGE('',*,*,#743,.T.);
#1019=ORIENTED_EDGE('',*,*,#681,.F.);
#1020=ORIENTED_EDGE('',*,*,#663,.T.);
#1021=ORIENTED_EDGE('',*,*,#669,.T.);
#1022=ORIENTED_EDGE('',*,*,#690,.F.);
#1023=ORIENTED_EDGE('',*,*,#744,.T.);
#1024=ORIENTED_EDGE('',*,*,#609,.T.);
#1025=ORIENTED_EDGE('',*,*,#744,.F.);
#1026=ORIENTED_EDGE('',*,*,#707,.T.);
#1027=ORIENTED_EDGE('',*,*,#745,.F.);
#1028=ORIENTED_EDGE('',*,*,#638,.F.);
#1029=ORIENTED_EDGE('',*,*,#607,.T.);
#1030=ORIENTED_EDGE('',*,*,#630,.T.);
#1031=ORIENTED_EDGE('',*,*,#730,.F.);
#1032=ORIENTED_EDGE('',*,*,#589,.F.);
#1033=ORIENTED_EDGE('',*,*,#595,.T.);
#1034=ORIENTED_EDGE('',*,*,#643,.F.);
#1035=ORIENTED_EDGE('',*,*,#741,.F.);
#1036=ORIENTED_EDGE('',*,*,#687,.F.);
#1037=ORIENTED_EDGE('',*,*,#732,.F.);
#1038=ORIENTED_EDGE('',*,*,#598,.T.);
#1039=ORIENTED_EDGE('',*,*,#731,.T.);
#1040=ORIENTED_EDGE('',*,*,#682,.F.);
#1041=ORIENTED_EDGE('',*,*,#743,.F.);
#1042=ORIENTED_EDGE('',*,*,#600,.T.);
#1043=ORIENTED_EDGE('',*,*,#742,.T.);
#1044=ORIENTED_EDGE('',*,*,#641,.F.);
#1045=ORIENTED_EDGE('',*,*,#648,.F.);
#1046=ORIENTED_EDGE('',*,*,#602,.T.);
#1047=ORIENTED_EDGE('',*,*,#647,.T.);
#1048=ORIENTED_EDGE('',*,*,#653,.F.);
#1049=ORIENTED_EDGE('',*,*,#746,.F.);
#1050=ORIENTED_EDGE('',*,*,#603,.T.);
#1051=ORIENTED_EDGE('',*,*,#746,.T.);
#1052=ORIENTED_EDGE('',*,*,#652,.F.);
#1053=ORIENTED_EDGE('',*,*,#747,.F.);
#1054=ORIENTED_EDGE('',*,*,#604,.T.);
#1055=ORIENTED_EDGE('',*,*,#747,.T.);
#1056=ORIENTED_EDGE('',*,*,#651,.F.);
#1057=ORIENTED_EDGE('',*,*,#748,.F.);
#1058=ORIENTED_EDGE('',*,*,#605,.T.);
#1059=ORIENTED_EDGE('',*,*,#748,.T.);
#1060=ORIENTED_EDGE('',*,*,#650,.F.);
#1061=ORIENTED_EDGE('',*,*,#631,.F.);
#1062=ORIENTED_EDGE('',*,*,#703,.T.);
#1063=ORIENTED_EDGE('',*,*,#649,.T.);
#1064=ORIENTED_EDGE('',*,*,#635,.T.);
#1065=ORIENTED_EDGE('',*,*,#639,.T.);
#1066=ORIENTED_EDGE('',*,*,#745,.T.);
#1067=ORIENTED_EDGE('',*,*,#712,.T.);
#1068=ORIENTED_EDGE('',*,*,#709,.T.);
#1069=ORIENTED_EDGE('',*,*,#627,.T.);
#1070=ORIENTED_EDGE('',*,*,#623,.F.);
#1071=CYLINDRICAL_SURFACE('',#1173,1.);
#1072=CYLINDRICAL_SURFACE('',#1193,4.);
#1073=CYLINDRICAL_SURFACE('',#1197,4.);
#1074=CYLINDRICAL_SURFACE('',#1207,1.);
#1075=CYLINDRICAL_SURFACE('',#1209,1.);
#1076=CYLINDRICAL_SURFACE('',#1213,2.);
#1077=CYLINDRICAL_SURFACE('',#1219,2.);
#1078=CYLINDRICAL_SURFACE('',#1231,1.2295);
#1079=CYLINDRICAL_SURFACE('',#1234,1.2295);
#1080=CYLINDRICAL_SURFACE('',#1245,1.6);
#1081=CYLINDRICAL_SURFACE('',#1248,1.6);
#1082=CYLINDRICAL_SURFACE('',#1251,1.6);
#1083=CYLINDRICAL_SURFACE('',#1254,1.6);
#1084=CYLINDRICAL_SURFACE('',#1257,1.6);
#1085=CYLINDRICAL_SURFACE('',#1260,1.6);
#1086=CYLINDRICAL_SURFACE('',#1263,4.);
#1087=CYLINDRICAL_SURFACE('',#1266,1.25);
#1088=CYLINDRICAL_SURFACE('',#1269,0.7835);
#1089=CYLINDRICAL_SURFACE('',#1270,0.7835);
#1090=CYLINDRICAL_SURFACE('',#1271,0.7835);
#1091=CYLINDRICAL_SURFACE('',#1273,5.);
#1092=ADVANCED_FACE('',(#85),#1071,.T.);
#1093=ADVANCED_FACE('',(#86,#28),#54,.T.);
#1094=ADVANCED_FACE('',(#87,#29,#30,#31,#32,#33,#34,#35,#36,#37,#38,#39,
#40,#41,#42),#55,.F.);
#1095=ADVANCED_FACE('',(#88),#1072,.T.);
#1096=ADVANCED_FACE('',(#89),#56,.T.);
#1097=ADVANCED_FACE('',(#90),#1073,.T.);
#1098=ADVANCED_FACE('',(#91),#57,.T.);
#1099=ADVANCED_FACE('',(#92,#43,#44),#58,.F.);
#1100=ADVANCED_FACE('',(#93),#59,.T.);
#1101=ADVANCED_FACE('',(#94,#45),#60,.F.);
#1102=ADVANCED_FACE('',(#95),#1074,.F.);
#1103=ADVANCED_FACE('',(#96),#1075,.F.);
#1104=ADVANCED_FACE('',(#97),#61,.F.);
#1105=ADVANCED_FACE('',(#98),#62,.F.);
#1106=ADVANCED_FACE('',(#99),#1076,.F.);
#1107=ADVANCED_FACE('',(#100,#46),#63,.T.);
#1108=ADVANCED_FACE('',(#101),#64,.F.);
#1109=ADVANCED_FACE('',(#102),#65,.F.);
#1110=ADVANCED_FACE('',(#103),#1077,.F.);
#1111=ADVANCED_FACE('',(#104,#47),#66,.T.);
#1112=ADVANCED_FACE('',(#105,#48,#49,#50,#51,#52),#67,.T.);
#1113=ADVANCED_FACE('',(#106),#1078,.F.);
#1114=ADVANCED_FACE('',(#107),#68,.T.);
#1115=ADVANCED_FACE('',(#108),#1079,.F.);
#1116=ADVANCED_FACE('',(#109),#69,.T.);
#1117=ADVANCED_FACE('',(#110),#70,.T.);
#1118=ADVANCED_FACE('',(#111),#17,.F.);
#1119=ADVANCED_FACE('',(#112),#1080,.F.);
#1120=ADVANCED_FACE('',(#113),#18,.F.);
#1121=ADVANCED_FACE('',(#114),#1081,.F.);
#1122=ADVANCED_FACE('',(#115),#19,.F.);
#1123=ADVANCED_FACE('',(#116),#1082,.F.);
#1124=ADVANCED_FACE('',(#117),#20,.F.);
#1125=ADVANCED_FACE('',(#118),#1083,.F.);
#1126=ADVANCED_FACE('',(#119),#21,.F.);
#1127=ADVANCED_FACE('',(#120),#1084,.F.);
#1128=ADVANCED_FACE('',(#121),#22,.F.);
#1129=ADVANCED_FACE('',(#122),#1085,.F.);
#1130=ADVANCED_FACE('',(#123),#71,.T.);
#1131=ADVANCED_FACE('',(#124),#72,.T.);
#1132=ADVANCED_FACE('',(#125),#1086,.F.);
#1133=ADVANCED_FACE('',(#126),#73,.F.);
#1134=ADVANCED_FACE('',(#127),#1087,.F.);
#1135=ADVANCED_FACE('',(#128),#74,.F.);
#1136=ADVANCED_FACE('',(#129),#1088,.F.);
#1137=ADVANCED_FACE('',(#130),#1089,.F.);
#1138=ADVANCED_FACE('',(#131),#1090,.F.);
#1139=ADVANCED_FACE('',(#132),#75,.T.);
#1140=ADVANCED_FACE('',(#133),#1091,.F.);
#1141=ADVANCED_FACE('',(#134),#76,.T.);
#1142=ADVANCED_FACE('',(#135),#77,.T.);
#1143=ADVANCED_FACE('',(#136),#78,.T.);
#1144=ADVANCED_FACE('',(#137),#79,.T.);
#1145=ADVANCED_FACE('',(#138),#80,.T.);
#1146=ADVANCED_FACE('',(#139),#81,.T.);
#1147=ADVANCED_FACE('',(#140),#82,.T.);
#1148=ADVANCED_FACE('',(#141,#53),#83,.T.);
#1149=ADVANCED_FACE('',(#142),#84,.T.);
#1150=CLOSED_SHELL('',(#1092,#1093,#1094,#1095,#1096,#1097,#1098,#1099,
#1100,#1101,#1102,#1103,#1104,#1105,#1106,#1107,#1108,#1109,#1110,#1111,
#1112,#1113,#1114,#1115,#1116,#1117,#1118,#1119,#1120,#1121,#1122,#1123,
#1124,#1125,#1126,#1127,#1128,#1129,#1130,#1131,#1132,#1133,#1134,#1135,
#1136,#1137,#1138,#1139,#1140,#1141,#1142,#1143,#1144,#1145,#1146,#1147,
#1148,#1149));
#1151=DERIVED_UNIT_ELEMENT(#1154,1.);
#1152=DERIVED_UNIT_ELEMENT(#2010,-3.);
#1153=DIMENSIONAL_EXPONENTS(0.,1.,0.,0.,0.,0.,0.);
#1154=(
CONVERSION_BASED_UNIT('gram',#1156)
MASS_UNIT()
NAMED_UNIT(#1153)
);
#1155=(
MASS_UNIT()
NAMED_UNIT(*)
SI_UNIT(.KILO.,.GRAM.)
);
#1156=MASS_MEASURE_WITH_UNIT(MASS_MEASURE(0.001),#1155);
#1157=DERIVED_UNIT((#1151,#1152));
#1158=MEASURE_REPRESENTATION_ITEM('density measure',
POSITIVE_RATIO_MEASURE(1.13),#1157);
#1159=PROPERTY_DEFINITION_REPRESENTATION(#1164,#1161);
#1160=PROPERTY_DEFINITION_REPRESENTATION(#1165,#1162);
#1161=REPRESENTATION('material name',(#1163),#2007);
#1162=REPRESENTATION('density',(#1158),#2007);
#1163=DESCRIPTIVE_REPRESENTATION_ITEM('Nylon 6/6','Nylon 6/6');
#1164=PROPERTY_DEFINITION('material property','material name',#2017);
#1165=PROPERTY_DEFINITION('material property','density of part',#2017);
#1166=DATE_TIME_ROLE('creation_date');
#1167=APPLIED_DATE_AND_TIME_ASSIGNMENT(#1168,#1166,(#2017));
#1168=DATE_AND_TIME(#1169,#1170);
#1169=CALENDAR_DATE(2026,14,4);
#1170=LOCAL_TIME(0,0,0.,#1171);
#1171=COORDINATED_UNIVERSAL_TIME_OFFSET(0,0,.BEHIND.);
#1172=AXIS2_PLACEMENT_3D('',#1607,#1283,#1284);
#1173=AXIS2_PLACEMENT_3D('',#1608,#1285,#1286);
#1174=AXIS2_PLACEMENT_3D('',#1611,#1287,#1288);
#1175=AXIS2_PLACEMENT_3D('',#1615,#1290,#1291);
#1176=AXIS2_PLACEMENT_3D('',#1617,#1293,#1294);
#1177=AXIS2_PLACEMENT_3D('',#1626,#1299,#1300);
#1178=AXIS2_PLACEMENT_3D('',#1627,#1301,#1302);
#1179=AXIS2_PLACEMENT_3D('',#1652,#1315,#1316);
#1180=AXIS2_PLACEMENT_3D('',#1654,#1317,#1318);
#1181=AXIS2_PLACEMENT_3D('',#1656,#1319,#1320);
#1182=AXIS2_PLACEMENT_3D('',#1658,#1321,#1322);
#1183=AXIS2_PLACEMENT_3D('',#1660,#1323,#1324);
#1184=AXIS2_PLACEMENT_3D('',#1662,#1325,#1326);
#1185=AXIS2_PLACEMENT_3D('',#1664,#1327,#1328);
#1186=AXIS2_PLACEMENT_3D('',#1666,#1329,#1330);
#1187=AXIS2_PLACEMENT_3D('',#1668,#1331,#1332);
#1188=AXIS2_PLACEMENT_3D('',#1670,#1333,#1334);
#1189=AXIS2_PLACEMENT_3D('',#1672,#1335,#1336);
#1190=AXIS2_PLACEMENT_3D('',#1674,#1337,#1338);
#1191=AXIS2_PLACEMENT_3D('',#1676,#1339,#1340);
#1192=AXIS2_PLACEMENT_3D('',#1678,#1341,#1342);
#1193=AXIS2_PLACEMENT_3D('',#1679,#1343,#1344);
#1194=AXIS2_PLACEMENT_3D('',#1682,#1345,#1346);
#1195=AXIS2_PLACEMENT_3D('',#1686,#1348,#1349);
#1196=AXIS2_PLACEMENT_3D('',#1688,#1351,#1352);
#1197=AXIS2_PLACEMENT_3D('',#1699,#1359,#1360);
#1198=AXIS2_PLACEMENT_3D('',#1702,#1361,#1362);
#1199=AXIS2_PLACEMENT_3D('',#1706,#1364,#1365);
#1200=AXIS2_PLACEMENT_3D('',#1708,#1367,#1368);
#1201=AXIS2_PLACEMENT_3D('',#1713,#1372,#1373);
#1202=AXIS2_PLACEMENT_3D('',#1722,#1378,#1379);
#1203=AXIS2_PLACEMENT_3D('',#1724,#1380,#1381);
#1204=AXIS2_PLACEMENT_3D('',#1725,#1382,#1383);
#1205=AXIS2_PLACEMENT_3D('',#1731,#1388,#1389);
#1206=AXIS2_PLACEMENT_3D('',#1740,#1394,#1395);
#1207=AXIS2_PLACEMENT_3D('',#1741,#1396,#1397);
#1208=AXIS2_PLACEMENT_3D('',#1743,#1398,#1399);
#1209=AXIS2_PLACEMENT_3D('',#1745,#1401,#1402);
#1210=AXIS2_PLACEMENT_3D('',#1747,#1403,#1404);
#1211=AXIS2_PLACEMENT_3D('',#1749,#1406,#1407);
#1212=AXIS2_PLACEMENT_3D('',#1758,#1412,#1413);
#1213=AXIS2_PLACEMENT_3D('',#1767,#1418,#1419);
#1214=AXIS2_PLACEMENT_3D('',#1768,#1420,#1421);
#1215=AXIS2_PLACEMENT_3D('',#1769,#1422,#1423);
#1216=AXIS2_PLACEMENT_3D('',#1770,#1424,#1425);
#1217=AXIS2_PLACEMENT_3D('',#1772,#1427,#1428);
#1218=AXIS2_PLACEMENT_3D('',#1781,#1433,#1434);
#1219=AXIS2_PLACEMENT_3D('',#1790,#1439,#1440);
#1220=AXIS2_PLACEMENT_3D('',#1791,#1441,#1442);
#1221=AXIS2_PLACEMENT_3D('',#1792,#1443,#1444);
#1222=AXIS2_PLACEMENT_3D('',#1793,#1445,#1446);
#1223=AXIS2_PLACEMENT_3D('',#1795,#1448,#1449);
#1224=AXIS2_PLACEMENT_3D('',#1803,#1453,#1454);
#1225=AXIS2_PLACEMENT_3D('',#1805,#1455,#1456);
#1226=AXIS2_PLACEMENT_3D('',#1813,#1461,#1462);
#1227=AXIS2_PLACEMENT_3D('',#1815,#1463,#1464);
#1228=AXIS2_PLACEMENT_3D('',#1817,#1465,#1466);
#1229=AXIS2_PLACEMENT_3D('',#1819,#1467,#1468);
#1230=AXIS2_PLACEMENT_3D('',#1821,#1469,#1470);
#1231=AXIS2_PLACEMENT_3D('',#1822,#1471,#1472);
#1232=AXIS2_PLACEMENT_3D('',#1892,#1475,#1476);
#1233=AXIS2_PLACEMENT_3D('',#1906,#1477,#1478);
#1234=AXIS2_PLACEMENT_3D('',#1907,#1479,#1480);
#1235=AXIS2_PLACEMENT_3D('',#1909,#1481,#1482);
#1236=AXIS2_PLACEMENT_3D('',#1912,#1484,#1485);
#1237=AXIS2_PLACEMENT_3D('',#1913,#1486,#1487);
#1238=AXIS2_PLACEMENT_3D('',#1914,#1488,#1489);
#1239=AXIS2_PLACEMENT_3D('',#1915,#1490,#1491);
#1240=AXIS2_PLACEMENT_3D('',#1916,#1492,#1493);
#1241=AXIS2_PLACEMENT_3D('',#1922,#1494,#1495);
#1242=AXIS2_PLACEMENT_3D('',#1924,#1496,#1497);
#1243=AXIS2_PLACEMENT_3D('',#1927,#1499,#1500);
#1244=AXIS2_PLACEMENT_3D('',#1928,#1501,#1502);
#1245=AXIS2_PLACEMENT_3D('',#1929,#1503,#1504);
#1246=AXIS2_PLACEMENT_3D('',#1931,#1506,#1507);
#1247=AXIS2_PLACEMENT_3D('',#1934,#1509,#1510);
#1248=AXIS2_PLACEMENT_3D('',#1935,#1511,#1512);
#1249=AXIS2_PLACEMENT_3D('',#1937,#1514,#1515);
#1250=AXIS2_PLACEMENT_3D('',#1940,#1517,#1518);
#1251=AXIS2_PLACEMENT_3D('',#1941,#1519,#1520);
#1252=AXIS2_PLACEMENT_3D('',#1943,#1522,#1523);
#1253=AXIS2_PLACEMENT_3D('',#1946,#1525,#1526);
#1254=AXIS2_PLACEMENT_3D('',#1947,#1527,#1528);
#1255=AXIS2_PLACEMENT_3D('',#1949,#1530,#1531);
#1256=AXIS2_PLACEMENT_3D('',#1952,#1533,#1534);
#1257=AXIS2_PLACEMENT_3D('',#1953,#1535,#1536);
#1258=AXIS2_PLACEMENT_3D('',#1955,#1538,#1539);
#1259=AXIS2_PLACEMENT_3D('',#1961,#1541,#1542);
#1260=AXIS2_PLACEMENT_3D('',#1962,#1543,#1544);
#1261=AXIS2_PLACEMENT_3D('',#1964,#1546,#1547);
#1262=AXIS2_PLACEMENT_3D('',#1966,#1549,#1550);
#1263=AXIS2_PLACEMENT_3D('',#1969,#1553,#1554);
#1264=AXIS2_PLACEMENT_3D('',#1972,#1556,#1557);
#1265=AXIS2_PLACEMENT_3D('',#1973,#1558,#1559);
#1266=AXIS2_PLACEMENT_3D('',#1974,#1560,#1561);
#1267=AXIS2_PLACEMENT_3D('',#1977,#1563,#1564);
#1268=AXIS2_PLACEMENT_3D('',#1978,#1565,#1566);
#1269=AXIS2_PLACEMENT_3D('',#1979,#1567,#1568);
#1270=AXIS2_PLACEMENT_3D('',#1981,#1570,#1571);
#1271=AXIS2_PLACEMENT_3D('',#1984,#1574,#1575);
#1272=AXIS2_PLACEMENT_3D('',#1986,#1577,#1578);
#1273=AXIS2_PLACEMENT_3D('',#1990,#1582,#1583);
#1274=AXIS2_PLACEMENT_3D('',#1992,#1585,#1586);
#1275=AXIS2_PLACEMENT_3D('',#1994,#1588,#1589);
#1276=AXIS2_PLACEMENT_3D('',#1995,#1590,#1591);
#1277=AXIS2_PLACEMENT_3D('',#1996,#1592,#1593);
#1278=AXIS2_PLACEMENT_3D('',#1997,#1594,#1595);
#1279=AXIS2_PLACEMENT_3D('',#1999,#1597,#1598);
#1280=AXIS2_PLACEMENT_3D('',#2001,#1600,#1601);
#1281=AXIS2_PLACEMENT_3D('',#2003,#1603,#1604);
#1282=AXIS2_PLACEMENT_3D('',#2004,#1605,#1606);
#1283=DIRECTION('axis',(0.,0.,1.));
#1284=DIRECTION('refdir',(1.,0.,0.));
#1285=DIRECTION('center_axis',(1.,0.,0.));
#1286=DIRECTION('ref_axis',(0.,-0.707106781186548,-0.707106781186547));
#1287=DIRECTION('center_axis',(-1.,0.,0.));
#1288=DIRECTION('ref_axis',(0.,-0.707106781186548,-0.707106781186547));
#1289=DIRECTION('',(-1.,0.,0.));
#1290=DIRECTION('center_axis',(-1.,-1.91677716867866E-16,0.));
#1291=DIRECTION('ref_axis',(0.,-0.707106781186548,-0.707106781186547));
#1292=DIRECTION('',(1.,0.,0.));
#1293=DIRECTION('center_axis',(1.,0.,0.));
#1294=DIRECTION('ref_axis',(0.,1.,0.));
#1295=DIRECTION('',(0.,1.,0.));
#1296=DIRECTION('',(0.,0.,1.));
#1297=DIRECTION('',(0.,1.,1.09913830918747E-14));
#1298=DIRECTION('',(0.,0.,1.));
#1299=DIRECTION('center_axis',(-1.,0.,0.));
#1300=DIRECTION('ref_axis',(0.,0.,-1.));
#1301=DIRECTION('center_axis',(0.,0.,1.));
#1302=DIRECTION('ref_axis',(1.,0.,0.));
#1303=DIRECTION('',(-1.91677716867866E-16,1.,0.));
#1304=DIRECTION('',(1.,3.84492822381012E-16,0.));
#1305=DIRECTION('',(3.70990169251006E-16,-1.,0.));
#1306=DIRECTION('',(-1.,0.,0.));
#1307=DIRECTION('',(0.,-1.,0.));
#1308=DIRECTION('',(1.,2.7755575615636E-16,0.));
#1309=DIRECTION('',(3.70990169251006E-16,-1.,0.));
#1310=DIRECTION('',(-1.,-1.64608796990502E-16,0.));
#1311=DIRECTION('',(-6.83214169000096E-16,1.,0.));
#1312=DIRECTION('',(1.,5.16382802151235E-16,0.));
#1313=DIRECTION('',(0.,1.,0.));
#1314=DIRECTION('',(-1.,0.,0.));
#1315=DIRECTION('center_axis',(0.,0.,-1.));
#1316=DIRECTION('ref_axis',(-1.,0.,0.));
#1317=DIRECTION('center_axis',(0.,0.,1.));
#1318=DIRECTION('ref_axis',(1.,0.,0.));
#1319=DIRECTION('center_axis',(0.,0.,1.));
#1320=DIRECTION('ref_axis',(1.,0.,0.));
#1321=DIRECTION('center_axis',(0.,0.,1.));
#1322=DIRECTION('ref_axis',(1.,0.,0.));
#1323=DIRECTION('center_axis',(0.,0.,1.));
#1324=DIRECTION('ref_axis',(1.,0.,0.));
#1325=DIRECTION('center_axis',(0.,0.,1.));
#1326=DIRECTION('ref_axis',(1.,0.,0.));
#1327=DIRECTION('center_axis',(0.,0.,1.));
#1328=DIRECTION('ref_axis',(1.,0.,0.));
#1329=DIRECTION('center_axis',(0.,0.,1.));
#1330=DIRECTION('ref_axis',(1.,0.,0.));
#1331=DIRECTION('center_axis',(0.,0.,1.));
#1332=DIRECTION('ref_axis',(1.,0.,0.));
#1333=DIRECTION('center_axis',(0.,0.,1.));
#1334=DIRECTION('ref_axis',(1.,0.,0.));
#1335=DIRECTION('center_axis',(0.,0.,1.));
#1336=DIRECTION('ref_axis',(1.,0.,0.));
#1337=DIRECTION('center_axis',(0.,0.,1.));
#1338=DIRECTION('ref_axis',(1.,0.,0.));
#1339=DIRECTION('center_axis',(0.,0.,1.));
#1340=DIRECTION('ref_axis',(1.,0.,0.));
#1341=DIRECTION('center_axis',(0.,0.,1.));
#1342=DIRECTION('ref_axis',(1.,0.,0.));
#1343=DIRECTION('center_axis',(0.,0.,1.));
#1344=DIRECTION('ref_axis',(-1.,0.,0.));
#1345=DIRECTION('center_axis',(0.,0.,-1.));
#1346=DIRECTION('ref_axis',(-1.,0.,0.));
#1347=DIRECTION('',(0.,0.,1.));
#1348=DIRECTION('center_axis',(1.94867776938522E-15,1.09913830918747E-14,
-1.));
#1349=DIRECTION('ref_axis',(-1.,0.,0.));
#1350=DIRECTION('',(0.,0.,-1.));
#1351=DIRECTION('center_axis',(5.16382802151235E-16,-1.,0.));
#1352=DIRECTION('ref_axis',(1.,5.16382802151235E-16,0.));
#1353=DIRECTION('',(-1.,-3.32270038039753E-16,0.));
#1354=DIRECTION('',(-1.,-3.32270038039753E-16,0.));
#1355=DIRECTION('',(-1.,-3.32270038039753E-16,0.));
#1356=DIRECTION('',(0.,0.,1.));
#1357=DIRECTION('',(0.,0.,1.));
#1358=DIRECTION('',(1.,3.32270038039753E-16,1.94867776938523E-15));
#1359=DIRECTION('center_axis',(0.,0.,-1.));
#1360=DIRECTION('ref_axis',(-1.,0.,0.));
#1361=DIRECTION('center_axis',(1.94867776938522E-15,1.09913830918747E-14,
-1.));
#1362=DIRECTION('ref_axis',(-1.,0.,0.));
#1363=DIRECTION('',(0.,0.,-1.));
#1364=DIRECTION('center_axis',(0.,0.,-1.));
#1365=DIRECTION('ref_axis',(-1.,0.,0.));
#1366=DIRECTION('',(0.,0.,1.));
#1367=DIRECTION('center_axis',(0.,1.,0.));
#1368=DIRECTION('ref_axis',(-1.,0.,0.));
#1369=DIRECTION('',(-1.,0.,-1.94867776938522E-15));
#1370=DIRECTION('',(0.,0.,1.));
#1371=DIRECTION('',(1.,0.,0.));
#1372=DIRECTION('center_axis',(1.94867776938522E-15,1.09913830918747E-14,
-1.));
#1373=DIRECTION('ref_axis',(-1.,0.,-1.94867776938522E-15));
#1374=DIRECTION('',(0.,-1.,-1.09913830918747E-14));
#1375=DIRECTION('',(-1.,0.,-1.94867776938522E-15));
#1376=DIRECTION('',(3.70990169251006E-16,-1.,-1.09913830918747E-14));
#1377=DIRECTION('',(1.,1.92246411190506E-16,1.94867776938522E-15));
#1378=DIRECTION('center_axis',(1.94867776938522E-15,1.09913830918747E-14,
-1.));
#1379=DIRECTION('ref_axis',(1.,0.,0.));
#1380=DIRECTION('center_axis',(1.94867776938522E-15,1.09913830918747E-14,
-1.));
#1381=DIRECTION('ref_axis',(1.,0.,0.));
#1382=DIRECTION('center_axis',(-1.,0.,0.));
#1383=DIRECTION('ref_axis',(0.,-1.,0.));
#1384=DIRECTION('',(0.,-1.,-1.09913830918747E-14));
#1385=DIRECTION('',(0.,0.,1.));
#1386=DIRECTION('',(0.,0.,1.));
#1387=DIRECTION('',(0.,-1.,0.));
#1388=DIRECTION('center_axis',(1.94867776938522E-15,1.09913830918747E-14,
-1.));
#1389=DIRECTION('ref_axis',(-1.,0.,-1.94867776938522E-15));
#1390=DIRECTION('',(-6.83214169000096E-16,1.,1.09913830918747E-14));
#1391=DIRECTION('',(-1.,-1.64608796990502E-16,-1.94867776938522E-15));
#1392=DIRECTION('',(3.70990169251006E-16,-1.,-1.09913830918747E-14));
#1393=DIRECTION('',(1.,2.7755575615636E-16,1.94867776938522E-15));
#1394=DIRECTION('center_axis',(1.94867776938522E-15,1.09913830918747E-14,
-1.));
#1395=DIRECTION('ref_axis',(1.,0.,0.));
#1396=DIRECTION('center_axis',(0.,0.,1.));
#1397=DIRECTION('ref_axis',(1.,0.,0.));
#1398=DIRECTION('center_axis',(0.,0.,-1.));
#1399=DIRECTION('ref_axis',(1.,0.,0.));
#1400=DIRECTION('',(0.,0.,-1.));
#1401=DIRECTION('center_axis',(0.,0.,1.));
#1402=DIRECTION('ref_axis',(1.,0.,0.));
#1403=DIRECTION('center_axis',(0.,0.,-1.));
#1404=DIRECTION('ref_axis',(1.,0.,0.));
#1405=DIRECTION('',(0.,0.,-1.));
#1406=DIRECTION('center_axis',(0.,1.,0.));
#1407=DIRECTION('ref_axis',(1.,0.,0.));
#1408=DIRECTION('',(0.,0.,1.));
#1409=DIRECTION('',(1.,0.,0.));
#1410=DIRECTION('',(0.,0.,-1.));
#1411=DIRECTION('',(1.,0.,0.));
#1412=DIRECTION('center_axis',(0.,-1.,0.));
#1413=DIRECTION('ref_axis',(-1.,0.,0.));
#1414=DIRECTION('',(0.,0.,-1.));
#1415=DIRECTION('',(-1.,0.,0.));
#1416=DIRECTION('',(0.,0.,-1.));
#1417=DIRECTION('',(-1.,0.,0.));
#1418=DIRECTION('center_axis',(0.,0.,-1.));
#1419=DIRECTION('ref_axis',(1.,0.,0.));
#1420=DIRECTION('center_axis',(0.,0.,-1.));
#1421=DIRECTION('ref_axis',(1.,0.,0.));
#1422=DIRECTION('center_axis',(0.,0.,-1.));
#1423=DIRECTION('ref_axis',(1.,0.,0.));
#1424=DIRECTION('center_axis',(0.,0.,1.));
#1425=DIRECTION('ref_axis',(1.,0.,0.));
#1426=DIRECTION('',(-3.70990169251006E-16,1.,0.));
#1427=DIRECTION('center_axis',(0.,1.,0.));
#1428=DIRECTION('ref_axis',(1.,0.,0.));
#1429=DIRECTION('',(0.,0.,1.));
#1430=DIRECTION('',(1.,0.,0.));
#1431=DIRECTION('',(0.,0.,-1.));
#1432=DIRECTION('',(1.,0.,0.));
#1433=DIRECTION('center_axis',(0.,-1.,0.));
#1434=DIRECTION('ref_axis',(-1.,0.,0.));
#1435=DIRECTION('',(0.,0.,-1.));
#1436=DIRECTION('',(-1.,0.,0.));
#1437=DIRECTION('',(0.,0.,-1.));
#1438=DIRECTION('',(-1.,0.,0.));
#1439=DIRECTION('center_axis',(0.,0.,-1.));
#1440=DIRECTION('ref_axis',(1.,0.,0.));
#1441=DIRECTION('center_axis',(0.,0.,-1.));
#1442=DIRECTION('ref_axis',(1.,0.,0.));
#1443=DIRECTION('center_axis',(0.,0.,-1.));
#1444=DIRECTION('ref_axis',(1.,0.,0.));
#1445=DIRECTION('center_axis',(0.,0.,1.));
#1446=DIRECTION('ref_axis',(1.,0.,0.));
#1447=DIRECTION('',(-3.70990169251006E-16,1.,0.));
#1448=DIRECTION('center_axis',(0.,0.,1.));
#1449=DIRECTION('ref_axis',(1.,0.,0.));
#1450=DIRECTION('',(3.70990169251006E-16,-1.,0.));
#1451=DIRECTION('',(1.,3.84492822381012E-16,0.));
#1452=DIRECTION('',(-1.91677716867866E-16,1.,0.));
#1453=DIRECTION('center_axis',(0.,0.,-1.));
#1454=DIRECTION('ref_axis',(1.,0.,0.));
#1455=DIRECTION('center_axis',(0.,0.,-1.));
#1456=DIRECTION('ref_axis',(1.,0.,0.));
#1457=DIRECTION('',(-1.91677716867866E-16,1.,0.));
#1458=DIRECTION('',(-1.,-1.92246411190506E-16,0.));
#1459=DIRECTION('',(3.70990169251006E-16,-1.,0.));
#1460=DIRECTION('',(3.70990169251006E-16,-1.,0.));
#1461=DIRECTION('center_axis',(0.,0.,-1.));
#1462=DIRECTION('ref_axis',(-1.,0.,0.));
#1463=DIRECTION('center_axis',(0.,0.,-1.));
#1464=DIRECTION('ref_axis',(1.,0.,0.));
#1465=DIRECTION('center_axis',(0.,0.,-1.));
#1466=DIRECTION('ref_axis',(1.,0.,0.));
#1467=DIRECTION('center_axis',(0.,0.,-1.));
#1468=DIRECTION('ref_axis',(1.,0.,0.));
#1469=DIRECTION('center_axis',(0.,0.,-1.));
#1470=DIRECTION('ref_axis',(1.,0.,0.));
#1471=DIRECTION('center_axis',(1.,6.83214169000096E-16,0.));
#1472=DIRECTION('ref_axis',(0.,0.,-1.));
#1473=DIRECTION('',(-1.,-6.83214169000096E-16,0.));
#1474=DIRECTION('',(-1.,-6.83214169000096E-16,0.));
#1475=DIRECTION('center_axis',(1.,6.83214169000096E-16,0.));
#1476=DIRECTION('ref_axis',(0.,0.,-1.));
#1477=DIRECTION('center_axis',(1.,6.83214169000096E-16,0.));
#1478=DIRECTION('ref_axis',(0.,0.,-1.));
#1479=DIRECTION('center_axis',(1.,6.83214169000096E-16,0.));
#1480=DIRECTION('ref_axis',(0.,0.,-1.));
#1481=DIRECTION('center_axis',(-1.,-6.83214169000096E-16,0.));
#1482=DIRECTION('ref_axis',(0.,0.,-1.));
#1483=DIRECTION('',(-1.,-6.83214169000096E-16,0.));
#1484=DIRECTION('center_axis',(1.,6.83214169000096E-16,0.));
#1485=DIRECTION('ref_axis',(0.,0.,-1.));
#1486=DIRECTION('center_axis',(1.,6.83214169000096E-16,0.));
#1487=DIRECTION('ref_axis',(0.,0.,-1.));
#1488=DIRECTION('center_axis',(0.,0.,-1.));
#1489=DIRECTION('ref_axis',(-1.,0.,0.));
#1490=DIRECTION('center_axis',(0.,0.,-1.));
#1491=DIRECTION('ref_axis',(1.,0.,0.));
#1492=DIRECTION('center_axis',(0.,0.,1.));
#1493=DIRECTION('ref_axis',(1.,0.,0.));
#1494=DIRECTION('center_axis',(0.,0.,-1.));
#1495=DIRECTION('ref_axis',(1.,0.,0.));
#1496=DIRECTION('center_axis',(0.,0.,-1.));
#1497=DIRECTION('ref_axis',(1.,0.,0.));
#1498=DIRECTION('',(0.707106781186548,8.65956056235493E-17,-0.707106781186548));
#1499=DIRECTION('center_axis',(0.,0.,1.));
#1500=DIRECTION('ref_axis',(1.,0.,0.));
#1501=DIRECTION('center_axis',(0.,0.,-1.));
#1502=DIRECTION('ref_axis',(1.,0.,0.));
#1503=DIRECTION('center_axis',(0.,0.,1.));
#1504=DIRECTION('ref_axis',(1.,0.,0.));
#1505=DIRECTION('',(0.,0.,-1.));
#1506=DIRECTION('center_axis',(0.,0.,1.));
#1507=DIRECTION('ref_axis',(1.,0.,0.));
#1508=DIRECTION('',(0.707106781186548,8.65956056235493E-17,-0.707106781186548));
#1509=DIRECTION('center_axis',(0.,0.,1.));
#1510=DIRECTION('ref_axis',(1.,0.,0.));
#1511=DIRECTION('center_axis',(0.,0.,1.));
#1512=DIRECTION('ref_axis',(1.,0.,0.));
#1513=DIRECTION('',(0.,0.,-1.));
#1514=DIRECTION('center_axis',(0.,0.,1.));
#1515=DIRECTION('ref_axis',(1.,0.,0.));
#1516=DIRECTION('',(0.707106781186548,8.65956056235493E-17,-0.707106781186548));
#1517=DIRECTION('center_axis',(0.,0.,1.));
#1518=DIRECTION('ref_axis',(1.,0.,0.));
#1519=DIRECTION('center_axis',(0.,0.,1.));
#1520=DIRECTION('ref_axis',(1.,0.,0.));
#1521=DIRECTION('',(0.,0.,-1.));
#1522=DIRECTION('center_axis',(0.,0.,1.));
#1523=DIRECTION('ref_axis',(1.,0.,0.));
#1524=DIRECTION('',(0.707106781186548,8.65956056235493E-17,-0.707106781186548));
#1525=DIRECTION('center_axis',(0.,0.,1.));
#1526=DIRECTION('ref_axis',(1.,0.,0.));
#1527=DIRECTION('center_axis',(0.,0.,1.));
#1528=DIRECTION('ref_axis',(1.,0.,0.));
#1529=DIRECTION('',(0.,0.,-1.));
#1530=DIRECTION('center_axis',(0.,0.,1.));
#1531=DIRECTION('ref_axis',(1.,0.,0.));
#1532=DIRECTION('',(0.707106781186548,8.65956056235493E-17,-0.707106781186548));
#1533=DIRECTION('center_axis',(0.,0.,1.));
#1534=DIRECTION('ref_axis',(1.,0.,0.));
#1535=DIRECTION('center_axis',(0.,0.,1.));
#1536=DIRECTION('ref_axis',(1.,0.,0.));
#1537=DIRECTION('',(0.,0.,-1.));
#1538=DIRECTION('center_axis',(0.,0.,1.));
#1539=DIRECTION('ref_axis',(1.,0.,0.));
#1540=DIRECTION('',(0.707106781186548,8.65956056235493E-17,-0.707106781186548));
#1541=DIRECTION('center_axis',(0.,0.,1.));
#1542=DIRECTION('ref_axis',(1.,0.,0.));
#1543=DIRECTION('center_axis',(0.,0.,1.));
#1544=DIRECTION('ref_axis',(1.,0.,0.));
#1545=DIRECTION('',(0.,0.,-1.));
#1546=DIRECTION('center_axis',(0.,0.,1.));
#1547=DIRECTION('ref_axis',(1.,0.,0.));
#1548=DIRECTION('',(0.,1.,0.));
#1549=DIRECTION('center_axis',(1.,1.91677716867866E-16,0.));
#1550=DIRECTION('ref_axis',(-1.91677716867866E-16,1.,0.));
#1551=DIRECTION('',(0.,0.,1.));
#1552=DIRECTION('',(0.,0.,1.));
#1553=DIRECTION('center_axis',(0.,0.,1.));
#1554=DIRECTION('ref_axis',(1.,0.,0.));
#1555=DIRECTION('',(0.,0.,1.));
#1556=DIRECTION('center_axis',(0.,0.,1.));
#1557=DIRECTION('ref_axis',(1.,0.,0.));
#1558=DIRECTION('center_axis',(0.,0.,1.));
#1559=DIRECTION('ref_axis',(1.,0.,0.));
#1560=DIRECTION('center_axis',(0.,0.,1.));
#1561=DIRECTION('ref_axis',(1.,0.,0.));
#1562=DIRECTION('',(0.,0.,1.));
#1563=DIRECTION('center_axis',(0.,0.,1.));
#1564=DIRECTION('ref_axis',(1.,0.,0.));
#1565=DIRECTION('center_axis',(0.,0.,1.));
#1566=DIRECTION('ref_axis',(1.,0.,0.));
#1567=DIRECTION('center_axis',(0.,0.,1.));
#1568=DIRECTION('ref_axis',(1.,0.,0.));
#1569=DIRECTION('',(0.,0.,1.));
#1570=DIRECTION('center_axis',(0.,0.,1.));
#1571=DIRECTION('ref_axis',(1.,0.,0.));
#1572=DIRECTION('',(0.,0.,1.));
#1573=DIRECTION('',(0.,0.,1.));
#1574=DIRECTION('center_axis',(0.,0.,1.));
#1575=DIRECTION('ref_axis',(1.,0.,0.));
#1576=DIRECTION('',(0.,0.,1.));
#1577=DIRECTION('center_axis',(-1.,-3.70990169251006E-16,0.));
#1578=DIRECTION('ref_axis',(3.70990169251006E-16,-1.,0.));
#1579=DIRECTION('',(0.,0.,1.));
#1580=DIRECTION('',(0.,0.,1.));
#1581=DIRECTION('',(0.,0.,1.));
#1582=DIRECTION('center_axis',(0.,0.,1.));
#1583=DIRECTION('ref_axis',(-1.,0.,0.));
#1584=DIRECTION('',(0.,0.,-1.));
#1585=DIRECTION('center_axis',(1.,0.,0.));
#1586=DIRECTION('ref_axis',(0.,1.,0.));
#1587=DIRECTION('',(0.,1.,0.));
#1588=DIRECTION('center_axis',(0.,-1.,0.));
#1589=DIRECTION('ref_axis',(1.,0.,0.));
#1590=DIRECTION('center_axis',(3.84492822381012E-16,-1.,0.));
#1591=DIRECTION('ref_axis',(1.,3.84492822381012E-16,0.));
#1592=DIRECTION('center_axis',(0.,1.,0.));
#1593=DIRECTION('ref_axis',(-1.,0.,0.));
#1594=DIRECTION('center_axis',(2.7755575615636E-16,-1.,0.));
#1595=DIRECTION('ref_axis',(1.,2.7755575615636E-16,0.));
#1596=DIRECTION('',(0.,0.,1.));
#1597=DIRECTION('center_axis',(-1.,-3.70990169251006E-16,0.));
#1598=DIRECTION('ref_axis',(3.70990169251006E-16,-1.,0.));
#1599=DIRECTION('',(0.,0.,1.));
#1600=DIRECTION('center_axis',(-1.64608796990502E-16,1.,0.));
#1601=DIRECTION('ref_axis',(-1.,-1.64608796990502E-16,0.));
#1602=DIRECTION('',(0.,0.,1.));
#1603=DIRECTION('center_axis',(1.,6.83214169000096E-16,0.));
#1604=DIRECTION('ref_axis',(-6.83214169000096E-16,1.,0.));
#1605=DIRECTION('center_axis',(0.,0.,1.));
#1606=DIRECTION('ref_axis',(1.,0.,0.));
#1607=CARTESIAN_POINT('',(0.,0.,0.));
#1608=CARTESIAN_POINT('Origin',(18.3999999999999,-18.5,1.));
#1609=CARTESIAN_POINT('',(27.3999999999998,-18.5,0.));
#1610=CARTESIAN_POINT('',(27.3999999999998,-19.5,1.));
#1611=CARTESIAN_POINT('Origin',(27.3999999999998,-18.5,1.));
#1612=CARTESIAN_POINT('',(23.0999999999998,-19.5,1.));
#1613=CARTESIAN_POINT('',(18.3999999999999,-19.5,1.));
#1614=CARTESIAN_POINT('',(23.0999999999998,-18.5,0.));
#1615=CARTESIAN_POINT('Origin',(23.0999999999998,-18.5,1.));
#1616=CARTESIAN_POINT('',(18.3999999999999,-18.5,0.));
#1617=CARTESIAN_POINT('Origin',(27.3999999999998,-19.5,0.));
#1618=CARTESIAN_POINT('',(27.3999999999998,-13.,0.));
#1619=CARTESIAN_POINT('',(27.3999999999998,-19.5,0.));
#1620=CARTESIAN_POINT('',(27.3999999999998,-13.,7.70000000002776));
#1621=CARTESIAN_POINT('',(27.3999999999998,-13.,0.));
#1622=CARTESIAN_POINT('',(27.3999999999998,-19.5,7.70000000002769));
#1623=CARTESIAN_POINT('',(27.3999999999998,-14.6250000000001,7.70000000002774));
#1624=CARTESIAN_POINT('',(27.3999999999998,-19.5,0.));
#1625=CARTESIAN_POINT('',(27.3999999999998,-16.25,5.07950000001388));
#1626=CARTESIAN_POINT('Origin',(27.3999999999998,-16.25,3.85000000001388));
#1627=CARTESIAN_POINT('Origin',(13.6999999999999,-32.9185360774721,0.));
#1628=CARTESIAN_POINT('',(23.0999999999998,-65.8370721549442,0.));
#1629=CARTESIAN_POINT('',(23.0999999999998,-65.8370721549442,0.));
#1630=CARTESIAN_POINT('',(1.3988810110277E-13,-65.8370721549442,0.));
#1631=CARTESIAN_POINT('',(1.3988810110277E-13,-65.8370721549442,0.));
#1632=CARTESIAN_POINT('',(1.21985754830689E-13,-17.5000000000283,0.));
#1633=CARTESIAN_POINT('',(1.15463194561016E-13,-3.50414142147315E-14,0.));
#1634=CARTESIAN_POINT('',(2.49999999999977,-17.5000000000283,0.));
#1635=CARTESIAN_POINT('',(2.49999999999977,-17.5000000000283,0.));
#1636=CARTESIAN_POINT('',(2.49999999999977,-0.99999999999997,0.));
#1637=CARTESIAN_POINT('',(2.49999999999977,-0.99999999999997,0.));
#1638=CARTESIAN_POINT('',(1.15879528195251E-13,-0.99999999999997,0.));
#1639=CARTESIAN_POINT('',(1.15879528195251E-13,-0.99999999999997,0.));
#1640=CARTESIAN_POINT('',(1.15463194561016E-13,-3.50414142147315E-14,0.));
#1641=CARTESIAN_POINT('',(1.15463194561016E-13,-3.50414142147315E-14,0.));
#1642=CARTESIAN_POINT('',(27.3999999999998,-3.05311331771918E-14,0.));
#1643=CARTESIAN_POINT('',(27.3999999999998,-3.05311331771918E-14,0.));
#1644=CARTESIAN_POINT('',(27.3999999999998,-6.50000000000003,0.));
#1645=CARTESIAN_POINT('',(27.3999999999998,-6.50000000000003,0.));
#1646=CARTESIAN_POINT('',(23.0999999999998,-6.50000000000003,0.));
#1647=CARTESIAN_POINT('',(23.0999999999998,-6.50000000000003,0.));
#1648=CARTESIAN_POINT('',(23.0999999999998,-13.,0.));
#1649=CARTESIAN_POINT('',(23.0999999999998,-13.,0.));
#1650=CARTESIAN_POINT('',(27.3999999999998,-13.,0.));
#1651=CARTESIAN_POINT('',(17.35,-35.2722127152134,0.));
#1652=CARTESIAN_POINT('Origin',(12.35,-35.2722127152134,0.));
#1653=CARTESIAN_POINT('',(13.541499999999,-2.99999999999998,0.));
#1654=CARTESIAN_POINT('Origin',(14.324999999999,-2.99999999999998,0.));
#1655=CARTESIAN_POINT('',(23.1414999999983,-15.5491035536408,0.));
#1656=CARTESIAN_POINT('Origin',(23.9249999999983,-15.5491035536408,0.));
#1657=CARTESIAN_POINT('',(3.94149999999967,-15.5491035536409,0.));
#1658=CARTESIAN_POINT('Origin',(4.72499999999967,-15.5491035536409,0.));
#1659=CARTESIAN_POINT('',(7.97261769972911,-23.0664976625035,0.));
#1660=CARTESIAN_POINT('Origin',(9.22261769972911,-23.0664976625035,0.));
#1661=CARTESIAN_POINT('',(10.7,-14.6999999999999,0.));
#1662=CARTESIAN_POINT('Origin',(14.7,-14.6999999999999,0.));
#1663=CARTESIAN_POINT('',(18.2907270990228,-25.3028880230354,0.));
#1664=CARTESIAN_POINT('Origin',(19.8907270990228,-25.3028880230354,0.));
#1665=CARTESIAN_POINT('',(12.3999999999979,-49.1746405607346,0.));
#1666=CARTESIAN_POINT('Origin',(13.9999999999979,-49.1746405607346,0.));
#1667=CARTESIAN_POINT('',(15.2249999999976,-57.8370721549415,0.));
#1668=CARTESIAN_POINT('Origin',(16.8249999999976,-57.8370721549415,0.));
#1669=CARTESIAN_POINT('',(1.89999999999796,-62.3370721549413,0.));
#1670=CARTESIAN_POINT('Origin',(3.49999999999796,-62.3370721549413,0.));
#1671=CARTESIAN_POINT('',(2.39999999999799,-46.5095389096397,0.));
#1672=CARTESIAN_POINT('Origin',(3.99999999999799,-46.5095389096397,0.));
#1673=CARTESIAN_POINT('',(18.5046276467465,-9.49999999999742,0.));
#1674=CARTESIAN_POINT('Origin',(20.1046276467465,-9.49999999999742,0.));
#1675=CARTESIAN_POINT('',(0.535566165201407,-30.0714415384743,0.));
#1676=CARTESIAN_POINT('Origin',(1.53556616520141,-30.0714415384743,0.));
#1677=CARTESIAN_POINT('',(0.499999999999105,-41.3314601153388,0.));
#1678=CARTESIAN_POINT('Origin',(1.4999999999991,-41.3314601153388,0.));
#1679=CARTESIAN_POINT('Origin',(6.49999999999977,-2.50000000000004,0.));
#1680=CARTESIAN_POINT('',(2.49999999999977,-2.50000000000004,2.));
#1681=CARTESIAN_POINT('',(6.49999999999977,-6.50000000000004,2.));
#1682=CARTESIAN_POINT('Origin',(6.49999999999977,-2.50000000000004,2.));
#1683=CARTESIAN_POINT('',(6.49999999999977,-6.50000000000003,7.70000000002779));
#1684=CARTESIAN_POINT('',(6.49999999999977,-6.50000000000004,0.));
#1685=CARTESIAN_POINT('',(2.49999999999977,-2.50000000000004,7.70000000002782));
#1686=CARTESIAN_POINT('Origin',(6.49999999999977,-2.50000000000004,7.70000000002777));
#1687=CARTESIAN_POINT('',(2.49999999999977,-2.50000000000004,0.));
#1688=CARTESIAN_POINT('Origin',(23.0999999999998,-6.50000000000003,0.));
#1689=CARTESIAN_POINT('',(18.8546276467403,-6.50000000000004,2.));
#1690=CARTESIAN_POINT('',(8.09999999999986,-6.50000000000004,2.));
#1691=CARTESIAN_POINT('',(21.3546276467528,-6.50000000000003,2.));
#1692=CARTESIAN_POINT('',(8.09999999999986,-6.50000000000004,2.));
#1693=CARTESIAN_POINT('',(23.0999999999998,-6.50000000000003,2.));
#1694=CARTESIAN_POINT('',(8.09999999999986,-6.50000000000004,2.));
#1695=CARTESIAN_POINT('',(23.0999999999998,-6.50000000000003,0.));
#1696=CARTESIAN_POINT('',(27.3999999999998,-6.50000000000003,7.70000000002783));
#1697=CARTESIAN_POINT('',(27.3999999999998,-6.50000000000003,0.));
#1698=CARTESIAN_POINT('',(8.09999999999985,-6.50000000000003,7.70000000002779));
#1699=CARTESIAN_POINT('Origin',(6.49999999999977,-17.,0.));
#1700=CARTESIAN_POINT('',(2.49999999999977,-17.,7.70000000002766));
#1701=CARTESIAN_POINT('',(6.49999999999977,-13.,7.70000000002772));
#1702=CARTESIAN_POINT('Origin',(6.49999999999977,-17.,7.70000000002777));
#1703=CARTESIAN_POINT('',(6.49999999999977,-13.,2.));
#1704=CARTESIAN_POINT('',(6.49999999999977,-13.,0.));
#1705=CARTESIAN_POINT('',(2.49999999999977,-17.,2.));
#1706=CARTESIAN_POINT('Origin',(6.49999999999977,-17.,2.));
#1707=CARTESIAN_POINT('',(2.49999999999977,-17.,0.));
#1708=CARTESIAN_POINT('Origin',(27.3999999999998,-13.,0.));
#1709=CARTESIAN_POINT('',(20.5499999999999,-13.,7.70000000002774));
#1710=CARTESIAN_POINT('',(23.0999999999998,-13.,2.));
#1711=CARTESIAN_POINT('',(23.0999999999998,-13.,0.));
#1712=CARTESIAN_POINT('',(20.5499999999999,-13.,2.));
#1713=CARTESIAN_POINT('Origin',(13.6999999999999,-9.75000000000003,7.70000000002777));
#1714=CARTESIAN_POINT('',(2.49999999999977,-17.5000000000283,7.70000000002766));
#1715=CARTESIAN_POINT('',(2.49999999999977,-11.3750000000001,7.70000000002773));
#1716=CARTESIAN_POINT('',(1.21985754830689E-13,-17.5000000000283,7.70000000002765));
#1717=CARTESIAN_POINT('',(8.09999999999985,-17.5000000000283,7.70000000002767));
#1718=CARTESIAN_POINT('',(1.24344978758018E-13,-19.5,7.70000000002763));
#1719=CARTESIAN_POINT('',(1.21014309684142E-13,-13.6250000000142,7.7000000000277));
#1720=CARTESIAN_POINT('',(6.85000000000003,-19.5,7.70000000002764));
#1721=CARTESIAN_POINT('',(23.1414999999983,-15.5491035536408,7.70000000002777));
#1722=CARTESIAN_POINT('Origin',(23.9249999999983,-15.5491035536408,7.70000000002777));
#1723=CARTESIAN_POINT('',(3.94149999999967,-15.5491035536409,7.70000000002777));
#1724=CARTESIAN_POINT('Origin',(4.72499999999967,-15.5491035536409,7.70000000002777));
#1725=CARTESIAN_POINT('Origin',(2.49999999999977,-0.99999999999997,0.));
#1726=CARTESIAN_POINT('',(2.49999999999977,-0.99999999999997,7.70000000002784));
#1727=CARTESIAN_POINT('',(2.49999999999977,-5.37500000000004,7.70000000002779));
#1728=CARTESIAN_POINT('',(2.49999999999977,-0.99999999999997,0.));
#1729=CARTESIAN_POINT('',(2.49999999999977,-17.5000000000283,0.));
#1730=CARTESIAN_POINT('',(2.49999999999977,-0.99999999999997,2.));
#1731=CARTESIAN_POINT('Origin',(13.6999999999999,-9.75000000000003,7.70000000002777));
#1732=CARTESIAN_POINT('',(27.3999999999998,-3.05311331771918E-14,7.7000000000279));
#1733=CARTESIAN_POINT('',(27.3999999999998,-8.12500000000007,7.70000000002781));
#1734=CARTESIAN_POINT('',(1.15463194561016E-13,-3.50414142147315E-14,7.70000000002785));
#1735=CARTESIAN_POINT('',(20.5499999999999,-3.21964677141295E-14,7.70000000002789));
#1736=CARTESIAN_POINT('',(1.15879528195251E-13,-0.99999999999997,7.70000000002784));
#1737=CARTESIAN_POINT('',(1.17683640610267E-13,-4.87500000000008,7.70000000002779));
#1738=CARTESIAN_POINT('',(6.85000000000002,-0.999999999999968,7.70000000002785));
#1739=CARTESIAN_POINT('',(13.541499999999,-2.99999999999998,7.70000000002777));
#1740=CARTESIAN_POINT('Origin',(14.324999999999,-2.99999999999998,7.70000000002777));
#1741=CARTESIAN_POINT('Origin',(1.4999999999991,-41.3314601153388,-71.2256583792421));
#1742=CARTESIAN_POINT('',(0.499999999999105,-41.3314601153388,0.499999999999998));
#1743=CARTESIAN_POINT('Origin',(1.4999999999991,-41.3314601153388,0.499999999999998));
#1744=CARTESIAN_POINT('',(0.499999999999105,-41.3314601153388,-71.2256583792421));
#1745=CARTESIAN_POINT('Origin',(1.53556616520141,-30.0714415384743,-71.2256583792421));
#1746=CARTESIAN_POINT('',(0.535566165201407,-30.0714415384743,0.499999999999998));
#1747=CARTESIAN_POINT('Origin',(1.53556616520141,-30.0714415384743,0.499999999999998));
#1748=CARTESIAN_POINT('',(0.535566165201407,-30.0714415384743,-71.2256583792421));
#1749=CARTESIAN_POINT('Origin',(-0.500000000000896,-39.3317763783711,2.));
#1750=CARTESIAN_POINT('',(1.29896093881143E-13,-39.3317763783711,0.5));
#1751=CARTESIAN_POINT('',(1.30054896936571E-13,-39.3317763783711,2.));
#1752=CARTESIAN_POINT('',(1.30034871759221E-13,-39.3317763783711,1.));
#1753=CARTESIAN_POINT('',(1.53556616520141,-39.3317763783711,0.5));
#1754=CARTESIAN_POINT('',(1.53556616520141,-39.3317763783711,0.5));
#1755=CARTESIAN_POINT('',(1.53556616520141,-39.3317763783711,2.));
#1756=CARTESIAN_POINT('',(1.53556616520141,-39.3317763783711,2.));
#1757=CARTESIAN_POINT('',(6.59999999999953,-39.3317763783711,2.));
#1758=CARTESIAN_POINT('Origin',(1.53556616520141,-43.3314601153388,2.));
#1759=CARTESIAN_POINT('',(1.31538740283099E-13,-43.3314601153388,2.));
#1760=CARTESIAN_POINT('',(1.31561428418081E-13,-43.3314601153388,0.5));
#1761=CARTESIAN_POINT('',(1.31561428418081E-13,-43.3314601153388,1.));
#1762=CARTESIAN_POINT('',(1.53556616520141,-43.3314600903372,2.));
#1763=CARTESIAN_POINT('',(7.61778308260068,-43.3314601153388,2.));
#1764=CARTESIAN_POINT('',(1.53556616520141,-43.3314600903372,0.5));
#1765=CARTESIAN_POINT('',(1.53556616520141,-43.3314601153388,2.));
#1766=CARTESIAN_POINT('',(-0.500000000000895,-43.3314601153388,0.5));
#1767=CARTESIAN_POINT('Origin',(1.4999999999991,-41.3314601153388,2.));
#1768=CARTESIAN_POINT('Origin',(1.4999999999991,-41.3314601153388,2.));
#1769=CARTESIAN_POINT('Origin',(1.4999999999991,-41.3314601153388,0.5));
#1770=CARTESIAN_POINT('Origin',(1.4999999999991,-41.331618246855,0.5));
#1771=CARTESIAN_POINT('',(1.2642664692919E-13,-29.4158091234416,0.5));
#1772=CARTESIAN_POINT('Origin',(-0.464433834798593,-28.0714415384743,2.));
#1773=CARTESIAN_POINT('',(1.25732757538799E-13,-28.0714415384743,0.5));
#1774=CARTESIAN_POINT('',(1.25877423408495E-13,-28.0714415384743,2.));
#1775=CARTESIAN_POINT('',(1.25871535416877E-13,-28.0714415384743,1.));
#1776=CARTESIAN_POINT('',(1.53556616520141,-28.0714415384743,0.5));
#1777=CARTESIAN_POINT('',(1.53556616520141,-28.0714415384743,0.5));
#1778=CARTESIAN_POINT('',(1.53556616520141,-28.0714415384743,2.));
#1779=CARTESIAN_POINT('',(1.53556616520141,-28.0714415384743,2.));
#1780=CARTESIAN_POINT('',(6.61778308260068,-28.0714415384743,2.));
#1781=CARTESIAN_POINT('Origin',(1.53556616520141,-32.0714415384743,2.));
#1782=CARTESIAN_POINT('',(1.27361384085499E-13,-32.0714415384743,2.));
#1783=CARTESIAN_POINT('',(1.27398092075737E-13,-32.0714415384743,0.5));
#1784=CARTESIAN_POINT('',(1.27398092075737E-13,-32.0714415384743,1.));
#1785=CARTESIAN_POINT('',(1.53556616520141,-32.0714415384743,2.));
#1786=CARTESIAN_POINT('',(7.61778308260068,-32.0714415384743,2.));
#1787=CARTESIAN_POINT('',(1.53556616520141,-32.0714415384743,0.5));
#1788=CARTESIAN_POINT('',(1.53556616520141,-32.0714415384743,2.));
#1789=CARTESIAN_POINT('',(-0.464433834798592,-32.0714415384743,0.5));
#1790=CARTESIAN_POINT('Origin',(1.53556616520141,-30.0714415384743,2.));
#1791=CARTESIAN_POINT('Origin',(1.53556616520141,-30.0714415384743,2.));
#1792=CARTESIAN_POINT('Origin',(1.53556616520141,-30.0714415384743,0.5));
#1793=CARTESIAN_POINT('Origin',(1.53556616520141,-30.0714415384743,0.5));
#1794=CARTESIAN_POINT('',(1.24344978758018E-13,-23.7857207692513,0.5));
#1795=CARTESIAN_POINT('Origin',(13.6999999999999,-32.9185360774721,2.));
#1796=CARTESIAN_POINT('',(1.4210854715202E-13,-65.8370721549442,2.));
#1797=CARTESIAN_POINT('',(1.15463194561016E-13,-3.50414142147315E-14,2.));
#1798=CARTESIAN_POINT('',(23.0999999999998,-65.8370721549442,2.));
#1799=CARTESIAN_POINT('',(1.3988810110277E-13,-65.8370721549442,2.));
#1800=CARTESIAN_POINT('',(23.0999999999998,-25.8157890340058,2.));
#1801=CARTESIAN_POINT('',(23.0999999999998,-65.8370721549442,2.));
#1802=CARTESIAN_POINT('',(16.6407270990228,-25.3028880230354,2.));
#1803=CARTESIAN_POINT('Origin',(19.8907270990228,-25.3028880230354,2.));
#1804=CARTESIAN_POINT('',(23.0999999999998,-24.7899870120649,2.));
#1805=CARTESIAN_POINT('Origin',(19.8907270990228,-25.3028880230354,2.));
#1806=CARTESIAN_POINT('',(23.0999999999998,-19.5,2.));
#1807=CARTESIAN_POINT('',(23.0999999999998,-65.8370721549442,2.));
#1808=CARTESIAN_POINT('',(1.24344978758018E-13,-19.5,2.));
#1809=CARTESIAN_POINT('',(6.85000000000004,-19.5,2.));
#1810=CARTESIAN_POINT('',(1.15463194561016E-13,-3.50414142147315E-14,2.));
#1811=CARTESIAN_POINT('',(1.15463194561016E-13,-3.50414142147315E-14,2.));
#1812=CARTESIAN_POINT('',(17.35,-35.2722127152134,2.));
#1813=CARTESIAN_POINT('Origin',(12.35,-35.2722127152134,2.));
#1814=CARTESIAN_POINT('',(10.7499999999979,-49.1746405607346,2.));
#1815=CARTESIAN_POINT('Origin',(13.9999999999979,-49.1746405607346,2.));
#1816=CARTESIAN_POINT('',(13.5749999999976,-57.8370721549415,2.));
#1817=CARTESIAN_POINT('Origin',(16.8249999999976,-57.8370721549415,2.));
#1818=CARTESIAN_POINT('',(0.249999999997961,-62.3370721549413,2.));
#1819=CARTESIAN_POINT('Origin',(3.49999999999796,-62.3370721549413,2.));
#1820=CARTESIAN_POINT('',(0.749999999997984,-46.5095389096397,2.));
#1821=CARTESIAN_POINT('Origin',(3.99999999999799,-46.5095389096397,2.));
#1822=CARTESIAN_POINT('Origin',(22.3999999999998,-16.25,3.85000000001388));
#1823=CARTESIAN_POINT('',(24.275166283953,-16.2499999982389,5.07950000001388));
#1824=CARTESIAN_POINT('',(22.3999999999998,-16.25,5.07950000001388));
#1825=CARTESIAN_POINT('',(23.1414999999983,-15.5491035541378,2.83984435711802));
#1826=CARTESIAN_POINT('Ctrl Pts',(23.1414999999983,-15.5491035546348,2.83984435711802));
#1827=CARTESIAN_POINT('Ctrl Pts',(23.1415000000253,-15.5703742732569,2.8250856700014));
#1828=CARTESIAN_POINT('Ctrl Pts',(23.1423706456125,-15.592214894485,2.81093314871646));
#1829=CARTESIAN_POINT('Ctrl Pts',(23.1504635394476,-15.6890039372382,2.75247913662859));
#1830=CARTESIAN_POINT('Ctrl Pts',(23.1686421013325,-15.7676630325504,2.71650056761781));
#1831=CARTESIAN_POINT('Ctrl Pts',(23.2296302654305,-15.9205237047792,2.66234941513163));
#1832=CARTESIAN_POINT('Ctrl Pts',(23.2867150896463,-16.0125913976022,2.6417294521105));
#1833=CARTESIAN_POINT('Ctrl Pts',(23.4187249000671,-16.1559505591343,2.62169575256028));
#1834=CARTESIAN_POINT('Ctrl Pts',(23.5094106499828,-16.2223207427383,2.62001841807969));
#1835=CARTESIAN_POINT('Ctrl Pts',(23.7105414524189,-16.3106437122285,2.62120254659154));
#1836=CARTESIAN_POINT('Ctrl Pts',(23.8209872662256,-16.3326035536408,2.6232779846714));
#1837=CARTESIAN_POINT('Ctrl Pts',(24.029012733771,-16.3326035536408,2.6232779846714));
#1838=CARTESIAN_POINT('Ctrl Pts',(24.1394585475776,-16.3106437122285,2.62120254659154));
#1839=CARTESIAN_POINT('Ctrl Pts',(24.3405893500138,-16.2223207427383,2.62001841807969));
#1840=CARTESIAN_POINT('Ctrl Pts',(24.4312750999295,-16.1559505591343,2.62169575256028));
#1841=CARTESIAN_POINT('Ctrl Pts',(24.5632849103503,-16.0125913976022,2.6417294521105));
#1842=CARTESIAN_POINT('Ctrl Pts',(24.6203697345661,-15.9205237047792,2.66234941513163));
#1843=CARTESIAN_POINT('Ctrl Pts',(24.6813578986641,-15.7676630325504,2.71650056761781));
#1844=CARTESIAN_POINT('Ctrl Pts',(24.699536460549,-15.6890039372382,2.75247913662859));
#1845=CARTESIAN_POINT('Ctrl Pts',(24.7120144415163,-15.539770318471,2.84260611285646));
#1846=CARTESIAN_POINT('Ctrl Pts',(24.7067164843161,-15.4692512355487,2.89679011483948));
#1847=CARTESIAN_POINT('Ctrl Pts',(24.6744066342032,-15.2897246515873,3.06463449897639));
#1848=CARTESIAN_POINT('Ctrl Pts',(24.6259154095585,-15.1899162599046,3.20479860515656));
#1849=CARTESIAN_POINT('Ctrl Pts',(24.5386556345255,-15.0554180725366,3.51379234277466));
#1850=CARTESIAN_POINT('Ctrl Pts',(24.5033169832162,-15.0205,3.68348105574802));
#1851=CARTESIAN_POINT('Ctrl Pts',(24.5033169832162,-15.0205,4.01651894427974));
#1852=CARTESIAN_POINT('Ctrl Pts',(24.5386556345255,-15.0554180725366,4.1862076572531));
#1853=CARTESIAN_POINT('Ctrl Pts',(24.6259154095585,-15.1899162599046,4.4952013948712));
#1854=CARTESIAN_POINT('Ctrl Pts',(24.6744066342032,-15.2897246515873,4.63536550105137));
#1855=CARTESIAN_POINT('Ctrl Pts',(24.7067164843161,-15.4692512355487,4.80320988518828));
#1856=CARTESIAN_POINT('Ctrl Pts',(24.7120144415163,-15.539770318471,4.8573938871713));
#1857=CARTESIAN_POINT('Ctrl Pts',(24.699536460549,-15.6890039372382,4.94752086339917));
#1858=CARTESIAN_POINT('Ctrl Pts',(24.6813578986641,-15.7676630325504,4.98349943240994));
#1859=CARTESIAN_POINT('Ctrl Pts',(24.6203697345661,-15.9205237047792,5.03765058489611));
#1860=CARTESIAN_POINT('Ctrl Pts',(24.5632849103503,-16.0125913976022,5.05827054791726));
#1861=CARTESIAN_POINT('Ctrl Pts',(24.4395346534066,-16.1469809025813,5.07705078446915));
#1862=CARTESIAN_POINT('Ctrl Pts',(24.3617721033943,-16.2067319241789,5.07949999988992));
#1863=CARTESIAN_POINT('Ctrl Pts',(24.275166283953,-16.2499999964777,5.07950000001388));
#1864=CARTESIAN_POINT('',(23.1414999999983,-15.5491035541378,4.86015564290974));
#1865=CARTESIAN_POINT('Ctrl Pts',(23.1414999999983,-15.5491035546348,4.86015564290974));
#1866=CARTESIAN_POINT('Ctrl Pts',(23.1414999999345,-15.4987913555408,4.82524652593209));
#1867=CARTESIAN_POINT('Ctrl Pts',(23.1464348158111,-15.4517413385513,4.78683939669021));
#1868=CARTESIAN_POINT('Ctrl Pts',(23.1755933657934,-15.2897246515873,4.63536550105137));
#1869=CARTESIAN_POINT('Ctrl Pts',(23.224084590438,-15.1899162599046,4.4952013948712));
#1870=CARTESIAN_POINT('Ctrl Pts',(23.311344365471,-15.0554180725366,4.1862076572531));
#1871=CARTESIAN_POINT('Ctrl Pts',(23.3466830167803,-15.0205,4.01651894427974));
#1872=CARTESIAN_POINT('Ctrl Pts',(23.3466830167803,-15.0205,3.68348105574802));
#1873=CARTESIAN_POINT('Ctrl Pts',(23.311344365471,-15.0554180725366,3.51379234277466));
#1874=CARTESIAN_POINT('Ctrl Pts',(23.224084590438,-15.1899162599046,3.20479860515655));
#1875=CARTESIAN_POINT('Ctrl Pts',(23.1755933657934,-15.2897246515873,3.06463449897639));
#1876=CARTESIAN_POINT('Ctrl Pts',(23.1464348158111,-15.4517413385513,2.91316060333755));
#1877=CARTESIAN_POINT('Ctrl Pts',(23.1414999999345,-15.4987913555408,2.87475347409566));
#1878=CARTESIAN_POINT('Ctrl Pts',(23.1414999999983,-15.5491035546348,2.83984435711802));
#1879=CARTESIAN_POINT('',(23.5748337160436,-16.2499999982389,5.07950000001388));
#1880=CARTESIAN_POINT('Ctrl Pts',(23.5748337160436,-16.2499999964777,5.07950000001388));
#1881=CARTESIAN_POINT('Ctrl Pts',(23.4882278966023,-16.2067319241789,5.07949999988992));
#1882=CARTESIAN_POINT('Ctrl Pts',(23.41046534659,-16.1469809025813,5.07705078446915));
#1883=CARTESIAN_POINT('Ctrl Pts',(23.2867150896463,-16.0125913976022,5.05827054791726));
#1884=CARTESIAN_POINT('Ctrl Pts',(23.2296302654305,-15.9205237047792,5.03765058489611));
#1885=CARTESIAN_POINT('Ctrl Pts',(23.1686421013325,-15.7676630325504,4.98349943240994));
#1886=CARTESIAN_POINT('Ctrl Pts',(23.1504635394476,-15.6890039372382,4.94752086339917));
#1887=CARTESIAN_POINT('Ctrl Pts',(23.1423706456125,-15.592214894485,4.8890668513113));
#1888=CARTESIAN_POINT('Ctrl Pts',(23.1415000000253,-15.5703742732569,4.87491433002636));
#1889=CARTESIAN_POINT('Ctrl Pts',(23.1414999999983,-15.5491035546348,4.86015564290974));
#1890=CARTESIAN_POINT('',(17.3999999999998,-16.25,5.07950000001388));
#1891=CARTESIAN_POINT('',(22.3999999999998,-16.25,5.07950000001388));
#1892=CARTESIAN_POINT('Origin',(17.3999999999998,-16.25,3.85000000001388));
#1893=CARTESIAN_POINT('',(23.9249999999983,-16.3326035536408,5.07672201535636));
#1894=CARTESIAN_POINT('Ctrl Pts',(23.9249999999983,-16.3326035536408,5.07672201535636));
#1895=CARTESIAN_POINT('Ctrl Pts',(23.8209872662256,-16.3326035536408,5.07672201535636));
#1896=CARTESIAN_POINT('Ctrl Pts',(23.7105414524189,-16.3106437122285,5.07879745343622));
#1897=CARTESIAN_POINT('Ctrl Pts',(23.5981248129426,-16.2612779696451,5.07945929014346));
#1898=CARTESIAN_POINT('Ctrl Pts',(23.5864033027534,-16.2557801359355,5.07950000003044));
#1899=CARTESIAN_POINT('Ctrl Pts',(23.5748337160436,-16.2499999964777,5.07950000001388));
#1900=CARTESIAN_POINT('Ctrl Pts',(24.275166283953,-16.2499999964777,5.07950000001388));
#1901=CARTESIAN_POINT('Ctrl Pts',(24.2635966972432,-16.2557801359355,5.07950000003044));
#1902=CARTESIAN_POINT('Ctrl Pts',(24.251875187054,-16.2612779696451,5.07945929014346));
#1903=CARTESIAN_POINT('Ctrl Pts',(24.1394585475776,-16.3106437122285,5.07879745343622));
#1904=CARTESIAN_POINT('Ctrl Pts',(24.029012733771,-16.3326035536408,5.07672201535636));
#1905=CARTESIAN_POINT('Ctrl Pts',(23.9249999999983,-16.3326035536408,5.07672201535636));
#1906=CARTESIAN_POINT('Origin',(17.3999999999998,-16.25,3.85000000001388));
#1907=CARTESIAN_POINT('Origin',(22.3999999999998,-3.25000000000005,3.85000000001393));
#1908=CARTESIAN_POINT('',(27.3999999999998,-3.25000000000005,5.07950000001393));
#1909=CARTESIAN_POINT('Origin',(27.3999999999998,-3.25000000000005,3.85000000001393));
#1910=CARTESIAN_POINT('',(17.3999999999998,-3.25000000000005,5.07950000001393));
#1911=CARTESIAN_POINT('',(22.3999999999998,-3.25000000000005,5.07950000001393));
#1912=CARTESIAN_POINT('Origin',(17.3999999999998,-3.25000000000005,3.85000000001393));
#1913=CARTESIAN_POINT('Origin',(17.3999999999998,-3.25000000000005,3.85000000001393));
#1914=CARTESIAN_POINT('Origin',(20.1046276467465,-9.49999999999742,2.));
#1915=CARTESIAN_POINT('Origin',(20.1046276467465,-9.49999999999742,2.));
#1916=CARTESIAN_POINT('Origin',(20.1046276467465,-9.49999999999742,1.175));
#1917=CARTESIAN_POINT('',(23.0999999999998,-8.23895104560819,2.));
#1918=CARTESIAN_POINT('',(23.0999999999998,-10.7610489543866,2.));
#1919=CARTESIAN_POINT('Ctrl Pts',(23.0999999999998,-8.23895104560819,2.));
#1920=CARTESIAN_POINT('Ctrl Pts',(23.0999999999998,-9.49999999999742,1.51069401065656));
#1921=CARTESIAN_POINT('Ctrl Pts',(23.0999999999998,-10.7610489543867,2.));
#1922=CARTESIAN_POINT('Origin',(20.1046276467465,-9.49999999999742,2.));
#1923=CARTESIAN_POINT('',(16.8546276467465,-9.49999999999742,2.));
#1924=CARTESIAN_POINT('Origin',(20.1046276467465,-9.49999999999742,2.));
#1925=CARTESIAN_POINT('',(18.5046276467465,-9.49999999999742,0.35));
#1926=CARTESIAN_POINT('',(17.6796276467465,-9.49999999999742,1.175));
#1927=CARTESIAN_POINT('Origin',(20.1046276467465,-9.49999999999742,0.35));
#1928=CARTESIAN_POINT('Origin',(20.1046276467465,-9.49999999999742,2.));
#1929=CARTESIAN_POINT('Origin',(20.1046276467465,-9.49999999999742,-0.5));
#1930=CARTESIAN_POINT('',(18.5046276467465,-9.49999999999742,-0.5));
#1931=CARTESIAN_POINT('Origin',(3.99999999999799,-46.5095389096397,1.175));
#1932=CARTESIAN_POINT('',(2.39999999999799,-46.5095389096397,0.35));
#1933=CARTESIAN_POINT('',(1.57499999999799,-46.5095389096397,1.175));
#1934=CARTESIAN_POINT('Origin',(3.99999999999799,-46.5095389096397,0.35));
#1935=CARTESIAN_POINT('Origin',(3.99999999999799,-46.5095389096397,-0.5));
#1936=CARTESIAN_POINT('',(2.39999999999799,-46.5095389096397,-0.5));
#1937=CARTESIAN_POINT('Origin',(3.49999999999796,-62.3370721549413,1.175));
#1938=CARTESIAN_POINT('',(1.89999999999796,-62.3370721549413,0.35));
#1939=CARTESIAN_POINT('',(1.07499999999796,-62.3370721549413,1.175));
#1940=CARTESIAN_POINT('Origin',(3.49999999999796,-62.3370721549413,0.35));
#1941=CARTESIAN_POINT('Origin',(3.49999999999796,-62.3370721549413,-0.5));
#1942=CARTESIAN_POINT('',(1.89999999999796,-62.3370721549413,-0.5));
#1943=CARTESIAN_POINT('Origin',(16.8249999999976,-57.8370721549415,1.175));
#1944=CARTESIAN_POINT('',(15.2249999999976,-57.8370721549415,0.350000000000001));
#1945=CARTESIAN_POINT('',(14.3999999999976,-57.8370721549415,1.175));
#1946=CARTESIAN_POINT('Origin',(16.8249999999976,-57.8370721549415,0.35));
#1947=CARTESIAN_POINT('Origin',(16.8249999999976,-57.8370721549415,-0.5));
#1948=CARTESIAN_POINT('',(15.2249999999976,-57.8370721549415,-0.5));
#1949=CARTESIAN_POINT('Origin',(13.9999999999979,-49.1746405607346,1.175));
#1950=CARTESIAN_POINT('',(12.3999999999979,-49.1746405607346,0.349999999999999));
#1951=CARTESIAN_POINT('',(11.5749999999979,-49.1746405607346,1.175));
#1952=CARTESIAN_POINT('Origin',(13.9999999999979,-49.1746405607346,0.35));
#1953=CARTESIAN_POINT('Origin',(13.9999999999979,-49.1746405607346,-0.5));
#1954=CARTESIAN_POINT('',(12.3999999999979,-49.1746405607346,-0.5));
#1955=CARTESIAN_POINT('Origin',(19.8907270990228,-25.3028880230354,1.175));
#1956=CARTESIAN_POINT('Ctrl Pts',(23.0999999999998,-24.7899870120649,2.));
#1957=CARTESIAN_POINT('Ctrl Pts',(23.0999999999998,-25.3028880230354,1.91905617013707));
#1958=CARTESIAN_POINT('Ctrl Pts',(23.0999999999998,-25.8157890340058,2.));
#1959=CARTESIAN_POINT('',(18.2907270990228,-25.3028880230354,0.349999999999999));
#1960=CARTESIAN_POINT('',(17.4657270990228,-25.3028880230354,1.175));
#1961=CARTESIAN_POINT('Origin',(19.8907270990228,-25.3028880230354,0.35));
#1962=CARTESIAN_POINT('Origin',(19.8907270990228,-25.3028880230354,-0.5));
#1963=CARTESIAN_POINT('',(18.2907270990228,-25.3028880230354,-0.5));
#1964=CARTESIAN_POINT('Origin',(13.6999999999999,-32.9185360774721,2.));
#1965=CARTESIAN_POINT('',(23.0999999999998,-13.,2.));
#1966=CARTESIAN_POINT('Origin',(23.0999999999998,-65.8370721549442,0.));
#1967=CARTESIAN_POINT('',(23.0999999999998,-65.8370721549442,0.));
#1968=CARTESIAN_POINT('',(23.0999999999998,-19.5,0.));
#1969=CARTESIAN_POINT('Origin',(14.7,-14.6999999999999,0.));
#1970=CARTESIAN_POINT('',(10.7,-14.6999999999999,1.5));
#1971=CARTESIAN_POINT('',(10.7,-14.6999999999999,0.));
#1972=CARTESIAN_POINT('Origin',(14.7,-14.6999999999999,1.5));
#1973=CARTESIAN_POINT('Origin',(14.7,-14.6999999999999,1.5));
#1974=CARTESIAN_POINT('Origin',(9.22261769972911,-23.0664976625035,0.));
#1975=CARTESIAN_POINT('',(7.97261769972911,-23.0664976625035,1.5));
#1976=CARTESIAN_POINT('',(7.97261769972911,-23.0664976625035,0.));
#1977=CARTESIAN_POINT('Origin',(9.22261769972911,-23.0664976625035,1.5));
#1978=CARTESIAN_POINT('Origin',(9.22261769972911,-23.0664976625035,1.5));
#1979=CARTESIAN_POINT('Origin',(4.72499999999967,-15.5491035536409,71.7256583792421));
#1980=CARTESIAN_POINT('',(3.94149999999967,-15.5491035536409,71.7256583792421));
#1981=CARTESIAN_POINT('Origin',(23.9249999999983,-15.5491035536408,71.7256583792421));
#1982=CARTESIAN_POINT('',(23.1414999999983,-15.5491035536408,71.7256583792421));
#1983=CARTESIAN_POINT('',(23.1414999999983,-15.5491035536408,71.7256583792421));
#1984=CARTESIAN_POINT('Origin',(14.324999999999,-2.99999999999998,71.7256583792421));
#1985=CARTESIAN_POINT('',(13.541499999999,-2.99999999999998,71.7256583792421));
#1986=CARTESIAN_POINT('Origin',(1.21955522522919E-13,-17.5000000000283,
0.));
#1987=CARTESIAN_POINT('',(1.24344978758018E-13,-19.5,0.));
#1988=CARTESIAN_POINT('',(1.21985754830689E-13,-17.5000000000283,0.));
#1989=CARTESIAN_POINT('',(1.3988810110277E-13,-65.8370721549442,0.));
#1990=CARTESIAN_POINT('Origin',(12.35,-35.2722127152134,0.));
#1991=CARTESIAN_POINT('',(17.35,-35.2722127152134,0.));
#1992=CARTESIAN_POINT('Origin',(23.0999999999998,-13.,0.));
#1993=CARTESIAN_POINT('',(23.0999999999998,-13.,2.));
#1994=CARTESIAN_POINT('Origin',(23.0999999999998,-19.5,0.));
#1995=CARTESIAN_POINT('Origin',(1.3988810110277E-13,-65.8370721549442,0.));
#1996=CARTESIAN_POINT('Origin',(2.49999999999977,-17.5000000000283,0.));
#1997=CARTESIAN_POINT('Origin',(1.15879528195251E-13,-0.99999999999997,
0.));
#1998=CARTESIAN_POINT('',(1.15879528195251E-13,-0.99999999999997,0.));
#1999=CARTESIAN_POINT('Origin',(1.15463194561016E-13,-3.50414142147315E-14,
0.));
#2000=CARTESIAN_POINT('',(1.15463194561016E-13,-3.50414142147315E-14,0.));
#2001=CARTESIAN_POINT('Origin',(27.3999999999998,-3.05311331771918E-14,
0.));
#2002=CARTESIAN_POINT('',(27.3999999999998,-3.05311331771918E-14,0.));
#2003=CARTESIAN_POINT('Origin',(27.3999999999998,-6.50000000000003,0.));
#2004=CARTESIAN_POINT('Origin',(13.6999999999999,-32.9185360774721,2.));
#2005=UNCERTAINTY_MEASURE_WITH_UNIT(LENGTH_MEASURE(0.01),#2009,
'DISTANCE_ACCURACY_VALUE',
'Maximum model space distance between geometric entities at asserted c
onnectivities');
#2006=UNCERTAINTY_MEASURE_WITH_UNIT(LENGTH_MEASURE(0.01),#2009,
'DISTANCE_ACCURACY_VALUE',
'Maximum model space distance between geometric entities at asserted c
onnectivities');
#2007=(
GEOMETRIC_REPRESENTATION_CONTEXT(3)
GLOBAL_UNCERTAINTY_ASSIGNED_CONTEXT((#2005))
GLOBAL_UNIT_ASSIGNED_CONTEXT((#2009,#2011,#2012))
REPRESENTATION_CONTEXT('','3D')
);
#2008=(
GEOMETRIC_REPRESENTATION_CONTEXT(3)
GLOBAL_UNCERTAINTY_ASSIGNED_CONTEXT((#2006))
GLOBAL_UNIT_ASSIGNED_CONTEXT((#2009,#2011,#2012))
REPRESENTATION_CONTEXT('','3D')
);
#2009=(
LENGTH_UNIT()
NAMED_UNIT(*)
SI_UNIT(.MILLI.,.METRE.)
);
#2010=(
LENGTH_UNIT()
NAMED_UNIT(*)
SI_UNIT(.CENTI.,.METRE.)
);
#2011=(
NAMED_UNIT(*)
PLANE_ANGLE_UNIT()
SI_UNIT($,.RADIAN.)
);
#2012=(
NAMED_UNIT(*)
SI_UNIT($,.STERADIAN.)
SOLID_ANGLE_UNIT()
);
#2013=SHAPE_DEFINITION_REPRESENTATION(#2014,#2015);
#2014=PRODUCT_DEFINITION_SHAPE('',$,#2017);
#2015=SHAPE_REPRESENTATION('',(#1172),#2007);
#2016=PRODUCT_DEFINITION_CONTEXT('part definition',#2021,'design');
#2017=PRODUCT_DEFINITION('RightGearboxCover','RightGearboxCover',#2018,
#2016);
#2018=PRODUCT_DEFINITION_FORMATION('',$,#2023);
#2019=PRODUCT_RELATED_PRODUCT_CATEGORY('RightGearboxCover',
'RightGearboxCover',(#2023));
#2020=APPLICATION_PROTOCOL_DEFINITION('international standard',
'automotive_design',2009,#2021);
#2021=APPLICATION_CONTEXT(
'Core Data for Automotive Mechanical Design Process');
#2022=PRODUCT_CONTEXT('part definition',#2021,'mechanical');
#2023=PRODUCT('RightGearboxCover','RightGearboxCover',$,(#2022));
#2024=PRESENTATION_STYLE_ASSIGNMENT((#2025));
#2025=SURFACE_STYLE_USAGE(.BOTH.,#2028);
#2026=SURFACE_STYLE_RENDERING_WITH_PROPERTIES($,#2032,(#2027));
#2027=SURFACE_STYLE_TRANSPARENT(0.);
#2028=SURFACE_SIDE_STYLE('',(#2029,#2026));
#2029=SURFACE_STYLE_FILL_AREA(#2030);
#2030=FILL_AREA_STYLE('',(#2031));
#2031=FILL_AREA_STYLE_COLOUR('',#2032);
#2032=COLOUR_RGB('',0.498039215686275,0.498039215686275,0.498039215686275);
ENDSEC;
END-ISO-10303-21;
