ISO-10303-21;
HEADER;
/* Generated by software containing ST-Developer
 * from STEP Tools, Inc. (www.steptools.com) 
 */

FILE_DESCRIPTION(
/* description */ (''),
/* implementation_level */ '2;1');

FILE_NAME(
/* name */ 'SteelFront.stp',
/* time_stamp */ '2026-04-10T21:51:47+02:00',
/* author */ ('szymo'),
/* organization */ (''),
/* preprocessor_version */ 'ST-DEVELOPER v20.1',
/* originating_system */ 'Autodesk Inventor 2026',
/* authorisation */ '');

FILE_SCHEMA (('AUTOMOTIVE_DESIGN { 1 0 10303 214 3 1 1 }'));
ENDSEC;

DATA;
#10=MECHANICAL_DESIGN_GEOMETRIC_PRESENTATION_REPRESENTATION('',(#13),#504);
#11=SHAPE_REPRESENTATION_RELATIONSHIP('SRR','None',#511,#12);
#12=ADVANCED_BREP_SHAPE_REPRESENTATION('',(#14),#503);
#13=STYLED_ITEM('',(#520),#14);
#14=MANIFOLD_SOLID_BREP('Solid1',#291);
#15=FACE_BOUND('',#62,.T.);
#16=FACE_BOUND('',#63,.T.);
#17=FACE_BOUND('',#64,.T.);
#18=FACE_BOUND('',#65,.T.);
#19=FACE_BOUND('',#66,.T.);
#20=FACE_BOUND('',#67,.T.);
#21=FACE_BOUND('',#68,.T.);
#22=FACE_BOUND('',#69,.T.);
#23=FACE_BOUND('',#72,.T.);
#24=FACE_BOUND('',#73,.T.);
#25=FACE_BOUND('',#74,.T.);
#26=FACE_BOUND('',#75,.T.);
#27=FACE_BOUND('',#76,.T.);
#28=FACE_BOUND('',#77,.T.);
#29=FACE_BOUND('',#78,.T.);
#30=FACE_BOUND('',#79,.T.);
#31=PLANE('',#338);
#32=PLANE('',#339);
#33=PLANE('',#340);
#34=PLANE('',#341);
#35=PLANE('',#342);
#36=PLANE('',#343);
#37=FACE_OUTER_BOUND('',#51,.T.);
#38=FACE_OUTER_BOUND('',#52,.T.);
#39=FACE_OUTER_BOUND('',#53,.T.);
#40=FACE_OUTER_BOUND('',#54,.T.);
#41=FACE_OUTER_BOUND('',#55,.T.);
#42=FACE_OUTER_BOUND('',#56,.T.);
#43=FACE_OUTER_BOUND('',#57,.T.);
#44=FACE_OUTER_BOUND('',#58,.T.);
#45=FACE_OUTER_BOUND('',#59,.T.);
#46=FACE_OUTER_BOUND('',#60,.T.);
#47=FACE_OUTER_BOUND('',#61,.T.);
#48=FACE_OUTER_BOUND('',#70,.T.);
#49=FACE_OUTER_BOUND('',#71,.T.);
#50=FACE_OUTER_BOUND('',#80,.T.);
#51=EDGE_LOOP('',(#197,#198,#199,#200));
#52=EDGE_LOOP('',(#201,#202,#203,#204));
#53=EDGE_LOOP('',(#205,#206,#207,#208));
#54=EDGE_LOOP('',(#209,#210,#211,#212));
#55=EDGE_LOOP('',(#213,#214,#215,#216));
#56=EDGE_LOOP('',(#217,#218,#219,#220));
#57=EDGE_LOOP('',(#221,#222,#223,#224));
#58=EDGE_LOOP('',(#225,#226,#227,#228));
#59=EDGE_LOOP('',(#229,#230,#231,#232));
#60=EDGE_LOOP('',(#233,#234,#235,#236));
#61=EDGE_LOOP('',(#237,#238,#239,#240));
#62=EDGE_LOOP('',(#241));
#63=EDGE_LOOP('',(#242));
#64=EDGE_LOOP('',(#243));
#65=EDGE_LOOP('',(#244));
#66=EDGE_LOOP('',(#245));
#67=EDGE_LOOP('',(#246));
#68=EDGE_LOOP('',(#247));
#69=EDGE_LOOP('',(#248));
#70=EDGE_LOOP('',(#249,#250,#251,#252));
#71=EDGE_LOOP('',(#253,#254,#255,#256));
#72=EDGE_LOOP('',(#257));
#73=EDGE_LOOP('',(#258));
#74=EDGE_LOOP('',(#259));
#75=EDGE_LOOP('',(#260));
#76=EDGE_LOOP('',(#261));
#77=EDGE_LOOP('',(#262));
#78=EDGE_LOOP('',(#263));
#79=EDGE_LOOP('',(#264));
#80=EDGE_LOOP('',(#265,#266,#267,#268));
#81=LINE('',#431,#101);
#82=LINE('',#437,#102);
#83=LINE('',#443,#103);
#84=LINE('',#449,#104);
#85=LINE('',#455,#105);
#86=LINE('',#461,#106);
#87=LINE('',#467,#107);
#88=LINE('',#473,#108);
#89=LINE('',#478,#109);
#90=LINE('',#480,#110);
#91=LINE('',#482,#111);
#92=LINE('',#483,#112);
#93=LINE('',#486,#113);
#94=LINE('',#488,#114);
#95=LINE('',#489,#115);
#96=LINE('',#492,#116);
#97=LINE('',#493,#117);
#98=LINE('',#496,#118);
#99=LINE('',#497,#119);
#100=LINE('',#499,#120);
#101=VECTOR('',#350,4.);
#102=VECTOR('',#357,1.5);
#103=VECTOR('',#364,1.5);
#104=VECTOR('',#371,4.);
#105=VECTOR('',#378,4.);
#106=VECTOR('',#385,1.5);
#107=VECTOR('',#392,1.5);
#108=VECTOR('',#399,4.);
#109=VECTOR('',#404,10.);
#110=VECTOR('',#405,10.);
#111=VECTOR('',#406,10.);
#112=VECTOR('',#407,10.);
#113=VECTOR('',#410,10.);
#114=VECTOR('',#411,10.);
#115=VECTOR('',#412,10.);
#116=VECTOR('',#415,10.);
#117=VECTOR('',#416,10.);
#118=VECTOR('',#419,10.);
#119=VECTOR('',#420,10.);
#120=VECTOR('',#423,10.);
#121=CIRCLE('',#315,4.);
#122=CIRCLE('',#316,4.);
#123=CIRCLE('',#318,1.5);
#124=CIRCLE('',#319,1.5);
#125=CIRCLE('',#321,1.5);
#126=CIRCLE('',#322,1.5);
#127=CIRCLE('',#324,4.);
#128=CIRCLE('',#325,4.);
#129=CIRCLE('',#327,4.);
#130=CIRCLE('',#328,4.);
#131=CIRCLE('',#330,1.5);
#132=CIRCLE('',#331,1.5);
#133=CIRCLE('',#333,1.5);
#134=CIRCLE('',#334,1.5);
#135=CIRCLE('',#336,4.);
#136=CIRCLE('',#337,4.);
#137=VERTEX_POINT('',#428);
#138=VERTEX_POINT('',#430);
#139=VERTEX_POINT('',#434);
#140=VERTEX_POINT('',#436);
#141=VERTEX_POINT('',#440);
#142=VERTEX_POINT('',#442);
#143=VERTEX_POINT('',#446);
#144=VERTEX_POINT('',#448);
#145=VERTEX_POINT('',#452);
#146=VERTEX_POINT('',#454);
#147=VERTEX_POINT('',#458);
#148=VERTEX_POINT('',#460);
#149=VERTEX_POINT('',#464);
#150=VERTEX_POINT('',#466);
#151=VERTEX_POINT('',#470);
#152=VERTEX_POINT('',#472);
#153=VERTEX_POINT('',#476);
#154=VERTEX_POINT('',#477);
#155=VERTEX_POINT('',#479);
#156=VERTEX_POINT('',#481);
#157=VERTEX_POINT('',#485);
#158=VERTEX_POINT('',#487);
#159=VERTEX_POINT('',#491);
#160=VERTEX_POINT('',#495);
#161=EDGE_CURVE('',#137,#137,#121,.T.);
#162=EDGE_CURVE('',#137,#138,#81,.T.);
#163=EDGE_CURVE('',#138,#138,#122,.T.);
#164=EDGE_CURVE('',#139,#139,#123,.T.);
#165=EDGE_CURVE('',#139,#140,#82,.T.);
#166=EDGE_CURVE('',#140,#140,#124,.T.);
#167=EDGE_CURVE('',#141,#141,#125,.T.);
#168=EDGE_CURVE('',#141,#142,#83,.T.);
#169=EDGE_CURVE('',#142,#142,#126,.T.);
#170=EDGE_CURVE('',#143,#143,#127,.T.);
#171=EDGE_CURVE('',#143,#144,#84,.T.);
#172=EDGE_CURVE('',#144,#144,#128,.T.);
#173=EDGE_CURVE('',#145,#145,#129,.T.);
#174=EDGE_CURVE('',#145,#146,#85,.T.);
#175=EDGE_CURVE('',#146,#146,#130,.T.);
#176=EDGE_CURVE('',#147,#147,#131,.T.);
#177=EDGE_CURVE('',#147,#148,#86,.T.);
#178=EDGE_CURVE('',#148,#148,#132,.T.);
#179=EDGE_CURVE('',#149,#149,#133,.T.);
#180=EDGE_CURVE('',#149,#150,#87,.T.);
#181=EDGE_CURVE('',#150,#150,#134,.T.);
#182=EDGE_CURVE('',#151,#151,#135,.T.);
#183=EDGE_CURVE('',#151,#152,#88,.T.);
#184=EDGE_CURVE('',#152,#152,#136,.T.);
#185=EDGE_CURVE('',#153,#154,#89,.T.);
#186=EDGE_CURVE('',#154,#155,#90,.T.);
#187=EDGE_CURVE('',#155,#156,#91,.T.);
#188=EDGE_CURVE('',#156,#153,#92,.T.);
#189=EDGE_CURVE('',#157,#154,#93,.T.);
#190=EDGE_CURVE('',#158,#157,#94,.T.);
#191=EDGE_CURVE('',#155,#158,#95,.T.);
#192=EDGE_CURVE('',#159,#158,#96,.T.);
#193=EDGE_CURVE('',#156,#159,#97,.T.);
#194=EDGE_CURVE('',#160,#159,#98,.T.);
#195=EDGE_CURVE('',#153,#160,#99,.T.);
#196=EDGE_CURVE('',#157,#160,#100,.T.);
#197=ORIENTED_EDGE('',*,*,#161,.F.);
#198=ORIENTED_EDGE('',*,*,#162,.T.);
#199=ORIENTED_EDGE('',*,*,#163,.F.);
#200=ORIENTED_EDGE('',*,*,#162,.F.);
#201=ORIENTED_EDGE('',*,*,#164,.F.);
#202=ORIENTED_EDGE('',*,*,#165,.T.);
#203=ORIENTED_EDGE('',*,*,#166,.F.);
#204=ORIENTED_EDGE('',*,*,#165,.F.);
#205=ORIENTED_EDGE('',*,*,#167,.F.);
#206=ORIENTED_EDGE('',*,*,#168,.T.);
#207=ORIENTED_EDGE('',*,*,#169,.F.);
#208=ORIENTED_EDGE('',*,*,#168,.F.);
#209=ORIENTED_EDGE('',*,*,#170,.F.);
#210=ORIENTED_EDGE('',*,*,#171,.T.);
#211=ORIENTED_EDGE('',*,*,#172,.F.);
#212=ORIENTED_EDGE('',*,*,#171,.F.);
#213=ORIENTED_EDGE('',*,*,#173,.F.);
#214=ORIENTED_EDGE('',*,*,#174,.T.);
#215=ORIENTED_EDGE('',*,*,#175,.F.);
#216=ORIENTED_EDGE('',*,*,#174,.F.);
#217=ORIENTED_EDGE('',*,*,#176,.F.);
#218=ORIENTED_EDGE('',*,*,#177,.T.);
#219=ORIENTED_EDGE('',*,*,#178,.F.);
#220=ORIENTED_EDGE('',*,*,#177,.F.);
#221=ORIENTED_EDGE('',*,*,#179,.F.);
#222=ORIENTED_EDGE('',*,*,#180,.T.);
#223=ORIENTED_EDGE('',*,*,#181,.F.);
#224=ORIENTED_EDGE('',*,*,#180,.F.);
#225=ORIENTED_EDGE('',*,*,#182,.F.);
#226=ORIENTED_EDGE('',*,*,#183,.T.);
#227=ORIENTED_EDGE('',*,*,#184,.F.);
#228=ORIENTED_EDGE('',*,*,#183,.F.);
#229=ORIENTED_EDGE('',*,*,#185,.T.);
#230=ORIENTED_EDGE('',*,*,#186,.T.);
#231=ORIENTED_EDGE('',*,*,#187,.T.);
#232=ORIENTED_EDGE('',*,*,#188,.T.);
#233=ORIENTED_EDGE('',*,*,#189,.F.);
#234=ORIENTED_EDGE('',*,*,#190,.F.);
#235=ORIENTED_EDGE('',*,*,#191,.F.);
#236=ORIENTED_EDGE('',*,*,#186,.F.);
#237=ORIENTED_EDGE('',*,*,#191,.T.);
#238=ORIENTED_EDGE('',*,*,#192,.F.);
#239=ORIENTED_EDGE('',*,*,#193,.F.);
#240=ORIENTED_EDGE('',*,*,#187,.F.);
#241=ORIENTED_EDGE('',*,*,#161,.T.);
#242=ORIENTED_EDGE('',*,*,#164,.T.);
#243=ORIENTED_EDGE('',*,*,#167,.T.);
#244=ORIENTED_EDGE('',*,*,#170,.T.);
#245=ORIENTED_EDGE('',*,*,#173,.T.);
#246=ORIENTED_EDGE('',*,*,#176,.T.);
#247=ORIENTED_EDGE('',*,*,#179,.T.);
#248=ORIENTED_EDGE('',*,*,#182,.T.);
#249=ORIENTED_EDGE('',*,*,#193,.T.);
#250=ORIENTED_EDGE('',*,*,#194,.F.);
#251=ORIENTED_EDGE('',*,*,#195,.F.);
#252=ORIENTED_EDGE('',*,*,#188,.F.);
#253=ORIENTED_EDGE('',*,*,#195,.T.);
#254=ORIENTED_EDGE('',*,*,#196,.F.);
#255=ORIENTED_EDGE('',*,*,#189,.T.);
#256=ORIENTED_EDGE('',*,*,#185,.F.);
#257=ORIENTED_EDGE('',*,*,#163,.T.);
#258=ORIENTED_EDGE('',*,*,#166,.T.);
#259=ORIENTED_EDGE('',*,*,#169,.T.);
#260=ORIENTED_EDGE('',*,*,#172,.T.);
#261=ORIENTED_EDGE('',*,*,#175,.T.);
#262=ORIENTED_EDGE('',*,*,#178,.T.);
#263=ORIENTED_EDGE('',*,*,#181,.T.);
#264=ORIENTED_EDGE('',*,*,#184,.T.);
#265=ORIENTED_EDGE('',*,*,#196,.T.);
#266=ORIENTED_EDGE('',*,*,#194,.T.);
#267=ORIENTED_EDGE('',*,*,#192,.T.);
#268=ORIENTED_EDGE('',*,*,#190,.T.);
#269=CYLINDRICAL_SURFACE('',#314,4.);
#270=CYLINDRICAL_SURFACE('',#317,1.5);
#271=CYLINDRICAL_SURFACE('',#320,1.5);
#272=CYLINDRICAL_SURFACE('',#323,4.);
#273=CYLINDRICAL_SURFACE('',#326,4.);
#274=CYLINDRICAL_SURFACE('',#329,1.5);
#275=CYLINDRICAL_SURFACE('',#332,1.5);
#276=CYLINDRICAL_SURFACE('',#335,4.);
#277=ADVANCED_FACE('',(#37),#269,.F.);
#278=ADVANCED_FACE('',(#38),#270,.F.);
#279=ADVANCED_FACE('',(#39),#271,.F.);
#280=ADVANCED_FACE('',(#40),#272,.F.);
#281=ADVANCED_FACE('',(#41),#273,.F.);
#282=ADVANCED_FACE('',(#42),#274,.F.);
#283=ADVANCED_FACE('',(#43),#275,.F.);
#284=ADVANCED_FACE('',(#44),#276,.F.);
#285=ADVANCED_FACE('',(#45),#31,.T.);
#286=ADVANCED_FACE('',(#46),#32,.T.);
#287=ADVANCED_FACE('',(#47,#15,#16,#17,#18,#19,#20,#21,#22),#33,.T.);
#288=ADVANCED_FACE('',(#48),#34,.T.);
#289=ADVANCED_FACE('',(#49,#23,#24,#25,#26,#27,#28,#29,#30),#35,.T.);
#290=ADVANCED_FACE('',(#50),#36,.T.);
#291=CLOSED_SHELL('',(#277,#278,#279,#280,#281,#282,#283,#284,#285,#286,
#287,#288,#289,#290));
#292=DERIVED_UNIT_ELEMENT(#295,1.);
#293=DERIVED_UNIT_ELEMENT(#506,-3.);
#294=DIMENSIONAL_EXPONENTS(0.,1.,0.,0.,0.,0.,0.);
#295=(
CONVERSION_BASED_UNIT('gram',#297)
MASS_UNIT()
NAMED_UNIT(#294)
);
#296=(
MASS_UNIT()
NAMED_UNIT(*)
SI_UNIT(.KILO.,.GRAM.)
);
#297=MASS_MEASURE_WITH_UNIT(MASS_MEASURE(0.001),#296);
#298=DERIVED_UNIT((#292,#293));
#299=MEASURE_REPRESENTATION_ITEM('density measure',
POSITIVE_RATIO_MEASURE(7.73),#298);
#300=PROPERTY_DEFINITION_REPRESENTATION(#305,#302);
#301=PROPERTY_DEFINITION_REPRESENTATION(#306,#303);
#302=REPRESENTATION('material name',(#304),#503);
#303=REPRESENTATION('density',(#299),#503);
#304=DESCRIPTIVE_REPRESENTATION_ITEM('Steel, Alloy','Steel, Alloy');
#305=PROPERTY_DEFINITION('material property','material name',#513);
#306=PROPERTY_DEFINITION('material property','density of part',#513);
#307=DATE_TIME_ROLE('creation_date');
#308=APPLIED_DATE_AND_TIME_ASSIGNMENT(#309,#307,(#513));
#309=DATE_AND_TIME(#310,#311);
#310=CALENDAR_DATE(2026,7,4);
#311=LOCAL_TIME(0,0,0.,#312);
#312=COORDINATED_UNIVERSAL_TIME_OFFSET(0,0,.BEHIND.);
#313=AXIS2_PLACEMENT_3D('',#426,#344,#345);
#314=AXIS2_PLACEMENT_3D('',#427,#346,#347);
#315=AXIS2_PLACEMENT_3D('',#429,#348,#349);
#316=AXIS2_PLACEMENT_3D('',#432,#351,#352);
#317=AXIS2_PLACEMENT_3D('',#433,#353,#354);
#318=AXIS2_PLACEMENT_3D('',#435,#355,#356);
#319=AXIS2_PLACEMENT_3D('',#438,#358,#359);
#320=AXIS2_PLACEMENT_3D('',#439,#360,#361);
#321=AXIS2_PLACEMENT_3D('',#441,#362,#363);
#322=AXIS2_PLACEMENT_3D('',#444,#365,#366);
#323=AXIS2_PLACEMENT_3D('',#445,#367,#368);
#324=AXIS2_PLACEMENT_3D('',#447,#369,#370);
#325=AXIS2_PLACEMENT_3D('',#450,#372,#373);
#326=AXIS2_PLACEMENT_3D('',#451,#374,#375);
#327=AXIS2_PLACEMENT_3D('',#453,#376,#377);
#328=AXIS2_PLACEMENT_3D('',#456,#379,#380);
#329=AXIS2_PLACEMENT_3D('',#457,#381,#382);
#330=AXIS2_PLACEMENT_3D('',#459,#383,#384);
#331=AXIS2_PLACEMENT_3D('',#462,#386,#387);
#332=AXIS2_PLACEMENT_3D('',#463,#388,#389);
#333=AXIS2_PLACEMENT_3D('',#465,#390,#391);
#334=AXIS2_PLACEMENT_3D('',#468,#393,#394);
#335=AXIS2_PLACEMENT_3D('',#469,#395,#396);
#336=AXIS2_PLACEMENT_3D('',#471,#397,#398);
#337=AXIS2_PLACEMENT_3D('',#474,#400,#401);
#338=AXIS2_PLACEMENT_3D('',#475,#402,#403);
#339=AXIS2_PLACEMENT_3D('',#484,#408,#409);
#340=AXIS2_PLACEMENT_3D('',#490,#413,#414);
#341=AXIS2_PLACEMENT_3D('',#494,#417,#418);
#342=AXIS2_PLACEMENT_3D('',#498,#421,#422);
#343=AXIS2_PLACEMENT_3D('',#500,#424,#425);
#344=DIRECTION('axis',(0.,0.,1.));
#345=DIRECTION('refdir',(1.,0.,0.));
#346=DIRECTION('center_axis',(-0.173610048626573,0.984814475429702,0.));
#347=DIRECTION('ref_axis',(0.984814475429702,0.173610048626573,0.));
#348=DIRECTION('center_axis',(-0.173610048626573,0.984814475429702,0.));
#349=DIRECTION('ref_axis',(0.984814475429702,0.173610048626573,0.));
#350=DIRECTION('',(-0.173610048626573,0.984814475429702,0.));
#351=DIRECTION('center_axis',(0.173610048626573,-0.984814475429702,0.));
#352=DIRECTION('ref_axis',(0.984814475429702,0.173610048626573,0.));
#353=DIRECTION('center_axis',(-0.173610048626573,0.984814475429702,0.));
#354=DIRECTION('ref_axis',(0.984814475429702,0.173610048626573,0.));
#355=DIRECTION('center_axis',(-0.173610048626573,0.984814475429702,0.));
#356=DIRECTION('ref_axis',(0.984814475429702,0.173610048626573,0.));
#357=DIRECTION('',(-0.173610048626573,0.984814475429702,0.));
#358=DIRECTION('center_axis',(0.173610048626573,-0.984814475429702,0.));
#359=DIRECTION('ref_axis',(0.984814475429702,0.173610048626573,0.));
#360=DIRECTION('center_axis',(-0.173610048626573,0.984814475429702,0.));
#361=DIRECTION('ref_axis',(0.984814475429702,0.173610048626573,0.));
#362=DIRECTION('center_axis',(-0.173610048626573,0.984814475429702,0.));
#363=DIRECTION('ref_axis',(0.984814475429702,0.173610048626573,0.));
#364=DIRECTION('',(-0.173610048626573,0.984814475429702,0.));
#365=DIRECTION('center_axis',(0.173610048626573,-0.984814475429702,0.));
#366=DIRECTION('ref_axis',(0.984814475429702,0.173610048626573,0.));
#367=DIRECTION('center_axis',(-0.173610048626573,0.984814475429702,0.));
#368=DIRECTION('ref_axis',(0.984814475429702,0.173610048626573,0.));
#369=DIRECTION('center_axis',(-0.173610048626573,0.984814475429702,0.));
#370=DIRECTION('ref_axis',(0.984814475429702,0.173610048626573,0.));
#371=DIRECTION('',(-0.173610048626573,0.984814475429702,0.));
#372=DIRECTION('center_axis',(0.173610048626573,-0.984814475429702,0.));
#373=DIRECTION('ref_axis',(0.984814475429702,0.173610048626573,0.));
#374=DIRECTION('center_axis',(-0.173610048626573,0.984814475429702,0.));
#375=DIRECTION('ref_axis',(0.984814475429702,0.173610048626573,0.));
#376=DIRECTION('center_axis',(-0.173610048626573,0.984814475429702,0.));
#377=DIRECTION('ref_axis',(0.984814475429702,0.173610048626573,0.));
#378=DIRECTION('',(-0.173610048626573,0.984814475429702,0.));
#379=DIRECTION('center_axis',(0.173610048626573,-0.984814475429702,0.));
#380=DIRECTION('ref_axis',(0.984814475429702,0.173610048626573,0.));
#381=DIRECTION('center_axis',(-0.173610048626573,0.984814475429702,0.));
#382=DIRECTION('ref_axis',(0.984814475429702,0.173610048626573,0.));
#383=DIRECTION('center_axis',(-0.173610048626573,0.984814475429702,0.));
#384=DIRECTION('ref_axis',(0.984814475429702,0.173610048626573,0.));
#385=DIRECTION('',(-0.173610048626573,0.984814475429702,0.));
#386=DIRECTION('center_axis',(0.173610048626573,-0.984814475429702,0.));
#387=DIRECTION('ref_axis',(0.984814475429702,0.173610048626573,0.));
#388=DIRECTION('center_axis',(-0.173610048626573,0.984814475429702,0.));
#389=DIRECTION('ref_axis',(0.984814475429702,0.173610048626573,0.));
#390=DIRECTION('center_axis',(-0.173610048626573,0.984814475429702,0.));
#391=DIRECTION('ref_axis',(0.984814475429702,0.173610048626573,0.));
#392=DIRECTION('',(-0.173610048626573,0.984814475429702,0.));
#393=DIRECTION('center_axis',(0.173610048626573,-0.984814475429702,0.));
#394=DIRECTION('ref_axis',(0.984814475429702,0.173610048626573,0.));
#395=DIRECTION('center_axis',(-0.173610048626573,0.984814475429702,0.));
#396=DIRECTION('ref_axis',(0.984814475429702,0.173610048626573,0.));
#397=DIRECTION('center_axis',(-0.173610048626573,0.984814475429702,0.));
#398=DIRECTION('ref_axis',(0.984814475429702,0.173610048626573,0.));
#399=DIRECTION('',(-0.173610048626573,0.984814475429702,0.));
#400=DIRECTION('center_axis',(0.173610048626573,-0.984814475429702,0.));
#401=DIRECTION('ref_axis',(0.984814475429702,0.173610048626573,0.));
#402=DIRECTION('center_axis',(0.,0.,-1.));
#403=DIRECTION('ref_axis',(-1.,0.,0.));
#404=DIRECTION('',(0.984814475429702,0.173610048626573,0.));
#405=DIRECTION('',(0.173610048626574,-0.984814475429702,0.));
#406=DIRECTION('',(-0.984814475429702,-0.173610048626573,0.));
#407=DIRECTION('',(-0.173610048626574,0.984814475429702,0.));
#408=DIRECTION('center_axis',(0.984814475429702,0.173610048626574,0.));
#409=DIRECTION('ref_axis',(-0.173610048626574,0.984814475429702,0.));
#410=DIRECTION('',(0.,0.,-1.));
#411=DIRECTION('',(-0.173610048626574,0.984814475429702,0.));
#412=DIRECTION('',(0.,0.,1.));
#413=DIRECTION('center_axis',(0.173610048626573,-0.984814475429702,0.));
#414=DIRECTION('ref_axis',(0.984814475429702,0.173610048626573,0.));
#415=DIRECTION('',(0.984814475429702,0.173610048626573,0.));
#416=DIRECTION('',(0.,0.,1.));
#417=DIRECTION('center_axis',(-0.984814475429702,-0.173610048626574,0.));
#418=DIRECTION('ref_axis',(0.173610048626574,-0.984814475429702,0.));
#419=DIRECTION('',(0.173610048626574,-0.984814475429702,0.));
#420=DIRECTION('',(0.,0.,1.));
#421=DIRECTION('center_axis',(-0.173610048626573,0.984814475429702,0.));
#422=DIRECTION('ref_axis',(-0.984814475429702,-0.173610048626573,0.));
#423=DIRECTION('',(-0.984814475429702,-0.173610048626573,0.));
#424=DIRECTION('center_axis',(0.,0.,1.));
#425=DIRECTION('ref_axis',(1.,0.,0.));
#426=CARTESIAN_POINT('',(0.,0.,0.));
#427=CARTESIAN_POINT('Origin',(9.55839562575826,-90.0334152730959,40.5000000000011));
#428=CARTESIAN_POINT('',(5.61913772403946,-90.7278554676022,40.5000000000011));
#429=CARTESIAN_POINT('Origin',(9.55839562575826,-90.0334152730959,40.5000000000011));
#430=CARTESIAN_POINT('',(5.44552767541288,-89.7430409921725,40.5000000000011));
#431=CARTESIAN_POINT('',(5.61913772403945,-90.7278554676022,40.5000000000011));
#432=CARTESIAN_POINT('Origin',(9.38478557713169,-89.0486007976662,40.5000000000011));
#433=CARTESIAN_POINT('Origin',(24.2018072528851,-87.4519712873795,-46.6468636730881));
#434=CARTESIAN_POINT('',(22.7245855397406,-87.7123863603194,-46.6468636730881));
#435=CARTESIAN_POINT('Origin',(24.2018072528851,-87.4519712873795,-46.6468636730881));
#436=CARTESIAN_POINT('',(22.550975491114,-86.7275718848897,-46.6468636730881));
#437=CARTESIAN_POINT('',(22.7245855397406,-87.7123863603194,-46.6468636730881));
#438=CARTESIAN_POINT('Origin',(24.0281972042586,-86.4671568119498,-46.6468636730881));
#439=CARTESIAN_POINT('Origin',(14.7561501769165,-89.1171184041025,46.6468636730881));
#440=CARTESIAN_POINT('',(13.278928463772,-89.3775334770424,46.6468636730881));
#441=CARTESIAN_POINT('Origin',(14.7561501769166,-89.1171184041026,46.6468636730881));
#442=CARTESIAN_POINT('',(13.1053184151454,-88.3927190016127,46.6468636730881));
#443=CARTESIAN_POINT('',(13.278928463772,-89.3775334770424,46.6468636730881));
#444=CARTESIAN_POINT('Origin',(14.58254012829,-88.1323039286728,46.6468636730881));
#445=CARTESIAN_POINT('Origin',(19.9539047280748,-88.2008215351092,-40.5000000000011));
#446=CARTESIAN_POINT('',(16.014646826356,-88.8952617296155,-40.5000000000011));
#447=CARTESIAN_POINT('Origin',(19.9539047280748,-88.2008215351092,-40.5000000000011));
#448=CARTESIAN_POINT('',(15.8410367777295,-87.9104472541858,-40.5000000000011));
#449=CARTESIAN_POINT('',(16.014646826356,-88.8952617296155,-40.5000000000011));
#450=CARTESIAN_POINT('Origin',(19.7802946794483,-87.2160070596795,-40.5000000000011));
#451=CARTESIAN_POINT('Origin',(19.9539047280748,-88.2008215351092,40.5000000000011));
#452=CARTESIAN_POINT('',(16.014646826356,-88.8952617296155,40.5000000000011));
#453=CARTESIAN_POINT('Origin',(19.9539047280748,-88.2008215351092,40.5000000000011));
#454=CARTESIAN_POINT('',(15.8410367777295,-87.9104472541858,40.5000000000011));
#455=CARTESIAN_POINT('',(16.014646826356,-88.8952617296155,40.5000000000011));
#456=CARTESIAN_POINT('Origin',(19.7802946794483,-87.2160070596795,40.5000000000011));
#457=CARTESIAN_POINT('Origin',(14.7561501769165,-89.1171184041025,-46.6468636730881));
#458=CARTESIAN_POINT('',(13.278928463772,-89.3775334770424,-46.6468636730881));
#459=CARTESIAN_POINT('Origin',(14.7561501769166,-89.1171184041026,-46.6468636730881));
#460=CARTESIAN_POINT('',(13.1053184151454,-88.3927190016127,-46.6468636730881));
#461=CARTESIAN_POINT('',(13.278928463772,-89.3775334770424,-46.6468636730881));
#462=CARTESIAN_POINT('Origin',(14.58254012829,-88.1323039286728,-46.6468636730881));
#463=CARTESIAN_POINT('Origin',(24.2018072528851,-87.4519712873795,46.6468636730881));
#464=CARTESIAN_POINT('',(22.7245855397406,-87.7123863603194,46.6468636730881));
#465=CARTESIAN_POINT('Origin',(24.2018072528851,-87.4519712873795,46.6468636730881));
#466=CARTESIAN_POINT('',(22.550975491114,-86.7275718848897,46.6468636730881));
#467=CARTESIAN_POINT('',(22.7245855397406,-87.7123863603194,46.6468636730881));
#468=CARTESIAN_POINT('Origin',(24.0281972042586,-86.4671568119498,46.6468636730881));
#469=CARTESIAN_POINT('Origin',(9.55839562575826,-90.0334152730959,-40.5000000000011));
#470=CARTESIAN_POINT('',(5.61913772403946,-90.7278554676022,-40.5000000000011));
#471=CARTESIAN_POINT('Origin',(9.55839562575826,-90.0334152730959,-40.5000000000011));
#472=CARTESIAN_POINT('',(5.44552767541288,-89.7430409921725,-40.5000000000011));
#473=CARTESIAN_POINT('',(5.61913772403945,-90.7278554676022,-40.5000000000011));
#474=CARTESIAN_POINT('Origin',(9.38478557713169,-89.0486007976662,-40.5000000000011));
#475=CARTESIAN_POINT('Origin',(15.7999999999998,-88.4253913473418,-50.));
#476=CARTESIAN_POINT('',(2.1999999999997,-90.3151855245744,-50.));
#477=CARTESIAN_POINT('',(29.2263899513732,-85.5507826946796,-50.));
#478=CARTESIAN_POINT('',(29.2263899513732,-85.5507826946796,-50.));
#479=CARTESIAN_POINT('',(29.3999999999998,-86.5355971701093,-50.));
#480=CARTESIAN_POINT('',(29.3999999999998,-86.5355971701093,-50.));
#481=CARTESIAN_POINT('',(2.37361004862628,-91.3000000000041,-50.));
#482=CARTESIAN_POINT('',(2.37361004862628,-91.3000000000041,-50.));
#483=CARTESIAN_POINT('',(2.19999999999971,-90.3151855245744,-50.));
#484=CARTESIAN_POINT('Origin',(29.3999999999998,-86.5355971701093,0.));
#485=CARTESIAN_POINT('',(29.2263899513732,-85.5507826946796,50.));
#486=CARTESIAN_POINT('',(29.2263899513732,-85.5507826946796,0.));
#487=CARTESIAN_POINT('',(29.3999999999998,-86.5355971701093,50.));
#488=CARTESIAN_POINT('',(29.3999999999998,-86.5355971701093,50.));
#489=CARTESIAN_POINT('',(29.3999999999998,-86.5355971701093,0.));
#490=CARTESIAN_POINT('Origin',(2.37361004862628,-91.3000000000041,0.));
#491=CARTESIAN_POINT('',(2.37361004862628,-91.3000000000041,50.));
#492=CARTESIAN_POINT('',(2.37361004862628,-91.3000000000041,50.));
#493=CARTESIAN_POINT('',(2.37361004862628,-91.3000000000041,0.));
#494=CARTESIAN_POINT('Origin',(2.19999999999971,-90.3151855245744,0.));
#495=CARTESIAN_POINT('',(2.1999999999997,-90.3151855245744,50.));
#496=CARTESIAN_POINT('',(2.19999999999971,-90.3151855245744,50.));
#497=CARTESIAN_POINT('',(2.19999999999971,-90.3151855245744,0.));
#498=CARTESIAN_POINT('Origin',(29.2263899513732,-85.5507826946796,0.));
#499=CARTESIAN_POINT('',(29.2263899513732,-85.5507826946796,50.));
#500=CARTESIAN_POINT('Origin',(15.7999999999998,-88.4253913473418,50.));
#501=UNCERTAINTY_MEASURE_WITH_UNIT(LENGTH_MEASURE(0.01),#505,
'DISTANCE_ACCURACY_VALUE',
'Maximum model space distance between geometric entities at asserted c
onnectivities');
#502=UNCERTAINTY_MEASURE_WITH_UNIT(LENGTH_MEASURE(0.01),#505,
'DISTANCE_ACCURACY_VALUE',
'Maximum model space distance between geometric entities at asserted c
onnectivities');
#503=(
GEOMETRIC_REPRESENTATION_CONTEXT(3)
GLOBAL_UNCERTAINTY_ASSIGNED_CONTEXT((#501))
GLOBAL_UNIT_ASSIGNED_CONTEXT((#505,#507,#508))
REPRESENTATION_CONTEXT('','3D')
);
#504=(
GEOMETRIC_REPRESENTATION_CONTEXT(3)
GLOBAL_UNCERTAINTY_ASSIGNED_CONTEXT((#502))
GLOBAL_UNIT_ASSIGNED_CONTEXT((#505,#507,#508))
REPRESENTATION_CONTEXT('','3D')
);
#505=(
LENGTH_UNIT()
NAMED_UNIT(*)
SI_UNIT(.MILLI.,.METRE.)
);
#506=(
LENGTH_UNIT()
NAMED_UNIT(*)
SI_UNIT(.CENTI.,.METRE.)
);
#507=(
NAMED_UNIT(*)
PLANE_ANGLE_UNIT()
SI_UNIT($,.RADIAN.)
);
#508=(
NAMED_UNIT(*)
SI_UNIT($,.STERADIAN.)
SOLID_ANGLE_UNIT()
);
#509=SHAPE_DEFINITION_REPRESENTATION(#510,#511);
#510=PRODUCT_DEFINITION_SHAPE('',$,#513);
#511=SHAPE_REPRESENTATION('',(#313),#503);
#512=PRODUCT_DEFINITION_CONTEXT('part definition',#517,'design');
#513=PRODUCT_DEFINITION('SteelFront','SteelFront',#514,#512);
#514=PRODUCT_DEFINITION_FORMATION('',$,#519);
#515=PRODUCT_RELATED_PRODUCT_CATEGORY('SteelFront','SteelFront',(#519));
#516=APPLICATION_PROTOCOL_DEFINITION('international standard',
'automotive_design',2009,#517);
#517=APPLICATION_CONTEXT(
'Core Data for Automotive Mechanical Design Process');
#518=PRODUCT_CONTEXT('part definition',#517,'mechanical');
#519=PRODUCT('SteelFront','SteelFront',$,(#518));
#520=PRESENTATION_STYLE_ASSIGNMENT((#521));
#521=SURFACE_STYLE_USAGE(.BOTH.,#524);
#522=SURFACE_STYLE_RENDERING_WITH_PROPERTIES($,#528,(#523));
#523=SURFACE_STYLE_TRANSPARENT(0.);
#524=SURFACE_SIDE_STYLE('',(#525,#522));
#525=SURFACE_STYLE_FILL_AREA(#526);
#526=FILL_AREA_STYLE('',(#527));
#527=FILL_AREA_STYLE_COLOUR('',#528);
#528=COLOUR_RGB('',0.611764705882353,0.603921568627451,0.596078431372549);
ENDSEC;
END-ISO-10303-21;
