ISO-10303-21;
HEADER;
/* Generated by software containing ST-Developer
 * from STEP Tools, Inc. (www.steptools.com) 
 */

FILE_DESCRIPTION(
/* description */ (''),
/* implementation_level */ '2;1');

FILE_NAME(
/* name */ 'FLAT_PLOW.stp',
/* time_stamp */ '2026-07-23T20:49:53+02:00',
/* author */ ('szymo'),
/* organization */ (''),
/* preprocessor_version */ 'ST-DEVELOPER v20.1',
/* originating_system */ 'Autodesk Inventor 2026',
/* authorisation */ '');

FILE_SCHEMA (('AUTOMOTIVE_DESIGN { 1 0 10303 214 3 1 1 }'));
ENDSEC;

DATA;
#10=MECHANICAL_DESIGN_GEOMETRIC_PRESENTATION_REPRESENTATION('',(#13),#978);
#11=SHAPE_REPRESENTATION_RELATIONSHIP('SRR','None',#985,#12);
#12=ADVANCED_BREP_SHAPE_REPRESENTATION('',(#14),#977);
#13=STYLED_ITEM('',(#994),#14);
#14=MANIFOLD_SOLID_BREP('Bry\X2\0142\X0\a1',#568);
#15=CONICAL_SURFACE('',#628,2.425,0.785398163397448);
#16=CONICAL_SURFACE('',#631,2.425,0.785398163397448);
#17=CONICAL_SURFACE('',#634,2.425,0.785398163397448);
#18=CONICAL_SURFACE('',#637,2.425,0.785398163397448);
#19=CONICAL_SURFACE('',#640,2.425,0.785398163397448);
#20=CONICAL_SURFACE('',#643,2.425,0.785398163397448);
#21=CONICAL_SURFACE('',#646,2.425,0.785398163397448);
#22=FACE_BOUND('',#81,.T.);
#23=FACE_BOUND('',#82,.T.);
#24=FACE_BOUND('',#83,.T.);
#25=FACE_BOUND('',#84,.T.);
#26=FACE_BOUND('',#85,.T.);
#27=FACE_BOUND('',#86,.T.);
#28=FACE_BOUND('',#87,.T.);
#29=FACE_BOUND('',#90,.T.);
#30=FACE_BOUND('',#91,.T.);
#31=FACE_BOUND('',#92,.T.);
#32=FACE_BOUND('',#93,.T.);
#33=FACE_BOUND('',#94,.T.);
#34=FACE_BOUND('',#95,.T.);
#35=FACE_BOUND('',#96,.T.);
#36=PLANE('',#594);
#37=PLANE('',#595);
#38=PLANE('',#608);
#39=PLANE('',#618);
#40=PLANE('',#619);
#41=PLANE('',#620);
#42=PLANE('',#621);
#43=PLANE('',#623);
#44=PLANE('',#625);
#45=PLANE('',#626);
#46=PLANE('',#627);
#47=PLANE('',#649);
#48=FACE_OUTER_BOUND('',#78,.T.);
#49=FACE_OUTER_BOUND('',#79,.T.);
#50=FACE_OUTER_BOUND('',#80,.T.);
#51=FACE_OUTER_BOUND('',#88,.T.);
#52=FACE_OUTER_BOUND('',#89,.T.);
#53=FACE_OUTER_BOUND('',#97,.T.);
#54=FACE_OUTER_BOUND('',#98,.T.);
#55=FACE_OUTER_BOUND('',#99,.T.);
#56=FACE_OUTER_BOUND('',#100,.T.);
#57=FACE_OUTER_BOUND('',#101,.T.);
#58=FACE_OUTER_BOUND('',#102,.T.);
#59=FACE_OUTER_BOUND('',#103,.T.);
#60=FACE_OUTER_BOUND('',#104,.T.);
#61=FACE_OUTER_BOUND('',#105,.T.);
#62=FACE_OUTER_BOUND('',#106,.T.);
#63=FACE_OUTER_BOUND('',#107,.T.);
#64=FACE_OUTER_BOUND('',#108,.T.);
#65=FACE_OUTER_BOUND('',#109,.T.);
#66=FACE_OUTER_BOUND('',#110,.T.);
#67=FACE_OUTER_BOUND('',#111,.T.);
#68=FACE_OUTER_BOUND('',#112,.T.);
#69=FACE_OUTER_BOUND('',#113,.T.);
#70=FACE_OUTER_BOUND('',#114,.T.);
#71=FACE_OUTER_BOUND('',#115,.T.);
#72=FACE_OUTER_BOUND('',#116,.T.);
#73=FACE_OUTER_BOUND('',#117,.T.);
#74=FACE_OUTER_BOUND('',#118,.T.);
#75=FACE_OUTER_BOUND('',#119,.T.);
#76=FACE_OUTER_BOUND('',#120,.T.);
#77=FACE_OUTER_BOUND('',#121,.T.);
#78=EDGE_LOOP('',(#373,#374,#375,#376));
#79=EDGE_LOOP('',(#377,#378,#379,#380));
#80=EDGE_LOOP('',(#381,#382,#383,#384,#385,#386,#387,#388,#389,#390,#391,
#392));
#81=EDGE_LOOP('',(#393));
#82=EDGE_LOOP('',(#394));
#83=EDGE_LOOP('',(#395));
#84=EDGE_LOOP('',(#396));
#85=EDGE_LOOP('',(#397));
#86=EDGE_LOOP('',(#398));
#87=EDGE_LOOP('',(#399));
#88=EDGE_LOOP('',(#400,#401,#402,#403));
#89=EDGE_LOOP('',(#404,#405,#406,#407,#408,#409,#410,#411,#412,#413,#414,
#415));
#90=EDGE_LOOP('',(#416));
#91=EDGE_LOOP('',(#417));
#92=EDGE_LOOP('',(#418));
#93=EDGE_LOOP('',(#419));
#94=EDGE_LOOP('',(#420));
#95=EDGE_LOOP('',(#421));
#96=EDGE_LOOP('',(#422));
#97=EDGE_LOOP('',(#423,#424,#425,#426,#427,#428));
#98=EDGE_LOOP('',(#429,#430,#431,#432));
#99=EDGE_LOOP('',(#433,#434,#435,#436));
#100=EDGE_LOOP('',(#437,#438,#439,#440));
#101=EDGE_LOOP('',(#441,#442,#443,#444));
#102=EDGE_LOOP('',(#445,#446,#447,#448));
#103=EDGE_LOOP('',(#449,#450,#451,#452));
#104=EDGE_LOOP('',(#453,#454,#455,#456));
#105=EDGE_LOOP('',(#457,#458,#459,#460));
#106=EDGE_LOOP('',(#461,#462,#463,#464));
#107=EDGE_LOOP('',(#465,#466,#467,#468));
#108=EDGE_LOOP('',(#469,#470,#471,#472));
#109=EDGE_LOOP('',(#473,#474,#475,#476));
#110=EDGE_LOOP('',(#477,#478,#479,#480));
#111=EDGE_LOOP('',(#481,#482,#483,#484));
#112=EDGE_LOOP('',(#485,#486,#487,#488));
#113=EDGE_LOOP('',(#489,#490,#491,#492));
#114=EDGE_LOOP('',(#493,#494,#495,#496));
#115=EDGE_LOOP('',(#497,#498,#499,#500));
#116=EDGE_LOOP('',(#501,#502,#503,#504));
#117=EDGE_LOOP('',(#505,#506,#507,#508));
#118=EDGE_LOOP('',(#509,#510,#511,#512));
#119=EDGE_LOOP('',(#513,#514,#515,#516));
#120=EDGE_LOOP('',(#517,#518,#519,#520));
#121=EDGE_LOOP('',(#521,#522,#523,#524,#525,#526));
#122=LINE('',#824,#170);
#123=LINE('',#827,#171);
#124=LINE('',#830,#172);
#125=LINE('',#832,#173);
#126=LINE('',#833,#174);
#127=LINE('',#836,#175);
#128=LINE('',#840,#176);
#129=LINE('',#842,#177);
#130=LINE('',#844,#178);
#131=LINE('',#846,#179);
#132=LINE('',#848,#180);
#133=LINE('',#852,#181);
#134=LINE('',#871,#182);
#135=LINE('',#874,#183);
#136=LINE('',#878,#184);
#137=LINE('',#880,#185);
#138=LINE('',#882,#186);
#139=LINE('',#884,#187);
#140=LINE('',#886,#188);
#141=LINE('',#889,#189);
#142=LINE('',#906,#190);
#143=LINE('',#908,#191);
#144=LINE('',#909,#192);
#145=LINE('',#910,#193);
#146=LINE('',#914,#194);
#147=LINE('',#915,#195);
#148=LINE('',#916,#196);
#149=LINE('',#918,#197);
#150=LINE('',#920,#198);
#151=LINE('',#922,#199);
#152=LINE('',#923,#200);
#153=LINE('',#926,#201);
#154=LINE('',#927,#202);
#155=LINE('',#931,#203);
#156=LINE('',#934,#204);
#157=LINE('',#937,#205);
#158=LINE('',#940,#206);
#159=LINE('',#943,#207);
#160=LINE('',#946,#208);
#161=LINE('',#949,#209);
#162=LINE('',#952,#210);
#163=LINE('',#955,#211);
#164=LINE('',#958,#212);
#165=LINE('',#961,#213);
#166=LINE('',#964,#214);
#167=LINE('',#967,#215);
#168=LINE('',#970,#216);
#169=LINE('',#973,#217);
#170=VECTOR('',#656,2.);
#171=VECTOR('',#659,2.);
#172=VECTOR('',#662,10.);
#173=VECTOR('',#663,2.);
#174=VECTOR('',#664,10.);
#175=VECTOR('',#667,10.);
#176=VECTOR('',#670,10.);
#177=VECTOR('',#671,10.);
#178=VECTOR('',#672,10.);
#179=VECTOR('',#673,10.);
#180=VECTOR('',#674,10.);
#181=VECTOR('',#677,10.);
#182=VECTOR('',#698,2.);
#183=VECTOR('',#701,10.);
#184=VECTOR('',#704,10.);
#185=VECTOR('',#705,10.);
#186=VECTOR('',#706,10.);
#187=VECTOR('',#707,10.);
#188=VECTOR('',#708,10.);
#189=VECTOR('',#711,10.);
#190=VECTOR('',#728,10.);
#191=VECTOR('',#729,10.);
#192=VECTOR('',#730,10.);
#193=VECTOR('',#731,10.);
#194=VECTOR('',#734,10.);
#195=VECTOR('',#735,10.);
#196=VECTOR('',#736,10.);
#197=VECTOR('',#739,10.);
#198=VECTOR('',#742,10.);
#199=VECTOR('',#745,10.);
#200=VECTOR('',#746,10.);
#201=VECTOR('',#751,10.);
#202=VECTOR('',#752,10.);
#203=VECTOR('',#759,10.);
#204=VECTOR('',#762,2.425);
#205=VECTOR('',#767,1.6);
#206=VECTOR('',#770,2.425);
#207=VECTOR('',#775,1.6);
#208=VECTOR('',#778,2.425);
#209=VECTOR('',#783,1.6);
#210=VECTOR('',#786,2.425);
#211=VECTOR('',#791,1.6);
#212=VECTOR('',#794,2.425);
#213=VECTOR('',#799,1.6);
#214=VECTOR('',#802,2.425);
#215=VECTOR('',#807,1.6);
#216=VECTOR('',#810,2.425);
#217=VECTOR('',#815,1.6);
#218=CIRCLE('',#592,2.);
#219=CIRCLE('',#593,2.);
#220=CIRCLE('',#596,1.);
#221=CIRCLE('',#597,1.);
#222=CIRCLE('',#598,2.);
#223=CIRCLE('',#599,1.6);
#224=CIRCLE('',#600,1.6);
#225=CIRCLE('',#601,1.6);
#226=CIRCLE('',#602,1.6);
#227=CIRCLE('',#603,1.6);
#228=CIRCLE('',#604,1.6);
#229=CIRCLE('',#605,1.6);
#230=CIRCLE('',#607,2.);
#231=CIRCLE('',#609,1.);
#232=CIRCLE('',#610,1.);
#233=CIRCLE('',#611,3.25);
#234=CIRCLE('',#612,3.25);
#235=CIRCLE('',#613,3.25);
#236=CIRCLE('',#614,3.25);
#237=CIRCLE('',#615,3.25);
#238=CIRCLE('',#616,3.25);
#239=CIRCLE('',#617,3.25);
#240=CIRCLE('',#629,1.6);
#241=CIRCLE('',#632,1.6);
#242=CIRCLE('',#635,1.6);
#243=CIRCLE('',#638,1.6);
#244=CIRCLE('',#641,1.6);
#245=CIRCLE('',#644,1.6);
#246=CIRCLE('',#647,1.6);
#247=VERTEX_POINT('',#820);
#248=VERTEX_POINT('',#821);
#249=VERTEX_POINT('',#823);
#250=VERTEX_POINT('',#825);
#251=VERTEX_POINT('',#829);
#252=VERTEX_POINT('',#831);
#253=VERTEX_POINT('',#835);
#254=VERTEX_POINT('',#837);
#255=VERTEX_POINT('',#839);
#256=VERTEX_POINT('',#841);
#257=VERTEX_POINT('',#843);
#258=VERTEX_POINT('',#845);
#259=VERTEX_POINT('',#847);
#260=VERTEX_POINT('',#849);
#261=VERTEX_POINT('',#851);
#262=VERTEX_POINT('',#854);
#263=VERTEX_POINT('',#856);
#264=VERTEX_POINT('',#858);
#265=VERTEX_POINT('',#860);
#266=VERTEX_POINT('',#862);
#267=VERTEX_POINT('',#864);
#268=VERTEX_POINT('',#866);
#269=VERTEX_POINT('',#869);
#270=VERTEX_POINT('',#873);
#271=VERTEX_POINT('',#875);
#272=VERTEX_POINT('',#877);
#273=VERTEX_POINT('',#879);
#274=VERTEX_POINT('',#881);
#275=VERTEX_POINT('',#883);
#276=VERTEX_POINT('',#885);
#277=VERTEX_POINT('',#887);
#278=VERTEX_POINT('',#890);
#279=VERTEX_POINT('',#892);
#280=VERTEX_POINT('',#894);
#281=VERTEX_POINT('',#896);
#282=VERTEX_POINT('',#898);
#283=VERTEX_POINT('',#900);
#284=VERTEX_POINT('',#902);
#285=VERTEX_POINT('',#905);
#286=VERTEX_POINT('',#907);
#287=VERTEX_POINT('',#912);
#288=VERTEX_POINT('',#913);
#289=VERTEX_POINT('',#933);
#290=VERTEX_POINT('',#939);
#291=VERTEX_POINT('',#945);
#292=VERTEX_POINT('',#951);
#293=VERTEX_POINT('',#957);
#294=VERTEX_POINT('',#963);
#295=VERTEX_POINT('',#969);
#296=EDGE_CURVE('',#247,#248,#218,.T.);
#297=EDGE_CURVE('',#248,#249,#122,.T.);
#298=EDGE_CURVE('',#249,#250,#219,.T.);
#299=EDGE_CURVE('',#250,#247,#123,.T.);
#300=EDGE_CURVE('',#251,#248,#124,.T.);
#301=EDGE_CURVE('',#252,#251,#125,.T.);
#302=EDGE_CURVE('',#249,#252,#126,.T.);
#303=EDGE_CURVE('',#247,#253,#127,.T.);
#304=EDGE_CURVE('',#254,#253,#220,.T.);
#305=EDGE_CURVE('',#254,#255,#128,.T.);
#306=EDGE_CURVE('',#256,#255,#129,.T.);
#307=EDGE_CURVE('',#257,#256,#130,.T.);
#308=EDGE_CURVE('',#258,#257,#131,.T.);
#309=EDGE_CURVE('',#258,#259,#132,.T.);
#310=EDGE_CURVE('',#260,#259,#221,.T.);
#311=EDGE_CURVE('',#260,#261,#133,.T.);
#312=EDGE_CURVE('',#251,#261,#222,.T.);
#313=EDGE_CURVE('',#262,#262,#223,.T.);
#314=EDGE_CURVE('',#263,#263,#224,.T.);
#315=EDGE_CURVE('',#264,#264,#225,.T.);
#316=EDGE_CURVE('',#265,#265,#226,.T.);
#317=EDGE_CURVE('',#266,#266,#227,.T.);
#318=EDGE_CURVE('',#267,#267,#228,.T.);
#319=EDGE_CURVE('',#268,#268,#229,.T.);
#320=EDGE_CURVE('',#269,#252,#230,.T.);
#321=EDGE_CURVE('',#261,#269,#134,.T.);
#322=EDGE_CURVE('',#269,#270,#135,.T.);
#323=EDGE_CURVE('',#271,#270,#231,.T.);
#324=EDGE_CURVE('',#271,#272,#136,.T.);
#325=EDGE_CURVE('',#273,#272,#137,.T.);
#326=EDGE_CURVE('',#273,#274,#138,.T.);
#327=EDGE_CURVE('',#275,#274,#139,.T.);
#328=EDGE_CURVE('',#275,#276,#140,.T.);
#329=EDGE_CURVE('',#277,#276,#232,.T.);
#330=EDGE_CURVE('',#277,#250,#141,.T.);
#331=EDGE_CURVE('',#278,#278,#233,.T.);
#332=EDGE_CURVE('',#279,#279,#234,.T.);
#333=EDGE_CURVE('',#280,#280,#235,.T.);
#334=EDGE_CURVE('',#281,#281,#236,.T.);
#335=EDGE_CURVE('',#282,#282,#237,.T.);
#336=EDGE_CURVE('',#283,#283,#238,.T.);
#337=EDGE_CURVE('',#284,#284,#239,.T.);
#338=EDGE_CURVE('',#257,#285,#142,.T.);
#339=EDGE_CURVE('',#285,#286,#143,.T.);
#340=EDGE_CURVE('',#286,#273,#144,.T.);
#341=EDGE_CURVE('',#272,#258,#145,.T.);
#342=EDGE_CURVE('',#287,#288,#146,.T.);
#343=EDGE_CURVE('',#286,#288,#147,.T.);
#344=EDGE_CURVE('',#285,#287,#148,.T.);
#345=EDGE_CURVE('',#288,#274,#149,.T.);
#346=EDGE_CURVE('',#287,#256,#150,.T.);
#347=EDGE_CURVE('',#259,#271,#151,.T.);
#348=EDGE_CURVE('',#270,#260,#152,.T.);
#349=EDGE_CURVE('',#253,#277,#153,.T.);
#350=EDGE_CURVE('',#276,#254,#154,.T.);
#351=EDGE_CURVE('',#255,#275,#155,.T.);
#352=EDGE_CURVE('',#278,#289,#156,.T.);
#353=EDGE_CURVE('',#289,#289,#240,.T.);
#354=EDGE_CURVE('',#289,#268,#157,.T.);
#355=EDGE_CURVE('',#279,#290,#158,.T.);
#356=EDGE_CURVE('',#290,#290,#241,.T.);
#357=EDGE_CURVE('',#290,#267,#159,.T.);
#358=EDGE_CURVE('',#280,#291,#160,.T.);
#359=EDGE_CURVE('',#291,#291,#242,.T.);
#360=EDGE_CURVE('',#291,#266,#161,.T.);
#361=EDGE_CURVE('',#281,#292,#162,.T.);
#362=EDGE_CURVE('',#292,#292,#243,.T.);
#363=EDGE_CURVE('',#292,#265,#163,.T.);
#364=EDGE_CURVE('',#282,#293,#164,.T.);
#365=EDGE_CURVE('',#293,#293,#244,.T.);
#366=EDGE_CURVE('',#293,#264,#165,.T.);
#367=EDGE_CURVE('',#283,#294,#166,.T.);
#368=EDGE_CURVE('',#294,#294,#245,.T.);
#369=EDGE_CURVE('',#294,#263,#167,.T.);
#370=EDGE_CURVE('',#284,#295,#168,.T.);
#371=EDGE_CURVE('',#295,#295,#246,.T.);
#372=EDGE_CURVE('',#295,#262,#169,.T.);
#373=ORIENTED_EDGE('',*,*,#296,.T.);
#374=ORIENTED_EDGE('',*,*,#297,.T.);
#375=ORIENTED_EDGE('',*,*,#298,.T.);
#376=ORIENTED_EDGE('',*,*,#299,.T.);
#377=ORIENTED_EDGE('',*,*,#297,.F.);
#378=ORIENTED_EDGE('',*,*,#300,.F.);
#379=ORIENTED_EDGE('',*,*,#301,.F.);
#380=ORIENTED_EDGE('',*,*,#302,.F.);
#381=ORIENTED_EDGE('',*,*,#296,.F.);
#382=ORIENTED_EDGE('',*,*,#303,.T.);
#383=ORIENTED_EDGE('',*,*,#304,.F.);
#384=ORIENTED_EDGE('',*,*,#305,.T.);
#385=ORIENTED_EDGE('',*,*,#306,.F.);
#386=ORIENTED_EDGE('',*,*,#307,.F.);
#387=ORIENTED_EDGE('',*,*,#308,.F.);
#388=ORIENTED_EDGE('',*,*,#309,.T.);
#389=ORIENTED_EDGE('',*,*,#310,.F.);
#390=ORIENTED_EDGE('',*,*,#311,.T.);
#391=ORIENTED_EDGE('',*,*,#312,.F.);
#392=ORIENTED_EDGE('',*,*,#300,.T.);
#393=ORIENTED_EDGE('',*,*,#313,.T.);
#394=ORIENTED_EDGE('',*,*,#314,.T.);
#395=ORIENTED_EDGE('',*,*,#315,.T.);
#396=ORIENTED_EDGE('',*,*,#316,.T.);
#397=ORIENTED_EDGE('',*,*,#317,.T.);
#398=ORIENTED_EDGE('',*,*,#318,.T.);
#399=ORIENTED_EDGE('',*,*,#319,.T.);
#400=ORIENTED_EDGE('',*,*,#320,.T.);
#401=ORIENTED_EDGE('',*,*,#301,.T.);
#402=ORIENTED_EDGE('',*,*,#312,.T.);
#403=ORIENTED_EDGE('',*,*,#321,.T.);
#404=ORIENTED_EDGE('',*,*,#298,.F.);
#405=ORIENTED_EDGE('',*,*,#302,.T.);
#406=ORIENTED_EDGE('',*,*,#320,.F.);
#407=ORIENTED_EDGE('',*,*,#322,.T.);
#408=ORIENTED_EDGE('',*,*,#323,.F.);
#409=ORIENTED_EDGE('',*,*,#324,.T.);
#410=ORIENTED_EDGE('',*,*,#325,.F.);
#411=ORIENTED_EDGE('',*,*,#326,.T.);
#412=ORIENTED_EDGE('',*,*,#327,.F.);
#413=ORIENTED_EDGE('',*,*,#328,.T.);
#414=ORIENTED_EDGE('',*,*,#329,.F.);
#415=ORIENTED_EDGE('',*,*,#330,.T.);
#416=ORIENTED_EDGE('',*,*,#331,.T.);
#417=ORIENTED_EDGE('',*,*,#332,.T.);
#418=ORIENTED_EDGE('',*,*,#333,.T.);
#419=ORIENTED_EDGE('',*,*,#334,.T.);
#420=ORIENTED_EDGE('',*,*,#335,.T.);
#421=ORIENTED_EDGE('',*,*,#336,.T.);
#422=ORIENTED_EDGE('',*,*,#337,.T.);
#423=ORIENTED_EDGE('',*,*,#308,.T.);
#424=ORIENTED_EDGE('',*,*,#338,.T.);
#425=ORIENTED_EDGE('',*,*,#339,.T.);
#426=ORIENTED_EDGE('',*,*,#340,.T.);
#427=ORIENTED_EDGE('',*,*,#325,.T.);
#428=ORIENTED_EDGE('',*,*,#341,.T.);
#429=ORIENTED_EDGE('',*,*,#342,.T.);
#430=ORIENTED_EDGE('',*,*,#343,.F.);
#431=ORIENTED_EDGE('',*,*,#339,.F.);
#432=ORIENTED_EDGE('',*,*,#344,.T.);
#433=ORIENTED_EDGE('',*,*,#345,.T.);
#434=ORIENTED_EDGE('',*,*,#326,.F.);
#435=ORIENTED_EDGE('',*,*,#340,.F.);
#436=ORIENTED_EDGE('',*,*,#343,.T.);
#437=ORIENTED_EDGE('',*,*,#346,.F.);
#438=ORIENTED_EDGE('',*,*,#344,.F.);
#439=ORIENTED_EDGE('',*,*,#338,.F.);
#440=ORIENTED_EDGE('',*,*,#307,.T.);
#441=ORIENTED_EDGE('',*,*,#310,.T.);
#442=ORIENTED_EDGE('',*,*,#347,.T.);
#443=ORIENTED_EDGE('',*,*,#323,.T.);
#444=ORIENTED_EDGE('',*,*,#348,.T.);
#445=ORIENTED_EDGE('',*,*,#347,.F.);
#446=ORIENTED_EDGE('',*,*,#309,.F.);
#447=ORIENTED_EDGE('',*,*,#341,.F.);
#448=ORIENTED_EDGE('',*,*,#324,.F.);
#449=ORIENTED_EDGE('',*,*,#304,.T.);
#450=ORIENTED_EDGE('',*,*,#349,.T.);
#451=ORIENTED_EDGE('',*,*,#329,.T.);
#452=ORIENTED_EDGE('',*,*,#350,.T.);
#453=ORIENTED_EDGE('',*,*,#299,.F.);
#454=ORIENTED_EDGE('',*,*,#330,.F.);
#455=ORIENTED_EDGE('',*,*,#349,.F.);
#456=ORIENTED_EDGE('',*,*,#303,.F.);
#457=ORIENTED_EDGE('',*,*,#321,.F.);
#458=ORIENTED_EDGE('',*,*,#311,.F.);
#459=ORIENTED_EDGE('',*,*,#348,.F.);
#460=ORIENTED_EDGE('',*,*,#322,.F.);
#461=ORIENTED_EDGE('',*,*,#350,.F.);
#462=ORIENTED_EDGE('',*,*,#328,.F.);
#463=ORIENTED_EDGE('',*,*,#351,.F.);
#464=ORIENTED_EDGE('',*,*,#305,.F.);
#465=ORIENTED_EDGE('',*,*,#331,.F.);
#466=ORIENTED_EDGE('',*,*,#352,.T.);
#467=ORIENTED_EDGE('',*,*,#353,.F.);
#468=ORIENTED_EDGE('',*,*,#352,.F.);
#469=ORIENTED_EDGE('',*,*,#353,.T.);
#470=ORIENTED_EDGE('',*,*,#354,.T.);
#471=ORIENTED_EDGE('',*,*,#319,.F.);
#472=ORIENTED_EDGE('',*,*,#354,.F.);
#473=ORIENTED_EDGE('',*,*,#332,.F.);
#474=ORIENTED_EDGE('',*,*,#355,.T.);
#475=ORIENTED_EDGE('',*,*,#356,.F.);
#476=ORIENTED_EDGE('',*,*,#355,.F.);
#477=ORIENTED_EDGE('',*,*,#356,.T.);
#478=ORIENTED_EDGE('',*,*,#357,.T.);
#479=ORIENTED_EDGE('',*,*,#318,.F.);
#480=ORIENTED_EDGE('',*,*,#357,.F.);
#481=ORIENTED_EDGE('',*,*,#333,.F.);
#482=ORIENTED_EDGE('',*,*,#358,.T.);
#483=ORIENTED_EDGE('',*,*,#359,.F.);
#484=ORIENTED_EDGE('',*,*,#358,.F.);
#485=ORIENTED_EDGE('',*,*,#359,.T.);
#486=ORIENTED_EDGE('',*,*,#360,.T.);
#487=ORIENTED_EDGE('',*,*,#317,.F.);
#488=ORIENTED_EDGE('',*,*,#360,.F.);
#489=ORIENTED_EDGE('',*,*,#334,.F.);
#490=ORIENTED_EDGE('',*,*,#361,.T.);
#491=ORIENTED_EDGE('',*,*,#362,.F.);
#492=ORIENTED_EDGE('',*,*,#361,.F.);
#493=ORIENTED_EDGE('',*,*,#362,.T.);
#494=ORIENTED_EDGE('',*,*,#363,.T.);
#495=ORIENTED_EDGE('',*,*,#316,.F.);
#496=ORIENTED_EDGE('',*,*,#363,.F.);
#497=ORIENTED_EDGE('',*,*,#335,.F.);
#498=ORIENTED_EDGE('',*,*,#364,.T.);
#499=ORIENTED_EDGE('',*,*,#365,.F.);
#500=ORIENTED_EDGE('',*,*,#364,.F.);
#501=ORIENTED_EDGE('',*,*,#365,.T.);
#502=ORIENTED_EDGE('',*,*,#366,.T.);
#503=ORIENTED_EDGE('',*,*,#315,.F.);
#504=ORIENTED_EDGE('',*,*,#366,.F.);
#505=ORIENTED_EDGE('',*,*,#336,.F.);
#506=ORIENTED_EDGE('',*,*,#367,.T.);
#507=ORIENTED_EDGE('',*,*,#368,.F.);
#508=ORIENTED_EDGE('',*,*,#367,.F.);
#509=ORIENTED_EDGE('',*,*,#368,.T.);
#510=ORIENTED_EDGE('',*,*,#369,.T.);
#511=ORIENTED_EDGE('',*,*,#314,.F.);
#512=ORIENTED_EDGE('',*,*,#369,.F.);
#513=ORIENTED_EDGE('',*,*,#337,.F.);
#514=ORIENTED_EDGE('',*,*,#370,.T.);
#515=ORIENTED_EDGE('',*,*,#371,.F.);
#516=ORIENTED_EDGE('',*,*,#370,.F.);
#517=ORIENTED_EDGE('',*,*,#371,.T.);
#518=ORIENTED_EDGE('',*,*,#372,.T.);
#519=ORIENTED_EDGE('',*,*,#313,.F.);
#520=ORIENTED_EDGE('',*,*,#372,.F.);
#521=ORIENTED_EDGE('',*,*,#306,.T.);
#522=ORIENTED_EDGE('',*,*,#351,.T.);
#523=ORIENTED_EDGE('',*,*,#327,.T.);
#524=ORIENTED_EDGE('',*,*,#345,.F.);
#525=ORIENTED_EDGE('',*,*,#342,.F.);
#526=ORIENTED_EDGE('',*,*,#346,.T.);
#527=CYLINDRICAL_SURFACE('',#591,2.);
#528=CYLINDRICAL_SURFACE('',#606,2.);
#529=CYLINDRICAL_SURFACE('',#622,1.);
#530=CYLINDRICAL_SURFACE('',#624,1.);
#531=CYLINDRICAL_SURFACE('',#630,1.6);
#532=CYLINDRICAL_SURFACE('',#633,1.6);
#533=CYLINDRICAL_SURFACE('',#636,1.6);
#534=CYLINDRICAL_SURFACE('',#639,1.6);
#535=CYLINDRICAL_SURFACE('',#642,1.6);
#536=CYLINDRICAL_SURFACE('',#645,1.6);
#537=CYLINDRICAL_SURFACE('',#648,1.6);
#538=ADVANCED_FACE('',(#48),#527,.T.);
#539=ADVANCED_FACE('',(#49),#36,.F.);
#540=ADVANCED_FACE('',(#50,#22,#23,#24,#25,#26,#27,#28),#37,.T.);
#541=ADVANCED_FACE('',(#51),#528,.T.);
#542=ADVANCED_FACE('',(#52,#29,#30,#31,#32,#33,#34,#35),#38,.T.);
#543=ADVANCED_FACE('',(#53),#39,.T.);
#544=ADVANCED_FACE('',(#54),#40,.T.);
#545=ADVANCED_FACE('',(#55),#41,.T.);
#546=ADVANCED_FACE('',(#56),#42,.T.);
#547=ADVANCED_FACE('',(#57),#529,.F.);
#548=ADVANCED_FACE('',(#58),#43,.F.);
#549=ADVANCED_FACE('',(#59),#530,.F.);
#550=ADVANCED_FACE('',(#60),#44,.F.);
#551=ADVANCED_FACE('',(#61),#45,.F.);
#552=ADVANCED_FACE('',(#62),#46,.F.);
#553=ADVANCED_FACE('',(#63),#15,.F.);
#554=ADVANCED_FACE('',(#64),#531,.F.);
#555=ADVANCED_FACE('',(#65),#16,.F.);
#556=ADVANCED_FACE('',(#66),#532,.F.);
#557=ADVANCED_FACE('',(#67),#17,.F.);
#558=ADVANCED_FACE('',(#68),#533,.F.);
#559=ADVANCED_FACE('',(#69),#18,.F.);
#560=ADVANCED_FACE('',(#70),#534,.F.);
#561=ADVANCED_FACE('',(#71),#19,.F.);
#562=ADVANCED_FACE('',(#72),#535,.F.);
#563=ADVANCED_FACE('',(#73),#20,.F.);
#564=ADVANCED_FACE('',(#74),#536,.F.);
#565=ADVANCED_FACE('',(#75),#21,.F.);
#566=ADVANCED_FACE('',(#76),#537,.F.);
#567=ADVANCED_FACE('',(#77),#47,.T.);
#568=CLOSED_SHELL('',(#538,#539,#540,#541,#542,#543,#544,#545,#546,#547,
#548,#549,#550,#551,#552,#553,#554,#555,#556,#557,#558,#559,#560,#561,#562,
#563,#564,#565,#566,#567));
#569=DERIVED_UNIT_ELEMENT(#572,1.);
#570=DERIVED_UNIT_ELEMENT(#980,-3.);
#571=DIMENSIONAL_EXPONENTS(0.,1.,0.,0.,0.,0.,0.);
#572=(
CONVERSION_BASED_UNIT('gram',#574)
MASS_UNIT()
NAMED_UNIT(#571)
);
#573=(
MASS_UNIT()
NAMED_UNIT(*)
SI_UNIT(.KILO.,.GRAM.)
);
#574=MASS_MEASURE_WITH_UNIT(MASS_MEASURE(0.001),#573);
#575=DERIVED_UNIT((#569,#570));
#576=MEASURE_REPRESENTATION_ITEM('density measure',
POSITIVE_RATIO_MEASURE(7.85),#575);
#577=PROPERTY_DEFINITION_REPRESENTATION(#582,#579);
#578=PROPERTY_DEFINITION_REPRESENTATION(#583,#580);
#579=REPRESENTATION('material name',(#581),#977);
#580=REPRESENTATION('density',(#576),#977);
#581=DESCRIPTIVE_REPRESENTATION_ITEM('Steel, Carbon','Steel, Carbon');
#582=PROPERTY_DEFINITION('material property','material name',#987);
#583=PROPERTY_DEFINITION('material property','density of part',#987);
#584=DATE_TIME_ROLE('creation_date');
#585=APPLIED_DATE_AND_TIME_ASSIGNMENT(#586,#584,(#987));
#586=DATE_AND_TIME(#587,#588);
#587=CALENDAR_DATE(2022,27,1);
#588=LOCAL_TIME(0,0,0.,#589);
#589=COORDINATED_UNIVERSAL_TIME_OFFSET(0,0,.BEHIND.);
#590=AXIS2_PLACEMENT_3D('',#818,#650,#651);
#591=AXIS2_PLACEMENT_3D('',#819,#652,#653);
#592=AXIS2_PLACEMENT_3D('',#822,#654,#655);
#593=AXIS2_PLACEMENT_3D('',#826,#657,#658);
#594=AXIS2_PLACEMENT_3D('',#828,#660,#661);
#595=AXIS2_PLACEMENT_3D('',#834,#665,#666);
#596=AXIS2_PLACEMENT_3D('',#838,#668,#669);
#597=AXIS2_PLACEMENT_3D('',#850,#675,#676);
#598=AXIS2_PLACEMENT_3D('',#853,#678,#679);
#599=AXIS2_PLACEMENT_3D('',#855,#680,#681);
#600=AXIS2_PLACEMENT_3D('',#857,#682,#683);
#601=AXIS2_PLACEMENT_3D('',#859,#684,#685);
#602=AXIS2_PLACEMENT_3D('',#861,#686,#687);
#603=AXIS2_PLACEMENT_3D('',#863,#688,#689);
#604=AXIS2_PLACEMENT_3D('',#865,#690,#691);
#605=AXIS2_PLACEMENT_3D('',#867,#692,#693);
#606=AXIS2_PLACEMENT_3D('',#868,#694,#695);
#607=AXIS2_PLACEMENT_3D('',#870,#696,#697);
#608=AXIS2_PLACEMENT_3D('',#872,#699,#700);
#609=AXIS2_PLACEMENT_3D('',#876,#702,#703);
#610=AXIS2_PLACEMENT_3D('',#888,#709,#710);
#611=AXIS2_PLACEMENT_3D('',#891,#712,#713);
#612=AXIS2_PLACEMENT_3D('',#893,#714,#715);
#613=AXIS2_PLACEMENT_3D('',#895,#716,#717);
#614=AXIS2_PLACEMENT_3D('',#897,#718,#719);
#615=AXIS2_PLACEMENT_3D('',#899,#720,#721);
#616=AXIS2_PLACEMENT_3D('',#901,#722,#723);
#617=AXIS2_PLACEMENT_3D('',#903,#724,#725);
#618=AXIS2_PLACEMENT_3D('',#904,#726,#727);
#619=AXIS2_PLACEMENT_3D('',#911,#732,#733);
#620=AXIS2_PLACEMENT_3D('',#917,#737,#738);
#621=AXIS2_PLACEMENT_3D('',#919,#740,#741);
#622=AXIS2_PLACEMENT_3D('',#921,#743,#744);
#623=AXIS2_PLACEMENT_3D('',#924,#747,#748);
#624=AXIS2_PLACEMENT_3D('',#925,#749,#750);
#625=AXIS2_PLACEMENT_3D('',#928,#753,#754);
#626=AXIS2_PLACEMENT_3D('',#929,#755,#756);
#627=AXIS2_PLACEMENT_3D('',#930,#757,#758);
#628=AXIS2_PLACEMENT_3D('',#932,#760,#761);
#629=AXIS2_PLACEMENT_3D('',#935,#763,#764);
#630=AXIS2_PLACEMENT_3D('',#936,#765,#766);
#631=AXIS2_PLACEMENT_3D('',#938,#768,#769);
#632=AXIS2_PLACEMENT_3D('',#941,#771,#772);
#633=AXIS2_PLACEMENT_3D('',#942,#773,#774);
#634=AXIS2_PLACEMENT_3D('',#944,#776,#777);
#635=AXIS2_PLACEMENT_3D('',#947,#779,#780);
#636=AXIS2_PLACEMENT_3D('',#948,#781,#782);
#637=AXIS2_PLACEMENT_3D('',#950,#784,#785);
#638=AXIS2_PLACEMENT_3D('',#953,#787,#788);
#639=AXIS2_PLACEMENT_3D('',#954,#789,#790);
#640=AXIS2_PLACEMENT_3D('',#956,#792,#793);
#641=AXIS2_PLACEMENT_3D('',#959,#795,#796);
#642=AXIS2_PLACEMENT_3D('',#960,#797,#798);
#643=AXIS2_PLACEMENT_3D('',#962,#800,#801);
#644=AXIS2_PLACEMENT_3D('',#965,#803,#804);
#645=AXIS2_PLACEMENT_3D('',#966,#805,#806);
#646=AXIS2_PLACEMENT_3D('',#968,#808,#809);
#647=AXIS2_PLACEMENT_3D('',#971,#811,#812);
#648=AXIS2_PLACEMENT_3D('',#972,#813,#814);
#649=AXIS2_PLACEMENT_3D('',#974,#816,#817);
#650=DIRECTION('axis',(0.,0.,1.));
#651=DIRECTION('refdir',(1.,0.,0.));
#652=DIRECTION('center_axis',(0.,-1.,-2.22044604925031E-16));
#653=DIRECTION('ref_axis',(-1.,0.,0.));
#654=DIRECTION('center_axis',(0.,-1.,-1.14287664299648E-16));
#655=DIRECTION('ref_axis',(-1.,0.,0.));
#656=DIRECTION('',(0.,-1.,-2.22044604925031E-16));
#657=DIRECTION('center_axis',(0.,1.,2.44929359829471E-16));
#658=DIRECTION('ref_axis',(-1.,0.,0.));
#659=DIRECTION('',(0.,1.,2.22044604925031E-16));
#660=DIRECTION('center_axis',(0.,-2.22044604925031E-16,1.));
#661=DIRECTION('ref_axis',(1.,0.,0.));
#662=DIRECTION('',(-1.,0.,0.));
#663=DIRECTION('',(-1.15115121588404E-31,1.,2.22044604925031E-16));
#664=DIRECTION('',(1.,0.,0.));
#665=DIRECTION('center_axis',(0.,1.,1.14287664299648E-16));
#666=DIRECTION('ref_axis',(0.,-1.14287664299648E-16,1.));
#667=DIRECTION('',(0.,-1.14287664299648E-16,1.));
#668=DIRECTION('center_axis',(0.,1.,1.14287664299648E-16));
#669=DIRECTION('ref_axis',(0.707106781186546,-2.43425187392833E-16,0.707106781186549));
#670=DIRECTION('',(-1.,0.,0.));
#671=DIRECTION('',(0.,1.14287664299648E-16,-1.));
#672=DIRECTION('',(-1.,0.,0.));
#673=DIRECTION('',(0.,0.,1.));
#674=DIRECTION('',(-1.,0.,0.));
#675=DIRECTION('center_axis',(0.,1.,1.14287664299648E-16));
#676=DIRECTION('ref_axis',(-0.707106781186546,0.,0.707106781186549));
#677=DIRECTION('',(5.18432418690243E-16,1.14287664299648E-16,-1.));
#678=DIRECTION('center_axis',(0.,-1.,-1.14287664299648E-16));
#679=DIRECTION('ref_axis',(1.,0.,0.));
#680=DIRECTION('center_axis',(0.,-1.,-1.14287664299648E-16));
#681=DIRECTION('ref_axis',(1.,0.,0.));
#682=DIRECTION('center_axis',(0.,-1.,-1.14287664299648E-16));
#683=DIRECTION('ref_axis',(1.,0.,0.));
#684=DIRECTION('center_axis',(0.,-1.,-1.14287664299648E-16));
#685=DIRECTION('ref_axis',(1.,0.,0.));
#686=DIRECTION('center_axis',(0.,-1.,-1.14287664299648E-16));
#687=DIRECTION('ref_axis',(1.,0.,0.));
#688=DIRECTION('center_axis',(0.,-1.,-1.14287664299648E-16));
#689=DIRECTION('ref_axis',(1.,0.,0.));
#690=DIRECTION('center_axis',(0.,-1.,-1.14287664299648E-16));
#691=DIRECTION('ref_axis',(1.,0.,0.));
#692=DIRECTION('center_axis',(0.,-1.,-1.14287664299648E-16));
#693=DIRECTION('ref_axis',(1.,0.,0.));
#694=DIRECTION('center_axis',(-1.15115121588404E-31,1.,2.22044604925031E-16));
#695=DIRECTION('ref_axis',(1.,0.,0.));
#696=DIRECTION('center_axis',(0.,1.,2.44929359829471E-16));
#697=DIRECTION('ref_axis',(1.,0.,0.));
#698=DIRECTION('',(1.15115121588404E-31,-1.,-2.22044604925031E-16));
#699=DIRECTION('center_axis',(0.,-1.,-2.44929359829471E-16));
#700=DIRECTION('ref_axis',(0.,2.44929359829471E-16,-1.));
#701=DIRECTION('',(-5.18432418690243E-16,-2.44929359829471E-16,1.));
#702=DIRECTION('center_axis',(0.,-1.,-2.44929359829471E-16));
#703=DIRECTION('ref_axis',(-0.707106781186546,0.,0.707106781186549));
#704=DIRECTION('',(1.,0.,0.));
#705=DIRECTION('',(0.,2.44929359829471E-16,-1.));
#706=DIRECTION('',(-1.,0.,0.));
#707=DIRECTION('',(0.,-2.44929359829471E-16,1.));
#708=DIRECTION('',(1.,0.,0.));
#709=DIRECTION('center_axis',(0.,-1.,-2.44929359829471E-16));
#710=DIRECTION('ref_axis',(0.707106781186546,-2.43425187392833E-16,0.707106781186549));
#711=DIRECTION('',(0.,2.44929359829471E-16,-1.));
#712=DIRECTION('center_axis',(0.,1.,2.44929359829471E-16));
#713=DIRECTION('ref_axis',(1.,0.,0.));
#714=DIRECTION('center_axis',(0.,1.,2.44929359829471E-16));
#715=DIRECTION('ref_axis',(1.,0.,0.));
#716=DIRECTION('center_axis',(0.,1.,2.44929359829471E-16));
#717=DIRECTION('ref_axis',(1.,0.,0.));
#718=DIRECTION('center_axis',(0.,1.,2.44929359829471E-16));
#719=DIRECTION('ref_axis',(1.,0.,0.));
#720=DIRECTION('center_axis',(0.,1.,2.44929359829471E-16));
#721=DIRECTION('ref_axis',(1.,0.,0.));
#722=DIRECTION('center_axis',(0.,1.,2.44929359829471E-16));
#723=DIRECTION('ref_axis',(1.,0.,0.));
#724=DIRECTION('center_axis',(0.,1.,2.44929359829471E-16));
#725=DIRECTION('ref_axis',(1.,0.,0.));
#726=DIRECTION('center_axis',(1.,0.,0.));
#727=DIRECTION('ref_axis',(0.,0.,-1.));
#728=DIRECTION('',(0.,1.,2.41352831440251E-16));
#729=DIRECTION('',(0.,-1.5329521893635E-16,1.));
#730=DIRECTION('',(0.,-0.999136541841896,0.0415472111725616));
#731=DIRECTION('',(0.,1.,0.));
#732=DIRECTION('center_axis',(0.,1.,1.5329521893635E-16));
#733=DIRECTION('ref_axis',(0.,1.5329521893635E-16,-1.));
#734=DIRECTION('',(0.,-1.5329521893635E-16,1.));
#735=DIRECTION('',(-1.,0.,0.));
#736=DIRECTION('',(-1.,0.,0.));
#737=DIRECTION('center_axis',(0.,0.0415472111725616,0.999136541841896));
#738=DIRECTION('ref_axis',(0.,0.999136541841896,-0.0415472111725616));
#739=DIRECTION('',(0.,-0.999136541841896,0.0415472111725616));
#740=DIRECTION('center_axis',(0.,2.41352831440251E-16,-1.));
#741=DIRECTION('ref_axis',(0.,-1.,-2.41352831440251E-16));
#742=DIRECTION('',(0.,-1.,-2.41352831440251E-16));
#743=DIRECTION('center_axis',(0.,-1.,0.));
#744=DIRECTION('ref_axis',(-0.707106781186546,0.,0.707106781186549));
#745=DIRECTION('',(0.,-1.,0.));
#746=DIRECTION('',(0.,1.,0.));
#747=DIRECTION('center_axis',(0.,0.,1.));
#748=DIRECTION('ref_axis',(-1.,0.,0.));
#749=DIRECTION('center_axis',(0.,-1.,-3.44255201434157E-16));
#750=DIRECTION('ref_axis',(0.707106781186546,-2.43425187392833E-16,0.707106781186549));
#751=DIRECTION('',(0.,-1.,-3.44255201434157E-16));
#752=DIRECTION('',(0.,1.,3.44255201434157E-16));
#753=DIRECTION('center_axis',(1.,0.,0.));
#754=DIRECTION('ref_axis',(0.,-2.44929359829471E-16,1.));
#755=DIRECTION('center_axis',(-1.,0.,-5.18432418690243E-16));
#756=DIRECTION('ref_axis',(5.18432418690243E-16,2.44929359829471E-16,-1.));
#757=DIRECTION('center_axis',(0.,-3.44255201434157E-16,1.));
#758=DIRECTION('ref_axis',(-1.,0.,0.));
#759=DIRECTION('',(0.,-1.,-3.44255201434157E-16));
#760=DIRECTION('center_axis',(0.,-1.,-2.44929359829471E-16));
#761=DIRECTION('ref_axis',(1.,0.,0.));
#762=DIRECTION('',(0.707106781186548,0.707106781186548,2.59786816870648E-16));
#763=DIRECTION('center_axis',(0.,-1.,-2.44929359829471E-16));
#764=DIRECTION('ref_axis',(1.,0.,0.));
#765=DIRECTION('center_axis',(0.,-1.,-2.44929359829471E-16));
#766=DIRECTION('ref_axis',(1.,0.,0.));
#767=DIRECTION('',(0.,1.,2.44929359829471E-16));
#768=DIRECTION('center_axis',(0.,-1.,-2.44929359829471E-16));
#769=DIRECTION('ref_axis',(1.,0.,0.));
#770=DIRECTION('',(0.707106781186548,0.707106781186548,2.59786816870648E-16));
#771=DIRECTION('center_axis',(0.,-1.,-2.44929359829471E-16));
#772=DIRECTION('ref_axis',(1.,0.,0.));
#773=DIRECTION('center_axis',(0.,-1.,-2.44929359829471E-16));
#774=DIRECTION('ref_axis',(1.,0.,0.));
#775=DIRECTION('',(0.,1.,2.44929359829471E-16));
#776=DIRECTION('center_axis',(0.,-1.,-2.44929359829471E-16));
#777=DIRECTION('ref_axis',(1.,0.,0.));
#778=DIRECTION('',(0.707106781186548,0.707106781186548,2.59786816870648E-16));
#779=DIRECTION('center_axis',(0.,-1.,-2.44929359829471E-16));
#780=DIRECTION('ref_axis',(1.,0.,0.));
#781=DIRECTION('center_axis',(0.,-1.,-2.44929359829471E-16));
#782=DIRECTION('ref_axis',(1.,0.,0.));
#783=DIRECTION('',(0.,1.,2.44929359829471E-16));
#784=DIRECTION('center_axis',(0.,-1.,-2.44929359829471E-16));
#785=DIRECTION('ref_axis',(1.,0.,0.));
#786=DIRECTION('',(0.707106781186548,0.707106781186548,2.59786816870648E-16));
#787=DIRECTION('center_axis',(0.,-1.,-2.44929359829471E-16));
#788=DIRECTION('ref_axis',(1.,0.,0.));
#789=DIRECTION('center_axis',(0.,-1.,-2.44929359829471E-16));
#790=DIRECTION('ref_axis',(1.,0.,0.));
#791=DIRECTION('',(0.,1.,2.44929359829471E-16));
#792=DIRECTION('center_axis',(0.,-1.,-2.44929359829471E-16));
#793=DIRECTION('ref_axis',(1.,0.,0.));
#794=DIRECTION('',(0.707106781186548,0.707106781186548,2.59786816870648E-16));
#795=DIRECTION('center_axis',(0.,-1.,-2.44929359829471E-16));
#796=DIRECTION('ref_axis',(1.,0.,0.));
#797=DIRECTION('center_axis',(0.,-1.,-2.44929359829471E-16));
#798=DIRECTION('ref_axis',(1.,0.,0.));
#799=DIRECTION('',(0.,1.,2.44929359829471E-16));
#800=DIRECTION('center_axis',(0.,-1.,-2.44929359829471E-16));
#801=DIRECTION('ref_axis',(1.,0.,0.));
#802=DIRECTION('',(0.707106781186548,0.707106781186548,2.59786816870648E-16));
#803=DIRECTION('center_axis',(0.,-1.,-2.44929359829471E-16));
#804=DIRECTION('ref_axis',(1.,0.,0.));
#805=DIRECTION('center_axis',(0.,-1.,-2.44929359829471E-16));
#806=DIRECTION('ref_axis',(1.,0.,0.));
#807=DIRECTION('',(0.,1.,2.44929359829471E-16));
#808=DIRECTION('center_axis',(0.,-1.,-2.44929359829471E-16));
#809=DIRECTION('ref_axis',(1.,0.,0.));
#810=DIRECTION('',(0.707106781186548,0.707106781186548,2.59786816870648E-16));
#811=DIRECTION('center_axis',(0.,-1.,-2.44929359829471E-16));
#812=DIRECTION('ref_axis',(1.,0.,0.));
#813=DIRECTION('center_axis',(0.,-1.,-2.44929359829471E-16));
#814=DIRECTION('ref_axis',(1.,0.,0.));
#815=DIRECTION('',(0.,1.,2.44929359829471E-16));
#816=DIRECTION('center_axis',(-1.,0.,0.));
#817=DIRECTION('ref_axis',(0.,0.,1.));
#818=CARTESIAN_POINT('',(0.,0.,0.));
#819=CARTESIAN_POINT('Origin',(-27.5,4.09854632444737E-15,-16.5));
#820=CARTESIAN_POINT('',(-29.5,2.,-16.5));
#821=CARTESIAN_POINT('',(-27.5,2.,-18.5));
#822=CARTESIAN_POINT('Origin',(-27.5,2.,-16.5));
#823=CARTESIAN_POINT('',(-27.5,4.53119315684521E-15,-18.5));
#824=CARTESIAN_POINT('',(-27.5,4.54263553429743E-15,-18.5));
#825=CARTESIAN_POINT('',(-29.5,4.04133443718627E-15,-16.5));
#826=CARTESIAN_POINT('Origin',(-27.5,3.66373598126302E-15,-16.5));
#827=CARTESIAN_POINT('',(-29.5,4.09854632444737E-15,-16.5));
#828=CARTESIAN_POINT('Origin',(-29.3660254037844,4.53119315684521E-15,-18.5));
#829=CARTESIAN_POINT('',(27.5,2.,-18.5));
#830=CARTESIAN_POINT('',(-14.6830127018922,2.,-18.5));
#831=CARTESIAN_POINT('',(27.5,4.53119315684521E-15,-18.5));
#832=CARTESIAN_POINT('',(27.5,4.45109651467967E-15,-18.5));
#833=CARTESIAN_POINT('',(-14.6830127018922,4.53119315684521E-15,-18.5));
#834=CARTESIAN_POINT('Origin',(0.,2.,-19.));
#835=CARTESIAN_POINT('',(-29.5,2.,-16.));
#836=CARTESIAN_POINT('',(-29.5,2.,-19.));
#837=CARTESIAN_POINT('',(-30.5,2.,-15.));
#838=CARTESIAN_POINT('Origin',(-30.5,2.,-16.));
#839=CARTESIAN_POINT('',(-50.,2.,-15.));
#840=CARTESIAN_POINT('',(-14.75,2.,-15.));
#841=CARTESIAN_POINT('',(-50.,2.,-3.79999999999999));
#842=CARTESIAN_POINT('',(-50.,2.,-2.));
#843=CARTESIAN_POINT('',(50.,2.,-3.79999999999999));
#844=CARTESIAN_POINT('',(50.,2.,-3.79999999999999));
#845=CARTESIAN_POINT('',(50.,2.,-15.));
#846=CARTESIAN_POINT('',(50.,2.,-6.9));
#847=CARTESIAN_POINT('',(30.5,2.,-15.));
#848=CARTESIAN_POINT('',(25.,2.,-15.));
#849=CARTESIAN_POINT('',(29.5,2.,-16.));
#850=CARTESIAN_POINT('Origin',(30.5,2.,-16.));
#851=CARTESIAN_POINT('',(29.5,2.,-16.5));
#852=CARTESIAN_POINT('',(29.5,2.,-17.));
#853=CARTESIAN_POINT('Origin',(27.5,2.,-16.5));
#854=CARTESIAN_POINT('',(25.4,2.,-8.29999999999999));
#855=CARTESIAN_POINT('Origin',(27.,2.,-8.29999999999999));
#856=CARTESIAN_POINT('',(-10.6,2.,-8.29999999999999));
#857=CARTESIAN_POINT('Origin',(-9.,2.,-8.29999999999999));
#858=CARTESIAN_POINT('',(-28.6,2.,-8.29999999999999));
#859=CARTESIAN_POINT('Origin',(-27.,2.,-8.29999999999999));
#860=CARTESIAN_POINT('',(7.4,2.,-8.29999999999999));
#861=CARTESIAN_POINT('Origin',(9.,2.,-8.29999999999999));
#862=CARTESIAN_POINT('',(-1.6,2.,-15.));
#863=CARTESIAN_POINT('Origin',(0.,2.,-15.));
#864=CARTESIAN_POINT('',(16.4,2.,-15.));
#865=CARTESIAN_POINT('Origin',(18.,2.,-15.));
#866=CARTESIAN_POINT('',(-19.6,2.,-15.));
#867=CARTESIAN_POINT('Origin',(-18.,2.,-15.));
#868=CARTESIAN_POINT('Origin',(27.5,4.00700730482961E-15,-16.5));
#869=CARTESIAN_POINT('',(29.5,4.04133443718627E-15,-16.5));
#870=CARTESIAN_POINT('Origin',(27.5,3.66373598126302E-15,-16.5));
#871=CARTESIAN_POINT('',(29.5,4.00700730482961E-15,-16.5));
#872=CARTESIAN_POINT('Origin',(0.,-9.86076131526265E-31,0.));
#873=CARTESIAN_POINT('',(29.5,3.91886975727153E-15,-16.));
#874=CARTESIAN_POINT('',(29.5,1.83697019872103E-15,-7.49999999999999));
#875=CARTESIAN_POINT('',(30.5,3.67394039744206E-15,-15.));
#876=CARTESIAN_POINT('Origin',(30.5,-9.86076131526265E-31,-16.));
#877=CARTESIAN_POINT('',(50.,3.67394039744206E-15,-15.));
#878=CARTESIAN_POINT('',(25.,3.67394039744206E-15,-15.));
#879=CARTESIAN_POINT('',(50.,0.,0.));
#880=CARTESIAN_POINT('',(50.,4.65365783675994E-15,-19.));
#881=CARTESIAN_POINT('',(-50.,0.,0.));
#882=CARTESIAN_POINT('',(0.,0.,0.));
#883=CARTESIAN_POINT('',(-50.,3.67394039744206E-15,-15.));
#884=CARTESIAN_POINT('',(-50.,4.65365783675994E-15,-19.));
#885=CARTESIAN_POINT('',(-30.5,3.67394039744206E-15,-15.));
#886=CARTESIAN_POINT('',(-14.75,3.67394039744206E-15,-15.));
#887=CARTESIAN_POINT('',(-29.5,3.91886975727153E-15,-16.));
#888=CARTESIAN_POINT('Origin',(-30.5,5.50808322294651E-15,-16.));
#889=CARTESIAN_POINT('',(-29.5,2.32682891837997E-15,-9.5));
#890=CARTESIAN_POINT('',(-21.25,2.91433543964104E-15,-15.));
#891=CARTESIAN_POINT('Origin',(-18.,3.60822483003176E-15,-15.));
#892=CARTESIAN_POINT('',(14.75,2.77555756156289E-15,-15.));
#893=CARTESIAN_POINT('Origin',(18.,3.60822483003176E-15,-15.));
#894=CARTESIAN_POINT('',(-3.25,2.91433543964104E-15,-15.));
#895=CARTESIAN_POINT('Origin',(0.,3.60822483003176E-15,-15.));
#896=CARTESIAN_POINT('',(5.75,1.66533453693773E-15,-8.29999999999999));
#897=CARTESIAN_POINT('Origin',(9.,2.08166817117217E-15,-8.29999999999999));
#898=CARTESIAN_POINT('',(-30.25,1.2490009027033E-15,-8.29999999999999));
#899=CARTESIAN_POINT('Origin',(-27.,2.08166817117217E-15,-8.29999999999999));
#900=CARTESIAN_POINT('',(-12.25,1.52655665885959E-15,-8.29999999999999));
#901=CARTESIAN_POINT('Origin',(-9.,2.08166817117217E-15,-8.29999999999999));
#902=CARTESIAN_POINT('',(23.75,1.2490009027033E-15,-8.29999999999999));
#903=CARTESIAN_POINT('Origin',(27.,2.08166817117217E-15,-8.29999999999999));
#904=CARTESIAN_POINT('Origin',(50.,1.,-9.5));
#905=CARTESIAN_POINT('',(50.,4.3,-3.79999999999999));
#906=CARTESIAN_POINT('',(50.,2.,-3.79999999999999));
#907=CARTESIAN_POINT('',(50.,4.3,-0.178807400750923));
#908=CARTESIAN_POINT('',(50.,4.3,-3.79999999999999));
#909=CARTESIAN_POINT('',(50.,4.3,-0.178807400750923));
#910=CARTESIAN_POINT('',(50.,0.500000000000003,-15.));
#911=CARTESIAN_POINT('Origin',(50.,4.3,-0.178807400750923));
#912=CARTESIAN_POINT('',(-50.,4.3,-3.79999999999999));
#913=CARTESIAN_POINT('',(-50.,4.3,-0.178807400750923));
#914=CARTESIAN_POINT('',(-50.,4.3,-1.03940370037546));
#915=CARTESIAN_POINT('',(50.,4.3,-0.178807400750923));
#916=CARTESIAN_POINT('',(50.,4.3,-3.79999999999999));
#917=CARTESIAN_POINT('Origin',(50.,-5.55111512312578E-16,3.46944695195361E-17));
#918=CARTESIAN_POINT('',(-50.,1.11258013648649,-0.0462645493795943));
#919=CARTESIAN_POINT('Origin',(50.,4.3,-3.79999999999999));
#920=CARTESIAN_POINT('',(-50.,1.5,-3.79999999999999));
#921=CARTESIAN_POINT('Origin',(30.5,3.67394039744206E-15,-16.));
#922=CARTESIAN_POINT('',(30.5,3.67394039744206E-15,-15.));
#923=CARTESIAN_POINT('',(29.5,3.67394039744206E-15,-16.));
#924=CARTESIAN_POINT('Origin',(50.,3.67394039744206E-15,-15.));
#925=CARTESIAN_POINT('Origin',(-30.5,3.81954391566685E-15,-16.));
#926=CARTESIAN_POINT('',(-29.5,3.81954391566685E-15,-16.));
#927=CARTESIAN_POINT('',(-30.5,3.47528871423269E-15,-15.));
#928=CARTESIAN_POINT('Origin',(-29.5,4.65365783675994E-15,-19.));
#929=CARTESIAN_POINT('Origin',(29.5,3.67394039744206E-15,-15.));
#930=CARTESIAN_POINT('Origin',(-29.5,3.67394039744206E-15,-15.));
#931=CARTESIAN_POINT('',(-50.,0.500000000000004,-15.));
#932=CARTESIAN_POINT('Origin',(-18.,0.825000000000004,-15.));
#933=CARTESIAN_POINT('',(-19.6,1.65,-15.));
#934=CARTESIAN_POINT('',(-20.425,0.825000000000004,-15.));
#935=CARTESIAN_POINT('Origin',(-18.,1.65,-15.));
#936=CARTESIAN_POINT('Origin',(-18.,4.4,-15.));
#937=CARTESIAN_POINT('',(-19.6,4.4,-15.));
#938=CARTESIAN_POINT('Origin',(18.,0.825000000000004,-15.));
#939=CARTESIAN_POINT('',(16.4,1.65,-15.));
#940=CARTESIAN_POINT('',(15.575,0.825000000000004,-15.));
#941=CARTESIAN_POINT('Origin',(18.,1.65,-15.));
#942=CARTESIAN_POINT('Origin',(18.,4.4,-15.));
#943=CARTESIAN_POINT('',(16.4,4.4,-15.));
#944=CARTESIAN_POINT('Origin',(0.,0.825000000000004,-15.));
#945=CARTESIAN_POINT('',(-1.6,1.65,-15.));
#946=CARTESIAN_POINT('',(-2.425,0.825000000000004,-15.));
#947=CARTESIAN_POINT('Origin',(0.,1.65,-15.));
#948=CARTESIAN_POINT('Origin',(0.,4.4,-15.));
#949=CARTESIAN_POINT('',(-1.6,4.4,-15.));
#950=CARTESIAN_POINT('Origin',(9.,0.825000000000002,-8.29999999999999));
#951=CARTESIAN_POINT('',(7.4,1.65,-8.29999999999999));
#952=CARTESIAN_POINT('',(6.575,0.825000000000002,-8.29999999999999));
#953=CARTESIAN_POINT('Origin',(9.,1.65,-8.29999999999999));
#954=CARTESIAN_POINT('Origin',(9.,4.4,-8.29999999999999));
#955=CARTESIAN_POINT('',(7.4,4.4,-8.29999999999999));
#956=CARTESIAN_POINT('Origin',(-27.,0.825000000000002,-8.29999999999999));
#957=CARTESIAN_POINT('',(-28.6,1.65,-8.29999999999999));
#958=CARTESIAN_POINT('',(-29.425,0.825000000000002,-8.29999999999999));
#959=CARTESIAN_POINT('Origin',(-27.,1.65,-8.29999999999999));
#960=CARTESIAN_POINT('Origin',(-27.,4.4,-8.29999999999999));
#961=CARTESIAN_POINT('',(-28.6,4.4,-8.29999999999999));
#962=CARTESIAN_POINT('Origin',(-9.,0.825000000000002,-8.29999999999999));
#963=CARTESIAN_POINT('',(-10.6,1.65,-8.29999999999999));
#964=CARTESIAN_POINT('',(-11.425,0.825000000000002,-8.29999999999999));
#965=CARTESIAN_POINT('Origin',(-9.,1.65,-8.29999999999999));
#966=CARTESIAN_POINT('Origin',(-9.,4.4,-8.29999999999999));
#967=CARTESIAN_POINT('',(-10.6,4.4,-8.29999999999999));
#968=CARTESIAN_POINT('Origin',(27.,0.825000000000002,-8.29999999999999));
#969=CARTESIAN_POINT('',(25.4,1.65,-8.29999999999999));
#970=CARTESIAN_POINT('',(24.575,0.825000000000002,-8.29999999999999));
#971=CARTESIAN_POINT('Origin',(27.,1.65,-8.29999999999999));
#972=CARTESIAN_POINT('Origin',(27.,4.4,-8.29999999999999));
#973=CARTESIAN_POINT('',(25.4,4.4,-8.29999999999999));
#974=CARTESIAN_POINT('Origin',(-50.,1.,-9.5));
#975=UNCERTAINTY_MEASURE_WITH_UNIT(LENGTH_MEASURE(0.01),#979,
'DISTANCE_ACCURACY_VALUE',
'Maximum model space distance between geometric entities at asserted c
onnectivities');
#976=UNCERTAINTY_MEASURE_WITH_UNIT(LENGTH_MEASURE(0.01),#979,
'DISTANCE_ACCURACY_VALUE',
'Maximum model space distance between geometric entities at asserted c
onnectivities');
#977=(
GEOMETRIC_REPRESENTATION_CONTEXT(3)
GLOBAL_UNCERTAINTY_ASSIGNED_CONTEXT((#975))
GLOBAL_UNIT_ASSIGNED_CONTEXT((#979,#981,#982))
REPRESENTATION_CONTEXT('','3D')
);
#978=(
GEOMETRIC_REPRESENTATION_CONTEXT(3)
GLOBAL_UNCERTAINTY_ASSIGNED_CONTEXT((#976))
GLOBAL_UNIT_ASSIGNED_CONTEXT((#979,#981,#982))
REPRESENTATION_CONTEXT('','3D')
);
#979=(
LENGTH_UNIT()
NAMED_UNIT(*)
SI_UNIT(.MILLI.,.METRE.)
);
#980=(
LENGTH_UNIT()
NAMED_UNIT(*)
SI_UNIT(.CENTI.,.METRE.)
);
#981=(
NAMED_UNIT(*)
PLANE_ANGLE_UNIT()
SI_UNIT($,.RADIAN.)
);
#982=(
NAMED_UNIT(*)
SI_UNIT($,.STERADIAN.)
SOLID_ANGLE_UNIT()
);
#983=SHAPE_DEFINITION_REPRESENTATION(#984,#985);
#984=PRODUCT_DEFINITION_SHAPE('',$,#987);
#985=SHAPE_REPRESENTATION('',(#590),#977);
#986=PRODUCT_DEFINITION_CONTEXT('part definition',#991,'design');
#987=PRODUCT_DEFINITION('Plog2','plug',#988,#986);
#988=PRODUCT_DEFINITION_FORMATION('',$,#993);
#989=PRODUCT_RELATED_PRODUCT_CATEGORY('plug','plug',(#993));
#990=APPLICATION_PROTOCOL_DEFINITION('international standard',
'automotive_design',2009,#991);
#991=APPLICATION_CONTEXT(
'Core Data for Automotive Mechanical Design Process');
#992=PRODUCT_CONTEXT('part definition',#991,'mechanical');
#993=PRODUCT('Plog2','plug',$,(#992));
#994=PRESENTATION_STYLE_ASSIGNMENT((#995));
#995=SURFACE_STYLE_USAGE(.BOTH.,#998);
#996=SURFACE_STYLE_RENDERING_WITH_PROPERTIES($,#1002,(#997));
#997=SURFACE_STYLE_TRANSPARENT(0.);
#998=SURFACE_SIDE_STYLE('',(#999,#996));
#999=SURFACE_STYLE_FILL_AREA(#1000);
#1000=FILL_AREA_STYLE('',(#1001));
#1001=FILL_AREA_STYLE_COLOUR('',#1002);
#1002=COLOUR_RGB('',0.270588235294118,0.270588235294118,0.270588235294118);
ENDSEC;
END-ISO-10303-21;
