ISO-10303-21;
HEADER;
/* Generated by software containing ST-Developer
 * from STEP Tools, Inc. (www.steptools.com) 
 */

FILE_DESCRIPTION(
/* description */ (''),
/* implementation_level */ '2;1');

FILE_NAME(
/* name */ 'GearboxBearingHolderCover_MIR.stp',
/* time_stamp */ '2026-05-13T22:05:47+02:00',
/* author */ ('szymo'),
/* organization */ (''),
/* preprocessor_version */ 'ST-DEVELOPER v20.1',
/* originating_system */ 'Autodesk Inventor 2026',
/* authorisation */ '');

FILE_SCHEMA (('AUTOMOTIVE_DESIGN { 1 0 10303 214 3 1 1 }'));
ENDSEC;

DATA;
#10=MECHANICAL_DESIGN_GEOMETRIC_PRESENTATION_REPRESENTATION('',(#35,#36,
#37,#38,#39,#40,#41,#42,#43,#44,#45,#46,#47,#48,#49,#50,#51,#52,#53,#54,
#55,#56,#57),#1005);
#11=SHAPE_REPRESENTATION_RELATIONSHIP('SRR','None',#1012,#12);
#12=ADVANCED_BREP_SHAPE_REPRESENTATION('',(#13),#1004);
#13=MANIFOLD_SOLID_BREP('Solid1',#531);
#14=FACE_BOUND('',#108,.T.);
#15=FACE_BOUND('',#109,.T.);
#16=FACE_BOUND('',#110,.T.);
#17=FACE_BOUND('',#111,.T.);
#18=FACE_BOUND('',#126,.T.);
#19=FACE_BOUND('',#128,.T.);
#20=FACE_BOUND('',#129,.T.);
#21=FACE_BOUND('',#130,.T.);
#22=FACE_BOUND('',#131,.T.);
#23=FACE_BOUND('',#132,.T.);
#24=FACE_BOUND('',#133,.T.);
#25=(
BOUNDED_SURFACE()
B_SPLINE_SURFACE(2,2,((#826,#827,#828,#829,#830),(#831,#832,#833,#834,#835),
(#836,#837,#838,#839,#840)),.UNSPECIFIED.,.F.,.F.,.F.)
B_SPLINE_SURFACE_WITH_KNOTS((3,3),(3,2,3),(-1.5707963267949,2.4971090146033E-14),
(-3.14159265358979,-2.18096265316538,-1.22033265274097),.UNSPECIFIED.)
GEOMETRIC_REPRESENTATION_ITEM()
RATIONAL_B_SPLINE_SURFACE(((1.,0.886849418237307,1.,0.886849418237307,1.),
(0.707106781186532,0.62709723752693,0.707106781186532,0.62709723752693,
0.707106781186532),(1.,0.886849418237307,1.,0.886849418237307,1.)))
REPRESENTATION_ITEM('')
SURFACE()
);
#26=(
BOUNDED_SURFACE()
B_SPLINE_SURFACE(2,2,((#852,#853,#854,#855,#856),(#857,#858,#859,#860,#861),
(#862,#863,#864,#865,#866)),.UNSPECIFIED.,.F.,.F.,.F.)
B_SPLINE_SURFACE_WITH_KNOTS((3,3),(3,2,3),(-1.5707963267949,3.800247277646E-14),
(1.22033265274097,2.18096265316538,3.14159265358979),.UNSPECIFIED.)
GEOMETRIC_REPRESENTATION_ITEM()
RATIONAL_B_SPLINE_SURFACE(((1.,0.886849418237307,1.,0.886849418237307,1.),
(0.707106781186535,0.627097237526934,0.707106781186535,0.627097237526934,
0.707106781186535),(1.,0.886849418237307,1.,0.886849418237307,1.)))
REPRESENTATION_ITEM('')
SURFACE()
);
#27=B_SPLINE_CURVE_WITH_KNOTS('',3,(#804,#805,#806,#807,#808,#809,#810,
#811,#812,#813),.UNSPECIFIED.,.F.,.F.,(4,2,2,2,4),(0.,0.0296442552460792,
0.0580339891610258,0.085693325494967,0.0860539663896464),.UNSPECIFIED.);
#28=B_SPLINE_CURVE_WITH_KNOTS('',3,(#815,#816,#817,#818,#819,#820),
 .UNSPECIFIED.,.F.,.F.,(4,2,4),(0.0884387109718287,0.117192383764334,0.118630118939165),
 .UNSPECIFIED.);
#29=B_SPLINE_CURVE_WITH_KNOTS('',3,(#875,#876,#877,#878,#879,#880),
 .UNSPECIFIED.,.F.,.F.,(4,2,4),(0.238332378412176,0.239770113587007,0.268523786379512),
 .UNSPECIFIED.);
#30=B_SPLINE_CURVE_WITH_KNOTS('',3,(#882,#883,#884,#885,#886,#887,#888,
#889,#890,#891),.UNSPECIFIED.,.F.,.F.,(4,2,2,2,4),(-0.000362961000718599,
0.,0.027837276731089,0.0564096499069571,0.086244615072202),
 .UNSPECIFIED.);
#31=B_SPLINE_CURVE_WITH_KNOTS('',3,(#950,#951,#952,#953,#954,#955,#956,
#957,#958,#959,#960,#961,#962,#963,#964,#965,#966),.UNSPECIFIED.,.F.,.F.,
(4,2,2,2,3,2,2,4),(-0.151979489829961,-0.114008696183027,-0.0760379025360924,
-0.0380189512680462,0.,0.0380189512680462,0.0760379025360924,0.107232237692041),
 .UNSPECIFIED.);
#32=B_SPLINE_CURVE_WITH_KNOTS('',3,(#973,#974,#975,#976,#977,#978,#979,
#980,#981,#982,#983,#984,#985,#986,#987,#988),.UNSPECIFIED.,.F.,.F.,(4,
2,2,2,2,2,2,4),(-0.411674998209586,-0.380306038746805,-0.342272298445416,
-0.304238558144026,-0.266204817842636,-0.228171077541247,-0.190075283685604,
-0.151979489829961),.UNSPECIFIED.);
#33=TOROIDAL_SURFACE('',#570,14.4999999999999,0.5);
#34=TOROIDAL_SURFACE('',#582,14.4999999999998,0.5);
#35=STYLED_ITEM('',(#1021),#509);
#36=STYLED_ITEM('',(#1021),#510);
#37=STYLED_ITEM('',(#1021),#511);
#38=STYLED_ITEM('',(#1021),#512);
#39=STYLED_ITEM('',(#1021),#513);
#40=STYLED_ITEM('',(#1021),#514);
#41=STYLED_ITEM('',(#1021),#515);
#42=STYLED_ITEM('',(#1021),#516);
#43=STYLED_ITEM('',(#1021),#517);
#44=STYLED_ITEM('',(#1021),#518);
#45=STYLED_ITEM('',(#1021),#519);
#46=STYLED_ITEM('',(#1021),#520);
#47=STYLED_ITEM('',(#1021),#521);
#48=STYLED_ITEM('',(#1021),#522);
#49=STYLED_ITEM('',(#1021),#523);
#50=STYLED_ITEM('',(#1021),#524);
#51=STYLED_ITEM('',(#1021),#525);
#52=STYLED_ITEM('',(#1021),#526);
#53=STYLED_ITEM('',(#1021),#527);
#54=STYLED_ITEM('',(#1021),#528);
#55=STYLED_ITEM('',(#1021),#529);
#56=STYLED_ITEM('',(#1021),#530);
#57=STYLED_ITEM('',(#1021),#13);
#58=PLANE('',#557);
#59=PLANE('',#585);
#60=PLANE('',#586);
#61=PLANE('',#588);
#62=PLANE('',#599);
#63=PLANE('',#607);
#64=PLANE('',#612);
#65=PLANE('',#613);
#66=PLANE('',#614);
#67=FACE_OUTER_BOUND('',#95,.T.);
#68=FACE_OUTER_BOUND('',#96,.T.);
#69=FACE_OUTER_BOUND('',#97,.T.);
#70=FACE_OUTER_BOUND('',#98,.T.);
#71=FACE_OUTER_BOUND('',#99,.T.);
#72=FACE_OUTER_BOUND('',#100,.T.);
#73=FACE_OUTER_BOUND('',#101,.T.);
#74=FACE_OUTER_BOUND('',#102,.T.);
#75=FACE_OUTER_BOUND('',#103,.T.);
#76=FACE_OUTER_BOUND('',#104,.T.);
#77=FACE_OUTER_BOUND('',#105,.T.);
#78=FACE_OUTER_BOUND('',#106,.T.);
#79=FACE_OUTER_BOUND('',#107,.T.);
#80=FACE_OUTER_BOUND('',#112,.T.);
#81=FACE_OUTER_BOUND('',#113,.T.);
#82=FACE_OUTER_BOUND('',#114,.T.);
#83=FACE_OUTER_BOUND('',#115,.T.);
#84=FACE_OUTER_BOUND('',#116,.T.);
#85=FACE_OUTER_BOUND('',#117,.T.);
#86=FACE_OUTER_BOUND('',#118,.T.);
#87=FACE_OUTER_BOUND('',#119,.T.);
#88=FACE_OUTER_BOUND('',#120,.T.);
#89=FACE_OUTER_BOUND('',#121,.T.);
#90=FACE_OUTER_BOUND('',#122,.T.);
#91=FACE_OUTER_BOUND('',#123,.T.);
#92=FACE_OUTER_BOUND('',#124,.T.);
#93=FACE_OUTER_BOUND('',#125,.T.);
#94=FACE_OUTER_BOUND('',#127,.T.);
#95=EDGE_LOOP('',(#346,#347,#348,#349));
#96=EDGE_LOOP('',(#350));
#97=EDGE_LOOP('',(#351,#352,#353,#354));
#98=EDGE_LOOP('',(#355,#356,#357,#358));
#99=EDGE_LOOP('',(#359,#360,#361,#362));
#100=EDGE_LOOP('',(#363,#364,#365,#366));
#101=EDGE_LOOP('',(#367,#368,#369,#370,#371));
#102=EDGE_LOOP('',(#372,#373,#374,#375));
#103=EDGE_LOOP('',(#376,#377,#378,#379));
#104=EDGE_LOOP('',(#380,#381,#382,#383));
#105=EDGE_LOOP('',(#384,#385,#386,#387,#388));
#106=EDGE_LOOP('',(#389,#390,#391,#392,#393));
#107=EDGE_LOOP('',(#394,#395,#396,#397,#398,#399,#400,#401,#402));
#108=EDGE_LOOP('',(#403));
#109=EDGE_LOOP('',(#404));
#110=EDGE_LOOP('',(#405));
#111=EDGE_LOOP('',(#406));
#112=EDGE_LOOP('',(#407,#408,#409,#410,#411));
#113=EDGE_LOOP('',(#412,#413,#414,#415));
#114=EDGE_LOOP('',(#416,#417,#418,#419));
#115=EDGE_LOOP('',(#420,#421,#422,#423));
#116=EDGE_LOOP('',(#424,#425,#426,#427));
#117=EDGE_LOOP('',(#428,#429,#430,#431));
#118=EDGE_LOOP('',(#432,#433,#434,#435));
#119=EDGE_LOOP('',(#436,#437,#438,#439));
#120=EDGE_LOOP('',(#440,#441,#442,#443));
#121=EDGE_LOOP('',(#444,#445,#446,#447,#448,#449,#450,#451));
#122=EDGE_LOOP('',(#452,#453));
#123=EDGE_LOOP('',(#454,#455,#456,#457,#458,#459,#460));
#124=EDGE_LOOP('',(#461,#462,#463,#464,#465));
#125=EDGE_LOOP('',(#466,#467,#468,#469));
#126=EDGE_LOOP('',(#470));
#127=EDGE_LOOP('',(#471,#472,#473,#474,#475,#476,#477,#478,#479,#480,#481));
#128=EDGE_LOOP('',(#482));
#129=EDGE_LOOP('',(#483));
#130=EDGE_LOOP('',(#484));
#131=EDGE_LOOP('',(#485));
#132=EDGE_LOOP('',(#486));
#133=EDGE_LOOP('',(#487));
#134=LINE('',#774,#164);
#135=LINE('',#781,#165);
#136=LINE('',#787,#166);
#137=LINE('',#793,#167);
#138=LINE('',#799,#168);
#139=LINE('',#850,#169);
#140=LINE('',#851,#170);
#141=LINE('',#896,#171);
#142=LINE('',#898,#172);
#143=LINE('',#900,#173);
#144=LINE('',#901,#174);
#145=LINE('',#904,#175);
#146=LINE('',#907,#176);
#147=LINE('',#910,#177);
#148=LINE('',#912,#178);
#149=LINE('',#913,#179);
#150=LINE('',#916,#180);
#151=LINE('',#920,#181);
#152=LINE('',#925,#182);
#153=LINE('',#929,#183);
#154=LINE('',#933,#184);
#155=LINE('',#936,#185);
#156=LINE('',#937,#186);
#157=LINE('',#941,#187);
#158=LINE('',#948,#188);
#159=LINE('',#968,#189);
#160=LINE('',#972,#190);
#161=LINE('',#990,#191);
#162=LINE('',#995,#192);
#163=LINE('',#1000,#193);
#164=VECTOR('',#621,0.5);
#165=VECTOR('',#630,1.0065);
#166=VECTOR('',#637,1.0065);
#167=VECTOR('',#644,1.0065);
#168=VECTOR('',#651,1.0065);
#169=VECTOR('',#672,10.);
#170=VECTOR('',#673,10.);
#171=VECTOR('',#688,10.);
#172=VECTOR('',#689,10.);
#173=VECTOR('',#690,10.);
#174=VECTOR('',#691,10.);
#175=VECTOR('',#694,10.);
#176=VECTOR('',#697,10.);
#177=VECTOR('',#700,10.);
#178=VECTOR('',#701,10.);
#179=VECTOR('',#702,10.);
#180=VECTOR('',#705,10.);
#181=VECTOR('',#710,10.);
#182=VECTOR('',#717,10.);
#183=VECTOR('',#722,10.);
#184=VECTOR('',#727,10.);
#185=VECTOR('',#730,10.);
#186=VECTOR('',#731,10.);
#187=VECTOR('',#736,10.);
#188=VECTOR('',#745,1.0065);
#189=VECTOR('',#746,10.);
#190=VECTOR('',#749,10.);
#191=VECTOR('',#752,10.);
#192=VECTOR('',#757,5.);
#193=VECTOR('',#766,10.);
#194=CIRCLE('',#555,0.5);
#195=CIRCLE('',#556,0.5);
#196=CIRCLE('',#559,1.0065);
#197=CIRCLE('',#560,1.0065);
#198=CIRCLE('',#562,1.0065);
#199=CIRCLE('',#563,1.0065);
#200=CIRCLE('',#565,1.0065);
#201=CIRCLE('',#566,1.0065);
#202=CIRCLE('',#568,1.0065);
#203=CIRCLE('',#569,1.0065);
#204=CIRCLE('',#571,14.4999999999999);
#205=CIRCLE('',#572,0.49999999999999);
#206=CIRCLE('',#573,13.9999999999999);
#207=CIRCLE('',#574,0.500000000000003);
#208=CIRCLE('',#575,1.);
#209=CIRCLE('',#576,0.5);
#210=CIRCLE('',#578,0.499999999999998);
#211=CIRCLE('',#579,0.500000000000003);
#212=CIRCLE('',#580,1.);
#213=CIRCLE('',#581,0.5);
#214=CIRCLE('',#583,13.9999999999998);
#215=CIRCLE('',#584,14.4999999999998);
#216=CIRCLE('',#587,1.);
#217=CIRCLE('',#590,1.);
#218=CIRCLE('',#592,1.);
#219=CIRCLE('',#594,1.);
#220=CIRCLE('',#596,13.9999999999998);
#221=CIRCLE('',#598,1.);
#222=CIRCLE('',#601,1.);
#223=CIRCLE('',#603,13.9999999999999);
#224=CIRCLE('',#605,1.0065);
#225=CIRCLE('',#606,1.0065);
#226=CIRCLE('',#609,5.);
#227=CIRCLE('',#610,5.);
#228=CIRCLE('',#611,5.);
#229=VERTEX_POINT('',#771);
#230=VERTEX_POINT('',#773);
#231=VERTEX_POINT('',#778);
#232=VERTEX_POINT('',#780);
#233=VERTEX_POINT('',#784);
#234=VERTEX_POINT('',#786);
#235=VERTEX_POINT('',#790);
#236=VERTEX_POINT('',#792);
#237=VERTEX_POINT('',#796);
#238=VERTEX_POINT('',#798);
#239=VERTEX_POINT('',#802);
#240=VERTEX_POINT('',#803);
#241=VERTEX_POINT('',#814);
#242=VERTEX_POINT('',#821);
#243=VERTEX_POINT('',#823);
#244=VERTEX_POINT('',#841);
#245=VERTEX_POINT('',#842);
#246=VERTEX_POINT('',#847);
#247=VERTEX_POINT('',#848);
#248=VERTEX_POINT('',#867);
#249=VERTEX_POINT('',#868);
#250=VERTEX_POINT('',#873);
#251=VERTEX_POINT('',#874);
#252=VERTEX_POINT('',#881);
#253=VERTEX_POINT('',#895);
#254=VERTEX_POINT('',#897);
#255=VERTEX_POINT('',#899);
#256=VERTEX_POINT('',#903);
#257=VERTEX_POINT('',#905);
#258=VERTEX_POINT('',#909);
#259=VERTEX_POINT('',#911);
#260=VERTEX_POINT('',#915);
#261=VERTEX_POINT('',#919);
#262=VERTEX_POINT('',#923);
#263=VERTEX_POINT('',#927);
#264=VERTEX_POINT('',#931);
#265=VERTEX_POINT('',#935);
#266=VERTEX_POINT('',#939);
#267=VERTEX_POINT('',#945);
#268=VERTEX_POINT('',#947);
#269=VERTEX_POINT('',#949);
#270=VERTEX_POINT('',#967);
#271=VERTEX_POINT('',#969);
#272=VERTEX_POINT('',#971);
#273=VERTEX_POINT('',#992);
#274=VERTEX_POINT('',#994);
#275=EDGE_CURVE('',#229,#229,#194,.T.);
#276=EDGE_CURVE('',#229,#230,#134,.T.);
#277=EDGE_CURVE('',#230,#230,#195,.T.);
#278=EDGE_CURVE('',#231,#231,#196,.T.);
#279=EDGE_CURVE('',#231,#232,#135,.T.);
#280=EDGE_CURVE('',#232,#232,#197,.T.);
#281=EDGE_CURVE('',#233,#233,#198,.T.);
#282=EDGE_CURVE('',#233,#234,#136,.T.);
#283=EDGE_CURVE('',#234,#234,#199,.T.);
#284=EDGE_CURVE('',#235,#235,#200,.T.);
#285=EDGE_CURVE('',#235,#236,#137,.T.);
#286=EDGE_CURVE('',#236,#236,#201,.T.);
#287=EDGE_CURVE('',#237,#237,#202,.T.);
#288=EDGE_CURVE('',#237,#238,#138,.T.);
#289=EDGE_CURVE('',#238,#238,#203,.T.);
#290=EDGE_CURVE('',#239,#240,#27,.T.);
#291=EDGE_CURVE('',#241,#239,#28,.T.);
#292=EDGE_CURVE('',#242,#241,#204,.T.);
#293=EDGE_CURVE('',#243,#242,#205,.T.);
#294=EDGE_CURVE('',#240,#243,#206,.T.);
#295=EDGE_CURVE('',#244,#245,#207,.T.);
#296=EDGE_CURVE('',#243,#244,#208,.T.);
#297=EDGE_CURVE('',#245,#242,#209,.T.);
#298=EDGE_CURVE('',#246,#247,#210,.T.);
#299=EDGE_CURVE('',#244,#246,#139,.T.);
#300=EDGE_CURVE('',#247,#245,#140,.T.);
#301=EDGE_CURVE('',#248,#249,#211,.T.);
#302=EDGE_CURVE('',#246,#248,#212,.T.);
#303=EDGE_CURVE('',#249,#247,#213,.T.);
#304=EDGE_CURVE('',#250,#251,#29,.T.);
#305=EDGE_CURVE('',#252,#250,#30,.T.);
#306=EDGE_CURVE('',#248,#252,#214,.T.);
#307=EDGE_CURVE('',#251,#249,#215,.T.);
#308=EDGE_CURVE('',#239,#253,#141,.T.);
#309=EDGE_CURVE('',#254,#253,#142,.T.);
#310=EDGE_CURVE('',#254,#255,#143,.T.);
#311=EDGE_CURVE('',#255,#241,#144,.T.);
#312=EDGE_CURVE('',#256,#255,#145,.T.);
#313=EDGE_CURVE('',#256,#257,#216,.T.);
#314=EDGE_CURVE('',#251,#257,#146,.T.);
#315=EDGE_CURVE('',#257,#258,#147,.T.);
#316=EDGE_CURVE('',#259,#258,#148,.T.);
#317=EDGE_CURVE('',#259,#250,#149,.T.);
#318=EDGE_CURVE('',#260,#256,#150,.T.);
#319=EDGE_CURVE('',#258,#260,#217,.T.);
#320=EDGE_CURVE('',#261,#240,#151,.T.);
#321=EDGE_CURVE('',#253,#261,#218,.T.);
#322=EDGE_CURVE('',#262,#259,#219,.T.);
#323=EDGE_CURVE('',#252,#262,#152,.T.);
#324=EDGE_CURVE('',#263,#262,#220,.T.);
#325=EDGE_CURVE('',#263,#248,#153,.T.);
#326=EDGE_CURVE('',#264,#263,#221,.T.);
#327=EDGE_CURVE('',#246,#264,#154,.T.);
#328=EDGE_CURVE('',#265,#264,#155,.T.);
#329=EDGE_CURVE('',#265,#244,#156,.T.);
#330=EDGE_CURVE('',#266,#265,#222,.T.);
#331=EDGE_CURVE('',#243,#266,#157,.T.);
#332=EDGE_CURVE('',#261,#266,#223,.T.);
#333=EDGE_CURVE('',#267,#267,#224,.T.);
#334=EDGE_CURVE('',#267,#268,#158,.T.);
#335=EDGE_CURVE('',#268,#269,#31,.T.);
#336=EDGE_CURVE('',#269,#270,#159,.T.);
#337=EDGE_CURVE('',#270,#271,#225,.T.);
#338=EDGE_CURVE('',#271,#272,#160,.T.);
#339=EDGE_CURVE('',#272,#268,#32,.T.);
#340=EDGE_CURVE('',#270,#271,#161,.T.);
#341=EDGE_CURVE('',#272,#273,#226,.T.);
#342=EDGE_CURVE('',#273,#274,#162,.T.);
#343=EDGE_CURVE('',#274,#274,#227,.T.);
#344=EDGE_CURVE('',#273,#269,#228,.T.);
#345=EDGE_CURVE('',#260,#254,#163,.T.);
#346=ORIENTED_EDGE('',*,*,#275,.F.);
#347=ORIENTED_EDGE('',*,*,#276,.T.);
#348=ORIENTED_EDGE('',*,*,#277,.T.);
#349=ORIENTED_EDGE('',*,*,#276,.F.);
#350=ORIENTED_EDGE('',*,*,#277,.F.);
#351=ORIENTED_EDGE('',*,*,#278,.F.);
#352=ORIENTED_EDGE('',*,*,#279,.T.);
#353=ORIENTED_EDGE('',*,*,#280,.F.);
#354=ORIENTED_EDGE('',*,*,#279,.F.);
#355=ORIENTED_EDGE('',*,*,#281,.F.);
#356=ORIENTED_EDGE('',*,*,#282,.T.);
#357=ORIENTED_EDGE('',*,*,#283,.F.);
#358=ORIENTED_EDGE('',*,*,#282,.F.);
#359=ORIENTED_EDGE('',*,*,#284,.F.);
#360=ORIENTED_EDGE('',*,*,#285,.T.);
#361=ORIENTED_EDGE('',*,*,#286,.F.);
#362=ORIENTED_EDGE('',*,*,#285,.F.);
#363=ORIENTED_EDGE('',*,*,#287,.F.);
#364=ORIENTED_EDGE('',*,*,#288,.T.);
#365=ORIENTED_EDGE('',*,*,#289,.F.);
#366=ORIENTED_EDGE('',*,*,#288,.F.);
#367=ORIENTED_EDGE('',*,*,#290,.F.);
#368=ORIENTED_EDGE('',*,*,#291,.F.);
#369=ORIENTED_EDGE('',*,*,#292,.F.);
#370=ORIENTED_EDGE('',*,*,#293,.F.);
#371=ORIENTED_EDGE('',*,*,#294,.F.);
#372=ORIENTED_EDGE('',*,*,#295,.F.);
#373=ORIENTED_EDGE('',*,*,#296,.F.);
#374=ORIENTED_EDGE('',*,*,#293,.T.);
#375=ORIENTED_EDGE('',*,*,#297,.F.);
#376=ORIENTED_EDGE('',*,*,#298,.F.);
#377=ORIENTED_EDGE('',*,*,#299,.F.);
#378=ORIENTED_EDGE('',*,*,#295,.T.);
#379=ORIENTED_EDGE('',*,*,#300,.F.);
#380=ORIENTED_EDGE('',*,*,#301,.F.);
#381=ORIENTED_EDGE('',*,*,#302,.F.);
#382=ORIENTED_EDGE('',*,*,#298,.T.);
#383=ORIENTED_EDGE('',*,*,#303,.F.);
#384=ORIENTED_EDGE('',*,*,#304,.F.);
#385=ORIENTED_EDGE('',*,*,#305,.F.);
#386=ORIENTED_EDGE('',*,*,#306,.F.);
#387=ORIENTED_EDGE('',*,*,#301,.T.);
#388=ORIENTED_EDGE('',*,*,#307,.F.);
#389=ORIENTED_EDGE('',*,*,#291,.T.);
#390=ORIENTED_EDGE('',*,*,#308,.T.);
#391=ORIENTED_EDGE('',*,*,#309,.F.);
#392=ORIENTED_EDGE('',*,*,#310,.T.);
#393=ORIENTED_EDGE('',*,*,#311,.T.);
#394=ORIENTED_EDGE('',*,*,#292,.T.);
#395=ORIENTED_EDGE('',*,*,#311,.F.);
#396=ORIENTED_EDGE('',*,*,#312,.F.);
#397=ORIENTED_EDGE('',*,*,#313,.T.);
#398=ORIENTED_EDGE('',*,*,#314,.F.);
#399=ORIENTED_EDGE('',*,*,#307,.T.);
#400=ORIENTED_EDGE('',*,*,#303,.T.);
#401=ORIENTED_EDGE('',*,*,#300,.T.);
#402=ORIENTED_EDGE('',*,*,#297,.T.);
#403=ORIENTED_EDGE('',*,*,#280,.T.);
#404=ORIENTED_EDGE('',*,*,#283,.T.);
#405=ORIENTED_EDGE('',*,*,#286,.T.);
#406=ORIENTED_EDGE('',*,*,#289,.T.);
#407=ORIENTED_EDGE('',*,*,#304,.T.);
#408=ORIENTED_EDGE('',*,*,#314,.T.);
#409=ORIENTED_EDGE('',*,*,#315,.T.);
#410=ORIENTED_EDGE('',*,*,#316,.F.);
#411=ORIENTED_EDGE('',*,*,#317,.T.);
#412=ORIENTED_EDGE('',*,*,#313,.F.);
#413=ORIENTED_EDGE('',*,*,#318,.F.);
#414=ORIENTED_EDGE('',*,*,#319,.F.);
#415=ORIENTED_EDGE('',*,*,#315,.F.);
#416=ORIENTED_EDGE('',*,*,#290,.T.);
#417=ORIENTED_EDGE('',*,*,#320,.F.);
#418=ORIENTED_EDGE('',*,*,#321,.F.);
#419=ORIENTED_EDGE('',*,*,#308,.F.);
#420=ORIENTED_EDGE('',*,*,#305,.T.);
#421=ORIENTED_EDGE('',*,*,#317,.F.);
#422=ORIENTED_EDGE('',*,*,#322,.F.);
#423=ORIENTED_EDGE('',*,*,#323,.F.);
#424=ORIENTED_EDGE('',*,*,#306,.T.);
#425=ORIENTED_EDGE('',*,*,#323,.T.);
#426=ORIENTED_EDGE('',*,*,#324,.F.);
#427=ORIENTED_EDGE('',*,*,#325,.T.);
#428=ORIENTED_EDGE('',*,*,#302,.T.);
#429=ORIENTED_EDGE('',*,*,#325,.F.);
#430=ORIENTED_EDGE('',*,*,#326,.F.);
#431=ORIENTED_EDGE('',*,*,#327,.F.);
#432=ORIENTED_EDGE('',*,*,#299,.T.);
#433=ORIENTED_EDGE('',*,*,#327,.T.);
#434=ORIENTED_EDGE('',*,*,#328,.F.);
#435=ORIENTED_EDGE('',*,*,#329,.T.);
#436=ORIENTED_EDGE('',*,*,#296,.T.);
#437=ORIENTED_EDGE('',*,*,#329,.F.);
#438=ORIENTED_EDGE('',*,*,#330,.F.);
#439=ORIENTED_EDGE('',*,*,#331,.F.);
#440=ORIENTED_EDGE('',*,*,#294,.T.);
#441=ORIENTED_EDGE('',*,*,#331,.T.);
#442=ORIENTED_EDGE('',*,*,#332,.F.);
#443=ORIENTED_EDGE('',*,*,#320,.T.);
#444=ORIENTED_EDGE('',*,*,#333,.T.);
#445=ORIENTED_EDGE('',*,*,#334,.T.);
#446=ORIENTED_EDGE('',*,*,#335,.T.);
#447=ORIENTED_EDGE('',*,*,#336,.T.);
#448=ORIENTED_EDGE('',*,*,#337,.T.);
#449=ORIENTED_EDGE('',*,*,#338,.T.);
#450=ORIENTED_EDGE('',*,*,#339,.T.);
#451=ORIENTED_EDGE('',*,*,#334,.F.);
#452=ORIENTED_EDGE('',*,*,#340,.T.);
#453=ORIENTED_EDGE('',*,*,#337,.F.);
#454=ORIENTED_EDGE('',*,*,#339,.F.);
#455=ORIENTED_EDGE('',*,*,#341,.T.);
#456=ORIENTED_EDGE('',*,*,#342,.T.);
#457=ORIENTED_EDGE('',*,*,#343,.F.);
#458=ORIENTED_EDGE('',*,*,#342,.F.);
#459=ORIENTED_EDGE('',*,*,#344,.T.);
#460=ORIENTED_EDGE('',*,*,#335,.F.);
#461=ORIENTED_EDGE('',*,*,#338,.F.);
#462=ORIENTED_EDGE('',*,*,#340,.F.);
#463=ORIENTED_EDGE('',*,*,#336,.F.);
#464=ORIENTED_EDGE('',*,*,#344,.F.);
#465=ORIENTED_EDGE('',*,*,#341,.F.);
#466=ORIENTED_EDGE('',*,*,#318,.T.);
#467=ORIENTED_EDGE('',*,*,#312,.T.);
#468=ORIENTED_EDGE('',*,*,#310,.F.);
#469=ORIENTED_EDGE('',*,*,#345,.F.);
#470=ORIENTED_EDGE('',*,*,#333,.F.);
#471=ORIENTED_EDGE('',*,*,#319,.T.);
#472=ORIENTED_EDGE('',*,*,#345,.T.);
#473=ORIENTED_EDGE('',*,*,#309,.T.);
#474=ORIENTED_EDGE('',*,*,#321,.T.);
#475=ORIENTED_EDGE('',*,*,#332,.T.);
#476=ORIENTED_EDGE('',*,*,#330,.T.);
#477=ORIENTED_EDGE('',*,*,#328,.T.);
#478=ORIENTED_EDGE('',*,*,#326,.T.);
#479=ORIENTED_EDGE('',*,*,#324,.T.);
#480=ORIENTED_EDGE('',*,*,#322,.T.);
#481=ORIENTED_EDGE('',*,*,#316,.T.);
#482=ORIENTED_EDGE('',*,*,#275,.T.);
#483=ORIENTED_EDGE('',*,*,#278,.T.);
#484=ORIENTED_EDGE('',*,*,#281,.T.);
#485=ORIENTED_EDGE('',*,*,#284,.T.);
#486=ORIENTED_EDGE('',*,*,#287,.T.);
#487=ORIENTED_EDGE('',*,*,#343,.T.);
#488=CYLINDRICAL_SURFACE('',#554,0.5);
#489=CYLINDRICAL_SURFACE('',#558,1.0065);
#490=CYLINDRICAL_SURFACE('',#561,1.0065);
#491=CYLINDRICAL_SURFACE('',#564,1.0065);
#492=CYLINDRICAL_SURFACE('',#567,1.0065);
#493=CYLINDRICAL_SURFACE('',#577,0.5);
#494=CYLINDRICAL_SURFACE('',#589,1.);
#495=CYLINDRICAL_SURFACE('',#591,1.);
#496=CYLINDRICAL_SURFACE('',#593,1.);
#497=CYLINDRICAL_SURFACE('',#595,13.9999999999998);
#498=CYLINDRICAL_SURFACE('',#597,1.);
#499=CYLINDRICAL_SURFACE('',#600,1.);
#500=CYLINDRICAL_SURFACE('',#602,13.9999999999999);
#501=CYLINDRICAL_SURFACE('',#604,1.0065);
#502=CYLINDRICAL_SURFACE('',#608,5.);
#503=ADVANCED_FACE('',(#67),#488,.F.);
#504=ADVANCED_FACE('',(#68),#58,.T.);
#505=ADVANCED_FACE('',(#69),#489,.F.);
#506=ADVANCED_FACE('',(#70),#490,.F.);
#507=ADVANCED_FACE('',(#71),#491,.F.);
#508=ADVANCED_FACE('',(#72),#492,.F.);
#509=ADVANCED_FACE('',(#73),#33,.T.);
#510=ADVANCED_FACE('',(#74),#25,.T.);
#511=ADVANCED_FACE('',(#75),#493,.T.);
#512=ADVANCED_FACE('',(#76),#26,.T.);
#513=ADVANCED_FACE('',(#77),#34,.T.);
#514=ADVANCED_FACE('',(#78),#59,.F.);
#515=ADVANCED_FACE('',(#79,#14,#15,#16,#17),#60,.F.);
#516=ADVANCED_FACE('',(#80),#61,.F.);
#517=ADVANCED_FACE('',(#81),#494,.T.);
#518=ADVANCED_FACE('',(#82),#495,.T.);
#519=ADVANCED_FACE('',(#83),#496,.T.);
#520=ADVANCED_FACE('',(#84),#497,.F.);
#521=ADVANCED_FACE('',(#85),#498,.T.);
#522=ADVANCED_FACE('',(#86),#62,.F.);
#523=ADVANCED_FACE('',(#87),#499,.T.);
#524=ADVANCED_FACE('',(#88),#500,.F.);
#525=ADVANCED_FACE('',(#89),#501,.F.);
#526=ADVANCED_FACE('',(#90),#63,.F.);
#527=ADVANCED_FACE('',(#91),#502,.F.);
#528=ADVANCED_FACE('',(#92),#64,.T.);
#529=ADVANCED_FACE('',(#93,#18),#65,.F.);
#530=ADVANCED_FACE('',(#94,#19,#20,#21,#22,#23,#24),#66,.T.);
#531=CLOSED_SHELL('',(#503,#504,#505,#506,#507,#508,#509,#510,#511,#512,
#513,#514,#515,#516,#517,#518,#519,#520,#521,#522,#523,#524,#525,#526,#527,
#528,#529,#530));
#532=DERIVED_UNIT_ELEMENT(#535,1.);
#533=DERIVED_UNIT_ELEMENT(#1007,-3.);
#534=DIMENSIONAL_EXPONENTS(0.,1.,0.,0.,0.,0.,0.);
#535=(
CONVERSION_BASED_UNIT('gram',#537)
MASS_UNIT()
NAMED_UNIT(#534)
);
#536=(
MASS_UNIT()
NAMED_UNIT(*)
SI_UNIT(.KILO.,.GRAM.)
);
#537=MASS_MEASURE_WITH_UNIT(MASS_MEASURE(0.001),#536);
#538=DERIVED_UNIT((#532,#533));
#539=MEASURE_REPRESENTATION_ITEM('density measure',
POSITIVE_RATIO_MEASURE(1.),#538);
#540=PROPERTY_DEFINITION_REPRESENTATION(#545,#542);
#541=PROPERTY_DEFINITION_REPRESENTATION(#546,#543);
#542=REPRESENTATION('material name',(#544),#1004);
#543=REPRESENTATION('density',(#539),#1004);
#544=DESCRIPTIVE_REPRESENTATION_ITEM('Generic','Generic');
#545=PROPERTY_DEFINITION('material property','material name',#1014);
#546=PROPERTY_DEFINITION('material property','density of part',#1014);
#547=DATE_TIME_ROLE('creation_date');
#548=APPLIED_DATE_AND_TIME_ASSIGNMENT(#549,#547,(#1014));
#549=DATE_AND_TIME(#550,#551);
#550=CALENDAR_DATE(2026,14,4);
#551=LOCAL_TIME(0,0,0.,#552);
#552=COORDINATED_UNIVERSAL_TIME_OFFSET(0,0,.BEHIND.);
#553=AXIS2_PLACEMENT_3D('',#769,#615,#616);
#554=AXIS2_PLACEMENT_3D('',#770,#617,#618);
#555=AXIS2_PLACEMENT_3D('',#772,#619,#620);
#556=AXIS2_PLACEMENT_3D('',#775,#622,#623);
#557=AXIS2_PLACEMENT_3D('',#776,#624,#625);
#558=AXIS2_PLACEMENT_3D('',#777,#626,#627);
#559=AXIS2_PLACEMENT_3D('',#779,#628,#629);
#560=AXIS2_PLACEMENT_3D('',#782,#631,#632);
#561=AXIS2_PLACEMENT_3D('',#783,#633,#634);
#562=AXIS2_PLACEMENT_3D('',#785,#635,#636);
#563=AXIS2_PLACEMENT_3D('',#788,#638,#639);
#564=AXIS2_PLACEMENT_3D('',#789,#640,#641);
#565=AXIS2_PLACEMENT_3D('',#791,#642,#643);
#566=AXIS2_PLACEMENT_3D('',#794,#645,#646);
#567=AXIS2_PLACEMENT_3D('',#795,#647,#648);
#568=AXIS2_PLACEMENT_3D('',#797,#649,#650);
#569=AXIS2_PLACEMENT_3D('',#800,#652,#653);
#570=AXIS2_PLACEMENT_3D('',#801,#654,#655);
#571=AXIS2_PLACEMENT_3D('',#822,#656,#657);
#572=AXIS2_PLACEMENT_3D('',#824,#658,#659);
#573=AXIS2_PLACEMENT_3D('',#825,#660,#661);
#574=AXIS2_PLACEMENT_3D('',#843,#662,#663);
#575=AXIS2_PLACEMENT_3D('',#844,#664,#665);
#576=AXIS2_PLACEMENT_3D('',#845,#666,#667);
#577=AXIS2_PLACEMENT_3D('',#846,#668,#669);
#578=AXIS2_PLACEMENT_3D('',#849,#670,#671);
#579=AXIS2_PLACEMENT_3D('',#869,#674,#675);
#580=AXIS2_PLACEMENT_3D('',#870,#676,#677);
#581=AXIS2_PLACEMENT_3D('',#871,#678,#679);
#582=AXIS2_PLACEMENT_3D('',#872,#680,#681);
#583=AXIS2_PLACEMENT_3D('',#892,#682,#683);
#584=AXIS2_PLACEMENT_3D('',#893,#684,#685);
#585=AXIS2_PLACEMENT_3D('',#894,#686,#687);
#586=AXIS2_PLACEMENT_3D('',#902,#692,#693);
#587=AXIS2_PLACEMENT_3D('',#906,#695,#696);
#588=AXIS2_PLACEMENT_3D('',#908,#698,#699);
#589=AXIS2_PLACEMENT_3D('',#914,#703,#704);
#590=AXIS2_PLACEMENT_3D('',#917,#706,#707);
#591=AXIS2_PLACEMENT_3D('',#918,#708,#709);
#592=AXIS2_PLACEMENT_3D('',#921,#711,#712);
#593=AXIS2_PLACEMENT_3D('',#922,#713,#714);
#594=AXIS2_PLACEMENT_3D('',#924,#715,#716);
#595=AXIS2_PLACEMENT_3D('',#926,#718,#719);
#596=AXIS2_PLACEMENT_3D('',#928,#720,#721);
#597=AXIS2_PLACEMENT_3D('',#930,#723,#724);
#598=AXIS2_PLACEMENT_3D('',#932,#725,#726);
#599=AXIS2_PLACEMENT_3D('',#934,#728,#729);
#600=AXIS2_PLACEMENT_3D('',#938,#732,#733);
#601=AXIS2_PLACEMENT_3D('',#940,#734,#735);
#602=AXIS2_PLACEMENT_3D('',#942,#737,#738);
#603=AXIS2_PLACEMENT_3D('',#943,#739,#740);
#604=AXIS2_PLACEMENT_3D('',#944,#741,#742);
#605=AXIS2_PLACEMENT_3D('',#946,#743,#744);
#606=AXIS2_PLACEMENT_3D('',#970,#747,#748);
#607=AXIS2_PLACEMENT_3D('',#989,#750,#751);
#608=AXIS2_PLACEMENT_3D('',#991,#753,#754);
#609=AXIS2_PLACEMENT_3D('',#993,#755,#756);
#610=AXIS2_PLACEMENT_3D('',#996,#758,#759);
#611=AXIS2_PLACEMENT_3D('',#997,#760,#761);
#612=AXIS2_PLACEMENT_3D('',#998,#762,#763);
#613=AXIS2_PLACEMENT_3D('',#999,#764,#765);
#614=AXIS2_PLACEMENT_3D('',#1001,#767,#768);
#615=DIRECTION('axis',(0.,0.,1.));
#616=DIRECTION('refdir',(1.,0.,0.));
#617=DIRECTION('center_axis',(0.,0.,-1.));
#618=DIRECTION('ref_axis',(1.,2.81112168427334E-16,0.));
#619=DIRECTION('center_axis',(0.,0.,-1.));
#620=DIRECTION('ref_axis',(1.,2.81112168427334E-16,0.));
#621=DIRECTION('',(0.,0.,-1.));
#622=DIRECTION('center_axis',(0.,0.,-1.));
#623=DIRECTION('ref_axis',(1.,2.81112168427334E-16,0.));
#624=DIRECTION('center_axis',(0.,0.,1.));
#625=DIRECTION('ref_axis',(1.,0.,0.));
#626=DIRECTION('center_axis',(0.,0.,1.));
#627=DIRECTION('ref_axis',(1.,2.81112168427334E-16,0.));
#628=DIRECTION('center_axis',(0.,0.,-1.));
#629=DIRECTION('ref_axis',(1.,2.81112168427334E-16,0.));
#630=DIRECTION('',(0.,0.,-1.));
#631=DIRECTION('center_axis',(-2.64811259196068E-15,8.6223205396946E-17,
1.));
#632=DIRECTION('ref_axis',(1.,2.81112168427334E-16,0.));
#633=DIRECTION('center_axis',(0.,0.,1.));
#634=DIRECTION('ref_axis',(1.,2.81112168427334E-16,0.));
#635=DIRECTION('center_axis',(0.,0.,-1.));
#636=DIRECTION('ref_axis',(1.,2.81112168427334E-16,0.));
#637=DIRECTION('',(0.,0.,-1.));
#638=DIRECTION('center_axis',(-2.64811259196068E-15,8.6223205396946E-17,
1.));
#639=DIRECTION('ref_axis',(1.,2.81112168427334E-16,0.));
#640=DIRECTION('center_axis',(0.,0.,1.));
#641=DIRECTION('ref_axis',(1.,2.81112168427334E-16,0.));
#642=DIRECTION('center_axis',(0.,0.,-1.));
#643=DIRECTION('ref_axis',(1.,2.81112168427334E-16,0.));
#644=DIRECTION('',(0.,0.,-1.));
#645=DIRECTION('center_axis',(-2.64811259196068E-15,8.6223205396946E-17,
1.));
#646=DIRECTION('ref_axis',(1.,2.81112168427334E-16,0.));
#647=DIRECTION('center_axis',(0.,0.,1.));
#648=DIRECTION('ref_axis',(1.,2.81112168427334E-16,0.));
#649=DIRECTION('center_axis',(0.,0.,-1.));
#650=DIRECTION('ref_axis',(1.,2.81112168427334E-16,0.));
#651=DIRECTION('',(0.,0.,-1.));
#652=DIRECTION('center_axis',(-2.64811259196068E-15,8.6223205396946E-17,
1.));
#653=DIRECTION('ref_axis',(1.,2.81112168427334E-16,0.));
#654=DIRECTION('center_axis',(-2.64811259196068E-15,8.6223205396946E-17,
1.));
#655=DIRECTION('ref_axis',(-1.,0.,-2.63492931177705E-15));
#656=DIRECTION('center_axis',(-2.64811259196068E-15,8.6223205396946E-17,
1.));
#657=DIRECTION('ref_axis',(-0.19266418608037,0.981264750921987,-5.94804249346812E-16));
#658=DIRECTION('center_axis',(0.939213619057036,-0.343333333333342,0.));
#659=DIRECTION('ref_axis',(-0.343333333333342,-0.939213619057036,-1.11022302462518E-15));
#660=DIRECTION('center_axis',(2.64811259196068E-15,-8.6223205396946E-17,
-1.));
#661=DIRECTION('ref_axis',(-0.19266418608037,0.981264750921987,-5.94762334620623E-16));
#662=DIRECTION('center_axis',(0.,1.,0.));
#663=DIRECTION('ref_axis',(1.,0.,2.2204460492503E-15));
#664=DIRECTION('center_axis',(-2.64811259196068E-15,8.6223205396946E-17,
1.));
#665=DIRECTION('ref_axis',(0.573003781255699,-0.819552723542952,1.59594559789866E-15));
#666=DIRECTION('center_axis',(2.64811259196068E-15,-8.6223205396946E-17,
-1.));
#667=DIRECTION('ref_axis',(0.573003781255699,-0.819552723542952,1.58804299119997E-15));
#668=DIRECTION('center_axis',(0.,-1.,8.6223205396946E-17));
#669=DIRECTION('ref_axis',(0.707106781186546,0.,-0.707106781186549));
#670=DIRECTION('center_axis',(0.,1.,0.));
#671=DIRECTION('ref_axis',(1.,0.,0.));
#672=DIRECTION('',(0.,1.,-8.6223205396946E-17));
#673=DIRECTION('',(0.,-1.,8.6223205396946E-17));
#674=DIRECTION('center_axis',(-0.939213619057038,-0.343333333333338,0.));
#675=DIRECTION('ref_axis',(-0.343333333333338,0.939213619057038,-1.11022302462515E-15));
#676=DIRECTION('center_axis',(-2.64811259196068E-15,8.6223205396946E-17,
1.));
#677=DIRECTION('ref_axis',(0.573003781255701,0.819552723542951,1.45716771982052E-15));
#678=DIRECTION('center_axis',(2.64811259196068E-15,-8.6223205396946E-17,
-1.));
#679=DIRECTION('ref_axis',(0.573003781255701,0.819552723542951,1.44671406556863E-15));
#680=DIRECTION('center_axis',(-2.64811259196068E-15,8.6223205396946E-17,
1.));
#681=DIRECTION('ref_axis',(-1.,0.,-2.63492931177707E-15));
#682=DIRECTION('center_axis',(2.64811259196068E-15,-8.6223205396946E-17,
-1.));
#683=DIRECTION('ref_axis',(-0.192664186080372,-0.981264750921986,-4.26246339811449E-16));
#684=DIRECTION('center_axis',(-2.64811259196068E-15,8.6223205396946E-17,
1.));
#685=DIRECTION('ref_axis',(-0.192664186080372,-0.981264750921986,-4.25588665011759E-16));
#686=DIRECTION('center_axis',(0.,1.,0.));
#687=DIRECTION('ref_axis',(1.,0.,0.));
#688=DIRECTION('',(0.,0.,1.));
#689=DIRECTION('',(1.,0.,0.));
#690=DIRECTION('',(0.,0.,-1.));
#691=DIRECTION('',(1.,-1.09887137908187E-32,2.64811259196068E-15));
#692=DIRECTION('center_axis',(-2.64811259196068E-15,8.6223205396946E-17,
1.));
#693=DIRECTION('ref_axis',(1.,0.,2.64811259196068E-15));
#694=DIRECTION('',(2.94318881035877E-16,-1.,8.62232053969467E-17));
#695=DIRECTION('center_axis',(2.64811259196068E-15,-8.6223205396946E-17,
-1.));
#696=DIRECTION('ref_axis',(-0.707106781186549,0.707106781186546,0.));
#697=DIRECTION('',(-1.,1.09887137908187E-32,-2.64811259196068E-15));
#698=DIRECTION('center_axis',(0.,-1.,0.));
#699=DIRECTION('ref_axis',(-1.,0.,0.));
#700=DIRECTION('',(0.,0.,1.));
#701=DIRECTION('',(-1.,0.,0.));
#702=DIRECTION('',(0.,0.,-1.));
#703=DIRECTION('center_axis',(0.,0.,1.));
#704=DIRECTION('ref_axis',(-0.707106781186549,0.707106781186546,0.));
#705=DIRECTION('',(0.,0.,-1.));
#706=DIRECTION('center_axis',(0.,0.,1.));
#707=DIRECTION('ref_axis',(-0.707106781186549,0.707106781186546,0.));
#708=DIRECTION('center_axis',(0.,0.,1.));
#709=DIRECTION('ref_axis',(0.360783947762006,-0.932649421292515,0.));
#710=DIRECTION('',(0.,0.,-1.));
#711=DIRECTION('center_axis',(0.,0.,1.));
#712=DIRECTION('ref_axis',(0.360783947762006,-0.932649421292515,0.));
#713=DIRECTION('center_axis',(0.,0.,1.));
#714=DIRECTION('ref_axis',(0.360783947762006,0.932649421292514,0.));
#715=DIRECTION('center_axis',(0.,0.,1.));
#716=DIRECTION('ref_axis',(0.360783947762006,0.932649421292514,0.));
#717=DIRECTION('',(0.,0.,1.));
#718=DIRECTION('center_axis',(0.,0.,1.));
#719=DIRECTION('ref_axis',(-1.,0.,0.));
#720=DIRECTION('center_axis',(0.,0.,-1.));
#721=DIRECTION('ref_axis',(-1.,0.,0.));
#722=DIRECTION('',(0.,0.,-1.));
#723=DIRECTION('center_axis',(0.,0.,1.));
#724=DIRECTION('ref_axis',(0.573003781255701,0.819552723542951,0.));
#725=DIRECTION('center_axis',(0.,0.,1.));
#726=DIRECTION('ref_axis',(0.573003781255701,0.819552723542951,0.));
#727=DIRECTION('',(0.,0.,1.));
#728=DIRECTION('center_axis',(-1.,0.,0.));
#729=DIRECTION('ref_axis',(0.,1.,0.));
#730=DIRECTION('',(0.,1.,0.));
#731=DIRECTION('',(0.,0.,-1.));
#732=DIRECTION('center_axis',(0.,0.,1.));
#733=DIRECTION('ref_axis',(0.573003781255701,-0.819552723542951,0.));
#734=DIRECTION('center_axis',(0.,0.,1.));
#735=DIRECTION('ref_axis',(0.573003781255701,-0.819552723542951,0.));
#736=DIRECTION('',(0.,0.,1.));
#737=DIRECTION('center_axis',(0.,0.,1.));
#738=DIRECTION('ref_axis',(-1.,0.,0.));
#739=DIRECTION('center_axis',(0.,0.,-1.));
#740=DIRECTION('ref_axis',(-1.,0.,0.));
#741=DIRECTION('center_axis',(1.,2.94318881035878E-16,0.));
#742=DIRECTION('ref_axis',(0.,0.,-1.));
#743=DIRECTION('center_axis',(-1.,-2.94318881035878E-16,0.));
#744=DIRECTION('ref_axis',(0.,0.,-1.));
#745=DIRECTION('',(1.,2.94318881035878E-16,0.));
#746=DIRECTION('',(1.,2.94318881035878E-16,0.));
#747=DIRECTION('center_axis',(1.,2.94318881035878E-16,0.));
#748=DIRECTION('ref_axis',(0.,0.,-1.));
#749=DIRECTION('',(-1.,-2.94318881035878E-16,0.));
#750=DIRECTION('center_axis',(1.,2.94318881035878E-16,0.));
#751=DIRECTION('ref_axis',(0.,0.,-1.));
#752=DIRECTION('',(-2.94318881035878E-16,1.,-8.62232053969467E-17));
#753=DIRECTION('center_axis',(0.,0.,1.));
#754=DIRECTION('ref_axis',(-1.,0.,0.));
#755=DIRECTION('center_axis',(0.,0.,-1.));
#756=DIRECTION('ref_axis',(-1.,0.,0.));
#757=DIRECTION('',(0.,0.,1.));
#758=DIRECTION('center_axis',(0.,0.,-1.));
#759=DIRECTION('ref_axis',(-1.,0.,0.));
#760=DIRECTION('center_axis',(0.,0.,-1.));
#761=DIRECTION('ref_axis',(-1.,0.,0.));
#762=DIRECTION('center_axis',(-2.64811259196068E-15,8.6223205396946E-17,
1.));
#763=DIRECTION('ref_axis',(1.,0.,2.64811259196068E-15));
#764=DIRECTION('center_axis',(1.,2.94318881035878E-16,0.));
#765=DIRECTION('ref_axis',(2.94318881035878E-16,-1.,0.));
#766=DIRECTION('',(2.94318881035878E-16,-1.,0.));
#767=DIRECTION('center_axis',(0.,0.,1.));
#768=DIRECTION('ref_axis',(1.,0.,0.));
#769=CARTESIAN_POINT('',(0.,0.,0.));
#770=CARTESIAN_POINT('Origin',(4.2592841548998,-26.7954730746461,0.));
#771=CARTESIAN_POINT('',(3.7592841548998,-26.7954730746461,0.));
#772=CARTESIAN_POINT('Origin',(4.2592841548998,-26.7954730746461,0.));
#773=CARTESIAN_POINT('',(3.7592841548998,-26.7954730746461,-1.));
#774=CARTESIAN_POINT('',(3.7592841548998,-26.7954730746461,0.));
#775=CARTESIAN_POINT('Origin',(4.2592841548998,-26.7954730746461,-1.));
#776=CARTESIAN_POINT('Origin',(4.2592841548998,-26.7954730746461,-1.));
#777=CARTESIAN_POINT('Origin',(18.3621532161851,-30.7884627550672,-27.6343719610023));
#778=CARTESIAN_POINT('',(17.3556532161851,-30.7884627550672,0.));
#779=CARTESIAN_POINT('Origin',(18.3621532161851,-30.7884627550672,0.));
#780=CARTESIAN_POINT('',(17.3556532161851,-30.7884627550672,-3.79999999999997));
#781=CARTESIAN_POINT('',(17.3556532161851,-30.7884627550672,-27.6343719610023));
#782=CARTESIAN_POINT('Origin',(18.3621532161851,-30.7884627550672,-3.79999999999997));
#783=CARTESIAN_POINT('Origin',(18.4905923180136,-39.578385724273,-27.6343719610023));
#784=CARTESIAN_POINT('',(17.4840923180136,-39.578385724273,0.));
#785=CARTESIAN_POINT('Origin',(18.4905923180136,-39.578385724273,0.));
#786=CARTESIAN_POINT('',(17.4840923180136,-39.578385724273,-3.79999999999997));
#787=CARTESIAN_POINT('',(17.4840923180136,-39.578385724273,-27.6343719610023));
#788=CARTESIAN_POINT('Origin',(18.4905923180136,-39.578385724273,-3.79999999999997));
#789=CARTESIAN_POINT('Origin',(7.35155521321747,-40.8637732946483,-27.6343719610023));
#790=CARTESIAN_POINT('',(6.34505521321747,-40.8637732946483,0.));
#791=CARTESIAN_POINT('Origin',(7.35155521321747,-40.8637732946483,0.));
#792=CARTESIAN_POINT('',(6.34505521321747,-40.8637732946483,-3.79999999999997));
#793=CARTESIAN_POINT('',(6.34505521321747,-40.8637732946483,-27.6343719610023));
#794=CARTESIAN_POINT('Origin',(7.35155521321747,-40.8637732946483,-3.79999999999997));
#795=CARTESIAN_POINT('Origin',(6.12485286290181,-31.0892062460006,-27.6343719610023));
#796=CARTESIAN_POINT('',(5.11835286290181,-31.0892062460006,0.));
#797=CARTESIAN_POINT('Origin',(6.12485286290181,-31.0892062460006,0.));
#798=CARTESIAN_POINT('',(5.11835286290181,-31.0892062460006,-3.79999999999997));
#799=CARTESIAN_POINT('',(5.11835286290181,-31.0892062460006,-27.6343719610023));
#800=CARTESIAN_POINT('Origin',(6.12485286290181,-31.0892062460006,-3.79999999999997));
#801=CARTESIAN_POINT('Origin',(14.7,-55.6370721549443,-3.29999999999997));
#802=CARTESIAN_POINT('',(4.60545179724417,-45.5420238638265,-3.74711723982703));
#803=CARTESIAN_POINT('',(5.27842167742788,-45.281693749901,-3.29999999999999));
#804=CARTESIAN_POINT('Ctrl Pts',(4.60545179724417,-45.5420238638265,-3.74711723982703));
#805=CARTESIAN_POINT('Ctrl Pts',(4.69860380727335,-45.5420238638265,-3.71414837546286));
#806=CARTESIAN_POINT('Ctrl Pts',(4.78801658340487,-45.5289617328194,-3.66932876153917));
#807=CARTESIAN_POINT('Ctrl Pts',(4.95012402725188,-45.4843434527781,-3.57207041482733));
#808=CARTESIAN_POINT('Ctrl Pts',(5.02449839192806,-45.4533465016138,-3.5192998577713));
#809=CARTESIAN_POINT('Ctrl Pts',(5.15924672545437,-45.3781517732401,-3.41202688331993));
#810=CARTESIAN_POINT('Ctrl Pts',(5.22072036451488,-45.3338895310926,-3.35694802510578));
#811=CARTESIAN_POINT('Ctrl Pts',(5.27697643449937,-45.2830067345646,-3.30142915818285));
#812=CARTESIAN_POINT('Ctrl Pts',(5.27769953737384,-45.2823507707083,-3.30071457877159));
#813=CARTESIAN_POINT('Ctrl Pts',(5.2784216774279,-45.281693749901,-3.29999999999999));
#814=CARTESIAN_POINT('',(4.29134975128875,-45.5420238638265,-3.79999999999999));
#815=CARTESIAN_POINT('Ctrl Pts',(4.29134975128875,-45.5420238638265,-3.79999999999999));
#816=CARTESIAN_POINT('Ctrl Pts',(4.38719532726377,-45.5420238638265,-3.79999999999999));
#817=CARTESIAN_POINT('Ctrl Pts',(4.50084217651471,-45.5420238638265,-3.78231461506582));
#818=CARTESIAN_POINT('Ctrl Pts',(4.5962609639373,-45.5420238638265,-3.75032606404756));
#819=CARTESIAN_POINT('Ctrl Pts',(4.60084178085727,-45.5420238638265,-3.74874884181746));
#820=CARTESIAN_POINT('Ctrl Pts',(4.60545179724417,-45.5420238638265,-3.74711723982703));
#821=CARTESIAN_POINT('',(19.6783333333333,-42.0184746786173,-3.79999999999994));
#822=CARTESIAN_POINT('Origin',(14.7,-55.6370721549443,-3.79999999999996));
#823=CARTESIAN_POINT('',(19.5066666666666,-42.4880814881458,-3.29999999999995));
#824=CARTESIAN_POINT('Origin',(19.6783333333333,-42.0184746786173,-3.29999999999995));
#825=CARTESIAN_POINT('Origin',(14.7,-55.6370721549443,-3.29999999999997));
#826=CARTESIAN_POINT('Ctrl Pts',(20.35,-41.5488678690888,-3.79999999999996));
#827=CARTESIAN_POINT('Ctrl Pts',(20.35,-41.8093735122757,-3.79999999999996));
#828=CARTESIAN_POINT('Ctrl Pts',(20.1365018906278,-41.9586442308603,-3.79999999999997));
#829=CARTESIAN_POINT('Ctrl Pts',(19.9230037812557,-42.1079149494448,-3.79999999999997));
#830=CARTESIAN_POINT('Ctrl Pts',(19.6783333333333,-42.0184746786173,-3.79999999999997));
#831=CARTESIAN_POINT('Ctrl Pts',(20.85,-41.5488678690888,-3.79999999999997));
#832=CARTESIAN_POINT('Ctrl Pts',(20.85,-42.0698791554627,-3.79999999999997));
#833=CARTESIAN_POINT('Ctrl Pts',(20.4230037812557,-42.3684205926318,-3.79999999999997));
#834=CARTESIAN_POINT('Ctrl Pts',(19.9960075625114,-42.6669620298009,-3.79999999999997));
#835=CARTESIAN_POINT('Ctrl Pts',(19.5066666666666,-42.4880814881459,-3.79999999999997));
#836=CARTESIAN_POINT('Ctrl Pts',(20.85,-41.5488678690888,-3.29999999999995));
#837=CARTESIAN_POINT('Ctrl Pts',(20.85,-42.0698791554627,-3.29999999999995));
#838=CARTESIAN_POINT('Ctrl Pts',(20.4230037812557,-42.3684205926318,-3.29999999999995));
#839=CARTESIAN_POINT('Ctrl Pts',(19.9960075625114,-42.6669620298009,-3.29999999999995));
#840=CARTESIAN_POINT('Ctrl Pts',(19.5066666666666,-42.4880814881458,-3.29999999999995));
#841=CARTESIAN_POINT('',(20.85,-41.5488678690888,-3.29999999999996));
#842=CARTESIAN_POINT('',(20.35,-41.5488678690888,-3.79999999999994));
#843=CARTESIAN_POINT('Origin',(20.35,-41.5488678690888,-3.29999999999996));
#844=CARTESIAN_POINT('Origin',(19.85,-41.5488678690888,-3.29999999999997));
#845=CARTESIAN_POINT('Origin',(19.85,-41.5488678690888,-3.79999999999994));
#846=CARTESIAN_POINT('Origin',(20.35,-39.1143722767112,-3.29999999999994));
#847=CARTESIAN_POINT('',(20.85,-28.7882042858553,-3.29999999999994));
#848=CARTESIAN_POINT('',(20.35,-28.7882042858553,-3.79999999999994));
#849=CARTESIAN_POINT('Origin',(20.35,-28.7882042858553,-3.29999999999994));
#850=CARTESIAN_POINT('',(20.85,-39.1143722767112,-3.29999999999994));
#851=CARTESIAN_POINT('',(20.35,-39.1143722767112,-3.79999999999994));
#852=CARTESIAN_POINT('Ctrl Pts',(19.6783333333333,-28.3185974763268,-3.79999999999997));
#853=CARTESIAN_POINT('Ctrl Pts',(19.9230037812557,-28.2291572054993,-3.79999999999997));
#854=CARTESIAN_POINT('Ctrl Pts',(20.1365018906278,-28.3784279240838,-3.79999999999997));
#855=CARTESIAN_POINT('Ctrl Pts',(20.35,-28.5276986426684,-3.79999999999996));
#856=CARTESIAN_POINT('Ctrl Pts',(20.35,-28.7882042858553,-3.79999999999996));
#857=CARTESIAN_POINT('Ctrl Pts',(19.5066666666666,-27.8489906667983,-3.79999999999997));
#858=CARTESIAN_POINT('Ctrl Pts',(19.9960075625114,-27.6701101251432,-3.79999999999997));
#859=CARTESIAN_POINT('Ctrl Pts',(20.4230037812557,-27.9686515623123,-3.79999999999997));
#860=CARTESIAN_POINT('Ctrl Pts',(20.85,-28.2671929994815,-3.79999999999996));
#861=CARTESIAN_POINT('Ctrl Pts',(20.85,-28.7882042858553,-3.79999999999996));
#862=CARTESIAN_POINT('Ctrl Pts',(19.5066666666666,-27.8489906667983,-3.29999999999995));
#863=CARTESIAN_POINT('Ctrl Pts',(19.9960075625114,-27.6701101251432,-3.29999999999995));
#864=CARTESIAN_POINT('Ctrl Pts',(20.4230037812557,-27.9686515623124,-3.29999999999994));
#865=CARTESIAN_POINT('Ctrl Pts',(20.85,-28.2671929994815,-3.29999999999994));
#866=CARTESIAN_POINT('Ctrl Pts',(20.85,-28.7882042858553,-3.29999999999994));
#867=CARTESIAN_POINT('',(19.5066666666666,-27.8489906667983,-3.29999999999997));
#868=CARTESIAN_POINT('',(19.6783333333333,-28.3185974763268,-3.79999999999995));
#869=CARTESIAN_POINT('Origin',(19.6783333333333,-28.3185974763268,-3.29999999999997));
#870=CARTESIAN_POINT('Origin',(19.85,-28.7882042858553,-3.29999999999997));
#871=CARTESIAN_POINT('Origin',(19.85,-28.7882042858553,-3.79999999999995));
#872=CARTESIAN_POINT('Origin',(14.7,-14.6999999999999,-3.29999999999997));
#873=CARTESIAN_POINT('',(4.60545179724416,-24.7950482911176,-3.74711723982703));
#874=CARTESIAN_POINT('',(4.29134975128874,-24.7950482911176,-3.79999999999999));
#875=CARTESIAN_POINT('Ctrl Pts',(4.60545179724416,-24.7950482911176,-3.74711723982703));
#876=CARTESIAN_POINT('Ctrl Pts',(4.60084178085726,-24.7950482911176,-3.74874884181746));
#877=CARTESIAN_POINT('Ctrl Pts',(4.59626096393729,-24.7950482911176,-3.75032606404756));
#878=CARTESIAN_POINT('Ctrl Pts',(4.5008421765147,-24.7950482911176,-3.78231461506582));
#879=CARTESIAN_POINT('Ctrl Pts',(4.38719532726376,-24.7950482911176,-3.79999999999999));
#880=CARTESIAN_POINT('Ctrl Pts',(4.29134975128874,-24.7950482911176,-3.79999999999999));
#881=CARTESIAN_POINT('',(5.27842167742788,-25.0553784050431,-3.29999999999999));
#882=CARTESIAN_POINT('Ctrl Pts',(5.27842167742789,-25.0553784050431,-3.29999999999999));
#883=CARTESIAN_POINT('Ctrl Pts',(5.27769953737308,-25.0547213842351,-3.30071457877232));
#884=CARTESIAN_POINT('Ctrl Pts',(5.27697643449682,-25.0540654203772,-3.30142915818467));
#885=CARTESIAN_POINT('Ctrl Pts',(5.22072036450985,-25.0031826238474,-3.3569480251234));
#886=CARTESIAN_POINT('Ctrl Pts',(5.15924672542075,-24.9589203816802,-3.41202688334977));
#887=CARTESIAN_POINT('Ctrl Pts',(5.02449839184161,-24.8837256532872,-3.51929985783692));
#888=CARTESIAN_POINT('Ctrl Pts',(4.95012402712313,-24.852728702115,-3.57207041491666));
#889=CARTESIAN_POINT('Ctrl Pts',(4.78801658327976,-24.8081104221064,-3.66932876160159));
#890=CARTESIAN_POINT('Ctrl Pts',(4.69860380720828,-24.7950482911176,-3.71414837548588));
#891=CARTESIAN_POINT('Ctrl Pts',(4.60545179724416,-24.7950482911176,-3.74711723982703));
#892=CARTESIAN_POINT('Origin',(14.7,-14.6999999999999,-3.29999999999997));
#893=CARTESIAN_POINT('Origin',(14.7,-14.6999999999999,-3.79999999999996));
#894=CARTESIAN_POINT('Origin',(3.00000000000015,-45.5420238638265,0.));
#895=CARTESIAN_POINT('',(4.60545179724416,-45.5420238638265,0.));
#896=CARTESIAN_POINT('',(4.60545179724416,-45.5420238638265,0.));
#897=CARTESIAN_POINT('',(3.00000000000015,-45.5420238638265,0.));
#898=CARTESIAN_POINT('',(3.00000000000015,-45.5420238638265,0.));
#899=CARTESIAN_POINT('',(3.00000000000016,-45.5420238638265,-3.79999999999999));
#900=CARTESIAN_POINT('',(3.00000000000015,-45.5420238638265,0.));
#901=CARTESIAN_POINT('',(3.00000000000016,-45.5420238638265,-3.79999999999999));
#902=CARTESIAN_POINT('Origin',(11.9250000000001,-35.168536077472,-3.79999999999997));
#903=CARTESIAN_POINT('',(3.00000000000015,-25.7950482911176,-3.79999999999999));
#904=CARTESIAN_POINT('',(3.00000000000015,-24.7950482911176,-3.79999999999999));
#905=CARTESIAN_POINT('',(4.00000000000015,-24.7950482911176,-3.79999999999999));
#906=CARTESIAN_POINT('Origin',(4.00000000000015,-25.7950482911176,-3.79999999999997));
#907=CARTESIAN_POINT('',(5.00000000000015,-24.7950482911176,-3.79999999999999));
#908=CARTESIAN_POINT('Origin',(5.00000000000015,-24.7950482911176,0.));
#909=CARTESIAN_POINT('',(4.00000000000015,-24.7950482911176,0.));
#910=CARTESIAN_POINT('',(4.00000000000015,-24.7950482911176,0.));
#911=CARTESIAN_POINT('',(4.60545179724415,-24.7950482911176,0.));
#912=CARTESIAN_POINT('',(5.00000000000015,-24.7950482911176,0.));
#913=CARTESIAN_POINT('',(4.60545179724415,-24.7950482911176,0.));
#914=CARTESIAN_POINT('Origin',(4.00000000000015,-25.7950482911176,0.));
#915=CARTESIAN_POINT('',(3.00000000000015,-25.7950482911176,0.));
#916=CARTESIAN_POINT('',(3.00000000000015,-25.7950482911176,0.));
#917=CARTESIAN_POINT('Origin',(4.00000000000015,-25.7950482911176,0.));
#918=CARTESIAN_POINT('Origin',(4.60545179724416,-44.5420238638265,0.));
#919=CARTESIAN_POINT('',(5.27842167742789,-45.281693749901,0.));
#920=CARTESIAN_POINT('',(5.27842167742788,-45.281693749901,0.));
#921=CARTESIAN_POINT('Origin',(4.60545179724416,-44.5420238638265,0.));
#922=CARTESIAN_POINT('Origin',(4.60545179724415,-25.7950482911176,0.));
#923=CARTESIAN_POINT('',(5.27842167742788,-25.0553784050431,0.));
#924=CARTESIAN_POINT('Origin',(4.60545179724415,-25.7950482911176,0.));
#925=CARTESIAN_POINT('',(5.27842167742788,-25.0553784050431,0.));
#926=CARTESIAN_POINT('Origin',(14.7,-14.6999999999999,0.));
#927=CARTESIAN_POINT('',(19.5066666666666,-27.8489906667983,0.));
#928=CARTESIAN_POINT('Origin',(14.7,-14.6999999999999,0.));
#929=CARTESIAN_POINT('',(19.5066666666666,-27.8489906667983,0.));
#930=CARTESIAN_POINT('Origin',(19.85,-28.7882042858553,0.));
#931=CARTESIAN_POINT('',(20.85,-28.7882042858553,0.));
#932=CARTESIAN_POINT('Origin',(19.85,-28.7882042858553,0.));
#933=CARTESIAN_POINT('',(20.85,-28.7882042858553,0.));
#934=CARTESIAN_POINT('Origin',(20.85,-43.0602084759504,0.));
#935=CARTESIAN_POINT('',(20.85,-41.5488678690888,0.));
#936=CARTESIAN_POINT('',(20.85,-43.0602084759504,0.));
#937=CARTESIAN_POINT('',(20.85,-41.5488678690888,0.));
#938=CARTESIAN_POINT('Origin',(19.85,-41.5488678690888,0.));
#939=CARTESIAN_POINT('',(19.5066666666666,-42.4880814881458,0.));
#940=CARTESIAN_POINT('Origin',(19.85,-41.5488678690888,0.));
#941=CARTESIAN_POINT('',(19.5066666666666,-42.4880814881458,0.));
#942=CARTESIAN_POINT('Origin',(14.7,-55.6370721549443,0.));
#943=CARTESIAN_POINT('Origin',(14.7,-55.6370721549443,0.));
#944=CARTESIAN_POINT('Origin',(5.25000000000015,-35.168536077472,-1.89999999999999));
#945=CARTESIAN_POINT('',(3.00000000000015,-35.168536077472,-0.893499999999994));
#946=CARTESIAN_POINT('Origin',(3.00000000000015,-35.168536077472,-1.89999999999999));
#947=CARTESIAN_POINT('',(7.35107500008384,-35.168536077472,-0.893499999999994));
#948=CARTESIAN_POINT('',(5.25000000000015,-35.168536077472,-0.893499999999994));
#949=CARTESIAN_POINT('',(7.36205024829034,-35.6191381746709,-2.8));
#950=CARTESIAN_POINT('Ctrl Pts',(7.35107500008384,-35.168536077472,-0.893499999999994));
#951=CARTESIAN_POINT('Ctrl Pts',(7.34845054393871,-35.2950781772243,-0.893499999999994));
#952=CARTESIAN_POINT('Ctrl Pts',(7.35094762664172,-35.4299479107897,-0.918827474823978));
#953=CARTESIAN_POINT('Ctrl Pts',(7.36493089798357,-35.6777877050256,-1.0215363161077));
#954=CARTESIAN_POINT('Ctrl Pts',(7.37615192928816,-35.7907788159439,-1.09890281466218));
#955=CARTESIAN_POINT('Ctrl Pts',(7.3980120496286,-35.9692860740091,-1.27727813022992));
#956=CARTESIAN_POINT('Ctrl Pts',(7.41008147593908,-36.0467612261102,-1.39031094903786));
#957=CARTESIAN_POINT('Ctrl Pts',(7.42731421163073,-36.1496436764755,-1.6382937349617));
#958=CARTESIAN_POINT('Ctrl Pts',(7.43218443040406,-36.175036077472,-1.77327016243984));
#959=CARTESIAN_POINT('Ctrl Pts',(7.43218443040406,-36.175036077472,-1.89999999999999));
#960=CARTESIAN_POINT('Ctrl Pts',(7.43218443040406,-36.175036077472,-2.02672983756015));
#961=CARTESIAN_POINT('Ctrl Pts',(7.42731421163073,-36.1496436764755,-2.16170626503829));
#962=CARTESIAN_POINT('Ctrl Pts',(7.41008147593908,-36.0467612261102,-2.40968905096213));
#963=CARTESIAN_POINT('Ctrl Pts',(7.3980120496286,-35.9692860740091,-2.52272186977007));
#964=CARTESIAN_POINT('Ctrl Pts',(7.37810132651618,-35.8066973721382,-2.68519039524246));
#965=CARTESIAN_POINT('Ctrl Pts',(7.36889170417925,-35.7175017777797,-2.75075239350124));
#966=CARTESIAN_POINT('Ctrl Pts',(7.36205024829034,-35.6191381746709,-2.8));
#967=CARTESIAN_POINT('',(7.50000000000015,-35.6191381746709,-2.79999999999998));
#968=CARTESIAN_POINT('',(5.25000000000015,-35.6191381746709,-2.79999999999998));
#969=CARTESIAN_POINT('',(7.50000000000015,-34.7179339802732,-2.79999999999998));
#970=CARTESIAN_POINT('Origin',(7.50000000000015,-35.168536077472,-1.89999999999999));
#971=CARTESIAN_POINT('',(7.38081746320452,-34.7179339802732,-2.8));
#972=CARTESIAN_POINT('',(5.25000000000015,-34.7179339802732,-2.79999999999998));
#973=CARTESIAN_POINT('Ctrl Pts',(7.38081746320452,-34.7179339802732,-2.8));
#974=CARTESIAN_POINT('Ctrl Pts',(7.391820064288,-34.619294199028,-2.75061411967076));
#975=CARTESIAN_POINT('Ctrl Pts',(7.4048482904122,-34.5299122107637,-2.68484899377482));
#976=CARTESIAN_POINT('Ctrl Pts',(7.4317027449343,-34.3675085449539,-2.52229696385129));
#977=CARTESIAN_POINT('Ctrl Pts',(7.44710273058351,-34.2901967529519,-2.40945605491223));
#978=CARTESIAN_POINT('Ctrl Pts',(7.4688069044456,-34.187449606049,-2.16171494388177));
#979=CARTESIAN_POINT('Ctrl Pts',(7.47480689274637,-34.162036077472,-2.02677913433796));
#980=CARTESIAN_POINT('Ctrl Pts',(7.47480689274637,-34.162036077472,-1.77322086566203));
#981=CARTESIAN_POINT('Ctrl Pts',(7.4688069044456,-34.187449606049,-1.63828505611821));
#982=CARTESIAN_POINT('Ctrl Pts',(7.44710273058351,-34.2901967529519,-1.39054394508776));
#983=CARTESIAN_POINT('Ctrl Pts',(7.4317027449343,-34.3675085449539,-1.2777030361487));
#984=CARTESIAN_POINT('Ctrl Pts',(7.40224543102928,-34.5456531339325,-1.09939570291226));
#985=CARTESIAN_POINT('Ctrl Pts',(7.38623523074063,-34.6585700840301,-1.02193610267343));
#986=CARTESIAN_POINT('Ctrl Pts',(7.36183571859118,-34.9065146648834,-0.918976905028938));
#987=CARTESIAN_POINT('Ctrl Pts',(7.3537080959632,-35.041577399941,-0.893499999999994));
#988=CARTESIAN_POINT('Ctrl Pts',(7.35107500008384,-35.168536077472,-0.893499999999995));
#989=CARTESIAN_POINT('Origin',(7.50000000000015,-35.168536077472,-1.89999999999999));
#990=CARTESIAN_POINT('',(7.50000000000015,-35.168536077472,-2.79999999999998));
#991=CARTESIAN_POINT('Origin',(12.35,-35.2722127152135,0.));
#992=CARTESIAN_POINT('',(17.35,-35.2722127152135,-2.8));
#993=CARTESIAN_POINT('Origin',(12.35,-35.2722127152135,-2.8));
#994=CARTESIAN_POINT('',(17.35,-35.2722127152135,0.));
#995=CARTESIAN_POINT('',(17.35,-35.2722127152135,0.));
#996=CARTESIAN_POINT('Origin',(12.35,-35.2722127152135,0.));
#997=CARTESIAN_POINT('Origin',(12.35,-35.2722127152135,-2.8));
#998=CARTESIAN_POINT('Origin',(11.9250000000001,-35.168536077472,-2.79999999999997));
#999=CARTESIAN_POINT('Origin',(3.00000000000015,-24.7950482911176,0.));
#1000=CARTESIAN_POINT('',(3.00000000000015,-24.7950482911176,0.));
#1001=CARTESIAN_POINT('Origin',(11.9250000000001,-35.168536077472,0.));
#1002=UNCERTAINTY_MEASURE_WITH_UNIT(LENGTH_MEASURE(0.01),#1006,
'DISTANCE_ACCURACY_VALUE',
'Maximum model space distance between geometric entities at asserted c
onnectivities');
#1003=UNCERTAINTY_MEASURE_WITH_UNIT(LENGTH_MEASURE(0.01),#1006,
'DISTANCE_ACCURACY_VALUE',
'Maximum model space distance between geometric entities at asserted c
onnectivities');
#1004=(
GEOMETRIC_REPRESENTATION_CONTEXT(3)
GLOBAL_UNCERTAINTY_ASSIGNED_CONTEXT((#1002))
GLOBAL_UNIT_ASSIGNED_CONTEXT((#1006,#1008,#1009))
REPRESENTATION_CONTEXT('','3D')
);
#1005=(
GEOMETRIC_REPRESENTATION_CONTEXT(3)
GLOBAL_UNCERTAINTY_ASSIGNED_CONTEXT((#1003))
GLOBAL_UNIT_ASSIGNED_CONTEXT((#1006,#1008,#1009))
REPRESENTATION_CONTEXT('','3D')
);
#1006=(
LENGTH_UNIT()
NAMED_UNIT(*)
SI_UNIT(.MILLI.,.METRE.)
);
#1007=(
LENGTH_UNIT()
NAMED_UNIT(*)
SI_UNIT(.CENTI.,.METRE.)
);
#1008=(
NAMED_UNIT(*)
PLANE_ANGLE_UNIT()
SI_UNIT($,.RADIAN.)
);
#1009=(
NAMED_UNIT(*)
SI_UNIT($,.STERADIAN.)
SOLID_ANGLE_UNIT()
);
#1010=SHAPE_DEFINITION_REPRESENTATION(#1011,#1012);
#1011=PRODUCT_DEFINITION_SHAPE('',$,#1014);
#1012=SHAPE_REPRESENTATION('',(#553),#1004);
#1013=PRODUCT_DEFINITION_CONTEXT('part definition',#1018,'design');
#1014=PRODUCT_DEFINITION('GearboxBearingHolderCover_MIR',
'GearboxBearingHolderCover_MIR',#1015,#1013);
#1015=PRODUCT_DEFINITION_FORMATION('',$,#1020);
#1016=PRODUCT_RELATED_PRODUCT_CATEGORY('GearboxBearingHolderCover_MIR',
'GearboxBearingHolderCover_MIR',(#1020));
#1017=APPLICATION_PROTOCOL_DEFINITION('international standard',
'automotive_design',2009,#1018);
#1018=APPLICATION_CONTEXT(
'Core Data for Automotive Mechanical Design Process');
#1019=PRODUCT_CONTEXT('part definition',#1018,'mechanical');
#1020=PRODUCT('GearboxBearingHolderCover_MIR',
'GearboxBearingHolderCover_MIR',$,(#1019));
#1021=PRESENTATION_STYLE_ASSIGNMENT((#1022));
#1022=SURFACE_STYLE_USAGE(.BOTH.,#1025);
#1023=SURFACE_STYLE_RENDERING_WITH_PROPERTIES($,#1029,(#1024));
#1024=SURFACE_STYLE_TRANSPARENT(0.);
#1025=SURFACE_SIDE_STYLE('',(#1026,#1023));
#1026=SURFACE_STYLE_FILL_AREA(#1027);
#1027=FILL_AREA_STYLE('',(#1028));
#1028=FILL_AREA_STYLE_COLOUR('',#1029);
#1029=COLOUR_RGB('',0.43921568627451,0.43921568627451,0.43921568627451);
ENDSEC;
END-ISO-10303-21;
