ISO-10303-21;
HEADER;
/* Generated by software containing ST-Developer
 * from STEP Tools, Inc. (www.steptools.com) 
 */

FILE_DESCRIPTION(
/* description */ (''),
/* implementation_level */ '2;1');

FILE_NAME(
/* name */ 'GearboxBearingHolderCover.stp',
/* time_stamp */ '2026-05-13T22:05:22+02:00',
/* author */ ('szymo'),
/* organization */ (''),
/* preprocessor_version */ 'ST-DEVELOPER v20.1',
/* originating_system */ 'Autodesk Inventor 2026',
/* authorisation */ '');

FILE_SCHEMA (('AUTOMOTIVE_DESIGN { 1 0 10303 214 3 1 1 }'));
ENDSEC;

DATA;
#10=MECHANICAL_DESIGN_GEOMETRIC_PRESENTATION_REPRESENTATION('',(#13),#938);
#11=SHAPE_REPRESENTATION_RELATIONSHIP('SRR','None',#945,#12);
#12=ADVANCED_BREP_SHAPE_REPRESENTATION('',(#14),#937);
#13=STYLED_ITEM('',(#954),#14);
#14=MANIFOLD_SOLID_BREP('Solid1',#484);
#15=FACE_BOUND('',#140,.T.);
#16=FACE_BOUND('',#141,.T.);
#17=FACE_BOUND('',#142,.T.);
#18=FACE_BOUND('',#143,.T.);
#19=FACE_BOUND('',#162,.T.);
#20=FACE_BOUND('',#164,.T.);
#21=FACE_BOUND('',#165,.T.);
#22=FACE_BOUND('',#166,.T.);
#23=FACE_BOUND('',#167,.T.);
#24=FACE_BOUND('',#168,.T.);
#25=PLANE('',#522);
#26=PLANE('',#523);
#27=PLANE('',#529);
#28=PLANE('',#548);
#29=PLANE('',#556);
#30=PLANE('',#561);
#31=PLANE('',#562);
#32=PLANE('',#563);
#33=LINE('',#759,#62);
#34=LINE('',#760,#63);
#35=LINE('',#805,#64);
#36=LINE('',#807,#65);
#37=LINE('',#809,#66);
#38=LINE('',#810,#67);
#39=LINE('',#813,#68);
#40=LINE('',#816,#69);
#41=LINE('',#827,#70);
#42=LINE('',#829,#71);
#43=LINE('',#830,#72);
#44=LINE('',#834,#73);
#45=LINE('',#838,#74);
#46=LINE('',#842,#75);
#47=LINE('',#846,#76);
#48=LINE('',#850,#77);
#49=LINE('',#854,#78);
#50=LINE('',#857,#79);
#51=LINE('',#861,#80);
#52=LINE('',#865,#81);
#53=LINE('',#869,#82);
#54=LINE('',#870,#83);
#55=LINE('',#873,#84);
#56=LINE('',#881,#85);
#57=LINE('',#900,#86);
#58=LINE('',#904,#87);
#59=LINE('',#923,#88);
#60=LINE('',#928,#89);
#61=LINE('',#933,#90);
#62=VECTOR('',#584,10.);
#63=VECTOR('',#585,10.);
#64=VECTOR('',#600,10.);
#65=VECTOR('',#601,10.);
#66=VECTOR('',#602,10.);
#67=VECTOR('',#603,10.);
#68=VECTOR('',#606,10.);
#69=VECTOR('',#609,10.);
#70=VECTOR('',#620,10.);
#71=VECTOR('',#621,10.);
#72=VECTOR('',#622,10.);
#73=VECTOR('',#627,1.0065);
#74=VECTOR('',#632,1.0065);
#75=VECTOR('',#637,1.0065);
#76=VECTOR('',#642,1.0065);
#77=VECTOR('',#647,10.);
#78=VECTOR('',#652,10.);
#79=VECTOR('',#655,10.);
#80=VECTOR('',#660,10.);
#81=VECTOR('',#665,10.);
#82=VECTOR('',#670,10.);
#83=VECTOR('',#671,10.);
#84=VECTOR('',#674,10.);
#85=VECTOR('',#685,1.0065);
#86=VECTOR('',#686,10.);
#87=VECTOR('',#689,10.);
#88=VECTOR('',#692,10.);
#89=VECTOR('',#697,5.);
#90=VECTOR('',#706,10.);
#91=CYLINDRICAL_SURFACE('',#514,0.5);
#92=CYLINDRICAL_SURFACE('',#530,1.0065);
#93=CYLINDRICAL_SURFACE('',#532,1.0065);
#94=CYLINDRICAL_SURFACE('',#534,1.0065);
#95=CYLINDRICAL_SURFACE('',#536,1.0065);
#96=CYLINDRICAL_SURFACE('',#538,1.);
#97=CYLINDRICAL_SURFACE('',#540,1.);
#98=CYLINDRICAL_SURFACE('',#542,1.);
#99=CYLINDRICAL_SURFACE('',#544,13.9999999999998);
#100=CYLINDRICAL_SURFACE('',#546,1.);
#101=CYLINDRICAL_SURFACE('',#549,1.);
#102=CYLINDRICAL_SURFACE('',#551,13.9999999999999);
#103=CYLINDRICAL_SURFACE('',#553,1.0065);
#104=CYLINDRICAL_SURFACE('',#557,5.);
#105=(
BOUNDED_SURFACE()
B_SPLINE_SURFACE(2,2,((#735,#736,#737,#738,#739),(#740,#741,#742,#743,#744),
(#745,#746,#747,#748,#749)),.UNSPECIFIED.,.F.,.F.,.F.)
B_SPLINE_SURFACE_WITH_KNOTS((3,3),(3,2,3),(-1.5707963267949,2.4971090146033E-14),
(-3.14159265358979,-2.18096265316538,-1.22033265274097),.UNSPECIFIED.)
GEOMETRIC_REPRESENTATION_ITEM()
RATIONAL_B_SPLINE_SURFACE(((1.,0.886849418237307,1.,0.886849418237307,1.),
(0.707106781186532,0.62709723752693,0.707106781186532,0.62709723752693,
0.707106781186532),(1.,0.886849418237307,1.,0.886849418237307,1.)))
REPRESENTATION_ITEM('')
SURFACE()
);
#106=(
BOUNDED_SURFACE()
B_SPLINE_SURFACE(2,2,((#761,#762,#763,#764,#765),(#766,#767,#768,#769,#770),
(#771,#772,#773,#774,#775)),.UNSPECIFIED.,.F.,.F.,.F.)
B_SPLINE_SURFACE_WITH_KNOTS((3,3),(3,2,3),(-1.5707963267949,3.800247277646E-14),
(1.22033265274097,2.18096265316538,3.14159265358979),.UNSPECIFIED.)
GEOMETRIC_REPRESENTATION_ITEM()
RATIONAL_B_SPLINE_SURFACE(((1.,0.886849418237307,1.,0.886849418237307,1.),
(0.707106781186535,0.627097237526934,0.707106781186535,0.627097237526934,
0.707106781186535),(1.,0.886849418237307,1.,0.886849418237307,1.)))
REPRESENTATION_ITEM('')
SURFACE()
);
#107=FACE_OUTER_BOUND('',#133,.T.);
#108=FACE_OUTER_BOUND('',#134,.T.);
#109=FACE_OUTER_BOUND('',#135,.T.);
#110=FACE_OUTER_BOUND('',#136,.T.);
#111=FACE_OUTER_BOUND('',#137,.T.);
#112=FACE_OUTER_BOUND('',#138,.T.);
#113=FACE_OUTER_BOUND('',#139,.T.);
#114=FACE_OUTER_BOUND('',#144,.T.);
#115=FACE_OUTER_BOUND('',#145,.T.);
#116=FACE_OUTER_BOUND('',#146,.T.);
#117=FACE_OUTER_BOUND('',#147,.T.);
#118=FACE_OUTER_BOUND('',#148,.T.);
#119=FACE_OUTER_BOUND('',#149,.T.);
#120=FACE_OUTER_BOUND('',#150,.T.);
#121=FACE_OUTER_BOUND('',#151,.T.);
#122=FACE_OUTER_BOUND('',#152,.T.);
#123=FACE_OUTER_BOUND('',#153,.T.);
#124=FACE_OUTER_BOUND('',#154,.T.);
#125=FACE_OUTER_BOUND('',#155,.T.);
#126=FACE_OUTER_BOUND('',#156,.T.);
#127=FACE_OUTER_BOUND('',#157,.T.);
#128=FACE_OUTER_BOUND('',#158,.T.);
#129=FACE_OUTER_BOUND('',#159,.T.);
#130=FACE_OUTER_BOUND('',#160,.T.);
#131=FACE_OUTER_BOUND('',#161,.T.);
#132=FACE_OUTER_BOUND('',#163,.T.);
#133=EDGE_LOOP('',(#320,#321,#322,#323,#324));
#134=EDGE_LOOP('',(#325,#326,#327,#328));
#135=EDGE_LOOP('',(#329,#330,#331,#332));
#136=EDGE_LOOP('',(#333,#334,#335,#336));
#137=EDGE_LOOP('',(#337,#338,#339,#340,#341));
#138=EDGE_LOOP('',(#342,#343,#344,#345,#346));
#139=EDGE_LOOP('',(#347,#348,#349,#350,#351,#352,#353,#354,#355));
#140=EDGE_LOOP('',(#356));
#141=EDGE_LOOP('',(#357));
#142=EDGE_LOOP('',(#358));
#143=EDGE_LOOP('',(#359));
#144=EDGE_LOOP('',(#360,#361,#362,#363,#364));
#145=EDGE_LOOP('',(#365,#366,#367,#368));
#146=EDGE_LOOP('',(#369,#370,#371,#372));
#147=EDGE_LOOP('',(#373,#374,#375,#376));
#148=EDGE_LOOP('',(#377,#378,#379,#380));
#149=EDGE_LOOP('',(#381,#382,#383,#384));
#150=EDGE_LOOP('',(#385,#386,#387,#388));
#151=EDGE_LOOP('',(#389,#390,#391,#392));
#152=EDGE_LOOP('',(#393,#394,#395,#396));
#153=EDGE_LOOP('',(#397,#398,#399,#400));
#154=EDGE_LOOP('',(#401,#402,#403,#404));
#155=EDGE_LOOP('',(#405,#406,#407,#408));
#156=EDGE_LOOP('',(#409,#410,#411,#412));
#157=EDGE_LOOP('',(#413,#414,#415,#416,#417,#418,#419,#420));
#158=EDGE_LOOP('',(#421,#422));
#159=EDGE_LOOP('',(#423,#424,#425,#426,#427,#428,#429));
#160=EDGE_LOOP('',(#430,#431,#432,#433,#434));
#161=EDGE_LOOP('',(#435,#436,#437,#438));
#162=EDGE_LOOP('',(#439));
#163=EDGE_LOOP('',(#440,#441,#442,#443,#444,#445,#446,#447,#448,#449,#450));
#164=EDGE_LOOP('',(#451));
#165=EDGE_LOOP('',(#452));
#166=EDGE_LOOP('',(#453));
#167=EDGE_LOOP('',(#454));
#168=EDGE_LOOP('',(#455));
#169=CIRCLE('',#508,13.9999999999999);
#170=CIRCLE('',#509,0.49999999999999);
#171=CIRCLE('',#510,14.4999999999999);
#172=CIRCLE('',#511,0.500000000000003);
#173=CIRCLE('',#512,0.5);
#174=CIRCLE('',#513,1.);
#175=CIRCLE('',#515,0.499999999999998);
#176=CIRCLE('',#516,0.500000000000003);
#177=CIRCLE('',#517,0.5);
#178=CIRCLE('',#518,1.);
#179=CIRCLE('',#520,14.4999999999998);
#180=CIRCLE('',#521,13.9999999999998);
#181=CIRCLE('',#524,1.);
#182=CIRCLE('',#525,1.0065);
#183=CIRCLE('',#526,1.0065);
#184=CIRCLE('',#527,1.0065);
#185=CIRCLE('',#528,1.0065);
#186=CIRCLE('',#531,1.0065);
#187=CIRCLE('',#533,1.0065);
#188=CIRCLE('',#535,1.0065);
#189=CIRCLE('',#537,1.0065);
#190=CIRCLE('',#539,1.);
#191=CIRCLE('',#541,1.);
#192=CIRCLE('',#543,1.);
#193=CIRCLE('',#545,13.9999999999998);
#194=CIRCLE('',#547,1.);
#195=CIRCLE('',#550,1.);
#196=CIRCLE('',#552,13.9999999999999);
#197=CIRCLE('',#554,1.0065);
#198=CIRCLE('',#555,1.0065);
#199=CIRCLE('',#558,5.);
#200=CIRCLE('',#559,5.);
#201=CIRCLE('',#560,5.);
#202=B_SPLINE_CURVE_WITH_KNOTS('',3,(#713,#714,#715,#716,#717,#718,#719,
#720,#721,#722),.UNSPECIFIED.,.F.,.F.,(4,2,2,2,4),(0.,0.0296442552460792,
0.0580339891610258,0.085693325494967,0.0860539663896464),.UNSPECIFIED.);
#203=B_SPLINE_CURVE_WITH_KNOTS('',3,(#729,#730,#731,#732,#733,#734),
 .UNSPECIFIED.,.F.,.F.,(4,2,4),(0.0884387109718287,0.117192383764334,0.118630118939165),
 .UNSPECIFIED.);
#204=B_SPLINE_CURVE_WITH_KNOTS('',3,(#784,#785,#786,#787,#788,#789),
 .UNSPECIFIED.,.F.,.F.,(4,2,4),(0.238332378412176,0.239770113587007,0.268523786379512),
 .UNSPECIFIED.);
#205=B_SPLINE_CURVE_WITH_KNOTS('',3,(#793,#794,#795,#796,#797,#798,#799,
#800,#801,#802),.UNSPECIFIED.,.F.,.F.,(4,2,2,2,4),(-0.000362961000718599,
0.,0.027837276731089,0.0564096499069571,0.086244615072202),
 .UNSPECIFIED.);
#206=B_SPLINE_CURVE_WITH_KNOTS('',3,(#883,#884,#885,#886,#887,#888,#889,
#890,#891,#892,#893,#894,#895,#896,#897,#898),.UNSPECIFIED.,.F.,.F.,(4,
2,2,2,2,2,2,4),(-0.411674998209586,-0.380306038746805,-0.342272298445416,
-0.304238558144026,-0.266204817842636,-0.228171077541247,-0.190075283685604,
-0.151979489829961),.UNSPECIFIED.);
#207=B_SPLINE_CURVE_WITH_KNOTS('',3,(#905,#906,#907,#908,#909,#910,#911,
#912,#913,#914,#915,#916,#917,#918,#919,#920,#921),.UNSPECIFIED.,.F.,.F.,
(4,2,2,2,3,2,2,4),(-0.151979489829961,-0.114008696183027,-0.0760379025360924,
-0.0380189512680462,0.,0.0380189512680462,0.0760379025360924,0.107232237692041),
 .UNSPECIFIED.);
#208=VERTEX_POINT('',#711);
#209=VERTEX_POINT('',#712);
#210=VERTEX_POINT('',#723);
#211=VERTEX_POINT('',#725);
#212=VERTEX_POINT('',#727);
#213=VERTEX_POINT('',#750);
#214=VERTEX_POINT('',#751);
#215=VERTEX_POINT('',#756);
#216=VERTEX_POINT('',#757);
#217=VERTEX_POINT('',#776);
#218=VERTEX_POINT('',#777);
#219=VERTEX_POINT('',#782);
#220=VERTEX_POINT('',#783);
#221=VERTEX_POINT('',#791);
#222=VERTEX_POINT('',#804);
#223=VERTEX_POINT('',#806);
#224=VERTEX_POINT('',#808);
#225=VERTEX_POINT('',#812);
#226=VERTEX_POINT('',#814);
#227=VERTEX_POINT('',#817);
#228=VERTEX_POINT('',#819);
#229=VERTEX_POINT('',#821);
#230=VERTEX_POINT('',#823);
#231=VERTEX_POINT('',#826);
#232=VERTEX_POINT('',#828);
#233=VERTEX_POINT('',#832);
#234=VERTEX_POINT('',#836);
#235=VERTEX_POINT('',#840);
#236=VERTEX_POINT('',#844);
#237=VERTEX_POINT('',#848);
#238=VERTEX_POINT('',#852);
#239=VERTEX_POINT('',#856);
#240=VERTEX_POINT('',#860);
#241=VERTEX_POINT('',#864);
#242=VERTEX_POINT('',#868);
#243=VERTEX_POINT('',#872);
#244=VERTEX_POINT('',#878);
#245=VERTEX_POINT('',#880);
#246=VERTEX_POINT('',#882);
#247=VERTEX_POINT('',#899);
#248=VERTEX_POINT('',#901);
#249=VERTEX_POINT('',#903);
#250=VERTEX_POINT('',#925);
#251=VERTEX_POINT('',#927);
#252=EDGE_CURVE('',#208,#209,#202,.T.);
#253=EDGE_CURVE('',#209,#210,#169,.T.);
#254=EDGE_CURVE('',#210,#211,#170,.T.);
#255=EDGE_CURVE('',#211,#212,#171,.T.);
#256=EDGE_CURVE('',#212,#208,#203,.T.);
#257=EDGE_CURVE('',#213,#214,#172,.T.);
#258=EDGE_CURVE('',#214,#211,#173,.T.);
#259=EDGE_CURVE('',#210,#213,#174,.T.);
#260=EDGE_CURVE('',#215,#216,#175,.T.);
#261=EDGE_CURVE('',#216,#214,#33,.T.);
#262=EDGE_CURVE('',#213,#215,#34,.T.);
#263=EDGE_CURVE('',#217,#218,#176,.T.);
#264=EDGE_CURVE('',#218,#216,#177,.T.);
#265=EDGE_CURVE('',#215,#217,#178,.T.);
#266=EDGE_CURVE('',#219,#220,#204,.T.);
#267=EDGE_CURVE('',#220,#218,#179,.T.);
#268=EDGE_CURVE('',#217,#221,#180,.T.);
#269=EDGE_CURVE('',#221,#219,#205,.T.);
#270=EDGE_CURVE('',#222,#212,#35,.T.);
#271=EDGE_CURVE('',#223,#222,#36,.T.);
#272=EDGE_CURVE('',#223,#224,#37,.T.);
#273=EDGE_CURVE('',#208,#224,#38,.T.);
#274=EDGE_CURVE('',#220,#225,#39,.T.);
#275=EDGE_CURVE('',#226,#225,#181,.T.);
#276=EDGE_CURVE('',#226,#222,#40,.T.);
#277=EDGE_CURVE('',#227,#227,#182,.T.);
#278=EDGE_CURVE('',#228,#228,#183,.T.);
#279=EDGE_CURVE('',#229,#229,#184,.T.);
#280=EDGE_CURVE('',#230,#230,#185,.T.);
#281=EDGE_CURVE('',#231,#219,#41,.T.);
#282=EDGE_CURVE('',#231,#232,#42,.T.);
#283=EDGE_CURVE('',#225,#232,#43,.T.);
#284=EDGE_CURVE('',#233,#233,#186,.T.);
#285=EDGE_CURVE('',#233,#230,#44,.T.);
#286=EDGE_CURVE('',#234,#234,#187,.T.);
#287=EDGE_CURVE('',#234,#229,#45,.T.);
#288=EDGE_CURVE('',#235,#235,#188,.T.);
#289=EDGE_CURVE('',#235,#228,#46,.T.);
#290=EDGE_CURVE('',#236,#236,#189,.T.);
#291=EDGE_CURVE('',#236,#227,#47,.T.);
#292=EDGE_CURVE('',#232,#237,#190,.T.);
#293=EDGE_CURVE('',#237,#226,#48,.T.);
#294=EDGE_CURVE('',#224,#238,#191,.T.);
#295=EDGE_CURVE('',#238,#209,#49,.T.);
#296=EDGE_CURVE('',#221,#239,#50,.T.);
#297=EDGE_CURVE('',#239,#231,#192,.T.);
#298=EDGE_CURVE('',#240,#217,#51,.T.);
#299=EDGE_CURVE('',#240,#239,#193,.T.);
#300=EDGE_CURVE('',#215,#241,#52,.T.);
#301=EDGE_CURVE('',#241,#240,#194,.T.);
#302=EDGE_CURVE('',#242,#213,#53,.T.);
#303=EDGE_CURVE('',#242,#241,#54,.T.);
#304=EDGE_CURVE('',#210,#243,#55,.T.);
#305=EDGE_CURVE('',#243,#242,#195,.T.);
#306=EDGE_CURVE('',#238,#243,#196,.T.);
#307=EDGE_CURVE('',#244,#244,#197,.T.);
#308=EDGE_CURVE('',#244,#245,#56,.T.);
#309=EDGE_CURVE('',#246,#245,#206,.T.);
#310=EDGE_CURVE('',#247,#246,#57,.T.);
#311=EDGE_CURVE('',#248,#247,#198,.T.);
#312=EDGE_CURVE('',#249,#248,#58,.T.);
#313=EDGE_CURVE('',#245,#249,#207,.T.);
#314=EDGE_CURVE('',#248,#247,#59,.T.);
#315=EDGE_CURVE('',#250,#249,#199,.T.);
#316=EDGE_CURVE('',#250,#251,#60,.T.);
#317=EDGE_CURVE('',#251,#251,#200,.T.);
#318=EDGE_CURVE('',#246,#250,#201,.T.);
#319=EDGE_CURVE('',#237,#223,#61,.T.);
#320=ORIENTED_EDGE('',*,*,#252,.T.);
#321=ORIENTED_EDGE('',*,*,#253,.T.);
#322=ORIENTED_EDGE('',*,*,#254,.T.);
#323=ORIENTED_EDGE('',*,*,#255,.T.);
#324=ORIENTED_EDGE('',*,*,#256,.T.);
#325=ORIENTED_EDGE('',*,*,#257,.T.);
#326=ORIENTED_EDGE('',*,*,#258,.T.);
#327=ORIENTED_EDGE('',*,*,#254,.F.);
#328=ORIENTED_EDGE('',*,*,#259,.T.);
#329=ORIENTED_EDGE('',*,*,#260,.T.);
#330=ORIENTED_EDGE('',*,*,#261,.T.);
#331=ORIENTED_EDGE('',*,*,#257,.F.);
#332=ORIENTED_EDGE('',*,*,#262,.T.);
#333=ORIENTED_EDGE('',*,*,#263,.T.);
#334=ORIENTED_EDGE('',*,*,#264,.T.);
#335=ORIENTED_EDGE('',*,*,#260,.F.);
#336=ORIENTED_EDGE('',*,*,#265,.T.);
#337=ORIENTED_EDGE('',*,*,#266,.T.);
#338=ORIENTED_EDGE('',*,*,#267,.T.);
#339=ORIENTED_EDGE('',*,*,#263,.F.);
#340=ORIENTED_EDGE('',*,*,#268,.T.);
#341=ORIENTED_EDGE('',*,*,#269,.T.);
#342=ORIENTED_EDGE('',*,*,#256,.F.);
#343=ORIENTED_EDGE('',*,*,#270,.F.);
#344=ORIENTED_EDGE('',*,*,#271,.F.);
#345=ORIENTED_EDGE('',*,*,#272,.T.);
#346=ORIENTED_EDGE('',*,*,#273,.F.);
#347=ORIENTED_EDGE('',*,*,#255,.F.);
#348=ORIENTED_EDGE('',*,*,#258,.F.);
#349=ORIENTED_EDGE('',*,*,#261,.F.);
#350=ORIENTED_EDGE('',*,*,#264,.F.);
#351=ORIENTED_EDGE('',*,*,#267,.F.);
#352=ORIENTED_EDGE('',*,*,#274,.T.);
#353=ORIENTED_EDGE('',*,*,#275,.F.);
#354=ORIENTED_EDGE('',*,*,#276,.T.);
#355=ORIENTED_EDGE('',*,*,#270,.T.);
#356=ORIENTED_EDGE('',*,*,#277,.T.);
#357=ORIENTED_EDGE('',*,*,#278,.T.);
#358=ORIENTED_EDGE('',*,*,#279,.T.);
#359=ORIENTED_EDGE('',*,*,#280,.T.);
#360=ORIENTED_EDGE('',*,*,#266,.F.);
#361=ORIENTED_EDGE('',*,*,#281,.F.);
#362=ORIENTED_EDGE('',*,*,#282,.T.);
#363=ORIENTED_EDGE('',*,*,#283,.F.);
#364=ORIENTED_EDGE('',*,*,#274,.F.);
#365=ORIENTED_EDGE('',*,*,#284,.F.);
#366=ORIENTED_EDGE('',*,*,#285,.T.);
#367=ORIENTED_EDGE('',*,*,#280,.F.);
#368=ORIENTED_EDGE('',*,*,#285,.F.);
#369=ORIENTED_EDGE('',*,*,#286,.F.);
#370=ORIENTED_EDGE('',*,*,#287,.T.);
#371=ORIENTED_EDGE('',*,*,#279,.F.);
#372=ORIENTED_EDGE('',*,*,#287,.F.);
#373=ORIENTED_EDGE('',*,*,#288,.F.);
#374=ORIENTED_EDGE('',*,*,#289,.T.);
#375=ORIENTED_EDGE('',*,*,#278,.F.);
#376=ORIENTED_EDGE('',*,*,#289,.F.);
#377=ORIENTED_EDGE('',*,*,#290,.F.);
#378=ORIENTED_EDGE('',*,*,#291,.T.);
#379=ORIENTED_EDGE('',*,*,#277,.F.);
#380=ORIENTED_EDGE('',*,*,#291,.F.);
#381=ORIENTED_EDGE('',*,*,#275,.T.);
#382=ORIENTED_EDGE('',*,*,#283,.T.);
#383=ORIENTED_EDGE('',*,*,#292,.T.);
#384=ORIENTED_EDGE('',*,*,#293,.T.);
#385=ORIENTED_EDGE('',*,*,#252,.F.);
#386=ORIENTED_EDGE('',*,*,#273,.T.);
#387=ORIENTED_EDGE('',*,*,#294,.T.);
#388=ORIENTED_EDGE('',*,*,#295,.T.);
#389=ORIENTED_EDGE('',*,*,#269,.F.);
#390=ORIENTED_EDGE('',*,*,#296,.T.);
#391=ORIENTED_EDGE('',*,*,#297,.T.);
#392=ORIENTED_EDGE('',*,*,#281,.T.);
#393=ORIENTED_EDGE('',*,*,#268,.F.);
#394=ORIENTED_EDGE('',*,*,#298,.F.);
#395=ORIENTED_EDGE('',*,*,#299,.T.);
#396=ORIENTED_EDGE('',*,*,#296,.F.);
#397=ORIENTED_EDGE('',*,*,#265,.F.);
#398=ORIENTED_EDGE('',*,*,#300,.T.);
#399=ORIENTED_EDGE('',*,*,#301,.T.);
#400=ORIENTED_EDGE('',*,*,#298,.T.);
#401=ORIENTED_EDGE('',*,*,#262,.F.);
#402=ORIENTED_EDGE('',*,*,#302,.F.);
#403=ORIENTED_EDGE('',*,*,#303,.T.);
#404=ORIENTED_EDGE('',*,*,#300,.F.);
#405=ORIENTED_EDGE('',*,*,#259,.F.);
#406=ORIENTED_EDGE('',*,*,#304,.T.);
#407=ORIENTED_EDGE('',*,*,#305,.T.);
#408=ORIENTED_EDGE('',*,*,#302,.T.);
#409=ORIENTED_EDGE('',*,*,#253,.F.);
#410=ORIENTED_EDGE('',*,*,#295,.F.);
#411=ORIENTED_EDGE('',*,*,#306,.T.);
#412=ORIENTED_EDGE('',*,*,#304,.F.);
#413=ORIENTED_EDGE('',*,*,#307,.F.);
#414=ORIENTED_EDGE('',*,*,#308,.T.);
#415=ORIENTED_EDGE('',*,*,#309,.F.);
#416=ORIENTED_EDGE('',*,*,#310,.F.);
#417=ORIENTED_EDGE('',*,*,#311,.F.);
#418=ORIENTED_EDGE('',*,*,#312,.F.);
#419=ORIENTED_EDGE('',*,*,#313,.F.);
#420=ORIENTED_EDGE('',*,*,#308,.F.);
#421=ORIENTED_EDGE('',*,*,#314,.F.);
#422=ORIENTED_EDGE('',*,*,#311,.T.);
#423=ORIENTED_EDGE('',*,*,#309,.T.);
#424=ORIENTED_EDGE('',*,*,#313,.T.);
#425=ORIENTED_EDGE('',*,*,#315,.F.);
#426=ORIENTED_EDGE('',*,*,#316,.T.);
#427=ORIENTED_EDGE('',*,*,#317,.T.);
#428=ORIENTED_EDGE('',*,*,#316,.F.);
#429=ORIENTED_EDGE('',*,*,#318,.F.);
#430=ORIENTED_EDGE('',*,*,#310,.T.);
#431=ORIENTED_EDGE('',*,*,#318,.T.);
#432=ORIENTED_EDGE('',*,*,#315,.T.);
#433=ORIENTED_EDGE('',*,*,#312,.T.);
#434=ORIENTED_EDGE('',*,*,#314,.T.);
#435=ORIENTED_EDGE('',*,*,#293,.F.);
#436=ORIENTED_EDGE('',*,*,#319,.T.);
#437=ORIENTED_EDGE('',*,*,#271,.T.);
#438=ORIENTED_EDGE('',*,*,#276,.F.);
#439=ORIENTED_EDGE('',*,*,#307,.T.);
#440=ORIENTED_EDGE('',*,*,#292,.F.);
#441=ORIENTED_EDGE('',*,*,#282,.F.);
#442=ORIENTED_EDGE('',*,*,#297,.F.);
#443=ORIENTED_EDGE('',*,*,#299,.F.);
#444=ORIENTED_EDGE('',*,*,#301,.F.);
#445=ORIENTED_EDGE('',*,*,#303,.F.);
#446=ORIENTED_EDGE('',*,*,#305,.F.);
#447=ORIENTED_EDGE('',*,*,#306,.F.);
#448=ORIENTED_EDGE('',*,*,#294,.F.);
#449=ORIENTED_EDGE('',*,*,#272,.F.);
#450=ORIENTED_EDGE('',*,*,#319,.F.);
#451=ORIENTED_EDGE('',*,*,#284,.T.);
#452=ORIENTED_EDGE('',*,*,#286,.T.);
#453=ORIENTED_EDGE('',*,*,#288,.T.);
#454=ORIENTED_EDGE('',*,*,#290,.T.);
#455=ORIENTED_EDGE('',*,*,#317,.F.);
#456=TOROIDAL_SURFACE('',#507,14.4999999999999,0.5);
#457=TOROIDAL_SURFACE('',#519,14.4999999999998,0.5);
#458=ADVANCED_FACE('',(#107),#456,.T.);
#459=ADVANCED_FACE('',(#108),#105,.F.);
#460=ADVANCED_FACE('',(#109),#91,.T.);
#461=ADVANCED_FACE('',(#110),#106,.F.);
#462=ADVANCED_FACE('',(#111),#457,.T.);
#463=ADVANCED_FACE('',(#112),#25,.T.);
#464=ADVANCED_FACE('',(#113,#15,#16,#17,#18),#26,.T.);
#465=ADVANCED_FACE('',(#114),#27,.T.);
#466=ADVANCED_FACE('',(#115),#92,.F.);
#467=ADVANCED_FACE('',(#116),#93,.F.);
#468=ADVANCED_FACE('',(#117),#94,.F.);
#469=ADVANCED_FACE('',(#118),#95,.F.);
#470=ADVANCED_FACE('',(#119),#96,.T.);
#471=ADVANCED_FACE('',(#120),#97,.T.);
#472=ADVANCED_FACE('',(#121),#98,.T.);
#473=ADVANCED_FACE('',(#122),#99,.F.);
#474=ADVANCED_FACE('',(#123),#100,.T.);
#475=ADVANCED_FACE('',(#124),#28,.T.);
#476=ADVANCED_FACE('',(#125),#101,.T.);
#477=ADVANCED_FACE('',(#126),#102,.F.);
#478=ADVANCED_FACE('',(#127),#103,.F.);
#479=ADVANCED_FACE('',(#128),#29,.T.);
#480=ADVANCED_FACE('',(#129),#104,.F.);
#481=ADVANCED_FACE('',(#130),#30,.F.);
#482=ADVANCED_FACE('',(#131,#19),#31,.T.);
#483=ADVANCED_FACE('',(#132,#20,#21,#22,#23,#24),#32,.F.);
#484=CLOSED_SHELL('',(#458,#459,#460,#461,#462,#463,#464,#465,#466,#467,
#468,#469,#470,#471,#472,#473,#474,#475,#476,#477,#478,#479,#480,#481,#482,
#483));
#485=DERIVED_UNIT_ELEMENT(#488,1.);
#486=DERIVED_UNIT_ELEMENT(#940,-3.);
#487=DIMENSIONAL_EXPONENTS(0.,1.,0.,0.,0.,0.,0.);
#488=(
CONVERSION_BASED_UNIT('gram',#490)
MASS_UNIT()
NAMED_UNIT(#487)
);
#489=(
MASS_UNIT()
NAMED_UNIT(*)
SI_UNIT(.KILO.,.GRAM.)
);
#490=MASS_MEASURE_WITH_UNIT(MASS_MEASURE(0.001),#489);
#491=DERIVED_UNIT((#485,#486));
#492=MEASURE_REPRESENTATION_ITEM('density measure',
POSITIVE_RATIO_MEASURE(1.13),#491);
#493=PROPERTY_DEFINITION_REPRESENTATION(#498,#495);
#494=PROPERTY_DEFINITION_REPRESENTATION(#499,#496);
#495=REPRESENTATION('material name',(#497),#937);
#496=REPRESENTATION('density',(#492),#937);
#497=DESCRIPTIVE_REPRESENTATION_ITEM('Nylon 6/6','Nylon 6/6');
#498=PROPERTY_DEFINITION('material property','material name',#947);
#499=PROPERTY_DEFINITION('material property','density of part',#947);
#500=DATE_TIME_ROLE('creation_date');
#501=APPLIED_DATE_AND_TIME_ASSIGNMENT(#502,#500,(#947));
#502=DATE_AND_TIME(#503,#504);
#503=CALENDAR_DATE(2026,14,4);
#504=LOCAL_TIME(0,0,0.,#505);
#505=COORDINATED_UNIVERSAL_TIME_OFFSET(0,0,.BEHIND.);
#506=AXIS2_PLACEMENT_3D('',#709,#564,#565);
#507=AXIS2_PLACEMENT_3D('',#710,#566,#567);
#508=AXIS2_PLACEMENT_3D('',#724,#568,#569);
#509=AXIS2_PLACEMENT_3D('',#726,#570,#571);
#510=AXIS2_PLACEMENT_3D('',#728,#572,#573);
#511=AXIS2_PLACEMENT_3D('',#752,#574,#575);
#512=AXIS2_PLACEMENT_3D('',#753,#576,#577);
#513=AXIS2_PLACEMENT_3D('',#754,#578,#579);
#514=AXIS2_PLACEMENT_3D('',#755,#580,#581);
#515=AXIS2_PLACEMENT_3D('',#758,#582,#583);
#516=AXIS2_PLACEMENT_3D('',#778,#586,#587);
#517=AXIS2_PLACEMENT_3D('',#779,#588,#589);
#518=AXIS2_PLACEMENT_3D('',#780,#590,#591);
#519=AXIS2_PLACEMENT_3D('',#781,#592,#593);
#520=AXIS2_PLACEMENT_3D('',#790,#594,#595);
#521=AXIS2_PLACEMENT_3D('',#792,#596,#597);
#522=AXIS2_PLACEMENT_3D('',#803,#598,#599);
#523=AXIS2_PLACEMENT_3D('',#811,#604,#605);
#524=AXIS2_PLACEMENT_3D('',#815,#607,#608);
#525=AXIS2_PLACEMENT_3D('',#818,#610,#611);
#526=AXIS2_PLACEMENT_3D('',#820,#612,#613);
#527=AXIS2_PLACEMENT_3D('',#822,#614,#615);
#528=AXIS2_PLACEMENT_3D('',#824,#616,#617);
#529=AXIS2_PLACEMENT_3D('',#825,#618,#619);
#530=AXIS2_PLACEMENT_3D('',#831,#623,#624);
#531=AXIS2_PLACEMENT_3D('',#833,#625,#626);
#532=AXIS2_PLACEMENT_3D('',#835,#628,#629);
#533=AXIS2_PLACEMENT_3D('',#837,#630,#631);
#534=AXIS2_PLACEMENT_3D('',#839,#633,#634);
#535=AXIS2_PLACEMENT_3D('',#841,#635,#636);
#536=AXIS2_PLACEMENT_3D('',#843,#638,#639);
#537=AXIS2_PLACEMENT_3D('',#845,#640,#641);
#538=AXIS2_PLACEMENT_3D('',#847,#643,#644);
#539=AXIS2_PLACEMENT_3D('',#849,#645,#646);
#540=AXIS2_PLACEMENT_3D('',#851,#648,#649);
#541=AXIS2_PLACEMENT_3D('',#853,#650,#651);
#542=AXIS2_PLACEMENT_3D('',#855,#653,#654);
#543=AXIS2_PLACEMENT_3D('',#858,#656,#657);
#544=AXIS2_PLACEMENT_3D('',#859,#658,#659);
#545=AXIS2_PLACEMENT_3D('',#862,#661,#662);
#546=AXIS2_PLACEMENT_3D('',#863,#663,#664);
#547=AXIS2_PLACEMENT_3D('',#866,#666,#667);
#548=AXIS2_PLACEMENT_3D('',#867,#668,#669);
#549=AXIS2_PLACEMENT_3D('',#871,#672,#673);
#550=AXIS2_PLACEMENT_3D('',#874,#675,#676);
#551=AXIS2_PLACEMENT_3D('',#875,#677,#678);
#552=AXIS2_PLACEMENT_3D('',#876,#679,#680);
#553=AXIS2_PLACEMENT_3D('',#877,#681,#682);
#554=AXIS2_PLACEMENT_3D('',#879,#683,#684);
#555=AXIS2_PLACEMENT_3D('',#902,#687,#688);
#556=AXIS2_PLACEMENT_3D('',#922,#690,#691);
#557=AXIS2_PLACEMENT_3D('',#924,#693,#694);
#558=AXIS2_PLACEMENT_3D('',#926,#695,#696);
#559=AXIS2_PLACEMENT_3D('',#929,#698,#699);
#560=AXIS2_PLACEMENT_3D('',#930,#700,#701);
#561=AXIS2_PLACEMENT_3D('',#931,#702,#703);
#562=AXIS2_PLACEMENT_3D('',#932,#704,#705);
#563=AXIS2_PLACEMENT_3D('',#934,#707,#708);
#564=DIRECTION('axis',(0.,0.,1.));
#565=DIRECTION('refdir',(1.,0.,0.));
#566=DIRECTION('center_axis',(-2.64811259196068E-15,8.6223205396946E-17,
-1.));
#567=DIRECTION('ref_axis',(-1.,0.,2.63492931177705E-15));
#568=DIRECTION('center_axis',(-2.64811259196068E-15,8.6223205396946E-17,
-1.));
#569=DIRECTION('ref_axis',(-0.19266418608037,0.981264750921987,5.94762334620623E-16));
#570=DIRECTION('center_axis',(-0.939213619057036,0.343333333333342,0.));
#571=DIRECTION('ref_axis',(-0.343333333333342,-0.939213619057036,1.11022302462518E-15));
#572=DIRECTION('center_axis',(2.64811259196068E-15,-8.6223205396946E-17,
1.));
#573=DIRECTION('ref_axis',(-0.19266418608037,0.981264750921987,5.94804249346812E-16));
#574=DIRECTION('center_axis',(0.,-1.,0.));
#575=DIRECTION('ref_axis',(1.,0.,-2.2204460492503E-15));
#576=DIRECTION('center_axis',(-2.64811259196068E-15,8.6223205396946E-17,
-1.));
#577=DIRECTION('ref_axis',(0.573003781255699,-0.819552723542952,-1.58804299119997E-15));
#578=DIRECTION('center_axis',(2.64811259196068E-15,-8.6223205396946E-17,
1.));
#579=DIRECTION('ref_axis',(0.573003781255699,-0.819552723542952,-1.59594559789866E-15));
#580=DIRECTION('center_axis',(0.,1.,8.6223205396946E-17));
#581=DIRECTION('ref_axis',(0.707106781186546,0.,0.707106781186549));
#582=DIRECTION('center_axis',(0.,-1.,0.));
#583=DIRECTION('ref_axis',(1.,0.,0.));
#584=DIRECTION('',(0.,-1.,-8.6223205396946E-17));
#585=DIRECTION('',(0.,1.,8.6223205396946E-17));
#586=DIRECTION('center_axis',(0.939213619057038,0.343333333333338,0.));
#587=DIRECTION('ref_axis',(-0.343333333333338,0.939213619057038,1.11022302462515E-15));
#588=DIRECTION('center_axis',(-2.64811259196068E-15,8.6223205396946E-17,
-1.));
#589=DIRECTION('ref_axis',(0.573003781255701,0.819552723542951,-1.44671406556863E-15));
#590=DIRECTION('center_axis',(2.64811259196068E-15,-8.6223205396946E-17,
1.));
#591=DIRECTION('ref_axis',(0.573003781255701,0.819552723542951,-1.45716771982052E-15));
#592=DIRECTION('center_axis',(-2.64811259196068E-15,8.6223205396946E-17,
-1.));
#593=DIRECTION('ref_axis',(-1.,0.,2.63492931177707E-15));
#594=DIRECTION('center_axis',(2.64811259196068E-15,-8.6223205396946E-17,
1.));
#595=DIRECTION('ref_axis',(-0.192664186080372,-0.981264750921986,4.25588665011759E-16));
#596=DIRECTION('center_axis',(-2.64811259196068E-15,8.6223205396946E-17,
-1.));
#597=DIRECTION('ref_axis',(-0.192664186080372,-0.981264750921986,4.26246339811449E-16));
#598=DIRECTION('center_axis',(0.,-1.,0.));
#599=DIRECTION('ref_axis',(1.,0.,0.));
#600=DIRECTION('',(1.,-1.09887137908187E-32,-2.64811259196068E-15));
#601=DIRECTION('',(0.,0.,1.));
#602=DIRECTION('',(1.,0.,0.));
#603=DIRECTION('',(0.,0.,-1.));
#604=DIRECTION('center_axis',(2.64811259196068E-15,-8.6223205396946E-17,
1.));
#605=DIRECTION('ref_axis',(1.,0.,-2.64811259196068E-15));
#606=DIRECTION('',(-1.,1.09887137908187E-32,2.64811259196068E-15));
#607=DIRECTION('center_axis',(-2.64811259196068E-15,8.6223205396946E-17,
-1.));
#608=DIRECTION('ref_axis',(-0.707106781186549,0.707106781186546,0.));
#609=DIRECTION('',(2.94318881035877E-16,-1.,-8.62232053969467E-17));
#610=DIRECTION('center_axis',(-2.64811259196068E-15,8.6223205396946E-17,
-1.));
#611=DIRECTION('ref_axis',(-1.,0.,0.));
#612=DIRECTION('center_axis',(-2.64811259196068E-15,8.6223205396946E-17,
-1.));
#613=DIRECTION('ref_axis',(-1.,0.,0.));
#614=DIRECTION('center_axis',(-2.64811259196068E-15,8.6223205396946E-17,
-1.));
#615=DIRECTION('ref_axis',(-1.,0.,0.));
#616=DIRECTION('center_axis',(-2.64811259196068E-15,8.6223205396946E-17,
-1.));
#617=DIRECTION('ref_axis',(-1.,0.,0.));
#618=DIRECTION('center_axis',(0.,1.,0.));
#619=DIRECTION('ref_axis',(-1.,0.,0.));
#620=DIRECTION('',(0.,0.,1.));
#621=DIRECTION('',(-1.,0.,0.));
#622=DIRECTION('',(0.,0.,-1.));
#623=DIRECTION('center_axis',(0.,0.,-1.));
#624=DIRECTION('ref_axis',(-1.,0.,0.));
#625=DIRECTION('center_axis',(0.,0.,1.));
#626=DIRECTION('ref_axis',(-1.,0.,0.));
#627=DIRECTION('',(0.,0.,1.));
#628=DIRECTION('center_axis',(0.,0.,-1.));
#629=DIRECTION('ref_axis',(-1.,0.,0.));
#630=DIRECTION('center_axis',(0.,0.,1.));
#631=DIRECTION('ref_axis',(-1.,0.,0.));
#632=DIRECTION('',(0.,0.,1.));
#633=DIRECTION('center_axis',(0.,0.,-1.));
#634=DIRECTION('ref_axis',(-1.,0.,0.));
#635=DIRECTION('center_axis',(0.,0.,1.));
#636=DIRECTION('ref_axis',(-1.,0.,0.));
#637=DIRECTION('',(0.,0.,1.));
#638=DIRECTION('center_axis',(0.,0.,-1.));
#639=DIRECTION('ref_axis',(-1.,0.,0.));
#640=DIRECTION('center_axis',(0.,0.,1.));
#641=DIRECTION('ref_axis',(-1.,0.,0.));
#642=DIRECTION('',(0.,0.,1.));
#643=DIRECTION('center_axis',(0.,0.,1.));
#644=DIRECTION('ref_axis',(-0.707106781186549,0.707106781186546,0.));
#645=DIRECTION('center_axis',(0.,0.,1.));
#646=DIRECTION('ref_axis',(-0.707106781186549,0.707106781186546,0.));
#647=DIRECTION('',(0.,0.,1.));
#648=DIRECTION('center_axis',(0.,0.,1.));
#649=DIRECTION('ref_axis',(0.360783947762006,-0.932649421292515,0.));
#650=DIRECTION('center_axis',(0.,0.,1.));
#651=DIRECTION('ref_axis',(0.360783947762006,-0.932649421292515,0.));
#652=DIRECTION('',(0.,0.,1.));
#653=DIRECTION('center_axis',(0.,0.,1.));
#654=DIRECTION('ref_axis',(0.360783947762006,0.932649421292514,0.));
#655=DIRECTION('',(0.,0.,-1.));
#656=DIRECTION('center_axis',(0.,0.,1.));
#657=DIRECTION('ref_axis',(0.360783947762006,0.932649421292514,0.));
#658=DIRECTION('center_axis',(0.,0.,1.));
#659=DIRECTION('ref_axis',(-1.,0.,0.));
#660=DIRECTION('',(0.,0.,1.));
#661=DIRECTION('center_axis',(0.,0.,-1.));
#662=DIRECTION('ref_axis',(-1.,0.,0.));
#663=DIRECTION('center_axis',(0.,0.,1.));
#664=DIRECTION('ref_axis',(0.573003781255701,0.819552723542951,0.));
#665=DIRECTION('',(0.,0.,-1.));
#666=DIRECTION('center_axis',(0.,0.,1.));
#667=DIRECTION('ref_axis',(0.573003781255701,0.819552723542951,0.));
#668=DIRECTION('center_axis',(1.,0.,0.));
#669=DIRECTION('ref_axis',(0.,1.,0.));
#670=DIRECTION('',(0.,0.,1.));
#671=DIRECTION('',(0.,1.,0.));
#672=DIRECTION('center_axis',(0.,0.,1.));
#673=DIRECTION('ref_axis',(0.573003781255701,-0.819552723542951,0.));
#674=DIRECTION('',(0.,0.,-1.));
#675=DIRECTION('center_axis',(0.,0.,1.));
#676=DIRECTION('ref_axis',(0.573003781255701,-0.819552723542951,0.));
#677=DIRECTION('center_axis',(0.,0.,1.));
#678=DIRECTION('ref_axis',(-1.,0.,0.));
#679=DIRECTION('center_axis',(0.,0.,-1.));
#680=DIRECTION('ref_axis',(-1.,0.,0.));
#681=DIRECTION('center_axis',(-1.,-2.94318881035878E-16,0.));
#682=DIRECTION('ref_axis',(0.,0.,1.));
#683=DIRECTION('center_axis',(1.,2.94318881035878E-16,0.));
#684=DIRECTION('ref_axis',(0.,0.,1.));
#685=DIRECTION('',(1.,2.94318881035878E-16,0.));
#686=DIRECTION('',(-1.,-2.94318881035878E-16,0.));
#687=DIRECTION('center_axis',(-1.,-2.94318881035878E-16,0.));
#688=DIRECTION('ref_axis',(0.,0.,1.));
#689=DIRECTION('',(1.,2.94318881035878E-16,0.));
#690=DIRECTION('center_axis',(-1.,-2.94318881035878E-16,0.));
#691=DIRECTION('ref_axis',(0.,0.,1.));
#692=DIRECTION('',(-2.94318881035878E-16,1.,8.62232053969467E-17));
#693=DIRECTION('center_axis',(0.,0.,1.));
#694=DIRECTION('ref_axis',(-1.,0.,0.));
#695=DIRECTION('center_axis',(0.,0.,-1.));
#696=DIRECTION('ref_axis',(-1.,0.,0.));
#697=DIRECTION('',(0.,0.,-1.));
#698=DIRECTION('center_axis',(0.,0.,-1.));
#699=DIRECTION('ref_axis',(-1.,0.,0.));
#700=DIRECTION('center_axis',(0.,0.,-1.));
#701=DIRECTION('ref_axis',(-1.,0.,0.));
#702=DIRECTION('center_axis',(2.64811259196068E-15,-8.6223205396946E-17,
1.));
#703=DIRECTION('ref_axis',(1.,0.,-2.64811259196068E-15));
#704=DIRECTION('center_axis',(-1.,-2.94318881035878E-16,0.));
#705=DIRECTION('ref_axis',(2.94318881035878E-16,-1.,0.));
#706=DIRECTION('',(2.94318881035878E-16,-1.,0.));
#707=DIRECTION('center_axis',(0.,0.,1.));
#708=DIRECTION('ref_axis',(1.,0.,0.));
#709=CARTESIAN_POINT('',(0.,0.,0.));
#710=CARTESIAN_POINT('Origin',(14.7,-55.6370721549443,3.29999999999997));
#711=CARTESIAN_POINT('',(4.60545179724417,-45.5420238638265,3.74711723982703));
#712=CARTESIAN_POINT('',(5.27842167742788,-45.281693749901,3.29999999999999));
#713=CARTESIAN_POINT('Ctrl Pts',(4.60545179724417,-45.5420238638265,3.74711723982703));
#714=CARTESIAN_POINT('Ctrl Pts',(4.69860380727335,-45.5420238638265,3.71414837546286));
#715=CARTESIAN_POINT('Ctrl Pts',(4.78801658340487,-45.5289617328194,3.66932876153917));
#716=CARTESIAN_POINT('Ctrl Pts',(4.95012402725188,-45.4843434527781,3.57207041482733));
#717=CARTESIAN_POINT('Ctrl Pts',(5.02449839192806,-45.4533465016138,3.5192998577713));
#718=CARTESIAN_POINT('Ctrl Pts',(5.15924672545437,-45.3781517732401,3.41202688331993));
#719=CARTESIAN_POINT('Ctrl Pts',(5.22072036451488,-45.3338895310926,3.35694802510578));
#720=CARTESIAN_POINT('Ctrl Pts',(5.27697643449937,-45.2830067345646,3.30142915818285));
#721=CARTESIAN_POINT('Ctrl Pts',(5.27769953737384,-45.2823507707083,3.30071457877159));
#722=CARTESIAN_POINT('Ctrl Pts',(5.2784216774279,-45.281693749901,3.29999999999999));
#723=CARTESIAN_POINT('',(19.5066666666666,-42.4880814881458,3.29999999999995));
#724=CARTESIAN_POINT('Origin',(14.7,-55.6370721549443,3.29999999999997));
#725=CARTESIAN_POINT('',(19.6783333333333,-42.0184746786173,3.79999999999994));
#726=CARTESIAN_POINT('Origin',(19.6783333333333,-42.0184746786173,3.29999999999995));
#727=CARTESIAN_POINT('',(4.29134975128875,-45.5420238638265,3.79999999999999));
#728=CARTESIAN_POINT('Origin',(14.7,-55.6370721549443,3.79999999999996));
#729=CARTESIAN_POINT('Ctrl Pts',(4.29134975128875,-45.5420238638265,3.79999999999999));
#730=CARTESIAN_POINT('Ctrl Pts',(4.38719532726377,-45.5420238638265,3.79999999999999));
#731=CARTESIAN_POINT('Ctrl Pts',(4.50084217651471,-45.5420238638265,3.78231461506582));
#732=CARTESIAN_POINT('Ctrl Pts',(4.5962609639373,-45.5420238638265,3.75032606404756));
#733=CARTESIAN_POINT('Ctrl Pts',(4.60084178085727,-45.5420238638265,3.74874884181746));
#734=CARTESIAN_POINT('Ctrl Pts',(4.60545179724417,-45.5420238638265,3.74711723982703));
#735=CARTESIAN_POINT('Ctrl Pts',(20.35,-41.5488678690888,3.79999999999996));
#736=CARTESIAN_POINT('Ctrl Pts',(20.35,-41.8093735122757,3.79999999999996));
#737=CARTESIAN_POINT('Ctrl Pts',(20.1365018906278,-41.9586442308603,3.79999999999997));
#738=CARTESIAN_POINT('Ctrl Pts',(19.9230037812557,-42.1079149494448,3.79999999999997));
#739=CARTESIAN_POINT('Ctrl Pts',(19.6783333333333,-42.0184746786173,3.79999999999997));
#740=CARTESIAN_POINT('Ctrl Pts',(20.85,-41.5488678690888,3.79999999999997));
#741=CARTESIAN_POINT('Ctrl Pts',(20.85,-42.0698791554627,3.79999999999997));
#742=CARTESIAN_POINT('Ctrl Pts',(20.4230037812557,-42.3684205926318,3.79999999999997));
#743=CARTESIAN_POINT('Ctrl Pts',(19.9960075625114,-42.6669620298009,3.79999999999997));
#744=CARTESIAN_POINT('Ctrl Pts',(19.5066666666666,-42.4880814881459,3.79999999999997));
#745=CARTESIAN_POINT('Ctrl Pts',(20.85,-41.5488678690888,3.29999999999995));
#746=CARTESIAN_POINT('Ctrl Pts',(20.85,-42.0698791554627,3.29999999999995));
#747=CARTESIAN_POINT('Ctrl Pts',(20.4230037812557,-42.3684205926318,3.29999999999995));
#748=CARTESIAN_POINT('Ctrl Pts',(19.9960075625114,-42.6669620298009,3.29999999999995));
#749=CARTESIAN_POINT('Ctrl Pts',(19.5066666666666,-42.4880814881458,3.29999999999995));
#750=CARTESIAN_POINT('',(20.85,-41.5488678690888,3.29999999999996));
#751=CARTESIAN_POINT('',(20.35,-41.5488678690888,3.79999999999994));
#752=CARTESIAN_POINT('Origin',(20.35,-41.5488678690888,3.29999999999996));
#753=CARTESIAN_POINT('Origin',(19.85,-41.5488678690888,3.79999999999994));
#754=CARTESIAN_POINT('Origin',(19.85,-41.5488678690888,3.29999999999997));
#755=CARTESIAN_POINT('Origin',(20.35,-39.1143722767112,3.29999999999994));
#756=CARTESIAN_POINT('',(20.85,-28.7882042858553,3.29999999999994));
#757=CARTESIAN_POINT('',(20.35,-28.7882042858553,3.79999999999994));
#758=CARTESIAN_POINT('Origin',(20.35,-28.7882042858553,3.29999999999994));
#759=CARTESIAN_POINT('',(20.35,-39.1143722767112,3.79999999999994));
#760=CARTESIAN_POINT('',(20.85,-39.1143722767112,3.29999999999994));
#761=CARTESIAN_POINT('Ctrl Pts',(19.6783333333333,-28.3185974763268,3.79999999999997));
#762=CARTESIAN_POINT('Ctrl Pts',(19.9230037812557,-28.2291572054993,3.79999999999997));
#763=CARTESIAN_POINT('Ctrl Pts',(20.1365018906278,-28.3784279240838,3.79999999999997));
#764=CARTESIAN_POINT('Ctrl Pts',(20.35,-28.5276986426684,3.79999999999996));
#765=CARTESIAN_POINT('Ctrl Pts',(20.35,-28.7882042858553,3.79999999999996));
#766=CARTESIAN_POINT('Ctrl Pts',(19.5066666666666,-27.8489906667983,3.79999999999997));
#767=CARTESIAN_POINT('Ctrl Pts',(19.9960075625114,-27.6701101251432,3.79999999999997));
#768=CARTESIAN_POINT('Ctrl Pts',(20.4230037812557,-27.9686515623123,3.79999999999997));
#769=CARTESIAN_POINT('Ctrl Pts',(20.85,-28.2671929994815,3.79999999999996));
#770=CARTESIAN_POINT('Ctrl Pts',(20.85,-28.7882042858553,3.79999999999996));
#771=CARTESIAN_POINT('Ctrl Pts',(19.5066666666666,-27.8489906667983,3.29999999999995));
#772=CARTESIAN_POINT('Ctrl Pts',(19.9960075625114,-27.6701101251432,3.29999999999995));
#773=CARTESIAN_POINT('Ctrl Pts',(20.4230037812557,-27.9686515623124,3.29999999999994));
#774=CARTESIAN_POINT('Ctrl Pts',(20.85,-28.2671929994815,3.29999999999994));
#775=CARTESIAN_POINT('Ctrl Pts',(20.85,-28.7882042858553,3.29999999999994));
#776=CARTESIAN_POINT('',(19.5066666666666,-27.8489906667983,3.29999999999997));
#777=CARTESIAN_POINT('',(19.6783333333333,-28.3185974763268,3.79999999999995));
#778=CARTESIAN_POINT('Origin',(19.6783333333333,-28.3185974763268,3.29999999999997));
#779=CARTESIAN_POINT('Origin',(19.85,-28.7882042858553,3.79999999999995));
#780=CARTESIAN_POINT('Origin',(19.85,-28.7882042858553,3.29999999999997));
#781=CARTESIAN_POINT('Origin',(14.7,-14.6999999999999,3.29999999999997));
#782=CARTESIAN_POINT('',(4.60545179724416,-24.7950482911176,3.74711723982703));
#783=CARTESIAN_POINT('',(4.29134975128874,-24.7950482911176,3.79999999999999));
#784=CARTESIAN_POINT('Ctrl Pts',(4.60545179724416,-24.7950482911176,3.74711723982703));
#785=CARTESIAN_POINT('Ctrl Pts',(4.60084178085726,-24.7950482911176,3.74874884181746));
#786=CARTESIAN_POINT('Ctrl Pts',(4.59626096393729,-24.7950482911176,3.75032606404756));
#787=CARTESIAN_POINT('Ctrl Pts',(4.5008421765147,-24.7950482911176,3.78231461506582));
#788=CARTESIAN_POINT('Ctrl Pts',(4.38719532726376,-24.7950482911176,3.79999999999999));
#789=CARTESIAN_POINT('Ctrl Pts',(4.29134975128874,-24.7950482911176,3.79999999999999));
#790=CARTESIAN_POINT('Origin',(14.7,-14.6999999999999,3.79999999999996));
#791=CARTESIAN_POINT('',(5.27842167742788,-25.0553784050431,3.29999999999999));
#792=CARTESIAN_POINT('Origin',(14.7,-14.6999999999999,3.29999999999997));
#793=CARTESIAN_POINT('Ctrl Pts',(5.27842167742789,-25.0553784050431,3.29999999999999));
#794=CARTESIAN_POINT('Ctrl Pts',(5.27769953737308,-25.0547213842351,3.30071457877232));
#795=CARTESIAN_POINT('Ctrl Pts',(5.27697643449682,-25.0540654203772,3.30142915818467));
#796=CARTESIAN_POINT('Ctrl Pts',(5.22072036450985,-25.0031826238474,3.3569480251234));
#797=CARTESIAN_POINT('Ctrl Pts',(5.15924672542075,-24.9589203816802,3.41202688334977));
#798=CARTESIAN_POINT('Ctrl Pts',(5.02449839184161,-24.8837256532872,3.51929985783692));
#799=CARTESIAN_POINT('Ctrl Pts',(4.95012402712313,-24.852728702115,3.57207041491666));
#800=CARTESIAN_POINT('Ctrl Pts',(4.78801658327976,-24.8081104221064,3.66932876160159));
#801=CARTESIAN_POINT('Ctrl Pts',(4.69860380720828,-24.7950482911176,3.71414837548588));
#802=CARTESIAN_POINT('Ctrl Pts',(4.60545179724416,-24.7950482911176,3.74711723982703));
#803=CARTESIAN_POINT('Origin',(3.00000000000015,-45.5420238638265,0.));
#804=CARTESIAN_POINT('',(3.00000000000016,-45.5420238638265,3.79999999999999));
#805=CARTESIAN_POINT('',(3.00000000000016,-45.5420238638265,3.79999999999999));
#806=CARTESIAN_POINT('',(3.00000000000015,-45.5420238638265,0.));
#807=CARTESIAN_POINT('',(3.00000000000015,-45.5420238638265,0.));
#808=CARTESIAN_POINT('',(4.60545179724416,-45.5420238638265,0.));
#809=CARTESIAN_POINT('',(3.00000000000015,-45.5420238638265,0.));
#810=CARTESIAN_POINT('',(4.60545179724416,-45.5420238638265,0.));
#811=CARTESIAN_POINT('Origin',(11.9250000000001,-35.168536077472,3.79999999999997));
#812=CARTESIAN_POINT('',(4.00000000000015,-24.7950482911176,3.79999999999999));
#813=CARTESIAN_POINT('',(5.00000000000015,-24.7950482911176,3.79999999999999));
#814=CARTESIAN_POINT('',(3.00000000000015,-25.7950482911176,3.79999999999999));
#815=CARTESIAN_POINT('Origin',(4.00000000000015,-25.7950482911176,3.79999999999997));
#816=CARTESIAN_POINT('',(3.00000000000015,-24.7950482911176,3.79999999999999));
#817=CARTESIAN_POINT('',(19.4970923180158,-39.5783857242731,3.79999999999996));
#818=CARTESIAN_POINT('Origin',(18.4905923180158,-39.5783857242731,3.79999999999996));
#819=CARTESIAN_POINT('',(19.3686532161828,-30.7884627550664,3.79999999999996));
#820=CARTESIAN_POINT('Origin',(18.3621532161828,-30.7884627550664,3.79999999999996));
#821=CARTESIAN_POINT('',(8.51040814576184,-29.5481063447615,3.79999999999996));
#822=CARTESIAN_POINT('Origin',(7.50390814576184,-29.5481063447615,3.79999999999996));
#823=CARTESIAN_POINT('',(7.05658150205246,-39.3417368789509,3.79999999999996));
#824=CARTESIAN_POINT('Origin',(6.05008150205246,-39.3417368789509,3.79999999999996));
#825=CARTESIAN_POINT('Origin',(5.00000000000015,-24.7950482911176,0.));
#826=CARTESIAN_POINT('',(4.60545179724415,-24.7950482911176,0.));
#827=CARTESIAN_POINT('',(4.60545179724415,-24.7950482911176,0.));
#828=CARTESIAN_POINT('',(4.00000000000015,-24.7950482911176,0.));
#829=CARTESIAN_POINT('',(5.00000000000015,-24.7950482911176,0.));
#830=CARTESIAN_POINT('',(4.00000000000015,-24.7950482911176,0.));
#831=CARTESIAN_POINT('Origin',(6.05008150205246,-39.3417368789509,27.6314946286764));
#832=CARTESIAN_POINT('',(7.05658150205246,-39.3417368789509,0.));
#833=CARTESIAN_POINT('Origin',(6.05008150205246,-39.3417368789509,0.));
#834=CARTESIAN_POINT('',(7.05658150205246,-39.3417368789509,27.6314946286764));
#835=CARTESIAN_POINT('Origin',(7.50390814576184,-29.5481063447615,27.6314946286764));
#836=CARTESIAN_POINT('',(8.51040814576184,-29.5481063447615,0.));
#837=CARTESIAN_POINT('Origin',(7.50390814576184,-29.5481063447615,0.));
#838=CARTESIAN_POINT('',(8.51040814576184,-29.5481063447615,27.6314946286764));
#839=CARTESIAN_POINT('Origin',(18.3621532161828,-30.7884627550664,27.6314946286764));
#840=CARTESIAN_POINT('',(19.3686532161828,-30.7884627550664,0.));
#841=CARTESIAN_POINT('Origin',(18.3621532161828,-30.7884627550664,0.));
#842=CARTESIAN_POINT('',(19.3686532161828,-30.7884627550664,27.6314946286764));
#843=CARTESIAN_POINT('Origin',(18.4905923180158,-39.5783857242731,27.6314946286764));
#844=CARTESIAN_POINT('',(19.4970923180158,-39.5783857242731,0.));
#845=CARTESIAN_POINT('Origin',(18.4905923180158,-39.5783857242731,0.));
#846=CARTESIAN_POINT('',(19.4970923180158,-39.5783857242731,27.6314946286764));
#847=CARTESIAN_POINT('Origin',(4.00000000000015,-25.7950482911176,0.));
#848=CARTESIAN_POINT('',(3.00000000000015,-25.7950482911176,0.));
#849=CARTESIAN_POINT('Origin',(4.00000000000015,-25.7950482911176,0.));
#850=CARTESIAN_POINT('',(3.00000000000015,-25.7950482911176,0.));
#851=CARTESIAN_POINT('Origin',(4.60545179724416,-44.5420238638265,0.));
#852=CARTESIAN_POINT('',(5.27842167742789,-45.281693749901,0.));
#853=CARTESIAN_POINT('Origin',(4.60545179724416,-44.5420238638265,0.));
#854=CARTESIAN_POINT('',(5.27842167742788,-45.281693749901,0.));
#855=CARTESIAN_POINT('Origin',(4.60545179724415,-25.7950482911176,0.));
#856=CARTESIAN_POINT('',(5.27842167742788,-25.0553784050431,0.));
#857=CARTESIAN_POINT('',(5.27842167742788,-25.0553784050431,0.));
#858=CARTESIAN_POINT('Origin',(4.60545179724415,-25.7950482911176,0.));
#859=CARTESIAN_POINT('Origin',(14.7,-14.6999999999999,0.));
#860=CARTESIAN_POINT('',(19.5066666666666,-27.8489906667983,0.));
#861=CARTESIAN_POINT('',(19.5066666666666,-27.8489906667983,0.));
#862=CARTESIAN_POINT('Origin',(14.7,-14.6999999999999,0.));
#863=CARTESIAN_POINT('Origin',(19.85,-28.7882042858553,0.));
#864=CARTESIAN_POINT('',(20.85,-28.7882042858553,0.));
#865=CARTESIAN_POINT('',(20.85,-28.7882042858553,0.));
#866=CARTESIAN_POINT('Origin',(19.85,-28.7882042858553,0.));
#867=CARTESIAN_POINT('Origin',(20.85,-43.0602084759504,0.));
#868=CARTESIAN_POINT('',(20.85,-41.5488678690888,0.));
#869=CARTESIAN_POINT('',(20.85,-41.5488678690888,0.));
#870=CARTESIAN_POINT('',(20.85,-43.0602084759504,0.));
#871=CARTESIAN_POINT('Origin',(19.85,-41.5488678690888,0.));
#872=CARTESIAN_POINT('',(19.5066666666666,-42.4880814881458,0.));
#873=CARTESIAN_POINT('',(19.5066666666666,-42.4880814881458,0.));
#874=CARTESIAN_POINT('Origin',(19.85,-41.5488678690888,0.));
#875=CARTESIAN_POINT('Origin',(14.7,-55.6370721549443,0.));
#876=CARTESIAN_POINT('Origin',(14.7,-55.6370721549443,0.));
#877=CARTESIAN_POINT('Origin',(5.25000000000015,-35.168536077472,1.89999999999999));
#878=CARTESIAN_POINT('',(3.00000000000015,-35.168536077472,0.893499999999994));
#879=CARTESIAN_POINT('Origin',(3.00000000000015,-35.168536077472,1.89999999999999));
#880=CARTESIAN_POINT('',(7.35107500008384,-35.168536077472,0.893499999999994));
#881=CARTESIAN_POINT('',(5.25000000000015,-35.168536077472,0.893499999999994));
#882=CARTESIAN_POINT('',(7.38081746320452,-34.7179339802732,2.8));
#883=CARTESIAN_POINT('Ctrl Pts',(7.38081746320452,-34.7179339802732,2.8));
#884=CARTESIAN_POINT('Ctrl Pts',(7.391820064288,-34.619294199028,2.75061411967076));
#885=CARTESIAN_POINT('Ctrl Pts',(7.4048482904122,-34.5299122107637,2.68484899377482));
#886=CARTESIAN_POINT('Ctrl Pts',(7.4317027449343,-34.3675085449539,2.52229696385129));
#887=CARTESIAN_POINT('Ctrl Pts',(7.44710273058351,-34.2901967529519,2.40945605491223));
#888=CARTESIAN_POINT('Ctrl Pts',(7.4688069044456,-34.187449606049,2.16171494388177));
#889=CARTESIAN_POINT('Ctrl Pts',(7.47480689274637,-34.162036077472,2.02677913433796));
#890=CARTESIAN_POINT('Ctrl Pts',(7.47480689274637,-34.162036077472,1.77322086566203));
#891=CARTESIAN_POINT('Ctrl Pts',(7.4688069044456,-34.187449606049,1.63828505611821));
#892=CARTESIAN_POINT('Ctrl Pts',(7.44710273058351,-34.2901967529519,1.39054394508776));
#893=CARTESIAN_POINT('Ctrl Pts',(7.4317027449343,-34.3675085449539,1.2777030361487));
#894=CARTESIAN_POINT('Ctrl Pts',(7.40224543102928,-34.5456531339325,1.09939570291226));
#895=CARTESIAN_POINT('Ctrl Pts',(7.38623523074063,-34.6585700840301,1.02193610267343));
#896=CARTESIAN_POINT('Ctrl Pts',(7.36183571859118,-34.9065146648834,0.918976905028938));
#897=CARTESIAN_POINT('Ctrl Pts',(7.3537080959632,-35.041577399941,0.893499999999994));
#898=CARTESIAN_POINT('Ctrl Pts',(7.35107500008384,-35.168536077472,0.893499999999995));
#899=CARTESIAN_POINT('',(7.50000000000015,-34.7179339802732,2.79999999999998));
#900=CARTESIAN_POINT('',(5.25000000000015,-34.7179339802732,2.79999999999998));
#901=CARTESIAN_POINT('',(7.50000000000015,-35.6191381746709,2.79999999999998));
#902=CARTESIAN_POINT('Origin',(7.50000000000015,-35.168536077472,1.89999999999999));
#903=CARTESIAN_POINT('',(7.36205024829034,-35.6191381746709,2.8));
#904=CARTESIAN_POINT('',(5.25000000000015,-35.6191381746709,2.79999999999998));
#905=CARTESIAN_POINT('Ctrl Pts',(7.35107500008384,-35.168536077472,0.893499999999994));
#906=CARTESIAN_POINT('Ctrl Pts',(7.34845054393871,-35.2950781772243,0.893499999999994));
#907=CARTESIAN_POINT('Ctrl Pts',(7.35094762664172,-35.4299479107897,0.918827474823978));
#908=CARTESIAN_POINT('Ctrl Pts',(7.36493089798357,-35.6777877050256,1.0215363161077));
#909=CARTESIAN_POINT('Ctrl Pts',(7.37615192928816,-35.7907788159439,1.09890281466218));
#910=CARTESIAN_POINT('Ctrl Pts',(7.3980120496286,-35.9692860740091,1.27727813022992));
#911=CARTESIAN_POINT('Ctrl Pts',(7.41008147593908,-36.0467612261102,1.39031094903786));
#912=CARTESIAN_POINT('Ctrl Pts',(7.42731421163073,-36.1496436764755,1.6382937349617));
#913=CARTESIAN_POINT('Ctrl Pts',(7.43218443040406,-36.175036077472,1.77327016243984));
#914=CARTESIAN_POINT('Ctrl Pts',(7.43218443040406,-36.175036077472,1.89999999999999));
#915=CARTESIAN_POINT('Ctrl Pts',(7.43218443040406,-36.175036077472,2.02672983756015));
#916=CARTESIAN_POINT('Ctrl Pts',(7.42731421163073,-36.1496436764755,2.16170626503829));
#917=CARTESIAN_POINT('Ctrl Pts',(7.41008147593908,-36.0467612261102,2.40968905096213));
#918=CARTESIAN_POINT('Ctrl Pts',(7.3980120496286,-35.9692860740091,2.52272186977007));
#919=CARTESIAN_POINT('Ctrl Pts',(7.37810132651618,-35.8066973721382,2.68519039524246));
#920=CARTESIAN_POINT('Ctrl Pts',(7.36889170417925,-35.7175017777797,2.75075239350124));
#921=CARTESIAN_POINT('Ctrl Pts',(7.36205024829034,-35.6191381746709,2.8));
#922=CARTESIAN_POINT('Origin',(7.50000000000015,-35.168536077472,1.89999999999999));
#923=CARTESIAN_POINT('',(7.50000000000015,-35.168536077472,2.79999999999998));
#924=CARTESIAN_POINT('Origin',(12.35,-35.2722127152135,0.));
#925=CARTESIAN_POINT('',(17.35,-35.2722127152135,2.8));
#926=CARTESIAN_POINT('Origin',(12.35,-35.2722127152135,2.8));
#927=CARTESIAN_POINT('',(17.35,-35.2722127152135,0.));
#928=CARTESIAN_POINT('',(17.35,-35.2722127152135,0.));
#929=CARTESIAN_POINT('Origin',(12.35,-35.2722127152135,0.));
#930=CARTESIAN_POINT('Origin',(12.35,-35.2722127152135,2.8));
#931=CARTESIAN_POINT('Origin',(11.9250000000001,-35.168536077472,2.79999999999997));
#932=CARTESIAN_POINT('Origin',(3.00000000000015,-24.7950482911176,0.));
#933=CARTESIAN_POINT('',(3.00000000000015,-24.7950482911176,0.));
#934=CARTESIAN_POINT('Origin',(11.9250000000001,-35.168536077472,0.));
#935=UNCERTAINTY_MEASURE_WITH_UNIT(LENGTH_MEASURE(0.01),#939,
'DISTANCE_ACCURACY_VALUE',
'Maximum model space distance between geometric entities at asserted c
onnectivities');
#936=UNCERTAINTY_MEASURE_WITH_UNIT(LENGTH_MEASURE(0.01),#939,
'DISTANCE_ACCURACY_VALUE',
'Maximum model space distance between geometric entities at asserted c
onnectivities');
#937=(
GEOMETRIC_REPRESENTATION_CONTEXT(3)
GLOBAL_UNCERTAINTY_ASSIGNED_CONTEXT((#935))
GLOBAL_UNIT_ASSIGNED_CONTEXT((#939,#941,#942))
REPRESENTATION_CONTEXT('','3D')
);
#938=(
GEOMETRIC_REPRESENTATION_CONTEXT(3)
GLOBAL_UNCERTAINTY_ASSIGNED_CONTEXT((#936))
GLOBAL_UNIT_ASSIGNED_CONTEXT((#939,#941,#942))
REPRESENTATION_CONTEXT('','3D')
);
#939=(
LENGTH_UNIT()
NAMED_UNIT(*)
SI_UNIT(.MILLI.,.METRE.)
);
#940=(
LENGTH_UNIT()
NAMED_UNIT(*)
SI_UNIT(.CENTI.,.METRE.)
);
#941=(
NAMED_UNIT(*)
PLANE_ANGLE_UNIT()
SI_UNIT($,.RADIAN.)
);
#942=(
NAMED_UNIT(*)
SI_UNIT($,.STERADIAN.)
SOLID_ANGLE_UNIT()
);
#943=SHAPE_DEFINITION_REPRESENTATION(#944,#945);
#944=PRODUCT_DEFINITION_SHAPE('',$,#947);
#945=SHAPE_REPRESENTATION('',(#506),#937);
#946=PRODUCT_DEFINITION_CONTEXT('part definition',#951,'design');
#947=PRODUCT_DEFINITION('GearboxBearingHolderCover',
'GearboxBearingHolderCover',#948,#946);
#948=PRODUCT_DEFINITION_FORMATION('',$,#953);
#949=PRODUCT_RELATED_PRODUCT_CATEGORY('GearboxBearingHolderCover',
'GearboxBearingHolderCover',(#953));
#950=APPLICATION_PROTOCOL_DEFINITION('international standard',
'automotive_design',2009,#951);
#951=APPLICATION_CONTEXT(
'Core Data for Automotive Mechanical Design Process');
#952=PRODUCT_CONTEXT('part definition',#951,'mechanical');
#953=PRODUCT('GearboxBearingHolderCover','GearboxBearingHolderCover',$,
(#952));
#954=PRESENTATION_STYLE_ASSIGNMENT((#955));
#955=SURFACE_STYLE_USAGE(.BOTH.,#958);
#956=SURFACE_STYLE_RENDERING_WITH_PROPERTIES($,#962,(#957));
#957=SURFACE_STYLE_TRANSPARENT(0.);
#958=SURFACE_SIDE_STYLE('',(#959,#956));
#959=SURFACE_STYLE_FILL_AREA(#960);
#960=FILL_AREA_STYLE('',(#961));
#961=FILL_AREA_STYLE_COLOUR('',#962);
#962=COLOUR_RGB('',0.43921568627451,0.43921568627451,0.43921568627451);
ENDSEC;
END-ISO-10303-21;
