ISO-10303-21;
HEADER;
/* Generated by software containing ST-Developer
 * from STEP Tools, Inc. (www.steptools.com) 
 */

FILE_DESCRIPTION(
/* description */ (''),
/* implementation_level */ '2;1');

FILE_NAME(
/* name */ 'DiyHub.stp',
/* time_stamp */ '2026-05-13T16:43:58+02:00',
/* author */ ('szymo'),
/* organization */ (''),
/* preprocessor_version */ 'ST-DEVELOPER v20.1',
/* originating_system */ 'Autodesk Inventor 2026',
/* authorisation */ '');

FILE_SCHEMA (('AUTOMOTIVE_DESIGN { 1 0 10303 214 3 1 1 }'));
ENDSEC;

DATA;
#10=MECHANICAL_DESIGN_GEOMETRIC_PRESENTATION_REPRESENTATION('',(#13),#750);
#11=SHAPE_REPRESENTATION_RELATIONSHIP('SRR','None',#757,#12);
#12=ADVANCED_BREP_SHAPE_REPRESENTATION('',(#14),#749);
#13=STYLED_ITEM('',(#766),#14);
#14=MANIFOLD_SOLID_BREP('Solid1',#289);
#15=FACE_BOUND('',#68,.T.);
#16=FACE_BOUND('',#69,.T.);
#17=FACE_BOUND('',#70,.T.);
#18=FACE_BOUND('',#71,.T.);
#19=FACE_BOUND('',#72,.T.);
#20=FACE_BOUND('',#74,.T.);
#21=FACE_BOUND('',#75,.T.);
#22=FACE_BOUND('',#76,.T.);
#23=FACE_BOUND('',#77,.T.);
#24=FACE_BOUND('',#79,.T.);
#25=FACE_BOUND('',#80,.T.);
#26=FACE_BOUND('',#81,.T.);
#27=FACE_BOUND('',#82,.T.);
#28=FACE_BOUND('',#84,.T.);
#29=FACE_BOUND('',#85,.T.);
#30=FACE_BOUND('',#86,.T.);
#31=FACE_BOUND('',#87,.T.);
#32=FACE_BOUND('',#88,.T.);
#33=PLANE('',#328);
#34=PLANE('',#335);
#35=CIRCLE('',#317,1.2295);
#36=CIRCLE('',#318,1.2295);
#37=CIRCLE('',#320,1.2295);
#38=CIRCLE('',#321,1.2295);
#39=CIRCLE('',#323,1.2295);
#40=CIRCLE('',#324,1.2295);
#41=CIRCLE('',#326,1.2295);
#42=CIRCLE('',#327,1.2295);
#43=CIRCLE('',#329,9.5);
#44=CIRCLE('',#330,3.);
#45=CIRCLE('',#332,3.);
#46=CIRCLE('',#334,9.5);
#47=FACE_OUTER_BOUND('',#59,.T.);
#48=FACE_OUTER_BOUND('',#60,.T.);
#49=FACE_OUTER_BOUND('',#61,.T.);
#50=FACE_OUTER_BOUND('',#62,.T.);
#51=FACE_OUTER_BOUND('',#63,.T.);
#52=FACE_OUTER_BOUND('',#64,.T.);
#53=FACE_OUTER_BOUND('',#65,.T.);
#54=FACE_OUTER_BOUND('',#66,.T.);
#55=FACE_OUTER_BOUND('',#67,.T.);
#56=FACE_OUTER_BOUND('',#73,.T.);
#57=FACE_OUTER_BOUND('',#78,.T.);
#58=FACE_OUTER_BOUND('',#83,.T.);
#59=EDGE_LOOP('',(#191,#192,#193,#194,#195,#196));
#60=EDGE_LOOP('',(#197,#198,#199,#200,#201,#202));
#61=EDGE_LOOP('',(#203,#204,#205,#206,#207,#208));
#62=EDGE_LOOP('',(#209,#210,#211,#212,#213,#214));
#63=EDGE_LOOP('',(#215,#216,#217,#218));
#64=EDGE_LOOP('',(#219,#220,#221,#222));
#65=EDGE_LOOP('',(#223,#224,#225,#226));
#66=EDGE_LOOP('',(#227,#228,#229,#230));
#67=EDGE_LOOP('',(#231));
#68=EDGE_LOOP('',(#232));
#69=EDGE_LOOP('',(#233));
#70=EDGE_LOOP('',(#234));
#71=EDGE_LOOP('',(#235));
#72=EDGE_LOOP('',(#236));
#73=EDGE_LOOP('',(#237,#238,#239,#240));
#74=EDGE_LOOP('',(#241,#242));
#75=EDGE_LOOP('',(#243,#244));
#76=EDGE_LOOP('',(#245,#246));
#77=EDGE_LOOP('',(#247,#248));
#78=EDGE_LOOP('',(#249,#250,#251,#252));
#79=EDGE_LOOP('',(#253,#254));
#80=EDGE_LOOP('',(#255,#256));
#81=EDGE_LOOP('',(#257,#258));
#82=EDGE_LOOP('',(#259,#260));
#83=EDGE_LOOP('',(#261));
#84=EDGE_LOOP('',(#262));
#85=EDGE_LOOP('',(#263));
#86=EDGE_LOOP('',(#264));
#87=EDGE_LOOP('',(#265));
#88=EDGE_LOOP('',(#266));
#89=LINE('',#437,#99);
#90=LINE('',#515,#100);
#91=LINE('',#593,#101);
#92=LINE('',#671,#102);
#93=LINE('',#713,#103);
#94=LINE('',#719,#104);
#95=LINE('',#725,#105);
#96=LINE('',#731,#106);
#97=LINE('',#740,#107);
#98=LINE('',#744,#108);
#99=VECTOR('',#340,1.2295);
#100=VECTOR('',#343,1.2295);
#101=VECTOR('',#346,1.2295);
#102=VECTOR('',#349,1.2295);
#103=VECTOR('',#354,1.2295);
#104=VECTOR('',#361,1.2295);
#105=VECTOR('',#368,1.2295);
#106=VECTOR('',#375,1.2295);
#107=VECTOR('',#386,3.);
#108=VECTOR('',#391,9.5);
#109=B_SPLINE_CURVE_WITH_KNOTS('',3,(#400,#401,#402,#403,#404,#405,#406,
#407,#408,#409,#410,#411,#412,#413,#414,#415,#416,#417),.UNSPECIFIED.,.F.,
 .F.,(4,2,2,2,2,2,2,2,4),(0.,0.0469464974200362,0.0938929948400723,0.140786711522611,
0.18768042820515,0.234574144887689,0.281467861570228,0.328414358990264,
0.3753608564103),.UNSPECIFIED.);
#110=B_SPLINE_CURVE_WITH_KNOTS('',3,(#418,#419,#420,#421,#422,#423,#424,
#425,#426,#427,#428,#429,#430,#431,#432,#433,#434,#435),.UNSPECIFIED.,.F.,
 .F.,(4,2,2,2,2,2,2,2,4),(0.3753608564103,0.422307353830336,0.469253851250372,
0.516147567932911,0.56304128461545,0.609935001297988,0.656828717980527,
0.703775215400563,0.750721712820599),.UNSPECIFIED.);
#111=B_SPLINE_CURVE_WITH_KNOTS('',3,(#439,#440,#441,#442,#443,#444,#445,
#446,#447,#448,#449,#450,#451,#452,#453,#454,#455,#456),.UNSPECIFIED.,.F.,
 .F.,(4,2,2,2,2,2,2,2,4),(0.,0.0463697381266985,0.092739476253397,0.13910876875018,
0.185478061246962,0.231847353743745,0.278216646240527,0.324586384367226,
0.370956122493924),.UNSPECIFIED.);
#112=B_SPLINE_CURVE_WITH_KNOTS('',3,(#457,#458,#459,#460,#461,#462,#463,
#464,#465,#466,#467,#468,#469,#470,#471,#472,#473,#474),.UNSPECIFIED.,.F.,
 .F.,(4,2,2,2,2,2,2,2,4),(0.370956122493924,0.417325860620623,0.463695598747321,
0.510064891244104,0.556434183740886,0.602803476237669,0.649172768734451,
0.69554250686115,0.741912244987848),.UNSPECIFIED.);
#113=B_SPLINE_CURVE_WITH_KNOTS('',3,(#478,#479,#480,#481,#482,#483,#484,
#485,#486,#487,#488,#489,#490,#491,#492,#493,#494,#495),.UNSPECIFIED.,.F.,
 .F.,(4,2,2,2,2,2,2,2,4),(0.,0.046946497420036,0.0938929948400721,0.140786711522611,
0.18768042820515,0.234574144887689,0.281467861570228,0.328414358990264,
0.3753608564103),.UNSPECIFIED.);
#114=B_SPLINE_CURVE_WITH_KNOTS('',3,(#496,#497,#498,#499,#500,#501,#502,
#503,#504,#505,#506,#507,#508,#509,#510,#511,#512,#513),.UNSPECIFIED.,.F.,
 .F.,(4,2,2,2,2,2,2,2,4),(0.3753608564103,0.422307353830336,0.469253851250372,
0.516147567932911,0.56304128461545,0.609935001297989,0.656828717980528,
0.703775215400564,0.7507217128206),.UNSPECIFIED.);
#115=B_SPLINE_CURVE_WITH_KNOTS('',3,(#517,#518,#519,#520,#521,#522,#523,
#524,#525,#526,#527,#528,#529,#530,#531,#532,#533,#534),.UNSPECIFIED.,.F.,
 .F.,(4,2,2,2,2,2,2,2,4),(0.,0.0463697381266985,0.092739476253397,0.13910876875018,
0.185478061246962,0.231847353743745,0.278216646240527,0.324586384367226,
0.370956122493924),.UNSPECIFIED.);
#116=B_SPLINE_CURVE_WITH_KNOTS('',3,(#535,#536,#537,#538,#539,#540,#541,
#542,#543,#544,#545,#546,#547,#548,#549,#550,#551,#552),.UNSPECIFIED.,.F.,
 .F.,(4,2,2,2,2,2,2,2,4),(0.370956122493924,0.417325860620623,0.463695598747321,
0.510064891244104,0.556434183740887,0.602803476237669,0.649172768734452,
0.69554250686115,0.741912244987849),.UNSPECIFIED.);
#117=B_SPLINE_CURVE_WITH_KNOTS('',3,(#556,#557,#558,#559,#560,#561,#562,
#563,#564,#565,#566,#567,#568,#569,#570,#571,#572,#573,#574,#575,#576,#577,
#578,#579,#580,#581),.UNSPECIFIED.,.F.,.F.,(4,2,2,2,2,2,2,2,2,2,2,2,4),
(0.,0.046946497420036,0.0938929948400721,0.140786711522611,0.18768042820515,
0.234574144887689,0.281467861570228,0.328414358990264,0.3753608564103,0.422307353830336,
0.469253851250372,0.516147567932911,0.56304128461545),.UNSPECIFIED.);
#118=B_SPLINE_CURVE_WITH_KNOTS('',3,(#582,#583,#584,#585,#586,#587,#588,
#589,#590,#591),.UNSPECIFIED.,.F.,.F.,(4,2,2,2,4),(0.56304128461545,0.609935001297988,
0.656828717980527,0.703775215400563,0.750721712820599),.UNSPECIFIED.);
#119=B_SPLINE_CURVE_WITH_KNOTS('',3,(#595,#596,#597,#598,#599,#600,#601,
#602,#603,#604),.UNSPECIFIED.,.F.,.F.,(4,2,2,2,4),(0.,0.0463697381266985,
0.092739476253397,0.13910876875018,0.185478061246962),.UNSPECIFIED.);
#120=B_SPLINE_CURVE_WITH_KNOTS('',3,(#605,#606,#607,#608,#609,#610,#611,
#612,#613,#614,#615,#616,#617,#618,#619,#620,#621,#622,#623,#624,#625,#626,
#627,#628,#629,#630),.UNSPECIFIED.,.F.,.F.,(4,2,2,2,2,2,2,2,2,2,2,2,4),
(0.185478061246962,0.231847353743745,0.278216646240527,0.324586384367226,
0.370956122493924,0.417325860620623,0.463695598747321,0.510064891244104,
0.556434183740886,0.602803476237669,0.649172768734451,0.69554250686115,
0.741912244987848),.UNSPECIFIED.);
#121=B_SPLINE_CURVE_WITH_KNOTS('',3,(#634,#635,#636,#637,#638,#639,#640,
#641,#642,#643,#644,#645,#646,#647,#648,#649,#650,#651,#652,#653,#654,#655,
#656,#657,#658,#659),.UNSPECIFIED.,.F.,.F.,(4,2,2,2,2,2,2,2,2,2,2,2,4),
(0.,0.0469464974200361,0.0938929948400721,0.140786711522611,0.18768042820515,
0.234574144887689,0.281467861570228,0.328414358990264,0.3753608564103,0.422307353830336,
0.469253851250372,0.516147567932911,0.56304128461545),.UNSPECIFIED.);
#122=B_SPLINE_CURVE_WITH_KNOTS('',3,(#660,#661,#662,#663,#664,#665,#666,
#667,#668,#669),.UNSPECIFIED.,.F.,.F.,(4,2,2,2,4),(0.56304128461545,0.609935001297988,
0.656828717980527,0.703775215400563,0.7507217128206),.UNSPECIFIED.);
#123=B_SPLINE_CURVE_WITH_KNOTS('',3,(#673,#674,#675,#676,#677,#678,#679,
#680,#681,#682),.UNSPECIFIED.,.F.,.F.,(4,2,2,2,4),(0.,0.0463697381266985,
0.092739476253397,0.13910876875018,0.185478061246962),.UNSPECIFIED.);
#124=B_SPLINE_CURVE_WITH_KNOTS('',3,(#683,#684,#685,#686,#687,#688,#689,
#690,#691,#692,#693,#694,#695,#696,#697,#698,#699,#700,#701,#702,#703,#704,
#705,#706,#707,#708),.UNSPECIFIED.,.F.,.F.,(4,2,2,2,2,2,2,2,2,2,2,2,4),
(0.185478061246962,0.231847353743745,0.278216646240527,0.324586384367226,
0.370956122493924,0.417325860620623,0.463695598747321,0.510064891244104,
0.556434183740886,0.602803476237669,0.649172768734451,0.69554250686115,
0.741912244987848),.UNSPECIFIED.);
#125=VERTEX_POINT('',#398);
#126=VERTEX_POINT('',#399);
#127=VERTEX_POINT('',#436);
#128=VERTEX_POINT('',#438);
#129=VERTEX_POINT('',#476);
#130=VERTEX_POINT('',#477);
#131=VERTEX_POINT('',#514);
#132=VERTEX_POINT('',#516);
#133=VERTEX_POINT('',#554);
#134=VERTEX_POINT('',#555);
#135=VERTEX_POINT('',#592);
#136=VERTEX_POINT('',#594);
#137=VERTEX_POINT('',#632);
#138=VERTEX_POINT('',#633);
#139=VERTEX_POINT('',#670);
#140=VERTEX_POINT('',#672);
#141=VERTEX_POINT('',#710);
#142=VERTEX_POINT('',#712);
#143=VERTEX_POINT('',#716);
#144=VERTEX_POINT('',#718);
#145=VERTEX_POINT('',#722);
#146=VERTEX_POINT('',#724);
#147=VERTEX_POINT('',#728);
#148=VERTEX_POINT('',#730);
#149=VERTEX_POINT('',#734);
#150=VERTEX_POINT('',#736);
#151=VERTEX_POINT('',#739);
#152=VERTEX_POINT('',#743);
#153=EDGE_CURVE('',#125,#126,#109,.T.);
#154=EDGE_CURVE('',#126,#125,#110,.T.);
#155=EDGE_CURVE('',#126,#127,#89,.T.);
#156=EDGE_CURVE('',#128,#127,#111,.T.);
#157=EDGE_CURVE('',#127,#128,#112,.T.);
#158=EDGE_CURVE('',#129,#130,#113,.T.);
#159=EDGE_CURVE('',#130,#129,#114,.T.);
#160=EDGE_CURVE('',#130,#131,#90,.T.);
#161=EDGE_CURVE('',#132,#131,#115,.T.);
#162=EDGE_CURVE('',#131,#132,#116,.T.);
#163=EDGE_CURVE('',#133,#134,#117,.T.);
#164=EDGE_CURVE('',#134,#133,#118,.T.);
#165=EDGE_CURVE('',#134,#135,#91,.T.);
#166=EDGE_CURVE('',#136,#135,#119,.T.);
#167=EDGE_CURVE('',#135,#136,#120,.T.);
#168=EDGE_CURVE('',#137,#138,#121,.T.);
#169=EDGE_CURVE('',#138,#137,#122,.T.);
#170=EDGE_CURVE('',#138,#139,#92,.T.);
#171=EDGE_CURVE('',#140,#139,#123,.T.);
#172=EDGE_CURVE('',#139,#140,#124,.T.);
#173=EDGE_CURVE('',#141,#141,#35,.T.);
#174=EDGE_CURVE('',#141,#142,#93,.T.);
#175=EDGE_CURVE('',#142,#142,#36,.T.);
#176=EDGE_CURVE('',#143,#143,#37,.T.);
#177=EDGE_CURVE('',#143,#144,#94,.T.);
#178=EDGE_CURVE('',#144,#144,#38,.T.);
#179=EDGE_CURVE('',#145,#145,#39,.T.);
#180=EDGE_CURVE('',#145,#146,#95,.T.);
#181=EDGE_CURVE('',#146,#146,#40,.T.);
#182=EDGE_CURVE('',#147,#147,#41,.T.);
#183=EDGE_CURVE('',#147,#148,#96,.T.);
#184=EDGE_CURVE('',#148,#148,#42,.T.);
#185=EDGE_CURVE('',#149,#149,#43,.T.);
#186=EDGE_CURVE('',#150,#150,#44,.T.);
#187=EDGE_CURVE('',#150,#151,#97,.T.);
#188=EDGE_CURVE('',#151,#151,#45,.T.);
#189=EDGE_CURVE('',#149,#152,#98,.T.);
#190=EDGE_CURVE('',#152,#152,#46,.T.);
#191=ORIENTED_EDGE('',*,*,#153,.F.);
#192=ORIENTED_EDGE('',*,*,#154,.F.);
#193=ORIENTED_EDGE('',*,*,#155,.T.);
#194=ORIENTED_EDGE('',*,*,#156,.F.);
#195=ORIENTED_EDGE('',*,*,#157,.F.);
#196=ORIENTED_EDGE('',*,*,#155,.F.);
#197=ORIENTED_EDGE('',*,*,#158,.F.);
#198=ORIENTED_EDGE('',*,*,#159,.F.);
#199=ORIENTED_EDGE('',*,*,#160,.T.);
#200=ORIENTED_EDGE('',*,*,#161,.F.);
#201=ORIENTED_EDGE('',*,*,#162,.F.);
#202=ORIENTED_EDGE('',*,*,#160,.F.);
#203=ORIENTED_EDGE('',*,*,#163,.F.);
#204=ORIENTED_EDGE('',*,*,#164,.F.);
#205=ORIENTED_EDGE('',*,*,#165,.T.);
#206=ORIENTED_EDGE('',*,*,#166,.F.);
#207=ORIENTED_EDGE('',*,*,#167,.F.);
#208=ORIENTED_EDGE('',*,*,#165,.F.);
#209=ORIENTED_EDGE('',*,*,#168,.F.);
#210=ORIENTED_EDGE('',*,*,#169,.F.);
#211=ORIENTED_EDGE('',*,*,#170,.T.);
#212=ORIENTED_EDGE('',*,*,#171,.F.);
#213=ORIENTED_EDGE('',*,*,#172,.F.);
#214=ORIENTED_EDGE('',*,*,#170,.F.);
#215=ORIENTED_EDGE('',*,*,#173,.F.);
#216=ORIENTED_EDGE('',*,*,#174,.T.);
#217=ORIENTED_EDGE('',*,*,#175,.F.);
#218=ORIENTED_EDGE('',*,*,#174,.F.);
#219=ORIENTED_EDGE('',*,*,#176,.F.);
#220=ORIENTED_EDGE('',*,*,#177,.T.);
#221=ORIENTED_EDGE('',*,*,#178,.F.);
#222=ORIENTED_EDGE('',*,*,#177,.F.);
#223=ORIENTED_EDGE('',*,*,#179,.F.);
#224=ORIENTED_EDGE('',*,*,#180,.T.);
#225=ORIENTED_EDGE('',*,*,#181,.F.);
#226=ORIENTED_EDGE('',*,*,#180,.F.);
#227=ORIENTED_EDGE('',*,*,#182,.F.);
#228=ORIENTED_EDGE('',*,*,#183,.T.);
#229=ORIENTED_EDGE('',*,*,#184,.F.);
#230=ORIENTED_EDGE('',*,*,#183,.F.);
#231=ORIENTED_EDGE('',*,*,#185,.T.);
#232=ORIENTED_EDGE('',*,*,#175,.T.);
#233=ORIENTED_EDGE('',*,*,#178,.T.);
#234=ORIENTED_EDGE('',*,*,#181,.T.);
#235=ORIENTED_EDGE('',*,*,#184,.T.);
#236=ORIENTED_EDGE('',*,*,#186,.T.);
#237=ORIENTED_EDGE('',*,*,#186,.F.);
#238=ORIENTED_EDGE('',*,*,#187,.T.);
#239=ORIENTED_EDGE('',*,*,#188,.F.);
#240=ORIENTED_EDGE('',*,*,#187,.F.);
#241=ORIENTED_EDGE('',*,*,#153,.T.);
#242=ORIENTED_EDGE('',*,*,#154,.T.);
#243=ORIENTED_EDGE('',*,*,#158,.T.);
#244=ORIENTED_EDGE('',*,*,#159,.T.);
#245=ORIENTED_EDGE('',*,*,#163,.T.);
#246=ORIENTED_EDGE('',*,*,#164,.T.);
#247=ORIENTED_EDGE('',*,*,#168,.T.);
#248=ORIENTED_EDGE('',*,*,#169,.T.);
#249=ORIENTED_EDGE('',*,*,#185,.F.);
#250=ORIENTED_EDGE('',*,*,#189,.T.);
#251=ORIENTED_EDGE('',*,*,#190,.F.);
#252=ORIENTED_EDGE('',*,*,#189,.F.);
#253=ORIENTED_EDGE('',*,*,#156,.T.);
#254=ORIENTED_EDGE('',*,*,#157,.T.);
#255=ORIENTED_EDGE('',*,*,#161,.T.);
#256=ORIENTED_EDGE('',*,*,#162,.T.);
#257=ORIENTED_EDGE('',*,*,#166,.T.);
#258=ORIENTED_EDGE('',*,*,#167,.T.);
#259=ORIENTED_EDGE('',*,*,#171,.T.);
#260=ORIENTED_EDGE('',*,*,#172,.T.);
#261=ORIENTED_EDGE('',*,*,#190,.T.);
#262=ORIENTED_EDGE('',*,*,#173,.T.);
#263=ORIENTED_EDGE('',*,*,#176,.T.);
#264=ORIENTED_EDGE('',*,*,#179,.T.);
#265=ORIENTED_EDGE('',*,*,#182,.T.);
#266=ORIENTED_EDGE('',*,*,#188,.T.);
#267=CYLINDRICAL_SURFACE('',#312,1.2295);
#268=CYLINDRICAL_SURFACE('',#313,1.2295);
#269=CYLINDRICAL_SURFACE('',#314,1.2295);
#270=CYLINDRICAL_SURFACE('',#315,1.2295);
#271=CYLINDRICAL_SURFACE('',#316,1.2295);
#272=CYLINDRICAL_SURFACE('',#319,1.2295);
#273=CYLINDRICAL_SURFACE('',#322,1.2295);
#274=CYLINDRICAL_SURFACE('',#325,1.2295);
#275=CYLINDRICAL_SURFACE('',#331,3.);
#276=CYLINDRICAL_SURFACE('',#333,9.5);
#277=ADVANCED_FACE('',(#47),#267,.F.);
#278=ADVANCED_FACE('',(#48),#268,.F.);
#279=ADVANCED_FACE('',(#49),#269,.F.);
#280=ADVANCED_FACE('',(#50),#270,.F.);
#281=ADVANCED_FACE('',(#51),#271,.F.);
#282=ADVANCED_FACE('',(#52),#272,.F.);
#283=ADVANCED_FACE('',(#53),#273,.F.);
#284=ADVANCED_FACE('',(#54),#274,.F.);
#285=ADVANCED_FACE('',(#55,#15,#16,#17,#18,#19),#33,.F.);
#286=ADVANCED_FACE('',(#56,#20,#21,#22,#23),#275,.F.);
#287=ADVANCED_FACE('',(#57,#24,#25,#26,#27),#276,.T.);
#288=ADVANCED_FACE('',(#58,#28,#29,#30,#31,#32),#34,.T.);
#289=CLOSED_SHELL('',(#277,#278,#279,#280,#281,#282,#283,#284,#285,#286,
#287,#288));
#290=DERIVED_UNIT_ELEMENT(#293,1.);
#291=DERIVED_UNIT_ELEMENT(#752,-3.);
#292=DIMENSIONAL_EXPONENTS(0.,1.,0.,0.,0.,0.,0.);
#293=(
CONVERSION_BASED_UNIT('gram',#295)
MASS_UNIT()
NAMED_UNIT(#292)
);
#294=(
MASS_UNIT()
NAMED_UNIT(*)
SI_UNIT(.KILO.,.GRAM.)
);
#295=MASS_MEASURE_WITH_UNIT(MASS_MEASURE(0.001),#294);
#296=DERIVED_UNIT((#290,#291));
#297=MEASURE_REPRESENTATION_ITEM('density measure',
POSITIVE_RATIO_MEASURE(7.73),#296);
#298=PROPERTY_DEFINITION_REPRESENTATION(#303,#300);
#299=PROPERTY_DEFINITION_REPRESENTATION(#304,#301);
#300=REPRESENTATION('material name',(#302),#749);
#301=REPRESENTATION('density',(#297),#749);
#302=DESCRIPTIVE_REPRESENTATION_ITEM('Steel, Alloy','Steel, Alloy');
#303=PROPERTY_DEFINITION('material property','material name',#759);
#304=PROPERTY_DEFINITION('material property','density of part',#759);
#305=DATE_TIME_ROLE('creation_date');
#306=APPLIED_DATE_AND_TIME_ASSIGNMENT(#307,#305,(#759));
#307=DATE_AND_TIME(#308,#309);
#308=CALENDAR_DATE(2026,20,4);
#309=LOCAL_TIME(0,0,0.,#310);
#310=COORDINATED_UNIVERSAL_TIME_OFFSET(0,0,.BEHIND.);
#311=AXIS2_PLACEMENT_3D('',#396,#336,#337);
#312=AXIS2_PLACEMENT_3D('',#397,#338,#339);
#313=AXIS2_PLACEMENT_3D('',#475,#341,#342);
#314=AXIS2_PLACEMENT_3D('',#553,#344,#345);
#315=AXIS2_PLACEMENT_3D('',#631,#347,#348);
#316=AXIS2_PLACEMENT_3D('',#709,#350,#351);
#317=AXIS2_PLACEMENT_3D('',#711,#352,#353);
#318=AXIS2_PLACEMENT_3D('',#714,#355,#356);
#319=AXIS2_PLACEMENT_3D('',#715,#357,#358);
#320=AXIS2_PLACEMENT_3D('',#717,#359,#360);
#321=AXIS2_PLACEMENT_3D('',#720,#362,#363);
#322=AXIS2_PLACEMENT_3D('',#721,#364,#365);
#323=AXIS2_PLACEMENT_3D('',#723,#366,#367);
#324=AXIS2_PLACEMENT_3D('',#726,#369,#370);
#325=AXIS2_PLACEMENT_3D('',#727,#371,#372);
#326=AXIS2_PLACEMENT_3D('',#729,#373,#374);
#327=AXIS2_PLACEMENT_3D('',#732,#376,#377);
#328=AXIS2_PLACEMENT_3D('',#733,#378,#379);
#329=AXIS2_PLACEMENT_3D('',#735,#380,#381);
#330=AXIS2_PLACEMENT_3D('',#737,#382,#383);
#331=AXIS2_PLACEMENT_3D('',#738,#384,#385);
#332=AXIS2_PLACEMENT_3D('',#741,#387,#388);
#333=AXIS2_PLACEMENT_3D('',#742,#389,#390);
#334=AXIS2_PLACEMENT_3D('',#745,#392,#393);
#335=AXIS2_PLACEMENT_3D('',#746,#394,#395);
#336=DIRECTION('axis',(0.,0.,1.));
#337=DIRECTION('refdir',(1.,0.,0.));
#338=DIRECTION('center_axis',(-0.547952755905512,-6.12323399573677E-17,
0.836509281057631));
#339=DIRECTION('ref_axis',(-0.836509281057631,0.,-0.547952755905512));
#340=DIRECTION('',(-0.547952755905512,-6.12323399573676E-17,0.836509281057631));
#341=DIRECTION('center_axis',(0.836509281057631,-6.12323399573677E-17,-0.547952755905512));
#342=DIRECTION('ref_axis',(0.547952755905512,0.,0.836509281057631));
#343=DIRECTION('',(0.836509281057631,-6.12323399573676E-17,-0.547952755905512));
#344=DIRECTION('center_axis',(0.707106781186547,0.,0.707106781186548));
#345=DIRECTION('ref_axis',(0.,1.,0.));
#346=DIRECTION('',(-0.707106781186548,0.,-0.707106781186548));
#347=DIRECTION('center_axis',(0.707106781186547,0.,0.707106781186548));
#348=DIRECTION('ref_axis',(0.,1.,0.));
#349=DIRECTION('',(-0.707106781186548,0.,-0.707106781186548));
#350=DIRECTION('center_axis',(0.,1.,0.));
#351=DIRECTION('ref_axis',(-1.,0.,0.));
#352=DIRECTION('center_axis',(0.,-1.,0.));
#353=DIRECTION('ref_axis',(-1.,0.,0.));
#354=DIRECTION('',(0.,-1.,0.));
#355=DIRECTION('center_axis',(0.,1.,0.));
#356=DIRECTION('ref_axis',(-1.,0.,0.));
#357=DIRECTION('center_axis',(0.,1.,0.));
#358=DIRECTION('ref_axis',(-1.,0.,0.));
#359=DIRECTION('center_axis',(0.,-1.,0.));
#360=DIRECTION('ref_axis',(-1.,0.,0.));
#361=DIRECTION('',(0.,-1.,0.));
#362=DIRECTION('center_axis',(0.,1.,0.));
#363=DIRECTION('ref_axis',(-1.,0.,0.));
#364=DIRECTION('center_axis',(0.,1.,0.));
#365=DIRECTION('ref_axis',(-1.,0.,0.));
#366=DIRECTION('center_axis',(0.,-1.,0.));
#367=DIRECTION('ref_axis',(-1.,0.,0.));
#368=DIRECTION('',(0.,-1.,0.));
#369=DIRECTION('center_axis',(0.,1.,0.));
#370=DIRECTION('ref_axis',(-1.,0.,0.));
#371=DIRECTION('center_axis',(0.,1.,0.));
#372=DIRECTION('ref_axis',(-1.,0.,0.));
#373=DIRECTION('center_axis',(0.,-1.,0.));
#374=DIRECTION('ref_axis',(-1.,0.,0.));
#375=DIRECTION('',(0.,-1.,0.));
#376=DIRECTION('center_axis',(0.,1.,0.));
#377=DIRECTION('ref_axis',(-1.,0.,0.));
#378=DIRECTION('center_axis',(0.,1.,0.));
#379=DIRECTION('ref_axis',(0.,0.,1.));
#380=DIRECTION('center_axis',(0.,-1.,0.));
#381=DIRECTION('ref_axis',(-1.,0.,0.));
#382=DIRECTION('center_axis',(0.,1.,0.));
#383=DIRECTION('ref_axis',(1.,0.,0.));
#384=DIRECTION('center_axis',(0.,-1.,0.));
#385=DIRECTION('ref_axis',(1.,0.,0.));
#386=DIRECTION('',(0.,1.,0.));
#387=DIRECTION('center_axis',(0.,-1.,0.));
#388=DIRECTION('ref_axis',(1.,0.,0.));
#389=DIRECTION('center_axis',(0.,-1.,0.));
#390=DIRECTION('ref_axis',(-1.,0.,0.));
#391=DIRECTION('',(0.,1.,0.));
#392=DIRECTION('center_axis',(0.,1.,0.));
#393=DIRECTION('ref_axis',(-1.,0.,0.));
#394=DIRECTION('center_axis',(0.,1.,0.));
#395=DIRECTION('ref_axis',(0.,0.,1.));
#396=CARTESIAN_POINT('',(0.,0.,0.));
#397=CARTESIAN_POINT('Origin',(-6.97389227570374,-4.,10.646402542646));
#398=CARTESIAN_POINT('',(-2.52795061533566,-4.,1.61538406777585));
#399=CARTESIAN_POINT('',(-0.470974293214946,-4.,2.9627998945475));
#400=CARTESIAN_POINT('Ctrl Pts',(-2.52795061533566,-4.,1.61538406777585));
#401=CARTESIAN_POINT('Ctrl Pts',(-2.52795061533566,-4.15648832473345,1.61538406777585));
#402=CARTESIAN_POINT('Ctrl Pts',(-2.50960656494522,-4.32193311923756,1.64514629821809));
#403=CARTESIAN_POINT('Ctrl Pts',(-2.43242473221095,-4.62418556095238,1.75725383373805));
#404=CARTESIAN_POINT('Ctrl Pts',(-2.37312828606122,-4.76118606053053,1.8387613004307));
#405=CARTESIAN_POINT('Ctrl Pts',(-2.22809075129416,-4.97746786599336,2.01205463731984));
#406=CARTESIAN_POINT('Ctrl Pts',(-2.13226323134761,-5.07182414817555,2.11586928396867));
#407=CARTESIAN_POINT('Ctrl Pts',(-1.90573786818341,-5.19788785456633,2.32198460278632));
#408=CARTESIAN_POINT('Ctrl Pts',(-1.77461503181064,-5.2295,2.42387603887006));
#409=CARTESIAN_POINT('Ctrl Pts',(-1.51310150362243,-5.2295,2.59517964747572));
#410=CARTESIAN_POINT('Ctrl Pts',(-1.36731105429941,-5.19788785456633,2.67467938239251));
#411=CARTESIAN_POINT('Ctrl Pts',(-1.0878620247525,-5.07182414817555,2.80000098744633));
#412=CARTESIAN_POINT('Ctrl Pts',(-0.954408822748798,-4.97746786599336,2.84637595173619));
#413=CARTESIAN_POINT('Ctrl Pts',(-0.737602882328735,-4.76118606053052,2.91010703755821));
#414=CARTESIAN_POINT('Ctrl Pts',(-0.639193457468344,-4.62418556095238,2.93190430232438));
#415=CARTESIAN_POINT('Ctrl Pts',(-0.505586742046022,-4.32193311923756,2.95787313785161));
#416=CARTESIAN_POINT('Ctrl Pts',(-0.470974293214949,-4.15648832473345,2.9627998945475));
#417=CARTESIAN_POINT('Ctrl Pts',(-0.470974293214949,-4.,2.9627998945475));
#418=CARTESIAN_POINT('Ctrl Pts',(-0.470974293214949,-4.,2.9627998945475));
#419=CARTESIAN_POINT('Ctrl Pts',(-0.470974293214949,-3.84351167526655,2.9627998945475));
#420=CARTESIAN_POINT('Ctrl Pts',(-0.505586742046022,-3.67806688076244,2.95787313785161));
#421=CARTESIAN_POINT('Ctrl Pts',(-0.639193457468345,-3.37581443904762,2.93190430232438));
#422=CARTESIAN_POINT('Ctrl Pts',(-0.737602882328737,-3.23881393946948,2.9101070375582));
#423=CARTESIAN_POINT('Ctrl Pts',(-0.954408822748801,-3.02253213400664,2.84637595173619));
#424=CARTESIAN_POINT('Ctrl Pts',(-1.0878620247525,-2.92817585182445,2.80000098744633));
#425=CARTESIAN_POINT('Ctrl Pts',(-1.36731105429942,-2.80211214543367,2.67467938239251));
#426=CARTESIAN_POINT('Ctrl Pts',(-1.51310150362243,-2.7705,2.59517964747572));
#427=CARTESIAN_POINT('Ctrl Pts',(-1.77461503181064,-2.7705,2.42387603887006));
#428=CARTESIAN_POINT('Ctrl Pts',(-1.90573786818341,-2.80211214543367,2.32198460278632));
#429=CARTESIAN_POINT('Ctrl Pts',(-2.13226323134761,-2.92817585182445,2.11586928396867));
#430=CARTESIAN_POINT('Ctrl Pts',(-2.22809075129416,-3.02253213400664,2.01205463731984));
#431=CARTESIAN_POINT('Ctrl Pts',(-2.37312828606122,-3.23881393946948,1.8387613004307));
#432=CARTESIAN_POINT('Ctrl Pts',(-2.43242473221095,-3.37581443904762,1.75725383373805));
#433=CARTESIAN_POINT('Ctrl Pts',(-2.50960656494522,-3.67806688076244,1.64514629821809));
#434=CARTESIAN_POINT('Ctrl Pts',(-2.52795061533566,-3.84351167526655,1.61538406777585));
#435=CARTESIAN_POINT('Ctrl Pts',(-2.52795061533566,-4.,1.61538406777585));
#436=CARTESIAN_POINT('',(-4.13328292515778,-4.,8.55371102274324));
#437=CARTESIAN_POINT('',(-5.94540411464338,-4.,11.3201104560318));
#438=CARTESIAN_POINT('',(-6.19025924727849,-4.,7.20629519597159));
#439=CARTESIAN_POINT('Ctrl Pts',(-6.19025924727849,-4.,7.20629519597159));
#440=CARTESIAN_POINT('Ctrl Pts',(-6.19025924727849,-3.84543420624434,7.20629519597159));
#441=CARTESIAN_POINT('Ctrl Pts',(-6.16668938079017,-3.68068568984556,7.22675159233447));
#442=CARTESIAN_POINT('Ctrl Pts',(-6.0699666989657,-3.37781442266642,7.30818039876112));
#443=CARTESIAN_POINT('Ctrl Pts',(-5.99669960593696,-3.2396766963028,7.36896121302959));
#444=CARTESIAN_POINT('Ctrl Pts',(-5.82521783042085,-3.02154877690853,7.50525366130715));
#445=CARTESIAN_POINT('Ctrl Pts',(-5.71550381292963,-2.92695433744233,7.5898620276817));
#446=CARTESIAN_POINT('Ctrl Pts',(-5.47038176128712,-2.80142517611278,7.76839190694673));
#447=CARTESIAN_POINT('Ctrl Pts',(-5.33484565953448,-2.7705,7.86214423133749));
#448=CARTESIAN_POINT('Ctrl Pts',(-5.07625670267025,-2.7705,8.0315321087575));
#449=CARTESIAN_POINT('Ctrl Pts',(-4.93616458307728,-2.80142517611278,8.1183291780336));
#450=CARTESIAN_POINT('Ctrl Pts',(-4.67457480071698,-2.92695433744233,8.27171928122319));
#451=CARTESIAN_POINT('Ctrl Pts',(-4.55318107655382,-3.02154877690853,8.3384973092596));
#452=CARTESIAN_POINT('Ctrl Pts',(-4.35973079400774,-3.2396766963028,8.44125245012608));
#453=CARTESIAN_POINT('Ctrl Pts',(-4.2747410082661,-3.37781442266642,8.48413730320513));
#454=CARTESIAN_POINT('Ctrl Pts',(-4.16145207925788,-3.68068568984556,8.54027593749167));
#455=CARTESIAN_POINT('Ctrl Pts',(-4.13328292515778,-3.84543420624434,8.55371102274324));
#456=CARTESIAN_POINT('Ctrl Pts',(-4.13328292515778,-4.,8.55371102274324));
#457=CARTESIAN_POINT('Ctrl Pts',(-4.13328292515778,-4.,8.55371102274324));
#458=CARTESIAN_POINT('Ctrl Pts',(-4.13328292515778,-4.15456579375566,8.55371102274324));
#459=CARTESIAN_POINT('Ctrl Pts',(-4.16145207925788,-4.31931431015444,8.54027593749167));
#460=CARTESIAN_POINT('Ctrl Pts',(-4.2747410082661,-4.62218557733358,8.48413730320513));
#461=CARTESIAN_POINT('Ctrl Pts',(-4.35973079400773,-4.7603233036972,8.44125245012608));
#462=CARTESIAN_POINT('Ctrl Pts',(-4.55318107655382,-4.97845122309147,8.3384973092596));
#463=CARTESIAN_POINT('Ctrl Pts',(-4.67457480071698,-5.07304566255767,8.27171928122319));
#464=CARTESIAN_POINT('Ctrl Pts',(-4.93616458307728,-5.19857482388722,8.1183291780336));
#465=CARTESIAN_POINT('Ctrl Pts',(-5.07625670267025,-5.2295,8.0315321087575));
#466=CARTESIAN_POINT('Ctrl Pts',(-5.33484565953448,-5.2295,7.86214423133749));
#467=CARTESIAN_POINT('Ctrl Pts',(-5.47038176128712,-5.19857482388722,7.76839190694673));
#468=CARTESIAN_POINT('Ctrl Pts',(-5.71550381292963,-5.07304566255768,7.5898620276817));
#469=CARTESIAN_POINT('Ctrl Pts',(-5.82521783042085,-4.97845122309147,7.50525366130716));
#470=CARTESIAN_POINT('Ctrl Pts',(-5.99669960593696,-4.76032330369721,7.36896121302959));
#471=CARTESIAN_POINT('Ctrl Pts',(-6.0699666989657,-4.62218557733359,7.30818039876112));
#472=CARTESIAN_POINT('Ctrl Pts',(-6.16668938079017,-4.31931431015444,7.22675159233447));
#473=CARTESIAN_POINT('Ctrl Pts',(-6.19025924727849,-4.15456579375566,7.20629519597158));
#474=CARTESIAN_POINT('Ctrl Pts',(-6.19025924727849,-4.,7.20629519597158));
#475=CARTESIAN_POINT('Origin',(10.646402542646,-4.,-6.97389227570374));
#476=CARTESIAN_POINT('',(2.9627998945475,-4.,-0.470974293214948));
#477=CARTESIAN_POINT('',(1.61538406777584,-4.,-2.52795061533566));
#478=CARTESIAN_POINT('Ctrl Pts',(2.9627998945475,-4.,-0.470974293214948));
#479=CARTESIAN_POINT('Ctrl Pts',(2.9627998945475,-4.15648832473345,-0.470974293214948));
#480=CARTESIAN_POINT('Ctrl Pts',(2.95787313785161,-4.32193311923756,-0.505586742046021));
#481=CARTESIAN_POINT('Ctrl Pts',(2.93190430232438,-4.62418556095238,-0.639193457468343));
#482=CARTESIAN_POINT('Ctrl Pts',(2.9101070375582,-4.76118606053052,-0.737602882328734));
#483=CARTESIAN_POINT('Ctrl Pts',(2.84637595173619,-4.97746786599336,-0.954408822748797));
#484=CARTESIAN_POINT('Ctrl Pts',(2.80000098744633,-5.07182414817555,-1.0878620247525));
#485=CARTESIAN_POINT('Ctrl Pts',(2.67467938239252,-5.19788785456633,-1.36731105429941));
#486=CARTESIAN_POINT('Ctrl Pts',(2.59517964747573,-5.2295,-1.51310150362243));
#487=CARTESIAN_POINT('Ctrl Pts',(2.42387603887006,-5.2295,-1.77461503181064));
#488=CARTESIAN_POINT('Ctrl Pts',(2.32198460278632,-5.19788785456633,-1.90573786818341));
#489=CARTESIAN_POINT('Ctrl Pts',(2.11586928396867,-5.07182414817555,-2.13226323134761));
#490=CARTESIAN_POINT('Ctrl Pts',(2.01205463731984,-4.97746786599336,-2.22809075129416));
#491=CARTESIAN_POINT('Ctrl Pts',(1.8387613004307,-4.76118606053052,-2.37312828606122));
#492=CARTESIAN_POINT('Ctrl Pts',(1.75725383373805,-4.62418556095238,-2.43242473221095));
#493=CARTESIAN_POINT('Ctrl Pts',(1.64514629821809,-4.32193311923756,-2.50960656494522));
#494=CARTESIAN_POINT('Ctrl Pts',(1.61538406777585,-4.15648832473345,-2.52795061533566));
#495=CARTESIAN_POINT('Ctrl Pts',(1.61538406777585,-4.,-2.52795061533566));
#496=CARTESIAN_POINT('Ctrl Pts',(1.61538406777585,-4.,-2.52795061533566));
#497=CARTESIAN_POINT('Ctrl Pts',(1.61538406777585,-3.84351167526655,-2.52795061533566));
#498=CARTESIAN_POINT('Ctrl Pts',(1.64514629821809,-3.67806688076244,-2.50960656494522));
#499=CARTESIAN_POINT('Ctrl Pts',(1.75725383373805,-3.37581443904762,-2.43242473221095));
#500=CARTESIAN_POINT('Ctrl Pts',(1.8387613004307,-3.23881393946948,-2.37312828606122));
#501=CARTESIAN_POINT('Ctrl Pts',(2.01205463731984,-3.02253213400664,-2.22809075129416));
#502=CARTESIAN_POINT('Ctrl Pts',(2.11586928396867,-2.92817585182445,-2.13226323134761));
#503=CARTESIAN_POINT('Ctrl Pts',(2.32198460278632,-2.80211214543367,-1.90573786818341));
#504=CARTESIAN_POINT('Ctrl Pts',(2.42387603887006,-2.7705,-1.77461503181064));
#505=CARTESIAN_POINT('Ctrl Pts',(2.59517964747573,-2.7705,-1.51310150362243));
#506=CARTESIAN_POINT('Ctrl Pts',(2.67467938239251,-2.80211214543367,-1.36731105429941));
#507=CARTESIAN_POINT('Ctrl Pts',(2.80000098744633,-2.92817585182445,-1.0878620247525));
#508=CARTESIAN_POINT('Ctrl Pts',(2.84637595173619,-3.02253213400664,-0.954408822748798));
#509=CARTESIAN_POINT('Ctrl Pts',(2.9101070375582,-3.23881393946948,-0.737602882328734));
#510=CARTESIAN_POINT('Ctrl Pts',(2.93190430232439,-3.37581443904762,-0.639193457468344));
#511=CARTESIAN_POINT('Ctrl Pts',(2.95787313785161,-3.67806688076244,-0.505586742046021));
#512=CARTESIAN_POINT('Ctrl Pts',(2.9627998945475,-3.84351167526655,-0.470974293214948));
#513=CARTESIAN_POINT('Ctrl Pts',(2.9627998945475,-4.,-0.470974293214948));
#514=CARTESIAN_POINT('',(7.20629519597159,-4.,-6.19025924727849));
#515=CARTESIAN_POINT('',(9.97269462926013,-4.,-8.0023804367641));
#516=CARTESIAN_POINT('',(8.55371102274324,-4.,-4.13328292515778));
#517=CARTESIAN_POINT('Ctrl Pts',(8.55371102274324,-4.,-4.13328292515778));
#518=CARTESIAN_POINT('Ctrl Pts',(8.55371102274324,-3.84543420624434,-4.13328292515778));
#519=CARTESIAN_POINT('Ctrl Pts',(8.54027593749167,-3.68068568984556,-4.16145207925788));
#520=CARTESIAN_POINT('Ctrl Pts',(8.48413730320513,-3.37781442266642,-4.2747410082661));
#521=CARTESIAN_POINT('Ctrl Pts',(8.44125245012608,-3.2396766963028,-4.35973079400773));
#522=CARTESIAN_POINT('Ctrl Pts',(8.3384973092596,-3.02154877690853,-4.55318107655382));
#523=CARTESIAN_POINT('Ctrl Pts',(8.27171928122319,-2.92695433744233,-4.67457480071698));
#524=CARTESIAN_POINT('Ctrl Pts',(8.1183291780336,-2.80142517611279,-4.93616458307727));
#525=CARTESIAN_POINT('Ctrl Pts',(8.0315321087575,-2.7705,-5.07625670267025));
#526=CARTESIAN_POINT('Ctrl Pts',(7.86214423133749,-2.7705,-5.33484565953448));
#527=CARTESIAN_POINT('Ctrl Pts',(7.76839190694673,-2.80142517611279,-5.47038176128712));
#528=CARTESIAN_POINT('Ctrl Pts',(7.58986202768171,-2.92695433744233,-5.71550381292963));
#529=CARTESIAN_POINT('Ctrl Pts',(7.50525366130716,-3.02154877690853,-5.82521783042085));
#530=CARTESIAN_POINT('Ctrl Pts',(7.36896121302959,-3.2396766963028,-5.99669960593696));
#531=CARTESIAN_POINT('Ctrl Pts',(7.30818039876112,-3.37781442266642,-6.0699666989657));
#532=CARTESIAN_POINT('Ctrl Pts',(7.22675159233447,-3.68068568984556,-6.16668938079017));
#533=CARTESIAN_POINT('Ctrl Pts',(7.20629519597159,-3.84543420624434,-6.19025924727849));
#534=CARTESIAN_POINT('Ctrl Pts',(7.20629519597159,-4.,-6.19025924727849));
#535=CARTESIAN_POINT('Ctrl Pts',(7.20629519597159,-4.,-6.19025924727849));
#536=CARTESIAN_POINT('Ctrl Pts',(7.20629519597159,-4.15456579375566,-6.19025924727849));
#537=CARTESIAN_POINT('Ctrl Pts',(7.22675159233447,-4.31931431015444,-6.16668938079017));
#538=CARTESIAN_POINT('Ctrl Pts',(7.30818039876111,-4.62218557733358,-6.0699666989657));
#539=CARTESIAN_POINT('Ctrl Pts',(7.36896121302959,-4.7603233036972,-5.99669960593696));
#540=CARTESIAN_POINT('Ctrl Pts',(7.50525366130715,-4.97845122309147,-5.82521783042085));
#541=CARTESIAN_POINT('Ctrl Pts',(7.5898620276817,-5.07304566255767,-5.71550381292963));
#542=CARTESIAN_POINT('Ctrl Pts',(7.76839190694673,-5.19857482388722,-5.47038176128712));
#543=CARTESIAN_POINT('Ctrl Pts',(7.86214423133749,-5.2295,-5.33484565953448));
#544=CARTESIAN_POINT('Ctrl Pts',(8.0315321087575,-5.2295,-5.07625670267025));
#545=CARTESIAN_POINT('Ctrl Pts',(8.1183291780336,-5.19857482388722,-4.93616458307727));
#546=CARTESIAN_POINT('Ctrl Pts',(8.27171928122319,-5.07304566255767,-4.67457480071698));
#547=CARTESIAN_POINT('Ctrl Pts',(8.3384973092596,-4.97845122309147,-4.55318107655382));
#548=CARTESIAN_POINT('Ctrl Pts',(8.44125245012609,-4.7603233036972,-4.35973079400773));
#549=CARTESIAN_POINT('Ctrl Pts',(8.48413730320513,-4.62218557733359,-4.2747410082661));
#550=CARTESIAN_POINT('Ctrl Pts',(8.54027593749167,-4.31931431015444,-4.16145207925788));
#551=CARTESIAN_POINT('Ctrl Pts',(8.55371102274324,-4.15456579375566,-4.13328292515777));
#552=CARTESIAN_POINT('Ctrl Pts',(8.55371102274324,-4.,-4.13328292515777));
#553=CARTESIAN_POINT('Origin',(-7.07106781186547,-5.75,-7.07106781186548));
#554=CARTESIAN_POINT('',(-2.80437225123078,-5.75,-1.06559667629306));
#555=CARTESIAN_POINT('',(-2.12132034355964,-6.9795,-2.12132034355964));
#556=CARTESIAN_POINT('Ctrl Pts',(-2.80437225123078,-5.75,-1.06559667629306));
#557=CARTESIAN_POINT('Ctrl Pts',(-2.80437225123078,-5.59351167526655,-1.06559667629306));
#558=CARTESIAN_POINT('Ctrl Pts',(-2.7924868076035,-5.42806688076244,-1.09847570875156));
#559=CARTESIAN_POINT('Ctrl Pts',(-2.73980314054418,-5.12581443904762,-1.22397298382064));
#560=CARTESIAN_POINT('Ctrl Pts',(-2.69838494967345,-4.98881393946948,-1.31586459996507));
#561=CARTESIAN_POINT('Ctrl Pts',(-2.59175746305684,-4.77253213400664,-1.51510577592854));
#562=CARTESIAN_POINT('Ctrl Pts',(-2.51912828419853,-4.67817585182445,-1.63628909497986));
#563=CARTESIAN_POINT('Ctrl Pts',(-2.33942427605352,-4.55211214543367,-1.88428855922241));
#564=CARTESIAN_POINT('Ctrl Pts',(-2.23184989376386,-4.5205,-2.01079079335543));
#565=CARTESIAN_POINT('Ctrl Pts',(-2.01079079335543,-4.5205,-2.23184989376386));
#566=CARTESIAN_POINT('Ctrl Pts',(-1.88428855922241,-4.55211214543367,-2.33942427605351));
#567=CARTESIAN_POINT('Ctrl Pts',(-1.63628909497986,-4.67817585182445,-2.51912828419853));
#568=CARTESIAN_POINT('Ctrl Pts',(-1.51510577592853,-4.77253213400664,-2.59175746305684));
#569=CARTESIAN_POINT('Ctrl Pts',(-1.31586459996507,-4.98881393946948,-2.69838494967346));
#570=CARTESIAN_POINT('Ctrl Pts',(-1.22397298382064,-5.12581443904762,-2.73980314054418));
#571=CARTESIAN_POINT('Ctrl Pts',(-1.09847570875156,-5.42806688076244,-2.7924868076035));
#572=CARTESIAN_POINT('Ctrl Pts',(-1.06559667629306,-5.59351167526655,-2.80437225123078));
#573=CARTESIAN_POINT('Ctrl Pts',(-1.06559667629306,-5.90648832473345,-2.80437225123078));
#574=CARTESIAN_POINT('Ctrl Pts',(-1.09847570875156,-6.07193311923756,-2.7924868076035));
#575=CARTESIAN_POINT('Ctrl Pts',(-1.22397298382064,-6.37418556095238,-2.73980314054418));
#576=CARTESIAN_POINT('Ctrl Pts',(-1.31586459996507,-6.51118606053052,-2.69838494967346));
#577=CARTESIAN_POINT('Ctrl Pts',(-1.51510577592853,-6.72746786599336,-2.59175746305684));
#578=CARTESIAN_POINT('Ctrl Pts',(-1.63628909497986,-6.82182414817555,-2.51912828419853));
#579=CARTESIAN_POINT('Ctrl Pts',(-1.88428855922241,-6.94788785456633,-2.33942427605352));
#580=CARTESIAN_POINT('Ctrl Pts',(-2.01079079335543,-6.9795,-2.23184989376386));
#581=CARTESIAN_POINT('Ctrl Pts',(-2.12132034355964,-6.9795,-2.12132034355964));
#582=CARTESIAN_POINT('Ctrl Pts',(-2.12132034355964,-6.9795,-2.12132034355964));
#583=CARTESIAN_POINT('Ctrl Pts',(-2.23184989376386,-6.9795,-2.01079079335543));
#584=CARTESIAN_POINT('Ctrl Pts',(-2.33942427605351,-6.94788785456633,-1.88428855922241));
#585=CARTESIAN_POINT('Ctrl Pts',(-2.51912828419853,-6.82182414817555,-1.63628909497986));
#586=CARTESIAN_POINT('Ctrl Pts',(-2.59175746305684,-6.72746786599336,-1.51510577592854));
#587=CARTESIAN_POINT('Ctrl Pts',(-2.69838494967345,-6.51118606053052,-1.31586459996507));
#588=CARTESIAN_POINT('Ctrl Pts',(-2.73980314054418,-6.37418556095238,-1.22397298382064));
#589=CARTESIAN_POINT('Ctrl Pts',(-2.7924868076035,-6.07193311923756,-1.09847570875156));
#590=CARTESIAN_POINT('Ctrl Pts',(-2.80437225123078,-5.90648832473345,-1.06559667629306));
#591=CARTESIAN_POINT('Ctrl Pts',(-2.80437225123078,-5.75,-1.06559667629306));
#592=CARTESIAN_POINT('',(-6.7175144212722,-6.9795,-6.7175144212722));
#593=CARTESIAN_POINT('',(-7.07106781186547,-6.9795,-7.07106781186548));
#594=CARTESIAN_POINT('',(-7.53040609362896,-5.75,-5.79163051869124));
#595=CARTESIAN_POINT('Ctrl Pts',(-7.53040609362896,-5.75,-5.79163051869124));
#596=CARTESIAN_POINT('Ctrl Pts',(-7.53040609362896,-5.90456579375566,-5.79163051869124));
#597=CARTESIAN_POINT('Ctrl Pts',(-7.51150600708693,-6.06931431015444,-5.8164657655621));
#598=CARTESIAN_POINT('Ctrl Pts',(-7.43343288531301,-6.37218557733358,-5.91591683570144));
#599=CARTESIAN_POINT('Ctrl Pts',(-7.37410888324721,-6.51032330369721,-5.99036841112411));
#600=CARTESIAN_POINT('Ctrl Pts',(-7.23404380522515,-6.72845122309147,-6.15878279504165));
#601=CARTESIAN_POINT('Ctrl Pts',(-7.14390141136665,-6.82304566255767,-6.26399729083046));
#602=CARTESIAN_POINT('Ctrl Pts',(-6.94036340198565,-6.94857482388722,-6.4887861177971));
#603=CARTESIAN_POINT('Ctrl Pts',(-6.82680789181653,-6.9795,-6.60822095072788));
#604=CARTESIAN_POINT('Ctrl Pts',(-6.7175144212722,-6.9795,-6.7175144212722));
#605=CARTESIAN_POINT('Ctrl Pts',(-6.7175144212722,-6.9795,-6.7175144212722));
#606=CARTESIAN_POINT('Ctrl Pts',(-6.60822095072788,-6.9795,-6.82680789181653));
#607=CARTESIAN_POINT('Ctrl Pts',(-6.4887861177971,-6.94857482388722,-6.94036340198565));
#608=CARTESIAN_POINT('Ctrl Pts',(-6.26399729083046,-6.82304566255767,-7.14390141136665));
#609=CARTESIAN_POINT('Ctrl Pts',(-6.15878279504165,-6.72845122309147,-7.23404380522515));
#610=CARTESIAN_POINT('Ctrl Pts',(-5.99036841112411,-6.51032330369721,-7.37410888324721));
#611=CARTESIAN_POINT('Ctrl Pts',(-5.91591683570144,-6.37218557733359,-7.43343288531301));
#612=CARTESIAN_POINT('Ctrl Pts',(-5.8164657655621,-6.06931431015444,-7.51150600708694));
#613=CARTESIAN_POINT('Ctrl Pts',(-5.79163051869124,-5.90456579375566,-7.53040609362896));
#614=CARTESIAN_POINT('Ctrl Pts',(-5.79163051869124,-5.59543420624434,-7.53040609362896));
#615=CARTESIAN_POINT('Ctrl Pts',(-5.8164657655621,-5.43068568984556,-7.51150600708694));
#616=CARTESIAN_POINT('Ctrl Pts',(-5.91591683570144,-5.12781442266642,-7.43343288531301));
#617=CARTESIAN_POINT('Ctrl Pts',(-5.99036841112411,-4.9896766963028,-7.37410888324721));
#618=CARTESIAN_POINT('Ctrl Pts',(-6.15878279504165,-4.77154877690853,-7.23404380522515));
#619=CARTESIAN_POINT('Ctrl Pts',(-6.26399729083046,-4.67695433744233,-7.14390141136665));
#620=CARTESIAN_POINT('Ctrl Pts',(-6.4887861177971,-4.55142517611279,-6.94036340198565));
#621=CARTESIAN_POINT('Ctrl Pts',(-6.60822095072788,-4.5205,-6.82680789181653));
#622=CARTESIAN_POINT('Ctrl Pts',(-6.82680789181653,-4.5205,-6.60822095072788));
#623=CARTESIAN_POINT('Ctrl Pts',(-6.94036340198565,-4.55142517611279,-6.4887861177971));
#624=CARTESIAN_POINT('Ctrl Pts',(-7.14390141136665,-4.67695433744233,-6.26399729083046));
#625=CARTESIAN_POINT('Ctrl Pts',(-7.23404380522515,-4.77154877690853,-6.15878279504165));
#626=CARTESIAN_POINT('Ctrl Pts',(-7.3741088832472,-4.9896766963028,-5.99036841112411));
#627=CARTESIAN_POINT('Ctrl Pts',(-7.43343288531301,-5.12781442266642,-5.91591683570144));
#628=CARTESIAN_POINT('Ctrl Pts',(-7.51150600708694,-5.43068568984556,-5.8164657655621));
#629=CARTESIAN_POINT('Ctrl Pts',(-7.53040609362896,-5.59543420624434,-5.79163051869124));
#630=CARTESIAN_POINT('Ctrl Pts',(-7.53040609362896,-5.75,-5.79163051869124));
#631=CARTESIAN_POINT('Origin',(-7.07106781186547,-2.25,-7.07106781186548));
#632=CARTESIAN_POINT('',(-2.80437225123078,-2.25,-1.06559667629306));
#633=CARTESIAN_POINT('',(-2.12132034355964,-3.4795,-2.12132034355964));
#634=CARTESIAN_POINT('Ctrl Pts',(-2.80437225123078,-2.25,-1.06559667629306));
#635=CARTESIAN_POINT('Ctrl Pts',(-2.80437225123078,-2.09351167526655,-1.06559667629306));
#636=CARTESIAN_POINT('Ctrl Pts',(-2.7924868076035,-1.92806688076244,-1.09847570875156));
#637=CARTESIAN_POINT('Ctrl Pts',(-2.73980314054418,-1.62581443904762,-1.22397298382064));
#638=CARTESIAN_POINT('Ctrl Pts',(-2.69838494967345,-1.48881393946948,-1.31586459996507));
#639=CARTESIAN_POINT('Ctrl Pts',(-2.59175746305684,-1.27253213400664,-1.51510577592854));
#640=CARTESIAN_POINT('Ctrl Pts',(-2.51912828419853,-1.17817585182445,-1.63628909497986));
#641=CARTESIAN_POINT('Ctrl Pts',(-2.33942427605351,-1.05211214543367,-1.88428855922241));
#642=CARTESIAN_POINT('Ctrl Pts',(-2.23184989376386,-1.0205,-2.01079079335543));
#643=CARTESIAN_POINT('Ctrl Pts',(-2.01079079335543,-1.0205,-2.23184989376386));
#644=CARTESIAN_POINT('Ctrl Pts',(-1.88428855922241,-1.05211214543367,-2.33942427605351));
#645=CARTESIAN_POINT('Ctrl Pts',(-1.63628909497986,-1.17817585182445,-2.51912828419853));
#646=CARTESIAN_POINT('Ctrl Pts',(-1.51510577592853,-1.27253213400664,-2.59175746305684));
#647=CARTESIAN_POINT('Ctrl Pts',(-1.31586459996507,-1.48881393946948,-2.69838494967346));
#648=CARTESIAN_POINT('Ctrl Pts',(-1.22397298382064,-1.62581443904762,-2.73980314054418));
#649=CARTESIAN_POINT('Ctrl Pts',(-1.09847570875156,-1.92806688076244,-2.7924868076035));
#650=CARTESIAN_POINT('Ctrl Pts',(-1.06559667629306,-2.09351167526655,-2.80437225123078));
#651=CARTESIAN_POINT('Ctrl Pts',(-1.06559667629306,-2.40648832473345,-2.80437225123078));
#652=CARTESIAN_POINT('Ctrl Pts',(-1.09847570875156,-2.57193311923756,-2.7924868076035));
#653=CARTESIAN_POINT('Ctrl Pts',(-1.22397298382064,-2.87418556095238,-2.73980314054418));
#654=CARTESIAN_POINT('Ctrl Pts',(-1.31586459996507,-3.01118606053052,-2.69838494967346));
#655=CARTESIAN_POINT('Ctrl Pts',(-1.51510577592853,-3.22746786599336,-2.59175746305684));
#656=CARTESIAN_POINT('Ctrl Pts',(-1.63628909497986,-3.32182414817555,-2.51912828419853));
#657=CARTESIAN_POINT('Ctrl Pts',(-1.88428855922241,-3.44788785456633,-2.33942427605351));
#658=CARTESIAN_POINT('Ctrl Pts',(-2.01079079335543,-3.4795,-2.23184989376386));
#659=CARTESIAN_POINT('Ctrl Pts',(-2.12132034355964,-3.4795,-2.12132034355964));
#660=CARTESIAN_POINT('Ctrl Pts',(-2.12132034355964,-3.4795,-2.12132034355964));
#661=CARTESIAN_POINT('Ctrl Pts',(-2.23184989376386,-3.4795,-2.01079079335543));
#662=CARTESIAN_POINT('Ctrl Pts',(-2.33942427605351,-3.44788785456633,-1.88428855922241));
#663=CARTESIAN_POINT('Ctrl Pts',(-2.51912828419853,-3.32182414817555,-1.63628909497986));
#664=CARTESIAN_POINT('Ctrl Pts',(-2.59175746305684,-3.22746786599336,-1.51510577592854));
#665=CARTESIAN_POINT('Ctrl Pts',(-2.69838494967345,-3.01118606053052,-1.31586459996507));
#666=CARTESIAN_POINT('Ctrl Pts',(-2.73980314054418,-2.87418556095238,-1.22397298382064));
#667=CARTESIAN_POINT('Ctrl Pts',(-2.7924868076035,-2.57193311923756,-1.09847570875156));
#668=CARTESIAN_POINT('Ctrl Pts',(-2.80437225123078,-2.40648832473345,-1.06559667629306));
#669=CARTESIAN_POINT('Ctrl Pts',(-2.80437225123078,-2.25,-1.06559667629306));
#670=CARTESIAN_POINT('',(-6.7175144212722,-3.4795,-6.7175144212722));
#671=CARTESIAN_POINT('',(-7.07106781186547,-3.4795,-7.07106781186548));
#672=CARTESIAN_POINT('',(-7.53040609362896,-2.25,-5.79163051869124));
#673=CARTESIAN_POINT('Ctrl Pts',(-7.53040609362896,-2.25,-5.79163051869124));
#674=CARTESIAN_POINT('Ctrl Pts',(-7.53040609362896,-2.40456579375566,-5.79163051869124));
#675=CARTESIAN_POINT('Ctrl Pts',(-7.51150600708693,-2.56931431015444,-5.8164657655621));
#676=CARTESIAN_POINT('Ctrl Pts',(-7.43343288531301,-2.87218557733358,-5.91591683570144));
#677=CARTESIAN_POINT('Ctrl Pts',(-7.37410888324721,-3.0103233036972,-5.99036841112411));
#678=CARTESIAN_POINT('Ctrl Pts',(-7.23404380522515,-3.22845122309147,-6.15878279504165));
#679=CARTESIAN_POINT('Ctrl Pts',(-7.14390141136665,-3.32304566255767,-6.26399729083046));
#680=CARTESIAN_POINT('Ctrl Pts',(-6.94036340198565,-3.44857482388722,-6.4887861177971));
#681=CARTESIAN_POINT('Ctrl Pts',(-6.82680789181653,-3.4795,-6.60822095072788));
#682=CARTESIAN_POINT('Ctrl Pts',(-6.7175144212722,-3.4795,-6.7175144212722));
#683=CARTESIAN_POINT('Ctrl Pts',(-6.7175144212722,-3.4795,-6.7175144212722));
#684=CARTESIAN_POINT('Ctrl Pts',(-6.60822095072788,-3.4795,-6.82680789181653));
#685=CARTESIAN_POINT('Ctrl Pts',(-6.4887861177971,-3.44857482388722,-6.94036340198565));
#686=CARTESIAN_POINT('Ctrl Pts',(-6.26399729083046,-3.32304566255767,-7.14390141136665));
#687=CARTESIAN_POINT('Ctrl Pts',(-6.15878279504165,-3.22845122309147,-7.23404380522515));
#688=CARTESIAN_POINT('Ctrl Pts',(-5.99036841112411,-3.0103233036972,-7.37410888324721));
#689=CARTESIAN_POINT('Ctrl Pts',(-5.91591683570144,-2.87218557733358,-7.43343288531301));
#690=CARTESIAN_POINT('Ctrl Pts',(-5.8164657655621,-2.56931431015444,-7.51150600708694));
#691=CARTESIAN_POINT('Ctrl Pts',(-5.79163051869124,-2.40456579375566,-7.53040609362896));
#692=CARTESIAN_POINT('Ctrl Pts',(-5.79163051869124,-2.09543420624434,-7.53040609362896));
#693=CARTESIAN_POINT('Ctrl Pts',(-5.8164657655621,-1.93068568984556,-7.51150600708694));
#694=CARTESIAN_POINT('Ctrl Pts',(-5.91591683570144,-1.62781442266642,-7.43343288531301));
#695=CARTESIAN_POINT('Ctrl Pts',(-5.99036841112411,-1.4896766963028,-7.37410888324721));
#696=CARTESIAN_POINT('Ctrl Pts',(-6.15878279504165,-1.27154877690853,-7.23404380522515));
#697=CARTESIAN_POINT('Ctrl Pts',(-6.26399729083046,-1.17695433744233,-7.14390141136665));
#698=CARTESIAN_POINT('Ctrl Pts',(-6.4887861177971,-1.05142517611279,-6.94036340198565));
#699=CARTESIAN_POINT('Ctrl Pts',(-6.60822095072788,-1.0205,-6.82680789181653));
#700=CARTESIAN_POINT('Ctrl Pts',(-6.82680789181653,-1.0205,-6.60822095072788));
#701=CARTESIAN_POINT('Ctrl Pts',(-6.94036340198565,-1.05142517611279,-6.4887861177971));
#702=CARTESIAN_POINT('Ctrl Pts',(-7.14390141136665,-1.17695433744233,-6.26399729083046));
#703=CARTESIAN_POINT('Ctrl Pts',(-7.23404380522515,-1.27154877690853,-6.15878279504165));
#704=CARTESIAN_POINT('Ctrl Pts',(-7.37410888324721,-1.4896766963028,-5.99036841112411));
#705=CARTESIAN_POINT('Ctrl Pts',(-7.43343288531301,-1.62781442266642,-5.91591683570144));
#706=CARTESIAN_POINT('Ctrl Pts',(-7.51150600708693,-1.93068568984556,-5.8164657655621));
#707=CARTESIAN_POINT('Ctrl Pts',(-7.53040609362896,-2.09543420624434,-5.79163051869124));
#708=CARTESIAN_POINT('Ctrl Pts',(-7.53040609362896,-2.25,-5.79163051869124));
#709=CARTESIAN_POINT('Origin',(3.88825358729285E-16,-10.,6.35));
#710=CARTESIAN_POINT('',(1.2295,0.,6.35));
#711=CARTESIAN_POINT('Origin',(3.88825358729285E-16,0.,6.35));
#712=CARTESIAN_POINT('',(1.2295,-8.,6.35));
#713=CARTESIAN_POINT('',(1.2295,-10.,6.35));
#714=CARTESIAN_POINT('Origin',(3.88825358729285E-16,-8.,6.35));
#715=CARTESIAN_POINT('Origin',(6.35,-10.,-1.55530143491714E-15));
#716=CARTESIAN_POINT('',(7.5795,0.,-1.70587175887231E-15));
#717=CARTESIAN_POINT('Origin',(6.35,0.,-1.55530143491714E-15));
#718=CARTESIAN_POINT('',(7.5795,-8.,-1.70587175887231E-15));
#719=CARTESIAN_POINT('',(7.5795,-10.,-1.70587175887231E-15));
#720=CARTESIAN_POINT('Origin',(6.35,-8.,-1.55530143491714E-15));
#721=CARTESIAN_POINT('Origin',(-1.16647607618786E-15,-10.,-6.35));
#722=CARTESIAN_POINT('',(1.2295,0.,-6.35));
#723=CARTESIAN_POINT('Origin',(-1.16647607618786E-15,0.,-6.35));
#724=CARTESIAN_POINT('',(1.2295,-8.,-6.35));
#725=CARTESIAN_POINT('',(1.2295,-10.,-6.35));
#726=CARTESIAN_POINT('Origin',(-1.16647607618786E-15,-8.,-6.35));
#727=CARTESIAN_POINT('Origin',(-6.35,-10.,7.77650717458569E-16));
#728=CARTESIAN_POINT('',(-5.1205,0.,6.27080393503402E-16));
#729=CARTESIAN_POINT('Origin',(-6.35,0.,7.77650717458569E-16));
#730=CARTESIAN_POINT('',(-5.1205,-8.,6.27080393503402E-16));
#731=CARTESIAN_POINT('',(-5.1205,-10.,6.27080393503402E-16));
#732=CARTESIAN_POINT('Origin',(-6.35,-8.,7.77650717458569E-16));
#733=CARTESIAN_POINT('Origin',(0.,-8.,0.));
#734=CARTESIAN_POINT('',(9.5,-8.,1.16341445918999E-15));
#735=CARTESIAN_POINT('Origin',(0.,-8.,0.));
#736=CARTESIAN_POINT('',(-3.,-8.,3.67394039744206E-16));
#737=CARTESIAN_POINT('Origin',(0.,-8.,0.));
#738=CARTESIAN_POINT('Origin',(0.,0.,0.));
#739=CARTESIAN_POINT('',(-3.,0.,3.67394039744206E-16));
#740=CARTESIAN_POINT('',(-3.,0.,-3.67394039744206E-16));
#741=CARTESIAN_POINT('Origin',(0.,0.,0.));
#742=CARTESIAN_POINT('Origin',(0.,0.,0.));
#743=CARTESIAN_POINT('',(9.5,0.,1.16341445918999E-15));
#744=CARTESIAN_POINT('',(9.5,0.,1.16341445918999E-15));
#745=CARTESIAN_POINT('Origin',(0.,0.,0.));
#746=CARTESIAN_POINT('Origin',(0.,0.,0.));
#747=UNCERTAINTY_MEASURE_WITH_UNIT(LENGTH_MEASURE(0.01),#751,
'DISTANCE_ACCURACY_VALUE',
'Maximum model space distance between geometric entities at asserted c
onnectivities');
#748=UNCERTAINTY_MEASURE_WITH_UNIT(LENGTH_MEASURE(0.01),#751,
'DISTANCE_ACCURACY_VALUE',
'Maximum model space distance between geometric entities at asserted c
onnectivities');
#749=(
GEOMETRIC_REPRESENTATION_CONTEXT(3)
GLOBAL_UNCERTAINTY_ASSIGNED_CONTEXT((#747))
GLOBAL_UNIT_ASSIGNED_CONTEXT((#751,#753,#754))
REPRESENTATION_CONTEXT('','3D')
);
#750=(
GEOMETRIC_REPRESENTATION_CONTEXT(3)
GLOBAL_UNCERTAINTY_ASSIGNED_CONTEXT((#748))
GLOBAL_UNIT_ASSIGNED_CONTEXT((#751,#753,#754))
REPRESENTATION_CONTEXT('','3D')
);
#751=(
LENGTH_UNIT()
NAMED_UNIT(*)
SI_UNIT(.MILLI.,.METRE.)
);
#752=(
LENGTH_UNIT()
NAMED_UNIT(*)
SI_UNIT(.CENTI.,.METRE.)
);
#753=(
NAMED_UNIT(*)
PLANE_ANGLE_UNIT()
SI_UNIT($,.RADIAN.)
);
#754=(
NAMED_UNIT(*)
SI_UNIT($,.STERADIAN.)
SOLID_ANGLE_UNIT()
);
#755=SHAPE_DEFINITION_REPRESENTATION(#756,#757);
#756=PRODUCT_DEFINITION_SHAPE('',$,#759);
#757=SHAPE_REPRESENTATION('',(#311),#749);
#758=PRODUCT_DEFINITION_CONTEXT('part definition',#763,'design');
#759=PRODUCT_DEFINITION('DiyHub','DiyHub',#760,#758);
#760=PRODUCT_DEFINITION_FORMATION('',$,#765);
#761=PRODUCT_RELATED_PRODUCT_CATEGORY('DiyHub','DiyHub',(#765));
#762=APPLICATION_PROTOCOL_DEFINITION('international standard',
'automotive_design',2009,#763);
#763=APPLICATION_CONTEXT(
'Core Data for Automotive Mechanical Design Process');
#764=PRODUCT_CONTEXT('part definition',#763,'mechanical');
#765=PRODUCT('DiyHub','DiyHub',$,(#764));
#766=PRESENTATION_STYLE_ASSIGNMENT((#767));
#767=SURFACE_STYLE_USAGE(.BOTH.,#770);
#768=SURFACE_STYLE_RENDERING_WITH_PROPERTIES($,#774,(#769));
#769=SURFACE_STYLE_TRANSPARENT(0.);
#770=SURFACE_SIDE_STYLE('',(#771,#768));
#771=SURFACE_STYLE_FILL_AREA(#772);
#772=FILL_AREA_STYLE('',(#773));
#773=FILL_AREA_STYLE_COLOUR('',#774);
#774=COLOUR_RGB('',0.745098039215686,0.737254901960784,0.729411764705882);
ENDSEC;
END-ISO-10303-21;
