ISO-10303-21;
HEADER;
/* Generated by software containing ST-Developer
 * from STEP Tools, Inc. (www.steptools.com) 
 */

FILE_DESCRIPTION(
/* description */ (''),
/* implementation_level */ '2;1');

FILE_NAME(
/* name */ 'plug.stp',
/* time_stamp */ '2026-05-13T17:47:08+02:00',
/* author */ ('szymo'),
/* organization */ (''),
/* preprocessor_version */ 'ST-DEVELOPER v20.1',
/* originating_system */ 'Autodesk Inventor 2026',
/* authorisation */ '');

FILE_SCHEMA (('AUTOMOTIVE_DESIGN { 1 0 10303 214 3 1 1 }'));
ENDSEC;

DATA;
#10=MECHANICAL_DESIGN_GEOMETRIC_PRESENTATION_REPRESENTATION('',(#13),#1484);
#11=SHAPE_REPRESENTATION_RELATIONSHIP('SRR','None',#1491,#12);
#12=ADVANCED_BREP_SHAPE_REPRESENTATION('',(#14),#1483);
#13=STYLED_ITEM('',(#1500),#14);
#14=MANIFOLD_SOLID_BREP('Bry\X2\0142\X0\a1',#866);
#15=CONICAL_SURFACE('',#951,2.35,0.785398163397448);
#16=CONICAL_SURFACE('',#954,2.35,0.785398163397448);
#17=CONICAL_SURFACE('',#957,2.35,0.785398163397448);
#18=CONICAL_SURFACE('',#960,2.35,0.785398163397448);
#19=CONICAL_SURFACE('',#963,2.35,0.785398163397448);
#20=CONICAL_SURFACE('',#966,2.35,0.785398163397448);
#21=CONICAL_SURFACE('',#969,2.35,0.785398163397448);
#22=CYLINDRICAL_SURFACE('',#909,1.);
#23=CYLINDRICAL_SURFACE('',#912,1.);
#24=CYLINDRICAL_SURFACE('',#915,1.);
#25=CYLINDRICAL_SURFACE('',#918,1.);
#26=CYLINDRICAL_SURFACE('',#923,3.1);
#27=CYLINDRICAL_SURFACE('',#927,3.1);
#28=CYLINDRICAL_SURFACE('',#931,3.1);
#29=CYLINDRICAL_SURFACE('',#935,3.1);
#30=CYLINDRICAL_SURFACE('',#939,3.1);
#31=CYLINDRICAL_SURFACE('',#943,3.1);
#32=CYLINDRICAL_SURFACE('',#947,3.1);
#33=CYLINDRICAL_SURFACE('',#953,1.6);
#34=CYLINDRICAL_SURFACE('',#956,1.6);
#35=CYLINDRICAL_SURFACE('',#959,1.6);
#36=CYLINDRICAL_SURFACE('',#962,1.6);
#37=CYLINDRICAL_SURFACE('',#965,1.6);
#38=CYLINDRICAL_SURFACE('',#968,1.6);
#39=CYLINDRICAL_SURFACE('',#971,1.6);
#40=FACE_BOUND('',#152,.T.);
#41=FACE_BOUND('',#153,.T.);
#42=FACE_BOUND('',#154,.T.);
#43=FACE_BOUND('',#155,.T.);
#44=FACE_BOUND('',#156,.T.);
#45=FACE_BOUND('',#157,.T.);
#46=FACE_BOUND('',#158,.T.);
#47=FACE_BOUND('',#194,.T.);
#48=FACE_BOUND('',#195,.T.);
#49=FACE_BOUND('',#196,.T.);
#50=FACE_BOUND('',#197,.T.);
#51=FACE_BOUND('',#198,.T.);
#52=FACE_BOUND('',#199,.T.);
#53=FACE_BOUND('',#200,.T.);
#54=CIRCLE('',#893,1.);
#55=CIRCLE('',#898,1.);
#56=CIRCLE('',#900,1.);
#57=CIRCLE('',#901,1.);
#58=CIRCLE('',#902,1.6);
#59=CIRCLE('',#903,1.6);
#60=CIRCLE('',#904,1.6);
#61=CIRCLE('',#905,1.6);
#62=CIRCLE('',#906,1.6);
#63=CIRCLE('',#907,1.6);
#64=CIRCLE('',#908,1.6);
#65=CIRCLE('',#910,1.);
#66=CIRCLE('',#913,1.);
#67=CIRCLE('',#916,1.);
#68=CIRCLE('',#919,1.);
#69=CIRCLE('',#924,3.1);
#70=CIRCLE('',#925,3.1);
#71=CIRCLE('',#926,3.1);
#72=CIRCLE('',#928,3.1);
#73=CIRCLE('',#929,3.1);
#74=CIRCLE('',#930,3.1);
#75=CIRCLE('',#932,3.1);
#76=CIRCLE('',#933,3.1);
#77=CIRCLE('',#934,3.1);
#78=CIRCLE('',#936,3.1);
#79=CIRCLE('',#937,3.1);
#80=CIRCLE('',#938,3.1);
#81=CIRCLE('',#940,3.1);
#82=CIRCLE('',#941,3.1);
#83=CIRCLE('',#942,3.1);
#84=CIRCLE('',#944,3.1);
#85=CIRCLE('',#945,3.1);
#86=CIRCLE('',#946,3.1);
#87=CIRCLE('',#948,3.1);
#88=CIRCLE('',#949,3.1);
#89=CIRCLE('',#950,3.1);
#90=CIRCLE('',#952,1.6);
#91=CIRCLE('',#955,1.6);
#92=CIRCLE('',#958,1.6);
#93=CIRCLE('',#961,1.6);
#94=CIRCLE('',#964,1.6);
#95=CIRCLE('',#967,1.6);
#96=CIRCLE('',#970,1.6);
#97=FACE_OUTER_BOUND('',#143,.T.);
#98=FACE_OUTER_BOUND('',#144,.T.);
#99=FACE_OUTER_BOUND('',#145,.T.);
#100=FACE_OUTER_BOUND('',#146,.T.);
#101=FACE_OUTER_BOUND('',#147,.T.);
#102=FACE_OUTER_BOUND('',#148,.T.);
#103=FACE_OUTER_BOUND('',#149,.T.);
#104=FACE_OUTER_BOUND('',#150,.T.);
#105=FACE_OUTER_BOUND('',#151,.T.);
#106=FACE_OUTER_BOUND('',#159,.T.);
#107=FACE_OUTER_BOUND('',#160,.T.);
#108=FACE_OUTER_BOUND('',#161,.T.);
#109=FACE_OUTER_BOUND('',#162,.T.);
#110=FACE_OUTER_BOUND('',#163,.T.);
#111=FACE_OUTER_BOUND('',#164,.T.);
#112=FACE_OUTER_BOUND('',#165,.T.);
#113=FACE_OUTER_BOUND('',#166,.T.);
#114=FACE_OUTER_BOUND('',#167,.T.);
#115=FACE_OUTER_BOUND('',#168,.T.);
#116=FACE_OUTER_BOUND('',#169,.T.);
#117=FACE_OUTER_BOUND('',#170,.T.);
#118=FACE_OUTER_BOUND('',#171,.T.);
#119=FACE_OUTER_BOUND('',#172,.T.);
#120=FACE_OUTER_BOUND('',#173,.T.);
#121=FACE_OUTER_BOUND('',#174,.T.);
#122=FACE_OUTER_BOUND('',#175,.T.);
#123=FACE_OUTER_BOUND('',#176,.T.);
#124=FACE_OUTER_BOUND('',#177,.T.);
#125=FACE_OUTER_BOUND('',#178,.T.);
#126=FACE_OUTER_BOUND('',#179,.T.);
#127=FACE_OUTER_BOUND('',#180,.T.);
#128=FACE_OUTER_BOUND('',#181,.T.);
#129=FACE_OUTER_BOUND('',#182,.T.);
#130=FACE_OUTER_BOUND('',#183,.T.);
#131=FACE_OUTER_BOUND('',#184,.T.);
#132=FACE_OUTER_BOUND('',#185,.T.);
#133=FACE_OUTER_BOUND('',#186,.T.);
#134=FACE_OUTER_BOUND('',#187,.T.);
#135=FACE_OUTER_BOUND('',#188,.T.);
#136=FACE_OUTER_BOUND('',#189,.T.);
#137=FACE_OUTER_BOUND('',#190,.T.);
#138=FACE_OUTER_BOUND('',#191,.T.);
#139=FACE_OUTER_BOUND('',#192,.T.);
#140=FACE_OUTER_BOUND('',#193,.T.);
#141=FACE_OUTER_BOUND('',#201,.T.);
#142=FACE_OUTER_BOUND('',#202,.T.);
#143=EDGE_LOOP('',(#557,#558,#559,#560));
#144=EDGE_LOOP('',(#561,#562,#563));
#145=EDGE_LOOP('',(#564,#565,#566,#567));
#146=EDGE_LOOP('',(#568,#569));
#147=EDGE_LOOP('',(#570,#571,#572,#573));
#148=EDGE_LOOP('',(#574,#575,#576));
#149=EDGE_LOOP('',(#577,#578,#579,#580));
#150=EDGE_LOOP('',(#581,#582));
#151=EDGE_LOOP('',(#583,#584,#585,#586,#587,#588,#589,#590,#591,#592,#593,
#594,#595,#596));
#152=EDGE_LOOP('',(#597));
#153=EDGE_LOOP('',(#598));
#154=EDGE_LOOP('',(#599));
#155=EDGE_LOOP('',(#600));
#156=EDGE_LOOP('',(#601));
#157=EDGE_LOOP('',(#602));
#158=EDGE_LOOP('',(#603));
#159=EDGE_LOOP('',(#604,#605,#606,#607));
#160=EDGE_LOOP('',(#608,#609,#610,#611,#612,#613));
#161=EDGE_LOOP('',(#614,#615,#616,#617));
#162=EDGE_LOOP('',(#618,#619,#620,#621,#622));
#163=EDGE_LOOP('',(#623,#624,#625,#626));
#164=EDGE_LOOP('',(#627,#628,#629,#630,#631));
#165=EDGE_LOOP('',(#632,#633,#634,#635));
#166=EDGE_LOOP('',(#636,#637,#638,#639,#640,#641));
#167=EDGE_LOOP('',(#642,#643,#644,#645,#646,#647,#648,#649,#650));
#168=EDGE_LOOP('',(#651,#652,#653,#654,#655,#656,#657,#658,#659));
#169=EDGE_LOOP('',(#660,#661,#662,#663,#664));
#170=EDGE_LOOP('',(#665,#666,#667,#668,#669));
#171=EDGE_LOOP('',(#670,#671,#672,#673,#674));
#172=EDGE_LOOP('',(#675,#676,#677,#678,#679));
#173=EDGE_LOOP('',(#680,#681,#682,#683,#684));
#174=EDGE_LOOP('',(#685,#686,#687,#688,#689));
#175=EDGE_LOOP('',(#690,#691,#692,#693,#694));
#176=EDGE_LOOP('',(#695,#696,#697,#698,#699));
#177=EDGE_LOOP('',(#700,#701,#702,#703));
#178=EDGE_LOOP('',(#704,#705,#706,#707,#708));
#179=EDGE_LOOP('',(#709,#710,#711,#712));
#180=EDGE_LOOP('',(#713,#714,#715,#716,#717));
#181=EDGE_LOOP('',(#718,#719,#720,#721));
#182=EDGE_LOOP('',(#722,#723,#724,#725,#726));
#183=EDGE_LOOP('',(#727,#728,#729,#730));
#184=EDGE_LOOP('',(#731,#732,#733,#734,#735));
#185=EDGE_LOOP('',(#736,#737,#738,#739));
#186=EDGE_LOOP('',(#740,#741,#742,#743,#744));
#187=EDGE_LOOP('',(#745,#746,#747,#748));
#188=EDGE_LOOP('',(#749,#750,#751,#752,#753));
#189=EDGE_LOOP('',(#754,#755,#756,#757));
#190=EDGE_LOOP('',(#758,#759,#760,#761));
#191=EDGE_LOOP('',(#762,#763,#764,#765));
#192=EDGE_LOOP('',(#766,#767,#768,#769));
#193=EDGE_LOOP('',(#770,#771,#772,#773,#774,#775,#776,#777,#778,#779,#780,
#781));
#194=EDGE_LOOP('',(#782));
#195=EDGE_LOOP('',(#783));
#196=EDGE_LOOP('',(#784));
#197=EDGE_LOOP('',(#785));
#198=EDGE_LOOP('',(#786));
#199=EDGE_LOOP('',(#787));
#200=EDGE_LOOP('',(#788));
#201=EDGE_LOOP('',(#789,#790,#791,#792));
#202=EDGE_LOOP('',(#793,#794,#795,#796,#797,#798));
#203=LINE('',#1240,#281);
#204=LINE('',#1242,#282);
#205=LINE('',#1244,#283);
#206=LINE('',#1245,#284);
#207=LINE('',#1248,#285);
#208=LINE('',#1249,#286);
#209=LINE('',#1253,#287);
#210=LINE('',#1255,#288);
#211=LINE('',#1257,#289);
#212=LINE('',#1258,#290);
#213=LINE('',#1264,#291);
#214=LINE('',#1266,#292);
#215=LINE('',#1268,#293);
#216=LINE('',#1269,#294);
#217=LINE('',#1272,#295);
#218=LINE('',#1273,#296);
#219=LINE('',#1277,#297);
#220=LINE('',#1279,#298);
#221=LINE('',#1281,#299);
#222=LINE('',#1282,#300);
#223=LINE('',#1287,#301);
#224=LINE('',#1290,#302);
#225=LINE('',#1291,#303);
#226=LINE('',#1293,#304);
#227=LINE('',#1296,#305);
#228=LINE('',#1298,#306);
#229=LINE('',#1300,#307);
#230=LINE('',#1301,#308);
#231=LINE('',#1318,#309);
#232=LINE('',#1321,#310);
#233=LINE('',#1324,#311);
#234=LINE('',#1325,#312);
#235=LINE('',#1328,#313);
#236=LINE('',#1331,#314);
#237=LINE('',#1334,#315);
#238=LINE('',#1335,#316);
#239=LINE('',#1338,#317);
#240=LINE('',#1341,#318);
#241=LINE('',#1343,#319);
#242=LINE('',#1346,#320);
#243=LINE('',#1350,#321);
#244=LINE('',#1351,#322);
#245=LINE('',#1354,#323);
#246=LINE('',#1356,#324);
#247=LINE('',#1358,#325);
#248=LINE('',#1360,#326);
#249=LINE('',#1361,#327);
#250=LINE('',#1364,#328);
#251=LINE('',#1366,#329);
#252=LINE('',#1368,#330);
#253=LINE('',#1370,#331);
#254=LINE('',#1371,#332);
#255=LINE('',#1377,#333);
#256=LINE('',#1385,#334);
#257=LINE('',#1393,#335);
#258=LINE('',#1401,#336);
#259=LINE('',#1409,#337);
#260=LINE('',#1417,#338);
#261=LINE('',#1425,#339);
#262=LINE('',#1430,#340);
#263=LINE('',#1433,#341);
#264=LINE('',#1436,#342);
#265=LINE('',#1439,#343);
#266=LINE('',#1442,#344);
#267=LINE('',#1445,#345);
#268=LINE('',#1448,#346);
#269=LINE('',#1451,#347);
#270=LINE('',#1454,#348);
#271=LINE('',#1457,#349);
#272=LINE('',#1460,#350);
#273=LINE('',#1463,#351);
#274=LINE('',#1466,#352);
#275=LINE('',#1469,#353);
#276=LINE('',#1471,#354);
#277=LINE('',#1472,#355);
#278=LINE('',#1475,#356);
#279=LINE('',#1476,#357);
#280=LINE('',#1478,#358);
#281=VECTOR('',#982,10.);
#282=VECTOR('',#983,10.);
#283=VECTOR('',#984,10.);
#284=VECTOR('',#985,10.);
#285=VECTOR('',#988,10.);
#286=VECTOR('',#989,10.);
#287=VECTOR('',#992,10.);
#288=VECTOR('',#993,10.);
#289=VECTOR('',#994,10.);
#290=VECTOR('',#995,10.);
#291=VECTOR('',#1002,10.);
#292=VECTOR('',#1003,10.);
#293=VECTOR('',#1004,10.);
#294=VECTOR('',#1005,10.);
#295=VECTOR('',#1008,10.);
#296=VECTOR('',#1009,10.);
#297=VECTOR('',#1012,10.);
#298=VECTOR('',#1013,10.);
#299=VECTOR('',#1014,10.);
#300=VECTOR('',#1015,10.);
#301=VECTOR('',#1022,10.);
#302=VECTOR('',#1025,10.);
#303=VECTOR('',#1026,10.);
#304=VECTOR('',#1027,10.);
#305=VECTOR('',#1030,10.);
#306=VECTOR('',#1031,10.);
#307=VECTOR('',#1032,10.);
#308=VECTOR('',#1033,10.);
#309=VECTOR('',#1050,10.);
#310=VECTOR('',#1053,10.);
#311=VECTOR('',#1056,10.);
#312=VECTOR('',#1057,10.);
#313=VECTOR('',#1060,10.);
#314=VECTOR('',#1063,10.);
#315=VECTOR('',#1066,10.);
#316=VECTOR('',#1067,10.);
#317=VECTOR('',#1070,10.);
#318=VECTOR('',#1073,10.);
#319=VECTOR('',#1076,10.);
#320=VECTOR('',#1079,10.);
#321=VECTOR('',#1084,10.);
#322=VECTOR('',#1085,10.);
#323=VECTOR('',#1088,10.);
#324=VECTOR('',#1089,10.);
#325=VECTOR('',#1090,10.);
#326=VECTOR('',#1091,10.);
#327=VECTOR('',#1092,10.);
#328=VECTOR('',#1095,10.);
#329=VECTOR('',#1096,10.);
#330=VECTOR('',#1097,10.);
#331=VECTOR('',#1098,10.);
#332=VECTOR('',#1099,10.);
#333=VECTOR('',#1104,3.1);
#334=VECTOR('',#1113,3.1);
#335=VECTOR('',#1122,3.1);
#336=VECTOR('',#1131,3.1);
#337=VECTOR('',#1140,3.1);
#338=VECTOR('',#1149,3.1);
#339=VECTOR('',#1158,3.1);
#340=VECTOR('',#1165,2.35);
#341=VECTOR('',#1170,1.6);
#342=VECTOR('',#1173,2.35);
#343=VECTOR('',#1178,1.6);
#344=VECTOR('',#1181,2.35);
#345=VECTOR('',#1186,1.6);
#346=VECTOR('',#1189,2.35);
#347=VECTOR('',#1194,1.6);
#348=VECTOR('',#1197,2.35);
#349=VECTOR('',#1202,1.6);
#350=VECTOR('',#1205,2.35);
#351=VECTOR('',#1210,1.6);
#352=VECTOR('',#1213,2.35);
#353=VECTOR('',#1218,1.6);
#354=VECTOR('',#1221,10.);
#355=VECTOR('',#1222,10.);
#356=VECTOR('',#1227,10.);
#357=VECTOR('',#1228,10.);
#358=VECTOR('',#1231,10.);
#359=VERTEX_POINT('',#1238);
#360=VERTEX_POINT('',#1239);
#361=VERTEX_POINT('',#1241);
#362=VERTEX_POINT('',#1243);
#363=VERTEX_POINT('',#1247);
#364=VERTEX_POINT('',#1251);
#365=VERTEX_POINT('',#1252);
#366=VERTEX_POINT('',#1254);
#367=VERTEX_POINT('',#1256);
#368=VERTEX_POINT('',#1262);
#369=VERTEX_POINT('',#1263);
#370=VERTEX_POINT('',#1265);
#371=VERTEX_POINT('',#1267);
#372=VERTEX_POINT('',#1271);
#373=VERTEX_POINT('',#1275);
#374=VERTEX_POINT('',#1276);
#375=VERTEX_POINT('',#1278);
#376=VERTEX_POINT('',#1280);
#377=VERTEX_POINT('',#1286);
#378=VERTEX_POINT('',#1288);
#379=VERTEX_POINT('',#1292);
#380=VERTEX_POINT('',#1294);
#381=VERTEX_POINT('',#1297);
#382=VERTEX_POINT('',#1299);
#383=VERTEX_POINT('',#1302);
#384=VERTEX_POINT('',#1304);
#385=VERTEX_POINT('',#1306);
#386=VERTEX_POINT('',#1308);
#387=VERTEX_POINT('',#1310);
#388=VERTEX_POINT('',#1312);
#389=VERTEX_POINT('',#1314);
#390=VERTEX_POINT('',#1317);
#391=VERTEX_POINT('',#1319);
#392=VERTEX_POINT('',#1323);
#393=VERTEX_POINT('',#1327);
#394=VERTEX_POINT('',#1329);
#395=VERTEX_POINT('',#1333);
#396=VERTEX_POINT('',#1337);
#397=VERTEX_POINT('',#1339);
#398=VERTEX_POINT('',#1345);
#399=VERTEX_POINT('',#1349);
#400=VERTEX_POINT('',#1353);
#401=VERTEX_POINT('',#1355);
#402=VERTEX_POINT('',#1357);
#403=VERTEX_POINT('',#1359);
#404=VERTEX_POINT('',#1363);
#405=VERTEX_POINT('',#1365);
#406=VERTEX_POINT('',#1367);
#407=VERTEX_POINT('',#1369);
#408=VERTEX_POINT('',#1373);
#409=VERTEX_POINT('',#1374);
#410=VERTEX_POINT('',#1376);
#411=VERTEX_POINT('',#1381);
#412=VERTEX_POINT('',#1382);
#413=VERTEX_POINT('',#1384);
#414=VERTEX_POINT('',#1389);
#415=VERTEX_POINT('',#1390);
#416=VERTEX_POINT('',#1392);
#417=VERTEX_POINT('',#1397);
#418=VERTEX_POINT('',#1398);
#419=VERTEX_POINT('',#1400);
#420=VERTEX_POINT('',#1405);
#421=VERTEX_POINT('',#1406);
#422=VERTEX_POINT('',#1408);
#423=VERTEX_POINT('',#1413);
#424=VERTEX_POINT('',#1414);
#425=VERTEX_POINT('',#1416);
#426=VERTEX_POINT('',#1421);
#427=VERTEX_POINT('',#1422);
#428=VERTEX_POINT('',#1424);
#429=VERTEX_POINT('',#1429);
#430=VERTEX_POINT('',#1435);
#431=VERTEX_POINT('',#1441);
#432=VERTEX_POINT('',#1447);
#433=VERTEX_POINT('',#1453);
#434=VERTEX_POINT('',#1459);
#435=VERTEX_POINT('',#1465);
#436=EDGE_CURVE('',#359,#360,#203,.T.);
#437=EDGE_CURVE('',#361,#359,#204,.T.);
#438=EDGE_CURVE('',#361,#362,#205,.T.);
#439=EDGE_CURVE('',#360,#362,#206,.T.);
#440=EDGE_CURVE('',#363,#361,#207,.T.);
#441=EDGE_CURVE('',#362,#363,#208,.T.);
#442=EDGE_CURVE('',#364,#365,#209,.T.);
#443=EDGE_CURVE('',#364,#366,#210,.T.);
#444=EDGE_CURVE('',#366,#367,#211,.T.);
#445=EDGE_CURVE('',#367,#365,#212,.T.);
#446=EDGE_CURVE('',#367,#366,#54,.T.);
#447=EDGE_CURVE('',#368,#369,#213,.T.);
#448=EDGE_CURVE('',#370,#368,#214,.T.);
#449=EDGE_CURVE('',#370,#371,#215,.T.);
#450=EDGE_CURVE('',#369,#371,#216,.T.);
#451=EDGE_CURVE('',#372,#370,#217,.T.);
#452=EDGE_CURVE('',#371,#372,#218,.T.);
#453=EDGE_CURVE('',#373,#374,#219,.T.);
#454=EDGE_CURVE('',#373,#375,#220,.T.);
#455=EDGE_CURVE('',#375,#376,#221,.T.);
#456=EDGE_CURVE('',#376,#374,#222,.T.);
#457=EDGE_CURVE('',#376,#375,#55,.T.);
#458=EDGE_CURVE('',#360,#377,#223,.T.);
#459=EDGE_CURVE('',#378,#377,#56,.T.);
#460=EDGE_CURVE('',#378,#364,#224,.T.);
#461=EDGE_CURVE('',#373,#365,#225,.T.);
#462=EDGE_CURVE('',#374,#379,#226,.T.);
#463=EDGE_CURVE('',#380,#379,#57,.T.);
#464=EDGE_CURVE('',#380,#368,#227,.T.);
#465=EDGE_CURVE('',#381,#369,#228,.T.);
#466=EDGE_CURVE('',#381,#382,#229,.T.);
#467=EDGE_CURVE('',#359,#382,#230,.T.);
#468=EDGE_CURVE('',#383,#383,#58,.T.);
#469=EDGE_CURVE('',#384,#384,#59,.T.);
#470=EDGE_CURVE('',#385,#385,#60,.T.);
#471=EDGE_CURVE('',#386,#386,#61,.T.);
#472=EDGE_CURVE('',#387,#387,#62,.T.);
#473=EDGE_CURVE('',#388,#388,#63,.T.);
#474=EDGE_CURVE('',#389,#389,#64,.T.);
#475=EDGE_CURVE('',#377,#390,#231,.T.);
#476=EDGE_CURVE('',#390,#391,#65,.T.);
#477=EDGE_CURVE('',#391,#378,#232,.T.);
#478=EDGE_CURVE('',#392,#363,#233,.T.);
#479=EDGE_CURVE('',#390,#392,#234,.T.);
#480=EDGE_CURVE('',#379,#393,#235,.T.);
#481=EDGE_CURVE('',#393,#394,#66,.T.);
#482=EDGE_CURVE('',#394,#380,#236,.T.);
#483=EDGE_CURVE('',#395,#376,#237,.T.);
#484=EDGE_CURVE('',#393,#395,#238,.T.);
#485=EDGE_CURVE('',#366,#396,#239,.T.);
#486=EDGE_CURVE('',#396,#397,#67,.T.);
#487=EDGE_CURVE('',#397,#367,#240,.T.);
#488=EDGE_CURVE('',#396,#391,#241,.T.);
#489=EDGE_CURVE('',#375,#398,#242,.T.);
#490=EDGE_CURVE('',#398,#395,#68,.T.);
#491=EDGE_CURVE('',#399,#394,#243,.T.);
#492=EDGE_CURVE('',#372,#399,#244,.T.);
#493=EDGE_CURVE('',#399,#400,#245,.T.);
#494=EDGE_CURVE('',#400,#401,#246,.T.);
#495=EDGE_CURVE('',#401,#402,#247,.T.);
#496=EDGE_CURVE('',#402,#403,#248,.T.);
#497=EDGE_CURVE('',#403,#381,#249,.T.);
#498=EDGE_CURVE('',#382,#404,#250,.T.);
#499=EDGE_CURVE('',#404,#405,#251,.T.);
#500=EDGE_CURVE('',#405,#406,#252,.T.);
#501=EDGE_CURVE('',#406,#407,#253,.T.);
#502=EDGE_CURVE('',#407,#392,#254,.T.);
#503=EDGE_CURVE('',#408,#409,#69,.T.);
#504=EDGE_CURVE('',#409,#410,#255,.T.);
#505=EDGE_CURVE('',#410,#410,#70,.T.);
#506=EDGE_CURVE('',#409,#408,#71,.T.);
#507=EDGE_CURVE('',#411,#412,#72,.T.);
#508=EDGE_CURVE('',#412,#413,#256,.T.);
#509=EDGE_CURVE('',#413,#413,#73,.T.);
#510=EDGE_CURVE('',#412,#411,#74,.T.);
#511=EDGE_CURVE('',#414,#415,#75,.T.);
#512=EDGE_CURVE('',#415,#416,#257,.T.);
#513=EDGE_CURVE('',#416,#416,#76,.T.);
#514=EDGE_CURVE('',#415,#414,#77,.T.);
#515=EDGE_CURVE('',#417,#418,#78,.T.);
#516=EDGE_CURVE('',#418,#419,#258,.T.);
#517=EDGE_CURVE('',#419,#419,#79,.T.);
#518=EDGE_CURVE('',#418,#417,#80,.T.);
#519=EDGE_CURVE('',#420,#421,#81,.T.);
#520=EDGE_CURVE('',#421,#422,#259,.T.);
#521=EDGE_CURVE('',#422,#422,#82,.T.);
#522=EDGE_CURVE('',#421,#420,#83,.T.);
#523=EDGE_CURVE('',#423,#424,#84,.T.);
#524=EDGE_CURVE('',#424,#425,#260,.T.);
#525=EDGE_CURVE('',#425,#425,#85,.T.);
#526=EDGE_CURVE('',#424,#423,#86,.T.);
#527=EDGE_CURVE('',#426,#427,#87,.T.);
#528=EDGE_CURVE('',#427,#428,#261,.T.);
#529=EDGE_CURVE('',#428,#428,#88,.T.);
#530=EDGE_CURVE('',#427,#426,#89,.T.);
#531=EDGE_CURVE('',#420,#429,#262,.T.);
#532=EDGE_CURVE('',#429,#429,#90,.T.);
#533=EDGE_CURVE('',#429,#383,#263,.T.);
#534=EDGE_CURVE('',#417,#430,#264,.T.);
#535=EDGE_CURVE('',#430,#430,#91,.T.);
#536=EDGE_CURVE('',#430,#384,#265,.T.);
#537=EDGE_CURVE('',#414,#431,#266,.T.);
#538=EDGE_CURVE('',#431,#431,#92,.T.);
#539=EDGE_CURVE('',#431,#385,#267,.T.);
#540=EDGE_CURVE('',#408,#432,#268,.T.);
#541=EDGE_CURVE('',#432,#432,#93,.T.);
#542=EDGE_CURVE('',#432,#386,#269,.T.);
#543=EDGE_CURVE('',#411,#433,#270,.T.);
#544=EDGE_CURVE('',#433,#433,#94,.T.);
#545=EDGE_CURVE('',#433,#387,#271,.T.);
#546=EDGE_CURVE('',#423,#434,#272,.T.);
#547=EDGE_CURVE('',#434,#434,#95,.T.);
#548=EDGE_CURVE('',#434,#388,#273,.T.);
#549=EDGE_CURVE('',#426,#435,#274,.T.);
#550=EDGE_CURVE('',#435,#435,#96,.T.);
#551=EDGE_CURVE('',#435,#389,#275,.T.);
#552=EDGE_CURVE('',#402,#405,#276,.T.);
#553=EDGE_CURVE('',#403,#404,#277,.T.);
#554=EDGE_CURVE('',#407,#400,#278,.T.);
#555=EDGE_CURVE('',#406,#401,#279,.T.);
#556=EDGE_CURVE('',#398,#397,#280,.T.);
#557=ORIENTED_EDGE('',*,*,#436,.F.);
#558=ORIENTED_EDGE('',*,*,#437,.F.);
#559=ORIENTED_EDGE('',*,*,#438,.T.);
#560=ORIENTED_EDGE('',*,*,#439,.F.);
#561=ORIENTED_EDGE('',*,*,#440,.F.);
#562=ORIENTED_EDGE('',*,*,#441,.F.);
#563=ORIENTED_EDGE('',*,*,#438,.F.);
#564=ORIENTED_EDGE('',*,*,#442,.F.);
#565=ORIENTED_EDGE('',*,*,#443,.T.);
#566=ORIENTED_EDGE('',*,*,#444,.T.);
#567=ORIENTED_EDGE('',*,*,#445,.T.);
#568=ORIENTED_EDGE('',*,*,#446,.F.);
#569=ORIENTED_EDGE('',*,*,#444,.F.);
#570=ORIENTED_EDGE('',*,*,#447,.F.);
#571=ORIENTED_EDGE('',*,*,#448,.F.);
#572=ORIENTED_EDGE('',*,*,#449,.T.);
#573=ORIENTED_EDGE('',*,*,#450,.F.);
#574=ORIENTED_EDGE('',*,*,#451,.F.);
#575=ORIENTED_EDGE('',*,*,#452,.F.);
#576=ORIENTED_EDGE('',*,*,#449,.F.);
#577=ORIENTED_EDGE('',*,*,#453,.F.);
#578=ORIENTED_EDGE('',*,*,#454,.T.);
#579=ORIENTED_EDGE('',*,*,#455,.T.);
#580=ORIENTED_EDGE('',*,*,#456,.T.);
#581=ORIENTED_EDGE('',*,*,#457,.F.);
#582=ORIENTED_EDGE('',*,*,#455,.F.);
#583=ORIENTED_EDGE('',*,*,#436,.T.);
#584=ORIENTED_EDGE('',*,*,#458,.T.);
#585=ORIENTED_EDGE('',*,*,#459,.F.);
#586=ORIENTED_EDGE('',*,*,#460,.T.);
#587=ORIENTED_EDGE('',*,*,#442,.T.);
#588=ORIENTED_EDGE('',*,*,#461,.F.);
#589=ORIENTED_EDGE('',*,*,#453,.T.);
#590=ORIENTED_EDGE('',*,*,#462,.T.);
#591=ORIENTED_EDGE('',*,*,#463,.F.);
#592=ORIENTED_EDGE('',*,*,#464,.T.);
#593=ORIENTED_EDGE('',*,*,#447,.T.);
#594=ORIENTED_EDGE('',*,*,#465,.F.);
#595=ORIENTED_EDGE('',*,*,#466,.T.);
#596=ORIENTED_EDGE('',*,*,#467,.F.);
#597=ORIENTED_EDGE('',*,*,#468,.T.);
#598=ORIENTED_EDGE('',*,*,#469,.T.);
#599=ORIENTED_EDGE('',*,*,#470,.T.);
#600=ORIENTED_EDGE('',*,*,#471,.T.);
#601=ORIENTED_EDGE('',*,*,#472,.T.);
#602=ORIENTED_EDGE('',*,*,#473,.T.);
#603=ORIENTED_EDGE('',*,*,#474,.T.);
#604=ORIENTED_EDGE('',*,*,#459,.T.);
#605=ORIENTED_EDGE('',*,*,#475,.T.);
#606=ORIENTED_EDGE('',*,*,#476,.T.);
#607=ORIENTED_EDGE('',*,*,#477,.T.);
#608=ORIENTED_EDGE('',*,*,#441,.T.);
#609=ORIENTED_EDGE('',*,*,#478,.F.);
#610=ORIENTED_EDGE('',*,*,#479,.F.);
#611=ORIENTED_EDGE('',*,*,#475,.F.);
#612=ORIENTED_EDGE('',*,*,#458,.F.);
#613=ORIENTED_EDGE('',*,*,#439,.T.);
#614=ORIENTED_EDGE('',*,*,#463,.T.);
#615=ORIENTED_EDGE('',*,*,#480,.T.);
#616=ORIENTED_EDGE('',*,*,#481,.T.);
#617=ORIENTED_EDGE('',*,*,#482,.T.);
#618=ORIENTED_EDGE('',*,*,#480,.F.);
#619=ORIENTED_EDGE('',*,*,#462,.F.);
#620=ORIENTED_EDGE('',*,*,#456,.F.);
#621=ORIENTED_EDGE('',*,*,#483,.F.);
#622=ORIENTED_EDGE('',*,*,#484,.F.);
#623=ORIENTED_EDGE('',*,*,#446,.T.);
#624=ORIENTED_EDGE('',*,*,#485,.T.);
#625=ORIENTED_EDGE('',*,*,#486,.T.);
#626=ORIENTED_EDGE('',*,*,#487,.T.);
#627=ORIENTED_EDGE('',*,*,#477,.F.);
#628=ORIENTED_EDGE('',*,*,#488,.F.);
#629=ORIENTED_EDGE('',*,*,#485,.F.);
#630=ORIENTED_EDGE('',*,*,#443,.F.);
#631=ORIENTED_EDGE('',*,*,#460,.F.);
#632=ORIENTED_EDGE('',*,*,#457,.T.);
#633=ORIENTED_EDGE('',*,*,#489,.T.);
#634=ORIENTED_EDGE('',*,*,#490,.T.);
#635=ORIENTED_EDGE('',*,*,#483,.T.);
#636=ORIENTED_EDGE('',*,*,#448,.T.);
#637=ORIENTED_EDGE('',*,*,#464,.F.);
#638=ORIENTED_EDGE('',*,*,#482,.F.);
#639=ORIENTED_EDGE('',*,*,#491,.F.);
#640=ORIENTED_EDGE('',*,*,#492,.F.);
#641=ORIENTED_EDGE('',*,*,#451,.T.);
#642=ORIENTED_EDGE('',*,*,#452,.T.);
#643=ORIENTED_EDGE('',*,*,#492,.T.);
#644=ORIENTED_EDGE('',*,*,#493,.T.);
#645=ORIENTED_EDGE('',*,*,#494,.T.);
#646=ORIENTED_EDGE('',*,*,#495,.T.);
#647=ORIENTED_EDGE('',*,*,#496,.T.);
#648=ORIENTED_EDGE('',*,*,#497,.T.);
#649=ORIENTED_EDGE('',*,*,#465,.T.);
#650=ORIENTED_EDGE('',*,*,#450,.T.);
#651=ORIENTED_EDGE('',*,*,#437,.T.);
#652=ORIENTED_EDGE('',*,*,#467,.T.);
#653=ORIENTED_EDGE('',*,*,#498,.T.);
#654=ORIENTED_EDGE('',*,*,#499,.T.);
#655=ORIENTED_EDGE('',*,*,#500,.T.);
#656=ORIENTED_EDGE('',*,*,#501,.T.);
#657=ORIENTED_EDGE('',*,*,#502,.T.);
#658=ORIENTED_EDGE('',*,*,#478,.T.);
#659=ORIENTED_EDGE('',*,*,#440,.T.);
#660=ORIENTED_EDGE('',*,*,#503,.T.);
#661=ORIENTED_EDGE('',*,*,#504,.T.);
#662=ORIENTED_EDGE('',*,*,#505,.F.);
#663=ORIENTED_EDGE('',*,*,#504,.F.);
#664=ORIENTED_EDGE('',*,*,#506,.T.);
#665=ORIENTED_EDGE('',*,*,#507,.T.);
#666=ORIENTED_EDGE('',*,*,#508,.T.);
#667=ORIENTED_EDGE('',*,*,#509,.F.);
#668=ORIENTED_EDGE('',*,*,#508,.F.);
#669=ORIENTED_EDGE('',*,*,#510,.T.);
#670=ORIENTED_EDGE('',*,*,#511,.T.);
#671=ORIENTED_EDGE('',*,*,#512,.T.);
#672=ORIENTED_EDGE('',*,*,#513,.F.);
#673=ORIENTED_EDGE('',*,*,#512,.F.);
#674=ORIENTED_EDGE('',*,*,#514,.T.);
#675=ORIENTED_EDGE('',*,*,#515,.T.);
#676=ORIENTED_EDGE('',*,*,#516,.T.);
#677=ORIENTED_EDGE('',*,*,#517,.F.);
#678=ORIENTED_EDGE('',*,*,#516,.F.);
#679=ORIENTED_EDGE('',*,*,#518,.T.);
#680=ORIENTED_EDGE('',*,*,#519,.T.);
#681=ORIENTED_EDGE('',*,*,#520,.T.);
#682=ORIENTED_EDGE('',*,*,#521,.F.);
#683=ORIENTED_EDGE('',*,*,#520,.F.);
#684=ORIENTED_EDGE('',*,*,#522,.T.);
#685=ORIENTED_EDGE('',*,*,#523,.T.);
#686=ORIENTED_EDGE('',*,*,#524,.T.);
#687=ORIENTED_EDGE('',*,*,#525,.F.);
#688=ORIENTED_EDGE('',*,*,#524,.F.);
#689=ORIENTED_EDGE('',*,*,#526,.T.);
#690=ORIENTED_EDGE('',*,*,#527,.T.);
#691=ORIENTED_EDGE('',*,*,#528,.T.);
#692=ORIENTED_EDGE('',*,*,#529,.F.);
#693=ORIENTED_EDGE('',*,*,#528,.F.);
#694=ORIENTED_EDGE('',*,*,#530,.T.);
#695=ORIENTED_EDGE('',*,*,#519,.F.);
#696=ORIENTED_EDGE('',*,*,#531,.T.);
#697=ORIENTED_EDGE('',*,*,#532,.F.);
#698=ORIENTED_EDGE('',*,*,#531,.F.);
#699=ORIENTED_EDGE('',*,*,#522,.F.);
#700=ORIENTED_EDGE('',*,*,#532,.T.);
#701=ORIENTED_EDGE('',*,*,#533,.T.);
#702=ORIENTED_EDGE('',*,*,#468,.F.);
#703=ORIENTED_EDGE('',*,*,#533,.F.);
#704=ORIENTED_EDGE('',*,*,#515,.F.);
#705=ORIENTED_EDGE('',*,*,#534,.T.);
#706=ORIENTED_EDGE('',*,*,#535,.F.);
#707=ORIENTED_EDGE('',*,*,#534,.F.);
#708=ORIENTED_EDGE('',*,*,#518,.F.);
#709=ORIENTED_EDGE('',*,*,#535,.T.);
#710=ORIENTED_EDGE('',*,*,#536,.T.);
#711=ORIENTED_EDGE('',*,*,#469,.F.);
#712=ORIENTED_EDGE('',*,*,#536,.F.);
#713=ORIENTED_EDGE('',*,*,#511,.F.);
#714=ORIENTED_EDGE('',*,*,#537,.T.);
#715=ORIENTED_EDGE('',*,*,#538,.F.);
#716=ORIENTED_EDGE('',*,*,#537,.F.);
#717=ORIENTED_EDGE('',*,*,#514,.F.);
#718=ORIENTED_EDGE('',*,*,#538,.T.);
#719=ORIENTED_EDGE('',*,*,#539,.T.);
#720=ORIENTED_EDGE('',*,*,#470,.F.);
#721=ORIENTED_EDGE('',*,*,#539,.F.);
#722=ORIENTED_EDGE('',*,*,#503,.F.);
#723=ORIENTED_EDGE('',*,*,#540,.T.);
#724=ORIENTED_EDGE('',*,*,#541,.F.);
#725=ORIENTED_EDGE('',*,*,#540,.F.);
#726=ORIENTED_EDGE('',*,*,#506,.F.);
#727=ORIENTED_EDGE('',*,*,#541,.T.);
#728=ORIENTED_EDGE('',*,*,#542,.T.);
#729=ORIENTED_EDGE('',*,*,#471,.F.);
#730=ORIENTED_EDGE('',*,*,#542,.F.);
#731=ORIENTED_EDGE('',*,*,#507,.F.);
#732=ORIENTED_EDGE('',*,*,#543,.T.);
#733=ORIENTED_EDGE('',*,*,#544,.F.);
#734=ORIENTED_EDGE('',*,*,#543,.F.);
#735=ORIENTED_EDGE('',*,*,#510,.F.);
#736=ORIENTED_EDGE('',*,*,#544,.T.);
#737=ORIENTED_EDGE('',*,*,#545,.T.);
#738=ORIENTED_EDGE('',*,*,#472,.F.);
#739=ORIENTED_EDGE('',*,*,#545,.F.);
#740=ORIENTED_EDGE('',*,*,#523,.F.);
#741=ORIENTED_EDGE('',*,*,#546,.T.);
#742=ORIENTED_EDGE('',*,*,#547,.F.);
#743=ORIENTED_EDGE('',*,*,#546,.F.);
#744=ORIENTED_EDGE('',*,*,#526,.F.);
#745=ORIENTED_EDGE('',*,*,#547,.T.);
#746=ORIENTED_EDGE('',*,*,#548,.T.);
#747=ORIENTED_EDGE('',*,*,#473,.F.);
#748=ORIENTED_EDGE('',*,*,#548,.F.);
#749=ORIENTED_EDGE('',*,*,#527,.F.);
#750=ORIENTED_EDGE('',*,*,#549,.T.);
#751=ORIENTED_EDGE('',*,*,#550,.F.);
#752=ORIENTED_EDGE('',*,*,#549,.F.);
#753=ORIENTED_EDGE('',*,*,#530,.F.);
#754=ORIENTED_EDGE('',*,*,#550,.T.);
#755=ORIENTED_EDGE('',*,*,#551,.T.);
#756=ORIENTED_EDGE('',*,*,#474,.F.);
#757=ORIENTED_EDGE('',*,*,#551,.F.);
#758=ORIENTED_EDGE('',*,*,#552,.T.);
#759=ORIENTED_EDGE('',*,*,#499,.F.);
#760=ORIENTED_EDGE('',*,*,#553,.F.);
#761=ORIENTED_EDGE('',*,*,#496,.F.);
#762=ORIENTED_EDGE('',*,*,#553,.T.);
#763=ORIENTED_EDGE('',*,*,#498,.F.);
#764=ORIENTED_EDGE('',*,*,#466,.F.);
#765=ORIENTED_EDGE('',*,*,#497,.F.);
#766=ORIENTED_EDGE('',*,*,#554,.F.);
#767=ORIENTED_EDGE('',*,*,#501,.F.);
#768=ORIENTED_EDGE('',*,*,#555,.T.);
#769=ORIENTED_EDGE('',*,*,#494,.F.);
#770=ORIENTED_EDGE('',*,*,#486,.F.);
#771=ORIENTED_EDGE('',*,*,#488,.T.);
#772=ORIENTED_EDGE('',*,*,#476,.F.);
#773=ORIENTED_EDGE('',*,*,#479,.T.);
#774=ORIENTED_EDGE('',*,*,#502,.F.);
#775=ORIENTED_EDGE('',*,*,#554,.T.);
#776=ORIENTED_EDGE('',*,*,#493,.F.);
#777=ORIENTED_EDGE('',*,*,#491,.T.);
#778=ORIENTED_EDGE('',*,*,#481,.F.);
#779=ORIENTED_EDGE('',*,*,#484,.T.);
#780=ORIENTED_EDGE('',*,*,#490,.F.);
#781=ORIENTED_EDGE('',*,*,#556,.T.);
#782=ORIENTED_EDGE('',*,*,#505,.T.);
#783=ORIENTED_EDGE('',*,*,#509,.T.);
#784=ORIENTED_EDGE('',*,*,#513,.T.);
#785=ORIENTED_EDGE('',*,*,#517,.T.);
#786=ORIENTED_EDGE('',*,*,#521,.T.);
#787=ORIENTED_EDGE('',*,*,#525,.T.);
#788=ORIENTED_EDGE('',*,*,#529,.T.);
#789=ORIENTED_EDGE('',*,*,#555,.F.);
#790=ORIENTED_EDGE('',*,*,#500,.F.);
#791=ORIENTED_EDGE('',*,*,#552,.F.);
#792=ORIENTED_EDGE('',*,*,#495,.F.);
#793=ORIENTED_EDGE('',*,*,#487,.F.);
#794=ORIENTED_EDGE('',*,*,#556,.F.);
#795=ORIENTED_EDGE('',*,*,#489,.F.);
#796=ORIENTED_EDGE('',*,*,#454,.F.);
#797=ORIENTED_EDGE('',*,*,#461,.T.);
#798=ORIENTED_EDGE('',*,*,#445,.F.);
#799=PLANE('',#889);
#800=PLANE('',#890);
#801=PLANE('',#891);
#802=PLANE('',#892);
#803=PLANE('',#894);
#804=PLANE('',#895);
#805=PLANE('',#896);
#806=PLANE('',#897);
#807=PLANE('',#899);
#808=PLANE('',#911);
#809=PLANE('',#914);
#810=PLANE('',#917);
#811=PLANE('',#920);
#812=PLANE('',#921);
#813=PLANE('',#922);
#814=PLANE('',#972);
#815=PLANE('',#973);
#816=PLANE('',#974);
#817=PLANE('',#975);
#818=PLANE('',#976);
#819=PLANE('',#977);
#820=ADVANCED_FACE('',(#97),#799,.F.);
#821=ADVANCED_FACE('',(#98),#800,.F.);
#822=ADVANCED_FACE('',(#99),#801,.F.);
#823=ADVANCED_FACE('',(#100),#802,.T.);
#824=ADVANCED_FACE('',(#101),#803,.F.);
#825=ADVANCED_FACE('',(#102),#804,.F.);
#826=ADVANCED_FACE('',(#103),#805,.F.);
#827=ADVANCED_FACE('',(#104),#806,.T.);
#828=ADVANCED_FACE('',(#105,#40,#41,#42,#43,#44,#45,#46),#807,.T.);
#829=ADVANCED_FACE('',(#106),#22,.F.);
#830=ADVANCED_FACE('',(#107),#808,.F.);
#831=ADVANCED_FACE('',(#108),#23,.F.);
#832=ADVANCED_FACE('',(#109),#809,.F.);
#833=ADVANCED_FACE('',(#110),#24,.T.);
#834=ADVANCED_FACE('',(#111),#810,.F.);
#835=ADVANCED_FACE('',(#112),#25,.T.);
#836=ADVANCED_FACE('',(#113),#811,.F.);
#837=ADVANCED_FACE('',(#114),#812,.T.);
#838=ADVANCED_FACE('',(#115),#813,.T.);
#839=ADVANCED_FACE('',(#116),#26,.F.);
#840=ADVANCED_FACE('',(#117),#27,.F.);
#841=ADVANCED_FACE('',(#118),#28,.F.);
#842=ADVANCED_FACE('',(#119),#29,.F.);
#843=ADVANCED_FACE('',(#120),#30,.F.);
#844=ADVANCED_FACE('',(#121),#31,.F.);
#845=ADVANCED_FACE('',(#122),#32,.F.);
#846=ADVANCED_FACE('',(#123),#15,.F.);
#847=ADVANCED_FACE('',(#124),#33,.F.);
#848=ADVANCED_FACE('',(#125),#16,.F.);
#849=ADVANCED_FACE('',(#126),#34,.F.);
#850=ADVANCED_FACE('',(#127),#17,.F.);
#851=ADVANCED_FACE('',(#128),#35,.F.);
#852=ADVANCED_FACE('',(#129),#18,.F.);
#853=ADVANCED_FACE('',(#130),#36,.F.);
#854=ADVANCED_FACE('',(#131),#19,.F.);
#855=ADVANCED_FACE('',(#132),#37,.F.);
#856=ADVANCED_FACE('',(#133),#20,.F.);
#857=ADVANCED_FACE('',(#134),#38,.F.);
#858=ADVANCED_FACE('',(#135),#21,.F.);
#859=ADVANCED_FACE('',(#136),#39,.F.);
#860=ADVANCED_FACE('',(#137),#814,.T.);
#861=ADVANCED_FACE('',(#138),#815,.T.);
#862=ADVANCED_FACE('',(#139),#816,.T.);
#863=ADVANCED_FACE('',(#140,#47,#48,#49,#50,#51,#52,#53),#817,.T.);
#864=ADVANCED_FACE('',(#141),#818,.T.);
#865=ADVANCED_FACE('',(#142),#819,.T.);
#866=CLOSED_SHELL('',(#820,#821,#822,#823,#824,#825,#826,#827,#828,#829,
#830,#831,#832,#833,#834,#835,#836,#837,#838,#839,#840,#841,#842,#843,#844,
#845,#846,#847,#848,#849,#850,#851,#852,#853,#854,#855,#856,#857,#858,#859,
#860,#861,#862,#863,#864,#865));
#867=DERIVED_UNIT_ELEMENT(#870,1.);
#868=DERIVED_UNIT_ELEMENT(#1486,-3.);
#869=DIMENSIONAL_EXPONENTS(0.,1.,0.,0.,0.,0.,0.);
#870=(
CONVERSION_BASED_UNIT('gram',#872)
MASS_UNIT()
NAMED_UNIT(#869)
);
#871=(
MASS_UNIT()
NAMED_UNIT(*)
SI_UNIT(.KILO.,.GRAM.)
);
#872=MASS_MEASURE_WITH_UNIT(MASS_MEASURE(0.001),#871);
#873=DERIVED_UNIT((#867,#868));
#874=MEASURE_REPRESENTATION_ITEM('density measure',
POSITIVE_RATIO_MEASURE(7.85),#873);
#875=PROPERTY_DEFINITION_REPRESENTATION(#880,#877);
#876=PROPERTY_DEFINITION_REPRESENTATION(#881,#878);
#877=REPRESENTATION('material name',(#879),#1483);
#878=REPRESENTATION('density',(#874),#1483);
#879=DESCRIPTIVE_REPRESENTATION_ITEM('Steel, Carbon','Steel, Carbon');
#880=PROPERTY_DEFINITION('material property','material name',#1493);
#881=PROPERTY_DEFINITION('material property','density of part',#1493);
#882=DATE_TIME_ROLE('creation_date');
#883=APPLIED_DATE_AND_TIME_ASSIGNMENT(#884,#882,(#1493));
#884=DATE_AND_TIME(#885,#886);
#885=CALENDAR_DATE(2022,27,1);
#886=LOCAL_TIME(0,0,0.,#887);
#887=COORDINATED_UNIVERSAL_TIME_OFFSET(0,0,.BEHIND.);
#888=AXIS2_PLACEMENT_3D('',#1236,#978,#979);
#889=AXIS2_PLACEMENT_3D('',#1237,#980,#981);
#890=AXIS2_PLACEMENT_3D('',#1246,#986,#987);
#891=AXIS2_PLACEMENT_3D('',#1250,#990,#991);
#892=AXIS2_PLACEMENT_3D('',#1259,#996,#997);
#893=AXIS2_PLACEMENT_3D('',#1260,#998,#999);
#894=AXIS2_PLACEMENT_3D('',#1261,#1000,#1001);
#895=AXIS2_PLACEMENT_3D('',#1270,#1006,#1007);
#896=AXIS2_PLACEMENT_3D('',#1274,#1010,#1011);
#897=AXIS2_PLACEMENT_3D('',#1283,#1016,#1017);
#898=AXIS2_PLACEMENT_3D('',#1284,#1018,#1019);
#899=AXIS2_PLACEMENT_3D('',#1285,#1020,#1021);
#900=AXIS2_PLACEMENT_3D('',#1289,#1023,#1024);
#901=AXIS2_PLACEMENT_3D('',#1295,#1028,#1029);
#902=AXIS2_PLACEMENT_3D('',#1303,#1034,#1035);
#903=AXIS2_PLACEMENT_3D('',#1305,#1036,#1037);
#904=AXIS2_PLACEMENT_3D('',#1307,#1038,#1039);
#905=AXIS2_PLACEMENT_3D('',#1309,#1040,#1041);
#906=AXIS2_PLACEMENT_3D('',#1311,#1042,#1043);
#907=AXIS2_PLACEMENT_3D('',#1313,#1044,#1045);
#908=AXIS2_PLACEMENT_3D('',#1315,#1046,#1047);
#909=AXIS2_PLACEMENT_3D('',#1316,#1048,#1049);
#910=AXIS2_PLACEMENT_3D('',#1320,#1051,#1052);
#911=AXIS2_PLACEMENT_3D('',#1322,#1054,#1055);
#912=AXIS2_PLACEMENT_3D('',#1326,#1058,#1059);
#913=AXIS2_PLACEMENT_3D('',#1330,#1061,#1062);
#914=AXIS2_PLACEMENT_3D('',#1332,#1064,#1065);
#915=AXIS2_PLACEMENT_3D('',#1336,#1068,#1069);
#916=AXIS2_PLACEMENT_3D('',#1340,#1071,#1072);
#917=AXIS2_PLACEMENT_3D('',#1342,#1074,#1075);
#918=AXIS2_PLACEMENT_3D('',#1344,#1077,#1078);
#919=AXIS2_PLACEMENT_3D('',#1347,#1080,#1081);
#920=AXIS2_PLACEMENT_3D('',#1348,#1082,#1083);
#921=AXIS2_PLACEMENT_3D('',#1352,#1086,#1087);
#922=AXIS2_PLACEMENT_3D('',#1362,#1093,#1094);
#923=AXIS2_PLACEMENT_3D('',#1372,#1100,#1101);
#924=AXIS2_PLACEMENT_3D('',#1375,#1102,#1103);
#925=AXIS2_PLACEMENT_3D('',#1378,#1105,#1106);
#926=AXIS2_PLACEMENT_3D('',#1379,#1107,#1108);
#927=AXIS2_PLACEMENT_3D('',#1380,#1109,#1110);
#928=AXIS2_PLACEMENT_3D('',#1383,#1111,#1112);
#929=AXIS2_PLACEMENT_3D('',#1386,#1114,#1115);
#930=AXIS2_PLACEMENT_3D('',#1387,#1116,#1117);
#931=AXIS2_PLACEMENT_3D('',#1388,#1118,#1119);
#932=AXIS2_PLACEMENT_3D('',#1391,#1120,#1121);
#933=AXIS2_PLACEMENT_3D('',#1394,#1123,#1124);
#934=AXIS2_PLACEMENT_3D('',#1395,#1125,#1126);
#935=AXIS2_PLACEMENT_3D('',#1396,#1127,#1128);
#936=AXIS2_PLACEMENT_3D('',#1399,#1129,#1130);
#937=AXIS2_PLACEMENT_3D('',#1402,#1132,#1133);
#938=AXIS2_PLACEMENT_3D('',#1403,#1134,#1135);
#939=AXIS2_PLACEMENT_3D('',#1404,#1136,#1137);
#940=AXIS2_PLACEMENT_3D('',#1407,#1138,#1139);
#941=AXIS2_PLACEMENT_3D('',#1410,#1141,#1142);
#942=AXIS2_PLACEMENT_3D('',#1411,#1143,#1144);
#943=AXIS2_PLACEMENT_3D('',#1412,#1145,#1146);
#944=AXIS2_PLACEMENT_3D('',#1415,#1147,#1148);
#945=AXIS2_PLACEMENT_3D('',#1418,#1150,#1151);
#946=AXIS2_PLACEMENT_3D('',#1419,#1152,#1153);
#947=AXIS2_PLACEMENT_3D('',#1420,#1154,#1155);
#948=AXIS2_PLACEMENT_3D('',#1423,#1156,#1157);
#949=AXIS2_PLACEMENT_3D('',#1426,#1159,#1160);
#950=AXIS2_PLACEMENT_3D('',#1427,#1161,#1162);
#951=AXIS2_PLACEMENT_3D('',#1428,#1163,#1164);
#952=AXIS2_PLACEMENT_3D('',#1431,#1166,#1167);
#953=AXIS2_PLACEMENT_3D('',#1432,#1168,#1169);
#954=AXIS2_PLACEMENT_3D('',#1434,#1171,#1172);
#955=AXIS2_PLACEMENT_3D('',#1437,#1174,#1175);
#956=AXIS2_PLACEMENT_3D('',#1438,#1176,#1177);
#957=AXIS2_PLACEMENT_3D('',#1440,#1179,#1180);
#958=AXIS2_PLACEMENT_3D('',#1443,#1182,#1183);
#959=AXIS2_PLACEMENT_3D('',#1444,#1184,#1185);
#960=AXIS2_PLACEMENT_3D('',#1446,#1187,#1188);
#961=AXIS2_PLACEMENT_3D('',#1449,#1190,#1191);
#962=AXIS2_PLACEMENT_3D('',#1450,#1192,#1193);
#963=AXIS2_PLACEMENT_3D('',#1452,#1195,#1196);
#964=AXIS2_PLACEMENT_3D('',#1455,#1198,#1199);
#965=AXIS2_PLACEMENT_3D('',#1456,#1200,#1201);
#966=AXIS2_PLACEMENT_3D('',#1458,#1203,#1204);
#967=AXIS2_PLACEMENT_3D('',#1461,#1206,#1207);
#968=AXIS2_PLACEMENT_3D('',#1462,#1208,#1209);
#969=AXIS2_PLACEMENT_3D('',#1464,#1211,#1212);
#970=AXIS2_PLACEMENT_3D('',#1467,#1214,#1215);
#971=AXIS2_PLACEMENT_3D('',#1468,#1216,#1217);
#972=AXIS2_PLACEMENT_3D('',#1470,#1219,#1220);
#973=AXIS2_PLACEMENT_3D('',#1473,#1223,#1224);
#974=AXIS2_PLACEMENT_3D('',#1474,#1225,#1226);
#975=AXIS2_PLACEMENT_3D('',#1477,#1229,#1230);
#976=AXIS2_PLACEMENT_3D('',#1479,#1232,#1233);
#977=AXIS2_PLACEMENT_3D('',#1480,#1234,#1235);
#978=DIRECTION('axis',(0.,0.,1.));
#979=DIRECTION('refdir',(1.,0.,0.));
#980=DIRECTION('center_axis',(-0.707106781186549,0.,0.707106781186546));
#981=DIRECTION('ref_axis',(-0.707106781186546,8.08135824322533E-17,-0.707106781186549));
#982=DIRECTION('',(-0.707106781186546,8.08135824322533E-17,-0.707106781186549));
#983=DIRECTION('',(0.,1.,0.));
#984=DIRECTION('',(-0.707106781186546,8.08135824322533E-17,-0.707106781186549));
#985=DIRECTION('',(0.,-1.,0.));
#986=DIRECTION('center_axis',(0.,-1.,0.));
#987=DIRECTION('ref_axis',(0.,0.,-1.));
#988=DIRECTION('',(0.,0.,1.));
#989=DIRECTION('',(1.,0.,0.));
#990=DIRECTION('center_axis',(-0.707106781186549,0.,0.707106781186546));
#991=DIRECTION('ref_axis',(-0.707106781186546,8.08135824322533E-17,-0.707106781186549));
#992=DIRECTION('',(-0.707106781186546,8.08135824322533E-17,-0.707106781186549));
#993=DIRECTION('',(0.,-1.,0.));
#994=DIRECTION('',(-0.707106781186546,8.08135824322533E-17,-0.707106781186549));
#995=DIRECTION('',(0.,1.,0.));
#996=DIRECTION('center_axis',(0.,1.,1.14287664299648E-16));
#997=DIRECTION('ref_axis',(0.,-1.14287664299648E-16,1.));
#998=DIRECTION('center_axis',(0.,-1.,-1.14287664299648E-16));
#999=DIRECTION('ref_axis',(0.707106781186546,0.,-0.707106781186549));
#1000=DIRECTION('center_axis',(0.707106781186548,0.,0.707106781186548));
#1001=DIRECTION('ref_axis',(-0.707106781186548,-8.08135824322531E-17,0.707106781186548));
#1002=DIRECTION('',(-0.707106781186548,-8.08135824322531E-17,0.707106781186548));
#1003=DIRECTION('',(-3.44255201434157E-16,1.,3.44255201434157E-16));
#1004=DIRECTION('',(-0.707106781186548,-8.08135824322531E-17,0.707106781186548));
#1005=DIRECTION('',(0.,-1.,0.));
#1006=DIRECTION('center_axis',(0.,-1.,0.));
#1007=DIRECTION('ref_axis',(0.,0.,-1.));
#1008=DIRECTION('',(1.,0.,0.));
#1009=DIRECTION('',(0.,0.,-1.));
#1010=DIRECTION('center_axis',(0.707106781186548,0.,0.707106781186548));
#1011=DIRECTION('ref_axis',(-0.707106781186548,-8.08135824322531E-17,0.707106781186548));
#1012=DIRECTION('',(-0.707106781186548,-8.08135824322531E-17,0.707106781186548));
#1013=DIRECTION('',(0.,-1.,0.));
#1014=DIRECTION('',(-0.707106781186548,-8.08135824322531E-17,0.707106781186548));
#1015=DIRECTION('',(0.,1.,0.));
#1016=DIRECTION('center_axis',(0.,1.,1.14287664299648E-16));
#1017=DIRECTION('ref_axis',(0.,-1.14287664299648E-16,1.));
#1018=DIRECTION('center_axis',(0.,-1.,-1.14287664299648E-16));
#1019=DIRECTION('ref_axis',(-0.707106781186546,0.,-0.707106781186549));
#1020=DIRECTION('center_axis',(0.,1.,1.14287664299648E-16));
#1021=DIRECTION('ref_axis',(0.,-1.14287664299648E-16,1.));
#1022=DIRECTION('',(-1.,0.,0.));
#1023=DIRECTION('center_axis',(0.,1.,1.14287664299648E-16));
#1024=DIRECTION('ref_axis',(-0.707106781186546,0.,0.707106781186549));
#1025=DIRECTION('',(5.18432418690243E-16,1.14287664299648E-16,-1.));
#1026=DIRECTION('',(1.,0.,0.));
#1027=DIRECTION('',(0.,-1.14287664299648E-16,1.));
#1028=DIRECTION('center_axis',(0.,1.,1.14287664299648E-16));
#1029=DIRECTION('ref_axis',(0.707106781186546,-2.43425187392833E-16,0.707106781186549));
#1030=DIRECTION('',(-1.,0.,0.));
#1031=DIRECTION('',(0.,1.14287664299648E-16,-1.));
#1032=DIRECTION('',(1.,0.,0.));
#1033=DIRECTION('',(0.,-1.14287664299648E-16,1.));
#1034=DIRECTION('center_axis',(0.,-1.,-1.14287664299648E-16));
#1035=DIRECTION('ref_axis',(1.,0.,0.));
#1036=DIRECTION('center_axis',(0.,-1.,-1.14287664299648E-16));
#1037=DIRECTION('ref_axis',(1.,0.,0.));
#1038=DIRECTION('center_axis',(0.,-1.,-1.14287664299648E-16));
#1039=DIRECTION('ref_axis',(1.,0.,0.));
#1040=DIRECTION('center_axis',(0.,-1.,-1.14287664299648E-16));
#1041=DIRECTION('ref_axis',(1.,0.,0.));
#1042=DIRECTION('center_axis',(0.,-1.,-1.14287664299648E-16));
#1043=DIRECTION('ref_axis',(1.,0.,0.));
#1044=DIRECTION('center_axis',(0.,-1.,-1.14287664299648E-16));
#1045=DIRECTION('ref_axis',(1.,0.,0.));
#1046=DIRECTION('center_axis',(0.,-1.,-1.14287664299648E-16));
#1047=DIRECTION('ref_axis',(1.,0.,0.));
#1048=DIRECTION('center_axis',(0.,-1.,0.));
#1049=DIRECTION('ref_axis',(-0.707106781186546,0.,0.707106781186549));
#1050=DIRECTION('',(0.,-1.,0.));
#1051=DIRECTION('center_axis',(0.,-1.,-3.65204942310907E-16));
#1052=DIRECTION('ref_axis',(-0.707106781186546,0.,0.707106781186549));
#1053=DIRECTION('',(0.,1.,0.));
#1054=DIRECTION('center_axis',(0.,0.,1.));
#1055=DIRECTION('ref_axis',(-1.,0.,0.));
#1056=DIRECTION('',(0.,1.,0.));
#1057=DIRECTION('',(1.,0.,0.));
#1058=DIRECTION('center_axis',(0.,-1.,-3.44255201434157E-16));
#1059=DIRECTION('ref_axis',(0.707106781186546,-2.43425187392833E-16,0.707106781186549));
#1060=DIRECTION('',(0.,-1.,-3.44255201434157E-16));
#1061=DIRECTION('center_axis',(0.,-1.,-3.65204942310907E-16));
#1062=DIRECTION('ref_axis',(0.707106781186546,-2.43425187392833E-16,0.707106781186549));
#1063=DIRECTION('',(0.,1.,3.44255201434157E-16));
#1064=DIRECTION('center_axis',(1.,0.,0.));
#1065=DIRECTION('ref_axis',(0.,-2.44929359829471E-16,1.));
#1066=DIRECTION('',(0.,1.,0.));
#1067=DIRECTION('',(0.,3.65204942310907E-16,-1.));
#1068=DIRECTION('center_axis',(0.,-1.,0.));
#1069=DIRECTION('ref_axis',(0.707106781186546,0.,-0.707106781186549));
#1070=DIRECTION('',(0.,-1.,0.));
#1071=DIRECTION('center_axis',(0.,1.,3.65204942310907E-16));
#1072=DIRECTION('ref_axis',(0.707106781186546,0.,-0.707106781186549));
#1073=DIRECTION('',(0.,1.,0.));
#1074=DIRECTION('center_axis',(-1.,0.,-5.18432418690243E-16));
#1075=DIRECTION('ref_axis',(5.18432418690243E-16,2.44929359829471E-16,-1.));
#1076=DIRECTION('',(-5.18432418690243E-16,-3.65204942310907E-16,1.));
#1077=DIRECTION('center_axis',(0.,1.,0.));
#1078=DIRECTION('ref_axis',(-0.707106781186546,0.,-0.707106781186549));
#1079=DIRECTION('',(0.,-1.,0.));
#1080=DIRECTION('center_axis',(0.,1.,3.65204942310907E-16));
#1081=DIRECTION('ref_axis',(-0.707106781186546,0.,-0.707106781186549));
#1082=DIRECTION('center_axis',(0.,-3.44255201434157E-16,1.));
#1083=DIRECTION('ref_axis',(-1.,0.,0.));
#1084=DIRECTION('',(1.,0.,0.));
#1085=DIRECTION('',(0.,-1.,-3.44255201434157E-16));
#1086=DIRECTION('center_axis',(-1.,0.,0.));
#1087=DIRECTION('ref_axis',(0.,0.,1.));
#1088=DIRECTION('',(0.,-3.65204942310907E-16,1.));
#1089=DIRECTION('',(0.,1.,4.28626379701574E-16));
#1090=DIRECTION('',(0.,0.707106781186548,-0.707106781186547));
#1091=DIRECTION('',(0.,0.,-1.));
#1092=DIRECTION('',(0.,-1.,0.));
#1093=DIRECTION('center_axis',(1.,0.,0.));
#1094=DIRECTION('ref_axis',(0.,0.,-1.));
#1095=DIRECTION('',(0.,1.,0.));
#1096=DIRECTION('',(0.,0.,1.));
#1097=DIRECTION('',(0.,-0.707106781186549,0.707106781186546));
#1098=DIRECTION('',(0.,-1.,-4.28626379701574E-16));
#1099=DIRECTION('',(0.,3.65204942310907E-16,-1.));
#1100=DIRECTION('center_axis',(0.,-1.,0.));
#1101=DIRECTION('ref_axis',(-1.,0.,0.));
#1102=DIRECTION('center_axis',(0.,1.,2.44929359829471E-16));
#1103=DIRECTION('ref_axis',(1.,0.,0.));
#1104=DIRECTION('',(0.,-1.,0.));
#1105=DIRECTION('center_axis',(0.,1.,3.65204942310907E-16));
#1106=DIRECTION('ref_axis',(-1.,0.,0.));
#1107=DIRECTION('center_axis',(0.,1.,2.44929359829471E-16));
#1108=DIRECTION('ref_axis',(1.,0.,0.));
#1109=DIRECTION('center_axis',(0.,-1.,0.));
#1110=DIRECTION('ref_axis',(-1.,0.,0.));
#1111=DIRECTION('center_axis',(0.,1.,2.44929359829471E-16));
#1112=DIRECTION('ref_axis',(1.,0.,0.));
#1113=DIRECTION('',(0.,-1.,0.));
#1114=DIRECTION('center_axis',(0.,1.,3.65204942310907E-16));
#1115=DIRECTION('ref_axis',(-1.,0.,0.));
#1116=DIRECTION('center_axis',(0.,1.,2.44929359829471E-16));
#1117=DIRECTION('ref_axis',(1.,0.,0.));
#1118=DIRECTION('center_axis',(0.,-1.,0.));
#1119=DIRECTION('ref_axis',(-1.,0.,0.));
#1120=DIRECTION('center_axis',(0.,1.,2.44929359829471E-16));
#1121=DIRECTION('ref_axis',(1.,0.,0.));
#1122=DIRECTION('',(0.,-1.,0.));
#1123=DIRECTION('center_axis',(0.,1.,3.65204942310907E-16));
#1124=DIRECTION('ref_axis',(-1.,0.,0.));
#1125=DIRECTION('center_axis',(0.,1.,2.44929359829471E-16));
#1126=DIRECTION('ref_axis',(1.,0.,0.));
#1127=DIRECTION('center_axis',(0.,-1.,0.));
#1128=DIRECTION('ref_axis',(-1.,0.,0.));
#1129=DIRECTION('center_axis',(0.,1.,2.44929359829471E-16));
#1130=DIRECTION('ref_axis',(1.,0.,0.));
#1131=DIRECTION('',(0.,-1.,0.));
#1132=DIRECTION('center_axis',(0.,1.,3.65204942310907E-16));
#1133=DIRECTION('ref_axis',(-1.,0.,0.));
#1134=DIRECTION('center_axis',(0.,1.,2.44929359829471E-16));
#1135=DIRECTION('ref_axis',(1.,0.,0.));
#1136=DIRECTION('center_axis',(0.,-1.,0.));
#1137=DIRECTION('ref_axis',(-1.,0.,0.));
#1138=DIRECTION('center_axis',(0.,1.,2.44929359829471E-16));
#1139=DIRECTION('ref_axis',(1.,0.,0.));
#1140=DIRECTION('',(0.,-1.,0.));
#1141=DIRECTION('center_axis',(0.,1.,3.65204942310907E-16));
#1142=DIRECTION('ref_axis',(-1.,0.,0.));
#1143=DIRECTION('center_axis',(0.,1.,2.44929359829471E-16));
#1144=DIRECTION('ref_axis',(1.,0.,0.));
#1145=DIRECTION('center_axis',(0.,-1.,0.));
#1146=DIRECTION('ref_axis',(-1.,0.,0.));
#1147=DIRECTION('center_axis',(0.,1.,2.44929359829471E-16));
#1148=DIRECTION('ref_axis',(1.,0.,0.));
#1149=DIRECTION('',(0.,-1.,0.));
#1150=DIRECTION('center_axis',(0.,1.,3.65204942310907E-16));
#1151=DIRECTION('ref_axis',(-1.,0.,0.));
#1152=DIRECTION('center_axis',(0.,1.,2.44929359829471E-16));
#1153=DIRECTION('ref_axis',(1.,0.,0.));
#1154=DIRECTION('center_axis',(0.,-1.,0.));
#1155=DIRECTION('ref_axis',(-1.,0.,0.));
#1156=DIRECTION('center_axis',(0.,1.,2.44929359829471E-16));
#1157=DIRECTION('ref_axis',(1.,0.,0.));
#1158=DIRECTION('',(0.,-1.,0.));
#1159=DIRECTION('center_axis',(0.,1.,3.65204942310907E-16));
#1160=DIRECTION('ref_axis',(-1.,0.,0.));
#1161=DIRECTION('center_axis',(0.,1.,2.44929359829471E-16));
#1162=DIRECTION('ref_axis',(1.,0.,0.));
#1163=DIRECTION('center_axis',(0.,-1.,-2.44929359829471E-16));
#1164=DIRECTION('ref_axis',(1.,0.,0.));
#1165=DIRECTION('',(0.707106781186547,0.707106781186548,2.59786816870648E-16));
#1166=DIRECTION('center_axis',(0.,-1.,-2.44929359829471E-16));
#1167=DIRECTION('ref_axis',(1.,0.,0.));
#1168=DIRECTION('center_axis',(0.,-1.,-2.44929359829471E-16));
#1169=DIRECTION('ref_axis',(1.,0.,0.));
#1170=DIRECTION('',(0.,1.,2.44929359829471E-16));
#1171=DIRECTION('center_axis',(0.,-1.,-2.44929359829471E-16));
#1172=DIRECTION('ref_axis',(1.,0.,0.));
#1173=DIRECTION('',(0.707106781186547,0.707106781186548,2.59786816870648E-16));
#1174=DIRECTION('center_axis',(0.,-1.,-2.44929359829471E-16));
#1175=DIRECTION('ref_axis',(1.,0.,0.));
#1176=DIRECTION('center_axis',(0.,-1.,-2.44929359829471E-16));
#1177=DIRECTION('ref_axis',(1.,0.,0.));
#1178=DIRECTION('',(0.,1.,2.44929359829471E-16));
#1179=DIRECTION('center_axis',(0.,-1.,-2.44929359829471E-16));
#1180=DIRECTION('ref_axis',(1.,0.,0.));
#1181=DIRECTION('',(0.707106781186547,0.707106781186548,2.59786816870648E-16));
#1182=DIRECTION('center_axis',(0.,-1.,-2.44929359829471E-16));
#1183=DIRECTION('ref_axis',(1.,0.,0.));
#1184=DIRECTION('center_axis',(0.,-1.,-2.44929359829471E-16));
#1185=DIRECTION('ref_axis',(1.,0.,0.));
#1186=DIRECTION('',(0.,1.,2.44929359829471E-16));
#1187=DIRECTION('center_axis',(0.,-1.,-2.44929359829471E-16));
#1188=DIRECTION('ref_axis',(1.,0.,0.));
#1189=DIRECTION('',(0.707106781186547,0.707106781186548,2.59786816870648E-16));
#1190=DIRECTION('center_axis',(0.,-1.,-2.44929359829471E-16));
#1191=DIRECTION('ref_axis',(1.,0.,0.));
#1192=DIRECTION('center_axis',(0.,-1.,-2.44929359829471E-16));
#1193=DIRECTION('ref_axis',(1.,0.,0.));
#1194=DIRECTION('',(0.,1.,2.44929359829471E-16));
#1195=DIRECTION('center_axis',(0.,-1.,-2.44929359829471E-16));
#1196=DIRECTION('ref_axis',(1.,0.,0.));
#1197=DIRECTION('',(0.707106781186547,0.707106781186548,2.59786816870648E-16));
#1198=DIRECTION('center_axis',(0.,-1.,-2.44929359829471E-16));
#1199=DIRECTION('ref_axis',(1.,0.,0.));
#1200=DIRECTION('center_axis',(0.,-1.,-2.44929359829471E-16));
#1201=DIRECTION('ref_axis',(1.,0.,0.));
#1202=DIRECTION('',(0.,1.,2.44929359829471E-16));
#1203=DIRECTION('center_axis',(0.,-1.,-2.44929359829471E-16));
#1204=DIRECTION('ref_axis',(1.,0.,0.));
#1205=DIRECTION('',(0.707106781186547,0.707106781186548,2.59786816870648E-16));
#1206=DIRECTION('center_axis',(0.,-1.,-2.44929359829471E-16));
#1207=DIRECTION('ref_axis',(1.,0.,0.));
#1208=DIRECTION('center_axis',(0.,-1.,-2.44929359829471E-16));
#1209=DIRECTION('ref_axis',(1.,0.,0.));
#1210=DIRECTION('',(0.,1.,2.44929359829471E-16));
#1211=DIRECTION('center_axis',(0.,-1.,-2.44929359829471E-16));
#1212=DIRECTION('ref_axis',(1.,0.,0.));
#1213=DIRECTION('',(0.707106781186547,0.707106781186548,2.59786816870648E-16));
#1214=DIRECTION('center_axis',(0.,-1.,-2.44929359829471E-16));
#1215=DIRECTION('ref_axis',(1.,0.,0.));
#1216=DIRECTION('center_axis',(0.,-1.,-2.44929359829471E-16));
#1217=DIRECTION('ref_axis',(1.,0.,0.));
#1218=DIRECTION('',(0.,1.,2.44929359829471E-16));
#1219=DIRECTION('center_axis',(0.,1.,0.));
#1220=DIRECTION('ref_axis',(0.,0.,1.));
#1221=DIRECTION('',(1.,0.,0.));
#1222=DIRECTION('',(1.,0.,0.));
#1223=DIRECTION('center_axis',(0.,0.,-1.));
#1224=DIRECTION('ref_axis',(0.,1.,0.));
#1225=DIRECTION('center_axis',(0.,-4.28626379701574E-16,1.));
#1226=DIRECTION('ref_axis',(0.,-1.,-4.28626379701574E-16));
#1227=DIRECTION('',(-1.,0.,0.));
#1228=DIRECTION('',(-1.,0.,0.));
#1229=DIRECTION('center_axis',(0.,-1.,-3.65204942310907E-16));
#1230=DIRECTION('ref_axis',(0.,3.65204942310907E-16,-1.));
#1231=DIRECTION('',(1.,0.,0.));
#1232=DIRECTION('center_axis',(0.,0.707106781186547,0.707106781186548));
#1233=DIRECTION('ref_axis',(0.,-0.707106781186548,0.707106781186547));
#1234=DIRECTION('center_axis',(0.,0.,-1.));
#1235=DIRECTION('ref_axis',(0.,1.,0.));
#1236=CARTESIAN_POINT('',(0.,0.,0.));
#1237=CARTESIAN_POINT('Origin',(50.,2.,-13.5857864376269));
#1238=CARTESIAN_POINT('',(50.,2.,-13.5857864376269));
#1239=CARTESIAN_POINT('',(48.5857864376269,2.,-15.));
#1240=CARTESIAN_POINT('',(36.1464466094068,2.,-27.4393398282202));
#1241=CARTESIAN_POINT('',(50.,2.22044604925031E-15,-13.5857864376269));
#1242=CARTESIAN_POINT('',(50.,1.5,-13.5857864376269));
#1243=CARTESIAN_POINT('',(48.5857864376269,2.22044604925031E-15,-15.));
#1244=CARTESIAN_POINT('',(48.5857864376269,2.4980018054066E-15,-15.));
#1245=CARTESIAN_POINT('',(48.5857864376269,1.,-15.));
#1246=CARTESIAN_POINT('Origin',(49.2928932188135,2.22044604925031E-15,-14.2928932188135));
#1247=CARTESIAN_POINT('',(50.,2.22044604925031E-15,-15.));
#1248=CARTESIAN_POINT('',(50.,2.22044604925031E-15,-11.8964466094067));
#1249=CARTESIAN_POINT('',(49.6464466094067,2.22044604925031E-15,-15.));
#1250=CARTESIAN_POINT('Origin',(29.5,2.,-18.));
#1251=CARTESIAN_POINT('',(29.5,2.,-18.));
#1252=CARTESIAN_POINT('',(28.5,2.,-19.));
#1253=CARTESIAN_POINT('',(21.875,2.,-25.625));
#1254=CARTESIAN_POINT('',(29.5,2.4980018054066E-15,-18.));
#1255=CARTESIAN_POINT('',(29.5,4.19619412604949E-15,-18.));
#1256=CARTESIAN_POINT('',(28.5,2.77555756156289E-15,-19.));
#1257=CARTESIAN_POINT('',(28.5,2.4980018054066E-15,-19.));
#1258=CARTESIAN_POINT('',(28.5,4.19619412604949E-15,-19.));
#1259=CARTESIAN_POINT('Origin',(29.,2.77555756156289E-15,-18.5));
#1260=CARTESIAN_POINT('Origin',(28.5,2.77555756156289E-15,-18.));
#1261=CARTESIAN_POINT('Origin',(-48.5857864376269,2.,-15.));
#1262=CARTESIAN_POINT('',(-48.5857864376269,2.,-15.));
#1263=CARTESIAN_POINT('',(-50.,2.,-13.5857864376269));
#1264=CARTESIAN_POINT('',(-35.4393398282202,2.,-28.1464466094067));
#1265=CARTESIAN_POINT('',(-48.5857864376269,2.22044604925031E-15,-15.));
#1266=CARTESIAN_POINT('',(-48.5857864376269,1.,-15.));
#1267=CARTESIAN_POINT('',(-50.,2.22044604925031E-15,-13.5857864376269));
#1268=CARTESIAN_POINT('',(-50.,2.22044604925031E-15,-13.5857864376269));
#1269=CARTESIAN_POINT('',(-50.,1.5,-13.5857864376269));
#1270=CARTESIAN_POINT('Origin',(-49.2928932188135,2.22044604925031E-15,
-14.2928932188135));
#1271=CARTESIAN_POINT('',(-50.,2.22044604925031E-15,-15.));
#1272=CARTESIAN_POINT('',(-39.3964466094067,2.22044604925031E-15,-15.));
#1273=CARTESIAN_POINT('',(-50.,2.22044604925031E-15,-11.8964466094067));
#1274=CARTESIAN_POINT('Origin',(-28.5,2.,-19.));
#1275=CARTESIAN_POINT('',(-28.5,2.,-19.));
#1276=CARTESIAN_POINT('',(-29.5,2.,-18.));
#1277=CARTESIAN_POINT('',(-21.375,2.,-26.125));
#1278=CARTESIAN_POINT('',(-28.5,2.77555756156289E-15,-19.));
#1279=CARTESIAN_POINT('',(-28.5,4.68605284570843E-15,-19.));
#1280=CARTESIAN_POINT('',(-29.5,2.4980018054066E-15,-18.));
#1281=CARTESIAN_POINT('',(-29.5,2.4980018054066E-15,-18.));
#1282=CARTESIAN_POINT('',(-29.5,4.68605284570843E-15,-18.));
#1283=CARTESIAN_POINT('Origin',(-29.,2.77555756156289E-15,-18.5));
#1284=CARTESIAN_POINT('Origin',(-28.5,2.77555756156289E-15,-18.));
#1285=CARTESIAN_POINT('Origin',(0.,2.,-19.));
#1286=CARTESIAN_POINT('',(30.5,2.,-15.));
#1287=CARTESIAN_POINT('',(25.,2.,-15.));
#1288=CARTESIAN_POINT('',(29.5,2.,-16.));
#1289=CARTESIAN_POINT('Origin',(30.5,2.,-16.));
#1290=CARTESIAN_POINT('',(29.5,2.,-17.));
#1291=CARTESIAN_POINT('',(0.,2.,-19.));
#1292=CARTESIAN_POINT('',(-29.5,2.,-16.));
#1293=CARTESIAN_POINT('',(-29.5,2.,-19.));
#1294=CARTESIAN_POINT('',(-30.5,2.,-15.));
#1295=CARTESIAN_POINT('Origin',(-30.5,2.,-16.));
#1296=CARTESIAN_POINT('',(-14.75,2.,-15.));
#1297=CARTESIAN_POINT('',(-50.,2.,-4.8));
#1298=CARTESIAN_POINT('',(-50.,2.,-2.));
#1299=CARTESIAN_POINT('',(50.,2.,-4.8));
#1300=CARTESIAN_POINT('',(0.,2.,-4.8));
#1301=CARTESIAN_POINT('',(50.,2.,-2.));
#1302=CARTESIAN_POINT('',(-19.6,2.,-15.));
#1303=CARTESIAN_POINT('Origin',(-18.,2.,-15.));
#1304=CARTESIAN_POINT('',(16.4,2.,-15.));
#1305=CARTESIAN_POINT('Origin',(18.,2.,-15.));
#1306=CARTESIAN_POINT('',(-1.6,2.,-15.));
#1307=CARTESIAN_POINT('Origin',(0.,2.,-15.));
#1308=CARTESIAN_POINT('',(7.4,2.,-8.29999999999999));
#1309=CARTESIAN_POINT('Origin',(9.,2.,-8.29999999999999));
#1310=CARTESIAN_POINT('',(-28.6,2.,-8.29999999999999));
#1311=CARTESIAN_POINT('Origin',(-27.,2.,-8.29999999999999));
#1312=CARTESIAN_POINT('',(-10.6,2.,-8.29999999999999));
#1313=CARTESIAN_POINT('Origin',(-9.,2.,-8.29999999999999));
#1314=CARTESIAN_POINT('',(25.4,2.,-8.29999999999999));
#1315=CARTESIAN_POINT('Origin',(27.,2.,-8.29999999999999));
#1316=CARTESIAN_POINT('Origin',(30.5,3.67394039744206E-15,-16.));
#1317=CARTESIAN_POINT('',(30.5,-0.499999999999996,-15.));
#1318=CARTESIAN_POINT('',(30.5,3.67394039744206E-15,-15.));
#1319=CARTESIAN_POINT('',(29.5,-0.499999999999995,-16.));
#1320=CARTESIAN_POINT('Origin',(30.5,-0.500000000000001,-16.));
#1321=CARTESIAN_POINT('',(29.5,3.67394039744206E-15,-16.));
#1322=CARTESIAN_POINT('Origin',(50.,3.67394039744206E-15,-15.));
#1323=CARTESIAN_POINT('',(50.,-0.499999999999996,-15.));
#1324=CARTESIAN_POINT('',(50.,0.500000000000003,-15.));
#1325=CARTESIAN_POINT('',(25.,-0.499999999999996,-15.));
#1326=CARTESIAN_POINT('Origin',(-30.5,3.81954391566685E-15,-16.));
#1327=CARTESIAN_POINT('',(-29.5,-0.499999999999995,-16.));
#1328=CARTESIAN_POINT('',(-29.5,3.81954391566685E-15,-16.));
#1329=CARTESIAN_POINT('',(-30.5,-0.499999999999996,-15.));
#1330=CARTESIAN_POINT('Origin',(-30.5,-0.499999999999996,-16.));
#1331=CARTESIAN_POINT('',(-30.5,3.47528871423269E-15,-15.));
#1332=CARTESIAN_POINT('Origin',(-29.5,4.65365783675994E-15,-19.));
#1333=CARTESIAN_POINT('',(-29.5,-0.499999999999994,-18.));
#1334=CARTESIAN_POINT('',(-29.5,4.68605284570843E-15,-18.));
#1335=CARTESIAN_POINT('',(-29.5,-0.499999999999998,-9.5));
#1336=CARTESIAN_POINT('Origin',(28.5,4.19619412604949E-15,-18.));
#1337=CARTESIAN_POINT('',(29.5,-0.499999999999994,-18.));
#1338=CARTESIAN_POINT('',(29.5,4.19619412604949E-15,-18.));
#1339=CARTESIAN_POINT('',(28.5,-0.499999999999994,-19.));
#1340=CARTESIAN_POINT('Origin',(28.5,-0.500000000000001,-18.));
#1341=CARTESIAN_POINT('',(28.5,4.19619412604949E-15,-19.));
#1342=CARTESIAN_POINT('Origin',(29.5,3.67394039744206E-15,-15.));
#1343=CARTESIAN_POINT('',(29.5,-0.499999999999998,-7.49999999999999));
#1344=CARTESIAN_POINT('Origin',(-28.5,4.68605284570843E-15,-18.));
#1345=CARTESIAN_POINT('',(-28.5,-0.499999999999994,-19.));
#1346=CARTESIAN_POINT('',(-28.5,4.68605284570843E-15,-19.));
#1347=CARTESIAN_POINT('Origin',(-28.5,-0.500000000000001,-18.));
#1348=CARTESIAN_POINT('Origin',(-29.5,3.67394039744206E-15,-15.));
#1349=CARTESIAN_POINT('',(-50.,-0.499999999999996,-15.));
#1350=CARTESIAN_POINT('',(-14.75,-0.499999999999996,-15.));
#1351=CARTESIAN_POINT('',(-50.,0.500000000000004,-15.));
#1352=CARTESIAN_POINT('Origin',(-50.,1.,-9.5));
#1353=CARTESIAN_POINT('',(-50.,-0.500000000000001,-2.14313189850787E-16));
#1354=CARTESIAN_POINT('',(-50.,-0.500000000000001,-2.14313189850787E-16));
#1355=CARTESIAN_POINT('',(-50.,0.,0.));
#1356=CARTESIAN_POINT('',(-50.,0.,0.));
#1357=CARTESIAN_POINT('',(-50.,4.3,-4.29999999999999));
#1358=CARTESIAN_POINT('',(-50.,0.,0.));
#1359=CARTESIAN_POINT('',(-50.,4.3,-4.8));
#1360=CARTESIAN_POINT('',(-50.,4.3,-4.8));
#1361=CARTESIAN_POINT('',(-50.,2.,-4.8));
#1362=CARTESIAN_POINT('Origin',(50.,1.,-9.5));
#1363=CARTESIAN_POINT('',(50.,4.3,-4.8));
#1364=CARTESIAN_POINT('',(50.,2.,-4.8));
#1365=CARTESIAN_POINT('',(50.,4.3,-4.29999999999999));
#1366=CARTESIAN_POINT('',(50.,4.3,-4.8));
#1367=CARTESIAN_POINT('',(50.,0.,0.));
#1368=CARTESIAN_POINT('',(50.,4.3,-4.29999999999999));
#1369=CARTESIAN_POINT('',(50.,-0.500000000000001,-2.14313189850787E-16));
#1370=CARTESIAN_POINT('',(50.,0.,0.));
#1371=CARTESIAN_POINT('',(50.,-0.500000000000001,-2.14313189850787E-16));
#1372=CARTESIAN_POINT('Origin',(9.,0.,-8.29999999999999));
#1373=CARTESIAN_POINT('',(5.9,0.,-8.29999999999999));
#1374=CARTESIAN_POINT('',(12.1,2.79219470205596E-15,-8.29999999999999));
#1375=CARTESIAN_POINT('Origin',(9.,2.03291368658461E-15,-8.29999999999999));
#1376=CARTESIAN_POINT('',(12.1,-0.500000000000001,-8.29999999999999));
#1377=CARTESIAN_POINT('',(12.1,0.,-8.29999999999999));
#1378=CARTESIAN_POINT('Origin',(9.,-0.500000000000001,-8.29999999999999));
#1379=CARTESIAN_POINT('Origin',(9.,2.03291368658461E-15,-8.29999999999999));
#1380=CARTESIAN_POINT('Origin',(-27.,0.,-8.29999999999999));
#1381=CARTESIAN_POINT('',(-30.1,0.,-8.29999999999999));
#1382=CARTESIAN_POINT('',(-23.9,2.79219470205596E-15,-8.29999999999999));
#1383=CARTESIAN_POINT('Origin',(-27.,2.03291368658461E-15,-8.29999999999999));
#1384=CARTESIAN_POINT('',(-23.9,-0.500000000000001,-8.29999999999999));
#1385=CARTESIAN_POINT('',(-23.9,0.,-8.29999999999999));
#1386=CARTESIAN_POINT('Origin',(-27.,-0.500000000000001,-8.29999999999999));
#1387=CARTESIAN_POINT('Origin',(-27.,2.03291368658461E-15,-8.29999999999999));
#1388=CARTESIAN_POINT('Origin',(0.,0.,-15.));
#1389=CARTESIAN_POINT('',(-3.1,0.,-15.));
#1390=CARTESIAN_POINT('',(3.1,4.43322141291342E-15,-15.));
#1391=CARTESIAN_POINT('Origin',(0.,3.67394039744206E-15,-15.));
#1392=CARTESIAN_POINT('',(3.1,-0.500000000000001,-15.));
#1393=CARTESIAN_POINT('',(3.1,0.,-15.));
#1394=CARTESIAN_POINT('Origin',(0.,-0.500000000000001,-15.));
#1395=CARTESIAN_POINT('Origin',(0.,3.67394039744206E-15,-15.));
#1396=CARTESIAN_POINT('Origin',(18.,0.,-15.));
#1397=CARTESIAN_POINT('',(14.9,0.,-15.));
#1398=CARTESIAN_POINT('',(21.1,4.43322141291342E-15,-15.));
#1399=CARTESIAN_POINT('Origin',(18.,3.67394039744206E-15,-15.));
#1400=CARTESIAN_POINT('',(21.1,-0.500000000000001,-15.));
#1401=CARTESIAN_POINT('',(21.1,0.,-15.));
#1402=CARTESIAN_POINT('Origin',(18.,-0.500000000000001,-15.));
#1403=CARTESIAN_POINT('Origin',(18.,3.67394039744206E-15,-15.));
#1404=CARTESIAN_POINT('Origin',(-18.,0.,-15.));
#1405=CARTESIAN_POINT('',(-21.1,0.,-15.));
#1406=CARTESIAN_POINT('',(-14.9,4.43322141291342E-15,-15.));
#1407=CARTESIAN_POINT('Origin',(-18.,3.67394039744206E-15,-15.));
#1408=CARTESIAN_POINT('',(-14.9,-0.500000000000001,-15.));
#1409=CARTESIAN_POINT('',(-14.9,0.,-15.));
#1410=CARTESIAN_POINT('Origin',(-18.,-0.500000000000001,-15.));
#1411=CARTESIAN_POINT('Origin',(-18.,3.67394039744206E-15,-15.));
#1412=CARTESIAN_POINT('Origin',(-9.,0.,-8.29999999999999));
#1413=CARTESIAN_POINT('',(-12.1,0.,-8.29999999999999));
#1414=CARTESIAN_POINT('',(-5.9,2.79219470205596E-15,-8.29999999999999));
#1415=CARTESIAN_POINT('Origin',(-9.,2.03291368658461E-15,-8.29999999999999));
#1416=CARTESIAN_POINT('',(-5.9,-0.500000000000001,-8.29999999999999));
#1417=CARTESIAN_POINT('',(-5.9,0.,-8.29999999999999));
#1418=CARTESIAN_POINT('Origin',(-9.,-0.500000000000001,-8.29999999999999));
#1419=CARTESIAN_POINT('Origin',(-9.,2.03291368658461E-15,-8.29999999999999));
#1420=CARTESIAN_POINT('Origin',(27.,0.,-8.29999999999999));
#1421=CARTESIAN_POINT('',(23.9,0.,-8.29999999999999));
#1422=CARTESIAN_POINT('',(30.1,2.79219470205596E-15,-8.29999999999999));
#1423=CARTESIAN_POINT('Origin',(27.,2.03291368658461E-15,-8.29999999999999));
#1424=CARTESIAN_POINT('',(30.1,-0.500000000000001,-8.29999999999999));
#1425=CARTESIAN_POINT('',(30.1,0.,-8.29999999999999));
#1426=CARTESIAN_POINT('Origin',(27.,-0.500000000000001,-8.29999999999999));
#1427=CARTESIAN_POINT('Origin',(27.,2.03291368658461E-15,-8.29999999999999));
#1428=CARTESIAN_POINT('Origin',(-18.,0.750000000000004,-15.));
#1429=CARTESIAN_POINT('',(-19.6,1.5,-15.));
#1430=CARTESIAN_POINT('',(-20.35,0.750000000000004,-15.));
#1431=CARTESIAN_POINT('Origin',(-18.,1.5,-15.));
#1432=CARTESIAN_POINT('Origin',(-18.,4.4,-15.));
#1433=CARTESIAN_POINT('',(-19.6,4.4,-15.));
#1434=CARTESIAN_POINT('Origin',(18.,0.750000000000004,-15.));
#1435=CARTESIAN_POINT('',(16.4,1.5,-15.));
#1436=CARTESIAN_POINT('',(15.65,0.750000000000004,-15.));
#1437=CARTESIAN_POINT('Origin',(18.,1.5,-15.));
#1438=CARTESIAN_POINT('Origin',(18.,4.4,-15.));
#1439=CARTESIAN_POINT('',(16.4,4.4,-15.));
#1440=CARTESIAN_POINT('Origin',(0.,0.750000000000004,-15.));
#1441=CARTESIAN_POINT('',(-1.6,1.5,-15.));
#1442=CARTESIAN_POINT('',(-2.35,0.750000000000004,-15.));
#1443=CARTESIAN_POINT('Origin',(0.,1.5,-15.));
#1444=CARTESIAN_POINT('Origin',(0.,4.4,-15.));
#1445=CARTESIAN_POINT('',(-1.6,4.4,-15.));
#1446=CARTESIAN_POINT('Origin',(9.,0.750000000000002,-8.29999999999999));
#1447=CARTESIAN_POINT('',(7.4,1.5,-8.29999999999999));
#1448=CARTESIAN_POINT('',(6.65,0.750000000000002,-8.29999999999999));
#1449=CARTESIAN_POINT('Origin',(9.,1.5,-8.29999999999999));
#1450=CARTESIAN_POINT('Origin',(9.,4.4,-8.29999999999999));
#1451=CARTESIAN_POINT('',(7.4,4.4,-8.29999999999999));
#1452=CARTESIAN_POINT('Origin',(-27.,0.750000000000002,-8.29999999999999));
#1453=CARTESIAN_POINT('',(-28.6,1.5,-8.29999999999999));
#1454=CARTESIAN_POINT('',(-29.35,0.750000000000002,-8.29999999999999));
#1455=CARTESIAN_POINT('Origin',(-27.,1.5,-8.29999999999999));
#1456=CARTESIAN_POINT('Origin',(-27.,4.4,-8.29999999999999));
#1457=CARTESIAN_POINT('',(-28.6,4.4,-8.29999999999999));
#1458=CARTESIAN_POINT('Origin',(-9.,0.750000000000002,-8.29999999999999));
#1459=CARTESIAN_POINT('',(-10.6,1.5,-8.29999999999999));
#1460=CARTESIAN_POINT('',(-11.35,0.750000000000002,-8.29999999999999));
#1461=CARTESIAN_POINT('Origin',(-9.,1.5,-8.29999999999999));
#1462=CARTESIAN_POINT('Origin',(-9.,4.4,-8.29999999999999));
#1463=CARTESIAN_POINT('',(-10.6,4.4,-8.29999999999999));
#1464=CARTESIAN_POINT('Origin',(27.,0.750000000000002,-8.29999999999999));
#1465=CARTESIAN_POINT('',(25.4,1.5,-8.29999999999999));
#1466=CARTESIAN_POINT('',(24.65,0.750000000000002,-8.29999999999999));
#1467=CARTESIAN_POINT('Origin',(27.,1.5,-8.29999999999999));
#1468=CARTESIAN_POINT('Origin',(27.,4.4,-8.29999999999999));
#1469=CARTESIAN_POINT('',(25.4,4.4,-8.29999999999999));
#1470=CARTESIAN_POINT('Origin',(0.,4.3,-4.8));
#1471=CARTESIAN_POINT('',(0.,4.3,-4.29999999999999));
#1472=CARTESIAN_POINT('',(0.,4.3,-4.8));
#1473=CARTESIAN_POINT('Origin',(0.,2.,-4.8));
#1474=CARTESIAN_POINT('Origin',(0.,0.,0.));
#1475=CARTESIAN_POINT('',(0.,-0.500000000000001,-2.14313189850787E-16));
#1476=CARTESIAN_POINT('',(0.,0.,0.));
#1477=CARTESIAN_POINT('Origin',(0.,-0.500000000000001,-2.14313189850787E-16));
#1478=CARTESIAN_POINT('',(0.,-0.499999999999994,-19.));
#1479=CARTESIAN_POINT('Origin',(0.,2.,-2.));
#1480=CARTESIAN_POINT('Origin',(0.,4.71844785465692E-15,-19.));
#1481=UNCERTAINTY_MEASURE_WITH_UNIT(LENGTH_MEASURE(0.01),#1485,
'DISTANCE_ACCURACY_VALUE',
'Maximum model space distance between geometric entities at asserted c
onnectivities');
#1482=UNCERTAINTY_MEASURE_WITH_UNIT(LENGTH_MEASURE(0.01),#1485,
'DISTANCE_ACCURACY_VALUE',
'Maximum model space distance between geometric entities at asserted c
onnectivities');
#1483=(
GEOMETRIC_REPRESENTATION_CONTEXT(3)
GLOBAL_UNCERTAINTY_ASSIGNED_CONTEXT((#1481))
GLOBAL_UNIT_ASSIGNED_CONTEXT((#1485,#1487,#1488))
REPRESENTATION_CONTEXT('','3D')
);
#1484=(
GEOMETRIC_REPRESENTATION_CONTEXT(3)
GLOBAL_UNCERTAINTY_ASSIGNED_CONTEXT((#1482))
GLOBAL_UNIT_ASSIGNED_CONTEXT((#1485,#1487,#1488))
REPRESENTATION_CONTEXT('','3D')
);
#1485=(
LENGTH_UNIT()
NAMED_UNIT(*)
SI_UNIT(.MILLI.,.METRE.)
);
#1486=(
LENGTH_UNIT()
NAMED_UNIT(*)
SI_UNIT(.CENTI.,.METRE.)
);
#1487=(
NAMED_UNIT(*)
PLANE_ANGLE_UNIT()
SI_UNIT($,.RADIAN.)
);
#1488=(
NAMED_UNIT(*)
SI_UNIT($,.STERADIAN.)
SOLID_ANGLE_UNIT()
);
#1489=SHAPE_DEFINITION_REPRESENTATION(#1490,#1491);
#1490=PRODUCT_DEFINITION_SHAPE('',$,#1493);
#1491=SHAPE_REPRESENTATION('',(#888),#1483);
#1492=PRODUCT_DEFINITION_CONTEXT('part definition',#1497,'design');
#1493=PRODUCT_DEFINITION('Plog2','plug',#1494,#1492);
#1494=PRODUCT_DEFINITION_FORMATION('',$,#1499);
#1495=PRODUCT_RELATED_PRODUCT_CATEGORY('plug','plug',(#1499));
#1496=APPLICATION_PROTOCOL_DEFINITION('international standard',
'automotive_design',2009,#1497);
#1497=APPLICATION_CONTEXT(
'Core Data for Automotive Mechanical Design Process');
#1498=PRODUCT_CONTEXT('part definition',#1497,'mechanical');
#1499=PRODUCT('Plog2','plug',$,(#1498));
#1500=PRESENTATION_STYLE_ASSIGNMENT((#1501));
#1501=SURFACE_STYLE_USAGE(.BOTH.,#1504);
#1502=SURFACE_STYLE_RENDERING_WITH_PROPERTIES($,#1508,(#1503));
#1503=SURFACE_STYLE_TRANSPARENT(0.);
#1504=SURFACE_SIDE_STYLE('',(#1505,#1502));
#1505=SURFACE_STYLE_FILL_AREA(#1506);
#1506=FILL_AREA_STYLE('',(#1507));
#1507=FILL_AREA_STYLE_COLOUR('',#1508);
#1508=COLOUR_RGB('',0.270588235294118,0.270588235294118,0.270588235294118);
ENDSEC;
END-ISO-10303-21;
