G04*
G04 #@! TF.GenerationSoftware,Altium Limited,Altium Designer,21.7.2 (23)*
G04*
G04 Layer_Color=255*
%FSLAX25Y25*%
%MOIN*%
G70*
G04*
G04 #@! TF.SameCoordinates,AC02EB70-E257-4DE1-B61C-AE1B2F8B855F*
G04*
G04*
G04 #@! TF.FilePolarity,Positive*
G04*
G01*
G75*
%ADD10R,0.07874X0.02205*%
%ADD12R,0.02362X0.02500*%
%ADD13R,0.02362X0.01575*%
%ADD14R,0.04331X0.02559*%
%ADD15R,0.02500X0.02362*%
%ADD16O,0.05512X0.03937*%
%ADD17R,0.02362X0.02756*%
%ADD18R,0.06417X0.02402*%
%ADD19R,0.06693X0.08858*%
%ADD20R,0.01378X0.03150*%
%ADD21R,0.03937X0.02165*%
%ADD22R,0.01083X0.01181*%
%ADD23R,0.02165X0.05118*%
%ADD24R,0.03150X0.05807*%
%ADD25R,0.07284X0.12303*%
%ADD26R,0.02756X0.02362*%
%ADD27R,0.03800X0.03937*%
%ADD28R,0.05512X0.06299*%
%ADD29R,0.03347X0.01181*%
G04:AMPARAMS|DCode=30|XSize=53.15mil|YSize=39.37mil|CornerRadius=0mil|HoleSize=0mil|Usage=FLASHONLY|Rotation=45.000|XOffset=0mil|YOffset=0mil|HoleType=Round|Shape=Rectangle|*
%AMROTATEDRECTD30*
4,1,4,-0.00487,-0.03271,-0.03271,-0.00487,0.00487,0.03271,0.03271,0.00487,-0.00487,-0.03271,0.0*
%
%ADD30ROTATEDRECTD30*%

G04:AMPARAMS|DCode=31|XSize=78.74mil|YSize=70.87mil|CornerRadius=0mil|HoleSize=0mil|Usage=FLASHONLY|Rotation=45.000|XOffset=0mil|YOffset=0mil|HoleType=Round|Shape=Rectangle|*
%AMROTATEDRECTD31*
4,1,4,-0.00278,-0.05289,-0.05289,-0.00278,0.00278,0.05289,0.05289,0.00278,-0.00278,-0.05289,0.0*
%
%ADD31ROTATEDRECTD31*%

%ADD32R,0.02756X0.03937*%
%ADD33P,0.36190X4X90.0*%
G04:AMPARAMS|DCode=34|XSize=37.4mil|YSize=7.87mil|CornerRadius=0mil|HoleSize=0mil|Usage=FLASHONLY|Rotation=45.000|XOffset=0mil|YOffset=0mil|HoleType=Round|Shape=Rectangle|*
%AMROTATEDRECTD34*
4,1,4,-0.01044,-0.01601,-0.01601,-0.01044,0.01044,0.01601,0.01601,0.01044,-0.01044,-0.01601,0.0*
%
%ADD34ROTATEDRECTD34*%

G04:AMPARAMS|DCode=35|XSize=37.4mil|YSize=7.87mil|CornerRadius=0mil|HoleSize=0mil|Usage=FLASHONLY|Rotation=315.000|XOffset=0mil|YOffset=0mil|HoleType=Round|Shape=Rectangle|*
%AMROTATEDRECTD35*
4,1,4,-0.01601,0.01044,-0.01044,0.01601,0.01601,-0.01044,0.01044,-0.01601,-0.01601,0.01044,0.0*
%
%ADD35ROTATEDRECTD35*%

%ADD36R,0.02559X0.04331*%
%ADD37R,0.01575X0.02362*%
%ADD38R,0.06693X0.09449*%
%ADD39R,0.03347X0.01378*%
%ADD40R,0.04500X0.05906*%
%ADD41R,0.02362X0.06299*%
%ADD42R,0.04724X0.07087*%
%ADD43R,0.03937X0.03800*%
%ADD44R,0.09843X0.70866*%
G04:AMPARAMS|DCode=45|XSize=23.62mil|YSize=19.68mil|CornerRadius=4.92mil|HoleSize=0mil|Usage=FLASHONLY|Rotation=180.000|XOffset=0mil|YOffset=0mil|HoleType=Round|Shape=RoundedRectangle|*
%AMROUNDEDRECTD45*
21,1,0.02362,0.00984,0,0,180.0*
21,1,0.01378,0.01968,0,0,180.0*
1,1,0.00984,-0.00689,0.00492*
1,1,0.00984,0.00689,0.00492*
1,1,0.00984,0.00689,-0.00492*
1,1,0.00984,-0.00689,-0.00492*
%
%ADD45ROUNDEDRECTD45*%
%ADD46R,0.01575X0.01575*%
%ADD47R,0.01575X0.02165*%
%ADD48R,0.09646X0.07874*%
%ADD49R,0.11811X0.05709*%
%ADD50O,0.05512X0.07874*%
%ADD51O,0.05118X0.03937*%
%ADD52R,0.03937X0.02756*%
%ADD53R,0.05906X0.04500*%
G04:AMPARAMS|DCode=59|XSize=25mil|YSize=23.62mil|CornerRadius=0mil|HoleSize=0mil|Usage=FLASHONLY|Rotation=225.000|XOffset=0mil|YOffset=0mil|HoleType=Round|Shape=Rectangle|*
%AMROTATEDRECTD59*
4,1,4,0.00049,0.01719,0.01719,0.00049,-0.00049,-0.01719,-0.01719,-0.00049,0.00049,0.01719,0.0*
%
%ADD59ROTATEDRECTD59*%

G04:AMPARAMS|DCode=60|XSize=45mil|YSize=59.06mil|CornerRadius=0mil|HoleSize=0mil|Usage=FLASHONLY|Rotation=225.000|XOffset=0mil|YOffset=0mil|HoleType=Round|Shape=Rectangle|*
%AMROTATEDRECTD60*
4,1,4,-0.00497,0.03679,0.03679,-0.00497,0.00497,-0.03679,-0.03679,0.00497,-0.00497,0.03679,0.0*
%
%ADD60ROTATEDRECTD60*%

%ADD61R,0.01654X0.02165*%
G04:AMPARAMS|DCode=62|XSize=33.47mil|YSize=9.84mil|CornerRadius=0mil|HoleSize=0mil|Usage=FLASHONLY|Rotation=45.000|XOffset=0mil|YOffset=0mil|HoleType=Round|Shape=Rectangle|*
%AMROTATEDRECTD62*
4,1,4,-0.00835,-0.01531,-0.01531,-0.00835,0.00835,0.01531,0.01531,0.00835,-0.00835,-0.01531,0.0*
%
%ADD62ROTATEDRECTD62*%

G04:AMPARAMS|DCode=63|XSize=33.47mil|YSize=9.84mil|CornerRadius=0mil|HoleSize=0mil|Usage=FLASHONLY|Rotation=135.000|XOffset=0mil|YOffset=0mil|HoleType=Round|Shape=Rectangle|*
%AMROTATEDRECTD63*
4,1,4,0.01531,-0.00835,0.00835,-0.01531,-0.01531,0.00835,-0.00835,0.01531,0.01531,-0.00835,0.0*
%
%ADD63ROTATEDRECTD63*%

%ADD64P,0.20044X4X180.0*%
%ADD65R,0.01575X0.01575*%
%ADD66R,0.02165X0.01575*%
%ADD67R,0.07874X0.09646*%
%ADD68R,0.13976X0.13976*%
%ADD69R,0.01181X0.03347*%
%ADD71R,0.02500X0.02362*%
%ADD72R,0.11811X0.05709*%
%ADD73C,0.00039*%
%ADD76C,0.17717*%
%ADD77C,0.01102*%
%ADD78C,0.01476*%
%ADD79C,0.02067*%
D10*
X207874Y250394D02*
D03*
Y246457D02*
D03*
X218110D02*
D03*
Y250394D02*
D03*
X12992D02*
D03*
Y246457D02*
D03*
X23228D02*
D03*
Y250394D02*
D03*
D12*
X40846Y121493D02*
D03*
Y126093D02*
D03*
X44193Y126130D02*
D03*
Y121530D02*
D03*
X47539D02*
D03*
Y126130D02*
D03*
X50886D02*
D03*
Y121530D02*
D03*
X54232Y126130D02*
D03*
Y121530D02*
D03*
X57579D02*
D03*
Y126130D02*
D03*
X64272D02*
D03*
Y121530D02*
D03*
X60925D02*
D03*
Y126130D02*
D03*
X209746Y228630D02*
D03*
Y224030D02*
D03*
X61221Y115070D02*
D03*
Y110470D02*
D03*
X12795Y32921D02*
D03*
Y28321D02*
D03*
Y20473D02*
D03*
Y25073D02*
D03*
X2854Y63692D02*
D03*
Y59092D02*
D03*
X2953Y81212D02*
D03*
Y76612D02*
D03*
X2854Y72452D02*
D03*
Y67852D02*
D03*
X2264Y109289D02*
D03*
Y113889D02*
D03*
X10630Y167852D02*
D03*
Y172452D02*
D03*
X102559Y92852D02*
D03*
Y97452D02*
D03*
X99508Y92852D02*
D03*
Y97452D02*
D03*
X96457Y92852D02*
D03*
Y97452D02*
D03*
X16634Y196690D02*
D03*
Y201290D02*
D03*
X64567Y109781D02*
D03*
Y114381D02*
D03*
X21457Y41448D02*
D03*
Y36848D02*
D03*
X74606Y113298D02*
D03*
Y108698D02*
D03*
X77953Y110765D02*
D03*
Y115365D02*
D03*
X82087Y139013D02*
D03*
Y143613D02*
D03*
X127165Y121592D02*
D03*
Y126192D02*
D03*
X130315Y121592D02*
D03*
Y126192D02*
D03*
X135925Y125736D02*
D03*
Y121136D02*
D03*
X139075D02*
D03*
Y125736D02*
D03*
X148130Y102005D02*
D03*
Y106605D02*
D03*
X144783D02*
D03*
Y102005D02*
D03*
X141437Y102104D02*
D03*
Y106704D02*
D03*
X138091D02*
D03*
Y102104D02*
D03*
X134744D02*
D03*
Y106704D02*
D03*
X131496D02*
D03*
Y102104D02*
D03*
X128150Y106605D02*
D03*
Y102005D02*
D03*
X215846Y78160D02*
D03*
Y73560D02*
D03*
X219882Y78160D02*
D03*
Y73560D02*
D03*
X207185Y90562D02*
D03*
Y85962D02*
D03*
Y78052D02*
D03*
Y82652D02*
D03*
X203150Y80253D02*
D03*
Y84853D02*
D03*
X190059Y92458D02*
D03*
Y97058D02*
D03*
X204216Y167560D02*
D03*
Y162960D02*
D03*
X206621Y224012D02*
D03*
Y228612D02*
D03*
X13189Y7553D02*
D03*
Y2953D02*
D03*
Y10864D02*
D03*
Y15463D02*
D03*
X129051Y187698D02*
D03*
Y183098D02*
D03*
X140961Y185237D02*
D03*
Y180637D02*
D03*
X134661Y215578D02*
D03*
Y220178D02*
D03*
X167195Y201461D02*
D03*
Y196861D02*
D03*
X179150Y177291D02*
D03*
Y181891D02*
D03*
X175902Y177291D02*
D03*
Y181891D02*
D03*
X157988Y179161D02*
D03*
Y183761D02*
D03*
X137811Y215578D02*
D03*
Y220178D02*
D03*
X64681Y198452D02*
D03*
Y203052D02*
D03*
X83579Y199804D02*
D03*
Y195204D02*
D03*
X145587Y183859D02*
D03*
Y179259D02*
D03*
X178165Y218728D02*
D03*
Y223328D02*
D03*
X93886Y51999D02*
D03*
Y56599D02*
D03*
X81976Y54460D02*
D03*
Y59060D02*
D03*
X88276Y24119D02*
D03*
Y19519D02*
D03*
X55742Y38235D02*
D03*
Y42835D02*
D03*
X43787Y62406D02*
D03*
Y57806D02*
D03*
X47035Y62406D02*
D03*
Y57806D02*
D03*
X64949Y60536D02*
D03*
Y55936D02*
D03*
X85126Y24119D02*
D03*
Y19519D02*
D03*
X158256Y41245D02*
D03*
Y36645D02*
D03*
X139358Y39893D02*
D03*
Y44493D02*
D03*
X77350Y55838D02*
D03*
Y60438D02*
D03*
X44772Y20969D02*
D03*
Y16369D02*
D03*
D13*
X213189Y218675D02*
D03*
Y221038D02*
D03*
Y223400D02*
D03*
Y225762D02*
D03*
X12106Y218085D02*
D03*
Y220447D02*
D03*
Y222809D02*
D03*
Y225171D02*
D03*
X205512Y188459D02*
D03*
Y186097D02*
D03*
Y183734D02*
D03*
Y181372D02*
D03*
X213189Y43971D02*
D03*
Y41608D02*
D03*
Y39246D02*
D03*
Y36884D02*
D03*
Y19561D02*
D03*
Y17199D02*
D03*
Y14837D02*
D03*
Y12474D02*
D03*
X9252Y14246D02*
D03*
Y11884D02*
D03*
Y9522D02*
D03*
Y7160D02*
D03*
Y32160D02*
D03*
Y29797D02*
D03*
Y27435D02*
D03*
Y25073D02*
D03*
X12106Y207160D02*
D03*
Y204797D02*
D03*
Y202435D02*
D03*
Y200073D02*
D03*
D14*
X219488Y214837D02*
D03*
Y229601D02*
D03*
X5807Y214246D02*
D03*
Y229010D02*
D03*
X211811Y192297D02*
D03*
Y177534D02*
D03*
X219488Y47809D02*
D03*
Y33045D02*
D03*
Y23400D02*
D03*
Y8636D02*
D03*
X2953Y18085D02*
D03*
Y3321D02*
D03*
Y35998D02*
D03*
Y21234D02*
D03*
X5807Y210998D02*
D03*
Y196234D02*
D03*
D15*
X22918Y222891D02*
D03*
X18317D02*
D03*
X16401Y182553D02*
D03*
X21001D02*
D03*
X28746Y182617D02*
D03*
X24146D02*
D03*
X206165Y171234D02*
D03*
X210765D02*
D03*
X14898Y100171D02*
D03*
X10298D02*
D03*
X2264Y101845D02*
D03*
X6864D02*
D03*
X6828Y105880D02*
D03*
X2228D02*
D03*
X27428Y222744D02*
D03*
X32028D02*
D03*
X2264Y172317D02*
D03*
X6864D02*
D03*
X6729Y145447D02*
D03*
X2129D02*
D03*
X2093Y148793D02*
D03*
X6693D02*
D03*
X96617Y146923D02*
D03*
X101217D02*
D03*
X109091D02*
D03*
X104491D02*
D03*
X109817Y92790D02*
D03*
X105217D02*
D03*
X25036Y196628D02*
D03*
X20436D02*
D03*
X56916Y132652D02*
D03*
X61516D02*
D03*
X69032D02*
D03*
X64432D02*
D03*
X17556Y36786D02*
D03*
X12956D02*
D03*
X112034Y145939D02*
D03*
X116634D02*
D03*
X144032Y129305D02*
D03*
X139432D02*
D03*
X125528Y101943D02*
D03*
X120928D02*
D03*
X125062Y92790D02*
D03*
X129662D02*
D03*
X214924Y57652D02*
D03*
X219524D02*
D03*
Y53616D02*
D03*
X214924D02*
D03*
X151637Y108341D02*
D03*
X156237D02*
D03*
Y111687D02*
D03*
X151637D02*
D03*
X210765Y174286D02*
D03*
X206165D02*
D03*
X156237Y96136D02*
D03*
X151637D02*
D03*
X151735Y92790D02*
D03*
X156335D02*
D03*
X215846Y29797D02*
D03*
X220446D02*
D03*
X215846Y26648D02*
D03*
X220446D02*
D03*
X215810Y5388D02*
D03*
X220410D02*
D03*
X215810Y2337D02*
D03*
X220410D02*
D03*
X208304Y73892D02*
D03*
X203704D02*
D03*
X202523Y129010D02*
D03*
X207123D02*
D03*
X207636Y165492D02*
D03*
X212236D02*
D03*
X220607Y164345D02*
D03*
X216007D02*
D03*
X220607Y168380D02*
D03*
X216007D02*
D03*
X216007Y172415D02*
D03*
X220607D02*
D03*
X199249Y198597D02*
D03*
X194649D02*
D03*
X201709Y194167D02*
D03*
X197109D02*
D03*
X18172Y90919D02*
D03*
X22772D02*
D03*
X18074Y94955D02*
D03*
X22674D02*
D03*
X2191Y96825D02*
D03*
X6791D02*
D03*
X2191Y93577D02*
D03*
X6791D02*
D03*
X161568Y227917D02*
D03*
X156968D02*
D03*
X155232Y157543D02*
D03*
X159832D02*
D03*
X167105Y179591D02*
D03*
X171705D02*
D03*
X145820Y170831D02*
D03*
X141220D02*
D03*
X178559Y197406D02*
D03*
X173959D02*
D03*
X178461Y201343D02*
D03*
X173861D02*
D03*
X177513Y227917D02*
D03*
X172913D02*
D03*
X164940D02*
D03*
X169540D02*
D03*
X148897Y182248D02*
D03*
X153497D02*
D03*
X149192Y179197D02*
D03*
X153792D02*
D03*
X128398Y224965D02*
D03*
X123798D02*
D03*
Y228016D02*
D03*
X128398D02*
D03*
X120032Y226539D02*
D03*
X115432D02*
D03*
Y223488D02*
D03*
X120032D02*
D03*
X97322Y228311D02*
D03*
X101922D02*
D03*
X87837Y226638D02*
D03*
X92437D02*
D03*
X87775Y222504D02*
D03*
X92375D02*
D03*
X93458Y199965D02*
D03*
X88858D02*
D03*
X176135Y210595D02*
D03*
X171535D02*
D03*
X77117Y68866D02*
D03*
X81717D02*
D03*
X44378Y42291D02*
D03*
X48978D02*
D03*
X44476Y38354D02*
D03*
X49076D02*
D03*
X57997Y11779D02*
D03*
X53397D02*
D03*
X73745Y60500D02*
D03*
X69145D02*
D03*
X94539Y14732D02*
D03*
X99139D02*
D03*
X102905Y13158D02*
D03*
X107505D02*
D03*
X125615Y11386D02*
D03*
X121015D02*
D03*
X135100Y13059D02*
D03*
X130500D02*
D03*
X135162Y17193D02*
D03*
X130562D02*
D03*
X46802Y29102D02*
D03*
X51402D02*
D03*
D16*
X214665Y109817D02*
D03*
D17*
X8169Y191608D02*
D03*
X2657D02*
D03*
X131595Y130093D02*
D03*
X126083D02*
D03*
X135843Y184906D02*
D03*
Y180968D02*
D03*
X132693D02*
D03*
Y184906D02*
D03*
X87094Y54791D02*
D03*
Y58728D02*
D03*
X90244D02*
D03*
Y54791D02*
D03*
D18*
X30610Y191707D02*
D03*
X17028D02*
D03*
X30610Y187770D02*
D03*
X17028D02*
D03*
X218406Y159522D02*
D03*
X204823D02*
D03*
X218406Y155585D02*
D03*
X204823D02*
D03*
D19*
X16634Y157455D02*
D03*
X30413Y174187D02*
D03*
Y157455D02*
D03*
D20*
X15059Y40821D02*
D03*
X3248D02*
D03*
Y54797D02*
D03*
X15059D02*
D03*
D21*
X191169Y166886D02*
D03*
Y161768D02*
D03*
X198649Y164327D02*
D03*
X170587Y190909D02*
D03*
Y185791D02*
D03*
X178067Y188350D02*
D03*
X52350Y48787D02*
D03*
Y53905D02*
D03*
X44870Y51346D02*
D03*
D22*
X197394Y158636D02*
D03*
X194929D02*
D03*
Y155782D02*
D03*
X197394D02*
D03*
D23*
X185433Y115577D02*
D03*
X173622D02*
D03*
D24*
X179527Y115230D02*
D03*
D25*
Y106175D02*
D03*
D26*
X89764Y144364D02*
D03*
X85827D02*
D03*
Y141215D02*
D03*
X89764D02*
D03*
X135827Y117593D02*
D03*
Y112081D02*
D03*
D27*
X14617Y78813D02*
D03*
X8217D02*
D03*
X8268Y61490D02*
D03*
X14668D02*
D03*
X14519Y70250D02*
D03*
X8119D02*
D03*
X219834Y83144D02*
D03*
X213434D02*
D03*
D28*
X8465Y87376D02*
D03*
D29*
X14173Y90329D02*
D03*
Y88360D02*
D03*
Y86392D02*
D03*
Y84423D02*
D03*
X2756D02*
D03*
Y86392D02*
D03*
Y88360D02*
D03*
Y90329D02*
D03*
X113008Y218862D02*
D03*
X113008Y216894D02*
D03*
Y214925D02*
D03*
Y212957D02*
D03*
Y210988D02*
D03*
Y209020D02*
D03*
Y207051D02*
D03*
Y205083D02*
D03*
X93717Y205083D02*
D03*
X93717Y207051D02*
D03*
Y209020D02*
D03*
Y210988D02*
D03*
Y212957D02*
D03*
Y214925D02*
D03*
Y216894D02*
D03*
Y218862D02*
D03*
X109929Y20835D02*
D03*
X109929Y22803D02*
D03*
Y24772D02*
D03*
Y26740D02*
D03*
Y28709D02*
D03*
Y30677D02*
D03*
Y32646D02*
D03*
Y34614D02*
D03*
X129220Y34614D02*
D03*
X129220Y32646D02*
D03*
Y30677D02*
D03*
Y28709D02*
D03*
Y26740D02*
D03*
Y24772D02*
D03*
Y22803D02*
D03*
Y20835D02*
D03*
D30*
X4019Y119456D02*
D03*
X7987Y115489D02*
D03*
X11954Y111522D02*
D03*
X23924Y139360D02*
D03*
X27891Y135394D02*
D03*
X31858Y131426D02*
D03*
D31*
X6664Y136716D02*
D03*
X29214Y114166D02*
D03*
D32*
X10531Y177337D02*
D03*
X3445D02*
D03*
X6988Y186786D02*
D03*
D33*
X102756Y122711D02*
D03*
D34*
X104844Y142615D02*
D03*
X105957Y141502D02*
D03*
X107071Y140388D02*
D03*
X108185Y139275D02*
D03*
X109298Y138161D02*
D03*
X110412Y137048D02*
D03*
X111525Y135934D02*
D03*
X112639Y134821D02*
D03*
X113752Y133707D02*
D03*
X122661Y124799D02*
D03*
X100668Y102806D02*
D03*
X99554Y103919D02*
D03*
X98441Y105033D02*
D03*
X97327Y106147D02*
D03*
X96214Y107260D02*
D03*
X95100Y108374D02*
D03*
X93987Y109487D02*
D03*
X92873Y110601D02*
D03*
X91760Y111714D02*
D03*
X90646Y112828D02*
D03*
X89532Y113942D02*
D03*
X88419Y115055D02*
D03*
X87305Y116169D02*
D03*
X86192Y117282D02*
D03*
X85078Y118396D02*
D03*
X83965Y119509D02*
D03*
X82851Y120623D02*
D03*
X114866Y132594D02*
D03*
X115979Y131480D02*
D03*
X117093Y130366D02*
D03*
X118206Y129253D02*
D03*
X120434Y127026D02*
D03*
X119320Y128139D02*
D03*
X121547Y125912D02*
D03*
D35*
X122661Y120623D02*
D03*
X121547Y119509D02*
D03*
X120434Y118396D02*
D03*
X119320Y117282D02*
D03*
X118206Y116169D02*
D03*
X115979Y113942D02*
D03*
X114866Y112828D02*
D03*
X113752Y111714D02*
D03*
X109298Y107260D02*
D03*
X108185Y106147D02*
D03*
X107071Y105033D02*
D03*
X105957Y103919D02*
D03*
X104844Y102806D02*
D03*
X82851Y124799D02*
D03*
X83965Y125912D02*
D03*
X85078Y127026D02*
D03*
X86192Y128139D02*
D03*
X87305Y129253D02*
D03*
X88419Y130366D02*
D03*
X89532Y131480D02*
D03*
X90646Y132594D02*
D03*
X91760Y133707D02*
D03*
X92873Y134821D02*
D03*
X93987Y135934D02*
D03*
X95100Y137048D02*
D03*
X96214Y138161D02*
D03*
X97327Y139275D02*
D03*
X99554Y141502D02*
D03*
X100668Y142615D02*
D03*
X117093Y115055D02*
D03*
X98441Y140388D02*
D03*
X111525Y109487D02*
D03*
X110412Y108374D02*
D03*
X112639Y110601D02*
D03*
D36*
X63484Y142396D02*
D03*
X78248D02*
D03*
X60532Y98006D02*
D03*
X75295D02*
D03*
X93209D02*
D03*
X78445D02*
D03*
X140453Y140230D02*
D03*
X125689D02*
D03*
X158268D02*
D03*
X143504D02*
D03*
D37*
X67323Y136097D02*
D03*
X69685D02*
D03*
X72047D02*
D03*
X74409D02*
D03*
X64370Y104305D02*
D03*
X66732D02*
D03*
X69095D02*
D03*
X71457D02*
D03*
X89370D02*
D03*
X87008D02*
D03*
X84646D02*
D03*
X82284D02*
D03*
X136614Y133931D02*
D03*
X134252D02*
D03*
X131890D02*
D03*
X129527D02*
D03*
X154429D02*
D03*
X152067D02*
D03*
X149705D02*
D03*
X147343D02*
D03*
D38*
X149409Y119660D02*
D03*
X167831Y219945D02*
D03*
X55106Y19752D02*
D03*
D39*
X155315Y123498D02*
D03*
Y120939D02*
D03*
Y118380D02*
D03*
Y115821D02*
D03*
X143504D02*
D03*
Y118380D02*
D03*
Y120939D02*
D03*
Y123498D02*
D03*
X161925Y223783D02*
D03*
Y221224D02*
D03*
Y218665D02*
D03*
Y216106D02*
D03*
X173736D02*
D03*
Y218665D02*
D03*
Y221224D02*
D03*
Y223783D02*
D03*
X61012Y15913D02*
D03*
Y18472D02*
D03*
Y21032D02*
D03*
Y23591D02*
D03*
X49201D02*
D03*
Y21032D02*
D03*
Y18472D02*
D03*
Y15913D02*
D03*
D40*
X168662Y108537D02*
D03*
X161062D02*
D03*
X168662Y115034D02*
D03*
X161062D02*
D03*
X206064Y135112D02*
D03*
X198464D02*
D03*
X73501Y180476D02*
D03*
X65901D02*
D03*
X72320Y213055D02*
D03*
X64720D02*
D03*
X72320Y219748D02*
D03*
X64720D02*
D03*
X149436Y59220D02*
D03*
X157036D02*
D03*
X150617Y26642D02*
D03*
X158217D02*
D03*
X150617Y19949D02*
D03*
X158217D02*
D03*
D41*
X38976Y113459D02*
D03*
X46850D02*
D03*
X50787D02*
D03*
X42913D02*
D03*
X49311Y134915D02*
D03*
X41437D02*
D03*
X45374D02*
D03*
X53248D02*
D03*
X175689Y126451D02*
D03*
X167815D02*
D03*
X171752D02*
D03*
X179626D02*
D03*
D42*
X56299Y103616D02*
D03*
X33465D02*
D03*
X58760Y144758D02*
D03*
X35925D02*
D03*
X185138Y136293D02*
D03*
X162303D02*
D03*
D43*
X220079Y63260D02*
D03*
Y69660D02*
D03*
X215354D02*
D03*
Y63260D02*
D03*
D44*
X194390Y36293D02*
D03*
X205906D02*
D03*
D45*
X203642Y88853D02*
D03*
X198917D02*
D03*
X189764D02*
D03*
X194488D02*
D03*
X141059Y174965D02*
D03*
X145783D02*
D03*
X151886Y157642D02*
D03*
X147161D02*
D03*
X81878Y64732D02*
D03*
X77153D02*
D03*
X71051Y82055D02*
D03*
X75776D02*
D03*
D46*
X190748Y73498D02*
D03*
X193307D02*
D03*
X195866D02*
D03*
X198425D02*
D03*
X202756Y104108D02*
D03*
X200197D02*
D03*
X197638D02*
D03*
X195079D02*
D03*
X112713Y175457D02*
D03*
X110153D02*
D03*
X107595D02*
D03*
X105035D02*
D03*
X158382Y172898D02*
D03*
X155823D02*
D03*
X153264D02*
D03*
X150705D02*
D03*
X105035Y161480D02*
D03*
X107595D02*
D03*
X110153D02*
D03*
X112713D02*
D03*
X94602Y161579D02*
D03*
X92043D02*
D03*
X89484D02*
D03*
X86925D02*
D03*
X94602Y175457D02*
D03*
X92043D02*
D03*
X89484D02*
D03*
X86925D02*
D03*
X110224Y64240D02*
D03*
X112784D02*
D03*
X115342D02*
D03*
X117902D02*
D03*
X64555Y66799D02*
D03*
X67114D02*
D03*
X69673D02*
D03*
X72232D02*
D03*
X117902Y78216D02*
D03*
X115342D02*
D03*
X112784D02*
D03*
X110224D02*
D03*
X128335Y78118D02*
D03*
X130894D02*
D03*
X133453D02*
D03*
X136012D02*
D03*
X128335Y64240D02*
D03*
X130894D02*
D03*
X133453D02*
D03*
X136012D02*
D03*
D47*
X190748Y84817D02*
D03*
X193307D02*
D03*
X195866D02*
D03*
X198425D02*
D03*
X202756Y92790D02*
D03*
X200197D02*
D03*
X197638D02*
D03*
X195079D02*
D03*
X112713Y186776D02*
D03*
X110153D02*
D03*
X107595D02*
D03*
X105035D02*
D03*
X158382Y161579D02*
D03*
X155823D02*
D03*
X153264D02*
D03*
X150705D02*
D03*
X105035Y172799D02*
D03*
X107595D02*
D03*
X110153D02*
D03*
X112713D02*
D03*
X94602Y172898D02*
D03*
X92043D02*
D03*
X89484D02*
D03*
X86925D02*
D03*
X94602Y186776D02*
D03*
X92043D02*
D03*
X89484D02*
D03*
X86925D02*
D03*
X110224Y52921D02*
D03*
X112784D02*
D03*
X115342D02*
D03*
X117902D02*
D03*
X64555Y78118D02*
D03*
X67114D02*
D03*
X69673D02*
D03*
X72232D02*
D03*
X117902Y66898D02*
D03*
X115342D02*
D03*
X112784D02*
D03*
X110224D02*
D03*
X128335Y66799D02*
D03*
X130894D02*
D03*
X133453D02*
D03*
X136012D02*
D03*
X128335Y52921D02*
D03*
X130894D02*
D03*
X133453D02*
D03*
X136012D02*
D03*
D48*
X194587Y78026D02*
D03*
X198917Y99581D02*
D03*
X108874Y179984D02*
D03*
X154543Y168370D02*
D03*
X108874Y166008D02*
D03*
X90764Y166106D02*
D03*
X90764Y179984D02*
D03*
X114063Y59713D02*
D03*
X68394Y71327D02*
D03*
X114063Y73689D02*
D03*
X132173Y73590D02*
D03*
X132173Y59713D02*
D03*
D49*
X216142Y101451D02*
D03*
Y89640D02*
D03*
X123539Y166008D02*
D03*
Y177819D02*
D03*
D50*
X204823Y109817D02*
D03*
X194980D02*
D03*
X204823Y122415D02*
D03*
X194980D02*
D03*
D51*
X214665Y122415D02*
D03*
D52*
X211323Y129207D02*
D03*
Y132947D02*
D03*
Y136687D02*
D03*
X219976D02*
D03*
Y132947D02*
D03*
Y129207D02*
D03*
X68917Y198882D02*
D03*
Y202622D02*
D03*
Y206362D02*
D03*
X77571D02*
D03*
Y202622D02*
D03*
Y198882D02*
D03*
X154020Y40815D02*
D03*
Y37075D02*
D03*
Y33335D02*
D03*
X145366D02*
D03*
Y37075D02*
D03*
Y40815D02*
D03*
D53*
X219094Y150723D02*
D03*
Y143123D02*
D03*
X213090Y150723D02*
D03*
Y143123D02*
D03*
X205217D02*
D03*
Y150723D02*
D03*
X199213Y143123D02*
D03*
Y150723D02*
D03*
X128953Y211913D02*
D03*
Y219513D02*
D03*
X78155Y226871D02*
D03*
Y219271D02*
D03*
X93984Y27784D02*
D03*
Y20184D02*
D03*
X144782Y12826D02*
D03*
Y20426D02*
D03*
D59*
X131865Y197034D02*
D03*
X128612Y193782D02*
D03*
X85299Y203555D02*
D03*
X88551Y206807D02*
D03*
X88256Y217241D02*
D03*
X85004Y213988D02*
D03*
X87272Y210843D02*
D03*
X84019Y207590D02*
D03*
X91072Y42663D02*
D03*
X94324Y45915D02*
D03*
X137638Y36142D02*
D03*
X134386Y32889D02*
D03*
X134681Y22456D02*
D03*
X137933Y25709D02*
D03*
X135665Y28854D02*
D03*
X138918Y32107D02*
D03*
D60*
X123904Y198360D02*
D03*
X129278Y203734D02*
D03*
X99033Y41337D02*
D03*
X93659Y35963D02*
D03*
D61*
X141551Y220240D02*
D03*
Y213941D02*
D03*
X81386Y19457D02*
D03*
Y25756D02*
D03*
D62*
X138304Y201481D02*
D03*
X139696Y200089D02*
D03*
X141087Y198697D02*
D03*
X142480Y197305D02*
D03*
X143871Y195913D02*
D03*
X145263Y194521D02*
D03*
X146655Y193129D02*
D03*
X148047Y191737D02*
D03*
X161688Y205379D02*
D03*
X160296Y206770D02*
D03*
X158904Y208162D02*
D03*
X157512Y209554D02*
D03*
X156121Y210946D02*
D03*
X154729Y212338D02*
D03*
X153337Y213730D02*
D03*
X151945Y215122D02*
D03*
X84633Y38216D02*
D03*
X83241Y39608D02*
D03*
X81849Y41000D02*
D03*
X80458Y42392D02*
D03*
X79066Y43784D02*
D03*
X77674Y45176D02*
D03*
X76282Y46567D02*
D03*
X74890Y47959D02*
D03*
X61249Y34318D02*
D03*
X62641Y32926D02*
D03*
X64033Y31534D02*
D03*
X65425Y30143D02*
D03*
X66817Y28751D02*
D03*
X68208Y27359D02*
D03*
X69600Y25967D02*
D03*
X70992Y24575D02*
D03*
D63*
X151945Y191737D02*
D03*
X153337Y193129D02*
D03*
X154729Y194521D02*
D03*
X156121Y195913D02*
D03*
X157512Y197305D02*
D03*
X158904Y198697D02*
D03*
X160296Y200089D02*
D03*
X161688Y201481D02*
D03*
X148047Y215122D02*
D03*
X146655Y213730D02*
D03*
X145263Y212338D02*
D03*
X143871Y210946D02*
D03*
X142480Y209554D02*
D03*
X141087Y208162D02*
D03*
X139696Y206770D02*
D03*
X138304Y205379D02*
D03*
X70992Y47959D02*
D03*
X69600Y46567D02*
D03*
X68208Y45176D02*
D03*
X66817Y43784D02*
D03*
X65425Y42392D02*
D03*
X64033Y41000D02*
D03*
X62641Y39608D02*
D03*
X61249Y38216D02*
D03*
X74890Y24575D02*
D03*
X76282Y25967D02*
D03*
X77674Y27359D02*
D03*
X79066Y28751D02*
D03*
X80458Y30143D02*
D03*
X81849Y31534D02*
D03*
X83241Y32926D02*
D03*
X84633Y34318D02*
D03*
D64*
X149996Y203430D02*
D03*
X72941Y36267D02*
D03*
D65*
X131905Y166303D02*
D03*
Y163744D02*
D03*
Y161185D02*
D03*
Y158626D02*
D03*
X91031Y73394D02*
D03*
Y75953D02*
D03*
Y78512D02*
D03*
Y81071D02*
D03*
D66*
X143224Y166303D02*
D03*
Y163744D02*
D03*
Y161185D02*
D03*
Y158626D02*
D03*
X79713Y73394D02*
D03*
Y75953D02*
D03*
Y78512D02*
D03*
Y81071D02*
D03*
D67*
X136433Y162465D02*
D03*
X86504Y77232D02*
D03*
D68*
X103362Y211972D02*
D03*
X119575Y27724D02*
D03*
D69*
X110252Y202327D02*
D03*
X108283Y202327D02*
D03*
X106315D02*
D03*
X104347D02*
D03*
X102378D02*
D03*
X100409D02*
D03*
X98441D02*
D03*
X96472D02*
D03*
X96473Y221618D02*
D03*
X98441Y221618D02*
D03*
X100409D02*
D03*
X102378D02*
D03*
X104347D02*
D03*
X106315D02*
D03*
X108283D02*
D03*
X110252D02*
D03*
X112685Y37370D02*
D03*
X114654Y37370D02*
D03*
X116622D02*
D03*
X118591D02*
D03*
X120559D02*
D03*
X122528D02*
D03*
X124496D02*
D03*
X126465D02*
D03*
X126465Y18079D02*
D03*
X124496Y18079D02*
D03*
X122528D02*
D03*
X120559D02*
D03*
X118591D02*
D03*
X116622D02*
D03*
X114654D02*
D03*
X112685D02*
D03*
D71*
X61369Y11779D02*
D03*
X65969D02*
D03*
X67705Y82153D02*
D03*
X63105D02*
D03*
X55831Y60106D02*
D03*
X51231D02*
D03*
X45424Y11779D02*
D03*
X50024D02*
D03*
X74040Y57449D02*
D03*
X69440D02*
D03*
X99139Y11681D02*
D03*
X94539D02*
D03*
X107505Y16209D02*
D03*
X102905D02*
D03*
X129480Y39732D02*
D03*
X134080D02*
D03*
D72*
X99398Y73689D02*
D03*
Y61878D02*
D03*
D73*
X162402Y98032D02*
X163583Y99213D01*
X43972Y9374D02*
X45746D01*
X43970Y84180D02*
X62992D01*
X203150Y238976D02*
Y256299D01*
X57269Y99217D02*
X58474Y98012D01*
X204921Y231988D02*
Y238583D01*
X35039Y98032D02*
X36225Y99217D01*
X203543Y225295D02*
Y230807D01*
X33864Y49383D02*
X35037Y48211D01*
X202362Y190551D02*
X203543Y189370D01*
X18118Y0D02*
X19297Y1179D01*
X186651Y140686D02*
X187795Y141831D01*
X8957Y231988D02*
Y238583D01*
X61614Y157874D02*
Y227953D01*
X35039Y150295D02*
Y230807D01*
X163583Y99213D02*
X186614D01*
X161319Y11713D02*
Y81791D01*
X221457Y231988D02*
X221712D01*
X41634Y11713D02*
X43972Y9374D01*
X62992Y84180D02*
Y90803D01*
X203150Y256299D02*
X205118Y258268D01*
X35039Y71807D02*
Y98032D01*
X202362Y224114D02*
X203543Y225295D01*
Y170472D02*
Y189370D01*
X1103Y231988D02*
X8957D01*
X155709Y149114D02*
Y155512D01*
X8261Y256292D02*
X10236Y258268D01*
X27461Y238583D02*
X27559D01*
X61614Y157874D02*
X63976Y155512D01*
X186614Y99213D02*
X187795Y98032D01*
X157480Y84153D02*
Y90793D01*
X158957Y84153D02*
X161319Y81791D01*
X222835Y230865D02*
X222835Y1181D01*
X58474Y91950D02*
Y98012D01*
X20475Y49383D02*
X33864D01*
X19297Y1179D02*
Y13490D01*
X163546Y140686D02*
X186651D01*
X155709Y155512D02*
X178937D01*
X10236Y258268D02*
X27559D01*
X27461Y231988D02*
Y238583D01*
X33858Y231988D02*
X35039Y230807D01*
X157480Y90793D02*
X161266D01*
X189420Y2D02*
X221655D01*
X205118Y258268D02*
X222441D01*
X58474Y91950D02*
X59621Y90803D01*
X36225Y99217D02*
X57269D01*
X19289Y50568D02*
Y69015D01*
Y50568D02*
X20475Y49383D01*
X202362Y169291D02*
X203543Y170472D01*
X19297Y13490D02*
X20430Y14623D01*
X162402Y141831D02*
X163546Y140686D01*
X-11Y230874D02*
X1103Y231988D01*
X178937Y155512D02*
X181299Y157874D01*
Y220255D02*
Y227953D01*
X63976Y155512D02*
X66929D01*
X27461Y231988D02*
X33858D01*
X187795Y1181D02*
Y98032D01*
X157480Y84153D02*
X158957D01*
X221655Y2D02*
X222835Y1181D01*
X222441Y258268D02*
X222835Y257874D01*
X19289Y69015D02*
X20894Y70620D01*
X187795Y220265D02*
Y222933D01*
Y191732D02*
Y220265D01*
X20430Y14623D02*
X33816D01*
X188976Y169291D02*
X202362D01*
X-11Y230874D02*
X-11Y1192D01*
X162402Y141831D02*
Y147933D01*
X8661Y238583D02*
X8957D01*
X8261Y238983D02*
X8661Y238583D01*
X178937Y230315D02*
X181299Y227953D01*
X27559Y238583D02*
X27953Y238976D01*
X66929Y149114D02*
Y155512D01*
X161266Y90793D02*
X162402Y91929D01*
X187795Y1181D02*
X188975Y2D01*
X189420D01*
X45746Y9374D02*
X158980D01*
X59621Y90803D02*
X62992D01*
X203543Y238583D02*
X204921D01*
X187795Y222933D02*
X188976Y224114D01*
X187795Y191732D02*
X188976Y190551D01*
X-11Y1192D02*
X1181Y0D01*
X8261Y238983D02*
Y239363D01*
X181299Y157874D02*
Y220255D01*
X63976Y230315D02*
X178937D01*
X162402Y91929D02*
Y98032D01*
X158980Y9374D02*
X161319Y11713D01*
X222835Y238976D02*
Y257874D01*
X41634Y81844D02*
X43970Y84180D01*
X204724Y231988D02*
X204921D01*
X203543Y230807D02*
X204724Y231988D01*
X20894Y70620D02*
X33853D01*
X188976Y224114D02*
X202362D01*
X33816Y14623D02*
X35037Y15844D01*
X187795Y168110D02*
X188976Y169291D01*
X161221Y149114D02*
X162402Y147933D01*
X8261Y239363D02*
Y256292D01*
X27953Y238976D02*
Y257874D01*
X36220Y149114D02*
X66929D01*
X221712Y231988D02*
X222835Y230865D01*
X221457Y231988D02*
Y238583D01*
X222441D01*
X222835Y238976D01*
X41634Y11713D02*
Y81844D01*
X203150Y238976D02*
X203543Y238583D01*
X33853Y70620D02*
X35039Y71807D01*
X188976Y190551D02*
X202362D01*
X35037Y15844D02*
Y48211D01*
X187795Y141831D02*
Y168110D01*
X1181Y0D02*
X18118D01*
X155709Y149114D02*
X161221D01*
X27559Y258268D02*
X27953Y257874D01*
X61614Y227953D02*
X63976Y230315D01*
X35039Y150295D02*
X36220Y149114D01*
D76*
X25000Y210266D02*
D03*
Y24654D02*
D03*
X210630Y204778D02*
D03*
X71465Y165354D02*
D03*
X171465D02*
D03*
X151472Y74343D02*
D03*
X51472D02*
D03*
D77*
X25787Y191707D02*
D03*
X21850D02*
D03*
X25787Y187770D02*
D03*
X21850D02*
D03*
X213583Y159522D02*
D03*
X209646D02*
D03*
X213583Y155585D02*
D03*
X209646D02*
D03*
D78*
X12650Y130730D02*
D03*
D79*
X23228Y120152D02*
D03*
M02*
