M48
;Layer_Color=9474304
;FILE_FORMAT=2:5
INCH
;TYPE=PLATED
T1F00S00C0.01181
T2F00S00C0.03150
T3F00S00C0.09843
%
T01
X0119948Y0121971
Y0124334
Y0126696
Y0129452
X0124205Y0126991
X0129889Y0126302
X0129790Y0130633
X0129397Y0135751
X0129594Y0143625
X0129495Y0147168
X0119554
Y0143526
Y0139294
X0119948Y0155830
X0131759Y0155928
X0162798Y0150521
X0164047Y0148578
X0165704Y0147458
Y0149820
X0162968Y0146787
X0161503Y0136108
X0161471Y0131545
X0162124Y0126887
X0170133
X0177954Y0126852
X0173925Y0131841
X0180005Y0135822
X0184493Y0138976
X0188637Y0138599
X0188480Y0144987
X0189010Y0146926
X0187015Y0146452
X0187545Y0148391
X0185536Y0147903
X0186066Y0149843
X0184126Y0149396
X0184656Y0151336
X0182654Y0150885
X0183184Y0152825
X0185096Y0153439
X0186568Y0151950
X0187978Y0150457
X0189457Y0149005
X0190922Y0147540
X0190468Y0145541
X0190291Y0143514
X0192379Y0146155
X0192610Y0153485
X0193071Y0155787
X0191108Y0154987
X0194550Y0154336
X0194062Y0152033
X0196015Y0152871
X0195519Y0150648
X0197495Y0151493
X0205899Y0155603
X0215503Y0155509
X0217973Y0155682
X0216540Y0153771
X0225940Y0155735
X0225722Y0150107
X0231452Y0148245
X0233519
X0235586
X0237653
X0239720
X0241787
X0240802Y0146473
X0238735
X0236668
X0234601
X0232535
X0230468
X0231550Y0144702
X0233617
X0235684
X0237751
X0239818
X0241885
X0240999Y0139288
X0238932
X0236865
X0234798
X0232731
X0230664
X0231656Y0137464
X0233723
X0235790
X0237857
X0239924
X0241990
X0251531Y0137615
X0259588Y0136627
X0260423Y0134355
X0262443Y0134549
X0262967Y0136589
X0265310Y0136139
Y0133973
X0267180Y0132989
X0267182Y0135050
X0269249
X0269247Y0132989
X0269264Y0137136
X0267197
X0262997Y0141468
X0260029Y0141612
X0258224Y0146276
Y0148245
X0257436Y0150213
X0254287Y0151394
X0255468Y0147458
X0247094Y0151879
X0247200Y0155292
X0260132Y0128918
X0262368Y0128879
X0261482Y0126714
X0263648
X0259120Y0126812
X0267694Y0128253
X0270214Y0128235
X0272264Y0128216
X0274539Y0128178
X0306956Y0129058
X0308924
Y0127090
X0310893
Y0129058
Y0131026
X0308924
X0306956
Y0132995
X0308924
Y0134964
X0310893
Y0132995
Y0136932
Y0138900
Y0140869
X0308924
Y0138900
X0306956
Y0136932
X0308924
X0306956Y0134964
Y0140869
Y0142838
Y0144806
Y0146774
X0308924
X0310893
Y0144806
Y0142838
X0308924
Y0144806
Y0148743
Y0150712
X0310893
Y0148743
X0306956
Y0150712
Y0152680
X0308924
X0310893
Y0154649
X0308924
X0306956
Y0127090
Y0125121
X0308924
X0310893
Y0123152
X0308924
X0306956
Y0121184
X0308924
X0310893
Y0119216
Y0117247
X0308924
X0306956
Y0119216
X0308924
X0219801Y0128461
X0211275Y0129642
X0208322Y0129249
X0206255Y0129150
X0204188
X0202220
X0200251Y0129249
X0198184Y0129347
X0196216
X0198184Y0134564
X0201826Y0134670
X0205172
X0204877Y0139288
X0207338Y0147162
X0175448Y0152477
X0172086Y0153158
X0169958Y0155643
X0172987Y0142339
X0312861Y0142838
Y0144806
Y0146774
X0314830
Y0144806
Y0142838
Y0140869
Y0138900
Y0136932
X0312861
Y0138900
Y0140869
Y0134964
Y0132995
X0314830
Y0134964
Y0131026
X0312861
Y0129058
Y0127090
X0314830
Y0129058
Y0125121
Y0123152
X0312861
Y0125121
Y0121184
Y0119216
Y0117247
X0314830
Y0119216
Y0121184
X0318767Y0121282
Y0119314
X0320735
Y0121282
X0322704
Y0119314
Y0117345
X0320735
X0318767
Y0123251
Y0125219
X0320735
Y0123251
X0322704
Y0125219
X0324672
Y0123251
X0326641
Y0125219
Y0127188
Y0129156
Y0131125
X0324672
Y0129156
Y0127188
X0322704
Y0129156
Y0131125
X0320735
X0318767
Y0129156
Y0127188
X0320735
Y0129156
Y0133094
X0318767
Y0135062
X0320735
X0322704
Y0133094
X0324672
X0326641
Y0135062
X0324672
Y0137030
Y0138999
Y0140968
X0326641
Y0138999
Y0137030
X0322704
X0320735
X0318767
Y0138999
Y0140968
X0320735
Y0138999
X0322704
Y0140968
Y0142936
X0320735
X0318767
Y0144904
X0320735
Y0146873
X0318767
Y0148842
X0320735
X0322704
Y0150810
X0320735
X0318767
Y0152778
Y0154747
X0320735
X0322704
Y0152778
X0320735
X0324672
X0326641
Y0154747
X0324672
Y0150810
Y0148842
X0326641
Y0150810
X0329552Y0151762
X0333029Y0153525
X0332743Y0144806
X0335794
X0335893Y0141952
X0335007Y0134471
X0336090Y0128271
X0331635Y0129944
X0330479Y0127385
X0332645Y0120593
X0337110Y0120495
Y0117444
X0326641Y0117345
Y0119314
Y0121282
X0324672
Y0119314
Y0117345
Y0142936
X0326641
Y0144904
Y0146873
X0324672
Y0144904
X0322704
Y0146873
X0314830Y0148743
Y0150712
X0312861
Y0148743
Y0152680
Y0154649
X0314830
Y0152680
Y0156617
X0312861
Y0158586
Y0160554
X0314830
Y0162523
Y0164491
X0312861
Y0162523
X0312861Y0166460
Y0168428
Y0170397
Y0172365
X0314830Y0170397
Y0168428
Y0166460
X0318767Y0166558
Y0164590
X0320735
Y0162621
X0322704
Y0160652
X0320735
Y0158684
X0322704
Y0156716
X0320735
X0318767
Y0158684
Y0160652
Y0162621
X0324672Y0160652
Y0158684
X0326641
Y0156716
X0324672
X0332546Y0159570
X0334318Y0165869
X0334547Y0172759
X0331562Y0172857
X0331759Y0177483
X0325460Y0177090
X0326247Y0174334
X0323491Y0179058
X0321523Y0181026
X0319554Y0182995
X0320342Y0188999
X0323885Y0197759
X0328790Y0204598
X0331501Y0204868
X0334227Y0204700
X0336582Y0204747
X0335617Y0203016
X0332658Y0203106
X0330356Y0203093
X0330099Y0206385
X0332954Y0206488
X0335539Y0206437
X0335597Y0198152
X0336582Y0193268
X0332546
X0332940Y0215279
X0330578
X0328216
Y0218034
X0330578
X0332940
X0335302
Y0215279
X0319456Y0207995
X0321523Y0224924
X0313157Y0222857
X0312566Y0235357
X0314338Y0242641
X0314360Y0245009
X0316109Y0243920
X0316157Y0246619
X0316109Y0241066
X0321523Y0237523
X0327133Y0251696
X0329165Y0251677
X0332153Y0251499
Y0253861
X0333334Y0256617
X0330578
Y0259373
X0333334
X0336090
Y0256617
X0337861Y0251893
X0332153Y0249137
X0336877Y0244117
X0327822Y0256617
X0330479Y0264491
X0331899Y0265961
X0333727Y0266853
Y0264491
X0333058Y0270692
X0321424
X0321523Y0266853
Y0264885
X0316798
Y0266853
X0321424Y0274629
X0315349Y0279434
X0317192Y0282728
X0329306Y0283389
X0327428Y0286440
X0337861Y0287523
Y0283487
Y0279353
X0335893Y0291755
X0337271Y0297168
Y0299531
X0335302
X0325066Y0298448
X0313809Y0309275
X0314830Y0158586
X0310893
Y0160554
X0308924
X0306956
Y0158586
X0308924
Y0156617
X0310893
X0306956
Y0162523
Y0164491
X0308924
Y0162523
X0310893
X0310893Y0164491
Y0166460
Y0168428
Y0170397
X0308924
Y0168428
Y0166460
X0306956
Y0168428
X0306956Y0170397
X0306956Y0172365
Y0174334
Y0176302
Y0178271
Y0180239
Y0182208
Y0184176
Y0186145
Y0188113
Y0190082
Y0192050
Y0194019
Y0195987
X0306661Y0211243
X0310696Y0223054
X0311975Y0224924
X0310499Y0235259
X0302130Y0231324
X0302229Y0229189
X0298294Y0225023
X0295932Y0224826
X0296030Y0222759
X0293767
X0298590
X0290273Y0231567
X0286645Y0231790
X0283973Y0231831
X0285444Y0230156
X0284261Y0228386
X0286617Y0228343
X0278708Y0224038
X0276542Y0224137
X0273839Y0226302
X0273590Y0220298
X0265026Y0221578
X0265125Y0217149
X0258137Y0217211
X0258185Y0221471
X0251345Y0221578
X0248398Y0221081
X0248196Y0217247
X0244947Y0216973
X0239333Y0215565
X0239239Y0225318
X0236441Y0225369
X0235134Y0221225
X0232799Y0222273
X0232523Y0219708
X0230492Y0218151
X0229272Y0221303
X0222401Y0223781
X0222408Y0225908
X0217192Y0225121
Y0223152
X0218767Y0221971
X0218730Y0215966
X0209515Y0218534
X0209640Y0221320
X0205972Y0222267
X0203412
X0200853
X0198885Y0218521
X0201345Y0216369
X0200755Y0213878
X0198196Y0213900
X0198590Y0207582
X0193927Y0207897
X0192782Y0216952
X0192684Y0222267
X0187074Y0222365
X0186779Y0229649
X0189155Y0233487
X0193838Y0233408
X0196326Y0235259
X0206956Y0233782
X0212074
X0217192Y0231027
Y0229058
Y0227090
X0223183Y0237031
X0225164Y0235652
X0227034Y0236932
X0229003
X0230972
X0232940
Y0234963
X0230972
Y0232995
X0229003
Y0234963
X0227083Y0233942
X0229357Y0231039
X0234909Y0236932
X0239731Y0236243
X0239708Y0239331
X0242129Y0233487
X0245243Y0236440
X0250715Y0233487
X0257054Y0234471
X0255775Y0240869
X0258924Y0241263
X0260893
X0263747Y0238507
X0266109
X0268472
X0268560Y0232503
X0266554
X0275657Y0237523
X0285991Y0249235
X0291897Y0247956
X0296326Y0249531
X0300064Y0245513
X0311314Y0270889
X0309581Y0273496
X0307869Y0281993
X0295751Y0288989
Y0292532
X0292601
X0295849Y0296998
X0293093Y0300209
X0291027Y0301686
X0286696Y0300899
X0279723Y0303442
X0281282Y0309658
X0276755Y0309855
X0283895Y0311968
X0292601Y0309461
X0292995Y0305721
X0310499Y0309373
X0268101Y0311979
X0266224Y0310544
X0258831Y0309280
X0256371Y0308576
X0245428Y0308731
X0245531Y0306538
X0243487Y0307887
X0243888Y0309993
X0243701Y0312236
X0240687Y0310830
X0242011Y0309265
X0238312Y0306092
X0236240Y0306011
X0234052Y0306092
X0234038Y0303950
X0236029Y0303937
X0238087Y0303950
X0240239
X0240243Y0301900
X0240205Y0299841
X0242276
X0242169Y0297770
X0240098
X0237989Y0297695
X0235930Y0297682
X0233940Y0297695
X0234047Y0299766
X0236038Y0299753
X0238096Y0299766
X0238134Y0301825
X0236075Y0301812
X0234085Y0301825
X0233940Y0294895
X0235909
X0237877
X0239845
Y0292856
X0237877
X0235909
X0233940
Y0290793
X0235909
X0237877
X0239845
X0240002Y0283243
Y0281206
Y0279208
X0242019Y0279228
Y0281226
Y0283264
X0244026Y0283202
X0246054
Y0281165
Y0279167
X0244026
Y0281165
X0237954Y0281175
Y0279177
X0235957Y0279228
Y0281226
Y0283264
X0237954Y0283213
X0233940Y0283182
Y0281144
Y0279147
X0229412Y0287906
X0226853
X0224294
X0224734Y0292078
X0222659
X0222722Y0294120
Y0296186
Y0298253
X0224797
Y0296186
Y0294120
X0226835Y0294155
X0228851Y0294108
Y0296175
X0226835Y0296222
Y0298289
X0228851Y0298241
X0228788Y0292066
X0226773Y0292114
X0215731Y0291942
X0214747Y0289087
X0211302Y0288005
X0208743
X0206184
X0206536Y0292005
X0204461
X0204524Y0294047
Y0296114
Y0298181
X0206598
Y0296114
Y0294047
X0208637Y0294082
X0210653Y0294035
Y0296102
X0208637Y0296149
Y0298216
X0210653Y0298169
X0216716Y0298044
X0210590Y0291993
X0208575Y0292041
X0200279Y0310311
X0193389Y0309337
X0187779Y0309363
X0182365Y0294450
X0181381Y0289481
X0183108Y0259977
X0183924Y0257011
X0186090Y0262542
X0197146
X0202220Y0260554
X0206085Y0260659
X0206956Y0256617
X0202527Y0256322
X0198885Y0255731
X0201851Y0246667
X0210893Y0245200
X0216405Y0251105
X0218018Y0252516
X0218042Y0249593
X0219554Y0251105
X0219456Y0257995
X0225974Y0258999
X0225853Y0262542
X0228708Y0256257
X0231249Y0256571
X0237074Y0260948
X0239204Y0252350
X0239534Y0249235
X0235668Y0249207
X0228609Y0245200
X0226641Y0244806
X0224672
X0227034Y0246775
X0248442Y0245347
X0252822Y0244708
X0256168Y0244412
Y0247956
X0258137
X0253412Y0249038
X0250952Y0250785
X0246460Y0257389
X0266844Y0257517
X0266887Y0261245
X0272805Y0262444
X0274672Y0259546
X0265420Y0251885
X0268917Y0280451
X0270992
X0273031Y0280487
X0275046Y0280439
X0275108Y0282481
X0273093Y0282529
Y0284596
X0275108Y0284548
Y0286615
X0273093Y0286663
X0271054Y0286627
Y0284560
Y0282493
X0268979
Y0284560
Y0286627
X0257519Y0293688
X0257661Y0295682
X0255514Y0295631
X0255497Y0293567
X0254002Y0292201
X0249393Y0296076
X0252444Y0300013
X0230092Y0309963
X0213550Y0262542
X0196320Y0272479
X0187086Y0248349
X0181168Y0247759
X0178117Y0247660
X0173786Y0249727
X0169849Y0249629
X0162074Y0252188
X0157940Y0251794
X0157645Y0236637
X0160794Y0236538
X0164239Y0236637
X0167487Y0236538
X0170932
X0174111Y0236570
X0177724Y0236538
X0180972Y0236637
X0184370Y0236289
X0186324Y0238121
X0188301Y0240279
X0184121Y0240279
X0177914Y0230111
X0171523Y0226105
X0163550Y0226196
X0159515
X0177962Y0217099
X0180137Y0215672
X0180194Y0213114
X0176727Y0197458
X0181290Y0189472
X0183306Y0189424
X0185345Y0189460
X0187419
X0187357Y0187418
Y0185351
Y0183284
X0185283
Y0185351
Y0187418
X0183243Y0187382
X0181228Y0187430
Y0185363
X0183243Y0185315
Y0183248
X0181228Y0183296
X0176172Y0175614
X0176613Y0166469
X0175054Y0160253
X0179582Y0160056
X0172442Y0157943
X0163735Y0160450
X0163342Y0164190
X0163243Y0169702
X0165310Y0168225
X0169641Y0169013
X0160487Y0172913
X0160586Y0177379
X0163735
X0160586Y0180922
X0198818Y0176223
X0198676Y0174229
X0200823Y0174280
X0200839Y0176344
X0202334Y0177709
X0206944Y0173835
X0203893Y0169898
X0214060Y0170070
X0216132
X0216094Y0168011
X0216097Y0165961
X0218249
X0220308Y0165974
X0222298Y0165961
X0222285Y0163819
X0220097Y0163900
X0218024Y0163819
X0218203Y0168086
X0220261Y0168099
X0222252Y0168086
X0222289Y0170145
X0220299Y0170158
X0218240Y0170145
X0218348Y0172216
X0220406Y0172229
X0222397Y0172216
Y0175017
X0220428
X0218460
X0216491
Y0177055
X0218460
X0220428
X0222397
Y0179118
X0220428
X0218460
X0216491
X0216239Y0172141
X0214168
X0212849Y0162024
X0212449Y0159918
X0212636Y0157675
X0214600Y0157275
X0216738Y0157315
X0215649Y0159081
X0214326Y0160646
X0210908Y0161180
X0210806Y0163373
X0199966Y0161335
X0197505Y0160631
X0190113Y0159367
X0188235Y0157932
X0189708Y0156443
X0191661Y0157280
X0226244Y0159949
X0227486Y0171670
X0229501Y0171622
Y0173689
X0227486Y0173737
Y0175803
X0229501Y0175756
X0231540Y0175792
Y0173725
Y0171658
X0233615
Y0173725
Y0175792
X0233677Y0177833
X0231602
X0229563Y0177797
X0227548Y0177845
X0226924Y0182005
X0229483
X0232042
X0241590Y0180824
X0240605Y0177969
X0245746Y0177918
X0247762Y0177870
X0249800Y0177906
X0251875
X0251813Y0175864
Y0173798
Y0171730
X0249738
Y0173798
Y0175864
X0247699Y0175829
X0245684Y0175876
Y0173809
X0247699Y0173762
Y0171695
X0245684Y0171742
X0239621Y0171867
X0245035Y0181906
X0247593
X0250153
X0260017Y0197432
X0257881Y0207683
X0254200Y0207601
X0243439Y0207582
X0273035Y0207897
X0275460Y0208192
X0272113Y0211706
X0285401Y0215993
X0274956Y0180430
X0273972Y0175461
X0268558Y0160548
X0262948Y0160574
X0256058Y0159600
X0222397Y0186729
Y0188767
Y0190765
X0220379Y0190683
Y0188685
Y0186647
X0218383Y0186698
Y0188736
Y0190734
X0216335Y0190703
Y0188705
Y0186668
X0214317Y0186647
Y0188685
Y0190683
X0212310Y0190744
Y0188746
X0210283
Y0190744
Y0186709
X0212310
X0206956Y0213105
X0204200Y0213015
X0206168Y0219412
X0279609Y0272454
X0280165Y0294297
X0308924Y0176302
Y0174334
X0310893
Y0172365
X0308924
X0146916Y0160849
X0144948
X0142979
X0141011
X0139042
X0137074
X0138156Y0156555
X0131562Y0159570
X0131660Y0163113
X0129003Y0166066
X0119554Y0165278
Y0163310
Y0161342
X0119948Y0169806
X0119554Y0174334
Y0182897
X0119653Y0191656
X0119554Y0199530
Y0201499
Y0203467
Y0205436
X0118767Y0208586
Y0212129
X0123491Y0211932
Y0208684
X0125853Y0204255
X0139465Y0201408
X0141897Y0196676
X0143767Y0194609
X0145440Y0191952
X0149771
X0132349Y0193723
X0130782Y0186243
X0132735Y0176499
X0133334Y0220790
X0131365
X0135302
X0140420Y0221282
X0155676Y0226400
X0148689Y0235260
X0145933Y0238016
X0143620Y0240329
X0141799Y0242149
X0136582Y0245397
Y0251105
X0154259Y0252200
X0148196Y0259767
X0118829Y0260554
X0118793Y0263900
X0119554Y0246381
Y0244019
Y0242050
X0118964Y0224396
X0118946Y0216970
X0118964Y0287424
X0119653Y0302483
X0119357Y0306715
X0131147Y0306770
X0131234Y0302972
X0133334Y0311797
X0149869Y0311342
X0149279Y0307108
X0147458Y0302631
X0137383Y0297602
X0144967Y0287895
X0149869Y0313310
Y0315279
Y0332798
X0148728Y0337851
X0139617Y0337998
X0135017
X0128806Y0340377
X0122310Y0339688
Y0337719
Y0335751
Y0333782
X0125747Y0333487
X0123823Y0317395
X0128511Y0361564
X0131267Y0368257
X0137960
X0140716Y0361564
X0181798Y0341733
X0184073Y0341695
X0186123Y0341676
X0188643Y0341658
X0189156Y0336922
X0189154Y0334861
X0187087
X0187090Y0336922
X0187073Y0332776
X0189140
X0191027Y0333772
Y0335938
X0193894Y0335362
X0195913Y0335556
X0196748Y0333284
X0193369Y0333323
X0193340Y0328444
X0196308Y0328299
X0198113Y0323635
Y0321666
X0198901Y0319698
X0202050Y0318517
X0200869Y0322454
X0209243Y0318032
X0209137Y0314619
X0214550Y0321666
X0216617
X0218684
X0220751
X0222818
X0224885
X0225869Y0323438
X0223802
X0221735
X0219668
X0217601
X0215534
X0216519Y0325209
X0218586
X0220653
X0222720
X0224786
X0225672Y0330623
X0223605
X0221538
X0219472
X0217405
X0215338
X0214346Y0332447
X0216413
X0218480
X0220547
X0222614
X0224681
X0214452Y0325209
X0204806Y0332296
X0196204Y0340993
X0193969Y0341032
X0194854Y0343197
X0192689
X0197217Y0343099
X0236535Y0341450
X0245062Y0340268
X0248015Y0340662
X0250082Y0340761
X0252149
X0254117
X0256086Y0340662
X0258153Y0340564
X0260121
X0258153Y0335347
X0254511Y0335241
X0251164
X0251460Y0330623
X0248999Y0322749
X0250438Y0314308
X0240834Y0314402
X0238364Y0314229
X0239599Y0312596
X0241737Y0312636
X0239797Y0316140
X0230397Y0314177
X0230615Y0319804
X0258842Y0318418
X0260818Y0319263
X0260322Y0317040
X0262275Y0317878
X0261787Y0315575
X0263727Y0316426
X0263266Y0314124
X0265229Y0314924
X0264675Y0312631
X0266629Y0313468
X0271241Y0316472
X0273153Y0317086
X0273683Y0319026
X0271680Y0318575
X0272211Y0320515
X0270271Y0320069
X0270801Y0322008
X0268792Y0321520
X0269322Y0323459
X0267327Y0322985
X0267857Y0324924
X0265869Y0324370
X0266046Y0326397
X0265415Y0322371
X0263958Y0323756
X0266880Y0320906
X0268359Y0319455
X0269769Y0317961
X0280889Y0317434
X0284251Y0316753
X0286379Y0314268
X0290633Y0320091
Y0322454
X0292290Y0321334
X0293369Y0323124
X0293539Y0319390
X0294834Y0333804
X0294865Y0338366
X0294212Y0343024
X0286204
X0278383Y0343059
X0282412Y0338071
X0276331Y0334089
X0271844Y0330935
X0267700Y0331312
X0283349Y0327572
X0311680Y0331814
X0311171Y0313526
X0318373Y0327483
X0320342Y0329452
X0323491Y0331027
X0328142Y0336145
X0326542Y0338802
X0326445Y0343737
X0323321Y0343719
X0329790Y0341656
X0316405Y0336538
X0314042
X0323393Y0361564
X0326149Y0368257
X0332842
X0335597Y0361564
X0337664Y0324727
Y0313704
T02
X0181660Y0204083
X0185204Y0200934
X0188747Y0204083
X0192290Y0200934
X0195586Y0204284
X0199129Y0201135
X0202673Y0204284
X0206216Y0201135
X0210007Y0204083
X0213550Y0200934
X0217093Y0204083
X0220637Y0200934
X0223933Y0204284
X0227476Y0201135
X0231019Y0204284
X0234562Y0201135
X0238353Y0204083
X0241897Y0200934
X0245440Y0204083
X0248983Y0200934
X0252279Y0204284
X0255822Y0201135
X0259366Y0204284
X0262909Y0201135
X0266700Y0204083
X0266846Y0266095
X0263157Y0268650
X0259759Y0266095
X0256070Y0268650
X0252920Y0265895
X0249377Y0268650
X0245834Y0265895
X0242290Y0268650
X0238353Y0265895
X0234810Y0268650
X0231267Y0265895
X0227724Y0268650
X0224574Y0265895
X0221030Y0268650
X0217487Y0265895
X0213944Y0268650
X0210007Y0265895
X0206464Y0268650
X0202920Y0265895
X0199523Y0268851
X0196227Y0265895
X0192684Y0268650
X0189141Y0265895
X0185598Y0268650
X0270637
X0142290Y0348965
X0139141Y0351721
X0135204Y0348965
X0130873Y0351721
X0127724Y0348965
X0323393
X0326542Y0351721
X0329692Y0348965
X0332842Y0351721
X0336385Y0348965
T03
X0141700Y0139761
X0168172Y0189450
X0268172
X0288164Y0280461
X0188164
X0141700Y0325373
X0327330Y0319885
M30
