G04*
G04 #@! TF.GenerationSoftware,Altium Limited,Altium Designer,21.7.2 (23)*
G04*
G04 Layer_Physical_Order=4*
G04 Layer_Color=16711680*
%FSLAX25Y25*%
%MOIN*%
G70*
G04*
G04 #@! TF.SameCoordinates,36E82812-18AB-4B4F-9185-4EDF9D12745B*
G04*
G04*
G04 #@! TF.FilePolarity,Positive*
G04*
G01*
G75*
%ADD11C,0.01000*%
%ADD12R,0.02362X0.01575*%
%ADD13R,0.04331X0.02559*%
%ADD14R,0.02362X0.02500*%
%ADD15R,0.02500X0.02362*%
%ADD17R,0.02362X0.02756*%
%ADD20R,0.01378X0.03150*%
%ADD21R,0.03937X0.02165*%
%ADD27R,0.03800X0.03937*%
%ADD40R,0.04500X0.05906*%
%ADD43R,0.03937X0.03800*%
%ADD54C,0.01181*%
%ADD55C,0.00787*%
%ADD56C,0.01575*%
%ADD58C,0.01968*%
%ADD70C,0.01001*%
%ADD73C,0.00039*%
%ADD74C,0.00500*%
%ADD75C,0.03150*%
%ADD76C,0.01772*%
%ADD77C,0.17717*%
%ADD78C,0.01102*%
%ADD79C,0.01476*%
%ADD80C,0.02067*%
%ADD81C,0.02362*%
%ADD82C,0.01968*%
%ADD83R,0.02165X0.01654*%
%ADD84R,0.01181X0.02362*%
%ADD85R,0.02362X0.01181*%
%ADD86R,0.01575X0.07874*%
%ADD87R,0.13780X0.35433*%
%ADD88R,0.14567X0.05906*%
%ADD89R,0.12303X0.07284*%
%ADD90R,0.05118X0.02165*%
%ADD91R,0.05807X0.03150*%
G36*
X222032Y239386D02*
X203952D01*
Y255967D01*
X205110Y257124D01*
X205610Y256917D01*
Y253051D01*
X207149D01*
X207276Y253026D01*
X207618D01*
X208103Y252541D01*
X208197Y252313D01*
X208612Y251898D01*
X209155Y251673D01*
X209742D01*
X210285Y251898D01*
X210700Y252313D01*
X210925Y252856D01*
Y253443D01*
X210700Y253986D01*
X210285Y254401D01*
X209742Y254626D01*
X209730D01*
X209090Y255267D01*
X208664Y255551D01*
X208563Y255571D01*
Y257465D01*
X217421D01*
Y255651D01*
X217331D01*
X216828Y255551D01*
X216403Y255267D01*
X215701Y254565D01*
X215305Y254401D01*
X214890Y253986D01*
X214665Y253443D01*
Y252856D01*
X214890Y252313D01*
X215305Y251898D01*
X215848Y251673D01*
X216435D01*
X216978Y251898D01*
X217393Y252313D01*
X217557Y252709D01*
X217874Y253026D01*
X218709D01*
X218835Y253051D01*
X220374D01*
Y257465D01*
X222032D01*
Y239386D01*
D02*
G37*
G36*
X27150D02*
X9070D01*
Y255967D01*
X10228Y257124D01*
X10728Y256917D01*
Y253051D01*
X12267D01*
X12394Y253026D01*
X12736D01*
X13221Y252541D01*
X13315Y252313D01*
X13731Y251898D01*
X14273Y251673D01*
X14861D01*
X15403Y251898D01*
X15819Y252313D01*
X16043Y252856D01*
Y253443D01*
X15819Y253986D01*
X15403Y254401D01*
X14861Y254626D01*
X14849D01*
X14208Y255267D01*
X13782Y255551D01*
X13681Y255571D01*
Y257465D01*
X22539D01*
Y255651D01*
X22449D01*
X21947Y255551D01*
X21521Y255267D01*
X20819Y254565D01*
X20424Y254401D01*
X20008Y253986D01*
X19783Y253443D01*
Y252856D01*
X20008Y252313D01*
X20424Y251898D01*
X20966Y251673D01*
X21553D01*
X22096Y251898D01*
X22511Y252313D01*
X22675Y252709D01*
X22993Y253026D01*
X23827D01*
X23954Y253051D01*
X25492D01*
Y257465D01*
X27150D01*
Y239386D01*
D02*
G37*
G36*
X85670Y229043D02*
X80406Y223779D01*
X80102Y223323D01*
X79995Y222785D01*
Y222173D01*
X79579Y221895D01*
X79507Y221925D01*
X78920D01*
X78377Y221700D01*
X78106Y221430D01*
X78030Y221506D01*
X77487Y221731D01*
X76900D01*
X76357Y221506D01*
X76236Y221385D01*
X75647Y221502D01*
X75578Y221667D01*
X75557Y221688D01*
Y223193D01*
X72988D01*
X72750Y223291D01*
X72163D01*
X71925Y223193D01*
X70921D01*
X70683Y223291D01*
X70096D01*
X69858Y223193D01*
X62432D01*
Y225800D01*
X62445Y225912D01*
X62528Y226378D01*
X62528D01*
X62516Y226872D01*
X62588Y227160D01*
X62588D01*
X62723Y227613D01*
X62730Y227632D01*
X62754Y227678D01*
X62937Y228028D01*
X63051Y228182D01*
X63114Y228189D01*
X63122Y228192D01*
X63200Y228381D01*
X63372Y228565D01*
X63556Y228737D01*
X63745Y228815D01*
X63748Y228823D01*
X63755Y228886D01*
X63910Y229001D01*
X63932Y229014D01*
X64305Y229207D01*
X64455Y229266D01*
X64776Y229349D01*
X64777Y229349D01*
X64781Y229350D01*
X64936Y229415D01*
X65083Y229438D01*
X65559Y229409D01*
Y229409D01*
X66036Y229491D01*
X66153Y229504D01*
X85479D01*
X85670Y229043D01*
D02*
G37*
G36*
X221125Y231199D02*
X221370Y231113D01*
X221590Y230975D01*
X221774Y230791D01*
X221912Y230571D01*
X221998Y230326D01*
X222032Y230022D01*
Y166025D01*
X221532Y165691D01*
X221455Y165723D01*
X220868D01*
X220696Y165652D01*
X220196Y165986D01*
Y175563D01*
X220444Y175812D01*
X220669Y176354D01*
Y176941D01*
X220444Y177484D01*
X220029Y177899D01*
X219487Y178124D01*
X218899D01*
X218357Y177899D01*
X217941Y177484D01*
X217842Y177245D01*
X217342Y177344D01*
Y179107D01*
X217266Y179491D01*
X217048Y179816D01*
X199822Y197042D01*
Y216317D01*
X206197Y222691D01*
X208758D01*
X209006Y222443D01*
X209549Y222219D01*
X209834D01*
X209926Y222130D01*
X210127Y221719D01*
X209966Y221331D01*
Y220744D01*
X210191Y220201D01*
X210606Y219786D01*
X211149Y219561D01*
X211736D01*
X212279Y219786D01*
X212694Y220201D01*
X212919Y220744D01*
Y221331D01*
X212694Y221874D01*
X212279Y222289D01*
X211736Y222514D01*
X211451D01*
X211359Y222603D01*
X211158Y223014D01*
X211319Y223401D01*
Y223989D01*
X211094Y224531D01*
X210679Y224947D01*
X210136Y225171D01*
X209549D01*
X209006Y224947D01*
X208758Y224698D01*
X205781D01*
X205397Y224622D01*
X205071Y224405D01*
X198109Y217442D01*
X197892Y217117D01*
X197815Y216733D01*
Y196626D01*
X197892Y196242D01*
X198109Y195917D01*
X202279Y191747D01*
X202160Y191431D01*
X202032Y191287D01*
X201665Y191328D01*
X201619Y191324D01*
X201575Y191333D01*
X189809D01*
X189506Y191367D01*
X189260Y191453D01*
X189040Y191591D01*
X188856Y191775D01*
X188718Y191995D01*
X188632Y192241D01*
X188598Y192544D01*
Y222101D01*
X188632Y222404D01*
X188718Y222649D01*
X188856Y222869D01*
X189040Y223053D01*
X189260Y223191D01*
X189506Y223277D01*
X189809Y223312D01*
X201575D01*
X201619Y223320D01*
X201665Y223317D01*
X202103Y223366D01*
X202189Y223393D01*
X202278Y223406D01*
X202694Y223552D01*
X202772Y223597D01*
X202856Y223630D01*
X203229Y223864D01*
X203295Y223926D01*
X203370Y223976D01*
X203681Y224288D01*
X203732Y224363D01*
X203794Y224428D01*
X204028Y224802D01*
X204060Y224886D01*
X204106Y224964D01*
X204252Y225380D01*
X204264Y225469D01*
X204292Y225555D01*
X204341Y225993D01*
X204337Y226038D01*
X204346Y226083D01*
Y230022D01*
X204380Y230325D01*
X204466Y230571D01*
X204604Y230791D01*
X204788Y230975D01*
X205008Y231113D01*
X205254Y231199D01*
X205557Y231233D01*
X220821D01*
X221125Y231199D01*
D02*
G37*
G36*
X33329Y231199D02*
X33575Y231113D01*
X33795Y230975D01*
X33978Y230791D01*
X34117Y230571D01*
X34202Y230326D01*
X34237Y230022D01*
Y214454D01*
X33746Y214356D01*
X33548Y214835D01*
X32492Y216415D01*
X31149Y217758D01*
X29569Y218814D01*
X27814Y219541D01*
X25950Y219912D01*
X24050D01*
X22186Y219541D01*
X20431Y218814D01*
X18851Y217758D01*
X17508Y216415D01*
X16452Y214835D01*
X15725Y213080D01*
X15677Y212837D01*
X15177Y212886D01*
Y218331D01*
X18260Y221415D01*
X18611D01*
X19154Y221640D01*
X19569Y222055D01*
X19794Y222598D01*
Y223185D01*
X19569Y223727D01*
X19154Y224143D01*
X18611Y224367D01*
X18024D01*
X17481Y224143D01*
X17066Y223727D01*
X16841Y223185D01*
Y222834D01*
X13464Y219456D01*
X13246Y219131D01*
X13170Y218747D01*
Y205093D01*
X13246Y204709D01*
X13464Y204383D01*
X22241Y195605D01*
X22567Y195388D01*
X22951Y195311D01*
X25390D01*
X26846Y193855D01*
X26563Y193431D01*
X26163Y193597D01*
X25411D01*
X24717Y193309D01*
X24185Y192777D01*
X24090Y192546D01*
X23548D01*
X23452Y192777D01*
X22921Y193309D01*
X22226Y193597D01*
X21475D01*
X20780Y193309D01*
X20248Y192777D01*
X19961Y192083D01*
Y191331D01*
X20248Y190636D01*
X20780Y190105D01*
X21011Y190009D01*
Y189468D01*
X20780Y189372D01*
X20248Y188840D01*
X19961Y188146D01*
Y187394D01*
X20248Y186699D01*
X20780Y186168D01*
X21475Y185880D01*
X22226D01*
X22921Y186168D01*
X23452Y186699D01*
X23548Y186931D01*
X24090D01*
X24185Y186699D01*
X24717Y186168D01*
X25411Y185880D01*
X26163D01*
X26764Y186129D01*
X27264Y185921D01*
Y174290D01*
X27264Y174290D01*
X26766Y173791D01*
X26496Y173140D01*
Y172435D01*
X26766Y171784D01*
X27264Y171286D01*
X27264Y171286D01*
Y137160D01*
X27341Y136776D01*
X27558Y136450D01*
X29989Y134019D01*
X29798Y133557D01*
X26398D01*
X26339Y133545D01*
X26280Y133557D01*
X15439D01*
X3605Y145390D01*
Y145741D01*
X3381Y146283D01*
X3115Y146549D01*
Y147727D01*
X3345Y147957D01*
X3569Y148500D01*
Y149087D01*
X3345Y149630D01*
X2929Y150045D01*
X2387Y150270D01*
X1799D01*
X1303Y150064D01*
X1075Y150146D01*
X803Y150298D01*
Y190921D01*
X1303Y191021D01*
X1406Y190772D01*
X1821Y190357D01*
X2364Y190132D01*
X2951D01*
X3494Y190357D01*
X3769Y190632D01*
X13390D01*
X13611Y190411D01*
X14154Y190186D01*
X14741D01*
X15223Y190386D01*
X15491Y190284D01*
X15723Y190143D01*
Y139246D01*
X15792Y138898D01*
X15990Y138602D01*
X18406Y136186D01*
Y135705D01*
X18630Y135162D01*
X19046Y134747D01*
X19588Y134522D01*
X20176D01*
X20718Y134747D01*
X21134Y135162D01*
X21358Y135705D01*
Y136292D01*
X21134Y136834D01*
X20718Y137250D01*
X20176Y137475D01*
X19694D01*
X17545Y139624D01*
Y195514D01*
X17885Y195854D01*
X18110Y196397D01*
Y196984D01*
X17885Y197527D01*
X17470Y197942D01*
X16928Y198167D01*
X16340D01*
X15798Y197942D01*
X15382Y197527D01*
X15157Y196984D01*
Y196397D01*
X15382Y195854D01*
X15723Y195514D01*
Y193182D01*
X15491Y193041D01*
X15223Y192940D01*
X14741Y193139D01*
X14154D01*
X13611Y192914D01*
X13336Y192639D01*
X3715D01*
X3494Y192860D01*
X2951Y193085D01*
X2364D01*
X1821Y192860D01*
X1406Y192445D01*
X1303Y192196D01*
X803Y192295D01*
Y230022D01*
X837Y230325D01*
X923Y230571D01*
X1061Y230791D01*
X1245Y230975D01*
X1465Y231113D01*
X1710Y231199D01*
X2014Y231233D01*
X33026D01*
X33329Y231199D01*
D02*
G37*
G36*
X176904Y229490D02*
X177370Y229409D01*
X177370Y229409D01*
Y229409D01*
X177815Y229433D01*
X178152Y229349D01*
X178605Y229214D01*
X178624Y229207D01*
X178670Y229183D01*
X179020Y229000D01*
X179174Y228886D01*
X179181Y228823D01*
X179184Y228815D01*
X179373Y228737D01*
X179557Y228565D01*
X179729Y228381D01*
X179807Y228192D01*
X179815Y228189D01*
X179878Y228182D01*
X179993Y228027D01*
X180006Y228006D01*
X180199Y227632D01*
X180260Y227478D01*
X180341Y227161D01*
X180341Y227160D01*
X180342Y227156D01*
X180413Y226873D01*
X180401Y226378D01*
X180401D01*
X180484Y225912D01*
X180497Y225800D01*
Y213910D01*
X179997Y213703D01*
X177725Y215974D01*
X177700Y216465D01*
X177747Y216608D01*
X178360Y217220D01*
X178428D01*
X178971Y217445D01*
X179386Y217860D01*
X179611Y218403D01*
Y218990D01*
X179386Y219533D01*
X178971Y219948D01*
X178428Y220173D01*
X177841D01*
X177726Y220125D01*
X177443Y220549D01*
X178829Y221936D01*
X179002Y222007D01*
X179417Y222422D01*
X179642Y222965D01*
Y223552D01*
X179417Y224095D01*
X179002Y224510D01*
X178459Y224735D01*
X177872D01*
X177329Y224510D01*
X176914Y224095D01*
X176842Y223922D01*
X174171Y221251D01*
X173074D01*
X172752Y221618D01*
X172752Y221751D01*
Y225752D01*
X166847D01*
Y221751D01*
X166847Y221618D01*
X166525Y221251D01*
X165469D01*
Y221421D01*
X161531D01*
Y220082D01*
X161031Y219869D01*
X160944Y219952D01*
Y225437D01*
X161986Y226480D01*
X162520Y226700D01*
X162935Y227116D01*
X163160Y227658D01*
Y228246D01*
X162935Y228788D01*
X162719Y229005D01*
X162926Y229504D01*
X176776D01*
X176904Y229490D01*
D02*
G37*
G36*
X15725Y207453D02*
X16452Y205697D01*
X17508Y204117D01*
X18851Y202774D01*
X20431Y201718D01*
X22186Y200991D01*
X24050Y200620D01*
X25950D01*
X27814Y200991D01*
X29569Y201718D01*
X31149Y202774D01*
X32492Y204117D01*
X33548Y205697D01*
X33746Y206176D01*
X34237Y206078D01*
Y193084D01*
X34176Y193047D01*
X33737Y192930D01*
X33415Y193252D01*
X32872Y193477D01*
X32285D01*
X31742Y193252D01*
X31327Y192837D01*
X31102Y192294D01*
Y191707D01*
X31327Y191164D01*
X31742Y190749D01*
X32285Y190524D01*
X32872D01*
X33415Y190749D01*
X33737Y191070D01*
X34176Y190954D01*
X34237Y190917D01*
Y151077D01*
X34245Y151032D01*
X34242Y150987D01*
X34291Y150549D01*
X34318Y150463D01*
X34331Y150373D01*
X34477Y149958D01*
X34522Y149880D01*
X34555Y149796D01*
X34789Y149422D01*
X34851Y149357D01*
X34901Y149282D01*
X35213Y148970D01*
X35288Y148920D01*
X35353Y148858D01*
X35727Y148624D01*
X35811Y148591D01*
X35889Y148545D01*
X36305Y148400D01*
X36394Y148387D01*
X36480Y148360D01*
X36918Y148310D01*
X36963Y148314D01*
X37008Y148305D01*
X50098D01*
Y145021D01*
X55766D01*
X59479Y141307D01*
X59805Y141089D01*
X60189Y141013D01*
X66027D01*
X66388Y140652D01*
X66931Y140427D01*
X67518D01*
X68061Y140652D01*
X68476Y141067D01*
X68701Y141610D01*
Y142197D01*
X68649Y142323D01*
X68504Y142789D01*
X68504Y142789D01*
X68504Y142789D01*
Y145663D01*
X69004Y145997D01*
X69096Y145959D01*
X69683D01*
X69972Y146078D01*
X70472Y145777D01*
Y145349D01*
X75423D01*
Y141904D01*
X79498D01*
Y145152D01*
X79560D01*
Y145152D01*
X80060Y145426D01*
X80085Y145412D01*
Y145152D01*
X84160D01*
Y148305D01*
X88120D01*
Y146356D01*
X87909Y145846D01*
Y145258D01*
X88133Y144716D01*
X88549Y144300D01*
X89091Y144076D01*
X89679D01*
X90221Y144300D01*
X90636Y144716D01*
X90776Y145053D01*
X92195D01*
Y148305D01*
X99107D01*
Y145661D01*
X99102Y145660D01*
X98842Y145486D01*
X98842Y145486D01*
X97654Y144299D01*
X91732D01*
Y140224D01*
X91732D01*
X91896Y139724D01*
X85209Y133036D01*
X84858D01*
X84315Y132811D01*
X83900Y132396D01*
X83675Y131854D01*
Y131266D01*
X83900Y130724D01*
X84315Y130308D01*
X84858Y130084D01*
X85445D01*
X85988Y130308D01*
X86403Y130724D01*
X86628Y131266D01*
Y131617D01*
X93450Y138440D01*
X99311D01*
X99695Y138516D01*
X100021Y138733D01*
X102699Y141412D01*
X103050D01*
X103592Y141636D01*
X104007Y142052D01*
X104232Y142594D01*
Y143182D01*
X104052Y143616D01*
X104269Y144116D01*
X107185D01*
Y140322D01*
X109664D01*
X109855Y139860D01*
X95881Y125886D01*
X74423D01*
X74074Y125816D01*
X73778Y125619D01*
X73540Y125380D01*
X73031Y125578D01*
X72853Y126008D01*
X72438Y126423D01*
X71895Y126648D01*
X71453D01*
X68425Y129676D01*
X68164Y129850D01*
X67857Y129911D01*
X27332D01*
X27025Y129850D01*
X26765Y129676D01*
X26765Y129676D01*
X25545Y128456D01*
X25393Y128519D01*
X24806D01*
X24263Y128294D01*
X23848Y127879D01*
X23623Y127336D01*
Y126749D01*
X23848Y126206D01*
X24263Y125791D01*
X24806Y125566D01*
X24982D01*
X25398Y125520D01*
X25444Y125104D01*
Y124928D01*
X25668Y124385D01*
X26084Y123970D01*
X26626Y123745D01*
X27214D01*
X27487Y123858D01*
X27870Y123476D01*
X27757Y123202D01*
Y122615D01*
X27981Y122072D01*
X28397Y121657D01*
X28939Y121432D01*
X29527D01*
X30069Y121657D01*
X30485Y122072D01*
X30709Y122615D01*
Y123099D01*
X31979Y124369D01*
X36233D01*
X36441Y123869D01*
X33716Y121144D01*
X33086D01*
X32825Y121404D01*
X32283Y121629D01*
X31695D01*
X31153Y121404D01*
X30737Y120989D01*
X30513Y120446D01*
Y119859D01*
X30737Y119316D01*
X31153Y118901D01*
X31695Y118676D01*
X32283D01*
X32825Y118901D01*
X33241Y119316D01*
X33332Y119538D01*
X34048D01*
X34356Y119599D01*
X34616Y119773D01*
X37645Y122802D01*
X42671D01*
X42878Y122302D01*
X42843Y122267D01*
X42618Y121725D01*
Y121138D01*
X42843Y120595D01*
X43258Y120180D01*
X43801Y119955D01*
X44388D01*
X44931Y120180D01*
X45346Y120595D01*
X45571Y121138D01*
Y121725D01*
X45346Y122267D01*
X45311Y122302D01*
X45518Y122802D01*
X49363D01*
X49571Y122302D01*
X49536Y122267D01*
X49311Y121725D01*
Y121138D01*
X49536Y120595D01*
X49951Y120180D01*
X50494Y119955D01*
X51081D01*
X51624Y120180D01*
X52039Y120595D01*
X52264Y121138D01*
Y121725D01*
X52039Y122267D01*
X52004Y122302D01*
X52211Y122802D01*
X55955D01*
X56162Y122302D01*
X56159Y122300D01*
X55935Y121757D01*
Y121169D01*
X56159Y120627D01*
X56574Y120212D01*
X57117Y119987D01*
X57705D01*
X58247Y120212D01*
X58662Y120627D01*
X58887Y121169D01*
Y121757D01*
X58662Y122300D01*
X58659Y122302D01*
X58867Y122802D01*
X62749D01*
X62889Y122577D01*
X62994Y122302D01*
X62795Y121823D01*
Y121236D01*
X63020Y120693D01*
X63435Y120278D01*
X63978Y120053D01*
X64565D01*
X65108Y120278D01*
X65523Y120693D01*
X65694Y121106D01*
X66194Y121006D01*
Y120888D01*
X66419Y120346D01*
X66834Y119931D01*
X66974Y119331D01*
X66887Y119209D01*
X35842D01*
X35494Y119139D01*
X35198Y118942D01*
X23908Y107652D01*
X23427D01*
X22884Y107427D01*
X22469Y107012D01*
X22244Y106469D01*
Y105882D01*
X22469Y105339D01*
X22884Y104924D01*
X23427Y104699D01*
X24014D01*
X24557Y104924D01*
X24972Y105339D01*
X25197Y105882D01*
Y106363D01*
X36220Y117386D01*
X38747D01*
X38939Y116924D01*
X31418Y109403D01*
X31220Y109108D01*
X31151Y108759D01*
Y95975D01*
X22953Y87778D01*
X22472D01*
X21929Y87553D01*
X21514Y87138D01*
X21289Y86595D01*
Y86008D01*
X21514Y85465D01*
X21929Y85050D01*
X22472Y84825D01*
X23059D01*
X23602Y85050D01*
X24017Y85465D01*
X24242Y86008D01*
Y86489D01*
X32706Y94954D01*
X32904Y95249D01*
X32973Y95598D01*
Y108382D01*
X40584Y115992D01*
X59485D01*
X59819Y115492D01*
X59738Y115297D01*
Y114710D01*
X59963Y114167D01*
X60378Y113752D01*
X60921Y113527D01*
X61508D01*
X62051Y113752D01*
X62466Y114167D01*
X62691Y114710D01*
Y115297D01*
X62610Y115492D01*
X62944Y115992D01*
X68323D01*
X68671Y116062D01*
X68967Y116259D01*
X70542Y117834D01*
X71132Y117717D01*
X71203Y117544D01*
X71358Y117389D01*
Y108045D01*
X72047D01*
Y106503D01*
X65200Y99656D01*
X64776Y99940D01*
X64914Y100271D01*
Y100859D01*
X64689Y101401D01*
X64274Y101817D01*
X63731Y102041D01*
X63144D01*
X63119Y102031D01*
X62738Y102286D01*
X62513Y102829D01*
X62098Y103244D01*
X61555Y103469D01*
X60968D01*
X60426Y103244D01*
X60165Y102983D01*
X59669D01*
X59166Y103487D01*
X58905Y103661D01*
X58598Y103722D01*
X55352D01*
X48313Y110762D01*
X48327Y110795D01*
Y111382D01*
X48102Y111925D01*
X47687Y112340D01*
X47144Y112565D01*
X46557D01*
X46014Y112340D01*
X45599Y111925D01*
X45374Y111382D01*
Y110795D01*
X45599Y110252D01*
X46014Y109837D01*
X46557Y109612D01*
X47144D01*
X47177Y109626D01*
X53801Y103003D01*
X53609Y102541D01*
X52309D01*
X44222Y110628D01*
X44291Y110795D01*
Y111382D01*
X44067Y111925D01*
X43651Y112340D01*
X43109Y112565D01*
X42521D01*
X41979Y112340D01*
X41563Y111925D01*
X41339Y111382D01*
Y110795D01*
X41354Y110759D01*
X40930Y110475D01*
X40439Y110966D01*
X40453Y111000D01*
Y111587D01*
X40228Y112130D01*
X39813Y112545D01*
X39270Y112770D01*
X38683D01*
X38140Y112545D01*
X37725Y112130D01*
X37500Y111587D01*
Y111000D01*
X37725Y110457D01*
X38140Y110042D01*
X38683Y109817D01*
X39270D01*
X39303Y109831D01*
X48657Y100477D01*
X48466Y100015D01*
X37008D01*
X36963Y100006D01*
X36918Y100010D01*
X36480Y99961D01*
X36394Y99934D01*
X36305Y99921D01*
X35889Y99775D01*
X35811Y99730D01*
X35727Y99697D01*
X35353Y99463D01*
X35288Y99401D01*
X35213Y99351D01*
X34901Y99039D01*
X34851Y98964D01*
X34789Y98899D01*
X34555Y98525D01*
X34522Y98441D01*
X34477Y98363D01*
X34331Y97947D01*
X34318Y97858D01*
X34291Y97772D01*
X34242Y97334D01*
X34245Y97289D01*
X34237Y97244D01*
Y78420D01*
X33737Y78167D01*
X33364Y78321D01*
X32777D01*
X32235Y78096D01*
X31819Y77681D01*
X31594Y77138D01*
Y76551D01*
X31819Y76008D01*
X32235Y75593D01*
X32777Y75368D01*
X33364D01*
X33737Y75522D01*
X34237Y75269D01*
Y72630D01*
X34202Y72326D01*
X34117Y72081D01*
X33978Y71861D01*
X33795Y71677D01*
X33575Y71539D01*
X33329Y71453D01*
X33026Y71419D01*
X21260D01*
X21215Y71410D01*
X21170Y71414D01*
X20732Y71364D01*
X20646Y71337D01*
X20557Y71324D01*
X20141Y71179D01*
X20063Y71133D01*
X19979Y71101D01*
X19605Y70866D01*
X19540Y70805D01*
X19465Y70754D01*
X19153Y70443D01*
X19103Y70368D01*
X19041Y70302D01*
X18807Y69929D01*
X18774Y69845D01*
X18729Y69767D01*
X18583Y69351D01*
X18570Y69261D01*
X18543Y69176D01*
X18494Y68738D01*
X18497Y68692D01*
X18489Y68648D01*
Y51348D01*
X18497Y51303D01*
X18494Y51258D01*
X18543Y50820D01*
X18570Y50734D01*
X18583Y50645D01*
X18729Y50229D01*
X18774Y50151D01*
X18807Y50067D01*
X19041Y49694D01*
X19103Y49628D01*
X19153Y49553D01*
X19465Y49241D01*
X19540Y49191D01*
X19605Y49129D01*
X19979Y48895D01*
X20063Y48862D01*
X20141Y48817D01*
X20557Y48671D01*
X20646Y48658D01*
X20732Y48631D01*
X21170Y48582D01*
X21215Y48586D01*
X21260Y48577D01*
X33026D01*
X33329Y48543D01*
X33575Y48457D01*
X33795Y48318D01*
X33978Y48135D01*
X34117Y47915D01*
X34202Y47669D01*
X34237Y47366D01*
Y28841D01*
X33746Y28744D01*
X33548Y29223D01*
X32492Y30802D01*
X31149Y32146D01*
X29569Y33202D01*
X27814Y33929D01*
X25950Y34299D01*
X24050D01*
X22186Y33929D01*
X20431Y33202D01*
X18851Y32146D01*
X17508Y30802D01*
X16452Y29223D01*
X15725Y27467D01*
X15354Y25604D01*
Y23704D01*
X15725Y21840D01*
X16452Y20085D01*
X17508Y18505D01*
X18851Y17161D01*
X20431Y16106D01*
X20951Y15890D01*
X20879Y15379D01*
X20732Y15363D01*
X20646Y15335D01*
X20557Y15323D01*
X20141Y15177D01*
X20063Y15131D01*
X19979Y15099D01*
X19605Y14865D01*
X19540Y14803D01*
X19465Y14752D01*
X19153Y14441D01*
X19103Y14366D01*
X19041Y14300D01*
X18807Y13927D01*
X18774Y13843D01*
X18729Y13765D01*
X18583Y13349D01*
X18570Y13260D01*
X18543Y13174D01*
X18494Y12736D01*
X18497Y12690D01*
X18489Y12646D01*
Y2014D01*
X18454Y1710D01*
X18369Y1465D01*
X18230Y1245D01*
X18046Y1061D01*
X17826Y923D01*
X17581Y837D01*
X17278Y803D01*
X2014D01*
X1710Y837D01*
X1465Y923D01*
X1245Y1061D01*
X1061Y1245D01*
X923Y1465D01*
X837Y1710D01*
X803Y2014D01*
Y100511D01*
X1303Y100718D01*
X1409Y100611D01*
X1952Y100386D01*
X2539D01*
X3082Y100611D01*
X3497Y101026D01*
X3722Y101569D01*
Y102156D01*
X3497Y102699D01*
X3082Y103114D01*
X2539Y103339D01*
X1952D01*
X1409Y103114D01*
X1303Y103008D01*
X803Y103215D01*
Y107955D01*
X1303Y108162D01*
X1428Y108037D01*
X1970Y107812D01*
X2557D01*
X3100Y108037D01*
X3515Y108452D01*
X3740Y108995D01*
Y109346D01*
X5326Y110932D01*
X5788Y110740D01*
Y97909D01*
X5540Y97661D01*
X5315Y97119D01*
Y96531D01*
X5540Y95989D01*
X5788Y95741D01*
Y94661D01*
X5540Y94413D01*
X5315Y93871D01*
Y93283D01*
X5540Y92741D01*
X5788Y92493D01*
Y58855D01*
X3720Y56787D01*
X3645Y56675D01*
X3145Y56175D01*
X2954D01*
X2412Y55950D01*
X1996Y55535D01*
X1772Y54993D01*
Y54405D01*
X1996Y53863D01*
X2412Y53447D01*
X2954Y53223D01*
X3542D01*
X4084Y53447D01*
X4500Y53863D01*
X4724Y54405D01*
Y54916D01*
X5139Y55330D01*
X5213Y55442D01*
X5326Y55554D01*
X5788Y55363D01*
Y17593D01*
X5864Y17209D01*
X6082Y16883D01*
X11713Y11252D01*
Y10901D01*
X11937Y10359D01*
X12353Y9943D01*
X12895Y9719D01*
X13483D01*
X14025Y9943D01*
X14441Y10359D01*
X14665Y10901D01*
Y11489D01*
X14441Y12031D01*
X14025Y12447D01*
X13483Y12671D01*
X13132D01*
X7795Y18008D01*
Y58439D01*
Y92493D01*
X8043Y92741D01*
X8268Y93283D01*
Y93871D01*
X8043Y94413D01*
X7795Y94661D01*
Y95741D01*
X8043Y95989D01*
X8268Y96531D01*
Y97119D01*
X8043Y97661D01*
X7795Y97909D01*
Y113401D01*
X25944Y131550D01*
X26280D01*
X26339Y131562D01*
X26398Y131550D01*
X60333D01*
X60581Y131302D01*
X61124Y131077D01*
X61711D01*
X62254Y131302D01*
X62669Y131717D01*
X62693Y131774D01*
X63217Y131815D01*
X63632Y131400D01*
X64175Y131175D01*
X64762D01*
X65305Y131400D01*
X65720Y131815D01*
X65945Y132358D01*
Y132945D01*
X65720Y133488D01*
X65305Y133903D01*
X64762Y134128D01*
X64175D01*
X63632Y133903D01*
X63217Y133488D01*
X63193Y133431D01*
X62669Y133390D01*
X62254Y133805D01*
X61711Y134030D01*
X61124D01*
X60581Y133805D01*
X60333Y133557D01*
X54889D01*
X54555Y134057D01*
X54626Y134228D01*
Y134815D01*
X54401Y135358D01*
X53986Y135773D01*
X53443Y135998D01*
X52856D01*
X52313Y135773D01*
X51898Y135358D01*
X51673Y134815D01*
Y134228D01*
X51744Y134057D01*
X51410Y133557D01*
X33290D01*
X29271Y137575D01*
Y171286D01*
X29271Y171286D01*
X29770Y171784D01*
X30039Y172435D01*
Y173140D01*
X29770Y173791D01*
X29271Y174290D01*
X29271Y174290D01*
Y193852D01*
X29195Y194237D01*
X28977Y194562D01*
X26515Y197025D01*
X26189Y197242D01*
X25805Y197318D01*
X23367D01*
X15177Y205508D01*
Y207646D01*
X15677Y207695D01*
X15725Y207453D01*
D02*
G37*
G36*
X102027Y195716D02*
X102203Y195276D01*
X99675Y192748D01*
X99235Y192924D01*
X99185Y193395D01*
X101556Y195766D01*
X102027Y195716D01*
D02*
G37*
G36*
X126957Y187393D02*
X130823D01*
Y181566D01*
X121169Y181551D01*
X116298Y181543D01*
X116256Y183613D01*
Y192583D01*
X116256D01*
X116307Y193062D01*
X116416Y193173D01*
X121177D01*
X126957Y187393D01*
D02*
G37*
G36*
X158564Y226701D02*
X158419Y226483D01*
X158319Y225981D01*
Y219671D01*
X158155Y219275D01*
Y218688D01*
X158380Y218145D01*
X158795Y217730D01*
X159338Y217505D01*
X159925D01*
X160468Y217730D01*
X160883Y218145D01*
X161031Y218503D01*
X161531Y218404D01*
Y213547D01*
X164991D01*
X165293Y213047D01*
X165173Y212758D01*
Y212171D01*
X165398Y211628D01*
X165813Y211213D01*
X166356Y210988D01*
X166847D01*
X166847Y210526D01*
Y206854D01*
Y203606D01*
X172752D01*
Y206854D01*
Y210988D01*
X167968D01*
X167761Y211488D01*
X167901Y211628D01*
X168126Y212171D01*
Y212758D01*
X167936Y213217D01*
X168064Y213534D01*
X168192Y213717D01*
X176009D01*
X177745Y211981D01*
Y195069D01*
X177245Y194970D01*
X177153Y195191D01*
X176738Y195606D01*
X176195Y195831D01*
X175608D01*
X175065Y195606D01*
X174650Y195191D01*
X174425Y194648D01*
Y194061D01*
X174650Y193518D01*
X175065Y193103D01*
X175608Y192878D01*
X176195D01*
X176738Y193103D01*
X177153Y193518D01*
X177245Y193739D01*
X177745Y193639D01*
Y191960D01*
X177245Y191753D01*
X177132Y191866D01*
X176589Y192090D01*
X176002D01*
X175459Y191866D01*
X175044Y191451D01*
X174819Y190908D01*
Y190321D01*
X175044Y189778D01*
X175459Y189363D01*
X176002Y189138D01*
X176589D01*
X177132Y189363D01*
X177245Y189476D01*
X177745Y189269D01*
Y182357D01*
X177673Y182184D01*
Y181597D01*
X177898Y181054D01*
X178313Y180639D01*
X178856Y180414D01*
X179443D01*
X179986Y180639D01*
X179997Y180650D01*
X180497Y180443D01*
Y170134D01*
X180029Y169941D01*
X179997Y169947D01*
X178957Y171503D01*
X177613Y172847D01*
X176033Y173902D01*
X174278Y174629D01*
X172415Y175000D01*
X170515D01*
X168651Y174629D01*
X166896Y173902D01*
X165316Y172847D01*
X163972Y171503D01*
X162917Y169923D01*
X162327Y168499D01*
X161827Y168598D01*
Y178081D01*
X162327Y178241D01*
X162629Y177939D01*
X163172Y177714D01*
X163759D01*
X164302Y177939D01*
X164717Y178354D01*
X164942Y178896D01*
Y179484D01*
X164717Y180026D01*
X164302Y180442D01*
X163759Y180666D01*
X163172D01*
X162629Y180442D01*
X162327Y180139D01*
X161827Y180299D01*
Y186790D01*
X162327Y187025D01*
X162730Y186858D01*
X163317D01*
X163860Y187083D01*
X164275Y187498D01*
X164412Y187828D01*
X164962Y187985D01*
X167974Y184973D01*
X168400Y184689D01*
X168902Y184589D01*
X169111D01*
X169160Y184540D01*
X169702Y184315D01*
X170290D01*
X170832Y184540D01*
X171248Y184955D01*
X171472Y185498D01*
Y186085D01*
X171248Y186628D01*
X170832Y187043D01*
X170290Y187268D01*
X169702D01*
X169573Y187214D01*
X169446D01*
X168279Y188381D01*
X168470Y188842D01*
X172752D01*
Y192976D01*
X166847D01*
Y190466D01*
X166384Y190275D01*
X164011Y192649D01*
X164284Y193067D01*
X164292Y193075D01*
X164876D01*
X165114Y193173D01*
X165469D01*
Y193349D01*
X165834Y193715D01*
X166059Y194257D01*
Y194845D01*
X165834Y195387D01*
X165780Y195442D01*
X165784Y195478D01*
X166306Y195660D01*
X166309Y195659D01*
X166359Y195610D01*
X166901Y195385D01*
X167489D01*
X168031Y195610D01*
X168447Y196025D01*
X168671Y196568D01*
Y197155D01*
X168508Y197548D01*
X168696Y197751D01*
X168912Y197881D01*
X169385Y197685D01*
X169972D01*
X170515Y197910D01*
X170930Y198325D01*
X171155Y198868D01*
Y199455D01*
X170930Y199998D01*
X170515Y200413D01*
X169972Y200638D01*
X169732D01*
X169661Y200685D01*
X169159Y200785D01*
X165469D01*
Y201558D01*
X165665Y202033D01*
Y202620D01*
X165469Y203096D01*
Y203409D01*
X165194D01*
X165025Y203578D01*
X164483Y203803D01*
X163895D01*
X163353Y203578D01*
X163184Y203409D01*
X161531D01*
Y200260D01*
Y197898D01*
X165469D01*
Y197898D01*
X165485Y197892D01*
X165771Y197283D01*
X165718Y197155D01*
Y196719D01*
X165571Y196486D01*
X165279Y196323D01*
X161531D01*
Y196067D01*
X161031Y195860D01*
X160891Y196000D01*
X160349Y196224D01*
X159761D01*
X159219Y196000D01*
X158803Y195584D01*
X158579Y195042D01*
Y194454D01*
X158803Y193912D01*
X159219Y193496D01*
X159614Y193333D01*
X159804Y193143D01*
X159612Y192681D01*
X146473D01*
Y156322D01*
X116256D01*
Y162308D01*
X116756Y162642D01*
X116946Y162563D01*
X117534D01*
X118076Y162788D01*
X118290Y163001D01*
X118421Y162870D01*
X118964Y162645D01*
X119551D01*
X120094Y162870D01*
X120230Y163006D01*
X120418Y162819D01*
X120960Y162594D01*
X121548D01*
X122090Y162819D01*
X122294Y163022D01*
X122466Y162849D01*
X123009Y162624D01*
X123596D01*
X124138Y162849D01*
X124321Y163032D01*
X124483Y162870D01*
X125026Y162645D01*
X125613D01*
X126156Y162870D01*
X126292Y163006D01*
X126490Y162808D01*
X127033Y162583D01*
X127620D01*
X128163Y162808D01*
X128340Y162986D01*
X128518Y162808D01*
X129060Y162583D01*
X129648D01*
X130190Y162808D01*
X130606Y163224D01*
X130830Y163766D01*
Y164354D01*
X130606Y164896D01*
X130443Y165059D01*
X130606Y165222D01*
X130830Y165764D01*
Y166351D01*
X130606Y166894D01*
X130423Y167077D01*
X130606Y167259D01*
X130830Y167802D01*
Y168389D01*
X130606Y168932D01*
X130190Y169347D01*
X129648Y169572D01*
X129060D01*
X128518Y169347D01*
X128340Y169169D01*
X128163Y169347D01*
X127620Y169572D01*
X127033D01*
X126490Y169347D01*
X126354Y169210D01*
X126156Y169408D01*
X125613Y169633D01*
X125026D01*
X124483Y169408D01*
X124301Y169226D01*
X124138Y169388D01*
X123596Y169613D01*
X123009D01*
X122466Y169388D01*
X122263Y169185D01*
X122090Y169357D01*
X121548Y169582D01*
X120960D01*
X120418Y169357D01*
X120281Y169221D01*
X120094Y169408D01*
X119551Y169633D01*
X118964D01*
X118421Y169408D01*
X118208Y169195D01*
X118076Y169326D01*
X117534Y169551D01*
X116946D01*
X116756Y169472D01*
X116256Y169806D01*
Y180704D01*
X116300Y180740D01*
X121170Y180748D01*
X130824Y180763D01*
X130867Y180772D01*
X131610D01*
Y181488D01*
X131626Y181566D01*
Y187393D01*
X131610Y187471D01*
Y188252D01*
X127234D01*
X121745Y193741D01*
X121484Y193915D01*
X121177Y193976D01*
X116416D01*
X116412Y193975D01*
X116408Y193976D01*
X116258Y193945D01*
X116109Y193915D01*
X116106Y193913D01*
X116101Y193912D01*
X115975Y193825D01*
X115849Y193741D01*
X115846Y193737D01*
X115843Y193735D01*
X115733Y193623D01*
X115673Y193531D01*
X115602Y193446D01*
X115588Y193401D01*
X115562Y193361D01*
X115542Y193252D01*
X115509Y193147D01*
X115458Y192668D01*
X114963Y192583D01*
X103569D01*
X103377Y193045D01*
X103984Y193651D01*
X112509D01*
X112556Y193604D01*
X113099Y193379D01*
X113686D01*
X114229Y193604D01*
X114644Y194019D01*
X114869Y194562D01*
Y195149D01*
X114807Y195298D01*
X114888Y195513D01*
X115130Y195825D01*
X115456Y195890D01*
X115847Y196151D01*
X117009Y197313D01*
X117009Y197313D01*
X117270Y197704D01*
X117362Y198165D01*
X117362Y198165D01*
Y202454D01*
X117270Y202915D01*
X117009Y203306D01*
X115391Y204924D01*
Y204991D01*
X115166Y205533D01*
X114751Y205948D01*
X114209Y206173D01*
X113621D01*
X113079Y205948D01*
X112663Y205533D01*
X112438Y204991D01*
Y204403D01*
X112663Y203860D01*
X113079Y203445D01*
X113621Y203221D01*
X113688D01*
X114953Y201955D01*
Y200608D01*
X114763Y200478D01*
X114453Y200354D01*
X113990Y200546D01*
X113403D01*
X112861Y200321D01*
X112724Y200184D01*
X100016D01*
X100016Y200185D01*
X99555Y200093D01*
X99164Y199832D01*
X99164Y199832D01*
X95719Y196387D01*
X95458Y195996D01*
X95367Y195535D01*
X95367Y195535D01*
Y192583D01*
X81020D01*
Y168798D01*
X80520Y168699D01*
X80013Y169923D01*
X78957Y171503D01*
X77613Y172847D01*
X76034Y173902D01*
X74278Y174629D01*
X72415Y175000D01*
X70515D01*
X68651Y174629D01*
X66896Y173902D01*
X65316Y172847D01*
X63972Y171503D01*
X62932Y169947D01*
X62900Y169941D01*
X62432Y170134D01*
Y183000D01*
X62910Y183056D01*
X62932Y183056D01*
X67921D01*
X68421Y183056D01*
X68921Y183056D01*
X73433D01*
X73933Y183056D01*
X74433Y183056D01*
X79445D01*
Y188431D01*
X78658D01*
Y191667D01*
X74721D01*
Y188784D01*
X74367Y188431D01*
X73933Y188431D01*
X73499Y188431D01*
X73146Y188784D01*
Y191667D01*
X69209D01*
Y188784D01*
X68855Y188431D01*
X68421Y188431D01*
X67987Y188431D01*
X67634Y188784D01*
Y191667D01*
X63697D01*
Y188431D01*
X62932D01*
X62910Y188431D01*
X62432Y188486D01*
Y214335D01*
X73023D01*
X73175Y213835D01*
X73118Y213797D01*
X73118Y213797D01*
X69423Y210102D01*
X65619D01*
Y202622D01*
Y197916D01*
X65263Y197559D01*
X64958Y197103D01*
X64851Y196566D01*
Y196267D01*
X63697D01*
Y192192D01*
X67634D01*
Y194685D01*
X67661Y194820D01*
Y195984D01*
X68098Y196421D01*
X68772D01*
X69209Y196267D01*
X69209Y195921D01*
Y192192D01*
X73146D01*
Y196267D01*
X72130D01*
X71694Y196421D01*
X71694Y196767D01*
Y202622D01*
Y207832D01*
X74851Y210988D01*
X81366D01*
Y214728D01*
X78082D01*
X77945Y214820D01*
X77331Y214942D01*
X77330Y214942D01*
X76640D01*
X76057Y214826D01*
X76013Y214826D01*
X75557Y215063D01*
Y216402D01*
X81364D01*
Y217495D01*
X81522Y217877D01*
X82393Y218747D01*
X82698Y219203D01*
X82805Y219741D01*
Y222203D01*
X87802Y227201D01*
X158309D01*
X158564Y226701D01*
D02*
G37*
G36*
X162462Y190485D02*
X162343Y189910D01*
X162327Y189902D01*
X161827Y190218D01*
Y190467D01*
X162289Y190658D01*
X162462Y190485D01*
D02*
G37*
G36*
X100902Y181094D02*
Y177852D01*
X100402Y177654D01*
X100236Y177830D01*
Y180101D01*
X100144Y180562D01*
X99984Y180802D01*
X100158Y181257D01*
X100215Y181320D01*
X100495Y181391D01*
X100902Y181094D01*
D02*
G37*
G36*
Y176185D02*
Y156322D01*
X96374D01*
Y172912D01*
X96504Y172984D01*
X96874Y173066D01*
X97211Y172729D01*
X97754Y172504D01*
X98341D01*
X98883Y172729D01*
X99299Y173144D01*
X99524Y173687D01*
Y174274D01*
X99299Y174817D01*
X99257Y174858D01*
X99284Y175056D01*
X99423Y175399D01*
X99868Y175583D01*
X100283Y175998D01*
X100402Y176284D01*
X100902Y176185D01*
D02*
G37*
G36*
X208744Y185282D02*
X208502Y184817D01*
X208072D01*
X207530Y184592D01*
X207115Y184177D01*
X206890Y183634D01*
Y183047D01*
X207115Y182504D01*
X207530Y182089D01*
X208072Y181864D01*
X208660D01*
X209202Y182089D01*
X209618Y182504D01*
X209842Y183047D01*
Y183476D01*
X210308Y183718D01*
X215335Y178691D01*
Y163350D01*
X214873Y163158D01*
X212995Y165036D01*
X212669Y165254D01*
X212285Y165330D01*
X199733D01*
X199485Y165578D01*
X198943Y165803D01*
X198355D01*
X197813Y165578D01*
X197397Y165163D01*
X197173Y164620D01*
Y164033D01*
X197397Y163491D01*
X197813Y163075D01*
X198355Y162850D01*
X198943D01*
X199485Y163075D01*
X199733Y163323D01*
X211870D01*
X213319Y161873D01*
X213113Y161373D01*
X212512Y161124D01*
X211981Y160592D01*
X211885Y160361D01*
X211344D01*
X211248Y160592D01*
X210716Y161124D01*
X210022Y161411D01*
X209270D01*
X208575Y161124D01*
X208044Y160592D01*
X207756Y159898D01*
Y159146D01*
X208044Y158451D01*
X208575Y157920D01*
X208807Y157824D01*
Y157283D01*
X208575Y157187D01*
X208044Y156655D01*
X207756Y155961D01*
Y155209D01*
X208044Y154514D01*
X208575Y153983D01*
X209270Y153695D01*
X210022D01*
X210716Y153983D01*
X211248Y154514D01*
X211344Y154746D01*
X211885D01*
X211981Y154514D01*
X212512Y153983D01*
X213153Y153717D01*
X213376Y153233D01*
X196357Y136214D01*
X183957D01*
X183573Y136138D01*
X183247Y135920D01*
X180597Y133270D01*
X180380Y132945D01*
X180303Y132561D01*
Y132502D01*
X179823Y132455D01*
Y132455D01*
X179051D01*
Y132588D01*
X178990Y132895D01*
X178816Y133156D01*
X178816Y133156D01*
X176853Y135119D01*
Y137276D01*
X176792Y137583D01*
X176618Y137843D01*
X176209Y138251D01*
X176401Y138713D01*
X187804D01*
X188111Y138774D01*
X188372Y138948D01*
X191214Y141790D01*
X191387Y142051D01*
X191449Y142358D01*
X191449Y142358D01*
Y145209D01*
X201022Y154782D01*
X203459D01*
X203473Y154748D01*
X203888Y154333D01*
X204431Y154108D01*
X205018D01*
X205561Y154333D01*
X205976Y154748D01*
X206201Y155291D01*
Y155878D01*
X205976Y156421D01*
X205561Y156836D01*
X205018Y157061D01*
X204431D01*
X203888Y156836D01*
X203473Y156421D01*
X203459Y156388D01*
X200689D01*
X200689Y156388D01*
X200382Y156326D01*
X200121Y156152D01*
X200121Y156152D01*
X190078Y146109D01*
X189904Y145849D01*
X189843Y145542D01*
Y142691D01*
X188974Y141822D01*
X188936Y141833D01*
X188544Y142138D01*
X188593Y142576D01*
X188589Y142621D01*
X188598Y142666D01*
Y167280D01*
X188632Y167583D01*
X188718Y167829D01*
X188856Y168049D01*
X189040Y168233D01*
X189260Y168371D01*
X189506Y168457D01*
X189809Y168491D01*
X198713D01*
X199048Y167991D01*
X199016Y167914D01*
Y167327D01*
X199241Y166784D01*
X199656Y166369D01*
X200198Y166144D01*
X200786D01*
X201328Y166369D01*
X201744Y166784D01*
X201969Y167327D01*
Y167914D01*
X201924Y168022D01*
X202021Y168305D01*
X202169Y168541D01*
X202234Y168579D01*
X202278Y168585D01*
X202694Y168731D01*
X202772Y168777D01*
X202856Y168809D01*
X203229Y169043D01*
X203295Y169105D01*
X203370Y169156D01*
X203681Y169467D01*
X203732Y169542D01*
X203794Y169608D01*
X204028Y169981D01*
X204060Y170065D01*
X204106Y170143D01*
X204252Y170559D01*
X204264Y170648D01*
X204292Y170734D01*
X204341Y171172D01*
X204337Y171218D01*
X204346Y171262D01*
Y188562D01*
X204337Y188606D01*
X204341Y188652D01*
X204300Y189019D01*
X204444Y189147D01*
X204760Y189266D01*
X208744Y185282D01*
D02*
G37*
G36*
X180497Y160575D02*
Y160027D01*
X180484Y159914D01*
X180401Y159449D01*
X180401D01*
X180413Y158954D01*
X180341Y158667D01*
X180341D01*
X180206Y158214D01*
X180199Y158195D01*
X180006Y157821D01*
X179993Y157799D01*
X179878Y157645D01*
X179815Y157638D01*
X179807Y157635D01*
X179729Y157446D01*
X179557Y157262D01*
X179373Y157090D01*
X179184Y157012D01*
X179181Y157004D01*
X179174Y156941D01*
X179020Y156826D01*
X178670Y156644D01*
X178624Y156620D01*
X178474Y156561D01*
X178153Y156477D01*
X178152Y156478D01*
X178149Y156476D01*
X177993Y156412D01*
X177846Y156389D01*
X177370Y156418D01*
Y156418D01*
X176893Y156335D01*
X176776Y156322D01*
X176245D01*
X176051Y156790D01*
X176057Y156822D01*
X177613Y157862D01*
X178957Y159205D01*
X179997Y160762D01*
X180029Y160768D01*
X180497Y160575D01*
D02*
G37*
G36*
X162917Y160785D02*
X163972Y159205D01*
X165316Y157862D01*
X166872Y156822D01*
X166878Y156790D01*
X166684Y156322D01*
X161827D01*
Y162110D01*
X162327Y162209D01*
X162917Y160785D01*
D02*
G37*
G36*
X81020Y161910D02*
Y156322D01*
X76245D01*
X76051Y156790D01*
X76057Y156822D01*
X77613Y157862D01*
X78957Y159205D01*
X80013Y160785D01*
X80520Y162010D01*
X81020Y161910D01*
D02*
G37*
G36*
X62932Y160762D02*
X63972Y159205D01*
X65316Y157862D01*
X66872Y156822D01*
X66878Y156790D01*
X66684Y156322D01*
X66153D01*
X66025Y156336D01*
X65559Y156418D01*
Y156418D01*
X65110Y156393D01*
X64777Y156478D01*
X64777Y156478D01*
X64324Y156612D01*
X64305Y156620D01*
X63932Y156812D01*
X63910Y156826D01*
X63755Y156941D01*
X63748Y157004D01*
X63745Y157012D01*
X63556Y157090D01*
X63372Y157262D01*
X63200Y157446D01*
X63122Y157635D01*
X63114Y157638D01*
X63051Y157645D01*
X62937Y157799D01*
X62754Y158149D01*
X62730Y158195D01*
X62670Y158349D01*
X62588Y158666D01*
X62588Y158667D01*
X62587Y158670D01*
X62516Y158954D01*
X62528Y159449D01*
X62528D01*
X62445Y159914D01*
X62432Y160027D01*
Y160575D01*
X62900Y160768D01*
X62932Y160762D01*
D02*
G37*
G36*
X142420Y147806D02*
X142391Y147786D01*
X142391Y147786D01*
X141150Y146545D01*
X121680D01*
X121626Y146677D01*
X121210Y147092D01*
X120668Y147317D01*
X120080D01*
X119538Y147092D01*
X119122Y146677D01*
X118898Y146134D01*
Y145547D01*
X119122Y145004D01*
X119538Y144589D01*
X120080Y144364D01*
X120668D01*
X121210Y144589D01*
X121561Y144939D01*
X141482D01*
X141789Y145001D01*
X142050Y145175D01*
X143291Y146416D01*
X143799D01*
Y145021D01*
X146149D01*
X146166Y144995D01*
X145899Y144495D01*
X143799D01*
Y140421D01*
X145445D01*
Y139049D01*
X145522Y138665D01*
X145739Y138340D01*
X147244Y136835D01*
Y136484D01*
X147469Y135941D01*
X147884Y135526D01*
X148427Y135301D01*
X148778D01*
X159926Y124153D01*
X159642Y123730D01*
X159250Y123892D01*
X158769D01*
X145428Y137233D01*
X145132Y137431D01*
X144783Y137500D01*
X135224D01*
X134875Y137431D01*
X134579Y137233D01*
X134500Y137154D01*
X133958D01*
X133416Y136929D01*
X133000Y136514D01*
X132776Y135971D01*
Y135384D01*
X133000Y134841D01*
X133416Y134426D01*
X133958Y134201D01*
X134546D01*
X134764Y134292D01*
X135236Y133946D01*
Y133638D01*
X135461Y133095D01*
X135876Y132680D01*
X136419Y132455D01*
X137006D01*
X137549Y132680D01*
X137964Y133095D01*
X138189Y133638D01*
Y134225D01*
X137964Y134767D01*
X137554Y135178D01*
X137555Y135208D01*
X137661Y135678D01*
X144406D01*
X157286Y122798D01*
X157315Y122601D01*
X157287Y122499D01*
X156782Y122260D01*
X156398Y122336D01*
X129628D01*
X129380Y122584D01*
X128837Y122809D01*
X128250D01*
X127707Y122584D01*
X127459Y122336D01*
X123919D01*
X123868Y122388D01*
X123804Y122414D01*
Y122955D01*
X123845Y122972D01*
X124260Y123387D01*
X124485Y123930D01*
Y124517D01*
X124260Y125060D01*
X123845Y125475D01*
X123302Y125700D01*
X122715D01*
X122172Y125475D01*
X121757Y125060D01*
X121604Y124690D01*
X121070Y124516D01*
X120690Y124897D01*
X120364Y125114D01*
X119980Y125191D01*
X103642D01*
X103258Y125114D01*
X102932Y124897D01*
X99931Y121896D01*
X99217D01*
X99026Y122358D01*
X113108Y136440D01*
X121239D01*
X121253Y136406D01*
X121668Y135991D01*
X121917Y135887D01*
X121960Y135622D01*
X121951Y135332D01*
X121583Y134964D01*
X121358Y134422D01*
Y133834D01*
X121583Y133292D01*
X121998Y132877D01*
X122541Y132652D01*
X123128D01*
X123671Y132877D01*
X124086Y133292D01*
X124311Y133834D01*
Y134422D01*
X124086Y134964D01*
X123671Y135380D01*
X123421Y135483D01*
X123379Y135749D01*
X123388Y136038D01*
X123756Y136406D01*
X123980Y136949D01*
Y137536D01*
X123756Y138079D01*
X123340Y138494D01*
X122798Y138719D01*
X122211D01*
X121668Y138494D01*
X121253Y138079D01*
X121239Y138045D01*
X113699D01*
X113508Y138507D01*
X114558Y139558D01*
X114756Y139853D01*
X114782Y139987D01*
X114843D01*
X115385Y140212D01*
X115800Y140627D01*
X116025Y141170D01*
Y141757D01*
X115800Y142300D01*
X115385Y142715D01*
X114843Y142940D01*
X114255D01*
X113713Y142715D01*
X113475Y142477D01*
X112844Y142401D01*
X112302Y142626D01*
X111714D01*
X111622Y142588D01*
X111122Y142922D01*
Y144397D01*
X110663D01*
X110526Y144728D01*
X110110Y145143D01*
X109568Y145368D01*
X108981D01*
X108827Y145305D01*
X108646Y145486D01*
X108385Y145660D01*
X108078Y145721D01*
X103482D01*
X103182Y146021D01*
Y148305D01*
X142268D01*
X142420Y147806D01*
D02*
G37*
G36*
X218189Y154841D02*
Y147835D01*
X217763Y147408D01*
X211684D01*
X211299Y147332D01*
X210974Y147114D01*
X207657Y143797D01*
X207439Y143472D01*
X207363Y143087D01*
Y140997D01*
X202225Y135859D01*
X202044Y135877D01*
X201355Y136566D01*
X201095Y136740D01*
X200787Y136801D01*
X200480Y136740D01*
X200323Y136635D01*
X200005Y137023D01*
X216955Y153974D01*
X217172Y154299D01*
X217178Y154326D01*
X217195Y154333D01*
X217610Y154748D01*
X217689Y154940D01*
X218189Y154841D01*
D02*
G37*
G36*
X222032Y129697D02*
X221532Y129597D01*
X221429Y129846D01*
X221013Y130262D01*
X220471Y130486D01*
X219883D01*
X219341Y130262D01*
X218926Y129846D01*
X218701Y129304D01*
Y128716D01*
X218926Y128174D01*
X219341Y127758D01*
X219883Y127534D01*
X220471D01*
X220504Y127548D01*
X220851Y127201D01*
Y91903D01*
X220351Y91603D01*
X220316Y91622D01*
Y91623D01*
X220091Y92166D01*
X219676Y92581D01*
X219133Y92806D01*
X218546D01*
X218003Y92581D01*
X217899Y92477D01*
X217521Y92227D01*
X217246Y92477D01*
X217091Y92633D01*
X216548Y92857D01*
X215961D01*
X215418Y92633D01*
X215102Y92317D01*
X214906Y92229D01*
X214487Y92278D01*
X214235Y92530D01*
X213693Y92755D01*
X213105D01*
X212563Y92530D01*
X212147Y92115D01*
X211923Y91572D01*
Y90985D01*
X211911Y90967D01*
X211796D01*
X211254Y90743D01*
X210839Y90327D01*
X210614Y89785D01*
Y89197D01*
X210753Y88860D01*
X210480Y88360D01*
X209941D01*
Y127337D01*
X213878D01*
Y136123D01*
X213941Y136276D01*
Y136863D01*
X213878Y137016D01*
Y138360D01*
X210335Y141904D01*
Y143637D01*
X212099Y145401D01*
X218178D01*
X218408Y145447D01*
X222032D01*
Y129697D01*
D02*
G37*
G36*
X171450Y134325D02*
X171737D01*
Y132455D01*
X171161D01*
Y129305D01*
X170624D01*
X162859Y137070D01*
X163050Y137532D01*
X171450D01*
Y134325D01*
D02*
G37*
G36*
X201476Y135309D02*
Y131372D01*
X200886Y130782D01*
Y124993D01*
X200492Y124679D01*
X198130D01*
X193996Y128813D01*
Y129207D01*
X200787Y135998D01*
X201476Y135309D01*
D02*
G37*
G36*
X175482Y134219D02*
X176841Y132860D01*
X177067Y132455D01*
X177067D01*
X177067Y132455D01*
Y128518D01*
Y126549D01*
X180303D01*
Y123447D01*
X179823Y123400D01*
Y123400D01*
X179113D01*
X179035Y123415D01*
X177854D01*
X177777Y123400D01*
X173917D01*
Y128518D01*
Y132455D01*
X173342D01*
Y134325D01*
X175411D01*
X175482Y134219D01*
D02*
G37*
G36*
X138949Y119829D02*
X138878Y119658D01*
Y119071D01*
X139103Y118528D01*
X139518Y118113D01*
X140030Y117901D01*
X140256Y117494D01*
Y109137D01*
X133472Y102354D01*
X133263Y102387D01*
X132935Y102524D01*
X132748Y102976D01*
X132332Y103392D01*
X131790Y103616D01*
X131202D01*
X130660Y103392D01*
X130245Y102976D01*
X130086Y102593D01*
X129558Y102561D01*
X129499Y102702D01*
X129084Y103118D01*
X128541Y103342D01*
X127954D01*
X127411Y103118D01*
X126996Y102702D01*
X126771Y102160D01*
Y101872D01*
X126271Y101665D01*
X123451Y104486D01*
Y108045D01*
X126870D01*
Y117494D01*
X126870Y117494D01*
X126870D01*
X126867Y117994D01*
X126905Y118086D01*
Y118674D01*
X126681Y119216D01*
X126265Y119632D01*
X125723Y119856D01*
X125788Y120329D01*
X127459D01*
X127707Y120081D01*
X128250Y119856D01*
X128837D01*
X129380Y120081D01*
X129628Y120329D01*
X133656D01*
X133721Y119856D01*
X133178Y119632D01*
X132763Y119216D01*
X132538Y118674D01*
Y118086D01*
X132763Y117544D01*
X133178Y117128D01*
X133721Y116904D01*
X134308D01*
X134851Y117128D01*
X135266Y117544D01*
X135491Y118086D01*
Y118674D01*
X135266Y119216D01*
X134851Y119632D01*
X134308Y119856D01*
X134374Y120329D01*
X138615D01*
X138949Y119829D01*
D02*
G37*
G36*
X179035Y121628D02*
X181201Y119463D01*
Y116313D01*
X175853D01*
X175265Y115725D01*
X174803Y115916D01*
Y115263D01*
X174213D01*
Y112475D01*
X170965Y109227D01*
Y108655D01*
X167640D01*
X166304Y109992D01*
X166243Y117828D01*
X166595Y118183D01*
X175886D01*
X177165Y119463D01*
X177854D01*
Y122612D01*
X179035D01*
Y121628D01*
D02*
G37*
G36*
X1836Y143971D02*
X2186D01*
X12663Y133494D01*
X12455Y132994D01*
X12199D01*
X11367Y132650D01*
X10730Y132013D01*
X10386Y131181D01*
Y130280D01*
X10730Y129448D01*
X11367Y128811D01*
X12199Y128467D01*
X13100D01*
X13932Y128811D01*
X14569Y129448D01*
X14913Y130280D01*
Y131062D01*
X14947Y131213D01*
X15302Y131550D01*
X22452D01*
X22644Y131088D01*
X6082Y114526D01*
X2321Y110765D01*
X1970D01*
X1428Y110540D01*
X1303Y110416D01*
X803Y110623D01*
Y143978D01*
X1293Y144195D01*
X1836Y143971D01*
D02*
G37*
G36*
X126067Y108848D02*
X123451D01*
X123373Y108833D01*
X121752D01*
Y116691D01*
X123657D01*
X123734Y116707D01*
X123813D01*
X123813Y116707D01*
X126067D01*
Y108848D01*
D02*
G37*
G36*
X91305Y119716D02*
X91477Y119389D01*
X91418Y119092D01*
Y117494D01*
X90650D01*
Y108577D01*
X90150Y108370D01*
X90108Y108411D01*
X89565Y108636D01*
X88978D01*
X88787Y108557D01*
X88287Y108891D01*
Y117494D01*
X87393D01*
X87202Y117956D01*
X88016Y118770D01*
X88016Y118770D01*
X89134Y119889D01*
X91168D01*
X91305Y119716D01*
D02*
G37*
G36*
X121555Y121193D02*
Y120842D01*
X121780Y120300D01*
X122195Y119884D01*
X122738Y119660D01*
X123325D01*
X123868Y119884D01*
X124283Y120300D01*
X124295Y120329D01*
X125070D01*
X125135Y119856D01*
X124593Y119632D01*
X124177Y119216D01*
X123952Y118674D01*
Y118086D01*
X123991Y117994D01*
X123657Y117494D01*
X118209D01*
Y108045D01*
X118209Y108045D01*
X118115Y107584D01*
X118037Y107552D01*
X117576Y107459D01*
X117351Y108002D01*
X116936Y108417D01*
X116393Y108642D01*
X115806D01*
X115263Y108417D01*
X114848Y108002D01*
X114623Y107459D01*
Y106872D01*
X114846Y106335D01*
X115002Y105925D01*
X114987Y105852D01*
X114572Y105437D01*
X114347Y104894D01*
X113906Y104552D01*
X113647Y104582D01*
X113503Y105039D01*
X113823Y105359D01*
X114048Y105902D01*
Y106489D01*
X113823Y107032D01*
X113408Y107447D01*
X112865Y107672D01*
X112278D01*
X111736Y107447D01*
X111320Y107032D01*
X111095Y106489D01*
Y105902D01*
X111320Y105359D01*
X111736Y104944D01*
X112278Y104719D01*
X112726D01*
X112808Y104569D01*
X112890Y104229D01*
X112541Y103880D01*
X112316Y103338D01*
Y102750D01*
X112541Y102208D01*
X112956Y101792D01*
X113499Y101568D01*
X114086D01*
X114629Y101792D01*
X115044Y102208D01*
X115269Y102750D01*
Y102950D01*
X115530Y103124D01*
X116117D01*
X116660Y103349D01*
X117075Y103764D01*
X117300Y104307D01*
Y104490D01*
X117329Y104527D01*
X117800Y104783D01*
X118140Y104642D01*
X118728D01*
X118903Y104714D01*
X119403Y104380D01*
Y95746D01*
X118415Y94758D01*
X116240D01*
Y95152D01*
X115183D01*
Y98203D01*
X115113Y98552D01*
X114916Y98847D01*
X109671Y104092D01*
Y108045D01*
X110335D01*
Y117494D01*
X107185D01*
Y108045D01*
X107849D01*
Y107283D01*
X104626D01*
X104277Y107214D01*
X103982Y107017D01*
X98371Y101406D01*
X98174Y101111D01*
X98105Y100762D01*
Y97317D01*
X98174Y96968D01*
X98371Y96673D01*
X99824Y95220D01*
X99633Y94758D01*
X95932D01*
Y91604D01*
X87336D01*
Y94758D01*
X79790D01*
Y91604D01*
X75991D01*
Y94758D01*
X74778D01*
X74765Y95258D01*
X78721Y99213D01*
X78895Y99474D01*
X78956Y99781D01*
X78956Y99781D01*
Y102766D01*
X80358Y104168D01*
X80782Y103885D01*
X80709Y103708D01*
Y103120D01*
X80933Y102578D01*
X81349Y102162D01*
X81891Y101937D01*
X82479D01*
X82850Y102092D01*
X83241Y101729D01*
X83169Y101555D01*
Y100968D01*
X83351Y100528D01*
X83219Y100023D01*
X83113Y99918D01*
X82764Y99643D01*
X82460Y99918D01*
X82332Y100045D01*
X81790Y100270D01*
X81202D01*
X80660Y100045D01*
X80244Y99630D01*
X80020Y99087D01*
Y98500D01*
X80244Y97957D01*
X80660Y97542D01*
X81202Y97317D01*
X81790D01*
X82332Y97542D01*
X82438Y97647D01*
X82787Y97922D01*
X83091Y97647D01*
X83219Y97520D01*
X83761Y97295D01*
X84349D01*
X84891Y97520D01*
X85307Y97935D01*
X85531Y98478D01*
Y99065D01*
X85349Y99505D01*
X85482Y100010D01*
X85897Y100425D01*
X86122Y100968D01*
Y101555D01*
X85897Y102098D01*
X85482Y102513D01*
X84939Y102738D01*
X84352D01*
X83980Y102584D01*
X83589Y102946D01*
X83661Y103120D01*
Y103708D01*
X83437Y104250D01*
X83021Y104666D01*
X82479Y104890D01*
X81891D01*
X81714Y104817D01*
X81431Y105241D01*
X81768Y105578D01*
X81768Y105578D01*
X81942Y105839D01*
X82004Y106146D01*
Y107711D01*
X82325Y107808D01*
X82389Y107743D01*
X82677Y107407D01*
Y106866D01*
X82902Y106323D01*
X83317Y105908D01*
X83860Y105683D01*
X84447D01*
X84481Y105697D01*
X86697Y103481D01*
Y99173D01*
X86664Y99159D01*
X86248Y98744D01*
X86024Y98201D01*
Y97614D01*
X86248Y97071D01*
X86664Y96656D01*
X87206Y96431D01*
X87794D01*
X88336Y96656D01*
X88597Y96916D01*
X88821Y97051D01*
X89235Y96931D01*
X89420Y96747D01*
X89962Y96522D01*
X90550D01*
X91092Y96747D01*
X91508Y97162D01*
X91732Y97704D01*
Y98292D01*
X91508Y98835D01*
X91092Y99250D01*
X90550Y99475D01*
X89962D01*
X89420Y99250D01*
X89159Y98989D01*
X88935Y98855D01*
X88521Y98974D01*
X88336Y99159D01*
X88303Y99173D01*
Y103813D01*
X88303Y103813D01*
X88242Y104120D01*
X88068Y104381D01*
X87219Y105230D01*
X87336Y105820D01*
X87549Y105908D01*
X87665Y106025D01*
X87992Y106300D01*
X88319Y106025D01*
X88435Y105908D01*
X88978Y105683D01*
X89565D01*
X90108Y105908D01*
X90523Y106323D01*
X90748Y106866D01*
Y107453D01*
X90710Y107545D01*
X91044Y108045D01*
X92198D01*
X92298Y107545D01*
X92103Y107465D01*
X91688Y107050D01*
X91463Y106507D01*
Y105920D01*
X91688Y105377D01*
X91884Y105181D01*
X91967Y104739D01*
X91856Y104556D01*
X91563Y104264D01*
X91339Y103721D01*
Y103134D01*
X91563Y102591D01*
X91979Y102176D01*
X92521Y101951D01*
X93109D01*
X93651Y102176D01*
X94067Y102591D01*
X94291Y103134D01*
Y103721D01*
X94067Y104264D01*
X93871Y104460D01*
X93787Y104902D01*
X93899Y105085D01*
X94191Y105377D01*
X94416Y105920D01*
Y106507D01*
X94191Y107050D01*
X93776Y107465D01*
X93582Y107545D01*
X93681Y108045D01*
X93799D01*
Y117494D01*
X93425D01*
Y118677D01*
X94637Y119889D01*
X97271D01*
X97462Y119427D01*
X96942Y118906D01*
X96724Y118581D01*
X96648Y118197D01*
Y117494D01*
X96161D01*
Y108045D01*
X99311D01*
Y117494D01*
X99075D01*
X98868Y117994D01*
X101057Y120183D01*
X104057Y123184D01*
X119565D01*
X121555Y121193D01*
D02*
G37*
G36*
X183268Y111023D02*
Y106569D01*
X183071Y106372D01*
X175886D01*
Y110703D01*
X175926Y110812D01*
X180689Y111188D01*
X181595D01*
Y111260D01*
X182901Y111363D01*
X183268Y111023D01*
D02*
G37*
G36*
X166515Y106942D02*
X166840Y106725D01*
X167224Y106648D01*
X175083D01*
Y106372D01*
X175144Y106065D01*
X175318Y105805D01*
X175579Y105630D01*
X175886Y105569D01*
X183071D01*
X183071Y105569D01*
X183378Y105630D01*
X183639Y105805D01*
X183835Y106001D01*
X184009Y106262D01*
X184064Y106535D01*
X184540D01*
X195420Y95655D01*
X195414Y95631D01*
X194860Y95478D01*
X188808Y101530D01*
X188512Y101728D01*
X188163Y101797D01*
X169877D01*
X169537Y102137D01*
X168994Y102362D01*
X168407D01*
X167865Y102137D01*
X167449Y101722D01*
X167224Y101180D01*
Y100592D01*
X167256Y100515D01*
X166922Y100015D01*
X164370D01*
X164325Y100007D01*
X164280Y100010D01*
X163842Y99961D01*
X163756Y99934D01*
X163667Y99921D01*
X163251Y99775D01*
X163173Y99730D01*
X163089Y99697D01*
X162716Y99463D01*
X162650Y99401D01*
X162575Y99351D01*
X162263Y99039D01*
X162213Y98964D01*
X162151Y98899D01*
X161917Y98525D01*
X161885Y98441D01*
X161839Y98363D01*
X161693Y97947D01*
X161681Y97858D01*
X161653Y97772D01*
X161604Y97334D01*
X161608Y97289D01*
X161599Y97244D01*
Y92815D01*
X161565Y92512D01*
X161479Y92266D01*
X161340Y92046D01*
X161157Y91863D01*
X160937Y91724D01*
X160691Y91638D01*
X160388Y91604D01*
X154901D01*
Y94976D01*
X155120Y95122D01*
X155707D01*
X156250Y95347D01*
X156665Y95762D01*
X156890Y96305D01*
Y96892D01*
X156665Y97435D01*
X156250Y97850D01*
X155707Y98075D01*
X155120D01*
X154577Y97850D01*
X154162Y97435D01*
X153937Y96892D01*
Y96333D01*
X151865D01*
X151831Y96504D01*
X151613Y96830D01*
X148378Y100065D01*
X148585Y100565D01*
X148719D01*
X149261Y100790D01*
X149677Y101205D01*
X149901Y101748D01*
Y102335D01*
X149677Y102878D01*
X149261Y103293D01*
X148719Y103518D01*
X148132D01*
X147862Y103406D01*
X147362Y103719D01*
Y104731D01*
X147862Y105065D01*
X148033Y104994D01*
X148620D01*
X149163Y105219D01*
X149578Y105634D01*
X149803Y106177D01*
Y106764D01*
X149578Y107307D01*
X149216Y107669D01*
X148917Y108045D01*
Y117494D01*
X141004D01*
X140905Y117994D01*
X141191Y118113D01*
X141439Y118361D01*
X155096D01*
X166515Y106942D01*
D02*
G37*
G36*
X143583Y96532D02*
X143659Y96148D01*
X143877Y95823D01*
X144854Y94845D01*
Y91604D01*
X135072D01*
Y94758D01*
X134638D01*
Y100942D01*
X139555Y105859D01*
X140145Y105742D01*
X140234Y105528D01*
X140649Y105113D01*
X141192Y104888D01*
X141779D01*
X142322Y105113D01*
X142737Y105528D01*
X142962Y106071D01*
Y106658D01*
X142737Y107201D01*
X142392Y107545D01*
X142459Y107879D01*
X142545Y108045D01*
X143583D01*
Y96532D01*
D02*
G37*
G36*
X198406Y110484D02*
Y85333D01*
X197906Y85067D01*
X197756Y85169D01*
Y95742D01*
X197679Y96126D01*
X197462Y96452D01*
X185665Y108248D01*
X185339Y108466D01*
X184956Y108542D01*
X184071D01*
Y111023D01*
X184067Y111039D01*
X184070Y111055D01*
X184037Y111192D01*
X184009Y111331D01*
X184001Y111344D01*
X183997Y111360D01*
X183914Y111474D01*
X183835Y111591D01*
X183822Y111600D01*
X183813Y111613D01*
X183445Y111952D01*
X183432Y111961D01*
X183422Y111974D01*
X183299Y112042D01*
X183178Y112116D01*
X183162Y112119D01*
X183148Y112127D01*
X183008Y112143D01*
X182869Y112165D01*
X182853Y112161D01*
X182837Y112163D01*
X181531Y112060D01*
X181410Y112026D01*
X181287Y112002D01*
X181272Y111991D01*
X180689D01*
X180658Y111985D01*
X180626Y111989D01*
X175863Y111613D01*
X175727Y111574D01*
X175590Y111541D01*
X175577Y111532D01*
X175561Y111528D01*
X175451Y111440D01*
X175337Y111357D01*
X175328Y111344D01*
X175315Y111334D01*
X175247Y111210D01*
X175173Y111090D01*
X175133Y110981D01*
X175110Y110841D01*
X175083Y110703D01*
Y108655D01*
X172236D01*
X172029Y109155D01*
X174780Y111907D01*
X174954Y112167D01*
X175015Y112475D01*
Y114503D01*
X175110Y114521D01*
X175371Y114695D01*
X175545Y114956D01*
X175549Y114979D01*
X175572Y114983D01*
X175833Y115157D01*
X175833Y115157D01*
X176186Y115510D01*
X181201D01*
X181508Y115571D01*
X181769Y115745D01*
X181942Y116006D01*
X182004Y116313D01*
Y118455D01*
X182008Y118459D01*
X190431D01*
X198406Y110484D01*
D02*
G37*
G36*
X46886Y82907D02*
X46880Y82875D01*
X45324Y81835D01*
X43980Y80491D01*
X42940Y78935D01*
X42908Y78929D01*
X42440Y79122D01*
Y79670D01*
X42453Y79782D01*
X42536Y80248D01*
X42536D01*
X42524Y80742D01*
X42596Y81030D01*
X42596D01*
X42731Y81483D01*
X42738Y81502D01*
X42931Y81876D01*
X42944Y81897D01*
X43059Y82052D01*
X43122Y82059D01*
X43130Y82062D01*
X43208Y82251D01*
X43380Y82435D01*
X43564Y82607D01*
X43753Y82685D01*
X43756Y82693D01*
X43763Y82756D01*
X43917Y82871D01*
X44267Y83053D01*
X44313Y83077D01*
X44463Y83136D01*
X44784Y83219D01*
X44785Y83219D01*
X44788Y83220D01*
X44944Y83285D01*
X45091Y83308D01*
X45567Y83279D01*
Y83279D01*
X46044Y83362D01*
X46161Y83375D01*
X46692D01*
X46886Y82907D01*
D02*
G37*
G36*
X193675Y94085D02*
Y82766D01*
X188598D01*
Y97244D01*
X188589Y97289D01*
X188593Y97334D01*
X188544Y97772D01*
X188516Y97858D01*
X188504Y97947D01*
X188358Y98363D01*
X188312Y98441D01*
X188280Y98525D01*
X188046Y98899D01*
X187984Y98964D01*
X187933Y99039D01*
X187835Y99138D01*
X187986Y99693D01*
X188051Y99710D01*
X193675Y94085D01*
D02*
G37*
G36*
X209870Y140674D02*
X210286Y140258D01*
X210828Y140034D01*
X211069D01*
X213075Y138028D01*
Y137016D01*
X213136Y136709D01*
X213139Y136704D01*
Y136436D01*
X213136Y136430D01*
X213075Y136123D01*
Y128140D01*
X209941D01*
X209634Y128078D01*
X209373Y127904D01*
X209199Y127644D01*
X209138Y127337D01*
Y88360D01*
X209199Y88053D01*
X209373Y87793D01*
X209634Y87619D01*
X209941Y87558D01*
X210480D01*
X210592Y87580D01*
X210705Y87590D01*
X210744Y87610D01*
X210787Y87619D01*
X210882Y87682D01*
X210983Y87735D01*
X211011Y87768D01*
X211047Y87793D01*
X211111Y87888D01*
X211184Y87975D01*
X211458Y88475D01*
X211471Y88517D01*
X211495Y88553D01*
X211517Y88665D01*
X211552Y88774D01*
X211548Y88817D01*
X211556Y88860D01*
X211534Y88972D01*
X211524Y89086D01*
X211504Y89125D01*
X211495Y89168D01*
X211417Y89357D01*
Y89625D01*
X211519Y89873D01*
X211709Y90062D01*
X211994Y90180D01*
X212068Y90180D01*
X212141Y90210D01*
X212218Y90226D01*
X212284Y90270D01*
X212357Y90300D01*
X212413Y90356D01*
X212479Y90400D01*
X212523Y90465D01*
X212579Y90522D01*
X212590Y90539D01*
X212620Y90612D01*
X212664Y90677D01*
X212680Y90755D01*
X212710Y90828D01*
X212710Y90907D01*
X212725Y90985D01*
Y91412D01*
X212828Y91660D01*
X213018Y91849D01*
X213265Y91952D01*
X213533D01*
X213780Y91849D01*
X213919Y91711D01*
X214011Y91650D01*
X214095Y91578D01*
X214140Y91563D01*
X214180Y91537D01*
X214288Y91515D01*
X214392Y91481D01*
X214812Y91432D01*
X214871Y91436D01*
X214929Y91426D01*
X215025Y91448D01*
X215124Y91456D01*
X215177Y91483D01*
X215234Y91496D01*
X215430Y91584D01*
X215548Y91668D01*
X215670Y91749D01*
X215873Y91952D01*
X216120Y92055D01*
X216388D01*
X216636Y91952D01*
X216678Y91910D01*
X216694Y91899D01*
X216705Y91884D01*
X216980Y91634D01*
X217030Y91603D01*
X217071Y91562D01*
X217163Y91523D01*
X217249Y91472D01*
X217306Y91463D01*
X217360Y91441D01*
X217460Y91440D01*
X217558Y91425D01*
X217615Y91439D01*
X217673Y91439D01*
X217765Y91477D01*
X217862Y91501D01*
X217909Y91535D01*
X217963Y91557D01*
X218342Y91808D01*
X218400Y91865D01*
X218446Y91896D01*
X218706Y92003D01*
X218973D01*
X219221Y91901D01*
X219410Y91711D01*
X219573Y91318D01*
X219574Y91315D01*
X219640Y91216D01*
X219695Y91112D01*
X219726Y91087D01*
X219748Y91054D01*
X219843Y90991D01*
X219872Y90958D01*
X219898Y90946D01*
X219937Y90914D01*
X219972Y90895D01*
X219998Y90887D01*
X220009Y90880D01*
X220047Y90872D01*
X220067Y90867D01*
X220156Y90824D01*
X220215Y90821D01*
X220272Y90804D01*
X220351Y90812D01*
X220424Y90811D01*
X220468Y90809D01*
X220713Y90612D01*
X220753Y90567D01*
X220851Y90411D01*
Y80265D01*
X220209Y79623D01*
X220176Y79637D01*
X219588D01*
X219046Y79412D01*
X218630Y78997D01*
X218406Y78454D01*
Y77867D01*
X218630Y77324D01*
X219046Y76909D01*
X219588Y76684D01*
X220176D01*
X220718Y76909D01*
X221133Y77324D01*
X221358Y77867D01*
Y78271D01*
X221532Y78413D01*
X222032Y78176D01*
Y63972D01*
X221570Y63780D01*
X212228Y73123D01*
X215789Y76684D01*
X216140D01*
X216683Y76909D01*
X217098Y77324D01*
X217323Y77867D01*
Y78454D01*
X217098Y78997D01*
X216683Y79412D01*
X216140Y79637D01*
X215553D01*
X215010Y79412D01*
X214595Y78997D01*
X214370Y78454D01*
Y78103D01*
X210809Y74542D01*
X200413Y84937D01*
Y110900D01*
X200337Y111284D01*
X200119Y111609D01*
X191556Y120172D01*
X191230Y120390D01*
X190846Y120466D01*
X182310D01*
Y128718D01*
X182810Y129037D01*
X183070Y128930D01*
X183421D01*
X190645Y121706D01*
X190970Y121488D01*
X191354Y121412D01*
X203738D01*
X203819Y121331D01*
Y110901D01*
X203571Y110653D01*
X203346Y110111D01*
Y109523D01*
X203571Y108981D01*
X203987Y108565D01*
X204529Y108341D01*
X204582D01*
X206182Y106741D01*
Y83736D01*
X205933Y83488D01*
X205709Y82945D01*
Y82358D01*
X205933Y81815D01*
X206349Y81400D01*
X206891Y81175D01*
X207479D01*
X208021Y81400D01*
X208437Y81815D01*
X208661Y82358D01*
Y82945D01*
X208437Y83488D01*
X208189Y83736D01*
Y107157D01*
X208112Y107541D01*
X207895Y107866D01*
X206281Y109480D01*
X206299Y109523D01*
Y110111D01*
X206074Y110653D01*
X205826Y110901D01*
Y121331D01*
X206074Y121579D01*
X206299Y122122D01*
Y122709D01*
X206074Y123252D01*
X205659Y123667D01*
X205117Y123892D01*
X204529D01*
X203987Y123667D01*
X203738Y123419D01*
X200774D01*
X200714Y123908D01*
X200754Y123929D01*
X200799Y123937D01*
X200892Y124000D01*
X200992Y124051D01*
X201386Y124365D01*
X201415Y124399D01*
X201453Y124425D01*
X201516Y124518D01*
X201588Y124604D01*
X201602Y124647D01*
X201627Y124685D01*
X201649Y124795D01*
X201683Y124902D01*
X201680Y124948D01*
X201689Y124993D01*
Y130449D01*
X202044Y130805D01*
X202218Y131065D01*
X202279Y131372D01*
Y133075D01*
X209076Y139871D01*
X209293Y140197D01*
X209370Y140581D01*
X209870Y140675D01*
X209870Y140674D01*
D02*
G37*
G36*
X156912Y83360D02*
X157378Y83279D01*
Y83279D01*
X157827Y83304D01*
X158160Y83219D01*
X158160Y83219D01*
X158613Y83084D01*
X158632Y83077D01*
X159005Y82884D01*
X159027Y82871D01*
X159182Y82756D01*
X159189Y82693D01*
X159192Y82685D01*
X159381Y82607D01*
X159565Y82435D01*
X159737Y82251D01*
X159815Y82062D01*
X159823Y82059D01*
X159886Y82052D01*
X160001Y81898D01*
X160183Y81548D01*
X160207Y81502D01*
X160267Y81348D01*
X160349Y81031D01*
X160349Y81030D01*
X160350Y81027D01*
X160421Y80743D01*
X160409Y80248D01*
X160409D01*
X160492Y79782D01*
X160504Y79670D01*
Y79122D01*
X160037Y78929D01*
X160004Y78935D01*
X158965Y80491D01*
X157621Y81835D01*
X156065Y82875D01*
X156059Y82907D01*
X156253Y83375D01*
X156784D01*
X156912Y83360D01*
D02*
G37*
G36*
X146886Y82907D02*
X146880Y82875D01*
X145324Y81835D01*
X143980Y80491D01*
X142925Y78912D01*
X142417Y77687D01*
X141917Y77786D01*
Y83375D01*
X146692D01*
X146886Y82907D01*
D02*
G37*
G36*
X61110Y77587D02*
X60610Y77487D01*
X60020Y78912D01*
X58965Y80491D01*
X57621Y81835D01*
X56065Y82875D01*
X56059Y82907D01*
X56253Y83375D01*
X61110D01*
Y77587D01*
D02*
G37*
G36*
X106681Y77389D02*
X106181Y77055D01*
X105991Y77134D01*
X105403D01*
X104861Y76909D01*
X104647Y76696D01*
X104516Y76827D01*
X103973Y77052D01*
X103386D01*
X102843Y76827D01*
X102707Y76691D01*
X102519Y76878D01*
X101977Y77103D01*
X101389D01*
X100847Y76878D01*
X100643Y76675D01*
X100471Y76848D01*
X99928Y77072D01*
X99341D01*
X98799Y76848D01*
X98616Y76665D01*
X98454Y76827D01*
X97911Y77052D01*
X97324D01*
X96781Y76827D01*
X96645Y76691D01*
X96447Y76889D01*
X95904Y77113D01*
X95317D01*
X94774Y76889D01*
X94597Y76711D01*
X94419Y76889D01*
X93877Y77113D01*
X93289D01*
X92747Y76889D01*
X92331Y76473D01*
X92107Y75931D01*
Y75343D01*
X92331Y74801D01*
X92494Y74638D01*
X92331Y74475D01*
X92107Y73933D01*
Y73345D01*
X92331Y72803D01*
X92514Y72620D01*
X92331Y72438D01*
X92107Y71895D01*
Y71308D01*
X92331Y70765D01*
X92747Y70350D01*
X93289Y70125D01*
X93877D01*
X94419Y70350D01*
X94597Y70527D01*
X94774Y70350D01*
X95317Y70125D01*
X95904D01*
X96447Y70350D01*
X96583Y70486D01*
X96781Y70288D01*
X97324Y70064D01*
X97911D01*
X98454Y70288D01*
X98636Y70471D01*
X98799Y70309D01*
X99341Y70084D01*
X99928D01*
X100471Y70309D01*
X100674Y70512D01*
X100847Y70340D01*
X101389Y70115D01*
X101977D01*
X102519Y70340D01*
X102656Y70476D01*
X102843Y70288D01*
X103386Y70064D01*
X103973D01*
X104516Y70288D01*
X104729Y70502D01*
X104861Y70371D01*
X105403Y70146D01*
X105991D01*
X106181Y70225D01*
X106681Y69890D01*
Y58993D01*
X106637Y58957D01*
X101767Y58949D01*
X92113Y58934D01*
X92071Y58925D01*
X91327D01*
Y58209D01*
X91311Y58131D01*
Y52304D01*
X91327Y52226D01*
Y51445D01*
X95703D01*
X101192Y45956D01*
X101453Y45782D01*
X101760Y45721D01*
X106521D01*
X106525Y45722D01*
X106529Y45721D01*
X106679Y45752D01*
X106828Y45782D01*
X106831Y45784D01*
X106836Y45785D01*
X106962Y45871D01*
X107088Y45956D01*
X107091Y45959D01*
X107094Y45962D01*
X107204Y46073D01*
X107264Y46166D01*
X107335Y46251D01*
X107349Y46296D01*
X107375Y46336D01*
X107395Y46445D01*
X107428Y46550D01*
X107479Y47029D01*
X107974Y47114D01*
X119368D01*
X119560Y46652D01*
X118953Y46046D01*
X110428D01*
X110381Y46093D01*
X109838Y46318D01*
X109251D01*
X108708Y46093D01*
X108293Y45678D01*
X108068Y45135D01*
Y44548D01*
X108130Y44399D01*
X108049Y44184D01*
X107807Y43872D01*
X107481Y43807D01*
X107090Y43546D01*
X105928Y42384D01*
X105928Y42383D01*
X105667Y41993D01*
X105575Y41532D01*
X105575Y41532D01*
Y37243D01*
X105667Y36782D01*
X105928Y36391D01*
X107546Y34773D01*
Y34706D01*
X107771Y34164D01*
X108186Y33748D01*
X108728Y33524D01*
X109316D01*
X109858Y33748D01*
X110274Y34164D01*
X110498Y34706D01*
Y35294D01*
X110274Y35836D01*
X109858Y36252D01*
X109316Y36476D01*
X109249D01*
X107984Y37741D01*
Y39089D01*
X108174Y39219D01*
X108484Y39343D01*
X108947Y39151D01*
X109534D01*
X110076Y39376D01*
X110213Y39512D01*
X122921D01*
X122921Y39512D01*
X123382Y39604D01*
X123773Y39865D01*
X123773Y39865D01*
X127218Y43310D01*
X127479Y43701D01*
X127570Y44161D01*
X127570Y44161D01*
Y47114D01*
X141917D01*
Y70899D01*
X142417Y70998D01*
X142925Y69774D01*
X143980Y68194D01*
X145324Y66850D01*
X146904Y65795D01*
X148659Y65068D01*
X150522Y64697D01*
X152422D01*
X154286Y65068D01*
X156041Y65795D01*
X157621Y66850D01*
X158965Y68194D01*
X160004Y69750D01*
X160037Y69756D01*
X160504Y69563D01*
Y56697D01*
X160028Y56641D01*
X160004Y56641D01*
X155016D01*
X154516Y56641D01*
X154016Y56641D01*
X149504D01*
X149004Y56641D01*
X148504Y56641D01*
X143492D01*
Y51266D01*
X144280D01*
Y48030D01*
X148216D01*
Y50913D01*
X148570Y51266D01*
X149004Y51266D01*
X149438Y51266D01*
X149791Y50913D01*
Y48030D01*
X153728D01*
Y50913D01*
X154082Y51266D01*
X154516Y51266D01*
X154950Y51266D01*
X155303Y50913D01*
Y48030D01*
X159240D01*
Y51266D01*
X160004D01*
X160028Y51266D01*
X160504Y51210D01*
Y25362D01*
X149914D01*
X149763Y25862D01*
X149819Y25900D01*
X149819Y25900D01*
X153514Y29594D01*
X157318D01*
Y37075D01*
Y41781D01*
X157675Y42138D01*
X157979Y42594D01*
X158086Y43131D01*
Y43429D01*
X159240D01*
Y47504D01*
X155303D01*
Y45012D01*
X155276Y44876D01*
Y43713D01*
X154839Y43276D01*
X154165D01*
X153728Y43429D01*
X153728Y43776D01*
Y47504D01*
X149791D01*
Y43429D01*
X150807D01*
X151243Y43276D01*
X151243Y42930D01*
Y37075D01*
Y31865D01*
X148086Y28709D01*
X141571D01*
Y24969D01*
X144855D01*
X144992Y24877D01*
X145606Y24755D01*
X145607Y24755D01*
X146297D01*
X146880Y24871D01*
X146924Y24870D01*
X147380Y24633D01*
Y23295D01*
X141573D01*
Y22202D01*
X141415Y21820D01*
X140544Y20949D01*
X140239Y20494D01*
X140132Y19956D01*
Y17493D01*
X135135Y12495D01*
X64628D01*
X64373Y12995D01*
X64518Y13213D01*
X64618Y13716D01*
Y20026D01*
X64782Y20422D01*
Y21009D01*
X64557Y21552D01*
X64142Y21967D01*
X63599Y22192D01*
X63012D01*
X62469Y21967D01*
X62054Y21552D01*
X61905Y21193D01*
X61405Y21293D01*
Y26150D01*
X57946D01*
X57644Y26650D01*
X57764Y26939D01*
Y27526D01*
X57539Y28069D01*
X57124Y28484D01*
X56581Y28709D01*
X56091D01*
X56090Y29171D01*
Y32842D01*
Y36091D01*
X50185D01*
Y32842D01*
Y28709D01*
X54969D01*
X55176Y28209D01*
X55036Y28069D01*
X54811Y27526D01*
Y26939D01*
X55001Y26480D01*
X54873Y26163D01*
X54745Y25980D01*
X46928D01*
X45192Y27716D01*
Y44628D01*
X45692Y44727D01*
X45784Y44506D01*
X46199Y44091D01*
X46742Y43866D01*
X47329D01*
X47872Y44091D01*
X48287Y44506D01*
X48512Y45049D01*
Y45636D01*
X48287Y46179D01*
X47872Y46594D01*
X47329Y46819D01*
X46742D01*
X46199Y46594D01*
X45784Y46179D01*
X45692Y45958D01*
X45192Y46057D01*
Y47737D01*
X45692Y47944D01*
X45805Y47831D01*
X46348Y47606D01*
X46935D01*
X47478Y47831D01*
X47893Y48246D01*
X48118Y48789D01*
Y49376D01*
X47893Y49919D01*
X47478Y50334D01*
X46935Y50559D01*
X46348D01*
X45805Y50334D01*
X45692Y50221D01*
X45192Y50428D01*
Y57340D01*
X45264Y57513D01*
Y58100D01*
X45039Y58643D01*
X44624Y59058D01*
X44081Y59283D01*
X43494D01*
X42951Y59058D01*
X42940Y59047D01*
X42440Y59254D01*
Y69563D01*
X42908Y69756D01*
X42940Y69750D01*
X43980Y68194D01*
X45324Y66850D01*
X46903Y65795D01*
X48659Y65068D01*
X50522Y64697D01*
X52422D01*
X54286Y65068D01*
X56041Y65795D01*
X57621Y66850D01*
X58965Y68194D01*
X60020Y69774D01*
X60610Y71198D01*
X61110Y71098D01*
Y61616D01*
X60610Y61456D01*
X60308Y61758D01*
X59765Y61983D01*
X59178D01*
X58635Y61758D01*
X58220Y61343D01*
X57995Y60800D01*
Y60213D01*
X58220Y59670D01*
X58635Y59255D01*
X59178Y59030D01*
X59765D01*
X60308Y59255D01*
X60610Y59557D01*
X61110Y59398D01*
Y52907D01*
X60610Y52671D01*
X60207Y52838D01*
X59620D01*
X59077Y52614D01*
X58662Y52198D01*
X58525Y51869D01*
X57975Y51712D01*
X54963Y54724D01*
X54537Y55008D01*
X54035Y55108D01*
X53826D01*
X53777Y55157D01*
X53235Y55382D01*
X52647D01*
X52105Y55157D01*
X51689Y54742D01*
X51465Y54199D01*
Y53612D01*
X51689Y53069D01*
X52105Y52654D01*
X52647Y52429D01*
X53235D01*
X53364Y52483D01*
X53491D01*
X54658Y51316D01*
X54467Y50854D01*
X50185D01*
Y46720D01*
X56090D01*
Y49231D01*
X56552Y49422D01*
X58926Y47048D01*
X58653Y46630D01*
X58645Y46622D01*
X58061D01*
X57823Y46524D01*
X57468D01*
Y46348D01*
X57103Y45982D01*
X56878Y45439D01*
Y44852D01*
X57103Y44309D01*
X57157Y44255D01*
X57153Y44219D01*
X56631Y44037D01*
X56628Y44038D01*
X56578Y44087D01*
X56036Y44312D01*
X55449D01*
X54906Y44087D01*
X54491Y43672D01*
X54266Y43129D01*
Y42542D01*
X54429Y42149D01*
X54241Y41945D01*
X54025Y41816D01*
X53552Y42012D01*
X52965D01*
X52422Y41787D01*
X52007Y41372D01*
X51782Y40829D01*
Y40242D01*
X52007Y39699D01*
X52422Y39284D01*
X52965Y39059D01*
X53205D01*
X53276Y39012D01*
X53778Y38912D01*
X57468D01*
Y38139D01*
X57272Y37664D01*
Y37076D01*
X57468Y36601D01*
Y36287D01*
X57743D01*
X57912Y36119D01*
X58454Y35894D01*
X59042D01*
X59584Y36119D01*
X59753Y36287D01*
X61405D01*
Y39437D01*
Y41799D01*
X57468D01*
Y41799D01*
X57452Y41804D01*
X57166Y42414D01*
X57218Y42542D01*
Y42978D01*
X57366Y43211D01*
X57658Y43374D01*
X61405D01*
Y43630D01*
X61905Y43837D01*
X62046Y43697D01*
X62588Y43472D01*
X63176D01*
X63718Y43697D01*
X64134Y44113D01*
X64358Y44655D01*
Y45243D01*
X64134Y45785D01*
X63718Y46200D01*
X63323Y46364D01*
X63133Y46554D01*
X63325Y47016D01*
X76465D01*
Y83375D01*
X106681D01*
Y77389D01*
D02*
G37*
G36*
X199674Y80083D02*
X199664Y76564D01*
X199201Y76373D01*
X195498Y80076D01*
Y81963D01*
X197795D01*
X199674Y80083D01*
D02*
G37*
G36*
X126563Y66785D02*
X126433Y66713D01*
X126063Y66631D01*
X125726Y66968D01*
X125183Y67193D01*
X124596D01*
X124054Y66968D01*
X123638Y66553D01*
X123413Y66010D01*
Y65423D01*
X123638Y64880D01*
X123680Y64839D01*
X123653Y64641D01*
X123513Y64298D01*
X123069Y64114D01*
X122654Y63699D01*
X122535Y63412D01*
X122035Y63512D01*
Y83375D01*
X126563D01*
Y66785D01*
D02*
G37*
G36*
X122701Y61867D02*
Y59596D01*
X122793Y59135D01*
X122953Y58895D01*
X122779Y58439D01*
X122722Y58377D01*
X122442Y58306D01*
X122035Y58603D01*
Y61844D01*
X122535Y62043D01*
X122701Y61867D01*
D02*
G37*
G36*
X218878Y60879D02*
Y52297D01*
X218681Y52165D01*
X218378Y52045D01*
X217912Y52238D01*
X217324D01*
X216782Y52013D01*
X216367Y51598D01*
X216142Y51056D01*
Y50989D01*
X212001Y46848D01*
X211740Y46457D01*
X211648Y45996D01*
X211648Y45996D01*
Y37538D01*
X211601Y37491D01*
X211376Y36948D01*
Y36361D01*
X211601Y35818D01*
X212016Y35403D01*
X212559Y35178D01*
X213146D01*
X213689Y35403D01*
X214104Y35818D01*
X214329Y36361D01*
Y36948D01*
X214104Y37491D01*
X214057Y37538D01*
Y45498D01*
X217845Y49286D01*
X217912D01*
X218378Y49479D01*
X218681Y49359D01*
X218878Y49227D01*
Y34052D01*
X216002Y31175D01*
X215750D01*
X215207Y30950D01*
X214792Y30535D01*
X214567Y29993D01*
Y29405D01*
X214792Y28863D01*
X215207Y28447D01*
X215750Y28223D01*
X216337D01*
X216880Y28447D01*
X217295Y28863D01*
X217520Y29405D01*
Y29855D01*
X220082Y32417D01*
X220544Y32225D01*
Y11504D01*
X216002Y6963D01*
X215651D01*
X215109Y6738D01*
X214693Y6323D01*
X214469Y5780D01*
Y5193D01*
X214693Y4650D01*
X215109Y4235D01*
X215651Y4010D01*
X216238D01*
X216781Y4235D01*
X217196Y4650D01*
X217421Y5193D01*
Y5544D01*
X221570Y9692D01*
X222032Y9501D01*
Y2014D01*
X221998Y1710D01*
X221912Y1465D01*
X221774Y1245D01*
X221590Y1061D01*
X221370Y923D01*
X221124Y837D01*
X220821Y803D01*
X200596D01*
X200243Y1157D01*
X200246Y2011D01*
X200453Y71891D01*
X200915Y72082D01*
X213951Y59046D01*
Y58927D01*
X213611Y58586D01*
X213386Y58044D01*
Y57456D01*
X213611Y56914D01*
X214026Y56498D01*
X214568Y56274D01*
X215156D01*
X215699Y56498D01*
X216114Y56914D01*
X216339Y57456D01*
Y58044D01*
X216114Y58586D01*
X215773Y58927D01*
Y59423D01*
X215704Y59772D01*
X215507Y60068D01*
X203659Y71916D01*
X203866Y72416D01*
X203935D01*
X204478Y72640D01*
X204893Y73056D01*
X205118Y73598D01*
Y73932D01*
X205618Y74139D01*
X218878Y60879D01*
D02*
G37*
G36*
X61110Y49479D02*
Y49230D01*
X60648Y49039D01*
X60475Y49212D01*
X60594Y49787D01*
X60610Y49794D01*
X61110Y49479D01*
D02*
G37*
G36*
X106681Y56084D02*
Y47114D01*
X106681D01*
X106630Y46635D01*
X106521Y46524D01*
X101760D01*
X95980Y52304D01*
X92114D01*
Y58131D01*
X101768Y58146D01*
X106639Y58154D01*
X106681Y56084D01*
D02*
G37*
G36*
X123702Y46773D02*
X123752Y46301D01*
X121381Y43931D01*
X120910Y43980D01*
X120734Y44420D01*
X123262Y46949D01*
X123702Y46773D01*
D02*
G37*
G36*
X147291Y18194D02*
X147359Y18030D01*
X147380Y18009D01*
Y16504D01*
X149949D01*
X150187Y16406D01*
X150774D01*
X151012Y16504D01*
X152016D01*
X152254Y16406D01*
X152841D01*
X153078Y16504D01*
X160504D01*
Y13897D01*
X160492Y13784D01*
X160409Y13319D01*
X160409D01*
X160421Y12824D01*
X160349Y12537D01*
X160349D01*
X160214Y12084D01*
X160207Y12065D01*
X160183Y12019D01*
X160001Y11669D01*
X159886Y11515D01*
X159823Y11508D01*
X159815Y11505D01*
X159737Y11316D01*
X159565Y11132D01*
X159381Y10960D01*
X159192Y10882D01*
X159189Y10874D01*
X159182Y10811D01*
X159027Y10696D01*
X159005Y10683D01*
X158632Y10490D01*
X158482Y10431D01*
X158161Y10348D01*
X158160Y10348D01*
X158156Y10346D01*
X158001Y10282D01*
X157854Y10259D01*
X157378Y10288D01*
Y10288D01*
X156901Y10205D01*
X156784Y10192D01*
X137459D01*
X137267Y10654D01*
X142531Y15918D01*
X142835Y16374D01*
X142942Y16911D01*
Y17524D01*
X143358Y17801D01*
X143430Y17772D01*
X144017D01*
X144560Y17997D01*
X144831Y18267D01*
X144907Y18191D01*
X145450Y17966D01*
X146037D01*
X146580Y18191D01*
X146701Y18312D01*
X147291Y18194D01*
D02*
G37*
G36*
X45212Y23723D02*
X45237Y23232D01*
X45190Y23089D01*
X44577Y22477D01*
X44509D01*
X43966Y22252D01*
X43551Y21837D01*
X43326Y21294D01*
Y20707D01*
X43551Y20164D01*
X43966Y19749D01*
X44509Y19524D01*
X45096D01*
X45211Y19571D01*
X45494Y19148D01*
X44108Y17761D01*
X43935Y17690D01*
X43520Y17275D01*
X43295Y16732D01*
Y16145D01*
X43520Y15602D01*
X43935Y15187D01*
X44478Y14962D01*
X45065D01*
X45608Y15187D01*
X46023Y15602D01*
X46095Y15774D01*
X48766Y18445D01*
X49863D01*
X50185Y18079D01*
X50185Y17945D01*
Y13945D01*
X56090D01*
Y17945D01*
X56091Y18079D01*
X56412Y18445D01*
X57468D01*
Y18276D01*
X61405D01*
Y19614D01*
X61905Y19828D01*
X61993Y19745D01*
Y14259D01*
X60951Y13217D01*
X60417Y12996D01*
X60002Y12581D01*
X59777Y12038D01*
Y11451D01*
X60002Y10909D01*
X60218Y10692D01*
X60011Y10192D01*
X46161D01*
X46033Y10207D01*
X45567Y10288D01*
X45567Y10288D01*
Y10288D01*
X45122Y10263D01*
X44785Y10348D01*
X44332Y10483D01*
X44313Y10490D01*
X44267Y10514D01*
X43917Y10696D01*
X43763Y10811D01*
X43756Y10874D01*
X43753Y10882D01*
X43564Y10960D01*
X43380Y11132D01*
X43208Y11316D01*
X43130Y11505D01*
X43122Y11508D01*
X43059Y11515D01*
X42944Y11670D01*
X42931Y11691D01*
X42738Y12065D01*
X42677Y12219D01*
X42596Y12536D01*
X42596Y12537D01*
X42595Y12540D01*
X42524Y12824D01*
X42536Y13319D01*
X42536D01*
X42453Y13784D01*
X42440Y13897D01*
Y25787D01*
X42940Y25994D01*
X45212Y23723D01*
D02*
G37*
G36*
X193675Y79699D02*
X193745Y79350D01*
X193942Y79055D01*
X199654Y73343D01*
X199443Y2014D01*
X199439Y803D01*
X189809D01*
X189506Y837D01*
X189260Y923D01*
X189040Y1061D01*
X188856Y1245D01*
X188718Y1465D01*
X188632Y1710D01*
X188598Y2014D01*
Y81963D01*
X193675D01*
Y79699D01*
D02*
G37*
%LPC*%
G36*
X195274Y218183D02*
X194687D01*
X194144Y217958D01*
X193729Y217543D01*
X193504Y217001D01*
Y216413D01*
X193729Y215870D01*
X194144Y215455D01*
X194687Y215230D01*
X195274D01*
X195817Y215455D01*
X196232Y215870D01*
X196457Y216413D01*
Y217001D01*
X196232Y217543D01*
X195817Y217958D01*
X195274Y218183D01*
D02*
G37*
G36*
X211580Y214423D02*
X209680D01*
X207816Y214053D01*
X206061Y213326D01*
X204481Y212270D01*
X203138Y210927D01*
X202082Y209347D01*
X201355Y207591D01*
X200984Y205728D01*
Y203828D01*
X201355Y201964D01*
X202082Y200209D01*
X203138Y198629D01*
X204481Y197286D01*
X206061Y196230D01*
X207816Y195503D01*
X209680Y195132D01*
X211580D01*
X213443Y195503D01*
X215199Y196230D01*
X216779Y197286D01*
X218122Y198629D01*
X219178Y200209D01*
X219905Y201964D01*
X220276Y203828D01*
Y205728D01*
X219905Y207591D01*
X219178Y209347D01*
X218122Y210927D01*
X216779Y212270D01*
X215199Y213326D01*
X213443Y214053D01*
X211580Y214423D01*
D02*
G37*
G36*
X12400Y226746D02*
X11813D01*
X11270Y226521D01*
X10855Y226106D01*
X10630Y225564D01*
Y224976D01*
X10855Y224433D01*
X11270Y224018D01*
X11813Y223793D01*
X12400D01*
X12943Y224018D01*
X13358Y224433D01*
X13583Y224976D01*
Y225564D01*
X13358Y226106D01*
X12943Y226521D01*
X12400Y226746D01*
D02*
G37*
G36*
X9341Y219856D02*
X8754D01*
X8211Y219632D01*
X7796Y219216D01*
X7571Y218674D01*
Y218086D01*
X7796Y217544D01*
X8211Y217128D01*
X8754Y216904D01*
X9341D01*
X9883Y217128D01*
X10299Y217544D01*
X10524Y218086D01*
Y218674D01*
X10299Y219216D01*
X9883Y219632D01*
X9341Y219856D01*
D02*
G37*
G36*
X7417Y203765D02*
X6830D01*
X6287Y203540D01*
X5872Y203124D01*
X5647Y202582D01*
Y201994D01*
X5872Y201452D01*
X6287Y201037D01*
X6830Y200812D01*
X7417D01*
X7960Y201037D01*
X8375Y201452D01*
X8600Y201994D01*
Y202582D01*
X8375Y203124D01*
X7960Y203540D01*
X7417Y203765D01*
D02*
G37*
G36*
X20997Y184070D02*
X20370D01*
X19791Y183830D01*
X19348Y183387D01*
X19109Y182808D01*
Y182182D01*
X19348Y181603D01*
X19791Y181160D01*
X20370Y180920D01*
X20997D01*
X21575Y181160D01*
X22018Y181603D01*
X22258Y182182D01*
Y182808D01*
X22018Y183387D01*
X21575Y183830D01*
X20997Y184070D01*
D02*
G37*
G36*
X31790Y146136D02*
X31202D01*
X30660Y145911D01*
X30244Y145496D01*
X30020Y144953D01*
Y144366D01*
X30244Y143823D01*
X30660Y143408D01*
X31202Y143183D01*
X31790D01*
X32332Y143408D01*
X32748Y143823D01*
X32972Y144366D01*
Y144953D01*
X32748Y145496D01*
X32332Y145911D01*
X31790Y146136D01*
D02*
G37*
G36*
X87730Y144167D02*
X83655D01*
Y141949D01*
X83155Y141742D01*
X83021Y141876D01*
X82479Y142101D01*
X81891D01*
X81349Y141876D01*
X80933Y141460D01*
X80709Y140918D01*
Y140550D01*
X79814Y139655D01*
X43406D01*
X43098Y139594D01*
X42838Y139420D01*
X41567Y138150D01*
X41534Y138163D01*
X40946D01*
X40404Y137939D01*
X39988Y137523D01*
X39764Y136981D01*
Y136393D01*
X39988Y135851D01*
X40404Y135435D01*
X40946Y135211D01*
X41534D01*
X42076Y135435D01*
X42492Y135851D01*
X42717Y136393D01*
Y136981D01*
X42703Y137014D01*
X43465Y137777D01*
X43522Y137755D01*
X43898Y137374D01*
Y136787D01*
X44122Y136245D01*
X44538Y135829D01*
X45080Y135605D01*
X45668D01*
X46210Y135829D01*
X46626Y136245D01*
X46850Y136787D01*
Y137374D01*
X46778Y137550D01*
X47112Y138050D01*
X80147D01*
X80454Y138111D01*
X80715Y138285D01*
X81670Y139240D01*
X81891Y139148D01*
X82479D01*
X83021Y139373D01*
X83437Y139788D01*
X83441Y139799D01*
X83655Y140230D01*
Y140230D01*
X83655Y140230D01*
X84723D01*
X84991Y139963D01*
X85533Y139738D01*
X86120D01*
X86663Y139963D01*
X86930Y140230D01*
X87730D01*
Y144167D01*
D02*
G37*
G36*
X37853Y138569D02*
X37265D01*
X36723Y138344D01*
X36307Y137929D01*
X36083Y137386D01*
Y136799D01*
X36307Y136257D01*
X36723Y135841D01*
X37265Y135616D01*
X37853D01*
X38395Y135841D01*
X38811Y136257D01*
X39035Y136799D01*
Y137386D01*
X38811Y137929D01*
X38395Y138344D01*
X37853Y138569D01*
D02*
G37*
G36*
X23604Y123006D02*
X22852D01*
X22127Y122811D01*
X21476Y122436D01*
X20944Y121904D01*
X20569Y121253D01*
X20374Y120528D01*
Y119776D01*
X20569Y119050D01*
X20944Y118399D01*
X21476Y117868D01*
X22127Y117492D01*
X22852Y117297D01*
X23604D01*
X24330Y117492D01*
X24981Y117868D01*
X25512Y118399D01*
X25888Y119050D01*
X26083Y119776D01*
Y120528D01*
X25888Y121253D01*
X25512Y121904D01*
X24981Y122436D01*
X24330Y122811D01*
X23604Y123006D01*
D02*
G37*
G36*
X25490Y83045D02*
X24903D01*
X24361Y82821D01*
X24020Y82480D01*
X18602D01*
X18254Y82411D01*
X17958Y82213D01*
X15837Y80093D01*
X15356D01*
X14813Y79868D01*
X14398Y79453D01*
X14173Y78910D01*
Y78323D01*
X14398Y77780D01*
X14813Y77365D01*
X15356Y77140D01*
X15426D01*
X15633Y76640D01*
X13431Y74438D01*
X13233Y74142D01*
X13164Y73793D01*
Y72305D01*
X12831Y71972D01*
X12606Y71430D01*
Y70842D01*
X12831Y70300D01*
X13246Y69884D01*
X13789Y69660D01*
X14376D01*
X14624Y69762D01*
X15124Y69436D01*
Y62568D01*
X14784Y62228D01*
X14559Y61686D01*
Y61098D01*
X14784Y60556D01*
X15199Y60140D01*
X15742Y59916D01*
X16329D01*
X16872Y60140D01*
X17287Y60556D01*
X17512Y61098D01*
Y61686D01*
X17287Y62228D01*
X16947Y62568D01*
Y72129D01*
X20751Y75933D01*
X27564D01*
X27904Y75593D01*
X28446Y75368D01*
X29034D01*
X29576Y75593D01*
X29992Y76008D01*
X30217Y76551D01*
Y77138D01*
X29992Y77681D01*
X29576Y78096D01*
X29034Y78321D01*
X28676D01*
X28572Y78421D01*
X28370Y78789D01*
X28543Y79208D01*
Y79796D01*
X28319Y80338D01*
X27903Y80754D01*
X27361Y80979D01*
X27091D01*
X26715Y81245D01*
X26673Y81440D01*
Y81863D01*
X26448Y82405D01*
X26033Y82821D01*
X25490Y83045D01*
D02*
G37*
G36*
X12597Y52435D02*
X12009D01*
X11467Y52210D01*
X11051Y51795D01*
X10827Y51252D01*
Y50665D01*
X11051Y50122D01*
X11467Y49707D01*
X12009Y49482D01*
X12597D01*
X13139Y49707D01*
X13555Y50122D01*
X13780Y50665D01*
Y51252D01*
X13555Y51795D01*
X13139Y52210D01*
X12597Y52435D01*
D02*
G37*
G36*
X15156Y45939D02*
X14569D01*
X14026Y45714D01*
X13611Y45299D01*
X13386Y44756D01*
Y44169D01*
X13611Y43626D01*
X14026Y43211D01*
X14569Y42986D01*
X15156D01*
X15698Y43211D01*
X16114Y43626D01*
X16339Y44169D01*
Y44756D01*
X16114Y45299D01*
X15698Y45714D01*
X15156Y45939D01*
D02*
G37*
G36*
X13187Y29994D02*
X12600D01*
X12057Y29769D01*
X11642Y29354D01*
X11417Y28811D01*
Y28224D01*
X11642Y27681D01*
X12057Y27266D01*
X12600Y27042D01*
X13187D01*
X13730Y27266D01*
X14145Y27681D01*
X14370Y28224D01*
Y28811D01*
X14145Y29354D01*
X13730Y29769D01*
X13187Y29994D01*
D02*
G37*
G36*
X3148Y29896D02*
X2561D01*
X2018Y29671D01*
X1603Y29256D01*
X1378Y28713D01*
Y28126D01*
X1603Y27583D01*
X2018Y27168D01*
X2561Y26943D01*
X3148D01*
X3691Y27168D01*
X4106Y27583D01*
X4331Y28126D01*
Y28713D01*
X4106Y29256D01*
X3691Y29671D01*
X3148Y29896D01*
D02*
G37*
G36*
X7799Y13360D02*
X7212D01*
X6669Y13136D01*
X6254Y12720D01*
X6029Y12178D01*
Y11590D01*
X6254Y11048D01*
X6669Y10632D01*
X7212Y10408D01*
X7799D01*
X8342Y10632D01*
X8757Y11048D01*
X8982Y11590D01*
Y12178D01*
X8757Y12720D01*
X8342Y13136D01*
X7799Y13360D01*
D02*
G37*
G36*
X141746Y221716D02*
X141159D01*
X140617Y221492D01*
X140201Y221076D01*
X139976Y220534D01*
Y219947D01*
X140201Y219404D01*
X140617Y218988D01*
X141159Y218764D01*
X141746D01*
X142289Y218988D01*
X142704Y219404D01*
X142929Y219947D01*
Y220534D01*
X142704Y221076D01*
X142289Y221492D01*
X141746Y221716D01*
D02*
G37*
G36*
X88400Y218665D02*
X87813D01*
X87270Y218441D01*
X86855Y218025D01*
X86630Y217483D01*
Y216895D01*
X86855Y216353D01*
X87270Y215937D01*
X87813Y215713D01*
X88400D01*
X88943Y215937D01*
X89358Y216353D01*
X89583Y216895D01*
Y217483D01*
X89358Y218025D01*
X88943Y218441D01*
X88400Y218665D01*
D02*
G37*
G36*
X151294Y217681D02*
X150706D01*
X150164Y217456D01*
X149748Y217041D01*
X149524Y216498D01*
Y215911D01*
X149748Y215368D01*
X150164Y214953D01*
X150706Y214728D01*
X151294D01*
X151836Y214953D01*
X152252Y215368D01*
X152476Y215911D01*
Y216498D01*
X152252Y217041D01*
X151836Y217456D01*
X151294Y217681D01*
D02*
G37*
G36*
X155438Y217304D02*
X154850D01*
X154308Y217079D01*
X153893Y216664D01*
X153668Y216122D01*
Y215534D01*
X153893Y214992D01*
X154308Y214576D01*
X154850Y214352D01*
X155438D01*
X155980Y214576D01*
X156396Y214992D01*
X156620Y215534D01*
Y216122D01*
X156396Y216664D01*
X155980Y217079D01*
X155438Y217304D01*
D02*
G37*
G36*
X122063Y219558D02*
X118126D01*
Y215483D01*
X122063D01*
Y216115D01*
X132173D01*
X133437Y214852D01*
X133508Y214680D01*
X133924Y214264D01*
X134466Y214039D01*
X135054D01*
X135596Y214264D01*
X136011Y214680D01*
X136236Y215222D01*
Y215809D01*
X136011Y216352D01*
X135596Y216767D01*
X135424Y216839D01*
X133749Y218514D01*
X133293Y218818D01*
X132755Y218925D01*
X122063D01*
Y219558D01*
D02*
G37*
G36*
X92837Y204402D02*
X92250D01*
X91707Y204177D01*
X91292Y203762D01*
X91067Y203219D01*
Y202631D01*
X91292Y202089D01*
X91707Y201674D01*
X92155Y201488D01*
X92144Y201001D01*
X92140Y200987D01*
X91601Y200763D01*
X91185Y200348D01*
X90961Y199805D01*
Y199218D01*
X91185Y198676D01*
X91601Y198260D01*
X92143Y198035D01*
X92731D01*
X93273Y198260D01*
X93689Y198676D01*
X93913Y199218D01*
Y199805D01*
X93689Y200348D01*
X93273Y200763D01*
X92826Y200949D01*
X92837Y201435D01*
X92840Y201450D01*
X93380Y201674D01*
X93795Y202089D01*
X94020Y202631D01*
Y203219D01*
X93795Y203762D01*
X93380Y204177D01*
X92837Y204402D01*
D02*
G37*
G36*
X122063Y214958D02*
X118126D01*
Y210883D01*
Y207511D01*
X122063D01*
Y208235D01*
X122965D01*
X123467Y208335D01*
X123893Y208620D01*
X124411Y209139D01*
X125310D01*
X139084Y195364D01*
X138967Y194775D01*
X138835Y194720D01*
X138420Y194305D01*
X138195Y193762D01*
Y193175D01*
X138420Y192632D01*
X138835Y192217D01*
X139378Y191992D01*
X139965D01*
X140508Y192217D01*
X140923Y192632D01*
X140926Y192638D01*
X141542Y192820D01*
X141838Y192697D01*
X142425D01*
X142968Y192922D01*
X143383Y193337D01*
X143608Y193880D01*
Y194467D01*
X143383Y195010D01*
X142968Y195425D01*
X142572Y195589D01*
X128067Y210094D01*
Y214513D01*
X122555D01*
Y214513D01*
X122063Y214532D01*
Y214958D01*
D02*
G37*
G36*
X78658Y196267D02*
X74721D01*
Y192192D01*
X78658D01*
Y196267D01*
D02*
G37*
G36*
X123390Y202510D02*
X122803D01*
X122260Y202285D01*
X121845Y201870D01*
X121620Y201327D01*
Y200740D01*
X121172Y200516D01*
X120827Y200374D01*
X120412Y199958D01*
X120187Y199416D01*
Y198828D01*
X120412Y198286D01*
X120827Y197871D01*
X121370Y197646D01*
X121422D01*
Y197195D01*
X121647Y196652D01*
X122062Y196237D01*
X122524Y196046D01*
X122511Y196016D01*
Y195429D01*
X122736Y194886D01*
X123151Y194471D01*
X123694Y194246D01*
X123835D01*
Y193864D01*
X124059Y193321D01*
X124475Y192906D01*
X125017Y192681D01*
X125311D01*
Y192486D01*
X125536Y191943D01*
X125951Y191528D01*
X126494Y191303D01*
X127081D01*
X127448Y190914D01*
X127580Y190595D01*
X127995Y190180D01*
X128538Y189955D01*
X129125D01*
X129667Y190180D01*
X130083Y190595D01*
X130308Y191138D01*
Y191725D01*
X130083Y192268D01*
X129771Y192579D01*
X129980Y192788D01*
X130205Y193331D01*
Y193918D01*
X129980Y194461D01*
X129565Y194876D01*
X129022Y195101D01*
X128665D01*
Y195180D01*
X128440Y195722D01*
X128061Y196101D01*
X128253Y196293D01*
X128477Y196835D01*
Y197423D01*
X128253Y197965D01*
X127837Y198381D01*
X127295Y198605D01*
X126707D01*
X126241Y198412D01*
X125873Y198780D01*
X125570Y198906D01*
X125610Y199001D01*
Y199588D01*
X125385Y200131D01*
X124970Y200546D01*
X124563Y200715D01*
X124573Y200740D01*
Y201327D01*
X124348Y201870D01*
X123933Y202285D01*
X123390Y202510D01*
D02*
G37*
G36*
X211022Y172809D02*
X210435D01*
X209892Y172584D01*
X209477Y172169D01*
X209252Y171626D01*
Y171039D01*
X209477Y170496D01*
X209892Y170081D01*
X210435Y169856D01*
X211022D01*
X211565Y170081D01*
X211980Y170496D01*
X212205Y171039D01*
Y171626D01*
X211980Y172169D01*
X211565Y172584D01*
X211022Y172809D01*
D02*
G37*
G36*
X193174Y159865D02*
X192587D01*
X192044Y159640D01*
X191629Y159225D01*
X191404Y158682D01*
Y158095D01*
X191629Y157552D01*
X192044Y157137D01*
X192587Y156912D01*
X192984D01*
X193023Y156882D01*
X193284Y156485D01*
X193293Y156450D01*
X193138Y156075D01*
Y155488D01*
X193362Y154945D01*
X193778Y154530D01*
X194320Y154305D01*
X194908D01*
X195450Y154530D01*
X195865Y154945D01*
X196090Y155488D01*
Y156075D01*
X195865Y156618D01*
X195450Y157033D01*
X194908Y157258D01*
X194511D01*
X194472Y157288D01*
X194211Y157685D01*
X194202Y157720D01*
X194357Y158095D01*
Y158682D01*
X194132Y159225D01*
X193717Y159640D01*
X193174Y159865D01*
D02*
G37*
G36*
X130054Y143758D02*
X129467D01*
X128924Y143534D01*
X128509Y143118D01*
X128284Y142576D01*
Y141988D01*
X128509Y141446D01*
X128924Y141030D01*
X129467Y140806D01*
X130054D01*
X130597Y141030D01*
X131012Y141446D01*
X131237Y141988D01*
Y142576D01*
X131012Y143118D01*
X130597Y143534D01*
X130054Y143758D01*
D02*
G37*
G36*
X119262Y135576D02*
X118674D01*
X118132Y135352D01*
X117717Y134936D01*
X117492Y134394D01*
Y133806D01*
X117717Y133264D01*
X118132Y132849D01*
X118674Y132624D01*
X119262D01*
X119804Y132849D01*
X120220Y133264D01*
X120445Y133806D01*
Y134394D01*
X120220Y134936D01*
X119804Y135352D01*
X119262Y135576D01*
D02*
G37*
G36*
X132036Y131717D02*
X131448D01*
X130906Y131492D01*
X130491Y131077D01*
X130266Y130534D01*
Y129947D01*
X130491Y129404D01*
X130906Y128989D01*
X131448Y128764D01*
X132036D01*
X132578Y128989D01*
X132994Y129404D01*
X133219Y129947D01*
Y130534D01*
X132994Y131077D01*
X132578Y131492D01*
X132036Y131717D01*
D02*
G37*
G36*
X136416Y131077D02*
X135828D01*
X135286Y130852D01*
X134870Y130437D01*
X134646Y129894D01*
Y129307D01*
X134870Y128764D01*
X135286Y128349D01*
X135828Y128124D01*
X136416D01*
X136958Y128349D01*
X137374Y128764D01*
X137598Y129307D01*
Y129894D01*
X137374Y130437D01*
X136958Y130852D01*
X136416Y131077D01*
D02*
G37*
G36*
X134939Y107947D02*
X134352D01*
X133809Y107722D01*
X133394Y107307D01*
X133169Y106764D01*
Y106177D01*
X133394Y105634D01*
X133809Y105219D01*
X134352Y104994D01*
X134939D01*
X135482Y105219D01*
X135897Y105634D01*
X136122Y106177D01*
Y106764D01*
X135897Y107307D01*
X135482Y107722D01*
X134939Y107947D01*
D02*
G37*
G36*
X104823Y117494D02*
X101673D01*
Y108045D01*
X104823D01*
Y117494D01*
D02*
G37*
G36*
X157433Y112671D02*
X156845D01*
X156303Y112447D01*
X155887Y112031D01*
X155663Y111489D01*
Y110901D01*
X155887Y110359D01*
X156303Y109943D01*
X156845Y109719D01*
X157433D01*
X157975Y109943D01*
X158391Y110359D01*
X158615Y110901D01*
Y111489D01*
X158391Y112031D01*
X157975Y112447D01*
X157433Y112671D01*
D02*
G37*
G36*
X157183Y106667D02*
X156596D01*
X156053Y106443D01*
X155638Y106027D01*
X155413Y105485D01*
Y104897D01*
X155638Y104355D01*
X156053Y103939D01*
X156596Y103715D01*
X157183D01*
X157726Y103939D01*
X158141Y104355D01*
X158366Y104897D01*
Y105485D01*
X158141Y106027D01*
X157726Y106443D01*
X157183Y106667D01*
D02*
G37*
G36*
X141731Y103580D02*
X141143D01*
X140601Y103355D01*
X140185Y102940D01*
X139961Y102397D01*
Y101810D01*
X140185Y101267D01*
X140601Y100852D01*
X141143Y100627D01*
X141731D01*
X142273Y100852D01*
X142689Y101267D01*
X142913Y101810D01*
Y102397D01*
X142689Y102940D01*
X142273Y103355D01*
X141731Y103580D01*
D02*
G37*
G36*
X203050Y94364D02*
X202462D01*
X201920Y94139D01*
X201504Y93724D01*
X201279Y93182D01*
Y92594D01*
X201504Y92052D01*
X201920Y91636D01*
X202462Y91412D01*
X203050D01*
X203592Y91636D01*
X204008Y92052D01*
X204232Y92594D01*
Y93182D01*
X204008Y93724D01*
X203592Y94139D01*
X203050Y94364D01*
D02*
G37*
G36*
X83559Y47705D02*
X82972D01*
X82429Y47480D01*
X82014Y47065D01*
X82011Y47059D01*
X81395Y46877D01*
X81099Y47000D01*
X80512D01*
X79969Y46775D01*
X79554Y46360D01*
X79329Y45817D01*
Y45230D01*
X79554Y44687D01*
X79969Y44272D01*
X80365Y44108D01*
X94870Y29603D01*
Y25183D01*
X100382D01*
Y25183D01*
X100874Y25164D01*
Y24739D01*
X104811D01*
Y28814D01*
Y32186D01*
X100874D01*
Y31461D01*
X99972D01*
X99470Y31361D01*
X99044Y31077D01*
X98526Y30558D01*
X97627D01*
X83853Y44332D01*
X83970Y44922D01*
X84102Y44977D01*
X84517Y45392D01*
X84742Y45935D01*
Y46522D01*
X84517Y47065D01*
X84102Y47480D01*
X83559Y47705D01*
D02*
G37*
G36*
X148216Y47504D02*
X144280D01*
Y43429D01*
X148216D01*
Y47504D01*
D02*
G37*
G36*
X94399Y49742D02*
X93812D01*
X93269Y49517D01*
X92854Y49102D01*
X92629Y48559D01*
Y47972D01*
X92854Y47429D01*
X93166Y47118D01*
X92957Y46909D01*
X92732Y46366D01*
Y45779D01*
X92957Y45236D01*
X93372Y44821D01*
X93915Y44596D01*
X94273D01*
Y44517D01*
X94497Y43975D01*
X94876Y43596D01*
X94684Y43404D01*
X94460Y42862D01*
Y42274D01*
X94684Y41732D01*
X95100Y41316D01*
X95642Y41091D01*
X96230D01*
X96696Y41285D01*
X97064Y40917D01*
X97366Y40791D01*
X97327Y40696D01*
Y40108D01*
X97552Y39566D01*
X97967Y39151D01*
X98374Y38982D01*
X98364Y38957D01*
Y38370D01*
X98589Y37827D01*
X99004Y37412D01*
X99547Y37187D01*
X100134D01*
X100677Y37412D01*
X101092Y37827D01*
X101317Y38370D01*
Y38957D01*
X101765Y39180D01*
X102110Y39323D01*
X102525Y39738D01*
X102750Y40281D01*
Y40868D01*
X102525Y41411D01*
X102110Y41826D01*
X101567Y42051D01*
X101515D01*
Y42502D01*
X101290Y43044D01*
X100875Y43460D01*
X100413Y43651D01*
X100426Y43681D01*
Y44268D01*
X100201Y44811D01*
X99786Y45226D01*
X99243Y45451D01*
X99102D01*
Y45833D01*
X98878Y46376D01*
X98462Y46791D01*
X97920Y47016D01*
X97626D01*
Y47211D01*
X97401Y47754D01*
X96986Y48169D01*
X96443Y48394D01*
X95856D01*
X95489Y48783D01*
X95357Y49102D01*
X94942Y49517D01*
X94399Y49742D01*
D02*
G37*
G36*
X130794Y41661D02*
X130206D01*
X129664Y41437D01*
X129248Y41021D01*
X129024Y40479D01*
Y39891D01*
X129248Y39349D01*
X129664Y38934D01*
X130111Y38748D01*
X130100Y38261D01*
X130097Y38247D01*
X129557Y38023D01*
X129142Y37608D01*
X128917Y37065D01*
Y36478D01*
X129142Y35935D01*
X129557Y35520D01*
X130100Y35295D01*
X130687D01*
X131230Y35520D01*
X131645Y35935D01*
X131870Y36478D01*
Y37065D01*
X131645Y37608D01*
X131230Y38023D01*
X130782Y38209D01*
X130793Y38695D01*
X130797Y38710D01*
X131336Y38934D01*
X131752Y39349D01*
X131976Y39891D01*
Y40479D01*
X131752Y41021D01*
X131336Y41437D01*
X130794Y41661D01*
D02*
G37*
G36*
X68087Y25345D02*
X67499D01*
X66957Y25121D01*
X66541Y24705D01*
X66317Y24163D01*
Y23575D01*
X66541Y23033D01*
X66957Y22617D01*
X67499Y22393D01*
X68087D01*
X68629Y22617D01*
X69045Y23033D01*
X69269Y23575D01*
Y24163D01*
X69045Y24705D01*
X68629Y25121D01*
X68087Y25345D01*
D02*
G37*
G36*
X72231Y24969D02*
X71643D01*
X71101Y24744D01*
X70685Y24328D01*
X70461Y23786D01*
Y23199D01*
X70685Y22656D01*
X71101Y22241D01*
X71643Y22016D01*
X72231D01*
X72773Y22241D01*
X73189Y22656D01*
X73413Y23199D01*
Y23786D01*
X73189Y24328D01*
X72773Y24744D01*
X72231Y24969D01*
D02*
G37*
G36*
X135124Y23984D02*
X134537D01*
X133994Y23760D01*
X133579Y23344D01*
X133354Y22802D01*
Y22214D01*
X133579Y21672D01*
X133994Y21256D01*
X134537Y21032D01*
X135124D01*
X135667Y21256D01*
X136082Y21672D01*
X136307Y22214D01*
Y22802D01*
X136082Y23344D01*
X135667Y23760D01*
X135124Y23984D01*
D02*
G37*
G36*
X88471Y25657D02*
X87884D01*
X87341Y25433D01*
X86926Y25017D01*
X86701Y24475D01*
Y23887D01*
X86926Y23345D01*
X87341Y22930D01*
X87513Y22858D01*
X89188Y21183D01*
X89644Y20878D01*
X90182Y20771D01*
X100874D01*
Y20139D01*
X104811D01*
Y24214D01*
X100874D01*
Y23581D01*
X90764D01*
X89500Y24845D01*
X89429Y25017D01*
X89013Y25433D01*
X88471Y25657D01*
D02*
G37*
G36*
X81778Y20933D02*
X81191D01*
X80648Y20708D01*
X80233Y20293D01*
X80008Y19750D01*
Y19163D01*
X80233Y18620D01*
X80648Y18205D01*
X81191Y17980D01*
X81778D01*
X82321Y18205D01*
X82736Y18620D01*
X82961Y19163D01*
Y19750D01*
X82736Y20293D01*
X82321Y20708D01*
X81778Y20933D01*
D02*
G37*
G36*
X216623Y39894D02*
X216036D01*
X215493Y39669D01*
X215078Y39254D01*
X214853Y38711D01*
Y38124D01*
X215078Y37581D01*
X215493Y37166D01*
X216036Y36941D01*
X216623D01*
X217165Y37166D01*
X217581Y37581D01*
X217806Y38124D01*
Y38711D01*
X217581Y39254D01*
X217165Y39669D01*
X216623Y39894D01*
D02*
G37*
G36*
X215229Y16313D02*
X214642D01*
X214099Y16088D01*
X213684Y15673D01*
X213459Y15130D01*
Y14543D01*
X213579Y14254D01*
X213503Y13845D01*
X213315Y13683D01*
X212943Y13529D01*
X212528Y13114D01*
X212303Y12571D01*
Y11984D01*
X212528Y11441D01*
X212943Y11026D01*
X213486Y10801D01*
X214073D01*
X214616Y11026D01*
X215031Y11441D01*
X215256Y11984D01*
Y12571D01*
X215136Y12860D01*
X215212Y13270D01*
X215400Y13431D01*
X215772Y13585D01*
X216187Y14000D01*
X216412Y14543D01*
Y15130D01*
X216187Y15673D01*
X215772Y16088D01*
X215229Y16313D01*
D02*
G37*
%LPD*%
D11*
X207087Y254528D02*
Y255413D01*
X216142Y253150D02*
X217331Y254339D01*
X218709D02*
X218898Y254528D01*
X217331Y254339D02*
X218709D01*
X209350Y253150D02*
X209449D01*
X208161Y254339D02*
X209350Y253150D01*
X207276Y254339D02*
X208161D01*
X207087Y254528D02*
X207276Y254339D01*
X218898Y254528D02*
Y255413D01*
X111622Y140555D02*
X112008Y140941D01*
X111622Y140338D02*
Y140555D01*
X96258Y124975D02*
X111622Y140338D01*
X112008Y140941D02*
Y141149D01*
X74423Y124975D02*
X96258D01*
X74977Y123558D02*
X97270D01*
X113914Y140620D02*
X114549Y141255D01*
X113914Y140202D02*
Y140620D01*
X97270Y123558D02*
X113914Y140202D01*
X114549Y141255D02*
Y141463D01*
X85539Y145466D02*
Y147003D01*
X85520Y145447D02*
X85539Y145466D01*
Y147003D02*
X85557Y147022D01*
X16634Y139246D02*
X19882Y135998D01*
X16634Y139246D02*
Y196690D01*
X35842Y118297D02*
X67746D01*
X74423Y124975D01*
X68323Y116904D02*
X74977Y123558D01*
X19783Y79502D02*
X27067D01*
X15650Y78616D02*
X18602Y81569D01*
X14075Y73793D02*
X19783Y79502D01*
X16035Y72506D02*
X20374Y76845D01*
X14075Y71144D02*
X14083Y71136D01*
X25197Y81569D02*
X25197Y81569D01*
X16035Y61392D02*
Y72506D01*
X20374Y76845D02*
X28740D01*
X14075Y71144D02*
Y73793D01*
X194587Y79699D02*
Y94463D01*
Y79699D02*
X214862Y59423D01*
Y57750D02*
Y59423D01*
X188163Y100886D02*
X194587Y94463D01*
X168701Y100886D02*
X188163D01*
X32062Y95598D02*
Y108759D01*
X40207Y116904D02*
X68323D01*
X32062Y108759D02*
X40207Y116904D01*
X22765Y86301D02*
X32062Y95598D01*
X144783Y136589D02*
X158957Y122415D01*
X135224Y136589D02*
X144783D01*
X99016Y100762D02*
X104626Y106372D01*
X99016Y97317D02*
Y100762D01*
X104626Y106372D02*
X108760D01*
X23720Y106175D02*
X35842Y118297D01*
X18602Y81569D02*
X25197D01*
X134252Y135678D02*
X134313D01*
X135224Y136589D01*
X99016Y97317D02*
X101440Y94893D01*
Y92790D02*
Y94893D01*
X108760Y103715D02*
Y106372D01*
Y112770D01*
Y103715D02*
X114272Y98203D01*
Y92986D02*
Y98203D01*
X97969Y92790D02*
X101440D01*
X122539Y104108D02*
X129662Y96986D01*
Y92790D02*
Y96986D01*
X122539Y104108D02*
Y110211D01*
X141543Y109136D02*
Y112482D01*
X133727Y101319D02*
X141543Y109136D01*
X133727Y93471D02*
Y101319D01*
X141543Y112482D02*
X141831Y112770D01*
X122539Y110211D02*
X122539Y110211D01*
X122539Y110211D02*
Y112770D01*
X133035Y92790D02*
X133045D01*
X133727Y93471D01*
X160055Y194748D02*
X168902Y185901D01*
X169886D01*
X169996Y185791D01*
X126237Y210067D02*
X142131Y194173D01*
X163500Y199472D02*
X169159D01*
X169470Y199161D01*
X169679D01*
X126237Y210067D02*
Y210406D01*
X124103Y210687D02*
X126518D01*
X159632Y225981D02*
X161602Y227952D01*
X159632Y218982D02*
Y225981D01*
X161602Y227952D02*
X161683D01*
X125380Y211826D02*
X126518Y210687D01*
X125311Y211826D02*
X125380D01*
X122965Y209548D02*
X124103Y210687D01*
X120095Y209548D02*
X122965D01*
X120095D02*
Y212920D01*
X12205Y254528D02*
Y255413D01*
X21260Y253150D02*
X22449Y254339D01*
X23827D02*
X24016Y254528D01*
X22449Y254339D02*
X23827D01*
X14469Y253150D02*
X14567D01*
X13280Y254339D02*
X14469Y253150D01*
X12394Y254339D02*
X13280D01*
X12205Y254528D02*
X12394Y254339D01*
X24016Y254528D02*
Y255413D01*
X62882Y44949D02*
X54035Y53795D01*
X53051D01*
X52941Y53905D01*
X96700Y29629D02*
X80805Y45524D01*
X59437Y40224D02*
X53778D01*
X53467Y40535D01*
X53258D01*
X96700Y29629D02*
Y29291D01*
X98834Y29010D02*
X96418D01*
X63305Y13716D02*
X61335Y11745D01*
X63305Y20715D02*
Y13716D01*
X61335Y11745D02*
X61254D01*
X97557Y27871D02*
X96418Y29010D01*
X97626Y27871D02*
X97557D01*
X99972Y30149D02*
X98834Y29010D01*
X102842Y30149D02*
X99972D01*
X102842D02*
Y26776D01*
D12*
X163500Y212760D02*
D03*
Y215122D02*
D03*
Y217484D02*
D03*
Y219847D02*
D03*
Y194748D02*
D03*
Y197110D02*
D03*
Y199472D02*
D03*
Y201835D02*
D03*
X59437Y26937D02*
D03*
Y24575D02*
D03*
Y22213D02*
D03*
Y19850D02*
D03*
Y44949D02*
D03*
Y42587D02*
D03*
Y40224D02*
D03*
Y37862D02*
D03*
D13*
X169799Y208921D02*
D03*
Y223685D02*
D03*
Y190909D02*
D03*
Y205673D02*
D03*
X53138Y30776D02*
D03*
Y16012D02*
D03*
Y48787D02*
D03*
Y34024D02*
D03*
D14*
X52067Y142458D02*
D03*
Y147058D02*
D03*
X93701Y142261D02*
D03*
Y146861D02*
D03*
X96752D02*
D03*
Y142261D02*
D03*
X109153Y146960D02*
D03*
Y142360D02*
D03*
X179626Y113226D02*
D03*
Y117826D02*
D03*
X150144Y147010D02*
D03*
Y142410D02*
D03*
X176181Y113226D02*
D03*
Y117826D02*
D03*
X145768Y142458D02*
D03*
Y147058D02*
D03*
X55216D02*
D03*
Y142458D02*
D03*
X120095Y204948D02*
D03*
Y209548D02*
D03*
Y217520D02*
D03*
Y212920D02*
D03*
X71177Y189630D02*
D03*
Y194230D02*
D03*
X76689D02*
D03*
Y189630D02*
D03*
X65665Y194230D02*
D03*
Y189630D02*
D03*
X102842Y34749D02*
D03*
Y30149D02*
D03*
Y22176D02*
D03*
Y26776D02*
D03*
X151760Y50067D02*
D03*
Y45467D02*
D03*
X146248D02*
D03*
Y50067D02*
D03*
X157272Y45467D02*
D03*
Y50067D02*
D03*
D15*
X73953Y92790D02*
D03*
X69353D02*
D03*
X85298D02*
D03*
X89898D02*
D03*
X97969D02*
D03*
X93369D02*
D03*
X101440D02*
D03*
X106040D02*
D03*
X122182D02*
D03*
X117582D02*
D03*
X90292Y142199D02*
D03*
X85692D02*
D03*
X173487Y136293D02*
D03*
X178087D02*
D03*
X105745Y146923D02*
D03*
X101145D02*
D03*
X77523Y147120D02*
D03*
X82123D02*
D03*
X77227Y92790D02*
D03*
X81827D02*
D03*
X125062D02*
D03*
X129662D02*
D03*
X82061Y143872D02*
D03*
X77461D02*
D03*
X61578Y92790D02*
D03*
X66178D02*
D03*
X137635D02*
D03*
X133035D02*
D03*
X90158Y147022D02*
D03*
X85557D02*
D03*
D17*
X114272Y92986D02*
D03*
X108760D02*
D03*
D20*
X207087Y255413D02*
D03*
X218898D02*
D03*
Y241437D02*
D03*
X207087D02*
D03*
X12205Y255413D02*
D03*
X24016D02*
D03*
Y241437D02*
D03*
X12205D02*
D03*
D21*
X73228Y147219D02*
D03*
Y142101D02*
D03*
X65748Y144660D02*
D03*
D27*
X158613Y93577D02*
D03*
X152213D02*
D03*
X147542D02*
D03*
X141142D02*
D03*
D40*
X68657Y200161D02*
D03*
X76257D02*
D03*
Y206362D02*
D03*
X68657D02*
D03*
X154280Y39535D02*
D03*
X146680D02*
D03*
Y33335D02*
D03*
X154280D02*
D03*
D43*
X65665Y185743D02*
D03*
Y179343D02*
D03*
X71177D02*
D03*
Y185743D02*
D03*
X125311Y211826D02*
D03*
Y205426D02*
D03*
X76689Y185743D02*
D03*
Y179343D02*
D03*
X157272Y53953D02*
D03*
Y60353D02*
D03*
X151760D02*
D03*
Y53953D02*
D03*
X97626Y27871D02*
D03*
Y34271D02*
D03*
X146248Y53953D02*
D03*
Y60353D02*
D03*
D54*
X198819Y216733D02*
X205781Y223695D01*
X209842D01*
X179756Y117627D02*
X181307Y119177D01*
X179557Y117826D02*
X179756Y117627D01*
X172539Y121431D02*
Y123990D01*
X171870Y120841D02*
X172539D01*
X175721Y117166D02*
X176380Y117826D01*
X169946Y116904D02*
X170006D01*
X148721Y136778D02*
X168595Y116904D01*
X106040Y95903D02*
X108760Y93183D01*
X81890Y92475D02*
X82205Y92790D01*
X6632Y96825D02*
X6791Y96665D01*
X14173Y218747D02*
X18317Y222891D01*
X14173Y205093D02*
Y218747D01*
X28268Y137160D02*
Y172788D01*
Y193852D01*
X102030Y100859D02*
X106040Y96849D01*
X99311Y139443D02*
X102756Y142888D01*
X128543Y121333D02*
X156398D01*
X85152Y131560D02*
X93035Y139443D01*
X99311D01*
X208366Y143087D02*
X211684Y146405D01*
X208366Y140581D02*
Y143087D01*
X211684Y146405D02*
X218178D01*
X14420Y191636D02*
X14447Y191663D01*
X2685Y191636D02*
X14420D01*
X2657Y191608D02*
X2685Y191636D01*
X14173Y205093D02*
X22951Y196315D01*
X2129Y145447D02*
X15023Y132553D01*
X6791Y113816D02*
X25410Y132435D01*
X26398Y132553D02*
X32874D01*
X15023D02*
X26280D01*
X2657Y191608D02*
X2707Y191559D01*
X25805Y196315D02*
X28268Y193852D01*
X22951Y196315D02*
X25805D01*
X32874Y132553D02*
X61417D01*
X28268Y137160D02*
X32874Y132553D01*
X218178Y146405D02*
X219193Y147419D01*
Y176648D01*
X216339Y160274D02*
X216358Y160254D01*
X212285Y164327D02*
X216339Y160274D01*
Y179107D01*
X198649Y164327D02*
X212285D01*
X216358Y155585D02*
Y160254D01*
X196773Y135211D02*
X216245Y154683D01*
X198819Y196626D02*
X216339Y179107D01*
X221162Y164086D02*
X221457Y163791D01*
Y137241D02*
Y163791D01*
X221162Y164086D02*
Y164246D01*
Y136786D02*
Y136945D01*
X221457Y137241D01*
X196752Y84425D02*
X219882Y61295D01*
Y33636D02*
Y61295D01*
X196752Y84425D02*
Y95742D01*
X182003Y107539D02*
X184956D01*
X196752Y95742D01*
X181890Y107652D02*
X182003Y107539D01*
X199409Y84522D02*
X210581Y73351D01*
X199409Y84522D02*
Y110900D01*
X210581Y73351D02*
X211037D01*
X215846Y78160D01*
X167224Y107652D02*
X177067D01*
X207185Y82652D02*
Y107157D01*
X204823Y109519D02*
Y109817D01*
Y109519D02*
X207185Y107157D01*
X204823Y109817D02*
Y122415D01*
X171178Y118137D02*
Y120149D01*
X170241Y117138D02*
Y117199D01*
X172539Y120841D02*
Y121431D01*
X171178Y120149D02*
X171870Y120841D01*
X170241Y117199D02*
X171178Y118137D01*
X170006Y116904D02*
X170241Y117138D01*
X156398Y121333D02*
X164339Y113392D01*
X167448D01*
X167561Y113279D01*
X140354Y119364D02*
X155512D01*
X167224Y107652D01*
X6791Y93577D02*
Y96665D01*
X6632Y96825D02*
X6791D01*
X199457Y131672D02*
X208366Y140581D01*
X119980Y124187D02*
X123031Y121136D01*
X103642Y124187D02*
X119980D01*
X100347Y120892D02*
X103642Y124187D01*
X169516Y116904D02*
X169737Y116683D01*
X169946D01*
X167433Y116724D02*
X167613Y116904D01*
X167273Y116724D02*
X167433D01*
X167613Y116904D02*
X168595D01*
X169516D01*
X174440Y117166D02*
X175721D01*
X173733Y116460D02*
X174440Y117166D01*
X173574Y116460D02*
X173733D01*
X176380Y117826D02*
X179557D01*
X181307Y119463D02*
X190846D01*
X181307Y119177D02*
Y119463D01*
X190846D02*
X199409Y110900D01*
X181307Y119463D02*
Y127927D01*
X216043Y29699D02*
Y29797D01*
X219882Y33636D01*
X123646Y121333D02*
X128543D01*
X79786Y120152D02*
X80458Y119480D01*
X79626Y120152D02*
X79786D01*
X6791Y17593D02*
X13189Y11195D01*
X6791Y17593D02*
Y58439D01*
X199457Y131512D02*
Y131672D01*
X123144Y121249D02*
X123562D01*
X123031Y121136D02*
X123144Y121249D01*
X123562D02*
X123646Y121333D01*
X183957Y135211D02*
X196773D01*
X67111Y142017D02*
X67224Y141904D01*
X63948Y142017D02*
X67111D01*
X52067Y147058D02*
X55216D01*
Y146989D02*
X60189Y142017D01*
X55216Y146989D02*
Y147058D01*
X60189Y142017D02*
X63948D01*
X61452Y144512D02*
X63948Y142017D01*
X58464Y147317D02*
X58720D01*
X61452Y144585D01*
Y144512D02*
Y144585D01*
X146449Y139049D02*
X148721Y136778D01*
X2111Y145465D02*
X2129Y145447D01*
X2111Y145465D02*
Y148775D01*
X2093Y148793D02*
X2111Y148775D01*
X106040Y95903D02*
Y96849D01*
Y92790D02*
Y95903D01*
X108760Y92986D02*
Y93183D01*
X3248Y54699D02*
Y54859D01*
X4429Y56040D02*
Y56077D01*
X6791Y58439D01*
X3248Y54859D02*
X4429Y56040D01*
X6791Y58439D02*
Y93577D01*
Y96825D02*
Y113816D01*
X2264Y109289D02*
X6791Y113816D01*
X97651Y118197D02*
X100347Y120892D01*
X87306Y119480D02*
X88719Y120892D01*
X94221D01*
X92421Y119092D02*
X94221Y120892D01*
X100347D01*
X80458Y119480D02*
X87306D01*
X84153Y116327D02*
X87306Y119480D01*
X92421Y112967D02*
Y119092D01*
X125264Y92588D02*
X126626D01*
X125062Y92790D02*
X125264Y92588D01*
X126626D02*
X126739Y92475D01*
X122182Y92790D02*
X125062D01*
X82205D02*
X85298D01*
X84153Y112967D02*
Y116327D01*
X83957Y112770D02*
X84153Y112967D01*
X92224Y112770D02*
X92421Y112967D01*
X97651Y115217D02*
Y118197D01*
Y115217D02*
X97835Y115034D01*
X97736Y112770D02*
Y114935D01*
X97835Y115034D01*
X183364Y130406D02*
X191354Y122415D01*
X210581Y73351D02*
X221547Y62384D01*
X146449Y139049D02*
Y141777D01*
X145768Y142458D02*
X146449Y141777D01*
X221547Y11089D02*
Y62384D01*
X215945Y5486D02*
X221547Y11089D01*
X181307Y127927D02*
Y132561D01*
X183957Y135211D01*
X191354Y122415D02*
X204823D01*
X179035Y127927D02*
X181307D01*
X198819Y196626D02*
Y216733D01*
X199409Y128813D02*
X199522Y128926D01*
X199981D02*
X200261Y129207D01*
X199522Y128926D02*
X199981D01*
X77492Y143903D02*
Y147089D01*
X77461Y143872D02*
X77492Y143903D01*
Y147089D02*
X77523Y147120D01*
X77474Y147169D02*
X77523Y147120D01*
X73228Y147219D02*
X73277Y147169D01*
X77474D01*
X64764Y145152D02*
X65256Y144660D01*
X65748D01*
X64764Y145152D02*
Y147317D01*
X171949Y123990D02*
X172539D01*
Y121431D02*
X174508D01*
X146358Y100666D02*
Y108537D01*
X147050Y109328D02*
X147342Y109620D01*
X147050Y109229D02*
Y109328D01*
X146358Y108537D02*
X147050Y109229D01*
X146358Y100666D02*
X150904Y96120D01*
Y94886D02*
Y96120D01*
Y94886D02*
X152213Y93577D01*
X147342Y109620D02*
Y112770D01*
X144587Y96532D02*
X146164Y94955D01*
X144587Y96532D02*
Y112770D01*
X146232Y94955D02*
X147542Y93645D01*
X146164Y94955D02*
X146232D01*
X147542Y93577D02*
Y93645D01*
X81400Y222785D02*
X87221Y228606D01*
X160497D02*
X160792Y228311D01*
X87221Y228606D02*
X160497D01*
X174753Y219847D02*
X178165Y223259D01*
X163500Y219847D02*
X174753D01*
X163621Y194626D02*
X164507D01*
X163500Y194748D02*
X163621Y194626D01*
X164507D02*
X164583Y194551D01*
X120095Y217520D02*
X132755D01*
X134760Y215516D01*
X176591Y215122D02*
X179150Y212563D01*
Y181891D02*
Y212563D01*
X163500Y215122D02*
X176591D01*
X77218Y218764D02*
X79461D01*
X76669Y218215D02*
X77218Y218764D01*
X81400Y219741D02*
Y222785D01*
X79461Y218764D02*
X80048Y218177D01*
Y218390D01*
X81400Y219741D01*
X66256Y196566D02*
X68657Y198967D01*
X65665Y194230D02*
X66256Y194820D01*
Y196566D01*
X68657Y198967D02*
Y199669D01*
X76689Y185743D02*
Y189630D01*
X71177Y185743D02*
Y189630D01*
X65665Y185743D02*
Y189630D01*
X141537Y16911D02*
X135716Y11091D01*
X62440D02*
X62145Y11386D01*
X135716Y11091D02*
X62440D01*
X48184Y19850D02*
X44772Y16438D01*
X59437Y19850D02*
X48184D01*
X59316Y45070D02*
X58430D01*
X59437Y44949D02*
X59316Y45070D01*
X58430D02*
X58354Y45146D01*
X102842Y22176D02*
X90182D01*
X88177Y24181D01*
X46346Y24575D02*
X43787Y27134D01*
Y57806D02*
Y27134D01*
X59437Y24575D02*
X46346D01*
X145719Y20933D02*
X143476D01*
X146268Y21481D02*
X145719Y20933D01*
X141537Y19956D02*
Y16911D01*
X143476Y20933D02*
X142889Y21520D01*
Y21307D01*
X141537Y19956D01*
X156681Y43131D02*
X154280Y40730D01*
X157272Y45467D02*
X156681Y44876D01*
Y43131D01*
X154280Y40730D02*
Y40028D01*
X146248Y53953D02*
Y50067D01*
X151760Y53953D02*
Y50067D01*
X157272Y53953D02*
Y50067D01*
D55*
X112775Y137242D02*
X122504D01*
X97803Y122270D02*
X112775Y137242D01*
X79239Y122270D02*
X97803D01*
X97608Y143117D02*
X99409Y144919D01*
X101214Y146923D02*
X102001Y146136D01*
Y146067D02*
Y146136D01*
X108078Y144919D02*
X109009Y143988D01*
X103150Y144919D02*
X108078D01*
X102001Y146067D02*
X103150Y144919D01*
X109009Y143988D02*
X109274D01*
X99409Y144919D02*
X103150D01*
X89301Y146234D02*
X89385D01*
X85827Y141215D02*
Y142064D01*
X89385Y145552D02*
Y146234D01*
X85692Y142199D02*
X85827Y142064D01*
X89301Y146234D02*
X90089Y147022D01*
X90256Y141510D02*
X90292Y141546D01*
Y142199D01*
X81919Y140624D02*
X82185D01*
X80147Y138853D02*
X81919Y140624D01*
X43406Y138853D02*
X80147D01*
X119741Y110262D02*
X119783D01*
X69625Y125260D02*
X69830Y125465D01*
X69625Y123014D02*
Y125260D01*
X67857Y129108D02*
X71601Y125364D01*
Y125171D02*
Y125364D01*
X69193Y126102D02*
X69830Y125465D01*
X65247Y123605D02*
X67670Y121182D01*
X25099Y127042D02*
X25266D01*
X27332Y129108D01*
X67857D01*
X26920Y125221D02*
X29232Y127534D01*
X29383Y122908D02*
X31646Y125171D01*
X29233Y122908D02*
X29383D01*
X31646Y125171D02*
X67421D01*
X31989Y120152D02*
X32177Y120341D01*
X34048D01*
X37313Y123605D01*
X187804Y139516D02*
X190646Y142358D01*
X162784Y139516D02*
X187804D01*
X190646Y142358D02*
Y145542D01*
X200689Y155585D01*
X156105Y147337D02*
X158592D01*
X160797Y141503D02*
Y145132D01*
X158592Y147337D02*
X160797Y145132D01*
Y141503D02*
X162784Y139516D01*
X158161Y142413D02*
Y144251D01*
Y142413D02*
X162239Y138335D01*
X174990D01*
X170669Y128124D02*
X171752D01*
X150406Y146748D02*
X152045D01*
X150144Y147010D02*
X150406Y146748D01*
X152045D02*
X170669Y128124D01*
X157972Y144439D02*
X158161Y144251D01*
X171752Y128124D02*
X171949Y127927D01*
X174990Y138335D02*
X176050Y137276D01*
X200689Y155585D02*
X204724D01*
X221654Y79932D02*
Y127533D01*
X220177Y129010D02*
X221654Y127533D01*
X219882Y78160D02*
X221654Y79932D01*
X80446Y147435D02*
X81808D01*
X82123Y147120D01*
X101145Y146923D02*
X101214D01*
X119758Y110329D02*
X119759D01*
X119758D02*
X119783Y110303D01*
X37313Y123605D02*
X65247D01*
X172539Y135414D02*
X173418Y136293D01*
X172539Y130486D02*
Y135414D01*
X173418Y136293D02*
X173487D01*
X178248Y130683D02*
Y132588D01*
X176050Y134786D02*
X178248Y132588D01*
X176050Y134786D02*
Y137276D01*
X178248Y130683D02*
X178445Y130486D01*
X77327Y120358D02*
X79239Y122270D01*
X77138Y118301D02*
X77327Y118490D01*
Y120358D01*
X72849Y112686D02*
X72933Y112770D01*
X67034Y98685D02*
X74031Y105681D01*
Y107992D02*
X75068Y109030D01*
X72849Y106170D02*
Y112686D01*
X65453Y98774D02*
X72849Y106170D01*
X74031Y105681D02*
Y107992D01*
X78445Y106712D02*
Y112770D01*
X75098Y109030D02*
X75689Y109620D01*
X69649Y97916D02*
X78445Y106712D01*
X75068Y109030D02*
X75098D01*
X69649Y92790D02*
Y97916D01*
X70177Y109620D02*
Y112770D01*
X42815Y110900D02*
X51977Y101738D01*
X42815Y110900D02*
Y111089D01*
X46850D02*
X55020Y102919D01*
X61073Y102181D02*
X61262Y101992D01*
X59337Y102181D02*
X61073D01*
X58598Y102919D02*
X59337Y102181D01*
X63370Y100565D02*
X63437D01*
X62484Y99679D02*
X63370Y100565D01*
X60168Y99679D02*
X62484D01*
X60170Y98007D02*
X63494D01*
X58109Y101738D02*
X60168Y99679D01*
X41240Y136687D02*
X43406Y138853D01*
X55020Y102919D02*
X58598D01*
X38976Y111293D02*
X49713Y100557D01*
X57620D01*
X87500Y97908D02*
Y103813D01*
X117582Y92790D02*
X120206Y95413D01*
Y107072D01*
X84153Y107160D02*
X87500Y103813D01*
X29232Y127534D02*
X67761D01*
X69193Y126102D01*
X120472Y145742D02*
X141482D01*
X120374Y145841D02*
X120472Y145742D01*
X141482D02*
X142959Y147219D01*
X147986Y140684D02*
Y144771D01*
X150113Y138557D02*
X158434D01*
X147986Y140684D02*
X150113Y138557D01*
X158434D02*
X170835Y126156D01*
X67034Y93577D02*
Y98685D01*
X75689Y109620D02*
Y112770D01*
X65453Y96664D02*
Y98774D01*
X73953Y95582D02*
X78153Y99781D01*
Y103098D01*
X81201Y106146D01*
X57620Y100557D02*
X60170Y98007D01*
X51977Y101738D02*
X58109D01*
X62434Y93646D02*
X65453Y96664D01*
X61647Y92790D02*
X62434Y93577D01*
X61578Y92790D02*
X61647D01*
X62434Y93577D02*
Y93646D01*
X119783Y107494D02*
X120206Y107072D01*
X109153Y142360D02*
X109274Y142480D01*
Y143988D01*
X119783Y107494D02*
Y110303D01*
X145538Y147219D02*
X147986Y144771D01*
X150144Y146181D02*
Y147010D01*
Y146181D02*
X150187Y146138D01*
X142959Y147219D02*
X145538D01*
X69193Y126102D02*
Y126102D01*
X90089Y147022D02*
X90158D01*
X73953Y92790D02*
Y95582D01*
X171752Y126156D02*
X171949Y125959D01*
X170835Y126156D02*
X171752D01*
X119759Y110329D02*
Y112746D01*
X119783Y112770D01*
X81201Y106146D02*
Y112770D01*
X66247Y92790D02*
X67034Y93577D01*
X66178Y92790D02*
X66247D01*
X93701Y142261D02*
X96752D01*
Y142330D02*
X97539Y143117D01*
X96752Y142261D02*
Y142330D01*
X97539Y143117D02*
X97608D01*
X113608Y198980D02*
X113697Y199069D01*
X101089Y197002D02*
X114995D01*
X116157Y198165D01*
X100016Y198980D02*
X113608D01*
X100114Y191484D02*
X103485Y194855D01*
X113393D01*
X97949Y193862D02*
X101089Y197002D01*
X100016Y182937D02*
X100114Y183035D01*
Y191484D01*
X97949Y181184D02*
X99032Y180101D01*
X97949Y181184D02*
Y193862D01*
X116157Y198165D02*
Y202454D01*
X96571Y195535D02*
X100016Y198980D01*
X113915Y204697D02*
X116157Y202454D01*
X99032Y176835D02*
Y180101D01*
X96571Y175457D02*
X98047Y173980D01*
X96571Y175457D02*
Y195535D01*
X109329Y40716D02*
X109240Y40627D01*
X121848Y42694D02*
X107942D01*
X106780Y41532D01*
X122921Y40716D02*
X109329D01*
X122823Y48213D02*
X119452Y44841D01*
X109544D01*
X124988Y45835D02*
X121848Y42694D01*
X122921Y56760D02*
X122823Y56661D01*
Y48213D01*
X124988Y58513D02*
X123906Y59596D01*
X124988Y58513D02*
Y45835D01*
X106780Y41532D02*
Y37243D01*
X126366Y44161D02*
X122921Y40716D01*
X109022Y35000D02*
X106780Y37243D01*
X123906Y62862D02*
Y59596D01*
X126366Y64240D02*
X124890Y65716D01*
X126366Y64240D02*
Y44161D01*
D56*
X212853Y45996D02*
X217618Y50762D01*
X212853Y36654D02*
Y45996D01*
X77710Y212957D02*
X78020D01*
X77401D02*
X77710D01*
X77331Y213336D02*
X77710Y212957D01*
X68657Y206362D02*
Y207065D01*
Y205870D02*
Y206362D01*
X76345Y212661D02*
X76640Y212957D01*
X74253Y212661D02*
X76345D01*
X76640Y213336D02*
X77331D01*
X68657Y207065D02*
X74253Y212661D01*
X145227Y26740D02*
X144917D01*
X145536D02*
X145227D01*
X145606Y26360D02*
X145227Y26740D01*
X154280Y33335D02*
Y32632D01*
Y33827D02*
Y33335D01*
X146592Y27035D02*
X146297Y26740D01*
X148684Y27035D02*
X146592D01*
X146297Y26360D02*
X145606D01*
X154280Y32632D02*
X148684Y27035D01*
D58*
X68657Y200161D02*
Y205870D01*
Y199669D02*
Y200161D01*
X154280Y39535D02*
Y33827D01*
Y40028D02*
Y39535D01*
D70*
X176767Y217484D02*
X177979Y218696D01*
X163500Y217484D02*
X176767D01*
X177979Y218696D02*
X178134D01*
X46170Y22213D02*
X44958Y21000D01*
X59437Y22213D02*
X46170D01*
X44958Y21000D02*
X44803D01*
D73*
X221457Y231988D02*
Y238583D01*
X204921Y231988D02*
Y238583D01*
X8261Y256292D02*
X10236Y258268D01*
X27559D01*
X8261Y238983D02*
X8661Y238583D01*
X8261Y238983D02*
Y239363D01*
Y256292D01*
X43970Y84180D02*
X62992D01*
Y90803D01*
X189420Y2D02*
X221655D01*
X222835Y1181D01*
X203543Y238583D02*
X204921D01*
X203150Y238976D02*
X203543Y238583D01*
X203150Y238976D02*
Y256299D01*
X205118Y258268D01*
X222441D01*
X222441D02*
X222835Y257874D01*
Y238976D02*
Y257874D01*
X221712Y231988D02*
X222835Y230865D01*
X221457Y231988D02*
X221712D01*
X222835Y230865D02*
X222835Y1181D01*
X187795Y220265D02*
Y222933D01*
X188976Y224114D01*
X202362D01*
X35039Y98032D02*
X36225Y99217D01*
X35039Y71807D02*
Y98032D01*
X36225Y99217D02*
X57269D01*
X187795Y191732D02*
Y220265D01*
Y191732D02*
X188976Y190551D01*
X202362D01*
X203543Y189370D01*
Y170472D02*
Y189370D01*
X202362Y169291D02*
X203543Y170472D01*
X188976Y169291D02*
X202362D01*
X187795Y168110D02*
X188976Y169291D01*
X187795Y141831D02*
Y168110D01*
X186651Y140686D02*
X187795Y141831D01*
X163546Y140686D02*
X186651D01*
X162402Y141831D02*
X163546Y140686D01*
X162402Y141831D02*
Y147933D01*
X161221Y149114D02*
X162402Y147933D01*
X155709Y149114D02*
X161221D01*
X155709D02*
Y155512D01*
X178937D01*
X181299Y157874D01*
Y220255D01*
X204724Y231988D02*
X204921D01*
X222441Y238583D02*
X222835Y238976D01*
X27461Y238583D02*
X27559D01*
X27461Y231988D02*
Y238583D01*
X8661D02*
X8957D01*
X45746Y9374D02*
X158980D01*
X161319Y11713D01*
X43972Y9374D02*
X45746D01*
X41634Y11713D02*
X43972Y9374D01*
X157480Y84153D02*
Y90793D01*
Y84153D02*
X158957D01*
X188975Y2D02*
X189420D01*
X221457Y238583D02*
X222441D01*
X8957Y231988D02*
Y238583D01*
X1103Y231988D02*
X8957D01*
X-11Y230874D02*
X1103Y231988D01*
X-11Y230874D02*
X-11Y1192D01*
X1181Y0D01*
X18118D01*
X19297Y1179D01*
Y13490D01*
X20430Y14623D01*
X33816D01*
X35037Y15844D01*
Y48211D01*
X33864Y49383D02*
X35037Y48211D01*
X20475Y49383D02*
X33864D01*
X19289Y50568D02*
X20475Y49383D01*
X19289Y50568D02*
Y69015D01*
X20894Y70620D01*
X33853D01*
X35039Y71807D01*
X57269Y99217D02*
X58474Y98012D01*
Y91950D02*
Y98012D01*
Y91950D02*
X59621Y90803D01*
X62992D01*
X41634Y81844D02*
X43970Y84180D01*
X41634Y11713D02*
Y81844D01*
X161319Y11713D02*
Y81791D01*
X158957Y84153D02*
X161319Y81791D01*
X157480Y90793D02*
X161266D01*
X162402Y91929D01*
Y98032D01*
X163583Y99213D01*
X186614D01*
X187795Y98032D01*
Y1181D02*
Y98032D01*
Y1181D02*
X188975Y2D01*
X203543Y230807D02*
X204724Y231988D01*
X203543Y225295D02*
Y230807D01*
X202362Y224114D02*
X203543Y225295D01*
X181299Y220255D02*
Y227953D01*
X178937Y230315D02*
X181299Y227953D01*
X63976Y230315D02*
X178937D01*
X61614Y227953D02*
X63976Y230315D01*
X61614Y157874D02*
Y227953D01*
Y157874D02*
X63976Y155512D01*
X66929D01*
Y149114D02*
Y155512D01*
X36220Y149114D02*
X66929D01*
X35039Y150295D02*
X36220Y149114D01*
X35039Y150295D02*
Y230807D01*
X33858Y231988D02*
X35039Y230807D01*
X27461Y231988D02*
X33858D01*
X27559Y238583D02*
X27953Y238976D01*
Y257874D01*
X27559Y258268D02*
X27953Y257874D01*
D74*
X12894Y152612D02*
X34154D01*
Y179030D01*
X12894D02*
X34154D01*
X12894Y152612D02*
Y179030D01*
D75*
X86221Y150787D02*
D03*
X128740Y88976D02*
D03*
X68504Y85827D02*
D03*
X64961Y88976D02*
D03*
X72047D02*
D03*
X75590Y85827D02*
D03*
X89516Y86028D02*
D03*
X85973Y89177D02*
D03*
X78886D02*
D03*
X82430Y86028D02*
D03*
X110776D02*
D03*
X107233Y89177D02*
D03*
X114319D02*
D03*
X117863Y86028D02*
D03*
X103937Y85827D02*
D03*
X100394Y88976D02*
D03*
X93307D02*
D03*
X96850Y85827D02*
D03*
X150000Y88976D02*
D03*
X139122Y86028D02*
D03*
X135579Y89177D02*
D03*
X142666D02*
D03*
X146209Y86028D02*
D03*
X132283Y85827D02*
D03*
X121653Y88976D02*
D03*
X125197Y85827D02*
D03*
X129134Y150787D02*
D03*
X125591Y153543D02*
D03*
X132677D02*
D03*
X136221Y150787D02*
D03*
X150146Y150988D02*
D03*
X146457Y153543D02*
D03*
X139370D02*
D03*
X143060Y150988D02*
D03*
X153937Y153543D02*
D03*
X100787Y150787D02*
D03*
X97244Y153543D02*
D03*
X104331D02*
D03*
X107874Y150787D02*
D03*
X121653D02*
D03*
X118110Y153543D02*
D03*
X111024D02*
D03*
X114567Y150787D02*
D03*
X82823Y153744D02*
D03*
X89764Y153543D02*
D03*
X93307Y150787D02*
D03*
X79527D02*
D03*
X75984Y153543D02*
D03*
X68898D02*
D03*
X72441Y150787D02*
D03*
X206693Y233858D02*
D03*
X212992D02*
D03*
X219685D02*
D03*
X209842Y236614D02*
D03*
X216142D02*
D03*
X22441D02*
D03*
X14173D02*
D03*
X25591Y233858D02*
D03*
X18504D02*
D03*
X11024D02*
D03*
D76*
X216142Y253150D02*
D03*
X209449D02*
D03*
X206693Y246457D02*
D03*
X218898D02*
D03*
X209842Y223695D02*
D03*
X209746Y228630D02*
D03*
X18317Y222891D02*
D03*
X22918D02*
D03*
X33169Y217691D02*
D03*
X61215Y115004D02*
D03*
X30758Y187524D02*
D03*
X210728Y171333D02*
D03*
X212606Y168282D02*
D03*
X102030Y100859D02*
D03*
X122504Y137242D02*
D03*
X101318Y137408D02*
D03*
X102854Y135998D02*
D03*
X107972Y129699D02*
D03*
X118968Y134100D02*
D03*
X102756Y142888D02*
D03*
X85520Y145447D02*
D03*
X85827Y141215D02*
D03*
X89385Y145552D02*
D03*
X66408Y144869D02*
D03*
X90256Y141510D02*
D03*
X82185Y140624D02*
D03*
X131742Y130240D02*
D03*
X122835Y134128D02*
D03*
X139075Y125762D02*
D03*
X119741Y110262D02*
D03*
X14534Y187864D02*
D03*
X14447Y191663D02*
D03*
X37559Y137093D02*
D03*
X19882Y135998D02*
D03*
Y130289D02*
D03*
X69625Y123014D02*
D03*
X67670Y121182D02*
D03*
X71601Y125171D02*
D03*
X26920Y125221D02*
D03*
X25099Y127042D02*
D03*
X29233Y122908D02*
D03*
X31989Y120152D02*
D03*
X72455Y118380D02*
D03*
X16634Y196690D02*
D03*
X7124Y202288D02*
D03*
X9047Y218380D02*
D03*
X2953Y187376D02*
D03*
X2264Y172317D02*
D03*
X2657Y191608D02*
D03*
X70374Y107258D02*
D03*
X70079Y114541D02*
D03*
X14961Y48006D02*
D03*
X14862Y44463D02*
D03*
X15059Y40821D02*
D03*
X15650Y78616D02*
D03*
X30217Y45742D02*
D03*
X28248D02*
D03*
X26280D02*
D03*
X24311D02*
D03*
X20374D02*
D03*
X12795Y32061D02*
D03*
X12303Y50959D02*
D03*
X21457Y41448D02*
D03*
X215846Y44463D02*
D03*
X215059Y62376D02*
D03*
X218898Y83045D02*
D03*
X191169Y166886D02*
D03*
X221162Y168380D02*
D03*
Y172415D02*
D03*
X198649Y164327D02*
D03*
X200492Y167621D02*
D03*
X200098Y151746D02*
D03*
X204724Y155585D02*
D03*
Y159522D02*
D03*
X216358Y155585D02*
D03*
X221162Y164246D02*
D03*
X192881Y158388D02*
D03*
X194614Y155782D02*
D03*
X211122Y141510D02*
D03*
X204823Y149778D02*
D03*
X162008Y108931D02*
D03*
X156890Y105191D02*
D03*
X208366Y183341D02*
D03*
X209547Y59227D02*
D03*
X208760Y61982D02*
D03*
X206791Y63951D02*
D03*
X204823Y65919D02*
D03*
X202854Y67888D02*
D03*
X189961Y96136D02*
D03*
X203642Y73892D02*
D03*
X190256Y80880D02*
D03*
Y65132D02*
D03*
Y63164D02*
D03*
X214862Y57750D02*
D03*
X217848Y57652D02*
D03*
X217618Y50762D02*
D03*
X219882Y89640D02*
D03*
X220177Y129010D02*
D03*
X215846Y78160D02*
D03*
X212090Y89491D02*
D03*
X213656Y87986D02*
D03*
X213399Y91278D02*
D03*
X214801Y89761D02*
D03*
X148425Y102041D02*
D03*
X181890Y107652D02*
D03*
X179331D02*
D03*
X177067D02*
D03*
X168701Y100886D02*
D03*
X216240Y100171D02*
D03*
X218602Y102927D02*
D03*
X216240D02*
D03*
X213878Y100171D02*
D03*
Y102927D02*
D03*
X211516D02*
D03*
Y100171D02*
D03*
X22765Y86301D02*
D03*
X32579Y192000D02*
D03*
X32028Y222744D02*
D03*
X220965Y209620D02*
D03*
Y198597D02*
D03*
X193799Y194266D02*
D03*
X201673Y212376D02*
D03*
X203642Y214345D02*
D03*
X206791Y215919D02*
D03*
X199705Y221431D02*
D03*
X197343D02*
D03*
X194980Y216707D02*
D03*
X194471Y198419D02*
D03*
X220410Y2337D02*
D03*
Y5388D02*
D03*
X219882Y78160D02*
D03*
X190256Y71038D02*
D03*
Y78912D02*
D03*
Y76943D02*
D03*
Y74975D02*
D03*
Y73006D02*
D03*
Y69069D02*
D03*
Y67101D02*
D03*
Y61195D02*
D03*
X192224D02*
D03*
X194193Y59227D02*
D03*
X192224D02*
D03*
X190256D02*
D03*
Y57258D02*
D03*
X192224D02*
D03*
X194193D02*
D03*
X196161D02*
D03*
X198130Y55290D02*
D03*
X196161D02*
D03*
X194193D02*
D03*
X192224D02*
D03*
X194193Y53321D02*
D03*
X196161D02*
D03*
X198130D02*
D03*
X196161Y51353D02*
D03*
X198130D02*
D03*
Y49384D02*
D03*
X190256Y53321D02*
D03*
X198130Y45447D02*
D03*
X194193Y51353D02*
D03*
X198130Y47416D02*
D03*
X192224Y51353D02*
D03*
X194193Y49384D02*
D03*
X192224Y53321D02*
D03*
X196161Y49384D02*
D03*
Y47416D02*
D03*
X190256Y55290D02*
D03*
X190256Y51353D02*
D03*
Y2140D02*
D03*
X192224D02*
D03*
X198130Y10014D02*
D03*
X196161Y15919D02*
D03*
Y13951D02*
D03*
Y8045D02*
D03*
X198130D02*
D03*
X194193Y27730D02*
D03*
Y35605D02*
D03*
Y37573D02*
D03*
Y29699D02*
D03*
X196161Y43479D02*
D03*
Y39542D02*
D03*
Y37573D02*
D03*
X198130D02*
D03*
Y35605D02*
D03*
X196161Y17888D02*
D03*
Y45447D02*
D03*
X198130Y15919D02*
D03*
X192224Y19856D02*
D03*
Y25762D02*
D03*
X196161Y29699D02*
D03*
X194193Y31667D02*
D03*
X196161Y27730D02*
D03*
X198130D02*
D03*
X194193Y41510D02*
D03*
X198130Y25762D02*
D03*
Y23793D02*
D03*
X190256Y29699D02*
D03*
X196161Y19856D02*
D03*
X190256Y47416D02*
D03*
Y43479D02*
D03*
Y31667D02*
D03*
X196161D02*
D03*
X192224Y37573D02*
D03*
Y35605D02*
D03*
X190256Y13951D02*
D03*
X192224Y10014D02*
D03*
X194193Y39542D02*
D03*
Y11982D02*
D03*
X192224Y13951D02*
D03*
X198130Y21825D02*
D03*
X194193Y25762D02*
D03*
X196161Y33636D02*
D03*
X190256Y45447D02*
D03*
X192224Y49384D02*
D03*
X196161Y35605D02*
D03*
X194193Y17888D02*
D03*
Y19856D02*
D03*
Y6077D02*
D03*
Y45447D02*
D03*
X192224Y41510D02*
D03*
X194193Y10014D02*
D03*
Y8045D02*
D03*
X192224Y27730D02*
D03*
X194193Y4108D02*
D03*
X196161Y2140D02*
D03*
X194193Y43479D02*
D03*
X192224Y39542D02*
D03*
X190256Y11982D02*
D03*
X198130Y4108D02*
D03*
X190256Y15919D02*
D03*
X194193Y23793D02*
D03*
X196161D02*
D03*
Y4108D02*
D03*
Y25762D02*
D03*
X194193Y33636D02*
D03*
X190256Y49384D02*
D03*
X198130Y17888D02*
D03*
Y41510D02*
D03*
X192224Y23793D02*
D03*
X190256Y39542D02*
D03*
X194193Y15919D02*
D03*
X192224Y43479D02*
D03*
Y31667D02*
D03*
Y17888D02*
D03*
X194193Y2140D02*
D03*
X198130Y31667D02*
D03*
Y6077D02*
D03*
X192224Y11982D02*
D03*
X196161Y21825D02*
D03*
X190256Y33636D02*
D03*
X194193Y13951D02*
D03*
X192224Y29699D02*
D03*
Y47416D02*
D03*
X190256Y35605D02*
D03*
X192224Y6077D02*
D03*
X190256Y21825D02*
D03*
Y37573D02*
D03*
X198130Y39542D02*
D03*
Y19856D02*
D03*
X190256Y4108D02*
D03*
X196161Y11982D02*
D03*
X190256Y19856D02*
D03*
Y41510D02*
D03*
X192224Y8045D02*
D03*
X198130Y33636D02*
D03*
X192224Y45447D02*
D03*
X190256Y27730D02*
D03*
X196161Y6077D02*
D03*
X190256Y17888D02*
D03*
X198130Y43479D02*
D03*
Y29699D02*
D03*
X190256Y23793D02*
D03*
Y25762D02*
D03*
X196161Y10014D02*
D03*
X194193Y21825D02*
D03*
X192224Y4108D02*
D03*
X190256Y8045D02*
D03*
X192224Y33636D02*
D03*
X194193Y47416D02*
D03*
X190256Y10014D02*
D03*
X192224Y21825D02*
D03*
X198130Y11982D02*
D03*
X190256Y6077D02*
D03*
X198130Y2140D02*
D03*
X192224Y15919D02*
D03*
X196161Y41510D02*
D03*
X198130Y13951D02*
D03*
X123009Y124223D02*
D03*
X106483Y121923D02*
D03*
X112572Y106195D02*
D03*
X108465Y120545D02*
D03*
X101342Y134486D02*
D03*
X112658Y115932D02*
D03*
X100492Y115919D02*
D03*
X110383Y118835D02*
D03*
X168745Y115049D02*
D03*
X169917Y113236D02*
D03*
X167561Y113279D02*
D03*
X54823Y110998D02*
D03*
X61024Y121431D02*
D03*
X54232D02*
D03*
X47539Y121530D02*
D03*
X40945D02*
D03*
X169291Y134128D02*
D03*
X179626Y134423D02*
D03*
X175197Y132849D02*
D03*
X167273Y116724D02*
D03*
X169946Y116683D02*
D03*
X195276Y109817D02*
D03*
X193996Y107947D02*
D03*
X196457Y107750D02*
D03*
X219193Y26845D02*
D03*
X219094Y29699D02*
D03*
X216043D02*
D03*
X216329Y38418D02*
D03*
X157139Y111195D02*
D03*
X149409Y123400D02*
D03*
X151772D02*
D03*
X151860Y117396D02*
D03*
X159843Y109030D02*
D03*
X158957Y122415D02*
D03*
X158760Y93085D02*
D03*
X156335Y92790D02*
D03*
X144193Y126156D02*
D03*
X142224D02*
D03*
X141437Y132849D02*
D03*
X139469D02*
D03*
Y129305D02*
D03*
X147047Y123400D02*
D03*
X149854Y117396D02*
D03*
X77138Y118301D02*
D03*
X79626Y120152D02*
D03*
X75984Y107160D02*
D03*
X46850Y111089D02*
D03*
X42815D02*
D03*
X61262Y101992D02*
D03*
X63437Y100565D02*
D03*
X63494Y98007D02*
D03*
X14083Y71136D02*
D03*
X199457Y131512D02*
D03*
X197660Y129902D02*
D03*
X185430Y116216D02*
D03*
X185529Y114082D02*
D03*
X209941Y14049D02*
D03*
X207972Y41608D02*
D03*
X204035Y16018D02*
D03*
X209941Y2238D02*
D03*
X202067Y6175D02*
D03*
X209941Y12081D02*
D03*
X204035Y21923D02*
D03*
X202067Y10112D02*
D03*
X206004Y47514D02*
D03*
X204035Y33734D02*
D03*
X202067Y8144D02*
D03*
X204035Y4207D02*
D03*
X206004Y21923D02*
D03*
X207972Y10112D02*
D03*
X202067Y25860D02*
D03*
Y23892D02*
D03*
X209941Y29797D02*
D03*
Y43577D02*
D03*
X202067Y17986D02*
D03*
X207972Y6175D02*
D03*
X202067Y27829D02*
D03*
X204035Y45545D02*
D03*
X209941Y33734D02*
D03*
X204035Y8144D02*
D03*
X202067Y41608D02*
D03*
Y19955D02*
D03*
Y51451D02*
D03*
X207972Y12081D02*
D03*
X202067Y4207D02*
D03*
X209941Y19955D02*
D03*
Y39640D02*
D03*
X202067Y37671D02*
D03*
Y21923D02*
D03*
X204035Y6175D02*
D03*
X202067Y35703D02*
D03*
X204035Y47514D02*
D03*
Y29797D02*
D03*
X206004Y14049D02*
D03*
X202067Y33734D02*
D03*
X207972Y21923D02*
D03*
X204035Y12081D02*
D03*
X209941Y6175D02*
D03*
Y31766D02*
D03*
X206004Y2238D02*
D03*
X204035Y17986D02*
D03*
Y31766D02*
D03*
Y43577D02*
D03*
X206004Y16018D02*
D03*
X202067Y39640D02*
D03*
X204035Y23892D02*
D03*
X209941Y41608D02*
D03*
Y17986D02*
D03*
X202067Y49482D02*
D03*
X206004Y33734D02*
D03*
X207972Y25860D02*
D03*
Y4207D02*
D03*
Y23892D02*
D03*
X206004D02*
D03*
X202067Y16018D02*
D03*
X209941Y4207D02*
D03*
X202067Y12081D02*
D03*
X204035Y39640D02*
D03*
X206004Y43577D02*
D03*
X207972Y2238D02*
D03*
X206004Y4207D02*
D03*
X204035Y27829D02*
D03*
X206004Y8144D02*
D03*
Y10112D02*
D03*
X204035Y41608D02*
D03*
X206004Y45545D02*
D03*
Y6175D02*
D03*
Y19955D02*
D03*
Y17986D02*
D03*
X207972Y35703D02*
D03*
X204035Y49482D02*
D03*
X202067Y45545D02*
D03*
X207972Y33734D02*
D03*
X206004Y25860D02*
D03*
X209941Y21923D02*
D03*
X204035Y14049D02*
D03*
X206004Y12081D02*
D03*
Y39640D02*
D03*
X204035Y10112D02*
D03*
X202067Y14049D02*
D03*
X204035Y35703D02*
D03*
Y37671D02*
D03*
X207972Y31766D02*
D03*
X202067D02*
D03*
Y43577D02*
D03*
Y47514D02*
D03*
X207972Y19955D02*
D03*
X202067Y29797D02*
D03*
X209941Y23892D02*
D03*
Y25860D02*
D03*
X206004Y41608D02*
D03*
X209941Y27829D02*
D03*
X207972D02*
D03*
X206004Y31766D02*
D03*
X207972Y29797D02*
D03*
X204035Y25860D02*
D03*
Y19955D02*
D03*
X209941Y16018D02*
D03*
X207972Y45545D02*
D03*
Y17986D02*
D03*
X209941Y35703D02*
D03*
Y37671D02*
D03*
X207972D02*
D03*
Y39640D02*
D03*
Y43577D02*
D03*
X206004Y29797D02*
D03*
Y37671D02*
D03*
Y35703D02*
D03*
Y27829D02*
D03*
X209941Y8144D02*
D03*
X207972D02*
D03*
Y14049D02*
D03*
Y16018D02*
D03*
X209941Y10112D02*
D03*
X204035Y2238D02*
D03*
X202067D02*
D03*
X105701Y108674D02*
D03*
X105709Y110801D02*
D03*
X102067Y106864D02*
D03*
X100492Y108045D02*
D03*
Y110014D02*
D03*
Y111982D02*
D03*
Y113951D02*
D03*
X95374Y118675D02*
D03*
X90256D02*
D03*
X94193Y130093D02*
D03*
X115824Y104601D02*
D03*
X113793Y103044D02*
D03*
X112303Y117888D02*
D03*
X114272D02*
D03*
X116240Y119856D02*
D03*
X114272D02*
D03*
X112303D02*
D03*
X110335Y121825D02*
D03*
X112303D02*
D03*
X114272D02*
D03*
X116240D02*
D03*
X118209D02*
D03*
X109941Y129699D02*
D03*
X111909Y130093D02*
D03*
X110335Y131667D02*
D03*
X99705Y135998D02*
D03*
X96850Y147435D02*
D03*
X109153D02*
D03*
X109274Y143892D02*
D03*
X2854Y131274D02*
D03*
Y128911D02*
D03*
Y126943D02*
D03*
X18602Y105683D02*
D03*
X16634D02*
D03*
X14665D02*
D03*
X2854Y46234D02*
D03*
Y48203D02*
D03*
Y50171D02*
D03*
X218602Y184423D02*
D03*
X220571D02*
D03*
Y182061D02*
D03*
X215453Y134030D02*
D03*
Y136392D02*
D03*
Y138754D02*
D03*
X213878Y141510D02*
D03*
Y144266D02*
D03*
X216634Y141510D02*
D03*
Y144266D02*
D03*
X219390Y141510D02*
D03*
Y144266D02*
D03*
X207185Y82652D02*
D03*
X218602Y100171D02*
D03*
X218307Y19364D02*
D03*
X219390Y13163D02*
D03*
X213090Y226549D02*
D03*
X5610Y218675D02*
D03*
Y220644D02*
D03*
Y222612D02*
D03*
Y224581D02*
D03*
X33169Y196234D02*
D03*
Y198203D02*
D03*
Y200171D02*
D03*
X2854Y24187D02*
D03*
Y32061D02*
D03*
X3248Y14345D02*
D03*
Y11589D02*
D03*
Y9227D02*
D03*
Y6864D02*
D03*
X22343Y45742D02*
D03*
X13091Y15526D02*
D03*
X12697Y20644D02*
D03*
X3248Y40723D02*
D03*
X2854Y59227D02*
D03*
Y67790D02*
D03*
X2953Y76549D02*
D03*
X2854Y84423D02*
D03*
Y86392D02*
D03*
Y88360D02*
D03*
Y90329D02*
D03*
X9154Y89148D02*
D03*
X2067Y93479D02*
D03*
Y97022D02*
D03*
X200098Y149778D02*
D03*
X215199Y150854D02*
D03*
X217028Y149384D02*
D03*
Y151746D02*
D03*
X204823D02*
D03*
X213779Y149384D02*
D03*
X212465Y136570D02*
D03*
X210433Y136589D02*
D03*
X195866Y120250D02*
D03*
X193799Y120152D02*
D03*
X197109Y194167D02*
D03*
X206621Y228612D02*
D03*
X70386Y133242D02*
D03*
X67224Y141904D02*
D03*
X16035Y61392D02*
D03*
X23720Y106175D02*
D03*
X25197Y81569D02*
D03*
X38976Y111293D02*
D03*
X64272Y121530D02*
D03*
X31496Y144660D02*
D03*
X41240Y136687D02*
D03*
X123031Y121136D02*
D03*
X134252Y135678D02*
D03*
X136122Y129601D02*
D03*
X82185Y103414D02*
D03*
X84646Y101261D02*
D03*
X90256Y97998D02*
D03*
X87500Y97908D02*
D03*
X140354Y119364D02*
D03*
X141182Y92576D02*
D03*
X137500Y92494D02*
D03*
X155413Y96599D02*
D03*
X128247Y101866D02*
D03*
X131496Y102140D02*
D03*
X92815Y103427D02*
D03*
X89272Y107160D02*
D03*
X89468Y104305D02*
D03*
X84153Y107160D02*
D03*
X86713D02*
D03*
X3248Y54699D02*
D03*
X2854Y28419D02*
D03*
X53150Y134522D02*
D03*
X57087Y134620D02*
D03*
X44094Y121431D02*
D03*
X120374Y145841D02*
D03*
X45374Y137081D02*
D03*
X81890Y92475D02*
D03*
X183364Y130406D02*
D03*
X112008Y141149D02*
D03*
X114549Y141463D02*
D03*
X129761Y142282D02*
D03*
X148721Y136778D02*
D03*
X150144Y142410D02*
D03*
X128543Y121333D02*
D03*
X212853Y36654D02*
D03*
X181595Y109915D02*
D03*
X179232Y109719D02*
D03*
X216254Y91381D02*
D03*
X215958Y87998D02*
D03*
X217528Y89593D02*
D03*
X218840Y91330D02*
D03*
X218917Y87909D02*
D03*
X204823Y109817D02*
D03*
X173574Y116460D02*
D03*
X211442Y221038D02*
D03*
X219193Y176648D02*
D03*
X221162Y136786D02*
D03*
X199409Y125959D02*
D03*
X197638Y127534D02*
D03*
X199409Y128813D02*
D03*
X12894Y28518D02*
D03*
X13189Y11195D02*
D03*
X6791Y93577D02*
D03*
X2246Y101863D02*
D03*
X2264Y109289D02*
D03*
X2129Y145447D02*
D03*
X2093Y148793D02*
D03*
X215945Y5486D02*
D03*
X202756Y92888D02*
D03*
X92940Y106213D02*
D03*
X134015Y118380D02*
D03*
X125429Y118380D02*
D03*
X85152Y131560D02*
D03*
X80446Y147435D02*
D03*
X76083Y101845D02*
D03*
X84055Y98771D02*
D03*
X81496Y98793D02*
D03*
X33071Y76845D02*
D03*
X28740D02*
D03*
X27067Y79502D02*
D03*
X7505Y11884D02*
D03*
X12106Y225270D02*
D03*
X61417Y132553D02*
D03*
X64468Y132652D02*
D03*
X69390Y147435D02*
D03*
X116099Y107166D02*
D03*
X118434Y106118D02*
D03*
X136713Y133931D02*
D03*
X122633Y100458D02*
D03*
X126739Y92475D02*
D03*
X131698Y105973D02*
D03*
X134646Y106471D02*
D03*
X214935Y14837D02*
D03*
X150187Y146138D02*
D03*
X157972Y144439D02*
D03*
X156105Y147337D02*
D03*
X213779Y12278D02*
D03*
X204823Y122415D02*
D03*
X67421Y125171D02*
D03*
X57411Y121463D02*
D03*
X50787Y121431D02*
D03*
X77227Y92790D02*
D03*
X122539Y110211D02*
D03*
X148327Y106471D02*
D03*
X141485Y106364D02*
D03*
X6791Y96825D02*
D03*
X141437Y102104D02*
D03*
X65665Y179343D02*
D03*
X147027Y201319D02*
D03*
X148529Y199817D02*
D03*
X128831Y191431D02*
D03*
X126787Y192780D02*
D03*
X127188Y194886D02*
D03*
X125311Y194158D02*
D03*
X133738Y199201D02*
D03*
X142131Y194173D02*
D03*
X139671Y193468D02*
D03*
X151000Y216205D02*
D03*
X155144Y215828D02*
D03*
X159632Y218982D02*
D03*
X140819Y178581D02*
D03*
X138814Y180524D02*
D03*
X138798Y178460D02*
D03*
X137302Y177094D02*
D03*
X143421Y225457D02*
D03*
X141453D02*
D03*
X139386Y225555D02*
D03*
X137417Y225654D02*
D03*
X135449D02*
D03*
X133382D02*
D03*
X131315Y225555D02*
D03*
X166650Y212465D02*
D03*
X176839Y204283D02*
D03*
X176669Y208017D02*
D03*
X175590Y206226D02*
D03*
X173933Y204984D02*
D03*
Y207347D02*
D03*
X169679Y199161D02*
D03*
X164189Y202327D02*
D03*
X160055Y194748D02*
D03*
X164583Y194551D02*
D03*
X175902Y194354D02*
D03*
X176295Y190614D02*
D03*
X176394Y185102D02*
D03*
X174327Y186579D02*
D03*
X163023Y188335D02*
D03*
X163465Y179190D02*
D03*
X179051Y173882D02*
D03*
X162909Y157346D02*
D03*
X117339Y188842D02*
D03*
X119329Y188830D02*
D03*
X121387Y188842D02*
D03*
X123539D02*
D03*
X121613Y190985D02*
D03*
X119540Y190904D02*
D03*
X117352Y190985D02*
D03*
X113393Y194855D02*
D03*
X113697Y199069D02*
D03*
X92543Y202925D02*
D03*
X82201Y204591D02*
D03*
X81413Y206559D02*
D03*
Y208528D02*
D03*
X71943Y226551D02*
D03*
X69423Y226569D02*
D03*
X67373Y226588D02*
D03*
X65098Y226626D02*
D03*
X71079Y194256D02*
D03*
X76689Y194230D02*
D03*
X64681Y174374D02*
D03*
X106020Y210102D02*
D03*
X101886D02*
D03*
X97752D02*
D03*
X99819D02*
D03*
X103953D02*
D03*
X108087D02*
D03*
X97850Y206559D02*
D03*
X153069Y202854D02*
D03*
X154541Y201365D02*
D03*
X155511Y205408D02*
D03*
X152622Y208352D02*
D03*
X154101Y206901D02*
D03*
X108185Y206559D02*
D03*
X132299Y207642D02*
D03*
X123398Y182663D02*
D03*
X123146Y179787D02*
D03*
X167551Y201646D02*
D03*
X92437Y199512D02*
D03*
X119835Y226343D02*
D03*
X128362Y225161D02*
D03*
X134465Y220134D02*
D03*
X137811D02*
D03*
X161683Y227952D02*
D03*
X179150Y181891D02*
D03*
X152279Y171520D02*
D03*
X135744Y184906D02*
D03*
X100016Y182937D02*
D03*
X98047Y173980D02*
D03*
X99032Y176835D02*
D03*
X165712Y222963D02*
D03*
X123097Y201033D02*
D03*
X127001Y197129D02*
D03*
X145087Y200468D02*
D03*
X107981Y217340D02*
D03*
X99713D02*
D03*
X97646D02*
D03*
X101780D02*
D03*
X103847D02*
D03*
X88106Y217189D02*
D03*
X105914Y217340D02*
D03*
X140961Y180575D02*
D03*
X79620Y157372D02*
D03*
X132693Y180968D02*
D03*
X123146Y175686D02*
D03*
X121177D02*
D03*
X119209D02*
D03*
X123146Y177749D02*
D03*
X119209D02*
D03*
X121177D02*
D03*
X119209Y179787D02*
D03*
X121177D02*
D03*
X125037Y197529D02*
D03*
X121664Y199122D02*
D03*
X123988Y195722D02*
D03*
X124134Y199295D02*
D03*
X122899Y197489D02*
D03*
X141453Y220240D02*
D03*
X134760Y215516D02*
D03*
X167195Y196861D02*
D03*
X149346Y211290D02*
D03*
X142142Y203311D02*
D03*
X149524Y195437D02*
D03*
X147976Y197524D02*
D03*
X156983Y203919D02*
D03*
X146566Y199017D02*
D03*
X151157Y209817D02*
D03*
X147258Y208649D02*
D03*
X153571Y204961D02*
D03*
X151401Y196872D02*
D03*
X150180Y205799D02*
D03*
X145575Y202771D02*
D03*
X152092Y206413D02*
D03*
X148715Y207264D02*
D03*
X156453Y201979D02*
D03*
X143622Y201933D02*
D03*
X154981Y203468D02*
D03*
X144118Y204155D02*
D03*
X150627Y207878D02*
D03*
X149929Y198361D02*
D03*
X149169Y209263D02*
D03*
X151659Y204347D02*
D03*
X178165Y223259D02*
D03*
X178134Y218696D02*
D03*
X128728Y193624D02*
D03*
X179051Y177425D02*
D03*
X175902D02*
D03*
X158346Y165332D02*
D03*
X154354Y169453D02*
D03*
X158409Y169441D02*
D03*
Y171508D02*
D03*
X154292Y165344D02*
D03*
X152279Y167386D02*
D03*
X154354D02*
D03*
X156331Y165380D02*
D03*
X152279Y169453D02*
D03*
X158409Y167374D02*
D03*
X156393Y169489D02*
D03*
Y171555D02*
D03*
Y167422D02*
D03*
X154354Y171520D02*
D03*
X152217Y165344D02*
D03*
X121289Y182588D02*
D03*
X119338Y184646D02*
D03*
X119230Y182575D02*
D03*
X123505Y184734D02*
D03*
X117385Y186717D02*
D03*
X125469Y182663D02*
D03*
X117240Y182588D02*
D03*
X121396Y184659D02*
D03*
X119376Y186705D02*
D03*
X117348Y184659D02*
D03*
X121434Y186717D02*
D03*
X123543Y186793D02*
D03*
X125576Y184734D02*
D03*
X169504Y227917D02*
D03*
X79505Y225886D02*
D03*
X77194Y220255D02*
D03*
X79213Y220449D02*
D03*
X76669Y218215D02*
D03*
X80048Y218177D02*
D03*
X77269Y225925D02*
D03*
X76640Y213336D02*
D03*
X79608Y213192D02*
D03*
X100902Y208331D02*
D03*
X101984Y206559D02*
D03*
X108973Y215516D02*
D03*
X109169Y208331D02*
D03*
X102772Y215516D02*
D03*
X100705D02*
D03*
X106905D02*
D03*
X99917Y206559D02*
D03*
X107102Y208331D02*
D03*
X105035D02*
D03*
X98638Y215516D02*
D03*
X98835Y208331D02*
D03*
X106118Y206559D02*
D03*
X104051D02*
D03*
X102969Y208331D02*
D03*
X104839Y215516D02*
D03*
X80517Y227992D02*
D03*
X78155Y228090D02*
D03*
X75989D02*
D03*
X74327Y218665D02*
D03*
Y220831D02*
D03*
X72457Y221815D02*
D03*
X72454Y219754D02*
D03*
X72440Y217669D02*
D03*
X70373D02*
D03*
X70387Y219754D02*
D03*
X70390Y221815D02*
D03*
X113915Y204697D02*
D03*
X105960Y176971D02*
D03*
X110136Y181115D02*
D03*
X112151Y183134D02*
D03*
X110073Y177007D02*
D03*
X110136Y179048D02*
D03*
X112151Y179000D02*
D03*
X106022Y181079D02*
D03*
Y183146D02*
D03*
Y179012D02*
D03*
X108034Y176971D02*
D03*
X110136Y183182D02*
D03*
X112089Y176959D02*
D03*
X108097Y179012D02*
D03*
Y183146D02*
D03*
X112151Y181068D02*
D03*
X108097Y181079D02*
D03*
X87824Y181007D02*
D03*
X93953Y178928D02*
D03*
X87761Y176898D02*
D03*
X89836D02*
D03*
X93953Y180995D02*
D03*
X89899Y178940D02*
D03*
X87824D02*
D03*
X91938Y183109D02*
D03*
X89899Y181007D02*
D03*
Y183073D02*
D03*
X93891Y176886D02*
D03*
X93953Y183062D02*
D03*
X91875Y176934D02*
D03*
X91938Y178975D02*
D03*
Y181042D02*
D03*
X87824Y183073D02*
D03*
X117240Y179787D02*
D03*
Y175686D02*
D03*
Y177749D02*
D03*
X129354Y164060D02*
D03*
Y166058D02*
D03*
Y168095D02*
D03*
X127327Y164060D02*
D03*
Y166058D02*
D03*
Y168095D02*
D03*
X125319Y164121D02*
D03*
Y166119D02*
D03*
Y168157D02*
D03*
X123302Y164101D02*
D03*
Y166099D02*
D03*
Y168136D02*
D03*
X121254Y164070D02*
D03*
Y166068D02*
D03*
Y168105D02*
D03*
X119257Y164121D02*
D03*
Y166119D02*
D03*
Y168157D02*
D03*
X117240Y168075D02*
D03*
Y166037D02*
D03*
Y164039D02*
D03*
X169996Y185791D02*
D03*
X89484Y172898D02*
D03*
X92043D02*
D03*
X94602D02*
D03*
X107595Y172799D02*
D03*
X110153D02*
D03*
X112713D02*
D03*
X84169Y207347D02*
D03*
X85350Y203409D02*
D03*
X177513Y227917D02*
D03*
X83579Y195204D02*
D03*
X21260Y253150D02*
D03*
X14567D02*
D03*
X11811Y246457D02*
D03*
X24016D02*
D03*
X157272Y60353D02*
D03*
X75910Y38378D02*
D03*
X74408Y39880D02*
D03*
X94106Y48266D02*
D03*
X96150Y46917D02*
D03*
X95749Y44811D02*
D03*
X97626Y45539D02*
D03*
X89199Y40496D02*
D03*
X80805Y45524D02*
D03*
X83266Y46228D02*
D03*
X71937Y23492D02*
D03*
X67793Y23869D02*
D03*
X63305Y20715D02*
D03*
X82118Y61116D02*
D03*
X84123Y59173D02*
D03*
X84139Y61237D02*
D03*
X85635Y62602D02*
D03*
X79516Y14240D02*
D03*
X81484D02*
D03*
X83551Y14142D02*
D03*
X85520Y14043D02*
D03*
X87488D02*
D03*
X89555D02*
D03*
X91622Y14142D02*
D03*
X56287Y27232D02*
D03*
X46098Y35414D02*
D03*
X46268Y31680D02*
D03*
X47347Y33470D02*
D03*
X49004Y34713D02*
D03*
Y32350D02*
D03*
X53258Y40535D02*
D03*
X58748Y37370D02*
D03*
X62882Y44949D02*
D03*
X58354Y45146D02*
D03*
X47035Y45342D02*
D03*
X46642Y49083D02*
D03*
X46543Y54594D02*
D03*
X48610Y53118D02*
D03*
X59913Y51362D02*
D03*
X59472Y60507D02*
D03*
X43886Y65815D02*
D03*
X60028Y82350D02*
D03*
X105598Y50854D02*
D03*
X103608Y50867D02*
D03*
X101550Y50854D02*
D03*
X99398D02*
D03*
X101324Y48712D02*
D03*
X103397Y48793D02*
D03*
X105585Y48712D02*
D03*
X109544Y44841D02*
D03*
X109240Y40627D02*
D03*
X130394Y36772D02*
D03*
X140736Y35106D02*
D03*
X141524Y33138D02*
D03*
Y31169D02*
D03*
X150994Y13146D02*
D03*
X153514Y13127D02*
D03*
X155564Y13109D02*
D03*
X157839Y13071D02*
D03*
X151858Y45441D02*
D03*
X146248Y45467D02*
D03*
X158256Y65323D02*
D03*
X116917Y29594D02*
D03*
X121051D02*
D03*
X125185D02*
D03*
X123118D02*
D03*
X118984D02*
D03*
X114850D02*
D03*
X125087Y33138D02*
D03*
X69868Y36843D02*
D03*
X68396Y38332D02*
D03*
X67426Y34289D02*
D03*
X70315Y31345D02*
D03*
X68836Y32796D02*
D03*
X114752Y33138D02*
D03*
X90638Y32055D02*
D03*
X99539Y57034D02*
D03*
X99791Y59909D02*
D03*
X55386Y38051D02*
D03*
X130500Y40185D02*
D03*
X103102Y13354D02*
D03*
X94575Y14535D02*
D03*
X88472Y19563D02*
D03*
X85126D02*
D03*
X61254Y11745D02*
D03*
X43787Y57806D02*
D03*
X70657Y68177D02*
D03*
X87193Y54791D02*
D03*
X122921Y56760D02*
D03*
X124890Y65716D02*
D03*
X123906Y62862D02*
D03*
X57225Y16734D02*
D03*
X99840Y38664D02*
D03*
X95936Y42568D02*
D03*
X77850Y39229D02*
D03*
X114956Y22357D02*
D03*
X123224D02*
D03*
X125291D02*
D03*
X121157D02*
D03*
X119090D02*
D03*
X134831Y22508D02*
D03*
X117023Y22357D02*
D03*
X81976Y59122D02*
D03*
X143317Y82325D02*
D03*
X90244Y58728D02*
D03*
X99791Y64011D02*
D03*
X101760D02*
D03*
X103728D02*
D03*
X99791Y61948D02*
D03*
X103728D02*
D03*
X101760D02*
D03*
X103728Y59909D02*
D03*
X101760D02*
D03*
X97900Y42168D02*
D03*
X101273Y40575D02*
D03*
X98949Y43974D02*
D03*
X98803Y40402D02*
D03*
X100038Y42208D02*
D03*
X81484Y19457D02*
D03*
X88177Y24181D02*
D03*
X55742Y42835D02*
D03*
X73591Y28407D02*
D03*
X80795Y36386D02*
D03*
X73413Y44260D02*
D03*
X74962Y42173D02*
D03*
X65954Y35778D02*
D03*
X76371Y40680D02*
D03*
X71780Y29880D02*
D03*
X75679Y31048D02*
D03*
X69366Y34736D02*
D03*
X71536Y42825D02*
D03*
X72757Y33898D02*
D03*
X77362Y36926D02*
D03*
X70845Y33284D02*
D03*
X74222Y32433D02*
D03*
X66484Y37718D02*
D03*
X79315Y37764D02*
D03*
X67957Y36229D02*
D03*
X78819Y35541D02*
D03*
X72310Y31819D02*
D03*
X73008Y41336D02*
D03*
X73768Y30434D02*
D03*
X71278Y35350D02*
D03*
X44772Y16438D02*
D03*
X44803Y21000D02*
D03*
X94209Y46073D02*
D03*
X43886Y62272D02*
D03*
X47035D02*
D03*
X64591Y74364D02*
D03*
X68583Y70244D02*
D03*
X64528Y70256D02*
D03*
Y68189D02*
D03*
X68645Y74353D02*
D03*
X70657Y72311D02*
D03*
X68583D02*
D03*
X66606Y74317D02*
D03*
X70657Y70244D02*
D03*
X64528Y72323D02*
D03*
X66544Y70208D02*
D03*
Y68141D02*
D03*
Y72275D02*
D03*
X68583Y68177D02*
D03*
X70720Y74353D02*
D03*
X101648Y57109D02*
D03*
X103599Y55050D02*
D03*
X103707Y57122D02*
D03*
X99432Y54963D02*
D03*
X105552Y52979D02*
D03*
X97468Y57034D02*
D03*
X105697Y57109D02*
D03*
X101541Y55038D02*
D03*
X103561Y52992D02*
D03*
X105589Y55038D02*
D03*
X101503Y52979D02*
D03*
X99394Y52904D02*
D03*
X97361Y54963D02*
D03*
X53433Y11779D02*
D03*
X143432Y13811D02*
D03*
X145743Y19442D02*
D03*
X143724Y19248D02*
D03*
X146268Y21481D02*
D03*
X142889Y21520D02*
D03*
X145668Y13772D02*
D03*
X146297Y26360D02*
D03*
X143329Y26505D02*
D03*
X122035Y31366D02*
D03*
X120953Y33138D02*
D03*
X113965Y24181D02*
D03*
X113768Y31366D02*
D03*
X120165Y24181D02*
D03*
X122232D02*
D03*
X116032D02*
D03*
X123020Y33138D02*
D03*
X115835Y31366D02*
D03*
X117902D02*
D03*
X124299Y24181D02*
D03*
X124102Y31366D02*
D03*
X116819Y33138D02*
D03*
X118886D02*
D03*
X119968Y31366D02*
D03*
X118098Y24181D02*
D03*
X142420Y11705D02*
D03*
X144782Y11607D02*
D03*
X146948D02*
D03*
X148610Y21032D02*
D03*
Y18866D02*
D03*
X150480Y17882D02*
D03*
X150483Y19943D02*
D03*
X150497Y22028D02*
D03*
X152564D02*
D03*
X152550Y19943D02*
D03*
X152547Y17882D02*
D03*
X109022Y35000D02*
D03*
X116977Y62726D02*
D03*
X112801Y58582D02*
D03*
X110786Y56563D02*
D03*
X112864Y62690D02*
D03*
X112801Y60649D02*
D03*
X110786Y60696D02*
D03*
X116915Y58618D02*
D03*
Y56551D02*
D03*
Y60684D02*
D03*
X114903Y62726D02*
D03*
X112801Y56515D02*
D03*
X110848Y62738D02*
D03*
X114840Y60684D02*
D03*
Y56551D02*
D03*
X110786Y58629D02*
D03*
X114840Y58618D02*
D03*
X135113Y58690D02*
D03*
X128984Y60769D02*
D03*
X135176Y62799D02*
D03*
X133101D02*
D03*
X128984Y58702D02*
D03*
X133038Y60757D02*
D03*
X135113D02*
D03*
X130999Y56588D02*
D03*
X133038Y58690D02*
D03*
Y56623D02*
D03*
X129046Y62811D02*
D03*
X128984Y56635D02*
D03*
X131062Y62763D02*
D03*
X130999Y60721D02*
D03*
Y58655D02*
D03*
X135113Y56623D02*
D03*
X105697Y59909D02*
D03*
Y64011D02*
D03*
Y61948D02*
D03*
X93583Y75637D02*
D03*
Y73639D02*
D03*
Y71602D02*
D03*
X95610Y75637D02*
D03*
Y73639D02*
D03*
Y71602D02*
D03*
X97618Y75576D02*
D03*
Y73578D02*
D03*
Y71540D02*
D03*
X99635Y75596D02*
D03*
Y73598D02*
D03*
Y71561D02*
D03*
X101683Y75627D02*
D03*
Y73629D02*
D03*
Y71591D02*
D03*
X103680Y75576D02*
D03*
Y73578D02*
D03*
Y71540D02*
D03*
X105697Y71622D02*
D03*
Y73659D02*
D03*
Y75657D02*
D03*
X52941Y53905D02*
D03*
X133453Y66799D02*
D03*
X130894D02*
D03*
X128335D02*
D03*
X115342Y66898D02*
D03*
X112784D02*
D03*
X110224D02*
D03*
X138768Y32350D02*
D03*
X137587Y36287D02*
D03*
X45424Y11779D02*
D03*
X139358Y44493D02*
D03*
D77*
X25000Y210266D02*
D03*
Y24654D02*
D03*
X210630Y204778D02*
D03*
X71465Y165354D02*
D03*
X171465D02*
D03*
X151472Y74343D02*
D03*
X51472D02*
D03*
D78*
X25787Y191707D02*
D03*
X21850D02*
D03*
X25787Y187770D02*
D03*
X21850D02*
D03*
X213583Y159522D02*
D03*
X209646D02*
D03*
X213583Y155585D02*
D03*
X209646D02*
D03*
D79*
X12650Y130730D02*
D03*
D80*
X23228Y120152D02*
D03*
D81*
X28268Y172788D02*
D03*
D82*
X20683Y182495D02*
D03*
D83*
X58464Y147317D02*
D03*
X64764D02*
D03*
D84*
X172539Y130486D02*
D03*
X174508D02*
D03*
X176476D02*
D03*
X178445D02*
D03*
Y121431D02*
D03*
X174508D02*
D03*
X172539D02*
D03*
X176476D02*
D03*
D85*
X179035Y127927D02*
D03*
Y125959D02*
D03*
Y123990D02*
D03*
X171949D02*
D03*
Y125959D02*
D03*
Y127927D02*
D03*
D86*
X152854Y112770D02*
D03*
X150098Y112770D02*
D03*
X147342D02*
D03*
X144587D02*
D03*
X141831D02*
D03*
X139075D02*
D03*
X136319D02*
D03*
X133563D02*
D03*
X130807D02*
D03*
X128051D02*
D03*
X125295D02*
D03*
X122539D02*
D03*
X119783D02*
D03*
X117027D02*
D03*
X114272D02*
D03*
X111516D02*
D03*
X108760D02*
D03*
X106004D02*
D03*
X103248D02*
D03*
X100492D02*
D03*
X97736D02*
D03*
X94980D02*
D03*
X92224D02*
D03*
X89468D02*
D03*
X86713D02*
D03*
X83957D02*
D03*
X81201D02*
D03*
X78445D02*
D03*
X75689D02*
D03*
X72933D02*
D03*
X70177D02*
D03*
D87*
X154150Y174177D02*
D03*
X138500Y174079D02*
D03*
X88697D02*
D03*
X108579D02*
D03*
X68787Y65520D02*
D03*
X84437Y65618D02*
D03*
X134240D02*
D03*
X114358D02*
D03*
D88*
X123539Y184512D02*
D03*
Y159315D02*
D03*
X99398Y55185D02*
D03*
Y80382D02*
D03*
D89*
X68618Y218764D02*
D03*
X154319Y20933D02*
D03*
D90*
X78020Y212858D02*
D03*
Y224669D02*
D03*
X144917Y26839D02*
D03*
Y15028D02*
D03*
D91*
X77673Y218764D02*
D03*
X145264Y20933D02*
D03*
M02*
