G04*
G04 #@! TF.GenerationSoftware,Altium Limited,Altium Designer,21.7.2 (23)*
G04*
G04 Layer_Color=16711935*
%FSLAX25Y25*%
%MOIN*%
G70*
G04*
G04 #@! TF.SameCoordinates,AC02EB70-E257-4DE1-B61C-AE1B2F8B855F*
G04*
G04*
G04 #@! TF.FilePolarity,Positive*
G04*
G01*
G75*
%ADD54C,0.00787*%
%ADD73C,0.00039*%
%ADD91C,0.00394*%
D54*
X181289Y228215D02*
G03*
X181251Y228296I-372J-129D01*
G01*
X180782Y229041D02*
G03*
X180727Y229111I-334J-208D01*
G01*
X180782Y229042D02*
G03*
X180727Y229111I-333J-209D01*
G01*
X181289Y228216D02*
G03*
X181250Y228297I-372J-130D01*
G01*
X181701Y226378D02*
G03*
X181698Y226422I-394J0D01*
G01*
X181600Y227297D02*
G03*
X181580Y227384I-391J-43D01*
G01*
X181701Y226378D02*
G03*
X181698Y226424I-394J0D01*
G01*
X181600Y227298D02*
G03*
X181580Y227385I-391J-44D01*
G01*
X179289Y230258D02*
G03*
X179208Y230297I-211J-333D01*
G01*
X178376Y230588D02*
G03*
X178290Y230608I-130J-372D01*
G01*
X179288Y230258D02*
G03*
X179208Y230297I-209J-333D01*
G01*
X177414Y230706D02*
G03*
X177370Y230709I-44J-391D01*
G01*
X177414Y230706D02*
G03*
X177370Y230709I-44J-391D01*
G01*
X178376Y230588D02*
G03*
X178290Y230608I-130J-372D01*
G01*
X180103Y229734D02*
G03*
X180034Y229789I-279J-279D01*
G01*
X180103Y229734D02*
G03*
X180033Y229790I-279J-279D01*
G01*
X181698Y159405D02*
G03*
X181701Y159449I-391J44D01*
G01*
X181580Y158443D02*
G03*
X181600Y158530I-372J130D01*
G01*
X181698Y159403D02*
G03*
X181701Y159449I-391J46D01*
G01*
X181580Y158441D02*
G03*
X181600Y158529I-371J131D01*
G01*
X181251Y157531D02*
G03*
X181289Y157612I-333J209D01*
G01*
X181250Y157530D02*
G03*
X181289Y157610I-333J211D01*
G01*
X180727Y156716D02*
G03*
X180782Y156786I-279J279D01*
G01*
X180727Y156716D02*
G03*
X180782Y156785I-279J279D01*
G01*
X180034Y156037D02*
G03*
X180103Y156092I-209J333D01*
G01*
X180033Y156037D02*
G03*
X180103Y156092I-208J334D01*
G01*
X179208Y155530D02*
G03*
X179288Y155568I-130J372D01*
G01*
X179208Y155530D02*
G03*
X179289Y155569I-130J372D01*
G01*
X178290Y155219D02*
G03*
X178376Y155239I-44J391D01*
G01*
X178290Y155219D02*
G03*
X178376Y155239I-44J391D01*
G01*
X177370Y155118D02*
G03*
X177414Y155121I0J394D01*
G01*
X177370Y155118D02*
G03*
X177414Y155121I0J394D01*
G01*
X65559Y230709D02*
G03*
X65515Y230706I0J-394D01*
G01*
X65559Y230709D02*
G03*
X65515Y230706I0J-394D01*
G01*
X64639Y230608D02*
G03*
X64553Y230588I44J-391D01*
G01*
X63721Y230297D02*
G03*
X63641Y230258I130J-372D01*
G01*
X64639Y230608D02*
G03*
X64553Y230588I44J-391D01*
G01*
X63721Y230297D02*
G03*
X63640Y230258I130J-372D01*
G01*
X62896Y229790D02*
G03*
X62826Y229734I208J-334D01*
G01*
X62895Y229789D02*
G03*
X62826Y229734I209J-333D01*
G01*
X62203Y229111D02*
G03*
X62147Y229042I279J-279D01*
G01*
X62203Y229111D02*
G03*
X62147Y229041I279J-279D01*
G01*
X61679Y228297D02*
G03*
X61640Y228216I333J-211D01*
G01*
X61678Y228296D02*
G03*
X61640Y228215I333J-209D01*
G01*
X61349Y227385D02*
G03*
X61329Y227298I371J-131D01*
G01*
X61349Y227384D02*
G03*
X61329Y227297I372J-130D01*
G01*
X61231Y226424D02*
G03*
X61228Y226378I391J-46D01*
G01*
X61231Y226422D02*
G03*
X61228Y226378I391J-44D01*
G01*
X64553Y155239D02*
G03*
X64639Y155219I130J372D01*
G01*
X63640Y155569D02*
G03*
X63721Y155530I211J333D01*
G01*
X62826Y156092D02*
G03*
X62895Y156037I279J279D01*
G01*
X62826Y156092D02*
G03*
X62896Y156037I279J279D01*
G01*
X65515Y155121D02*
G03*
X65559Y155118I44J391D01*
G01*
X65515Y155121D02*
G03*
X65559Y155118I44J391D01*
G01*
X63641Y155568D02*
G03*
X63721Y155530I209J333D01*
G01*
X64553Y155239D02*
G03*
X64639Y155219I130J372D01*
G01*
X61329Y158529D02*
G03*
X61349Y158441I391J44D01*
G01*
X61228Y159449D02*
G03*
X61231Y159405I394J0D01*
G01*
X61228Y159449D02*
G03*
X61231Y159403I394J0D01*
G01*
X61329Y158530D02*
G03*
X61349Y158443I391J43D01*
G01*
X62147Y156785D02*
G03*
X62203Y156716I333J209D01*
G01*
X61640Y157610D02*
G03*
X61679Y157530I372J130D01*
G01*
X61640Y157612D02*
G03*
X61678Y157531I372J129D01*
G01*
X62147Y156786D02*
G03*
X62203Y156716I334J208D01*
G01*
X180782Y229042D02*
X180782Y229041D01*
X181250Y228297D01*
X181251Y228296D01*
X181289Y228216D02*
X181289Y228215D01*
X181580Y227385D01*
X181580Y227384D01*
X180103Y229734D02*
X180727Y229111D01*
X181600Y227298D02*
X181600Y227297D01*
X181698Y226424D01*
X181698Y226422D01*
X181701Y159449D02*
Y226378D01*
X178376Y230588D02*
X179208Y230297D01*
X180033Y229790D02*
X180034Y229789D01*
X179289Y230258D02*
X180033Y229790D01*
X179288Y230258D02*
X179289Y230258D01*
X177414Y230706D02*
X178290Y230608D01*
X181698Y159403D02*
X181698Y159405D01*
X181600Y158530D02*
X181698Y159403D01*
X181600Y158529D02*
X181600Y158530D01*
X181580Y158441D02*
X181580Y158443D01*
X181289Y157612D02*
X181580Y158441D01*
X181289Y157610D02*
X181289Y157612D01*
X181250Y157530D02*
X181251Y157531D01*
X180782Y156786D02*
X181250Y157530D01*
X180782Y156785D02*
X180782Y156786D01*
X180103Y156092D02*
X180727Y156716D01*
X180033Y156037D02*
X180034Y156037D01*
X179289Y155569D02*
X180033Y156037D01*
X179288Y155568D02*
X179289Y155569D01*
X178376Y155239D02*
X179208Y155530D01*
X177414Y155121D02*
X178290Y155219D01*
X65559Y230709D02*
X177370D01*
X64639Y230608D02*
X65515Y230706D01*
X63721Y230297D02*
X64553Y230588D01*
X63640Y230258D02*
X63641Y230258D01*
X62896Y229790D02*
X63640Y230258D01*
X62895Y229789D02*
X62896Y229790D01*
X62203Y229111D02*
X62826Y229734D01*
X62147Y229041D02*
X62147Y229042D01*
X61679Y228297D02*
X62147Y229041D01*
X61678Y228296D02*
X61679Y228297D01*
X61640Y228215D02*
X61640Y228216D01*
X61349Y227385D02*
X61640Y228215D01*
X61349Y227384D02*
X61349Y227385D01*
X61329Y227297D02*
X61329Y227298D01*
X61231Y226424D02*
X61329Y227297D01*
X61231Y226422D02*
X61231Y226424D01*
X63640Y155569D02*
X63641Y155568D01*
X62896Y156037D02*
X63640Y155569D01*
X62895Y156037D02*
X62896Y156037D01*
X65559Y155118D02*
X177370D01*
X63721Y155530D02*
X64553Y155239D01*
X64639Y155219D02*
X65515Y155121D01*
X61349Y158443D02*
X61349Y158441D01*
X61640Y157612D01*
X61640Y157610D01*
X61228Y159449D02*
Y226378D01*
X61231Y159405D02*
X61231Y159403D01*
X61329Y158530D01*
X61329Y158529D01*
X62203Y156716D02*
X62826Y156092D01*
X61678Y157531D02*
X61679Y157530D01*
X62147Y156786D01*
X62147Y156785D01*
X41648Y11482D02*
G03*
X41686Y11401I372J129D01*
G01*
X42155Y10656D02*
G03*
X42210Y10586I334J208D01*
G01*
X42155Y10655D02*
G03*
X42210Y10586I333J209D01*
G01*
X41648Y11481D02*
G03*
X41687Y11400I372J130D01*
G01*
X41236Y13319D02*
G03*
X41239Y13275I394J0D01*
G01*
X41337Y12400D02*
G03*
X41357Y12313I391J43D01*
G01*
X41236Y13319D02*
G03*
X41239Y13273I394J0D01*
G01*
X41337Y12399D02*
G03*
X41357Y12312I391J44D01*
G01*
X43648Y9439D02*
G03*
X43729Y9400I211J333D01*
G01*
X44561Y9109D02*
G03*
X44647Y9089I130J372D01*
G01*
X43649Y9438D02*
G03*
X43729Y9400I209J333D01*
G01*
X45523Y8991D02*
G03*
X45567Y8988I44J391D01*
G01*
X45523Y8991D02*
G03*
X45567Y8988I44J391D01*
G01*
X44561Y9109D02*
G03*
X44647Y9089I130J372D01*
G01*
X42834Y9962D02*
G03*
X42903Y9907I279J279D01*
G01*
X42834Y9962D02*
G03*
X42904Y9907I279J279D01*
G01*
X41239Y80292D02*
G03*
X41236Y80248I391J-44D01*
G01*
X41357Y81254D02*
G03*
X41337Y81167I372J-130D01*
G01*
X41239Y80294D02*
G03*
X41236Y80248I391J-46D01*
G01*
X41357Y81256D02*
G03*
X41337Y81168I371J-131D01*
G01*
X41686Y82166D02*
G03*
X41648Y82085I333J-209D01*
G01*
X41687Y82167D02*
G03*
X41648Y82086I333J-211D01*
G01*
X42210Y82981D02*
G03*
X42155Y82911I279J-279D01*
G01*
X42210Y82981D02*
G03*
X42155Y82912I279J-279D01*
G01*
X42903Y83660D02*
G03*
X42834Y83605I209J-333D01*
G01*
X42904Y83660D02*
G03*
X42834Y83605I208J-334D01*
G01*
X43729Y84167D02*
G03*
X43649Y84129I130J-372D01*
G01*
X43729Y84167D02*
G03*
X43648Y84128I130J-372D01*
G01*
X44647Y84478D02*
G03*
X44561Y84458I44J-391D01*
G01*
X44647Y84478D02*
G03*
X44561Y84458I44J-391D01*
G01*
X45567Y84579D02*
G03*
X45523Y84576I0J-394D01*
G01*
X45567Y84579D02*
G03*
X45523Y84576I0J-394D01*
G01*
X157378Y8988D02*
G03*
X157422Y8991I0J394D01*
G01*
X157378Y8988D02*
G03*
X157422Y8991I0J394D01*
G01*
X158298Y9089D02*
G03*
X158384Y9109I-44J391D01*
G01*
X159216Y9400D02*
G03*
X159296Y9438I-130J372D01*
G01*
X158298Y9089D02*
G03*
X158384Y9109I-44J391D01*
G01*
X159216Y9400D02*
G03*
X159297Y9439I-130J372D01*
G01*
X160041Y9907D02*
G03*
X160111Y9962I-208J334D01*
G01*
X160042Y9907D02*
G03*
X160111Y9962I-209J333D01*
G01*
X160734Y10586D02*
G03*
X160790Y10655I-279J279D01*
G01*
X160734Y10586D02*
G03*
X160790Y10656I-279J279D01*
G01*
X161258Y11400D02*
G03*
X161297Y11481I-333J211D01*
G01*
X161258Y11401D02*
G03*
X161297Y11482I-333J209D01*
G01*
X161588Y12312D02*
G03*
X161608Y12399I-371J131D01*
G01*
X161588Y12313D02*
G03*
X161608Y12400I-372J130D01*
G01*
X161706Y13273D02*
G03*
X161709Y13319I-391J46D01*
G01*
X161706Y13275D02*
G03*
X161709Y13319I-391J44D01*
G01*
X158384Y84458D02*
G03*
X158298Y84478I-130J-372D01*
G01*
X159297Y84128D02*
G03*
X159216Y84167I-211J-333D01*
G01*
X160111Y83605D02*
G03*
X160042Y83660I-279J-279D01*
G01*
X160111Y83605D02*
G03*
X160041Y83660I-279J-279D01*
G01*
X157422Y84576D02*
G03*
X157378Y84579I-44J-391D01*
G01*
X157422Y84576D02*
G03*
X157378Y84579I-44J-391D01*
G01*
X159296Y84129D02*
G03*
X159216Y84167I-209J-333D01*
G01*
X158384Y84458D02*
G03*
X158298Y84478I-130J-372D01*
G01*
X161608Y81168D02*
G03*
X161588Y81256I-391J-44D01*
G01*
X161709Y80248D02*
G03*
X161706Y80292I-394J0D01*
G01*
X161709Y80248D02*
G03*
X161706Y80294I-394J0D01*
G01*
X161608Y81167D02*
G03*
X161588Y81254I-391J-43D01*
G01*
X160790Y82912D02*
G03*
X160734Y82981I-333J-209D01*
G01*
X161297Y82086D02*
G03*
X161258Y82167I-372J-130D01*
G01*
X161297Y82085D02*
G03*
X161258Y82166I-372J-129D01*
G01*
X160790Y82911D02*
G03*
X160734Y82981I-334J-208D01*
G01*
X42155Y10655D02*
X42155Y10656D01*
X41687Y11400D01*
X41686Y11401D01*
X41648Y11481D02*
X41648Y11482D01*
X41357Y12312D01*
X41357Y12313D01*
X42834Y9962D02*
X42210Y10586D01*
X41337Y12399D02*
X41337Y12400D01*
X41239Y13273D01*
X41239Y13275D01*
X41236Y80248D02*
Y13319D01*
X44561Y9109D02*
X43729Y9400D01*
X42904Y9907D02*
X42903Y9907D01*
X43648Y9439D02*
X42904Y9907D01*
X43649Y9438D02*
X43648Y9439D01*
X45523Y8991D02*
X44647Y9089D01*
X41239Y80294D02*
X41239Y80292D01*
X41337Y81167D02*
X41239Y80294D01*
X41337Y81168D02*
X41337Y81167D01*
X41357Y81256D02*
X41357Y81254D01*
X41648Y82085D02*
X41357Y81256D01*
X41648Y82086D02*
X41648Y82085D01*
X41687Y82167D02*
X41686Y82166D01*
X42155Y82911D02*
X41687Y82167D01*
X42155Y82912D02*
X42155Y82911D01*
X42834Y83605D02*
X42210Y82981D01*
X42904Y83660D02*
X42903Y83660D01*
X43648Y84128D02*
X42904Y83660D01*
X43649Y84129D02*
X43648Y84128D01*
X44561Y84458D02*
X43729Y84167D01*
X45523Y84576D02*
X44647Y84478D01*
X157378Y8988D02*
X45567D01*
X158298Y9089D02*
X157422Y8991D01*
X159216Y9400D02*
X158384Y9109D01*
X159297Y9439D02*
X159296Y9438D01*
X160041Y9907D02*
X159297Y9439D01*
X160042Y9907D02*
X160041Y9907D01*
X160734Y10586D02*
X160111Y9962D01*
X160790Y10656D02*
X160790Y10655D01*
X161258Y11400D02*
X160790Y10656D01*
X161258Y11401D02*
X161258Y11400D01*
X161297Y11482D02*
X161297Y11481D01*
X161588Y12312D02*
X161297Y11482D01*
X161588Y12313D02*
X161588Y12312D01*
X161608Y12400D02*
X161608Y12399D01*
X161706Y13273D02*
X161608Y12400D01*
X161706Y13275D02*
X161706Y13273D01*
X159297Y84128D02*
X159296Y84129D01*
X160041Y83660D02*
X159297Y84128D01*
X160042Y83660D02*
X160041Y83660D01*
X157378Y84579D02*
X45567D01*
X159216Y84167D02*
X158384Y84458D01*
X158298Y84478D02*
X157422Y84576D01*
X161588Y81254D02*
X161588Y81256D01*
X161297Y82085D01*
X161297Y82086D01*
X161709Y80248D02*
Y13319D01*
X161706Y80292D02*
X161706Y80294D01*
X161608Y81167D01*
X161608Y81168D01*
X160734Y82981D02*
X160111Y83605D01*
X161258Y82166D02*
X161258Y82167D01*
X160790Y82911D01*
X160790Y82912D01*
D73*
X162402Y98032D02*
X163583Y99213D01*
X43972Y9374D02*
X45746D01*
X43970Y84180D02*
X62992D01*
X203150Y238976D02*
Y256299D01*
X57269Y99217D02*
X58474Y98012D01*
X204921Y231988D02*
Y238583D01*
X35039Y98032D02*
X36225Y99217D01*
X203543Y225295D02*
Y230807D01*
X33864Y49383D02*
X35037Y48211D01*
X202362Y190551D02*
X203543Y189370D01*
X18118Y0D02*
X19297Y1179D01*
X186651Y140686D02*
X187795Y141831D01*
X8957Y231988D02*
Y238583D01*
X61614Y157874D02*
Y227953D01*
X35039Y150295D02*
Y230807D01*
X163583Y99213D02*
X186614D01*
X161319Y11713D02*
Y81791D01*
X221457Y231988D02*
X221712D01*
X41634Y11713D02*
X43972Y9374D01*
X62992Y84180D02*
Y90803D01*
X203150Y256299D02*
X205118Y258268D01*
X35039Y71807D02*
Y98032D01*
X202362Y224114D02*
X203543Y225295D01*
Y170472D02*
Y189370D01*
X1103Y231988D02*
X8957D01*
X155709Y149114D02*
Y155512D01*
X8261Y256292D02*
X10236Y258268D01*
X27461Y238583D02*
X27559D01*
X61614Y157874D02*
X63976Y155512D01*
X186614Y99213D02*
X187795Y98032D01*
X157480Y84153D02*
Y90793D01*
X158957Y84153D02*
X161319Y81791D01*
X222835Y230865D02*
X222835Y1181D01*
X58474Y91950D02*
Y98012D01*
X20475Y49383D02*
X33864D01*
X19297Y1179D02*
Y13490D01*
X163546Y140686D02*
X186651D01*
X155709Y155512D02*
X178937D01*
X10236Y258268D02*
X27559D01*
X27461Y231988D02*
Y238583D01*
X33858Y231988D02*
X35039Y230807D01*
X157480Y90793D02*
X161266D01*
X189420Y2D02*
X221655D01*
X205118Y258268D02*
X222441D01*
X58474Y91950D02*
X59621Y90803D01*
X36225Y99217D02*
X57269D01*
X19289Y50568D02*
Y69015D01*
Y50568D02*
X20475Y49383D01*
X202362Y169291D02*
X203543Y170472D01*
X19297Y13490D02*
X20430Y14623D01*
X162402Y141831D02*
X163546Y140686D01*
X-11Y230874D02*
X1103Y231988D01*
X178937Y155512D02*
X181299Y157874D01*
Y220255D02*
Y227953D01*
X63976Y155512D02*
X66929D01*
X27461Y231988D02*
X33858D01*
X187795Y1181D02*
Y98032D01*
X157480Y84153D02*
X158957D01*
X221655Y2D02*
X222835Y1181D01*
X222441Y258268D02*
X222835Y257874D01*
X19289Y69015D02*
X20894Y70620D01*
X187795Y220265D02*
Y222933D01*
Y191732D02*
Y220265D01*
X20430Y14623D02*
X33816D01*
X188976Y169291D02*
X202362D01*
X-11Y230874D02*
X-11Y1192D01*
X162402Y141831D02*
Y147933D01*
X8661Y238583D02*
X8957D01*
X8261Y238983D02*
X8661Y238583D01*
X178937Y230315D02*
X181299Y227953D01*
X27559Y238583D02*
X27953Y238976D01*
X66929Y149114D02*
Y155512D01*
X161266Y90793D02*
X162402Y91929D01*
X187795Y1181D02*
X188975Y2D01*
X189420D01*
X45746Y9374D02*
X158980D01*
X59621Y90803D02*
X62992D01*
X203543Y238583D02*
X204921D01*
X187795Y222933D02*
X188976Y224114D01*
X187795Y191732D02*
X188976Y190551D01*
X-11Y1192D02*
X1181Y0D01*
X8261Y238983D02*
Y239363D01*
X181299Y157874D02*
Y220255D01*
X63976Y230315D02*
X178937D01*
X162402Y91929D02*
Y98032D01*
X158980Y9374D02*
X161319Y11713D01*
X222835Y238976D02*
Y257874D01*
X41634Y81844D02*
X43970Y84180D01*
X204724Y231988D02*
X204921D01*
X203543Y230807D02*
X204724Y231988D01*
X20894Y70620D02*
X33853D01*
X188976Y224114D02*
X202362D01*
X33816Y14623D02*
X35037Y15844D01*
X187795Y168110D02*
X188976Y169291D01*
X161221Y149114D02*
X162402Y147933D01*
X8261Y239363D02*
Y256292D01*
X27953Y238976D02*
Y257874D01*
X36220Y149114D02*
X66929D01*
X221712Y231988D02*
X222835Y230865D01*
X221457Y231988D02*
Y238583D01*
X222441D01*
X222835Y238976D01*
X41634Y11713D02*
Y81844D01*
X203150Y238976D02*
X203543Y238583D01*
X33853Y70620D02*
X35039Y71807D01*
X188976Y190551D02*
X202362D01*
X35037Y15844D02*
Y48211D01*
X187795Y141831D02*
Y168110D01*
X1181Y0D02*
X18118D01*
X155709Y149114D02*
X161221D01*
X27559Y258268D02*
X27953Y257874D01*
X61614Y227953D02*
X63976Y230315D01*
X35039Y150295D02*
X36220Y149114D01*
D91*
X181103Y228151D02*
G03*
X181084Y228191I-186J-65D01*
G01*
X181103Y228151D02*
G03*
X181083Y228192I-186J-65D01*
G01*
X180616Y228936D02*
G03*
X180587Y228972I-167J-104D01*
G01*
X180615Y228937D02*
G03*
X180586Y228973I-167J-105D01*
G01*
X181504Y226378D02*
G03*
X181503Y226400I-197J0D01*
G01*
X181404Y227277D02*
G03*
X181394Y227319I-196J-23D01*
G01*
X181404Y227275D02*
G03*
X181404Y227277I-196J-21D01*
G01*
X181503Y226399D02*
G03*
X181503Y226401I-196J-21D01*
G01*
X181504Y226378D02*
G03*
X181503Y226399I-197J0D01*
G01*
X181404Y227276D02*
G03*
X181394Y227319I-196J-22D01*
G01*
X178311Y230402D02*
G03*
X178268Y230412I-65J-186D01*
G01*
X178269Y230412D02*
G03*
X178267Y230412I-23J-196D01*
G01*
X178311Y230402D02*
G03*
X178269Y230412I-65J-186D01*
G01*
X179183Y230092D02*
G03*
X179143Y230111I-105J-167D01*
G01*
X177391Y230511D02*
G03*
X177370Y230512I-21J-196D01*
G01*
X177393Y230511D02*
G03*
X177391Y230511I-23J-196D01*
G01*
X177392Y230511D02*
G03*
X177370Y230512I-22J-196D01*
G01*
X179965Y229594D02*
G03*
X179929Y229623I-140J-138D01*
G01*
X179964Y229595D02*
G03*
X179929Y229623I-139J-139D01*
G01*
X179184Y230091D02*
G03*
X179143Y230111I-106J-166D01*
G01*
X181503Y159427D02*
G03*
X181504Y159449I-196J22D01*
G01*
X181503Y159428D02*
G03*
X181504Y159449I-196J21D01*
G01*
X181503Y159426D02*
G03*
X181503Y159428I-196J23D01*
G01*
X181404Y158550D02*
G03*
X181404Y158552I-196J23D01*
G01*
X181394Y158508D02*
G03*
X181404Y158550I-186J65D01*
G01*
X181394Y158508D02*
G03*
X181404Y158551I-186J65D01*
G01*
X181084Y157636D02*
G03*
X181103Y157676I-167J105D01*
G01*
X181083Y157635D02*
G03*
X181103Y157676I-166J106D01*
G01*
X180587Y156855D02*
G03*
X180616Y156890I-139J139D01*
G01*
X180586Y156854D02*
G03*
X180615Y156889I-138J140D01*
G01*
X179929Y156204D02*
G03*
X179965Y156233I-105J167D01*
G01*
X179929Y156203D02*
G03*
X179964Y156231I-104J167D01*
G01*
X179143Y155716D02*
G03*
X179184Y155736I-65J186D01*
G01*
X179143Y155716D02*
G03*
X179183Y155735I-65J186D01*
G01*
X178268Y155415D02*
G03*
X178311Y155425I-22J196D01*
G01*
X178269Y155415D02*
G03*
X178311Y155425I-23J196D01*
G01*
X178267Y155415D02*
G03*
X178269Y155415I-21J196D01*
G01*
X177391Y155316D02*
G03*
X177393Y155316I-21J196D01*
G01*
X177370Y155315D02*
G03*
X177391Y155316I0J197D01*
G01*
X177370Y155315D02*
G03*
X177392Y155316I0J197D01*
G01*
X65559Y230512D02*
G03*
X65537Y230511I0J-197D01*
G01*
X65538Y230511D02*
G03*
X65536Y230511I21J-196D01*
G01*
X65559Y230512D02*
G03*
X65538Y230511I0J-197D01*
G01*
X64660Y230412D02*
G03*
X64618Y230402I23J-196D01*
G01*
X64662Y230412D02*
G03*
X64660Y230412I21J-196D01*
G01*
X64661Y230412D02*
G03*
X64618Y230402I22J-196D01*
G01*
X63786Y230111D02*
G03*
X63746Y230092I65J-186D01*
G01*
X63786Y230111D02*
G03*
X63745Y230091I65J-186D01*
G01*
X63001Y229623D02*
G03*
X62965Y229595I104J-167D01*
G01*
X63000Y229623D02*
G03*
X62964Y229594I105J-167D01*
G01*
X62343Y228973D02*
G03*
X62314Y228937I138J-140D01*
G01*
X62342Y228972D02*
G03*
X62313Y228936I139J-139D01*
G01*
X61846Y228192D02*
G03*
X61826Y228151I166J-106D01*
G01*
X61845Y228191D02*
G03*
X61826Y228151I167J-105D01*
G01*
X61535Y227319D02*
G03*
X61525Y227276I186J-65D01*
G01*
X61525Y227277D02*
G03*
X61525Y227275I196J-23D01*
G01*
X61535Y227319D02*
G03*
X61525Y227277I186J-65D01*
G01*
X61426Y226399D02*
G03*
X61425Y226378I196J-21D01*
G01*
X61426Y226401D02*
G03*
X61426Y226399I196J-23D01*
G01*
X61426Y226400D02*
G03*
X61425Y226378I196J-22D01*
G01*
X63746Y155735D02*
G03*
X63786Y155716I105J167D01*
G01*
X63745Y155736D02*
G03*
X63786Y155716I106J166D01*
G01*
X62965Y156231D02*
G03*
X63001Y156203I139J139D01*
G01*
X62964Y156233D02*
G03*
X63000Y156204I140J138D01*
G01*
X65537Y155316D02*
G03*
X65559Y155315I22J196D01*
G01*
X65538Y155316D02*
G03*
X65559Y155315I21J196D01*
G01*
X65536Y155316D02*
G03*
X65538Y155316I23J196D01*
G01*
X64618Y155425D02*
G03*
X64661Y155415I65J186D01*
G01*
X64660Y155415D02*
G03*
X64662Y155415I23J196D01*
G01*
X64618Y155425D02*
G03*
X64660Y155415I65J186D01*
G01*
X61425Y159449D02*
G03*
X61426Y159427I197J0D01*
G01*
X61426Y159428D02*
G03*
X61426Y159426I196J21D01*
G01*
X61425Y159449D02*
G03*
X61426Y159428I197J0D01*
G01*
X61525Y158551D02*
G03*
X61535Y158508I196J22D01*
G01*
X61525Y158550D02*
G03*
X61535Y158508I196J23D01*
G01*
X61525Y158552D02*
G03*
X61525Y158550I196J21D01*
G01*
X62313Y156890D02*
G03*
X62342Y156855I167J104D01*
G01*
X62314Y156889D02*
G03*
X62343Y156854I167J105D01*
G01*
X61826Y157676D02*
G03*
X61846Y157635I186J65D01*
G01*
X61826Y157676D02*
G03*
X61845Y157636I186J65D01*
G01*
X61425Y159449D02*
Y226378D01*
X181103Y228151D02*
X181394Y227319D01*
X180615Y228937D02*
X180616Y228936D01*
X181083Y228192D01*
X181084Y228191D01*
X181404Y227277D02*
X181404Y227276D01*
X181404Y227275D01*
X181503Y226401D01*
X181503Y226400D01*
X181503Y226399D01*
X181504Y159449D02*
Y226378D01*
X178311Y230402D02*
X179143Y230111D01*
X178268Y230412D02*
X178269Y230412D01*
X178267Y230412D02*
X178268Y230412D01*
X177393Y230511D02*
X178267Y230412D01*
X177392Y230511D02*
X177393Y230511D01*
X177391Y230511D02*
X177392Y230511D01*
X179964Y229595D02*
X179965Y229594D01*
X180586Y228973D01*
X180587Y228972D01*
X179929Y229623D02*
X179929Y229623D01*
X179184Y230091D02*
X179929Y229623D01*
X179183Y230092D02*
X179184Y230091D01*
X181503Y159427D02*
X181503Y159428D01*
X181503Y159426D02*
X181503Y159427D01*
X181404Y158552D02*
X181503Y159426D01*
X181404Y158551D02*
X181404Y158552D01*
X181404Y158550D02*
X181404Y158551D01*
X181103Y157676D02*
X181394Y158508D01*
X181083Y157635D02*
X181084Y157636D01*
X180616Y156890D02*
X181083Y157635D01*
X180615Y156889D02*
X180616Y156890D01*
X180586Y156854D02*
X180587Y156855D01*
X179965Y156233D02*
X180586Y156854D01*
X179964Y156231D02*
X179965Y156233D01*
X179929Y156203D02*
X179929Y156204D01*
X179184Y155736D02*
X179929Y156203D01*
X179183Y155735D02*
X179184Y155736D01*
X178311Y155425D02*
X179143Y155716D01*
X178268Y155415D02*
X178269Y155415D01*
X178267Y155415D02*
X178268Y155415D01*
X177393Y155316D02*
X178267Y155415D01*
X177392Y155316D02*
X177393Y155316D01*
X177391Y155316D02*
X177392Y155316D01*
X65559Y230512D02*
X177370D01*
X65537Y230511D02*
X65538Y230511D01*
X65536Y230511D02*
X65537Y230511D01*
X64662Y230412D02*
X65536Y230511D01*
X64661Y230412D02*
X64662Y230412D01*
X64660Y230412D02*
X64661Y230412D01*
X63786Y230111D02*
X64618Y230402D01*
X63745Y230091D02*
X63746Y230092D01*
X63001Y229623D02*
X63745Y230091D01*
X63000Y229623D02*
X63001Y229623D01*
X62964Y229594D02*
X62965Y229595D01*
X62343Y228973D02*
X62964Y229594D01*
X62342Y228972D02*
X62343Y228973D01*
X62313Y228936D02*
X62314Y228937D01*
X61846Y228192D02*
X62313Y228936D01*
X61845Y228191D02*
X61846Y228192D01*
X61535Y227319D02*
X61826Y228151D01*
X61525Y227276D02*
X61525Y227277D01*
X61525Y227275D02*
X61525Y227276D01*
X61426Y226401D02*
X61525Y227275D01*
X61426Y226400D02*
X61426Y226401D01*
X61426Y226399D02*
X61426Y226400D01*
X63745Y155736D02*
X63746Y155735D01*
X63001Y156203D02*
X63745Y155736D01*
X63000Y156204D02*
X63001Y156203D01*
X65559Y155315D02*
X177370D01*
X63786Y155716D02*
X64618Y155425D01*
X65537Y155316D02*
X65538Y155316D01*
X65536Y155316D02*
X65537Y155316D01*
X64662Y155415D02*
X65536Y155316D01*
X64661Y155415D02*
X64662Y155415D01*
X64660Y155415D02*
X64661Y155415D01*
X61535Y158508D02*
X61826Y157676D01*
X61426Y159428D02*
X61426Y159427D01*
X61426Y159426D01*
X61525Y158552D01*
X61525Y158551D01*
X61525Y158550D01*
X62342Y156855D02*
X62343Y156854D01*
X62964Y156233D01*
X62965Y156231D01*
X61845Y157636D02*
X61846Y157635D01*
X62313Y156890D01*
X62314Y156889D01*
X41834Y11546D02*
G03*
X41853Y11506I186J65D01*
G01*
X41834Y11546D02*
G03*
X41854Y11505I186J65D01*
G01*
X42321Y10761D02*
G03*
X42350Y10725I167J104D01*
G01*
X42322Y10759D02*
G03*
X42351Y10724I167J105D01*
G01*
X41433Y13319D02*
G03*
X41434Y13297I197J0D01*
G01*
X41533Y12420D02*
G03*
X41543Y12378I196J23D01*
G01*
X41533Y12422D02*
G03*
X41533Y12420I196J21D01*
G01*
X41434Y13298D02*
G03*
X41434Y13296I196J21D01*
G01*
X41433Y13319D02*
G03*
X41434Y13298I197J0D01*
G01*
X41533Y12421D02*
G03*
X41543Y12378I196J22D01*
G01*
X44626Y9295D02*
G03*
X44669Y9285I65J186D01*
G01*
X44668Y9285D02*
G03*
X44670Y9285I23J196D01*
G01*
X44626Y9295D02*
G03*
X44668Y9285I65J186D01*
G01*
X43754Y9605D02*
G03*
X43794Y9586I105J167D01*
G01*
X45546Y9186D02*
G03*
X45567Y9185I21J196D01*
G01*
X45544Y9186D02*
G03*
X45546Y9186I23J196D01*
G01*
X45545Y9186D02*
G03*
X45567Y9185I22J196D01*
G01*
X42972Y10103D02*
G03*
X43007Y10074I140J138D01*
G01*
X42973Y10102D02*
G03*
X43009Y10073I139J139D01*
G01*
X43753Y9606D02*
G03*
X43794Y9586I106J166D01*
G01*
X41434Y80270D02*
G03*
X41433Y80248I196J-22D01*
G01*
X41434Y80269D02*
G03*
X41433Y80248I196J-21D01*
G01*
X41434Y80271D02*
G03*
X41434Y80269I196J-23D01*
G01*
X41533Y81147D02*
G03*
X41533Y81145I196J-23D01*
G01*
X41543Y81189D02*
G03*
X41533Y81147I186J-65D01*
G01*
X41543Y81189D02*
G03*
X41533Y81146I186J-65D01*
G01*
X41853Y82061D02*
G03*
X41834Y82021I167J-105D01*
G01*
X41854Y82062D02*
G03*
X41834Y82021I166J-106D01*
G01*
X42350Y82842D02*
G03*
X42321Y82806I139J-139D01*
G01*
X42351Y82843D02*
G03*
X42322Y82807I138J-140D01*
G01*
X43007Y83493D02*
G03*
X42972Y83464I105J-167D01*
G01*
X43009Y83494D02*
G03*
X42973Y83465I104J-167D01*
G01*
X43794Y83981D02*
G03*
X43753Y83961I65J-186D01*
G01*
X43794Y83981D02*
G03*
X43754Y83962I65J-186D01*
G01*
X44669Y84282D02*
G03*
X44626Y84272I22J-196D01*
G01*
X44668Y84282D02*
G03*
X44626Y84272I23J-196D01*
G01*
X44670Y84282D02*
G03*
X44668Y84282I21J-196D01*
G01*
X45546Y84381D02*
G03*
X45544Y84381I21J-196D01*
G01*
X45567Y84382D02*
G03*
X45546Y84381I0J-197D01*
G01*
X45567Y84382D02*
G03*
X45545Y84381I0J-197D01*
G01*
X157378Y9185D02*
G03*
X157400Y9186I0J197D01*
G01*
X157399Y9186D02*
G03*
X157401Y9186I-21J196D01*
G01*
X157378Y9185D02*
G03*
X157399Y9186I0J197D01*
G01*
X158277Y9285D02*
G03*
X158319Y9295I-23J196D01*
G01*
X158275Y9285D02*
G03*
X158277Y9285I-21J196D01*
G01*
X158276Y9285D02*
G03*
X158319Y9295I-22J196D01*
G01*
X159151Y9586D02*
G03*
X159191Y9605I-65J186D01*
G01*
X159151Y9586D02*
G03*
X159192Y9606I-65J186D01*
G01*
X159936Y10073D02*
G03*
X159972Y10102I-104J167D01*
G01*
X159937Y10074D02*
G03*
X159973Y10103I-105J167D01*
G01*
X160594Y10724D02*
G03*
X160623Y10759I-138J140D01*
G01*
X160595Y10725D02*
G03*
X160624Y10761I-139J139D01*
G01*
X161091Y11505D02*
G03*
X161111Y11546I-166J106D01*
G01*
X161092Y11506D02*
G03*
X161111Y11546I-167J105D01*
G01*
X161402Y12378D02*
G03*
X161412Y12421I-186J65D01*
G01*
X161412Y12420D02*
G03*
X161412Y12422I-196J23D01*
G01*
X161402Y12378D02*
G03*
X161412Y12420I-186J65D01*
G01*
X161511Y13298D02*
G03*
X161512Y13319I-196J21D01*
G01*
X161511Y13296D02*
G03*
X161511Y13298I-196J23D01*
G01*
X161511Y13297D02*
G03*
X161512Y13319I-196J22D01*
G01*
X159191Y83962D02*
G03*
X159151Y83981I-105J-167D01*
G01*
X159192Y83961D02*
G03*
X159151Y83981I-106J-166D01*
G01*
X159972Y83465D02*
G03*
X159936Y83494I-139J-139D01*
G01*
X159973Y83464D02*
G03*
X159937Y83493I-140J-138D01*
G01*
X157400Y84381D02*
G03*
X157378Y84382I-22J-196D01*
G01*
X157399Y84381D02*
G03*
X157378Y84382I-21J-196D01*
G01*
X157401Y84381D02*
G03*
X157399Y84381I-23J-196D01*
G01*
X158319Y84272D02*
G03*
X158276Y84282I-65J-186D01*
G01*
X158277Y84282D02*
G03*
X158275Y84282I-23J-196D01*
G01*
X158319Y84272D02*
G03*
X158277Y84282I-65J-186D01*
G01*
X161512Y80248D02*
G03*
X161511Y80270I-197J0D01*
G01*
X161511Y80269D02*
G03*
X161511Y80271I-196J-21D01*
G01*
X161512Y80248D02*
G03*
X161511Y80269I-197J0D01*
G01*
X161412Y81146D02*
G03*
X161402Y81189I-196J-22D01*
G01*
X161412Y81147D02*
G03*
X161402Y81189I-196J-23D01*
G01*
X161412Y81145D02*
G03*
X161412Y81147I-196J-21D01*
G01*
X160624Y82806D02*
G03*
X160595Y82842I-167J-104D01*
G01*
X160623Y82807D02*
G03*
X160594Y82843I-167J-105D01*
G01*
X161111Y82021D02*
G03*
X161091Y82062I-186J-65D01*
G01*
X161111Y82021D02*
G03*
X161092Y82061I-186J-65D01*
G01*
X161512Y80248D02*
Y13319D01*
X41834Y11546D02*
X41543Y12378D01*
X42322Y10759D02*
X42321Y10761D01*
X41854Y11505D01*
X41853Y11506D01*
X41533Y12420D02*
X41533Y12421D01*
X41533Y12422D01*
X41434Y13296D01*
X41434Y13297D01*
X41434Y13298D01*
X41433Y80248D02*
Y13319D01*
X44626Y9295D02*
X43794Y9586D01*
X44669Y9285D02*
X44668Y9285D01*
X44670Y9285D02*
X44669Y9285D01*
X45544Y9186D02*
X44670Y9285D01*
X45545Y9186D02*
X45544Y9186D01*
X45546Y9186D02*
X45545Y9186D01*
X42973Y10102D02*
X42972Y10103D01*
X42351Y10724D01*
X42350Y10725D01*
X43009Y10073D02*
X43007Y10074D01*
X43753Y9606D02*
X43009Y10073D01*
X43754Y9605D02*
X43753Y9606D01*
X41434Y80270D02*
X41434Y80269D01*
X41434Y80271D02*
X41434Y80270D01*
X41533Y81145D02*
X41434Y80271D01*
X41533Y81146D02*
X41533Y81145D01*
X41533Y81147D02*
X41533Y81146D01*
X41834Y82021D02*
X41543Y81189D01*
X41854Y82062D02*
X41853Y82061D01*
X42321Y82806D02*
X41854Y82062D01*
X42322Y82807D02*
X42321Y82806D01*
X42351Y82843D02*
X42350Y82842D01*
X42972Y83464D02*
X42351Y82843D01*
X42973Y83465D02*
X42972Y83464D01*
X43009Y83494D02*
X43007Y83493D01*
X43753Y83961D02*
X43009Y83494D01*
X43754Y83962D02*
X43753Y83961D01*
X44626Y84272D02*
X43794Y83981D01*
X44669Y84282D02*
X44668Y84282D01*
X44670Y84282D02*
X44669Y84282D01*
X45544Y84381D02*
X44670Y84282D01*
X45545Y84381D02*
X45544Y84381D01*
X45546Y84381D02*
X45545Y84381D01*
X157378Y9185D02*
X45567D01*
X157400Y9186D02*
X157399Y9186D01*
X157401Y9186D02*
X157400Y9186D01*
X158275Y9285D02*
X157401Y9186D01*
X158276Y9285D02*
X158275Y9285D01*
X158277Y9285D02*
X158276Y9285D01*
X159151Y9586D02*
X158319Y9295D01*
X159192Y9606D02*
X159191Y9605D01*
X159936Y10073D02*
X159192Y9606D01*
X159937Y10074D02*
X159936Y10073D01*
X159973Y10103D02*
X159972Y10102D01*
X160594Y10724D02*
X159973Y10103D01*
X160595Y10725D02*
X160594Y10724D01*
X160624Y10761D02*
X160623Y10759D01*
X161091Y11505D02*
X160624Y10761D01*
X161092Y11506D02*
X161091Y11505D01*
X161402Y12378D02*
X161111Y11546D01*
X161412Y12421D02*
X161412Y12420D01*
X161412Y12422D02*
X161412Y12421D01*
X161511Y13296D02*
X161412Y12422D01*
X161511Y13297D02*
X161511Y13296D01*
X161511Y13298D02*
X161511Y13297D01*
X159192Y83961D02*
X159191Y83962D01*
X159936Y83494D02*
X159192Y83961D01*
X159937Y83493D02*
X159936Y83494D01*
X157378Y84382D02*
X45567D01*
X159151Y83981D02*
X158319Y84272D01*
X157400Y84381D02*
X157399Y84381D01*
X157401Y84381D02*
X157400Y84381D01*
X158275Y84282D02*
X157401Y84381D01*
X158276Y84282D02*
X158275Y84282D01*
X158277Y84282D02*
X158276Y84282D01*
X161402Y81189D02*
X161111Y82021D01*
X161511Y80269D02*
X161511Y80270D01*
X161511Y80271D01*
X161412Y81145D01*
X161412Y81146D01*
X161412Y81147D01*
X160595Y82842D02*
X160594Y82843D01*
X159973Y83464D01*
X159972Y83465D01*
X161092Y82061D02*
X161091Y82062D01*
X160624Y82806D01*
X160623Y82807D01*
M02*
