M48
;Layer_Color=9474304
;FILE_FORMAT=2:5
INCH
;TYPE=PLATED
T1F00S00C0.01181
T2F00S00C0.03150
T3F00S00C0.09843
%
T01
X0003248Y0006864
Y0009227
Y0011589
Y0014345
X0007505Y0011884
X0013189Y0011195
X0013091Y0015526
X0012697Y0020644
X0012894Y0028518
X0012795Y0032061
X0002854
Y0028419
Y0024187
X0003248Y0040723
X0015059Y0040821
X0046098Y0035414
X0047347Y0033470
X0049004Y0032350
Y0034713
X0046268Y0031680
X0044803Y0021000
X0044772Y0016438
X0045424Y0011779
X0053433
X0061254Y0011745
X0057225Y0016734
X0063305Y0020715
X0067793Y0023869
X0071937Y0023492
X0071780Y0029880
X0072310Y0031819
X0070315Y0031345
X0070845Y0033284
X0068836Y0032796
X0069366Y0034736
X0067426Y0034289
X0067957Y0036229
X0065954Y0035778
X0066484Y0037718
X0068396Y0038332
X0069868Y0036843
X0071278Y0035350
X0072757Y0033898
X0074222Y0032433
X0073768Y0030434
X0073591Y0028407
X0075679Y0031048
X0075910Y0038378
X0076371Y0040680
X0074408Y0039880
X0077850Y0039229
X0077362Y0036926
X0079315Y0037764
X0078819Y0035541
X0080795Y0036386
X0089199Y0040496
X0098803Y0040402
X0101273Y0040575
X0099840Y0038664
X0109240Y0040627
X0109022Y0035000
X0114752Y0033138
X0116819
X0118886
X0120953
X0123020
X0125087
X0124102Y0031366
X0122035
X0119968
X0117902
X0115835
X0113768
X0114850Y0029594
X0116917
X0118984
X0121051
X0123118
X0125185
X0124299Y0024181
X0122232
X0120165
X0118098
X0116032
X0113965
X0114956Y0022357
X0117023
X0119090
X0121157
X0123224
X0125291
X0134831Y0022508
X0142889Y0021520
X0143724Y0019248
X0145743Y0019442
X0146268Y0021481
X0148610Y0021032
Y0018866
X0150480Y0017882
X0150483Y0019943
X0152550
X0152547Y0017882
X0152564Y0022028
X0150497
X0146297Y0026360
X0143329Y0026505
X0141524Y0031169
Y0033138
X0140736Y0035106
X0137587Y0036287
X0138768Y0032350
X0130394Y0036772
X0130500Y0040185
X0143432Y0013811
X0145668Y0013772
X0144782Y0011607
X0146948
X0142420Y0011705
X0150994Y0013146
X0153514Y0013127
X0155564Y0013109
X0157839Y0013071
X0190256Y0013951
X0192224
Y0011982
X0194193
Y0013951
Y0015919
X0192224
X0190256
Y0017888
X0192224
Y0019856
X0194193
Y0017888
Y0021825
Y0023793
Y0025762
X0192224
Y0023793
X0190256
Y0021825
X0192224
X0190256Y0019856
Y0025762
Y0027730
Y0029699
Y0031667
X0192224
X0194193
Y0029699
Y0027730
X0192224
Y0029699
Y0033636
Y0035605
X0194193
Y0033636
X0190256
Y0035605
Y0037573
X0192224
X0194193
Y0039542
X0192224
X0190256
Y0011982
Y0010014
X0192224
X0194193
Y0008045
X0192224
X0190256
Y0006077
X0192224
X0194193
Y0004108
Y0002140
X0192224
X0190256
Y0004108
X0192224
X0103102Y0013354
X0094575Y0014535
X0091622Y0014142
X0089555Y0014043
X0087488
X0085520
X0083551Y0014142
X0081484Y0014240
X0079516
X0081484Y0019457
X0085126Y0019563
X0088472
X0088177Y0024181
X0090638Y0032055
X0058748Y0037370
X0055386Y0038051
X0053258Y0040535
X0056287Y0027232
X0196161Y0027730
Y0029699
Y0031667
X0198130
Y0029699
Y0027730
Y0025762
Y0023793
Y0021825
X0196161
Y0023793
Y0025762
Y0019856
Y0017888
X0198130
Y0019856
Y0015919
X0196161
Y0013951
Y0011982
X0198130
Y0013951
Y0010014
Y0008045
X0196161
Y0010014
Y0006077
Y0004108
Y0002140
X0198130
Y0004108
Y0006077
X0202067Y0006175
Y0004207
X0204035
Y0006175
X0206004
Y0004207
Y0002238
X0204035
X0202067
Y0008144
Y0010112
X0204035
Y0008144
X0206004
Y0010112
X0207972
Y0008144
X0209941
Y0010112
Y0012081
Y0014049
Y0016018
X0207972
Y0014049
Y0012081
X0206004
Y0014049
Y0016018
X0204035
X0202067
Y0014049
Y0012081
X0204035
Y0014049
Y0017986
X0202067
Y0019955
X0204035
X0206004
Y0017986
X0207972
X0209941
Y0019955
X0207972
Y0021923
Y0023892
Y0025860
X0209941
Y0023892
Y0021923
X0206004
X0204035
X0202067
Y0023892
Y0025860
X0204035
Y0023892
X0206004
Y0025860
Y0027829
X0204035
X0202067
Y0029797
X0204035
Y0031766
X0202067
Y0033734
X0204035
X0206004
Y0035703
X0204035
X0202067
Y0037671
Y0039640
X0204035
X0206004
Y0037671
X0204035
X0207972
X0209941
Y0039640
X0207972
Y0035703
Y0033734
X0209941
Y0035703
X0212853Y0036654
X0216329Y0038418
X0216043Y0029699
X0219094
X0219193Y0026845
X0218307Y0019364
X0219390Y0013163
X0214935Y0014837
X0213779Y0012278
X0215945Y0005486
X0220410Y0005388
Y0002337
X0209941Y0002238
Y0004207
Y0006175
X0207972
Y0004207
Y0002238
Y0027829
X0209941
Y0029797
Y0031766
X0207972
Y0029797
X0206004
Y0031766
X0198130Y0033636
Y0035605
X0196161
Y0033636
Y0037573
Y0039542
X0198130
Y0037573
Y0041510
X0196161
Y0043479
Y0045447
X0198130
Y0047416
Y0049384
X0196161
Y0047416
X0196161Y0051353
Y0053321
Y0055290
Y0057258
X0198130Y0055290
Y0053321
Y0051353
X0202067Y0051451
Y0049482
X0204035
Y0047514
X0206004
Y0045545
X0204035
Y0043577
X0206004
Y0041608
X0204035
X0202067
Y0043577
Y0045545
Y0047514
X0207972Y0045545
Y0043577
X0209941
Y0041608
X0207972
X0215846Y0044463
X0217618Y0050762
X0217848Y0057652
X0214862Y0057750
X0215059Y0062376
X0208760Y0061982
X0209547Y0059227
X0206791Y0063951
X0204823Y0065919
X0202854Y0067888
X0203642Y0073892
X0207185Y0082652
X0212090Y0089491
X0214801Y0089761
X0217528Y0089593
X0219882Y0089640
X0218917Y0087909
X0215958Y0087998
X0213656Y0087986
X0213399Y0091278
X0216254Y0091381
X0218840Y0091330
X0218898Y0083045
X0219882Y0078160
X0215846
X0216240Y0100171
X0213878
X0211516
Y0102927
X0213878
X0216240
X0218602
Y0100171
X0202756Y0092888
X0204823Y0109817
X0196457Y0107750
X0195866Y0120250
X0197638Y0127534
X0197660Y0129902
X0199409Y0128813
X0199457Y0131512
X0199409Y0125959
X0204823Y0122415
X0210433Y0136589
X0212465Y0136570
X0215453Y0136392
Y0138754
X0216634Y0141510
X0213878
Y0144266
X0216634
X0219390
Y0141510
X0221162Y0136786
X0215453Y0134030
X0220177Y0129010
X0211122Y0141510
X0213779Y0149384
X0215199Y0150854
X0217028Y0151746
Y0149384
X0216358Y0155585
X0204724
X0204823Y0151746
Y0149778
X0200098
Y0151746
X0204724Y0159522
X0198649Y0164327
X0200492Y0167621
X0212606Y0168282
X0210728Y0171333
X0221162Y0172415
Y0168380
Y0164246
X0219193Y0176648
X0220571Y0182061
Y0184423
X0218602
X0208366Y0183341
X0197109Y0194167
X0198130Y0043479
X0194193
Y0045447
X0192224
X0190256
Y0043479
X0192224
Y0041510
X0194193
X0190256
Y0047416
Y0049384
X0192224
Y0047416
X0194193
X0194193Y0049384
Y0051353
Y0053321
Y0055290
X0192224
Y0053321
Y0051353
X0190256
Y0053321
X0190256Y0055290
X0190256Y0057258
Y0059227
Y0061195
Y0063164
Y0065132
Y0067101
Y0069069
Y0071038
Y0073006
Y0074975
Y0076943
Y0078912
Y0080880
X0189961Y0096136
X0193996Y0107947
X0195276Y0109817
X0193799Y0120152
X0185430Y0116216
X0185529Y0114082
X0181595Y0109915
X0179232Y0109719
X0179331Y0107652
X0177067
X0181890
X0173574Y0116460
X0169946Y0116683
X0167273Y0116724
X0168745Y0115049
X0167561Y0113279
X0169917Y0113236
X0162008Y0108931
X0159843Y0109030
X0157139Y0111195
X0156890Y0105191
X0148327Y0106471
X0148425Y0102041
X0141437Y0102104
X0141485Y0106364
X0134646Y0106471
X0131698Y0105973
X0131496Y0102140
X0128247Y0101866
X0122633Y0100458
X0122539Y0110211
X0119741Y0110262
X0118434Y0106118
X0116099Y0107166
X0115824Y0104601
X0113793Y0103044
X0112572Y0106195
X0105701Y0108674
X0105709Y0110801
X0100492Y0110014
Y0108045
X0102067Y0106864
X0102030Y0100859
X0092815Y0103427
X0092940Y0106213
X0089272Y0107160
X0086713
X0084153
X0082185Y0103414
X0084646Y0101261
X0084055Y0098771
X0081496Y0098793
X0081890Y0092475
X0077227Y0092790
X0076083Y0101845
X0075984Y0107160
X0070374Y0107258
X0070079Y0114541
X0072455Y0118380
X0077138Y0118301
X0079626Y0120152
X0090256Y0118675
X0095374
X0100492Y0115919
Y0113951
Y0111982
X0106483Y0121923
X0108465Y0120545
X0110335Y0121825
X0112303
X0114272
X0116240
Y0119856
X0114272
Y0117888
X0112303
Y0119856
X0110383Y0118835
X0112658Y0115932
X0118209Y0121825
X0123031Y0121136
X0123009Y0124223
X0125429Y0118380
X0128543Y0121333
X0134015Y0118380
X0140354Y0119364
X0139075Y0125762
X0142224Y0126156
X0144193
X0147047Y0123400
X0149409
X0151772
X0151860Y0117396
X0149854
X0158957Y0122415
X0169291Y0134128
X0175197Y0132849
X0179626Y0134423
X0183364Y0130406
X0194614Y0155782
X0192881Y0158388
X0191169Y0166886
X0179051Y0173882
Y0177425
X0175902
X0179150Y0181891
X0176394Y0185102
X0174327Y0186579
X0169996Y0185791
X0163023Y0188335
X0164583Y0194551
X0160055Y0194748
X0167195Y0196861
X0175902Y0194354
X0176295Y0190614
X0193799Y0194266
X0151401Y0196872
X0149524Y0195437
X0142131Y0194173
X0139671Y0193468
X0128728Y0193624
X0128831Y0191431
X0126787Y0192780
X0127188Y0194886
X0127001Y0197129
X0123988Y0195722
X0125311Y0194158
X0121613Y0190985
X0119540Y0190904
X0117352Y0190985
X0117339Y0188842
X0119329Y0188830
X0121387Y0188842
X0123539
X0123543Y0186793
X0123505Y0184734
X0125576
X0125469Y0182663
X0123398
X0121289Y0182588
X0119230Y0182575
X0117240Y0182588
X0117348Y0184659
X0119338Y0184646
X0121396Y0184659
X0121434Y0186717
X0119376Y0186705
X0117385Y0186717
X0117240Y0179787
X0119209
X0121177
X0123146
Y0177749
X0121177
X0119209
X0117240
Y0175686
X0119209
X0121177
X0123146
X0123302Y0168136
Y0166099
Y0164101
X0125319Y0164121
Y0166119
Y0168157
X0127327Y0168095
X0129354
Y0166058
Y0164060
X0127327
Y0166058
X0121254Y0166068
Y0164070
X0119257Y0164121
Y0166119
Y0168157
X0121254Y0168105
X0117240Y0168075
Y0166037
Y0164039
X0112713Y0172799
X0110153
X0107595
X0108034Y0176971
X0105960
X0106022Y0179012
Y0181079
Y0183146
X0108097
Y0181079
Y0179012
X0110136Y0179048
X0112151Y0179000
Y0181068
X0110136Y0181115
Y0183182
X0112151Y0183134
X0112089Y0176959
X0110073Y0177007
X0099032Y0176835
X0098047Y0173980
X0094602Y0172898
X0092043
X0089484
X0089836Y0176898
X0087761
X0087824Y0178940
Y0181007
Y0183073
X0089899
Y0181007
Y0178940
X0091938Y0178975
X0093953Y0178928
Y0180995
X0091938Y0181042
Y0183109
X0093953Y0183062
X0100016Y0182937
X0093891Y0176886
X0091875Y0176934
X0083579Y0195204
X0076689Y0194230
X0071079Y0194256
X0065665Y0179343
X0064681Y0174374
X0066408Y0144869
X0067224Y0141904
X0069390Y0147435
X0080446
X0085520Y0145447
X0089385Y0145552
X0090256Y0141510
X0085827Y0141215
X0082185Y0140624
X0085152Y0131560
X0094193Y0130093
X0099705Y0135998
X0101318Y0137408
X0101342Y0134486
X0102854Y0135998
X0102756Y0142888
X0109274Y0143892
X0109153Y0147435
X0112008Y0141149
X0114549Y0141463
X0120374Y0145841
X0122504Y0137242
X0122835Y0134128
X0118968Y0134100
X0111909Y0130093
X0109941Y0129699
X0107972
X0110335Y0131667
X0131742Y0130240
X0136122Y0129601
X0139469Y0129305
Y0132849
X0141437
X0136713Y0133931
X0134252Y0135678
X0129761Y0142282
X0150144Y0142410
X0150187Y0146138
X0156105Y0147337
X0157972Y0144439
X0148721Y0136778
X0152217Y0165344
X0154292
X0156331Y0165380
X0158346Y0165332
X0158409Y0167374
X0156393Y0167422
Y0169489
X0158409Y0169441
Y0171508
X0156393Y0171555
X0154354Y0171520
Y0169453
Y0167386
X0152279
Y0169453
Y0171520
X0140819Y0178581
X0140961Y0180575
X0138814Y0180524
X0138798Y0178460
X0137302Y0177094
X0132693Y0180968
X0135744Y0184906
X0113393Y0194855
X0096850Y0147435
X0079620Y0157372
X0070386Y0133242
X0064468Y0132652
X0061417Y0132553
X0057087Y0134620
X0053150Y0134522
X0045374Y0137081
X0041240Y0136687
X0040945Y0121530
X0044094Y0121431
X0047539Y0121530
X0050787Y0121431
X0054232
X0057411Y0121463
X0061024Y0121431
X0064272Y0121530
X0067670Y0121182
X0069625Y0123014
X0071601Y0125171
X0067421Y0125171
X0061215Y0115004
X0054823Y0110998
X0046850Y0111089
X0042815
X0061262Y0101992
X0063437Y0100565
X0063494Y0098007
X0060028Y0082350
X0064591Y0074364
X0066606Y0074317
X0068645Y0074353
X0070720
X0070657Y0072311
Y0070244
Y0068177
X0068583
Y0070244
Y0072311
X0066544Y0072275
X0064528Y0072323
Y0070256
X0066544Y0070208
Y0068141
X0064528Y0068189
X0059472Y0060507
X0059913Y0051362
X0058354Y0045146
X0062882Y0044949
X0055742Y0042835
X0047035Y0045342
X0046642Y0049083
X0046543Y0054594
X0048610Y0053118
X0052941Y0053905
X0043787Y0057806
X0043886Y0062272
X0047035
X0043886Y0065815
X0082118Y0061116
X0081976Y0059122
X0084123Y0059173
X0084139Y0061237
X0085635Y0062602
X0090244Y0058728
X0087193Y0054791
X0097361Y0054963
X0099432
X0099394Y0052904
X0099398Y0050854
X0101550
X0103608Y0050867
X0105598Y0050854
X0105585Y0048712
X0103397Y0048793
X0101324Y0048712
X0101503Y0052979
X0103561Y0052992
X0105552Y0052979
X0105589Y0055038
X0103599Y0055050
X0101541Y0055038
X0101648Y0057109
X0103707Y0057122
X0105697Y0057109
Y0059909
X0103728
X0101760
X0099791
Y0061948
X0101760
X0103728
X0105697
Y0064011
X0103728
X0101760
X0099791
X0099539Y0057034
X0097468
X0096150Y0046917
X0095749Y0044811
X0095936Y0042568
X0097900Y0042168
X0100038Y0042208
X0098949Y0043974
X0097626Y0045539
X0094209Y0046073
X0094106Y0048266
X0083266Y0046228
X0080805Y0045524
X0073413Y0044260
X0071536Y0042825
X0073008Y0041336
X0074962Y0042173
X0109544Y0044841
X0110786Y0056563
X0112801Y0056515
Y0058582
X0110786Y0058629
Y0060696
X0112801Y0060649
X0114840Y0060684
Y0058618
Y0056551
X0116915
Y0058618
Y0060684
X0116977Y0062726
X0114903
X0112864Y0062690
X0110848Y0062738
X0110224Y0066898
X0112784
X0115342
X0124890Y0065716
X0123906Y0062862
X0129046Y0062811
X0131062Y0062763
X0133101Y0062799
X0135176
X0135113Y0060757
Y0058690
Y0056623
X0133038
Y0058690
Y0060757
X0130999Y0060721
X0128984Y0060769
Y0058702
X0130999Y0058655
Y0056588
X0128984Y0056635
X0122921Y0056760
X0128335Y0066799
X0130894
X0133453
X0143317Y0082325
X0141182Y0092576
X0137500Y0092494
X0126739Y0092475
X0156335Y0092790
X0158760Y0093085
X0155413Y0096599
X0168701Y0100886
X0158256Y0065323
X0157272Y0060353
X0151858Y0045441
X0146248Y0045467
X0139358Y0044493
X0105697Y0071622
Y0073659
Y0075657
X0103680Y0075576
Y0073578
Y0071540
X0101683Y0071591
Y0073629
Y0075627
X0099635Y0075596
Y0073598
Y0071561
X0097618Y0071540
Y0073578
Y0075576
X0095610Y0075637
Y0073639
X0093583
Y0075637
Y0071602
X0095610
X0090256Y0097998
X0087500Y0097908
X0089468Y0104305
X0162909Y0157346
X0163465Y0179190
X0192224Y0061195
Y0059227
X0194193
Y0057258
X0192224
X0030217Y0045742
X0028248
X0026280
X0024311
X0022343
X0020374
X0021457Y0041448
X0014862Y0044463
X0014961Y0048006
X0012303Y0050959
X0002854Y0050171
Y0048203
Y0046234
X0003248Y0054699
X0002854Y0059227
Y0067790
X0002953Y0076549
X0002854Y0084423
Y0086392
Y0088360
Y0090329
X0002067Y0093479
Y0097022
X0006791Y0096825
Y0093577
X0009154Y0089148
X0022765Y0086301
X0025197Y0081569
X0027067Y0079502
X0028740Y0076845
X0033071
X0015650Y0078616
X0014083Y0071136
X0016035Y0061392
X0016634Y0105683
X0014665
X0018602
X0023720Y0106175
X0038976Y0111293
X0031989Y0120152
X0029233Y0122908
X0026920Y0125221
X0025099Y0127042
X0019882Y0130289
Y0135998
X0037559Y0137093
X0031496Y0144660
X0002129Y0145447
X0002093Y0148793
X0002854Y0131274
Y0128911
Y0126943
X0002264Y0109289
X0002246Y0101863
X0002264Y0172317
X0002953Y0187376
X0002657Y0191608
X0014447Y0191663
X0014534Y0187864
X0016634Y0196690
X0033169Y0196234
X0032579Y0192000
X0030758Y0187524
X0020683Y0182495
X0028268Y0172788
X0033169Y0198203
Y0200171
Y0217691
X0032028Y0222744
X0022918Y0222891
X0018317
X0012106Y0225270
X0005610Y0224581
Y0222612
Y0220644
Y0218675
X0009047Y0218380
X0007124Y0202288
X0011811Y0246457
X0014567Y0253150
X0021260
X0024016Y0246457
X0065098Y0226626
X0067373Y0226588
X0069423Y0226569
X0071943Y0226551
X0072457Y0221815
X0072454Y0219754
X0070387
X0070390Y0221815
X0070373Y0217669
X0072440
X0074327Y0218665
Y0220831
X0077194Y0220255
X0079213Y0220449
X0080048Y0218177
X0076669Y0218215
X0076640Y0213336
X0079608Y0213192
X0081413Y0208528
Y0206559
X0082201Y0204591
X0085350Y0203409
X0084169Y0207347
X0092543Y0202925
X0092437Y0199512
X0097850Y0206559
X0099917
X0101984
X0104051
X0106118
X0108185
X0109169Y0208331
X0107102
X0105035
X0102969
X0100902
X0098835
X0099819Y0210102
X0101886
X0103953
X0106020
X0108087
X0108973Y0215516
X0106905
X0104839
X0102772
X0100705
X0098638
X0097646Y0217340
X0099713
X0101780
X0103847
X0105914
X0107981
X0097752Y0210102
X0088106Y0217189
X0079505Y0225886
X0077269Y0225925
X0078155Y0228090
X0075989
X0080517Y0227992
X0119835Y0226343
X0128362Y0225161
X0131315Y0225555
X0133382Y0225654
X0135449
X0137417
X0139386Y0225555
X0141453Y0225457
X0143421
X0141453Y0220240
X0137811Y0220134
X0134465
X0134760Y0215516
X0132299Y0207642
X0133738Y0199201
X0124134Y0199295
X0121664Y0199122
X0122899Y0197489
X0125037Y0197529
X0123097Y0201033
X0113697Y0199069
X0113915Y0204697
X0142142Y0203311
X0144118Y0204155
X0143622Y0201933
X0145575Y0202771
X0145087Y0200468
X0147027Y0201319
X0146566Y0199017
X0148529Y0199817
X0147976Y0197524
X0149929Y0198361
X0154541Y0201365
X0156453Y0201979
X0156983Y0203919
X0154981Y0203468
X0155511Y0205408
X0153571Y0204961
X0154101Y0206901
X0152092Y0206413
X0152622Y0208352
X0150627Y0207878
X0151157Y0209817
X0149169Y0209263
X0149346Y0211290
X0148715Y0207264
X0147258Y0208649
X0150180Y0205799
X0151659Y0204347
X0153069Y0202854
X0164189Y0202327
X0167551Y0201646
X0169679Y0199161
X0173933Y0204984
Y0207347
X0175590Y0206226
X0176669Y0208017
X0176839Y0204283
X0178134Y0218696
X0178165Y0223259
X0177513Y0227917
X0169504
X0161683Y0227952
X0165712Y0222963
X0159632Y0218982
X0155144Y0215828
X0151000Y0216205
X0166650Y0212465
X0194980Y0216707
X0194471Y0198419
X0201673Y0212376
X0203642Y0214345
X0206791Y0215919
X0211442Y0221038
X0209842Y0223695
X0209746Y0228630
X0206621Y0228612
X0213090Y0226549
X0199705Y0221431
X0197343
X0206693Y0246457
X0209449Y0253150
X0216142
X0218898Y0246457
X0220965Y0209620
Y0198597
T02
X0064961Y0088976
X0068504Y0085827
X0072047Y0088976
X0075590Y0085827
X0078886Y0089177
X0082430Y0086028
X0085973Y0089177
X0089516Y0086028
X0093307Y0088976
X0096850Y0085827
X0100394Y0088976
X0103937Y0085827
X0107233Y0089177
X0110776Y0086028
X0114319Y0089177
X0117863Y0086028
X0121653Y0088976
X0125197Y0085827
X0128740Y0088976
X0132283Y0085827
X0135579Y0089177
X0139122Y0086028
X0142666Y0089177
X0146209Y0086028
X0150000Y0088976
X0150146Y0150988
X0146457Y0153543
X0143060Y0150988
X0139370Y0153543
X0136221Y0150787
X0132677Y0153543
X0129134Y0150787
X0125591Y0153543
X0121653Y0150787
X0118110Y0153543
X0114567Y0150787
X0111024Y0153543
X0107874Y0150787
X0104331Y0153543
X0100787Y0150787
X0097244Y0153543
X0093307Y0150787
X0089764Y0153543
X0086221Y0150787
X0082823Y0153744
X0079527Y0150787
X0075984Y0153543
X0072441Y0150787
X0068898Y0153543
X0153937
X0025591Y0233858
X0022441Y0236614
X0018504Y0233858
X0014173Y0236614
X0011024Y0233858
X0206693
X0209842Y0236614
X0212992Y0233858
X0216142Y0236614
X0219685Y0233858
T03
X0025000Y0024654
X0051472Y0074343
X0151472
X0171465Y0165354
X0071465
X0025000Y0210266
X0210630Y0204778
M30
