M48
;Layer_Color=9474304
;FILE_FORMAT=2:5
INCH
;TYPE=PLATED
T1F00S00C0.01181
T2F00S00C0.09843
%
T01
X0491142Y0554724
X0493110
X0495079
Y0556693
Y0558661
X0493110
Y0556693
X0491142
Y0558661
Y0560630
X0493110
Y0562598
X0495079
Y0560630
X0497047
X0499016
Y0562598
X0497047
Y0564567
Y0566535
Y0568504
X0499016
Y0566535
Y0564567
X0495079
X0493110
Y0566535
X0491142
Y0564567
Y0562598
Y0568504
X0493110
X0495079
Y0566535
Y0570472
Y0572441
X0493110
Y0570472
X0491142
Y0572441
Y0574409
Y0576378
X0493110
Y0578346
X0495079
Y0576378
Y0574409
X0493110
X0497047
X0499016
Y0576378
Y0578346
X0497047
Y0576378
Y0580315
Y0582283
Y0584252
X0499016
Y0582283
Y0580315
X0495079
Y0582283
Y0584252
X0493110
X0491142
Y0582283
X0493110
Y0580315
X0491142
Y0578346
Y0586221
Y0588189
X0493110
X0495079
Y0586221
X0493110
Y0590158
X0495079
Y0592126
Y0594095
X0493110
Y0592126
X0491142
Y0590158
Y0594095
Y0596063
Y0598032
X0493110
X0495079
Y0596063
X0493110
X0497047
Y0598032
X0499016
Y0600000
Y0601968
X0497047
Y0600000
X0495079
X0493110
X0491142
Y0601968
X0493110
X0495079
Y0603937
Y0605905
Y0607874
X0497047
Y0605905
Y0603937
X0499016
Y0605905
Y0607874
X0497047Y0609842
X0495079
Y0611811
X0493110
Y0609842
X0491142
Y0611811
Y0613779
Y0615748
Y0617717
Y0619685
Y0621654
Y0623622
X0493110Y0613779
Y0607874
Y0605905
Y0603937
X0491142
Y0605905
X0491142Y0607874
X0502953Y0604035
Y0602067
X0504921
Y0600098
X0506890
Y0598130
X0504921
Y0596161
X0506890
Y0594193
X0504921
X0502953
Y0592224
Y0590256
X0504921
Y0592224
X0506890
Y0590256
X0508858
X0510827
Y0592224
Y0594193
X0508858
Y0592224
Y0588287
Y0586319
X0510827
Y0588287
X0513738Y0589239
X0517215Y0591002
X0516732Y0597047
X0510827Y0596161
X0508858
Y0598130
X0502953
Y0596161
Y0600098
X0499016Y0596063
Y0594095
Y0592126
X0497047
Y0590158
X0499016
Y0588189
X0497047
Y0586221
X0499016
X0502953Y0586319
X0504921
X0506890
Y0588287
X0504921
X0502953
Y0584350
X0504921
Y0582382
Y0580413
X0502953
Y0582382
X0506890
Y0584350
X0508858
X0510827
Y0582382
Y0580413
X0508858
Y0582382
Y0578445
Y0576476
Y0574508
X0510827
Y0576476
Y0578445
X0506890
Y0576476
Y0574508
X0504921
X0502953
Y0576476
Y0578445
X0504921
Y0576476
Y0572539
X0502953
Y0570571
X0504921
X0506890
Y0572539
X0508858
X0510827
Y0570571
X0508858
Y0568602
X0510827
Y0566634
Y0564665
X0508858
Y0566634
X0506890
Y0568602
X0504921
X0502953
Y0566634
Y0564665
X0504921
Y0566634
X0506890Y0564665
Y0562697
Y0560728
X0504921
X0502953
Y0562697
X0504921
X0508858
Y0560728
X0510827
Y0562697
Y0558760
X0508858
Y0556791
X0510827
Y0554823
X0508858
X0506890
Y0556791
X0504921
X0502953
Y0558760
X0504921
X0506890
X0504921Y0554823
X0502953
X0499016Y0554724
X0497047
Y0556693
X0499016
Y0558661
X0497047
Y0570472
Y0572441
X0499016
Y0570472
X0506890Y0580413
X0516929Y0582283
X0519980
X0520079Y0579429
X0519193Y0571949
X0520276Y0565748
X0515821Y0567421
X0514665Y0564862
X0516831Y0558071
X0521296Y0557972
Y0554921
X0518504Y0603346
X0518734Y0610236
X0515748Y0610335
X0515945Y0614961
X0509646Y0614567
X0510433Y0611811
X0507677Y0616535
X0505709Y0618504
X0503740Y0620472
X0497047Y0594095
X0331102Y0598327
X0329134
X0327165
X0325197
X0323228
X0321260
X0322342Y0594032
X0315945Y0593405
X0315748Y0597047
X0315846Y0600591
X0313189Y0603543
X0316921Y0613976
X0314968Y0623721
X0313681Y0584646
X0313779Y0581102
X0313583Y0573228
X0313976Y0568110
X0314075Y0563779
X0308391Y0564468
X0304134Y0564173
Y0561811
Y0559449
Y0566929
X0303740Y0576772
Y0581004
Y0584646
X0304134Y0593307
X0303740Y0598819
Y0600787
Y0602756
X0304134Y0607283
X0303740Y0611811
Y0620374
X0303839Y0629134
X0303740Y0637008
Y0638976
Y0640945
Y0642913
X0302953Y0646063
Y0649606
X0307677Y0649409
Y0646161
X0310039Y0641732
X0303132Y0654447
X0303150Y0661873
X0303740Y0679528
Y0681496
Y0683858
X0303015Y0698032
X0302979Y0701378
X0303150Y0724902
X0303839Y0739961
X0303543Y0744193
X0308009Y0754873
X0306496Y0771260
Y0773228
Y0775197
Y0777165
X0309933Y0770965
X0312992Y0777854
X0319203Y0775476
X0323803
X0332914Y0775328
X0334055Y0770276
Y0752756
Y0750787
Y0748819
X0333465Y0744585
X0331644Y0740108
X0321569Y0735080
X0315420Y0740449
X0315333Y0744247
X0317520Y0749275
X0329153Y0725372
X0332382Y0697244
X0338445Y0689677
X0342126Y0689272
X0346260Y0689665
X0354035Y0687106
X0357972Y0687205
X0362303Y0685138
X0365354Y0685236
X0371272Y0685827
X0372487Y0677756
X0370510Y0675599
X0368556Y0673767
X0365158Y0674114
X0361910Y0674016
X0358297Y0674048
X0355118Y0674016
X0351673
X0348425Y0674114
X0344980Y0674016
X0341831Y0674114
X0332875Y0672737
X0330119Y0675493
X0327806Y0677806
X0325985Y0679627
X0320768Y0682874
Y0688583
X0319488Y0658268
X0317520
X0315551
X0324606Y0658760
X0339862Y0663878
X0343701Y0663673
X0347736
X0355709Y0663583
X0362100Y0667588
X0370965Y0667126
X0373341Y0670965
X0378024Y0670886
X0380512Y0672736
X0391142Y0671260
X0396260
X0401378Y0668504
Y0666535
Y0664567
Y0662598
Y0660630
X0402953Y0659449
X0406587Y0661259
X0406594Y0663386
X0413458Y0658780
X0414678Y0655629
X0416710Y0657185
X0416985Y0659750
X0419320Y0658703
X0420627Y0662847
X0423425Y0662795
X0423519Y0653043
X0429133Y0654451
X0432382Y0654724
X0432584Y0658558
X0435532Y0659055
X0442371Y0658949
X0442323Y0654688
X0449311Y0654626
X0449212Y0659055
X0457776Y0657776
X0458025Y0663779
X0460728Y0661614
X0462894Y0661516
X0468447Y0665863
X0468159Y0669308
X0459842Y0675000
X0452658Y0675984
X0450295
X0447933
X0445079Y0678740
X0443110
X0439961Y0678346
X0440354Y0681890
Y0685433
X0442323
X0437598Y0686516
X0435138Y0688262
X0437008Y0682185
X0432628Y0682825
X0429429Y0673917
X0423917Y0673721
X0423895Y0676808
X0419095Y0674409
X0417126
X0415158
X0413189
Y0672441
Y0670472
X0415158
Y0672441
X0417126
X0411269Y0671420
X0411221Y0674409
X0409350Y0673130
X0407369Y0674508
X0408858Y0682283
X0410827
X0412795Y0682677
X0411221Y0684252
X0419854Y0686685
X0423721Y0686713
X0423390Y0689827
X0421260Y0698425
X0415435Y0694048
X0412894Y0693734
X0410160Y0696476
X0410039Y0700020
X0403642Y0695472
X0402204Y0689993
X0402228Y0687070
X0403740Y0688583
X0400591
X0395079Y0682677
X0386037Y0684144
X0386713Y0693799
X0383071Y0693209
X0386406Y0698032
X0390271Y0698137
X0391142Y0694095
X0397736Y0700020
X0381332
X0370276
X0367294Y0697454
X0368110Y0694488
X0368307Y0677756
X0371260Y0659842
X0376870Y0659744
X0376969Y0654429
X0383071Y0655998
X0385531Y0653846
X0384941Y0651356
X0382382Y0651378
X0382776Y0645059
X0378113Y0645374
X0388386Y0650492
X0391142Y0650583
X0390354Y0656890
X0390158Y0659744
X0387598
X0385039
X0393826Y0658798
X0393701Y0656012
X0402916Y0653443
X0413543Y0668516
X0426315Y0670965
X0434901Y0670965
X0441240Y0671949
X0450740Y0669980
X0452746
X0449606Y0689362
X0451030Y0694994
X0451073Y0698723
X0456991Y0699921
X0458858Y0697023
X0430646Y0694867
X0427625Y0645059
X0438386Y0645079
X0442067Y0645160
X0457221Y0645374
X0459646Y0645669
X0456299Y0649183
X0364380Y0650591
X0364323Y0653150
X0362148Y0654577
X0333957Y0629429
X0329626
X0327953Y0632087
X0326083Y0634154
X0323651Y0638886
X0316535Y0631201
X0491142Y0631496
Y0633465
Y0629528
Y0627559
Y0625591
X0504528Y0626476
X0508071Y0635236
X0512976Y0642076
X0515687Y0642345
X0518413Y0642178
X0520768Y0642224
X0519803Y0640493
X0516844Y0640583
X0514542Y0640570
X0514285Y0643863
X0517140Y0643966
X0519725Y0643914
X0519783Y0635630
X0520768Y0630745
X0516732
X0517126Y0652756
X0514764
X0512402
Y0655512
X0514764
X0517126
X0519488
Y0652756
X0503642Y0645472
X0490846Y0648721
X0494882Y0660532
X0497342Y0660335
X0496161Y0662402
X0505709Y0662402
Y0675000
X0500295Y0678543
Y0681398
X0500343Y0684096
X0498546Y0682486
X0498524Y0680118
X0496752Y0672835
X0494685Y0672736
X0486316Y0668801
X0486415Y0666666
X0482480Y0662500
X0480118Y0662303
X0480217Y0660236
X0477953
X0482776
X0474460Y0669044
X0470831Y0669268
X0469630Y0667633
X0470803Y0665821
X0469587Y0653470
X0470177Y0686713
X0476083Y0685433
X0480512Y0687008
X0484250Y0682991
X0511319Y0689173
X0513351Y0689154
X0516339Y0688976
Y0691339
X0517520Y0694095
X0514764
Y0696850
X0517520
X0520276
Y0694095
X0522047Y0689370
X0516339Y0686614
X0521063Y0681595
X0512008Y0694095
X0514665Y0701968
X0516085Y0703438
X0517913Y0704331
Y0701968
X0517244Y0708169
X0505610
X0505709Y0704331
Y0702362
X0500984
Y0704331
X0495500Y0708366
X0493767Y0710973
X0492055Y0719470
X0499535Y0716911
X0501378Y0720205
X0505610Y0712106
X0513492Y0720866
X0511614Y0723917
X0522047Y0725000
Y0720965
Y0716831
X0520079Y0729232
X0521457Y0734646
Y0737008
X0519488
X0509252Y0735925
X0497995Y0746752
X0494685Y0746850
X0495357Y0751003
X0495866Y0769291
X0498228Y0774016
X0500591
X0502559Y0764961
X0504528Y0766929
X0507677Y0768504
X0512328Y0773622
X0510728Y0776279
X0510631Y0781214
X0507507Y0781196
X0513976Y0779134
X0521850Y0762205
Y0751181
T02
X0325886Y0577238
Y0762851
X0511516Y0757362
M30
