G04*
G04 #@! TF.GenerationSoftware,Altium Limited,Altium Designer,21.7.2 (23)*
G04*
G04 Layer_Color=128*
%FSLAX25Y25*%
%MOIN*%
G70*
G04*
G04 #@! TF.SameCoordinates,AC02EB70-E257-4DE1-B61C-AE1B2F8B855F*
G04*
G04*
G04 #@! TF.FilePolarity,Positive*
G04*
G01*
G75*
%ADD12R,0.02362X0.02500*%
%ADD13R,0.02362X0.01575*%
%ADD14R,0.04331X0.02559*%
%ADD15R,0.02500X0.02362*%
%ADD17R,0.02362X0.02756*%
%ADD20R,0.01378X0.03150*%
%ADD21R,0.03937X0.02165*%
%ADD27R,0.03800X0.03937*%
%ADD40R,0.04500X0.05906*%
%ADD43R,0.03937X0.03800*%
%ADD73C,0.00039*%
%ADD82R,0.02165X0.01654*%
%ADD83R,0.01181X0.02362*%
%ADD84R,0.02362X0.01181*%
%ADD85R,0.01575X0.07874*%
%ADD86R,0.13780X0.35433*%
%ADD87R,0.14567X0.05906*%
%ADD88R,0.12303X0.07284*%
%ADD89R,0.05118X0.02165*%
%ADD90R,0.05807X0.03150*%
D12*
X52067Y142458D02*
D03*
Y147058D02*
D03*
X93701Y142261D02*
D03*
Y146861D02*
D03*
X96752D02*
D03*
Y142261D02*
D03*
X109153Y146960D02*
D03*
Y142360D02*
D03*
X179626Y113226D02*
D03*
Y117826D02*
D03*
X150144Y147010D02*
D03*
Y142410D02*
D03*
X176181Y113226D02*
D03*
Y117826D02*
D03*
X145768Y142458D02*
D03*
Y147058D02*
D03*
X55216D02*
D03*
Y142458D02*
D03*
X120095Y204948D02*
D03*
Y209548D02*
D03*
Y217520D02*
D03*
Y212920D02*
D03*
X71177Y189630D02*
D03*
Y194230D02*
D03*
X76689D02*
D03*
Y189630D02*
D03*
X65665Y194230D02*
D03*
Y189630D02*
D03*
X102842Y34749D02*
D03*
Y30149D02*
D03*
Y22176D02*
D03*
Y26776D02*
D03*
X151760Y50067D02*
D03*
Y45467D02*
D03*
X146248D02*
D03*
Y50067D02*
D03*
X157272Y45467D02*
D03*
Y50067D02*
D03*
D13*
X163500Y212760D02*
D03*
Y215122D02*
D03*
Y217484D02*
D03*
Y219847D02*
D03*
Y194748D02*
D03*
Y197110D02*
D03*
Y199472D02*
D03*
Y201835D02*
D03*
X59437Y26937D02*
D03*
Y24575D02*
D03*
Y22213D02*
D03*
Y19850D02*
D03*
Y44949D02*
D03*
Y42587D02*
D03*
Y40224D02*
D03*
Y37862D02*
D03*
D14*
X169799Y208921D02*
D03*
Y223685D02*
D03*
Y190909D02*
D03*
Y205673D02*
D03*
X53138Y30776D02*
D03*
Y16012D02*
D03*
Y48787D02*
D03*
Y34024D02*
D03*
D15*
X73953Y92790D02*
D03*
X69353D02*
D03*
X85298D02*
D03*
X89898D02*
D03*
X97969D02*
D03*
X93369D02*
D03*
X101440D02*
D03*
X106040D02*
D03*
X122182D02*
D03*
X117582D02*
D03*
X90292Y142199D02*
D03*
X85692D02*
D03*
X173487Y136293D02*
D03*
X178087D02*
D03*
X105745Y146923D02*
D03*
X101145D02*
D03*
X77523Y147120D02*
D03*
X82123D02*
D03*
X77227Y92790D02*
D03*
X81827D02*
D03*
X125062D02*
D03*
X129662D02*
D03*
X82061Y143872D02*
D03*
X77461D02*
D03*
X61578Y92790D02*
D03*
X66178D02*
D03*
X137635D02*
D03*
X133035D02*
D03*
X90158Y147022D02*
D03*
X85557D02*
D03*
D17*
X114272Y92986D02*
D03*
X108760D02*
D03*
D20*
X207087Y255413D02*
D03*
X218898D02*
D03*
Y241437D02*
D03*
X207087D02*
D03*
X12205Y255413D02*
D03*
X24016D02*
D03*
Y241437D02*
D03*
X12205D02*
D03*
D21*
X73228Y147219D02*
D03*
Y142101D02*
D03*
X65748Y144660D02*
D03*
D27*
X158613Y93577D02*
D03*
X152213D02*
D03*
X147542D02*
D03*
X141142D02*
D03*
D40*
X68657Y200161D02*
D03*
X76257D02*
D03*
Y206362D02*
D03*
X68657D02*
D03*
X154280Y39535D02*
D03*
X146680D02*
D03*
Y33335D02*
D03*
X154280D02*
D03*
D43*
X65665Y185743D02*
D03*
Y179343D02*
D03*
X71177D02*
D03*
Y185743D02*
D03*
X125311Y211826D02*
D03*
Y205426D02*
D03*
X76689Y185743D02*
D03*
Y179343D02*
D03*
X157272Y53953D02*
D03*
Y60353D02*
D03*
X151760D02*
D03*
Y53953D02*
D03*
X97626Y27871D02*
D03*
Y34271D02*
D03*
X146248Y53953D02*
D03*
Y60353D02*
D03*
D73*
X162402Y98032D02*
X163583Y99213D01*
X43972Y9374D02*
X45746D01*
X43970Y84180D02*
X62992D01*
X203150Y238976D02*
Y256299D01*
X57269Y99217D02*
X58474Y98012D01*
X204921Y231988D02*
Y238583D01*
X35039Y98032D02*
X36225Y99217D01*
X203543Y225295D02*
Y230807D01*
X33864Y49383D02*
X35037Y48211D01*
X202362Y190551D02*
X203543Y189370D01*
X18118Y0D02*
X19297Y1179D01*
X186651Y140686D02*
X187795Y141831D01*
X8957Y231988D02*
Y238583D01*
X61614Y157874D02*
Y227953D01*
X35039Y150295D02*
Y230807D01*
X163583Y99213D02*
X186614D01*
X161319Y11713D02*
Y81791D01*
X221457Y231988D02*
X221712D01*
X41634Y11713D02*
X43972Y9374D01*
X62992Y84180D02*
Y90803D01*
X203150Y256299D02*
X205118Y258268D01*
X35039Y71807D02*
Y98032D01*
X202362Y224114D02*
X203543Y225295D01*
Y170472D02*
Y189370D01*
X1103Y231988D02*
X8957D01*
X155709Y149114D02*
Y155512D01*
X8261Y256292D02*
X10236Y258268D01*
X27461Y238583D02*
X27559D01*
X61614Y157874D02*
X63976Y155512D01*
X186614Y99213D02*
X187795Y98032D01*
X157480Y84153D02*
Y90793D01*
X158957Y84153D02*
X161319Y81791D01*
X222835Y230865D02*
X222835Y1181D01*
X58474Y91950D02*
Y98012D01*
X20475Y49383D02*
X33864D01*
X19297Y1179D02*
Y13490D01*
X163546Y140686D02*
X186651D01*
X155709Y155512D02*
X178937D01*
X10236Y258268D02*
X27559D01*
X27461Y231988D02*
Y238583D01*
X33858Y231988D02*
X35039Y230807D01*
X157480Y90793D02*
X161266D01*
X189420Y2D02*
X221655D01*
X205118Y258268D02*
X222441D01*
X58474Y91950D02*
X59621Y90803D01*
X36225Y99217D02*
X57269D01*
X19289Y50568D02*
Y69015D01*
Y50568D02*
X20475Y49383D01*
X202362Y169291D02*
X203543Y170472D01*
X19297Y13490D02*
X20430Y14623D01*
X162402Y141831D02*
X163546Y140686D01*
X-11Y230874D02*
X1103Y231988D01*
X178937Y155512D02*
X181299Y157874D01*
Y220255D02*
Y227953D01*
X63976Y155512D02*
X66929D01*
X27461Y231988D02*
X33858D01*
X187795Y1181D02*
Y98032D01*
X157480Y84153D02*
X158957D01*
X221655Y2D02*
X222835Y1181D01*
X222441Y258268D02*
X222835Y257874D01*
X19289Y69015D02*
X20894Y70620D01*
X187795Y220265D02*
Y222933D01*
Y191732D02*
Y220265D01*
X20430Y14623D02*
X33816D01*
X188976Y169291D02*
X202362D01*
X-11Y230874D02*
X-11Y1192D01*
X162402Y141831D02*
Y147933D01*
X8661Y238583D02*
X8957D01*
X8261Y238983D02*
X8661Y238583D01*
X178937Y230315D02*
X181299Y227953D01*
X27559Y238583D02*
X27953Y238976D01*
X66929Y149114D02*
Y155512D01*
X161266Y90793D02*
X162402Y91929D01*
X187795Y1181D02*
X188975Y2D01*
X189420D01*
X45746Y9374D02*
X158980D01*
X59621Y90803D02*
X62992D01*
X203543Y238583D02*
X204921D01*
X187795Y222933D02*
X188976Y224114D01*
X187795Y191732D02*
X188976Y190551D01*
X-11Y1192D02*
X1181Y0D01*
X8261Y238983D02*
Y239363D01*
X181299Y157874D02*
Y220255D01*
X63976Y230315D02*
X178937D01*
X162402Y91929D02*
Y98032D01*
X158980Y9374D02*
X161319Y11713D01*
X222835Y238976D02*
Y257874D01*
X41634Y81844D02*
X43970Y84180D01*
X204724Y231988D02*
X204921D01*
X203543Y230807D02*
X204724Y231988D01*
X20894Y70620D02*
X33853D01*
X188976Y224114D02*
X202362D01*
X33816Y14623D02*
X35037Y15844D01*
X187795Y168110D02*
X188976Y169291D01*
X161221Y149114D02*
X162402Y147933D01*
X8261Y239363D02*
Y256292D01*
X27953Y238976D02*
Y257874D01*
X36220Y149114D02*
X66929D01*
X221712Y231988D02*
X222835Y230865D01*
X221457Y231988D02*
Y238583D01*
X222441D01*
X222835Y238976D01*
X41634Y11713D02*
Y81844D01*
X203150Y238976D02*
X203543Y238583D01*
X33853Y70620D02*
X35039Y71807D01*
X188976Y190551D02*
X202362D01*
X35037Y15844D02*
Y48211D01*
X187795Y141831D02*
Y168110D01*
X1181Y0D02*
X18118D01*
X155709Y149114D02*
X161221D01*
X27559Y258268D02*
X27953Y257874D01*
X61614Y227953D02*
X63976Y230315D01*
X35039Y150295D02*
X36220Y149114D01*
D82*
X58464Y147317D02*
D03*
X64764D02*
D03*
D83*
X172539Y130486D02*
D03*
X174508D02*
D03*
X176476D02*
D03*
X178445D02*
D03*
Y121431D02*
D03*
X174508D02*
D03*
X172539D02*
D03*
X176476D02*
D03*
D84*
X179035Y127927D02*
D03*
Y125959D02*
D03*
Y123990D02*
D03*
X171949D02*
D03*
Y125959D02*
D03*
Y127927D02*
D03*
D85*
X152854Y112770D02*
D03*
X150098Y112770D02*
D03*
X147342D02*
D03*
X144587D02*
D03*
X141831D02*
D03*
X139075D02*
D03*
X136319D02*
D03*
X133563D02*
D03*
X130807D02*
D03*
X128051D02*
D03*
X125295D02*
D03*
X122539D02*
D03*
X119783D02*
D03*
X117027D02*
D03*
X114272D02*
D03*
X111516D02*
D03*
X108760D02*
D03*
X106004D02*
D03*
X103248D02*
D03*
X100492D02*
D03*
X97736D02*
D03*
X94980D02*
D03*
X92224D02*
D03*
X89468D02*
D03*
X86713D02*
D03*
X83957D02*
D03*
X81201D02*
D03*
X78445D02*
D03*
X75689D02*
D03*
X72933D02*
D03*
X70177D02*
D03*
D86*
X154150Y174177D02*
D03*
X138500Y174079D02*
D03*
X88697D02*
D03*
X108579D02*
D03*
X68787Y65520D02*
D03*
X84437Y65618D02*
D03*
X134240D02*
D03*
X114358D02*
D03*
D87*
X123539Y184512D02*
D03*
Y159315D02*
D03*
X99398Y55185D02*
D03*
Y80382D02*
D03*
D88*
X68618Y218764D02*
D03*
X154319Y20933D02*
D03*
D89*
X78020Y212858D02*
D03*
Y224669D02*
D03*
X144917Y26839D02*
D03*
Y15028D02*
D03*
D90*
X77673Y218764D02*
D03*
X145264Y20933D02*
D03*
M02*
