G04*
G04 #@! TF.GenerationSoftware,Altium Limited,Altium Designer,21.7.2 (23)*
G04*
G04 Layer_Physical_Order=2*
G04 Layer_Color=36540*
%FSLAX25Y25*%
%MOIN*%
G70*
G04*
G04 #@! TF.SameCoordinates,36E82812-18AB-4B4F-9185-4EDF9D12745B*
G04*
G04*
G04 #@! TF.FilePolarity,Positive*
G04*
G01*
G75*
%ADD11C,0.01000*%
%ADD54C,0.01181*%
%ADD55C,0.00787*%
%ADD73C,0.00039*%
%ADD74C,0.00500*%
%ADD75C,0.03150*%
%ADD76C,0.01772*%
%ADD77C,0.17717*%
%ADD78C,0.01102*%
%ADD79C,0.01476*%
%ADD80C,0.02067*%
%ADD81C,0.02362*%
%ADD82C,0.01968*%
G36*
X176904Y229490D02*
X177370Y229409D01*
X177370Y229409D01*
Y229409D01*
X177819Y229434D01*
X178152Y229349D01*
X178152Y229349D01*
X178605Y229214D01*
X178624Y229207D01*
X178670Y229183D01*
X179020Y229000D01*
X179174Y228886D01*
X179181Y228823D01*
X179184Y228815D01*
X179373Y228737D01*
X179557Y228565D01*
X179729Y228381D01*
X179807Y228192D01*
X179815Y228189D01*
X179878Y228182D01*
X179993Y228027D01*
X180006Y228006D01*
X180199Y227632D01*
X180260Y227478D01*
X180341Y227161D01*
X180341Y227160D01*
X180342Y227156D01*
X180413Y226873D01*
X180401Y226378D01*
X180401D01*
X180484Y225912D01*
X180497Y225800D01*
Y183338D01*
X179997Y183131D01*
X179986Y183142D01*
X179443Y183367D01*
X178856D01*
X178313Y183142D01*
X177898Y182727D01*
X177673Y182184D01*
Y181597D01*
X177898Y181054D01*
X178313Y180639D01*
X178856Y180414D01*
X179443D01*
X179986Y180639D01*
X179997Y180650D01*
X180497Y180443D01*
Y170134D01*
X180029Y169941D01*
X179997Y169947D01*
X178957Y171503D01*
X177613Y172847D01*
X176033Y173902D01*
X174278Y174629D01*
X172415Y175000D01*
X170515D01*
X168651Y174629D01*
X166896Y173902D01*
X165316Y172847D01*
X163972Y171503D01*
X162917Y169923D01*
X162190Y168168D01*
X161819Y166304D01*
Y164404D01*
X162190Y162541D01*
X162917Y160785D01*
X163972Y159205D01*
X165316Y157862D01*
X166872Y156822D01*
X166878Y156790D01*
X166684Y156322D01*
X76245D01*
X76051Y156790D01*
X76057Y156822D01*
X77613Y157862D01*
X78957Y159205D01*
X80013Y160785D01*
X80740Y162541D01*
X81110Y164404D01*
Y166304D01*
X80740Y168168D01*
X80013Y169923D01*
X78957Y171503D01*
X77613Y172847D01*
X76034Y173902D01*
X74278Y174629D01*
X72415Y175000D01*
X70515D01*
X68651Y174629D01*
X66896Y173902D01*
X65316Y172847D01*
X63972Y171503D01*
X62932Y169947D01*
X62900Y169941D01*
X62432Y170134D01*
Y225800D01*
X62445Y225912D01*
X62528Y226378D01*
X62528D01*
X62516Y226872D01*
X62588Y227160D01*
X62588D01*
X62723Y227613D01*
X62730Y227632D01*
X62754Y227678D01*
X62937Y228028D01*
X63051Y228182D01*
X63114Y228189D01*
X63122Y228192D01*
X63200Y228381D01*
X63372Y228565D01*
X63556Y228737D01*
X63745Y228815D01*
X63748Y228823D01*
X63755Y228886D01*
X63910Y229001D01*
X63932Y229014D01*
X64305Y229207D01*
X64455Y229266D01*
X64776Y229349D01*
X64777Y229349D01*
X64781Y229350D01*
X64936Y229415D01*
X65083Y229438D01*
X65559Y229409D01*
Y229409D01*
X66036Y229491D01*
X66153Y229504D01*
X160441D01*
X160648Y229005D01*
X160432Y228788D01*
X160207Y228246D01*
Y227658D01*
X160432Y227116D01*
X160847Y226700D01*
X161390Y226476D01*
X161977D01*
X162520Y226700D01*
X162935Y227116D01*
X163160Y227658D01*
Y228246D01*
X162935Y228788D01*
X162719Y229005D01*
X162926Y229504D01*
X176776D01*
X176904Y229490D01*
D02*
G37*
G36*
X221125Y231199D02*
X221370Y231113D01*
X221590Y230975D01*
X221774Y230791D01*
X221912Y230571D01*
X221998Y230326D01*
X222032Y230022D01*
Y166025D01*
X221532Y165691D01*
X221455Y165723D01*
X220868D01*
X220325Y165498D01*
X219910Y165083D01*
X219685Y164540D01*
Y163953D01*
X219910Y163410D01*
X220325Y162995D01*
X220868Y162770D01*
X221455D01*
X221532Y162802D01*
X222032Y162468D01*
Y138564D01*
X221532Y138230D01*
X221455Y138262D01*
X220868D01*
X220325Y138037D01*
X219910Y137622D01*
X219685Y137079D01*
Y136492D01*
X219910Y135949D01*
X220325Y135534D01*
X220868Y135309D01*
X221455D01*
X221532Y135341D01*
X222032Y135007D01*
Y129697D01*
X221532Y129597D01*
X221429Y129846D01*
X221013Y130262D01*
X220471Y130486D01*
X219883D01*
X219341Y130262D01*
X218926Y129846D01*
X218701Y129304D01*
Y128716D01*
X218926Y128174D01*
X219341Y127758D01*
X219883Y127534D01*
X220471D01*
X221013Y127758D01*
X221429Y128174D01*
X221532Y128423D01*
X222032Y128323D01*
Y2014D01*
X221998Y1710D01*
X221912Y1465D01*
X221774Y1245D01*
X221590Y1061D01*
X221370Y923D01*
X221124Y837D01*
X220821Y803D01*
X200498D01*
X200145Y1157D01*
X200383Y81606D01*
X200383Y81607D01*
X200383Y81607D01*
X200353Y81757D01*
X200323Y81914D01*
X200322Y81914D01*
X200322Y81915D01*
X200238Y82041D01*
X200149Y82175D01*
X200149Y82175D01*
X200149Y82175D01*
X199796Y82530D01*
X199795Y82530D01*
X199795Y82530D01*
X199662Y82619D01*
X199535Y82704D01*
X199535Y82704D01*
X199534Y82704D01*
X199380Y82735D01*
X199228Y82766D01*
X199228Y82765D01*
X199227Y82766D01*
X188598D01*
Y97244D01*
X188589Y97289D01*
X188593Y97334D01*
X188544Y97772D01*
X188516Y97858D01*
X188504Y97947D01*
X188358Y98363D01*
X188312Y98441D01*
X188280Y98525D01*
X188046Y98899D01*
X187984Y98964D01*
X187933Y99039D01*
X187622Y99351D01*
X187547Y99401D01*
X187481Y99463D01*
X187108Y99697D01*
X187024Y99730D01*
X186946Y99775D01*
X186530Y99921D01*
X186441Y99934D01*
X186355Y99961D01*
X185917Y100010D01*
X185871Y100007D01*
X185827Y100015D01*
X170479D01*
X170145Y100515D01*
X170177Y100592D01*
Y101180D01*
X169952Y101722D01*
X169537Y102137D01*
X168994Y102362D01*
X168407D01*
X167865Y102137D01*
X167449Y101722D01*
X167224Y101180D01*
Y100592D01*
X167256Y100515D01*
X166922Y100015D01*
X164370D01*
X164325Y100007D01*
X164280Y100010D01*
X163842Y99961D01*
X163756Y99934D01*
X163667Y99921D01*
X163251Y99775D01*
X163173Y99730D01*
X163089Y99697D01*
X162716Y99463D01*
X162650Y99401D01*
X162575Y99351D01*
X162263Y99039D01*
X162213Y98964D01*
X162151Y98899D01*
X161917Y98525D01*
X161885Y98441D01*
X161839Y98363D01*
X161693Y97947D01*
X161681Y97858D01*
X161653Y97772D01*
X161604Y97334D01*
X161608Y97289D01*
X161599Y97244D01*
Y92815D01*
X161565Y92512D01*
X161479Y92266D01*
X161340Y92046D01*
X161157Y91863D01*
X160937Y91724D01*
X160691Y91638D01*
X160388Y91604D01*
X128518D01*
X128183Y92104D01*
X128215Y92181D01*
Y92532D01*
X134753Y99069D01*
X160138D01*
X160522Y99146D01*
X160847Y99363D01*
X170627Y109143D01*
X170844Y109468D01*
X170921Y109853D01*
Y112152D01*
X171169Y112400D01*
X171394Y112943D01*
Y113530D01*
X171169Y114073D01*
X170754Y114488D01*
X170211Y114713D01*
X170212Y114733D01*
X170221Y114755D01*
Y115061D01*
X170225Y115207D01*
X170239D01*
X170782Y115432D01*
X171197Y115847D01*
X171422Y116390D01*
Y116977D01*
X171197Y117519D01*
X170782Y117935D01*
X170239Y118160D01*
X169652D01*
X169109Y117935D01*
X168956Y117782D01*
X168587Y117592D01*
X168303Y117782D01*
X168110Y117975D01*
X167567Y118200D01*
X166980D01*
X166437Y117975D01*
X166022Y117560D01*
X165797Y117017D01*
Y116430D01*
X166022Y115887D01*
X166437Y115472D01*
X166980Y115247D01*
X167248D01*
X167267Y114755D01*
X166725Y114531D01*
X166309Y114115D01*
X166085Y113573D01*
Y112985D01*
X166309Y112443D01*
X166725Y112027D01*
X167267Y111802D01*
X167855D01*
X168397Y112027D01*
X168414Y112044D01*
X168914Y111837D01*
Y110268D01*
X159722Y101076D01*
X150165D01*
X149831Y101576D01*
X149901Y101748D01*
Y102335D01*
X149677Y102878D01*
X149261Y103293D01*
X148719Y103518D01*
X148132D01*
X147589Y103293D01*
X147174Y102878D01*
X146949Y102335D01*
Y101748D01*
X147020Y101576D01*
X146686Y101076D01*
X143151D01*
X142817Y101576D01*
X142913Y101810D01*
Y102397D01*
X142689Y102940D01*
X142273Y103355D01*
X141731Y103580D01*
X141143D01*
X140601Y103355D01*
X140185Y102940D01*
X139961Y102397D01*
Y101810D01*
X140057Y101576D01*
X139723Y101076D01*
X134337D01*
X133953Y101000D01*
X133628Y100783D01*
X126796Y93951D01*
X126445D01*
X125903Y93726D01*
X125655Y93478D01*
X110830D01*
X103506Y100802D01*
Y101153D01*
X103281Y101695D01*
X102866Y102110D01*
X102323Y102335D01*
X101736D01*
X101194Y102110D01*
X100778Y101695D01*
X100554Y101153D01*
Y100565D01*
X100778Y100022D01*
X101194Y99607D01*
X101736Y99383D01*
X102087D01*
X109365Y92104D01*
X109158Y91604D01*
X83668D01*
X83334Y92104D01*
X83366Y92181D01*
Y92768D01*
X83141Y93311D01*
X82726Y93726D01*
X82183Y93951D01*
X81596D01*
X81054Y93726D01*
X80638Y93311D01*
X80413Y92768D01*
Y92181D01*
X80445Y92104D01*
X80111Y91604D01*
X60478D01*
X60175Y91638D01*
X59930Y91724D01*
X59709Y91863D01*
X59526Y92046D01*
X59387Y92266D01*
X59302Y92512D01*
X59267Y92815D01*
Y97244D01*
X59259Y97289D01*
X59262Y97334D01*
X59213Y97772D01*
X59186Y97858D01*
X59173Y97947D01*
X59027Y98363D01*
X58982Y98441D01*
X58949Y98525D01*
X58715Y98899D01*
X58653Y98964D01*
X58603Y99039D01*
X58291Y99351D01*
X58216Y99401D01*
X58151Y99463D01*
X57921Y99607D01*
X57929Y99964D01*
X57949Y100091D01*
X57974Y100147D01*
X58192Y100293D01*
X59348Y101448D01*
X59938Y101331D01*
X60010Y101156D01*
X60426Y100741D01*
X60968Y100516D01*
X61555D01*
X61580Y100526D01*
X61961Y100271D01*
X62186Y99729D01*
X62601Y99313D01*
X62330Y98931D01*
X62243Y98843D01*
X62018Y98300D01*
Y97713D01*
X62243Y97170D01*
X62658Y96755D01*
X63200Y96530D01*
X63788D01*
X64330Y96755D01*
X64746Y97170D01*
X64970Y97713D01*
Y98300D01*
X64746Y98843D01*
X64330Y99258D01*
X64601Y99641D01*
X64689Y99729D01*
X64914Y100271D01*
Y100859D01*
X64689Y101401D01*
X64274Y101817D01*
X63731Y102041D01*
X63144D01*
X63119Y102031D01*
X62738Y102286D01*
X62513Y102829D01*
X62098Y103244D01*
X61923Y103316D01*
X61806Y103906D01*
X62282Y104383D01*
X80447D01*
X80781Y103883D01*
X80709Y103708D01*
Y103120D01*
X80933Y102578D01*
X81349Y102162D01*
X81891Y101937D01*
X82479D01*
X82850Y102092D01*
X83241Y101729D01*
X83169Y101555D01*
Y100968D01*
X83351Y100528D01*
X83219Y100023D01*
X83113Y99918D01*
X82764Y99643D01*
X82460Y99918D01*
X82332Y100045D01*
X81790Y100270D01*
X81202D01*
X80660Y100045D01*
X80244Y99630D01*
X80020Y99087D01*
Y98500D01*
X80244Y97957D01*
X80660Y97542D01*
X81202Y97317D01*
X81790D01*
X82332Y97542D01*
X82438Y97647D01*
X82787Y97922D01*
X83091Y97647D01*
X83219Y97520D01*
X83761Y97295D01*
X84349D01*
X84891Y97520D01*
X85307Y97935D01*
X85531Y98478D01*
Y99065D01*
X85349Y99505D01*
X85482Y100010D01*
X85897Y100425D01*
X86122Y100968D01*
Y101555D01*
X85897Y102098D01*
X85482Y102513D01*
X84939Y102738D01*
X84352D01*
X83980Y102584D01*
X83589Y102946D01*
X83661Y103120D01*
Y103708D01*
X83589Y103883D01*
X83923Y104383D01*
X85340D01*
X88347Y101375D01*
X88347Y101375D01*
X88608Y101201D01*
X88915Y101140D01*
X88915Y101140D01*
X91339D01*
X91646Y101201D01*
X91906Y101375D01*
X92493Y101962D01*
X92521Y101951D01*
X93109D01*
X93651Y102176D01*
X94067Y102591D01*
X94291Y103134D01*
Y103721D01*
X94067Y104264D01*
X93871Y104460D01*
X93787Y104902D01*
X93899Y105085D01*
X94191Y105377D01*
X94416Y105920D01*
Y106507D01*
X94191Y107050D01*
X93776Y107465D01*
X93234Y107690D01*
X92646D01*
X92460Y107612D01*
X90573Y109499D01*
X90373Y109633D01*
X87062Y112944D01*
X86801Y113118D01*
X86494Y113179D01*
X65056D01*
X64864Y113641D01*
X76412Y125188D01*
X121269D01*
X121603Y124688D01*
X121532Y124517D01*
Y123930D01*
X121757Y123387D01*
X122172Y122972D01*
X122236Y122945D01*
Y122404D01*
X122195Y122388D01*
X121780Y121972D01*
X121555Y121430D01*
Y120842D01*
X121780Y120300D01*
X122195Y119884D01*
X122738Y119660D01*
X123325D01*
X123868Y119884D01*
X124283Y120300D01*
X124508Y120842D01*
Y121430D01*
X124283Y121972D01*
X123868Y122388D01*
X123804Y122414D01*
Y122955D01*
X123845Y122972D01*
X124260Y123387D01*
X124485Y123930D01*
Y124517D01*
X124414Y124688D01*
X124748Y125188D01*
X133111D01*
X138878Y119422D01*
Y119071D01*
X139103Y118528D01*
X139518Y118113D01*
X140061Y117888D01*
X140648D01*
X141191Y118113D01*
X141606Y118528D01*
X141831Y119071D01*
Y119658D01*
X141606Y120201D01*
X141191Y120616D01*
X140648Y120841D01*
X140297D01*
X134236Y126901D01*
X133911Y127119D01*
X133527Y127195D01*
X131186D01*
X124311Y134071D01*
Y134422D01*
X124086Y134964D01*
X123671Y135380D01*
X123421Y135483D01*
X123379Y135749D01*
X123388Y136038D01*
X123756Y136406D01*
X123980Y136949D01*
Y137536D01*
X123756Y138079D01*
X123340Y138494D01*
X122798Y138719D01*
X122211D01*
X121668Y138494D01*
X121253Y138079D01*
X121028Y137536D01*
Y136949D01*
X121253Y136406D01*
X121668Y135991D01*
X121917Y135887D01*
X121960Y135622D01*
X121951Y135332D01*
X121583Y134964D01*
X121358Y134422D01*
Y133834D01*
X121583Y133292D01*
X121998Y132877D01*
X122541Y132652D01*
X122892D01*
X127886Y127657D01*
X127695Y127195D01*
X75996D01*
X75612Y127119D01*
X75287Y126901D01*
X73578Y125192D01*
X73078Y125400D01*
Y125465D01*
X72853Y126008D01*
X72438Y126423D01*
X71895Y126648D01*
X71308D01*
X70765Y126423D01*
X70350Y126008D01*
X70125Y125465D01*
Y124946D01*
X70067Y124819D01*
X69753Y124500D01*
X69371Y124491D01*
X69331D01*
X69328Y124490D01*
X69244Y124488D01*
X68885Y124847D01*
X68898Y124878D01*
Y125465D01*
X68673Y126008D01*
X68257Y126423D01*
X67715Y126648D01*
X67128D01*
X66585Y126423D01*
X66170Y126008D01*
X65945Y125465D01*
Y124878D01*
X66170Y124335D01*
X66585Y123920D01*
X67128Y123695D01*
X67715D01*
X67778Y123721D01*
X68161Y123338D01*
X68148Y123308D01*
Y123120D01*
X67980Y122698D01*
X67686Y122659D01*
X67377D01*
X66834Y122434D01*
X66419Y122018D01*
X66248Y121606D01*
X65748Y121706D01*
Y121823D01*
X65523Y122366D01*
X65108Y122781D01*
X64565Y123006D01*
X63978D01*
X63435Y122781D01*
X63020Y122366D01*
X62795Y121823D01*
Y121236D01*
X63020Y120693D01*
X63435Y120278D01*
X63978Y120053D01*
X64565D01*
X65108Y120278D01*
X65523Y120693D01*
X65694Y121106D01*
X66194Y121006D01*
Y120888D01*
X66419Y120346D01*
X66834Y119931D01*
X67377Y119706D01*
X67384D01*
X67591Y119206D01*
X63191Y114806D01*
X62691Y115013D01*
Y115297D01*
X62466Y115840D01*
X62051Y116255D01*
X61508Y116480D01*
X60921D01*
X60378Y116255D01*
X59963Y115840D01*
X59738Y115297D01*
Y114710D01*
X59963Y114167D01*
X60378Y113752D01*
X60921Y113527D01*
X61205D01*
X61412Y113027D01*
X55761Y107376D01*
X34567D01*
X34183Y107299D01*
X33857Y107082D01*
X11397Y84621D01*
X11179Y84295D01*
X11103Y83911D01*
Y54502D01*
X11179Y54118D01*
X11397Y53793D01*
X12254Y52935D01*
X12047Y52435D01*
X12009D01*
X11467Y52210D01*
X11051Y51795D01*
X10827Y51252D01*
Y50665D01*
X11051Y50122D01*
X11467Y49707D01*
X12009Y49482D01*
X12597D01*
X13139Y49707D01*
X13555Y50122D01*
X13780Y50665D01*
Y50703D01*
X14279Y50910D01*
X16418Y48772D01*
Y45702D01*
X15918Y45495D01*
X15698Y45714D01*
X15156Y45939D01*
X14569D01*
X14026Y45714D01*
X13611Y45299D01*
X13386Y44756D01*
Y44169D01*
X13611Y43626D01*
X14026Y43211D01*
X14569Y42986D01*
X15156D01*
X15698Y43211D01*
X15918Y43430D01*
X16418Y43223D01*
Y33461D01*
X12951Y29994D01*
X12600D01*
X12057Y29769D01*
X11642Y29354D01*
X11417Y28811D01*
Y28224D01*
X11642Y27681D01*
X12057Y27266D01*
X12600Y27042D01*
X13187D01*
X13730Y27266D01*
X14145Y27681D01*
X14370Y28224D01*
Y28575D01*
X18131Y32336D01*
X18348Y32661D01*
X18425Y33045D01*
Y49187D01*
X18348Y49571D01*
X18131Y49897D01*
X13110Y54918D01*
Y69400D01*
X13610Y69734D01*
X13789Y69660D01*
X14376D01*
X14919Y69884D01*
X15334Y70300D01*
X15559Y70842D01*
Y71430D01*
X15334Y71972D01*
X14919Y72387D01*
X14376Y72612D01*
X13789D01*
X13610Y72538D01*
X13110Y72872D01*
Y83496D01*
X28657Y99042D01*
X29118Y98851D01*
Y86626D01*
X25524Y83031D01*
X25490Y83045D01*
X24903D01*
X24361Y82821D01*
X23945Y82405D01*
X23720Y81863D01*
Y81275D01*
X23945Y80733D01*
X24361Y80317D01*
X24903Y80093D01*
X25172D01*
X25548Y79826D01*
X25591Y79631D01*
Y79208D01*
X25815Y78666D01*
X26231Y78250D01*
X26773Y78026D01*
X27131D01*
X27235Y77925D01*
X27437Y77558D01*
X27264Y77138D01*
Y76551D01*
X27488Y76008D01*
X27904Y75593D01*
X28446Y75368D01*
X29034D01*
X29576Y75593D01*
X29992Y76008D01*
X30217Y76551D01*
Y77138D01*
X30203Y77172D01*
X32457Y79426D01*
X32957Y79219D01*
Y78321D01*
X32777D01*
X32235Y78096D01*
X31819Y77681D01*
X31594Y77138D01*
Y76551D01*
X31819Y76008D01*
X32235Y75593D01*
X32777Y75368D01*
X33364D01*
X33737Y75522D01*
X34237Y75269D01*
Y72630D01*
X34202Y72326D01*
X34117Y72081D01*
X33978Y71861D01*
X33795Y71677D01*
X33575Y71539D01*
X33329Y71453D01*
X33026Y71419D01*
X21260D01*
X21215Y71410D01*
X21170Y71414D01*
X20732Y71364D01*
X20646Y71337D01*
X20557Y71324D01*
X20141Y71179D01*
X20063Y71133D01*
X19979Y71101D01*
X19605Y70866D01*
X19540Y70805D01*
X19465Y70754D01*
X19153Y70443D01*
X19103Y70368D01*
X19041Y70302D01*
X18807Y69929D01*
X18774Y69845D01*
X18729Y69767D01*
X18583Y69351D01*
X18570Y69261D01*
X18543Y69176D01*
X18494Y68738D01*
X18497Y68692D01*
X18489Y68648D01*
Y51348D01*
X18497Y51303D01*
X18494Y51258D01*
X18543Y50820D01*
X18570Y50734D01*
X18583Y50645D01*
X18729Y50229D01*
X18774Y50151D01*
X18807Y50067D01*
X19041Y49694D01*
X19103Y49628D01*
X19153Y49553D01*
X19465Y49241D01*
X19540Y49191D01*
X19605Y49129D01*
X19979Y48895D01*
X20063Y48862D01*
X20141Y48817D01*
X20557Y48671D01*
X20646Y48658D01*
X20732Y48631D01*
X21170Y48582D01*
X21215Y48586D01*
X21260Y48577D01*
X33026D01*
X33329Y48543D01*
X33575Y48457D01*
X33795Y48318D01*
X33978Y48135D01*
X34117Y47915D01*
X34202Y47669D01*
X34237Y47366D01*
Y28841D01*
X33746Y28744D01*
X33548Y29223D01*
X32492Y30802D01*
X31149Y32146D01*
X29569Y33202D01*
X27814Y33929D01*
X25950Y34299D01*
X24050D01*
X22186Y33929D01*
X20431Y33202D01*
X18851Y32146D01*
X17508Y30802D01*
X16452Y29223D01*
X15725Y27467D01*
X15354Y25604D01*
Y23704D01*
X15725Y21840D01*
X16452Y20085D01*
X17508Y18505D01*
X18851Y17161D01*
X20431Y16106D01*
X20951Y15890D01*
X20879Y15379D01*
X20732Y15363D01*
X20646Y15335D01*
X20557Y15323D01*
X20141Y15177D01*
X20063Y15131D01*
X19979Y15099D01*
X19605Y14865D01*
X19540Y14803D01*
X19465Y14752D01*
X19153Y14441D01*
X19103Y14366D01*
X19041Y14300D01*
X18807Y13927D01*
X18774Y13843D01*
X18729Y13765D01*
X18583Y13349D01*
X18570Y13260D01*
X18543Y13174D01*
X18494Y12736D01*
X18497Y12690D01*
X18489Y12646D01*
Y2014D01*
X18454Y1710D01*
X18369Y1465D01*
X18230Y1245D01*
X18046Y1061D01*
X17826Y923D01*
X17581Y837D01*
X17278Y803D01*
X2014D01*
X1710Y837D01*
X1465Y923D01*
X1245Y1061D01*
X1061Y1245D01*
X923Y1465D01*
X837Y1710D01*
X803Y2014D01*
Y100511D01*
X1303Y100718D01*
X1409Y100611D01*
X1952Y100386D01*
X2539D01*
X3082Y100611D01*
X3497Y101026D01*
X3722Y101569D01*
Y102156D01*
X3497Y102699D01*
X3082Y103114D01*
X2539Y103339D01*
X1952D01*
X1409Y103114D01*
X1303Y103008D01*
X803Y103215D01*
Y107955D01*
X1303Y108162D01*
X1428Y108037D01*
X1970Y107812D01*
X2557D01*
X3100Y108037D01*
X3515Y108452D01*
X3740Y108995D01*
Y109582D01*
X3515Y110125D01*
X3100Y110540D01*
X2557Y110765D01*
X1970D01*
X1428Y110540D01*
X1303Y110416D01*
X803Y110623D01*
Y143978D01*
X1293Y144195D01*
X1836Y143971D01*
X2423D01*
X2965Y144195D01*
X3381Y144611D01*
X3605Y145153D01*
Y145741D01*
X3381Y146283D01*
X2965Y146699D01*
X2583Y146857D01*
X2551Y147385D01*
X2929Y147542D01*
X3345Y147957D01*
X3569Y148500D01*
Y149087D01*
X3345Y149630D01*
X2929Y150045D01*
X2387Y150270D01*
X1799D01*
X1303Y150064D01*
X1075Y150146D01*
X803Y150298D01*
Y190921D01*
X1303Y191021D01*
X1406Y190772D01*
X1821Y190357D01*
X2364Y190132D01*
X2951D01*
X3494Y190357D01*
X3909Y190772D01*
X4134Y191315D01*
Y191902D01*
X3909Y192445D01*
X3494Y192860D01*
X2951Y193085D01*
X2364D01*
X1821Y192860D01*
X1406Y192445D01*
X1303Y192196D01*
X803Y192295D01*
Y230022D01*
X837Y230325D01*
X923Y230571D01*
X1061Y230791D01*
X1245Y230975D01*
X1465Y231113D01*
X1710Y231199D01*
X2014Y231233D01*
X33026D01*
X33329Y231199D01*
X33575Y231113D01*
X33795Y230975D01*
X33978Y230791D01*
X34117Y230571D01*
X34202Y230326D01*
X34237Y230022D01*
Y214454D01*
X33746Y214356D01*
X33548Y214835D01*
X32492Y216415D01*
X31149Y217758D01*
X29569Y218814D01*
X27814Y219541D01*
X25950Y219912D01*
X24050D01*
X22186Y219541D01*
X20431Y218814D01*
X18851Y217758D01*
X17508Y216415D01*
X16452Y214835D01*
X15725Y213080D01*
X15354Y211216D01*
Y209316D01*
X15725Y207453D01*
X16452Y205697D01*
X17508Y204117D01*
X18851Y202774D01*
X20431Y201718D01*
X22186Y200991D01*
X24050Y200620D01*
X25950D01*
X27814Y200991D01*
X29569Y201718D01*
X31149Y202774D01*
X32492Y204117D01*
X33548Y205697D01*
X33746Y206176D01*
X34237Y206078D01*
Y193084D01*
X34176Y193047D01*
X33737Y192930D01*
X33415Y193252D01*
X32872Y193477D01*
X32285D01*
X31742Y193252D01*
X31327Y192837D01*
X31102Y192294D01*
Y191707D01*
X31327Y191164D01*
X31742Y190749D01*
X32285Y190524D01*
X32872D01*
X33415Y190749D01*
X33737Y191070D01*
X34176Y190954D01*
X34237Y190917D01*
Y151077D01*
X34245Y151032D01*
X34242Y150987D01*
X34291Y150549D01*
X34318Y150463D01*
X34331Y150373D01*
X34477Y149958D01*
X34522Y149880D01*
X34555Y149796D01*
X34789Y149422D01*
X34851Y149357D01*
X34901Y149282D01*
X35213Y148970D01*
X35288Y148920D01*
X35353Y148858D01*
X35727Y148624D01*
X35811Y148591D01*
X35889Y148545D01*
X36305Y148400D01*
X36394Y148387D01*
X36480Y148360D01*
X36918Y148310D01*
X36963Y148314D01*
X37008Y148305D01*
X67611D01*
X67945Y147806D01*
X67913Y147729D01*
Y147141D01*
X68138Y146599D01*
X68554Y146184D01*
X69096Y145959D01*
X69683D01*
X70226Y146184D01*
X70641Y146599D01*
X70866Y147141D01*
Y147729D01*
X70834Y147806D01*
X71168Y148305D01*
X78667D01*
X79001Y147806D01*
X78970Y147729D01*
Y147141D01*
X79194Y146599D01*
X79610Y146184D01*
X80152Y145959D01*
X80740D01*
X81282Y146184D01*
X81698Y146599D01*
X81922Y147141D01*
Y147729D01*
X81891Y147806D01*
X82225Y148305D01*
X154367D01*
X154701Y147806D01*
X154629Y147630D01*
Y147043D01*
X154853Y146500D01*
X155269Y146085D01*
X155811Y145860D01*
X156399D01*
X156631Y145956D01*
X156740Y146002D01*
X157024Y145578D01*
X156933Y145488D01*
X156721Y145275D01*
X156496Y144732D01*
Y144145D01*
X156721Y143603D01*
X157136Y143187D01*
X157679Y142963D01*
X158266D01*
X158809Y143187D01*
X159224Y143603D01*
X159449Y144145D01*
Y144732D01*
X159224Y145275D01*
X158809Y145691D01*
X158266Y145915D01*
X157679D01*
X157447Y145819D01*
X157337Y145774D01*
X157054Y146198D01*
X157144Y146288D01*
X157357Y146500D01*
X157581Y147043D01*
Y147630D01*
X157509Y147806D01*
X157843Y148305D01*
X160388D01*
X160691Y148271D01*
X160937Y148186D01*
X161157Y148047D01*
X161340Y147863D01*
X161479Y147643D01*
X161565Y147398D01*
X161599Y147095D01*
Y142666D01*
X161608Y142621D01*
X161604Y142576D01*
X161653Y142138D01*
X161681Y142052D01*
X161693Y141963D01*
X161839Y141546D01*
X161885Y141469D01*
X161917Y141384D01*
X162151Y141011D01*
X162213Y140946D01*
X162263Y140871D01*
X162575Y140559D01*
X162650Y140509D01*
X162716Y140447D01*
X163089Y140212D01*
X163173Y140180D01*
X163251Y140134D01*
X163667Y139989D01*
X163756Y139976D01*
X163842Y139949D01*
X164280Y139899D01*
X164325Y139903D01*
X164370Y139894D01*
X185827D01*
X185871Y139903D01*
X185917Y139899D01*
X186355Y139949D01*
X186441Y139976D01*
X186530Y139989D01*
X186946Y140134D01*
X187024Y140180D01*
X187108Y140212D01*
X187481Y140447D01*
X187547Y140509D01*
X187622Y140559D01*
X187934Y140871D01*
X187984Y140946D01*
X188046Y141011D01*
X188280Y141384D01*
X188312Y141469D01*
X188358Y141546D01*
X188504Y141963D01*
X188516Y142052D01*
X188544Y142138D01*
X188593Y142576D01*
X188589Y142621D01*
X188598Y142666D01*
Y167280D01*
X188632Y167583D01*
X188718Y167829D01*
X188856Y168049D01*
X189040Y168233D01*
X189260Y168371D01*
X189506Y168457D01*
X189809Y168491D01*
X198713D01*
X199048Y167991D01*
X199016Y167914D01*
Y167327D01*
X199241Y166784D01*
X199656Y166369D01*
X200198Y166144D01*
X200786D01*
X201328Y166369D01*
X201744Y166784D01*
X201969Y167327D01*
Y167914D01*
X201924Y168022D01*
X202021Y168305D01*
X202169Y168541D01*
X202234Y168579D01*
X202278Y168585D01*
X202694Y168731D01*
X202772Y168777D01*
X202856Y168809D01*
X203229Y169043D01*
X203295Y169105D01*
X203370Y169156D01*
X203681Y169467D01*
X203732Y169542D01*
X203794Y169608D01*
X204028Y169981D01*
X204060Y170065D01*
X204106Y170143D01*
X204252Y170559D01*
X204264Y170648D01*
X204292Y170734D01*
X204341Y171172D01*
X204337Y171218D01*
X204346Y171262D01*
Y188562D01*
X204337Y188606D01*
X204341Y188652D01*
X204292Y189090D01*
X204264Y189176D01*
X204252Y189265D01*
X204106Y189681D01*
X204060Y189759D01*
X204028Y189843D01*
X203794Y190216D01*
X203732Y190282D01*
X203681Y190357D01*
X203370Y190668D01*
X203295Y190719D01*
X203229Y190781D01*
X202856Y191015D01*
X202772Y191047D01*
X202694Y191093D01*
X202278Y191239D01*
X202189Y191251D01*
X202103Y191279D01*
X201665Y191328D01*
X201619Y191324D01*
X201575Y191333D01*
X189809D01*
X189506Y191367D01*
X189260Y191453D01*
X189040Y191591D01*
X188856Y191775D01*
X188718Y191995D01*
X188632Y192241D01*
X188598Y192544D01*
Y222101D01*
X188632Y222404D01*
X188718Y222649D01*
X188856Y222869D01*
X189040Y223053D01*
X189260Y223191D01*
X189506Y223277D01*
X189809Y223312D01*
X201575D01*
X201619Y223320D01*
X201665Y223317D01*
X202103Y223366D01*
X202189Y223393D01*
X202278Y223406D01*
X202694Y223552D01*
X202772Y223597D01*
X202856Y223630D01*
X203229Y223864D01*
X203295Y223926D01*
X203370Y223976D01*
X203681Y224288D01*
X203732Y224363D01*
X203794Y224428D01*
X204028Y224802D01*
X204060Y224886D01*
X204106Y224964D01*
X204252Y225380D01*
X204264Y225469D01*
X204292Y225555D01*
X204341Y225993D01*
X204337Y226038D01*
X204346Y226083D01*
Y230022D01*
X204380Y230325D01*
X204466Y230571D01*
X204604Y230791D01*
X204788Y230975D01*
X205008Y231113D01*
X205254Y231199D01*
X205557Y231233D01*
X220821D01*
X221125Y231199D01*
D02*
G37*
G36*
X180497Y160575D02*
Y160027D01*
X180484Y159914D01*
X180401Y159449D01*
X180401D01*
X180413Y158954D01*
X180341Y158667D01*
X180341D01*
X180206Y158214D01*
X180199Y158195D01*
X180006Y157821D01*
X179993Y157799D01*
X179878Y157645D01*
X179815Y157638D01*
X179807Y157635D01*
X179729Y157446D01*
X179557Y157262D01*
X179373Y157090D01*
X179184Y157012D01*
X179181Y157004D01*
X179174Y156941D01*
X179020Y156826D01*
X178670Y156644D01*
X178624Y156620D01*
X178474Y156561D01*
X178153Y156477D01*
X178152Y156478D01*
X178149Y156476D01*
X177993Y156412D01*
X177846Y156389D01*
X177370Y156418D01*
Y156418D01*
X176893Y156335D01*
X176776Y156322D01*
X176245D01*
X176051Y156790D01*
X176057Y156822D01*
X177613Y157862D01*
X178957Y159205D01*
X179997Y160762D01*
X180029Y160768D01*
X180497Y160575D01*
D02*
G37*
G36*
X62932Y160762D02*
X63972Y159205D01*
X65316Y157862D01*
X66872Y156822D01*
X66878Y156790D01*
X66684Y156322D01*
X66153D01*
X66025Y156336D01*
X65559Y156418D01*
Y156418D01*
X65110Y156393D01*
X64777Y156478D01*
X64777Y156478D01*
X64324Y156612D01*
X64305Y156620D01*
X63932Y156812D01*
X63910Y156826D01*
X63755Y156941D01*
X63748Y157004D01*
X63745Y157012D01*
X63556Y157090D01*
X63372Y157262D01*
X63200Y157446D01*
X63122Y157635D01*
X63114Y157638D01*
X63051Y157645D01*
X62937Y157799D01*
X62754Y158149D01*
X62730Y158195D01*
X62670Y158349D01*
X62588Y158666D01*
X62588Y158667D01*
X62587Y158670D01*
X62516Y158954D01*
X62528Y159449D01*
X62528D01*
X62445Y159914D01*
X62432Y160027D01*
Y160575D01*
X62900Y160768D01*
X62932Y160762D01*
D02*
G37*
G36*
X83535Y109039D02*
X83355Y108427D01*
X83317Y108411D01*
X82902Y107996D01*
X82677Y107453D01*
Y106866D01*
X82833Y106488D01*
X82583Y105988D01*
X77554D01*
X77304Y106488D01*
X77461Y106866D01*
Y107453D01*
X77236Y107996D01*
X76820Y108411D01*
X76278Y108636D01*
X75691D01*
X75148Y108411D01*
X74733Y107996D01*
X74508Y107453D01*
Y106866D01*
X74664Y106488D01*
X74414Y105988D01*
X62871D01*
X62679Y106450D01*
X65440Y109211D01*
X83415D01*
X83535Y109039D01*
D02*
G37*
G36*
X91463Y106246D02*
Y105920D01*
X91688Y105377D01*
X91884Y105181D01*
X91967Y104739D01*
X91856Y104556D01*
X91563Y104264D01*
X91339Y103721D01*
Y103134D01*
X91355Y103095D01*
X91006Y102746D01*
X89248D01*
X86810Y105183D01*
X87006Y105683D01*
X87549Y105908D01*
X87665Y106025D01*
X87992Y106300D01*
X88319Y106025D01*
X88435Y105908D01*
X88978Y105683D01*
X89565D01*
X90108Y105908D01*
X90523Y106323D01*
X90596Y106498D01*
X91069Y106593D01*
X91463Y106246D01*
D02*
G37*
G36*
X46886Y82907D02*
X46880Y82875D01*
X45324Y81835D01*
X43980Y80491D01*
X42940Y78935D01*
X42908Y78929D01*
X42440Y79122D01*
Y79670D01*
X42453Y79782D01*
X42536Y80248D01*
X42536D01*
X42524Y80742D01*
X42596Y81030D01*
X42596D01*
X42731Y81483D01*
X42738Y81502D01*
X42931Y81876D01*
X42944Y81897D01*
X43059Y82052D01*
X43122Y82059D01*
X43130Y82062D01*
X43208Y82251D01*
X43380Y82435D01*
X43564Y82607D01*
X43753Y82685D01*
X43756Y82693D01*
X43763Y82756D01*
X43917Y82871D01*
X44267Y83053D01*
X44313Y83077D01*
X44463Y83136D01*
X44784Y83219D01*
X44785Y83219D01*
X44788Y83220D01*
X44944Y83285D01*
X45091Y83308D01*
X45567Y83279D01*
Y83279D01*
X46044Y83362D01*
X46161Y83375D01*
X46692D01*
X46886Y82907D01*
D02*
G37*
G36*
X156912Y83360D02*
X157378Y83279D01*
Y83279D01*
X157827Y83304D01*
X158160Y83219D01*
X158160Y83219D01*
X158613Y83084D01*
X158632Y83077D01*
X159005Y82884D01*
X159027Y82871D01*
X159182Y82756D01*
X159189Y82693D01*
X159192Y82685D01*
X159381Y82607D01*
X159565Y82435D01*
X159737Y82251D01*
X159815Y82062D01*
X159823Y82059D01*
X159886Y82052D01*
X160001Y81898D01*
X160183Y81548D01*
X160207Y81502D01*
X160267Y81348D01*
X160349Y81031D01*
X160349Y81030D01*
X160350Y81027D01*
X160421Y80743D01*
X160409Y80248D01*
X160409D01*
X160492Y79782D01*
X160504Y79670D01*
Y79122D01*
X160037Y78929D01*
X160004Y78935D01*
X158965Y80491D01*
X157621Y81835D01*
X156065Y82875D01*
X156059Y82907D01*
X156253Y83375D01*
X156784D01*
X156912Y83360D01*
D02*
G37*
G36*
X146886Y82907D02*
X146880Y82875D01*
X145324Y81835D01*
X143980Y80491D01*
X142925Y78912D01*
X142198Y77156D01*
X141827Y75293D01*
Y73392D01*
X142198Y71529D01*
X142925Y69774D01*
X143980Y68194D01*
X145324Y66850D01*
X146904Y65795D01*
X148659Y65068D01*
X150522Y64697D01*
X152422D01*
X154286Y65068D01*
X156041Y65795D01*
X157621Y66850D01*
X158965Y68194D01*
X160004Y69750D01*
X160037Y69756D01*
X160504Y69563D01*
Y13897D01*
X160492Y13784D01*
X160409Y13319D01*
X160409D01*
X160421Y12824D01*
X160349Y12537D01*
X160349D01*
X160214Y12084D01*
X160207Y12065D01*
X160183Y12019D01*
X160001Y11669D01*
X159886Y11515D01*
X159823Y11508D01*
X159815Y11505D01*
X159737Y11316D01*
X159565Y11132D01*
X159381Y10960D01*
X159192Y10882D01*
X159189Y10874D01*
X159182Y10811D01*
X159027Y10696D01*
X159005Y10683D01*
X158632Y10490D01*
X158482Y10431D01*
X158161Y10348D01*
X158160Y10348D01*
X158156Y10346D01*
X158001Y10282D01*
X157854Y10259D01*
X157378Y10288D01*
Y10288D01*
X156901Y10205D01*
X156784Y10192D01*
X62496D01*
X62289Y10692D01*
X62505Y10909D01*
X62730Y11451D01*
Y12038D01*
X62505Y12581D01*
X62090Y12996D01*
X61547Y13221D01*
X60960D01*
X60417Y12996D01*
X60002Y12581D01*
X59777Y12038D01*
Y11451D01*
X60002Y10909D01*
X60218Y10692D01*
X60011Y10192D01*
X46161D01*
X46033Y10207D01*
X45567Y10288D01*
X45567Y10288D01*
Y10288D01*
X45118Y10263D01*
X44785Y10348D01*
X44785Y10348D01*
X44332Y10483D01*
X44313Y10490D01*
X44267Y10514D01*
X43917Y10696D01*
X43763Y10811D01*
X43756Y10874D01*
X43753Y10882D01*
X43564Y10960D01*
X43380Y11132D01*
X43208Y11316D01*
X43130Y11505D01*
X43122Y11508D01*
X43059Y11515D01*
X42944Y11670D01*
X42931Y11691D01*
X42738Y12065D01*
X42677Y12219D01*
X42596Y12536D01*
X42596Y12537D01*
X42595Y12540D01*
X42524Y12824D01*
X42536Y13319D01*
X42536D01*
X42453Y13784D01*
X42440Y13897D01*
Y56358D01*
X42940Y56565D01*
X42951Y56555D01*
X43494Y56330D01*
X44081D01*
X44624Y56555D01*
X45039Y56970D01*
X45264Y57513D01*
Y58100D01*
X45039Y58643D01*
X44624Y59058D01*
X44081Y59283D01*
X43494D01*
X42951Y59058D01*
X42940Y59047D01*
X42440Y59254D01*
Y69563D01*
X42908Y69756D01*
X42940Y69750D01*
X43980Y68194D01*
X45324Y66850D01*
X46903Y65795D01*
X48659Y65068D01*
X50522Y64697D01*
X52422D01*
X54286Y65068D01*
X56041Y65795D01*
X57621Y66850D01*
X58965Y68194D01*
X60020Y69774D01*
X60747Y71529D01*
X61118Y73392D01*
Y75293D01*
X60747Y77156D01*
X60020Y78912D01*
X58965Y80491D01*
X57621Y81835D01*
X56065Y82875D01*
X56059Y82907D01*
X56253Y83375D01*
X146692D01*
X146886Y82907D01*
D02*
G37*
G36*
X199580Y81609D02*
X199341Y803D01*
X189809D01*
X189506Y837D01*
X189260Y923D01*
X189040Y1061D01*
X188856Y1245D01*
X188718Y1465D01*
X188632Y1710D01*
X188598Y2014D01*
Y81963D01*
X199227D01*
X199580Y81609D01*
D02*
G37*
%LPC*%
G36*
X72750Y223291D02*
X72163D01*
X71620Y223067D01*
X71423Y222869D01*
X71226Y223067D01*
X70683Y223291D01*
X70096D01*
X69554Y223067D01*
X69138Y222651D01*
X68913Y222109D01*
Y221521D01*
X69138Y220979D01*
X69331Y220785D01*
X69136Y220590D01*
X68911Y220047D01*
Y219460D01*
X69136Y218917D01*
X69335Y218718D01*
X69122Y218505D01*
X68897Y217962D01*
Y217375D01*
X69122Y216832D01*
X69537Y216417D01*
X70080Y216192D01*
X70667D01*
X71210Y216417D01*
X71407Y216614D01*
X71604Y216417D01*
X72146Y216192D01*
X72734D01*
X73277Y216417D01*
X73692Y216832D01*
X73868Y217257D01*
X74033Y217189D01*
X74620D01*
X75163Y217414D01*
X75177Y217427D01*
X75418Y217379D01*
X75833Y216964D01*
X76376Y216739D01*
X76963D01*
X77506Y216964D01*
X77921Y217379D01*
X78101Y217813D01*
X78203Y217829D01*
X78608Y217797D01*
X78797Y217340D01*
X79212Y216925D01*
X79755Y216700D01*
X80342D01*
X80885Y216925D01*
X81300Y217340D01*
X81525Y217883D01*
Y218470D01*
X81300Y219013D01*
X80885Y219428D01*
X80467Y219601D01*
X80465Y219613D01*
X80690Y220155D01*
Y220742D01*
X80465Y221285D01*
X80050Y221700D01*
X79507Y221925D01*
X78920D01*
X78377Y221700D01*
X78106Y221430D01*
X78030Y221506D01*
X77487Y221731D01*
X76900D01*
X76357Y221506D01*
X76236Y221385D01*
X75647Y221502D01*
X75578Y221667D01*
X75163Y222082D01*
X74620Y222307D01*
X74033D01*
X73878Y222243D01*
X73708Y222651D01*
X73293Y223067D01*
X72750Y223291D01*
D02*
G37*
G36*
X178459Y224735D02*
X177872D01*
X177329Y224510D01*
X176914Y224095D01*
X176689Y223552D01*
Y222965D01*
X176914Y222422D01*
X177329Y222007D01*
X177872Y221782D01*
X178459D01*
X179002Y222007D01*
X179417Y222422D01*
X179642Y222965D01*
Y223552D01*
X179417Y224095D01*
X179002Y224510D01*
X178459Y224735D01*
D02*
G37*
G36*
X139386Y223620D02*
X93224D01*
X92722Y223520D01*
X92296Y223235D01*
X87665Y218604D01*
X87270Y218441D01*
X86855Y218025D01*
X86630Y217483D01*
Y216895D01*
X86855Y216353D01*
X87270Y215937D01*
X87813Y215713D01*
X88400D01*
X88943Y215937D01*
X89358Y216353D01*
X89522Y216748D01*
X93768Y220994D01*
X138842D01*
X140037Y219799D01*
X140201Y219404D01*
X140617Y218988D01*
X141159Y218764D01*
X141746D01*
X142289Y218988D01*
X142704Y219404D01*
X142929Y219947D01*
Y220534D01*
X142704Y221076D01*
X142289Y221492D01*
X141894Y221656D01*
X140314Y223235D01*
X139888Y223520D01*
X139386Y223620D01*
D02*
G37*
G36*
X159925Y220458D02*
X159338D01*
X158795Y220233D01*
X158380Y219818D01*
X158155Y219275D01*
Y218688D01*
X158321Y218288D01*
X157897Y218005D01*
X156972Y218929D01*
X156547Y219214D01*
X156044Y219314D01*
X152796D01*
X152294Y219214D01*
X151868Y218929D01*
X150559Y217620D01*
X150164Y217456D01*
X149748Y217041D01*
X149524Y216498D01*
Y215911D01*
X149748Y215368D01*
X150164Y214953D01*
X150706Y214728D01*
X151294D01*
X151836Y214953D01*
X152252Y215368D01*
X152415Y215764D01*
X152992Y216341D01*
X153208Y216319D01*
X153668Y216122D01*
Y215534D01*
X153893Y214992D01*
X154308Y214576D01*
X154703Y214412D01*
X162839Y206276D01*
X163265Y205992D01*
X163768Y205892D01*
X165344D01*
X166014Y205222D01*
X166175Y204981D01*
X168412Y202744D01*
Y199960D01*
X168202Y199455D01*
Y198868D01*
X168365Y198475D01*
X168177Y198271D01*
X167962Y198142D01*
X167489Y198338D01*
X166901D01*
X166359Y198113D01*
X165943Y197698D01*
X165718Y197155D01*
Y196568D01*
X165943Y196025D01*
X166359Y195610D01*
X166338Y195259D01*
X165873Y195295D01*
X165834Y195387D01*
X165419Y195803D01*
X164876Y196028D01*
X164289D01*
X163746Y195803D01*
X163331Y195387D01*
X163106Y194845D01*
Y194257D01*
X163331Y193715D01*
X163746Y193300D01*
X164142Y193136D01*
X164540Y192737D01*
X164966Y192453D01*
X165469Y192353D01*
X167256D01*
X167758Y192453D01*
X168184Y192737D01*
X172780Y197333D01*
X173065Y197759D01*
X173165Y198261D01*
Y203719D01*
X173065Y204221D01*
X172780Y204647D01*
X167578Y209849D01*
X167152Y210134D01*
X166650Y210234D01*
X165668D01*
X158655Y217247D01*
X158938Y217671D01*
X159338Y217505D01*
X159925D01*
X160468Y217730D01*
X160883Y218145D01*
X161108Y218688D01*
Y219275D01*
X160883Y219818D01*
X160468Y220233D01*
X159925Y220458D01*
D02*
G37*
G36*
X178428Y220173D02*
X177841D01*
X177298Y219948D01*
X176883Y219533D01*
X176658Y218990D01*
Y218403D01*
X176883Y217860D01*
X177298Y217445D01*
X177841Y217220D01*
X178428D01*
X178971Y217445D01*
X179386Y217860D01*
X179611Y218403D01*
Y218990D01*
X179386Y219533D01*
X178971Y219948D01*
X178428Y220173D01*
D02*
G37*
G36*
X135054Y216992D02*
X134466D01*
X133924Y216767D01*
X133508Y216352D01*
X133283Y215809D01*
Y215222D01*
X133508Y214680D01*
X133924Y214264D01*
X134466Y214039D01*
X135054D01*
X135596Y214264D01*
X136011Y214680D01*
X136236Y215222D01*
Y215809D01*
X136011Y216352D01*
X135596Y216767D01*
X135054Y216992D01*
D02*
G37*
G36*
X76934Y214813D02*
X76346D01*
X75804Y214588D01*
X75389Y214173D01*
X75164Y213630D01*
Y213043D01*
X75389Y212500D01*
X75804Y212085D01*
X76346Y211860D01*
X76934D01*
X77477Y212085D01*
X77795Y212404D01*
X78251Y212388D01*
X78356Y212355D01*
X78772Y211940D01*
X79315Y211715D01*
X79902D01*
X80444Y211940D01*
X80860Y212355D01*
X81085Y212898D01*
Y213485D01*
X80860Y214028D01*
X80444Y214443D01*
X79902Y214668D01*
X79315D01*
X78772Y214443D01*
X78453Y214124D01*
X77998Y214140D01*
X77892Y214173D01*
X77477Y214588D01*
X76934Y214813D01*
D02*
G37*
G36*
X166943Y213941D02*
X166356D01*
X165813Y213716D01*
X165398Y213301D01*
X165173Y212758D01*
Y212171D01*
X165398Y211628D01*
X165813Y211213D01*
X166356Y210988D01*
X166943D01*
X167486Y211213D01*
X167901Y211628D01*
X168126Y212171D01*
Y212758D01*
X167901Y213301D01*
X167486Y213716D01*
X166943Y213941D01*
D02*
G37*
G36*
X114209Y206173D02*
X113621D01*
X113079Y205948D01*
X112663Y205533D01*
X112438Y204991D01*
Y204403D01*
X112663Y203860D01*
X113079Y203445D01*
X113621Y203221D01*
X113541Y202754D01*
X94571D01*
X93959Y203366D01*
X93795Y203762D01*
X93380Y204177D01*
X92837Y204402D01*
X92250D01*
X91707Y204177D01*
X91292Y203762D01*
X91067Y203219D01*
Y202631D01*
X91292Y202089D01*
X91707Y201674D01*
X92102Y201510D01*
X92162Y201450D01*
X91983Y200922D01*
X91601Y200763D01*
X91185Y200348D01*
X90961Y199805D01*
Y199218D01*
X91185Y198676D01*
X91601Y198260D01*
X92143Y198035D01*
X92731D01*
X93273Y198260D01*
X93689Y198676D01*
X93913Y199218D01*
Y199641D01*
X93961Y199843D01*
X94321Y200128D01*
X112014D01*
X112330Y199628D01*
X112221Y199363D01*
Y198776D01*
X112445Y198233D01*
X112861Y197818D01*
X113403Y197593D01*
X113990D01*
X114533Y197818D01*
X114948Y198233D01*
X115173Y198776D01*
Y199363D01*
X115063Y199628D01*
X115379Y200128D01*
X117043D01*
X117546Y200228D01*
X117972Y200513D01*
X119949Y202490D01*
X121759D01*
X121966Y201991D01*
X121845Y201870D01*
X121704Y201528D01*
X115491Y195316D01*
X115369Y195133D01*
X115010Y195144D01*
X114852Y195190D01*
X114644Y195692D01*
X114229Y196107D01*
X113686Y196332D01*
X113099D01*
X112556Y196107D01*
X112141Y195692D01*
X111916Y195149D01*
Y194562D01*
X112141Y194019D01*
X112556Y193604D01*
X113099Y193379D01*
X113686D01*
X114229Y193604D01*
X114644Y194019D01*
X114756Y194290D01*
X115256Y194190D01*
Y192487D01*
X115278Y192375D01*
X115288Y192261D01*
X115309Y192222D01*
X115317Y192179D01*
X115381Y192085D01*
X115433Y191983D01*
X115467Y191955D01*
X115491Y191919D01*
X115586Y191856D01*
X115673Y191782D01*
X115956Y191628D01*
X115990Y191554D01*
X115876Y191278D01*
Y190691D01*
X116101Y190148D01*
X116329Y189920D01*
X116087Y189679D01*
X115862Y189136D01*
Y188549D01*
X116087Y188006D01*
X116337Y187757D01*
X116134Y187554D01*
X115909Y187011D01*
Y186424D01*
X116134Y185881D01*
X116308Y185707D01*
X116096Y185495D01*
X115871Y184953D01*
Y184365D01*
X116096Y183823D01*
X116242Y183677D01*
X115989Y183424D01*
X115764Y182881D01*
Y182294D01*
X115989Y181752D01*
X116404Y181336D01*
X116946Y181111D01*
X117534D01*
X118076Y181336D01*
X118229Y181489D01*
X118394Y181324D01*
X118937Y181099D01*
X119524D01*
X120067Y181324D01*
X120266Y181523D01*
X120453Y181336D01*
X120995Y181111D01*
X121583D01*
X122125Y181336D01*
X122381Y181592D01*
X122562Y181412D01*
X123104Y181187D01*
X123198D01*
X123536Y180825D01*
X123532Y180687D01*
X123532Y180686D01*
X123557Y180560D01*
X123573Y180431D01*
X123587Y180407D01*
X123593Y180379D01*
X123665Y180272D01*
X123699Y180212D01*
X123819Y179921D01*
Y179653D01*
X123717Y179406D01*
X123646Y179336D01*
X123472Y179075D01*
X123411Y178768D01*
X123472Y178461D01*
X123646Y178200D01*
X123646Y178200D01*
X123717Y178130D01*
X123819Y177883D01*
Y177615D01*
X123717Y177367D01*
X123634Y177285D01*
X123460Y177024D01*
X123399Y176717D01*
X123460Y176410D01*
X123634Y176149D01*
X123635Y176149D01*
X123717Y176067D01*
X123819Y175820D01*
Y175552D01*
X123717Y175304D01*
X123527Y175115D01*
X123280Y175012D01*
X123012D01*
X122764Y175115D01*
X122729Y175150D01*
X122469Y175324D01*
X122161Y175385D01*
X121854Y175324D01*
X121594Y175150D01*
X121594Y175150D01*
X121559Y175115D01*
X121311Y175012D01*
X121043D01*
X120796Y175115D01*
X120761Y175150D01*
X120500Y175324D01*
X120193Y175385D01*
X119886Y175324D01*
X119625Y175150D01*
X119625Y175150D01*
X119590Y175115D01*
X119343Y175012D01*
X119075D01*
X118827Y175115D01*
X118792Y175150D01*
X118532Y175324D01*
X118224Y175385D01*
X117917Y175324D01*
X117657Y175150D01*
X117657Y175150D01*
X117622Y175115D01*
X117374Y175012D01*
X117106D01*
X116866Y175112D01*
X116842Y175117D01*
X116820Y175129D01*
X116689Y175147D01*
X116559Y175173D01*
X116534Y175168D01*
X116510Y175171D01*
X116382Y175137D01*
X116252Y175112D01*
X116231Y175098D01*
X116207Y175091D01*
X115707Y174847D01*
X115601Y174767D01*
X115491Y174693D01*
X115477Y174672D01*
X115457Y174657D01*
X115391Y174543D01*
X115317Y174433D01*
X115312Y174408D01*
X115300Y174387D01*
X115282Y174255D01*
X115256Y174126D01*
Y162858D01*
X115317Y162551D01*
X115491Y162291D01*
X115752Y162117D01*
X116059Y162055D01*
X134957D01*
X135264Y162117D01*
X135524Y162291D01*
X135698Y162551D01*
X135759Y162858D01*
Y183634D01*
X135733Y183767D01*
X135698Y183941D01*
X135698Y183941D01*
Y183941D01*
X135633Y184039D01*
X135524Y184201D01*
X135524Y184201D01*
X135524Y184201D01*
X135438Y184259D01*
X135173Y184524D01*
X135071Y184772D01*
Y185039D01*
X135173Y185287D01*
X135438Y185552D01*
X135524Y185610D01*
X135524Y185610D01*
X135524Y185610D01*
X135633Y185772D01*
X135698Y185870D01*
Y185870D01*
X135698Y185870D01*
X135733Y186044D01*
X135759Y186177D01*
Y188886D01*
X135698Y189193D01*
X135524Y189453D01*
X129824Y195154D01*
Y195725D01*
X130286Y195916D01*
X144390Y181812D01*
X144816Y181527D01*
X145318Y181428D01*
X160502D01*
X161005Y181527D01*
X161430Y181812D01*
X167648Y188030D01*
X171185D01*
X171687Y188130D01*
X172113Y188414D01*
X174319Y190620D01*
X174819Y190413D01*
Y190321D01*
X175044Y189778D01*
X175459Y189363D01*
X176002Y189138D01*
X176589D01*
X177132Y189363D01*
X177547Y189778D01*
X177772Y190321D01*
Y190908D01*
X177547Y191451D01*
X177132Y191866D01*
X176589Y192090D01*
X176497D01*
X176289Y192590D01*
X176542Y192843D01*
X176707Y193090D01*
X176738Y193103D01*
X177153Y193518D01*
X177378Y194061D01*
Y194648D01*
X177153Y195191D01*
X176738Y195606D01*
X176195Y195831D01*
X175608D01*
X175065Y195606D01*
X174650Y195191D01*
X174425Y194648D01*
Y194449D01*
X174405Y194419D01*
X170641Y190655D01*
X167105D01*
X166602Y190555D01*
X166176Y190271D01*
X164893Y188987D01*
X164303Y189104D01*
X164275Y189171D01*
X163860Y189586D01*
X163317Y189811D01*
X162730D01*
X162187Y189586D01*
X161772Y189171D01*
X161547Y188628D01*
Y188041D01*
X161772Y187498D01*
X162187Y187083D01*
X162254Y187056D01*
X162372Y186466D01*
X159959Y184053D01*
X145862D01*
X144755Y185160D01*
X144962Y185660D01*
X149031D01*
X149534Y185760D01*
X149960Y186044D01*
X158135Y194220D01*
X158725Y194102D01*
X158803Y193912D01*
X159219Y193496D01*
X159761Y193272D01*
X160349D01*
X160891Y193496D01*
X161307Y193912D01*
X161531Y194454D01*
Y195042D01*
X161307Y195584D01*
X160891Y196000D01*
X160701Y196079D01*
X160584Y196668D01*
X164966Y201051D01*
X165025Y201075D01*
X165441Y201490D01*
X165665Y202033D01*
Y202620D01*
X165441Y203163D01*
X165025Y203578D01*
X164483Y203803D01*
X163895D01*
X163353Y203578D01*
X162937Y203163D01*
X162713Y202620D01*
Y202510D01*
X148488Y188285D01*
X144851D01*
X141154Y191982D01*
X141183Y192483D01*
X141632Y192782D01*
X141838Y192697D01*
X142425D01*
X142968Y192922D01*
X143383Y193337D01*
X143608Y193880D01*
Y194467D01*
X143383Y195010D01*
X142968Y195425D01*
X142425Y195650D01*
X141838D01*
X141295Y195425D01*
X140880Y195010D01*
X140877Y195004D01*
X140261Y194822D01*
X139965Y194945D01*
X139378D01*
X138835Y194720D01*
X138420Y194305D01*
X138195Y193762D01*
Y193175D01*
X138420Y192632D01*
X138475Y192577D01*
X138425Y192105D01*
X137985Y191930D01*
X125183Y204731D01*
X124758Y205016D01*
X124255Y205116D01*
X119405D01*
X118903Y205016D01*
X118477Y204731D01*
X116500Y202754D01*
X114288D01*
X114209Y203221D01*
X114751Y203445D01*
X115166Y203860D01*
X115391Y204403D01*
Y204991D01*
X115166Y205533D01*
X114751Y205948D01*
X114209Y206173D01*
D02*
G37*
G36*
X71372Y195732D02*
X70785D01*
X70242Y195508D01*
X69827Y195092D01*
X69602Y194550D01*
Y193962D01*
X69827Y193420D01*
X70242Y193004D01*
X70785Y192780D01*
X71372D01*
X71915Y193004D01*
X72330Y193420D01*
X72555Y193962D01*
Y194550D01*
X72330Y195092D01*
X71915Y195508D01*
X71372Y195732D01*
D02*
G37*
G36*
X76983Y195706D02*
X76395D01*
X75853Y195482D01*
X75437Y195066D01*
X75213Y194524D01*
Y193936D01*
X75437Y193394D01*
X75853Y192978D01*
X76395Y192754D01*
X76983D01*
X77525Y192978D01*
X77941Y193394D01*
X78165Y193936D01*
Y194524D01*
X77941Y195066D01*
X77525Y195482D01*
X76983Y195706D01*
D02*
G37*
G36*
X170290Y187268D02*
X169702D01*
X169160Y187043D01*
X168745Y186628D01*
X168520Y186085D01*
Y185498D01*
X168745Y184955D01*
X169160Y184540D01*
X169702Y184315D01*
X170290D01*
X170832Y184540D01*
X171248Y184955D01*
X171472Y185498D01*
Y186085D01*
X171248Y186628D01*
X170832Y187043D01*
X170290Y187268D01*
D02*
G37*
G36*
X110429Y184659D02*
X109842D01*
X109299Y184434D01*
X109098Y184233D01*
X108933Y184398D01*
X108390Y184623D01*
X107803D01*
X107260Y184398D01*
X107059Y184197D01*
X106858Y184398D01*
X106316Y184623D01*
X105728D01*
X105185Y184398D01*
X104770Y183983D01*
X104545Y183440D01*
Y182853D01*
X104770Y182310D01*
X104967Y182113D01*
X104770Y181916D01*
X104545Y181373D01*
Y180786D01*
X104770Y180243D01*
X104967Y180046D01*
X104770Y179849D01*
X104545Y179306D01*
Y178719D01*
X104770Y178176D01*
X104924Y178023D01*
X104708Y177807D01*
X104483Y177265D01*
Y176677D01*
X104708Y176135D01*
X105123Y175719D01*
X105666Y175495D01*
X106253D01*
X106796Y175719D01*
X106997Y175920D01*
X107198Y175719D01*
X107741Y175495D01*
X108328D01*
X108871Y175719D01*
X109072Y175920D01*
X109237Y175755D01*
X109780Y175530D01*
X110367D01*
X110910Y175755D01*
X111057Y175903D01*
X111252Y175707D01*
X111795Y175483D01*
X112382D01*
X112925Y175707D01*
X113340Y176123D01*
X113565Y176665D01*
Y177253D01*
X113340Y177795D01*
X113187Y177949D01*
X113402Y178164D01*
X113627Y178707D01*
Y179294D01*
X113402Y179837D01*
X113205Y180034D01*
X113402Y180231D01*
X113627Y180774D01*
Y181361D01*
X113402Y181904D01*
X113205Y182101D01*
X113402Y182298D01*
X113627Y182841D01*
Y183428D01*
X113402Y183971D01*
X112987Y184386D01*
X112445Y184611D01*
X111857D01*
X111315Y184386D01*
X111167Y184239D01*
X110972Y184434D01*
X110429Y184659D01*
D02*
G37*
G36*
X92231Y184586D02*
X91644D01*
X91101Y184361D01*
X90900Y184160D01*
X90735Y184325D01*
X90192Y184550D01*
X89605D01*
X89062Y184325D01*
X88861Y184124D01*
X88660Y184325D01*
X88117Y184550D01*
X87530D01*
X86987Y184325D01*
X86572Y183910D01*
X86347Y183367D01*
Y182780D01*
X86572Y182237D01*
X86769Y182040D01*
X86572Y181843D01*
X86347Y181300D01*
Y180713D01*
X86572Y180170D01*
X86769Y179973D01*
X86572Y179776D01*
X86347Y179233D01*
Y178646D01*
X86572Y178103D01*
X86725Y177950D01*
X86510Y177734D01*
X86285Y177192D01*
Y176604D01*
X86510Y176062D01*
X86925Y175646D01*
X87468Y175422D01*
X88055D01*
X88598Y175646D01*
X88799Y175848D01*
X89000Y175646D01*
X89543Y175422D01*
X90130D01*
X90673Y175646D01*
X90874Y175848D01*
X91039Y175682D01*
X91582Y175458D01*
X92169D01*
X92712Y175682D01*
X92859Y175830D01*
X93054Y175635D01*
X93597Y175410D01*
X94184D01*
X94727Y175635D01*
X95142Y176050D01*
X95367Y176593D01*
Y177180D01*
X95142Y177722D01*
X94989Y177876D01*
X95204Y178091D01*
X95429Y178634D01*
Y179221D01*
X95204Y179764D01*
X95007Y179961D01*
X95204Y180158D01*
X95429Y180701D01*
Y181288D01*
X95204Y181831D01*
X95007Y182028D01*
X95204Y182225D01*
X95429Y182768D01*
Y183355D01*
X95204Y183898D01*
X94789Y184313D01*
X94247Y184538D01*
X93659D01*
X93116Y184313D01*
X92969Y184166D01*
X92774Y184361D01*
X92231Y184586D01*
D02*
G37*
G36*
X100309Y184413D02*
X99722D01*
X99179Y184189D01*
X98764Y183773D01*
X98539Y183231D01*
Y182643D01*
X98764Y182101D01*
X99179Y181685D01*
X99722Y181461D01*
X100309D01*
X100852Y181685D01*
X101267Y182101D01*
X101492Y182643D01*
Y183231D01*
X101267Y183773D01*
X100852Y184189D01*
X100309Y184413D01*
D02*
G37*
G36*
X163759Y180666D02*
X163172D01*
X162629Y180442D01*
X162214Y180026D01*
X161989Y179484D01*
Y178896D01*
X162214Y178354D01*
X162629Y177939D01*
X163172Y177714D01*
X163759D01*
X164302Y177939D01*
X164717Y178354D01*
X164942Y178896D01*
Y179484D01*
X164717Y180026D01*
X164302Y180442D01*
X163759Y180666D01*
D02*
G37*
G36*
X94896Y174374D02*
X94309D01*
X93766Y174149D01*
X93650Y174033D01*
X93323Y173758D01*
X92996Y174033D01*
X92880Y174149D01*
X92337Y174374D01*
X91750D01*
X91207Y174149D01*
X91090Y174033D01*
X90764Y173758D01*
X90437Y174033D01*
X90321Y174149D01*
X89778Y174374D01*
X89191D01*
X88648Y174149D01*
X88233Y173734D01*
X88008Y173191D01*
Y172604D01*
X88233Y172061D01*
X88648Y171646D01*
X89191Y171421D01*
X89778D01*
X90321Y171646D01*
X90437Y171763D01*
X90764Y172038D01*
X91090Y171763D01*
X91207Y171646D01*
X91750Y171421D01*
X92337D01*
X92880Y171646D01*
X92996Y171763D01*
X93323Y172038D01*
X93650Y171763D01*
X93766Y171646D01*
X94309Y171421D01*
X94896D01*
X95439Y171646D01*
X95854Y172061D01*
X96079Y172604D01*
Y173191D01*
X95854Y173734D01*
X95439Y174149D01*
X94896Y174374D01*
D02*
G37*
G36*
X113006Y174276D02*
X112419D01*
X111876Y174051D01*
X111760Y173934D01*
X111433Y173659D01*
X111106Y173934D01*
X110990Y174051D01*
X110447Y174276D01*
X109860D01*
X109317Y174051D01*
X109201Y173934D01*
X108874Y173659D01*
X108547Y173934D01*
X108431Y174051D01*
X107888Y174276D01*
X107301D01*
X106758Y174051D01*
X106343Y173635D01*
X106118Y173093D01*
Y172505D01*
X106343Y171963D01*
X106758Y171548D01*
X107301Y171323D01*
X107888D01*
X108431Y171548D01*
X108547Y171664D01*
X108874Y171939D01*
X109201Y171664D01*
X109317Y171548D01*
X109860Y171323D01*
X110447D01*
X110990Y171548D01*
X111106Y171664D01*
X111433Y171939D01*
X111760Y171664D01*
X111876Y171548D01*
X112419Y171323D01*
X113006D01*
X113549Y171548D01*
X113964Y171963D01*
X114189Y172505D01*
Y173093D01*
X113964Y173635D01*
X113549Y174051D01*
X113006Y174276D01*
D02*
G37*
G36*
X156687Y173032D02*
X156100D01*
X155557Y172807D01*
X155356Y172606D01*
X155191Y172771D01*
X154648Y172996D01*
X154061D01*
X153518Y172771D01*
X153317Y172570D01*
X153116Y172771D01*
X152573Y172996D01*
X151986D01*
X151443Y172771D01*
X151028Y172356D01*
X150803Y171813D01*
Y171226D01*
X151028Y170683D01*
X151225Y170486D01*
X151028Y170289D01*
X150803Y169746D01*
Y169159D01*
X151028Y168616D01*
X151225Y168419D01*
X151028Y168222D01*
X150803Y167680D01*
Y167092D01*
X151028Y166550D01*
X151181Y166396D01*
X150966Y166181D01*
X150741Y165638D01*
Y165051D01*
X150966Y164508D01*
X151381Y164093D01*
X151924Y163868D01*
X152511D01*
X153054Y164093D01*
X153255Y164294D01*
X153456Y164093D01*
X153998Y163868D01*
X154586D01*
X155128Y164093D01*
X155330Y164294D01*
X155495Y164128D01*
X156037Y163904D01*
X156625D01*
X157167Y164128D01*
X157315Y164276D01*
X157510Y164081D01*
X158053Y163856D01*
X158640D01*
X159183Y164081D01*
X159598Y164496D01*
X159823Y165039D01*
Y165626D01*
X159598Y166169D01*
X159445Y166322D01*
X159660Y166538D01*
X159885Y167080D01*
Y167668D01*
X159660Y168210D01*
X159463Y168407D01*
X159660Y168605D01*
X159885Y169147D01*
Y169735D01*
X159660Y170277D01*
X159463Y170474D01*
X159660Y170671D01*
X159885Y171214D01*
Y171801D01*
X159660Y172344D01*
X159245Y172759D01*
X158702Y172984D01*
X158115D01*
X157572Y172759D01*
X157425Y172612D01*
X157230Y172807D01*
X156687Y173032D01*
D02*
G37*
G36*
X99325Y178311D02*
X98738D01*
X98195Y178086D01*
X97780Y177671D01*
X97555Y177128D01*
Y176541D01*
X97780Y175998D01*
X97822Y175957D01*
X97795Y175759D01*
X97655Y175416D01*
X97211Y175232D01*
X96796Y174817D01*
X96571Y174274D01*
Y173687D01*
X96796Y173144D01*
X97211Y172729D01*
X97754Y172504D01*
X98341D01*
X98883Y172729D01*
X99299Y173144D01*
X99524Y173687D01*
Y174274D01*
X99299Y174817D01*
X99257Y174858D01*
X99284Y175056D01*
X99423Y175399D01*
X99868Y175583D01*
X100283Y175998D01*
X100508Y176541D01*
Y177128D01*
X100283Y177671D01*
X99868Y178086D01*
X99325Y178311D01*
D02*
G37*
%LPD*%
G36*
X129021Y197181D02*
Y194821D01*
X134957Y188886D01*
Y186177D01*
X134908Y186157D01*
X134493Y185742D01*
X134268Y185199D01*
Y184612D01*
X134493Y184069D01*
X134908Y183654D01*
X134957Y183634D01*
Y162858D01*
X116059D01*
Y174126D01*
X116559Y174370D01*
X116946Y174209D01*
X117534D01*
X118076Y174434D01*
X118224Y174582D01*
X118372Y174434D01*
X118915Y174209D01*
X119502D01*
X120045Y174434D01*
X120193Y174582D01*
X120341Y174434D01*
X120884Y174209D01*
X121471D01*
X122013Y174434D01*
X122161Y174582D01*
X122309Y174434D01*
X122852Y174209D01*
X123439D01*
X123982Y174434D01*
X124397Y174849D01*
X124622Y175392D01*
Y175979D01*
X124397Y176522D01*
X124202Y176717D01*
X124397Y176912D01*
X124622Y177455D01*
Y178042D01*
X124397Y178585D01*
X124214Y178768D01*
X124397Y178951D01*
X124622Y179494D01*
Y180081D01*
X124397Y180624D01*
X124335Y180686D01*
X124367Y181157D01*
X124401Y181252D01*
X124724Y181374D01*
X125175Y181187D01*
X125763D01*
X126305Y181412D01*
X126720Y181827D01*
X126945Y182369D01*
Y182957D01*
X126720Y183499D01*
X126575Y183645D01*
X126828Y183898D01*
X127053Y184441D01*
Y185028D01*
X126828Y185571D01*
X126413Y185986D01*
X125870Y186211D01*
X125441D01*
X125169Y186397D01*
X125019Y186643D01*
Y187086D01*
X124794Y187629D01*
X124604Y187820D01*
X124791Y188006D01*
X125016Y188549D01*
Y189136D01*
X124791Y189679D01*
X124376Y190094D01*
X123833Y190319D01*
X123476D01*
X123134Y190647D01*
X123089Y190781D01*
Y191278D01*
X122864Y191821D01*
X122449Y192236D01*
X121906Y192461D01*
X121319D01*
X120776Y192236D01*
X120536Y191996D01*
X120376Y192156D01*
X119834Y192380D01*
X119246D01*
X118704Y192156D01*
X118486Y191938D01*
X118189Y192236D01*
X117646Y192461D01*
X117059D01*
X116559Y192254D01*
X116341Y192332D01*
X116059Y192487D01*
Y194748D01*
X123539Y202228D01*
X123974D01*
X129021Y197181D01*
D02*
G37*
%LPC*%
G36*
X132987Y182445D02*
X132399D01*
X131857Y182220D01*
X131441Y181805D01*
X131217Y181262D01*
Y180675D01*
X131441Y180132D01*
X131857Y179717D01*
X132399Y179492D01*
X132987D01*
X133529Y179717D01*
X133944Y180132D01*
X134169Y180675D01*
Y181262D01*
X133944Y181805D01*
X133529Y182220D01*
X132987Y182445D01*
D02*
G37*
%LPD*%
G36*
X133074Y181539D02*
X133264Y181350D01*
X133367Y181103D01*
Y180834D01*
X133264Y180587D01*
X133074Y180397D01*
X132827Y180295D01*
X132559D01*
X132311Y180397D01*
X132122Y180587D01*
X132019Y180834D01*
Y181103D01*
X132122Y181350D01*
X132311Y181539D01*
X132559Y181642D01*
X132827D01*
X133074Y181539D01*
D02*
G37*
%LPC*%
G36*
X12400Y226746D02*
X11813D01*
X11270Y226521D01*
X10855Y226106D01*
X10630Y225564D01*
Y224976D01*
X10855Y224433D01*
X11270Y224018D01*
X11813Y223793D01*
X12400D01*
X12943Y224018D01*
X13358Y224433D01*
X13583Y224976D01*
Y225564D01*
X13358Y226106D01*
X12943Y226521D01*
X12400Y226746D01*
D02*
G37*
G36*
X18611Y224367D02*
X18024D01*
X17481Y224143D01*
X17066Y223727D01*
X16841Y223185D01*
Y222598D01*
X17066Y222055D01*
X17481Y221640D01*
X18024Y221415D01*
X18611D01*
X19154Y221640D01*
X19569Y222055D01*
X19794Y222598D01*
Y223185D01*
X19569Y223727D01*
X19154Y224143D01*
X18611Y224367D01*
D02*
G37*
G36*
X210136Y225171D02*
X209549D01*
X209006Y224947D01*
X208591Y224531D01*
X208366Y223989D01*
Y223401D01*
X208591Y222859D01*
X209006Y222443D01*
X209549Y222219D01*
X209834D01*
X209926Y222130D01*
X210127Y221719D01*
X209966Y221331D01*
Y220744D01*
X210191Y220201D01*
X210606Y219786D01*
X211149Y219561D01*
X211736D01*
X212279Y219786D01*
X212694Y220201D01*
X212919Y220744D01*
Y221331D01*
X212694Y221874D01*
X212279Y222289D01*
X211736Y222514D01*
X211451D01*
X211359Y222603D01*
X211158Y223014D01*
X211319Y223401D01*
Y223989D01*
X211094Y224531D01*
X210679Y224947D01*
X210136Y225171D01*
D02*
G37*
G36*
X9341Y219856D02*
X8754D01*
X8211Y219632D01*
X7796Y219216D01*
X7571Y218674D01*
Y218086D01*
X7796Y217544D01*
X8211Y217128D01*
X8754Y216904D01*
X9341D01*
X9883Y217128D01*
X10299Y217544D01*
X10524Y218086D01*
Y218674D01*
X10299Y219216D01*
X9883Y219632D01*
X9341Y219856D01*
D02*
G37*
G36*
X195274Y218183D02*
X194687D01*
X194144Y217958D01*
X193729Y217543D01*
X193504Y217001D01*
Y216413D01*
X193729Y215870D01*
X194144Y215455D01*
X194687Y215230D01*
X195274D01*
X195817Y215455D01*
X196232Y215870D01*
X196457Y216413D01*
Y217001D01*
X196232Y217543D01*
X195817Y217958D01*
X195274Y218183D01*
D02*
G37*
G36*
X7417Y203765D02*
X6830D01*
X6287Y203540D01*
X5872Y203124D01*
X5647Y202582D01*
Y201994D01*
X5872Y201452D01*
X6287Y201037D01*
X6830Y200812D01*
X7417D01*
X7960Y201037D01*
X8375Y201452D01*
X8600Y201994D01*
Y202582D01*
X8375Y203124D01*
X7960Y203540D01*
X7417Y203765D01*
D02*
G37*
G36*
X16928Y198167D02*
X16340D01*
X15798Y197942D01*
X15382Y197527D01*
X15157Y196984D01*
Y196397D01*
X15382Y195854D01*
X15798Y195439D01*
X16340Y195214D01*
X16928D01*
X17470Y195439D01*
X17885Y195854D01*
X18110Y196397D01*
Y196984D01*
X17885Y197527D01*
X17470Y197942D01*
X16928Y198167D01*
D02*
G37*
G36*
X211580Y214423D02*
X209680D01*
X207816Y214053D01*
X206061Y213326D01*
X204481Y212270D01*
X203138Y210927D01*
X202082Y209347D01*
X201355Y207591D01*
X200984Y205728D01*
Y203828D01*
X201355Y201964D01*
X202082Y200209D01*
X203138Y198629D01*
X204481Y197286D01*
X206061Y196230D01*
X207816Y195503D01*
X209680Y195132D01*
X211580D01*
X213443Y195503D01*
X215199Y196230D01*
X216779Y197286D01*
X218122Y198629D01*
X219178Y200209D01*
X219905Y201964D01*
X220276Y203828D01*
Y205728D01*
X219905Y207591D01*
X219178Y209347D01*
X218122Y210927D01*
X216779Y212270D01*
X215199Y213326D01*
X213443Y214053D01*
X211580Y214423D01*
D02*
G37*
G36*
X26163Y193597D02*
X25411D01*
X24717Y193309D01*
X24185Y192777D01*
X24090Y192546D01*
X23548D01*
X23452Y192777D01*
X22921Y193309D01*
X22226Y193597D01*
X21475D01*
X20780Y193309D01*
X20248Y192777D01*
X19961Y192083D01*
Y191331D01*
X20248Y190636D01*
X20780Y190105D01*
X21011Y190009D01*
Y189468D01*
X20780Y189372D01*
X20248Y188840D01*
X19961Y188146D01*
Y187394D01*
X20248Y186699D01*
X20780Y186168D01*
X21475Y185880D01*
X22226D01*
X22921Y186168D01*
X23452Y186699D01*
X23548Y186931D01*
X24090D01*
X24185Y186699D01*
X24717Y186168D01*
X25411Y185880D01*
X26163D01*
X26858Y186168D01*
X27389Y186699D01*
X27677Y187394D01*
Y188146D01*
X27389Y188840D01*
X26858Y189372D01*
X26627Y189468D01*
Y190009D01*
X26858Y190105D01*
X27389Y190636D01*
X27677Y191331D01*
Y192083D01*
X27389Y192777D01*
X26858Y193309D01*
X26163Y193597D01*
D02*
G37*
G36*
X14741Y193139D02*
X14154D01*
X13611Y192914D01*
X13196Y192499D01*
X12971Y191956D01*
Y191369D01*
X13196Y190826D01*
X13611Y190411D01*
X14154Y190186D01*
X14741D01*
X15284Y190411D01*
X15699Y190826D01*
X15924Y191369D01*
Y191956D01*
X15699Y192499D01*
X15284Y192914D01*
X14741Y193139D01*
D02*
G37*
G36*
X208660Y184817D02*
X208072D01*
X207530Y184592D01*
X207115Y184177D01*
X206890Y183634D01*
Y183047D01*
X207115Y182504D01*
X207530Y182089D01*
X208072Y181864D01*
X208660D01*
X209202Y182089D01*
X209618Y182504D01*
X209842Y183047D01*
Y183634D01*
X209618Y184177D01*
X209202Y184592D01*
X208660Y184817D01*
D02*
G37*
G36*
X20997Y184070D02*
X20370D01*
X19791Y183830D01*
X19348Y183387D01*
X19109Y182808D01*
Y182182D01*
X19348Y181603D01*
X19791Y181160D01*
X20370Y180920D01*
X20997D01*
X21575Y181160D01*
X22018Y181603D01*
X22258Y182182D01*
Y182808D01*
X22018Y183387D01*
X21575Y183830D01*
X20997Y184070D01*
D02*
G37*
G36*
X219487Y178124D02*
X218899D01*
X218357Y177899D01*
X217941Y177484D01*
X217717Y176941D01*
Y176354D01*
X217941Y175812D01*
X218357Y175396D01*
X218899Y175171D01*
X219487D01*
X220029Y175396D01*
X220444Y175812D01*
X220669Y176354D01*
Y176941D01*
X220444Y177484D01*
X220029Y177899D01*
X219487Y178124D01*
D02*
G37*
G36*
X28620Y174559D02*
X27915D01*
X27264Y174290D01*
X26766Y173791D01*
X26496Y173140D01*
Y172435D01*
X26766Y171784D01*
X27264Y171286D01*
X27915Y171016D01*
X28620D01*
X29271Y171286D01*
X29770Y171784D01*
X30039Y172435D01*
Y173140D01*
X29770Y173791D01*
X29271Y174290D01*
X28620Y174559D01*
D02*
G37*
G36*
X211022Y172809D02*
X210435D01*
X209892Y172584D01*
X209477Y172169D01*
X209252Y171626D01*
Y171039D01*
X209477Y170496D01*
X209892Y170081D01*
X210435Y169856D01*
X211022D01*
X211565Y170081D01*
X211980Y170496D01*
X212205Y171039D01*
Y171626D01*
X211980Y172169D01*
X211565Y172584D01*
X211022Y172809D01*
D02*
G37*
G36*
X198943Y165803D02*
X198355D01*
X197813Y165578D01*
X197397Y165163D01*
X197173Y164620D01*
Y164033D01*
X197397Y163491D01*
X197813Y163075D01*
X198355Y162850D01*
X198943D01*
X199485Y163075D01*
X199901Y163491D01*
X200126Y164033D01*
Y164620D01*
X199901Y165163D01*
X199485Y165578D01*
X198943Y165803D01*
D02*
G37*
G36*
X213959Y161411D02*
X213207D01*
X212512Y161124D01*
X211981Y160592D01*
X211885Y160361D01*
X211344D01*
X211248Y160592D01*
X210716Y161124D01*
X210022Y161411D01*
X209270D01*
X208575Y161124D01*
X208044Y160592D01*
X207756Y159898D01*
Y159146D01*
X208044Y158451D01*
X208575Y157920D01*
X208807Y157824D01*
Y157283D01*
X208575Y157187D01*
X208044Y156655D01*
X207756Y155961D01*
Y155209D01*
X208044Y154514D01*
X208575Y153983D01*
X209270Y153695D01*
X210022D01*
X210716Y153983D01*
X211248Y154514D01*
X211344Y154746D01*
X211885D01*
X211981Y154514D01*
X212512Y153983D01*
X213207Y153695D01*
X213959D01*
X214653Y153983D01*
X215185Y154514D01*
X215503Y154352D01*
X215522Y154333D01*
X216065Y154108D01*
X216652D01*
X217195Y154333D01*
X217610Y154748D01*
X217835Y155291D01*
Y155878D01*
X217610Y156421D01*
X217195Y156836D01*
X216652Y157061D01*
X216065D01*
X215522Y156836D01*
X215503Y156818D01*
X215185Y156655D01*
X214653Y157187D01*
X214422Y157283D01*
Y157824D01*
X214653Y157920D01*
X215185Y158451D01*
X215472Y159146D01*
Y159898D01*
X215185Y160592D01*
X214653Y161124D01*
X213959Y161411D01*
D02*
G37*
G36*
X193174Y159865D02*
X192587D01*
X192044Y159640D01*
X191629Y159225D01*
X191404Y158682D01*
Y158095D01*
X191629Y157552D01*
X192044Y157137D01*
X192587Y156912D01*
X192984D01*
X193023Y156882D01*
X193284Y156485D01*
X193293Y156450D01*
X193138Y156075D01*
Y155488D01*
X193362Y154945D01*
X193778Y154530D01*
X194320Y154305D01*
X194908D01*
X195450Y154530D01*
X195865Y154945D01*
X196090Y155488D01*
Y156075D01*
X195865Y156618D01*
X195450Y157033D01*
X194908Y157258D01*
X194511D01*
X194472Y157288D01*
X194211Y157685D01*
X194202Y157720D01*
X194357Y158095D01*
Y158682D01*
X194132Y159225D01*
X193717Y159640D01*
X193174Y159865D01*
D02*
G37*
G36*
X205018Y157061D02*
X204431D01*
X203888Y156836D01*
X203473Y156421D01*
X203248Y155878D01*
Y155291D01*
X203473Y154748D01*
X203888Y154333D01*
X204431Y154108D01*
X205018D01*
X205561Y154333D01*
X205976Y154748D01*
X206201Y155291D01*
Y155878D01*
X205976Y156421D01*
X205561Y156836D01*
X205018Y157061D01*
D02*
G37*
G36*
X219683Y145742D02*
X219096D01*
X218553Y145518D01*
X218338Y145302D01*
X218012Y145158D01*
X217685Y145302D01*
X217470Y145518D01*
X216928Y145742D01*
X216340D01*
X215798Y145518D01*
X215582Y145302D01*
X215256Y145158D01*
X214929Y145302D01*
X214714Y145518D01*
X214172Y145742D01*
X213584D01*
X213042Y145518D01*
X212626Y145102D01*
X212402Y144560D01*
Y143972D01*
X212626Y143430D01*
X212841Y143215D01*
X212931Y143011D01*
X212819Y142737D01*
X212261Y142508D01*
X212173Y142547D01*
X211958Y142762D01*
X211416Y142986D01*
X210828D01*
X210286Y142762D01*
X209870Y142346D01*
X209646Y141804D01*
Y141216D01*
X209870Y140674D01*
X210286Y140258D01*
X210828Y140034D01*
X211416D01*
X211958Y140258D01*
X212173Y140473D01*
X212500Y140618D01*
X212827Y140473D01*
X213042Y140258D01*
X213584Y140034D01*
X213937D01*
X214085Y139786D01*
X214179Y139537D01*
X213976Y139048D01*
Y138460D01*
X214201Y137918D01*
X214546Y137573D01*
X214201Y137228D01*
X213976Y136686D01*
Y136098D01*
X214201Y135556D01*
X214546Y135211D01*
X214201Y134866D01*
X213976Y134323D01*
Y133736D01*
X214201Y133193D01*
X214616Y132778D01*
X215159Y132553D01*
X215746D01*
X216289Y132778D01*
X216704Y133193D01*
X216929Y133736D01*
Y134323D01*
X216704Y134866D01*
X216359Y135211D01*
X216704Y135556D01*
X216929Y136098D01*
Y136686D01*
X216704Y137228D01*
X216359Y137573D01*
X216704Y137918D01*
X216929Y138460D01*
Y139048D01*
X216728Y139534D01*
X216877Y139933D01*
X216928Y140034D01*
X217470Y140258D01*
X217685Y140473D01*
X218012Y140618D01*
X218338Y140473D01*
X218553Y140258D01*
X219096Y140034D01*
X219683D01*
X220226Y140258D01*
X220641Y140674D01*
X220866Y141216D01*
Y141804D01*
X220641Y142346D01*
X220426Y142561D01*
X220282Y142888D01*
X220426Y143215D01*
X220641Y143430D01*
X220866Y143972D01*
Y144560D01*
X220641Y145102D01*
X220226Y145518D01*
X219683Y145742D01*
D02*
G37*
G36*
X150481Y147615D02*
X149894D01*
X149351Y147390D01*
X148936Y146975D01*
X148711Y146432D01*
Y145845D01*
X148936Y145302D01*
X149351Y144887D01*
X149894Y144662D01*
X150481D01*
X151024Y144887D01*
X151439Y145302D01*
X151664Y145845D01*
Y146432D01*
X151439Y146975D01*
X151024Y147390D01*
X150481Y147615D01*
D02*
G37*
G36*
X120668Y147317D02*
X120080D01*
X119538Y147092D01*
X119122Y146677D01*
X118898Y146134D01*
Y145547D01*
X119122Y145004D01*
X119538Y144589D01*
X120080Y144364D01*
X120668D01*
X121210Y144589D01*
X121626Y145004D01*
X121850Y145547D01*
Y146134D01*
X121626Y146677D01*
X121210Y147092D01*
X120668Y147317D01*
D02*
G37*
G36*
X89679Y147029D02*
X89091D01*
X88549Y146804D01*
X88133Y146388D01*
X87909Y145846D01*
Y145258D01*
X88133Y144716D01*
X88549Y144300D01*
X89091Y144076D01*
X89679D01*
X90221Y144300D01*
X90636Y144716D01*
X90861Y145258D01*
Y145846D01*
X90636Y146388D01*
X90221Y146804D01*
X89679Y147029D01*
D02*
G37*
G36*
X31790Y146136D02*
X31202D01*
X30660Y145911D01*
X30244Y145496D01*
X30020Y144953D01*
Y144366D01*
X30244Y143823D01*
X30660Y143408D01*
X31202Y143183D01*
X31790D01*
X32332Y143408D01*
X32748Y143823D01*
X32972Y144366D01*
Y144953D01*
X32748Y145496D01*
X32332Y145911D01*
X31790Y146136D01*
D02*
G37*
G36*
X109568Y145368D02*
X108981D01*
X108438Y145143D01*
X108023Y144728D01*
X107798Y144185D01*
Y143598D01*
X108023Y143055D01*
X108438Y142640D01*
X108981Y142415D01*
X109568D01*
X110110Y142640D01*
X110526Y143055D01*
X110751Y143598D01*
Y144185D01*
X110526Y144728D01*
X110110Y145143D01*
X109568Y145368D01*
D02*
G37*
G36*
X114843Y142940D02*
X114255D01*
X113713Y142715D01*
X113475Y142477D01*
X112844Y142401D01*
X112302Y142626D01*
X111714D01*
X111172Y142401D01*
X110756Y141986D01*
X110531Y141443D01*
Y140856D01*
X110756Y140313D01*
X111172Y139898D01*
X111714Y139673D01*
X112302D01*
X112844Y139898D01*
X113082Y140136D01*
X113713Y140212D01*
X114255Y139987D01*
X114843D01*
X115385Y140212D01*
X115800Y140627D01*
X116025Y141170D01*
Y141757D01*
X115800Y142300D01*
X115385Y142715D01*
X114843Y142940D01*
D02*
G37*
G36*
X103050Y144364D02*
X102462D01*
X101920Y144140D01*
X101504Y143724D01*
X101279Y143182D01*
Y142594D01*
X101504Y142052D01*
X101920Y141636D01*
X102462Y141412D01*
X103050D01*
X103592Y141636D01*
X104007Y142052D01*
X104232Y142594D01*
Y143182D01*
X104007Y143724D01*
X103592Y144140D01*
X103050Y144364D01*
D02*
G37*
G36*
X150438Y143886D02*
X149850D01*
X149308Y143661D01*
X148892Y143246D01*
X148668Y142703D01*
Y142116D01*
X148892Y141574D01*
X149308Y141158D01*
X149850Y140934D01*
X150438D01*
X150980Y141158D01*
X151396Y141574D01*
X151620Y142116D01*
Y142703D01*
X151396Y143246D01*
X150980Y143661D01*
X150438Y143886D01*
D02*
G37*
G36*
X130054Y143758D02*
X129467D01*
X128924Y143534D01*
X128509Y143118D01*
X128284Y142576D01*
Y141988D01*
X128509Y141446D01*
X128924Y141030D01*
X129467Y140806D01*
X130054D01*
X130597Y141030D01*
X131012Y141446D01*
X131237Y141988D01*
Y142576D01*
X131012Y143118D01*
X130597Y143534D01*
X130054Y143758D01*
D02*
G37*
G36*
X66702Y146346D02*
X66115D01*
X65572Y146121D01*
X65157Y145706D01*
X64932Y145163D01*
Y144576D01*
X65157Y144033D01*
X65572Y143618D01*
X65976Y143450D01*
X66123Y143046D01*
X66126Y142893D01*
X65973Y142740D01*
X65748Y142197D01*
Y141610D01*
X65973Y141067D01*
X66388Y140652D01*
X66931Y140427D01*
X67518D01*
X68061Y140652D01*
X68476Y141067D01*
X68701Y141610D01*
Y142197D01*
X68476Y142740D01*
X68061Y143155D01*
X67656Y143323D01*
X67510Y143727D01*
X67507Y143880D01*
X67660Y144033D01*
X67885Y144576D01*
Y145163D01*
X67660Y145706D01*
X67245Y146121D01*
X66702Y146346D01*
D02*
G37*
G36*
X86120Y142691D02*
X85533D01*
X84991Y142466D01*
X84575Y142051D01*
X84350Y141508D01*
Y140921D01*
X84575Y140378D01*
X84991Y139963D01*
X85533Y139738D01*
X86120D01*
X86663Y139963D01*
X87078Y140378D01*
X87303Y140921D01*
Y141508D01*
X87078Y142051D01*
X86663Y142466D01*
X86120Y142691D01*
D02*
G37*
G36*
X82479Y142101D02*
X81891D01*
X81349Y141876D01*
X80933Y141460D01*
X80709Y140918D01*
Y140331D01*
X80933Y139788D01*
X81349Y139373D01*
X81891Y139148D01*
X82479D01*
X83021Y139373D01*
X83437Y139788D01*
X83661Y140331D01*
Y140918D01*
X83437Y141460D01*
X83021Y141876D01*
X82479Y142101D01*
D02*
G37*
G36*
X37853Y138569D02*
X37265D01*
X36723Y138344D01*
X36307Y137929D01*
X36083Y137386D01*
Y136799D01*
X36307Y136257D01*
X36723Y135841D01*
X37265Y135616D01*
X37853D01*
X38395Y135841D01*
X38811Y136257D01*
X39035Y136799D01*
Y137386D01*
X38811Y137929D01*
X38395Y138344D01*
X37853Y138569D01*
D02*
G37*
G36*
X45668Y138557D02*
X45080D01*
X44538Y138332D01*
X44122Y137917D01*
X43898Y137374D01*
Y136787D01*
X44122Y136245D01*
X44538Y135829D01*
X45080Y135605D01*
X45668D01*
X46210Y135829D01*
X46626Y136245D01*
X46850Y136787D01*
Y137374D01*
X46626Y137917D01*
X46210Y138332D01*
X45668Y138557D01*
D02*
G37*
G36*
X149014Y138254D02*
X148427D01*
X147884Y138029D01*
X147469Y137614D01*
X147244Y137071D01*
Y136484D01*
X147469Y135941D01*
X147884Y135526D01*
X148427Y135301D01*
X149014D01*
X149557Y135526D01*
X149972Y135941D01*
X150197Y136484D01*
Y137071D01*
X149972Y137614D01*
X149557Y138029D01*
X149014Y138254D01*
D02*
G37*
G36*
X41534Y138163D02*
X40946D01*
X40404Y137939D01*
X39988Y137523D01*
X39764Y136981D01*
Y136393D01*
X39988Y135851D01*
X40404Y135435D01*
X40946Y135211D01*
X41534D01*
X42076Y135435D01*
X42492Y135851D01*
X42717Y136393D01*
Y136981D01*
X42492Y137523D01*
X42076Y137939D01*
X41534Y138163D01*
D02*
G37*
G36*
X20176Y137475D02*
X19588D01*
X19046Y137250D01*
X18630Y136834D01*
X18406Y136292D01*
Y135705D01*
X18630Y135162D01*
X19046Y134747D01*
X19588Y134522D01*
X20176D01*
X20718Y134747D01*
X21134Y135162D01*
X21358Y135705D01*
Y136292D01*
X21134Y136834D01*
X20718Y137250D01*
X20176Y137475D01*
D02*
G37*
G36*
X64762Y134128D02*
X64175D01*
X63632Y133903D01*
X63217Y133488D01*
X63193Y133431D01*
X62669Y133390D01*
X62254Y133805D01*
X61711Y134030D01*
X61124D01*
X60581Y133805D01*
X60166Y133390D01*
X59941Y132847D01*
Y132260D01*
X60166Y131717D01*
X60581Y131302D01*
X61124Y131077D01*
X61711D01*
X62254Y131302D01*
X62669Y131717D01*
X62693Y131774D01*
X63217Y131815D01*
X63632Y131400D01*
X64175Y131175D01*
X64762D01*
X65305Y131400D01*
X65720Y131815D01*
X65945Y132358D01*
Y132945D01*
X65720Y133488D01*
X65305Y133903D01*
X64762Y134128D01*
D02*
G37*
G36*
X53443Y135998D02*
X52856D01*
X52313Y135773D01*
X51898Y135358D01*
X51673Y134815D01*
Y134228D01*
X51898Y133686D01*
X52313Y133270D01*
X52856Y133045D01*
X53443D01*
X53986Y133270D01*
X54401Y133686D01*
X54626Y134228D01*
Y134815D01*
X54401Y135358D01*
X53986Y135773D01*
X53443Y135998D01*
D02*
G37*
G36*
X119262Y135576D02*
X118674D01*
X118132Y135352D01*
X117717Y134936D01*
X117492Y134394D01*
Y133806D01*
X117717Y133264D01*
X118132Y132849D01*
X118674Y132624D01*
X119262D01*
X119804Y132849D01*
X120220Y133264D01*
X120445Y133806D01*
Y134394D01*
X120220Y134936D01*
X119804Y135352D01*
X119262Y135576D01*
D02*
G37*
G36*
X134546Y137154D02*
X133958D01*
X133416Y136929D01*
X133000Y136514D01*
X132776Y135971D01*
Y135384D01*
X133000Y134841D01*
X133416Y134426D01*
X133958Y134201D01*
X134546D01*
X134764Y134292D01*
X135236Y133946D01*
Y133638D01*
X135461Y133095D01*
X135876Y132680D01*
X136419Y132455D01*
X137006D01*
X137549Y132680D01*
X137964Y133095D01*
X138189Y133638D01*
Y134225D01*
X137964Y134767D01*
X137549Y135183D01*
X137006Y135408D01*
X136419D01*
X136201Y135317D01*
X135728Y135663D01*
Y135971D01*
X135503Y136514D01*
X135088Y136929D01*
X134546Y137154D01*
D02*
G37*
G36*
X85445Y133036D02*
X84858D01*
X84315Y132811D01*
X83900Y132396D01*
X83675Y131854D01*
Y131266D01*
X83900Y130724D01*
X84315Y130308D01*
X84858Y130084D01*
X85445D01*
X85988Y130308D01*
X86403Y130724D01*
X86628Y131266D01*
Y131854D01*
X86403Y132396D01*
X85988Y132811D01*
X85445Y133036D01*
D02*
G37*
G36*
X183657Y131882D02*
X183070D01*
X182527Y131658D01*
X182112Y131242D01*
X181887Y130700D01*
Y130112D01*
X182112Y129570D01*
X182527Y129155D01*
X183070Y128930D01*
X183657D01*
X184200Y129155D01*
X184615Y129570D01*
X184840Y130112D01*
Y130700D01*
X184615Y131242D01*
X184200Y131658D01*
X183657Y131882D01*
D02*
G37*
G36*
X132036Y131717D02*
X131448D01*
X130906Y131492D01*
X130491Y131077D01*
X130266Y130534D01*
Y129947D01*
X130491Y129404D01*
X130906Y128989D01*
X131448Y128764D01*
X132036D01*
X132578Y128989D01*
X132994Y129404D01*
X133219Y129947D01*
Y130534D01*
X132994Y131077D01*
X132578Y131492D01*
X132036Y131717D01*
D02*
G37*
G36*
X13100Y132994D02*
X12199D01*
X11367Y132650D01*
X10730Y132013D01*
X10386Y131181D01*
Y130280D01*
X10730Y129448D01*
X11367Y128811D01*
X12199Y128467D01*
X13100D01*
X13932Y128811D01*
X14569Y129448D01*
X14913Y130280D01*
Y131181D01*
X14569Y132013D01*
X13932Y132650D01*
X13100Y132994D01*
D02*
G37*
G36*
X136416Y131077D02*
X135828D01*
X135286Y130852D01*
X134870Y130437D01*
X134646Y129894D01*
Y129307D01*
X134870Y128764D01*
X135286Y128349D01*
X135828Y128124D01*
X136416D01*
X136958Y128349D01*
X137374Y128764D01*
X137598Y129307D01*
Y129894D01*
X137374Y130437D01*
X136958Y130852D01*
X136416Y131077D01*
D02*
G37*
G36*
X199751Y132988D02*
X199163D01*
X198621Y132764D01*
X198205Y132348D01*
X197981Y131806D01*
Y131680D01*
X197954Y131378D01*
X197366D01*
X196824Y131153D01*
X196408Y130738D01*
X196184Y130195D01*
Y129608D01*
X196408Y129065D01*
X196745Y128729D01*
X196386Y128370D01*
X196161Y127827D01*
Y127240D01*
X196386Y126697D01*
X196801Y126282D01*
X197344Y126057D01*
X197931D01*
X197933Y126056D01*
Y125665D01*
X198158Y125122D01*
X198573Y124707D01*
X199116Y124482D01*
X199703D01*
X200246Y124707D01*
X200661Y125122D01*
X200886Y125665D01*
Y126252D01*
X200661Y126795D01*
X200380Y127076D01*
X200294Y127386D01*
X200380Y127696D01*
X200661Y127977D01*
X200886Y128519D01*
Y129107D01*
X200661Y129649D01*
X200498Y129812D01*
X200325Y130191D01*
X200498Y130465D01*
X200709Y130676D01*
X200933Y131218D01*
Y131806D01*
X200709Y132348D01*
X200293Y132764D01*
X199751Y132988D01*
D02*
G37*
G36*
X25393Y128519D02*
X24806D01*
X24263Y128294D01*
X23848Y127879D01*
X23623Y127336D01*
Y126749D01*
X23848Y126206D01*
X24263Y125791D01*
X24806Y125566D01*
X24982D01*
X25398Y125520D01*
X25444Y125104D01*
Y124928D01*
X25668Y124385D01*
X26084Y123970D01*
X26626Y123745D01*
X27214D01*
X27487Y123858D01*
X27870Y123476D01*
X27757Y123202D01*
Y122615D01*
X27981Y122072D01*
X28397Y121657D01*
X28939Y121432D01*
X29527D01*
X30069Y121657D01*
X30485Y122072D01*
X30709Y122615D01*
Y123202D01*
X30485Y123745D01*
X30069Y124160D01*
X29527Y124385D01*
X28939D01*
X28666Y124272D01*
X28283Y124654D01*
X28396Y124928D01*
Y125515D01*
X28172Y126058D01*
X27756Y126473D01*
X27214Y126698D01*
X27038D01*
X26621Y126744D01*
X26576Y127160D01*
Y127336D01*
X26351Y127879D01*
X25936Y128294D01*
X25393Y128519D01*
D02*
G37*
G36*
X159250Y123892D02*
X158663D01*
X158120Y123667D01*
X157705Y123252D01*
X157480Y122709D01*
Y122122D01*
X157705Y121579D01*
X158120Y121164D01*
X158663Y120939D01*
X159250D01*
X159793Y121164D01*
X160208Y121579D01*
X160433Y122122D01*
Y122709D01*
X160208Y123252D01*
X159793Y123667D01*
X159250Y123892D01*
D02*
G37*
G36*
X205117Y123892D02*
X204529D01*
X203987Y123667D01*
X203571Y123252D01*
X203346Y122709D01*
Y122122D01*
X203571Y121579D01*
X203987Y121164D01*
X204529Y120939D01*
X205117D01*
X205659Y121164D01*
X206074Y121579D01*
X206299Y122122D01*
Y122709D01*
X206074Y123252D01*
X205659Y123667D01*
X205117Y123892D01*
D02*
G37*
G36*
X57705Y122940D02*
X57117D01*
X56574Y122715D01*
X56159Y122300D01*
X55935Y121757D01*
Y121169D01*
X56159Y120627D01*
X56574Y120212D01*
X57117Y119987D01*
X57705D01*
X58247Y120212D01*
X58662Y120627D01*
X58887Y121169D01*
Y121757D01*
X58662Y122300D01*
X58247Y122715D01*
X57705Y122940D01*
D02*
G37*
G36*
X51081Y122908D02*
X50494D01*
X49951Y122683D01*
X49536Y122267D01*
X49311Y121725D01*
Y121138D01*
X49536Y120595D01*
X49951Y120180D01*
X50494Y119955D01*
X51081D01*
X51624Y120180D01*
X52039Y120595D01*
X52264Y121138D01*
Y121725D01*
X52039Y122267D01*
X51624Y122683D01*
X51081Y122908D01*
D02*
G37*
G36*
X44388D02*
X43801D01*
X43258Y122683D01*
X42843Y122267D01*
X42618Y121725D01*
Y121138D01*
X42843Y120595D01*
X43258Y120180D01*
X43801Y119955D01*
X44388D01*
X44931Y120180D01*
X45346Y120595D01*
X45571Y121138D01*
Y121725D01*
X45346Y122267D01*
X44931Y122683D01*
X44388Y122908D01*
D02*
G37*
G36*
X128837Y122809D02*
X128250D01*
X127707Y122584D01*
X127292Y122169D01*
X127067Y121626D01*
Y121039D01*
X127292Y120496D01*
X127707Y120081D01*
X128250Y119856D01*
X128837D01*
X129380Y120081D01*
X129795Y120496D01*
X130020Y121039D01*
Y121626D01*
X129795Y122169D01*
X129380Y122584D01*
X128837Y122809D01*
D02*
G37*
G36*
X79920Y121628D02*
X79332D01*
X78790Y121403D01*
X78374Y120988D01*
X78150Y120445D01*
Y120022D01*
X77814Y119723D01*
X77688Y119672D01*
X77432Y119778D01*
X76845D01*
X76302Y119553D01*
X75887Y119138D01*
X75662Y118595D01*
Y118008D01*
X75887Y117465D01*
X76302Y117050D01*
X76845Y116825D01*
X77432D01*
X77975Y117050D01*
X78390Y117465D01*
X78615Y118008D01*
Y118431D01*
X78950Y118730D01*
X79077Y118781D01*
X79332Y118675D01*
X79920D01*
X80462Y118900D01*
X80878Y119315D01*
X81102Y119858D01*
Y120445D01*
X80878Y120988D01*
X80462Y121403D01*
X79920Y121628D01*
D02*
G37*
G36*
X32283Y121629D02*
X31695D01*
X31153Y121404D01*
X30737Y120989D01*
X30513Y120446D01*
Y119859D01*
X30737Y119316D01*
X31153Y118901D01*
X31695Y118676D01*
X32283D01*
X32825Y118901D01*
X33241Y119316D01*
X33465Y119859D01*
Y120446D01*
X33241Y120989D01*
X32825Y121404D01*
X32283Y121629D01*
D02*
G37*
G36*
X23604Y123006D02*
X22852D01*
X22127Y122811D01*
X21476Y122436D01*
X20944Y121904D01*
X20569Y121253D01*
X20374Y120528D01*
Y119776D01*
X20569Y119050D01*
X20944Y118399D01*
X21476Y117868D01*
X22127Y117492D01*
X22852Y117297D01*
X23604D01*
X24330Y117492D01*
X24981Y117868D01*
X25512Y118399D01*
X25888Y119050D01*
X26083Y119776D01*
Y120528D01*
X25888Y121253D01*
X25512Y121904D01*
X24981Y122436D01*
X24330Y122811D01*
X23604Y123006D01*
D02*
G37*
G36*
X125723Y119856D02*
X125135D01*
X124593Y119632D01*
X124177Y119216D01*
X123952Y118674D01*
Y118086D01*
X124177Y117544D01*
X124593Y117128D01*
X125135Y116904D01*
X125723D01*
X126265Y117128D01*
X126681Y117544D01*
X126905Y118086D01*
Y118674D01*
X126681Y119216D01*
X126265Y119632D01*
X125723Y119856D01*
D02*
G37*
G36*
X72749D02*
X72161D01*
X71619Y119632D01*
X71203Y119216D01*
X70979Y118674D01*
Y118086D01*
X71203Y117544D01*
X71619Y117128D01*
X72161Y116904D01*
X72749D01*
X73291Y117128D01*
X73707Y117544D01*
X73931Y118086D01*
Y118674D01*
X73707Y119216D01*
X73291Y119632D01*
X72749Y119856D01*
D02*
G37*
G36*
X134308Y119856D02*
X133721D01*
X133178Y119632D01*
X132763Y119216D01*
X132538Y118674D01*
Y118086D01*
X132763Y117544D01*
X133178Y117128D01*
X133721Y116904D01*
X134308D01*
X134851Y117128D01*
X135266Y117544D01*
X135491Y118086D01*
Y118674D01*
X135266Y119216D01*
X134851Y119632D01*
X134308Y119856D01*
D02*
G37*
G36*
X173867Y117936D02*
X173280D01*
X172737Y117711D01*
X172322Y117296D01*
X172097Y116754D01*
Y116166D01*
X172322Y115624D01*
X172737Y115208D01*
X173280Y114983D01*
X173867D01*
X174410Y115208D01*
X174825Y115624D01*
X175050Y116166D01*
Y116754D01*
X174825Y117296D01*
X174410Y117711D01*
X173867Y117936D01*
D02*
G37*
G36*
X181888Y111392D02*
X181301D01*
X180758Y111167D01*
X180343Y110752D01*
X180166Y110873D01*
X180069Y110970D01*
X179526Y111195D01*
X178939D01*
X178396Y110970D01*
X177981Y110555D01*
X177756Y110012D01*
Y109505D01*
X177473Y109213D01*
X177361Y109128D01*
X176773D01*
X176231Y108903D01*
X175815Y108488D01*
X175591Y107945D01*
Y107358D01*
X175815Y106815D01*
X176231Y106400D01*
X176773Y106175D01*
X177361D01*
X177903Y106400D01*
X178199Y106696D01*
X178494Y106400D01*
X179037Y106175D01*
X179624D01*
X180167Y106400D01*
X180284Y106517D01*
X180610Y106792D01*
X180937Y106517D01*
X181053Y106400D01*
X181596Y106175D01*
X182183D01*
X182726Y106400D01*
X183141Y106815D01*
X183366Y107358D01*
Y107945D01*
X183141Y108488D01*
X182726Y108903D01*
X182717Y108950D01*
X182846Y109079D01*
X183071Y109622D01*
Y110209D01*
X182846Y110752D01*
X182431Y111167D01*
X181888Y111392D01*
D02*
G37*
G36*
X39270Y112770D02*
X38683D01*
X38140Y112545D01*
X37725Y112130D01*
X37500Y111587D01*
Y111000D01*
X37725Y110457D01*
X38140Y110042D01*
X38683Y109817D01*
X39270D01*
X39813Y110042D01*
X40228Y110457D01*
X40453Y111000D01*
Y111587D01*
X40228Y112130D01*
X39813Y112545D01*
X39270Y112770D01*
D02*
G37*
G36*
X157433Y112671D02*
X156845D01*
X156303Y112447D01*
X155887Y112031D01*
X155663Y111489D01*
Y110901D01*
X155887Y110359D01*
X156303Y109943D01*
X156845Y109719D01*
X157433D01*
X157975Y109943D01*
X158391Y110359D01*
X158615Y110901D01*
Y111489D01*
X158391Y112031D01*
X157975Y112447D01*
X157433Y112671D01*
D02*
G37*
G36*
X47144Y112565D02*
X46557D01*
X46014Y112340D01*
X45599Y111925D01*
X45374Y111382D01*
Y110795D01*
X45599Y110252D01*
X46014Y109837D01*
X46557Y109612D01*
X47144D01*
X47687Y109837D01*
X48102Y110252D01*
X48327Y110795D01*
Y111382D01*
X48102Y111925D01*
X47687Y112340D01*
X47144Y112565D01*
D02*
G37*
G36*
X43109D02*
X42521D01*
X41979Y112340D01*
X41563Y111925D01*
X41339Y111382D01*
Y110795D01*
X41563Y110252D01*
X41979Y109837D01*
X42521Y109612D01*
X43109D01*
X43651Y109837D01*
X44067Y110252D01*
X44291Y110795D01*
Y111382D01*
X44067Y111925D01*
X43651Y112340D01*
X43109Y112565D01*
D02*
G37*
G36*
X120035Y111739D02*
X119448D01*
X118905Y111514D01*
X118490Y111099D01*
X118265Y110556D01*
Y109969D01*
X118490Y109426D01*
X118905Y109011D01*
X119448Y108786D01*
X120035D01*
X120578Y109011D01*
X120804Y109237D01*
X121176Y109343D01*
X121441Y109221D01*
X121703Y108959D01*
X122246Y108734D01*
X122833D01*
X123376Y108959D01*
X123791Y109374D01*
X124016Y109917D01*
Y110504D01*
X123791Y111047D01*
X123376Y111462D01*
X122833Y111687D01*
X122246D01*
X121703Y111462D01*
X121477Y111236D01*
X121105Y111130D01*
X120840Y111252D01*
X120578Y111514D01*
X120035Y111739D01*
D02*
G37*
G36*
X205117Y111293D02*
X204529D01*
X203987Y111069D01*
X203571Y110653D01*
X203346Y110111D01*
Y109523D01*
X203571Y108981D01*
X203987Y108565D01*
X204529Y108341D01*
X205117D01*
X205659Y108565D01*
X206074Y108981D01*
X206299Y109523D01*
Y110111D01*
X206074Y110653D01*
X205659Y111069D01*
X205117Y111293D01*
D02*
G37*
G36*
X148620Y107947D02*
X148033D01*
X147490Y107722D01*
X147075Y107307D01*
X146850Y106764D01*
Y106177D01*
X147075Y105634D01*
X147490Y105219D01*
X148033Y104994D01*
X148620D01*
X149163Y105219D01*
X149578Y105634D01*
X149803Y106177D01*
Y106764D01*
X149578Y107307D01*
X149163Y107722D01*
X148620Y107947D01*
D02*
G37*
G36*
X134939D02*
X134352D01*
X133809Y107722D01*
X133394Y107307D01*
X133169Y106764D01*
Y106177D01*
X133394Y105634D01*
X133809Y105219D01*
X134352Y104994D01*
X134939D01*
X135482Y105219D01*
X135897Y105634D01*
X136122Y106177D01*
Y106764D01*
X135897Y107307D01*
X135482Y107722D01*
X134939Y107947D01*
D02*
G37*
G36*
X141779Y107841D02*
X141192D01*
X140649Y107616D01*
X140234Y107201D01*
X140009Y106658D01*
Y106071D01*
X140234Y105528D01*
X140649Y105113D01*
X141192Y104888D01*
X141779D01*
X142322Y105113D01*
X142737Y105528D01*
X142962Y106071D01*
Y106658D01*
X142737Y107201D01*
X142322Y107616D01*
X141779Y107841D01*
D02*
G37*
G36*
X24014Y107652D02*
X23427D01*
X22884Y107427D01*
X22469Y107012D01*
X22244Y106469D01*
Y105882D01*
X22469Y105339D01*
X22884Y104924D01*
X23427Y104699D01*
X24014D01*
X24557Y104924D01*
X24972Y105339D01*
X25197Y105882D01*
Y106469D01*
X24972Y107012D01*
X24557Y107427D01*
X24014Y107652D01*
D02*
G37*
G36*
X116393Y108642D02*
X115806D01*
X115263Y108417D01*
X114848Y108002D01*
X114623Y107459D01*
Y106872D01*
X114846Y106335D01*
X115002Y105925D01*
X114987Y105852D01*
X114572Y105437D01*
X114347Y104894D01*
X113906Y104552D01*
X113647Y104582D01*
X113503Y105039D01*
X113823Y105359D01*
X114048Y105902D01*
Y106489D01*
X113823Y107032D01*
X113408Y107447D01*
X112865Y107672D01*
X112278D01*
X111736Y107447D01*
X111320Y107032D01*
X111095Y106489D01*
Y105902D01*
X111320Y105359D01*
X111736Y104944D01*
X112278Y104719D01*
X112726D01*
X112808Y104569D01*
X112890Y104229D01*
X112541Y103880D01*
X112316Y103338D01*
Y102750D01*
X112541Y102208D01*
X112956Y101792D01*
X113499Y101568D01*
X114086D01*
X114629Y101792D01*
X115044Y102208D01*
X115269Y102750D01*
Y102950D01*
X115530Y103124D01*
X116117D01*
X116660Y103349D01*
X117075Y103764D01*
X117300Y104307D01*
Y104490D01*
X117329Y104527D01*
X117800Y104783D01*
X118140Y104642D01*
X118728D01*
X119270Y104866D01*
X119686Y105282D01*
X119911Y105824D01*
Y106412D01*
X119686Y106954D01*
X119270Y107369D01*
X118728Y107594D01*
X118140D01*
X118037Y107552D01*
X117576Y107459D01*
X117351Y108002D01*
X116936Y108417D01*
X116393Y108642D01*
D02*
G37*
G36*
X218896Y104404D02*
X218309D01*
X217766Y104179D01*
X217421Y103834D01*
X217076Y104179D01*
X216534Y104404D01*
X215947D01*
X215404Y104179D01*
X215059Y103834D01*
X214714Y104179D01*
X214172Y104404D01*
X213584D01*
X213042Y104179D01*
X212697Y103834D01*
X212352Y104179D01*
X211809Y104404D01*
X211222D01*
X210679Y104179D01*
X210264Y103764D01*
X210039Y103221D01*
Y102634D01*
X210264Y102091D01*
X210479Y101876D01*
X210624Y101549D01*
X210479Y101223D01*
X210264Y101008D01*
X210039Y100465D01*
Y99878D01*
X210264Y99335D01*
X210679Y98920D01*
X211222Y98695D01*
X211809D01*
X212352Y98920D01*
X212697Y99265D01*
X213042Y98920D01*
X213584Y98695D01*
X214172D01*
X214714Y98920D01*
X215059Y99265D01*
X215404Y98920D01*
X215947Y98695D01*
X216534D01*
X217076Y98920D01*
X217421Y99265D01*
X217766Y98920D01*
X218309Y98695D01*
X218896D01*
X219439Y98920D01*
X219854Y99335D01*
X220079Y99878D01*
Y100465D01*
X219854Y101008D01*
X219639Y101223D01*
X219495Y101549D01*
X219639Y101876D01*
X219854Y102091D01*
X220079Y102634D01*
Y103221D01*
X219854Y103764D01*
X219439Y104179D01*
X218896Y104404D01*
D02*
G37*
G36*
X157183Y106667D02*
X156596D01*
X156053Y106443D01*
X155638Y106027D01*
X155413Y105485D01*
Y104897D01*
X155638Y104355D01*
X156053Y103939D01*
X156596Y103715D01*
X157183D01*
X157726Y103939D01*
X158141Y104355D01*
X158366Y104897D01*
Y105485D01*
X158141Y106027D01*
X157726Y106443D01*
X157183Y106667D01*
D02*
G37*
G36*
X131790Y103616D02*
X131202D01*
X130660Y103392D01*
X130245Y102976D01*
X130086Y102593D01*
X129558Y102561D01*
X129499Y102702D01*
X129084Y103118D01*
X128541Y103342D01*
X127954D01*
X127411Y103118D01*
X126996Y102702D01*
X126771Y102160D01*
Y101572D01*
X126996Y101030D01*
X127411Y100614D01*
X127954Y100390D01*
X128541D01*
X129084Y100614D01*
X129499Y101030D01*
X129658Y101413D01*
X130186Y101445D01*
X130245Y101304D01*
X130660Y100888D01*
X131202Y100663D01*
X131790D01*
X132332Y100888D01*
X132748Y101304D01*
X132972Y101846D01*
Y102434D01*
X132748Y102976D01*
X132332Y103392D01*
X131790Y103616D01*
D02*
G37*
G36*
X76376Y103321D02*
X75789D01*
X75246Y103096D01*
X74831Y102681D01*
X74606Y102138D01*
Y101551D01*
X74831Y101008D01*
X75246Y100593D01*
X75789Y100368D01*
X76376D01*
X76919Y100593D01*
X77334Y101008D01*
X77559Y101551D01*
Y102138D01*
X77334Y102681D01*
X76919Y103096D01*
X76376Y103321D01*
D02*
G37*
G36*
X122926Y101935D02*
X122339D01*
X121797Y101710D01*
X121381Y101295D01*
X121157Y100752D01*
Y100165D01*
X121381Y99622D01*
X121797Y99207D01*
X122339Y98982D01*
X122926D01*
X123469Y99207D01*
X123884Y99622D01*
X124109Y100165D01*
Y100752D01*
X123884Y101295D01*
X123469Y101710D01*
X122926Y101935D01*
D02*
G37*
G36*
X90550Y99475D02*
X89962D01*
X89420Y99250D01*
X89159Y98989D01*
X88935Y98855D01*
X88521Y98974D01*
X88336Y99159D01*
X87794Y99384D01*
X87206D01*
X86664Y99159D01*
X86248Y98744D01*
X86024Y98201D01*
Y97614D01*
X86248Y97071D01*
X86664Y96656D01*
X87206Y96431D01*
X87794D01*
X88336Y96656D01*
X88597Y96916D01*
X88821Y97051D01*
X89235Y96931D01*
X89420Y96747D01*
X89962Y96522D01*
X90550D01*
X91092Y96747D01*
X91508Y97162D01*
X91732Y97704D01*
Y98292D01*
X91508Y98835D01*
X91092Y99250D01*
X90550Y99475D01*
D02*
G37*
G36*
X155707Y98075D02*
X155120D01*
X154577Y97850D01*
X154162Y97435D01*
X153937Y96892D01*
Y96305D01*
X154162Y95762D01*
X154577Y95347D01*
X155120Y95122D01*
X155707D01*
X156250Y95347D01*
X156665Y95762D01*
X156890Y96305D01*
Y96892D01*
X156665Y97435D01*
X156250Y97850D01*
X155707Y98075D01*
D02*
G37*
G36*
X7085Y98301D02*
X6498D01*
X5955Y98076D01*
X5540Y97661D01*
X5315Y97119D01*
Y96531D01*
X5540Y95989D01*
X5955Y95573D01*
X6201Y95472D01*
Y94930D01*
X5955Y94828D01*
X5540Y94413D01*
X5315Y93871D01*
Y93283D01*
X5540Y92741D01*
X5955Y92325D01*
X6498Y92101D01*
X7085D01*
X7628Y92325D01*
X8043Y92741D01*
X8268Y93283D01*
Y93871D01*
X8043Y94413D01*
X7628Y94828D01*
X7382Y94930D01*
Y95472D01*
X7628Y95573D01*
X8043Y95989D01*
X8268Y96531D01*
Y97119D01*
X8043Y97661D01*
X7628Y98076D01*
X7085Y98301D01*
D02*
G37*
G36*
X203050Y94364D02*
X202462D01*
X201920Y94139D01*
X201504Y93724D01*
X201279Y93182D01*
Y92594D01*
X201504Y92052D01*
X201920Y91636D01*
X202462Y91412D01*
X203050D01*
X203592Y91636D01*
X204008Y92052D01*
X204232Y92594D01*
Y93182D01*
X204008Y93724D01*
X203592Y94139D01*
X203050Y94364D01*
D02*
G37*
G36*
X23059Y87778D02*
X22472D01*
X21929Y87553D01*
X21514Y87138D01*
X21289Y86595D01*
Y86008D01*
X21514Y85465D01*
X21929Y85050D01*
X22472Y84825D01*
X23059D01*
X23602Y85050D01*
X24017Y85465D01*
X24242Y86008D01*
Y86595D01*
X24017Y87138D01*
X23602Y87553D01*
X23059Y87778D01*
D02*
G37*
G36*
X207479Y84128D02*
X206891D01*
X206349Y83903D01*
X205933Y83488D01*
X205709Y82945D01*
Y82358D01*
X205933Y81815D01*
X206349Y81400D01*
X206891Y81175D01*
X207479D01*
X208021Y81400D01*
X208437Y81815D01*
X208661Y82358D01*
Y82945D01*
X208437Y83488D01*
X208021Y83903D01*
X207479Y84128D01*
D02*
G37*
G36*
X15943Y80093D02*
X15356D01*
X14813Y79868D01*
X14398Y79453D01*
X14173Y78910D01*
Y78323D01*
X14398Y77780D01*
X14813Y77365D01*
X15356Y77140D01*
X15943D01*
X16486Y77365D01*
X16901Y77780D01*
X17126Y78323D01*
Y78910D01*
X16901Y79453D01*
X16486Y79868D01*
X15943Y80093D01*
D02*
G37*
G36*
X220176Y79637D02*
X219588D01*
X219046Y79412D01*
X218630Y78997D01*
X218406Y78454D01*
Y77867D01*
X218630Y77324D01*
X219046Y76909D01*
X219588Y76684D01*
X220176D01*
X220718Y76909D01*
X221133Y77324D01*
X221358Y77867D01*
Y78454D01*
X221133Y78997D01*
X220718Y79412D01*
X220176Y79637D01*
D02*
G37*
G36*
X216140D02*
X215553D01*
X215010Y79412D01*
X214595Y78997D01*
X214370Y78454D01*
Y77867D01*
X214595Y77324D01*
X215010Y76909D01*
X215553Y76684D01*
X216140D01*
X216683Y76909D01*
X217098Y77324D01*
X217323Y77867D01*
Y78454D01*
X217098Y78997D01*
X216683Y79412D01*
X216140Y79637D01*
D02*
G37*
G36*
X203935Y75368D02*
X203348D01*
X202805Y75143D01*
X202390Y74728D01*
X202165Y74186D01*
Y73598D01*
X202390Y73056D01*
X202805Y72640D01*
X203348Y72416D01*
X203935D01*
X204478Y72640D01*
X204893Y73056D01*
X205118Y73598D01*
Y74186D01*
X204893Y74728D01*
X204478Y75143D01*
X203935Y75368D01*
D02*
G37*
G36*
X16329Y62868D02*
X15742D01*
X15199Y62643D01*
X14784Y62228D01*
X14559Y61686D01*
Y61098D01*
X14784Y60556D01*
X15199Y60140D01*
X15742Y59916D01*
X16329D01*
X16872Y60140D01*
X17287Y60556D01*
X17512Y61098D01*
Y61686D01*
X17287Y62228D01*
X16872Y62643D01*
X16329Y62868D01*
D02*
G37*
G36*
X215156Y59227D02*
X214568D01*
X214026Y59002D01*
X213611Y58586D01*
X213386Y58044D01*
Y57456D01*
X213611Y56914D01*
X214026Y56498D01*
X214568Y56274D01*
X215156D01*
X215699Y56498D01*
X216114Y56914D01*
X216339Y57456D01*
Y58044D01*
X216114Y58586D01*
X215699Y59002D01*
X215156Y59227D01*
D02*
G37*
G36*
X3542Y56175D02*
X2954D01*
X2412Y55950D01*
X1996Y55535D01*
X1772Y54993D01*
Y54405D01*
X1996Y53863D01*
X2412Y53447D01*
X2954Y53223D01*
X3542D01*
X4084Y53447D01*
X4500Y53863D01*
X4724Y54405D01*
Y54993D01*
X4500Y55535D01*
X4084Y55950D01*
X3542Y56175D01*
D02*
G37*
G36*
X217912Y52238D02*
X217324D01*
X216782Y52013D01*
X216367Y51598D01*
X216142Y51056D01*
Y50468D01*
X216367Y49926D01*
X216782Y49510D01*
X217324Y49286D01*
X217912D01*
X218454Y49510D01*
X218870Y49926D01*
X219094Y50468D01*
Y51056D01*
X218870Y51598D01*
X218454Y52013D01*
X217912Y52238D01*
D02*
G37*
G36*
X216623Y39894D02*
X216036D01*
X215493Y39669D01*
X215078Y39254D01*
X214853Y38711D01*
Y38124D01*
X215078Y37581D01*
X215493Y37166D01*
X216036Y36941D01*
X216623D01*
X217165Y37166D01*
X217581Y37581D01*
X217806Y38124D01*
Y38711D01*
X217581Y39254D01*
X217165Y39669D01*
X216623Y39894D01*
D02*
G37*
G36*
X213146Y38131D02*
X212559D01*
X212016Y37906D01*
X211601Y37491D01*
X211376Y36948D01*
Y36361D01*
X211601Y35818D01*
X212016Y35403D01*
X212559Y35178D01*
X213146D01*
X213689Y35403D01*
X214104Y35818D01*
X214329Y36361D01*
Y36948D01*
X214104Y37491D01*
X213689Y37906D01*
X213146Y38131D01*
D02*
G37*
G36*
X216337Y31175D02*
X215750D01*
X215207Y30950D01*
X214792Y30535D01*
X214567Y29993D01*
Y29405D01*
X214792Y28863D01*
X215207Y28447D01*
X215750Y28223D01*
X216337D01*
X216880Y28447D01*
X217295Y28863D01*
X217520Y29405D01*
Y29993D01*
X217295Y30535D01*
X216880Y30950D01*
X216337Y31175D01*
D02*
G37*
G36*
X3148Y29896D02*
X2561D01*
X2018Y29671D01*
X1603Y29256D01*
X1378Y28713D01*
Y28126D01*
X1603Y27583D01*
X2018Y27168D01*
X2561Y26943D01*
X3148D01*
X3691Y27168D01*
X4106Y27583D01*
X4331Y28126D01*
Y28713D01*
X4106Y29256D01*
X3691Y29671D01*
X3148Y29896D01*
D02*
G37*
G36*
X215229Y16313D02*
X214642D01*
X214099Y16088D01*
X213684Y15673D01*
X213459Y15130D01*
Y14543D01*
X213579Y14254D01*
X213503Y13845D01*
X213315Y13683D01*
X212943Y13529D01*
X212528Y13114D01*
X212303Y12571D01*
Y11984D01*
X212528Y11441D01*
X212943Y11026D01*
X213486Y10801D01*
X214073D01*
X214616Y11026D01*
X215031Y11441D01*
X215256Y11984D01*
Y12571D01*
X215136Y12860D01*
X215212Y13270D01*
X215400Y13431D01*
X215772Y13585D01*
X216187Y14000D01*
X216412Y14543D01*
Y15130D01*
X216187Y15673D01*
X215772Y16088D01*
X215229Y16313D01*
D02*
G37*
G36*
X7799Y13360D02*
X7212D01*
X6669Y13136D01*
X6254Y12720D01*
X6029Y12178D01*
Y11590D01*
X6254Y11048D01*
X6669Y10632D01*
X7212Y10408D01*
X7799D01*
X8342Y10632D01*
X8757Y11048D01*
X8982Y11590D01*
Y12178D01*
X8757Y12720D01*
X8342Y13136D01*
X7799Y13360D01*
D02*
G37*
G36*
X13483Y12671D02*
X12895D01*
X12353Y12447D01*
X11937Y12031D01*
X11713Y11489D01*
Y10901D01*
X11937Y10359D01*
X12353Y9943D01*
X12895Y9719D01*
X13483D01*
X14025Y9943D01*
X14441Y10359D01*
X14665Y10901D01*
Y11489D01*
X14441Y12031D01*
X14025Y12447D01*
X13483Y12671D01*
D02*
G37*
G36*
X216238Y6963D02*
X215651D01*
X215109Y6738D01*
X214693Y6323D01*
X214469Y5780D01*
Y5193D01*
X214693Y4650D01*
X215109Y4235D01*
X215651Y4010D01*
X216238D01*
X216781Y4235D01*
X217196Y4650D01*
X217421Y5193D01*
Y5780D01*
X217196Y6323D01*
X216781Y6738D01*
X216238Y6963D01*
D02*
G37*
G36*
X115636Y68374D02*
X115049D01*
X114506Y68149D01*
X114390Y68033D01*
X114063Y67757D01*
X113736Y68033D01*
X113620Y68149D01*
X113077Y68374D01*
X112490D01*
X111947Y68149D01*
X111831Y68033D01*
X111504Y67757D01*
X111177Y68033D01*
X111061Y68149D01*
X110518Y68374D01*
X109931D01*
X109388Y68149D01*
X108973Y67734D01*
X108748Y67191D01*
Y66604D01*
X108973Y66061D01*
X109388Y65646D01*
X109931Y65421D01*
X110518D01*
X111061Y65646D01*
X111177Y65763D01*
X111504Y66038D01*
X111831Y65763D01*
X111947Y65646D01*
X112490Y65421D01*
X113077D01*
X113620Y65646D01*
X113736Y65763D01*
X114063Y66038D01*
X114390Y65763D01*
X114506Y65646D01*
X115049Y65421D01*
X115636D01*
X116179Y65646D01*
X116594Y66061D01*
X116819Y66604D01*
Y67191D01*
X116594Y67734D01*
X116179Y68149D01*
X115636Y68374D01*
D02*
G37*
G36*
X133746Y68276D02*
X133159D01*
X132616Y68051D01*
X132500Y67934D01*
X132173Y67659D01*
X131847Y67934D01*
X131730Y68051D01*
X131187Y68276D01*
X130600D01*
X130057Y68051D01*
X129941Y67934D01*
X129614Y67659D01*
X129288Y67934D01*
X129171Y68051D01*
X128628Y68276D01*
X128041D01*
X127498Y68051D01*
X127083Y67636D01*
X126858Y67093D01*
Y66505D01*
X127083Y65963D01*
X127498Y65548D01*
X128041Y65323D01*
X128628D01*
X129171Y65548D01*
X129288Y65664D01*
X129614Y65939D01*
X129941Y65664D01*
X130057Y65548D01*
X130600Y65323D01*
X131187D01*
X131730Y65548D01*
X131847Y65664D01*
X132173Y65939D01*
X132500Y65664D01*
X132616Y65548D01*
X133159Y65323D01*
X133746D01*
X134289Y65548D01*
X134704Y65963D01*
X134929Y66505D01*
Y67093D01*
X134704Y67636D01*
X134289Y68051D01*
X133746Y68276D01*
D02*
G37*
G36*
X64884Y75841D02*
X64297D01*
X63754Y75616D01*
X63339Y75201D01*
X63114Y74658D01*
Y74071D01*
X63339Y73528D01*
X63492Y73375D01*
X63277Y73159D01*
X63052Y72617D01*
Y72029D01*
X63277Y71487D01*
X63474Y71289D01*
X63277Y71092D01*
X63052Y70550D01*
Y69962D01*
X63277Y69420D01*
X63474Y69223D01*
X63277Y69025D01*
X63052Y68483D01*
Y67895D01*
X63277Y67353D01*
X63692Y66938D01*
X64235Y66713D01*
X64822D01*
X65365Y66938D01*
X65512Y67085D01*
X65707Y66890D01*
X66250Y66665D01*
X66837D01*
X67380Y66890D01*
X67581Y67091D01*
X67746Y66926D01*
X68289Y66701D01*
X68876D01*
X69419Y66926D01*
X69620Y67127D01*
X69821Y66926D01*
X70364Y66701D01*
X70951D01*
X71494Y66926D01*
X71909Y67341D01*
X72134Y67883D01*
Y68471D01*
X71909Y69014D01*
X71712Y69211D01*
X71909Y69408D01*
X72134Y69950D01*
Y70538D01*
X71909Y71080D01*
X71712Y71278D01*
X71909Y71475D01*
X72134Y72017D01*
Y72605D01*
X71909Y73147D01*
X71756Y73301D01*
X71971Y73516D01*
X72196Y74059D01*
Y74646D01*
X71971Y75189D01*
X71556Y75604D01*
X71013Y75829D01*
X70426D01*
X69883Y75604D01*
X69682Y75403D01*
X69481Y75604D01*
X68938Y75829D01*
X68351D01*
X67809Y75604D01*
X67607Y75403D01*
X67442Y75568D01*
X66900Y75793D01*
X66312D01*
X65769Y75568D01*
X65622Y75421D01*
X65427Y75616D01*
X64884Y75841D01*
D02*
G37*
G36*
X106878Y77641D02*
X87980D01*
X87673Y77580D01*
X87413Y77406D01*
X87239Y77146D01*
X87177Y76839D01*
Y56063D01*
X87204Y55929D01*
X87239Y55756D01*
X87239Y55756D01*
Y55756D01*
X87304Y55658D01*
X87413Y55496D01*
X87413Y55496D01*
X87413Y55496D01*
X87499Y55438D01*
X87764Y55173D01*
X87866Y54925D01*
Y54657D01*
X87764Y54410D01*
X87499Y54145D01*
X87413Y54087D01*
X87413Y54087D01*
X87413Y54087D01*
X87304Y53925D01*
X87239Y53827D01*
Y53827D01*
X87239Y53827D01*
X87204Y53653D01*
X87177Y53519D01*
Y50811D01*
X87239Y50504D01*
X87413Y50244D01*
X93113Y44543D01*
Y43972D01*
X92651Y43780D01*
X78547Y57885D01*
X78121Y58169D01*
X77619Y58269D01*
X62435D01*
X61932Y58169D01*
X61507Y57885D01*
X55289Y51667D01*
X51752D01*
X51250Y51567D01*
X50824Y51283D01*
X48618Y49077D01*
X48118Y49284D01*
Y49376D01*
X47893Y49919D01*
X47478Y50334D01*
X46935Y50559D01*
X46348D01*
X45805Y50334D01*
X45390Y49919D01*
X45165Y49376D01*
Y48789D01*
X45390Y48246D01*
X45805Y47831D01*
X46348Y47606D01*
X46441D01*
X46648Y47106D01*
X46395Y46853D01*
X46230Y46607D01*
X46199Y46594D01*
X45784Y46179D01*
X45559Y45636D01*
Y45049D01*
X45784Y44506D01*
X46199Y44091D01*
X46742Y43866D01*
X47329D01*
X47872Y44091D01*
X48287Y44506D01*
X48512Y45049D01*
Y45248D01*
X48532Y45278D01*
X52296Y49042D01*
X55832D01*
X56335Y49142D01*
X56761Y49426D01*
X58044Y50710D01*
X58634Y50593D01*
X58662Y50526D01*
X59077Y50110D01*
X59620Y49886D01*
X60207D01*
X60750Y50110D01*
X61165Y50526D01*
X61390Y51068D01*
Y51656D01*
X61165Y52198D01*
X60750Y52614D01*
X60683Y52641D01*
X60566Y53231D01*
X62979Y55644D01*
X77075D01*
X78182Y54537D01*
X77975Y54037D01*
X73905D01*
X73403Y53937D01*
X72977Y53653D01*
X64802Y45477D01*
X64212Y45595D01*
X64134Y45785D01*
X63718Y46200D01*
X63176Y46425D01*
X62588D01*
X62046Y46200D01*
X61630Y45785D01*
X61405Y45243D01*
Y44655D01*
X61630Y44113D01*
X62046Y43697D01*
X62236Y43618D01*
X62353Y43029D01*
X57971Y38646D01*
X57912Y38622D01*
X57496Y38206D01*
X57272Y37664D01*
Y37076D01*
X57496Y36534D01*
X57912Y36119D01*
X58454Y35894D01*
X59042D01*
X59584Y36119D01*
X60000Y36534D01*
X60224Y37076D01*
Y37187D01*
X74449Y51412D01*
X78086D01*
X81783Y47715D01*
X81754Y47214D01*
X81305Y46914D01*
X81099Y47000D01*
X80512D01*
X79969Y46775D01*
X79554Y46360D01*
X79329Y45817D01*
Y45230D01*
X79554Y44687D01*
X79969Y44272D01*
X80512Y44047D01*
X81099D01*
X81642Y44272D01*
X82057Y44687D01*
X82060Y44693D01*
X82676Y44875D01*
X82972Y44752D01*
X83559D01*
X84102Y44977D01*
X84517Y45392D01*
X84742Y45935D01*
Y46522D01*
X84517Y47065D01*
X84462Y47120D01*
X84512Y47591D01*
X84952Y47767D01*
X97754Y34966D01*
X98179Y34681D01*
X98682Y34581D01*
X103532D01*
X104034Y34681D01*
X104460Y34966D01*
X106437Y36943D01*
X108649D01*
X108728Y36476D01*
X108186Y36252D01*
X107771Y35836D01*
X107546Y35294D01*
Y34706D01*
X107771Y34164D01*
X108186Y33748D01*
X108728Y33524D01*
X109316D01*
X109858Y33748D01*
X110274Y34164D01*
X110498Y34706D01*
Y35294D01*
X110274Y35836D01*
X109858Y36252D01*
X109316Y36476D01*
X109396Y36943D01*
X128366D01*
X128978Y36331D01*
X129142Y35935D01*
X129557Y35520D01*
X130100Y35295D01*
X130687D01*
X131230Y35520D01*
X131645Y35935D01*
X131870Y36478D01*
Y37065D01*
X131645Y37608D01*
X131230Y38023D01*
X130835Y38187D01*
X130775Y38247D01*
X130954Y38775D01*
X131336Y38934D01*
X131752Y39349D01*
X131976Y39891D01*
Y40479D01*
X131752Y41021D01*
X131336Y41437D01*
X130794Y41661D01*
X130206D01*
X129664Y41437D01*
X129248Y41021D01*
X129024Y40479D01*
Y40056D01*
X128976Y39854D01*
X128616Y39568D01*
X110923D01*
X110607Y40069D01*
X110716Y40334D01*
Y40921D01*
X110492Y41464D01*
X110076Y41879D01*
X109534Y42104D01*
X108947D01*
X108404Y41879D01*
X107989Y41464D01*
X107764Y40921D01*
Y40334D01*
X107874Y40069D01*
X107558Y39568D01*
X105894D01*
X105391Y39469D01*
X104965Y39184D01*
X102988Y37206D01*
X101178D01*
X100971Y37706D01*
X101092Y37827D01*
X101233Y38169D01*
X107446Y44381D01*
X107568Y44564D01*
X107927Y44552D01*
X108085Y44507D01*
X108293Y44005D01*
X108708Y43590D01*
X109251Y43365D01*
X109838D01*
X110381Y43590D01*
X110796Y44005D01*
X111021Y44548D01*
Y45135D01*
X110796Y45678D01*
X110381Y46093D01*
X109838Y46318D01*
X109251D01*
X108708Y46093D01*
X108293Y45678D01*
X108181Y45407D01*
X107681Y45507D01*
Y47210D01*
X107659Y47322D01*
X107649Y47436D01*
X107628Y47475D01*
X107620Y47518D01*
X107556Y47612D01*
X107504Y47713D01*
X107470Y47741D01*
X107446Y47778D01*
X107351Y47841D01*
X107264Y47914D01*
X106981Y48069D01*
X106947Y48143D01*
X107061Y48419D01*
Y49006D01*
X106836Y49549D01*
X106608Y49777D01*
X106850Y50018D01*
X107075Y50561D01*
Y51148D01*
X106850Y51691D01*
X106600Y51940D01*
X106803Y52143D01*
X107028Y52686D01*
Y53273D01*
X106803Y53816D01*
X106629Y53990D01*
X106841Y54202D01*
X107066Y54744D01*
Y55332D01*
X106841Y55874D01*
X106695Y56020D01*
X106948Y56273D01*
X107173Y56815D01*
Y57403D01*
X106948Y57945D01*
X106533Y58361D01*
X105991Y58585D01*
X105403D01*
X104861Y58361D01*
X104708Y58208D01*
X104543Y58373D01*
X104000Y58598D01*
X103413D01*
X102870Y58373D01*
X102671Y58174D01*
X102484Y58361D01*
X101942Y58585D01*
X101354D01*
X100812Y58361D01*
X100556Y58105D01*
X100375Y58285D01*
X99833Y58510D01*
X99739D01*
X99401Y58872D01*
X99405Y59010D01*
X99405Y59010D01*
X99380Y59137D01*
X99364Y59265D01*
X99350Y59290D01*
X99344Y59318D01*
X99272Y59425D01*
X99238Y59485D01*
X99118Y59776D01*
Y60043D01*
X99220Y60291D01*
X99291Y60361D01*
X99464Y60622D01*
X99526Y60929D01*
X99464Y61236D01*
X99291Y61497D01*
X99291Y61497D01*
X99220Y61567D01*
X99118Y61814D01*
Y62082D01*
X99220Y62330D01*
X99303Y62412D01*
X99477Y62672D01*
X99538Y62980D01*
X99477Y63287D01*
X99303Y63547D01*
X99303Y63547D01*
X99220Y63630D01*
X99118Y63877D01*
Y64145D01*
X99220Y64393D01*
X99410Y64582D01*
X99657Y64685D01*
X99925D01*
X100173Y64582D01*
X100208Y64547D01*
X100468Y64373D01*
X100776Y64312D01*
X101083Y64373D01*
X101343Y64547D01*
X101343Y64547D01*
X101378Y64582D01*
X101626Y64685D01*
X101894D01*
X102141Y64582D01*
X102176Y64547D01*
X102437Y64373D01*
X102744Y64312D01*
X103051Y64373D01*
X103312Y64547D01*
X103312Y64547D01*
X103347Y64582D01*
X103594Y64685D01*
X103862D01*
X104110Y64582D01*
X104145Y64547D01*
X104405Y64373D01*
X104713Y64312D01*
X105020Y64373D01*
X105280Y64547D01*
X105280Y64547D01*
X105315Y64582D01*
X105563Y64685D01*
X105831D01*
X106071Y64585D01*
X106095Y64580D01*
X106117Y64568D01*
X106248Y64550D01*
X106378Y64524D01*
X106403Y64529D01*
X106427Y64526D01*
X106555Y64559D01*
X106685Y64585D01*
X106706Y64599D01*
X106730Y64606D01*
X107230Y64850D01*
X107336Y64930D01*
X107446Y65004D01*
X107460Y65024D01*
X107480Y65039D01*
X107546Y65154D01*
X107620Y65264D01*
X107625Y65289D01*
X107637Y65310D01*
X107655Y65441D01*
X107681Y65571D01*
Y76839D01*
X107620Y77146D01*
X107446Y77406D01*
X107185Y77580D01*
X106878Y77641D01*
D02*
G37*
G36*
X125183Y67193D02*
X124596D01*
X124054Y66968D01*
X123638Y66553D01*
X123413Y66010D01*
Y65423D01*
X123638Y64880D01*
X123680Y64839D01*
X123653Y64641D01*
X123513Y64298D01*
X123069Y64114D01*
X122654Y63699D01*
X122429Y63156D01*
Y62568D01*
X122654Y62026D01*
X123069Y61611D01*
X123612Y61386D01*
X124199D01*
X124742Y61611D01*
X125157Y62026D01*
X125382Y62568D01*
Y63156D01*
X125157Y63699D01*
X125115Y63740D01*
X125142Y63938D01*
X125282Y64281D01*
X125726Y64465D01*
X126141Y64880D01*
X126366Y65423D01*
Y66010D01*
X126141Y66553D01*
X125726Y66968D01*
X125183Y67193D01*
D02*
G37*
G36*
X59765Y61983D02*
X59178D01*
X58635Y61758D01*
X58220Y61343D01*
X57995Y60800D01*
Y60213D01*
X58220Y59670D01*
X58635Y59255D01*
X59178Y59030D01*
X59765D01*
X60308Y59255D01*
X60723Y59670D01*
X60948Y60213D01*
Y60800D01*
X60723Y61343D01*
X60308Y61758D01*
X59765Y61983D01*
D02*
G37*
G36*
X123215Y58236D02*
X122628D01*
X122085Y58011D01*
X121670Y57596D01*
X121445Y57054D01*
Y56466D01*
X121670Y55924D01*
X122085Y55508D01*
X122628Y55283D01*
X123215D01*
X123758Y55508D01*
X124173Y55924D01*
X124398Y56466D01*
Y57054D01*
X124173Y57596D01*
X123758Y58011D01*
X123215Y58236D01*
D02*
G37*
G36*
X129340Y64287D02*
X128753D01*
X128210Y64062D01*
X127795Y63647D01*
X127570Y63104D01*
Y62517D01*
X127795Y61974D01*
X127948Y61821D01*
X127733Y61606D01*
X127508Y61063D01*
Y60475D01*
X127733Y59933D01*
X127930Y59736D01*
X127733Y59539D01*
X127508Y58996D01*
Y58409D01*
X127733Y57866D01*
X127930Y57669D01*
X127733Y57472D01*
X127508Y56929D01*
Y56342D01*
X127733Y55799D01*
X128148Y55384D01*
X128691Y55159D01*
X129278D01*
X129821Y55384D01*
X129968Y55531D01*
X130163Y55336D01*
X130706Y55111D01*
X131293D01*
X131836Y55336D01*
X132037Y55537D01*
X132202Y55372D01*
X132745Y55147D01*
X133332D01*
X133875Y55372D01*
X134076Y55573D01*
X134277Y55372D01*
X134820Y55147D01*
X135407D01*
X135950Y55372D01*
X136365Y55787D01*
X136590Y56330D01*
Y56917D01*
X136365Y57460D01*
X136168Y57657D01*
X136365Y57854D01*
X136590Y58397D01*
Y58984D01*
X136365Y59527D01*
X136168Y59724D01*
X136365Y59921D01*
X136590Y60464D01*
Y61051D01*
X136365Y61594D01*
X136212Y61747D01*
X136427Y61962D01*
X136652Y62505D01*
Y63092D01*
X136427Y63635D01*
X136012Y64050D01*
X135469Y64275D01*
X134882D01*
X134339Y64050D01*
X134138Y63849D01*
X133937Y64050D01*
X133394Y64275D01*
X132807D01*
X132264Y64050D01*
X132063Y63849D01*
X131898Y64015D01*
X131355Y64239D01*
X130768D01*
X130225Y64015D01*
X130078Y63867D01*
X129883Y64062D01*
X129340Y64287D01*
D02*
G37*
G36*
X111142Y64214D02*
X110555D01*
X110012Y63989D01*
X109597Y63574D01*
X109372Y63032D01*
Y62444D01*
X109597Y61901D01*
X109750Y61748D01*
X109535Y61533D01*
X109310Y60990D01*
Y60403D01*
X109535Y59860D01*
X109732Y59663D01*
X109535Y59466D01*
X109310Y58923D01*
Y58336D01*
X109535Y57793D01*
X109732Y57596D01*
X109535Y57399D01*
X109310Y56856D01*
Y56269D01*
X109535Y55726D01*
X109950Y55311D01*
X110493Y55086D01*
X111080D01*
X111622Y55311D01*
X111770Y55458D01*
X111965Y55263D01*
X112508Y55038D01*
X113095D01*
X113638Y55263D01*
X113839Y55464D01*
X114004Y55299D01*
X114547Y55074D01*
X115134D01*
X115677Y55299D01*
X115878Y55500D01*
X116079Y55299D01*
X116621Y55074D01*
X117209D01*
X117752Y55299D01*
X118167Y55714D01*
X118392Y56257D01*
Y56844D01*
X118167Y57387D01*
X117970Y57584D01*
X118167Y57781D01*
X118392Y58324D01*
Y58911D01*
X118167Y59454D01*
X117970Y59651D01*
X118167Y59848D01*
X118392Y60391D01*
Y60978D01*
X118167Y61521D01*
X118013Y61674D01*
X118229Y61890D01*
X118454Y62432D01*
Y63020D01*
X118229Y63562D01*
X117814Y63977D01*
X117271Y64202D01*
X116684D01*
X116141Y63977D01*
X115940Y63776D01*
X115739Y63977D01*
X115196Y64202D01*
X114609D01*
X114066Y63977D01*
X113865Y63776D01*
X113700Y63942D01*
X113157Y64166D01*
X112570D01*
X112027Y63942D01*
X111880Y63794D01*
X111685Y63989D01*
X111142Y64214D01*
D02*
G37*
G36*
X53235Y55382D02*
X52647D01*
X52105Y55157D01*
X51689Y54742D01*
X51465Y54199D01*
Y53612D01*
X51689Y53069D01*
X52105Y52654D01*
X52647Y52429D01*
X53235D01*
X53777Y52654D01*
X54193Y53069D01*
X54417Y53612D01*
Y54199D01*
X54193Y54742D01*
X53777Y55157D01*
X53235Y55382D01*
D02*
G37*
G36*
X146542Y46943D02*
X145954D01*
X145412Y46718D01*
X144996Y46303D01*
X144772Y45761D01*
Y45173D01*
X144996Y44631D01*
X145412Y44215D01*
X145954Y43991D01*
X146542D01*
X147084Y44215D01*
X147500Y44631D01*
X147724Y45173D01*
Y45761D01*
X147500Y46303D01*
X147084Y46718D01*
X146542Y46943D01*
D02*
G37*
G36*
X152152Y46917D02*
X151565D01*
X151022Y46692D01*
X150607Y46277D01*
X150382Y45735D01*
Y45147D01*
X150607Y44605D01*
X151022Y44189D01*
X151565Y43965D01*
X152152D01*
X152695Y44189D01*
X153110Y44605D01*
X153335Y45147D01*
Y45735D01*
X153110Y46277D01*
X152695Y46692D01*
X152152Y46917D01*
D02*
G37*
G36*
X57468Y47344D02*
X55681D01*
X55179Y47244D01*
X54753Y46960D01*
X50157Y42364D01*
X49872Y41938D01*
X49772Y41436D01*
Y35978D01*
X49872Y35476D01*
X50157Y35050D01*
X55359Y29847D01*
X55785Y29563D01*
X56287Y29463D01*
X57269D01*
X64282Y22450D01*
X63999Y22026D01*
X63599Y22192D01*
X63012D01*
X62469Y21967D01*
X62054Y21552D01*
X61829Y21009D01*
Y20422D01*
X62054Y19879D01*
X62469Y19464D01*
X63012Y19239D01*
X63599D01*
X64142Y19464D01*
X64557Y19879D01*
X64782Y20422D01*
Y21009D01*
X64616Y21409D01*
X65040Y21692D01*
X65965Y20768D01*
X66391Y20483D01*
X66893Y20383D01*
X70141D01*
X70643Y20483D01*
X71069Y20768D01*
X72378Y22077D01*
X72773Y22241D01*
X73189Y22656D01*
X73413Y23199D01*
Y23786D01*
X73189Y24328D01*
X72773Y24744D01*
X72231Y24969D01*
X71643D01*
X71101Y24744D01*
X70685Y24328D01*
X70522Y23933D01*
X69945Y23356D01*
X69729Y23377D01*
X69269Y23575D01*
Y24163D01*
X69045Y24705D01*
X68629Y25121D01*
X68234Y25284D01*
X60098Y33421D01*
X59672Y33705D01*
X59169Y33805D01*
X57593D01*
X56923Y34475D01*
X56762Y34716D01*
X54525Y36953D01*
Y39736D01*
X54735Y40242D01*
Y40829D01*
X54572Y41222D01*
X54760Y41426D01*
X54975Y41555D01*
X55449Y41359D01*
X56036D01*
X56578Y41584D01*
X56994Y41999D01*
X57218Y42542D01*
Y43129D01*
X56994Y43672D01*
X56578Y44087D01*
X56599Y44438D01*
X57065Y44401D01*
X57103Y44309D01*
X57518Y43894D01*
X58061Y43669D01*
X58648D01*
X59191Y43894D01*
X59606Y44309D01*
X59831Y44852D01*
Y45439D01*
X59606Y45982D01*
X59191Y46397D01*
X58795Y46561D01*
X58397Y46960D01*
X57971Y47244D01*
X57468Y47344D01*
D02*
G37*
G36*
X56581Y28709D02*
X55994D01*
X55451Y28484D01*
X55036Y28069D01*
X54811Y27526D01*
Y26939D01*
X55036Y26396D01*
X55451Y25981D01*
X55994Y25756D01*
X56581D01*
X57124Y25981D01*
X57539Y26396D01*
X57764Y26939D01*
Y27526D01*
X57539Y28069D01*
X57124Y28484D01*
X56581Y28709D01*
D02*
G37*
G36*
X143623Y27982D02*
X143035D01*
X142493Y27757D01*
X142077Y27341D01*
X141852Y26799D01*
Y26212D01*
X142077Y25669D01*
X142493Y25254D01*
X143035Y25029D01*
X143623D01*
X144165Y25254D01*
X144484Y25572D01*
X144939Y25557D01*
X145045Y25524D01*
X145460Y25109D01*
X146003Y24884D01*
X146590D01*
X147133Y25109D01*
X147548Y25524D01*
X147773Y26067D01*
Y26654D01*
X147548Y27197D01*
X147133Y27612D01*
X146590Y27837D01*
X146003D01*
X145460Y27612D01*
X145142Y27293D01*
X144686Y27309D01*
X144580Y27341D01*
X144165Y27757D01*
X143623Y27982D01*
D02*
G37*
G36*
X152857Y23505D02*
X152270D01*
X151727Y23280D01*
X151530Y23083D01*
X151333Y23280D01*
X150791Y23505D01*
X150203D01*
X149661Y23280D01*
X149245Y22865D01*
X149069Y22439D01*
X148904Y22508D01*
X148317D01*
X147774Y22283D01*
X147760Y22270D01*
X147519Y22318D01*
X147104Y22733D01*
X146561Y22958D01*
X145974D01*
X145431Y22733D01*
X145016Y22318D01*
X144836Y21883D01*
X144734Y21868D01*
X144329Y21900D01*
X144140Y22356D01*
X143725Y22772D01*
X143182Y22997D01*
X142595D01*
X142052Y22772D01*
X141637Y22356D01*
X141412Y21814D01*
Y21227D01*
X141637Y20684D01*
X142052Y20269D01*
X142470Y20096D01*
X142472Y20084D01*
X142247Y19542D01*
Y18954D01*
X142472Y18412D01*
X142887Y17997D01*
X143430Y17772D01*
X144017D01*
X144560Y17997D01*
X144831Y18267D01*
X144907Y18191D01*
X145450Y17966D01*
X146037D01*
X146580Y18191D01*
X146701Y18312D01*
X147291Y18194D01*
X147359Y18030D01*
X147774Y17615D01*
X148317Y17390D01*
X148904D01*
X149059Y17454D01*
X149229Y17046D01*
X149644Y16630D01*
X150187Y16406D01*
X150774D01*
X151317Y16630D01*
X151514Y16827D01*
X151711Y16630D01*
X152254Y16406D01*
X152841D01*
X153384Y16630D01*
X153799Y17046D01*
X154024Y17588D01*
Y18176D01*
X153799Y18718D01*
X153606Y18911D01*
X153801Y19107D01*
X154026Y19650D01*
Y20237D01*
X153801Y20780D01*
X153602Y20979D01*
X153815Y21192D01*
X154040Y21735D01*
Y22322D01*
X153815Y22865D01*
X153400Y23280D01*
X152857Y23505D01*
D02*
G37*
G36*
X88471Y25657D02*
X87884D01*
X87341Y25433D01*
X86926Y25017D01*
X86701Y24475D01*
Y23887D01*
X86926Y23345D01*
X87341Y22930D01*
X87884Y22705D01*
X88471D01*
X89013Y22930D01*
X89429Y23345D01*
X89653Y23887D01*
Y24475D01*
X89429Y25017D01*
X89013Y25433D01*
X88471Y25657D01*
D02*
G37*
G36*
X45096Y22477D02*
X44509D01*
X43966Y22252D01*
X43551Y21837D01*
X43326Y21294D01*
Y20707D01*
X43551Y20164D01*
X43966Y19749D01*
X44509Y19524D01*
X45096D01*
X45639Y19749D01*
X46054Y20164D01*
X46279Y20707D01*
Y21294D01*
X46054Y21837D01*
X45639Y22252D01*
X45096Y22477D01*
D02*
G37*
G36*
X135124Y23984D02*
X134537D01*
X133994Y23760D01*
X133579Y23344D01*
X133415Y22949D01*
X129169Y18702D01*
X84095D01*
X82900Y19898D01*
X82736Y20293D01*
X82321Y20708D01*
X81778Y20933D01*
X81191D01*
X80648Y20708D01*
X80233Y20293D01*
X80008Y19750D01*
Y19163D01*
X80233Y18620D01*
X80648Y18205D01*
X81043Y18041D01*
X82623Y16462D01*
X83049Y16177D01*
X83551Y16077D01*
X129713D01*
X130215Y16177D01*
X130641Y16462D01*
X135272Y21092D01*
X135667Y21256D01*
X136082Y21672D01*
X136307Y22214D01*
Y22802D01*
X136082Y23344D01*
X135667Y23760D01*
X135124Y23984D01*
D02*
G37*
G36*
X45065Y17915D02*
X44478D01*
X43935Y17690D01*
X43520Y17275D01*
X43295Y16732D01*
Y16145D01*
X43520Y15602D01*
X43935Y15187D01*
X44478Y14962D01*
X45065D01*
X45608Y15187D01*
X46023Y15602D01*
X46248Y16145D01*
Y16732D01*
X46023Y17275D01*
X45608Y17690D01*
X45065Y17915D01*
D02*
G37*
%LPD*%
G36*
X106878Y65571D02*
X106378Y65327D01*
X105991Y65487D01*
X105403D01*
X104861Y65263D01*
X104713Y65115D01*
X104565Y65263D01*
X104022Y65487D01*
X103435D01*
X102892Y65263D01*
X102744Y65115D01*
X102596Y65263D01*
X102053Y65487D01*
X101466D01*
X100924Y65263D01*
X100776Y65115D01*
X100628Y65263D01*
X100085Y65487D01*
X99498D01*
X98955Y65263D01*
X98540Y64847D01*
X98315Y64305D01*
Y63717D01*
X98540Y63175D01*
X98735Y62980D01*
X98540Y62784D01*
X98315Y62242D01*
Y61655D01*
X98540Y61112D01*
X98723Y60929D01*
X98540Y60746D01*
X98315Y60203D01*
Y59616D01*
X98540Y59073D01*
X98602Y59010D01*
X98570Y58540D01*
X98536Y58444D01*
X98213Y58323D01*
X97762Y58510D01*
X97174D01*
X96632Y58285D01*
X96216Y57870D01*
X95992Y57327D01*
Y56740D01*
X96216Y56197D01*
X96362Y56052D01*
X96109Y55799D01*
X95884Y55256D01*
Y54669D01*
X96109Y54126D01*
X96524Y53711D01*
X97067Y53486D01*
X97496D01*
X97768Y53300D01*
X97918Y53054D01*
Y52610D01*
X98142Y52068D01*
X98333Y51877D01*
X98146Y51691D01*
X97921Y51148D01*
Y50561D01*
X98146Y50018D01*
X98561Y49603D01*
X99104Y49378D01*
X99461D01*
X99803Y49049D01*
X99848Y48916D01*
Y48419D01*
X100073Y47876D01*
X100488Y47461D01*
X101031Y47236D01*
X101618D01*
X102161Y47461D01*
X102401Y47701D01*
X102561Y47541D01*
X103103Y47317D01*
X103691D01*
X104233Y47541D01*
X104451Y47758D01*
X104748Y47461D01*
X105291Y47236D01*
X105878D01*
X106378Y47443D01*
X106596Y47365D01*
X106878Y47210D01*
Y44949D01*
X99398Y37468D01*
X98963D01*
X93916Y42516D01*
Y44875D01*
X87980Y50811D01*
Y53519D01*
X88029Y53540D01*
X88445Y53955D01*
X88669Y54498D01*
Y55085D01*
X88445Y55628D01*
X88029Y56043D01*
X87980Y56063D01*
Y76839D01*
X106878D01*
Y65571D01*
D02*
G37*
%LPC*%
G36*
X90538Y60205D02*
X89950D01*
X89408Y59980D01*
X88993Y59565D01*
X88768Y59022D01*
Y58435D01*
X88993Y57892D01*
X89408Y57477D01*
X89950Y57252D01*
X90538D01*
X91080Y57477D01*
X91496Y57892D01*
X91720Y58435D01*
Y59022D01*
X91496Y59565D01*
X91080Y59980D01*
X90538Y60205D01*
D02*
G37*
%LPD*%
G36*
X90626Y59299D02*
X90815Y59110D01*
X90918Y58862D01*
Y58594D01*
X90815Y58347D01*
X90626Y58157D01*
X90378Y58055D01*
X90110D01*
X89863Y58157D01*
X89673Y58347D01*
X89571Y58594D01*
Y58862D01*
X89673Y59110D01*
X89863Y59299D01*
X90110Y59402D01*
X90378D01*
X90626Y59299D01*
D02*
G37*
D11*
X155144Y215828D02*
X163768Y207204D01*
X165887D01*
X149031Y186972D02*
X164189Y202130D01*
Y202327D01*
X169724Y199207D02*
Y203288D01*
X169679Y199161D02*
X169724Y199207D01*
X165469Y193665D02*
X167256D01*
X166650Y208921D02*
X171852Y203719D01*
Y198261D02*
Y203719D01*
X167256Y193665D02*
X171852Y198261D01*
X167103Y205909D02*
Y205989D01*
X165887Y207204D02*
X167103Y205989D01*
Y205909D02*
X169724Y203288D01*
X144307Y186972D02*
X149031D01*
X92543Y202925D02*
X94028Y201441D01*
X117043D01*
X119405Y203803D01*
X139671Y193468D02*
X139819Y193321D01*
Y191461D02*
Y193321D01*
Y191461D02*
X144307Y186972D01*
X88106Y217189D02*
X93224Y222307D01*
X139386D02*
X141453Y220240D01*
X93224Y222307D02*
X139386D01*
X156044Y218001D02*
X165124Y208921D01*
X152796Y218001D02*
X156044D01*
X165124Y208921D02*
X166650D01*
X151000Y216205D02*
X152796Y218001D01*
X167105Y189342D02*
X171185D01*
X160502Y182740D02*
X167105Y189342D01*
X145318Y182740D02*
X160502D01*
X119405Y203803D02*
X124255D01*
X145318Y182740D01*
X164583Y194551D02*
X165469Y193665D01*
X175614Y193772D02*
Y193911D01*
X171185Y189342D02*
X175614Y193772D01*
Y193911D02*
X175902Y194199D01*
Y194354D01*
X67793Y23869D02*
X59169Y32493D01*
X57050D01*
X73905Y52724D02*
X58748Y37567D01*
Y37370D01*
X53213Y40490D02*
Y36409D01*
X53258Y40535D02*
X53213Y40490D01*
X57468Y46031D02*
X55681D01*
X56287Y30776D02*
X51085Y35978D01*
Y41436D02*
Y35978D01*
X55681Y46031D02*
X51085Y41436D01*
X55834Y33788D02*
Y33708D01*
X57050Y32493D02*
X55834Y33708D01*
Y33788D02*
X53213Y36409D01*
X78630Y52724D02*
X73905D01*
X130394Y36772D02*
X128909Y38256D01*
X105894D01*
X103532Y35894D01*
X83266Y46228D02*
X83118Y46376D01*
Y48236D02*
Y46376D01*
Y48236D02*
X78630Y52724D01*
X134831Y22508D02*
X129713Y17390D01*
X83551D02*
X81484Y19457D01*
X129713Y17390D02*
X83551D01*
X66893Y21696D02*
X57813Y30776D01*
X70141Y21696D02*
X66893D01*
X57813Y30776D02*
X56287D01*
X71937Y23492D02*
X70141Y21696D01*
X55832Y50354D02*
X51752D01*
X62435Y56957D02*
X55832Y50354D01*
X77619Y56957D02*
X62435D01*
X103532Y35894D02*
X98682D01*
X77619Y56957D01*
X58354Y45146D02*
X57468Y46031D01*
X47323Y45925D02*
Y45785D01*
X51752Y50354D02*
X47323Y45925D01*
Y45785D02*
X47035Y45498D01*
Y45342D01*
D54*
X102030Y100859D02*
X110414Y92475D01*
X75996Y126192D02*
X130771D01*
X133527D01*
X122835Y134128D02*
X130771Y126192D01*
X17421Y33045D02*
Y49187D01*
X12894Y28518D02*
X17421Y33045D01*
X12106Y54502D02*
X17421Y49187D01*
X12106Y54502D02*
Y83911D01*
X160138Y100073D02*
X169917Y109853D01*
X126739Y92475D02*
X134337Y100073D01*
X160138D01*
X169917Y109853D02*
Y113236D01*
X56177Y106372D02*
X75996Y126192D01*
X34567Y106372D02*
X56177D01*
X12106Y83911D02*
X34567Y106372D01*
X133527Y126192D02*
X140354Y119364D01*
X110414Y92475D02*
X126739D01*
D55*
X85183Y111195D02*
X89218Y107160D01*
X86494Y112376D02*
X89939Y108931D01*
X64618Y111195D02*
X85183D01*
X56646Y103223D02*
X64618Y111195D01*
X56157Y104404D02*
X64129Y112376D01*
X86494D01*
X25197Y81569D02*
X29921Y86293D01*
Y99778D01*
X28408Y79510D02*
X31102Y82204D01*
Y99116D01*
X33760Y77798D02*
Y98433D01*
X33071Y77109D02*
X33760Y77798D01*
Y98433D02*
X36187Y100860D01*
X33071Y76845D02*
Y77109D01*
X32283Y80388D02*
Y98627D01*
X28740Y76845D02*
X32283Y80388D01*
X29921Y99778D02*
X34547Y104404D01*
X31102Y99116D02*
X35209Y103223D01*
X32283Y98627D02*
X35698Y102041D01*
X57624Y100860D02*
X61950Y105186D01*
X85672D02*
X88915Y101943D01*
X61950Y105186D02*
X85672D01*
X57135Y102041D02*
X65108Y110014D01*
X84125D02*
X86713Y107426D01*
X65108Y110014D02*
X84125D01*
X36187Y100860D02*
X57624D01*
X35698Y102041D02*
X57135D01*
X35209Y103223D02*
X56646D01*
X34547Y104404D02*
X56157D01*
X86713Y107160D02*
Y107426D01*
X92815Y103419D02*
Y103427D01*
X89218Y107160D02*
X89272D01*
X88915Y101943D02*
X91339D01*
X92815Y103419D01*
X90005Y108931D02*
X92723Y106213D01*
X92940D01*
X89939Y108931D02*
X90005D01*
X27075Y79510D02*
X28408D01*
X27067Y79502D02*
X27075Y79510D01*
D73*
X221457Y231988D02*
Y238583D01*
X204921Y231988D02*
Y238583D01*
X8261Y256292D02*
X10236Y258268D01*
X27559D01*
X8261Y238983D02*
X8661Y238583D01*
X8261Y238983D02*
Y239363D01*
Y256292D01*
X43970Y84180D02*
X62992D01*
Y90803D01*
X189420Y2D02*
X221655D01*
X222835Y1181D01*
X203543Y238583D02*
X204921D01*
X203150Y238976D02*
X203543Y238583D01*
X203150Y238976D02*
Y256299D01*
X205118Y258268D01*
X222441D01*
X222441D02*
X222835Y257874D01*
Y238976D02*
Y257874D01*
X221712Y231988D02*
X222835Y230865D01*
X221457Y231988D02*
X221712D01*
X222835Y230865D02*
X222835Y1181D01*
X187795Y220265D02*
Y222933D01*
X188976Y224114D01*
X202362D01*
X35039Y98032D02*
X36225Y99217D01*
X35039Y71807D02*
Y98032D01*
X36225Y99217D02*
X57269D01*
X187795Y191732D02*
Y220265D01*
Y191732D02*
X188976Y190551D01*
X202362D01*
X203543Y189370D01*
Y170472D02*
Y189370D01*
X202362Y169291D02*
X203543Y170472D01*
X188976Y169291D02*
X202362D01*
X187795Y168110D02*
X188976Y169291D01*
X187795Y141831D02*
Y168110D01*
X186651Y140686D02*
X187795Y141831D01*
X163546Y140686D02*
X186651D01*
X162402Y141831D02*
X163546Y140686D01*
X162402Y141831D02*
Y147933D01*
X161221Y149114D02*
X162402Y147933D01*
X155709Y149114D02*
X161221D01*
X155709D02*
Y155512D01*
X178937D01*
X181299Y157874D01*
Y220255D01*
X204724Y231988D02*
X204921D01*
X222441Y238583D02*
X222835Y238976D01*
X27461Y238583D02*
X27559D01*
X27461Y231988D02*
Y238583D01*
X8661D02*
X8957D01*
X45746Y9374D02*
X158980D01*
X161319Y11713D01*
X43972Y9374D02*
X45746D01*
X41634Y11713D02*
X43972Y9374D01*
X157480Y84153D02*
Y90793D01*
Y84153D02*
X158957D01*
X188975Y2D02*
X189420D01*
X221457Y238583D02*
X222441D01*
X8957Y231988D02*
Y238583D01*
X1103Y231988D02*
X8957D01*
X-11Y230874D02*
X1103Y231988D01*
X-11Y230874D02*
X-11Y1192D01*
X1181Y0D01*
X18118D01*
X19297Y1179D01*
Y13490D01*
X20430Y14623D01*
X33816D01*
X35037Y15844D01*
Y48211D01*
X33864Y49383D02*
X35037Y48211D01*
X20475Y49383D02*
X33864D01*
X19289Y50568D02*
X20475Y49383D01*
X19289Y50568D02*
Y69015D01*
X20894Y70620D01*
X33853D01*
X35039Y71807D01*
X57269Y99217D02*
X58474Y98012D01*
Y91950D02*
Y98012D01*
Y91950D02*
X59621Y90803D01*
X62992D01*
X41634Y81844D02*
X43970Y84180D01*
X41634Y11713D02*
Y81844D01*
X161319Y11713D02*
Y81791D01*
X158957Y84153D02*
X161319Y81791D01*
X157480Y90793D02*
X161266D01*
X162402Y91929D01*
Y98032D01*
X163583Y99213D01*
X186614D01*
X187795Y98032D01*
Y1181D02*
Y98032D01*
Y1181D02*
X188975Y2D01*
X203543Y230807D02*
X204724Y231988D01*
X203543Y225295D02*
Y230807D01*
X202362Y224114D02*
X203543Y225295D01*
X181299Y220255D02*
Y227953D01*
X178937Y230315D02*
X181299Y227953D01*
X63976Y230315D02*
X178937D01*
X61614Y227953D02*
X63976Y230315D01*
X61614Y157874D02*
Y227953D01*
Y157874D02*
X63976Y155512D01*
X66929D01*
Y149114D02*
Y155512D01*
X36220Y149114D02*
X66929D01*
X35039Y150295D02*
X36220Y149114D01*
X35039Y150295D02*
Y230807D01*
X33858Y231988D02*
X35039Y230807D01*
X27461Y231988D02*
X33858D01*
X27559Y238583D02*
X27953Y238976D01*
Y257874D01*
X27559Y258268D02*
X27953Y257874D01*
D74*
X12894Y152612D02*
X34154D01*
Y179030D01*
X12894D02*
X34154D01*
X12894Y152612D02*
Y179030D01*
D75*
X86221Y150787D02*
D03*
X128740Y88976D02*
D03*
X68504Y85827D02*
D03*
X64961Y88976D02*
D03*
X72047D02*
D03*
X75590Y85827D02*
D03*
X89516Y86028D02*
D03*
X85973Y89177D02*
D03*
X78886D02*
D03*
X82430Y86028D02*
D03*
X110776D02*
D03*
X107233Y89177D02*
D03*
X114319D02*
D03*
X117863Y86028D02*
D03*
X103937Y85827D02*
D03*
X100394Y88976D02*
D03*
X93307D02*
D03*
X96850Y85827D02*
D03*
X150000Y88976D02*
D03*
X139122Y86028D02*
D03*
X135579Y89177D02*
D03*
X142666D02*
D03*
X146209Y86028D02*
D03*
X132283Y85827D02*
D03*
X121653Y88976D02*
D03*
X125197Y85827D02*
D03*
X129134Y150787D02*
D03*
X125591Y153543D02*
D03*
X132677D02*
D03*
X136221Y150787D02*
D03*
X150146Y150988D02*
D03*
X146457Y153543D02*
D03*
X139370D02*
D03*
X143060Y150988D02*
D03*
X153937Y153543D02*
D03*
X100787Y150787D02*
D03*
X97244Y153543D02*
D03*
X104331D02*
D03*
X107874Y150787D02*
D03*
X121653D02*
D03*
X118110Y153543D02*
D03*
X111024D02*
D03*
X114567Y150787D02*
D03*
X82823Y153744D02*
D03*
X89764Y153543D02*
D03*
X93307Y150787D02*
D03*
X79527D02*
D03*
X75984Y153543D02*
D03*
X68898D02*
D03*
X72441Y150787D02*
D03*
X206693Y233858D02*
D03*
X212992D02*
D03*
X219685D02*
D03*
X209842Y236614D02*
D03*
X216142D02*
D03*
X22441D02*
D03*
X14173D02*
D03*
X25591Y233858D02*
D03*
X18504D02*
D03*
X11024D02*
D03*
D76*
X216142Y253150D02*
D03*
X209449D02*
D03*
X206693Y246457D02*
D03*
X218898D02*
D03*
X209842Y223695D02*
D03*
X209746Y228630D02*
D03*
X18317Y222891D02*
D03*
X22918D02*
D03*
X33169Y217691D02*
D03*
X61215Y115004D02*
D03*
X30758Y187524D02*
D03*
X210728Y171333D02*
D03*
X212606Y168282D02*
D03*
X102030Y100859D02*
D03*
X122504Y137242D02*
D03*
X101318Y137408D02*
D03*
X102854Y135998D02*
D03*
X107972Y129699D02*
D03*
X118968Y134100D02*
D03*
X102756Y142888D02*
D03*
X85520Y145447D02*
D03*
X85827Y141215D02*
D03*
X89385Y145552D02*
D03*
X66408Y144869D02*
D03*
X90256Y141510D02*
D03*
X82185Y140624D02*
D03*
X131742Y130240D02*
D03*
X122835Y134128D02*
D03*
X139075Y125762D02*
D03*
X119741Y110262D02*
D03*
X14534Y187864D02*
D03*
X14447Y191663D02*
D03*
X37559Y137093D02*
D03*
X19882Y135998D02*
D03*
Y130289D02*
D03*
X69625Y123014D02*
D03*
X67670Y121182D02*
D03*
X71601Y125171D02*
D03*
X26920Y125221D02*
D03*
X25099Y127042D02*
D03*
X29233Y122908D02*
D03*
X31989Y120152D02*
D03*
X72455Y118380D02*
D03*
X16634Y196690D02*
D03*
X7124Y202288D02*
D03*
X9047Y218380D02*
D03*
X2953Y187376D02*
D03*
X2264Y172317D02*
D03*
X2657Y191608D02*
D03*
X70374Y107258D02*
D03*
X70079Y114541D02*
D03*
X14961Y48006D02*
D03*
X14862Y44463D02*
D03*
X15059Y40821D02*
D03*
X15650Y78616D02*
D03*
X30217Y45742D02*
D03*
X28248D02*
D03*
X26280D02*
D03*
X24311D02*
D03*
X20374D02*
D03*
X12795Y32061D02*
D03*
X12303Y50959D02*
D03*
X21457Y41448D02*
D03*
X215846Y44463D02*
D03*
X215059Y62376D02*
D03*
X218898Y83045D02*
D03*
X191169Y166886D02*
D03*
X221162Y168380D02*
D03*
Y172415D02*
D03*
X198649Y164327D02*
D03*
X200492Y167621D02*
D03*
X200098Y151746D02*
D03*
X204724Y155585D02*
D03*
Y159522D02*
D03*
X216358Y155585D02*
D03*
X221162Y164246D02*
D03*
X192881Y158388D02*
D03*
X194614Y155782D02*
D03*
X211122Y141510D02*
D03*
X204823Y149778D02*
D03*
X162008Y108931D02*
D03*
X156890Y105191D02*
D03*
X208366Y183341D02*
D03*
X209547Y59227D02*
D03*
X208760Y61982D02*
D03*
X206791Y63951D02*
D03*
X204823Y65919D02*
D03*
X202854Y67888D02*
D03*
X189961Y96136D02*
D03*
X203642Y73892D02*
D03*
X190256Y80880D02*
D03*
Y65132D02*
D03*
Y63164D02*
D03*
X214862Y57750D02*
D03*
X217848Y57652D02*
D03*
X217618Y50762D02*
D03*
X219882Y89640D02*
D03*
X220177Y129010D02*
D03*
X215846Y78160D02*
D03*
X212090Y89491D02*
D03*
X213656Y87986D02*
D03*
X213399Y91278D02*
D03*
X214801Y89761D02*
D03*
X148425Y102041D02*
D03*
X181890Y107652D02*
D03*
X179331D02*
D03*
X177067D02*
D03*
X168701Y100886D02*
D03*
X216240Y100171D02*
D03*
X218602Y102927D02*
D03*
X216240D02*
D03*
X213878Y100171D02*
D03*
Y102927D02*
D03*
X211516D02*
D03*
Y100171D02*
D03*
X22765Y86301D02*
D03*
X32579Y192000D02*
D03*
X32028Y222744D02*
D03*
X220965Y209620D02*
D03*
Y198597D02*
D03*
X193799Y194266D02*
D03*
X201673Y212376D02*
D03*
X203642Y214345D02*
D03*
X206791Y215919D02*
D03*
X199705Y221431D02*
D03*
X197343D02*
D03*
X194980Y216707D02*
D03*
X194471Y198419D02*
D03*
X220410Y2337D02*
D03*
Y5388D02*
D03*
X219882Y78160D02*
D03*
X190256Y71038D02*
D03*
Y78912D02*
D03*
Y76943D02*
D03*
Y74975D02*
D03*
Y73006D02*
D03*
Y69069D02*
D03*
Y67101D02*
D03*
Y61195D02*
D03*
X192224D02*
D03*
X194193Y59227D02*
D03*
X192224D02*
D03*
X190256D02*
D03*
Y57258D02*
D03*
X192224D02*
D03*
X194193D02*
D03*
X196161D02*
D03*
X198130Y55290D02*
D03*
X196161D02*
D03*
X194193D02*
D03*
X192224D02*
D03*
X194193Y53321D02*
D03*
X196161D02*
D03*
X198130D02*
D03*
X196161Y51353D02*
D03*
X198130D02*
D03*
Y49384D02*
D03*
X190256Y53321D02*
D03*
X198130Y45447D02*
D03*
X194193Y51353D02*
D03*
X198130Y47416D02*
D03*
X192224Y51353D02*
D03*
X194193Y49384D02*
D03*
X192224Y53321D02*
D03*
X196161Y49384D02*
D03*
Y47416D02*
D03*
X190256Y55290D02*
D03*
X190256Y51353D02*
D03*
Y2140D02*
D03*
X192224D02*
D03*
X198130Y10014D02*
D03*
X196161Y15919D02*
D03*
Y13951D02*
D03*
Y8045D02*
D03*
X198130D02*
D03*
X194193Y27730D02*
D03*
Y35605D02*
D03*
Y37573D02*
D03*
Y29699D02*
D03*
X196161Y43479D02*
D03*
Y39542D02*
D03*
Y37573D02*
D03*
X198130D02*
D03*
Y35605D02*
D03*
X196161Y17888D02*
D03*
Y45447D02*
D03*
X198130Y15919D02*
D03*
X192224Y19856D02*
D03*
Y25762D02*
D03*
X196161Y29699D02*
D03*
X194193Y31667D02*
D03*
X196161Y27730D02*
D03*
X198130D02*
D03*
X194193Y41510D02*
D03*
X198130Y25762D02*
D03*
Y23793D02*
D03*
X190256Y29699D02*
D03*
X196161Y19856D02*
D03*
X190256Y47416D02*
D03*
Y43479D02*
D03*
Y31667D02*
D03*
X196161D02*
D03*
X192224Y37573D02*
D03*
Y35605D02*
D03*
X190256Y13951D02*
D03*
X192224Y10014D02*
D03*
X194193Y39542D02*
D03*
Y11982D02*
D03*
X192224Y13951D02*
D03*
X198130Y21825D02*
D03*
X194193Y25762D02*
D03*
X196161Y33636D02*
D03*
X190256Y45447D02*
D03*
X192224Y49384D02*
D03*
X196161Y35605D02*
D03*
X194193Y17888D02*
D03*
Y19856D02*
D03*
Y6077D02*
D03*
Y45447D02*
D03*
X192224Y41510D02*
D03*
X194193Y10014D02*
D03*
Y8045D02*
D03*
X192224Y27730D02*
D03*
X194193Y4108D02*
D03*
X196161Y2140D02*
D03*
X194193Y43479D02*
D03*
X192224Y39542D02*
D03*
X190256Y11982D02*
D03*
X198130Y4108D02*
D03*
X190256Y15919D02*
D03*
X194193Y23793D02*
D03*
X196161D02*
D03*
Y4108D02*
D03*
Y25762D02*
D03*
X194193Y33636D02*
D03*
X190256Y49384D02*
D03*
X198130Y17888D02*
D03*
Y41510D02*
D03*
X192224Y23793D02*
D03*
X190256Y39542D02*
D03*
X194193Y15919D02*
D03*
X192224Y43479D02*
D03*
Y31667D02*
D03*
Y17888D02*
D03*
X194193Y2140D02*
D03*
X198130Y31667D02*
D03*
Y6077D02*
D03*
X192224Y11982D02*
D03*
X196161Y21825D02*
D03*
X190256Y33636D02*
D03*
X194193Y13951D02*
D03*
X192224Y29699D02*
D03*
Y47416D02*
D03*
X190256Y35605D02*
D03*
X192224Y6077D02*
D03*
X190256Y21825D02*
D03*
Y37573D02*
D03*
X198130Y39542D02*
D03*
Y19856D02*
D03*
X190256Y4108D02*
D03*
X196161Y11982D02*
D03*
X190256Y19856D02*
D03*
Y41510D02*
D03*
X192224Y8045D02*
D03*
X198130Y33636D02*
D03*
X192224Y45447D02*
D03*
X190256Y27730D02*
D03*
X196161Y6077D02*
D03*
X190256Y17888D02*
D03*
X198130Y43479D02*
D03*
Y29699D02*
D03*
X190256Y23793D02*
D03*
Y25762D02*
D03*
X196161Y10014D02*
D03*
X194193Y21825D02*
D03*
X192224Y4108D02*
D03*
X190256Y8045D02*
D03*
X192224Y33636D02*
D03*
X194193Y47416D02*
D03*
X190256Y10014D02*
D03*
X192224Y21825D02*
D03*
X198130Y11982D02*
D03*
X190256Y6077D02*
D03*
X198130Y2140D02*
D03*
X192224Y15919D02*
D03*
X196161Y41510D02*
D03*
X198130Y13951D02*
D03*
X123009Y124223D02*
D03*
X106483Y121923D02*
D03*
X112572Y106195D02*
D03*
X108465Y120545D02*
D03*
X101342Y134486D02*
D03*
X112658Y115932D02*
D03*
X100492Y115919D02*
D03*
X110383Y118835D02*
D03*
X168745Y115049D02*
D03*
X169917Y113236D02*
D03*
X167561Y113279D02*
D03*
X54823Y110998D02*
D03*
X61024Y121431D02*
D03*
X54232D02*
D03*
X47539Y121530D02*
D03*
X40945D02*
D03*
X169291Y134128D02*
D03*
X179626Y134423D02*
D03*
X175197Y132849D02*
D03*
X167273Y116724D02*
D03*
X169946Y116683D02*
D03*
X195276Y109817D02*
D03*
X193996Y107947D02*
D03*
X196457Y107750D02*
D03*
X219193Y26845D02*
D03*
X219094Y29699D02*
D03*
X216043D02*
D03*
X216329Y38418D02*
D03*
X157139Y111195D02*
D03*
X149409Y123400D02*
D03*
X151772D02*
D03*
X151860Y117396D02*
D03*
X159843Y109030D02*
D03*
X158957Y122415D02*
D03*
X158760Y93085D02*
D03*
X156335Y92790D02*
D03*
X144193Y126156D02*
D03*
X142224D02*
D03*
X141437Y132849D02*
D03*
X139469D02*
D03*
Y129305D02*
D03*
X147047Y123400D02*
D03*
X149854Y117396D02*
D03*
X77138Y118301D02*
D03*
X79626Y120152D02*
D03*
X75984Y107160D02*
D03*
X46850Y111089D02*
D03*
X42815D02*
D03*
X61262Y101992D02*
D03*
X63437Y100565D02*
D03*
X63494Y98007D02*
D03*
X14083Y71136D02*
D03*
X199457Y131512D02*
D03*
X197660Y129902D02*
D03*
X185430Y116216D02*
D03*
X185529Y114082D02*
D03*
X209941Y14049D02*
D03*
X207972Y41608D02*
D03*
X204035Y16018D02*
D03*
X209941Y2238D02*
D03*
X202067Y6175D02*
D03*
X209941Y12081D02*
D03*
X204035Y21923D02*
D03*
X202067Y10112D02*
D03*
X206004Y47514D02*
D03*
X204035Y33734D02*
D03*
X202067Y8144D02*
D03*
X204035Y4207D02*
D03*
X206004Y21923D02*
D03*
X207972Y10112D02*
D03*
X202067Y25860D02*
D03*
Y23892D02*
D03*
X209941Y29797D02*
D03*
Y43577D02*
D03*
X202067Y17986D02*
D03*
X207972Y6175D02*
D03*
X202067Y27829D02*
D03*
X204035Y45545D02*
D03*
X209941Y33734D02*
D03*
X204035Y8144D02*
D03*
X202067Y41608D02*
D03*
Y19955D02*
D03*
Y51451D02*
D03*
X207972Y12081D02*
D03*
X202067Y4207D02*
D03*
X209941Y19955D02*
D03*
Y39640D02*
D03*
X202067Y37671D02*
D03*
Y21923D02*
D03*
X204035Y6175D02*
D03*
X202067Y35703D02*
D03*
X204035Y47514D02*
D03*
Y29797D02*
D03*
X206004Y14049D02*
D03*
X202067Y33734D02*
D03*
X207972Y21923D02*
D03*
X204035Y12081D02*
D03*
X209941Y6175D02*
D03*
Y31766D02*
D03*
X206004Y2238D02*
D03*
X204035Y17986D02*
D03*
Y31766D02*
D03*
Y43577D02*
D03*
X206004Y16018D02*
D03*
X202067Y39640D02*
D03*
X204035Y23892D02*
D03*
X209941Y41608D02*
D03*
Y17986D02*
D03*
X202067Y49482D02*
D03*
X206004Y33734D02*
D03*
X207972Y25860D02*
D03*
Y4207D02*
D03*
Y23892D02*
D03*
X206004D02*
D03*
X202067Y16018D02*
D03*
X209941Y4207D02*
D03*
X202067Y12081D02*
D03*
X204035Y39640D02*
D03*
X206004Y43577D02*
D03*
X207972Y2238D02*
D03*
X206004Y4207D02*
D03*
X204035Y27829D02*
D03*
X206004Y8144D02*
D03*
Y10112D02*
D03*
X204035Y41608D02*
D03*
X206004Y45545D02*
D03*
Y6175D02*
D03*
Y19955D02*
D03*
Y17986D02*
D03*
X207972Y35703D02*
D03*
X204035Y49482D02*
D03*
X202067Y45545D02*
D03*
X207972Y33734D02*
D03*
X206004Y25860D02*
D03*
X209941Y21923D02*
D03*
X204035Y14049D02*
D03*
X206004Y12081D02*
D03*
Y39640D02*
D03*
X204035Y10112D02*
D03*
X202067Y14049D02*
D03*
X204035Y35703D02*
D03*
Y37671D02*
D03*
X207972Y31766D02*
D03*
X202067D02*
D03*
Y43577D02*
D03*
Y47514D02*
D03*
X207972Y19955D02*
D03*
X202067Y29797D02*
D03*
X209941Y23892D02*
D03*
Y25860D02*
D03*
X206004Y41608D02*
D03*
X209941Y27829D02*
D03*
X207972D02*
D03*
X206004Y31766D02*
D03*
X207972Y29797D02*
D03*
X204035Y25860D02*
D03*
Y19955D02*
D03*
X209941Y16018D02*
D03*
X207972Y45545D02*
D03*
Y17986D02*
D03*
X209941Y35703D02*
D03*
Y37671D02*
D03*
X207972D02*
D03*
Y39640D02*
D03*
Y43577D02*
D03*
X206004Y29797D02*
D03*
Y37671D02*
D03*
Y35703D02*
D03*
Y27829D02*
D03*
X209941Y8144D02*
D03*
X207972D02*
D03*
Y14049D02*
D03*
Y16018D02*
D03*
X209941Y10112D02*
D03*
X204035Y2238D02*
D03*
X202067D02*
D03*
X105701Y108674D02*
D03*
X105709Y110801D02*
D03*
X102067Y106864D02*
D03*
X100492Y108045D02*
D03*
Y110014D02*
D03*
Y111982D02*
D03*
Y113951D02*
D03*
X95374Y118675D02*
D03*
X90256D02*
D03*
X94193Y130093D02*
D03*
X115824Y104601D02*
D03*
X113793Y103044D02*
D03*
X112303Y117888D02*
D03*
X114272D02*
D03*
X116240Y119856D02*
D03*
X114272D02*
D03*
X112303D02*
D03*
X110335Y121825D02*
D03*
X112303D02*
D03*
X114272D02*
D03*
X116240D02*
D03*
X118209D02*
D03*
X109941Y129699D02*
D03*
X111909Y130093D02*
D03*
X110335Y131667D02*
D03*
X99705Y135998D02*
D03*
X96850Y147435D02*
D03*
X109153D02*
D03*
X109274Y143892D02*
D03*
X2854Y131274D02*
D03*
Y128911D02*
D03*
Y126943D02*
D03*
X18602Y105683D02*
D03*
X16634D02*
D03*
X14665D02*
D03*
X2854Y46234D02*
D03*
Y48203D02*
D03*
Y50171D02*
D03*
X218602Y184423D02*
D03*
X220571D02*
D03*
Y182061D02*
D03*
X215453Y134030D02*
D03*
Y136392D02*
D03*
Y138754D02*
D03*
X213878Y141510D02*
D03*
Y144266D02*
D03*
X216634Y141510D02*
D03*
Y144266D02*
D03*
X219390Y141510D02*
D03*
Y144266D02*
D03*
X207185Y82652D02*
D03*
X218602Y100171D02*
D03*
X218307Y19364D02*
D03*
X219390Y13163D02*
D03*
X213090Y226549D02*
D03*
X5610Y218675D02*
D03*
Y220644D02*
D03*
Y222612D02*
D03*
Y224581D02*
D03*
X33169Y196234D02*
D03*
Y198203D02*
D03*
Y200171D02*
D03*
X2854Y24187D02*
D03*
Y32061D02*
D03*
X3248Y14345D02*
D03*
Y11589D02*
D03*
Y9227D02*
D03*
Y6864D02*
D03*
X22343Y45742D02*
D03*
X13091Y15526D02*
D03*
X12697Y20644D02*
D03*
X3248Y40723D02*
D03*
X2854Y59227D02*
D03*
Y67790D02*
D03*
X2953Y76549D02*
D03*
X2854Y84423D02*
D03*
Y86392D02*
D03*
Y88360D02*
D03*
Y90329D02*
D03*
X9154Y89148D02*
D03*
X2067Y93479D02*
D03*
Y97022D02*
D03*
X200098Y149778D02*
D03*
X215199Y150854D02*
D03*
X217028Y149384D02*
D03*
Y151746D02*
D03*
X204823D02*
D03*
X213779Y149384D02*
D03*
X212465Y136570D02*
D03*
X210433Y136589D02*
D03*
X195866Y120250D02*
D03*
X193799Y120152D02*
D03*
X197109Y194167D02*
D03*
X206621Y228612D02*
D03*
X70386Y133242D02*
D03*
X67224Y141904D02*
D03*
X16035Y61392D02*
D03*
X23720Y106175D02*
D03*
X25197Y81569D02*
D03*
X38976Y111293D02*
D03*
X64272Y121530D02*
D03*
X31496Y144660D02*
D03*
X41240Y136687D02*
D03*
X123031Y121136D02*
D03*
X134252Y135678D02*
D03*
X136122Y129601D02*
D03*
X82185Y103414D02*
D03*
X84646Y101261D02*
D03*
X90256Y97998D02*
D03*
X87500Y97908D02*
D03*
X140354Y119364D02*
D03*
X141182Y92576D02*
D03*
X137500Y92494D02*
D03*
X155413Y96599D02*
D03*
X128247Y101866D02*
D03*
X131496Y102140D02*
D03*
X92815Y103427D02*
D03*
X89272Y107160D02*
D03*
X89468Y104305D02*
D03*
X84153Y107160D02*
D03*
X86713D02*
D03*
X3248Y54699D02*
D03*
X2854Y28419D02*
D03*
X53150Y134522D02*
D03*
X57087Y134620D02*
D03*
X44094Y121431D02*
D03*
X120374Y145841D02*
D03*
X45374Y137081D02*
D03*
X81890Y92475D02*
D03*
X183364Y130406D02*
D03*
X112008Y141149D02*
D03*
X114549Y141463D02*
D03*
X129761Y142282D02*
D03*
X148721Y136778D02*
D03*
X150144Y142410D02*
D03*
X128543Y121333D02*
D03*
X212853Y36654D02*
D03*
X181595Y109915D02*
D03*
X179232Y109719D02*
D03*
X216254Y91381D02*
D03*
X215958Y87998D02*
D03*
X217528Y89593D02*
D03*
X218840Y91330D02*
D03*
X218917Y87909D02*
D03*
X204823Y109817D02*
D03*
X173574Y116460D02*
D03*
X211442Y221038D02*
D03*
X219193Y176648D02*
D03*
X221162Y136786D02*
D03*
X199409Y125959D02*
D03*
X197638Y127534D02*
D03*
X199409Y128813D02*
D03*
X12894Y28518D02*
D03*
X13189Y11195D02*
D03*
X6791Y93577D02*
D03*
X2246Y101863D02*
D03*
X2264Y109289D02*
D03*
X2129Y145447D02*
D03*
X2093Y148793D02*
D03*
X215945Y5486D02*
D03*
X202756Y92888D02*
D03*
X92940Y106213D02*
D03*
X134015Y118380D02*
D03*
X125429Y118380D02*
D03*
X85152Y131560D02*
D03*
X80446Y147435D02*
D03*
X76083Y101845D02*
D03*
X84055Y98771D02*
D03*
X81496Y98793D02*
D03*
X33071Y76845D02*
D03*
X28740D02*
D03*
X27067Y79502D02*
D03*
X7505Y11884D02*
D03*
X12106Y225270D02*
D03*
X61417Y132553D02*
D03*
X64468Y132652D02*
D03*
X69390Y147435D02*
D03*
X116099Y107166D02*
D03*
X118434Y106118D02*
D03*
X136713Y133931D02*
D03*
X122633Y100458D02*
D03*
X126739Y92475D02*
D03*
X131698Y105973D02*
D03*
X134646Y106471D02*
D03*
X214935Y14837D02*
D03*
X150187Y146138D02*
D03*
X157972Y144439D02*
D03*
X156105Y147337D02*
D03*
X213779Y12278D02*
D03*
X204823Y122415D02*
D03*
X67421Y125171D02*
D03*
X57411Y121463D02*
D03*
X50787Y121431D02*
D03*
X77227Y92790D02*
D03*
X122539Y110211D02*
D03*
X148327Y106471D02*
D03*
X141485Y106364D02*
D03*
X6791Y96825D02*
D03*
X141437Y102104D02*
D03*
X65665Y179343D02*
D03*
X147027Y201319D02*
D03*
X148529Y199817D02*
D03*
X128831Y191431D02*
D03*
X126787Y192780D02*
D03*
X127188Y194886D02*
D03*
X125311Y194158D02*
D03*
X133738Y199201D02*
D03*
X142131Y194173D02*
D03*
X139671Y193468D02*
D03*
X151000Y216205D02*
D03*
X155144Y215828D02*
D03*
X159632Y218982D02*
D03*
X140819Y178581D02*
D03*
X138814Y180524D02*
D03*
X138798Y178460D02*
D03*
X137302Y177094D02*
D03*
X143421Y225457D02*
D03*
X141453D02*
D03*
X139386Y225555D02*
D03*
X137417Y225654D02*
D03*
X135449D02*
D03*
X133382D02*
D03*
X131315Y225555D02*
D03*
X166650Y212465D02*
D03*
X176839Y204283D02*
D03*
X176669Y208017D02*
D03*
X175590Y206226D02*
D03*
X173933Y204984D02*
D03*
Y207347D02*
D03*
X169679Y199161D02*
D03*
X164189Y202327D02*
D03*
X160055Y194748D02*
D03*
X164583Y194551D02*
D03*
X175902Y194354D02*
D03*
X176295Y190614D02*
D03*
X176394Y185102D02*
D03*
X174327Y186579D02*
D03*
X163023Y188335D02*
D03*
X163465Y179190D02*
D03*
X179051Y173882D02*
D03*
X162909Y157346D02*
D03*
X117339Y188842D02*
D03*
X119329Y188830D02*
D03*
X121387Y188842D02*
D03*
X123539D02*
D03*
X121613Y190985D02*
D03*
X119540Y190904D02*
D03*
X117352Y190985D02*
D03*
X113393Y194855D02*
D03*
X113697Y199069D02*
D03*
X92543Y202925D02*
D03*
X82201Y204591D02*
D03*
X81413Y206559D02*
D03*
Y208528D02*
D03*
X71943Y226551D02*
D03*
X69423Y226569D02*
D03*
X67373Y226588D02*
D03*
X65098Y226626D02*
D03*
X71079Y194256D02*
D03*
X76689Y194230D02*
D03*
X64681Y174374D02*
D03*
X106020Y210102D02*
D03*
X101886D02*
D03*
X97752D02*
D03*
X99819D02*
D03*
X103953D02*
D03*
X108087D02*
D03*
X97850Y206559D02*
D03*
X153069Y202854D02*
D03*
X154541Y201365D02*
D03*
X155511Y205408D02*
D03*
X152622Y208352D02*
D03*
X154101Y206901D02*
D03*
X108185Y206559D02*
D03*
X132299Y207642D02*
D03*
X123398Y182663D02*
D03*
X123146Y179787D02*
D03*
X167551Y201646D02*
D03*
X92437Y199512D02*
D03*
X119835Y226343D02*
D03*
X128362Y225161D02*
D03*
X134465Y220134D02*
D03*
X137811D02*
D03*
X161683Y227952D02*
D03*
X179150Y181891D02*
D03*
X152279Y171520D02*
D03*
X135744Y184906D02*
D03*
X100016Y182937D02*
D03*
X98047Y173980D02*
D03*
X99032Y176835D02*
D03*
X165712Y222963D02*
D03*
X123097Y201033D02*
D03*
X127001Y197129D02*
D03*
X145087Y200468D02*
D03*
X107981Y217340D02*
D03*
X99713D02*
D03*
X97646D02*
D03*
X101780D02*
D03*
X103847D02*
D03*
X88106Y217189D02*
D03*
X105914Y217340D02*
D03*
X140961Y180575D02*
D03*
X79620Y157372D02*
D03*
X132693Y180968D02*
D03*
X123146Y175686D02*
D03*
X121177D02*
D03*
X119209D02*
D03*
X123146Y177749D02*
D03*
X119209D02*
D03*
X121177D02*
D03*
X119209Y179787D02*
D03*
X121177D02*
D03*
X125037Y197529D02*
D03*
X121664Y199122D02*
D03*
X123988Y195722D02*
D03*
X124134Y199295D02*
D03*
X122899Y197489D02*
D03*
X141453Y220240D02*
D03*
X134760Y215516D02*
D03*
X167195Y196861D02*
D03*
X149346Y211290D02*
D03*
X142142Y203311D02*
D03*
X149524Y195437D02*
D03*
X147976Y197524D02*
D03*
X156983Y203919D02*
D03*
X146566Y199017D02*
D03*
X151157Y209817D02*
D03*
X147258Y208649D02*
D03*
X153571Y204961D02*
D03*
X151401Y196872D02*
D03*
X150180Y205799D02*
D03*
X145575Y202771D02*
D03*
X152092Y206413D02*
D03*
X148715Y207264D02*
D03*
X156453Y201979D02*
D03*
X143622Y201933D02*
D03*
X154981Y203468D02*
D03*
X144118Y204155D02*
D03*
X150627Y207878D02*
D03*
X149929Y198361D02*
D03*
X149169Y209263D02*
D03*
X151659Y204347D02*
D03*
X178165Y223259D02*
D03*
X178134Y218696D02*
D03*
X128728Y193624D02*
D03*
X179051Y177425D02*
D03*
X175902D02*
D03*
X158346Y165332D02*
D03*
X154354Y169453D02*
D03*
X158409Y169441D02*
D03*
Y171508D02*
D03*
X154292Y165344D02*
D03*
X152279Y167386D02*
D03*
X154354D02*
D03*
X156331Y165380D02*
D03*
X152279Y169453D02*
D03*
X158409Y167374D02*
D03*
X156393Y169489D02*
D03*
Y171555D02*
D03*
Y167422D02*
D03*
X154354Y171520D02*
D03*
X152217Y165344D02*
D03*
X121289Y182588D02*
D03*
X119338Y184646D02*
D03*
X119230Y182575D02*
D03*
X123505Y184734D02*
D03*
X117385Y186717D02*
D03*
X125469Y182663D02*
D03*
X117240Y182588D02*
D03*
X121396Y184659D02*
D03*
X119376Y186705D02*
D03*
X117348Y184659D02*
D03*
X121434Y186717D02*
D03*
X123543Y186793D02*
D03*
X125576Y184734D02*
D03*
X169504Y227917D02*
D03*
X79505Y225886D02*
D03*
X77194Y220255D02*
D03*
X79213Y220449D02*
D03*
X76669Y218215D02*
D03*
X80048Y218177D02*
D03*
X77269Y225925D02*
D03*
X76640Y213336D02*
D03*
X79608Y213192D02*
D03*
X100902Y208331D02*
D03*
X101984Y206559D02*
D03*
X108973Y215516D02*
D03*
X109169Y208331D02*
D03*
X102772Y215516D02*
D03*
X100705D02*
D03*
X106905D02*
D03*
X99917Y206559D02*
D03*
X107102Y208331D02*
D03*
X105035D02*
D03*
X98638Y215516D02*
D03*
X98835Y208331D02*
D03*
X106118Y206559D02*
D03*
X104051D02*
D03*
X102969Y208331D02*
D03*
X104839Y215516D02*
D03*
X80517Y227992D02*
D03*
X78155Y228090D02*
D03*
X75989D02*
D03*
X74327Y218665D02*
D03*
Y220831D02*
D03*
X72457Y221815D02*
D03*
X72454Y219754D02*
D03*
X72440Y217669D02*
D03*
X70373D02*
D03*
X70387Y219754D02*
D03*
X70390Y221815D02*
D03*
X113915Y204697D02*
D03*
X105960Y176971D02*
D03*
X110136Y181115D02*
D03*
X112151Y183134D02*
D03*
X110073Y177007D02*
D03*
X110136Y179048D02*
D03*
X112151Y179000D02*
D03*
X106022Y181079D02*
D03*
Y183146D02*
D03*
Y179012D02*
D03*
X108034Y176971D02*
D03*
X110136Y183182D02*
D03*
X112089Y176959D02*
D03*
X108097Y179012D02*
D03*
Y183146D02*
D03*
X112151Y181068D02*
D03*
X108097Y181079D02*
D03*
X87824Y181007D02*
D03*
X93953Y178928D02*
D03*
X87761Y176898D02*
D03*
X89836D02*
D03*
X93953Y180995D02*
D03*
X89899Y178940D02*
D03*
X87824D02*
D03*
X91938Y183109D02*
D03*
X89899Y181007D02*
D03*
Y183073D02*
D03*
X93891Y176886D02*
D03*
X93953Y183062D02*
D03*
X91875Y176934D02*
D03*
X91938Y178975D02*
D03*
Y181042D02*
D03*
X87824Y183073D02*
D03*
X117240Y179787D02*
D03*
Y175686D02*
D03*
Y177749D02*
D03*
X129354Y164060D02*
D03*
Y166058D02*
D03*
Y168095D02*
D03*
X127327Y164060D02*
D03*
Y166058D02*
D03*
Y168095D02*
D03*
X125319Y164121D02*
D03*
Y166119D02*
D03*
Y168157D02*
D03*
X123302Y164101D02*
D03*
Y166099D02*
D03*
Y168136D02*
D03*
X121254Y164070D02*
D03*
Y166068D02*
D03*
Y168105D02*
D03*
X119257Y164121D02*
D03*
Y166119D02*
D03*
Y168157D02*
D03*
X117240Y168075D02*
D03*
Y166037D02*
D03*
Y164039D02*
D03*
X169996Y185791D02*
D03*
X89484Y172898D02*
D03*
X92043D02*
D03*
X94602D02*
D03*
X107595Y172799D02*
D03*
X110153D02*
D03*
X112713D02*
D03*
X84169Y207347D02*
D03*
X85350Y203409D02*
D03*
X177513Y227917D02*
D03*
X83579Y195204D02*
D03*
X21260Y253150D02*
D03*
X14567D02*
D03*
X11811Y246457D02*
D03*
X24016D02*
D03*
X157272Y60353D02*
D03*
X75910Y38378D02*
D03*
X74408Y39880D02*
D03*
X94106Y48266D02*
D03*
X96150Y46917D02*
D03*
X95749Y44811D02*
D03*
X97626Y45539D02*
D03*
X89199Y40496D02*
D03*
X80805Y45524D02*
D03*
X83266Y46228D02*
D03*
X71937Y23492D02*
D03*
X67793Y23869D02*
D03*
X63305Y20715D02*
D03*
X82118Y61116D02*
D03*
X84123Y59173D02*
D03*
X84139Y61237D02*
D03*
X85635Y62602D02*
D03*
X79516Y14240D02*
D03*
X81484D02*
D03*
X83551Y14142D02*
D03*
X85520Y14043D02*
D03*
X87488D02*
D03*
X89555D02*
D03*
X91622Y14142D02*
D03*
X56287Y27232D02*
D03*
X46098Y35414D02*
D03*
X46268Y31680D02*
D03*
X47347Y33470D02*
D03*
X49004Y34713D02*
D03*
Y32350D02*
D03*
X53258Y40535D02*
D03*
X58748Y37370D02*
D03*
X62882Y44949D02*
D03*
X58354Y45146D02*
D03*
X47035Y45342D02*
D03*
X46642Y49083D02*
D03*
X46543Y54594D02*
D03*
X48610Y53118D02*
D03*
X59913Y51362D02*
D03*
X59472Y60507D02*
D03*
X43886Y65815D02*
D03*
X60028Y82350D02*
D03*
X105598Y50854D02*
D03*
X103608Y50867D02*
D03*
X101550Y50854D02*
D03*
X99398D02*
D03*
X101324Y48712D02*
D03*
X103397Y48793D02*
D03*
X105585Y48712D02*
D03*
X109544Y44841D02*
D03*
X109240Y40627D02*
D03*
X130394Y36772D02*
D03*
X140736Y35106D02*
D03*
X141524Y33138D02*
D03*
Y31169D02*
D03*
X150994Y13146D02*
D03*
X153514Y13127D02*
D03*
X155564Y13109D02*
D03*
X157839Y13071D02*
D03*
X151858Y45441D02*
D03*
X146248Y45467D02*
D03*
X158256Y65323D02*
D03*
X116917Y29594D02*
D03*
X121051D02*
D03*
X125185D02*
D03*
X123118D02*
D03*
X118984D02*
D03*
X114850D02*
D03*
X125087Y33138D02*
D03*
X69868Y36843D02*
D03*
X68396Y38332D02*
D03*
X67426Y34289D02*
D03*
X70315Y31345D02*
D03*
X68836Y32796D02*
D03*
X114752Y33138D02*
D03*
X90638Y32055D02*
D03*
X99539Y57034D02*
D03*
X99791Y59909D02*
D03*
X55386Y38051D02*
D03*
X130500Y40185D02*
D03*
X103102Y13354D02*
D03*
X94575Y14535D02*
D03*
X88472Y19563D02*
D03*
X85126D02*
D03*
X61254Y11745D02*
D03*
X43787Y57806D02*
D03*
X70657Y68177D02*
D03*
X87193Y54791D02*
D03*
X122921Y56760D02*
D03*
X124890Y65716D02*
D03*
X123906Y62862D02*
D03*
X57225Y16734D02*
D03*
X99840Y38664D02*
D03*
X95936Y42568D02*
D03*
X77850Y39229D02*
D03*
X114956Y22357D02*
D03*
X123224D02*
D03*
X125291D02*
D03*
X121157D02*
D03*
X119090D02*
D03*
X134831Y22508D02*
D03*
X117023Y22357D02*
D03*
X81976Y59122D02*
D03*
X143317Y82325D02*
D03*
X90244Y58728D02*
D03*
X99791Y64011D02*
D03*
X101760D02*
D03*
X103728D02*
D03*
X99791Y61948D02*
D03*
X103728D02*
D03*
X101760D02*
D03*
X103728Y59909D02*
D03*
X101760D02*
D03*
X97900Y42168D02*
D03*
X101273Y40575D02*
D03*
X98949Y43974D02*
D03*
X98803Y40402D02*
D03*
X100038Y42208D02*
D03*
X81484Y19457D02*
D03*
X88177Y24181D02*
D03*
X55742Y42835D02*
D03*
X73591Y28407D02*
D03*
X80795Y36386D02*
D03*
X73413Y44260D02*
D03*
X74962Y42173D02*
D03*
X65954Y35778D02*
D03*
X76371Y40680D02*
D03*
X71780Y29880D02*
D03*
X75679Y31048D02*
D03*
X69366Y34736D02*
D03*
X71536Y42825D02*
D03*
X72757Y33898D02*
D03*
X77362Y36926D02*
D03*
X70845Y33284D02*
D03*
X74222Y32433D02*
D03*
X66484Y37718D02*
D03*
X79315Y37764D02*
D03*
X67957Y36229D02*
D03*
X78819Y35541D02*
D03*
X72310Y31819D02*
D03*
X73008Y41336D02*
D03*
X73768Y30434D02*
D03*
X71278Y35350D02*
D03*
X44772Y16438D02*
D03*
X44803Y21000D02*
D03*
X94209Y46073D02*
D03*
X43886Y62272D02*
D03*
X47035D02*
D03*
X64591Y74364D02*
D03*
X68583Y70244D02*
D03*
X64528Y70256D02*
D03*
Y68189D02*
D03*
X68645Y74353D02*
D03*
X70657Y72311D02*
D03*
X68583D02*
D03*
X66606Y74317D02*
D03*
X70657Y70244D02*
D03*
X64528Y72323D02*
D03*
X66544Y70208D02*
D03*
Y68141D02*
D03*
Y72275D02*
D03*
X68583Y68177D02*
D03*
X70720Y74353D02*
D03*
X101648Y57109D02*
D03*
X103599Y55050D02*
D03*
X103707Y57122D02*
D03*
X99432Y54963D02*
D03*
X105552Y52979D02*
D03*
X97468Y57034D02*
D03*
X105697Y57109D02*
D03*
X101541Y55038D02*
D03*
X103561Y52992D02*
D03*
X105589Y55038D02*
D03*
X101503Y52979D02*
D03*
X99394Y52904D02*
D03*
X97361Y54963D02*
D03*
X53433Y11779D02*
D03*
X143432Y13811D02*
D03*
X145743Y19442D02*
D03*
X143724Y19248D02*
D03*
X146268Y21481D02*
D03*
X142889Y21520D02*
D03*
X145668Y13772D02*
D03*
X146297Y26360D02*
D03*
X143329Y26505D02*
D03*
X122035Y31366D02*
D03*
X120953Y33138D02*
D03*
X113965Y24181D02*
D03*
X113768Y31366D02*
D03*
X120165Y24181D02*
D03*
X122232D02*
D03*
X116032D02*
D03*
X123020Y33138D02*
D03*
X115835Y31366D02*
D03*
X117902D02*
D03*
X124299Y24181D02*
D03*
X124102Y31366D02*
D03*
X116819Y33138D02*
D03*
X118886D02*
D03*
X119968Y31366D02*
D03*
X118098Y24181D02*
D03*
X142420Y11705D02*
D03*
X144782Y11607D02*
D03*
X146948D02*
D03*
X148610Y21032D02*
D03*
Y18866D02*
D03*
X150480Y17882D02*
D03*
X150483Y19943D02*
D03*
X150497Y22028D02*
D03*
X152564D02*
D03*
X152550Y19943D02*
D03*
X152547Y17882D02*
D03*
X109022Y35000D02*
D03*
X116977Y62726D02*
D03*
X112801Y58582D02*
D03*
X110786Y56563D02*
D03*
X112864Y62690D02*
D03*
X112801Y60649D02*
D03*
X110786Y60696D02*
D03*
X116915Y58618D02*
D03*
Y56551D02*
D03*
Y60684D02*
D03*
X114903Y62726D02*
D03*
X112801Y56515D02*
D03*
X110848Y62738D02*
D03*
X114840Y60684D02*
D03*
Y56551D02*
D03*
X110786Y58629D02*
D03*
X114840Y58618D02*
D03*
X135113Y58690D02*
D03*
X128984Y60769D02*
D03*
X135176Y62799D02*
D03*
X133101D02*
D03*
X128984Y58702D02*
D03*
X133038Y60757D02*
D03*
X135113D02*
D03*
X130999Y56588D02*
D03*
X133038Y58690D02*
D03*
Y56623D02*
D03*
X129046Y62811D02*
D03*
X128984Y56635D02*
D03*
X131062Y62763D02*
D03*
X130999Y60721D02*
D03*
Y58655D02*
D03*
X135113Y56623D02*
D03*
X105697Y59909D02*
D03*
Y64011D02*
D03*
Y61948D02*
D03*
X93583Y75637D02*
D03*
Y73639D02*
D03*
Y71602D02*
D03*
X95610Y75637D02*
D03*
Y73639D02*
D03*
Y71602D02*
D03*
X97618Y75576D02*
D03*
Y73578D02*
D03*
Y71540D02*
D03*
X99635Y75596D02*
D03*
Y73598D02*
D03*
Y71561D02*
D03*
X101683Y75627D02*
D03*
Y73629D02*
D03*
Y71591D02*
D03*
X103680Y75576D02*
D03*
Y73578D02*
D03*
Y71540D02*
D03*
X105697Y71622D02*
D03*
Y73659D02*
D03*
Y75657D02*
D03*
X52941Y53905D02*
D03*
X133453Y66799D02*
D03*
X130894D02*
D03*
X128335D02*
D03*
X115342Y66898D02*
D03*
X112784D02*
D03*
X110224D02*
D03*
X138768Y32350D02*
D03*
X137587Y36287D02*
D03*
X45424Y11779D02*
D03*
X139358Y44493D02*
D03*
D77*
X25000Y210266D02*
D03*
Y24654D02*
D03*
X210630Y204778D02*
D03*
X71465Y165354D02*
D03*
X171465D02*
D03*
X151472Y74343D02*
D03*
X51472D02*
D03*
D78*
X25787Y191707D02*
D03*
X21850D02*
D03*
X25787Y187770D02*
D03*
X21850D02*
D03*
X213583Y159522D02*
D03*
X209646D02*
D03*
X213583Y155585D02*
D03*
X209646D02*
D03*
D79*
X12650Y130730D02*
D03*
D80*
X23228Y120152D02*
D03*
D81*
X28268Y172788D02*
D03*
D82*
X20683Y182495D02*
D03*
M02*
