G04*
G04 #@! TF.GenerationSoftware,Altium Limited,Altium Designer,21.7.2 (23)*
G04*
G04 Layer_Physical_Order=1*
G04 Layer_Color=255*
%FSLAX25Y25*%
%MOIN*%
G70*
G04*
G04 #@! TF.SameCoordinates,36E82812-18AB-4B4F-9185-4EDF9D12745B*
G04*
G04*
G04 #@! TF.FilePolarity,Positive*
G04*
G01*
G75*
%ADD10R,0.07874X0.02205*%
%ADD11C,0.01000*%
%ADD12R,0.02362X0.01575*%
%ADD13R,0.04331X0.02559*%
%ADD14R,0.02362X0.02500*%
%ADD15R,0.02500X0.02362*%
%ADD16O,0.05512X0.03937*%
%ADD17R,0.02362X0.02756*%
%ADD18R,0.06417X0.02402*%
%ADD19R,0.06693X0.08858*%
%ADD20R,0.01378X0.03150*%
%ADD21R,0.03937X0.02165*%
%ADD22R,0.01083X0.01181*%
%ADD23R,0.02165X0.05118*%
%ADD24R,0.03150X0.05807*%
%ADD25R,0.07284X0.12303*%
%ADD26R,0.02756X0.02362*%
%ADD27R,0.03800X0.03937*%
%ADD28R,0.05512X0.06299*%
%ADD29R,0.03347X0.01181*%
G04:AMPARAMS|DCode=30|XSize=53.15mil|YSize=39.37mil|CornerRadius=0mil|HoleSize=0mil|Usage=FLASHONLY|Rotation=45.000|XOffset=0mil|YOffset=0mil|HoleType=Round|Shape=Rectangle|*
%AMROTATEDRECTD30*
4,1,4,-0.00487,-0.03271,-0.03271,-0.00487,0.00487,0.03271,0.03271,0.00487,-0.00487,-0.03271,0.0*
%
%ADD30ROTATEDRECTD30*%

G04:AMPARAMS|DCode=31|XSize=78.74mil|YSize=70.87mil|CornerRadius=0mil|HoleSize=0mil|Usage=FLASHONLY|Rotation=45.000|XOffset=0mil|YOffset=0mil|HoleType=Round|Shape=Rectangle|*
%AMROTATEDRECTD31*
4,1,4,-0.00278,-0.05289,-0.05289,-0.00278,0.00278,0.05289,0.05289,0.00278,-0.00278,-0.05289,0.0*
%
%ADD31ROTATEDRECTD31*%

%ADD32R,0.02756X0.03937*%
%ADD33P,0.36190X4X90.0*%
G04:AMPARAMS|DCode=34|XSize=37.4mil|YSize=7.87mil|CornerRadius=0mil|HoleSize=0mil|Usage=FLASHONLY|Rotation=45.000|XOffset=0mil|YOffset=0mil|HoleType=Round|Shape=Rectangle|*
%AMROTATEDRECTD34*
4,1,4,-0.01044,-0.01601,-0.01601,-0.01044,0.01044,0.01601,0.01601,0.01044,-0.01044,-0.01601,0.0*
%
%ADD34ROTATEDRECTD34*%

G04:AMPARAMS|DCode=35|XSize=37.4mil|YSize=7.87mil|CornerRadius=0mil|HoleSize=0mil|Usage=FLASHONLY|Rotation=315.000|XOffset=0mil|YOffset=0mil|HoleType=Round|Shape=Rectangle|*
%AMROTATEDRECTD35*
4,1,4,-0.01601,0.01044,-0.01044,0.01601,0.01601,-0.01044,0.01044,-0.01601,-0.01601,0.01044,0.0*
%
%ADD35ROTATEDRECTD35*%

%ADD36R,0.02559X0.04331*%
%ADD37R,0.01575X0.02362*%
%ADD38R,0.06693X0.09449*%
%ADD39R,0.03347X0.01378*%
%ADD40R,0.04500X0.05906*%
%ADD41R,0.02362X0.06299*%
%ADD42R,0.04724X0.07087*%
%ADD43R,0.03937X0.03800*%
%ADD44R,0.09843X0.70866*%
G04:AMPARAMS|DCode=45|XSize=23.62mil|YSize=19.68mil|CornerRadius=4.92mil|HoleSize=0mil|Usage=FLASHONLY|Rotation=180.000|XOffset=0mil|YOffset=0mil|HoleType=Round|Shape=RoundedRectangle|*
%AMROUNDEDRECTD45*
21,1,0.02362,0.00984,0,0,180.0*
21,1,0.01378,0.01968,0,0,180.0*
1,1,0.00984,-0.00689,0.00492*
1,1,0.00984,0.00689,0.00492*
1,1,0.00984,0.00689,-0.00492*
1,1,0.00984,-0.00689,-0.00492*
%
%ADD45ROUNDEDRECTD45*%
%ADD46R,0.01575X0.01575*%
%ADD47R,0.01575X0.02165*%
%ADD48R,0.09646X0.07874*%
%ADD49R,0.11811X0.05709*%
%ADD50O,0.05512X0.07874*%
%ADD51O,0.05118X0.03937*%
%ADD52R,0.03937X0.02756*%
%ADD53R,0.05906X0.04500*%
%ADD54C,0.01181*%
%ADD55C,0.00787*%
%ADD56C,0.01575*%
%ADD57C,0.00965*%
%ADD58C,0.01968*%
G04:AMPARAMS|DCode=59|XSize=25mil|YSize=23.62mil|CornerRadius=0mil|HoleSize=0mil|Usage=FLASHONLY|Rotation=225.000|XOffset=0mil|YOffset=0mil|HoleType=Round|Shape=Rectangle|*
%AMROTATEDRECTD59*
4,1,4,0.00049,0.01719,0.01719,0.00049,-0.00049,-0.01719,-0.01719,-0.00049,0.00049,0.01719,0.0*
%
%ADD59ROTATEDRECTD59*%

G04:AMPARAMS|DCode=60|XSize=45mil|YSize=59.06mil|CornerRadius=0mil|HoleSize=0mil|Usage=FLASHONLY|Rotation=225.000|XOffset=0mil|YOffset=0mil|HoleType=Round|Shape=Rectangle|*
%AMROTATEDRECTD60*
4,1,4,-0.00497,0.03679,0.03679,-0.00497,0.00497,-0.03679,-0.03679,0.00497,-0.00497,0.03679,0.0*
%
%ADD60ROTATEDRECTD60*%

%ADD61R,0.01654X0.02165*%
G04:AMPARAMS|DCode=62|XSize=33.47mil|YSize=9.84mil|CornerRadius=0mil|HoleSize=0mil|Usage=FLASHONLY|Rotation=45.000|XOffset=0mil|YOffset=0mil|HoleType=Round|Shape=Rectangle|*
%AMROTATEDRECTD62*
4,1,4,-0.00835,-0.01531,-0.01531,-0.00835,0.00835,0.01531,0.01531,0.00835,-0.00835,-0.01531,0.0*
%
%ADD62ROTATEDRECTD62*%

G04:AMPARAMS|DCode=63|XSize=33.47mil|YSize=9.84mil|CornerRadius=0mil|HoleSize=0mil|Usage=FLASHONLY|Rotation=135.000|XOffset=0mil|YOffset=0mil|HoleType=Round|Shape=Rectangle|*
%AMROTATEDRECTD63*
4,1,4,0.01531,-0.00835,0.00835,-0.01531,-0.01531,0.00835,-0.00835,0.01531,0.01531,-0.00835,0.0*
%
%ADD63ROTATEDRECTD63*%

%ADD64P,0.20044X4X180.0*%
%ADD65R,0.01575X0.01575*%
%ADD66R,0.02165X0.01575*%
%ADD67R,0.07874X0.09646*%
%ADD68R,0.13976X0.13976*%
%ADD69R,0.01181X0.03347*%
%ADD70C,0.01001*%
%ADD71R,0.02500X0.02362*%
%ADD72R,0.11811X0.05709*%
%ADD73C,0.00039*%
%ADD74C,0.00500*%
%ADD75C,0.03150*%
%ADD76C,0.01772*%
%ADD77C,0.17717*%
%ADD78C,0.01102*%
%ADD79C,0.01476*%
%ADD80C,0.02067*%
%ADD81C,0.02362*%
%ADD82C,0.01968*%
G36*
X222032Y252284D02*
X217922D01*
X217588Y252783D01*
X217618Y252856D01*
Y253443D01*
X217393Y253986D01*
X216978Y254401D01*
X216435Y254626D01*
X215848D01*
X215305Y254401D01*
X214890Y253986D01*
X214665Y253443D01*
Y252856D01*
X214695Y252783D01*
X214361Y252284D01*
X213386D01*
Y248504D01*
X222032D01*
Y239386D01*
X203952D01*
Y248504D01*
X212598D01*
Y252284D01*
X211229D01*
X210895Y252783D01*
X210925Y252856D01*
Y253443D01*
X210700Y253986D01*
X210285Y254401D01*
X209742Y254626D01*
X209155D01*
X208612Y254401D01*
X208197Y253986D01*
X207972Y253443D01*
Y252856D01*
X208002Y252783D01*
X207668Y252284D01*
X203952D01*
Y255967D01*
X205451Y257465D01*
X222032D01*
Y252284D01*
D02*
G37*
G36*
X27150D02*
X23040D01*
X22706Y252783D01*
X22736Y252856D01*
Y253443D01*
X22511Y253986D01*
X22096Y254401D01*
X21553Y254626D01*
X20966D01*
X20424Y254401D01*
X20008Y253986D01*
X19783Y253443D01*
Y252856D01*
X19814Y252783D01*
X19479Y252284D01*
X18504D01*
Y248504D01*
X27150D01*
Y239386D01*
X9070D01*
Y248504D01*
X17717D01*
Y252284D01*
X16347D01*
X16013Y252783D01*
X16043Y252856D01*
Y253443D01*
X15819Y253986D01*
X15403Y254401D01*
X14861Y254626D01*
X14273D01*
X13731Y254401D01*
X13315Y253986D01*
X13091Y253443D01*
Y252856D01*
X13121Y252783D01*
X12787Y252284D01*
X9070D01*
Y255967D01*
X10569Y257465D01*
X27150D01*
Y252284D01*
D02*
G37*
G36*
X88255Y229043D02*
X87819Y228606D01*
X85800D01*
Y226656D01*
X81818Y222674D01*
X81798Y222667D01*
X81201Y222765D01*
X81194Y222776D01*
X81194Y222776D01*
X80505Y223465D01*
X80244Y223639D01*
X79937Y223700D01*
X69701D01*
X69394Y223639D01*
X69133Y223465D01*
X68959Y223205D01*
X68898Y222898D01*
Y217965D01*
X68897Y217962D01*
Y217375D01*
X68898Y217372D01*
Y210004D01*
X68959Y209697D01*
X69133Y209436D01*
X69330Y209239D01*
X69590Y209065D01*
X69898Y209004D01*
X71549D01*
Y204787D01*
X66650D01*
Y205089D01*
X66507D01*
Y209315D01*
X67757D01*
Y216795D01*
X62432D01*
Y225800D01*
X62445Y225912D01*
X62528Y226378D01*
X62528D01*
X62516Y226872D01*
X62588Y227160D01*
X62588D01*
X62723Y227613D01*
X62730Y227632D01*
X62754Y227678D01*
X62937Y228028D01*
X63051Y228182D01*
X63114Y228189D01*
X63122Y228192D01*
X63200Y228381D01*
X63372Y228565D01*
X63556Y228737D01*
X63745Y228815D01*
X63748Y228823D01*
X63755Y228886D01*
X63910Y229001D01*
X63932Y229014D01*
X64305Y229207D01*
X64455Y229266D01*
X64776Y229349D01*
X64777Y229349D01*
X64781Y229350D01*
X64936Y229415D01*
X65083Y229438D01*
X65559Y229409D01*
Y229409D01*
X66036Y229491D01*
X66153Y229504D01*
X88064D01*
X88255Y229043D01*
D02*
G37*
G36*
X33329Y231199D02*
X33575Y231113D01*
X33795Y230975D01*
X33978Y230791D01*
X34117Y230571D01*
X34202Y230326D01*
X34237Y230022D01*
Y214454D01*
X33746Y214356D01*
X33548Y214835D01*
X32492Y216415D01*
X31149Y217758D01*
X29569Y218814D01*
X27814Y219541D01*
X25950Y219912D01*
X24050D01*
X22186Y219541D01*
X20431Y218814D01*
X18851Y217758D01*
X17508Y216415D01*
X16452Y214835D01*
X15725Y213080D01*
X15354Y211216D01*
Y209316D01*
X15725Y207453D01*
X16282Y206109D01*
X15858Y205826D01*
X14075Y207609D01*
Y208734D01*
X10138D01*
Y205421D01*
X9345D01*
X8997Y205352D01*
X8701Y205154D01*
X7311Y203765D01*
X6830D01*
X6287Y203540D01*
X5872Y203124D01*
X5647Y202582D01*
Y201994D01*
X5872Y201452D01*
X6287Y201037D01*
X6830Y200812D01*
X7417D01*
X7879Y201003D01*
X8190Y200878D01*
X8379Y200749D01*
Y198301D01*
X2854D01*
Y194167D01*
X2598Y193774D01*
X803D01*
Y230022D01*
X837Y230325D01*
X923Y230571D01*
X1061Y230791D01*
X1245Y230975D01*
X1465Y231113D01*
X1710Y231199D01*
X2014Y231233D01*
X2419D01*
X2854Y231077D01*
X2854Y230733D01*
Y226943D01*
X8760D01*
X8760Y231077D01*
X9195Y231233D01*
X33026D01*
X33329Y231199D01*
D02*
G37*
G36*
X99885Y227113D02*
X99385Y226813D01*
X99360Y226827D01*
Y229504D01*
X99885D01*
Y227113D01*
D02*
G37*
G36*
X95285Y226376D02*
X94624D01*
X94474Y226526D01*
Y227398D01*
X95285D01*
Y226376D01*
D02*
G37*
G36*
X170875Y225949D02*
X171508D01*
Y225260D01*
X171276D01*
Y222307D01*
Y219748D01*
Y217189D01*
Y214630D01*
X176197D01*
Y216190D01*
X176197Y216690D01*
X180134D01*
X180497Y216359D01*
Y199374D01*
X176522D01*
Y197283D01*
X176497Y197266D01*
X175996Y197533D01*
Y199374D01*
X175898Y199374D01*
Y203311D01*
X171823D01*
Y199374D01*
X171922Y199374D01*
Y198015D01*
X171576Y197946D01*
X171150Y197662D01*
X169625Y196137D01*
X169163Y196328D01*
Y197537D01*
X169385Y197685D01*
X169972D01*
X170515Y197910D01*
X170930Y198325D01*
X171155Y198868D01*
Y199455D01*
X170930Y199998D01*
X170515Y200413D01*
X169972Y200638D01*
X169385D01*
X168842Y200413D01*
X168427Y199998D01*
X168202Y199455D01*
Y198899D01*
X165226D01*
Y198266D01*
X164106D01*
X161290Y201082D01*
X160834Y201387D01*
X160801Y201394D01*
X159461Y202734D01*
X157652Y200924D01*
X158992Y199584D01*
X158998Y199551D01*
X159303Y199096D01*
X162531Y195868D01*
X162986Y195563D01*
X163177Y195016D01*
X163106Y194845D01*
Y194257D01*
X163331Y193715D01*
X163746Y193300D01*
X163953Y193214D01*
X163853Y192714D01*
X158392D01*
X157397Y193710D01*
X158173Y194486D01*
X158658Y194264D01*
X158803Y193912D01*
X159219Y193496D01*
X159761Y193272D01*
X160349D01*
X160891Y193496D01*
X161307Y193912D01*
X161531Y194454D01*
Y195042D01*
X161307Y195584D01*
X160891Y196000D01*
X160509Y196158D01*
X158455Y198212D01*
X158441Y198233D01*
X158300Y198328D01*
X156677Y199950D01*
X153476Y196748D01*
X152501Y195774D01*
X149996Y193269D01*
X147491Y195774D01*
X146098Y197166D01*
X143315Y199950D01*
X142340Y200924D01*
X139139Y204126D01*
X138327Y203314D01*
X136073Y205569D01*
Y208233D01*
X136573Y208283D01*
X136598Y208153D01*
X136883Y207727D01*
X138767Y205842D01*
X138909Y205748D01*
X140531Y204126D01*
X143315Y206910D01*
X146098Y209694D01*
X147491Y211085D01*
X149996Y213591D01*
X153476Y210111D01*
X156260Y207327D01*
X157652Y205935D01*
X160853Y202734D01*
X162193Y204074D01*
X162226Y204080D01*
X162682Y204385D01*
X167486Y209190D01*
X169497D01*
Y208626D01*
X173572D01*
Y212563D01*
X169497D01*
Y211999D01*
X168240D01*
X168126Y212171D01*
Y212758D01*
X167901Y213301D01*
X167486Y213716D01*
X166943Y213941D01*
X166356D01*
X165813Y213716D01*
X165398Y213301D01*
X165173Y212758D01*
Y212171D01*
X165245Y211999D01*
Y210922D01*
X162685Y208362D01*
X162185Y208362D01*
X161549Y208998D01*
X158789Y211758D01*
X161661Y214630D01*
X164386D01*
Y217189D01*
Y220142D01*
X161781D01*
X161757Y220146D01*
X160554D01*
X160468Y220233D01*
X159925Y220458D01*
X159338D01*
X159056Y220868D01*
X159028Y221184D01*
X160126Y222282D01*
X161737D01*
X161864Y222307D01*
X164386D01*
Y225260D01*
X159465D01*
Y224885D01*
X159079Y224808D01*
X158653Y224524D01*
X158653Y224524D01*
X156529Y222399D01*
X156244Y221973D01*
X156144Y221471D01*
Y217553D01*
X155645Y217219D01*
X155438Y217304D01*
X154850D01*
X154308Y217079D01*
X153893Y216664D01*
X153884Y216663D01*
X152780Y217767D01*
X152153Y217140D01*
X151836Y217456D01*
X151294Y217681D01*
X150706D01*
X150164Y217456D01*
X149860Y217153D01*
X149360Y217310D01*
Y224276D01*
X149260Y224778D01*
X148975Y225204D01*
X145235Y228944D01*
X145145Y229005D01*
X145296Y229504D01*
X159530D01*
Y225949D01*
X166978D01*
Y229504D01*
X170875D01*
Y225949D01*
D02*
G37*
G36*
X100975Y225531D02*
X100513Y225340D01*
X100010Y225842D01*
X100217Y226343D01*
X100975D01*
Y225531D01*
D02*
G37*
G36*
X176904Y229490D02*
X177370Y229409D01*
X177370Y229409D01*
Y229409D01*
X177819Y229434D01*
X178152Y229349D01*
X178152Y229349D01*
X178605Y229214D01*
X178624Y229207D01*
X178670Y229183D01*
X179020Y229000D01*
X179174Y228886D01*
X179181Y228823D01*
X179184Y228815D01*
X179373Y228737D01*
X179557Y228565D01*
X179729Y228381D01*
X179807Y228192D01*
X179815Y228189D01*
X179878Y228182D01*
X179993Y228027D01*
X180006Y228006D01*
X180199Y227632D01*
X180260Y227478D01*
X180341Y227161D01*
X180341Y227160D01*
X180342Y227156D01*
X180413Y226873D01*
X180401Y226378D01*
X180401D01*
X180484Y225912D01*
X180497Y225800D01*
Y225696D01*
X180134Y225365D01*
X176197D01*
X176197Y225260D01*
X174318D01*
Y225949D01*
X174950D01*
Y229504D01*
X176776D01*
X176904Y229490D01*
D02*
G37*
G36*
X90400Y225986D02*
Y224947D01*
X90374Y224755D01*
X89874Y224787D01*
X89874Y224947D01*
Y226237D01*
X89900Y226253D01*
X90400Y225986D01*
D02*
G37*
G36*
X126361Y226047D02*
X130436D01*
Y226703D01*
X143763D01*
X146735Y223732D01*
Y222837D01*
X146235Y222630D01*
X145046Y223818D01*
X144620Y224102D01*
X144118Y224202D01*
X125836D01*
Y226047D01*
Y229504D01*
X126361D01*
Y226047D01*
D02*
G37*
G36*
X179691Y221290D02*
X179845Y221028D01*
X179691Y220765D01*
X178886D01*
X178619Y221265D01*
X178636Y221290D01*
X179691D01*
D02*
G37*
G36*
X108710Y229043D02*
X105387Y225719D01*
X105102Y225294D01*
X105002Y224791D01*
Y224079D01*
X104937D01*
Y219158D01*
X109661D01*
Y221582D01*
X109687Y221709D01*
Y223330D01*
X111780Y225424D01*
X113395D01*
Y221520D01*
X117470D01*
Y224571D01*
Y227336D01*
X121761D01*
Y225457D01*
X117995D01*
Y221520D01*
X122070D01*
X121830Y220916D01*
X115878Y218769D01*
X115469Y219057D01*
Y220240D01*
X110547D01*
Y217562D01*
X110532Y217484D01*
Y216303D01*
X110547Y216226D01*
Y215301D01*
X110542Y215269D01*
X110514Y215118D01*
X110514Y215115D01*
X110514Y215111D01*
X110532Y214316D01*
X110547Y214248D01*
Y213376D01*
X110532Y213353D01*
X110526Y213317D01*
X110513Y213294D01*
X110505Y213225D01*
X110481Y213151D01*
X110480Y213143D01*
X110485Y213092D01*
X110476Y213045D01*
X110482Y213018D01*
X110478Y212983D01*
X110535Y212299D01*
X110547Y212255D01*
Y209610D01*
Y204787D01*
X109186D01*
X109181Y204791D01*
X108874Y204852D01*
X107693D01*
X107386Y204791D01*
X107380Y204787D01*
X106905D01*
Y204127D01*
X106890Y204049D01*
Y200669D01*
X105740D01*
Y204049D01*
X105724Y204127D01*
Y204787D01*
X105250D01*
X105244Y204791D01*
X104937Y204852D01*
X103805D01*
X103498Y204791D01*
X103493Y204787D01*
X97063D01*
Y202463D01*
X97036Y202327D01*
Y199267D01*
X96422Y198653D01*
X95495D01*
Y201933D01*
X94272D01*
X93937Y202433D01*
X94020Y202631D01*
Y203219D01*
X94360Y203705D01*
X96177D01*
Y206461D01*
X96177D01*
Y210398D01*
X93852D01*
X93717Y210425D01*
X90764D01*
X90226Y210318D01*
X89943Y210730D01*
X90105Y210892D01*
X89852Y211144D01*
X90059Y211644D01*
X91256D01*
Y211579D01*
X96177D01*
Y214335D01*
X91256D01*
Y214269D01*
X88992D01*
X88722Y214216D01*
X88476Y214676D01*
X89381Y215581D01*
X91256D01*
Y215516D01*
X96177D01*
Y218272D01*
X91256D01*
Y218206D01*
X90172D01*
X88343Y220035D01*
X88396Y220535D01*
X89812D01*
Y224472D01*
X89812D01*
X89848Y224586D01*
X90338Y224477D01*
X90337Y224472D01*
X90337Y224472D01*
X90337D01*
Y220535D01*
X94412D01*
Y221191D01*
X95095D01*
Y219158D01*
X97850D01*
Y223750D01*
X98389D01*
X99006Y223133D01*
Y221709D01*
X99032Y221582D01*
Y219158D01*
X103756D01*
Y224079D01*
X103600D01*
Y226343D01*
X103959D01*
Y229504D01*
X108519D01*
X108710Y229043D01*
D02*
G37*
G36*
X216535Y227534D02*
X222032D01*
Y216904D01*
X216535D01*
Y213034D01*
X216037Y212766D01*
X215199Y213326D01*
X213443Y214053D01*
X211580Y214423D01*
X209680D01*
X207816Y214053D01*
X206061Y213326D01*
X204481Y212270D01*
X203138Y210927D01*
X202082Y209347D01*
X201355Y207591D01*
X200984Y205728D01*
Y203828D01*
X201355Y201964D01*
X202082Y200209D01*
X203138Y198629D01*
X204481Y197286D01*
X206061Y196230D01*
X207816Y195503D01*
X209680Y195132D01*
X211580D01*
X213443Y195503D01*
X215199Y196230D01*
X216779Y197286D01*
X218122Y198629D01*
X219178Y200209D01*
X219905Y201964D01*
X220276Y203828D01*
Y205728D01*
X219905Y207591D01*
X219178Y209347D01*
X218122Y210927D01*
X216779Y212270D01*
X216779Y212271D01*
X216931Y212770D01*
X222032D01*
Y166313D01*
X218570D01*
Y162376D01*
X222032D01*
Y157573D01*
X215014D01*
X214806Y158073D01*
X215185Y158451D01*
X215472Y159146D01*
Y159898D01*
X215185Y160592D01*
X214653Y161124D01*
X213959Y161411D01*
X213207D01*
X212512Y161124D01*
X211981Y160592D01*
X211885Y160361D01*
X211344D01*
X211248Y160592D01*
X210716Y161124D01*
X210022Y161411D01*
X209270D01*
X208575Y161124D01*
X208044Y160592D01*
X207756Y159898D01*
Y159146D01*
X208044Y158451D01*
X208422Y158073D01*
X208215Y157573D01*
X200827D01*
Y153597D01*
X208819D01*
Y153597D01*
X209082Y153773D01*
X209270Y153695D01*
X210022D01*
X210716Y153983D01*
X211248Y154514D01*
X211344Y154746D01*
X211885D01*
X211981Y154514D01*
X212512Y153983D01*
X213207Y153695D01*
X213959D01*
X214146Y153773D01*
X214409Y153597D01*
Y153597D01*
X222032D01*
Y146545D01*
X209941D01*
X209634Y146484D01*
X209390Y146321D01*
X208957Y146161D01*
X208515Y146287D01*
X208208Y146348D01*
X196147D01*
X196088Y146397D01*
Y152777D01*
X197715Y154404D01*
X198722D01*
Y157159D01*
X198722D01*
Y157258D01*
X198722D01*
Y160014D01*
X193925D01*
Y160764D01*
X203092D01*
X203476Y160841D01*
X203599Y160923D01*
X206184D01*
Y161957D01*
X214554D01*
X214938Y162033D01*
X215263Y162250D01*
X215389Y162376D01*
X218044D01*
Y166313D01*
X218044D01*
Y166412D01*
X218044D01*
Y170349D01*
X218044D01*
X218044Y170447D01*
X218044D01*
Y174384D01*
X213970D01*
Y170447D01*
X213970D01*
X213970Y170349D01*
X213970D01*
Y166412D01*
X213970D01*
Y166313D01*
X213970D01*
Y163964D01*
X209674D01*
Y167461D01*
X206884D01*
X206598Y167652D01*
X206249Y167721D01*
X206184D01*
Y169597D01*
X204378D01*
X204202Y169790D01*
X204114Y169960D01*
X204079Y170097D01*
X204106Y170143D01*
X204252Y170559D01*
X204264Y170648D01*
X204292Y170734D01*
X204341Y171172D01*
X204337Y171218D01*
X204346Y171262D01*
Y172317D01*
X207668D01*
X208714Y171271D01*
X208727Y171262D01*
Y169266D01*
X212802D01*
Y172317D01*
Y175467D01*
X214764D01*
Y179601D01*
X208858D01*
Y177581D01*
X208396Y177389D01*
X206488Y179297D01*
X206581Y179797D01*
X207480D01*
Y181568D01*
X207980Y181903D01*
X208072Y181864D01*
X208660D01*
X209202Y182089D01*
X209618Y182504D01*
X209842Y183047D01*
Y183634D01*
X209618Y184177D01*
X209202Y184592D01*
X209201Y184593D01*
X209300Y185093D01*
X211986D01*
X218076Y179002D01*
Y177619D01*
X217941Y177484D01*
X217717Y176941D01*
Y176354D01*
X217941Y175812D01*
X218357Y175396D01*
X218899Y175171D01*
X219487D01*
X220029Y175396D01*
X220444Y175812D01*
X220669Y176354D01*
Y176941D01*
X220444Y177484D01*
X220083Y177845D01*
Y179418D01*
X220007Y179802D01*
X219790Y180128D01*
X210149Y189769D01*
X210340Y190230D01*
X214764D01*
Y194364D01*
X208858D01*
Y191712D01*
X208396Y191521D01*
X205600Y194317D01*
X205275Y194535D01*
X204891Y194611D01*
X203747D01*
Y196136D01*
X202582D01*
Y196336D01*
X202506Y196720D01*
X202288Y197045D01*
X201286Y198047D01*
Y200565D01*
X197211D01*
Y196628D01*
X199653D01*
X199672Y196136D01*
X199672D01*
Y192199D01*
X203747D01*
Y192604D01*
X204475D01*
X209517Y187562D01*
X209326Y187100D01*
X207480D01*
Y187671D01*
X204346D01*
Y188562D01*
X204337Y188606D01*
X204341Y188652D01*
X204292Y189090D01*
X204264Y189176D01*
X204252Y189265D01*
X204106Y189681D01*
X204060Y189759D01*
X204028Y189843D01*
X203794Y190216D01*
X203732Y190282D01*
X203681Y190357D01*
X203370Y190668D01*
X203295Y190719D01*
X203229Y190781D01*
X202856Y191015D01*
X202772Y191047D01*
X202694Y191093D01*
X202278Y191239D01*
X202189Y191251D01*
X202103Y191279D01*
X201665Y191328D01*
X201619Y191324D01*
X201575Y191333D01*
X189809D01*
X189506Y191367D01*
X189260Y191453D01*
X189040Y191591D01*
X188856Y191775D01*
X188718Y191995D01*
X188632Y192241D01*
X188598Y192544D01*
Y222101D01*
X188632Y222404D01*
X188718Y222649D01*
X188856Y222869D01*
X189040Y223053D01*
X189260Y223191D01*
X189506Y223277D01*
X189809Y223312D01*
X201575D01*
X201619Y223320D01*
X201665Y223317D01*
X202103Y223366D01*
X202189Y223393D01*
X202278Y223406D01*
X202694Y223552D01*
X202772Y223597D01*
X202856Y223630D01*
X203229Y223864D01*
X203295Y223926D01*
X203370Y223976D01*
X203681Y224288D01*
X203732Y224363D01*
X203794Y224428D01*
X204028Y224802D01*
X204060Y224886D01*
X204106Y224964D01*
X204153Y225097D01*
X204653Y225012D01*
Y221974D01*
X208590D01*
Y221992D01*
X209699D01*
X210033Y221492D01*
X209966Y221331D01*
Y220744D01*
X210191Y220201D01*
X210213Y220179D01*
X210006Y219679D01*
X196949D01*
X196565Y219602D01*
X196239Y219385D01*
X195037Y218183D01*
X194687D01*
X194144Y217958D01*
X193729Y217543D01*
X193504Y217001D01*
Y216413D01*
X193729Y215870D01*
X194144Y215455D01*
X194687Y215230D01*
X195274D01*
X195817Y215455D01*
X196232Y215870D01*
X196457Y216413D01*
Y216764D01*
X197364Y217672D01*
X211221D01*
Y217101D01*
X215158D01*
Y221825D01*
Y224974D01*
X211714D01*
Y226067D01*
X207777D01*
Y226049D01*
X204832D01*
X204642Y226062D01*
X204346Y226422D01*
Y230022D01*
X204380Y230325D01*
X204466Y230571D01*
X204604Y230791D01*
X204788Y230975D01*
X205008Y231113D01*
X205254Y231199D01*
X205557Y231233D01*
X216535D01*
Y227534D01*
D02*
G37*
G36*
X132595Y217287D02*
X114681Y216303D01*
X111335D01*
Y217484D01*
X115469D01*
Y217768D01*
X126030Y221577D01*
X132595D01*
Y217287D01*
D02*
G37*
G36*
X159465Y217061D02*
Y216337D01*
X159271Y216190D01*
X158771Y216437D01*
Y216865D01*
X159271Y217164D01*
X159465Y217061D01*
D02*
G37*
G36*
X132595Y214138D02*
Y209709D01*
X126689D01*
X120596Y213261D01*
X115469Y214192D01*
Y214335D01*
X111335D01*
X111317Y215130D01*
X111665Y215488D01*
X113679Y215500D01*
X114681D01*
X114703Y215505D01*
X114725Y215501D01*
X114813Y215506D01*
X124130Y215516D01*
X132595Y214138D01*
D02*
G37*
G36*
X132693Y216081D02*
Y215437D01*
X132193Y215017D01*
X127844Y215724D01*
X127871Y216224D01*
X132193Y216461D01*
X132693Y216081D01*
D02*
G37*
G36*
X85737Y220535D02*
X88214D01*
X88267Y220035D01*
X85424Y217192D01*
X87752Y214863D01*
X87643Y214265D01*
X87619Y214254D01*
X85052Y216820D01*
X83777Y215545D01*
X80462D01*
X79848Y215423D01*
X79327Y215074D01*
X78979Y214554D01*
X78973Y214527D01*
X78772Y214443D01*
X78453Y214124D01*
X77998Y214140D01*
X77892Y214173D01*
X77477Y214588D01*
X76934Y214813D01*
X76346D01*
X76023Y214679D01*
X75523Y214961D01*
Y215705D01*
X75788Y216189D01*
X80208D01*
X80226Y216193D01*
X80245Y216190D01*
X80379Y216224D01*
X80429Y216233D01*
X81895D01*
Y219416D01*
X81951D01*
X82489Y219523D01*
X82944Y219827D01*
X84216Y221099D01*
X85737D01*
Y220535D01*
D02*
G37*
G36*
X139937Y218370D02*
X143165D01*
Y221358D01*
X143665Y221486D01*
X144176Y220976D01*
Y214908D01*
X144205Y214760D01*
X143627Y214182D01*
X143165Y214373D01*
Y215811D01*
X139937D01*
X139779Y216246D01*
Y217615D01*
X133397D01*
Y221577D01*
X139937D01*
Y218370D01*
D02*
G37*
G36*
X139779Y213541D02*
X139937Y213106D01*
Y212071D01*
X140134D01*
Y211411D01*
X140140Y211380D01*
Y210695D01*
X139586Y210140D01*
X139124Y210332D01*
Y213541D01*
X139779D01*
D02*
G37*
G36*
X80626Y222209D02*
Y217189D01*
X80208Y216992D01*
X75311D01*
X74721Y215910D01*
Y209807D01*
X69898D01*
X69701Y210004D01*
Y222898D01*
X79937D01*
X80626Y222209D01*
D02*
G37*
G36*
X132693Y208875D02*
X133191Y208870D01*
X133447Y208736D01*
Y205025D01*
X133531Y204602D01*
X133336Y204415D01*
X133119Y204305D01*
X129317Y208019D01*
X129235Y208073D01*
X128932Y208375D01*
X129139Y208875D01*
X132693D01*
Y208875D01*
D02*
G37*
G36*
X79543Y201244D02*
X75606D01*
Y207740D01*
X79543D01*
Y201244D01*
D02*
G37*
G36*
X85964Y207004D02*
X85719Y206759D01*
X88172Y204306D01*
Y201933D01*
X86820D01*
Y201117D01*
X85547D01*
Y201841D01*
X83876D01*
X83874Y201842D01*
X83872Y201841D01*
X82424D01*
X82155Y202244D01*
X82155Y202244D01*
X81233Y203167D01*
X80712Y203515D01*
X80346Y203588D01*
Y207740D01*
X80327Y207838D01*
Y208528D01*
X79621D01*
X79543Y208543D01*
X75606D01*
X75529Y208528D01*
X74887D01*
X74838Y209028D01*
X75028Y209065D01*
X75288Y209239D01*
X75339Y209315D01*
X75357D01*
Y209343D01*
X75412Y209424D01*
X83544D01*
X85964Y207004D01*
D02*
G37*
G36*
X34237Y206078D02*
Y193695D01*
X26614D01*
Y193695D01*
X26351Y193519D01*
X26163Y193597D01*
X25411D01*
X24717Y193309D01*
X24185Y192777D01*
X24090Y192546D01*
X23548D01*
X23452Y192777D01*
X22921Y193309D01*
X22226Y193597D01*
X21475D01*
X21287Y193519D01*
X21024Y193695D01*
Y193695D01*
X13032D01*
Y192894D01*
X12570Y192703D01*
X10386Y194886D01*
Y200860D01*
X14075D01*
Y204117D01*
X14537Y204308D01*
X15017Y203828D01*
X14985Y203328D01*
X14665D01*
Y199253D01*
X18602D01*
Y202339D01*
X19102Y202606D01*
X20431Y201718D01*
X22186Y200991D01*
X24050Y200620D01*
X25950D01*
X27814Y200991D01*
X29569Y201718D01*
X31149Y202774D01*
X32492Y204117D01*
X33548Y205697D01*
X33746Y206176D01*
X34237Y206078D01*
D02*
G37*
G36*
X66161Y200489D02*
X63216D01*
X63064Y200752D01*
X63216Y201015D01*
X66161D01*
Y200489D01*
D02*
G37*
G36*
X115034Y213517D02*
X115101Y213490D01*
X115161Y213450D01*
X115245Y213433D01*
X115325Y213402D01*
X120313Y212496D01*
X125213Y209640D01*
Y208875D01*
X126464D01*
X128751Y207445D01*
X128756D01*
X132988Y203311D01*
X130085Y200317D01*
X129585Y200310D01*
X125606Y204197D01*
X120783Y210004D01*
X115469Y212061D01*
Y212366D01*
X111335D01*
X111278Y213050D01*
X111279Y213057D01*
X111739Y213532D01*
X115018D01*
X115034Y213517D01*
D02*
G37*
G36*
X108874Y199866D02*
X108923D01*
Y193173D01*
X123975D01*
X127083Y189563D01*
Y185660D01*
X127279D01*
Y185135D01*
X127083D01*
Y182100D01*
X116305D01*
X114500Y183906D01*
Y183921D01*
X114484Y183999D01*
Y184709D01*
X113774D01*
X113697Y184724D01*
X113681D01*
X112762Y185644D01*
X106610D01*
Y188646D01*
X103461D01*
Y186762D01*
X102342Y185644D01*
X89829D01*
Y187908D01*
X94575Y192654D01*
X99499D01*
X100036Y192761D01*
X100137Y192829D01*
X100778D01*
X103805Y195856D01*
Y204049D01*
X104937D01*
Y199866D01*
X107693D01*
Y204049D01*
X108874D01*
Y199866D01*
D02*
G37*
G36*
X113079Y203445D02*
X113621Y203221D01*
X114209D01*
X114751Y203445D01*
X114843Y203537D01*
X115343Y203330D01*
Y202121D01*
X114919Y201698D01*
X114919Y201698D01*
X113809Y200587D01*
X113601Y200546D01*
X113403D01*
X112861Y200321D01*
X112445Y199906D01*
X112221Y199363D01*
Y198888D01*
X111930Y198672D01*
X111758Y198611D01*
X111565Y198757D01*
Y199866D01*
X111630D01*
Y203705D01*
X112819D01*
X113079Y203445D01*
D02*
G37*
G36*
X119318Y199064D02*
X119111Y198857D01*
X119622Y198346D01*
X119627Y198338D01*
X119642Y198326D01*
X119650Y198319D01*
X119662Y198300D01*
X122513Y195425D01*
X122736Y194886D01*
X123146Y194476D01*
X123146Y194446D01*
X123040Y193976D01*
X115167D01*
X114833Y194476D01*
X114869Y194562D01*
Y195149D01*
X114644Y195692D01*
X114229Y196107D01*
X114014Y196196D01*
X112984Y197225D01*
X113268Y197649D01*
X113403Y197593D01*
X113990D01*
X114477Y197795D01*
X114929Y197884D01*
X115385Y198189D01*
X116906Y199711D01*
X116906Y199711D01*
X117742Y200546D01*
X118046Y201002D01*
X118081Y201176D01*
X118597Y201209D01*
X119318Y199064D01*
D02*
G37*
G36*
X111916Y194581D02*
Y194562D01*
X111952Y194476D01*
X111618Y193976D01*
X109726D01*
Y196118D01*
X110188Y196309D01*
X111916Y194581D01*
D02*
G37*
G36*
X180497Y190220D02*
X177898D01*
X177811Y190658D01*
X177772Y190717D01*
Y190908D01*
X177547Y191451D01*
X177132Y191866D01*
X176589Y192090D01*
X176002D01*
X175459Y191866D01*
X175044Y191451D01*
X174819Y190908D01*
Y190321D01*
X175044Y189778D01*
X175286Y189536D01*
Y188933D01*
X175311Y188806D01*
Y186480D01*
X180497D01*
Y183928D01*
X173933D01*
Y181840D01*
X173652Y181559D01*
X169668D01*
Y177622D01*
X173743D01*
Y178595D01*
X174080D01*
X174618Y178702D01*
X175074Y179007D01*
X175920Y179853D01*
X180497D01*
Y170134D01*
X180029Y169941D01*
X179997Y169947D01*
X178957Y171503D01*
X177613Y172847D01*
X176033Y173902D01*
X174278Y174629D01*
X172415Y175000D01*
X170515D01*
X168651Y174629D01*
X166896Y173902D01*
X165316Y172847D01*
X163972Y171503D01*
X162917Y169923D01*
X162190Y168168D01*
X161819Y166304D01*
Y164404D01*
X162190Y162541D01*
X162917Y160785D01*
X163972Y159205D01*
X165316Y157862D01*
X166872Y156822D01*
X166878Y156790D01*
X166684Y156322D01*
X157270D01*
Y157525D01*
X159178Y159434D01*
X159362Y159709D01*
X159957D01*
Y163227D01*
X160153Y163646D01*
X160154D01*
X160153Y163646D01*
Y173094D01*
X159957D01*
Y174472D01*
X149130D01*
Y173094D01*
X148933D01*
Y165554D01*
X148456Y165275D01*
X148433Y165277D01*
X148146Y165334D01*
X147225D01*
Y168862D01*
X147857D01*
Y172799D01*
X147206D01*
Y173424D01*
X147395Y173550D01*
X147678Y173973D01*
X147777Y174472D01*
Y175457D01*
X147836Y175528D01*
X151370D01*
X151404Y175521D01*
X164441D01*
X164979Y175628D01*
X165435Y175933D01*
X167124Y177622D01*
X169143D01*
Y181559D01*
X165068D01*
Y180382D01*
X164568Y180175D01*
X164302Y180442D01*
X163759Y180666D01*
X163172D01*
X162964Y180580D01*
X159957D01*
Y181198D01*
X158578D01*
X158311Y181698D01*
X158328Y181723D01*
X159957D01*
Y182118D01*
X167340D01*
X167843Y182218D01*
X168268Y182503D01*
X169687Y183921D01*
X173343D01*
Y187661D01*
X167831D01*
Y185778D01*
X166797Y184743D01*
X159957D01*
Y185798D01*
X156020D01*
Y184252D01*
X155534Y184216D01*
Y184216D01*
X151459D01*
Y180280D01*
X151755D01*
Y178671D01*
X151397Y178338D01*
X142800D01*
X142263Y178231D01*
X141807Y177927D01*
X140656Y176776D01*
X140647Y176761D01*
X140370D01*
X139871Y176662D01*
X139448Y176379D01*
X139165Y175956D01*
X139066Y175457D01*
Y174472D01*
X139165Y173973D01*
X139448Y173550D01*
X139734Y173358D01*
Y172799D01*
X139182D01*
Y168862D01*
X141031D01*
X141196Y168559D01*
X140948Y168075D01*
X138422D01*
X130021Y170038D01*
X129948Y170040D01*
X129877Y170058D01*
X114731Y170792D01*
X114529Y170854D01*
X114372Y171310D01*
X114439Y171409D01*
X114500Y171716D01*
Y182117D01*
X114962Y182308D01*
X115737Y181533D01*
X115998Y181359D01*
X116305Y181298D01*
X116497D01*
X116946Y181111D01*
X117534D01*
X117983Y181298D01*
X118457D01*
X118937Y181099D01*
X119524D01*
X120004Y181298D01*
X120546D01*
X120995Y181111D01*
X121583D01*
X122032Y181298D01*
X122837D01*
X123104Y181187D01*
X123691D01*
X123959Y181298D01*
X124908D01*
X125175Y181187D01*
X125763D01*
X126030Y181298D01*
X127083D01*
X127390Y181359D01*
X127650Y181533D01*
X127824Y181793D01*
X127885Y182100D01*
Y184625D01*
X128021Y184828D01*
X128082Y185135D01*
Y185660D01*
X130724D01*
Y182740D01*
X133874D01*
Y178803D01*
X137811D01*
Y181081D01*
X138461Y181731D01*
X138836D01*
X139338Y181831D01*
X139764Y182115D01*
X140849Y183200D01*
X142929D01*
Y187274D01*
X139051D01*
X138846Y187582D01*
X137935Y188493D01*
Y192497D01*
X138354Y192614D01*
X138435Y192617D01*
X138835Y192217D01*
X139378Y191992D01*
X139383D01*
X144274Y187101D01*
Y185897D01*
X143618D01*
Y181822D01*
X147555D01*
Y185897D01*
X146899D01*
Y187645D01*
X146799Y188147D01*
X146515Y188573D01*
X142821Y192267D01*
X142915Y192750D01*
X143362Y192943D01*
X144428Y191877D01*
X147212Y189093D01*
X149996Y191877D01*
X151780Y190093D01*
X151852Y189985D01*
X154466Y187371D01*
X154891Y187087D01*
X155394Y186987D01*
X162420D01*
X162730Y186858D01*
X163317D01*
X163860Y187083D01*
X164275Y187498D01*
X164500Y188041D01*
Y188628D01*
X164275Y189171D01*
X163860Y189586D01*
X163854Y189589D01*
X163953Y190089D01*
X166746D01*
X167249Y190189D01*
X167675Y190473D01*
X172622Y195421D01*
X173287D01*
X173368Y195437D01*
X174243D01*
X174545Y194937D01*
X174425Y194648D01*
Y194061D01*
X174650Y193518D01*
X175065Y193103D01*
X175608Y192878D01*
X176195D01*
X176738Y193103D01*
X177153Y193518D01*
X177317Y193913D01*
X178737Y195334D01*
X178806Y195437D01*
X180497D01*
Y190220D01*
D02*
G37*
G36*
X167850Y194362D02*
X166203Y192714D01*
X165312D01*
X165213Y193214D01*
X165419Y193300D01*
X165834Y193715D01*
X166059Y194257D01*
Y194824D01*
X167659D01*
X167850Y194362D01*
D02*
G37*
G36*
X79414Y195543D02*
X77378D01*
X76983Y195706D01*
X76395D01*
X75853Y195482D01*
X75437Y195066D01*
X75213Y194524D01*
Y193936D01*
X75437Y193394D01*
X75853Y192978D01*
X76395Y192754D01*
X76983D01*
X77378Y192917D01*
X79414D01*
Y189363D01*
X74283Y184232D01*
X71276D01*
X71198Y184216D01*
X70463D01*
Y176736D01*
X71050D01*
X74050Y175184D01*
X73883Y174708D01*
X72415Y175000D01*
X70515D01*
X68651Y174629D01*
X66896Y173902D01*
X65316Y172847D01*
X63972Y171503D01*
X62932Y169947D01*
X62900Y169941D01*
X62432Y170134D01*
Y196031D01*
X62713Y196415D01*
X66650D01*
Y196716D01*
X69779D01*
X69895Y196435D01*
X69936Y196216D01*
X69595Y195707D01*
X69473Y195092D01*
X69473Y195092D01*
Y194256D01*
X69595Y193641D01*
X69943Y193121D01*
X70464Y192772D01*
X71079Y192650D01*
X71693Y192772D01*
X72214Y193121D01*
X72562Y193641D01*
X72684Y194256D01*
Y194427D01*
X74973Y196716D01*
X79414D01*
Y195543D01*
D02*
G37*
G36*
X86820Y197996D02*
X87828D01*
X88020Y197534D01*
X83087Y192602D01*
X82625Y192793D01*
Y197766D01*
X85547D01*
Y198491D01*
X86820D01*
Y197996D01*
D02*
G37*
G36*
X124988Y203684D02*
X125037Y203635D01*
X125045Y203623D01*
X127129Y201588D01*
X129774Y198942D01*
X130434Y199601D01*
X130531Y199669D01*
X130660Y199757D01*
X130661Y199758D01*
X130661Y199758D01*
X132916Y202083D01*
X134027Y203194D01*
X134485Y203444D01*
X136471Y201458D01*
X135659Y200646D01*
X137033Y199272D01*
X134300Y196539D01*
X134016Y196113D01*
X133916Y195611D01*
Y194487D01*
X131424Y191996D01*
X130962Y192187D01*
Y193348D01*
X131445Y193830D01*
X130962Y194313D01*
Y194676D01*
X130962Y194677D01*
X130901Y194984D01*
X130727Y195244D01*
X130727Y195244D01*
X130149Y195822D01*
Y196672D01*
X130149Y196672D01*
X130088Y196979D01*
X130059Y197023D01*
X130105Y197255D01*
X130044Y197562D01*
X129870Y197823D01*
X129870Y197823D01*
X125195Y202497D01*
X124683Y203197D01*
X124944Y203686D01*
X124988Y203684D01*
D02*
G37*
G36*
X119637Y208724D02*
X124584Y201973D01*
X129302Y197255D01*
X129033Y196986D01*
X129347Y196672D01*
Y195817D01*
X129183Y195653D01*
X130160Y194677D01*
Y190731D01*
X129649Y190220D01*
X127673D01*
Y191424D01*
X124392Y194705D01*
X124375Y194688D01*
X120232Y198866D01*
X118153Y205051D01*
Y205083D01*
X118046Y205620D01*
X117742Y206076D01*
X115773Y208045D01*
X115469Y208248D01*
Y208429D01*
X114915D01*
X114779Y208456D01*
X113008D01*
X112954Y208445D01*
X111369Y208462D01*
Y211556D01*
X112040Y211563D01*
X114739D01*
X119637Y208724D01*
D02*
G37*
G36*
X156920Y190473D02*
X157346Y190189D01*
X157732Y190112D01*
X157683Y189612D01*
X155937D01*
X154618Y190931D01*
X155540Y191853D01*
X156920Y190473D01*
D02*
G37*
G36*
X92978Y192192D02*
X89432Y188646D01*
X88801D01*
X88625Y189146D01*
X92133Y192654D01*
X92787D01*
X92978Y192192D01*
D02*
G37*
G36*
X34237Y179404D02*
X26280D01*
Y168971D01*
X34237D01*
Y162671D01*
X27699D01*
X13702Y176668D01*
X13376Y176886D01*
X12992Y176962D01*
X12697D01*
Y180093D01*
X10890D01*
Y186309D01*
X11390Y186358D01*
X11406Y186279D01*
X11624Y185953D01*
X13472Y184105D01*
X13798Y183887D01*
X14182Y183811D01*
X18255D01*
X18963Y183103D01*
Y180585D01*
X23038D01*
Y180649D01*
X26183D01*
Y184586D01*
X22109D01*
Y184522D01*
X20383D01*
X19381Y185524D01*
X19055Y185741D01*
X18671Y185818D01*
X14597D01*
X13337Y187079D01*
Y189719D01*
X20420D01*
X20627Y189219D01*
X20248Y188840D01*
X19961Y188146D01*
Y187394D01*
X20248Y186699D01*
X20780Y186168D01*
X21475Y185880D01*
X22226D01*
X22921Y186168D01*
X23452Y186699D01*
X23548Y186931D01*
X24090D01*
X24185Y186699D01*
X24717Y186168D01*
X25411Y185880D01*
X26163D01*
X26858Y186168D01*
X27389Y186699D01*
X27677Y187394D01*
Y188146D01*
X27389Y188840D01*
X27011Y189219D01*
X27218Y189719D01*
X34237D01*
Y179404D01*
D02*
G37*
G36*
X135309Y191515D02*
Y187949D01*
X135409Y187447D01*
X135694Y187021D01*
X136605Y186110D01*
Y183587D01*
X136152Y183134D01*
X134661D01*
Y187071D01*
X134005D01*
Y190865D01*
X134847Y191707D01*
X135309Y191515D01*
D02*
G37*
G36*
X99547Y184341D02*
X99179Y184189D01*
X98764Y183773D01*
X98539Y183231D01*
Y182643D01*
X98764Y182101D01*
X99179Y181685D01*
X99722Y181461D01*
X100309D01*
X100852Y181685D01*
X100939Y181772D01*
X101640D01*
X102142Y181872D01*
X102568Y182157D01*
X102786Y182375D01*
X103248Y182184D01*
Y178147D01*
X99721D01*
X99325Y178311D01*
X98738D01*
X98195Y178086D01*
X97780Y177671D01*
X97555Y177128D01*
Y176541D01*
X97780Y175998D01*
X97822Y175957D01*
X97795Y175759D01*
X97655Y175416D01*
X97211Y175232D01*
X96988Y175009D01*
X96488Y175216D01*
Y183921D01*
X96427Y184229D01*
X96419Y184239D01*
X96534Y184756D01*
X96819Y184841D01*
X99448D01*
X99547Y184341D01*
D02*
G37*
G36*
X81780Y186534D02*
Y177584D01*
X81306Y177425D01*
X77327Y182735D01*
X81318Y186726D01*
X81780Y186534D01*
D02*
G37*
G36*
X85154Y182324D02*
Y177186D01*
X84654Y176918D01*
X84590Y176961D01*
Y182099D01*
X85090Y182367D01*
X85154Y182324D01*
D02*
G37*
G36*
X6201Y193774D02*
Y189443D01*
X8719D01*
X8883Y189278D01*
Y180093D01*
X8366D01*
Y174867D01*
X8366Y174581D01*
X7988Y174285D01*
X7148D01*
X7131Y174371D01*
X6914Y174696D01*
X5610Y176000D01*
Y180093D01*
X1303D01*
X1280Y180093D01*
X803Y180149D01*
Y189443D01*
X4626D01*
Y193774D01*
X4883Y194167D01*
X5944D01*
X6201Y193774D01*
D02*
G37*
G36*
X103248Y174669D02*
X103260Y174612D01*
X102943Y174144D01*
X102888Y174112D01*
X99772D01*
X99463Y174421D01*
X99299Y174817D01*
X99257Y174858D01*
X99284Y175056D01*
X99423Y175399D01*
X99721Y175522D01*
X103248D01*
Y174669D01*
D02*
G37*
G36*
X95685Y171815D02*
X88500D01*
Y174768D01*
X86864D01*
X86728Y174795D01*
X86359D01*
X86039Y175114D01*
Y183921D01*
X95685D01*
Y171815D01*
D02*
G37*
G36*
X113697Y171716D02*
X106610D01*
Y174669D01*
X104051D01*
Y183640D01*
X104333Y183921D01*
X113697D01*
Y171716D01*
D02*
G37*
G36*
X143790Y174999D02*
Y174472D01*
X143889Y173973D01*
X144172Y173550D01*
X144397Y173400D01*
Y172799D01*
X143782D01*
Y171536D01*
X143282Y171269D01*
X143257Y171286D01*
Y172799D01*
X142544D01*
Y173466D01*
X142671Y173550D01*
X142953Y173973D01*
X143053Y174472D01*
Y175036D01*
X143290Y175234D01*
X143790Y174999D01*
D02*
G37*
G36*
X97211Y172729D02*
X97606Y172565D01*
X98300Y171871D01*
X98726Y171587D01*
X99228Y171487D01*
X103461D01*
Y170929D01*
X102995Y170846D01*
X96602D01*
X96513Y170884D01*
X96436Y170992D01*
X96319Y171346D01*
X96427Y171508D01*
X96488Y171815D01*
Y172745D01*
X96988Y172952D01*
X97211Y172729D01*
D02*
G37*
G36*
X199048Y167991D02*
X199016Y167914D01*
Y167327D01*
X199241Y166784D01*
X199328Y166697D01*
X199121Y166197D01*
X195893D01*
Y162771D01*
X193925D01*
Y163638D01*
X188598D01*
Y167280D01*
X188632Y167583D01*
X188718Y167829D01*
X188856Y168049D01*
X189040Y168233D01*
X189260Y168371D01*
X189506Y168457D01*
X189809Y168491D01*
X198713D01*
X199048Y167991D01*
D02*
G37*
G36*
X180497Y160575D02*
Y160027D01*
X180484Y159914D01*
X180401Y159449D01*
X180401D01*
X180413Y158954D01*
X180341Y158667D01*
X180341D01*
X180206Y158214D01*
X180199Y158195D01*
X180006Y157821D01*
X179993Y157799D01*
X179878Y157645D01*
X179815Y157638D01*
X179807Y157635D01*
X179729Y157446D01*
X179557Y157262D01*
X179373Y157090D01*
X179184Y157012D01*
X179181Y157004D01*
X179174Y156941D01*
X179020Y156826D01*
X178670Y156644D01*
X178624Y156620D01*
X178474Y156561D01*
X178153Y156477D01*
X178152Y156478D01*
X178149Y156476D01*
X177993Y156412D01*
X177846Y156389D01*
X177370Y156418D01*
Y156418D01*
X176893Y156335D01*
X176776Y156322D01*
X176245D01*
X176051Y156790D01*
X176057Y156822D01*
X177613Y157862D01*
X178957Y159205D01*
X179997Y160762D01*
X180029Y160768D01*
X180497Y160575D01*
D02*
G37*
G36*
X148933Y163744D02*
Y163646D01*
X149031D01*
X149819Y162858D01*
X156610D01*
X156709Y162760D01*
Y160938D01*
X156169Y160398D01*
X152378D01*
X151419Y159438D01*
X151197D01*
X150698Y159339D01*
X150274Y159056D01*
X149992Y158633D01*
X149892Y158134D01*
Y157912D01*
X148736Y156756D01*
Y156461D01*
X143618D01*
X142142Y157937D01*
Y164532D01*
X148146D01*
X148933Y163744D01*
D02*
G37*
G36*
X85898Y169959D02*
X85981Y170043D01*
X113598D01*
X129839Y169256D01*
X140370Y166795D01*
Y156371D01*
X81709D01*
Y168933D01*
X78209Y173937D01*
X71276Y177524D01*
Y183429D01*
X75803D01*
X85898Y169959D01*
D02*
G37*
G36*
X80906Y161636D02*
Y156371D01*
X80866Y156322D01*
X76245D01*
X76051Y156790D01*
X76057Y156822D01*
X77613Y157862D01*
X78957Y159205D01*
X80013Y160785D01*
X80406Y161735D01*
X80906Y161636D01*
D02*
G37*
G36*
X62932Y160762D02*
X63972Y159205D01*
X65316Y157862D01*
X66872Y156822D01*
X66878Y156790D01*
X66684Y156322D01*
X66153D01*
X66025Y156336D01*
X65559Y156418D01*
Y156418D01*
X65110Y156393D01*
X64777Y156478D01*
X64777Y156478D01*
X64324Y156612D01*
X64305Y156620D01*
X63932Y156812D01*
X63910Y156826D01*
X63755Y156941D01*
X63748Y157004D01*
X63745Y157012D01*
X63556Y157090D01*
X63372Y157262D01*
X63200Y157446D01*
X63122Y157635D01*
X63114Y157638D01*
X63051Y157645D01*
X62937Y157799D01*
X62754Y158149D01*
X62730Y158195D01*
X62670Y158349D01*
X62588Y158666D01*
X62588Y158667D01*
X62587Y158670D01*
X62516Y158954D01*
X62528Y159449D01*
X62528D01*
X62445Y159914D01*
X62432Y160027D01*
Y160575D01*
X62900Y160768D01*
X62932Y160762D01*
D02*
G37*
G36*
X113686Y148024D02*
X113728Y147806D01*
X113563Y147558D01*
X113502Y147251D01*
Y144057D01*
X113169Y143724D01*
X111274D01*
X111251Y143719D01*
X110764Y144065D01*
X110751Y144091D01*
Y144185D01*
X110526Y144728D01*
X110110Y145143D01*
X109568Y145368D01*
X108981D01*
X108438Y145143D01*
X108094Y144800D01*
X107756Y144868D01*
X107594Y144953D01*
Y148305D01*
X113570D01*
X113686Y148024D01*
D02*
G37*
G36*
X97699Y148255D02*
X97997Y147971D01*
X98029Y147933D01*
X98110Y143815D01*
X97129Y142835D01*
X94308Y145657D01*
X94201Y145729D01*
X92124Y147806D01*
X92205Y148140D01*
X92317Y148305D01*
X97588D01*
X97699Y148255D01*
D02*
G37*
G36*
X87598Y146333D02*
Y143183D01*
X83661D01*
Y141943D01*
X83161Y141736D01*
X83021Y141876D01*
X82479Y142101D01*
X81891D01*
X81349Y141876D01*
X80933Y141460D01*
X80815Y141174D01*
X80315Y141274D01*
Y144841D01*
X80573D01*
X80606Y144848D01*
X81167D01*
X81474Y144909D01*
X81735Y145083D01*
X83173Y146521D01*
X87176D01*
X87598Y146333D01*
D02*
G37*
G36*
X106791Y144006D02*
X103730Y140945D01*
X102756Y141920D01*
X101781Y140945D01*
X98913Y143814D01*
X98832Y147949D01*
X99182Y148305D01*
X106791D01*
Y144006D01*
D02*
G37*
G36*
X21408Y140742D02*
X20830Y140163D01*
X18815D01*
X18815Y140163D01*
X18508Y140102D01*
X18247Y139928D01*
X18247Y139928D01*
X16066Y137747D01*
X15892Y137487D01*
X15831Y137179D01*
Y130486D01*
X15892Y130179D01*
X16066Y129919D01*
X19411Y126574D01*
X19303Y126185D01*
X19223Y126074D01*
X9834D01*
X9834Y126074D01*
X9527Y126012D01*
X9267Y125838D01*
X5888Y122459D01*
X4507Y123840D01*
X1265Y120598D01*
X803Y120790D01*
Y135243D01*
X1265Y135434D01*
X6386Y130313D01*
X13067Y136994D01*
X7083Y142979D01*
X7281Y143479D01*
X8766D01*
Y144243D01*
X8835Y144289D01*
X9009Y144549D01*
X9028Y144644D01*
X17505D01*
X21408Y140742D01*
D02*
G37*
G36*
X93781Y141470D02*
Y140185D01*
X93773Y140175D01*
X93281Y139940D01*
X93209Y139988D01*
X92902Y140049D01*
X88325D01*
X87992Y140382D01*
Y142396D01*
X91929D01*
Y142668D01*
X92391Y142860D01*
X93781Y141470D01*
D02*
G37*
G36*
X107761Y143201D02*
X107863Y142850D01*
X104357Y139345D01*
X106584Y137117D01*
X109924Y133777D01*
X111038Y132663D01*
X112708Y130993D01*
X114379Y129323D01*
X117719Y125982D01*
X120990Y122711D01*
X119946Y121667D01*
X120469Y121144D01*
X120513Y121078D01*
X121865Y119726D01*
X121870Y119723D01*
X121873Y119719D01*
X122707Y118906D01*
X123331Y118282D01*
X123149Y117818D01*
X122729Y117771D01*
X119390Y121110D01*
X116606Y118326D01*
X113265Y114986D01*
X112708Y114429D01*
X111038Y112758D01*
X108811Y110531D01*
X105470Y107191D01*
X102756Y104476D01*
X100598Y106634D01*
X97210Y103246D01*
X96746Y103428D01*
X96699Y103848D01*
X100042Y107191D01*
X98371Y108861D01*
X95031Y112202D01*
X94474Y112758D01*
X91690Y115542D01*
X88349Y118883D01*
X85009Y122224D01*
X81575Y118790D01*
X81336D01*
X80844Y119282D01*
X80878Y119315D01*
X81102Y119858D01*
Y120445D01*
X80878Y120988D01*
X80462Y121403D01*
X79920Y121628D01*
X79500D01*
X79265Y122100D01*
X81572Y124407D01*
X83895Y122084D01*
X87236Y125425D01*
X90020Y128209D01*
X86628Y131601D01*
Y131853D01*
X87025Y132202D01*
X87115Y132228D01*
X90576Y128766D01*
X92804Y130993D01*
X95031Y133220D01*
X98371Y136561D01*
X101996Y140185D01*
X102089Y140203D01*
X102349Y140377D01*
X102349Y140377D01*
X102756Y140784D01*
X103163Y140377D01*
X103423Y140203D01*
X103516Y140185D01*
X103800Y139901D01*
X104232Y140333D01*
X104298Y140377D01*
X104298Y140377D01*
X107232Y143311D01*
X107761Y143201D01*
D02*
G37*
G36*
X20554Y137859D02*
X20271Y137435D01*
X20176Y137475D01*
X19588D01*
X19046Y137250D01*
X18630Y136834D01*
X18406Y136292D01*
Y135705D01*
X18630Y135162D01*
X19046Y134747D01*
X19588Y134522D01*
X20176D01*
X20209Y134536D01*
X25891Y128853D01*
X25608Y128430D01*
X25393Y128519D01*
X24806D01*
X24263Y128294D01*
X23848Y127879D01*
X23834Y127845D01*
X20410D01*
X17437Y130819D01*
Y136847D01*
X19148Y138558D01*
X19855D01*
X20554Y137859D01*
D02*
G37*
G36*
X148781Y142977D02*
X148668Y142703D01*
Y142116D01*
X148892Y141574D01*
X149141Y141325D01*
Y138826D01*
X148569Y138254D01*
X148427D01*
X147884Y138029D01*
X147469Y137614D01*
X147244Y137071D01*
Y136484D01*
X147279Y136400D01*
X146945Y135900D01*
X145768D01*
Y133609D01*
X145306Y133418D01*
X142475Y136249D01*
X142179Y136446D01*
X141831Y136516D01*
X138386D01*
X138037Y136446D01*
X137741Y136249D01*
X137392Y135900D01*
X135728D01*
Y135971D01*
X135503Y136514D01*
X135088Y136929D01*
X134546Y137154D01*
X133958D01*
X133416Y136929D01*
X133000Y136514D01*
X132776Y135971D01*
Y135900D01*
X130315D01*
Y132258D01*
X129626D01*
Y127927D01*
X133563D01*
Y130164D01*
X134063Y130371D01*
X134646Y129788D01*
Y129307D01*
X134870Y128764D01*
X135286Y128349D01*
X135828Y128124D01*
X136416D01*
X136958Y128349D01*
X137374Y128764D01*
X137598Y129307D01*
Y129894D01*
X137374Y130437D01*
X136958Y130852D01*
X136416Y131077D01*
X135934D01*
X135548Y131463D01*
X135756Y131963D01*
X138189D01*
Y134119D01*
X138763Y134693D01*
X141453D01*
X144411Y131736D01*
X144220Y131274D01*
X141995D01*
Y127337D01*
X144807D01*
X146816Y125327D01*
X146816Y125327D01*
X147106Y125134D01*
X147448Y125066D01*
X147448Y125066D01*
X152315D01*
X152854Y124527D01*
Y122022D01*
Y119463D01*
Y116904D01*
Y114345D01*
X157776D01*
Y117658D01*
X157831D01*
X158179Y117727D01*
X158475Y117925D01*
X161479Y120929D01*
X161677Y121224D01*
X161746Y121573D01*
Y122860D01*
X162208Y123052D01*
X164743Y120516D01*
X164743Y120516D01*
X165004Y120342D01*
X165311Y120281D01*
X176227D01*
X176534Y120342D01*
X176795Y120516D01*
X176946Y120667D01*
X177334Y120348D01*
X177211Y120164D01*
X177150Y119856D01*
Y115106D01*
X176011Y113967D01*
X175549Y114159D01*
Y118188D01*
X175492Y118475D01*
Y118923D01*
X175063D01*
X175054Y118930D01*
X174746Y118991D01*
X166538D01*
X166537Y118991D01*
X166535Y118991D01*
X166383Y118960D01*
X166231Y118930D01*
X166230Y118929D01*
X166228Y118929D01*
X166101Y118843D01*
X165997Y118774D01*
X165625D01*
Y118407D01*
X165616Y118399D01*
X165615Y118397D01*
X165614Y118396D01*
X165528Y118266D01*
X165443Y118138D01*
X165443Y118136D01*
X165442Y118135D01*
X165413Y117982D01*
X165383Y117830D01*
X165384Y117829D01*
X165383Y117827D01*
X165479Y105485D01*
X165510Y105334D01*
X165540Y105184D01*
X165542Y105182D01*
X165542Y105178D01*
X165625Y105057D01*
Y104797D01*
X165903D01*
X165974Y104750D01*
X165978Y104749D01*
X165980Y104747D01*
X166131Y104718D01*
X166282Y104689D01*
X170908D01*
X171215Y104750D01*
X171286Y104797D01*
X171700D01*
Y105436D01*
X171711Y105491D01*
Y108899D01*
X174583Y111771D01*
X175083Y111564D01*
Y100015D01*
X170479D01*
X170145Y100515D01*
X170177Y100592D01*
Y101180D01*
X169952Y101722D01*
X169537Y102137D01*
X168994Y102362D01*
X168407D01*
X167865Y102137D01*
X167449Y101722D01*
X167435Y101689D01*
X162588D01*
X162280Y101628D01*
X162020Y101453D01*
X160100Y99534D01*
X153016D01*
X152864Y100034D01*
X152876Y100042D01*
X156563Y103729D01*
X156596Y103715D01*
X157183D01*
X157726Y103939D01*
X158141Y104355D01*
X158366Y104897D01*
Y105485D01*
X158141Y106027D01*
X157726Y106443D01*
X157183Y106667D01*
X156596D01*
X156053Y106443D01*
X155638Y106027D01*
X155413Y105485D01*
Y104897D01*
X155427Y104864D01*
X151976Y101413D01*
X150279D01*
X150098Y101561D01*
Y104043D01*
X143405D01*
Y104141D01*
X129527D01*
Y104043D01*
X126181D01*
Y103911D01*
X123491D01*
Y102779D01*
X122991Y102479D01*
X122966Y102493D01*
Y103911D01*
X121099D01*
X120908Y104374D01*
X125745Y109211D01*
X132703D01*
X132776Y108741D01*
X132776Y108711D01*
Y104666D01*
X136713D01*
Y108711D01*
X136713Y108741D01*
X136785Y109211D01*
X139396D01*
X139469Y108741D01*
X139469Y108711D01*
Y104666D01*
X143405D01*
Y108711D01*
X143405Y108741D01*
X143478Y109211D01*
X149600D01*
Y108643D01*
X146161D01*
Y104568D01*
X150098D01*
Y106372D01*
X153674D01*
Y109719D01*
Y113656D01*
X149600D01*
Y110817D01*
X137992D01*
Y113443D01*
X140945D01*
X141252Y113505D01*
X141513Y113679D01*
X142179Y114345D01*
X145965D01*
Y116904D01*
Y119856D01*
X141773D01*
X141731Y119899D01*
X141606Y120201D01*
X141191Y120616D01*
X141043Y120677D01*
Y122022D01*
X145965D01*
Y124975D01*
X141043D01*
Y124301D01*
X134484D01*
X134176Y124240D01*
X133916Y124066D01*
X132784Y122934D01*
X132783Y122934D01*
X132283Y123140D01*
Y123629D01*
X125197D01*
Y122887D01*
X125181Y122809D01*
Y122425D01*
X124681Y122218D01*
X124213Y122686D01*
X124101Y122798D01*
X124204Y123331D01*
X124260Y123387D01*
X124485Y123930D01*
Y124517D01*
X124357Y124825D01*
X125375Y125843D01*
X122880Y128337D01*
X123612Y129069D01*
X124114D01*
Y127927D01*
X128051D01*
Y132258D01*
X125804D01*
X125613Y132720D01*
X130292Y137399D01*
X130292Y137399D01*
X130466Y137659D01*
X130527Y137967D01*
X130527Y137967D01*
Y141002D01*
X130597Y141030D01*
X131012Y141446D01*
X131237Y141988D01*
Y142576D01*
X131071Y142977D01*
X131307Y143477D01*
X138007D01*
X138386Y143183D01*
X138386Y142977D01*
Y137278D01*
X145571D01*
Y142977D01*
X145571Y143183D01*
X145949Y143477D01*
X148470D01*
X148781Y142977D01*
D02*
G37*
G36*
X209350Y140086D02*
X209844Y140069D01*
X209944Y140050D01*
X210093Y140018D01*
X210097Y140019D01*
X210101Y140018D01*
X211183D01*
X212917Y138285D01*
X213177Y138111D01*
X213276Y138091D01*
Y135221D01*
X209482D01*
X209418Y135264D01*
X209327Y135282D01*
X209312Y135355D01*
Y138152D01*
X209251Y138460D01*
X209101Y138684D01*
Y138853D01*
X208879D01*
X208817Y138894D01*
X208509Y138955D01*
X203765D01*
X203565Y138915D01*
X203317Y139239D01*
X203295Y139353D01*
X203827Y139884D01*
X208208D01*
X208515Y139945D01*
X208515Y139945D01*
X208683Y139999D01*
X208957Y140086D01*
X209350D01*
D02*
G37*
G36*
X31543Y135757D02*
Y135008D01*
X27474Y130939D01*
X31371Y127042D01*
X36243Y131914D01*
X34879Y133277D01*
X37232Y135630D01*
X37265Y135616D01*
X37853D01*
X38395Y135841D01*
X38811Y136257D01*
X38969Y136638D01*
X39469Y136539D01*
Y130979D01*
X42906D01*
X43406Y130979D01*
X43905Y130979D01*
X45948D01*
X46139Y130517D01*
X43789Y128167D01*
X42224D01*
Y128131D01*
X38878D01*
Y124056D01*
X42198D01*
X42224Y123567D01*
X42224Y123556D01*
Y119492D01*
X46161D01*
Y123567D01*
X43503D01*
X43286Y124067D01*
X43310Y124092D01*
X65852D01*
X66036D01*
X66050Y124062D01*
X65732Y123567D01*
X62303D01*
Y119492D01*
X66240D01*
Y119768D01*
X66672Y119981D01*
X67014Y119797D01*
X67116Y119279D01*
X66851Y118972D01*
X38043D01*
X21344Y135671D01*
X21358Y135705D01*
Y136292D01*
X21319Y136387D01*
X21743Y136670D01*
X23437Y134976D01*
X27880Y139419D01*
X31543Y135757D01*
D02*
G37*
G36*
X208509Y135123D02*
X208567Y135065D01*
Y134522D01*
X209111D01*
X209233Y134399D01*
X209253Y134418D01*
X213276D01*
Y131825D01*
X212922Y131472D01*
X209348Y131484D01*
X206109D01*
X205603Y130979D01*
X205085D01*
Y130461D01*
X203860Y129236D01*
X203899Y129197D01*
Y127838D01*
X203822Y127807D01*
X201193D01*
Y130264D01*
X203670Y132741D01*
Y138057D01*
X203765Y138152D01*
X208509D01*
Y135123D01*
D02*
G37*
G36*
X73926Y133666D02*
X71647Y131388D01*
X66470D01*
Y134128D01*
X73734D01*
X73926Y133666D01*
D02*
G37*
G36*
X4826Y173945D02*
Y170349D01*
X8563D01*
X8661Y169889D01*
X8661Y169849D01*
Y165814D01*
X12598D01*
Y166940D01*
X16982D01*
X20751Y163171D01*
X20544Y162671D01*
X20360Y162671D01*
X12500D01*
Y152238D01*
X20768D01*
Y162242D01*
X20768Y162447D01*
X21268Y162654D01*
X22194Y161729D01*
Y153051D01*
X22263Y152702D01*
X22460Y152407D01*
X30020Y144847D01*
Y144366D01*
X30244Y143823D01*
X30660Y143408D01*
X31202Y143183D01*
X31790D01*
X32276Y143385D01*
X32533Y143288D01*
X32776Y143144D01*
Y140427D01*
X39075D01*
Y148305D01*
X55610D01*
Y140427D01*
X61417D01*
Y139443D01*
X65551D01*
Y140533D01*
X66051Y140764D01*
X66270Y140578D01*
Y138065D01*
X65748D01*
Y134620D01*
X59478D01*
Y131388D01*
X55216D01*
Y138853D01*
X51279D01*
Y131388D01*
X47343D01*
Y138853D01*
X43905D01*
X43406Y138853D01*
X42906Y138853D01*
X39469D01*
Y137647D01*
X38969Y137548D01*
X38811Y137929D01*
X38395Y138344D01*
X37853Y138569D01*
X37265D01*
X36723Y138344D01*
X36307Y137929D01*
X36083Y137386D01*
Y136799D01*
X36096Y136766D01*
X33744Y134413D01*
X33148Y135008D01*
Y136089D01*
X33087Y136397D01*
X32913Y136657D01*
X32913Y136657D01*
X20209Y149361D01*
X19949Y149535D01*
X19642Y149596D01*
X8730D01*
Y150762D01*
X4656D01*
Y148103D01*
X4155Y147887D01*
X4130Y147910D01*
Y150762D01*
X803D01*
Y174525D01*
X1280Y174581D01*
X1303Y174581D01*
X4191D01*
X4826Y173945D01*
D02*
G37*
G36*
X181988Y131963D02*
X182125D01*
X182333Y131463D01*
X182112Y131242D01*
X181911Y130757D01*
X181595Y130388D01*
X181510Y130388D01*
X178157D01*
X177657Y130388D01*
Y130388D01*
X177657D01*
Y130388D01*
X174221D01*
X173721Y130388D01*
Y130388D01*
X173720D01*
Y130388D01*
X170919D01*
X169662Y131645D01*
X169402Y131819D01*
X169095Y131880D01*
X165918D01*
X165453Y131963D01*
Y139894D01*
X181988D01*
Y131963D01*
D02*
G37*
G36*
X124407Y121357D02*
Y119759D01*
X123704Y119056D01*
X122433Y120294D01*
X121081Y121646D01*
X121568Y122133D01*
X121617Y122084D01*
X121763Y122230D01*
X123533D01*
X124407Y121357D01*
D02*
G37*
G36*
X131496Y120447D02*
X131398Y120349D01*
X125984D01*
Y122809D01*
X131496D01*
Y120447D01*
D02*
G37*
G36*
X202296Y118707D02*
X203036Y118139D01*
X203898Y117782D01*
X204823Y117660D01*
X205748Y117782D01*
X206540Y118111D01*
X206986Y117862D01*
X205938Y114539D01*
X205748Y114450D01*
X204823Y114572D01*
X203898Y114450D01*
X203036Y114093D01*
X202296Y113525D01*
X201728Y112785D01*
X201371Y111923D01*
X201249Y110998D01*
Y108636D01*
X201371Y107711D01*
X201728Y106849D01*
X202215Y106214D01*
X202052Y105716D01*
X194465Y105793D01*
X194463Y105793D01*
X194460Y105793D01*
X194309Y105764D01*
X194157Y105735D01*
X194155Y105734D01*
X194153Y105734D01*
X194077Y105683D01*
X193504D01*
Y105177D01*
X193431Y105104D01*
X193430Y105103D01*
X193428Y105102D01*
X193342Y104972D01*
X193256Y104845D01*
X193255Y104843D01*
X193254Y104841D01*
X193224Y104690D01*
X193193Y104538D01*
X193194Y104536D01*
X193193Y104534D01*
Y95644D01*
X193254Y95337D01*
X193255Y95335D01*
X193307Y94856D01*
X193307D01*
X193434Y94409D01*
X193443Y94356D01*
X192490Y93403D01*
X192027Y93594D01*
Y94495D01*
X188598D01*
Y97244D01*
X188589Y97289D01*
X188593Y97334D01*
X188544Y97772D01*
X188516Y97858D01*
X188504Y97947D01*
X188358Y98363D01*
X188312Y98441D01*
X188280Y98525D01*
X188046Y98899D01*
X187984Y98964D01*
X187933Y99039D01*
X187622Y99351D01*
X187547Y99401D01*
X187481Y99463D01*
X187108Y99697D01*
X187024Y99730D01*
X186946Y99775D01*
X186530Y99921D01*
X186441Y99934D01*
X186355Y99961D01*
X185917Y100010D01*
X185871Y100007D01*
X185827Y100015D01*
X185097D01*
X184906Y100477D01*
X192035Y107606D01*
X192064Y107650D01*
X192104Y107685D01*
X192151Y107780D01*
X192209Y107867D01*
X192219Y107919D01*
X192243Y107966D01*
X192250Y108071D01*
X192270Y108174D01*
X192260Y108226D01*
X192263Y108279D01*
X192209Y108689D01*
Y110945D01*
X192310Y111714D01*
X192587Y112380D01*
X193026Y112953D01*
X193598Y113392D01*
X194265Y113668D01*
X194980Y113762D01*
X195696Y113668D01*
X196362Y113392D01*
X196629Y113188D01*
X196723Y113141D01*
X196810Y113083D01*
X196862Y113072D01*
X196910Y113049D01*
X197015Y113042D01*
X197118Y113022D01*
X197169Y113032D01*
X197222Y113028D01*
X197322Y113062D01*
X197425Y113083D01*
X197469Y113112D01*
X197519Y113129D01*
X197598Y113198D01*
X197685Y113257D01*
X201355Y116927D01*
X201529Y117187D01*
X201590Y117494D01*
Y118805D01*
X202090Y118975D01*
X202296Y118707D01*
D02*
G37*
G36*
X208208Y140687D02*
X203494D01*
X200914Y138107D01*
Y132035D01*
X200787D01*
Y130994D01*
X200772Y130979D01*
X200485D01*
Y130623D01*
X200451Y130572D01*
X200390Y130264D01*
Y127807D01*
X200451Y127499D01*
X200485Y127448D01*
Y127041D01*
X200787D01*
Y117494D01*
X197118Y113824D01*
X196767Y114093D01*
X195905Y114450D01*
X194980Y114572D01*
X194055Y114450D01*
X193193Y114093D01*
X192453Y113525D01*
X191885Y112785D01*
X191528Y111923D01*
X191406Y110998D01*
Y108636D01*
X191467Y108174D01*
X183309Y100015D01*
X175886D01*
Y112443D01*
X175754Y112575D01*
X177953Y114774D01*
Y119856D01*
X180610Y122514D01*
X181595D01*
Y123498D01*
X196133Y138037D01*
X196147Y145545D01*
X208208D01*
Y140687D01*
D02*
G37*
G36*
X59252Y117107D02*
Y113032D01*
X60925D01*
X61192Y112532D01*
X61175Y112507D01*
X59252D01*
Y109027D01*
X59153Y108947D01*
X54466D01*
X52756Y110657D01*
Y117366D01*
X58859D01*
X59252Y117107D01*
D02*
G37*
G36*
X36895Y117849D02*
X37008Y117396D01*
X37008Y117396D01*
Y109522D01*
X40445D01*
X40945Y109522D01*
Y109522D01*
X40945D01*
Y109522D01*
X44382D01*
X44882Y109522D01*
Y109522D01*
X44882D01*
Y109522D01*
X48319D01*
X48819Y109522D01*
Y109522D01*
X48819D01*
Y109522D01*
X51621D01*
X52844Y108298D01*
X53150Y107947D01*
X53150D01*
X53150Y107947D01*
Y100015D01*
X37008D01*
X36614Y100329D01*
Y107947D01*
X30315D01*
Y99286D01*
X34464D01*
X34472Y99279D01*
X34590Y99138D01*
X34718Y98786D01*
X34555Y98525D01*
X34522Y98441D01*
X34477Y98363D01*
X34331Y97947D01*
X34318Y97858D01*
X34291Y97772D01*
X34242Y97334D01*
X34245Y97289D01*
X34237Y97244D01*
Y78420D01*
X33737Y78167D01*
X33364Y78321D01*
X32777D01*
X32235Y78096D01*
X31819Y77681D01*
X31594Y77138D01*
Y76657D01*
X30776Y75839D01*
X30411Y75880D01*
X30138Y76361D01*
X30217Y76551D01*
Y77138D01*
X29992Y77681D01*
X29576Y78096D01*
X29034Y78321D01*
X28676D01*
X28572Y78421D01*
X28370Y78789D01*
X28543Y79208D01*
Y79796D01*
X28319Y80338D01*
X27903Y80754D01*
X27361Y80979D01*
X27091D01*
X26715Y81245D01*
X26673Y81440D01*
Y81863D01*
X26448Y82405D01*
X26033Y82821D01*
X25490Y83045D01*
X24903D01*
X24361Y82821D01*
X23945Y82405D01*
X23720Y81863D01*
Y81275D01*
X23945Y80733D01*
X24361Y80317D01*
X24903Y80093D01*
X25172D01*
X25548Y79826D01*
X25591Y79631D01*
Y79208D01*
X25815Y78666D01*
X26231Y78250D01*
X26773Y78026D01*
X27131D01*
X27235Y77925D01*
X27437Y77558D01*
X27264Y77138D01*
Y76551D01*
X27414Y76189D01*
X27155Y75689D01*
X22803D01*
X22454Y75620D01*
X22159Y75422D01*
X17706Y70970D01*
X17206Y71177D01*
Y73006D01*
X11831D01*
Y67494D01*
X17002D01*
Y64246D01*
X11980D01*
Y58734D01*
X16168D01*
X16360Y58272D01*
X15247Y57160D01*
X13583D01*
Y52474D01*
X13202Y52148D01*
X13139Y52210D01*
X12597Y52435D01*
X12009D01*
X11467Y52210D01*
X11051Y51795D01*
X10827Y51252D01*
Y50665D01*
X11051Y50122D01*
X11392Y49782D01*
Y43167D01*
X6177Y37952D01*
X5906Y38065D01*
Y38065D01*
X803D01*
Y61189D01*
X886Y61654D01*
X1303Y61655D01*
X4823D01*
Y62688D01*
X5580D01*
Y58734D01*
X10955D01*
Y64246D01*
X7000D01*
X6844Y64402D01*
X6519Y64619D01*
X6135Y64695D01*
X4823D01*
Y65729D01*
X886Y65729D01*
X803Y66195D01*
Y69949D01*
X886Y70414D01*
X1303Y70414D01*
X4823D01*
Y71448D01*
X5432D01*
Y67494D01*
X10806D01*
Y73006D01*
X6851D01*
X6695Y73161D01*
X6370Y73379D01*
X5986Y73455D01*
X4823D01*
Y74489D01*
X886Y74489D01*
X803Y74955D01*
Y78749D01*
X984Y79174D01*
X1303Y79174D01*
X4921D01*
Y80208D01*
X5472D01*
X5530Y80150D01*
Y76057D01*
X10905D01*
Y81569D01*
X6949D01*
X6597Y81921D01*
X6271Y82139D01*
X5887Y82215D01*
X4921D01*
Y83249D01*
X984Y83249D01*
X803Y83674D01*
Y99876D01*
X4301D01*
Y103427D01*
X4301Y103745D01*
X4801Y103764D01*
X4826Y103427D01*
Y99876D01*
X8901D01*
Y102678D01*
X12034Y105811D01*
X12034Y105811D01*
X12208Y106071D01*
X12269Y106378D01*
Y107940D01*
X15535Y111206D01*
X19679D01*
X19986Y111267D01*
X20246Y111441D01*
X22423Y113617D01*
X22811Y113888D01*
X28935Y107763D01*
X35617Y114445D01*
X31885Y118176D01*
X32092Y118676D01*
X32283D01*
X32825Y118901D01*
X33241Y119316D01*
X33465Y119859D01*
Y120446D01*
X33376Y120661D01*
X33800Y120944D01*
X36895Y117849D01*
D02*
G37*
G36*
X71053Y117906D02*
X71203Y117544D01*
X71619Y117128D01*
X72161Y116904D01*
X72749D01*
X73291Y117128D01*
X73304Y117141D01*
X73804Y116934D01*
Y115336D01*
X72638D01*
Y111261D01*
X76575D01*
Y113130D01*
X76815Y113178D01*
X77039Y113328D01*
X79921D01*
Y115300D01*
X80408Y115675D01*
X80408Y115675D01*
X82742D01*
X82949Y115175D01*
X79356Y111581D01*
X79181Y111321D01*
X79120Y111014D01*
Y109908D01*
X79118Y109898D01*
Y108924D01*
X77898Y107703D01*
X77308Y107821D01*
X77236Y107996D01*
X76820Y108411D01*
X76575Y108513D01*
Y110735D01*
X72638D01*
Y106661D01*
X72365Y106274D01*
X62795D01*
Y106274D01*
X62295Y106138D01*
X60462Y107970D01*
X60654Y108432D01*
X63189D01*
Y111799D01*
X63734Y112343D01*
X66535D01*
Y114095D01*
X70517Y118076D01*
X71053Y117906D01*
D02*
G37*
G36*
X174746Y113070D02*
X170908Y109231D01*
Y105491D01*
X166282D01*
X166186Y117833D01*
X166538Y118188D01*
X174746D01*
Y113070D01*
D02*
G37*
G36*
X222032Y135112D02*
X217220D01*
Y130782D01*
Y127041D01*
X222032D01*
Y93282D01*
X209449D01*
Y93049D01*
X208987Y92858D01*
X206201Y95644D01*
X193996D01*
Y104534D01*
X194457Y104990D01*
X203738Y104896D01*
X203817Y105146D01*
X203898Y105184D01*
X204823Y105062D01*
X205748Y105184D01*
X206610Y105541D01*
X207350Y106109D01*
X207918Y106849D01*
X208275Y107711D01*
X208397Y108636D01*
Y110998D01*
X208275Y111923D01*
X207918Y112785D01*
X207350Y113525D01*
X206633Y114075D01*
X210537Y126452D01*
X213551Y127041D01*
X214079D01*
Y130782D01*
Y134522D01*
Y138853D01*
X213484D01*
X211516Y140821D01*
X210101D01*
X209751Y141178D01*
X209842Y145644D01*
X209941Y145742D01*
X222032D01*
Y135112D01*
D02*
G37*
G36*
X91310Y106520D02*
X91463Y106068D01*
Y105920D01*
X91688Y105377D01*
X91884Y105181D01*
X91967Y104739D01*
X91856Y104556D01*
X91563Y104264D01*
X91339Y103721D01*
Y103134D01*
X91563Y102591D01*
X91979Y102176D01*
X92521Y101951D01*
X93109D01*
X93651Y102176D01*
X94067Y102591D01*
X94291Y103134D01*
Y103684D01*
X94562Y103920D01*
X94966Y103771D01*
X95038Y103722D01*
Y102854D01*
X95063Y102726D01*
Y100959D01*
X91142D01*
Y99770D01*
X90642Y99436D01*
X90550Y99475D01*
X90151D01*
X87919Y101706D01*
Y102337D01*
X88583D01*
Y105419D01*
X88978Y105683D01*
X89565D01*
X90108Y105908D01*
X90523Y106323D01*
X90615Y106545D01*
X91001D01*
X91310Y106520D01*
D02*
G37*
G36*
X74733Y106323D02*
X75148Y105908D01*
X75323Y105835D01*
X75429Y105551D01*
X75460Y105238D01*
X75341Y105060D01*
X75280Y104753D01*
Y103110D01*
X75246Y103096D01*
X74831Y102681D01*
X74606Y102138D01*
Y101551D01*
X74645Y101459D01*
X74310Y100959D01*
X73228D01*
Y95053D01*
X80512D01*
Y97062D01*
X81012Y97396D01*
X81202Y97317D01*
X81790D01*
X82332Y97542D01*
X82438Y97647D01*
X82787Y97922D01*
X83091Y97647D01*
X83219Y97520D01*
X83761Y97295D01*
X84349D01*
X84891Y97520D01*
X85307Y97935D01*
X85531Y98478D01*
Y99065D01*
X85349Y99505D01*
X85482Y100010D01*
X85897Y100425D01*
X85912Y100461D01*
X86035Y100522D01*
X86493Y100556D01*
X87202Y99846D01*
X87030Y99311D01*
X86664Y99159D01*
X86248Y98744D01*
X86024Y98201D01*
Y97614D01*
X86248Y97071D01*
X86664Y96656D01*
X87206Y96431D01*
X87794D01*
X88336Y96656D01*
X88597Y96916D01*
X88821Y97051D01*
X89235Y96931D01*
X89420Y96747D01*
X89962Y96522D01*
X90550D01*
X90642Y96560D01*
X91142Y96226D01*
Y95053D01*
X95276D01*
Y95414D01*
X104527D01*
Y96198D01*
X105027Y96405D01*
X107242Y94190D01*
X107242Y94190D01*
X107779Y93654D01*
Y91604D01*
X83668D01*
X83334Y92104D01*
X83366Y92181D01*
Y92768D01*
X83141Y93311D01*
X82726Y93726D01*
X82183Y93951D01*
X81596D01*
X81054Y93726D01*
X80638Y93311D01*
X80413Y92768D01*
Y92181D01*
X80445Y92104D01*
X80111Y91604D01*
X60478D01*
X60175Y91638D01*
X59930Y91724D01*
X59709Y91863D01*
X59526Y92046D01*
X59387Y92266D01*
X59302Y92512D01*
X59267Y92815D01*
Y95053D01*
X62598D01*
Y96238D01*
X63098Y96573D01*
X63200Y96530D01*
X63788D01*
X64330Y96755D01*
X64746Y97170D01*
X64760Y97204D01*
X67527D01*
X67834Y97265D01*
X68094Y97439D01*
X72024Y101369D01*
X72024Y101369D01*
X72198Y101630D01*
X72259Y101937D01*
Y102337D01*
X73032D01*
Y106274D01*
X73304Y106661D01*
X74593D01*
X74733Y106323D01*
D02*
G37*
G36*
X161802Y98257D02*
X161693Y97947D01*
X161681Y97858D01*
X161653Y97772D01*
X161604Y97334D01*
X161608Y97289D01*
X161599Y97244D01*
Y92815D01*
X161565Y92512D01*
X161479Y92266D01*
X161340Y92046D01*
X161157Y91863D01*
X160937Y91724D01*
X160691Y91638D01*
X160388Y91604D01*
X153773D01*
Y93991D01*
X154200Y94167D01*
Y94167D01*
X158274D01*
Y97928D01*
X160433D01*
X160740Y97989D01*
X161001Y98163D01*
X161376Y98539D01*
X161802Y98257D01*
D02*
G37*
G36*
X149600Y94167D02*
X149698D01*
Y91604D01*
X128518D01*
X128183Y92104D01*
X128215Y92181D01*
Y92768D01*
X127991Y93311D01*
X127575Y93726D01*
X127100Y93923D01*
Y94550D01*
X149600D01*
Y94167D01*
D02*
G37*
G36*
X46886Y82907D02*
X46880Y82875D01*
X45324Y81835D01*
X43980Y80491D01*
X42940Y78935D01*
X42908Y78929D01*
X42440Y79122D01*
Y79670D01*
X42453Y79782D01*
X42536Y80248D01*
X42536D01*
X42524Y80742D01*
X42596Y81030D01*
X42596D01*
X42731Y81483D01*
X42738Y81502D01*
X42931Y81876D01*
X42944Y81897D01*
X43059Y82052D01*
X43122Y82059D01*
X43130Y82062D01*
X43208Y82251D01*
X43380Y82435D01*
X43564Y82607D01*
X43753Y82685D01*
X43756Y82693D01*
X43763Y82756D01*
X43917Y82871D01*
X44267Y83053D01*
X44313Y83077D01*
X44463Y83136D01*
X44784Y83219D01*
X44785Y83219D01*
X44788Y83220D01*
X44944Y83285D01*
X45091Y83308D01*
X45567Y83279D01*
Y83279D01*
X46044Y83362D01*
X46161Y83375D01*
X46692D01*
X46886Y82907D01*
D02*
G37*
G36*
X222032Y80623D02*
X221850Y80198D01*
X221532Y80198D01*
X218315D01*
X217913Y80198D01*
X217413Y80198D01*
X216543D01*
X216121Y80388D01*
Y85900D01*
X210746D01*
Y80388D01*
X212631D01*
Y79285D01*
X209206Y75860D01*
X206266D01*
Y71923D01*
X210341D01*
Y74725D01*
X213416Y77800D01*
X213878Y77608D01*
Y76123D01*
X217413D01*
X217815Y76123D01*
X218315Y76123D01*
X221306Y76123D01*
X221458Y75860D01*
X221306Y75598D01*
X217913D01*
Y75598D01*
X217815D01*
Y75598D01*
X213878D01*
Y72347D01*
X212598D01*
Y66972D01*
X222032D01*
Y55657D01*
X221562Y55585D01*
Y55585D01*
X217487D01*
Y52814D01*
X217462Y52784D01*
X216985Y52959D01*
X216962Y52989D01*
Y55585D01*
X216962D01*
Y55683D01*
X216962D01*
Y59620D01*
X212887D01*
Y55683D01*
X212887D01*
Y55585D01*
X212887D01*
Y51648D01*
X215846D01*
X216180Y51148D01*
X216142Y51056D01*
Y50468D01*
X216367Y49926D01*
X216535Y49757D01*
Y45742D01*
X222032D01*
Y35112D01*
X218608D01*
X218417Y35574D01*
X219007Y36165D01*
X219225Y36490D01*
X219301Y36875D01*
Y39233D01*
X219225Y39617D01*
X219053Y39875D01*
X219047Y39902D01*
X218830Y40228D01*
X216936Y42121D01*
X216611Y42339D01*
X216227Y42415D01*
X215158D01*
Y43183D01*
X211221D01*
Y40034D01*
Y35309D01*
X212242D01*
X212559Y35178D01*
X213146D01*
X213463Y35309D01*
X214653D01*
X214920Y34809D01*
X214919Y34807D01*
X214843Y34423D01*
Y31766D01*
X213809D01*
Y27829D01*
Y24679D01*
X216535D01*
Y21333D01*
X222032D01*
Y10703D01*
X218412D01*
X218285Y10854D01*
X218098Y11203D01*
X218154Y11485D01*
Y15652D01*
X218077Y16036D01*
X217860Y16362D01*
X216510Y17712D01*
X216184Y17929D01*
X215800Y18006D01*
X215158D01*
Y18774D01*
X211221D01*
Y15624D01*
Y10900D01*
X213248D01*
X213486Y10801D01*
X214073D01*
X214311Y10900D01*
X214529D01*
X214641Y10783D01*
X214857Y10400D01*
X214807Y10145D01*
Y7356D01*
X213773D01*
Y3419D01*
Y803D01*
X200513D01*
X200160Y1157D01*
X200163Y2011D01*
X200395Y80292D01*
X200895Y80541D01*
X201067Y80412D01*
Y78912D01*
X201067Y78912D01*
X201128Y78604D01*
X201181Y78525D01*
Y78216D01*
X201445D01*
X201661Y78071D01*
X201969Y78010D01*
X204290D01*
X204597Y78071D01*
X204813Y78216D01*
X205118D01*
Y78834D01*
X205134Y78912D01*
Y80149D01*
X205217Y80614D01*
X209154D01*
Y83925D01*
Y87999D01*
X207340D01*
X207088Y88499D01*
X207107Y88525D01*
X209154D01*
Y92088D01*
X209294Y92116D01*
X209294Y92116D01*
X209756Y92307D01*
X209756Y92307D01*
X210013Y92479D01*
X222032D01*
Y80623D01*
D02*
G37*
G36*
X156912Y83360D02*
X157378Y83279D01*
Y83279D01*
X157827Y83304D01*
X158160Y83219D01*
X158160Y83219D01*
X158613Y83084D01*
X158632Y83077D01*
X159005Y82884D01*
X159027Y82871D01*
X159182Y82756D01*
X159189Y82693D01*
X159192Y82685D01*
X159381Y82607D01*
X159565Y82435D01*
X159737Y82251D01*
X159815Y82062D01*
X159823Y82059D01*
X159886Y82052D01*
X160001Y81898D01*
X160183Y81548D01*
X160207Y81502D01*
X160267Y81348D01*
X160349Y81031D01*
X160349Y81030D01*
X160350Y81027D01*
X160421Y80743D01*
X160409Y80248D01*
X160409D01*
X160492Y79782D01*
X160504Y79670D01*
Y79122D01*
X160037Y78929D01*
X160004Y78935D01*
X158965Y80491D01*
X157621Y81835D01*
X156065Y82875D01*
X156059Y82907D01*
X156253Y83375D01*
X156784D01*
X156912Y83360D01*
D02*
G37*
G36*
X201083Y83045D02*
X201181Y82947D01*
Y82816D01*
X201312D01*
X202559Y81569D01*
X204331D01*
Y78912D01*
X204290Y78813D01*
X201969D01*
X201870Y78912D01*
Y80979D01*
X200197Y82652D01*
Y82750D01*
X200098D01*
X199311Y83538D01*
X192421Y83636D01*
Y92199D01*
X194193Y93971D01*
X201083D01*
Y83045D01*
D02*
G37*
G36*
X146886Y82907D02*
X146880Y82875D01*
X145324Y81835D01*
X143980Y80491D01*
X142925Y78912D01*
X142531Y77962D01*
X142031Y78061D01*
Y83326D01*
X142071Y83375D01*
X146692D01*
X146886Y82907D01*
D02*
G37*
G36*
X80795Y81760D02*
Y75165D01*
X74791D01*
X74004Y75953D01*
Y76051D01*
X73905D01*
X73118Y76839D01*
X66327D01*
X66228Y76937D01*
Y78759D01*
X66768Y79299D01*
X70559D01*
X71518Y80258D01*
X71740D01*
X72239Y80358D01*
X72663Y80641D01*
X72945Y81064D01*
X73045Y81563D01*
Y81785D01*
X74201Y82941D01*
Y83236D01*
X79319D01*
X80795Y81760D01*
D02*
G37*
G36*
X126424Y68813D02*
X126501Y68705D01*
X126618Y68351D01*
X126510Y68189D01*
X126449Y67882D01*
Y66952D01*
X125949Y66745D01*
X125726Y66968D01*
X125331Y67132D01*
X124637Y67826D01*
X124211Y68110D01*
X123709Y68210D01*
X119476D01*
Y68768D01*
X119942Y68851D01*
X126335D01*
X126424Y68813D01*
D02*
G37*
G36*
X160504Y69563D02*
Y43666D01*
X160224Y43282D01*
X156287D01*
Y42980D01*
X153158D01*
X153042Y43262D01*
X153001Y43480D01*
X153342Y43990D01*
X153464Y44604D01*
X153464Y44604D01*
Y45441D01*
X153342Y46055D01*
X152994Y46576D01*
X152473Y46924D01*
X151858Y47047D01*
X151244Y46924D01*
X150723Y46576D01*
X150375Y46055D01*
X150253Y45441D01*
Y45269D01*
X147964Y42980D01*
X143523D01*
Y44154D01*
X145559D01*
X145954Y43991D01*
X146542D01*
X147084Y44215D01*
X147500Y44631D01*
X147724Y45173D01*
Y45761D01*
X147500Y46303D01*
X147084Y46718D01*
X146542Y46943D01*
X145954D01*
X145559Y46780D01*
X143523D01*
Y50334D01*
X148654Y55465D01*
X151661D01*
X151739Y55480D01*
X152474D01*
Y62961D01*
X151887D01*
X148887Y64512D01*
X149054Y64989D01*
X150522Y64697D01*
X152422D01*
X154286Y65068D01*
X156041Y65795D01*
X157621Y66850D01*
X158965Y68194D01*
X160004Y69750D01*
X160037Y69756D01*
X160504Y69563D01*
D02*
G37*
G36*
X65667Y82172D02*
X63758Y80263D01*
X63575Y79988D01*
X62980D01*
Y76470D01*
X62783Y76051D01*
X62783D01*
X62783Y76051D01*
Y66602D01*
X62980D01*
Y65224D01*
X73807D01*
Y66602D01*
X74004D01*
Y74143D01*
X74481Y74422D01*
X74504Y74420D01*
X74791Y74362D01*
X75712D01*
Y70835D01*
X75080D01*
Y66898D01*
X75731D01*
Y66273D01*
X75542Y66147D01*
X75259Y65724D01*
X75160Y65224D01*
Y64240D01*
X75101Y64169D01*
X71567D01*
X71533Y64175D01*
X58496D01*
X57958Y64069D01*
X57502Y63764D01*
X55813Y62075D01*
X53794D01*
Y58138D01*
X57869D01*
Y59314D01*
X58369Y59522D01*
X58635Y59255D01*
X59178Y59030D01*
X59765D01*
X59973Y59117D01*
X62980D01*
Y58499D01*
X64359D01*
X64626Y57999D01*
X64609Y57974D01*
X62980D01*
Y57579D01*
X55597D01*
X55094Y57479D01*
X54669Y57194D01*
X53250Y55776D01*
X49595D01*
Y52035D01*
X55106D01*
Y53919D01*
X56140Y54953D01*
X62980D01*
Y53899D01*
X66917D01*
Y55445D01*
X67403Y55480D01*
Y55480D01*
X71478D01*
Y59417D01*
X71182D01*
Y61026D01*
X71540Y61359D01*
X80137D01*
X80674Y61466D01*
X81130Y61770D01*
X82281Y62921D01*
X82291Y62936D01*
X82567D01*
X83066Y63035D01*
X83489Y63318D01*
X83772Y63741D01*
X83872Y64240D01*
Y65224D01*
X83772Y65724D01*
X83489Y66147D01*
X83203Y66338D01*
Y66898D01*
X83755D01*
Y70835D01*
X81906D01*
X81741Y71138D01*
X81989Y71622D01*
X84515D01*
X92916Y69659D01*
X92989Y69657D01*
X93059Y69639D01*
X108206Y68905D01*
X108408Y68842D01*
X108565Y68387D01*
X108498Y68287D01*
X108437Y67980D01*
Y57580D01*
X107975Y57388D01*
X107200Y58164D01*
X106939Y58338D01*
X106632Y58399D01*
X106440D01*
X105991Y58585D01*
X105403D01*
X104954Y58399D01*
X104480D01*
X104000Y58598D01*
X103413D01*
X102933Y58399D01*
X102391D01*
X101942Y58585D01*
X101354D01*
X100905Y58399D01*
X100100D01*
X99833Y58510D01*
X99246D01*
X98978Y58399D01*
X98029D01*
X97762Y58510D01*
X97174D01*
X96907Y58399D01*
X95854D01*
X95547Y58338D01*
X95287Y58164D01*
X95113Y57904D01*
X95051Y57596D01*
Y55072D01*
X94916Y54869D01*
X94855Y54562D01*
Y54037D01*
X92213D01*
Y56957D01*
X89063D01*
Y60894D01*
X85126D01*
Y58616D01*
X84476Y57966D01*
X84101D01*
X83599Y57866D01*
X83173Y57582D01*
X82089Y56497D01*
X80008D01*
Y52422D01*
X83886D01*
X84092Y52115D01*
X85002Y51204D01*
Y47200D01*
X84583Y47083D01*
X84502Y47080D01*
X84102Y47480D01*
X83559Y47705D01*
X83554D01*
X78663Y52596D01*
Y53800D01*
X79319D01*
Y57875D01*
X75382D01*
Y53800D01*
X76038D01*
Y52052D01*
X76138Y51550D01*
X76422Y51124D01*
X80116Y47430D01*
X80022Y46947D01*
X79575Y46754D01*
X78509Y47820D01*
X75725Y50604D01*
X72941Y47820D01*
X71157Y49604D01*
X71085Y49712D01*
X68471Y52325D01*
X68046Y52610D01*
X67543Y52710D01*
X60517D01*
X60207Y52838D01*
X59620D01*
X59077Y52614D01*
X58662Y52198D01*
X58437Y51656D01*
Y51068D01*
X58662Y50526D01*
X59077Y50110D01*
X59083Y50108D01*
X58984Y49608D01*
X56191D01*
X55688Y49508D01*
X55263Y49223D01*
X50315Y44276D01*
X49650D01*
X49570Y44260D01*
X48694D01*
X48392Y44760D01*
X48512Y45049D01*
Y45636D01*
X48287Y46179D01*
X47872Y46594D01*
X47329Y46819D01*
X46742D01*
X46199Y46594D01*
X45784Y46179D01*
X45620Y45783D01*
X44200Y44363D01*
X44131Y44260D01*
X42440D01*
Y49476D01*
X45039D01*
X45126Y49039D01*
X45165Y48980D01*
Y48789D01*
X45390Y48246D01*
X45805Y47831D01*
X46348Y47606D01*
X46935D01*
X47478Y47831D01*
X47893Y48246D01*
X48118Y48789D01*
Y49376D01*
X47893Y49919D01*
X47651Y50161D01*
Y50764D01*
X47626Y50891D01*
Y53216D01*
X42440D01*
Y55769D01*
X49004D01*
Y57857D01*
X49285Y58138D01*
X53269D01*
Y62075D01*
X49194D01*
Y61102D01*
X48857D01*
X48319Y60995D01*
X47864Y60690D01*
X47017Y59844D01*
X42440D01*
Y69563D01*
X42908Y69756D01*
X42940Y69750D01*
X43980Y68194D01*
X45324Y66850D01*
X46903Y65795D01*
X48659Y65068D01*
X50522Y64697D01*
X52422D01*
X54286Y65068D01*
X56041Y65795D01*
X57621Y66850D01*
X58965Y68194D01*
X60020Y69774D01*
X60747Y71529D01*
X61118Y73392D01*
Y75293D01*
X60747Y77156D01*
X60020Y78912D01*
X58965Y80491D01*
X57621Y81835D01*
X56065Y82875D01*
X56059Y82907D01*
X56253Y83375D01*
X65667D01*
Y82172D01*
D02*
G37*
G36*
X79680Y68411D02*
Y66898D01*
X80393D01*
Y66231D01*
X80266Y66147D01*
X79984Y65724D01*
X79884Y65224D01*
Y64661D01*
X79647Y64463D01*
X79147Y64697D01*
Y65224D01*
X79048Y65724D01*
X78765Y66147D01*
X78540Y66297D01*
Y66898D01*
X79155D01*
Y68161D01*
X79655Y68428D01*
X79680Y68411D01*
D02*
G37*
G36*
X123474Y65276D02*
X123638Y64880D01*
X123680Y64839D01*
X123653Y64641D01*
X123513Y64298D01*
X123216Y64175D01*
X119689D01*
Y65028D01*
X119677Y65085D01*
X119994Y65552D01*
X120049Y65585D01*
X123165D01*
X123474Y65276D01*
D02*
G37*
G36*
X126449Y64481D02*
Y55776D01*
X126510Y55468D01*
X126518Y55457D01*
X126403Y54941D01*
X126118Y54856D01*
X123489D01*
X123390Y55356D01*
X123758Y55508D01*
X124173Y55924D01*
X124398Y56466D01*
Y57054D01*
X124173Y57596D01*
X123758Y58011D01*
X123215Y58236D01*
X122628D01*
X122085Y58011D01*
X121998Y57925D01*
X121297D01*
X120795Y57825D01*
X120369Y57540D01*
X120151Y57322D01*
X119689Y57513D01*
Y61550D01*
X123216D01*
X123612Y61386D01*
X124199D01*
X124742Y61611D01*
X125157Y62026D01*
X125382Y62568D01*
Y63156D01*
X125157Y63699D01*
X125115Y63740D01*
X125142Y63938D01*
X125282Y64281D01*
X125726Y64465D01*
X125949Y64688D01*
X126449Y64481D01*
D02*
G37*
G36*
X138347Y62736D02*
Y57597D01*
X137847Y57330D01*
X137784Y57373D01*
Y62511D01*
X138284Y62778D01*
X138347Y62736D01*
D02*
G37*
G36*
X141228Y70763D02*
X144729Y65760D01*
X151661Y62173D01*
Y56268D01*
X147134D01*
X137039Y69737D01*
X136956Y69653D01*
X109339D01*
X93098Y70441D01*
X82567Y72902D01*
Y83326D01*
X141228D01*
Y70763D01*
D02*
G37*
G36*
X134437Y64929D02*
X136073D01*
X136209Y64902D01*
X136578D01*
X136898Y64583D01*
Y55776D01*
X127252D01*
Y67882D01*
X134437D01*
Y64929D01*
D02*
G37*
G36*
X116327Y65028D02*
X118886D01*
Y56057D01*
X118604Y55776D01*
X109240D01*
Y67980D01*
X116327D01*
Y65028D01*
D02*
G37*
G36*
X145610Y56962D02*
X141619Y52971D01*
X141157Y53162D01*
Y62113D01*
X141631Y62271D01*
X145610Y56962D01*
D02*
G37*
G36*
X88276Y52626D02*
X88932D01*
Y48832D01*
X88090Y47990D01*
X87628Y48182D01*
Y51748D01*
X87528Y52250D01*
X87243Y52676D01*
X86332Y53587D01*
Y56110D01*
X86786Y56563D01*
X88276D01*
Y52626D01*
D02*
G37*
G36*
X68319Y48766D02*
X67397Y47844D01*
X66017Y49223D01*
X65591Y49508D01*
X65205Y49585D01*
X65254Y50085D01*
X67000D01*
X68319Y48766D01*
D02*
G37*
G36*
X134312Y50551D02*
X130804Y47043D01*
X130150D01*
X129959Y47505D01*
X133505Y51051D01*
X134136D01*
X134312Y50551D01*
D02*
G37*
G36*
X57724Y46483D02*
X57518Y46397D01*
X57103Y45982D01*
X56878Y45439D01*
Y44873D01*
X55278D01*
X55086Y45335D01*
X56734Y46983D01*
X57625D01*
X57724Y46483D01*
D02*
G37*
G36*
X113211Y43579D02*
X112749Y43388D01*
X111021Y45116D01*
Y45135D01*
X110985Y45221D01*
X111319Y45721D01*
X113211D01*
Y43579D01*
D02*
G37*
G36*
X108104Y45221D02*
X108068Y45135D01*
Y44548D01*
X108293Y44005D01*
X108708Y43590D01*
X108923Y43501D01*
X109953Y42472D01*
X109669Y42048D01*
X109534Y42104D01*
X108947D01*
X108460Y41902D01*
X108008Y41812D01*
X107552Y41508D01*
X106031Y39986D01*
X106031Y39986D01*
X105195Y39151D01*
X104891Y38695D01*
X104856Y38521D01*
X104340Y38487D01*
X103619Y40633D01*
X103826Y40840D01*
X103315Y41350D01*
X103310Y41359D01*
X103295Y41370D01*
X103287Y41378D01*
X103275Y41396D01*
X100424Y44272D01*
X100201Y44811D01*
X99791Y45221D01*
X99791Y45250D01*
X99897Y45721D01*
X107770D01*
X108104Y45221D01*
D02*
G37*
G36*
X140312Y46904D02*
Y41930D01*
X137390D01*
Y41205D01*
X136117D01*
Y41701D01*
X135109D01*
X134917Y42163D01*
X139850Y47095D01*
X140312Y46904D01*
D02*
G37*
G36*
X159873Y38945D02*
X159721Y38682D01*
X156776D01*
Y39208D01*
X159721D01*
X159873Y38945D01*
D02*
G37*
G36*
X65540Y45987D02*
X64764Y45211D01*
X64279Y45433D01*
X64134Y45785D01*
X63718Y46200D01*
X63176Y46425D01*
X62588D01*
X62046Y46200D01*
X61630Y45785D01*
X61405Y45243D01*
Y44655D01*
X61630Y44113D01*
X62046Y43697D01*
X62428Y43539D01*
X64482Y41485D01*
X64496Y41464D01*
X64637Y41369D01*
X66260Y39747D01*
X69461Y42948D01*
X70436Y43923D01*
X72941Y46428D01*
X75446Y43923D01*
X76838Y42531D01*
X79622Y39747D01*
X80597Y38773D01*
X83798Y35571D01*
X84610Y36383D01*
X86865Y34128D01*
Y31464D01*
X86365Y31414D01*
X86339Y31544D01*
X86054Y31970D01*
X84170Y33855D01*
X84029Y33949D01*
X82406Y35571D01*
X79622Y32787D01*
X76838Y30003D01*
X75446Y28611D01*
X72941Y26106D01*
X69461Y29586D01*
X66677Y32370D01*
X65285Y33762D01*
X62084Y36963D01*
X60744Y35623D01*
X60711Y35616D01*
X60255Y35312D01*
X55451Y30507D01*
X53440D01*
Y31071D01*
X49365D01*
Y27134D01*
X53440D01*
Y27697D01*
X54697D01*
X54811Y27526D01*
Y26939D01*
X55036Y26396D01*
X55451Y25981D01*
X55994Y25756D01*
X56581D01*
X57124Y25981D01*
X57539Y26396D01*
X57764Y26939D01*
Y27526D01*
X57692Y27698D01*
Y28775D01*
X60252Y31335D01*
X60752Y31335D01*
X61388Y30699D01*
X64148Y27939D01*
X61276Y25067D01*
X58551D01*
Y22508D01*
Y19555D01*
X61156D01*
X61180Y19550D01*
X62383D01*
X62469Y19464D01*
X63012Y19239D01*
X63599D01*
X63881Y18829D01*
X63909Y18513D01*
X62811Y17415D01*
X61200D01*
X61073Y17390D01*
X58551D01*
Y14437D01*
X63472D01*
Y14812D01*
X63858Y14888D01*
X64284Y15173D01*
X64284Y15173D01*
X66408Y17298D01*
X66693Y17724D01*
X66793Y18226D01*
Y22144D01*
X67293Y22478D01*
X67499Y22393D01*
X68087D01*
X68629Y22617D01*
X69045Y23033D01*
X69053Y23034D01*
X70157Y21930D01*
X70784Y22557D01*
X71101Y22241D01*
X71643Y22016D01*
X72231D01*
X72773Y22241D01*
X73077Y22544D01*
X73577Y22387D01*
Y15421D01*
X73677Y14919D01*
X73962Y14493D01*
X77702Y10753D01*
X77792Y10692D01*
X77641Y10192D01*
X63407D01*
Y13748D01*
X55959D01*
Y10192D01*
X52062D01*
Y13748D01*
X51429D01*
Y14437D01*
X51661D01*
Y17390D01*
Y19949D01*
Y22508D01*
Y25067D01*
X46740D01*
Y23507D01*
X46740Y23007D01*
X42803D01*
X42440Y23338D01*
Y40323D01*
X46415D01*
Y42414D01*
X46441Y42431D01*
X46941Y42164D01*
Y40323D01*
X47039Y40323D01*
Y36386D01*
X51114D01*
Y40323D01*
X51015Y40323D01*
Y41682D01*
X51361Y41750D01*
X51787Y42035D01*
X53312Y43560D01*
X53774Y43369D01*
Y42160D01*
X53552Y42012D01*
X52965D01*
X52422Y41787D01*
X52007Y41372D01*
X51782Y40829D01*
Y40242D01*
X52007Y39699D01*
X52422Y39284D01*
X52965Y39059D01*
X53552D01*
X54095Y39284D01*
X54510Y39699D01*
X54735Y40242D01*
Y40798D01*
X57711D01*
Y41431D01*
X58831D01*
X61647Y38614D01*
X62103Y38310D01*
X62136Y38303D01*
X63476Y36963D01*
X65285Y38773D01*
X63945Y40113D01*
X63939Y40145D01*
X63634Y40601D01*
X60406Y43829D01*
X59951Y44133D01*
X59760Y44681D01*
X59831Y44852D01*
Y45439D01*
X59606Y45982D01*
X59191Y46397D01*
X58985Y46483D01*
X59084Y46983D01*
X64545D01*
X65540Y45987D01*
D02*
G37*
G36*
X91975Y47509D02*
Y46349D01*
X91492Y45867D01*
X91975Y45384D01*
Y45020D01*
X91975Y45020D01*
X92036Y44713D01*
X92210Y44453D01*
X92210Y44453D01*
X92788Y43875D01*
Y43025D01*
X92788Y43025D01*
X92849Y42718D01*
X92878Y42674D01*
X92832Y42442D01*
X92893Y42134D01*
X93067Y41874D01*
X93067Y41874D01*
X97742Y37200D01*
X98254Y36500D01*
X97993Y36011D01*
X97949Y36013D01*
X97900Y36062D01*
X97892Y36074D01*
X95808Y38109D01*
X93163Y40755D01*
X92503Y40096D01*
X92406Y40028D01*
X92277Y39939D01*
X92276Y39939D01*
X92276Y39939D01*
X90021Y37614D01*
X88910Y36503D01*
X88453Y36253D01*
X86466Y38239D01*
X87278Y39051D01*
X85904Y40425D01*
X88637Y43158D01*
X88921Y43584D01*
X89021Y44086D01*
Y45209D01*
X91513Y47701D01*
X91975Y47509D01*
D02*
G37*
G36*
X111372Y40940D02*
Y39831D01*
X111307D01*
Y35992D01*
X110118D01*
X109858Y36252D01*
X109316Y36476D01*
X108728D01*
X108186Y36252D01*
X108094Y36160D01*
X107594Y36367D01*
Y37576D01*
X108018Y37999D01*
X108018Y37999D01*
X109128Y39110D01*
X109336Y39151D01*
X109534D01*
X110076Y39376D01*
X110492Y39791D01*
X110716Y40334D01*
Y40809D01*
X111007Y41025D01*
X111179Y41086D01*
X111372Y40940D01*
D02*
G37*
G36*
X108437Y55791D02*
Y55776D01*
X108453Y55698D01*
Y54988D01*
X109163D01*
X109240Y54973D01*
X109256D01*
X110175Y54053D01*
X116327D01*
Y51051D01*
X119476D01*
Y52935D01*
X120595Y54053D01*
X133108D01*
Y51789D01*
X128362Y47043D01*
X123439D01*
X122901Y46936D01*
X122800Y46868D01*
X122159D01*
X119132Y43841D01*
Y35648D01*
X118000D01*
Y39831D01*
X115244D01*
Y35648D01*
X114063D01*
Y39831D01*
X114014D01*
Y46524D01*
X98962D01*
X95854Y50134D01*
Y54037D01*
X95657D01*
Y54562D01*
X95854D01*
Y57596D01*
X106632D01*
X108437Y55791D01*
D02*
G37*
G36*
X127442Y37764D02*
X128665D01*
X128999Y37264D01*
X128917Y37065D01*
Y36478D01*
X128577Y35992D01*
X126760D01*
Y33236D01*
X126760D01*
Y29299D01*
X129085D01*
X129220Y29272D01*
X132173D01*
X132711Y29379D01*
X132994Y28967D01*
X132832Y28805D01*
X133085Y28553D01*
X132878Y28053D01*
X131681D01*
Y28118D01*
X126760D01*
Y25362D01*
X131681D01*
Y25427D01*
X133945D01*
X134215Y25481D01*
X134461Y25020D01*
X133556Y24116D01*
X131681D01*
Y24181D01*
X126760D01*
Y21425D01*
X131681D01*
Y21490D01*
X132765D01*
X134594Y19661D01*
X134541Y19161D01*
X133125D01*
Y15224D01*
X133125D01*
X133089Y15111D01*
X132599Y15220D01*
X132600Y15224D01*
X132600Y15224D01*
X132600D01*
Y19161D01*
X128525D01*
Y18506D01*
X127842D01*
Y20539D01*
X125087D01*
Y15947D01*
X124548D01*
X123931Y16563D01*
Y17988D01*
X123906Y18115D01*
Y20539D01*
X119181D01*
Y15618D01*
X119337D01*
Y13354D01*
X118978D01*
Y10192D01*
X114418D01*
X114227Y10654D01*
X117550Y13977D01*
X117835Y14403D01*
X117935Y14906D01*
Y15618D01*
X118000D01*
Y20539D01*
X113276D01*
Y18115D01*
X113250Y17988D01*
Y16366D01*
X111157Y14273D01*
X109542D01*
Y18177D01*
X105467D01*
Y15126D01*
Y12361D01*
X101176D01*
Y14240D01*
X104942D01*
Y18177D01*
X100867D01*
X101107Y18781D01*
X107059Y20928D01*
X107468Y20640D01*
Y19457D01*
X112390D01*
Y22135D01*
X112405Y22213D01*
Y23394D01*
X112390Y23471D01*
Y24396D01*
X112395Y24428D01*
X112423Y24579D01*
X112423Y24582D01*
X112423Y24586D01*
X112405Y25381D01*
X112390Y25449D01*
Y26321D01*
X112405Y26344D01*
X112411Y26380D01*
X112424Y26403D01*
X112432Y26472D01*
X112456Y26546D01*
X112457Y26553D01*
X112452Y26605D01*
X112461Y26652D01*
X112455Y26679D01*
X112459Y26714D01*
X112402Y27397D01*
X112390Y27441D01*
Y30087D01*
Y34909D01*
X113751D01*
X113756Y34906D01*
X114063Y34845D01*
X115244D01*
X115551Y34906D01*
X115557Y34909D01*
X116032D01*
Y35570D01*
X116047Y35648D01*
Y39028D01*
X117197D01*
Y35648D01*
X117213Y35570D01*
Y34909D01*
X117687D01*
X117693Y34906D01*
X118000Y34845D01*
X119132D01*
X119439Y34906D01*
X119444Y34909D01*
X125874D01*
Y37234D01*
X125901Y37370D01*
Y40430D01*
X126515Y41044D01*
X127442D01*
Y37764D01*
D02*
G37*
G36*
X18489Y57171D02*
Y51348D01*
X18497Y51303D01*
X18494Y51258D01*
X18543Y50820D01*
X18570Y50734D01*
X18583Y50645D01*
X18729Y50229D01*
X18774Y50151D01*
X18807Y50067D01*
X19041Y49694D01*
X19103Y49628D01*
X19153Y49553D01*
X19465Y49241D01*
X19540Y49191D01*
X19605Y49129D01*
X19979Y48895D01*
X20063Y48862D01*
X20141Y48817D01*
X20557Y48671D01*
X20646Y48658D01*
X20732Y48631D01*
X21170Y48582D01*
X21215Y48586D01*
X21260Y48577D01*
X33026D01*
X33329Y48543D01*
X33575Y48457D01*
X33795Y48318D01*
X33978Y48135D01*
X34117Y47915D01*
X34202Y47669D01*
X34237Y47366D01*
Y28841D01*
X33746Y28744D01*
X33548Y29223D01*
X32492Y30802D01*
X31149Y32146D01*
X29569Y33202D01*
X27814Y33929D01*
X25950Y34299D01*
X24050D01*
X22186Y33929D01*
X20431Y33202D01*
X18851Y32146D01*
X17508Y30802D01*
X16452Y29223D01*
X15725Y27467D01*
X15354Y25604D01*
Y23704D01*
X15725Y21840D01*
X16452Y20085D01*
X17508Y18505D01*
X18851Y17161D01*
X20431Y16106D01*
X20951Y15890D01*
X20879Y15379D01*
X20732Y15363D01*
X20646Y15335D01*
X20557Y15323D01*
X20141Y15177D01*
X20063Y15131D01*
X19979Y15099D01*
X19605Y14865D01*
X19540Y14803D01*
X19465Y14752D01*
X19153Y14441D01*
X19103Y14366D01*
X19041Y14300D01*
X18807Y13927D01*
X18774Y13843D01*
X18729Y13765D01*
X18583Y13349D01*
X18570Y13260D01*
X18543Y13174D01*
X18494Y12736D01*
X18497Y12690D01*
X18489Y12646D01*
Y2014D01*
X18454Y1710D01*
X18369Y1465D01*
X18230Y1245D01*
X18046Y1061D01*
X17826Y923D01*
X17581Y837D01*
X17278Y803D01*
X6023D01*
X5906Y1254D01*
X5906D01*
Y5388D01*
X803D01*
Y16018D01*
X5906D01*
Y19167D01*
Y21950D01*
X6367Y22141D01*
X8341Y20168D01*
Y15821D01*
X7283D01*
Y13360D01*
X7212D01*
X6669Y13136D01*
X6254Y12720D01*
X6029Y12178D01*
Y11590D01*
X6254Y11048D01*
X6669Y10632D01*
X7212Y10408D01*
X7283D01*
Y7947D01*
X11220D01*
X11220Y7447D01*
Y5516D01*
X15157D01*
Y8826D01*
Y12901D01*
X11220D01*
X11220Y13401D01*
Y15821D01*
X10163D01*
Y20545D01*
X10094Y20894D01*
X9896Y21190D01*
X3804Y27282D01*
X4106Y27583D01*
X4331Y28126D01*
Y28713D01*
X4106Y29256D01*
X3691Y29671D01*
X3148Y29896D01*
X2561D01*
X2018Y29671D01*
X1603Y29256D01*
X1378Y28713D01*
Y28126D01*
X1603Y27583D01*
X1943Y27243D01*
Y26943D01*
X2012Y26594D01*
X2210Y26299D01*
X4746Y23763D01*
X4554Y23301D01*
X803D01*
Y33931D01*
X5134D01*
Y31910D01*
X5204Y31562D01*
X5401Y31266D01*
X7227Y29440D01*
X7283Y29403D01*
Y25860D01*
X10589D01*
X10827Y25622D01*
Y23036D01*
X14764D01*
Y26284D01*
Y30358D01*
X11220D01*
Y33734D01*
X11220Y33734D01*
X11220D01*
X11497Y34107D01*
X12207Y34817D01*
X14993D01*
Y38754D01*
X10919D01*
Y36106D01*
X9289Y34476D01*
X9091Y34180D01*
X9022Y33832D01*
Y33734D01*
X7283D01*
X6957Y34099D01*
Y36154D01*
X12947Y42145D01*
X13145Y42441D01*
X13214Y42790D01*
Y43369D01*
X13233Y43381D01*
X13714Y43523D01*
X14026Y43211D01*
X14569Y42986D01*
X15133D01*
X16645Y41474D01*
Y38754D01*
X15518D01*
Y34817D01*
X19488D01*
Y34810D01*
X23425D01*
Y38885D01*
X19488D01*
Y38754D01*
X18467D01*
Y41852D01*
X18398Y42200D01*
X18200Y42496D01*
X16339Y44358D01*
Y44756D01*
X16114Y45299D01*
X15698Y45714D01*
X15156Y45939D01*
X14569D01*
X14026Y45714D01*
X13714Y45403D01*
X13233Y45544D01*
X13214Y45556D01*
Y49782D01*
X13555Y50122D01*
X13780Y50665D01*
Y51252D01*
X13555Y51795D01*
X13296Y52054D01*
X13622Y52435D01*
X16535D01*
Y55871D01*
X18027Y57362D01*
X18489Y57171D01*
D02*
G37*
G36*
X147331Y31957D02*
X143394D01*
Y38453D01*
X147331D01*
Y31957D01*
D02*
G37*
G36*
X93620Y31678D02*
X93703Y31624D01*
X94005Y31322D01*
X93798Y30822D01*
X90244D01*
Y30822D01*
X89746Y30827D01*
X89490Y30961D01*
Y34672D01*
X89406Y35095D01*
X89601Y35281D01*
X89818Y35392D01*
X93620Y31678D01*
D02*
G37*
G36*
X137390Y37855D02*
X139061D01*
X139063Y37855D01*
X139065Y37855D01*
X140513D01*
X140782Y37453D01*
X140782Y37453D01*
X141704Y36530D01*
X142225Y36182D01*
X142591Y36109D01*
Y31957D01*
X142610Y31859D01*
Y31169D01*
X143316D01*
X143394Y31154D01*
X147331D01*
X147408Y31169D01*
X148050D01*
X148099Y30669D01*
X147909Y30632D01*
X147649Y30457D01*
X147598Y30382D01*
X147580D01*
Y30354D01*
X147525Y30272D01*
X139393D01*
X136973Y32693D01*
X137218Y32938D01*
X134765Y35391D01*
Y37764D01*
X136117D01*
Y38580D01*
X137390D01*
Y37855D01*
D02*
G37*
G36*
X95264Y48273D02*
X98545Y44991D01*
X98562Y45009D01*
X102705Y40831D01*
X104784Y34646D01*
Y34614D01*
X104891Y34076D01*
X105195Y33621D01*
X107164Y31652D01*
X107468Y31449D01*
Y31268D01*
X108022D01*
X108158Y31241D01*
X109929D01*
X109983Y31251D01*
X111568Y31235D01*
Y28141D01*
X110897Y28133D01*
X108198D01*
X103300Y30972D01*
X98353Y37724D01*
X93635Y42442D01*
X93904Y42711D01*
X93590Y43025D01*
Y43880D01*
X93754Y44043D01*
X92777Y45020D01*
Y48966D01*
X93288Y49476D01*
X95264D01*
Y48273D01*
D02*
G37*
G36*
X97331Y35500D02*
X102154Y29693D01*
X107468Y27635D01*
Y27331D01*
X111602D01*
X111659Y26647D01*
X111658Y26640D01*
X111198Y26165D01*
X107919D01*
X107903Y26180D01*
X107836Y26207D01*
X107776Y26247D01*
X107692Y26264D01*
X107612Y26295D01*
X102624Y27201D01*
X97724Y30057D01*
Y30822D01*
X96473D01*
X94186Y32252D01*
X94181D01*
X89949Y36386D01*
X92852Y39380D01*
X93352Y39386D01*
X97331Y35500D01*
D02*
G37*
G36*
X83813Y29365D02*
Y26156D01*
X83157D01*
X83000Y26591D01*
Y27626D01*
X82803D01*
Y28286D01*
X82797Y28317D01*
Y29002D01*
X83351Y29557D01*
X83813Y29365D01*
D02*
G37*
G36*
X222032Y25467D02*
X217884D01*
Y27829D01*
Y30979D01*
X222032D01*
Y25467D01*
D02*
G37*
G36*
X102341Y26436D02*
X107468Y25505D01*
Y25362D01*
X111602D01*
X111620Y24567D01*
X111272Y24209D01*
X109258Y24196D01*
X108256D01*
X108234Y24192D01*
X108212Y24195D01*
X108124Y24191D01*
X98807Y24181D01*
X90342Y25559D01*
Y29988D01*
X96248D01*
X102341Y26436D01*
D02*
G37*
G36*
X95093Y23972D02*
X95066Y23473D01*
X90744Y23236D01*
X90244Y23616D01*
Y24260D01*
X90744Y24680D01*
X95093Y23972D01*
D02*
G37*
G36*
X144939Y25557D02*
X145045Y25524D01*
X145460Y25109D01*
X146003Y24884D01*
X146590D01*
X146914Y25018D01*
X147414Y24736D01*
Y23992D01*
X147149Y23508D01*
X142729D01*
X142711Y23504D01*
X142692Y23507D01*
X142558Y23473D01*
X142508Y23464D01*
X141042D01*
Y20281D01*
X140986D01*
X140448Y20174D01*
X139993Y19870D01*
X138721Y18598D01*
X137200D01*
Y19161D01*
X134723D01*
X134670Y19661D01*
X137513Y22505D01*
X135185Y24834D01*
X135294Y25432D01*
X135318Y25443D01*
X137885Y22876D01*
X139160Y24152D01*
X142475D01*
X143089Y24274D01*
X143610Y24622D01*
X143958Y25143D01*
X143964Y25170D01*
X144165Y25254D01*
X144484Y25572D01*
X144939Y25557D01*
D02*
G37*
G36*
X64166Y23260D02*
Y22832D01*
X63666Y22533D01*
X63472Y22636D01*
Y23359D01*
X63666Y23507D01*
X64166Y23260D01*
D02*
G37*
G36*
X44318Y18432D02*
X44302Y18407D01*
X43246D01*
X43092Y18669D01*
X43246Y18932D01*
X44051D01*
X44318Y18432D01*
D02*
G37*
G36*
X111602Y22213D02*
X107468D01*
Y21929D01*
X96907Y18120D01*
X90342D01*
Y22410D01*
X108256Y23394D01*
X111602D01*
Y22213D01*
D02*
G37*
G36*
X79772Y25324D02*
Y23886D01*
X83000D01*
X83157Y23451D01*
Y22082D01*
X89540D01*
Y18120D01*
X83000D01*
Y21327D01*
X79772D01*
Y18339D01*
X79272Y18211D01*
X78761Y18721D01*
Y24789D01*
X78732Y24937D01*
X79310Y25515D01*
X79772Y25324D01*
D02*
G37*
G36*
X153236Y29693D02*
Y16799D01*
X143000D01*
X142311Y17488D01*
Y22508D01*
X142729Y22705D01*
X147626D01*
X148216Y23787D01*
Y29890D01*
X153039D01*
X153236Y29693D01*
D02*
G37*
G36*
X156287Y34607D02*
X156430D01*
Y30382D01*
X155180D01*
Y22902D01*
X160504D01*
Y13897D01*
X160492Y13784D01*
X160409Y13319D01*
X160409D01*
X160421Y12824D01*
X160349Y12537D01*
X160349D01*
X160214Y12084D01*
X160207Y12065D01*
X160183Y12019D01*
X160001Y11669D01*
X159886Y11515D01*
X159823Y11508D01*
X159815Y11505D01*
X159737Y11316D01*
X159565Y11132D01*
X159381Y10960D01*
X159192Y10882D01*
X159189Y10874D01*
X159182Y10811D01*
X159027Y10696D01*
X159005Y10683D01*
X158632Y10490D01*
X158482Y10431D01*
X158161Y10348D01*
X158160Y10348D01*
X158156Y10346D01*
X158001Y10282D01*
X157854Y10259D01*
X157378Y10288D01*
Y10288D01*
X156901Y10205D01*
X156784Y10192D01*
X134873D01*
X134682Y10654D01*
X135118Y11091D01*
X137137D01*
Y13041D01*
X141120Y17023D01*
X141139Y17030D01*
X141736Y16932D01*
X141743Y16920D01*
X141743Y16920D01*
X142432Y16231D01*
X142693Y16058D01*
X143000Y15996D01*
X153236D01*
X153543Y16058D01*
X153804Y16231D01*
X153978Y16492D01*
X154039Y16799D01*
Y21732D01*
X154040Y21735D01*
Y22322D01*
X154039Y22325D01*
Y29693D01*
X153978Y30000D01*
X153804Y30261D01*
X153607Y30457D01*
X153347Y30632D01*
X153039Y30693D01*
X151388D01*
Y34909D01*
X156287D01*
Y34607D01*
D02*
G37*
G36*
X133063Y14910D02*
X133063Y14750D01*
Y13460D01*
X133037Y13443D01*
X132537Y13711D01*
Y14750D01*
X132563Y14942D01*
X133063Y14910D01*
D02*
G37*
G36*
X122927Y13854D02*
X122720Y13354D01*
X121962D01*
Y14166D01*
X122424Y14357D01*
X122927Y13854D01*
D02*
G37*
G36*
X128463Y13171D02*
Y12299D01*
X127652D01*
Y13321D01*
X128313D01*
X128463Y13171D01*
D02*
G37*
G36*
X123578Y12870D02*
Y10192D01*
X123052D01*
Y12584D01*
X123552Y12883D01*
X123578Y12870D01*
D02*
G37*
G36*
X77891Y15879D02*
X78317Y15594D01*
X78819Y15495D01*
X97101D01*
Y13650D01*
Y10192D01*
X96576D01*
Y13650D01*
X92501D01*
Y12994D01*
X79174D01*
X76202Y15965D01*
Y16860D01*
X76702Y17067D01*
X77891Y15879D01*
D02*
G37*
G36*
X48619Y13748D02*
X47987D01*
Y10192D01*
X46161D01*
X46033Y10207D01*
X45567Y10288D01*
X45567Y10288D01*
Y10288D01*
X45118Y10263D01*
X44785Y10348D01*
X44785Y10348D01*
X44332Y10483D01*
X44313Y10490D01*
X44267Y10514D01*
X43917Y10696D01*
X43763Y10811D01*
X43756Y10874D01*
X43753Y10882D01*
X43564Y10960D01*
X43380Y11132D01*
X43208Y11316D01*
X43130Y11505D01*
X43122Y11508D01*
X43059Y11515D01*
X42944Y11670D01*
X42931Y11691D01*
X42738Y12065D01*
X42677Y12219D01*
X42596Y12536D01*
X42596Y12537D01*
X42595Y12540D01*
X42524Y12824D01*
X42536Y13319D01*
X42536D01*
X42453Y13784D01*
X42440Y13897D01*
Y14001D01*
X42803Y14332D01*
X46740D01*
X46740Y14437D01*
X48619D01*
Y13748D01*
D02*
G37*
G36*
X222032Y2014D02*
X221998Y1710D01*
X221912Y1465D01*
X221774Y1245D01*
X221590Y1061D01*
X221370Y923D01*
X221124Y837D01*
X220821Y803D01*
X217848D01*
Y3419D01*
Y6569D01*
X222032D01*
Y2014D01*
D02*
G37*
G36*
X199595Y81581D02*
X199360Y2014D01*
X199356Y803D01*
X189809D01*
X189506Y837D01*
X189260Y923D01*
X189040Y1061D01*
X188856Y1245D01*
X188718Y1465D01*
X188632Y1710D01*
X188598Y2014D01*
Y81935D01*
X199242D01*
X199595Y81581D01*
D02*
G37*
%LPC*%
G36*
X14075Y226746D02*
X10138D01*
Y223720D01*
X9641D01*
X9292Y223651D01*
X8997Y223453D01*
X8411Y222868D01*
X8213Y222572D01*
X8144Y222223D01*
Y219565D01*
X7796Y219216D01*
X7571Y218674D01*
Y218086D01*
X7796Y217544D01*
X8211Y217128D01*
X8754Y216904D01*
X9341D01*
X9883Y217128D01*
X10299Y217544D01*
X10524Y218086D01*
Y218674D01*
X10656Y218872D01*
X14075D01*
Y219443D01*
X15804D01*
X16188Y219520D01*
X16514Y219737D01*
X17699Y220923D01*
X20355D01*
Y223905D01*
X21041Y224592D01*
X24816D01*
X25391Y224017D01*
Y220776D01*
X29465D01*
Y224712D01*
X27515D01*
X27478Y224768D01*
X25941Y226305D01*
X25616Y226522D01*
X25232Y226599D01*
X20625D01*
X20241Y226522D01*
X19916Y226305D01*
X18471Y224860D01*
X16280D01*
Y222342D01*
X15389Y221450D01*
X14075D01*
Y223597D01*
Y226746D01*
D02*
G37*
G36*
X8760Y216313D02*
X2854D01*
Y213065D01*
X2854D01*
Y208931D01*
X8760D01*
Y212179D01*
X8760D01*
Y216313D01*
D02*
G37*
G36*
X164483Y203803D02*
X163895D01*
X163353Y203578D01*
X162937Y203163D01*
X162713Y202620D01*
Y202033D01*
X162937Y201490D01*
X163353Y201075D01*
X163895Y200850D01*
X164483D01*
X165025Y201075D01*
X165441Y201490D01*
X165665Y202033D01*
Y202620D01*
X165441Y203163D01*
X165025Y203578D01*
X164483Y203803D01*
D02*
G37*
G36*
X18602Y198728D02*
X14665D01*
Y194653D01*
X18602D01*
Y194660D01*
X22474D01*
Y198597D01*
X18602D01*
Y198728D01*
D02*
G37*
G36*
X13100Y132994D02*
X12199D01*
X11367Y132650D01*
X10730Y132013D01*
X10386Y131181D01*
Y130280D01*
X10730Y129448D01*
X11367Y128811D01*
X12199Y128467D01*
X13100D01*
X13932Y128811D01*
X14569Y129448D01*
X14913Y130280D01*
Y131181D01*
X14569Y132013D01*
X13932Y132650D01*
X13100Y132994D01*
D02*
G37*
G36*
X158274Y113656D02*
X154200D01*
Y109719D01*
X158274D01*
Y110242D01*
X158391Y110359D01*
X158615Y110901D01*
Y111489D01*
X158391Y112031D01*
X158274Y112147D01*
Y113656D01*
D02*
G37*
G36*
X59547Y123567D02*
X55610D01*
Y119492D01*
X59547D01*
Y123567D01*
D02*
G37*
G36*
X52854D02*
X48917D01*
Y119492D01*
X52854D01*
Y123567D01*
D02*
G37*
G36*
X194980Y127171D02*
X194055Y127049D01*
X193193Y126692D01*
X192453Y126124D01*
X191885Y125383D01*
X191528Y124522D01*
X191406Y123597D01*
Y121234D01*
X191528Y120309D01*
X191885Y119447D01*
X192453Y118707D01*
X193193Y118139D01*
X194055Y117782D01*
X194980Y117660D01*
X195905Y117782D01*
X196767Y118139D01*
X197507Y118707D01*
X198075Y119447D01*
X198432Y120309D01*
X198554Y121234D01*
Y123597D01*
X198432Y124522D01*
X198075Y125383D01*
X197507Y126124D01*
X196767Y126692D01*
X195905Y127049D01*
X194980Y127171D01*
D02*
G37*
G36*
X187303Y118923D02*
X183563D01*
Y112230D01*
X187303D01*
Y118923D01*
D02*
G37*
%LPD*%
G36*
X195696Y126267D02*
X196362Y125990D01*
X196935Y125551D01*
X197374Y124979D01*
X197650Y124312D01*
X197751Y123544D01*
Y121287D01*
X197650Y120519D01*
X197374Y119852D01*
X196935Y119280D01*
X196362Y118841D01*
X195696Y118564D01*
X194980Y118470D01*
X194265Y118564D01*
X193598Y118841D01*
X193026Y119280D01*
X192587Y119852D01*
X192310Y120519D01*
X192209Y121287D01*
Y123544D01*
X192310Y124312D01*
X192587Y124979D01*
X193026Y125551D01*
X193598Y125990D01*
X194265Y126267D01*
X194980Y126361D01*
X195696Y126267D01*
D02*
G37*
G36*
X186500Y113033D02*
X184366D01*
Y118121D01*
X186500D01*
Y113033D01*
D02*
G37*
%LPC*%
G36*
X24014Y107652D02*
X23427D01*
X22884Y107427D01*
X22469Y107012D01*
X22244Y106469D01*
Y105882D01*
X22469Y105339D01*
X22809Y104999D01*
Y102829D01*
X22879Y102480D01*
X23076Y102184D01*
X24275Y100986D01*
Y96923D01*
X21227D01*
Y97867D01*
X21158Y98216D01*
X20960Y98511D01*
X18656Y100816D01*
X18361Y101013D01*
X18012Y101083D01*
X16936D01*
Y102140D01*
X12861D01*
Y98203D01*
X16936D01*
Y99260D01*
X17634D01*
X19405Y97490D01*
Y96923D01*
X16037D01*
Y92986D01*
X16037D01*
X16135Y92888D01*
Y91707D01*
X13132D01*
X10552Y94287D01*
X10227Y94504D01*
X9843Y94580D01*
X8829D01*
Y98793D01*
X4754D01*
Y94856D01*
Y91608D01*
X8829D01*
Y92573D01*
X9427D01*
X11713Y90288D01*
Y86982D01*
Y83045D01*
X16634D01*
Y83512D01*
X24600D01*
X24949Y83582D01*
X25245Y83779D01*
X25831Y84365D01*
X26028Y84660D01*
X26098Y85009D01*
Y94955D01*
Y101363D01*
X26028Y101712D01*
X25831Y102007D01*
X24632Y103206D01*
Y104999D01*
X24972Y105339D01*
X25197Y105882D01*
Y106469D01*
X24972Y107012D01*
X24557Y107427D01*
X24014Y107652D01*
D02*
G37*
G36*
X17305Y81569D02*
X11930D01*
Y76057D01*
X17305D01*
Y81569D01*
D02*
G37*
G36*
X4724Y57160D02*
X1772D01*
Y52435D01*
X4724D01*
Y57160D01*
D02*
G37*
G36*
X215256Y125195D02*
X214075D01*
X213355Y125100D01*
X212685Y124823D01*
X212109Y124381D01*
X211667Y123805D01*
X211390Y123135D01*
X211295Y122415D01*
X211390Y121696D01*
X211667Y121026D01*
X212109Y120450D01*
X212685Y120008D01*
X213355Y119730D01*
X214075Y119636D01*
X215256D01*
X215975Y119730D01*
X216646Y120008D01*
X217221Y120450D01*
X217663Y121026D01*
X217941Y121696D01*
X218036Y122415D01*
X217941Y123135D01*
X217663Y123805D01*
X217221Y124381D01*
X216646Y124823D01*
X215975Y125100D01*
X215256Y125195D01*
D02*
G37*
G36*
X215453Y112597D02*
X213878D01*
X213158Y112502D01*
X212488Y112224D01*
X211912Y111783D01*
X211471Y111207D01*
X211193Y110537D01*
X211098Y109817D01*
X211193Y109098D01*
X211471Y108427D01*
X211912Y107852D01*
X212488Y107410D01*
X213158Y107132D01*
X213878Y107037D01*
X215453D01*
X216172Y107132D01*
X216843Y107410D01*
X217418Y107852D01*
X217860Y108427D01*
X218138Y109098D01*
X218232Y109817D01*
X218138Y110537D01*
X217860Y111207D01*
X217418Y111783D01*
X216843Y112224D01*
X216172Y112502D01*
X215453Y112597D01*
D02*
G37*
G36*
X205741Y75860D02*
X201666D01*
Y71923D01*
X205741D01*
Y75860D01*
D02*
G37*
G36*
X59042Y38846D02*
X58454D01*
X57912Y38622D01*
X57496Y38206D01*
X57272Y37664D01*
Y37076D01*
X57496Y36534D01*
X57912Y36119D01*
X58454Y35894D01*
X59042D01*
X59584Y36119D01*
X60000Y36534D01*
X60224Y37076D01*
Y37664D01*
X60000Y38206D01*
X59584Y38622D01*
X59042Y38846D01*
D02*
G37*
%LPD*%
D10*
X207874Y250394D02*
D03*
Y246457D02*
D03*
X218110D02*
D03*
Y250394D02*
D03*
X12992D02*
D03*
Y246457D02*
D03*
X23228D02*
D03*
Y250394D02*
D03*
D11*
X216744D02*
X218110D01*
X216142Y250996D02*
X216744Y250394D01*
X216142Y250996D02*
Y253150D01*
X208846Y250394D02*
X209449Y250996D01*
Y253150D01*
X207874Y250394D02*
X208846D01*
X207669Y173605D02*
X209358Y171915D01*
X206846Y173605D02*
X207669D01*
X209358Y171915D02*
X210083D01*
X197352Y155330D02*
Y155782D01*
X197329Y158589D02*
X197338Y158580D01*
X197394Y155782D02*
Y158636D01*
X205512Y178985D02*
Y181372D01*
Y178985D02*
X210707Y173790D01*
X210776D01*
X16634Y196690D02*
X16696Y196628D01*
X20436D01*
X11819Y204510D02*
X12106Y204797D01*
X7124Y202288D02*
X9345Y204510D01*
X11819D01*
X9055Y218388D02*
Y222223D01*
X9047Y218380D02*
X9055Y218388D01*
Y222223D02*
X9641Y222809D01*
X17359Y167852D02*
X23105Y162106D01*
X10630Y167852D02*
X17359D01*
X23105Y153051D02*
Y162106D01*
X6046Y36532D02*
X12303Y42790D01*
Y50959D01*
X14945Y44463D02*
X17556Y41852D01*
Y36786D02*
Y41852D01*
X14862Y44463D02*
X14945D01*
X12887Y36786D02*
X12956D01*
X9933Y33832D02*
X12887Y36786D01*
X6046Y31910D02*
Y36532D01*
X9933Y32447D02*
Y33832D01*
X9252Y32160D02*
X9646D01*
X9933Y32447D01*
X17587Y36817D02*
X21426D01*
X21457Y36848D01*
X17556Y36786D02*
X17587Y36817D01*
X204216Y167491D02*
X204897Y166810D01*
X206249D02*
X207567Y165492D01*
X204216Y167491D02*
Y167560D01*
X204897Y166810D02*
X206249D01*
X207567Y165492D02*
X207636D01*
X200552Y167560D02*
X204216D01*
X200492Y167621D02*
X200552Y167560D01*
X206165Y174286D02*
X206846Y173605D01*
X193247Y158545D02*
X194888D01*
X193090Y158388D02*
X193247Y158545D01*
X192881Y158388D02*
X193090D01*
X194888Y158545D02*
X194929Y158587D01*
Y158636D01*
X186303Y130289D02*
X195177Y139163D01*
Y153155D02*
X197352Y155330D01*
X195177Y139163D02*
Y153155D01*
X205512Y183734D02*
X205758Y183488D01*
X208219D02*
X208366Y183341D01*
X205758Y183488D02*
X208219D01*
X23720Y102829D02*
X25186Y101363D01*
Y94955D02*
Y101363D01*
X24600Y84423D02*
X25186Y85009D01*
X22674Y94955D02*
X25186D01*
X14173Y84423D02*
X24600D01*
X25186Y85009D02*
Y94955D01*
X14173Y86392D02*
X22675D01*
X22765Y86301D01*
X22704Y86392D02*
Y90919D01*
X157669Y121128D02*
X158957Y122415D01*
X155504Y121128D02*
X157669D01*
X160835Y121573D02*
Y123613D01*
X156153Y128294D02*
X160835Y123613D01*
X155315Y120939D02*
X155504Y121128D01*
X149141Y128294D02*
X156153D01*
X157831Y118569D02*
X160835Y121573D01*
X9252Y14246D02*
Y20545D01*
X2854Y26943D02*
Y28419D01*
Y26943D02*
X9252Y20545D01*
X17913Y69888D02*
X22803Y74778D01*
X17913Y58538D02*
Y69888D01*
X15059Y55683D02*
X17913Y58538D01*
X23720Y102829D02*
Y106175D01*
X23105Y153051D02*
X31496Y144660D01*
X138386Y135604D02*
X141831D01*
X149141Y128294D01*
X136713Y134423D02*
X136902Y134612D01*
X137394D01*
X138386Y135604D01*
X136713Y133931D02*
Y134423D01*
X134252Y131471D02*
Y135678D01*
Y131471D02*
X136122Y129601D01*
X84646Y101261D02*
Y104305D01*
X90256Y97998D02*
Y98081D01*
X87008Y101329D02*
X90256Y98081D01*
X155504Y118569D02*
X157831D01*
X155315Y118380D02*
X155504Y118569D01*
X6046Y31910D02*
X7871Y30085D01*
X8964D01*
X183480Y130289D02*
X186303D01*
X183364Y130406D02*
X183480Y130289D01*
X211442Y221038D02*
X213189D01*
X135187Y118232D02*
X135827Y117593D01*
X134162Y118232D02*
X135187D01*
X134015Y118380D02*
X134162Y118232D01*
X87008Y101329D02*
Y104305D01*
X31004Y74778D02*
X33071Y76845D01*
X22803Y74778D02*
X31004D01*
X7505Y11884D02*
X9252D01*
X8964Y30085D02*
X9252Y29797D01*
X122482Y100458D02*
X122633D01*
X120997Y101943D02*
X122482Y100458D01*
X213189Y221038D02*
X213189Y221038D01*
X15059Y54797D02*
Y55683D01*
X19621Y88360D02*
X20316Y89056D01*
X14173Y88360D02*
X19621D01*
X20316Y89056D02*
Y97867D01*
X120928Y101943D02*
X120997D01*
X9641Y222809D02*
X12106D01*
X14898Y100171D02*
X18012D01*
X20316Y97867D01*
X160055Y194748D02*
Y194755D01*
X157512Y197298D02*
X160055Y194755D01*
X157512Y197298D02*
Y197305D01*
X139819Y193545D02*
Y194934D01*
X141231Y196346D01*
X141510D01*
X141644Y196481D01*
X135228Y193944D02*
Y195611D01*
X138872Y199254D01*
X136622Y194232D02*
X138576Y196186D01*
X136622Y187949D02*
Y194232D01*
X138576Y196186D02*
X138576D01*
X141087Y198697D01*
X132693Y191408D02*
X135228Y193944D01*
X92437Y199512D02*
X93005D01*
X93458Y199965D01*
X145587Y183859D02*
Y187645D01*
X139671Y193468D02*
X139896D01*
X142131Y194173D02*
X143871Y195913D01*
X139896Y193336D02*
X145587Y187645D01*
X139896Y193336D02*
Y193468D01*
X139819Y193545D02*
X139896Y193468D01*
X110252Y198101D02*
X113393Y194961D01*
Y194855D02*
Y194961D01*
X110172Y228649D02*
X123166D01*
X106315Y224791D02*
X110172Y228649D01*
X123166D02*
X123798Y228016D01*
X159779Y218834D02*
X161757D01*
X159632Y218982D02*
X159779Y218834D01*
X161757D02*
X161925Y218665D01*
X155394Y188300D02*
X162988D01*
X163023Y188335D01*
X152780Y190913D02*
X155394Y188300D01*
X100016Y182937D02*
X100163Y183085D01*
X101640D01*
X104748Y186193D02*
Y186488D01*
X105035Y186776D01*
X101640Y183085D02*
X104748Y186193D01*
X87644Y217044D02*
X87794Y216894D01*
X87863Y217044D02*
X88355Y217536D01*
X87644Y217044D02*
X87863D01*
X87546D02*
X87644D01*
X87595Y217092D02*
X87644Y217044D01*
X87546D02*
X87595Y217092D01*
X110252Y198101D02*
Y202327D01*
X136622Y187949D02*
X137917Y186654D01*
X166746Y191402D02*
X172079Y196734D01*
X154729Y194521D02*
X157848Y191402D01*
X166746D01*
X153428Y181559D02*
X155856D01*
X153202Y179197D02*
Y181333D01*
X132693Y184906D02*
Y191408D01*
X129051Y187767D02*
X132693Y191408D01*
X129051Y187698D02*
Y187767D01*
X137917Y183043D02*
X138836D01*
X140961Y185168D01*
Y185237D01*
X136039Y181362D02*
X136524Y181846D01*
X136721D02*
X137917Y183043D01*
X136524Y181846D02*
X136721D01*
X137917Y183043D02*
Y186654D01*
X143871Y195913D02*
Y195913D01*
X134760Y205025D02*
X138304Y201481D01*
X134760Y205025D02*
Y215516D01*
X138304Y201481D02*
Y201481D01*
X87794Y216894D02*
X93717D01*
X120631Y222890D02*
X144118D01*
X145488Y221520D01*
X139696Y206770D02*
Y206770D01*
X137811Y208655D02*
X139696Y206770D01*
X137811Y208655D02*
Y215578D01*
X141453Y210592D02*
Y211405D01*
X141447Y211411D02*
X141453Y211405D01*
X141447Y211411D02*
Y213380D01*
X141681Y213614D01*
X141453Y210592D02*
X142480Y209565D01*
X145488Y214908D02*
Y221520D01*
Y214908D02*
X146655Y213741D01*
X142480Y209554D02*
Y209565D01*
X146655Y213730D02*
Y213741D01*
X120032Y223488D02*
X120631Y222890D01*
X148047Y215122D02*
Y224276D01*
X152008Y215185D02*
Y215197D01*
X151000Y216205D02*
X152008Y215197D01*
X151945Y215122D02*
X152008Y215185D01*
X175902Y194354D02*
X177809Y196262D01*
X176598Y188933D02*
Y190155D01*
X177809Y196724D02*
X178490Y197406D01*
X176295Y190459D02*
Y190614D01*
X176598Y188933D02*
X177181Y188350D01*
X177809Y196262D02*
Y196724D01*
X176295Y190459D02*
X176598Y190155D01*
X177181Y188350D02*
X178067D01*
X178490Y197406D02*
X178559D01*
X144307Y228016D02*
X148047Y224276D01*
X153202Y181333D02*
X153428Y181559D01*
X157988Y183761D02*
X158318Y183431D01*
X167340D01*
X169701Y185791D01*
X169996D02*
X170587D01*
X106397Y176638D02*
X108391Y178632D01*
X108477D01*
X99032Y176835D02*
X105823D01*
X108097Y179207D02*
X108874Y179984D01*
X105737Y176749D02*
X108049Y179060D01*
X105823Y176835D02*
X105960Y176971D01*
X108097Y179012D02*
Y179207D01*
X106397Y176552D02*
Y176638D01*
X169996Y185791D02*
X169996Y185791D01*
X169701Y185791D02*
X169996D01*
X172079Y196734D02*
X173287D01*
X173959Y197406D01*
X92543Y202925D02*
Y204992D01*
X92634Y205083D01*
X93717D01*
X87075Y211040D02*
X88992Y212957D01*
X80502Y194230D02*
X81020Y194748D01*
X76689Y194230D02*
X80502D01*
X99228Y172799D02*
X105035D01*
X98047Y173980D02*
X99228Y172799D01*
X128398Y228016D02*
X144307D01*
X123798Y224866D02*
Y228016D01*
X106315Y221618D02*
Y224791D01*
X115432Y223193D02*
Y226736D01*
X108374Y221709D02*
Y223874D01*
X111236Y226736D01*
X115432D01*
X108283Y221618D02*
X108374Y221709D01*
X173861Y201343D02*
X173910Y201293D01*
Y197455D02*
Y201293D01*
Y197455D02*
X173959Y197406D01*
X155856Y181559D02*
X157988Y183692D01*
Y183761D01*
X94081Y225063D02*
X98933D01*
X100319Y221709D02*
Y223677D01*
X98933Y225063D02*
X100319Y223677D01*
X92506Y226638D02*
X94081Y225063D01*
X100319Y221709D02*
X100409Y221618D01*
X102287Y221709D02*
Y227946D01*
X101922Y228311D02*
X102287Y227946D01*
Y221709D02*
X102378Y221618D01*
X92437Y226638D02*
X92506D01*
X96382Y222504D02*
X96473Y222413D01*
X92375Y222504D02*
X96382D01*
X96473Y221618D02*
Y222413D01*
X88992Y212957D02*
X93717D01*
X89484Y204378D02*
X92067Y206961D01*
X89484Y200591D02*
Y204378D01*
X88858Y199965D02*
X89484Y200591D01*
X83579Y199804D02*
X88697D01*
X93626Y206961D02*
X93717Y207051D01*
X92067Y206961D02*
X93626D01*
X83874Y200529D02*
X83960Y200444D01*
X21862Y250394D02*
X23228D01*
X21260Y250996D02*
X21862Y250394D01*
X21260Y250996D02*
Y253150D01*
X13965Y250394D02*
X14567Y250996D01*
Y253150D01*
X12992Y250394D02*
X13965D01*
X62882Y44949D02*
Y44942D01*
X65425Y42399D02*
X62882Y44942D01*
X65425Y42399D02*
Y42392D01*
X83118Y46152D02*
Y44763D01*
X81706Y43350D01*
X81427D01*
X81293Y43216D01*
X87709Y45753D02*
Y44086D01*
X84065Y40443D01*
X86315Y45465D02*
X84361Y43511D01*
X86315Y51748D02*
Y45465D01*
X84361Y43511D02*
X84361D01*
X81849Y41000D01*
X90244Y48289D02*
X87709Y45753D01*
X130500Y40185D02*
X129932D01*
X129480Y39732D01*
X77350Y55838D02*
Y52052D01*
X83266Y46228D02*
X83041D01*
X80805Y45524D02*
X79066Y43784D01*
X83041Y46361D02*
X77350Y52052D01*
X83041Y46361D02*
Y46228D01*
X83118Y46152D02*
X83041Y46228D01*
X112685Y41595D02*
X109544Y44736D01*
Y44841D02*
Y44736D01*
X112765Y11048D02*
X99771D01*
X116622Y14906D02*
X112765Y11048D01*
X99771D02*
X99139Y11681D01*
X63158Y20863D02*
X61180D01*
X63305Y20715D02*
X63158Y20863D01*
X61180D02*
X61012Y21032D01*
X67543Y51397D02*
X59949D01*
X59913Y51362D01*
X70157Y48783D02*
X67543Y51397D01*
X122921Y56760D02*
X122774Y56612D01*
X121297D01*
X118189Y53504D02*
Y53209D01*
X117902Y52921D01*
X121297Y56612D02*
X118189Y53504D01*
X135293Y22653D02*
X135143Y22803D01*
X135074Y22653D02*
X134582Y22161D01*
X135293Y22653D02*
X135074D01*
X135391D02*
X135293D01*
X135342Y22604D02*
X135293Y22653D01*
X135391D02*
X135342Y22604D01*
X112685Y41595D02*
Y37370D01*
X86315Y51748D02*
X85020Y53043D01*
X56191Y48295D02*
X50858Y42963D01*
X68208Y45176D02*
X65089Y48295D01*
X56191D01*
X69509Y58138D02*
X67081D01*
X69735Y60500D02*
Y58364D01*
X90244Y54791D02*
Y48289D01*
X93886Y51930D02*
X90244Y48289D01*
X93886Y51999D02*
Y51930D01*
X85020Y56653D02*
X84101D01*
X81976Y54529D01*
Y54460D01*
X86898Y58335D02*
X86413Y57850D01*
X86216D02*
X85020Y56653D01*
X86413Y57850D02*
X86216D01*
X85020Y56653D02*
Y53043D01*
X79066Y43784D02*
Y43784D01*
X88177Y34672D02*
X84633Y38216D01*
X88177Y34672D02*
Y24181D01*
X84633Y38216D02*
Y38216D01*
X135143Y22803D02*
X129220D01*
X102306Y16807D02*
X78819D01*
X77449Y18177D01*
X83241Y32926D02*
Y32926D01*
X85126Y31042D02*
X83241Y32926D01*
X85126Y31042D02*
Y24119D01*
X81484Y29105D02*
Y28292D01*
X81490Y28286D02*
X81484Y28292D01*
X81490Y28286D02*
Y26317D01*
X81256Y26083D01*
X81484Y29105D02*
X80458Y30131D01*
X77449Y24789D02*
Y18177D01*
Y24789D02*
X76282Y25956D01*
X80458Y30143D02*
Y30131D01*
X76282Y25967D02*
Y25956D01*
X102905Y16209D02*
X102306Y16807D01*
X74890Y24575D02*
Y15421D01*
X70929Y24511D02*
Y24500D01*
X71937Y23492D02*
X70929Y24500D01*
X70992Y24575D02*
X70929Y24511D01*
X47035Y45342D02*
X45128Y43435D01*
X46339Y50764D02*
Y49541D01*
X45128Y42972D02*
X44447Y42291D01*
X46642Y49238D02*
Y49083D01*
X46339Y50764D02*
X45756Y51346D01*
X45128Y43435D02*
Y42972D01*
X46642Y49238D02*
X46339Y49541D01*
X45756Y51346D02*
X44870D01*
X44447Y42291D02*
X44378D01*
X78630Y11681D02*
X74890Y15421D01*
X69735Y58364D02*
X69509Y58138D01*
X64949Y55936D02*
X64619Y56266D01*
X55597D01*
X53236Y53905D01*
X52941D02*
X52350D01*
X116540Y63059D02*
X114546Y61065D01*
X114460D01*
X123906Y62862D02*
X117114D01*
X114840Y60490D02*
X114063Y59713D01*
X117200Y62948D02*
X114888Y60637D01*
X117114Y62862D02*
X116977Y62726D01*
X114840Y60684D02*
Y60490D01*
X116540Y63145D02*
Y63059D01*
X52941Y53905D02*
X52941Y53905D01*
X53236Y53905D02*
X52941D01*
X50858Y42963D02*
X49650D01*
X48978Y42291D01*
X130394Y36772D02*
Y34705D01*
X130303Y34614D01*
X129220D01*
X135862Y28657D02*
X133945Y26740D01*
X142435Y45467D02*
X141917Y44949D01*
X146248Y45467D02*
X142435D01*
X123709Y66898D02*
X117902D01*
X124890Y65716D02*
X123709Y66898D01*
X94539Y11681D02*
X78630D01*
X99139Y14831D02*
Y11681D01*
X116622Y18079D02*
Y14906D01*
X107505Y16504D02*
Y12961D01*
X114563Y17988D02*
Y15823D01*
X111701Y12961D01*
X107505D01*
X114654Y18079D02*
X114563Y17988D01*
X49076Y38354D02*
X49027Y38403D01*
Y42242D02*
Y38403D01*
Y42242D02*
X48978Y42291D01*
X67081Y58138D02*
X64949Y56005D01*
Y55936D01*
X128856Y14634D02*
X124004D01*
X122618Y17988D02*
Y16020D01*
X124004Y14634D02*
X122618Y16020D01*
X130431Y13059D02*
X128856Y14634D01*
X122618Y17988D02*
X122528Y18079D01*
X120650Y17988D02*
Y11751D01*
X121015Y11386D02*
X120650Y11751D01*
Y17988D02*
X120559Y18079D01*
X130500Y13059D02*
X130431D01*
X126555Y17193D02*
X126465Y17284D01*
X130562Y17193D02*
X126555D01*
X126465Y18079D02*
Y17284D01*
X133945Y26740D02*
X129220D01*
X133453Y35319D02*
X130870Y32736D01*
X133453Y39105D02*
Y35319D01*
X134080Y39732D02*
X133453Y39105D01*
X139358Y39893D02*
X134240D01*
X129311Y32736D02*
X129220Y32646D01*
X130870Y32736D02*
X129311D01*
X139063Y39168D02*
X138978Y39253D01*
D12*
X213189Y218675D02*
D03*
Y221038D02*
D03*
Y223400D02*
D03*
Y225762D02*
D03*
X12106Y218085D02*
D03*
Y220447D02*
D03*
Y222809D02*
D03*
Y225171D02*
D03*
X205512Y188459D02*
D03*
Y186097D02*
D03*
Y183734D02*
D03*
Y181372D02*
D03*
X213189Y43971D02*
D03*
Y41608D02*
D03*
Y39246D02*
D03*
Y36884D02*
D03*
Y19561D02*
D03*
Y17199D02*
D03*
Y14837D02*
D03*
Y12474D02*
D03*
X9252Y14246D02*
D03*
Y11884D02*
D03*
Y9522D02*
D03*
Y7160D02*
D03*
Y32160D02*
D03*
Y29797D02*
D03*
Y27435D02*
D03*
Y25073D02*
D03*
X12106Y207160D02*
D03*
Y204797D02*
D03*
Y202435D02*
D03*
Y200073D02*
D03*
D13*
X219488Y214837D02*
D03*
Y229601D02*
D03*
X5807Y214246D02*
D03*
Y229010D02*
D03*
X211811Y192297D02*
D03*
Y177534D02*
D03*
X219488Y47809D02*
D03*
Y33045D02*
D03*
Y23400D02*
D03*
Y8636D02*
D03*
X2953Y18085D02*
D03*
Y3321D02*
D03*
Y35998D02*
D03*
Y21234D02*
D03*
X5807Y210998D02*
D03*
Y196234D02*
D03*
D14*
X209746Y228630D02*
D03*
Y224030D02*
D03*
X61221Y115070D02*
D03*
Y110470D02*
D03*
X12795Y32921D02*
D03*
Y28321D02*
D03*
Y20473D02*
D03*
Y25073D02*
D03*
X2854Y63692D02*
D03*
Y59092D02*
D03*
X2953Y81212D02*
D03*
Y76612D02*
D03*
X2854Y72452D02*
D03*
Y67852D02*
D03*
X2264Y109289D02*
D03*
Y113889D02*
D03*
X10630Y167852D02*
D03*
Y172452D02*
D03*
X102559Y92852D02*
D03*
Y97452D02*
D03*
X99508Y92852D02*
D03*
Y97452D02*
D03*
X96457Y92852D02*
D03*
Y97452D02*
D03*
X16634Y196690D02*
D03*
Y201290D02*
D03*
X64567Y109781D02*
D03*
Y114381D02*
D03*
X21457Y41448D02*
D03*
Y36848D02*
D03*
X74606Y113298D02*
D03*
Y108698D02*
D03*
X77953Y110765D02*
D03*
Y115365D02*
D03*
X82087Y139013D02*
D03*
Y143613D02*
D03*
X127165Y121592D02*
D03*
Y126192D02*
D03*
X130315Y121592D02*
D03*
Y126192D02*
D03*
X135925Y125736D02*
D03*
Y121136D02*
D03*
X139075D02*
D03*
Y125736D02*
D03*
X148130Y102005D02*
D03*
Y106605D02*
D03*
X144783D02*
D03*
Y102005D02*
D03*
X141437Y102104D02*
D03*
Y106704D02*
D03*
X138091D02*
D03*
Y102104D02*
D03*
X134744D02*
D03*
Y106704D02*
D03*
X131496D02*
D03*
Y102104D02*
D03*
X128150Y106605D02*
D03*
Y102005D02*
D03*
X215846Y78160D02*
D03*
Y73560D02*
D03*
X219882Y78160D02*
D03*
Y73560D02*
D03*
X207185Y90562D02*
D03*
Y85962D02*
D03*
Y78052D02*
D03*
Y82652D02*
D03*
X203150Y80253D02*
D03*
Y84853D02*
D03*
X190059Y92458D02*
D03*
Y97058D02*
D03*
X204216Y167560D02*
D03*
Y162960D02*
D03*
X206621Y224012D02*
D03*
Y228612D02*
D03*
X50886Y121530D02*
D03*
Y126130D02*
D03*
X47539D02*
D03*
Y121530D02*
D03*
X40846Y126093D02*
D03*
Y121493D02*
D03*
X44193Y121530D02*
D03*
Y126130D02*
D03*
X60925D02*
D03*
Y121530D02*
D03*
X64272D02*
D03*
Y126130D02*
D03*
X13189Y7553D02*
D03*
Y2953D02*
D03*
Y10864D02*
D03*
Y15463D02*
D03*
X57579Y126130D02*
D03*
Y121530D02*
D03*
X54232D02*
D03*
Y126130D02*
D03*
X129051Y187698D02*
D03*
Y183098D02*
D03*
X140961Y185237D02*
D03*
Y180637D02*
D03*
X134661Y215578D02*
D03*
Y220178D02*
D03*
X167195Y201461D02*
D03*
Y196861D02*
D03*
X179150Y177291D02*
D03*
Y181891D02*
D03*
X175902Y177291D02*
D03*
Y181891D02*
D03*
X157988Y179161D02*
D03*
Y183761D02*
D03*
X137811Y215578D02*
D03*
Y220178D02*
D03*
X64681Y198452D02*
D03*
Y203052D02*
D03*
X83579Y199804D02*
D03*
Y195204D02*
D03*
X145587Y183859D02*
D03*
Y179259D02*
D03*
X178165Y218728D02*
D03*
Y223328D02*
D03*
X93886Y51999D02*
D03*
Y56599D02*
D03*
X81976Y54460D02*
D03*
Y59060D02*
D03*
X88276Y24119D02*
D03*
Y19519D02*
D03*
X55742Y38235D02*
D03*
Y42835D02*
D03*
X43787Y62406D02*
D03*
Y57806D02*
D03*
X47035Y62406D02*
D03*
Y57806D02*
D03*
X64949Y60536D02*
D03*
Y55936D02*
D03*
X85126Y24119D02*
D03*
Y19519D02*
D03*
X158256Y41245D02*
D03*
Y36645D02*
D03*
X139358Y39893D02*
D03*
Y44493D02*
D03*
X77350Y55838D02*
D03*
Y60438D02*
D03*
X44772Y20969D02*
D03*
Y16369D02*
D03*
D15*
X22918Y222891D02*
D03*
X18317D02*
D03*
X16401Y182553D02*
D03*
X21001D02*
D03*
X28746Y182617D02*
D03*
X24146D02*
D03*
X206165Y171234D02*
D03*
X210765D02*
D03*
X14898Y100171D02*
D03*
X10298D02*
D03*
X2264Y101845D02*
D03*
X6864D02*
D03*
X6828Y105880D02*
D03*
X2228D02*
D03*
X27428Y222744D02*
D03*
X32028D02*
D03*
X2264Y172317D02*
D03*
X6864D02*
D03*
X6729Y145447D02*
D03*
X2129D02*
D03*
X2093Y148793D02*
D03*
X6693D02*
D03*
X96617Y146923D02*
D03*
X101217D02*
D03*
X109091D02*
D03*
X104491D02*
D03*
X109817Y92790D02*
D03*
X105217D02*
D03*
X25036Y196628D02*
D03*
X20436D02*
D03*
X56916Y132652D02*
D03*
X61516D02*
D03*
X69032D02*
D03*
X64432D02*
D03*
X17556Y36786D02*
D03*
X12956D02*
D03*
X112034Y145939D02*
D03*
X116634D02*
D03*
X144032Y129305D02*
D03*
X139432D02*
D03*
X125528Y101943D02*
D03*
X120928D02*
D03*
X125062Y92790D02*
D03*
X129662D02*
D03*
X214924Y57652D02*
D03*
X219524D02*
D03*
Y53616D02*
D03*
X214924D02*
D03*
X151637Y108341D02*
D03*
X156237D02*
D03*
Y111687D02*
D03*
X151637D02*
D03*
X210765Y174286D02*
D03*
X206165D02*
D03*
X156237Y96136D02*
D03*
X151637D02*
D03*
X151735Y92790D02*
D03*
X156335D02*
D03*
X215846Y29797D02*
D03*
X220446D02*
D03*
X215846Y26648D02*
D03*
X220446D02*
D03*
X215810Y5388D02*
D03*
X220410D02*
D03*
X215810Y2337D02*
D03*
X220410D02*
D03*
X208304Y73892D02*
D03*
X203704D02*
D03*
X202523Y129010D02*
D03*
X207123D02*
D03*
X207636Y165492D02*
D03*
X212236D02*
D03*
X220607Y164345D02*
D03*
X216007D02*
D03*
X220607Y168380D02*
D03*
X216007D02*
D03*
X216007Y172415D02*
D03*
X220607D02*
D03*
X199249Y198597D02*
D03*
X194649D02*
D03*
X201709Y194167D02*
D03*
X197109D02*
D03*
X18172Y90919D02*
D03*
X22772D02*
D03*
X18074Y94955D02*
D03*
X22674D02*
D03*
X2191Y96825D02*
D03*
X6791D02*
D03*
X2191Y93577D02*
D03*
X6791D02*
D03*
X161568Y227917D02*
D03*
X156968D02*
D03*
X155232Y157543D02*
D03*
X159832D02*
D03*
X167105Y179591D02*
D03*
X171705D02*
D03*
X145820Y170831D02*
D03*
X141220D02*
D03*
X178559Y197406D02*
D03*
X173959D02*
D03*
X178461Y201343D02*
D03*
X173861D02*
D03*
X177513Y227917D02*
D03*
X172913D02*
D03*
X164940D02*
D03*
X169540D02*
D03*
X148897Y182248D02*
D03*
X153497D02*
D03*
X149192Y179197D02*
D03*
X153792D02*
D03*
X128398Y224965D02*
D03*
X123798D02*
D03*
Y228016D02*
D03*
X128398D02*
D03*
X120032Y226539D02*
D03*
X115432D02*
D03*
Y223488D02*
D03*
X120032D02*
D03*
X97322Y228311D02*
D03*
X101922D02*
D03*
X87837Y226638D02*
D03*
X92437D02*
D03*
X87775Y222504D02*
D03*
X92375D02*
D03*
X93458Y199965D02*
D03*
X88858D02*
D03*
X176135Y210595D02*
D03*
X171535D02*
D03*
X77117Y68866D02*
D03*
X81717D02*
D03*
X44378Y42291D02*
D03*
X48978D02*
D03*
X44476Y38354D02*
D03*
X49076D02*
D03*
X57997Y11779D02*
D03*
X53397D02*
D03*
X73745Y60500D02*
D03*
X69145D02*
D03*
X94539Y14732D02*
D03*
X99139D02*
D03*
X102905Y13158D02*
D03*
X107505D02*
D03*
X125615Y11386D02*
D03*
X121015D02*
D03*
X135100Y13059D02*
D03*
X130500D02*
D03*
X135162Y17193D02*
D03*
X130562D02*
D03*
X46802Y29102D02*
D03*
X51402D02*
D03*
D16*
X214665Y109817D02*
D03*
D17*
X8169Y191608D02*
D03*
X2657D02*
D03*
X131595Y130093D02*
D03*
X126083D02*
D03*
X135843Y184906D02*
D03*
Y180968D02*
D03*
X132693D02*
D03*
Y184906D02*
D03*
X87094Y54791D02*
D03*
Y58728D02*
D03*
X90244D02*
D03*
Y54791D02*
D03*
D18*
X30610Y191707D02*
D03*
X17028D02*
D03*
X30610Y187770D02*
D03*
X17028D02*
D03*
X218406Y159522D02*
D03*
X204823D02*
D03*
X218406Y155585D02*
D03*
X204823D02*
D03*
D19*
X16634Y157455D02*
D03*
X30413Y174187D02*
D03*
Y157455D02*
D03*
D20*
X15059Y40821D02*
D03*
X3248D02*
D03*
Y54797D02*
D03*
X15059D02*
D03*
D21*
X191169Y166886D02*
D03*
Y161768D02*
D03*
X198649Y164327D02*
D03*
X170587Y190909D02*
D03*
Y185791D02*
D03*
X178067Y188350D02*
D03*
X52350Y48787D02*
D03*
Y53905D02*
D03*
X44870Y51346D02*
D03*
D22*
X197394Y158636D02*
D03*
X194929D02*
D03*
Y155782D02*
D03*
X197394D02*
D03*
D23*
X185433Y115577D02*
D03*
X173622D02*
D03*
D24*
X179527Y115230D02*
D03*
D25*
Y106175D02*
D03*
D26*
X89764Y144364D02*
D03*
X85827D02*
D03*
Y141215D02*
D03*
X89764D02*
D03*
X135827Y117593D02*
D03*
Y112081D02*
D03*
D27*
X14617Y78813D02*
D03*
X8217D02*
D03*
X8268Y61490D02*
D03*
X14668D02*
D03*
X14519Y70250D02*
D03*
X8119D02*
D03*
X219834Y83144D02*
D03*
X213434D02*
D03*
D28*
X8465Y87376D02*
D03*
D29*
X14173Y90329D02*
D03*
Y88360D02*
D03*
Y86392D02*
D03*
Y84423D02*
D03*
X2756D02*
D03*
Y86392D02*
D03*
Y88360D02*
D03*
Y90329D02*
D03*
X113008Y218862D02*
D03*
X113008Y216894D02*
D03*
Y214925D02*
D03*
Y212957D02*
D03*
Y210988D02*
D03*
Y209020D02*
D03*
Y207051D02*
D03*
Y205083D02*
D03*
X93717Y205083D02*
D03*
X93717Y207051D02*
D03*
Y209020D02*
D03*
Y210988D02*
D03*
Y212957D02*
D03*
Y214925D02*
D03*
Y216894D02*
D03*
Y218862D02*
D03*
X109929Y20835D02*
D03*
X109929Y22803D02*
D03*
Y24772D02*
D03*
Y26740D02*
D03*
Y28709D02*
D03*
Y30677D02*
D03*
Y32646D02*
D03*
Y34614D02*
D03*
X129220Y34614D02*
D03*
X129220Y32646D02*
D03*
Y30677D02*
D03*
Y28709D02*
D03*
Y26740D02*
D03*
Y24772D02*
D03*
Y22803D02*
D03*
Y20835D02*
D03*
D30*
X4019Y119456D02*
D03*
X7987Y115489D02*
D03*
X11954Y111522D02*
D03*
X23924Y139360D02*
D03*
X27891Y135394D02*
D03*
X31858Y131426D02*
D03*
D31*
X6664Y136716D02*
D03*
X29214Y114166D02*
D03*
D32*
X10531Y177337D02*
D03*
X3445D02*
D03*
X6988Y186786D02*
D03*
D33*
X102756Y122711D02*
D03*
D34*
X104844Y142615D02*
D03*
X105957Y141502D02*
D03*
X107071Y140388D02*
D03*
X108185Y139275D02*
D03*
X109298Y138161D02*
D03*
X110412Y137048D02*
D03*
X111525Y135934D02*
D03*
X112639Y134821D02*
D03*
X113752Y133707D02*
D03*
X122661Y124799D02*
D03*
X100668Y102806D02*
D03*
X99554Y103919D02*
D03*
X98441Y105033D02*
D03*
X97327Y106147D02*
D03*
X96214Y107260D02*
D03*
X95100Y108374D02*
D03*
X93987Y109487D02*
D03*
X92873Y110601D02*
D03*
X91760Y111714D02*
D03*
X90646Y112828D02*
D03*
X89532Y113942D02*
D03*
X88419Y115055D02*
D03*
X87305Y116169D02*
D03*
X86192Y117282D02*
D03*
X85078Y118396D02*
D03*
X83965Y119509D02*
D03*
X82851Y120623D02*
D03*
X114866Y132594D02*
D03*
X115979Y131480D02*
D03*
X117093Y130366D02*
D03*
X118206Y129253D02*
D03*
X120434Y127026D02*
D03*
X119320Y128139D02*
D03*
X121547Y125912D02*
D03*
D35*
X122661Y120623D02*
D03*
X121547Y119509D02*
D03*
X120434Y118396D02*
D03*
X119320Y117282D02*
D03*
X118206Y116169D02*
D03*
X115979Y113942D02*
D03*
X114866Y112828D02*
D03*
X113752Y111714D02*
D03*
X109298Y107260D02*
D03*
X108185Y106147D02*
D03*
X107071Y105033D02*
D03*
X105957Y103919D02*
D03*
X104844Y102806D02*
D03*
X82851Y124799D02*
D03*
X83965Y125912D02*
D03*
X85078Y127026D02*
D03*
X86192Y128139D02*
D03*
X87305Y129253D02*
D03*
X88419Y130366D02*
D03*
X89532Y131480D02*
D03*
X90646Y132594D02*
D03*
X91760Y133707D02*
D03*
X92873Y134821D02*
D03*
X93987Y135934D02*
D03*
X95100Y137048D02*
D03*
X96214Y138161D02*
D03*
X97327Y139275D02*
D03*
X99554Y141502D02*
D03*
X100668Y142615D02*
D03*
X117093Y115055D02*
D03*
X98441Y140388D02*
D03*
X111525Y109487D02*
D03*
X110412Y108374D02*
D03*
X112639Y110601D02*
D03*
D36*
X63484Y142396D02*
D03*
X78248D02*
D03*
X60532Y98006D02*
D03*
X75295D02*
D03*
X93209D02*
D03*
X78445D02*
D03*
X140453Y140230D02*
D03*
X125689D02*
D03*
X158268D02*
D03*
X143504D02*
D03*
D37*
X67323Y136097D02*
D03*
X69685D02*
D03*
X72047D02*
D03*
X74409D02*
D03*
X64370Y104305D02*
D03*
X66732D02*
D03*
X69095D02*
D03*
X71457D02*
D03*
X89370D02*
D03*
X87008D02*
D03*
X84646D02*
D03*
X82284D02*
D03*
X136614Y133931D02*
D03*
X134252D02*
D03*
X131890D02*
D03*
X129527D02*
D03*
X154429D02*
D03*
X152067D02*
D03*
X149705D02*
D03*
X147343D02*
D03*
D38*
X149409Y119660D02*
D03*
X167831Y219945D02*
D03*
X55106Y19752D02*
D03*
D39*
X155315Y123498D02*
D03*
Y120939D02*
D03*
Y118380D02*
D03*
Y115821D02*
D03*
X143504D02*
D03*
Y118380D02*
D03*
Y120939D02*
D03*
Y123498D02*
D03*
X161925Y223783D02*
D03*
Y221224D02*
D03*
Y218665D02*
D03*
Y216106D02*
D03*
X173736D02*
D03*
Y218665D02*
D03*
Y221224D02*
D03*
Y223783D02*
D03*
X61012Y15913D02*
D03*
Y18472D02*
D03*
Y21032D02*
D03*
Y23591D02*
D03*
X49201D02*
D03*
Y21032D02*
D03*
Y18472D02*
D03*
Y15913D02*
D03*
D40*
X168662Y108537D02*
D03*
X161062D02*
D03*
X168662Y115034D02*
D03*
X161062D02*
D03*
X206064Y135112D02*
D03*
X198464D02*
D03*
X73501Y180476D02*
D03*
X65901D02*
D03*
X72320Y213055D02*
D03*
X64720D02*
D03*
X72320Y219748D02*
D03*
X64720D02*
D03*
X149436Y59220D02*
D03*
X157036D02*
D03*
X150617Y26642D02*
D03*
X158217D02*
D03*
X150617Y19949D02*
D03*
X158217D02*
D03*
D41*
X38976Y113459D02*
D03*
X46850D02*
D03*
X50787D02*
D03*
X42913D02*
D03*
X49311Y134915D02*
D03*
X41437D02*
D03*
X45374D02*
D03*
X53248D02*
D03*
X175689Y126451D02*
D03*
X167815D02*
D03*
X171752D02*
D03*
X179626D02*
D03*
D42*
X56299Y103616D02*
D03*
X33465D02*
D03*
X58760Y144758D02*
D03*
X35925D02*
D03*
X185138Y136293D02*
D03*
X162303D02*
D03*
D43*
X220079Y63260D02*
D03*
Y69660D02*
D03*
X215354D02*
D03*
Y63260D02*
D03*
D44*
X194390Y36293D02*
D03*
X205906D02*
D03*
D45*
X203642Y88853D02*
D03*
X198917D02*
D03*
X189764D02*
D03*
X194488D02*
D03*
X141059Y174965D02*
D03*
X145783D02*
D03*
X151886Y157642D02*
D03*
X147161D02*
D03*
X81878Y64732D02*
D03*
X77153D02*
D03*
X71051Y82055D02*
D03*
X75776D02*
D03*
D46*
X190748Y73498D02*
D03*
X193307D02*
D03*
X195866D02*
D03*
X198425D02*
D03*
X202756Y104108D02*
D03*
X200197D02*
D03*
X197638D02*
D03*
X195079D02*
D03*
X112713Y175457D02*
D03*
X110153D02*
D03*
X107595D02*
D03*
X105035D02*
D03*
X158382Y172898D02*
D03*
X155823D02*
D03*
X153264D02*
D03*
X150705D02*
D03*
X105035Y161480D02*
D03*
X107595D02*
D03*
X110153D02*
D03*
X112713D02*
D03*
X94602Y161579D02*
D03*
X92043D02*
D03*
X89484D02*
D03*
X86925D02*
D03*
X94602Y175457D02*
D03*
X92043D02*
D03*
X89484D02*
D03*
X86925D02*
D03*
X110224Y64240D02*
D03*
X112784D02*
D03*
X115342D02*
D03*
X117902D02*
D03*
X64555Y66799D02*
D03*
X67114D02*
D03*
X69673D02*
D03*
X72232D02*
D03*
X117902Y78216D02*
D03*
X115342D02*
D03*
X112784D02*
D03*
X110224D02*
D03*
X128335Y78118D02*
D03*
X130894D02*
D03*
X133453D02*
D03*
X136012D02*
D03*
X128335Y64240D02*
D03*
X130894D02*
D03*
X133453D02*
D03*
X136012D02*
D03*
D47*
X190748Y84817D02*
D03*
X193307D02*
D03*
X195866D02*
D03*
X198425D02*
D03*
X202756Y92790D02*
D03*
X200197D02*
D03*
X197638D02*
D03*
X195079D02*
D03*
X112713Y186776D02*
D03*
X110153D02*
D03*
X107595D02*
D03*
X105035D02*
D03*
X158382Y161579D02*
D03*
X155823D02*
D03*
X153264D02*
D03*
X150705D02*
D03*
X105035Y172799D02*
D03*
X107595D02*
D03*
X110153D02*
D03*
X112713D02*
D03*
X94602Y172898D02*
D03*
X92043D02*
D03*
X89484D02*
D03*
X86925D02*
D03*
X94602Y186776D02*
D03*
X92043D02*
D03*
X89484D02*
D03*
X86925D02*
D03*
X110224Y52921D02*
D03*
X112784D02*
D03*
X115342D02*
D03*
X117902D02*
D03*
X64555Y78118D02*
D03*
X67114D02*
D03*
X69673D02*
D03*
X72232D02*
D03*
X117902Y66898D02*
D03*
X115342D02*
D03*
X112784D02*
D03*
X110224D02*
D03*
X128335Y66799D02*
D03*
X130894D02*
D03*
X133453D02*
D03*
X136012D02*
D03*
X128335Y52921D02*
D03*
X130894D02*
D03*
X133453D02*
D03*
X136012D02*
D03*
D48*
X194587Y78026D02*
D03*
X198917Y99581D02*
D03*
X108874Y179984D02*
D03*
X154543Y168370D02*
D03*
X108874Y166008D02*
D03*
X90764Y166106D02*
D03*
X90764Y179984D02*
D03*
X114063Y59713D02*
D03*
X68394Y71327D02*
D03*
X114063Y73689D02*
D03*
X132173Y73590D02*
D03*
X132173Y59713D02*
D03*
D49*
X216142Y101451D02*
D03*
Y89640D02*
D03*
X123539Y166008D02*
D03*
Y177819D02*
D03*
D50*
X204823Y109817D02*
D03*
X194980D02*
D03*
X204823Y122415D02*
D03*
X194980D02*
D03*
D51*
X214665Y122415D02*
D03*
D52*
X211323Y129207D02*
D03*
Y132947D02*
D03*
Y136687D02*
D03*
X219976D02*
D03*
Y132947D02*
D03*
Y129207D02*
D03*
X68917Y198882D02*
D03*
Y202622D02*
D03*
Y206362D02*
D03*
X77571D02*
D03*
Y202622D02*
D03*
Y198882D02*
D03*
X154020Y40815D02*
D03*
Y37075D02*
D03*
Y33335D02*
D03*
X145366D02*
D03*
Y37075D02*
D03*
Y40815D02*
D03*
D53*
X219094Y150723D02*
D03*
Y143123D02*
D03*
X213090Y150723D02*
D03*
Y143123D02*
D03*
X205217D02*
D03*
Y150723D02*
D03*
X199213Y143123D02*
D03*
Y150723D02*
D03*
X128953Y211913D02*
D03*
Y219513D02*
D03*
X78155Y226871D02*
D03*
Y219271D02*
D03*
X93984Y27784D02*
D03*
Y20184D02*
D03*
X144782Y12826D02*
D03*
Y20426D02*
D03*
D54*
X209842Y223933D02*
X210178Y223597D01*
X206947Y223686D02*
X209746D01*
X215810Y2238D02*
Y10145D01*
X11486Y9325D02*
X13189Y7622D01*
X210178Y223597D02*
X212992D01*
X209842Y223695D02*
Y223933D01*
X212992Y223597D02*
X213189Y223400D01*
X209746Y224030D02*
X209842Y223933D01*
X206621Y224012D02*
X206947Y223686D01*
X26769Y223335D02*
X27359Y222744D01*
X26769Y223335D02*
Y224058D01*
X20625Y225595D02*
X25232D01*
X26769Y224058D01*
X27359Y222744D02*
X27428D01*
X18977Y223482D02*
Y223947D01*
X18386Y222891D02*
X18977Y223482D01*
Y223947D02*
X20625Y225595D01*
X18317Y222891D02*
X18386D01*
X15804Y220447D02*
X18249Y222891D01*
X12106Y220447D02*
X15804D01*
X18249Y222891D02*
X18317D01*
X12992Y175959D02*
X30413Y158537D01*
X11319Y175959D02*
X12992D01*
X10531Y176746D02*
X11319Y175959D01*
X10531Y176746D02*
Y177337D01*
X30413Y157455D02*
Y158537D01*
X20943Y182495D02*
X21033Y182585D01*
X20683Y182495D02*
X20943D01*
X21033Y182585D02*
X24114D01*
X14182Y184814D02*
X18671D01*
X20932Y182553D01*
X12303Y206963D02*
X13301D01*
X16043Y204221D01*
Y201881D02*
X16634Y201290D01*
X12106Y207160D02*
X12303Y206963D01*
X16043Y201881D02*
Y204221D01*
X12333Y186663D02*
Y191520D01*
X9382Y194471D02*
Y201546D01*
Y194471D02*
X12333Y191520D01*
Y186663D02*
X14182Y184814D01*
X9382Y201546D02*
X10074Y202238D01*
X11909D01*
X12106Y202435D01*
X24114Y182585D02*
X24146Y182617D01*
X9887Y177982D02*
Y189694D01*
Y177982D02*
X10531Y177337D01*
X8169Y191411D02*
X9887Y189694D01*
X215846Y29797D02*
Y34423D01*
Y26648D02*
Y29797D01*
X140551Y119660D02*
X141732Y118479D01*
X10630Y27238D02*
X12136Y25732D01*
X8169Y191411D02*
Y191608D01*
X6931Y172384D02*
X10563D01*
X6864Y172317D02*
X6931Y172384D01*
X10563D02*
X10630Y172452D01*
X3445Y176746D02*
X6204Y173987D01*
X3445Y176746D02*
Y177337D01*
X6204Y172908D02*
Y173987D01*
X216007Y172415D02*
X216007Y172415D01*
X216007Y168380D02*
Y172415D01*
Y164345D02*
Y168380D01*
X214554Y162960D02*
X215938Y164345D01*
X204216Y162960D02*
X214554D01*
X215938Y164345D02*
X216007D01*
X203092Y161768D02*
X204216Y162891D01*
X191169Y161768D02*
X203092D01*
X204216Y162891D02*
Y162960D01*
X196949Y218675D02*
X213189D01*
X194980Y216707D02*
X196949Y218675D01*
X199147Y84325D02*
X203150Y80322D01*
X198425Y84522D02*
X198622Y84325D01*
X203150Y80253D02*
Y80322D01*
X198622Y84325D02*
X199147D01*
X198425Y84522D02*
Y84817D01*
X215945Y29699D02*
X216043D01*
X207185Y82652D02*
Y85962D01*
X135925Y121136D02*
X139075D01*
X67274Y136146D02*
Y141855D01*
X67224Y141904D02*
X67274Y141855D01*
Y136146D02*
X67323Y136097D01*
X69685D01*
X140241Y119477D02*
Y119901D01*
Y119477D02*
X140354Y119364D01*
X139075Y121067D02*
X140241Y119901D01*
X141732Y118479D02*
X143405D01*
X139075Y121067D02*
Y121136D01*
X125264Y92588D02*
X126626D01*
X126739Y92475D01*
X125062Y92790D02*
X125264Y92588D01*
X18123Y90969D02*
Y94906D01*
X18074Y94955D02*
X18123Y94906D01*
Y90969D02*
X18172Y90919D01*
X2228Y105880D02*
X2246Y105862D01*
X218298Y36875D02*
Y39233D01*
X215846Y34423D02*
X218298Y36875D01*
X148721Y136986D02*
X150144Y138410D01*
Y142410D01*
X148721Y136778D02*
Y136986D01*
X218120Y39411D02*
X218298Y39233D01*
X218120Y39411D02*
Y39518D01*
X216227Y41412D02*
X218120Y39518D01*
X213386Y41412D02*
X216227D01*
X213189Y41608D02*
X213386Y41412D01*
X219080Y176761D02*
Y179418D01*
Y176761D02*
X219193Y176648D01*
X204891Y193607D02*
X219080Y179418D01*
X205512Y186097D02*
X212303D01*
X201709Y194167D02*
X202270Y193607D01*
X204891D01*
X201579Y194298D02*
X201709Y194167D01*
X13189Y7553D02*
Y7622D01*
X202756Y92494D02*
Y92790D01*
Y92888D01*
X131742Y130240D02*
Y133784D01*
X131890Y133931D01*
X131595Y130093D02*
X131742Y130240D01*
X215810Y10145D02*
X217150Y11485D01*
X213386Y17002D02*
X215800D01*
X217150Y11485D02*
Y15652D01*
X215800Y17002D02*
X217150Y15652D01*
X143405Y118479D02*
X143504Y118380D01*
X151686Y92839D02*
Y96087D01*
X151637Y96136D02*
X151686Y96087D01*
Y92839D02*
X151735Y92790D01*
X9449Y9325D02*
X11486D01*
X9252Y9522D02*
X9449Y9325D01*
X9252Y9522D02*
X11916D01*
X13189Y10795D01*
X12205Y25732D02*
X12795Y25142D01*
X9252Y27435D02*
X9449Y27238D01*
X10630D01*
X12136Y25732D02*
X12205D01*
X12795Y25073D02*
Y25142D01*
X9449Y27632D02*
X10975D01*
X11043Y27701D01*
X12205D01*
X9252Y27435D02*
X9449Y27632D01*
X201579Y194298D02*
Y196336D01*
X199318Y198597D02*
X201579Y196336D01*
X199249Y198597D02*
X199318D01*
X213189Y17199D02*
X213386Y17002D01*
X6135Y63692D02*
X8268Y61559D01*
Y61490D02*
Y61559D01*
X2854Y63692D02*
X6135D01*
X8119Y70250D02*
Y70319D01*
X5986Y72452D02*
X8119Y70319D01*
X2854Y72452D02*
X5986D01*
X2953Y81212D02*
X5887D01*
X8217Y78813D02*
Y78882D01*
X5887Y81212D02*
X8217Y78882D01*
X17582Y90329D02*
X18172Y90919D01*
X14173Y90329D02*
X17582D01*
X9843Y93577D02*
X13091Y90329D01*
X6791Y93577D02*
X9843D01*
X13091Y90329D02*
X14173D01*
X18005Y94955D02*
X18074D01*
X6791Y93577D02*
Y96825D01*
X2246Y101863D02*
Y105862D01*
Y105898D02*
Y109271D01*
X2264Y109289D01*
X2228Y105880D02*
X2246Y105898D01*
X190748Y84817D02*
X190748Y84817D01*
X190354Y88009D02*
X190748Y87616D01*
X189961Y88853D02*
X190354Y88459D01*
X190748Y84817D02*
Y87616D01*
X190354Y88009D02*
Y88459D01*
X189764Y88853D02*
X189961D01*
X189911Y89000D02*
Y92310D01*
X190059Y92458D01*
X189764Y88853D02*
X189911Y89000D01*
X204035Y89246D02*
X205938D01*
X207185Y90493D02*
Y90562D01*
X203642Y88853D02*
X204035Y89246D01*
X205938D02*
X207185Y90493D01*
X203396Y85099D02*
Y88606D01*
X203642Y88853D01*
X203150Y84853D02*
X203396Y85099D01*
X202756Y92494D02*
X203642Y91608D01*
Y88853D02*
Y91608D01*
X113810Y199182D02*
X114391D01*
X115913Y200704D02*
X115913D01*
X113697Y199069D02*
X113810Y199182D01*
X114391D02*
X115913Y200704D01*
X115913D02*
X116748Y201539D01*
X99499Y194059D02*
X102378Y196939D01*
X97004Y197248D02*
X98441Y198685D01*
X84970Y189840D02*
X90803Y195673D01*
X89720Y197248D02*
X97004D01*
X87095Y189603D02*
X91551Y194059D01*
X90803Y195673D02*
X98283D01*
X89899Y181007D02*
X91376D01*
X83185Y190713D02*
X89720Y197248D01*
X91551Y194059D02*
X99499D01*
X87950Y183378D02*
X90110Y181218D01*
X98283Y195673D02*
X100409Y197799D01*
X161568Y227917D02*
X161602Y227952D01*
X161683D01*
X161568Y227917D02*
X164940D01*
X165039D01*
X153337Y213869D02*
X155144Y215677D01*
X153337Y213730D02*
Y213869D01*
X155144Y215677D02*
Y215828D01*
X163451Y179175D02*
X163465Y179190D01*
X158003Y179175D02*
X163451D01*
X157988Y179161D02*
X158003Y179175D01*
X174080Y180000D02*
X175902Y181822D01*
X172115Y180000D02*
X174080D01*
X171705Y179591D02*
X172115Y180000D01*
X175902Y181891D02*
X179150D01*
X116748Y201539D02*
Y205083D01*
X167037Y179591D02*
X167105D01*
X166446Y178931D02*
Y179000D01*
X167037Y179591D01*
X151404Y176926D02*
X164441D01*
X166446Y178931D01*
X163524Y196861D02*
X167195D01*
X160296Y200089D02*
X163524Y196861D01*
X141879Y170171D02*
Y170240D01*
X142732Y166500D02*
Y169318D01*
X141879Y170171D02*
X142732Y169318D01*
X141289Y170831D02*
X141879Y170240D01*
X141220Y170831D02*
X141289D01*
X142732Y166500D02*
X142929Y166303D01*
X141139Y170911D02*
X141220Y170831D01*
X142929Y166303D02*
X143224D01*
X141650Y175358D02*
Y175782D01*
X142800Y176933D02*
X151397D01*
X141650Y175782D02*
X142800Y176933D01*
X141256Y174965D02*
X141650Y175358D01*
X166904Y210595D02*
X171535D01*
X166650Y210849D02*
Y212465D01*
Y210849D02*
X166904Y210595D01*
X161688Y205379D02*
X166904Y210595D01*
X173835Y221323D02*
X176230D01*
X178165Y223259D02*
Y223328D01*
X173736Y221224D02*
X173835Y221323D01*
X176230D02*
X178165Y223259D01*
X173011Y223783D02*
X173736D01*
X172913Y223882D02*
Y227917D01*
Y223882D02*
X173011Y223783D01*
X151397Y176933D02*
X151404Y176926D01*
X146571Y158035D02*
X146965Y157642D01*
X145820Y158984D02*
X146571Y158232D01*
Y158035D02*
Y158232D01*
X145820Y158984D02*
Y170831D01*
X146965Y157642D02*
X147161D01*
X145802Y170849D02*
Y174946D01*
X145783Y174965D02*
X145802Y174946D01*
Y170849D02*
X145820Y170831D01*
X158185Y160427D02*
Y161382D01*
X158382Y161579D01*
X155232Y157543D02*
X155301D01*
X158185Y160427D01*
X151935Y157592D02*
X155183D01*
X151886Y157642D02*
X151935Y157592D01*
X155183D02*
X155232Y157543D01*
X141139Y170911D02*
Y174884D01*
X141059Y174965D02*
X141139Y174884D01*
X175902Y181822D02*
Y181891D01*
X78155Y219271D02*
X79704Y220820D01*
X81951D02*
X87178Y226047D01*
X83801Y222504D02*
X87706D01*
X87261Y226131D02*
X87768Y226638D01*
X79704Y220820D02*
X81951D01*
X73154Y211654D02*
Y212220D01*
Y211654D02*
X73979Y210829D01*
X84126D01*
X88148Y206807D01*
X113008Y205083D02*
X113529D01*
X113915Y204697D01*
X102378Y196939D02*
Y202327D01*
X90978Y180083D02*
X91938Y181042D01*
X86532Y183331D02*
X87566D01*
X84970Y184892D02*
X86532Y183331D01*
X90961Y180083D02*
X90978D01*
X84970Y184892D02*
Y189840D01*
X87566Y183331D02*
X87824Y183073D01*
X90073Y180971D02*
X90961Y180083D01*
X87837Y226638D02*
X87906D01*
X87768D02*
X87837D01*
X90002Y228803D02*
X96830D01*
X87906Y226638D02*
X88497Y227228D01*
Y227297D01*
X90002Y228803D01*
X96830D02*
X97322Y228311D01*
X88148Y206807D02*
X88551D01*
X114779Y207051D02*
X116748Y205083D01*
X113008Y207051D02*
X114779D01*
X87095Y187016D02*
Y189603D01*
X86925Y186846D02*
X87095Y187016D01*
X86728Y173390D02*
X86925Y173193D01*
X83185Y175981D02*
X85777Y173390D01*
X83185Y175981D02*
Y190713D01*
X85777Y173390D02*
X86728D01*
X86925Y172909D02*
Y173193D01*
X100409Y197799D02*
Y202327D01*
X98441Y198685D02*
Y202327D01*
X88551Y206807D02*
X90764Y209020D01*
X93717D01*
X109127Y40514D02*
X108546D01*
X107024Y38993D02*
X107024D01*
X109240Y40627D02*
X109127Y40514D01*
X108546D02*
X107024Y38993D01*
X107024D02*
X106189Y38157D01*
X123439Y45638D02*
X120559Y42758D01*
X125933Y42449D02*
X124496Y41012D01*
X137967Y49856D02*
X132134Y44024D01*
X133217Y42449D02*
X125933D01*
X135842Y50094D02*
X131386Y45638D01*
X132134Y44024D02*
X124654D01*
X133038Y58690D02*
X131561D01*
X139752Y48984D02*
X133217Y42449D01*
X131386Y45638D02*
X123439D01*
X134987Y56319D02*
X132827Y58479D01*
X124654Y44024D02*
X122528Y41898D01*
X61369Y11779D02*
X61335Y11745D01*
X61254D01*
X61369Y11779D02*
X57997D01*
X57898D01*
X69600Y25828D02*
X67793Y24020D01*
X69600Y25967D02*
Y25828D01*
X67793Y24020D02*
Y23869D01*
X59486Y60522D02*
X59472Y60507D01*
X64934Y60522D02*
X59486D01*
X64949Y60536D02*
X64934Y60522D01*
X48857Y59697D02*
X47035Y57875D01*
X50822Y59697D02*
X48857D01*
X51231Y60106D02*
X50822Y59697D01*
X47035Y57806D02*
X43787D01*
X106189Y38157D02*
Y34614D01*
X55900Y60106D02*
X55831D01*
X56491Y60766D02*
Y60697D01*
X55900Y60106D01*
X71533Y62770D02*
X58496D01*
X56491Y60766D01*
X59413Y42835D02*
X55742D01*
X62641Y39608D02*
X59413Y42835D01*
X81058Y69526D02*
Y69457D01*
X80205Y73197D02*
Y70379D01*
X81058Y69526D02*
X80205Y70379D01*
X81648Y68866D02*
X81058Y69457D01*
X81717Y68866D02*
X81648D01*
X80205Y73197D02*
X80008Y73394D01*
X81798Y68786D02*
X81717Y68866D01*
X80008Y73394D02*
X79713D01*
X81287Y64339D02*
Y63915D01*
X80137Y62764D02*
X71540D01*
X81287Y63915D02*
X80137Y62764D01*
X81681Y64732D02*
X81287Y64339D01*
X56033Y29102D02*
X51402D01*
X56287Y28848D02*
Y27232D01*
Y28848D02*
X56033Y29102D01*
X61249Y34318D02*
X56033Y29102D01*
X49102Y18374D02*
X46707D01*
X44772Y16438D02*
Y16369D01*
X49201Y18472D02*
X49102Y18374D01*
X46707D02*
X44772Y16438D01*
X49926Y15913D02*
X49201D01*
X50024Y15815D02*
Y11779D01*
Y15815D02*
X49926Y15913D01*
X71540Y62764D02*
X71533Y62770D01*
X76366Y81661D02*
X75972Y82055D01*
X77117Y80713D02*
X76366Y81465D01*
Y81661D02*
Y81465D01*
X77117Y80713D02*
Y68866D01*
X75972Y82055D02*
X75776D01*
X77135Y68848D02*
Y64750D01*
X77153Y64732D02*
X77135Y64750D01*
Y68848D02*
X77117Y68866D01*
X64752Y79270D02*
Y78315D01*
X64555Y78118D01*
X67705Y82153D02*
X67636D01*
X64752Y79270D01*
X71002Y82104D02*
X67754D01*
X71051Y82055D02*
X71002Y82104D01*
X67754D02*
X67705Y82153D01*
X81798Y68786D02*
Y64813D01*
X81878Y64732D02*
X81798Y64813D01*
X47035Y57875D02*
Y57806D01*
X144782Y20426D02*
X143233Y18876D01*
X140986D02*
X135759Y13650D01*
X139136Y17193D02*
X135231D01*
X135676Y13566D02*
X135169Y13059D01*
X143233Y18876D02*
X140986D01*
X149783Y28043D02*
Y27477D01*
Y28043D02*
X148958Y28867D01*
X138811D01*
X134789Y32889D01*
X109929Y34614D02*
X109408D01*
X109022Y35000D01*
X120559Y42758D02*
Y37370D01*
X131959Y59614D02*
X130999Y58655D01*
X136406Y56366D02*
X135371D01*
X137967Y54805D02*
X136406Y56366D01*
X131976Y59614D02*
X131959D01*
X137967Y54805D02*
Y49856D01*
X135371Y56366D02*
X135113Y56623D01*
X132864Y58726D02*
X131976Y59614D01*
X135100Y13059D02*
X135031D01*
X135169D02*
X135100D01*
X132935Y10894D02*
X126107D01*
X135031Y13059D02*
X134441Y12468D01*
Y12400D01*
X132935Y10894D01*
X126107D02*
X125615Y11386D01*
X134789Y32889D02*
X134386D01*
X108158Y32646D02*
X106189Y34614D01*
X109929Y32646D02*
X108158D01*
X135842Y52681D02*
Y50094D01*
X136012Y52851D02*
X135842Y52681D01*
X136209Y66307D02*
X136012Y66504D01*
X139752Y63715D02*
X137160Y66307D01*
X139752Y63715D02*
Y48984D01*
X137160Y66307D02*
X136209D01*
X136012Y66788D02*
Y66504D01*
X122528Y41898D02*
Y37370D01*
X124496Y41012D02*
Y37370D01*
X134386Y32889D02*
X132173Y30677D01*
X129220D01*
D55*
X115472Y100073D02*
X125413Y110014D01*
X151637D01*
X112031Y100073D02*
X115472D01*
X151601Y110014D02*
Y111687D01*
X151637Y108341D02*
Y110014D01*
X107810Y94758D02*
X107810D01*
X105116Y97452D02*
X107810Y94758D01*
X102559Y97452D02*
X105116D01*
X110147Y95353D02*
X150854D01*
X101681Y103819D02*
X110147Y95353D01*
X100668Y102806D02*
X101681Y103819D01*
X101817Y100859D02*
X102030D01*
X81167Y145650D02*
X82840Y147324D01*
X80573Y145644D02*
X80579Y145650D01*
X69390Y147435D02*
X71181Y145644D01*
X80573D01*
X80579Y145650D02*
X81167D01*
X118411Y133912D02*
X118780D01*
X117093Y130366D02*
X118987Y132261D01*
X115979Y131480D02*
X118411Y133912D01*
X118987Y132261D02*
X124019D01*
X129724Y137967D01*
X118780Y133912D02*
X118968Y134100D01*
X117093Y130366D02*
X117093D01*
X82840Y147324D02*
X91470D01*
X93704Y145089D01*
X85827Y141215D02*
Y141215D01*
X66408Y144869D02*
X69278D01*
X82185Y139112D02*
Y140624D01*
X81988Y143711D02*
Y143774D01*
X58366Y126917D02*
Y127115D01*
X57579Y126130D02*
X58366Y126917D01*
Y127115D02*
X59465Y128214D01*
X72949D01*
X120819Y108491D02*
X122539Y110211D01*
X118649Y108491D02*
X120819D01*
X117395Y110298D02*
X119705D01*
X117093Y115055D02*
X120166Y111982D01*
X135827D01*
X118247Y108893D02*
X118649Y108491D01*
X119705Y110298D02*
X119741Y110262D01*
X32688Y132222D02*
X37559Y137093D01*
X32346Y132222D02*
X32688D01*
X19882Y135998D02*
X37711Y118169D01*
X67285D01*
X80614Y131499D02*
X82707D01*
X67285Y118169D02*
X80614Y131499D01*
X82707D02*
X84418Y129788D01*
X4019Y119456D02*
X9834Y125271D01*
X26871D02*
X26920Y125221D01*
X20078Y127042D02*
X25099D01*
X9834Y125271D02*
X26871D01*
X16634Y130486D02*
Y137179D01*
Y130486D02*
X20078Y127042D01*
X16634Y137179D02*
X18815Y139360D01*
X7987Y115489D02*
X15948Y123450D01*
X7987Y115489D02*
X7987D01*
X15948Y123450D02*
X28425D01*
X28967Y122908D01*
X29233D01*
X19679Y112009D02*
X28011Y120341D01*
X31801D02*
X31989Y120152D01*
X28011Y120341D02*
X31801D01*
X72455Y118380D02*
X72643Y118568D01*
Y119370D01*
X84418Y129788D02*
X84543D01*
X65617Y114312D02*
X80832Y129527D01*
X64567Y114312D02*
X65617D01*
X64468Y114450D02*
X65103Y115085D01*
X72643Y119370D02*
X81156Y127883D01*
X74606Y113367D02*
Y118577D01*
X81840Y125810D02*
X82851Y124799D01*
X74606Y118577D02*
X81840Y125810D01*
X149619Y99968D02*
X149637D01*
X150279Y100610D02*
X152308D01*
X111379Y98498D02*
X148149D01*
X149619Y99968D01*
X149637D02*
X150279Y100610D01*
X152308D02*
X156890Y105191D01*
X149470Y97514D02*
X150688Y98731D01*
X160433D01*
X148880Y96923D02*
X149470Y97514D01*
Y97514D01*
X219882Y73560D02*
X220079Y73364D01*
Y69660D02*
Y73364D01*
X215846Y70152D02*
Y73560D01*
X215354Y69660D02*
X215846Y70152D01*
X208373Y73892D02*
X213434Y78953D01*
X208304Y73892D02*
X208373D01*
X213434Y78953D02*
Y83144D01*
X162588Y100886D02*
X168701D01*
X160433Y98731D02*
X162588Y100886D01*
X148166Y102041D02*
X148425D01*
X148130Y102005D02*
X148166Y102041D01*
X144783Y102005D02*
X144882Y102104D01*
X79557Y119433D02*
X81003Y117987D01*
X116574Y108893D02*
X118247D01*
X111525Y109487D02*
X111525D01*
X113306Y107967D02*
X114344Y106929D01*
X111525Y109487D02*
X113045Y107967D01*
X113306D01*
X111838Y104424D02*
X112413D01*
X112572Y106195D02*
Y106213D01*
X110800Y105462D02*
X111838Y104424D01*
X110800Y105462D02*
Y105758D01*
X112413Y104424D02*
X113793Y103044D01*
X109298Y107260D02*
X110800Y105758D01*
X113752Y111714D02*
X116574Y108893D01*
X155186Y136392D02*
X160501Y131077D01*
X152741Y136392D02*
X155186D01*
X72047Y136097D02*
X74409D01*
X215413Y39246D02*
X216242Y38418D01*
X216329D01*
X213189Y39246D02*
X215413D01*
X77138Y118301D02*
X77327Y118113D01*
X78772D01*
X80408Y116478D01*
X75159Y113920D02*
X76507D01*
X74606Y113367D02*
X75159Y113920D01*
X76507D02*
X77096Y114509D01*
X77953Y115296D02*
Y115365D01*
X77096Y114509D02*
X77165D01*
X77953Y115296D01*
X74606Y113298D02*
Y113367D01*
Y108629D02*
Y108698D01*
Y108629D02*
X75984Y107251D01*
X79921Y108591D02*
Y109898D01*
X75984Y107160D02*
Y107251D01*
X76083Y101845D02*
Y104753D01*
X79921Y108591D01*
X64567Y109712D02*
Y109781D01*
X61262Y101992D02*
X61528D01*
X61873Y102337D01*
X65877D01*
X66339Y102798D02*
Y103911D01*
X66732Y104305D01*
X65877Y102337D02*
X66339Y102798D01*
X63437Y100565D02*
X67277D01*
X63494Y98007D02*
X63494Y98007D01*
X67527D01*
X2067Y113827D02*
Y116328D01*
X4019Y118280D02*
Y119456D01*
X6933Y101845D02*
X11466Y106378D01*
Y111035D02*
X11954Y111522D01*
X11466Y106378D02*
Y111035D01*
X6864Y101845D02*
X6933D01*
X115823Y104601D02*
X115824D01*
X113077Y101254D02*
X114983D01*
X114344Y106080D02*
X115823Y104601D01*
X108185Y106147D02*
X113077Y101254D01*
X109086Y143703D02*
X109274Y143892D01*
X109086Y142403D02*
Y143703D01*
X18815Y139360D02*
X23924D01*
X41240Y135112D02*
X41437Y134915D01*
X41240Y135112D02*
Y136687D01*
X81988Y143711D02*
X82087Y143613D01*
X69278Y144869D02*
X72047Y142101D01*
X86024Y141215D02*
X87992Y139246D01*
X72047Y136097D02*
Y142101D01*
X149683Y130446D02*
X155948D01*
X147736Y132394D02*
Y133537D01*
Y132394D02*
X149683Y130446D01*
X79184Y101989D02*
X81308Y99865D01*
Y98982D02*
X81496Y98793D01*
X81308Y98982D02*
Y99865D01*
X79184Y101989D02*
Y105958D01*
X80365Y102478D02*
Y105469D01*
Y102478D02*
X84055Y98788D01*
Y98771D02*
Y98788D01*
X150098Y132424D02*
X150560Y131963D01*
X150098Y132424D02*
Y133537D01*
X149705Y133931D02*
X150098Y133537D01*
X150560Y131963D02*
X156102D01*
X155948Y130446D02*
X165311Y121084D01*
X147343Y133931D02*
X147736Y133537D01*
X156102Y131963D02*
X165800Y122265D01*
X154823Y133144D02*
X156592D01*
X165311Y121084D02*
X176227D01*
X156592Y133144D02*
X164859Y124876D01*
X167027D01*
X160501Y131077D02*
X169095D01*
X165800Y122265D02*
X173471D01*
X154429Y133537D02*
X154823Y133144D01*
X134484Y123498D02*
X143504D01*
X133153Y122167D02*
X134484Y123498D01*
X98714Y100277D02*
X101234D01*
X101817Y100859D01*
X128247Y101866D02*
Y101907D01*
X128150Y102005D02*
X128247Y101907D01*
X125591Y102005D02*
X128150D01*
X95866Y98308D02*
Y102829D01*
X95841Y102854D02*
X95866Y102829D01*
Y98308D02*
X96722Y97452D01*
X95841Y102854D02*
Y104660D01*
X96722Y97452D02*
X99508D01*
X95841Y104660D02*
X97327Y106147D01*
Y106147D01*
X92815Y103427D02*
X94711Y105324D01*
Y105758D01*
X88578Y109025D02*
X91297D01*
X84153Y107160D02*
Y107230D01*
X87430Y110506D01*
X86713Y107160D02*
X88578Y109025D01*
X89460Y107348D02*
X91301D01*
X89272Y107160D02*
X89460Y107348D01*
X94711Y105758D02*
X96214Y107260D01*
X4019Y119456D02*
X4019D01*
X11954Y111522D02*
X12441Y112009D01*
X19679D01*
X7499Y110557D02*
Y115001D01*
X6798Y109855D02*
X7499Y110557D01*
Y115001D02*
X7987Y115489D01*
X6798Y105880D02*
Y109855D01*
X17838Y145447D02*
X23924Y139360D01*
X6729Y145447D02*
X17838D01*
X6693Y148793D02*
X19642D01*
X32346Y132222D02*
Y136089D01*
Y131914D02*
Y132222D01*
X19642Y148793D02*
X32346Y136089D01*
X31858Y131426D02*
X32346Y131914D01*
X111525Y135934D02*
X111525D01*
X116634Y141043D02*
Y145939D01*
X111525Y135934D02*
X116634Y141043D01*
X118728Y136456D02*
X120965Y138692D01*
X118728Y136456D02*
Y136456D01*
X120965Y138692D02*
Y141948D01*
X114866Y132594D02*
X118728Y136456D01*
X123501Y146156D02*
X136990D01*
X119783Y142438D02*
X123501Y146156D01*
X123296Y144280D02*
X157813D01*
X119783Y139738D02*
Y142438D01*
X113752Y133707D02*
X119783Y139738D01*
X120965Y141948D02*
X123296Y144280D01*
X120374Y145766D02*
Y145841D01*
X118182Y143575D02*
X120374Y145766D01*
X108960Y93577D02*
Y93608D01*
X107810Y94758D02*
X108960Y93608D01*
Y93577D02*
X109748Y92790D01*
X109817D01*
X104844Y102806D02*
X110726Y96923D01*
X148880D01*
X102559Y97383D02*
Y97452D01*
X99508D02*
X102559D01*
X81003Y117987D02*
X82443D01*
X80408Y116478D02*
X83160D01*
X82443Y117987D02*
X83965Y119509D01*
X83160Y116478D02*
X85078Y118396D01*
X85078D01*
X81156Y127883D02*
X81994D01*
X80832Y129527D02*
X82577D01*
X128557Y115427D02*
X133153Y120024D01*
Y122167D01*
X114057Y140693D02*
Y140705D01*
X111820Y140683D02*
Y140961D01*
X109298Y138161D02*
X111820Y140683D01*
X110236Y141883D02*
X111274Y142921D01*
X108185Y139275D02*
X110236Y141327D01*
X113501Y142921D02*
X114304Y143724D01*
X114057Y140705D02*
X114549Y141197D01*
X110412Y137048D02*
X114057Y140693D01*
X111820Y140961D02*
X112008Y141149D01*
X114549Y141197D02*
Y141463D01*
X110236Y141327D02*
Y141883D01*
X111274Y142921D02*
X113501D01*
X114304Y143724D02*
Y147251D01*
X108185Y139275D02*
Y139275D01*
X118182Y140295D02*
Y143575D01*
X129724Y137967D02*
Y142246D01*
X129761Y142282D01*
X157813Y144280D02*
X157972Y144439D01*
X91301Y107348D02*
X91938Y107985D01*
X92484D02*
X93987Y109487D01*
X92940Y106213D02*
X95100Y108374D01*
X93987Y109487D02*
X93987D01*
X92940Y106213D02*
X92940D01*
X91938Y107985D02*
X92484D01*
X95100Y108374D02*
Y108374D01*
X121175Y115427D02*
X128557D01*
X123961Y116913D02*
X125429Y118380D01*
X121917Y116913D02*
X123961D01*
X120434Y118396D02*
X121917Y116913D01*
X120434Y118396D02*
X120434D01*
X85152Y131407D02*
X87305Y129253D01*
X85152Y131407D02*
Y131560D01*
X84543Y129788D02*
X86192Y128139D01*
X87305Y129253D02*
Y129253D01*
X72949Y128214D02*
X79248Y134513D01*
X88727D01*
X90646Y132594D01*
X79814Y133332D02*
X87681D01*
X89532Y131480D01*
X89773Y135694D02*
X91760Y133707D01*
X73425Y126943D02*
X79814Y133332D01*
X71980Y130585D02*
X78270Y136875D01*
X90819D02*
X92873Y134821D01*
X78270Y136875D02*
X90819D01*
X78759Y135694D02*
X89773D01*
X72460Y129395D02*
X78759Y135694D01*
X82577Y129527D02*
X85078Y127026D01*
X84257Y139112D02*
X85304Y138065D01*
X87992Y139246D02*
X92902D01*
X91856Y138065D02*
X93987Y135934D01*
X85304Y138065D02*
X91856D01*
X82185Y139112D02*
X84257D01*
X82087Y139013D02*
X82185Y139112D01*
X81102Y107877D02*
Y109409D01*
X79184Y105958D02*
X81102Y107877D01*
X82283Y107387D02*
Y108920D01*
X80365Y105469D02*
X82283Y107387D01*
X91297Y109025D02*
X92873Y110601D01*
X96214Y107260D02*
Y107260D01*
X87430Y110506D02*
X88324D01*
X67277Y100565D02*
X69095Y102383D01*
X67527Y98007D02*
X71457Y101937D01*
X69095Y102383D02*
Y104305D01*
X71457Y101937D02*
Y104305D01*
X47343Y130585D02*
X71980D01*
X44193Y125798D02*
Y127435D01*
X47343Y130585D01*
X85827Y141215D02*
X86024D01*
X114983Y101254D02*
X118246Y104517D01*
X112639Y110601D02*
X116074Y107166D01*
X118246Y104517D02*
Y105930D01*
X116074Y107166D02*
X116099D01*
X110412Y108374D02*
X112572Y106213D01*
X118246Y105930D02*
X118434Y106118D01*
X114344Y106080D02*
Y106929D01*
X112639Y110601D02*
X112639D01*
X107071Y140388D02*
X109086Y142403D01*
X107071Y140388D02*
Y140388D01*
X115846Y137958D02*
X118182Y140295D01*
X112639Y134821D02*
X115776Y137958D01*
X115846D01*
X94584Y139791D02*
Y141802D01*
Y139791D02*
X96214Y138161D01*
Y138161D02*
Y138161D01*
X92022Y144364D02*
X94584Y141802D01*
X93704Y145089D02*
X93740D01*
X89862Y144364D02*
X92022D01*
X93740Y145089D02*
X98441Y140388D01*
X108185Y106147D02*
Y106147D01*
X107071Y105033D02*
X112031Y100073D01*
X107001Y102876D02*
X111379Y98498D01*
X150854Y95353D02*
X151637Y96136D01*
X125528Y101943D02*
X125591Y102005D01*
X213189Y14837D02*
X214935D01*
X214935Y14837D01*
X137007Y146138D02*
X150187D01*
X136990Y146156D02*
X137007Y146138D01*
X156078Y147337D02*
X156105D01*
X155488Y147927D02*
X156078Y147337D01*
X114980Y147927D02*
X155488D01*
X114304Y147251D02*
X114980Y147927D01*
X125811Y129871D02*
X126083Y130143D01*
X120434Y127026D02*
X123279Y129871D01*
X125811D01*
X2067Y116328D02*
X4019Y118280D01*
X50886Y128026D02*
X52255Y129395D01*
X50886Y125798D02*
Y128026D01*
X52255Y129395D02*
X72460D01*
X88324Y110506D02*
X90646Y112828D01*
X110412Y108374D02*
Y108374D01*
X92873Y110601D02*
X92873D01*
X65059Y126943D02*
X73425D01*
X64272Y126130D02*
Y126156D01*
X65059Y126943D01*
X97639Y102004D02*
X99554Y103919D01*
X97639Y101351D02*
Y102004D01*
Y101351D02*
X98714Y100277D01*
X144783Y102005D02*
X148130D01*
X81102Y109409D02*
X83957Y112263D01*
X82283Y108920D02*
X88419Y115055D01*
X114866Y112828D02*
X117395Y110298D01*
X62008Y111753D02*
X64567Y114312D01*
X62008Y111257D02*
Y111753D01*
X64567Y114312D02*
Y114381D01*
X61221Y110470D02*
X62008Y111257D01*
X54134Y108144D02*
X59153D01*
X50787Y111490D02*
X54134Y108144D01*
X6729Y145447D02*
X7320Y144856D01*
X8268D01*
X138091Y102104D02*
X141437D01*
X132382Y102140D02*
X134744D01*
X119320Y117282D02*
X121175Y115427D01*
X120129Y114246D02*
X140945D01*
X142520Y115821D01*
X118206Y116169D02*
X120129Y114246D01*
X119320Y117282D02*
X119320D01*
X79923Y109900D02*
Y111014D01*
X79921Y109898D02*
X79923Y109900D01*
Y111014D02*
X86192Y117282D01*
X83957Y112263D02*
Y112820D01*
X88419Y115055D02*
Y115055D01*
X83957Y112820D02*
X87305Y116169D01*
X63976Y105093D02*
X64370Y104699D01*
X59153Y108144D02*
X62205Y105093D01*
X63976D01*
X81994Y127883D02*
X82758Y127119D01*
X83965Y125912D02*
X83965D01*
X82758Y127119D02*
X83965Y125912D01*
X82758Y127119D02*
X82758D01*
X50787Y111490D02*
Y113459D01*
X64370Y104305D02*
Y104699D01*
X40846Y125831D02*
X40879Y125798D01*
X44193D01*
X90646Y132594D02*
X90646D01*
X142520Y115821D02*
X143504D01*
X57563Y125798D02*
X57579D01*
X54232D02*
X57563D01*
Y125814D02*
X57579Y125798D01*
X64272D02*
X64408Y125934D01*
X47539Y125798D02*
X50886D01*
X60925D02*
X64272D01*
X89532Y131480D02*
X89532D01*
X92873Y134821D02*
X92873D01*
X91760Y133707D02*
X91760D01*
X154429Y133537D02*
Y133931D01*
X93987Y135934D02*
X93987D01*
X152067Y133931D02*
X152181Y134045D01*
Y135832D02*
X152741Y136392D01*
X152181Y134045D02*
Y135832D01*
X169095Y131077D02*
X171752Y128419D01*
X167815Y125663D02*
Y126451D01*
X167027Y124876D02*
X167815Y125663D01*
X171752Y126451D02*
Y128419D01*
X173471Y122265D02*
X175689Y124482D01*
X176227Y121084D02*
X179626Y124482D01*
X175689D02*
Y126451D01*
X179626Y124482D02*
Y126451D01*
X92902Y139246D02*
X95100Y137048D01*
X119835Y226343D02*
X120032Y226539D01*
X165268Y223554D02*
X165712Y223111D01*
Y222963D02*
Y223111D01*
X121254Y166205D02*
X123343D01*
X119257Y168075D02*
X121472D01*
X123988Y196885D02*
X124771Y197669D01*
X123988Y195722D02*
Y196885D01*
X121472Y168075D02*
X123343Y166205D01*
X123539Y166008D01*
X117240Y168075D02*
X121472D01*
X119602Y166205D02*
X123343D01*
X119405Y166008D02*
X119602Y166205D01*
X103102Y13354D02*
X102905Y13158D01*
X57669Y16142D02*
X57225Y16586D01*
Y16734D02*
Y16586D01*
X101683Y73492D02*
X99594D01*
X103680Y71622D02*
X101465D01*
X98949Y42811D02*
X98166Y42028D01*
X98949Y43974D02*
Y42811D01*
X101465Y71622D02*
X99594Y73492D01*
X99398Y73689D01*
X105697Y71622D02*
X101465D01*
X103335Y73492D02*
X99594D01*
X103532Y73689D02*
X103335Y73492D01*
D56*
X217656Y50800D02*
X219062Y52206D01*
Y53223D01*
X219456Y53616D01*
X219524D01*
X214924D02*
Y57652D01*
X76611Y218274D02*
Y219672D01*
X73046Y219271D02*
X76210D01*
X76611Y219672D02*
X77194Y220255D01*
X72320Y213055D02*
Y219748D01*
X76611Y218274D02*
X76669Y218215D01*
X72444Y219873D02*
X73046Y219271D01*
X76669Y218215D02*
X77099D01*
X78155Y219271D01*
X72320Y219748D02*
X72444Y219873D01*
X73154Y200063D02*
Y211654D01*
X84447Y213988D02*
X85004D01*
X84398Y213939D02*
X84447Y213988D01*
X80462Y213939D02*
X84398D01*
X72320Y213055D02*
X73154Y212220D01*
Y200063D02*
X74336Y198882D01*
X77571D01*
X71079Y195092D02*
X74451Y198465D01*
X71079Y194256D02*
Y195092D01*
X73501Y181179D02*
X81020Y188698D01*
Y194748D01*
Y201109D01*
X77571Y202622D02*
X78161Y202031D01*
X80097D01*
X81020Y201109D01*
X73501Y180476D02*
Y181179D01*
X146326Y21423D02*
Y20025D01*
X149891Y20426D02*
X146727D01*
X146326Y20025D02*
X145743Y19442D01*
X150617Y26642D02*
Y19949D01*
X146326Y21423D02*
X146268Y21481D01*
X150493Y19824D02*
X149891Y20426D01*
X146268Y21481D02*
X145838D01*
X144782Y20426D01*
X150617Y19949D02*
X150493Y19824D01*
X149783Y39634D02*
Y28043D01*
X138490Y25709D02*
X137933D01*
X138539Y25758D02*
X138490Y25709D01*
X142475Y25758D02*
X138539D01*
X150617Y26642D02*
X149783Y27477D01*
Y39634D02*
X148601Y40815D01*
X145366D01*
X151858Y44604D02*
X148486Y41232D01*
X151858Y45441D02*
Y44604D01*
X149436Y58518D02*
X141917Y50999D01*
Y44949D01*
Y38588D01*
X145366Y37075D02*
X144776Y37665D01*
X142840D01*
X141917Y38588D01*
X149436Y59220D02*
Y58518D01*
D57*
X147448Y125959D02*
X152685D01*
X154124Y123705D02*
Y124520D01*
X154331Y123498D02*
X155315D01*
X152685Y125959D02*
X154124Y124520D01*
Y123705D02*
X154331Y123498D01*
X144327Y129079D02*
X147448Y125959D01*
D58*
X207221Y129108D02*
X211224D01*
X207123Y129010D02*
X207221Y129108D01*
X211224D02*
X211323Y129207D01*
X64681Y203034D02*
X64700Y203053D01*
Y213036D02*
X64720Y213055D01*
X64700Y203053D02*
Y213036D01*
X64878Y198667D02*
X68702D01*
X64681Y198452D02*
Y198470D01*
X68702Y198667D02*
X68917Y198882D01*
X64681Y198470D02*
X64878Y198667D01*
X68702Y202837D02*
X68917Y202622D01*
X64878Y202837D02*
X68702D01*
X64681Y203034D02*
X64878Y202837D01*
X158256Y36663D02*
X158237Y36644D01*
Y26661D02*
X158217Y26642D01*
X158237Y36644D02*
Y26661D01*
X158059Y41030D02*
X154235D01*
X158256Y41245D02*
Y41227D01*
X154235Y41030D02*
X154020Y40815D01*
X158256Y41227D02*
X158059Y41030D01*
X154235Y36860D02*
X154020Y37075D01*
X158059Y36860D02*
X154235D01*
X158256Y36663D02*
X158059Y36860D01*
D59*
X131865Y197034D02*
D03*
X128612Y193782D02*
D03*
X85299Y203555D02*
D03*
X88551Y206807D02*
D03*
X88256Y217241D02*
D03*
X85004Y213988D02*
D03*
X87272Y210843D02*
D03*
X84019Y207590D02*
D03*
X91072Y42663D02*
D03*
X94324Y45915D02*
D03*
X137638Y36142D02*
D03*
X134386Y32889D02*
D03*
X134681Y22456D02*
D03*
X137933Y25709D02*
D03*
X135665Y28854D02*
D03*
X138918Y32107D02*
D03*
D60*
X123904Y198360D02*
D03*
X129278Y203734D02*
D03*
X99033Y41337D02*
D03*
X93659Y35963D02*
D03*
D61*
X141551Y220240D02*
D03*
Y213941D02*
D03*
X81386Y19457D02*
D03*
Y25756D02*
D03*
D62*
X138304Y201481D02*
D03*
X139696Y200089D02*
D03*
X141087Y198697D02*
D03*
X142480Y197305D02*
D03*
X143871Y195913D02*
D03*
X145263Y194521D02*
D03*
X146655Y193129D02*
D03*
X148047Y191737D02*
D03*
X161688Y205379D02*
D03*
X160296Y206770D02*
D03*
X158904Y208162D02*
D03*
X157512Y209554D02*
D03*
X156121Y210946D02*
D03*
X154729Y212338D02*
D03*
X153337Y213730D02*
D03*
X151945Y215122D02*
D03*
X84633Y38216D02*
D03*
X83241Y39608D02*
D03*
X81849Y41000D02*
D03*
X80458Y42392D02*
D03*
X79066Y43784D02*
D03*
X77674Y45176D02*
D03*
X76282Y46567D02*
D03*
X74890Y47959D02*
D03*
X61249Y34318D02*
D03*
X62641Y32926D02*
D03*
X64033Y31534D02*
D03*
X65425Y30143D02*
D03*
X66817Y28751D02*
D03*
X68208Y27359D02*
D03*
X69600Y25967D02*
D03*
X70992Y24575D02*
D03*
D63*
X151945Y191737D02*
D03*
X153337Y193129D02*
D03*
X154729Y194521D02*
D03*
X156121Y195913D02*
D03*
X157512Y197305D02*
D03*
X158904Y198697D02*
D03*
X160296Y200089D02*
D03*
X161688Y201481D02*
D03*
X148047Y215122D02*
D03*
X146655Y213730D02*
D03*
X145263Y212338D02*
D03*
X143871Y210946D02*
D03*
X142480Y209554D02*
D03*
X141087Y208162D02*
D03*
X139696Y206770D02*
D03*
X138304Y205379D02*
D03*
X70992Y47959D02*
D03*
X69600Y46567D02*
D03*
X68208Y45176D02*
D03*
X66817Y43784D02*
D03*
X65425Y42392D02*
D03*
X64033Y41000D02*
D03*
X62641Y39608D02*
D03*
X61249Y38216D02*
D03*
X74890Y24575D02*
D03*
X76282Y25967D02*
D03*
X77674Y27359D02*
D03*
X79066Y28751D02*
D03*
X80458Y30143D02*
D03*
X81849Y31534D02*
D03*
X83241Y32926D02*
D03*
X84633Y34318D02*
D03*
D64*
X149996Y203430D02*
D03*
X72941Y36267D02*
D03*
D65*
X131905Y166303D02*
D03*
Y163744D02*
D03*
Y161185D02*
D03*
Y158626D02*
D03*
X91031Y73394D02*
D03*
Y75953D02*
D03*
Y78512D02*
D03*
Y81071D02*
D03*
D66*
X143224Y166303D02*
D03*
Y163744D02*
D03*
Y161185D02*
D03*
Y158626D02*
D03*
X79713Y73394D02*
D03*
Y75953D02*
D03*
Y78512D02*
D03*
Y81071D02*
D03*
D67*
X136433Y162465D02*
D03*
X86504Y77232D02*
D03*
D68*
X103362Y211972D02*
D03*
X119575Y27724D02*
D03*
D69*
X110252Y202327D02*
D03*
X108283Y202327D02*
D03*
X106315D02*
D03*
X104347D02*
D03*
X102378D02*
D03*
X100409D02*
D03*
X98441D02*
D03*
X96472D02*
D03*
X96473Y221618D02*
D03*
X98441Y221618D02*
D03*
X100409D02*
D03*
X102378D02*
D03*
X104347D02*
D03*
X106315D02*
D03*
X108283D02*
D03*
X110252D02*
D03*
X112685Y37370D02*
D03*
X114654Y37370D02*
D03*
X116622D02*
D03*
X118591D02*
D03*
X120559D02*
D03*
X122528D02*
D03*
X124496D02*
D03*
X126465D02*
D03*
X126465Y18079D02*
D03*
X124496Y18079D02*
D03*
X122528D02*
D03*
X120559D02*
D03*
X118591D02*
D03*
X116622D02*
D03*
X114654D02*
D03*
X112685D02*
D03*
D70*
X157458Y215067D02*
Y221471D01*
X159582Y223595D02*
X161737D01*
X157458Y221471D02*
X159582Y223595D01*
X154729Y212338D02*
X157458Y215067D01*
X161737Y223595D02*
X161925Y223783D01*
X160753Y215578D02*
Y215918D01*
X160941Y216106D02*
X161925D01*
X156121Y210946D02*
X160753Y215578D01*
Y215918D02*
X160941Y216106D01*
X173736Y218665D02*
X173767Y218696D01*
X178134D01*
X178165Y218728D01*
X65479Y24630D02*
Y18226D01*
X63355Y16102D02*
X61200D01*
X65479Y18226D02*
X63355Y16102D01*
X68208Y27359D02*
X65479Y24630D01*
X61200Y16102D02*
X61012Y15913D01*
X62185Y24119D02*
Y23779D01*
X61996Y23591D02*
X61012D01*
X66817Y28751D02*
X62185Y24119D01*
Y23779D02*
X61996Y23591D01*
X49201Y21032D02*
X49170Y21000D01*
X44803D01*
X44772Y20969D01*
D71*
X61369Y11779D02*
D03*
X65969D02*
D03*
X67705Y82153D02*
D03*
X63105D02*
D03*
X55831Y60106D02*
D03*
X51231D02*
D03*
X45424Y11779D02*
D03*
X50024D02*
D03*
X74040Y57449D02*
D03*
X69440D02*
D03*
X99139Y11681D02*
D03*
X94539D02*
D03*
X107505Y16209D02*
D03*
X102905D02*
D03*
X129480Y39732D02*
D03*
X134080D02*
D03*
D72*
X99398Y73689D02*
D03*
Y61878D02*
D03*
D73*
X221457Y231988D02*
Y238583D01*
X204921Y231988D02*
Y238583D01*
X8261Y256292D02*
X10236Y258268D01*
X27559D01*
X8261Y238983D02*
X8661Y238583D01*
X8261Y238983D02*
Y239363D01*
Y256292D01*
X43970Y84180D02*
X62992D01*
Y90803D01*
X189420Y2D02*
X221655D01*
X222835Y1181D01*
X203543Y238583D02*
X204921D01*
X203150Y238976D02*
X203543Y238583D01*
X203150Y238976D02*
Y256299D01*
X205118Y258268D01*
X222441D01*
X222441D02*
X222835Y257874D01*
Y238976D02*
Y257874D01*
X221712Y231988D02*
X222835Y230865D01*
X221457Y231988D02*
X221712D01*
X222835Y230865D02*
X222835Y1181D01*
X187795Y220265D02*
Y222933D01*
X188976Y224114D01*
X202362D01*
X35039Y98032D02*
X36225Y99217D01*
X35039Y71807D02*
Y98032D01*
X36225Y99217D02*
X57269D01*
X187795Y191732D02*
Y220265D01*
Y191732D02*
X188976Y190551D01*
X202362D01*
X203543Y189370D01*
Y170472D02*
Y189370D01*
X202362Y169291D02*
X203543Y170472D01*
X188976Y169291D02*
X202362D01*
X187795Y168110D02*
X188976Y169291D01*
X187795Y141831D02*
Y168110D01*
X186651Y140686D02*
X187795Y141831D01*
X163546Y140686D02*
X186651D01*
X162402Y141831D02*
X163546Y140686D01*
X162402Y141831D02*
Y147933D01*
X161221Y149114D02*
X162402Y147933D01*
X155709Y149114D02*
X161221D01*
X155709D02*
Y155512D01*
X178937D01*
X181299Y157874D01*
Y220255D01*
X204724Y231988D02*
X204921D01*
X222441Y238583D02*
X222835Y238976D01*
X27461Y238583D02*
X27559D01*
X27461Y231988D02*
Y238583D01*
X8661D02*
X8957D01*
X45746Y9374D02*
X158980D01*
X161319Y11713D01*
X43972Y9374D02*
X45746D01*
X41634Y11713D02*
X43972Y9374D01*
X157480Y84153D02*
Y90793D01*
Y84153D02*
X158957D01*
X188975Y2D02*
X189420D01*
X221457Y238583D02*
X222441D01*
X8957Y231988D02*
Y238583D01*
X1103Y231988D02*
X8957D01*
X-11Y230874D02*
X1103Y231988D01*
X-11Y230874D02*
X-11Y1192D01*
X1181Y0D01*
X18118D01*
X19297Y1179D01*
Y13490D01*
X20430Y14623D01*
X33816D01*
X35037Y15844D01*
Y48211D01*
X33864Y49383D02*
X35037Y48211D01*
X20475Y49383D02*
X33864D01*
X19289Y50568D02*
X20475Y49383D01*
X19289Y50568D02*
Y69015D01*
X20894Y70620D01*
X33853D01*
X35039Y71807D01*
X57269Y99217D02*
X58474Y98012D01*
Y91950D02*
Y98012D01*
Y91950D02*
X59621Y90803D01*
X62992D01*
X41634Y81844D02*
X43970Y84180D01*
X41634Y11713D02*
Y81844D01*
X161319Y11713D02*
Y81791D01*
X158957Y84153D02*
X161319Y81791D01*
X157480Y90793D02*
X161266D01*
X162402Y91929D01*
Y98032D01*
X163583Y99213D01*
X186614D01*
X187795Y98032D01*
Y1181D02*
Y98032D01*
Y1181D02*
X188975Y2D01*
X203543Y230807D02*
X204724Y231988D01*
X203543Y225295D02*
Y230807D01*
X202362Y224114D02*
X203543Y225295D01*
X181299Y220255D02*
Y227953D01*
X178937Y230315D02*
X181299Y227953D01*
X63976Y230315D02*
X178937D01*
X61614Y227953D02*
X63976Y230315D01*
X61614Y157874D02*
Y227953D01*
Y157874D02*
X63976Y155512D01*
X66929D01*
Y149114D02*
Y155512D01*
X36220Y149114D02*
X66929D01*
X35039Y150295D02*
X36220Y149114D01*
X35039Y150295D02*
Y230807D01*
X33858Y231988D02*
X35039Y230807D01*
X27461Y231988D02*
X33858D01*
X27559Y238583D02*
X27953Y238976D01*
Y257874D01*
X27559Y258268D02*
X27953Y257874D01*
D74*
X12894Y152612D02*
X34154D01*
Y179030D01*
X12894D02*
X34154D01*
X12894Y152612D02*
Y179030D01*
D75*
X86221Y150787D02*
D03*
X128740Y88976D02*
D03*
X68504Y85827D02*
D03*
X64961Y88976D02*
D03*
X72047D02*
D03*
X75590Y85827D02*
D03*
X89516Y86028D02*
D03*
X85973Y89177D02*
D03*
X78886D02*
D03*
X82430Y86028D02*
D03*
X110776D02*
D03*
X107233Y89177D02*
D03*
X114319D02*
D03*
X117863Y86028D02*
D03*
X103937Y85827D02*
D03*
X100394Y88976D02*
D03*
X93307D02*
D03*
X96850Y85827D02*
D03*
X150000Y88976D02*
D03*
X139122Y86028D02*
D03*
X135579Y89177D02*
D03*
X142666D02*
D03*
X146209Y86028D02*
D03*
X132283Y85827D02*
D03*
X121653Y88976D02*
D03*
X125197Y85827D02*
D03*
X129134Y150787D02*
D03*
X125591Y153543D02*
D03*
X132677D02*
D03*
X136221Y150787D02*
D03*
X150146Y150988D02*
D03*
X146457Y153543D02*
D03*
X139370D02*
D03*
X143060Y150988D02*
D03*
X153937Y153543D02*
D03*
X100787Y150787D02*
D03*
X97244Y153543D02*
D03*
X104331D02*
D03*
X107874Y150787D02*
D03*
X121653D02*
D03*
X118110Y153543D02*
D03*
X111024D02*
D03*
X114567Y150787D02*
D03*
X82823Y153744D02*
D03*
X89764Y153543D02*
D03*
X93307Y150787D02*
D03*
X79527D02*
D03*
X75984Y153543D02*
D03*
X68898D02*
D03*
X72441Y150787D02*
D03*
X206693Y233858D02*
D03*
X212992D02*
D03*
X219685D02*
D03*
X209842Y236614D02*
D03*
X216142D02*
D03*
X22441D02*
D03*
X14173D02*
D03*
X25591Y233858D02*
D03*
X18504D02*
D03*
X11024D02*
D03*
D76*
X216142Y253150D02*
D03*
X209449D02*
D03*
X206693Y246457D02*
D03*
X218898D02*
D03*
X209842Y223695D02*
D03*
X209746Y228630D02*
D03*
X18317Y222891D02*
D03*
X22918D02*
D03*
X33169Y217691D02*
D03*
X61215Y115004D02*
D03*
X30758Y187524D02*
D03*
X210728Y171333D02*
D03*
X212606Y168282D02*
D03*
X102030Y100859D02*
D03*
X122504Y137242D02*
D03*
X101318Y137408D02*
D03*
X102854Y135998D02*
D03*
X107972Y129699D02*
D03*
X118968Y134100D02*
D03*
X102756Y142888D02*
D03*
X85520Y145447D02*
D03*
X85827Y141215D02*
D03*
X89385Y145552D02*
D03*
X66408Y144869D02*
D03*
X90256Y141510D02*
D03*
X82185Y140624D02*
D03*
X131742Y130240D02*
D03*
X122835Y134128D02*
D03*
X139075Y125762D02*
D03*
X119741Y110262D02*
D03*
X14534Y187864D02*
D03*
X14447Y191663D02*
D03*
X37559Y137093D02*
D03*
X19882Y135998D02*
D03*
Y130289D02*
D03*
X69625Y123014D02*
D03*
X67670Y121182D02*
D03*
X71601Y125171D02*
D03*
X26920Y125221D02*
D03*
X25099Y127042D02*
D03*
X29233Y122908D02*
D03*
X31989Y120152D02*
D03*
X72455Y118380D02*
D03*
X16634Y196690D02*
D03*
X7124Y202288D02*
D03*
X9047Y218380D02*
D03*
X2953Y187376D02*
D03*
X2264Y172317D02*
D03*
X2657Y191608D02*
D03*
X70374Y107258D02*
D03*
X70079Y114541D02*
D03*
X14961Y48006D02*
D03*
X14862Y44463D02*
D03*
X15059Y40821D02*
D03*
X15650Y78616D02*
D03*
X30217Y45742D02*
D03*
X28248D02*
D03*
X26280D02*
D03*
X24311D02*
D03*
X20374D02*
D03*
X12795Y32061D02*
D03*
X12303Y50959D02*
D03*
X21457Y41448D02*
D03*
X215846Y44463D02*
D03*
X215059Y62376D02*
D03*
X218898Y83045D02*
D03*
X191169Y166886D02*
D03*
X221162Y168380D02*
D03*
Y172415D02*
D03*
X198649Y164327D02*
D03*
X200492Y167621D02*
D03*
X200098Y151746D02*
D03*
X204724Y155585D02*
D03*
Y159522D02*
D03*
X216358Y155585D02*
D03*
X221162Y164246D02*
D03*
X192881Y158388D02*
D03*
X194614Y155782D02*
D03*
X211122Y141510D02*
D03*
X204823Y149778D02*
D03*
X162008Y108931D02*
D03*
X156890Y105191D02*
D03*
X208366Y183341D02*
D03*
X209547Y59227D02*
D03*
X208760Y61982D02*
D03*
X206791Y63951D02*
D03*
X204823Y65919D02*
D03*
X202854Y67888D02*
D03*
X189961Y96136D02*
D03*
X203642Y73892D02*
D03*
X190256Y80880D02*
D03*
Y65132D02*
D03*
Y63164D02*
D03*
X214862Y57750D02*
D03*
X217848Y57652D02*
D03*
X217618Y50762D02*
D03*
X219882Y89640D02*
D03*
X220177Y129010D02*
D03*
X215846Y78160D02*
D03*
X212090Y89491D02*
D03*
X213656Y87986D02*
D03*
X213399Y91278D02*
D03*
X214801Y89761D02*
D03*
X148425Y102041D02*
D03*
X181890Y107652D02*
D03*
X179331D02*
D03*
X177067D02*
D03*
X168701Y100886D02*
D03*
X216240Y100171D02*
D03*
X218602Y102927D02*
D03*
X216240D02*
D03*
X213878Y100171D02*
D03*
Y102927D02*
D03*
X211516D02*
D03*
Y100171D02*
D03*
X22765Y86301D02*
D03*
X32579Y192000D02*
D03*
X32028Y222744D02*
D03*
X220965Y209620D02*
D03*
Y198597D02*
D03*
X193799Y194266D02*
D03*
X201673Y212376D02*
D03*
X203642Y214345D02*
D03*
X206791Y215919D02*
D03*
X199705Y221431D02*
D03*
X197343D02*
D03*
X194980Y216707D02*
D03*
X194471Y198419D02*
D03*
X220410Y2337D02*
D03*
Y5388D02*
D03*
X219882Y78160D02*
D03*
X190256Y71038D02*
D03*
Y78912D02*
D03*
Y76943D02*
D03*
Y74975D02*
D03*
Y73006D02*
D03*
Y69069D02*
D03*
Y67101D02*
D03*
Y61195D02*
D03*
X192224D02*
D03*
X194193Y59227D02*
D03*
X192224D02*
D03*
X190256D02*
D03*
Y57258D02*
D03*
X192224D02*
D03*
X194193D02*
D03*
X196161D02*
D03*
X198130Y55290D02*
D03*
X196161D02*
D03*
X194193D02*
D03*
X192224D02*
D03*
X194193Y53321D02*
D03*
X196161D02*
D03*
X198130D02*
D03*
X196161Y51353D02*
D03*
X198130D02*
D03*
Y49384D02*
D03*
X190256Y53321D02*
D03*
X198130Y45447D02*
D03*
X194193Y51353D02*
D03*
X198130Y47416D02*
D03*
X192224Y51353D02*
D03*
X194193Y49384D02*
D03*
X192224Y53321D02*
D03*
X196161Y49384D02*
D03*
Y47416D02*
D03*
X190256Y55290D02*
D03*
X190256Y51353D02*
D03*
Y2140D02*
D03*
X192224D02*
D03*
X198130Y10014D02*
D03*
X196161Y15919D02*
D03*
Y13951D02*
D03*
Y8045D02*
D03*
X198130D02*
D03*
X194193Y27730D02*
D03*
Y35605D02*
D03*
Y37573D02*
D03*
Y29699D02*
D03*
X196161Y43479D02*
D03*
Y39542D02*
D03*
Y37573D02*
D03*
X198130D02*
D03*
Y35605D02*
D03*
X196161Y17888D02*
D03*
Y45447D02*
D03*
X198130Y15919D02*
D03*
X192224Y19856D02*
D03*
Y25762D02*
D03*
X196161Y29699D02*
D03*
X194193Y31667D02*
D03*
X196161Y27730D02*
D03*
X198130D02*
D03*
X194193Y41510D02*
D03*
X198130Y25762D02*
D03*
Y23793D02*
D03*
X190256Y29699D02*
D03*
X196161Y19856D02*
D03*
X190256Y47416D02*
D03*
Y43479D02*
D03*
Y31667D02*
D03*
X196161D02*
D03*
X192224Y37573D02*
D03*
Y35605D02*
D03*
X190256Y13951D02*
D03*
X192224Y10014D02*
D03*
X194193Y39542D02*
D03*
Y11982D02*
D03*
X192224Y13951D02*
D03*
X198130Y21825D02*
D03*
X194193Y25762D02*
D03*
X196161Y33636D02*
D03*
X190256Y45447D02*
D03*
X192224Y49384D02*
D03*
X196161Y35605D02*
D03*
X194193Y17888D02*
D03*
Y19856D02*
D03*
Y6077D02*
D03*
Y45447D02*
D03*
X192224Y41510D02*
D03*
X194193Y10014D02*
D03*
Y8045D02*
D03*
X192224Y27730D02*
D03*
X194193Y4108D02*
D03*
X196161Y2140D02*
D03*
X194193Y43479D02*
D03*
X192224Y39542D02*
D03*
X190256Y11982D02*
D03*
X198130Y4108D02*
D03*
X190256Y15919D02*
D03*
X194193Y23793D02*
D03*
X196161D02*
D03*
Y4108D02*
D03*
Y25762D02*
D03*
X194193Y33636D02*
D03*
X190256Y49384D02*
D03*
X198130Y17888D02*
D03*
Y41510D02*
D03*
X192224Y23793D02*
D03*
X190256Y39542D02*
D03*
X194193Y15919D02*
D03*
X192224Y43479D02*
D03*
Y31667D02*
D03*
Y17888D02*
D03*
X194193Y2140D02*
D03*
X198130Y31667D02*
D03*
Y6077D02*
D03*
X192224Y11982D02*
D03*
X196161Y21825D02*
D03*
X190256Y33636D02*
D03*
X194193Y13951D02*
D03*
X192224Y29699D02*
D03*
Y47416D02*
D03*
X190256Y35605D02*
D03*
X192224Y6077D02*
D03*
X190256Y21825D02*
D03*
Y37573D02*
D03*
X198130Y39542D02*
D03*
Y19856D02*
D03*
X190256Y4108D02*
D03*
X196161Y11982D02*
D03*
X190256Y19856D02*
D03*
Y41510D02*
D03*
X192224Y8045D02*
D03*
X198130Y33636D02*
D03*
X192224Y45447D02*
D03*
X190256Y27730D02*
D03*
X196161Y6077D02*
D03*
X190256Y17888D02*
D03*
X198130Y43479D02*
D03*
Y29699D02*
D03*
X190256Y23793D02*
D03*
Y25762D02*
D03*
X196161Y10014D02*
D03*
X194193Y21825D02*
D03*
X192224Y4108D02*
D03*
X190256Y8045D02*
D03*
X192224Y33636D02*
D03*
X194193Y47416D02*
D03*
X190256Y10014D02*
D03*
X192224Y21825D02*
D03*
X198130Y11982D02*
D03*
X190256Y6077D02*
D03*
X198130Y2140D02*
D03*
X192224Y15919D02*
D03*
X196161Y41510D02*
D03*
X198130Y13951D02*
D03*
X123009Y124223D02*
D03*
X106483Y121923D02*
D03*
X112572Y106195D02*
D03*
X108465Y120545D02*
D03*
X101342Y134486D02*
D03*
X112658Y115932D02*
D03*
X100492Y115919D02*
D03*
X110383Y118835D02*
D03*
X168745Y115049D02*
D03*
X169917Y113236D02*
D03*
X167561Y113279D02*
D03*
X54823Y110998D02*
D03*
X61024Y121431D02*
D03*
X54232D02*
D03*
X47539Y121530D02*
D03*
X40945D02*
D03*
X169291Y134128D02*
D03*
X179626Y134423D02*
D03*
X175197Y132849D02*
D03*
X167273Y116724D02*
D03*
X169946Y116683D02*
D03*
X195276Y109817D02*
D03*
X193996Y107947D02*
D03*
X196457Y107750D02*
D03*
X219193Y26845D02*
D03*
X219094Y29699D02*
D03*
X216043D02*
D03*
X216329Y38418D02*
D03*
X157139Y111195D02*
D03*
X149409Y123400D02*
D03*
X151772D02*
D03*
X151860Y117396D02*
D03*
X159843Y109030D02*
D03*
X158957Y122415D02*
D03*
X158760Y93085D02*
D03*
X156335Y92790D02*
D03*
X144193Y126156D02*
D03*
X142224D02*
D03*
X141437Y132849D02*
D03*
X139469D02*
D03*
Y129305D02*
D03*
X147047Y123400D02*
D03*
X149854Y117396D02*
D03*
X77138Y118301D02*
D03*
X79626Y120152D02*
D03*
X75984Y107160D02*
D03*
X46850Y111089D02*
D03*
X42815D02*
D03*
X61262Y101992D02*
D03*
X63437Y100565D02*
D03*
X63494Y98007D02*
D03*
X14083Y71136D02*
D03*
X199457Y131512D02*
D03*
X197660Y129902D02*
D03*
X185430Y116216D02*
D03*
X185529Y114082D02*
D03*
X209941Y14049D02*
D03*
X207972Y41608D02*
D03*
X204035Y16018D02*
D03*
X209941Y2238D02*
D03*
X202067Y6175D02*
D03*
X209941Y12081D02*
D03*
X204035Y21923D02*
D03*
X202067Y10112D02*
D03*
X206004Y47514D02*
D03*
X204035Y33734D02*
D03*
X202067Y8144D02*
D03*
X204035Y4207D02*
D03*
X206004Y21923D02*
D03*
X207972Y10112D02*
D03*
X202067Y25860D02*
D03*
Y23892D02*
D03*
X209941Y29797D02*
D03*
Y43577D02*
D03*
X202067Y17986D02*
D03*
X207972Y6175D02*
D03*
X202067Y27829D02*
D03*
X204035Y45545D02*
D03*
X209941Y33734D02*
D03*
X204035Y8144D02*
D03*
X202067Y41608D02*
D03*
Y19955D02*
D03*
Y51451D02*
D03*
X207972Y12081D02*
D03*
X202067Y4207D02*
D03*
X209941Y19955D02*
D03*
Y39640D02*
D03*
X202067Y37671D02*
D03*
Y21923D02*
D03*
X204035Y6175D02*
D03*
X202067Y35703D02*
D03*
X204035Y47514D02*
D03*
Y29797D02*
D03*
X206004Y14049D02*
D03*
X202067Y33734D02*
D03*
X207972Y21923D02*
D03*
X204035Y12081D02*
D03*
X209941Y6175D02*
D03*
Y31766D02*
D03*
X206004Y2238D02*
D03*
X204035Y17986D02*
D03*
Y31766D02*
D03*
Y43577D02*
D03*
X206004Y16018D02*
D03*
X202067Y39640D02*
D03*
X204035Y23892D02*
D03*
X209941Y41608D02*
D03*
Y17986D02*
D03*
X202067Y49482D02*
D03*
X206004Y33734D02*
D03*
X207972Y25860D02*
D03*
Y4207D02*
D03*
Y23892D02*
D03*
X206004D02*
D03*
X202067Y16018D02*
D03*
X209941Y4207D02*
D03*
X202067Y12081D02*
D03*
X204035Y39640D02*
D03*
X206004Y43577D02*
D03*
X207972Y2238D02*
D03*
X206004Y4207D02*
D03*
X204035Y27829D02*
D03*
X206004Y8144D02*
D03*
Y10112D02*
D03*
X204035Y41608D02*
D03*
X206004Y45545D02*
D03*
Y6175D02*
D03*
Y19955D02*
D03*
Y17986D02*
D03*
X207972Y35703D02*
D03*
X204035Y49482D02*
D03*
X202067Y45545D02*
D03*
X207972Y33734D02*
D03*
X206004Y25860D02*
D03*
X209941Y21923D02*
D03*
X204035Y14049D02*
D03*
X206004Y12081D02*
D03*
Y39640D02*
D03*
X204035Y10112D02*
D03*
X202067Y14049D02*
D03*
X204035Y35703D02*
D03*
Y37671D02*
D03*
X207972Y31766D02*
D03*
X202067D02*
D03*
Y43577D02*
D03*
Y47514D02*
D03*
X207972Y19955D02*
D03*
X202067Y29797D02*
D03*
X209941Y23892D02*
D03*
Y25860D02*
D03*
X206004Y41608D02*
D03*
X209941Y27829D02*
D03*
X207972D02*
D03*
X206004Y31766D02*
D03*
X207972Y29797D02*
D03*
X204035Y25860D02*
D03*
Y19955D02*
D03*
X209941Y16018D02*
D03*
X207972Y45545D02*
D03*
Y17986D02*
D03*
X209941Y35703D02*
D03*
Y37671D02*
D03*
X207972D02*
D03*
Y39640D02*
D03*
Y43577D02*
D03*
X206004Y29797D02*
D03*
Y37671D02*
D03*
Y35703D02*
D03*
Y27829D02*
D03*
X209941Y8144D02*
D03*
X207972D02*
D03*
Y14049D02*
D03*
Y16018D02*
D03*
X209941Y10112D02*
D03*
X204035Y2238D02*
D03*
X202067D02*
D03*
X105701Y108674D02*
D03*
X105709Y110801D02*
D03*
X102067Y106864D02*
D03*
X100492Y108045D02*
D03*
Y110014D02*
D03*
Y111982D02*
D03*
Y113951D02*
D03*
X95374Y118675D02*
D03*
X90256D02*
D03*
X94193Y130093D02*
D03*
X115824Y104601D02*
D03*
X113793Y103044D02*
D03*
X112303Y117888D02*
D03*
X114272D02*
D03*
X116240Y119856D02*
D03*
X114272D02*
D03*
X112303D02*
D03*
X110335Y121825D02*
D03*
X112303D02*
D03*
X114272D02*
D03*
X116240D02*
D03*
X118209D02*
D03*
X109941Y129699D02*
D03*
X111909Y130093D02*
D03*
X110335Y131667D02*
D03*
X99705Y135998D02*
D03*
X96850Y147435D02*
D03*
X109153D02*
D03*
X109274Y143892D02*
D03*
X2854Y131274D02*
D03*
Y128911D02*
D03*
Y126943D02*
D03*
X18602Y105683D02*
D03*
X16634D02*
D03*
X14665D02*
D03*
X2854Y46234D02*
D03*
Y48203D02*
D03*
Y50171D02*
D03*
X218602Y184423D02*
D03*
X220571D02*
D03*
Y182061D02*
D03*
X215453Y134030D02*
D03*
Y136392D02*
D03*
Y138754D02*
D03*
X213878Y141510D02*
D03*
Y144266D02*
D03*
X216634Y141510D02*
D03*
Y144266D02*
D03*
X219390Y141510D02*
D03*
Y144266D02*
D03*
X207185Y82652D02*
D03*
X218602Y100171D02*
D03*
X218307Y19364D02*
D03*
X219390Y13163D02*
D03*
X213090Y226549D02*
D03*
X5610Y218675D02*
D03*
Y220644D02*
D03*
Y222612D02*
D03*
Y224581D02*
D03*
X33169Y196234D02*
D03*
Y198203D02*
D03*
Y200171D02*
D03*
X2854Y24187D02*
D03*
Y32061D02*
D03*
X3248Y14345D02*
D03*
Y11589D02*
D03*
Y9227D02*
D03*
Y6864D02*
D03*
X22343Y45742D02*
D03*
X13091Y15526D02*
D03*
X12697Y20644D02*
D03*
X3248Y40723D02*
D03*
X2854Y59227D02*
D03*
Y67790D02*
D03*
X2953Y76549D02*
D03*
X2854Y84423D02*
D03*
Y86392D02*
D03*
Y88360D02*
D03*
Y90329D02*
D03*
X9154Y89148D02*
D03*
X2067Y93479D02*
D03*
Y97022D02*
D03*
X200098Y149778D02*
D03*
X215199Y150854D02*
D03*
X217028Y149384D02*
D03*
Y151746D02*
D03*
X204823D02*
D03*
X213779Y149384D02*
D03*
X212465Y136570D02*
D03*
X210433Y136589D02*
D03*
X195866Y120250D02*
D03*
X193799Y120152D02*
D03*
X197109Y194167D02*
D03*
X206621Y228612D02*
D03*
X70386Y133242D02*
D03*
X67224Y141904D02*
D03*
X16035Y61392D02*
D03*
X23720Y106175D02*
D03*
X25197Y81569D02*
D03*
X38976Y111293D02*
D03*
X64272Y121530D02*
D03*
X31496Y144660D02*
D03*
X41240Y136687D02*
D03*
X123031Y121136D02*
D03*
X134252Y135678D02*
D03*
X136122Y129601D02*
D03*
X82185Y103414D02*
D03*
X84646Y101261D02*
D03*
X90256Y97998D02*
D03*
X87500Y97908D02*
D03*
X140354Y119364D02*
D03*
X141182Y92576D02*
D03*
X137500Y92494D02*
D03*
X155413Y96599D02*
D03*
X128247Y101866D02*
D03*
X131496Y102140D02*
D03*
X92815Y103427D02*
D03*
X89272Y107160D02*
D03*
X89468Y104305D02*
D03*
X84153Y107160D02*
D03*
X86713D02*
D03*
X3248Y54699D02*
D03*
X2854Y28419D02*
D03*
X53150Y134522D02*
D03*
X57087Y134620D02*
D03*
X44094Y121431D02*
D03*
X120374Y145841D02*
D03*
X45374Y137081D02*
D03*
X81890Y92475D02*
D03*
X183364Y130406D02*
D03*
X112008Y141149D02*
D03*
X114549Y141463D02*
D03*
X129761Y142282D02*
D03*
X148721Y136778D02*
D03*
X150144Y142410D02*
D03*
X128543Y121333D02*
D03*
X212853Y36654D02*
D03*
X181595Y109915D02*
D03*
X179232Y109719D02*
D03*
X216254Y91381D02*
D03*
X215958Y87998D02*
D03*
X217528Y89593D02*
D03*
X218840Y91330D02*
D03*
X218917Y87909D02*
D03*
X204823Y109817D02*
D03*
X173574Y116460D02*
D03*
X211442Y221038D02*
D03*
X219193Y176648D02*
D03*
X221162Y136786D02*
D03*
X199409Y125959D02*
D03*
X197638Y127534D02*
D03*
X199409Y128813D02*
D03*
X12894Y28518D02*
D03*
X13189Y11195D02*
D03*
X6791Y93577D02*
D03*
X2246Y101863D02*
D03*
X2264Y109289D02*
D03*
X2129Y145447D02*
D03*
X2093Y148793D02*
D03*
X215945Y5486D02*
D03*
X202756Y92888D02*
D03*
X92940Y106213D02*
D03*
X134015Y118380D02*
D03*
X125429Y118380D02*
D03*
X85152Y131560D02*
D03*
X80446Y147435D02*
D03*
X76083Y101845D02*
D03*
X84055Y98771D02*
D03*
X81496Y98793D02*
D03*
X33071Y76845D02*
D03*
X28740D02*
D03*
X27067Y79502D02*
D03*
X7505Y11884D02*
D03*
X12106Y225270D02*
D03*
X61417Y132553D02*
D03*
X64468Y132652D02*
D03*
X69390Y147435D02*
D03*
X116099Y107166D02*
D03*
X118434Y106118D02*
D03*
X136713Y133931D02*
D03*
X122633Y100458D02*
D03*
X126739Y92475D02*
D03*
X131698Y105973D02*
D03*
X134646Y106471D02*
D03*
X214935Y14837D02*
D03*
X150187Y146138D02*
D03*
X157972Y144439D02*
D03*
X156105Y147337D02*
D03*
X213779Y12278D02*
D03*
X204823Y122415D02*
D03*
X67421Y125171D02*
D03*
X57411Y121463D02*
D03*
X50787Y121431D02*
D03*
X77227Y92790D02*
D03*
X122539Y110211D02*
D03*
X148327Y106471D02*
D03*
X141485Y106364D02*
D03*
X6791Y96825D02*
D03*
X141437Y102104D02*
D03*
X65665Y179343D02*
D03*
X147027Y201319D02*
D03*
X148529Y199817D02*
D03*
X128831Y191431D02*
D03*
X126787Y192780D02*
D03*
X127188Y194886D02*
D03*
X125311Y194158D02*
D03*
X133738Y199201D02*
D03*
X142131Y194173D02*
D03*
X139671Y193468D02*
D03*
X151000Y216205D02*
D03*
X155144Y215828D02*
D03*
X159632Y218982D02*
D03*
X140819Y178581D02*
D03*
X138814Y180524D02*
D03*
X138798Y178460D02*
D03*
X137302Y177094D02*
D03*
X143421Y225457D02*
D03*
X141453D02*
D03*
X139386Y225555D02*
D03*
X137417Y225654D02*
D03*
X135449D02*
D03*
X133382D02*
D03*
X131315Y225555D02*
D03*
X166650Y212465D02*
D03*
X176839Y204283D02*
D03*
X176669Y208017D02*
D03*
X175590Y206226D02*
D03*
X173933Y204984D02*
D03*
Y207347D02*
D03*
X169679Y199161D02*
D03*
X164189Y202327D02*
D03*
X160055Y194748D02*
D03*
X164583Y194551D02*
D03*
X175902Y194354D02*
D03*
X176295Y190614D02*
D03*
X176394Y185102D02*
D03*
X174327Y186579D02*
D03*
X163023Y188335D02*
D03*
X163465Y179190D02*
D03*
X179051Y173882D02*
D03*
X162909Y157346D02*
D03*
X117339Y188842D02*
D03*
X119329Y188830D02*
D03*
X121387Y188842D02*
D03*
X123539D02*
D03*
X121613Y190985D02*
D03*
X119540Y190904D02*
D03*
X117352Y190985D02*
D03*
X113393Y194855D02*
D03*
X113697Y199069D02*
D03*
X92543Y202925D02*
D03*
X82201Y204591D02*
D03*
X81413Y206559D02*
D03*
Y208528D02*
D03*
X71943Y226551D02*
D03*
X69423Y226569D02*
D03*
X67373Y226588D02*
D03*
X65098Y226626D02*
D03*
X71079Y194256D02*
D03*
X76689Y194230D02*
D03*
X64681Y174374D02*
D03*
X106020Y210102D02*
D03*
X101886D02*
D03*
X97752D02*
D03*
X99819D02*
D03*
X103953D02*
D03*
X108087D02*
D03*
X97850Y206559D02*
D03*
X153069Y202854D02*
D03*
X154541Y201365D02*
D03*
X155511Y205408D02*
D03*
X152622Y208352D02*
D03*
X154101Y206901D02*
D03*
X108185Y206559D02*
D03*
X132299Y207642D02*
D03*
X123398Y182663D02*
D03*
X123146Y179787D02*
D03*
X167551Y201646D02*
D03*
X92437Y199512D02*
D03*
X119835Y226343D02*
D03*
X128362Y225161D02*
D03*
X134465Y220134D02*
D03*
X137811D02*
D03*
X161683Y227952D02*
D03*
X179150Y181891D02*
D03*
X152279Y171520D02*
D03*
X135744Y184906D02*
D03*
X100016Y182937D02*
D03*
X98047Y173980D02*
D03*
X99032Y176835D02*
D03*
X165712Y222963D02*
D03*
X123097Y201033D02*
D03*
X127001Y197129D02*
D03*
X145087Y200468D02*
D03*
X107981Y217340D02*
D03*
X99713D02*
D03*
X97646D02*
D03*
X101780D02*
D03*
X103847D02*
D03*
X88106Y217189D02*
D03*
X105914Y217340D02*
D03*
X140961Y180575D02*
D03*
X79620Y157372D02*
D03*
X132693Y180968D02*
D03*
X123146Y175686D02*
D03*
X121177D02*
D03*
X119209D02*
D03*
X123146Y177749D02*
D03*
X119209D02*
D03*
X121177D02*
D03*
X119209Y179787D02*
D03*
X121177D02*
D03*
X125037Y197529D02*
D03*
X121664Y199122D02*
D03*
X123988Y195722D02*
D03*
X124134Y199295D02*
D03*
X122899Y197489D02*
D03*
X141453Y220240D02*
D03*
X134760Y215516D02*
D03*
X167195Y196861D02*
D03*
X149346Y211290D02*
D03*
X142142Y203311D02*
D03*
X149524Y195437D02*
D03*
X147976Y197524D02*
D03*
X156983Y203919D02*
D03*
X146566Y199017D02*
D03*
X151157Y209817D02*
D03*
X147258Y208649D02*
D03*
X153571Y204961D02*
D03*
X151401Y196872D02*
D03*
X150180Y205799D02*
D03*
X145575Y202771D02*
D03*
X152092Y206413D02*
D03*
X148715Y207264D02*
D03*
X156453Y201979D02*
D03*
X143622Y201933D02*
D03*
X154981Y203468D02*
D03*
X144118Y204155D02*
D03*
X150627Y207878D02*
D03*
X149929Y198361D02*
D03*
X149169Y209263D02*
D03*
X151659Y204347D02*
D03*
X178165Y223259D02*
D03*
X178134Y218696D02*
D03*
X128728Y193624D02*
D03*
X179051Y177425D02*
D03*
X175902D02*
D03*
X158346Y165332D02*
D03*
X154354Y169453D02*
D03*
X158409Y169441D02*
D03*
Y171508D02*
D03*
X154292Y165344D02*
D03*
X152279Y167386D02*
D03*
X154354D02*
D03*
X156331Y165380D02*
D03*
X152279Y169453D02*
D03*
X158409Y167374D02*
D03*
X156393Y169489D02*
D03*
Y171555D02*
D03*
Y167422D02*
D03*
X154354Y171520D02*
D03*
X152217Y165344D02*
D03*
X121289Y182588D02*
D03*
X119338Y184646D02*
D03*
X119230Y182575D02*
D03*
X123505Y184734D02*
D03*
X117385Y186717D02*
D03*
X125469Y182663D02*
D03*
X117240Y182588D02*
D03*
X121396Y184659D02*
D03*
X119376Y186705D02*
D03*
X117348Y184659D02*
D03*
X121434Y186717D02*
D03*
X123543Y186793D02*
D03*
X125576Y184734D02*
D03*
X169504Y227917D02*
D03*
X79505Y225886D02*
D03*
X77194Y220255D02*
D03*
X79213Y220449D02*
D03*
X76669Y218215D02*
D03*
X80048Y218177D02*
D03*
X77269Y225925D02*
D03*
X76640Y213336D02*
D03*
X79608Y213192D02*
D03*
X100902Y208331D02*
D03*
X101984Y206559D02*
D03*
X108973Y215516D02*
D03*
X109169Y208331D02*
D03*
X102772Y215516D02*
D03*
X100705D02*
D03*
X106905D02*
D03*
X99917Y206559D02*
D03*
X107102Y208331D02*
D03*
X105035D02*
D03*
X98638Y215516D02*
D03*
X98835Y208331D02*
D03*
X106118Y206559D02*
D03*
X104051D02*
D03*
X102969Y208331D02*
D03*
X104839Y215516D02*
D03*
X80517Y227992D02*
D03*
X78155Y228090D02*
D03*
X75989D02*
D03*
X74327Y218665D02*
D03*
Y220831D02*
D03*
X72457Y221815D02*
D03*
X72454Y219754D02*
D03*
X72440Y217669D02*
D03*
X70373D02*
D03*
X70387Y219754D02*
D03*
X70390Y221815D02*
D03*
X113915Y204697D02*
D03*
X105960Y176971D02*
D03*
X110136Y181115D02*
D03*
X112151Y183134D02*
D03*
X110073Y177007D02*
D03*
X110136Y179048D02*
D03*
X112151Y179000D02*
D03*
X106022Y181079D02*
D03*
Y183146D02*
D03*
Y179012D02*
D03*
X108034Y176971D02*
D03*
X110136Y183182D02*
D03*
X112089Y176959D02*
D03*
X108097Y179012D02*
D03*
Y183146D02*
D03*
X112151Y181068D02*
D03*
X108097Y181079D02*
D03*
X87824Y181007D02*
D03*
X93953Y178928D02*
D03*
X87761Y176898D02*
D03*
X89836D02*
D03*
X93953Y180995D02*
D03*
X89899Y178940D02*
D03*
X87824D02*
D03*
X91938Y183109D02*
D03*
X89899Y181007D02*
D03*
Y183073D02*
D03*
X93891Y176886D02*
D03*
X93953Y183062D02*
D03*
X91875Y176934D02*
D03*
X91938Y178975D02*
D03*
Y181042D02*
D03*
X87824Y183073D02*
D03*
X117240Y179787D02*
D03*
Y175686D02*
D03*
Y177749D02*
D03*
X129354Y164060D02*
D03*
Y166058D02*
D03*
Y168095D02*
D03*
X127327Y164060D02*
D03*
Y166058D02*
D03*
Y168095D02*
D03*
X125319Y164121D02*
D03*
Y166119D02*
D03*
Y168157D02*
D03*
X123302Y164101D02*
D03*
Y166099D02*
D03*
Y168136D02*
D03*
X121254Y164070D02*
D03*
Y166068D02*
D03*
Y168105D02*
D03*
X119257Y164121D02*
D03*
Y166119D02*
D03*
Y168157D02*
D03*
X117240Y168075D02*
D03*
Y166037D02*
D03*
Y164039D02*
D03*
X169996Y185791D02*
D03*
X89484Y172898D02*
D03*
X92043D02*
D03*
X94602D02*
D03*
X107595Y172799D02*
D03*
X110153D02*
D03*
X112713D02*
D03*
X84169Y207347D02*
D03*
X85350Y203409D02*
D03*
X177513Y227917D02*
D03*
X83579Y195204D02*
D03*
X21260Y253150D02*
D03*
X14567D02*
D03*
X11811Y246457D02*
D03*
X24016D02*
D03*
X157272Y60353D02*
D03*
X75910Y38378D02*
D03*
X74408Y39880D02*
D03*
X94106Y48266D02*
D03*
X96150Y46917D02*
D03*
X95749Y44811D02*
D03*
X97626Y45539D02*
D03*
X89199Y40496D02*
D03*
X80805Y45524D02*
D03*
X83266Y46228D02*
D03*
X71937Y23492D02*
D03*
X67793Y23869D02*
D03*
X63305Y20715D02*
D03*
X82118Y61116D02*
D03*
X84123Y59173D02*
D03*
X84139Y61237D02*
D03*
X85635Y62602D02*
D03*
X79516Y14240D02*
D03*
X81484D02*
D03*
X83551Y14142D02*
D03*
X85520Y14043D02*
D03*
X87488D02*
D03*
X89555D02*
D03*
X91622Y14142D02*
D03*
X56287Y27232D02*
D03*
X46098Y35414D02*
D03*
X46268Y31680D02*
D03*
X47347Y33470D02*
D03*
X49004Y34713D02*
D03*
Y32350D02*
D03*
X53258Y40535D02*
D03*
X58748Y37370D02*
D03*
X62882Y44949D02*
D03*
X58354Y45146D02*
D03*
X47035Y45342D02*
D03*
X46642Y49083D02*
D03*
X46543Y54594D02*
D03*
X48610Y53118D02*
D03*
X59913Y51362D02*
D03*
X59472Y60507D02*
D03*
X43886Y65815D02*
D03*
X60028Y82350D02*
D03*
X105598Y50854D02*
D03*
X103608Y50867D02*
D03*
X101550Y50854D02*
D03*
X99398D02*
D03*
X101324Y48712D02*
D03*
X103397Y48793D02*
D03*
X105585Y48712D02*
D03*
X109544Y44841D02*
D03*
X109240Y40627D02*
D03*
X130394Y36772D02*
D03*
X140736Y35106D02*
D03*
X141524Y33138D02*
D03*
Y31169D02*
D03*
X150994Y13146D02*
D03*
X153514Y13127D02*
D03*
X155564Y13109D02*
D03*
X157839Y13071D02*
D03*
X151858Y45441D02*
D03*
X146248Y45467D02*
D03*
X158256Y65323D02*
D03*
X116917Y29594D02*
D03*
X121051D02*
D03*
X125185D02*
D03*
X123118D02*
D03*
X118984D02*
D03*
X114850D02*
D03*
X125087Y33138D02*
D03*
X69868Y36843D02*
D03*
X68396Y38332D02*
D03*
X67426Y34289D02*
D03*
X70315Y31345D02*
D03*
X68836Y32796D02*
D03*
X114752Y33138D02*
D03*
X90638Y32055D02*
D03*
X99539Y57034D02*
D03*
X99791Y59909D02*
D03*
X55386Y38051D02*
D03*
X130500Y40185D02*
D03*
X103102Y13354D02*
D03*
X94575Y14535D02*
D03*
X88472Y19563D02*
D03*
X85126D02*
D03*
X61254Y11745D02*
D03*
X43787Y57806D02*
D03*
X70657Y68177D02*
D03*
X87193Y54791D02*
D03*
X122921Y56760D02*
D03*
X124890Y65716D02*
D03*
X123906Y62862D02*
D03*
X57225Y16734D02*
D03*
X99840Y38664D02*
D03*
X95936Y42568D02*
D03*
X77850Y39229D02*
D03*
X114956Y22357D02*
D03*
X123224D02*
D03*
X125291D02*
D03*
X121157D02*
D03*
X119090D02*
D03*
X134831Y22508D02*
D03*
X117023Y22357D02*
D03*
X81976Y59122D02*
D03*
X143317Y82325D02*
D03*
X90244Y58728D02*
D03*
X99791Y64011D02*
D03*
X101760D02*
D03*
X103728D02*
D03*
X99791Y61948D02*
D03*
X103728D02*
D03*
X101760D02*
D03*
X103728Y59909D02*
D03*
X101760D02*
D03*
X97900Y42168D02*
D03*
X101273Y40575D02*
D03*
X98949Y43974D02*
D03*
X98803Y40402D02*
D03*
X100038Y42208D02*
D03*
X81484Y19457D02*
D03*
X88177Y24181D02*
D03*
X55742Y42835D02*
D03*
X73591Y28407D02*
D03*
X80795Y36386D02*
D03*
X73413Y44260D02*
D03*
X74962Y42173D02*
D03*
X65954Y35778D02*
D03*
X76371Y40680D02*
D03*
X71780Y29880D02*
D03*
X75679Y31048D02*
D03*
X69366Y34736D02*
D03*
X71536Y42825D02*
D03*
X72757Y33898D02*
D03*
X77362Y36926D02*
D03*
X70845Y33284D02*
D03*
X74222Y32433D02*
D03*
X66484Y37718D02*
D03*
X79315Y37764D02*
D03*
X67957Y36229D02*
D03*
X78819Y35541D02*
D03*
X72310Y31819D02*
D03*
X73008Y41336D02*
D03*
X73768Y30434D02*
D03*
X71278Y35350D02*
D03*
X44772Y16438D02*
D03*
X44803Y21000D02*
D03*
X94209Y46073D02*
D03*
X43886Y62272D02*
D03*
X47035D02*
D03*
X64591Y74364D02*
D03*
X68583Y70244D02*
D03*
X64528Y70256D02*
D03*
Y68189D02*
D03*
X68645Y74353D02*
D03*
X70657Y72311D02*
D03*
X68583D02*
D03*
X66606Y74317D02*
D03*
X70657Y70244D02*
D03*
X64528Y72323D02*
D03*
X66544Y70208D02*
D03*
Y68141D02*
D03*
Y72275D02*
D03*
X68583Y68177D02*
D03*
X70720Y74353D02*
D03*
X101648Y57109D02*
D03*
X103599Y55050D02*
D03*
X103707Y57122D02*
D03*
X99432Y54963D02*
D03*
X105552Y52979D02*
D03*
X97468Y57034D02*
D03*
X105697Y57109D02*
D03*
X101541Y55038D02*
D03*
X103561Y52992D02*
D03*
X105589Y55038D02*
D03*
X101503Y52979D02*
D03*
X99394Y52904D02*
D03*
X97361Y54963D02*
D03*
X53433Y11779D02*
D03*
X143432Y13811D02*
D03*
X145743Y19442D02*
D03*
X143724Y19248D02*
D03*
X146268Y21481D02*
D03*
X142889Y21520D02*
D03*
X145668Y13772D02*
D03*
X146297Y26360D02*
D03*
X143329Y26505D02*
D03*
X122035Y31366D02*
D03*
X120953Y33138D02*
D03*
X113965Y24181D02*
D03*
X113768Y31366D02*
D03*
X120165Y24181D02*
D03*
X122232D02*
D03*
X116032D02*
D03*
X123020Y33138D02*
D03*
X115835Y31366D02*
D03*
X117902D02*
D03*
X124299Y24181D02*
D03*
X124102Y31366D02*
D03*
X116819Y33138D02*
D03*
X118886D02*
D03*
X119968Y31366D02*
D03*
X118098Y24181D02*
D03*
X142420Y11705D02*
D03*
X144782Y11607D02*
D03*
X146948D02*
D03*
X148610Y21032D02*
D03*
Y18866D02*
D03*
X150480Y17882D02*
D03*
X150483Y19943D02*
D03*
X150497Y22028D02*
D03*
X152564D02*
D03*
X152550Y19943D02*
D03*
X152547Y17882D02*
D03*
X109022Y35000D02*
D03*
X116977Y62726D02*
D03*
X112801Y58582D02*
D03*
X110786Y56563D02*
D03*
X112864Y62690D02*
D03*
X112801Y60649D02*
D03*
X110786Y60696D02*
D03*
X116915Y58618D02*
D03*
Y56551D02*
D03*
Y60684D02*
D03*
X114903Y62726D02*
D03*
X112801Y56515D02*
D03*
X110848Y62738D02*
D03*
X114840Y60684D02*
D03*
Y56551D02*
D03*
X110786Y58629D02*
D03*
X114840Y58618D02*
D03*
X135113Y58690D02*
D03*
X128984Y60769D02*
D03*
X135176Y62799D02*
D03*
X133101D02*
D03*
X128984Y58702D02*
D03*
X133038Y60757D02*
D03*
X135113D02*
D03*
X130999Y56588D02*
D03*
X133038Y58690D02*
D03*
Y56623D02*
D03*
X129046Y62811D02*
D03*
X128984Y56635D02*
D03*
X131062Y62763D02*
D03*
X130999Y60721D02*
D03*
Y58655D02*
D03*
X135113Y56623D02*
D03*
X105697Y59909D02*
D03*
Y64011D02*
D03*
Y61948D02*
D03*
X93583Y75637D02*
D03*
Y73639D02*
D03*
Y71602D02*
D03*
X95610Y75637D02*
D03*
Y73639D02*
D03*
Y71602D02*
D03*
X97618Y75576D02*
D03*
Y73578D02*
D03*
Y71540D02*
D03*
X99635Y75596D02*
D03*
Y73598D02*
D03*
Y71561D02*
D03*
X101683Y75627D02*
D03*
Y73629D02*
D03*
Y71591D02*
D03*
X103680Y75576D02*
D03*
Y73578D02*
D03*
Y71540D02*
D03*
X105697Y71622D02*
D03*
Y73659D02*
D03*
Y75657D02*
D03*
X52941Y53905D02*
D03*
X133453Y66799D02*
D03*
X130894D02*
D03*
X128335D02*
D03*
X115342Y66898D02*
D03*
X112784D02*
D03*
X110224D02*
D03*
X138768Y32350D02*
D03*
X137587Y36287D02*
D03*
X45424Y11779D02*
D03*
X139358Y44493D02*
D03*
D77*
X25000Y210266D02*
D03*
Y24654D02*
D03*
X210630Y204778D02*
D03*
X71465Y165354D02*
D03*
X171465D02*
D03*
X151472Y74343D02*
D03*
X51472D02*
D03*
D78*
X25787Y191707D02*
D03*
X21850D02*
D03*
X25787Y187770D02*
D03*
X21850D02*
D03*
X213583Y159522D02*
D03*
X209646D02*
D03*
X213583Y155585D02*
D03*
X209646D02*
D03*
D79*
X12650Y130730D02*
D03*
D80*
X23228Y120152D02*
D03*
D81*
X28268Y172788D02*
D03*
D82*
X20683Y182495D02*
D03*
M02*
