G04*
G04 #@! TF.GenerationSoftware,Altium Limited,Altium Designer,21.7.2 (23)*
G04*
G04 Layer_Physical_Order=4*
G04 Layer_Color=16711680*
%FSLAX25Y25*%
%MOIN*%
G70*
G04*
G04 #@! TF.SameCoordinates,69D8725E-F89C-4CC4-9FD4-90FE9EACA07C*
G04*
G04*
G04 #@! TF.FilePolarity,Positive*
G04*
G01*
G75*
%ADD11C,0.00787*%
%ADD15C,0.01000*%
%ADD19R,0.02500X0.02362*%
%ADD20R,0.02362X0.02756*%
%ADD23R,0.03937X0.02165*%
%ADD29R,0.02362X0.02500*%
%ADD30R,0.03800X0.03937*%
%ADD103C,0.01181*%
%ADD104C,0.01575*%
%ADD107C,0.17717*%
%ADD108C,0.01102*%
%ADD109C,0.01476*%
%ADD110C,0.02067*%
%ADD111C,0.01772*%
%ADD112C,0.02362*%
%ADD113C,0.01968*%
%ADD114R,0.02165X0.01654*%
%ADD115R,0.01181X0.02362*%
%ADD116R,0.02362X0.01181*%
%ADD117R,0.01575X0.07874*%
G36*
X221814Y232602D02*
X222059Y232516D01*
X222279Y232378D01*
X222463Y232194D01*
X222601Y231974D01*
X222687Y231729D01*
X222721Y231426D01*
Y167428D01*
X222221Y167094D01*
X222144Y167126D01*
X221557D01*
X221385Y167055D01*
X220885Y167389D01*
Y176967D01*
X221133Y177215D01*
X221358Y177758D01*
Y178345D01*
X221133Y178887D01*
X220718Y179303D01*
X220176Y179527D01*
X219588D01*
X219046Y179303D01*
X218630Y178887D01*
X218531Y178648D01*
X218031Y178747D01*
Y180510D01*
X217955Y180894D01*
X217737Y181220D01*
X200511Y198445D01*
Y217721D01*
X206591Y223800D01*
X210695D01*
X210878Y223417D01*
X210880Y223277D01*
X210655Y222735D01*
Y222147D01*
X210880Y221605D01*
X211295Y221189D01*
X211838Y220965D01*
X212425D01*
X212968Y221189D01*
X213383Y221605D01*
X213608Y222147D01*
Y222735D01*
X213383Y223277D01*
X213131Y223529D01*
X213035Y224140D01*
X213260Y224682D01*
Y225270D01*
X213035Y225813D01*
X212619Y226228D01*
X212077Y226453D01*
X211490D01*
X210947Y226228D01*
X210532Y225813D01*
X210529Y225807D01*
X206175D01*
X205791Y225730D01*
X205465Y225513D01*
X198798Y218846D01*
X198581Y218520D01*
X198504Y218136D01*
Y198030D01*
X198581Y197646D01*
X198798Y197320D01*
X202968Y193151D01*
X202849Y192834D01*
X202721Y192690D01*
X202354Y192731D01*
X202308Y192728D01*
X202264Y192736D01*
X190498D01*
X190194Y192771D01*
X189949Y192857D01*
X189729Y192995D01*
X189545Y193178D01*
X189407Y193399D01*
X189321Y193644D01*
X189287Y193947D01*
Y223504D01*
X189321Y223808D01*
X189407Y224053D01*
X189545Y224273D01*
X189729Y224457D01*
X189949Y224595D01*
X190194Y224681D01*
X190498Y224715D01*
X202264D01*
X202308Y224724D01*
X202354Y224720D01*
X202792Y224769D01*
X202878Y224797D01*
X202967Y224809D01*
X203383Y224955D01*
X203461Y225001D01*
X203545Y225033D01*
X203918Y225268D01*
X203984Y225329D01*
X204059Y225379D01*
X204370Y225691D01*
X204421Y225766D01*
X204483Y225832D01*
X204717Y226205D01*
X204749Y226289D01*
X204795Y226367D01*
X204941Y226783D01*
X204953Y226872D01*
X204981Y226958D01*
X205030Y227396D01*
X205026Y227442D01*
X205035Y227486D01*
Y231426D01*
X205069Y231729D01*
X205155Y231974D01*
X205293Y232194D01*
X205477Y232378D01*
X205697Y232516D01*
X205943Y232602D01*
X206246Y232636D01*
X221510D01*
X221814Y232602D01*
D02*
G37*
G36*
X34018Y232602D02*
X34263Y232516D01*
X34484Y232378D01*
X34667Y232194D01*
X34806Y231974D01*
X34891Y231729D01*
X34926Y231426D01*
Y215857D01*
X34435Y215760D01*
X34237Y216238D01*
X33181Y217818D01*
X31838Y219162D01*
X30258Y220217D01*
X28503Y220944D01*
X26639Y221315D01*
X24739D01*
X22875Y220944D01*
X21120Y220217D01*
X19540Y219162D01*
X18197Y217818D01*
X17141Y216238D01*
X16414Y214483D01*
X16366Y214240D01*
X15866Y214290D01*
Y223601D01*
X17229Y224964D01*
X17518D01*
X18061Y225189D01*
X18476Y225604D01*
X18701Y226147D01*
Y226734D01*
X18476Y227276D01*
X18061Y227692D01*
X17518Y227917D01*
X16931D01*
X16388Y227692D01*
X15973Y227276D01*
X15748Y226734D01*
Y226322D01*
X14153Y224726D01*
X13935Y224401D01*
X13859Y224017D01*
Y206496D01*
X13935Y206112D01*
X14153Y205786D01*
X22930Y197009D01*
X23256Y196791D01*
X23640Y196715D01*
X26079D01*
X27535Y195258D01*
X27252Y194834D01*
X26852Y195000D01*
X26101D01*
X25406Y194712D01*
X24874Y194181D01*
X24779Y193949D01*
X24237D01*
X24141Y194181D01*
X23610Y194712D01*
X22915Y195000D01*
X22163D01*
X21469Y194712D01*
X20937Y194181D01*
X20650Y193486D01*
Y192734D01*
X20937Y192040D01*
X21469Y191508D01*
X21700Y191412D01*
Y190871D01*
X21469Y190775D01*
X20937Y190244D01*
X20650Y189549D01*
Y188797D01*
X20937Y188103D01*
X21469Y187571D01*
X22163Y187284D01*
X22915D01*
X23610Y187571D01*
X24141Y188103D01*
X24237Y188334D01*
X24779D01*
X24874Y188103D01*
X25406Y187571D01*
X26101Y187284D01*
X26852D01*
X27453Y187532D01*
X27953Y187324D01*
Y175693D01*
X27953Y175693D01*
X27455Y175195D01*
X27185Y174543D01*
Y173839D01*
X27455Y173187D01*
X27953Y172689D01*
X27953Y172689D01*
Y138563D01*
X28030Y138179D01*
X28247Y137853D01*
X30678Y135422D01*
X30487Y134960D01*
X27087D01*
X27028Y134949D01*
X26969Y134960D01*
X16127D01*
X4295Y146793D01*
Y147144D01*
X4070Y147687D01*
X3804Y147953D01*
Y149131D01*
X4033Y149361D01*
X4258Y149903D01*
Y150490D01*
X4033Y151033D01*
X3618Y151449D01*
X3076Y151673D01*
X2488D01*
X1992Y151468D01*
X1764Y151550D01*
X1492Y151702D01*
Y192325D01*
X1992Y192424D01*
X2095Y192175D01*
X2510Y191760D01*
X3053Y191535D01*
X3640D01*
X4183Y191760D01*
X4458Y192035D01*
X14079D01*
X14300Y191814D01*
X14843Y191590D01*
X15430D01*
X15912Y191789D01*
X16180Y191688D01*
X16412Y191546D01*
Y140650D01*
X16481Y140301D01*
X16679Y140005D01*
X19094Y137589D01*
Y137108D01*
X19319Y136565D01*
X19735Y136150D01*
X20277Y135925D01*
X20865D01*
X21407Y136150D01*
X21823Y136565D01*
X22047Y137108D01*
Y137695D01*
X21823Y138238D01*
X21407Y138653D01*
X20865Y138878D01*
X20383D01*
X18234Y141027D01*
Y196917D01*
X18574Y197257D01*
X18799Y197800D01*
Y198387D01*
X18574Y198930D01*
X18159Y199345D01*
X17616Y199570D01*
X17029D01*
X16487Y199345D01*
X16071Y198930D01*
X15846Y198387D01*
Y197800D01*
X16071Y197257D01*
X16412Y196917D01*
Y194586D01*
X16180Y194445D01*
X15912Y194343D01*
X15430Y194543D01*
X14843D01*
X14300Y194318D01*
X14025Y194043D01*
X4404D01*
X4183Y194263D01*
X3640Y194488D01*
X3053D01*
X2510Y194263D01*
X2095Y193848D01*
X1992Y193599D01*
X1492Y193699D01*
Y231426D01*
X1526Y231729D01*
X1612Y231974D01*
X1750Y232194D01*
X1934Y232378D01*
X2154Y232516D01*
X2399Y232602D01*
X2703Y232636D01*
X33715D01*
X34018Y232602D01*
D02*
G37*
G36*
X16414Y208856D02*
X17141Y207101D01*
X18197Y205521D01*
X19540Y204177D01*
X21120Y203122D01*
X22875Y202395D01*
X24739Y202024D01*
X26639D01*
X28503Y202395D01*
X30258Y203122D01*
X31838Y204177D01*
X33181Y205521D01*
X34237Y207101D01*
X34435Y207579D01*
X34926Y207482D01*
Y194487D01*
X34865Y194450D01*
X34426Y194334D01*
X34104Y194656D01*
X33561Y194880D01*
X32974D01*
X32431Y194656D01*
X32016Y194240D01*
X31791Y193698D01*
Y193110D01*
X32016Y192568D01*
X32431Y192152D01*
X32974Y191928D01*
X33561D01*
X34104Y192152D01*
X34426Y192474D01*
X34865Y192357D01*
X34926Y192321D01*
Y152480D01*
X34934Y152436D01*
X34931Y152390D01*
X34980Y151952D01*
X35007Y151866D01*
X35020Y151777D01*
X35166Y151361D01*
X35211Y151283D01*
X35244Y151199D01*
X35478Y150826D01*
X35540Y150760D01*
X35590Y150685D01*
X35902Y150373D01*
X35977Y150323D01*
X36042Y150261D01*
X36416Y150027D01*
X36500Y149995D01*
X36578Y149949D01*
X36994Y149803D01*
X37083Y149791D01*
X37169Y149763D01*
X37607Y149714D01*
X37652Y149718D01*
X37697Y149709D01*
X50787D01*
Y146424D01*
X56455D01*
X60168Y142710D01*
X60494Y142493D01*
X60878Y142417D01*
X66716D01*
X67077Y142055D01*
X67620Y141831D01*
X68207D01*
X68750Y142055D01*
X69165Y142471D01*
X69390Y143013D01*
Y143601D01*
X69338Y143726D01*
X69193Y144193D01*
X69193Y144193D01*
X69193Y144193D01*
Y147066D01*
X69693Y147400D01*
X69785Y147362D01*
X70372D01*
X70661Y147482D01*
X71161Y147180D01*
Y146752D01*
X76112D01*
Y143307D01*
X80187D01*
Y146555D01*
X80249D01*
Y146555D01*
X80749Y146829D01*
X80774Y146816D01*
Y146555D01*
X84849D01*
Y149709D01*
X88809D01*
Y147760D01*
X88598Y147249D01*
Y146662D01*
X88822Y146119D01*
X89238Y145704D01*
X89780Y145479D01*
X90368D01*
X90910Y145704D01*
X91325Y146119D01*
X91465Y146457D01*
X92884D01*
Y149709D01*
X99796D01*
Y147065D01*
X99791Y147064D01*
X99531Y146890D01*
X99531Y146890D01*
X98343Y145702D01*
X92421D01*
Y141627D01*
X92421D01*
X92585Y141127D01*
X85898Y134440D01*
X85547D01*
X85004Y134215D01*
X84589Y133800D01*
X84364Y133257D01*
Y132670D01*
X84589Y132127D01*
X85004Y131712D01*
X85547Y131487D01*
X86134D01*
X86677Y131712D01*
X87092Y132127D01*
X87317Y132670D01*
Y133020D01*
X94139Y139843D01*
X100000D01*
X100384Y139919D01*
X100710Y140137D01*
X103388Y142815D01*
X103739D01*
X104281Y143040D01*
X104697Y143455D01*
X104921Y143998D01*
Y144585D01*
X104741Y145019D01*
X104958Y145519D01*
X107874D01*
Y141726D01*
X110353D01*
X110544Y141264D01*
X96570Y127289D01*
X75112D01*
X74763Y127220D01*
X74467Y127022D01*
X74229Y126784D01*
X73720Y126982D01*
X73542Y127411D01*
X73127Y127826D01*
X72584Y128051D01*
X72142D01*
X69114Y131079D01*
X68853Y131254D01*
X68546Y131315D01*
X28021D01*
X27714Y131254D01*
X27454Y131079D01*
X27454Y131079D01*
X26234Y129859D01*
X26082Y129922D01*
X25495D01*
X24952Y129697D01*
X24537Y129282D01*
X24312Y128739D01*
Y128152D01*
X24537Y127609D01*
X24952Y127194D01*
X25495Y126969D01*
X25671D01*
X26087Y126924D01*
X26133Y126507D01*
Y126331D01*
X26357Y125789D01*
X26773Y125373D01*
X27315Y125148D01*
X27903D01*
X28176Y125262D01*
X28559Y124879D01*
X28446Y124606D01*
Y124018D01*
X28670Y123476D01*
X29086Y123060D01*
X29628Y122836D01*
X30216D01*
X30758Y123060D01*
X31174Y123476D01*
X31398Y124018D01*
Y124503D01*
X32668Y125772D01*
X36922D01*
X37130Y125272D01*
X34405Y122547D01*
X33775D01*
X33514Y122808D01*
X32972Y123032D01*
X32384D01*
X31842Y122808D01*
X31426Y122392D01*
X31202Y121850D01*
Y121262D01*
X31426Y120720D01*
X31842Y120304D01*
X32384Y120080D01*
X32972D01*
X33514Y120304D01*
X33930Y120720D01*
X34021Y120941D01*
X34737D01*
X35045Y121002D01*
X35305Y121177D01*
X38334Y124206D01*
X43360D01*
X43567Y123706D01*
X43532Y123671D01*
X43307Y123128D01*
Y122541D01*
X43532Y121998D01*
X43947Y121583D01*
X44490Y121358D01*
X45077D01*
X45620Y121583D01*
X46035Y121998D01*
X46260Y122541D01*
Y123128D01*
X46035Y123671D01*
X46000Y123706D01*
X46207Y124206D01*
X50052D01*
X50260Y123706D01*
X50225Y123671D01*
X50000Y123128D01*
Y122541D01*
X50225Y121998D01*
X50640Y121583D01*
X51183Y121358D01*
X51770D01*
X52313Y121583D01*
X52728Y121998D01*
X52953Y122541D01*
Y123128D01*
X52728Y123671D01*
X52693Y123706D01*
X52900Y124206D01*
X56644D01*
X56851Y123706D01*
X56848Y123703D01*
X56623Y123160D01*
Y122573D01*
X56848Y122030D01*
X57263Y121615D01*
X57806Y121390D01*
X58394D01*
X58936Y121615D01*
X59351Y122030D01*
X59576Y122573D01*
Y123160D01*
X59351Y123703D01*
X59348Y123706D01*
X59556Y124206D01*
X63438D01*
X63578Y123981D01*
X63683Y123706D01*
X63484Y123227D01*
Y122639D01*
X63709Y122097D01*
X64124Y121681D01*
X64667Y121457D01*
X65254D01*
X65797Y121681D01*
X66212Y122097D01*
X66383Y122509D01*
X66883Y122409D01*
Y122292D01*
X67108Y121749D01*
X67523Y121334D01*
X67663Y120735D01*
X67576Y120612D01*
X36531D01*
X36183Y120543D01*
X35887Y120345D01*
X24597Y109055D01*
X24116D01*
X23573Y108830D01*
X23158Y108415D01*
X22933Y107872D01*
Y107285D01*
X23158Y106743D01*
X23573Y106327D01*
X24116Y106102D01*
X24703D01*
X25246Y106327D01*
X25661Y106743D01*
X25886Y107285D01*
Y107766D01*
X36909Y118790D01*
X39436D01*
X39628Y118328D01*
X32107Y110807D01*
X31909Y110511D01*
X31840Y110162D01*
Y97379D01*
X23642Y89181D01*
X23161D01*
X22618Y88956D01*
X22203Y88541D01*
X21978Y87998D01*
Y87411D01*
X22203Y86868D01*
X22618Y86453D01*
X23161Y86228D01*
X23748D01*
X24291Y86453D01*
X24706Y86868D01*
X24931Y87411D01*
Y87892D01*
X33395Y96357D01*
X33593Y96653D01*
X33662Y97001D01*
Y109785D01*
X41273Y117396D01*
X60174D01*
X60508Y116896D01*
X60427Y116701D01*
Y116113D01*
X60652Y115571D01*
X61067Y115155D01*
X61610Y114931D01*
X62197D01*
X62740Y115155D01*
X63155Y115571D01*
X63380Y116113D01*
Y116701D01*
X63299Y116896D01*
X63633Y117396D01*
X69012D01*
X69360Y117465D01*
X69656Y117663D01*
X71231Y119238D01*
X71821Y119120D01*
X71892Y118947D01*
X72047Y118792D01*
Y109449D01*
X72736D01*
Y107906D01*
X65889Y101060D01*
X65465Y101343D01*
X65603Y101675D01*
Y102262D01*
X65378Y102805D01*
X64963Y103220D01*
X64420Y103445D01*
X63833D01*
X63808Y103435D01*
X63427Y103689D01*
X63202Y104232D01*
X62787Y104647D01*
X62244Y104872D01*
X61657D01*
X61115Y104647D01*
X60854Y104387D01*
X60358D01*
X59855Y104891D01*
X59594Y105065D01*
X59287Y105126D01*
X56041D01*
X49002Y112165D01*
X49016Y112198D01*
Y112786D01*
X48791Y113328D01*
X48376Y113744D01*
X47833Y113969D01*
X47246D01*
X46703Y113744D01*
X46288Y113328D01*
X46063Y112786D01*
Y112198D01*
X46288Y111656D01*
X46703Y111240D01*
X47246Y111016D01*
X47833D01*
X47866Y111030D01*
X54490Y104406D01*
X54298Y103945D01*
X52998D01*
X44911Y112031D01*
X44980Y112198D01*
Y112786D01*
X44756Y113328D01*
X44340Y113744D01*
X43798Y113969D01*
X43210D01*
X42668Y113744D01*
X42252Y113328D01*
X42028Y112786D01*
Y112198D01*
X42043Y112162D01*
X41619Y111879D01*
X41128Y112370D01*
X41142Y112403D01*
Y112990D01*
X40917Y113533D01*
X40502Y113949D01*
X39959Y114173D01*
X39372D01*
X38829Y113949D01*
X38414Y113533D01*
X38189Y112990D01*
Y112403D01*
X38414Y111861D01*
X38829Y111445D01*
X39372Y111221D01*
X39959D01*
X39992Y111234D01*
X49346Y101881D01*
X49155Y101419D01*
X37697D01*
X37652Y101410D01*
X37607Y101414D01*
X37169Y101364D01*
X37083Y101337D01*
X36994Y101324D01*
X36578Y101179D01*
X36500Y101133D01*
X36416Y101101D01*
X36042Y100866D01*
X35977Y100804D01*
X35902Y100754D01*
X35590Y100443D01*
X35540Y100367D01*
X35478Y100302D01*
X35244Y99929D01*
X35211Y99844D01*
X35166Y99767D01*
X35020Y99351D01*
X35007Y99261D01*
X34980Y99176D01*
X34931Y98737D01*
X34934Y98692D01*
X34926Y98647D01*
Y79823D01*
X34426Y79570D01*
X34054Y79724D01*
X33466D01*
X32924Y79500D01*
X32508Y79084D01*
X32283Y78542D01*
Y77954D01*
X32508Y77412D01*
X32924Y76996D01*
X33466Y76772D01*
X34054D01*
X34426Y76926D01*
X34926Y76673D01*
Y74033D01*
X34891Y73730D01*
X34806Y73484D01*
X34667Y73264D01*
X34484Y73081D01*
X34264Y72942D01*
X34018Y72856D01*
X33715Y72822D01*
X21949D01*
X21904Y72813D01*
X21859Y72817D01*
X21421Y72768D01*
X21335Y72741D01*
X21246Y72728D01*
X20830Y72582D01*
X20752Y72536D01*
X20668Y72504D01*
X20294Y72270D01*
X20229Y72208D01*
X20154Y72158D01*
X19842Y71846D01*
X19792Y71771D01*
X19730Y71706D01*
X19496Y71332D01*
X19463Y71248D01*
X19418Y71170D01*
X19272Y70754D01*
X19259Y70665D01*
X19232Y70579D01*
X19183Y70141D01*
X19186Y70096D01*
X19177Y70051D01*
Y52751D01*
X19186Y52707D01*
X19183Y52662D01*
X19232Y52223D01*
X19259Y52138D01*
X19272Y52048D01*
X19418Y51632D01*
X19463Y51555D01*
X19496Y51470D01*
X19730Y51097D01*
X19792Y51032D01*
X19842Y50956D01*
X20154Y50645D01*
X20229Y50595D01*
X20294Y50533D01*
X20668Y50298D01*
X20752Y50266D01*
X20830Y50220D01*
X21246Y50074D01*
X21335Y50062D01*
X21421Y50034D01*
X21859Y49985D01*
X21904Y49989D01*
X21949Y49980D01*
X33715D01*
X34018Y49946D01*
X34264Y49860D01*
X34484Y49722D01*
X34667Y49538D01*
X34806Y49318D01*
X34891Y49073D01*
X34926Y48769D01*
Y30245D01*
X34435Y30147D01*
X34237Y30626D01*
X33181Y32206D01*
X31838Y33549D01*
X30258Y34605D01*
X28503Y35332D01*
X26639Y35703D01*
X24739D01*
X22875Y35332D01*
X21120Y34605D01*
X19540Y33549D01*
X18197Y32206D01*
X17141Y30626D01*
X16414Y28871D01*
X16043Y27007D01*
Y25107D01*
X16414Y23244D01*
X17141Y21488D01*
X18197Y19908D01*
X19540Y18565D01*
X21120Y17509D01*
X21640Y17294D01*
X21568Y16783D01*
X21421Y16766D01*
X21335Y16739D01*
X21246Y16726D01*
X20830Y16580D01*
X20752Y16535D01*
X20668Y16502D01*
X20294Y16268D01*
X20229Y16206D01*
X20154Y16156D01*
X19842Y15844D01*
X19792Y15769D01*
X19730Y15704D01*
X19496Y15330D01*
X19463Y15246D01*
X19418Y15168D01*
X19272Y14752D01*
X19259Y14663D01*
X19232Y14577D01*
X19183Y14139D01*
X19186Y14094D01*
X19177Y14049D01*
Y3417D01*
X19143Y3114D01*
X19058Y2868D01*
X18919Y2648D01*
X18735Y2465D01*
X18515Y2326D01*
X18270Y2240D01*
X17967Y2206D01*
X2703D01*
X2399Y2240D01*
X2154Y2326D01*
X1934Y2465D01*
X1750Y2648D01*
X1612Y2868D01*
X1526Y3114D01*
X1492Y3417D01*
Y101914D01*
X1992Y102121D01*
X2098Y102015D01*
X2641Y101790D01*
X3228D01*
X3771Y102015D01*
X4186Y102430D01*
X4411Y102972D01*
Y103560D01*
X4186Y104102D01*
X3771Y104518D01*
X3228Y104743D01*
X2641D01*
X2098Y104518D01*
X1992Y104411D01*
X1492Y104618D01*
Y109358D01*
X1992Y109565D01*
X2117Y109441D01*
X2659Y109216D01*
X3246D01*
X3789Y109441D01*
X4204Y109856D01*
X4429Y110398D01*
Y110749D01*
X6015Y112335D01*
X6477Y112144D01*
Y99313D01*
X6229Y99065D01*
X6004Y98522D01*
Y97935D01*
X6229Y97392D01*
X6477Y97144D01*
Y96065D01*
X6229Y95817D01*
X6004Y95274D01*
Y94687D01*
X6229Y94144D01*
X6477Y93896D01*
Y60258D01*
X4408Y58190D01*
X4334Y58078D01*
X3834Y57579D01*
X3643D01*
X3101Y57354D01*
X2685Y56939D01*
X2461Y56396D01*
Y55809D01*
X2685Y55266D01*
X3101Y54851D01*
X3643Y54626D01*
X4231D01*
X4773Y54851D01*
X5189Y55266D01*
X5413Y55809D01*
Y56319D01*
X5828Y56734D01*
X5902Y56845D01*
X6015Y56958D01*
X6477Y56766D01*
Y18996D01*
X6553Y18612D01*
X6771Y18286D01*
X12402Y12656D01*
Y12305D01*
X12626Y11762D01*
X13042Y11347D01*
X13584Y11122D01*
X14172D01*
X14714Y11347D01*
X15130Y11762D01*
X15354Y12305D01*
Y12892D01*
X15130Y13435D01*
X14714Y13850D01*
X14172Y14075D01*
X13821D01*
X8484Y19412D01*
Y59842D01*
Y93896D01*
X8732Y94144D01*
X8957Y94687D01*
Y95274D01*
X8732Y95817D01*
X8484Y96065D01*
Y97144D01*
X8732Y97392D01*
X8957Y97935D01*
Y98522D01*
X8732Y99065D01*
X8484Y99313D01*
Y114804D01*
X26633Y132953D01*
X26969D01*
X27028Y132965D01*
X27087Y132953D01*
X61022D01*
X61270Y132705D01*
X61813Y132480D01*
X62400D01*
X62943Y132705D01*
X63358Y133120D01*
X63382Y133178D01*
X63906Y133219D01*
X64321Y132803D01*
X64864Y132579D01*
X65451D01*
X65994Y132803D01*
X66409Y133219D01*
X66634Y133761D01*
Y134349D01*
X66409Y134891D01*
X65994Y135307D01*
X65451Y135531D01*
X64864D01*
X64321Y135307D01*
X63906Y134891D01*
X63882Y134834D01*
X63358Y134793D01*
X62943Y135208D01*
X62400Y135433D01*
X61813D01*
X61270Y135208D01*
X61022Y134960D01*
X55578D01*
X55244Y135460D01*
X55315Y135632D01*
Y136219D01*
X55090Y136761D01*
X54675Y137177D01*
X54132Y137402D01*
X53545D01*
X53002Y137177D01*
X52587Y136761D01*
X52362Y136219D01*
Y135632D01*
X52433Y135460D01*
X52099Y134960D01*
X33979D01*
X29960Y138979D01*
Y172689D01*
X29960Y172689D01*
X30459Y173187D01*
X30728Y173839D01*
Y174543D01*
X30459Y175195D01*
X29960Y175693D01*
X29960Y175693D01*
Y195256D01*
X29884Y195640D01*
X29666Y195966D01*
X27204Y198428D01*
X26878Y198645D01*
X26494Y198722D01*
X24056D01*
X15866Y206912D01*
Y209049D01*
X16366Y209099D01*
X16414Y208856D01*
D02*
G37*
G36*
X209433Y186686D02*
X209191Y186221D01*
X208762D01*
X208219Y185996D01*
X207804Y185580D01*
X207579Y185038D01*
Y184450D01*
X207804Y183908D01*
X208219Y183493D01*
X208762Y183268D01*
X209349D01*
X209891Y183493D01*
X210307Y183908D01*
X210531Y184450D01*
Y184880D01*
X210997Y185122D01*
X216024Y180095D01*
Y164753D01*
X215562Y164562D01*
X213684Y166440D01*
X213358Y166657D01*
X212974Y166734D01*
X200423D01*
X200174Y166982D01*
X199632Y167207D01*
X199044D01*
X198502Y166982D01*
X198087Y166567D01*
X197862Y166024D01*
Y165437D01*
X198087Y164894D01*
X198502Y164479D01*
X199044Y164254D01*
X199632D01*
X200174Y164479D01*
X200423Y164727D01*
X212559D01*
X214008Y163277D01*
X213802Y162776D01*
X213201Y162527D01*
X212670Y161996D01*
X212574Y161764D01*
X212033D01*
X211937Y161996D01*
X211405Y162527D01*
X210711Y162815D01*
X209959D01*
X209264Y162527D01*
X208733Y161996D01*
X208445Y161301D01*
Y160549D01*
X208733Y159855D01*
X209264Y159323D01*
X209496Y159227D01*
Y158686D01*
X209264Y158590D01*
X208733Y158059D01*
X208445Y157364D01*
Y156612D01*
X208733Y155918D01*
X209264Y155386D01*
X209959Y155098D01*
X210711D01*
X211405Y155386D01*
X211937Y155918D01*
X212033Y156149D01*
X212574D01*
X212670Y155918D01*
X213201Y155386D01*
X213842Y155121D01*
X214065Y154637D01*
X197046Y137618D01*
X184646D01*
X184262Y137541D01*
X183936Y137324D01*
X181286Y134674D01*
X181069Y134348D01*
X180992Y133964D01*
Y133906D01*
X180512Y133858D01*
Y133858D01*
X179740D01*
Y133992D01*
X179679Y134299D01*
X179505Y134559D01*
X179505Y134559D01*
X177542Y136522D01*
Y138679D01*
X177481Y138986D01*
X177307Y139247D01*
X176899Y139655D01*
X177090Y140117D01*
X188493D01*
X188800Y140178D01*
X189061Y140352D01*
X191902Y143194D01*
X192077Y143454D01*
X192138Y143761D01*
X192138Y143762D01*
Y146613D01*
X201711Y156185D01*
X204148D01*
X204162Y156152D01*
X204577Y155737D01*
X205120Y155512D01*
X205707D01*
X206250Y155737D01*
X206665Y156152D01*
X206890Y156694D01*
Y157282D01*
X206665Y157825D01*
X206250Y158240D01*
X205707Y158465D01*
X205120D01*
X204577Y158240D01*
X204162Y157825D01*
X204148Y157791D01*
X201378D01*
X201378Y157791D01*
X201071Y157730D01*
X200810Y157556D01*
X200810Y157556D01*
X190767Y147513D01*
X190593Y147252D01*
X190532Y146945D01*
Y144094D01*
X189663Y143225D01*
X189625Y143237D01*
X189233Y143541D01*
X189282Y143979D01*
X189278Y144025D01*
X189287Y144069D01*
Y168684D01*
X189321Y168987D01*
X189407Y169232D01*
X189545Y169452D01*
X189729Y169636D01*
X189949Y169774D01*
X190194Y169860D01*
X190498Y169894D01*
X199402D01*
X199736Y169394D01*
X199705Y169318D01*
Y168730D01*
X199929Y168188D01*
X200345Y167772D01*
X200887Y167548D01*
X201475D01*
X202017Y167772D01*
X202433Y168188D01*
X202658Y168730D01*
Y169318D01*
X202613Y169425D01*
X202710Y169708D01*
X202858Y169945D01*
X202923Y169983D01*
X202967Y169989D01*
X203383Y170134D01*
X203461Y170180D01*
X203545Y170212D01*
X203918Y170447D01*
X203984Y170509D01*
X204059Y170559D01*
X204370Y170871D01*
X204421Y170946D01*
X204483Y171011D01*
X204717Y171384D01*
X204749Y171469D01*
X204795Y171546D01*
X204941Y171962D01*
X204953Y172052D01*
X204981Y172138D01*
X205030Y172576D01*
X205026Y172621D01*
X205035Y172666D01*
Y189965D01*
X205026Y190010D01*
X205030Y190055D01*
X204989Y190423D01*
X205133Y190550D01*
X205449Y190669D01*
X209433Y186686D01*
D02*
G37*
G36*
X143109Y149209D02*
X143080Y149190D01*
X143080Y149190D01*
X141839Y147949D01*
X122369D01*
X122315Y148080D01*
X121899Y148496D01*
X121357Y148721D01*
X120769D01*
X120227Y148496D01*
X119811Y148080D01*
X119587Y147538D01*
Y146950D01*
X119811Y146408D01*
X120227Y145993D01*
X120769Y145768D01*
X121357D01*
X121899Y145993D01*
X122250Y146343D01*
X142171D01*
X142478Y146404D01*
X142739Y146578D01*
X143980Y147819D01*
X144488D01*
Y146424D01*
X146838D01*
X146855Y146399D01*
X146588Y145899D01*
X144488D01*
Y141824D01*
X146134D01*
Y140453D01*
X146211Y140069D01*
X146428Y139743D01*
X147933Y138238D01*
Y137887D01*
X148158Y137345D01*
X148573Y136930D01*
X149116Y136705D01*
X149467D01*
X160615Y125557D01*
X160331Y125133D01*
X159939Y125295D01*
X159458D01*
X146117Y138636D01*
X145821Y138834D01*
X145472Y138903D01*
X135913D01*
X135564Y138834D01*
X135268Y138636D01*
X135189Y138558D01*
X134647D01*
X134105Y138333D01*
X133689Y137917D01*
X133465Y137375D01*
Y136787D01*
X133689Y136245D01*
X134105Y135829D01*
X134647Y135605D01*
X135235D01*
X135453Y135695D01*
X135925Y135350D01*
Y135041D01*
X136150Y134498D01*
X136565Y134083D01*
X137108Y133858D01*
X137695D01*
X138238Y134083D01*
X138653Y134498D01*
X138878Y135041D01*
Y135628D01*
X138653Y136171D01*
X138243Y136581D01*
X138244Y136612D01*
X138350Y137081D01*
X145095D01*
X157975Y124201D01*
X158003Y124005D01*
X157976Y123903D01*
X157471Y123663D01*
X157087Y123740D01*
X130317D01*
X130069Y123988D01*
X129526Y124213D01*
X128939D01*
X128396Y123988D01*
X128148Y123740D01*
X124608D01*
X124557Y123791D01*
X124493Y123817D01*
Y124358D01*
X124534Y124375D01*
X124949Y124791D01*
X125174Y125333D01*
Y125920D01*
X124949Y126463D01*
X124534Y126878D01*
X123991Y127103D01*
X123404D01*
X122861Y126878D01*
X122446Y126463D01*
X122293Y126093D01*
X121759Y125920D01*
X121379Y126300D01*
X121053Y126518D01*
X120669Y126594D01*
X104331D01*
X103947Y126518D01*
X103621Y126300D01*
X100620Y123299D01*
X99906D01*
X99715Y123761D01*
X113797Y137843D01*
X121928D01*
X121941Y137810D01*
X122357Y137394D01*
X122607Y137291D01*
X122649Y137025D01*
X122640Y136736D01*
X122272Y136368D01*
X122047Y135825D01*
Y135238D01*
X122272Y134695D01*
X122687Y134280D01*
X123230Y134055D01*
X123817D01*
X124360Y134280D01*
X124775Y134695D01*
X125000Y135238D01*
Y135825D01*
X124775Y136368D01*
X124360Y136783D01*
X124110Y136887D01*
X124068Y137152D01*
X124077Y137442D01*
X124445Y137810D01*
X124670Y138352D01*
Y138939D01*
X124445Y139482D01*
X124029Y139898D01*
X123487Y140122D01*
X122899D01*
X122357Y139898D01*
X121941Y139482D01*
X121928Y139449D01*
X114388D01*
X114197Y139911D01*
X115247Y140961D01*
X115445Y141257D01*
X115471Y141391D01*
X115532D01*
X116074Y141615D01*
X116490Y142031D01*
X116714Y142573D01*
Y143161D01*
X116490Y143703D01*
X116074Y144118D01*
X115532Y144343D01*
X114944D01*
X114402Y144118D01*
X114164Y143881D01*
X113533Y143805D01*
X112990Y144029D01*
X112403D01*
X112311Y143991D01*
X111811Y144325D01*
Y145800D01*
X111352D01*
X111215Y146132D01*
X110800Y146547D01*
X110257Y146772D01*
X109670D01*
X109516Y146708D01*
X109335Y146890D01*
X109074Y147064D01*
X108767Y147125D01*
X104171D01*
X103871Y147425D01*
Y149709D01*
X142957D01*
X143109Y149209D01*
D02*
G37*
G36*
X218878Y156244D02*
Y149238D01*
X218452Y148812D01*
X212372D01*
X211988Y148735D01*
X211663Y148518D01*
X208346Y145201D01*
X208128Y144875D01*
X208052Y144491D01*
Y142400D01*
X202914Y137262D01*
X202733Y137280D01*
X202044Y137969D01*
X201784Y138143D01*
X201476Y138204D01*
X201169Y138143D01*
X201012Y138039D01*
X200694Y138427D01*
X217644Y155377D01*
X217861Y155703D01*
X217867Y155730D01*
X217883Y155737D01*
X218299Y156152D01*
X218378Y156344D01*
X218878Y156244D01*
D02*
G37*
G36*
X222721Y131100D02*
X222221Y131001D01*
X222118Y131250D01*
X221702Y131665D01*
X221160Y131890D01*
X220572D01*
X220030Y131665D01*
X219615Y131250D01*
X219390Y130707D01*
Y130120D01*
X219615Y129577D01*
X220030Y129162D01*
X220572Y128937D01*
X221160D01*
X221193Y128951D01*
X221540Y128604D01*
Y93306D01*
X221040Y93007D01*
X221005Y93025D01*
Y93027D01*
X220780Y93569D01*
X220365Y93985D01*
X219822Y94209D01*
X219235D01*
X218692Y93985D01*
X218588Y93881D01*
X218210Y93631D01*
X217935Y93881D01*
X217780Y94036D01*
X217237Y94261D01*
X216650D01*
X216107Y94036D01*
X215791Y93720D01*
X215595Y93632D01*
X215176Y93682D01*
X214924Y93933D01*
X214382Y94158D01*
X213794D01*
X213252Y93933D01*
X212836Y93518D01*
X212612Y92975D01*
Y92388D01*
X212600Y92371D01*
X212486D01*
X211943Y92146D01*
X211528Y91731D01*
X211303Y91188D01*
Y90601D01*
X211442Y90264D01*
X211169Y89764D01*
X210630D01*
Y128740D01*
X214567D01*
Y137527D01*
X214630Y137679D01*
Y138267D01*
X214567Y138420D01*
Y139764D01*
X211024Y143307D01*
Y145040D01*
X212788Y146805D01*
X218867D01*
X219097Y146850D01*
X222721D01*
Y131100D01*
D02*
G37*
G36*
X172139Y135728D02*
X172425D01*
Y133858D01*
X171850D01*
Y130709D01*
X171313D01*
X163548Y138474D01*
X163739Y138936D01*
X172139D01*
Y135728D01*
D02*
G37*
G36*
X202165Y136713D02*
Y132776D01*
X201575Y132185D01*
Y126396D01*
X201181Y126083D01*
X198819D01*
X194685Y130217D01*
Y130610D01*
X201476Y137402D01*
X202165Y136713D01*
D02*
G37*
G36*
X176171Y135622D02*
X177530Y134263D01*
X177756Y133858D01*
X177756D01*
X177756Y133858D01*
Y129921D01*
Y127953D01*
X180992D01*
Y124850D01*
X180512Y124803D01*
Y124803D01*
X179802D01*
X179724Y124819D01*
X178543D01*
X178466Y124803D01*
X174606D01*
Y129921D01*
Y133858D01*
X174031D01*
Y135728D01*
X176100D01*
X176171Y135622D01*
D02*
G37*
G36*
X139638Y121233D02*
X139567Y121061D01*
Y120474D01*
X139792Y119931D01*
X140207Y119516D01*
X140719Y119304D01*
X140945Y118898D01*
Y110540D01*
X134161Y103757D01*
X133951Y103791D01*
X133624Y103927D01*
X133437Y104380D01*
X133021Y104795D01*
X132479Y105020D01*
X131891D01*
X131349Y104795D01*
X130933Y104380D01*
X130775Y103996D01*
X130247Y103964D01*
X130188Y104106D01*
X129773Y104521D01*
X129230Y104746D01*
X128643D01*
X128100Y104521D01*
X127685Y104106D01*
X127460Y103563D01*
Y103276D01*
X126960Y103069D01*
X124140Y105889D01*
Y109449D01*
X127559D01*
Y118898D01*
X127559Y118898D01*
X127559D01*
X127556Y119398D01*
X127594Y119490D01*
Y120077D01*
X127369Y120620D01*
X126954Y121035D01*
X126412Y121260D01*
X126477Y121733D01*
X128148D01*
X128396Y121485D01*
X128939Y121260D01*
X129526D01*
X130069Y121485D01*
X130317Y121733D01*
X134344D01*
X134410Y121260D01*
X133867Y121035D01*
X133452Y120620D01*
X133227Y120077D01*
Y119490D01*
X133452Y118947D01*
X133867Y118532D01*
X134410Y118307D01*
X134997D01*
X135540Y118532D01*
X135955Y118947D01*
X136180Y119490D01*
Y120077D01*
X135955Y120620D01*
X135540Y121035D01*
X134997Y121260D01*
X135063Y121733D01*
X139304D01*
X139638Y121233D01*
D02*
G37*
G36*
X179724Y123031D02*
X181890Y120866D01*
Y117717D01*
X176542D01*
X175954Y117129D01*
X175492Y117320D01*
Y116666D01*
X174902D01*
Y113878D01*
X171653Y110630D01*
Y110059D01*
X168329D01*
X166993Y111395D01*
X166932Y119232D01*
X167284Y119587D01*
X176575D01*
X177854Y120866D01*
X178543D01*
Y124016D01*
X179724D01*
Y123031D01*
D02*
G37*
G36*
X2524Y145374D02*
X2875D01*
X13352Y134898D01*
X13145Y134398D01*
X12888D01*
X12056Y134053D01*
X11419Y133416D01*
X11075Y132584D01*
Y131684D01*
X11419Y130851D01*
X12056Y130215D01*
X12888Y129870D01*
X13789D01*
X14621Y130215D01*
X15258Y130851D01*
X15602Y131684D01*
Y132465D01*
X15636Y132616D01*
X15991Y132953D01*
X23141D01*
X23333Y132491D01*
X6771Y115929D01*
X3010Y112169D01*
X2659D01*
X2117Y111944D01*
X1992Y111819D01*
X1492Y112026D01*
Y145382D01*
X1982Y145599D01*
X2524Y145374D01*
D02*
G37*
G36*
X126756Y110252D02*
X124140D01*
X124062Y110236D01*
X122441D01*
Y118095D01*
X124346D01*
X124423Y118110D01*
X124502D01*
X124502Y118110D01*
X126756D01*
Y110252D01*
D02*
G37*
G36*
X91994Y121119D02*
X92166Y120792D01*
X92107Y120496D01*
Y118898D01*
X91338D01*
Y109980D01*
X90838Y109773D01*
X90797Y109815D01*
X90254Y110039D01*
X89667D01*
X89476Y109960D01*
X88976Y110294D01*
Y118898D01*
X88082D01*
X87891Y119360D01*
X88705Y120174D01*
X88705Y120174D01*
X89823Y121292D01*
X91857D01*
X91994Y121119D01*
D02*
G37*
G36*
X122244Y122597D02*
Y122246D01*
X122469Y121703D01*
X122884Y121288D01*
X123427Y121063D01*
X124014D01*
X124557Y121288D01*
X124972Y121703D01*
X124984Y121733D01*
X125759D01*
X125824Y121260D01*
X125282Y121035D01*
X124866Y120620D01*
X124642Y120077D01*
Y119490D01*
X124680Y119398D01*
X124346Y118898D01*
X118898D01*
Y109449D01*
X118897Y109449D01*
X118805Y108987D01*
X118726Y108955D01*
X118265Y108863D01*
X118040Y109405D01*
X117625Y109820D01*
X117082Y110045D01*
X116495D01*
X115952Y109820D01*
X115537Y109405D01*
X115312Y108863D01*
Y108275D01*
X115534Y107738D01*
X115691Y107328D01*
X115676Y107256D01*
X115261Y106840D01*
X115036Y106298D01*
X114595Y105956D01*
X114336Y105985D01*
X114192Y106442D01*
X114512Y106763D01*
X114737Y107305D01*
Y107893D01*
X114512Y108435D01*
X114097Y108851D01*
X113555Y109075D01*
X112967D01*
X112425Y108851D01*
X112009Y108435D01*
X111785Y107893D01*
Y107305D01*
X112009Y106763D01*
X112425Y106347D01*
X112967Y106123D01*
X113415D01*
X113497Y105973D01*
X113579Y105633D01*
X113230Y105284D01*
X113005Y104741D01*
Y104154D01*
X113230Y103611D01*
X113645Y103196D01*
X114188Y102971D01*
X114775D01*
X115318Y103196D01*
X115733Y103611D01*
X115958Y104154D01*
Y104353D01*
X116219Y104528D01*
X116806D01*
X117349Y104753D01*
X117764Y105168D01*
X117989Y105710D01*
Y105893D01*
X118018Y105930D01*
X118489Y106186D01*
X118830Y106045D01*
X119417D01*
X119592Y106117D01*
X120092Y105783D01*
Y97149D01*
X119104Y96161D01*
X116929D01*
Y96555D01*
X115872D01*
Y99606D01*
X115803Y99955D01*
X115605Y100251D01*
X110360Y105496D01*
Y109449D01*
X111024D01*
Y118898D01*
X107874D01*
Y109449D01*
X108537D01*
Y108687D01*
X105315D01*
X104966Y108617D01*
X104671Y108420D01*
X99060Y102810D01*
X98863Y102514D01*
X98794Y102165D01*
Y98721D01*
X98863Y98372D01*
X99060Y98076D01*
X100513Y96623D01*
X100322Y96161D01*
X96621D01*
Y93008D01*
X88025D01*
Y96161D01*
X80479D01*
Y93008D01*
X76680D01*
Y96161D01*
X75467D01*
X75454Y96661D01*
X79410Y100617D01*
X79584Y100877D01*
X79645Y101184D01*
X79645Y101184D01*
Y104169D01*
X81047Y105571D01*
X81471Y105288D01*
X81398Y105111D01*
Y104524D01*
X81622Y103981D01*
X82038Y103566D01*
X82580Y103341D01*
X83168D01*
X83539Y103495D01*
X83930Y103132D01*
X83858Y102958D01*
Y102371D01*
X84040Y101931D01*
X83908Y101426D01*
X83802Y101321D01*
X83453Y101046D01*
X83149Y101321D01*
X83021Y101449D01*
X82479Y101673D01*
X81891D01*
X81349Y101449D01*
X80933Y101033D01*
X80709Y100490D01*
Y99903D01*
X80933Y99361D01*
X81349Y98945D01*
X81891Y98721D01*
X82479D01*
X83021Y98945D01*
X83127Y99051D01*
X83476Y99325D01*
X83780Y99051D01*
X83908Y98923D01*
X84450Y98699D01*
X85038D01*
X85580Y98923D01*
X85996Y99339D01*
X86220Y99881D01*
Y100469D01*
X86038Y100908D01*
X86171Y101413D01*
X86586Y101829D01*
X86811Y102371D01*
Y102958D01*
X86586Y103501D01*
X86171Y103916D01*
X85628Y104141D01*
X85041D01*
X84669Y103987D01*
X84278Y104350D01*
X84350Y104524D01*
Y105111D01*
X84126Y105654D01*
X83710Y106069D01*
X83168Y106294D01*
X82580D01*
X82403Y106220D01*
X82120Y106644D01*
X82457Y106982D01*
X82457Y106982D01*
X82631Y107242D01*
X82693Y107549D01*
Y109114D01*
X83014Y109211D01*
X83078Y109146D01*
X83366Y108811D01*
Y108269D01*
X83591Y107727D01*
X84006Y107311D01*
X84549Y107087D01*
X85136D01*
X85170Y107100D01*
X87386Y104884D01*
Y100576D01*
X87353Y100563D01*
X86937Y100147D01*
X86713Y99605D01*
Y99017D01*
X86937Y98475D01*
X87353Y98059D01*
X87895Y97835D01*
X88483D01*
X89025Y98059D01*
X89286Y98320D01*
X89510Y98455D01*
X89924Y98335D01*
X90109Y98150D01*
X90651Y97925D01*
X91238D01*
X91781Y98150D01*
X92197Y98565D01*
X92421Y99108D01*
Y99695D01*
X92197Y100238D01*
X91781Y100653D01*
X91238Y100878D01*
X90651D01*
X90109Y100653D01*
X89848Y100393D01*
X89624Y100258D01*
X89210Y100378D01*
X89025Y100563D01*
X88992Y100576D01*
Y105217D01*
X88992Y105217D01*
X88931Y105524D01*
X88757Y105784D01*
X87907Y106633D01*
X88025Y107223D01*
X88238Y107311D01*
X88354Y107428D01*
X88681Y107703D01*
X89008Y107428D01*
X89124Y107311D01*
X89667Y107087D01*
X90254D01*
X90797Y107311D01*
X91212Y107727D01*
X91437Y108269D01*
Y108857D01*
X91399Y108949D01*
X91733Y109449D01*
X92887D01*
X92987Y108949D01*
X92792Y108868D01*
X92377Y108453D01*
X92152Y107910D01*
Y107323D01*
X92377Y106780D01*
X92573Y106584D01*
X92656Y106142D01*
X92545Y105959D01*
X92252Y105667D01*
X92028Y105124D01*
Y104537D01*
X92252Y103994D01*
X92668Y103579D01*
X93210Y103354D01*
X93798D01*
X94340Y103579D01*
X94756Y103994D01*
X94980Y104537D01*
Y105124D01*
X94756Y105667D01*
X94560Y105863D01*
X94476Y106305D01*
X94588Y106488D01*
X94880Y106780D01*
X95105Y107323D01*
Y107910D01*
X94880Y108453D01*
X94465Y108868D01*
X94271Y108949D01*
X94370Y109449D01*
X94488D01*
Y118898D01*
X94114D01*
Y120080D01*
X95326Y121292D01*
X97960D01*
X98151Y120830D01*
X97631Y120310D01*
X97413Y119984D01*
X97337Y119600D01*
Y118898D01*
X96850D01*
Y109449D01*
X100000D01*
Y118898D01*
X99764D01*
X99557Y119398D01*
X101745Y121586D01*
X104746Y124587D01*
X120254D01*
X122244Y122597D01*
D02*
G37*
G36*
X183957Y112427D02*
Y107972D01*
X183760Y107776D01*
X176575D01*
Y112106D01*
X176615Y112216D01*
X181378Y112592D01*
X182283D01*
Y112663D01*
X183589Y112766D01*
X183957Y112427D01*
D02*
G37*
G36*
X167204Y108345D02*
X167529Y108128D01*
X167913Y108052D01*
X175772D01*
Y107776D01*
X175833Y107468D01*
X176007Y107208D01*
X176268Y107034D01*
X176575Y106973D01*
X183760D01*
X183760Y106973D01*
X184067Y107034D01*
X184327Y107208D01*
X184524Y107405D01*
X184698Y107665D01*
X184753Y107939D01*
X185229D01*
X196109Y97059D01*
X196103Y97035D01*
X195549Y96882D01*
X189497Y102934D01*
X189201Y103131D01*
X188853Y103200D01*
X170566D01*
X170226Y103541D01*
X169683Y103766D01*
X169096D01*
X168553Y103541D01*
X168138Y103126D01*
X167913Y102583D01*
Y101996D01*
X167945Y101919D01*
X167611Y101419D01*
X165059D01*
X165015Y101410D01*
X164969Y101414D01*
X164531Y101364D01*
X164445Y101337D01*
X164356Y101324D01*
X163940Y101179D01*
X163862Y101133D01*
X163778Y101101D01*
X163405Y100866D01*
X163339Y100804D01*
X163264Y100754D01*
X162952Y100443D01*
X162902Y100367D01*
X162840Y100302D01*
X162606Y99929D01*
X162574Y99844D01*
X162528Y99767D01*
X162382Y99351D01*
X162370Y99261D01*
X162342Y99176D01*
X162293Y98737D01*
X162297Y98692D01*
X162288Y98647D01*
Y94218D01*
X162254Y93915D01*
X162168Y93670D01*
X162030Y93450D01*
X161846Y93266D01*
X161626Y93128D01*
X161380Y93042D01*
X161077Y93008D01*
X155590D01*
Y96380D01*
X155809Y96526D01*
X156396D01*
X156939Y96751D01*
X157354Y97166D01*
X157579Y97709D01*
Y98296D01*
X157354Y98839D01*
X156939Y99254D01*
X156396Y99479D01*
X155809D01*
X155266Y99254D01*
X154851Y98839D01*
X154626Y98296D01*
Y97736D01*
X152554D01*
X152520Y97907D01*
X152303Y98233D01*
X149067Y101469D01*
X149274Y101969D01*
X149408D01*
X149951Y102193D01*
X150366Y102609D01*
X150591Y103151D01*
Y103739D01*
X150366Y104281D01*
X149951Y104697D01*
X149408Y104921D01*
X148820D01*
X148551Y104809D01*
X148051Y105122D01*
Y106134D01*
X148551Y106469D01*
X148722Y106398D01*
X149309D01*
X149852Y106622D01*
X150267Y107038D01*
X150492Y107580D01*
Y108168D01*
X150267Y108710D01*
X149905Y109073D01*
X149606Y109449D01*
Y118898D01*
X141693D01*
X141594Y119398D01*
X141880Y119516D01*
X142128Y119764D01*
X155785D01*
X167204Y108345D01*
D02*
G37*
G36*
X144272Y97936D02*
X144348Y97552D01*
X144566Y97226D01*
X145543Y96249D01*
Y93008D01*
X135761D01*
Y96161D01*
X135327D01*
Y102345D01*
X140244Y107263D01*
X140834Y107145D01*
X140923Y106931D01*
X141338Y106516D01*
X141881Y106291D01*
X142468D01*
X143011Y106516D01*
X143426Y106931D01*
X143651Y107474D01*
Y108061D01*
X143426Y108604D01*
X143081Y108949D01*
X143148Y109282D01*
X143234Y109449D01*
X144272D01*
Y97936D01*
D02*
G37*
G36*
X199095Y111888D02*
Y86737D01*
X198595Y86471D01*
X198444Y86572D01*
Y97146D01*
X198368Y97530D01*
X198151Y97855D01*
X186354Y109652D01*
X186029Y109869D01*
X185644Y109946D01*
X184759D01*
Y112427D01*
X184756Y112443D01*
X184759Y112459D01*
X184726Y112596D01*
X184698Y112734D01*
X184689Y112748D01*
X184686Y112763D01*
X184603Y112877D01*
X184524Y112995D01*
X184511Y113004D01*
X184502Y113016D01*
X184134Y113356D01*
X184121Y113364D01*
X184111Y113377D01*
X183987Y113446D01*
X183867Y113520D01*
X183851Y113522D01*
X183837Y113530D01*
X183697Y113546D01*
X183558Y113568D01*
X183542Y113565D01*
X183526Y113567D01*
X182220Y113463D01*
X182099Y113429D01*
X181976Y113405D01*
X181961Y113395D01*
X181378D01*
X181347Y113388D01*
X181315Y113392D01*
X176552Y113016D01*
X176416Y112978D01*
X176279Y112945D01*
X176266Y112935D01*
X176251Y112931D01*
X176140Y112844D01*
X176025Y112761D01*
X176017Y112747D01*
X176005Y112737D01*
X175936Y112614D01*
X175862Y112494D01*
X175822Y112384D01*
X175800Y112245D01*
X175772Y112106D01*
Y110059D01*
X172925D01*
X172718Y110559D01*
X175469Y113310D01*
X175643Y113571D01*
X175704Y113878D01*
Y115906D01*
X175799Y115925D01*
X176060Y116099D01*
X176234Y116359D01*
X176238Y116382D01*
X176261Y116387D01*
X176522Y116561D01*
X176522Y116561D01*
X176875Y116914D01*
X181890D01*
X182197Y116975D01*
X182457Y117149D01*
X182632Y117409D01*
X182693Y117717D01*
Y119858D01*
X182697Y119863D01*
X191120D01*
X199095Y111888D01*
D02*
G37*
G36*
X194364Y95489D02*
Y84169D01*
X189287D01*
Y98647D01*
X189278Y98692D01*
X189282Y98737D01*
X189233Y99176D01*
X189205Y99261D01*
X189193Y99351D01*
X189047Y99767D01*
X189001Y99844D01*
X188969Y99929D01*
X188734Y100302D01*
X188673Y100367D01*
X188622Y100443D01*
X188524Y100541D01*
X188675Y101097D01*
X188740Y101113D01*
X194364Y95489D01*
D02*
G37*
G36*
X210559Y142077D02*
X210975Y141662D01*
X211517Y141437D01*
X211758D01*
X213764Y139431D01*
Y138420D01*
X213825Y138112D01*
X213827Y138107D01*
Y137839D01*
X213825Y137834D01*
X213764Y137527D01*
Y129543D01*
X210630D01*
X210323Y129482D01*
X210062Y129308D01*
X209888Y129047D01*
X209827Y128740D01*
Y89764D01*
X209888Y89457D01*
X210062Y89196D01*
X210323Y89022D01*
X210630Y88961D01*
X211169D01*
X211280Y88983D01*
X211394Y88993D01*
X211433Y89013D01*
X211476Y89022D01*
X211571Y89085D01*
X211672Y89138D01*
X211700Y89172D01*
X211736Y89196D01*
X211800Y89291D01*
X211873Y89378D01*
X212147Y89878D01*
X212160Y89920D01*
X212184Y89957D01*
X212206Y90068D01*
X212241Y90177D01*
X212237Y90221D01*
X212245Y90264D01*
X212223Y90376D01*
X212213Y90489D01*
X212193Y90528D01*
X212184Y90571D01*
X212106Y90760D01*
Y91028D01*
X212208Y91276D01*
X212398Y91466D01*
X212683Y91584D01*
X212757Y91584D01*
X212830Y91614D01*
X212907Y91629D01*
X212973Y91673D01*
X213046Y91703D01*
X213102Y91759D01*
X213168Y91803D01*
X213212Y91869D01*
X213268Y91925D01*
X213279Y91942D01*
X213310Y92015D01*
X213353Y92081D01*
X213369Y92158D01*
X213399Y92232D01*
X213399Y92311D01*
X213415Y92388D01*
Y92816D01*
X213517Y93063D01*
X213706Y93253D01*
X213954Y93355D01*
X214222D01*
X214470Y93253D01*
X214608Y93114D01*
X214700Y93053D01*
X214784Y92981D01*
X214829Y92967D01*
X214868Y92940D01*
X214977Y92919D01*
X215082Y92885D01*
X215501Y92835D01*
X215560Y92840D01*
X215618Y92830D01*
X215714Y92852D01*
X215813Y92860D01*
X215865Y92886D01*
X215923Y92900D01*
X216119Y92987D01*
X216237Y93072D01*
X216359Y93152D01*
X216562Y93356D01*
X216809Y93458D01*
X217077D01*
X217325Y93356D01*
X217367Y93313D01*
X217383Y93303D01*
X217394Y93287D01*
X217669Y93037D01*
X217719Y93007D01*
X217760Y92965D01*
X217852Y92927D01*
X217937Y92875D01*
X217995Y92867D01*
X218049Y92844D01*
X218149Y92844D01*
X218247Y92829D01*
X218304Y92843D01*
X218362Y92842D01*
X218455Y92880D01*
X218551Y92904D01*
X218598Y92939D01*
X218652Y92961D01*
X219031Y93211D01*
X219089Y93268D01*
X219135Y93299D01*
X219394Y93407D01*
X219662D01*
X219910Y93304D01*
X220099Y93115D01*
X220263Y92721D01*
X220263Y92718D01*
X220329Y92620D01*
X220384Y92516D01*
X220415Y92491D01*
X220437Y92457D01*
X220532Y92394D01*
X220562Y92362D01*
X220587Y92350D01*
X220626Y92317D01*
X220661Y92299D01*
X220687Y92291D01*
X220698Y92283D01*
X220736Y92276D01*
X220756Y92270D01*
X220845Y92228D01*
X220904Y92225D01*
X220961Y92208D01*
X221040Y92215D01*
X221113Y92215D01*
X221158Y92212D01*
X221402Y92015D01*
X221441Y91970D01*
X221540Y91814D01*
Y81668D01*
X220898Y81026D01*
X220865Y81040D01*
X220277D01*
X219735Y80815D01*
X219319Y80400D01*
X219094Y79857D01*
Y79270D01*
X219319Y78728D01*
X219735Y78312D01*
X220277Y78087D01*
X220865D01*
X221407Y78312D01*
X221823Y78728D01*
X222047Y79270D01*
Y79675D01*
X222221Y79817D01*
X222721Y79579D01*
Y65375D01*
X222259Y65184D01*
X212917Y74526D01*
X216478Y78087D01*
X216829D01*
X217372Y78312D01*
X217787Y78728D01*
X218012Y79270D01*
Y79857D01*
X217787Y80400D01*
X217372Y80815D01*
X216829Y81040D01*
X216242D01*
X215699Y80815D01*
X215284Y80400D01*
X215059Y79857D01*
Y79507D01*
X211498Y75945D01*
X201102Y86341D01*
Y112303D01*
X201026Y112687D01*
X200808Y113013D01*
X192245Y121576D01*
X191920Y121793D01*
X191535Y121870D01*
X182999D01*
Y130122D01*
X183499Y130441D01*
X183759Y130333D01*
X184110D01*
X191334Y123109D01*
X191659Y122892D01*
X192043Y122815D01*
X204427D01*
X204508Y122734D01*
Y112305D01*
X204260Y112057D01*
X204035Y111514D01*
Y110927D01*
X204260Y110384D01*
X204676Y109969D01*
X205218Y109744D01*
X205271D01*
X206871Y108144D01*
Y85140D01*
X206622Y84891D01*
X206398Y84349D01*
Y83762D01*
X206622Y83219D01*
X207038Y82803D01*
X207580Y82579D01*
X208168D01*
X208710Y82803D01*
X209126Y83219D01*
X209350Y83762D01*
Y84349D01*
X209126Y84891D01*
X208878Y85140D01*
Y108560D01*
X208801Y108944D01*
X208584Y109270D01*
X206970Y110883D01*
X206988Y110927D01*
Y111514D01*
X206763Y112057D01*
X206515Y112305D01*
Y122734D01*
X206763Y122983D01*
X206988Y123525D01*
Y124113D01*
X206763Y124655D01*
X206348Y125071D01*
X205805Y125295D01*
X205218D01*
X204676Y125071D01*
X204427Y124822D01*
X201463D01*
X201403Y125311D01*
X201443Y125332D01*
X201488Y125341D01*
X201582Y125403D01*
X201681Y125455D01*
X202075Y125768D01*
X202104Y125803D01*
X202143Y125828D01*
X202205Y125922D01*
X202277Y126007D01*
X202291Y126051D01*
X202316Y126089D01*
X202338Y126199D01*
X202373Y126305D01*
X202369Y126351D01*
X202378Y126396D01*
Y131852D01*
X202733Y132208D01*
X202907Y132468D01*
X202968Y132776D01*
Y134478D01*
X209765Y141275D01*
X209982Y141600D01*
X210059Y141984D01*
X210559Y142079D01*
X210559Y142077D01*
D02*
G37*
G36*
X200363Y81487D02*
X200353Y77967D01*
X199890Y77776D01*
X196187Y81480D01*
Y83366D01*
X198484D01*
X200363Y81487D01*
D02*
G37*
G36*
X219567Y62282D02*
Y53700D01*
X219370Y53568D01*
X219067Y53448D01*
X218601Y53642D01*
X218013D01*
X217471Y53417D01*
X217056Y53002D01*
X216831Y52459D01*
Y52392D01*
X212690Y48251D01*
X212429Y47861D01*
X212337Y47400D01*
X212337Y47400D01*
Y38941D01*
X212290Y38894D01*
X212065Y38352D01*
Y37764D01*
X212290Y37222D01*
X212705Y36806D01*
X213248Y36582D01*
X213835D01*
X214378Y36806D01*
X214793Y37222D01*
X215018Y37764D01*
Y38352D01*
X214793Y38894D01*
X214746Y38941D01*
Y46901D01*
X218534Y50689D01*
X218601D01*
X219067Y50882D01*
X219370Y50763D01*
X219567Y50631D01*
Y35455D01*
X216691Y32579D01*
X216439D01*
X215896Y32354D01*
X215481Y31939D01*
X215256Y31396D01*
Y30809D01*
X215481Y30266D01*
X215896Y29851D01*
X216439Y29626D01*
X217026D01*
X217569Y29851D01*
X217984Y30266D01*
X218209Y30809D01*
Y31258D01*
X220771Y33820D01*
X221233Y33629D01*
Y12908D01*
X216691Y8366D01*
X216340D01*
X215798Y8141D01*
X215382Y7726D01*
X215158Y7183D01*
Y6596D01*
X215382Y6053D01*
X215798Y5638D01*
X215938Y5580D01*
X215896Y5056D01*
X215502Y4893D01*
X215087Y4478D01*
X214862Y3935D01*
Y3348D01*
X215087Y2805D01*
X215186Y2706D01*
X214979Y2206D01*
X201285D01*
X200932Y2560D01*
X200935Y3415D01*
X201142Y73295D01*
X201604Y73485D01*
X214640Y60449D01*
Y60330D01*
X214300Y59990D01*
X214075Y59447D01*
Y58860D01*
X214300Y58317D01*
X214715Y57902D01*
X215258Y57677D01*
X215845D01*
X216388Y57902D01*
X216803Y58317D01*
X217028Y58860D01*
Y59447D01*
X216803Y59990D01*
X216462Y60330D01*
Y60827D01*
X216393Y61176D01*
X216196Y61471D01*
X204348Y73319D01*
X204555Y73819D01*
X204624D01*
X205167Y74044D01*
X205582Y74459D01*
X205807Y75002D01*
Y75336D01*
X206307Y75543D01*
X219567Y62282D01*
D02*
G37*
G36*
X222721Y10904D02*
Y3417D01*
X222687Y3114D01*
X222601Y2868D01*
X222463Y2648D01*
X222279Y2465D01*
X222059Y2326D01*
X221813Y2240D01*
X221510Y2206D01*
X217698D01*
X217491Y2706D01*
X217590Y2805D01*
X217815Y3348D01*
Y3935D01*
X217590Y4478D01*
X217175Y4893D01*
X217035Y4951D01*
X217077Y5475D01*
X217470Y5638D01*
X217885Y6053D01*
X218110Y6596D01*
Y6947D01*
X222259Y11096D01*
X222721Y10904D01*
D02*
G37*
G36*
X194364Y81102D02*
X194434Y80754D01*
X194631Y80458D01*
X200343Y74746D01*
X200132Y3417D01*
X200128Y2206D01*
X190498D01*
X190194Y2240D01*
X189949Y2326D01*
X189729Y2465D01*
X189545Y2648D01*
X189407Y2868D01*
X189321Y3114D01*
X189287Y3417D01*
Y83366D01*
X194364D01*
Y81102D01*
D02*
G37*
%LPC*%
G36*
X195963Y219587D02*
X195376D01*
X194833Y219362D01*
X194418Y218947D01*
X194193Y218404D01*
Y217817D01*
X194418Y217274D01*
X194833Y216859D01*
X195376Y216634D01*
X195963D01*
X196506Y216859D01*
X196921Y217274D01*
X197146Y217817D01*
Y218404D01*
X196921Y218947D01*
X196506Y219362D01*
X195963Y219587D01*
D02*
G37*
G36*
X212269Y215827D02*
X210369D01*
X208505Y215456D01*
X206750Y214729D01*
X205170Y213674D01*
X203827Y212330D01*
X202771Y210750D01*
X202044Y208995D01*
X201673Y207131D01*
Y205231D01*
X202044Y203368D01*
X202771Y201612D01*
X203827Y200032D01*
X205170Y198689D01*
X206750Y197633D01*
X208505Y196906D01*
X210369Y196536D01*
X212269D01*
X214132Y196906D01*
X215888Y197633D01*
X217468Y198689D01*
X218811Y200032D01*
X219867Y201612D01*
X220594Y203368D01*
X220965Y205231D01*
Y207131D01*
X220594Y208995D01*
X219867Y210750D01*
X218811Y212330D01*
X217468Y213674D01*
X215888Y214729D01*
X214132Y215456D01*
X212269Y215827D01*
D02*
G37*
G36*
X13089Y228150D02*
X12502D01*
X11959Y227925D01*
X11544Y227509D01*
X11319Y226967D01*
Y226380D01*
X11544Y225837D01*
X11959Y225422D01*
X12502Y225197D01*
X13089D01*
X13632Y225422D01*
X14047Y225837D01*
X14272Y226380D01*
Y226967D01*
X14047Y227509D01*
X13632Y227925D01*
X13089Y228150D01*
D02*
G37*
G36*
X10030Y221260D02*
X9443D01*
X8900Y221035D01*
X8485Y220620D01*
X8260Y220077D01*
Y219490D01*
X8485Y218947D01*
X8900Y218532D01*
X9443Y218307D01*
X10030D01*
X10572Y218532D01*
X10988Y218947D01*
X11213Y219490D01*
Y220077D01*
X10988Y220620D01*
X10572Y221035D01*
X10030Y221260D01*
D02*
G37*
G36*
X8106Y205168D02*
X7519D01*
X6976Y204943D01*
X6561Y204528D01*
X6336Y203985D01*
Y203398D01*
X6561Y202855D01*
X6976Y202440D01*
X7519Y202215D01*
X8106D01*
X8649Y202440D01*
X9064Y202855D01*
X9289Y203398D01*
Y203985D01*
X9064Y204528D01*
X8649Y204943D01*
X8106Y205168D01*
D02*
G37*
G36*
X21686Y185473D02*
X21059D01*
X20480Y185233D01*
X20037Y184791D01*
X19798Y184212D01*
Y183585D01*
X20037Y183006D01*
X20480Y182563D01*
X21059Y182324D01*
X21686D01*
X22264Y182563D01*
X22707Y183006D01*
X22947Y183585D01*
Y184212D01*
X22707Y184791D01*
X22264Y185233D01*
X21686Y185473D01*
D02*
G37*
G36*
X32479Y147539D02*
X31891D01*
X31349Y147315D01*
X30933Y146899D01*
X30709Y146357D01*
Y145769D01*
X30933Y145227D01*
X31349Y144811D01*
X31891Y144587D01*
X32479D01*
X33021Y144811D01*
X33437Y145227D01*
X33661Y145769D01*
Y146357D01*
X33437Y146899D01*
X33021Y147315D01*
X32479Y147539D01*
D02*
G37*
G36*
X88419Y145571D02*
X84344D01*
Y143353D01*
X83844Y143146D01*
X83710Y143279D01*
X83168Y143504D01*
X82580D01*
X82038Y143279D01*
X81622Y142864D01*
X81398Y142321D01*
Y141953D01*
X80503Y141059D01*
X44094D01*
X43787Y140998D01*
X43527Y140824D01*
X42256Y139553D01*
X42223Y139567D01*
X41636D01*
X41093Y139342D01*
X40677Y138927D01*
X40453Y138384D01*
Y137797D01*
X40677Y137254D01*
X41093Y136839D01*
X41636Y136614D01*
X42223D01*
X42765Y136839D01*
X43181Y137254D01*
X43406Y137797D01*
Y138384D01*
X43392Y138418D01*
X44154Y139180D01*
X44211Y139158D01*
X44587Y138778D01*
Y138191D01*
X44811Y137648D01*
X45227Y137233D01*
X45769Y137008D01*
X46357D01*
X46899Y137233D01*
X47315Y137648D01*
X47539Y138191D01*
Y138778D01*
X47467Y138953D01*
X47801Y139453D01*
X80836D01*
X81143Y139514D01*
X81404Y139688D01*
X82359Y140643D01*
X82580Y140551D01*
X83168D01*
X83710Y140776D01*
X84126Y141191D01*
X84130Y141203D01*
X84344Y141634D01*
Y141634D01*
X84344Y141634D01*
X85412D01*
X85680Y141367D01*
X86222Y141142D01*
X86809D01*
X87352Y141367D01*
X87619Y141634D01*
X88419D01*
Y145571D01*
D02*
G37*
G36*
X38541Y139973D02*
X37954D01*
X37412Y139748D01*
X36996Y139332D01*
X36772Y138790D01*
Y138203D01*
X36996Y137660D01*
X37412Y137245D01*
X37954Y137020D01*
X38541D01*
X39084Y137245D01*
X39500Y137660D01*
X39724Y138203D01*
Y138790D01*
X39500Y139332D01*
X39084Y139748D01*
X38541Y139973D01*
D02*
G37*
G36*
X24293Y124409D02*
X23541D01*
X22816Y124215D01*
X22165Y123839D01*
X21633Y123308D01*
X21258Y122657D01*
X21063Y121931D01*
Y121179D01*
X21258Y120453D01*
X21633Y119802D01*
X22165Y119271D01*
X22816Y118895D01*
X23541Y118701D01*
X24293D01*
X25019Y118895D01*
X25670Y119271D01*
X26201Y119802D01*
X26577Y120453D01*
X26772Y121179D01*
Y121931D01*
X26577Y122657D01*
X26201Y123308D01*
X25670Y123839D01*
X25019Y124215D01*
X24293Y124409D01*
D02*
G37*
G36*
X26180Y84449D02*
X25592D01*
X25049Y84224D01*
X24709Y83884D01*
X19291D01*
X18943Y83814D01*
X18647Y83617D01*
X16526Y81496D01*
X16045D01*
X15502Y81271D01*
X15087Y80856D01*
X14862Y80313D01*
Y79726D01*
X15087Y79183D01*
X15502Y78768D01*
X16045Y78543D01*
X16115D01*
X16322Y78043D01*
X14119Y75841D01*
X13922Y75546D01*
X13853Y75197D01*
Y73708D01*
X13520Y73376D01*
X13295Y72833D01*
Y72246D01*
X13520Y71703D01*
X13935Y71288D01*
X14478Y71063D01*
X15065D01*
X15313Y71166D01*
X15813Y70840D01*
Y63972D01*
X15473Y63632D01*
X15248Y63089D01*
Y62502D01*
X15473Y61959D01*
X15888Y61544D01*
X16431Y61319D01*
X17018D01*
X17561Y61544D01*
X17976Y61959D01*
X18201Y62502D01*
Y63089D01*
X17976Y63632D01*
X17636Y63972D01*
Y73532D01*
X21440Y77337D01*
X28252D01*
X28593Y76996D01*
X29136Y76772D01*
X29723D01*
X30265Y76996D01*
X30681Y77412D01*
X30906Y77954D01*
Y78542D01*
X30681Y79084D01*
X30265Y79500D01*
X29723Y79724D01*
X29365D01*
X29261Y79825D01*
X29059Y80193D01*
X29232Y80612D01*
Y81199D01*
X29008Y81742D01*
X28592Y82157D01*
X28050Y82382D01*
X27780D01*
X27404Y82649D01*
X27362Y82844D01*
Y83266D01*
X27137Y83809D01*
X26722Y84224D01*
X26180Y84449D01*
D02*
G37*
G36*
X13286Y53839D02*
X12698D01*
X12156Y53614D01*
X11740Y53198D01*
X11516Y52656D01*
Y52069D01*
X11740Y51526D01*
X12156Y51111D01*
X12698Y50886D01*
X13286D01*
X13828Y51111D01*
X14244Y51526D01*
X14469Y52069D01*
Y52656D01*
X14244Y53198D01*
X13828Y53614D01*
X13286Y53839D01*
D02*
G37*
G36*
X15845Y47343D02*
X15258D01*
X14715Y47118D01*
X14300Y46702D01*
X14075Y46160D01*
Y45573D01*
X14300Y45030D01*
X14715Y44614D01*
X15258Y44390D01*
X15845D01*
X16387Y44614D01*
X16803Y45030D01*
X17028Y45573D01*
Y46160D01*
X16803Y46702D01*
X16387Y47118D01*
X15845Y47343D01*
D02*
G37*
G36*
X13876Y31398D02*
X13289D01*
X12746Y31173D01*
X12331Y30757D01*
X12106Y30215D01*
Y29628D01*
X12331Y29085D01*
X12746Y28670D01*
X13289Y28445D01*
X13876D01*
X14419Y28670D01*
X14834Y29085D01*
X15059Y29628D01*
Y30215D01*
X14834Y30757D01*
X14419Y31173D01*
X13876Y31398D01*
D02*
G37*
G36*
X3837Y31299D02*
X3250D01*
X2707Y31074D01*
X2292Y30659D01*
X2067Y30117D01*
Y29529D01*
X2292Y28986D01*
X2707Y28571D01*
X3250Y28346D01*
X3837D01*
X4380Y28571D01*
X4795Y28986D01*
X5020Y29529D01*
Y30117D01*
X4795Y30659D01*
X4380Y31074D01*
X3837Y31299D01*
D02*
G37*
G36*
X8488Y14764D02*
X7901D01*
X7358Y14539D01*
X6943Y14124D01*
X6718Y13581D01*
Y12994D01*
X6943Y12451D01*
X7358Y12036D01*
X7901Y11811D01*
X8488D01*
X9031Y12036D01*
X9446Y12451D01*
X9671Y12994D01*
Y13581D01*
X9446Y14124D01*
X9031Y14539D01*
X8488Y14764D01*
D02*
G37*
G36*
X211711Y174213D02*
X211124D01*
X210581Y173988D01*
X210166Y173573D01*
X209941Y173030D01*
Y172443D01*
X210166Y171900D01*
X210581Y171485D01*
X211124Y171260D01*
X211711D01*
X212254Y171485D01*
X212669Y171900D01*
X212894Y172443D01*
Y173030D01*
X212669Y173573D01*
X212254Y173988D01*
X211711Y174213D01*
D02*
G37*
G36*
X193863Y161268D02*
X193276D01*
X192734Y161043D01*
X192318Y160628D01*
X192093Y160085D01*
Y159498D01*
X192318Y158956D01*
X192734Y158540D01*
X193276Y158315D01*
X193673D01*
X193712Y158285D01*
X193973Y157889D01*
X193982Y157853D01*
X193826Y157479D01*
Y156891D01*
X194051Y156349D01*
X194467Y155933D01*
X195009Y155709D01*
X195597D01*
X196139Y155933D01*
X196555Y156349D01*
X196779Y156891D01*
Y157479D01*
X196555Y158021D01*
X196139Y158437D01*
X195597Y158661D01*
X195200D01*
X195161Y158692D01*
X194900Y159088D01*
X194891Y159123D01*
X195046Y159498D01*
Y160085D01*
X194821Y160628D01*
X194406Y161043D01*
X193863Y161268D01*
D02*
G37*
G36*
X130743Y145162D02*
X130156D01*
X129613Y144937D01*
X129198Y144522D01*
X128973Y143979D01*
Y143392D01*
X129198Y142849D01*
X129613Y142434D01*
X130156Y142209D01*
X130743D01*
X131286Y142434D01*
X131701Y142849D01*
X131926Y143392D01*
Y143979D01*
X131701Y144522D01*
X131286Y144937D01*
X130743Y145162D01*
D02*
G37*
G36*
X119951Y136980D02*
X119363D01*
X118821Y136755D01*
X118405Y136340D01*
X118181Y135797D01*
Y135210D01*
X118405Y134667D01*
X118821Y134252D01*
X119363Y134027D01*
X119951D01*
X120493Y134252D01*
X120909Y134667D01*
X121133Y135210D01*
Y135797D01*
X120909Y136340D01*
X120493Y136755D01*
X119951Y136980D01*
D02*
G37*
G36*
X132725Y133120D02*
X132137D01*
X131595Y132895D01*
X131179Y132480D01*
X130955Y131937D01*
Y131350D01*
X131179Y130807D01*
X131595Y130392D01*
X132137Y130167D01*
X132725D01*
X133267Y130392D01*
X133683Y130807D01*
X133907Y131350D01*
Y131937D01*
X133683Y132480D01*
X133267Y132895D01*
X132725Y133120D01*
D02*
G37*
G36*
X137105Y132480D02*
X136517D01*
X135975Y132255D01*
X135559Y131840D01*
X135335Y131298D01*
Y130710D01*
X135559Y130168D01*
X135975Y129752D01*
X136517Y129528D01*
X137105D01*
X137647Y129752D01*
X138063Y130168D01*
X138287Y130710D01*
Y131298D01*
X138063Y131840D01*
X137647Y132255D01*
X137105Y132480D01*
D02*
G37*
G36*
X135628Y109350D02*
X135041D01*
X134498Y109126D01*
X134083Y108710D01*
X133858Y108168D01*
Y107580D01*
X134083Y107038D01*
X134498Y106622D01*
X135041Y106398D01*
X135628D01*
X136171Y106622D01*
X136586Y107038D01*
X136811Y107580D01*
Y108168D01*
X136586Y108710D01*
X136171Y109126D01*
X135628Y109350D01*
D02*
G37*
G36*
X105512Y118898D02*
X102362D01*
Y109449D01*
X105512D01*
Y118898D01*
D02*
G37*
G36*
X158122Y114075D02*
X157534D01*
X156992Y113850D01*
X156576Y113435D01*
X156352Y112892D01*
Y112305D01*
X156576Y111762D01*
X156992Y111347D01*
X157534Y111122D01*
X158122D01*
X158664Y111347D01*
X159080Y111762D01*
X159304Y112305D01*
Y112892D01*
X159080Y113435D01*
X158664Y113850D01*
X158122Y114075D01*
D02*
G37*
G36*
X157872Y108071D02*
X157285D01*
X156743Y107846D01*
X156327Y107431D01*
X156102Y106888D01*
Y106301D01*
X156327Y105758D01*
X156743Y105343D01*
X157285Y105118D01*
X157872D01*
X158415Y105343D01*
X158830Y105758D01*
X159055Y106301D01*
Y106888D01*
X158830Y107431D01*
X158415Y107846D01*
X157872Y108071D01*
D02*
G37*
G36*
X142420Y104983D02*
X141832D01*
X141290Y104759D01*
X140874Y104343D01*
X140650Y103801D01*
Y103213D01*
X140874Y102671D01*
X141290Y102255D01*
X141832Y102031D01*
X142420D01*
X142962Y102255D01*
X143378Y102671D01*
X143602Y103213D01*
Y103801D01*
X143378Y104343D01*
X142962Y104759D01*
X142420Y104983D01*
D02*
G37*
G36*
X203739Y95768D02*
X203151D01*
X202609Y95543D01*
X202193Y95128D01*
X201969Y94585D01*
Y93998D01*
X202193Y93455D01*
X202609Y93040D01*
X203151Y92815D01*
X203739D01*
X204281Y93040D01*
X204696Y93455D01*
X204921Y93998D01*
Y94585D01*
X204696Y95128D01*
X204281Y95543D01*
X203739Y95768D01*
D02*
G37*
G36*
X217312Y41298D02*
X216724D01*
X216182Y41073D01*
X215767Y40657D01*
X215542Y40115D01*
Y39527D01*
X215767Y38985D01*
X216182Y38570D01*
X216724Y38345D01*
X217312D01*
X217854Y38570D01*
X218270Y38985D01*
X218495Y39527D01*
Y40115D01*
X218270Y40657D01*
X217854Y41073D01*
X217312Y41298D01*
D02*
G37*
G36*
X215918Y17717D02*
X215331D01*
X214788Y17492D01*
X214373Y17076D01*
X214148Y16534D01*
Y15947D01*
X214268Y15657D01*
X214192Y15248D01*
X214004Y15087D01*
X213632Y14933D01*
X213217Y14517D01*
X212992Y13975D01*
Y13387D01*
X213217Y12845D01*
X213632Y12430D01*
X214175Y12205D01*
X214762D01*
X215305Y12430D01*
X215720Y12845D01*
X215945Y13387D01*
Y13975D01*
X215825Y14264D01*
X215901Y14673D01*
X216089Y14834D01*
X216461Y14989D01*
X216876Y15404D01*
X217101Y15947D01*
Y16534D01*
X216876Y17076D01*
X216461Y17492D01*
X215918Y17717D01*
D02*
G37*
%LPD*%
D11*
X113464Y138646D02*
X123193D01*
X98492Y123674D02*
X113464Y138646D01*
X79928Y123674D02*
X98492D01*
X98297Y144521D02*
X100098Y146322D01*
X101903Y148327D02*
X102690Y147539D01*
Y147470D02*
Y147539D01*
X108767Y146322D02*
X109698Y145391D01*
X103839Y146322D02*
X108767D01*
X102690Y147470D02*
X103839Y146322D01*
X109698Y145391D02*
X109963D01*
X100098Y146322D02*
X103839D01*
X89990Y147638D02*
X90074D01*
X86516Y142618D02*
Y143468D01*
X90074Y146956D02*
Y147638D01*
X86381Y143602D02*
X86516Y143468D01*
X89990Y147638D02*
X90778Y148425D01*
X90945Y142913D02*
X90981Y142950D01*
Y143602D01*
X82608Y142028D02*
X82874D01*
X80836Y140256D02*
X82608Y142028D01*
X44094Y140256D02*
X80836D01*
X120430Y111666D02*
X120472D01*
X70314Y126664D02*
X70519Y126869D01*
X70314Y124418D02*
Y126664D01*
X68546Y130512D02*
X72290Y126767D01*
Y126575D02*
Y126767D01*
X69882Y127506D02*
X70519Y126869D01*
X65936Y125009D02*
X68359Y122586D01*
X25788Y128446D02*
X25955D01*
X28021Y130512D01*
X68546D01*
X27609Y126625D02*
X29921Y128937D01*
X30072Y124312D02*
X32335Y126575D01*
X29922Y124312D02*
X30072D01*
X32335Y126575D02*
X68110D01*
X32678Y121556D02*
X32866Y121744D01*
X34737D01*
X38002Y125009D01*
X188493Y140919D02*
X191335Y143761D01*
X163473Y140919D02*
X188493D01*
X191335Y143761D02*
Y146945D01*
X201378Y156988D01*
X156794Y148740D02*
X159281D01*
X161486Y142906D02*
Y146535D01*
X159281Y148740D02*
X161486Y146535D01*
Y142906D02*
X163473Y140919D01*
X158850Y143816D02*
Y145654D01*
Y143816D02*
X162927Y139738D01*
X175679D01*
X171358Y129527D02*
X172441D01*
X151095Y148152D02*
X152734D01*
X150833Y148413D02*
X151095Y148152D01*
X152734D02*
X171358Y129527D01*
X158661Y145842D02*
X158850Y145654D01*
X172441Y129527D02*
X172638Y129331D01*
X175679Y139738D02*
X176739Y138679D01*
X201378Y156988D02*
X205413D01*
X222343Y81336D02*
Y128937D01*
X220866Y130413D02*
X222343Y128937D01*
X220571Y79564D02*
X222343Y81336D01*
X81135Y148838D02*
X82497D01*
X82812Y148524D01*
X101834Y148327D02*
X101903D01*
X120447Y111732D02*
X120448D01*
X120447D02*
X120472Y111707D01*
X38002Y125009D02*
X65936D01*
X173228Y136818D02*
X174108Y137697D01*
X173228Y131890D02*
Y136818D01*
X174108Y137697D02*
X174176D01*
X178937Y132087D02*
Y133992D01*
X176739Y136190D02*
X178937Y133992D01*
X176739Y136190D02*
Y138679D01*
X178937Y132087D02*
X179134Y131890D01*
X78016Y121761D02*
X79928Y123674D01*
X77827Y119705D02*
X78016Y119893D01*
Y121761D01*
X73538Y114090D02*
X73622Y114173D01*
X67723Y100088D02*
X74720Y107085D01*
Y109395D02*
X75757Y110433D01*
X73538Y107574D02*
Y114090D01*
X66142Y100177D02*
X73538Y107574D01*
X74720Y107085D02*
Y109395D01*
X79134Y108116D02*
Y114173D01*
X75787Y110433D02*
X76378Y111024D01*
X70338Y99320D02*
X79134Y108116D01*
X75757Y110433D02*
X75787D01*
X70338Y94193D02*
Y99320D01*
X70866Y111024D02*
Y114173D01*
X43504Y112303D02*
X52666Y103142D01*
X43504Y112303D02*
Y112492D01*
X47539D02*
X55709Y104323D01*
X61762Y103584D02*
X61951Y103396D01*
X60026Y103584D02*
X61762D01*
X59287Y104323D02*
X60026Y103584D01*
X64059Y101969D02*
X64126D01*
X63173Y101083D02*
X64059Y101969D01*
X60857Y101083D02*
X63173D01*
X60859Y99410D02*
X64183D01*
X58798Y103142D02*
X60857Y101083D01*
X41929Y138091D02*
X44094Y140256D01*
X55709Y104323D02*
X59287D01*
X39665Y112697D02*
X50402Y101961D01*
X58309D01*
X88189Y99311D02*
Y105217D01*
X118271Y94193D02*
X120895Y96817D01*
Y108475D01*
X84842Y108563D02*
X88189Y105217D01*
X29921Y128937D02*
X68450D01*
X69882Y127506D01*
X121161Y147146D02*
X142171D01*
X121063Y147244D02*
X121161Y147146D01*
X142171D02*
X143648Y148622D01*
X148675Y142088D02*
Y146175D01*
X150802Y139961D02*
X159123D01*
X148675Y142088D02*
X150802Y139961D01*
X159123D02*
X171524Y127559D01*
X67723Y94980D02*
Y100088D01*
X76378Y111024D02*
Y114173D01*
X66142Y98068D02*
Y100177D01*
X74642Y96985D02*
X78842Y101184D01*
Y104501D01*
X81890Y107549D01*
X58309Y101961D02*
X60859Y99410D01*
X52666Y103142D02*
X58798D01*
X63123Y95049D02*
X66142Y98068D01*
X62336Y94193D02*
X63123Y94980D01*
X62267Y94193D02*
X62336D01*
X63123Y94980D02*
Y95049D01*
X120472Y108897D02*
X120895Y108475D01*
X109843Y143763D02*
X109963Y143884D01*
Y145391D01*
X120472Y108897D02*
Y111707D01*
X146227Y148622D02*
X148675Y146175D01*
X150833Y147585D02*
Y148413D01*
Y147585D02*
X150876Y147542D01*
X143648Y148622D02*
X146227D01*
X69882Y127506D02*
Y127506D01*
X90778Y148425D02*
X90847D01*
X74642Y94193D02*
Y96985D01*
X172441Y127559D02*
X172638Y127362D01*
X171524Y127559D02*
X172441D01*
X120448Y111732D02*
Y114149D01*
X120472Y114173D01*
X81890Y107549D02*
Y114173D01*
X66936Y94193D02*
X67723Y94980D01*
X66867Y94193D02*
X66936D01*
X94390Y143665D02*
X97441D01*
Y143734D02*
X98228Y144521D01*
X97441Y143665D02*
Y143734D01*
X98228Y144521D02*
X98297D01*
D15*
X112311Y141958D02*
X112697Y142344D01*
X112311Y141742D02*
Y141958D01*
X96947Y126378D02*
X112311Y141742D01*
X112697Y142344D02*
Y142553D01*
X75112Y126378D02*
X96947D01*
X75666Y124961D02*
X97959D01*
X114603Y142023D02*
X115238Y142658D01*
X114603Y141605D02*
Y142023D01*
X97959Y124961D02*
X114603Y141605D01*
X115238Y142658D02*
Y142867D01*
X86228Y146869D02*
Y148407D01*
X86209Y146850D02*
X86228Y146869D01*
Y148407D02*
X86246Y148425D01*
X17323Y140650D02*
X20571Y137402D01*
X17323Y140650D02*
Y198094D01*
X36531Y119701D02*
X68434D01*
X75112Y126378D01*
X69012Y118307D02*
X75666Y124961D01*
X20472Y80905D02*
X27756D01*
X16339Y80020D02*
X19291Y82972D01*
X14764Y75197D02*
X20472Y80905D01*
X16724Y73909D02*
X21063Y78248D01*
X14764Y72547D02*
X14772Y72539D01*
X25886Y82972D02*
X25886Y82972D01*
X16724Y62795D02*
Y73909D01*
X21063Y78248D02*
X29429D01*
X14764Y72547D02*
Y75197D01*
X195276Y81102D02*
Y95866D01*
Y81102D02*
X215551Y60827D01*
Y59153D02*
Y60827D01*
X188853Y102289D02*
X195276Y95866D01*
X169390Y102289D02*
X188853D01*
X32751Y97001D02*
Y110162D01*
X40896Y118307D02*
X69012D01*
X32751Y110162D02*
X40896Y118307D01*
X23454Y87705D02*
X32751Y97001D01*
X145472Y137992D02*
X159646Y123819D01*
X135913Y137992D02*
X145472D01*
X99705Y102165D02*
X105315Y107776D01*
X99705Y98721D02*
Y102165D01*
X105315Y107776D02*
X109449D01*
X24409Y107579D02*
X36531Y119701D01*
X19291Y82972D02*
X25886D01*
X134941Y137081D02*
X135002D01*
X135913Y137992D01*
X99705Y98721D02*
X102129Y96296D01*
Y94193D02*
Y96296D01*
X109449Y105118D02*
Y107776D01*
Y114173D01*
Y105118D02*
X114961Y99606D01*
Y94390D02*
Y99606D01*
X98658Y94193D02*
X102129D01*
X123228Y105512D02*
X130351Y98389D01*
Y94193D02*
Y98389D01*
X123228Y105512D02*
Y111614D01*
X142232Y110539D02*
Y113886D01*
X134415Y102723D02*
X142232Y110539D01*
X134415Y94874D02*
Y102723D01*
X142232Y113886D02*
X142520Y114173D01*
X123228Y111614D02*
X123228Y111614D01*
X123228Y111614D02*
Y114173D01*
X133724Y94193D02*
X133734D01*
X134415Y94874D01*
D19*
X74642Y94193D02*
D03*
X70043D02*
D03*
X85987D02*
D03*
X90587D02*
D03*
X98658D02*
D03*
X94058D02*
D03*
X102129D02*
D03*
X106729D02*
D03*
X122871D02*
D03*
X118271D02*
D03*
X90981Y143602D02*
D03*
X86381D02*
D03*
X174176Y137697D02*
D03*
X178776D02*
D03*
X106434Y148327D02*
D03*
X101834D02*
D03*
X78212Y148524D02*
D03*
X82812D02*
D03*
X77917Y94193D02*
D03*
X82516D02*
D03*
X125751D02*
D03*
X130351D02*
D03*
X82750Y145276D02*
D03*
X78150D02*
D03*
X62267Y94193D02*
D03*
X66867D02*
D03*
X138324D02*
D03*
X133724D02*
D03*
X90847Y148425D02*
D03*
X86246D02*
D03*
D20*
X114961Y94390D02*
D03*
X109449D02*
D03*
D23*
X73917Y148622D02*
D03*
Y143504D02*
D03*
X66437Y146063D02*
D03*
D29*
X52756Y143861D02*
D03*
Y148461D02*
D03*
X94390Y143665D02*
D03*
Y148265D02*
D03*
X97441D02*
D03*
Y143665D02*
D03*
X109843Y148363D02*
D03*
Y143763D02*
D03*
X180315Y114629D02*
D03*
Y119229D02*
D03*
X150833Y148413D02*
D03*
Y143813D02*
D03*
X176870Y114629D02*
D03*
Y119229D02*
D03*
X146457Y143861D02*
D03*
Y148461D02*
D03*
X55905D02*
D03*
Y143861D02*
D03*
D30*
X159302Y94980D02*
D03*
X152902D02*
D03*
X148231D02*
D03*
X141831D02*
D03*
D103*
X28957Y138563D02*
Y174191D01*
Y195256D01*
X102719Y102262D02*
X106729Y98252D01*
X100000Y140847D02*
X103445Y144291D01*
X129232Y122736D02*
X157087D01*
X85841Y132963D02*
X93724Y140847D01*
X100000D01*
X209055Y144491D02*
X212372Y147808D01*
X209055Y141984D02*
Y144491D01*
X212372Y147808D02*
X218867D01*
X15109Y193039D02*
X15136Y193066D01*
X3374Y193039D02*
X15109D01*
X3347Y193012D02*
X3374Y193039D01*
X180246Y119229D02*
X180445Y119030D01*
X173228Y122835D02*
Y125394D01*
X172559Y122244D02*
X173228D01*
X180445Y119030D02*
X181996Y120580D01*
X176410Y118570D02*
X177069Y119229D01*
X170634Y118307D02*
X170695D01*
X149409Y138181D02*
X169283Y118307D01*
X106729Y97306D02*
X109449Y94587D01*
X14862Y206496D02*
X23640Y197718D01*
X82579Y93878D02*
X82894Y94193D01*
X7321Y98228D02*
X7480Y98068D01*
X2818Y146850D02*
X15712Y133957D01*
X7480Y115220D02*
X26099Y133839D01*
X27087Y133957D02*
X33563D01*
X15712D02*
X26969D01*
X3347Y193012D02*
X3396Y192963D01*
X26494Y197718D02*
X28957Y195256D01*
X23640Y197718D02*
X26494D01*
X14862Y206496D02*
Y224017D01*
X33563Y133957D02*
X62106D01*
X28957Y138563D02*
X33563Y133957D01*
X218867Y147808D02*
X219882Y148823D01*
Y178051D01*
X217028Y161677D02*
X217047Y161657D01*
X212974Y165730D02*
X217028Y161677D01*
Y180510D01*
X199338Y165730D02*
X212974D01*
X217047Y156988D02*
Y161657D01*
X216934Y156087D02*
Y156875D01*
X197462Y136614D02*
X216934Y156087D01*
Y156875D02*
X217047Y156988D01*
X199508Y198030D02*
X217028Y180510D01*
X221850Y165490D02*
X222146Y165194D01*
Y138644D02*
Y165194D01*
X221850Y165490D02*
Y165650D01*
Y138189D02*
Y138349D01*
X222146Y138644D01*
X197441Y85828D02*
X220571Y62698D01*
Y35039D02*
Y62698D01*
X197441Y85828D02*
Y97146D01*
X182692Y108942D02*
X185644D01*
X197441Y97146D01*
X182579Y109055D02*
X182692Y108942D01*
X200098Y85925D02*
X211270Y74754D01*
X200098Y85925D02*
Y112303D01*
X211270Y74754D02*
X211726D01*
X216535Y79564D01*
X167913Y109055D02*
X177756D01*
X207874Y84055D02*
Y108560D01*
X205512Y110922D02*
Y111221D01*
Y110922D02*
X207874Y108560D01*
X205512Y111221D02*
Y123819D01*
X171868Y119540D02*
Y121552D01*
X170930Y118542D02*
Y118602D01*
X173228Y122244D02*
Y122835D01*
X171868Y121552D02*
X172559Y122244D01*
X170930Y118602D02*
X171868Y119540D01*
X170695Y118307D02*
X170930Y118542D01*
X157087Y122736D02*
X165027Y114795D01*
X168137D01*
X168250Y114682D01*
X141043Y120768D02*
X156201D01*
X167913Y109055D01*
X7480Y94980D02*
Y98068D01*
X7321Y98228D02*
X7480D01*
X14862Y224017D02*
X17028Y226182D01*
Y226342D01*
X200146Y133075D02*
X209055Y141984D01*
X120669Y125591D02*
X123721Y122539D01*
X104331Y125591D02*
X120669D01*
X101036Y122296D02*
X104331Y125591D01*
X170205Y118307D02*
X170426Y118087D01*
X170634D01*
X168122Y118127D02*
X168302Y118307D01*
X167963Y118127D02*
X168122D01*
X168302Y118307D02*
X169283D01*
X170205D01*
X175129Y118570D02*
X176410D01*
X174423Y117863D02*
X175129Y118570D01*
X174263Y117863D02*
X174423D01*
X177069Y119229D02*
X180246D01*
X181996Y120866D02*
X191535D01*
X181996Y120580D02*
Y120866D01*
X191535D02*
X200098Y112303D01*
X181996Y120866D02*
Y129331D01*
X216732Y31102D02*
Y31201D01*
X220571Y35039D01*
X124335Y122736D02*
X129232D01*
X80475Y121555D02*
X81147Y120883D01*
X80315Y121555D02*
X80475D01*
X7480Y18996D02*
X13878Y12598D01*
X7480Y18996D02*
Y59842D01*
X200146Y132915D02*
Y133075D01*
X123834Y122652D02*
X124251D01*
X123721Y122539D02*
X123834Y122652D01*
X124251D02*
X124335Y122736D01*
X184646Y136614D02*
X197462D01*
X67800Y143420D02*
X67913Y143307D01*
X64637Y143420D02*
X67800D01*
X52756Y148461D02*
X55905D01*
Y148392D02*
X60878Y143420D01*
X55905Y148392D02*
Y148461D01*
X60878Y143420D02*
X64637D01*
X62141Y145916D02*
X64637Y143420D01*
X59153Y148721D02*
X59409D01*
X62141Y145989D01*
Y145916D02*
Y145989D01*
X147138Y140453D02*
X149409Y138181D01*
X2800Y146869D02*
X2818Y146850D01*
X2800Y146869D02*
Y150179D01*
X2782Y150197D02*
X2800Y150179D01*
X106729Y97306D02*
Y98252D01*
Y94193D02*
Y97306D01*
X109449Y94390D02*
Y94587D01*
X3937Y56102D02*
Y56262D01*
X5118Y57443D02*
Y57480D01*
X7480Y59842D01*
X3937Y56262D02*
X5118Y57443D01*
X7480Y59842D02*
Y94980D01*
Y98228D02*
Y115220D01*
X2953Y110692D02*
X7480Y115220D01*
X98340Y119600D02*
X101036Y122296D01*
X87995Y120883D02*
X89408Y122296D01*
X94910D01*
X93110Y120496D02*
X94910Y122296D01*
X101036D01*
X81147Y120883D02*
X87995D01*
X84842Y117730D02*
X87995Y120883D01*
X93110Y114370D02*
Y120496D01*
X125953Y93991D02*
X127315D01*
X125751Y94193D02*
X125953Y93991D01*
X127315D02*
X127428Y93878D01*
X122871Y94193D02*
X125751D01*
X82894D02*
X85987D01*
X84842Y114370D02*
Y117730D01*
X84646Y114173D02*
X84842Y114370D01*
X92913Y114173D02*
X93110Y114370D01*
X98340Y116620D02*
Y119600D01*
Y116620D02*
X98524Y116437D01*
X98425Y114173D02*
Y116339D01*
X98524Y116437D01*
X184053Y131809D02*
X192043Y123819D01*
X211270Y74754D02*
X222236Y63787D01*
X147138Y140453D02*
Y143180D01*
X146457Y143861D02*
X147138Y143180D01*
X222236Y12492D02*
Y63787D01*
X216634Y6890D02*
X222236Y12492D01*
X181996Y129331D02*
Y133964D01*
X184646Y136614D01*
X192043Y123819D02*
X205512D01*
X179724Y129331D02*
X181996D01*
X211574Y224976D02*
X211783D01*
X199508Y218136D02*
X206175Y224803D01*
X211401D01*
X199508Y198030D02*
Y218136D01*
X211401Y224803D02*
X211574Y224976D01*
X200098Y130217D02*
X200211Y130330D01*
X200670D02*
X200951Y130610D01*
X200211Y130330D02*
X200670D01*
X78181Y145307D02*
Y148493D01*
X78150Y145276D02*
X78181Y145307D01*
Y148493D02*
X78212Y148524D01*
X78163Y148573D02*
X78212Y148524D01*
X73917Y148622D02*
X73966Y148573D01*
X78163D01*
X65453Y146555D02*
X65945Y146063D01*
X66437D01*
X65453Y146555D02*
Y148721D01*
X172638Y125394D02*
X173228D01*
Y122835D02*
X175197D01*
X147047Y102069D02*
Y109941D01*
X147739Y110731D02*
X148031Y111024D01*
X147739Y110633D02*
Y110731D01*
X147047Y109941D02*
X147739Y110633D01*
X147047Y102069D02*
X151593Y97523D01*
Y96290D02*
Y97523D01*
Y96290D02*
X152902Y94980D01*
X148031Y111024D02*
Y114173D01*
X145275Y97936D02*
X146853Y96358D01*
X145275Y97936D02*
Y114173D01*
X146921Y96358D02*
X148231Y95049D01*
X146853Y96358D02*
X146921D01*
X148231Y94980D02*
Y95049D01*
D104*
X213542Y47400D02*
X218307Y52165D01*
X213542Y38058D02*
Y47400D01*
D107*
X25689Y211669D02*
D03*
Y26057D02*
D03*
X211319Y206181D02*
D03*
D108*
X26476Y193110D02*
D03*
X22539D02*
D03*
X26476Y189173D02*
D03*
X22539D02*
D03*
X214272Y160925D02*
D03*
X210335D02*
D03*
X214272Y156988D02*
D03*
X210335D02*
D03*
D109*
X13339Y132134D02*
D03*
D110*
X23917Y121555D02*
D03*
D111*
X31447Y188927D02*
D03*
X211417Y172736D02*
D03*
X213295Y169685D02*
D03*
X102719Y102262D02*
D03*
X123193Y138646D02*
D03*
X102007Y138812D02*
D03*
X103543Y137402D02*
D03*
X108661Y131102D02*
D03*
X119657Y135503D02*
D03*
X103445Y144291D02*
D03*
X86209Y146850D02*
D03*
X86516Y142618D02*
D03*
X90074Y146956D02*
D03*
X67097Y146273D02*
D03*
X90945Y142913D02*
D03*
X82874Y142028D02*
D03*
X132431Y131644D02*
D03*
X123524Y135531D02*
D03*
X139764Y127165D02*
D03*
X120430Y111666D02*
D03*
X15223Y189268D02*
D03*
X15136Y193066D02*
D03*
X38248Y138496D02*
D03*
X20571Y137402D02*
D03*
Y131693D02*
D03*
X70314Y124418D02*
D03*
X68359Y122586D02*
D03*
X72290Y126575D02*
D03*
X27609Y126625D02*
D03*
X25788Y128446D02*
D03*
X29922Y124312D02*
D03*
X32678Y121556D02*
D03*
X73144Y119783D02*
D03*
X17323Y198094D02*
D03*
X7812Y203692D02*
D03*
X9736Y219783D02*
D03*
X3642Y188779D02*
D03*
X2953Y173721D02*
D03*
X3347Y193012D02*
D03*
X71063Y108661D02*
D03*
X70768Y115945D02*
D03*
X15650Y49409D02*
D03*
X15551Y45866D02*
D03*
X15748Y42224D02*
D03*
X16339Y80020D02*
D03*
X32874Y47146D02*
D03*
X30906D02*
D03*
X28937D02*
D03*
X26969D02*
D03*
X25000D02*
D03*
X21063D02*
D03*
X13484Y33465D02*
D03*
X12992Y52362D02*
D03*
X22146Y42851D02*
D03*
X216535Y45866D02*
D03*
X215748Y63779D02*
D03*
X219587Y84449D02*
D03*
X191858Y168289D02*
D03*
X221850Y169783D02*
D03*
Y173819D02*
D03*
X199338Y165730D02*
D03*
X201181Y169024D02*
D03*
X200787Y153150D02*
D03*
X205413Y156988D02*
D03*
Y160925D02*
D03*
X217047Y156988D02*
D03*
X221850Y165650D02*
D03*
X193570Y159792D02*
D03*
X195303Y157185D02*
D03*
X211811Y142913D02*
D03*
X205512Y151181D02*
D03*
X162697Y110335D02*
D03*
X157579Y106595D02*
D03*
X209055Y184744D02*
D03*
X210236Y60630D02*
D03*
X209449Y63386D02*
D03*
X207480Y65354D02*
D03*
X205512Y67323D02*
D03*
X203543Y69291D02*
D03*
X190650Y97539D02*
D03*
X204331Y75295D02*
D03*
X190945Y82284D02*
D03*
Y66535D02*
D03*
Y64567D02*
D03*
X215551Y59153D02*
D03*
X218537Y59055D02*
D03*
X218307Y52165D02*
D03*
X220571Y91043D02*
D03*
X220866Y130413D02*
D03*
X216535Y79564D02*
D03*
X212779Y90895D02*
D03*
X214345Y89389D02*
D03*
X214088Y92682D02*
D03*
X215490Y91164D02*
D03*
X149114Y103445D02*
D03*
X182579Y109055D02*
D03*
X180020D02*
D03*
X177756D02*
D03*
X169390Y102289D02*
D03*
X216929Y101575D02*
D03*
X219291Y104331D02*
D03*
X216929D02*
D03*
X214567Y101575D02*
D03*
Y104331D02*
D03*
X212205D02*
D03*
Y101575D02*
D03*
X23454Y87705D02*
D03*
X33268Y193404D02*
D03*
X20276Y230942D02*
D03*
X221654Y211024D02*
D03*
Y200000D02*
D03*
X191732Y193701D02*
D03*
X194488Y195669D02*
D03*
X202362Y213779D02*
D03*
X204331Y215748D02*
D03*
X207480Y217323D02*
D03*
X200394Y222835D02*
D03*
X198031D02*
D03*
X195669Y218110D02*
D03*
X195160Y199822D02*
D03*
X221099Y3740D02*
D03*
Y6791D02*
D03*
X220571Y79564D02*
D03*
X190945Y72441D02*
D03*
Y80315D02*
D03*
Y78347D02*
D03*
Y76378D02*
D03*
Y74410D02*
D03*
Y70472D02*
D03*
Y68504D02*
D03*
Y62598D02*
D03*
X192913D02*
D03*
X194882Y60630D02*
D03*
X192913D02*
D03*
X190945D02*
D03*
Y58661D02*
D03*
X192913D02*
D03*
X194882D02*
D03*
X196850D02*
D03*
X198819Y56693D02*
D03*
X196850D02*
D03*
X194882D02*
D03*
X192913D02*
D03*
X194882Y54724D02*
D03*
X196850D02*
D03*
X198819D02*
D03*
X196850Y52756D02*
D03*
X198819D02*
D03*
Y50787D02*
D03*
X190945Y54724D02*
D03*
X198819Y46850D02*
D03*
X194882Y52756D02*
D03*
X198819Y48819D02*
D03*
X192913Y52756D02*
D03*
X194882Y50787D02*
D03*
X192913Y54724D02*
D03*
X196850Y50787D02*
D03*
Y48819D02*
D03*
X190945Y56693D02*
D03*
X190945Y52756D02*
D03*
Y3543D02*
D03*
X192913D02*
D03*
X198819Y11417D02*
D03*
X196850Y17323D02*
D03*
Y15354D02*
D03*
Y9449D02*
D03*
X198819D02*
D03*
X194882Y29134D02*
D03*
Y37008D02*
D03*
Y38976D02*
D03*
Y31102D02*
D03*
X196850Y44882D02*
D03*
Y40945D02*
D03*
Y38976D02*
D03*
X198819D02*
D03*
Y37008D02*
D03*
X196850Y19291D02*
D03*
Y46850D02*
D03*
X198819Y17323D02*
D03*
X192913Y21260D02*
D03*
Y27165D02*
D03*
X196850Y31102D02*
D03*
X194882Y33071D02*
D03*
X196850Y29134D02*
D03*
X198819D02*
D03*
X194882Y42913D02*
D03*
X198819Y27165D02*
D03*
Y25197D02*
D03*
X190945Y31102D02*
D03*
X196850Y21260D02*
D03*
X190945Y48819D02*
D03*
Y44882D02*
D03*
Y33071D02*
D03*
X196850D02*
D03*
X192913Y38976D02*
D03*
Y37008D02*
D03*
X190945Y15354D02*
D03*
X192913Y11417D02*
D03*
X194882Y40945D02*
D03*
Y13386D02*
D03*
X192913Y15354D02*
D03*
X198819Y23228D02*
D03*
X194882Y27165D02*
D03*
X196850Y35039D02*
D03*
X190945Y46850D02*
D03*
X192913Y50787D02*
D03*
X196850Y37008D02*
D03*
X194882Y19291D02*
D03*
Y21260D02*
D03*
Y7480D02*
D03*
Y46850D02*
D03*
X192913Y42913D02*
D03*
X194882Y11417D02*
D03*
Y9449D02*
D03*
X192913Y29134D02*
D03*
X194882Y5512D02*
D03*
X196850Y3543D02*
D03*
X194882Y44882D02*
D03*
X192913Y40945D02*
D03*
X190945Y13386D02*
D03*
X198819Y5512D02*
D03*
X190945Y17323D02*
D03*
X194882Y25197D02*
D03*
X196850D02*
D03*
Y5512D02*
D03*
Y27165D02*
D03*
X194882Y35039D02*
D03*
X190945Y50787D02*
D03*
X198819Y19291D02*
D03*
Y42913D02*
D03*
X192913Y25197D02*
D03*
X190945Y40945D02*
D03*
X194882Y17323D02*
D03*
X192913Y44882D02*
D03*
Y33071D02*
D03*
Y19291D02*
D03*
X194882Y3543D02*
D03*
X198819Y33071D02*
D03*
Y7480D02*
D03*
X192913Y13386D02*
D03*
X196850Y23228D02*
D03*
X190945Y35039D02*
D03*
X194882Y15354D02*
D03*
X192913Y31102D02*
D03*
Y48819D02*
D03*
X190945Y37008D02*
D03*
X192913Y7480D02*
D03*
X190945Y23228D02*
D03*
Y38976D02*
D03*
X198819Y40945D02*
D03*
Y21260D02*
D03*
X190945Y5512D02*
D03*
X196850Y13386D02*
D03*
X190945Y21260D02*
D03*
Y42913D02*
D03*
X192913Y9449D02*
D03*
X198819Y35039D02*
D03*
X192913Y46850D02*
D03*
X190945Y29134D02*
D03*
X196850Y7480D02*
D03*
X190945Y19291D02*
D03*
X198819Y44882D02*
D03*
Y31102D02*
D03*
X190945Y25197D02*
D03*
Y27165D02*
D03*
X196850Y11417D02*
D03*
X194882Y23228D02*
D03*
X192913Y5512D02*
D03*
X190945Y9449D02*
D03*
X192913Y35039D02*
D03*
X194882Y48819D02*
D03*
X190945Y11417D02*
D03*
X192913Y23228D02*
D03*
X198819Y13386D02*
D03*
X190945Y7480D02*
D03*
X198819Y3543D02*
D03*
X192913Y17323D02*
D03*
X196850Y42913D02*
D03*
X198819Y15354D02*
D03*
X123698Y125627D02*
D03*
X107172Y123327D02*
D03*
X113261Y107599D02*
D03*
X109153Y121949D02*
D03*
X102031Y135889D02*
D03*
X113347Y117335D02*
D03*
X101181Y117323D02*
D03*
X111072Y120238D02*
D03*
X169433Y116452D02*
D03*
X170606Y114640D02*
D03*
X168250Y114682D02*
D03*
X55512Y112402D02*
D03*
X61713Y122835D02*
D03*
X54921D02*
D03*
X48228Y122933D02*
D03*
X41634D02*
D03*
X169980Y135531D02*
D03*
X180315Y135827D02*
D03*
X175886Y134252D02*
D03*
X167963Y118127D02*
D03*
X170634Y118087D02*
D03*
X195965Y111221D02*
D03*
X194685Y109350D02*
D03*
X197146Y109153D02*
D03*
X219882Y28248D02*
D03*
X219783Y31102D02*
D03*
X216732D02*
D03*
X217018Y39821D02*
D03*
X157828Y112598D02*
D03*
X150098Y124803D02*
D03*
X152461D02*
D03*
X152549Y118799D02*
D03*
X160531Y110433D02*
D03*
X159646Y123819D02*
D03*
X159449Y94488D02*
D03*
X157024Y94193D02*
D03*
X144882Y127559D02*
D03*
X142913D02*
D03*
X142126Y134252D02*
D03*
X140157D02*
D03*
Y130709D02*
D03*
X147736Y124803D02*
D03*
X150543Y118799D02*
D03*
X77827Y119705D02*
D03*
X80315Y121555D02*
D03*
X76673Y108563D02*
D03*
X47539Y112492D02*
D03*
X43504D02*
D03*
X61951Y103396D02*
D03*
X64126Y101969D02*
D03*
X64183Y99410D02*
D03*
X14772Y72539D02*
D03*
X200146Y132915D02*
D03*
X198349Y131305D02*
D03*
X186119Y117620D02*
D03*
X186218Y115485D02*
D03*
X210630Y15453D02*
D03*
X208661Y43012D02*
D03*
X204724Y17421D02*
D03*
X210630Y3642D02*
D03*
X202756Y7579D02*
D03*
X210630Y13484D02*
D03*
X204724Y23327D02*
D03*
X202756Y11516D02*
D03*
X206693Y48917D02*
D03*
X204724Y35138D02*
D03*
X202756Y9547D02*
D03*
X204724Y5610D02*
D03*
X206693Y23327D02*
D03*
X208661Y11516D02*
D03*
X202756Y27264D02*
D03*
Y25295D02*
D03*
X210630Y31201D02*
D03*
Y44980D02*
D03*
X202756Y19390D02*
D03*
X208661Y7579D02*
D03*
X202756Y29232D02*
D03*
X204724Y46949D02*
D03*
X210630Y35138D02*
D03*
X204724Y9547D02*
D03*
X202756Y43012D02*
D03*
Y21358D02*
D03*
Y52854D02*
D03*
X208661Y13484D02*
D03*
X202756Y5610D02*
D03*
X210630Y21358D02*
D03*
Y41043D02*
D03*
X202756Y39075D02*
D03*
Y23327D02*
D03*
X204724Y7579D02*
D03*
X202756Y37106D02*
D03*
X204724Y48917D02*
D03*
Y31201D02*
D03*
X206693Y15453D02*
D03*
X202756Y35138D02*
D03*
X208661Y23327D02*
D03*
X204724Y13484D02*
D03*
X210630Y7579D02*
D03*
Y33169D02*
D03*
X206693Y3642D02*
D03*
X204724Y19390D02*
D03*
Y33169D02*
D03*
Y44980D02*
D03*
X206693Y17421D02*
D03*
X202756Y41043D02*
D03*
X204724Y25295D02*
D03*
X210630Y43012D02*
D03*
Y19390D02*
D03*
X202756Y50886D02*
D03*
X206693Y35138D02*
D03*
X208661Y27264D02*
D03*
Y5610D02*
D03*
Y25295D02*
D03*
X206693D02*
D03*
X202756Y17421D02*
D03*
X210630Y5610D02*
D03*
X202756Y13484D02*
D03*
X204724Y41043D02*
D03*
X206693Y44980D02*
D03*
X208661Y3642D02*
D03*
X206693Y5610D02*
D03*
X204724Y29232D02*
D03*
X206693Y9547D02*
D03*
Y11516D02*
D03*
X204724Y43012D02*
D03*
X206693Y46949D02*
D03*
Y7579D02*
D03*
Y21358D02*
D03*
Y19390D02*
D03*
X208661Y37106D02*
D03*
X204724Y50886D02*
D03*
X202756Y46949D02*
D03*
X208661Y35138D02*
D03*
X206693Y27264D02*
D03*
X210630Y23327D02*
D03*
X204724Y15453D02*
D03*
X206693Y13484D02*
D03*
Y41043D02*
D03*
X204724Y11516D02*
D03*
X202756Y15453D02*
D03*
X204724Y37106D02*
D03*
Y39075D02*
D03*
X208661Y33169D02*
D03*
X202756D02*
D03*
Y44980D02*
D03*
Y48917D02*
D03*
X208661Y21358D02*
D03*
X202756Y31201D02*
D03*
X210630Y25295D02*
D03*
Y27264D02*
D03*
X206693Y43012D02*
D03*
X210630Y29232D02*
D03*
X208661D02*
D03*
X206693Y33169D02*
D03*
X208661Y31201D02*
D03*
X204724Y27264D02*
D03*
Y21358D02*
D03*
X210630Y17421D02*
D03*
X208661Y46949D02*
D03*
Y19390D02*
D03*
X210630Y37106D02*
D03*
Y39075D02*
D03*
X208661D02*
D03*
Y41043D02*
D03*
Y44980D02*
D03*
X206693Y31201D02*
D03*
Y39075D02*
D03*
Y37106D02*
D03*
Y29232D02*
D03*
X210630Y9547D02*
D03*
X208661D02*
D03*
Y15453D02*
D03*
Y17421D02*
D03*
X210630Y11516D02*
D03*
X204724Y3642D02*
D03*
X202756D02*
D03*
X106390Y110078D02*
D03*
X106398Y112205D02*
D03*
X102756Y108268D02*
D03*
X101181Y109449D02*
D03*
Y111417D02*
D03*
Y113386D02*
D03*
Y115354D02*
D03*
X96063Y120079D02*
D03*
X90945D02*
D03*
X94882Y131496D02*
D03*
X116513Y106004D02*
D03*
X114481Y104447D02*
D03*
X112992Y119291D02*
D03*
X114961D02*
D03*
X116929Y121260D02*
D03*
X114961D02*
D03*
X112992D02*
D03*
X111024Y123228D02*
D03*
X112992D02*
D03*
X114961D02*
D03*
X116929D02*
D03*
X118898D02*
D03*
X110630Y131102D02*
D03*
X112598Y131496D02*
D03*
X111024Y133071D02*
D03*
X100394Y137402D02*
D03*
X97539Y148838D02*
D03*
X109843D02*
D03*
X109963Y145295D02*
D03*
X3543Y132677D02*
D03*
Y130315D02*
D03*
Y128347D02*
D03*
X19291Y107087D02*
D03*
X17323D02*
D03*
X15354D02*
D03*
X3543Y47638D02*
D03*
Y49606D02*
D03*
Y51575D02*
D03*
X219291Y185827D02*
D03*
X221260D02*
D03*
Y183465D02*
D03*
X216142Y135433D02*
D03*
Y137795D02*
D03*
Y140157D02*
D03*
X214567Y142913D02*
D03*
Y145669D02*
D03*
X217323Y142913D02*
D03*
Y145669D02*
D03*
X220079Y142913D02*
D03*
Y145669D02*
D03*
X207874Y84055D02*
D03*
X219291Y101575D02*
D03*
X218996Y20768D02*
D03*
X220079Y14567D02*
D03*
X213779Y227953D02*
D03*
X6299Y220079D02*
D03*
Y222047D02*
D03*
Y224016D02*
D03*
Y225984D02*
D03*
X17224Y231040D02*
D03*
X33858Y197638D02*
D03*
Y199606D02*
D03*
Y201575D02*
D03*
X3543Y25591D02*
D03*
Y33465D02*
D03*
X3937Y15748D02*
D03*
Y12992D02*
D03*
Y10630D02*
D03*
Y8268D02*
D03*
X23031Y47146D02*
D03*
X13780Y16929D02*
D03*
X13386Y22047D02*
D03*
X3937Y42126D02*
D03*
X3543Y60630D02*
D03*
Y69193D02*
D03*
X3642Y77953D02*
D03*
X3543Y85827D02*
D03*
Y87795D02*
D03*
Y89764D02*
D03*
Y91732D02*
D03*
X9843Y90551D02*
D03*
X2756Y94882D02*
D03*
Y98425D02*
D03*
X200787Y151181D02*
D03*
X215888Y152257D02*
D03*
X217717Y150787D02*
D03*
Y153150D02*
D03*
X205512D02*
D03*
X214469Y150787D02*
D03*
X213154Y137973D02*
D03*
X211122Y137992D02*
D03*
X196555Y121653D02*
D03*
X194488Y121555D02*
D03*
X216339Y3642D02*
D03*
X197798Y195571D02*
D03*
X207382Y230610D02*
D03*
X210531D02*
D03*
X71075Y134646D02*
D03*
X67913Y143307D02*
D03*
X61904Y116407D02*
D03*
X16724Y62795D02*
D03*
X24409Y107579D02*
D03*
X25886Y82972D02*
D03*
X39665Y112697D02*
D03*
X64961Y122933D02*
D03*
X32185Y146063D02*
D03*
X41929Y138091D02*
D03*
X123721Y122539D02*
D03*
X134941Y137081D02*
D03*
X136811Y131004D02*
D03*
X82874Y104817D02*
D03*
X85335Y102665D02*
D03*
X90945Y99402D02*
D03*
X88189Y99311D02*
D03*
X141043Y120768D02*
D03*
X141870Y93979D02*
D03*
X138189Y93898D02*
D03*
X156102Y98002D02*
D03*
X128937Y103270D02*
D03*
X132185Y103543D02*
D03*
X93504Y104831D02*
D03*
X89961Y108563D02*
D03*
X90158Y105709D02*
D03*
X84842Y108563D02*
D03*
X87402D02*
D03*
X3937Y56102D02*
D03*
X3543Y29823D02*
D03*
X53839Y135925D02*
D03*
X57776Y136024D02*
D03*
X44783Y122835D02*
D03*
X121063Y147244D02*
D03*
X46063Y138484D02*
D03*
X82579Y93878D02*
D03*
X184053Y131809D02*
D03*
X112697Y142553D02*
D03*
X115238Y142867D02*
D03*
X130449Y143685D02*
D03*
X149409Y138181D02*
D03*
X150833Y143813D02*
D03*
X129232Y122736D02*
D03*
X213542Y38058D02*
D03*
X182283Y111319D02*
D03*
X179921Y111122D02*
D03*
X216943Y92785D02*
D03*
X216648Y89402D02*
D03*
X218217Y90997D02*
D03*
X219529Y92733D02*
D03*
X219606Y89312D02*
D03*
X205512Y111221D02*
D03*
X174263Y117863D02*
D03*
X212131Y222441D02*
D03*
X211783Y224976D02*
D03*
X219882Y178051D02*
D03*
X221850Y138189D02*
D03*
X200098Y127362D02*
D03*
X198327Y128937D02*
D03*
X200098Y130217D02*
D03*
X13583Y29921D02*
D03*
X13878Y12598D02*
D03*
X17224Y226440D02*
D03*
X7480Y94980D02*
D03*
X2935Y103266D02*
D03*
X2953Y110692D02*
D03*
X2818Y146850D02*
D03*
X2782Y150197D02*
D03*
X216634Y6890D02*
D03*
X203445Y94291D02*
D03*
X93629Y107617D02*
D03*
X134704Y119783D02*
D03*
X126118Y119783D02*
D03*
X85841Y132963D02*
D03*
X81135Y148838D02*
D03*
X76772Y103248D02*
D03*
X84744Y100175D02*
D03*
X82185Y100197D02*
D03*
X33760Y78248D02*
D03*
X29429D02*
D03*
X27756Y80905D02*
D03*
X8194Y13287D02*
D03*
X12795Y226673D02*
D03*
X62106Y133957D02*
D03*
X65158Y134055D02*
D03*
X70079Y148838D02*
D03*
X116788Y108569D02*
D03*
X119123Y107521D02*
D03*
X137402Y135335D02*
D03*
X123322Y101862D02*
D03*
X127428Y93878D02*
D03*
X132387Y107377D02*
D03*
X135335Y107874D02*
D03*
X215624Y16240D02*
D03*
X150876Y147542D02*
D03*
X158661Y145842D02*
D03*
X156794Y148740D02*
D03*
X214469Y13681D02*
D03*
X205512Y123819D02*
D03*
X68110Y126575D02*
D03*
X58100Y122867D02*
D03*
X51476Y122835D02*
D03*
X77917Y94193D02*
D03*
X123228Y111614D02*
D03*
X149016Y107874D02*
D03*
X142174Y107768D02*
D03*
X7480Y98228D02*
D03*
X142126Y103507D02*
D03*
D112*
X28957Y174191D02*
D03*
D113*
X21372Y183898D02*
D03*
D114*
X59153Y148721D02*
D03*
X65453D02*
D03*
D115*
X173228Y131890D02*
D03*
X175197D02*
D03*
X177165D02*
D03*
X179134D02*
D03*
Y122835D02*
D03*
X175197D02*
D03*
X173228D02*
D03*
X177165D02*
D03*
D116*
X179724Y129331D02*
D03*
Y127362D02*
D03*
Y125394D02*
D03*
X172638D02*
D03*
Y127362D02*
D03*
Y129331D02*
D03*
D117*
X153543Y114173D02*
D03*
X150787Y114173D02*
D03*
X148031D02*
D03*
X145275D02*
D03*
X142520D02*
D03*
X139764D02*
D03*
X137008D02*
D03*
X134252D02*
D03*
X131496D02*
D03*
X128740D02*
D03*
X125984D02*
D03*
X123228D02*
D03*
X120472D02*
D03*
X117717D02*
D03*
X114961D02*
D03*
X112205D02*
D03*
X109449D02*
D03*
X106693D02*
D03*
X103937D02*
D03*
X101181D02*
D03*
X98425D02*
D03*
X95669D02*
D03*
X92913D02*
D03*
X90157D02*
D03*
X87401D02*
D03*
X84646D02*
D03*
X81890D02*
D03*
X79134D02*
D03*
X76378D02*
D03*
X73622D02*
D03*
X70866D02*
D03*
M02*
