G04*
G04 #@! TF.GenerationSoftware,Altium Limited,Altium Designer,21.7.2 (23)*
G04*
G04 Layer_Color=8388736*
%FSLAX25Y25*%
%MOIN*%
G70*
G04*
G04 #@! TF.SameCoordinates,69D8725E-F89C-4CC4-9FD4-90FE9EACA07C*
G04*
G04*
G04 #@! TF.FilePolarity,Negative*
G04*
G01*
G75*
%ADD56O,0.06312X0.08674*%
%ADD57R,0.05131X0.03359*%
%ADD58R,0.03162X0.02375*%
%ADD59R,0.03300X0.03162*%
%ADD60R,0.03162X0.03556*%
%ADD61R,0.07217X0.03202*%
%ADD62R,0.07493X0.09658*%
%ADD63R,0.02178X0.03950*%
%ADD64R,0.04737X0.02965*%
%ADD65R,0.01883X0.01981*%
%ADD66R,0.02965X0.05918*%
%ADD67R,0.03950X0.06607*%
%ADD68R,0.08083X0.13103*%
%ADD69R,0.03556X0.03162*%
%ADD70R,0.03162X0.03300*%
%ADD71R,0.04600X0.04737*%
%ADD72R,0.06312X0.07099*%
%ADD73R,0.04147X0.01981*%
G04:AMPARAMS|DCode=74|XSize=61.15mil|YSize=47.37mil|CornerRadius=0mil|HoleSize=0mil|Usage=FLASHONLY|Rotation=45.000|XOffset=0mil|YOffset=0mil|HoleType=Round|Shape=Rectangle|*
%AMROTATEDRECTD74*
4,1,4,-0.00487,-0.03837,-0.03837,-0.00487,0.00487,0.03837,0.03837,0.00487,-0.00487,-0.03837,0.0*
%
%ADD74ROTATEDRECTD74*%

G04:AMPARAMS|DCode=75|XSize=86.74mil|YSize=78.87mil|CornerRadius=0mil|HoleSize=0mil|Usage=FLASHONLY|Rotation=45.000|XOffset=0mil|YOffset=0mil|HoleType=Round|Shape=Rectangle|*
%AMROTATEDRECTD75*
4,1,4,-0.00278,-0.05855,-0.05855,-0.00278,0.00278,0.05855,0.05855,0.00278,-0.00278,-0.05855,0.0*
%
%ADD75ROTATEDRECTD75*%

%ADD76R,0.03556X0.04737*%
%ADD77P,0.37322X4X90.0*%
G04:AMPARAMS|DCode=78|XSize=45.4mil|YSize=15.87mil|CornerRadius=0mil|HoleSize=0mil|Usage=FLASHONLY|Rotation=45.000|XOffset=0mil|YOffset=0mil|HoleType=Round|Shape=Rectangle|*
%AMROTATEDRECTD78*
4,1,4,-0.01044,-0.02166,-0.02166,-0.01044,0.01044,0.02166,0.02166,0.01044,-0.01044,-0.02166,0.0*
%
%ADD78ROTATEDRECTD78*%

G04:AMPARAMS|DCode=79|XSize=45.4mil|YSize=15.87mil|CornerRadius=0mil|HoleSize=0mil|Usage=FLASHONLY|Rotation=315.000|XOffset=0mil|YOffset=0mil|HoleType=Round|Shape=Rectangle|*
%AMROTATEDRECTD79*
4,1,4,-0.02166,0.01044,-0.01044,0.02166,0.02166,-0.01044,0.01044,-0.02166,-0.02166,0.01044,0.0*
%
%ADD79ROTATEDRECTD79*%

%ADD80R,0.03359X0.05131*%
%ADD81R,0.02375X0.03162*%
%ADD82R,0.07493X0.10249*%
%ADD83R,0.04147X0.02178*%
%ADD84R,0.05300X0.06706*%
%ADD85R,0.03162X0.07099*%
%ADD86R,0.05524X0.07887*%
%ADD87R,0.04737X0.04600*%
%ADD88R,0.10642X0.71666*%
G04:AMPARAMS|DCode=89|XSize=27.56mil|YSize=23.62mil|CornerRadius=6.89mil|HoleSize=0mil|Usage=FLASHONLY|Rotation=180.000|XOffset=0mil|YOffset=0mil|HoleType=Round|Shape=RoundedRectangle|*
%AMROUNDEDRECTD89*
21,1,0.02756,0.00984,0,0,180.0*
21,1,0.01378,0.02362,0,0,180.0*
1,1,0.01378,-0.00689,0.00492*
1,1,0.01378,0.00689,0.00492*
1,1,0.01378,0.00689,-0.00492*
1,1,0.01378,-0.00689,-0.00492*
%
%ADD89ROUNDEDRECTD89*%
%ADD90R,0.02375X0.02375*%
%ADD91R,0.02375X0.02965*%
%ADD92R,0.10446X0.08674*%
%ADD93R,0.12611X0.06509*%
%ADD94O,0.05918X0.04737*%
%ADD95R,0.04737X0.03556*%
%ADD96R,0.06706X0.05300*%
%ADD97R,0.00800X0.00800*%
%ADD98C,0.19685*%
%ADD99C,0.01902*%
%ADD100C,0.02276*%
%ADD101C,0.02867*%
D56*
X215354Y111221D02*
D03*
X205512D02*
D03*
X195669D02*
D03*
X205512Y123819D02*
D03*
X195669D02*
D03*
D57*
X212500Y193701D02*
D03*
Y178937D02*
D03*
X220177Y49213D02*
D03*
Y34449D02*
D03*
Y24803D02*
D03*
Y10039D02*
D03*
X3642Y19488D02*
D03*
Y4724D02*
D03*
Y37402D02*
D03*
Y22638D02*
D03*
X6496Y230413D02*
D03*
Y215650D02*
D03*
X6496Y212402D02*
D03*
Y197638D02*
D03*
X220177Y231004D02*
D03*
Y216240D02*
D03*
D58*
X206201Y189862D02*
D03*
Y187500D02*
D03*
Y185138D02*
D03*
Y182776D02*
D03*
X213878Y45374D02*
D03*
Y43012D02*
D03*
Y40650D02*
D03*
Y38287D02*
D03*
Y20965D02*
D03*
Y18602D02*
D03*
Y16240D02*
D03*
Y13878D02*
D03*
X9941Y15650D02*
D03*
Y13287D02*
D03*
Y10925D02*
D03*
Y8563D02*
D03*
Y33563D02*
D03*
Y31201D02*
D03*
Y28839D02*
D03*
Y26476D02*
D03*
X12795Y226575D02*
D03*
Y224213D02*
D03*
Y221850D02*
D03*
Y219488D02*
D03*
X12795Y208563D02*
D03*
Y206201D02*
D03*
Y203839D02*
D03*
Y201476D02*
D03*
X213878Y227165D02*
D03*
Y224803D02*
D03*
Y222441D02*
D03*
Y220079D02*
D03*
D59*
X17090Y183957D02*
D03*
X21690D02*
D03*
X29435Y184020D02*
D03*
X24835D02*
D03*
X206854Y172638D02*
D03*
X211454D02*
D03*
X15587Y101575D02*
D03*
X10987D02*
D03*
X2953Y103248D02*
D03*
X7553D02*
D03*
X7517Y107283D02*
D03*
X2916D02*
D03*
X2953Y173721D02*
D03*
X7553D02*
D03*
X7418Y146850D02*
D03*
X2818D02*
D03*
X2782Y150197D02*
D03*
X7382D02*
D03*
X97306Y148327D02*
D03*
X101906D02*
D03*
X109780D02*
D03*
X105180D02*
D03*
X110505Y94193D02*
D03*
X105905D02*
D03*
X25725Y198031D02*
D03*
X21125D02*
D03*
X57605Y134055D02*
D03*
X62205D02*
D03*
X69721D02*
D03*
X65121D02*
D03*
X18245Y38189D02*
D03*
X13645D02*
D03*
X112723Y147343D02*
D03*
X117323D02*
D03*
X144721Y130709D02*
D03*
X140121D02*
D03*
X126217Y103347D02*
D03*
X121617D02*
D03*
X125751Y94193D02*
D03*
X130351D02*
D03*
X215613Y59055D02*
D03*
X220213D02*
D03*
Y55020D02*
D03*
X215613D02*
D03*
X152326Y109744D02*
D03*
X156926D02*
D03*
Y113091D02*
D03*
X152326D02*
D03*
X211454Y175689D02*
D03*
X206854D02*
D03*
X156926Y97539D02*
D03*
X152326D02*
D03*
X152424Y94193D02*
D03*
X157024D02*
D03*
X216535Y31201D02*
D03*
X221135D02*
D03*
X216535Y28051D02*
D03*
X221135D02*
D03*
X216499Y6791D02*
D03*
X221099D02*
D03*
X216499Y3740D02*
D03*
X221099D02*
D03*
X208993Y75295D02*
D03*
X204393D02*
D03*
X203212Y130413D02*
D03*
X207812D02*
D03*
X208325Y166895D02*
D03*
X212925D02*
D03*
X221296Y165748D02*
D03*
X216696D02*
D03*
X221296Y169783D02*
D03*
X216696D02*
D03*
X216696Y173819D02*
D03*
X221296D02*
D03*
X199938Y200000D02*
D03*
X195338D02*
D03*
X202398Y195571D02*
D03*
X197798D02*
D03*
X18861Y92323D02*
D03*
X23461D02*
D03*
X18763Y96358D02*
D03*
X23363D02*
D03*
X2880Y98228D02*
D03*
X7480D02*
D03*
X2880Y94980D02*
D03*
X7480D02*
D03*
D60*
X8858Y193012D02*
D03*
X3347D02*
D03*
X132283Y131496D02*
D03*
X126772D02*
D03*
D61*
X31299Y193110D02*
D03*
X17717D02*
D03*
X31299Y189173D02*
D03*
X17717D02*
D03*
X219094Y160925D02*
D03*
X205512D02*
D03*
X219094Y156988D02*
D03*
X205512D02*
D03*
D62*
X17323Y158858D02*
D03*
X31102Y175591D02*
D03*
Y158858D02*
D03*
D63*
X15748Y42224D02*
D03*
X3937D02*
D03*
Y56201D02*
D03*
X15748D02*
D03*
D64*
X191858Y168289D02*
D03*
Y163171D02*
D03*
X199338Y165730D02*
D03*
D65*
X198083Y160039D02*
D03*
X195618D02*
D03*
Y157185D02*
D03*
X198083D02*
D03*
D66*
X186122Y116980D02*
D03*
X174311D02*
D03*
D67*
X180217Y116634D02*
D03*
D68*
Y107579D02*
D03*
D69*
X90453Y145768D02*
D03*
X86516D02*
D03*
Y142618D02*
D03*
X90453D02*
D03*
X136516Y118996D02*
D03*
Y113484D02*
D03*
D70*
X13484Y34324D02*
D03*
Y29724D02*
D03*
Y21876D02*
D03*
Y26476D02*
D03*
X3543Y65095D02*
D03*
Y60495D02*
D03*
X3642Y82615D02*
D03*
Y78015D02*
D03*
X3543Y73855D02*
D03*
Y69255D02*
D03*
X2953Y110692D02*
D03*
Y115292D02*
D03*
X20276Y226342D02*
D03*
Y230942D02*
D03*
X11319Y169255D02*
D03*
Y173855D02*
D03*
X17224Y226440D02*
D03*
Y231040D02*
D03*
X103248Y94255D02*
D03*
Y98855D02*
D03*
X100197Y94255D02*
D03*
Y98855D02*
D03*
X97146Y94255D02*
D03*
Y98855D02*
D03*
X17323Y198094D02*
D03*
Y202694D02*
D03*
X61910Y111873D02*
D03*
Y116473D02*
D03*
X65256Y111184D02*
D03*
Y115784D02*
D03*
X22146Y42851D02*
D03*
Y38251D02*
D03*
X75295Y114702D02*
D03*
Y110102D02*
D03*
X78642Y112169D02*
D03*
Y116769D02*
D03*
X82776Y140417D02*
D03*
Y145017D02*
D03*
X127854Y122995D02*
D03*
Y127595D02*
D03*
X131004Y122995D02*
D03*
Y127595D02*
D03*
X136614Y127139D02*
D03*
Y122539D02*
D03*
X139764D02*
D03*
Y127139D02*
D03*
X148819Y103409D02*
D03*
Y108009D02*
D03*
X145472D02*
D03*
Y103409D02*
D03*
X142126Y103507D02*
D03*
Y108107D02*
D03*
X138779D02*
D03*
Y103507D02*
D03*
X135433D02*
D03*
Y108107D02*
D03*
X132185D02*
D03*
Y103507D02*
D03*
X128839Y108009D02*
D03*
Y103409D02*
D03*
X216535Y79564D02*
D03*
Y74964D02*
D03*
X220571Y79564D02*
D03*
Y74964D02*
D03*
X207874Y91965D02*
D03*
Y87365D02*
D03*
Y79455D02*
D03*
Y84055D02*
D03*
X203839Y81657D02*
D03*
Y86257D02*
D03*
X190748Y93861D02*
D03*
Y98461D02*
D03*
X204905Y168964D02*
D03*
Y164364D02*
D03*
X210531Y226010D02*
D03*
Y230610D02*
D03*
X207382Y226010D02*
D03*
Y230610D02*
D03*
X51575Y122933D02*
D03*
Y127533D02*
D03*
X48228D02*
D03*
Y122933D02*
D03*
X41535Y127497D02*
D03*
Y122897D02*
D03*
X44882Y122933D02*
D03*
Y127533D02*
D03*
X61614D02*
D03*
Y122933D02*
D03*
X64961D02*
D03*
Y127533D02*
D03*
X13878Y8957D02*
D03*
Y4357D02*
D03*
Y12267D02*
D03*
Y16867D02*
D03*
X58268Y127533D02*
D03*
Y122933D02*
D03*
X54921D02*
D03*
Y127533D02*
D03*
D71*
X15306Y80216D02*
D03*
X8906D02*
D03*
X8957Y62894D02*
D03*
X15357D02*
D03*
X15208Y71653D02*
D03*
X8808D02*
D03*
X220523Y84547D02*
D03*
X214123D02*
D03*
D72*
X9154Y88779D02*
D03*
D73*
X14862Y91732D02*
D03*
Y89764D02*
D03*
Y87795D02*
D03*
Y85827D02*
D03*
X3445D02*
D03*
Y87795D02*
D03*
Y89764D02*
D03*
Y91732D02*
D03*
D74*
X4708Y120859D02*
D03*
X8676Y116892D02*
D03*
X12643Y112925D02*
D03*
X24613Y140764D02*
D03*
X28580Y136797D02*
D03*
X32547Y132830D02*
D03*
D75*
X7353Y138119D02*
D03*
X29903Y115570D02*
D03*
D76*
X11220Y178740D02*
D03*
X4134D02*
D03*
X7677Y188189D02*
D03*
D77*
X103445Y124114D02*
D03*
D78*
X105533Y144019D02*
D03*
X106646Y142905D02*
D03*
X107760Y141792D02*
D03*
X108873Y140678D02*
D03*
X109987Y139565D02*
D03*
X111101Y138451D02*
D03*
X112214Y137338D02*
D03*
X113328Y136224D02*
D03*
X114441Y135110D02*
D03*
X123350Y126202D02*
D03*
X101357Y104209D02*
D03*
X100243Y105323D02*
D03*
X99130Y106437D02*
D03*
X98016Y107550D02*
D03*
X96903Y108664D02*
D03*
X95789Y109777D02*
D03*
X94676Y110891D02*
D03*
X93562Y112004D02*
D03*
X92449Y113118D02*
D03*
X91335Y114231D02*
D03*
X90221Y115345D02*
D03*
X89108Y116458D02*
D03*
X87994Y117572D02*
D03*
X86881Y118686D02*
D03*
X85767Y119799D02*
D03*
X84654Y120913D02*
D03*
X83540Y122026D02*
D03*
X115555Y133997D02*
D03*
X116668Y132883D02*
D03*
X117782Y131770D02*
D03*
X118895Y130656D02*
D03*
X121123Y128429D02*
D03*
X120009Y129543D02*
D03*
X122236Y127316D02*
D03*
D79*
X123350Y122026D02*
D03*
X122236Y120913D02*
D03*
X121123Y119799D02*
D03*
X120009Y118686D02*
D03*
X118895Y117572D02*
D03*
X116668Y115345D02*
D03*
X115555Y114231D02*
D03*
X114441Y113118D02*
D03*
X109987Y108664D02*
D03*
X108873Y107550D02*
D03*
X107760Y106437D02*
D03*
X106646Y105323D02*
D03*
X105533Y104209D02*
D03*
X83540Y126202D02*
D03*
X84654Y127316D02*
D03*
X85767Y128429D02*
D03*
X86881Y129543D02*
D03*
X87994Y130656D02*
D03*
X89108Y131770D02*
D03*
X90221Y132883D02*
D03*
X91335Y133997D02*
D03*
X92449Y135110D02*
D03*
X93562Y136224D02*
D03*
X94676Y137338D02*
D03*
X95789Y138451D02*
D03*
X96903Y139565D02*
D03*
X98016Y140678D02*
D03*
X100243Y142905D02*
D03*
X101357Y144019D02*
D03*
X117782Y116458D02*
D03*
X99130Y141792D02*
D03*
X112214Y110891D02*
D03*
X111101Y109777D02*
D03*
X113328Y112004D02*
D03*
D80*
X64173Y143799D02*
D03*
X78937D02*
D03*
X61221Y99410D02*
D03*
X75984D02*
D03*
X93898D02*
D03*
X79134D02*
D03*
X141142Y141634D02*
D03*
X126378D02*
D03*
X158957D02*
D03*
X144193D02*
D03*
D81*
X68012Y137500D02*
D03*
X70374D02*
D03*
X72736D02*
D03*
X75098D02*
D03*
X65059Y105709D02*
D03*
X67421D02*
D03*
X69784D02*
D03*
X72146D02*
D03*
X90059D02*
D03*
X87697D02*
D03*
X85335D02*
D03*
X82972D02*
D03*
X137303Y135335D02*
D03*
X134941D02*
D03*
X132579D02*
D03*
X130217D02*
D03*
X155118D02*
D03*
X152756D02*
D03*
X150394D02*
D03*
X148031D02*
D03*
D82*
X150098Y121063D02*
D03*
D83*
X156004Y124902D02*
D03*
Y122343D02*
D03*
Y119783D02*
D03*
Y117224D02*
D03*
X144193D02*
D03*
Y119783D02*
D03*
Y122343D02*
D03*
Y124902D02*
D03*
D84*
X169351Y109941D02*
D03*
X161751D02*
D03*
X169351Y116437D02*
D03*
X161751D02*
D03*
X206753Y136516D02*
D03*
X199153D02*
D03*
D85*
X39665Y114862D02*
D03*
X47539D02*
D03*
X51476D02*
D03*
X43602D02*
D03*
X50000Y136319D02*
D03*
X42126D02*
D03*
X46063D02*
D03*
X53937D02*
D03*
X176378Y127854D02*
D03*
X168504D02*
D03*
X172441D02*
D03*
X180315D02*
D03*
D86*
X56988Y105020D02*
D03*
X34154D02*
D03*
X59449Y146161D02*
D03*
X36614D02*
D03*
X185827Y137697D02*
D03*
X162992D02*
D03*
D87*
X220768Y64663D02*
D03*
Y71063D02*
D03*
X216043D02*
D03*
Y64663D02*
D03*
D88*
X195079Y37697D02*
D03*
X206594D02*
D03*
D89*
X204331Y90256D02*
D03*
X199606D02*
D03*
X190453D02*
D03*
X195177D02*
D03*
D90*
X191437Y74902D02*
D03*
X193996D02*
D03*
X196555D02*
D03*
X199114D02*
D03*
X203445Y105512D02*
D03*
X200886D02*
D03*
X198327D02*
D03*
X195768D02*
D03*
D91*
X191437Y86221D02*
D03*
X193996D02*
D03*
X196555D02*
D03*
X199114D02*
D03*
X203445Y94193D02*
D03*
X200886D02*
D03*
X198327D02*
D03*
X195768D02*
D03*
D92*
X195276Y79429D02*
D03*
X199606Y100984D02*
D03*
D93*
X216831Y102854D02*
D03*
Y91043D02*
D03*
D94*
X215354Y123819D02*
D03*
D95*
X212012Y130610D02*
D03*
Y134350D02*
D03*
Y138091D02*
D03*
X220665D02*
D03*
Y134350D02*
D03*
Y130610D02*
D03*
D96*
X219783Y152127D02*
D03*
Y144527D02*
D03*
X213779Y152127D02*
D03*
Y144527D02*
D03*
X205906D02*
D03*
Y152127D02*
D03*
X199902Y144527D02*
D03*
Y152127D02*
D03*
D97*
X25689Y211669D02*
D03*
D98*
D03*
Y26057D02*
D03*
X211319Y206181D02*
D03*
D99*
X26476Y193110D02*
D03*
X22539D02*
D03*
X26476Y189173D02*
D03*
X22539D02*
D03*
X214272Y160925D02*
D03*
X210335D02*
D03*
X214272Y156988D02*
D03*
X210335D02*
D03*
D100*
X13339Y132134D02*
D03*
D101*
X23917Y121555D02*
D03*
M02*
