G04*
G04 #@! TF.GenerationSoftware,Altium Limited,Altium Designer,21.7.2 (23)*
G04*
G04 Layer_Color=16711935*
%FSLAX25Y25*%
%MOIN*%
G70*
G04*
G04 #@! TF.SameCoordinates,69D8725E-F89C-4CC4-9FD4-90FE9EACA07C*
G04*
G04*
G04 #@! TF.FilePolarity,Negative*
G04*
G01*
G75*
%ADD59R,0.03300X0.03162*%
%ADD60R,0.03162X0.03556*%
%ADD64R,0.04737X0.02965*%
%ADD70R,0.03162X0.03300*%
%ADD71R,0.04600X0.04737*%
%ADD97R,0.00800X0.00800*%
%ADD98C,0.19685*%
%ADD99C,0.01902*%
%ADD100C,0.02276*%
%ADD101C,0.02867*%
%ADD118R,0.02965X0.02454*%
%ADD119R,0.01981X0.03162*%
%ADD120R,0.03162X0.01981*%
%ADD121R,0.02756X0.09055*%
D59*
X74642Y94193D02*
D03*
X70043D02*
D03*
X85987D02*
D03*
X90587D02*
D03*
X98658D02*
D03*
X94058D02*
D03*
X102129D02*
D03*
X106729D02*
D03*
X122871D02*
D03*
X118271D02*
D03*
X90981Y143602D02*
D03*
X86381D02*
D03*
X174176Y137697D02*
D03*
X178776D02*
D03*
X106434Y148327D02*
D03*
X101834D02*
D03*
X78212Y148524D02*
D03*
X82812D02*
D03*
X77917Y94193D02*
D03*
X82516D02*
D03*
X125751D02*
D03*
X130351D02*
D03*
X82750Y145276D02*
D03*
X78150D02*
D03*
X62267Y94193D02*
D03*
X66867D02*
D03*
X138324D02*
D03*
X133724D02*
D03*
X90847Y148425D02*
D03*
X86246D02*
D03*
D60*
X114961Y94390D02*
D03*
X109449D02*
D03*
D64*
X73917Y148622D02*
D03*
Y143504D02*
D03*
X66437Y146063D02*
D03*
D70*
X52756Y143861D02*
D03*
Y148461D02*
D03*
X94390Y143665D02*
D03*
Y148265D02*
D03*
X97441D02*
D03*
Y143665D02*
D03*
X109843Y148363D02*
D03*
Y143763D02*
D03*
X180315Y114629D02*
D03*
Y119229D02*
D03*
X150833Y148413D02*
D03*
Y143813D02*
D03*
X176870Y114629D02*
D03*
Y119229D02*
D03*
X146457Y143861D02*
D03*
Y148461D02*
D03*
X55905D02*
D03*
Y143861D02*
D03*
D71*
X159302Y94980D02*
D03*
X152902D02*
D03*
X148231D02*
D03*
X141831D02*
D03*
D97*
X25689Y211669D02*
D03*
D98*
D03*
Y26057D02*
D03*
X211319Y206181D02*
D03*
D99*
X26476Y193110D02*
D03*
X22539D02*
D03*
X26476Y189173D02*
D03*
X22539D02*
D03*
X214272Y160925D02*
D03*
X210335D02*
D03*
X214272Y156988D02*
D03*
X210335D02*
D03*
D100*
X13339Y132134D02*
D03*
D101*
X23917Y121555D02*
D03*
D118*
X59153Y148721D02*
D03*
X65453D02*
D03*
D119*
X173228Y131890D02*
D03*
X175197D02*
D03*
X177165D02*
D03*
X179134D02*
D03*
Y122835D02*
D03*
X175197D02*
D03*
X173228D02*
D03*
X177165D02*
D03*
D120*
X179724Y129331D02*
D03*
Y127362D02*
D03*
Y125394D02*
D03*
X172638D02*
D03*
Y127362D02*
D03*
Y129331D02*
D03*
D121*
X153543Y114173D02*
D03*
X150787Y114173D02*
D03*
X148031D02*
D03*
X145275D02*
D03*
X142520D02*
D03*
X139764D02*
D03*
X137008D02*
D03*
X134252D02*
D03*
X131496D02*
D03*
X128740D02*
D03*
X125984D02*
D03*
X123228D02*
D03*
X120472D02*
D03*
X117717D02*
D03*
X114961D02*
D03*
X112205D02*
D03*
X109449D02*
D03*
X106693D02*
D03*
X103937D02*
D03*
X101181D02*
D03*
X98425D02*
D03*
X95669D02*
D03*
X92913D02*
D03*
X90157D02*
D03*
X87401D02*
D03*
X84646D02*
D03*
X81890D02*
D03*
X79134D02*
D03*
X76378D02*
D03*
X73622D02*
D03*
X70866D02*
D03*
M02*
