G04*
G04 #@! TF.GenerationSoftware,Altium Limited,Altium Designer,21.7.2 (23)*
G04*
G04 Layer_Color=16711935*
%FSLAX25Y25*%
%MOIN*%
G70*
G04*
G04 #@! TF.SameCoordinates,69D8725E-F89C-4CC4-9FD4-90FE9EACA07C*
G04*
G04*
G04 #@! TF.FilePolarity,Positive*
G04*
G01*
G75*
%ADD10C,0.00394*%
%ADD11C,0.00787*%
D10*
X205610Y178051D02*
X214665D01*
Y194587D01*
X205610D02*
X214665D01*
X205610Y178051D02*
Y194587D01*
X30551Y186811D02*
Y195473D01*
X18465D02*
X30551D01*
X18465Y186811D02*
Y195473D01*
Y186811D02*
X30551D01*
X213287Y33563D02*
X222342D01*
Y50098D01*
X213287D02*
X222342D01*
X213287Y33563D02*
Y50098D01*
Y9154D02*
X222342D01*
Y25689D01*
X213287D02*
X222342D01*
X213287Y9154D02*
Y25689D01*
X193137Y169667D02*
X198059D01*
Y161793D02*
Y169667D01*
X193137Y161793D02*
X198059D01*
X193137D02*
Y169667D01*
Y167108D02*
X195696Y169667D01*
X195669Y159449D02*
X198031D01*
X195669D02*
Y160630D01*
X198031D01*
Y159449D02*
Y160630D01*
X85335Y146555D02*
X91634D01*
X85335Y141831D02*
Y146555D01*
Y141831D02*
X91634D01*
Y146555D01*
X10531Y3839D02*
Y20374D01*
X1476Y3839D02*
X10531D01*
X1476D02*
Y20374D01*
X10531D01*
Y21752D02*
Y38287D01*
X1476Y21752D02*
X10531D01*
X1476D02*
Y38287D01*
X10531D01*
X3248Y89764D02*
X6201Y92716D01*
X3248Y84842D02*
Y92716D01*
Y84842D02*
X15059D01*
Y92716D01*
X3248D02*
X15059D01*
X13386Y214764D02*
Y231299D01*
X4331Y214764D02*
X13386D01*
X4331D02*
Y231299D01*
X13386D01*
X13386Y196752D02*
Y213287D01*
X4331Y196752D02*
X13386D01*
X4331D02*
Y213287D01*
X13386D01*
X59941Y147146D02*
X64665D01*
Y150295D01*
X59941D02*
X64665D01*
X59941Y147146D02*
Y150295D01*
Y148228D02*
X61024Y147146D01*
X67716Y150000D02*
X72638D01*
X67716Y142126D02*
Y150000D01*
Y142126D02*
X72638D01*
Y150000D01*
X70079D02*
X72638Y147441D01*
X102331Y145272D02*
X104558D01*
X81174Y124114D02*
X103445Y146385D01*
X81174Y124114D02*
X103445Y101843D01*
X125716Y124114D01*
X103445Y146385D02*
X125716Y124114D01*
X79823Y136909D02*
Y145965D01*
X63287D02*
X79823D01*
X63287Y136909D02*
Y145965D01*
Y136909D02*
X79823D01*
X60335Y106299D02*
X76870D01*
Y97244D02*
Y106299D01*
X60335Y97244D02*
X76870D01*
X60335D02*
Y106299D01*
X78248Y97244D02*
Y106299D01*
Y97244D02*
X94784D01*
Y106299D01*
X78248D02*
X94784D01*
X144193Y124016D02*
X147146Y126969D01*
X144193Y115157D02*
Y126969D01*
Y115157D02*
X156004D01*
Y126969D01*
X144193D02*
X156004D01*
X125492Y134744D02*
X142028D01*
X125492D02*
Y143799D01*
X142028D01*
Y134744D02*
Y143799D01*
X143307Y134744D02*
X159843D01*
X143307D02*
Y143799D01*
X159843D01*
Y134744D02*
Y143799D01*
X188878Y74311D02*
X201673D01*
X188878D02*
Y87106D01*
X201673D01*
Y74311D02*
Y87106D01*
X193209Y106102D02*
X206004D01*
Y93307D02*
Y106102D01*
X193209Y93307D02*
X206004D01*
X193209D02*
Y106102D01*
X222342Y90059D02*
Y103839D01*
X211319Y90059D02*
X222342D01*
X211319D02*
Y103839D01*
X222342D01*
X219488D02*
X222342Y100984D01*
X213189Y128642D02*
X219488D01*
X213189D02*
Y140059D01*
X219488D01*
Y128642D02*
Y140059D01*
X198031Y156595D02*
Y157776D01*
X195669D02*
X198031D01*
X195669Y156595D02*
Y157776D01*
Y156595D02*
X198031D01*
X206260Y163287D02*
X218347D01*
Y154626D02*
Y163287D01*
X206260Y154626D02*
X218347D01*
X206260D02*
Y163287D01*
X213287Y215354D02*
X222342D01*
Y231890D01*
X213287D02*
X222342D01*
X213287Y215354D02*
Y231890D01*
X171260Y121457D02*
Y133268D01*
Y121457D02*
X181102D01*
Y133268D01*
X171260D02*
X181102D01*
D11*
X3740Y191437D02*
Y194587D01*
Y191437D02*
X8465D01*
Y194587D01*
X3740D02*
X8465D01*
X17618Y41437D02*
Y56988D01*
X2067D02*
X17618D01*
X2067Y41437D02*
Y56988D01*
Y41437D02*
X17618D01*
X171358Y105807D02*
X189075D01*
X171358D02*
Y115453D01*
X189075D01*
Y105807D02*
Y115453D01*
X-2251Y126845D02*
X18628Y147724D01*
X39507Y126845D01*
X18628Y105965D02*
X39507Y126845D01*
X-2251D02*
X18628Y105965D01*
X109843Y92815D02*
Y95965D01*
X114567D01*
Y92815D02*
Y95965D01*
X109843Y92815D02*
X114567D01*
X127165Y129921D02*
X131890D01*
X127165D02*
Y133071D01*
X131890D01*
Y129921D02*
Y133071D01*
X138091Y113878D02*
Y118602D01*
X134941Y113878D02*
X138091D01*
X134941D02*
Y118602D01*
X138091D01*
X188976Y124606D02*
X222441D01*
X188976Y110827D02*
Y124606D01*
Y110827D02*
X222441D01*
Y124606D01*
M02*
