G04*
G04 #@! TF.GenerationSoftware,Altium Limited,Altium Designer,21.7.2 (23)*
G04*
G04 Layer_Physical_Order=3*
G04 Layer_Color=16440176*
%FSLAX25Y25*%
%MOIN*%
G70*
G04*
G04 #@! TF.SameCoordinates,69D8725E-F89C-4CC4-9FD4-90FE9EACA07C*
G04*
G04*
G04 #@! TF.FilePolarity,Positive*
G04*
G01*
G75*
%ADD11C,0.00787*%
%ADD15C,0.01000*%
%ADD103C,0.01181*%
%ADD111C,0.01772*%
%ADD112C,0.02362*%
%ADD113C,0.01968*%
G36*
X221814Y232602D02*
X222059Y232516D01*
X222279Y232378D01*
X222463Y232194D01*
X222601Y231974D01*
X222687Y231729D01*
X222721Y231426D01*
Y167428D01*
X222221Y167094D01*
X222144Y167126D01*
X221557D01*
X221014Y166901D01*
X220599Y166486D01*
X220374Y165943D01*
Y165356D01*
X220599Y164813D01*
X221014Y164398D01*
X221557Y164173D01*
X222144D01*
X222221Y164205D01*
X222721Y163871D01*
Y139968D01*
X222221Y139634D01*
X222144Y139665D01*
X221557D01*
X221014Y139441D01*
X220599Y139025D01*
X220374Y138483D01*
Y137895D01*
X220599Y137353D01*
X221014Y136937D01*
X221557Y136713D01*
X222144D01*
X222221Y136744D01*
X222721Y136410D01*
Y131100D01*
X222221Y131001D01*
X222118Y131250D01*
X221702Y131665D01*
X221160Y131890D01*
X220572D01*
X220030Y131665D01*
X219683Y131318D01*
X201344D01*
X201144Y131801D01*
X201187Y131869D01*
X201398Y132079D01*
X201622Y132622D01*
Y133209D01*
X201398Y133752D01*
X200982Y134167D01*
X200440Y134392D01*
X199852D01*
X199549Y134266D01*
X199266Y134690D01*
X208133Y143556D01*
X208330Y143852D01*
X208399Y144201D01*
Y155544D01*
X208899Y155751D01*
X209264Y155386D01*
X209959Y155098D01*
X210711D01*
X211405Y155386D01*
X211937Y155918D01*
X212033Y156149D01*
X212574D01*
X212670Y155918D01*
X213201Y155386D01*
X213896Y155098D01*
X214648D01*
X215342Y155386D01*
X215874Y155918D01*
X216192Y155755D01*
X216211Y155737D01*
X216754Y155512D01*
X217341D01*
X217883Y155737D01*
X218299Y156152D01*
X218524Y156694D01*
Y157282D01*
X218299Y157825D01*
X217883Y158240D01*
X217341Y158465D01*
X216754D01*
X216211Y158240D01*
X216192Y158221D01*
X215874Y158059D01*
X215342Y158590D01*
X215111Y158686D01*
Y159227D01*
X215342Y159323D01*
X215874Y159855D01*
X216161Y160549D01*
Y161301D01*
X215874Y161996D01*
X215342Y162527D01*
X214648Y162815D01*
X213896D01*
X213201Y162527D01*
X212670Y161996D01*
X212574Y161764D01*
X212033D01*
X211937Y161996D01*
X211405Y162527D01*
X210711Y162815D01*
X209959D01*
X209668Y162694D01*
X209384Y163118D01*
X212062Y165795D01*
X212259Y166091D01*
X212329Y166440D01*
Y171560D01*
X212669Y171900D01*
X212894Y172443D01*
Y173030D01*
X212669Y173573D01*
X212254Y173988D01*
X211711Y174213D01*
X211124D01*
X210581Y173988D01*
X210466Y173873D01*
X209966Y174080D01*
Y183567D01*
X210307Y183908D01*
X210531Y184450D01*
Y185038D01*
X210307Y185580D01*
X209891Y185996D01*
X209349Y186221D01*
X208762D01*
X208325Y186039D01*
X207824Y186255D01*
Y194270D01*
X207755Y194619D01*
X207558Y194915D01*
X198352Y204120D01*
Y212910D01*
X206972Y221530D01*
X210955D01*
X211295Y221189D01*
X211838Y220965D01*
X212425D01*
X212968Y221189D01*
X213383Y221605D01*
X213608Y222147D01*
Y222735D01*
X213383Y223277D01*
X213131Y223529D01*
X213035Y224140D01*
X213260Y224682D01*
Y225270D01*
X213035Y225813D01*
X212619Y226228D01*
X212077Y226453D01*
X211490D01*
X210947Y226228D01*
X210532Y225813D01*
X210307Y225270D01*
Y224682D01*
X210532Y224140D01*
X210784Y223888D01*
X210806Y223816D01*
X210639Y223352D01*
X206594D01*
X206246Y223283D01*
X205950Y223085D01*
X196797Y213932D01*
X196599Y213636D01*
X196530Y213287D01*
Y203743D01*
X196599Y203394D01*
X196797Y203098D01*
X205855Y194040D01*
X205824Y193810D01*
X205294Y193632D01*
X195006Y203921D01*
Y215949D01*
X195690Y216634D01*
X195963D01*
X196506Y216859D01*
X196921Y217274D01*
X197146Y217817D01*
Y218404D01*
X196921Y218947D01*
X196506Y219362D01*
X195963Y219587D01*
X195376D01*
X194833Y219362D01*
X194418Y218947D01*
X194193Y218404D01*
Y217817D01*
X194223Y217744D01*
X193450Y216971D01*
X193253Y216675D01*
X193183Y216327D01*
Y203543D01*
X193253Y203195D01*
X193450Y202899D01*
X203291Y193059D01*
X203018Y192624D01*
X202967Y192642D01*
X202878Y192655D01*
X202792Y192682D01*
X202354Y192731D01*
X202308Y192728D01*
X202264Y192736D01*
X190498D01*
X190194Y192771D01*
X189949Y192857D01*
X189729Y192995D01*
X189545Y193178D01*
X189407Y193399D01*
X189321Y193644D01*
X189287Y193947D01*
Y223504D01*
X189321Y223808D01*
X189407Y224053D01*
X189545Y224273D01*
X189729Y224457D01*
X189949Y224595D01*
X190194Y224681D01*
X190498Y224715D01*
X202264D01*
X202308Y224724D01*
X202354Y224720D01*
X202792Y224769D01*
X202878Y224797D01*
X202967Y224809D01*
X203383Y224955D01*
X203461Y225001D01*
X203545Y225033D01*
X203918Y225268D01*
X203984Y225329D01*
X204059Y225379D01*
X204370Y225691D01*
X204421Y225766D01*
X204483Y225832D01*
X204717Y226205D01*
X204749Y226289D01*
X204795Y226367D01*
X204941Y226783D01*
X204953Y226872D01*
X204981Y226958D01*
X205030Y227396D01*
X205026Y227442D01*
X205035Y227486D01*
Y231426D01*
X205069Y231729D01*
X205155Y231974D01*
X205293Y232194D01*
X205477Y232378D01*
X205697Y232516D01*
X205943Y232602D01*
X206246Y232636D01*
X221510D01*
X221814Y232602D01*
D02*
G37*
G36*
X34018Y232602D02*
X34263Y232516D01*
X34484Y232378D01*
X34667Y232194D01*
X34806Y231974D01*
X34891Y231729D01*
X34926Y231426D01*
Y215857D01*
X34435Y215760D01*
X34237Y216238D01*
X33181Y217818D01*
X31838Y219162D01*
X30258Y220217D01*
X28503Y220944D01*
X26639Y221315D01*
X24739D01*
X22875Y220944D01*
X21120Y220217D01*
X19540Y219162D01*
X18197Y217818D01*
X17141Y216238D01*
X16414Y214483D01*
X16043Y212619D01*
Y210719D01*
X16414Y208856D01*
X17141Y207101D01*
X18197Y205521D01*
X19540Y204177D01*
X21120Y203122D01*
X22875Y202395D01*
X24739Y202024D01*
X26639D01*
X28503Y202395D01*
X30258Y203122D01*
X31838Y204177D01*
X33181Y205521D01*
X34237Y207101D01*
X34435Y207579D01*
X34926Y207482D01*
Y194487D01*
X34865Y194450D01*
X34426Y194334D01*
X34104Y194656D01*
X33561Y194880D01*
X32974D01*
X32431Y194656D01*
X32016Y194240D01*
X31791Y193698D01*
Y193216D01*
X28613Y190038D01*
X28123Y190136D01*
X28078Y190244D01*
X27547Y190775D01*
X27316Y190871D01*
Y191412D01*
X27547Y191508D01*
X28078Y192040D01*
X28366Y192734D01*
Y193486D01*
X28078Y194181D01*
X27547Y194712D01*
X26852Y195000D01*
X26101D01*
X25406Y194712D01*
X24874Y194181D01*
X24779Y193949D01*
X24237D01*
X24141Y194181D01*
X23610Y194712D01*
X22915Y195000D01*
X22163D01*
X21469Y194712D01*
X20937Y194181D01*
X20650Y193486D01*
Y192734D01*
X20937Y192040D01*
X21469Y191508D01*
X21700Y191412D01*
Y190871D01*
X21469Y190775D01*
X20937Y190244D01*
X20688Y189641D01*
X20188Y189434D01*
X16613Y193009D01*
Y193360D01*
X16388Y193902D01*
X15973Y194318D01*
X15430Y194543D01*
X14843D01*
X14300Y194318D01*
X13885Y193902D01*
X13660Y193360D01*
Y192772D01*
X13885Y192230D01*
X14300Y191814D01*
X14843Y191590D01*
X15193D01*
X20854Y185929D01*
X20737Y185340D01*
X20480Y185233D01*
X20037Y184791D01*
X19798Y184212D01*
Y183585D01*
X20037Y183006D01*
X20480Y182563D01*
X21059Y182324D01*
X21528D01*
X23997Y179855D01*
Y157480D01*
X24073Y157096D01*
X24290Y156771D01*
X33318Y147743D01*
X33153Y147201D01*
X33138Y147198D01*
X33021Y147315D01*
X32479Y147539D01*
X31891D01*
X31349Y147315D01*
X30933Y146899D01*
X30709Y146357D01*
Y145769D01*
X30933Y145227D01*
X31349Y144811D01*
X31891Y144587D01*
X32479D01*
X33021Y144811D01*
X33437Y145227D01*
X33450Y145260D01*
X34136D01*
X39124Y140273D01*
X38840Y139849D01*
X38541Y139973D01*
X37954D01*
X37412Y139748D01*
X36996Y139332D01*
X36925Y139159D01*
X36335Y139042D01*
X21755Y153622D01*
X21755Y153622D01*
X12525Y162852D01*
Y225115D01*
X12608Y225197D01*
X13089D01*
X13632Y225422D01*
X14047Y225837D01*
X14272Y226380D01*
Y226967D01*
X14047Y227509D01*
X13632Y227925D01*
X13089Y228150D01*
X12502D01*
X11959Y227925D01*
X11544Y227509D01*
X11319Y226967D01*
Y226485D01*
X10970Y226136D01*
X10772Y225841D01*
X10703Y225492D01*
Y221522D01*
X10203Y221188D01*
X10030Y221260D01*
X9443D01*
X8900Y221035D01*
X8485Y220620D01*
X8260Y220077D01*
Y219490D01*
X8485Y218947D01*
X8833Y218599D01*
Y205408D01*
X8333Y205074D01*
X8106Y205168D01*
X7519D01*
X6976Y204943D01*
X6561Y204528D01*
X6336Y203985D01*
Y203398D01*
X6561Y202855D01*
X6901Y202515D01*
Y154097D01*
X6971Y153748D01*
X7168Y153453D01*
X21440Y139181D01*
X21157Y138757D01*
X20865Y138878D01*
X20277D01*
X19735Y138653D01*
X19319Y138238D01*
X19094Y137695D01*
Y137108D01*
X19319Y136565D01*
X19735Y136150D01*
X20277Y135925D01*
X20865D01*
X21407Y136150D01*
X21823Y136565D01*
X22047Y137108D01*
Y137695D01*
X21926Y137987D01*
X22350Y138271D01*
X43039Y117582D01*
X43335Y117384D01*
X43683Y117315D01*
X59707D01*
X60427Y116595D01*
Y116113D01*
X60652Y115571D01*
X61067Y115155D01*
X61610Y114931D01*
X62197D01*
X62740Y115155D01*
X62860Y115276D01*
X63360Y115069D01*
Y112188D01*
X62516Y111344D01*
X49133D01*
X48869Y111844D01*
X49016Y112198D01*
Y112786D01*
X48791Y113328D01*
X48376Y113744D01*
X47833Y113969D01*
X47246D01*
X46703Y113744D01*
X46288Y113328D01*
X46063Y112786D01*
Y112198D01*
X46210Y111844D01*
X45946Y111344D01*
X45097D01*
X44834Y111844D01*
X44980Y112198D01*
Y112786D01*
X44756Y113328D01*
X44340Y113744D01*
X43798Y113969D01*
X43210D01*
X42668Y113744D01*
X42252Y113328D01*
X42028Y112786D01*
Y112198D01*
X42174Y111844D01*
X41911Y111344D01*
X41108D01*
X40901Y111844D01*
X40917Y111861D01*
X41142Y112403D01*
Y112990D01*
X40917Y113533D01*
X40502Y113949D01*
X39959Y114173D01*
X39372D01*
X38829Y113949D01*
X38414Y113533D01*
X38189Y112990D01*
Y112403D01*
X38414Y111861D01*
X38430Y111844D01*
X38223Y111344D01*
X33563D01*
X33214Y111275D01*
X32919Y111077D01*
X6156Y84315D01*
X5959Y84020D01*
X5889Y83671D01*
Y56454D01*
X5413Y56396D01*
X5189Y56939D01*
X4773Y57354D01*
X4231Y57579D01*
X3643D01*
X3101Y57354D01*
X2685Y56939D01*
X2461Y56396D01*
Y55809D01*
X2685Y55266D01*
X3101Y54851D01*
X3643Y54626D01*
X4231D01*
X4773Y54851D01*
X5189Y55266D01*
X5413Y55809D01*
X5889Y55751D01*
Y33458D01*
X3731Y31299D01*
X3250D01*
X2707Y31074D01*
X2292Y30659D01*
X2067Y30117D01*
Y29529D01*
X2292Y28986D01*
X2707Y28571D01*
X3250Y28346D01*
X3837D01*
X4380Y28571D01*
X4795Y28986D01*
X5020Y29529D01*
Y30011D01*
X6821Y31812D01*
X7283Y31621D01*
Y14464D01*
X6943Y14124D01*
X6718Y13581D01*
Y12994D01*
X6943Y12451D01*
X7358Y12036D01*
X7901Y11811D01*
X8488D01*
X9031Y12036D01*
X9446Y12451D01*
X9671Y12994D01*
Y13581D01*
X9446Y14124D01*
X9106Y14464D01*
Y50316D01*
X9606Y50523D01*
X14075Y46054D01*
Y45573D01*
X14300Y45030D01*
X14715Y44614D01*
X15258Y44390D01*
X15845D01*
X16387Y44614D01*
X16803Y45030D01*
X17028Y45573D01*
Y46160D01*
X16803Y46702D01*
X16387Y47118D01*
X15845Y47343D01*
X15363D01*
X12123Y50583D01*
X12406Y51007D01*
X12698Y50886D01*
X13286D01*
X13828Y51111D01*
X14244Y51526D01*
X14469Y52069D01*
Y52656D01*
X14244Y53198D01*
X13828Y53614D01*
X13805Y53623D01*
Y70801D01*
X14305Y71135D01*
X14478Y71063D01*
X15065D01*
X15608Y71288D01*
X16023Y71703D01*
X16248Y72246D01*
Y72833D01*
X16023Y73376D01*
X15608Y73791D01*
X15065Y74016D01*
X14478D01*
X14305Y73944D01*
X13805Y74278D01*
Y79904D01*
X14400Y80499D01*
X14707Y80375D01*
X14862Y80254D01*
Y79726D01*
X15087Y79183D01*
X15502Y78768D01*
X16045Y78543D01*
X16632D01*
X17175Y78768D01*
X17590Y79183D01*
X17815Y79726D01*
Y80313D01*
X17590Y80856D01*
X17175Y81271D01*
X16632Y81496D01*
X16104D01*
X15983Y81651D01*
X15859Y81958D01*
X21478Y87577D01*
X21978Y87411D01*
X22203Y86868D01*
X22618Y86453D01*
X23161Y86228D01*
X23748D01*
X24291Y86453D01*
X24706Y86868D01*
X24931Y87411D01*
Y87998D01*
X24706Y88541D01*
X24291Y88956D01*
X23748Y89181D01*
X23583Y89681D01*
X38312Y104411D01*
X60232D01*
X60566Y103911D01*
X60474Y103689D01*
Y103102D01*
X60699Y102559D01*
X61115Y102144D01*
X61657Y101919D01*
X62244D01*
X62269Y101929D01*
X62650Y101675D01*
X62875Y101132D01*
X63290Y100717D01*
X63019Y100334D01*
X62932Y100246D01*
X62707Y99704D01*
Y99116D01*
X62932Y98574D01*
X63347Y98159D01*
X63889Y97934D01*
X64477D01*
X65019Y98159D01*
X65435Y98574D01*
X65659Y99116D01*
Y99704D01*
X65435Y100246D01*
X65019Y100662D01*
X65290Y101044D01*
X65378Y101132D01*
X65603Y101675D01*
Y102262D01*
X65378Y102805D01*
X64963Y103220D01*
X64420Y103445D01*
X63833D01*
X63564Y103843D01*
X63535Y103967D01*
X63872Y104411D01*
X73359D01*
X73546Y104289D01*
X73800Y103974D01*
Y101654D01*
X73876Y101270D01*
X74094Y100944D01*
X81102Y93935D01*
Y93585D01*
X81134Y93508D01*
X80800Y93008D01*
X61167D01*
X60864Y93042D01*
X60618Y93128D01*
X60398Y93266D01*
X60215Y93450D01*
X60076Y93670D01*
X59991Y93915D01*
X59956Y94218D01*
Y98647D01*
X59948Y98692D01*
X59951Y98737D01*
X59902Y99176D01*
X59874Y99261D01*
X59862Y99351D01*
X59716Y99767D01*
X59671Y99844D01*
X59638Y99929D01*
X59404Y100302D01*
X59342Y100367D01*
X59292Y100443D01*
X58980Y100754D01*
X58905Y100804D01*
X58839Y100866D01*
X58466Y101101D01*
X58382Y101133D01*
X58304Y101179D01*
X57888Y101324D01*
X57799Y101337D01*
X57713Y101364D01*
X57275Y101414D01*
X57230Y101410D01*
X57185Y101419D01*
X37697D01*
X37652Y101410D01*
X37607Y101414D01*
X37169Y101364D01*
X37083Y101337D01*
X36994Y101324D01*
X36578Y101179D01*
X36500Y101133D01*
X36416Y101101D01*
X36042Y100866D01*
X35977Y100804D01*
X35902Y100754D01*
X35590Y100443D01*
X35540Y100367D01*
X35478Y100302D01*
X35244Y99929D01*
X35211Y99844D01*
X35166Y99767D01*
X35020Y99351D01*
X35007Y99261D01*
X34980Y99176D01*
X34931Y98737D01*
X34934Y98692D01*
X34926Y98647D01*
Y79823D01*
X34426Y79570D01*
X34054Y79724D01*
X33466D01*
X32924Y79500D01*
X32508Y79084D01*
X32283Y78542D01*
Y77954D01*
X32508Y77412D01*
X32924Y76996D01*
X33466Y76772D01*
X34054D01*
X34426Y76926D01*
X34926Y76673D01*
Y74033D01*
X34891Y73730D01*
X34806Y73484D01*
X34667Y73264D01*
X34484Y73081D01*
X34264Y72942D01*
X34018Y72856D01*
X33715Y72822D01*
X21949D01*
X21904Y72813D01*
X21859Y72817D01*
X21421Y72768D01*
X21335Y72741D01*
X21246Y72728D01*
X20830Y72582D01*
X20752Y72536D01*
X20668Y72504D01*
X20294Y72270D01*
X20229Y72208D01*
X20154Y72158D01*
X19842Y71846D01*
X19792Y71771D01*
X19730Y71706D01*
X19496Y71332D01*
X19463Y71248D01*
X19418Y71170D01*
X19272Y70754D01*
X19259Y70665D01*
X19232Y70579D01*
X19183Y70141D01*
X19186Y70096D01*
X19177Y70051D01*
Y52751D01*
X19186Y52707D01*
X19183Y52662D01*
X19232Y52223D01*
X19259Y52138D01*
X19272Y52048D01*
X19418Y51632D01*
X19463Y51555D01*
X19496Y51470D01*
X19730Y51097D01*
X19792Y51032D01*
X19842Y50956D01*
X20154Y50645D01*
X20229Y50595D01*
X20294Y50533D01*
X20668Y50298D01*
X20752Y50266D01*
X20830Y50220D01*
X21246Y50074D01*
X21335Y50062D01*
X21421Y50034D01*
X21859Y49985D01*
X21904Y49989D01*
X21949Y49980D01*
X33715D01*
X34018Y49946D01*
X34264Y49860D01*
X34484Y49722D01*
X34667Y49538D01*
X34806Y49318D01*
X34891Y49073D01*
X34926Y48769D01*
Y30245D01*
X34435Y30147D01*
X34237Y30626D01*
X33181Y32206D01*
X31838Y33549D01*
X30258Y34605D01*
X28503Y35332D01*
X26639Y35703D01*
X24739D01*
X22875Y35332D01*
X21120Y34605D01*
X19540Y33549D01*
X18197Y32206D01*
X17141Y30626D01*
X16414Y28871D01*
X16043Y27007D01*
Y25107D01*
X16414Y23244D01*
X17141Y21488D01*
X18197Y19908D01*
X19540Y18565D01*
X21120Y17509D01*
X21640Y17294D01*
X21568Y16783D01*
X21421Y16766D01*
X21335Y16739D01*
X21246Y16726D01*
X20830Y16580D01*
X20752Y16535D01*
X20668Y16502D01*
X20294Y16268D01*
X20229Y16206D01*
X20154Y16156D01*
X19842Y15844D01*
X19792Y15769D01*
X19730Y15704D01*
X19496Y15330D01*
X19463Y15246D01*
X19418Y15168D01*
X19272Y14752D01*
X19259Y14663D01*
X19232Y14577D01*
X19183Y14139D01*
X19186Y14094D01*
X19177Y14049D01*
Y3417D01*
X19143Y3114D01*
X19058Y2868D01*
X18919Y2648D01*
X18735Y2465D01*
X18515Y2326D01*
X18270Y2240D01*
X17967Y2206D01*
X2703D01*
X2399Y2240D01*
X2154Y2326D01*
X1934Y2465D01*
X1750Y2648D01*
X1612Y2868D01*
X1526Y3114D01*
X1492Y3417D01*
Y101914D01*
X1992Y102121D01*
X2098Y102015D01*
X2641Y101790D01*
X3228D01*
X3771Y102015D01*
X4186Y102430D01*
X4411Y102972D01*
Y103560D01*
X4186Y104102D01*
X3771Y104518D01*
X3228Y104743D01*
X2641D01*
X2098Y104518D01*
X1992Y104411D01*
X1492Y104618D01*
Y109358D01*
X1992Y109565D01*
X2117Y109441D01*
X2659Y109216D01*
X3246D01*
X3789Y109441D01*
X4204Y109856D01*
X4429Y110398D01*
Y110986D01*
X4204Y111528D01*
X3789Y111944D01*
X3246Y112169D01*
X2659D01*
X2117Y111944D01*
X1992Y111819D01*
X1492Y112026D01*
Y145382D01*
X1982Y145599D01*
X2524Y145374D01*
X3112D01*
X3654Y145599D01*
X4070Y146014D01*
X4295Y146557D01*
Y147144D01*
X4070Y147687D01*
X3654Y148102D01*
X3272Y148260D01*
X3240Y148789D01*
X3618Y148945D01*
X4033Y149361D01*
X4258Y149903D01*
Y150490D01*
X4033Y151033D01*
X3618Y151449D01*
X3076Y151673D01*
X2488D01*
X1992Y151468D01*
X1764Y151550D01*
X1492Y151702D01*
Y192325D01*
X1992Y192424D01*
X2095Y192175D01*
X2510Y191760D01*
X3053Y191535D01*
X3640D01*
X4183Y191760D01*
X4598Y192175D01*
X4823Y192718D01*
Y193306D01*
X4598Y193848D01*
X4183Y194263D01*
X3640Y194488D01*
X3053D01*
X2510Y194263D01*
X2095Y193848D01*
X1992Y193599D01*
X1492Y193699D01*
Y231426D01*
X1526Y231729D01*
X1612Y231974D01*
X1750Y232194D01*
X1934Y232378D01*
X2154Y232516D01*
X2399Y232602D01*
X2703Y232636D01*
X33715D01*
X34018Y232602D01*
D02*
G37*
G36*
X34865Y192357D02*
X34926Y192321D01*
Y152660D01*
X34467Y152445D01*
X34433Y152445D01*
X27584Y159294D01*
Y168596D01*
X31676Y172687D01*
X31873Y172983D01*
X31943Y173332D01*
Y179270D01*
X31873Y179619D01*
X31676Y179914D01*
X29777Y181813D01*
Y188625D01*
X33080Y191928D01*
X33561D01*
X34104Y192152D01*
X34426Y192474D01*
X34865Y192357D01*
D02*
G37*
G36*
X111583Y149209D02*
X110244Y147870D01*
X97040D01*
X95662Y149247D01*
X95854Y149709D01*
X111376D01*
X111583Y149209D01*
D02*
G37*
G36*
X79690Y149209D02*
X79659Y149132D01*
Y148545D01*
X79883Y148002D01*
X80299Y147587D01*
X80841Y147362D01*
X81429D01*
X81971Y147587D01*
X82387Y148002D01*
X82604Y148528D01*
X88851D01*
X89058Y148028D01*
X88822Y147792D01*
X88598Y147249D01*
Y146662D01*
X88712Y146385D01*
X88403Y145885D01*
X82945D01*
X82560Y145809D01*
X82235Y145591D01*
X80954Y144311D01*
X68998D01*
X68750Y144559D01*
X68345Y144726D01*
X68199Y145131D01*
X68196Y145283D01*
X68349Y145437D01*
X68574Y145979D01*
Y146567D01*
X68349Y147109D01*
X67934Y147524D01*
X67931Y147526D01*
X68030Y148026D01*
X68817D01*
X68827Y148002D01*
X69242Y147587D01*
X69785Y147362D01*
X70372D01*
X70915Y147587D01*
X71330Y148002D01*
X71555Y148545D01*
Y149132D01*
X71523Y149209D01*
X71857Y149709D01*
X79356D01*
X79690Y149209D01*
D02*
G37*
G36*
X204577Y155737D02*
X205120Y155512D01*
X205707D01*
X206077Y155665D01*
X206577Y155411D01*
Y144578D01*
X203964Y141966D01*
X203576Y142284D01*
X203669Y142424D01*
X203739Y142773D01*
Y155922D01*
X203875Y155996D01*
X204239Y156075D01*
X204577Y155737D01*
D02*
G37*
G36*
X197459Y169394D02*
X190929Y162865D01*
X190732Y162569D01*
X190663Y162221D01*
Y142965D01*
X188241Y140543D01*
X160554D01*
X159000Y142097D01*
X158704Y142295D01*
X158356Y142364D01*
X152179D01*
X151972Y142864D01*
X152085Y142977D01*
X152310Y143520D01*
Y144107D01*
X152085Y144650D01*
X151669Y145065D01*
X151127Y145290D01*
X150539D01*
X149997Y145065D01*
X149582Y144650D01*
X149357Y144107D01*
Y143520D01*
X149582Y142977D01*
X149695Y142864D01*
X149487Y142364D01*
X131923D01*
X131701Y142849D01*
X131926Y143392D01*
Y143979D01*
X131701Y144522D01*
X131286Y144937D01*
X130743Y145162D01*
X130156D01*
X130122Y145148D01*
X126061Y149209D01*
X126268Y149709D01*
X155056D01*
X155390Y149209D01*
X155318Y149034D01*
Y148446D01*
X155542Y147904D01*
X155958Y147488D01*
X156500Y147264D01*
X157088D01*
X157320Y147360D01*
X157429Y147405D01*
X157713Y146981D01*
X157623Y146891D01*
X157410Y146679D01*
X157185Y146136D01*
Y145549D01*
X157410Y145006D01*
X157825Y144591D01*
X158368Y144366D01*
X158955D01*
X159498Y144591D01*
X159913Y145006D01*
X160138Y145549D01*
Y146136D01*
X159913Y146679D01*
X159498Y147094D01*
X158955Y147319D01*
X158368D01*
X158136Y147222D01*
X158026Y147177D01*
X157743Y147601D01*
X157833Y147691D01*
X158046Y147904D01*
X158270Y148446D01*
Y149034D01*
X158198Y149209D01*
X158532Y149709D01*
X161077D01*
X161380Y149675D01*
X161626Y149589D01*
X161846Y149451D01*
X162030Y149267D01*
X162168Y149047D01*
X162254Y148802D01*
X162288Y148498D01*
Y144069D01*
X162297Y144025D01*
X162293Y143979D01*
X162342Y143541D01*
X162370Y143455D01*
X162382Y143366D01*
X162528Y142950D01*
X162574Y142872D01*
X162606Y142788D01*
X162840Y142415D01*
X162902Y142349D01*
X162952Y142274D01*
X163264Y141962D01*
X163339Y141912D01*
X163405Y141850D01*
X163778Y141616D01*
X163862Y141584D01*
X163940Y141538D01*
X164356Y141392D01*
X164445Y141380D01*
X164531Y141352D01*
X164969Y141303D01*
X165015Y141307D01*
X165059Y141298D01*
X186516D01*
X186560Y141307D01*
X186606Y141303D01*
X187044Y141352D01*
X187130Y141380D01*
X187219Y141392D01*
X187635Y141538D01*
X187713Y141584D01*
X187797Y141616D01*
X188170Y141850D01*
X188236Y141912D01*
X188311Y141962D01*
X188622Y142274D01*
X188673Y142349D01*
X188734Y142415D01*
X188969Y142788D01*
X189001Y142872D01*
X189047Y142950D01*
X189193Y143366D01*
X189205Y143455D01*
X189233Y143541D01*
X189282Y143979D01*
X189278Y144025D01*
X189287Y144069D01*
Y168684D01*
X189321Y168987D01*
X189407Y169232D01*
X189545Y169452D01*
X189729Y169636D01*
X189949Y169774D01*
X190194Y169860D01*
X190498Y169894D01*
X197252D01*
X197459Y169394D01*
D02*
G37*
G36*
X201916Y161043D02*
Y143150D01*
X199941Y141175D01*
X199480Y141421D01*
X199486Y141448D01*
Y159319D01*
X201416Y161250D01*
X201916Y161043D01*
D02*
G37*
G36*
X44659Y138953D02*
X44587Y138778D01*
Y138191D01*
X44811Y137648D01*
X45227Y137233D01*
X45769Y137008D01*
X46357D01*
X46899Y137233D01*
X47315Y137648D01*
X47532Y138174D01*
X54495D01*
X54686Y137712D01*
X54305Y137330D01*
X54132Y137402D01*
X53545D01*
X53002Y137177D01*
X52587Y136761D01*
X52362Y136219D01*
Y135632D01*
X52587Y135089D01*
X53002Y134674D01*
X53545Y134449D01*
X54132D01*
X54675Y134674D01*
X55090Y135089D01*
X55315Y135632D01*
Y136069D01*
X56238Y136993D01*
X87743D01*
X87950Y136493D01*
X85898Y134440D01*
X85547D01*
X85004Y134215D01*
X84589Y133800D01*
X84364Y133257D01*
Y133090D01*
X67542D01*
X66634Y133998D01*
Y134349D01*
X66409Y134891D01*
X65994Y135307D01*
X65451Y135531D01*
X64864D01*
X64321Y135307D01*
X63906Y134891D01*
X63882Y134834D01*
X63358Y134793D01*
X62943Y135208D01*
X62400Y135433D01*
X61813D01*
X61270Y135208D01*
X60855Y134793D01*
X60630Y134250D01*
Y133663D01*
X60855Y133120D01*
X61247Y132729D01*
X61292Y132499D01*
X61510Y132174D01*
X62306Y131377D01*
X62632Y131159D01*
X63016Y131083D01*
X84853D01*
X85237Y131159D01*
X85563Y131377D01*
X85673Y131487D01*
X86134D01*
X86677Y131712D01*
X87092Y132127D01*
X87317Y132670D01*
Y133020D01*
X89513Y135217D01*
X93364D01*
X97737Y130844D01*
X97546Y130382D01*
X47328D01*
X41568Y136142D01*
X41803Y136614D01*
X42223D01*
X42765Y136839D01*
X43181Y137254D01*
X43406Y137797D01*
Y138384D01*
X43181Y138927D01*
X43154Y138953D01*
X43362Y139453D01*
X44325D01*
X44659Y138953D01*
D02*
G37*
G36*
X157743Y137446D02*
X158038Y137249D01*
X158387Y137179D01*
X188165D01*
X188357Y136717D01*
X186507Y134868D01*
X182874D01*
X182525Y134799D01*
X182230Y134601D01*
X171473Y123844D01*
X165847D01*
X165498Y123775D01*
X165202Y123577D01*
X159953Y118328D01*
X155913D01*
X155564Y118259D01*
X155268Y118062D01*
X152603Y115397D01*
X140379D01*
X137879Y117896D01*
X136180Y119596D01*
Y120077D01*
X135955Y120620D01*
X135540Y121035D01*
X135367Y121107D01*
X135250Y121697D01*
X137455Y123902D01*
X137653Y124198D01*
X137722Y124547D01*
Y129827D01*
X138063Y130168D01*
X138287Y130710D01*
Y131298D01*
X138063Y131840D01*
X137647Y132255D01*
X137105Y132480D01*
X136543D01*
X136479Y132551D01*
X136278Y132922D01*
X137214Y133858D01*
X137695D01*
X138238Y134083D01*
X138653Y134498D01*
X138878Y135041D01*
Y135628D01*
X138653Y136171D01*
X138238Y136586D01*
X137695Y136811D01*
X137108D01*
X136890Y136721D01*
X136417Y137066D01*
Y137375D01*
X136193Y137917D01*
X135777Y138333D01*
X135235Y138558D01*
X135197D01*
X134883Y139058D01*
X134894Y139082D01*
X134985Y139148D01*
X147671D01*
X148005Y138648D01*
X147933Y138475D01*
Y137887D01*
X148158Y137345D01*
X148573Y136930D01*
X149116Y136705D01*
X149703D01*
X150246Y136930D01*
X150661Y137345D01*
X150886Y137887D01*
Y138475D01*
X150814Y138648D01*
X151148Y139148D01*
X156041D01*
X157743Y137446D01*
D02*
G37*
G36*
X132984Y140080D02*
X131787Y138883D01*
X131589Y138587D01*
X131520Y138238D01*
Y132820D01*
X131179Y132480D01*
X130955Y131937D01*
Y131350D01*
X131179Y130807D01*
X131595Y130392D01*
X132137Y130167D01*
X132725D01*
X133267Y130392D01*
X133333Y130458D01*
X133833Y130251D01*
Y124828D01*
X131110Y122105D01*
X130686Y122389D01*
X130709Y122443D01*
Y123030D01*
X130484Y123573D01*
X130069Y123988D01*
X129526Y124213D01*
X128939D01*
X128396Y123988D01*
X127981Y123573D01*
X127756Y123030D01*
Y122443D01*
X127981Y121900D01*
X128396Y121485D01*
X128939Y121260D01*
X129526D01*
X129914Y121420D01*
X130327Y121090D01*
X130291Y120909D01*
Y117309D01*
X125141Y112160D01*
X124552Y112277D01*
X124480Y112451D01*
X124065Y112866D01*
X123522Y113091D01*
X122935D01*
X122392Y112866D01*
X122166Y112640D01*
X121794Y112534D01*
X121528Y112655D01*
X121267Y112917D01*
X120724Y113142D01*
X120137D01*
X119594Y112917D01*
X119179Y112502D01*
X118954Y111959D01*
Y111372D01*
X119179Y110829D01*
X119594Y110414D01*
X120137Y110189D01*
X120724D01*
X121267Y110414D01*
X121493Y110640D01*
X121864Y110746D01*
X122130Y110624D01*
X122392Y110363D01*
X122565Y110291D01*
X122682Y109701D01*
X121040Y108059D01*
X120450Y108176D01*
X120375Y108358D01*
X119959Y108773D01*
X119738Y108865D01*
Y109058D01*
X119738Y109058D01*
X119676Y109365D01*
X119502Y109626D01*
X105298Y123830D01*
X105490Y124292D01*
X120549D01*
X122244Y122597D01*
Y122246D01*
X122469Y121703D01*
X122884Y121288D01*
X123427Y121063D01*
X124014D01*
X124557Y121288D01*
X124574Y121305D01*
X125097Y121121D01*
X125124Y120877D01*
X124866Y120620D01*
X124642Y120077D01*
Y119490D01*
X124866Y118947D01*
X125282Y118532D01*
X125824Y118307D01*
X126411D01*
X126954Y118532D01*
X127369Y118947D01*
X127594Y119490D01*
Y120077D01*
X127369Y120620D01*
X126954Y121035D01*
X126921Y121049D01*
Y126343D01*
X126860Y126650D01*
X126686Y126910D01*
X126686Y126910D01*
X125174Y128422D01*
X124914Y128596D01*
X124606Y128657D01*
X114599D01*
X114408Y129119D01*
X119330Y134041D01*
X119363Y134027D01*
X119951D01*
X120493Y134252D01*
X120909Y134667D01*
X121133Y135210D01*
Y135795D01*
X121139Y135801D01*
X121559Y136077D01*
X122047Y135589D01*
Y135238D01*
X122272Y134695D01*
X122687Y134280D01*
X123230Y134055D01*
X123817D01*
X124360Y134280D01*
X124775Y134695D01*
X125000Y135238D01*
Y135825D01*
X124775Y136368D01*
X124360Y136783D01*
X124110Y136887D01*
X124068Y137152D01*
X124077Y137442D01*
X124445Y137810D01*
X124670Y138352D01*
Y138834D01*
X126377Y140542D01*
X132792D01*
X132984Y140080D01*
D02*
G37*
G36*
X103129Y139054D02*
X103454Y138837D01*
X103839Y138760D01*
X118876D01*
X120231Y137405D01*
X119954Y136985D01*
X119949Y136980D01*
X119363D01*
X118821Y136755D01*
X118405Y136340D01*
X118181Y135797D01*
Y135210D01*
X118195Y135176D01*
X112856Y129838D01*
X106587D01*
X95602Y140824D01*
X95341Y140998D01*
X95034Y141059D01*
X87751D01*
X87544Y141559D01*
X87767Y141782D01*
X87992Y142324D01*
Y142912D01*
X87799Y143378D01*
X87918Y143681D01*
X88051Y143878D01*
X98305D01*
X103129Y139054D01*
D02*
G37*
G36*
X20466Y152334D02*
X20466Y152333D01*
X50000Y122800D01*
Y122541D01*
X50225Y121998D01*
X50640Y121583D01*
X51183Y121358D01*
X51770D01*
X52313Y121583D01*
X52728Y121998D01*
X52953Y122541D01*
Y123128D01*
X52728Y123671D01*
X52313Y124086D01*
X51770Y124311D01*
X51183D01*
X51100Y124277D01*
X47100Y128276D01*
X47308Y128776D01*
X68270D01*
X68494Y128415D01*
X68517Y128276D01*
X68325Y128051D01*
X67817D01*
X67274Y127826D01*
X66859Y127411D01*
X66634Y126868D01*
Y126281D01*
X66859Y125739D01*
X67274Y125323D01*
X67817Y125098D01*
X68404D01*
X68467Y125125D01*
X68850Y124742D01*
X68837Y124711D01*
Y124524D01*
X68669Y124101D01*
X68375Y124062D01*
X68066D01*
X67523Y123837D01*
X67108Y123422D01*
X66937Y123010D01*
X66437Y123109D01*
Y123227D01*
X66212Y123769D01*
X65797Y124185D01*
X65254Y124409D01*
X64667D01*
X64124Y124185D01*
X63709Y123769D01*
X63484Y123227D01*
Y122639D01*
X63709Y122097D01*
X63951Y121855D01*
Y120374D01*
X64020Y120025D01*
X64218Y119730D01*
X66321Y117627D01*
Y111507D01*
X64815Y110001D01*
X64469Y110040D01*
X64280Y110530D01*
X64916Y111167D01*
X65114Y111462D01*
X65183Y111811D01*
Y116695D01*
X65114Y117043D01*
X64916Y117339D01*
X59576Y122679D01*
Y123160D01*
X59351Y123703D01*
X58936Y124118D01*
X58394Y124343D01*
X57806D01*
X57263Y124118D01*
X56848Y123703D01*
X56623Y123160D01*
Y122573D01*
X56848Y122030D01*
X57263Y121615D01*
X57806Y121390D01*
X58288D01*
X60041Y119637D01*
X59834Y119137D01*
X44061D01*
X8724Y154474D01*
Y159878D01*
X8735Y159887D01*
X9224Y160058D01*
X43872Y125410D01*
Y124011D01*
X43532Y123671D01*
X43307Y123128D01*
Y122541D01*
X43532Y121998D01*
X43947Y121583D01*
X44490Y121358D01*
X45077D01*
X45620Y121583D01*
X46035Y121998D01*
X46260Y122541D01*
Y123128D01*
X46035Y123671D01*
X45695Y124011D01*
Y125787D01*
X45625Y126136D01*
X45428Y126432D01*
X10873Y160986D01*
X10909Y161184D01*
X11447Y161353D01*
X20466Y152334D01*
D02*
G37*
G36*
X66883Y122409D02*
Y122292D01*
X67108Y121749D01*
X67523Y121334D01*
X68066Y121109D01*
X68653D01*
X69196Y121334D01*
X69500Y121638D01*
X72457D01*
X72556Y121138D01*
X72308Y121035D01*
X71892Y120620D01*
X71668Y120077D01*
Y119490D01*
X71892Y118947D01*
X72233Y118607D01*
Y114368D01*
X68568Y110704D01*
X68108Y110950D01*
X68143Y111130D01*
Y118004D01*
X68074Y118353D01*
X67877Y118648D01*
X65773Y120751D01*
Y121672D01*
X65797Y121681D01*
X66212Y122097D01*
X66383Y122509D01*
X66883Y122409D01*
D02*
G37*
G36*
X142181Y111718D02*
X139247Y108785D01*
X136511D01*
X136171Y109126D01*
X135628Y109350D01*
X135041D01*
X134498Y109126D01*
X134083Y108710D01*
X133858Y108168D01*
Y107580D01*
X134083Y107038D01*
X134498Y106622D01*
X135041Y106398D01*
X135628D01*
X136171Y106622D01*
X136511Y106963D01*
X139625D01*
X139974Y107032D01*
X140269Y107230D01*
X140851Y107105D01*
X140923Y106931D01*
X141338Y106516D01*
X141881Y106291D01*
X142468D01*
X143011Y106516D01*
X143426Y106931D01*
X143651Y107474D01*
Y107955D01*
X144536Y108841D01*
X147277D01*
X147611Y108341D01*
X147539Y108168D01*
Y107580D01*
X147764Y107038D01*
X148179Y106622D01*
X148722Y106398D01*
X149203D01*
X153588Y102013D01*
X153883Y101816D01*
X154232Y101746D01*
X159055D01*
X159404Y101816D01*
X159699Y102013D01*
X162434Y104748D01*
X164243D01*
X164435Y104286D01*
X159062Y98914D01*
X157279D01*
X156939Y99254D01*
X156396Y99479D01*
X155809D01*
X155266Y99254D01*
X154851Y98839D01*
X154626Y98296D01*
Y97709D01*
X154851Y97166D01*
X155266Y96751D01*
X155809Y96526D01*
X156396D01*
X156939Y96751D01*
X157279Y97091D01*
X159439D01*
X159788Y97160D01*
X160083Y97358D01*
X161831Y99106D01*
X162308Y98876D01*
X162293Y98737D01*
X162297Y98692D01*
X162288Y98647D01*
Y94218D01*
X162254Y93915D01*
X162168Y93670D01*
X162030Y93450D01*
X161846Y93266D01*
X161626Y93128D01*
X161380Y93042D01*
X161077Y93008D01*
X129207D01*
X128873Y93508D01*
X128904Y93585D01*
Y94172D01*
X128680Y94714D01*
X128264Y95130D01*
X127919Y95273D01*
X127756Y95816D01*
X130272Y98333D01*
X144805D01*
X145112Y98394D01*
X145373Y98568D01*
X148787Y101982D01*
X148820Y101969D01*
X149408D01*
X149951Y102193D01*
X150366Y102609D01*
X150591Y103151D01*
Y103739D01*
X150366Y104281D01*
X149951Y104697D01*
X149408Y104921D01*
X148820D01*
X148278Y104697D01*
X147863Y104281D01*
X147638Y103739D01*
Y103151D01*
X147652Y103118D01*
X144473Y99939D01*
X140346D01*
X140155Y100400D01*
X141799Y102045D01*
X141832Y102031D01*
X142420D01*
X142962Y102255D01*
X143378Y102671D01*
X143602Y103213D01*
Y103801D01*
X143378Y104343D01*
X142962Y104759D01*
X142420Y104983D01*
X141832D01*
X141290Y104759D01*
X140874Y104343D01*
X140650Y103801D01*
Y103213D01*
X140664Y103180D01*
X138603Y101120D01*
X131550D01*
X131359Y101582D01*
X131858Y102081D01*
X131891Y102067D01*
X132479D01*
X133021Y102292D01*
X133437Y102707D01*
X133661Y103250D01*
Y103837D01*
X133437Y104380D01*
X133021Y104795D01*
X132479Y105020D01*
X131891D01*
X131349Y104795D01*
X130933Y104380D01*
X130775Y103996D01*
X130247Y103964D01*
X130188Y104106D01*
X129773Y104521D01*
X129230Y104746D01*
X129096D01*
X128889Y105246D01*
X135823Y112180D01*
X141989D01*
X142181Y111718D01*
D02*
G37*
G36*
X156505Y111935D02*
X156576Y111762D01*
X156992Y111347D01*
X157534Y111122D01*
X158122D01*
X158664Y111347D01*
X159005Y111687D01*
X172653D01*
X173002Y111757D01*
X173142Y111850D01*
X173460Y111462D01*
X171367Y109368D01*
X159441D01*
X159092Y109299D01*
X158797Y109101D01*
X157766Y108071D01*
X157285D01*
X156743Y107846D01*
X156327Y107431D01*
X156102Y106888D01*
Y106660D01*
X155602Y106453D01*
X151768Y110287D01*
X151902Y110719D01*
X151953Y110787D01*
X154272D01*
X154620Y110856D01*
X154916Y111054D01*
X155915Y112053D01*
X156505Y111935D01*
D02*
G37*
G36*
X110686Y109298D02*
Y106224D01*
X110748Y105917D01*
X110922Y105657D01*
X112598Y103981D01*
X112583Y103835D01*
X112429Y103481D01*
X109791D01*
X108487Y104785D01*
X108191Y104982D01*
X107842Y105051D01*
X100416D01*
X100068Y104982D01*
X99772Y104785D01*
X98645Y103658D01*
X95072D01*
X94823Y104158D01*
X94980Y104537D01*
Y105124D01*
X94756Y105667D01*
X94560Y105863D01*
X94476Y106305D01*
X94588Y106488D01*
X94880Y106780D01*
X95105Y107323D01*
Y107910D01*
X94880Y108453D01*
X94465Y108868D01*
X93923Y109093D01*
X93335D01*
X92792Y108868D01*
X92377Y108453D01*
X92152Y107910D01*
Y107323D01*
X92377Y106780D01*
X92573Y106584D01*
X92656Y106142D01*
X92545Y105959D01*
X92252Y105667D01*
X92028Y105124D01*
Y104537D01*
X92185Y104158D01*
X91936Y103658D01*
X89144D01*
X87340Y105462D01*
X87045Y105659D01*
X86696Y105728D01*
X84051D01*
X83710Y106069D01*
X83168Y106294D01*
X82580D01*
X82038Y106069D01*
X81622Y105654D01*
X81398Y105111D01*
Y104524D01*
X81622Y103981D01*
X82038Y103566D01*
X82580Y103341D01*
X83168D01*
X83539Y103495D01*
X83930Y103132D01*
X83858Y102958D01*
Y102371D01*
X84040Y101931D01*
X83908Y101426D01*
X83802Y101321D01*
X83453Y101046D01*
X83149Y101321D01*
X83021Y101449D01*
X82479Y101673D01*
X81891D01*
X81349Y101449D01*
X80933Y101033D01*
X80861Y100858D01*
X80271Y100741D01*
X78192Y102820D01*
X78248Y102954D01*
Y103542D01*
X78023Y104084D01*
X77608Y104500D01*
X77437Y104571D01*
X77319Y105160D01*
X77815Y105656D01*
X77873Y105667D01*
X78198Y105885D01*
X82384Y110070D01*
X82601Y110396D01*
X82678Y110780D01*
Y120196D01*
X82601Y120580D01*
X82384Y120906D01*
X81791Y121498D01*
Y121849D01*
X81567Y122391D01*
X81151Y122807D01*
X80609Y123031D01*
X80021D01*
X79479Y122807D01*
X79063Y122391D01*
X78839Y121849D01*
Y121425D01*
X78503Y121126D01*
X78377Y121075D01*
X78121Y121181D01*
X77534D01*
X76991Y120956D01*
X76576Y120541D01*
X76351Y119998D01*
Y119411D01*
X76576Y118869D01*
X76991Y118453D01*
X77534Y118228D01*
X78121D01*
X78664Y118453D01*
X79079Y118869D01*
X79304Y119411D01*
Y119835D01*
X79639Y120134D01*
X79766Y120185D01*
X80021Y120079D01*
X80372D01*
X80670Y119781D01*
Y111196D01*
X78586Y109111D01*
X77996Y109228D01*
X77925Y109399D01*
X77509Y109815D01*
X76967Y110039D01*
X76380D01*
X75837Y109815D01*
X75422Y109399D01*
X75197Y108857D01*
Y108375D01*
X73055Y106234D01*
X67325D01*
X67174Y106734D01*
X67180Y106738D01*
X73788Y113346D01*
X73986Y113642D01*
X74055Y113990D01*
Y118607D01*
X74396Y118947D01*
X74620Y119490D01*
Y120077D01*
X74396Y120620D01*
X73980Y121035D01*
X73731Y121138D01*
X73831Y121638D01*
X74114D01*
X74421Y121699D01*
X74682Y121873D01*
X76861Y124052D01*
X95933D01*
X110686Y109298D01*
D02*
G37*
G36*
X196846Y131615D02*
X196873Y131590D01*
Y131011D01*
X197098Y130469D01*
X197434Y130132D01*
X197075Y129773D01*
X196850Y129231D01*
Y128643D01*
X197075Y128101D01*
X197491Y127685D01*
X198033Y127461D01*
X198620D01*
X198622Y127460D01*
Y127068D01*
X198847Y126526D01*
X199262Y126111D01*
X199805Y125886D01*
X200392D01*
X200935Y126111D01*
X201350Y126526D01*
X201575Y127068D01*
Y127656D01*
X201350Y128199D01*
X201069Y128479D01*
X200983Y128789D01*
X201069Y129099D01*
X201281Y129311D01*
X219880D01*
X220030Y129162D01*
X220572Y128937D01*
X221160D01*
X221702Y129162D01*
X222118Y129577D01*
X222221Y129826D01*
X222721Y129727D01*
Y46797D01*
X222221Y46590D01*
X218584Y50227D01*
X218762Y50756D01*
X219143Y50914D01*
X219559Y51329D01*
X219783Y51872D01*
Y52459D01*
X219559Y53002D01*
X219143Y53417D01*
X218601Y53642D01*
X218013D01*
X217471Y53417D01*
X217056Y53002D01*
X216898Y52620D01*
X216369Y52442D01*
X202478Y66333D01*
Y74603D01*
X202978Y74703D01*
X203079Y74459D01*
X203494Y74044D01*
X204037Y73819D01*
X204624D01*
X205167Y74044D01*
X205582Y74459D01*
X205807Y75002D01*
Y75254D01*
X210552Y79999D01*
X210770Y80325D01*
X210846Y80709D01*
Y98797D01*
X212148Y100098D01*
X212498D01*
X213041Y100323D01*
X213386Y100668D01*
X213731Y100323D01*
X214273Y100098D01*
X214861D01*
X215403Y100323D01*
X215748Y100668D01*
X216093Y100323D01*
X216635Y100098D01*
X217223D01*
X217765Y100323D01*
X218110Y100668D01*
X218455Y100323D01*
X218998Y100098D01*
X219585D01*
X220128Y100323D01*
X220543Y100739D01*
X220768Y101281D01*
Y101868D01*
X220543Y102411D01*
X220328Y102626D01*
X220183Y102953D01*
X220328Y103279D01*
X220543Y103494D01*
X220768Y104037D01*
Y104624D01*
X220543Y105167D01*
X220128Y105582D01*
X219585Y105807D01*
X218998D01*
X218455Y105582D01*
X218110Y105237D01*
X217765Y105582D01*
X217223Y105807D01*
X216635D01*
X216093Y105582D01*
X215748Y105237D01*
X215403Y105582D01*
X214861Y105807D01*
X214273D01*
X213731Y105582D01*
X213386Y105237D01*
X213041Y105582D01*
X212498Y105807D01*
X211911D01*
X211368Y105582D01*
X210953Y105167D01*
X210728Y104624D01*
Y104037D01*
X210953Y103494D01*
X211168Y103279D01*
X211313Y102953D01*
X211168Y102626D01*
X210953Y102411D01*
X210728Y101868D01*
Y101518D01*
X209133Y99922D01*
X208915Y99597D01*
X208839Y99213D01*
Y85795D01*
X208339Y85461D01*
X208168Y85532D01*
X207580D01*
X207038Y85307D01*
X206622Y84891D01*
X206398Y84349D01*
Y83762D01*
X206622Y83219D01*
X207038Y82803D01*
X207580Y82579D01*
X208168D01*
X208339Y82650D01*
X208839Y82316D01*
Y81124D01*
X204486Y76772D01*
X204037D01*
X203494Y76547D01*
X203079Y76132D01*
X202978Y75888D01*
X202478Y75987D01*
Y92553D01*
X202978Y92887D01*
X203151Y92815D01*
X203739D01*
X204281Y93040D01*
X204696Y93455D01*
X204921Y93998D01*
Y94585D01*
X204696Y95128D01*
X204281Y95543D01*
X203739Y95768D01*
X203151D01*
X202978Y95696D01*
X202478Y96030D01*
Y100440D01*
X202409Y100789D01*
X202211Y101084D01*
X195598Y107697D01*
X195302Y107895D01*
X194954Y107964D01*
X184229D01*
X183932Y108464D01*
X184055Y108761D01*
Y109349D01*
X183830Y109891D01*
X183415Y110307D01*
X183406Y110353D01*
X183535Y110483D01*
X183760Y111025D01*
Y111613D01*
X183535Y112155D01*
X183120Y112571D01*
X182577Y112795D01*
X181990D01*
X181447Y112571D01*
X181032Y112155D01*
X180855Y112276D01*
X180757Y112374D01*
X180215Y112598D01*
X179628D01*
X179085Y112374D01*
X178670Y111958D01*
X178445Y111416D01*
Y110909D01*
X178162Y110616D01*
X178050Y110531D01*
X177462D01*
X176920Y110307D01*
X176504Y109891D01*
X176279Y109349D01*
Y108761D01*
X176403Y108464D01*
X176106Y107964D01*
X173194D01*
X173002Y108426D01*
X196442Y131866D01*
X196846Y131615D01*
D02*
G37*
G36*
X193183Y98343D02*
Y84071D01*
X189287D01*
Y98647D01*
X189278Y98692D01*
X189282Y98737D01*
X189233Y99176D01*
X189205Y99261D01*
X189193Y99351D01*
X189047Y99767D01*
X189001Y99844D01*
X188969Y99929D01*
X188734Y100302D01*
X188673Y100367D01*
X188622Y100443D01*
X188311Y100754D01*
X188236Y100804D01*
X188170Y100866D01*
X187797Y101101D01*
X187713Y101133D01*
X187635Y101179D01*
X187219Y101324D01*
X187130Y101337D01*
X187044Y101364D01*
X186606Y101414D01*
X186560Y101410D01*
X186516Y101419D01*
X171168D01*
X170834Y101919D01*
X170866Y101996D01*
Y102583D01*
X170767Y102821D01*
X171099Y103321D01*
X188205D01*
X193183Y98343D01*
D02*
G37*
G36*
X199187Y65453D02*
X199257Y65104D01*
X199454Y64808D01*
X200213Y64049D01*
X200204Y60793D01*
X199741Y60602D01*
X195006Y65338D01*
Y83268D01*
X199187D01*
Y65453D01*
D02*
G37*
G36*
X219379Y44884D02*
Y38679D01*
X213332Y32632D01*
X213135Y32337D01*
X213065Y31988D01*
Y17888D01*
X213135Y17539D01*
X213332Y17244D01*
X214148Y16428D01*
Y15947D01*
X214268Y15657D01*
X214192Y15248D01*
X214004Y15087D01*
X213632Y14933D01*
X213217Y14517D01*
X212992Y13975D01*
Y13387D01*
X213217Y12845D01*
X213632Y12430D01*
X214175Y12205D01*
X214762D01*
X215305Y12430D01*
X215720Y12845D01*
X215766Y12955D01*
X216153D01*
X216501Y13025D01*
X216797Y13222D01*
X222221Y18646D01*
X222721Y18439D01*
Y3417D01*
X222687Y3114D01*
X222601Y2868D01*
X222463Y2648D01*
X222279Y2465D01*
X222059Y2326D01*
X221813Y2240D01*
X221510Y2206D01*
X217698D01*
X217491Y2706D01*
X217590Y2805D01*
X217815Y3348D01*
Y3935D01*
X217590Y4478D01*
X217175Y4893D01*
X217035Y4951D01*
X217077Y5475D01*
X217470Y5638D01*
X217885Y6053D01*
X218110Y6596D01*
Y7183D01*
X217885Y7726D01*
X217470Y8141D01*
X216928Y8366D01*
X216340D01*
X215798Y8141D01*
X215382Y7726D01*
X215158Y7183D01*
Y6596D01*
X215382Y6053D01*
X215798Y5638D01*
X215938Y5580D01*
X215896Y5056D01*
X215502Y4893D01*
X215087Y4478D01*
X214862Y3935D01*
Y3348D01*
X215087Y2805D01*
X215186Y2706D01*
X214979Y2206D01*
X201187D01*
X200834Y2560D01*
X200836Y3111D01*
X200993Y56121D01*
X201455Y56312D01*
X216107Y41660D01*
Y40998D01*
X215767Y40657D01*
X215542Y40115D01*
Y39527D01*
X215767Y38985D01*
X216182Y38570D01*
X216724Y38345D01*
X217312D01*
X217854Y38570D01*
X218270Y38985D01*
X218495Y39527D01*
Y40115D01*
X218270Y40657D01*
X217929Y40998D01*
Y42037D01*
X217860Y42386D01*
X217663Y42681D01*
X200722Y59622D01*
X200694Y59804D01*
X200770Y60223D01*
X200770Y60224D01*
X200859Y60357D01*
X200944Y60484D01*
X200944Y60484D01*
X200945Y60485D01*
X200976Y60639D01*
X201006Y60791D01*
X201012Y62598D01*
X201474Y62788D01*
X219379Y44884D01*
D02*
G37*
G36*
X220939Y36955D02*
Y19941D01*
X217563Y16565D01*
X217020Y16729D01*
X216876Y17076D01*
X216461Y17492D01*
X215918Y17717D01*
X215437D01*
X214888Y18266D01*
Y30391D01*
X215388Y30491D01*
X215481Y30266D01*
X215896Y29851D01*
X216439Y29626D01*
X217026D01*
X217569Y29851D01*
X217984Y30266D01*
X218209Y30809D01*
Y31396D01*
X217984Y31939D01*
X217569Y32354D01*
X217026Y32579D01*
X216563D01*
X216343Y32943D01*
X216318Y33041D01*
X220439Y37162D01*
X220939Y36955D01*
D02*
G37*
G36*
X193183Y64961D02*
X193253Y64612D01*
X193450Y64316D01*
X200194Y57572D01*
X200033Y3114D01*
X200032Y2868D01*
D01*
X200030Y2206D01*
X190498D01*
X190194Y2240D01*
X189949Y2326D01*
X189729Y2465D01*
X189545Y2648D01*
X189407Y2868D01*
X189321Y3114D01*
X189287Y3417D01*
Y83268D01*
X193183D01*
Y64961D01*
D02*
G37*
%LPC*%
G36*
X212269Y215827D02*
X210369D01*
X208505Y215456D01*
X206750Y214729D01*
X205170Y213674D01*
X203827Y212330D01*
X202771Y210750D01*
X202044Y208995D01*
X201673Y207131D01*
Y205231D01*
X202044Y203368D01*
X202771Y201612D01*
X203827Y200032D01*
X205170Y198689D01*
X206750Y197633D01*
X208505Y196906D01*
X210369Y196536D01*
X212269D01*
X214132Y196906D01*
X215888Y197633D01*
X217468Y198689D01*
X218811Y200032D01*
X219867Y201612D01*
X220594Y203368D01*
X220965Y205231D01*
Y207131D01*
X220594Y208995D01*
X219867Y210750D01*
X218811Y212330D01*
X217468Y213674D01*
X215888Y214729D01*
X214132Y215456D01*
X212269Y215827D01*
D02*
G37*
G36*
X220176Y179527D02*
X219588D01*
X219046Y179303D01*
X218630Y178887D01*
X218406Y178345D01*
Y177758D01*
X218630Y177215D01*
X219046Y176800D01*
X219588Y176575D01*
X220176D01*
X220718Y176800D01*
X221133Y177215D01*
X221358Y177758D01*
Y178345D01*
X221133Y178887D01*
X220718Y179303D01*
X220176Y179527D01*
D02*
G37*
G36*
X220372Y147146D02*
X219785D01*
X219243Y146921D01*
X219027Y146706D01*
X218701Y146561D01*
X218374Y146706D01*
X218159Y146921D01*
X217617Y147146D01*
X217029D01*
X216487Y146921D01*
X216271Y146706D01*
X215945Y146561D01*
X215618Y146706D01*
X215403Y146921D01*
X214861Y147146D01*
X214273D01*
X213731Y146921D01*
X213315Y146506D01*
X213091Y145963D01*
Y145376D01*
X213315Y144833D01*
X213530Y144618D01*
X213620Y144414D01*
X213508Y144140D01*
X212950Y143911D01*
X212862Y143950D01*
X212647Y144165D01*
X212105Y144390D01*
X211517D01*
X210975Y144165D01*
X210559Y143750D01*
X210335Y143207D01*
Y142620D01*
X210559Y142077D01*
X210975Y141662D01*
X211517Y141437D01*
X212105D01*
X212647Y141662D01*
X212862Y141877D01*
X213189Y142021D01*
X213516Y141877D01*
X213731Y141662D01*
X214273Y141437D01*
X214626D01*
X214774Y141190D01*
X214868Y140940D01*
X214665Y140451D01*
Y139864D01*
X214890Y139321D01*
X215235Y138976D01*
X214890Y138632D01*
X214665Y138089D01*
Y137502D01*
X214890Y136959D01*
X215235Y136614D01*
X214890Y136269D01*
X214665Y135727D01*
Y135139D01*
X214890Y134597D01*
X215305Y134181D01*
X215848Y133957D01*
X216435D01*
X216978Y134181D01*
X217393Y134597D01*
X217618Y135139D01*
Y135727D01*
X217393Y136269D01*
X217049Y136614D01*
X217393Y136959D01*
X217618Y137502D01*
Y138089D01*
X217393Y138632D01*
X217049Y138976D01*
X217393Y139321D01*
X217618Y139864D01*
Y140451D01*
X217417Y140937D01*
X217566Y141336D01*
X217617Y141437D01*
X218159Y141662D01*
X218374Y141877D01*
X218701Y142021D01*
X219027Y141877D01*
X219243Y141662D01*
X219785Y141437D01*
X220372D01*
X220915Y141662D01*
X221330Y142077D01*
X221555Y142620D01*
Y143207D01*
X221330Y143750D01*
X221115Y143965D01*
X220971Y144291D01*
X221115Y144618D01*
X221330Y144833D01*
X221555Y145376D01*
Y145963D01*
X221330Y146506D01*
X220915Y146921D01*
X220372Y147146D01*
D02*
G37*
G36*
X17518Y227917D02*
X16931D01*
X16388Y227692D01*
X15973Y227276D01*
X15748Y226734D01*
Y226147D01*
X15973Y225604D01*
X16388Y225189D01*
X16931Y224964D01*
X17518D01*
X18061Y225189D01*
X18476Y225604D01*
X18701Y226147D01*
Y226734D01*
X18476Y227276D01*
X18061Y227692D01*
X17518Y227917D01*
D02*
G37*
G36*
X17616Y199570D02*
X17029D01*
X16487Y199345D01*
X16071Y198930D01*
X15846Y198387D01*
Y197800D01*
X16071Y197257D01*
X16487Y196842D01*
X17029Y196617D01*
X17616D01*
X18159Y196842D01*
X18574Y197257D01*
X18799Y197800D01*
Y198387D01*
X18574Y198930D01*
X18159Y199345D01*
X17616Y199570D01*
D02*
G37*
G36*
X13789Y134398D02*
X12888D01*
X12056Y134053D01*
X11419Y133416D01*
X11075Y132584D01*
Y131684D01*
X11419Y130851D01*
X12056Y130215D01*
X12888Y129870D01*
X13789D01*
X14621Y130215D01*
X15258Y130851D01*
X15602Y131684D01*
Y132584D01*
X15258Y133416D01*
X14621Y134053D01*
X13789Y134398D01*
D02*
G37*
G36*
X26082Y129922D02*
X25495D01*
X24952Y129697D01*
X24537Y129282D01*
X24312Y128739D01*
Y128152D01*
X24537Y127609D01*
X24952Y127194D01*
X25495Y126969D01*
X25671D01*
X26087Y126924D01*
X26133Y126507D01*
Y126331D01*
X26357Y125789D01*
X26773Y125373D01*
X27315Y125148D01*
X27903D01*
X28176Y125262D01*
X28559Y124879D01*
X28446Y124606D01*
Y124018D01*
X28670Y123476D01*
X29086Y123060D01*
X29628Y122836D01*
X30216D01*
X30758Y123060D01*
X31174Y123476D01*
X31398Y124018D01*
Y124606D01*
X31174Y125148D01*
X30758Y125564D01*
X30216Y125788D01*
X29628D01*
X29355Y125675D01*
X28972Y126058D01*
X29085Y126331D01*
Y126918D01*
X28861Y127461D01*
X28445Y127876D01*
X27903Y128101D01*
X27727D01*
X27310Y128147D01*
X27265Y128563D01*
Y128739D01*
X27040Y129282D01*
X26625Y129697D01*
X26082Y129922D01*
D02*
G37*
G36*
X32972Y123032D02*
X32384D01*
X31842Y122808D01*
X31426Y122392D01*
X31202Y121850D01*
Y121262D01*
X31426Y120720D01*
X31842Y120304D01*
X32384Y120080D01*
X32972D01*
X33514Y120304D01*
X33930Y120720D01*
X34154Y121262D01*
Y121850D01*
X33930Y122392D01*
X33514Y122808D01*
X32972Y123032D01*
D02*
G37*
G36*
X24293Y124409D02*
X23541D01*
X22816Y124215D01*
X22165Y123839D01*
X21633Y123308D01*
X21258Y122657D01*
X21063Y121931D01*
Y121179D01*
X21258Y120453D01*
X21633Y119802D01*
X22165Y119271D01*
X22816Y118895D01*
X23541Y118701D01*
X24293D01*
X25019Y118895D01*
X25670Y119271D01*
X26201Y119802D01*
X26577Y120453D01*
X26772Y121179D01*
Y121931D01*
X26577Y122657D01*
X26201Y123308D01*
X25670Y123839D01*
X25019Y124215D01*
X24293Y124409D01*
D02*
G37*
G36*
X24703Y109055D02*
X24116D01*
X23573Y108830D01*
X23158Y108415D01*
X22933Y107872D01*
Y107285D01*
X23158Y106743D01*
X23573Y106327D01*
X24116Y106102D01*
X24703D01*
X25246Y106327D01*
X25661Y106743D01*
X25886Y107285D01*
Y107872D01*
X25661Y108415D01*
X25246Y108830D01*
X24703Y109055D01*
D02*
G37*
G36*
X7774Y99705D02*
X7187D01*
X6644Y99480D01*
X6229Y99065D01*
X6004Y98522D01*
Y97935D01*
X6229Y97392D01*
X6644Y96977D01*
X6890Y96875D01*
Y96334D01*
X6644Y96232D01*
X6229Y95817D01*
X6004Y95274D01*
Y94687D01*
X6229Y94144D01*
X6644Y93729D01*
X7187Y93504D01*
X7774D01*
X8317Y93729D01*
X8732Y94144D01*
X8957Y94687D01*
Y95274D01*
X8732Y95817D01*
X8317Y96232D01*
X8071Y96334D01*
Y96875D01*
X8317Y96977D01*
X8732Y97392D01*
X8957Y97935D01*
Y98522D01*
X8732Y99065D01*
X8317Y99480D01*
X7774Y99705D01*
D02*
G37*
G36*
X26180Y84449D02*
X25592D01*
X25049Y84224D01*
X24634Y83809D01*
X24409Y83266D01*
Y82679D01*
X24634Y82136D01*
X25049Y81721D01*
X25592Y81496D01*
X25861D01*
X26237Y81229D01*
X26280Y81034D01*
Y80612D01*
X26504Y80069D01*
X26920Y79654D01*
X27462Y79429D01*
X27820D01*
X27924Y79329D01*
X28126Y78961D01*
X27953Y78542D01*
Y77954D01*
X28177Y77412D01*
X28593Y76996D01*
X29136Y76772D01*
X29723D01*
X30265Y76996D01*
X30681Y77412D01*
X30906Y77954D01*
Y78542D01*
X30681Y79084D01*
X30265Y79500D01*
X29723Y79724D01*
X29365D01*
X29261Y79825D01*
X29059Y80193D01*
X29232Y80612D01*
Y81199D01*
X29008Y81742D01*
X28592Y82157D01*
X28050Y82382D01*
X27780D01*
X27404Y82649D01*
X27362Y82844D01*
Y83266D01*
X27137Y83809D01*
X26722Y84224D01*
X26180Y84449D01*
D02*
G37*
G36*
X17018Y64272D02*
X16431D01*
X15888Y64047D01*
X15473Y63632D01*
X15248Y63089D01*
Y62502D01*
X15473Y61959D01*
X15888Y61544D01*
X16431Y61319D01*
X17018D01*
X17561Y61544D01*
X17976Y61959D01*
X18201Y62502D01*
Y63089D01*
X17976Y63632D01*
X17561Y64047D01*
X17018Y64272D01*
D02*
G37*
G36*
X13876Y31398D02*
X13289D01*
X12746Y31173D01*
X12331Y30757D01*
X12106Y30215D01*
Y29628D01*
X12331Y29085D01*
X12746Y28670D01*
X13289Y28445D01*
X13876D01*
X14419Y28670D01*
X14834Y29085D01*
X15059Y29628D01*
Y30215D01*
X14834Y30757D01*
X14419Y31173D01*
X13876Y31398D01*
D02*
G37*
G36*
X14172Y14075D02*
X13584D01*
X13042Y13850D01*
X12626Y13435D01*
X12402Y12892D01*
Y12305D01*
X12626Y11762D01*
X13042Y11347D01*
X13584Y11122D01*
X14172D01*
X14714Y11347D01*
X15130Y11762D01*
X15354Y12305D01*
Y12892D01*
X15130Y13435D01*
X14714Y13850D01*
X14172Y14075D01*
D02*
G37*
G36*
X151170Y149018D02*
X150583D01*
X150040Y148793D01*
X149625Y148378D01*
X149400Y147835D01*
Y147248D01*
X149625Y146705D01*
X150040Y146290D01*
X150583Y146065D01*
X151170D01*
X151713Y146290D01*
X152128Y146705D01*
X152353Y147248D01*
Y147835D01*
X152128Y148378D01*
X151713Y148793D01*
X151170Y149018D01*
D02*
G37*
G36*
X159939Y125295D02*
X159352D01*
X158809Y125071D01*
X158394Y124655D01*
X158169Y124113D01*
Y123525D01*
X158394Y122983D01*
X158809Y122567D01*
X159352Y122343D01*
X159939D01*
X160482Y122567D01*
X160897Y122983D01*
X161122Y123525D01*
Y124113D01*
X160897Y124655D01*
X160482Y125071D01*
X159939Y125295D01*
D02*
G37*
G36*
X141337Y122244D02*
X140750D01*
X140207Y122019D01*
X139792Y121604D01*
X139567Y121061D01*
Y120474D01*
X139792Y119931D01*
X140207Y119516D01*
X140750Y119291D01*
X141337D01*
X141880Y119516D01*
X142295Y119931D01*
X142520Y120474D01*
Y121061D01*
X142295Y121604D01*
X141880Y122019D01*
X141337Y122244D01*
D02*
G37*
G36*
X90254Y110039D02*
X89667D01*
X89124Y109815D01*
X89008Y109698D01*
X88681Y109423D01*
X88354Y109698D01*
X88238Y109815D01*
X87695Y110039D01*
X87108D01*
X86565Y109815D01*
X86449Y109698D01*
X86122Y109423D01*
X85795Y109698D01*
X85679Y109815D01*
X85136Y110039D01*
X84549D01*
X84006Y109815D01*
X83591Y109399D01*
X83366Y108857D01*
Y108269D01*
X83591Y107727D01*
X84006Y107311D01*
X84549Y107087D01*
X85136D01*
X85679Y107311D01*
X85795Y107428D01*
X86122Y107703D01*
X86449Y107428D01*
X86565Y107311D01*
X87108Y107087D01*
X87695D01*
X88238Y107311D01*
X88354Y107428D01*
X88681Y107703D01*
X89008Y107428D01*
X89124Y107311D01*
X89667Y107087D01*
X90254D01*
X90797Y107311D01*
X91212Y107727D01*
X91437Y108269D01*
Y108857D01*
X91212Y109399D01*
X90797Y109815D01*
X90254Y110039D01*
D02*
G37*
G36*
X205805Y125295D02*
X205218D01*
X204676Y125071D01*
X204260Y124655D01*
X204035Y124113D01*
Y123525D01*
X204260Y122983D01*
X204676Y122567D01*
X205218Y122343D01*
X205805D01*
X206348Y122567D01*
X206763Y122983D01*
X206988Y123525D01*
Y124113D01*
X206763Y124655D01*
X206348Y125071D01*
X205805Y125295D01*
D02*
G37*
G36*
Y112697D02*
X205218D01*
X204676Y112472D01*
X204260Y112057D01*
X204035Y111514D01*
Y110927D01*
X204260Y110384D01*
X204676Y109969D01*
X205218Y109744D01*
X205805D01*
X206348Y109969D01*
X206763Y110384D01*
X206988Y110927D01*
Y111514D01*
X206763Y112057D01*
X206348Y112472D01*
X205805Y112697D01*
D02*
G37*
G36*
X220865Y81040D02*
X220277D01*
X219735Y80815D01*
X219319Y80400D01*
X219094Y79857D01*
Y79270D01*
X219319Y78728D01*
X219735Y78312D01*
X220277Y78087D01*
X220865D01*
X221407Y78312D01*
X221823Y78728D01*
X222047Y79270D01*
Y79857D01*
X221823Y80400D01*
X221407Y80815D01*
X220865Y81040D01*
D02*
G37*
G36*
X216829D02*
X216242D01*
X215699Y80815D01*
X215284Y80400D01*
X215059Y79857D01*
Y79270D01*
X215284Y78728D01*
X215699Y78312D01*
X216242Y78087D01*
X216829D01*
X217372Y78312D01*
X217787Y78728D01*
X218012Y79270D01*
Y79857D01*
X217787Y80400D01*
X217372Y80815D01*
X216829Y81040D01*
D02*
G37*
G36*
X215845Y60630D02*
X215258D01*
X214715Y60405D01*
X214300Y59990D01*
X214075Y59447D01*
Y58860D01*
X214300Y58317D01*
X214715Y57902D01*
X215258Y57677D01*
X215845D01*
X216388Y57902D01*
X216803Y58317D01*
X217028Y58860D01*
Y59447D01*
X216803Y59990D01*
X216388Y60405D01*
X215845Y60630D01*
D02*
G37*
G36*
X213835Y39534D02*
X213248D01*
X212705Y39309D01*
X212290Y38894D01*
X212065Y38352D01*
Y37764D01*
X212290Y37222D01*
X212705Y36806D01*
X213248Y36582D01*
X213835D01*
X214378Y36806D01*
X214793Y37222D01*
X215018Y37764D01*
Y38352D01*
X214793Y38894D01*
X214378Y39309D01*
X213835Y39534D01*
D02*
G37*
%LPD*%
D11*
X113189Y129035D02*
X119657Y135503D01*
X106254Y129035D02*
X113189D01*
X96707Y147067D02*
X110576D01*
X94443Y149331D02*
X96707Y147067D01*
X110576D02*
X112525Y149016D01*
X55905Y137795D02*
X94154D01*
X46063Y138484D02*
X46329D01*
X95034Y140256D02*
X106254Y129035D01*
X40276Y140256D02*
X95034D01*
X94154Y137795D02*
X105276Y126673D01*
X46821Y138976D02*
X94643D01*
X46329Y138484D02*
X46821Y138976D01*
X53839Y135925D02*
X54035D01*
X94643Y138976D02*
X105765Y127854D01*
X54035Y135925D02*
X55905Y137795D01*
X38248Y138453D02*
Y138496D01*
Y138453D02*
X38715Y137985D01*
Y137859D02*
X46996Y129579D01*
X38715Y137859D02*
Y137985D01*
X70502Y124229D02*
X71970D01*
X71987Y124213D02*
X72933D01*
X70314Y124418D02*
X70502Y124229D01*
X71970D02*
X71987Y124213D01*
X68359Y122586D02*
X68504Y122441D01*
X74114D01*
X69934Y128398D02*
X97733D01*
X46996Y129579D02*
X98414D01*
X144805Y99136D02*
X149114Y103445D01*
X126118Y119783D02*
Y126343D01*
X124606Y127854D02*
X126118Y126343D01*
X105765Y127854D02*
X124606D01*
X121535Y126673D02*
X122394Y125815D01*
X123509D02*
X123698Y125627D01*
X122394Y125815D02*
X123509D01*
X105276Y126673D02*
X121535D01*
X118935Y107710D02*
Y109058D01*
X98414Y129579D02*
X118935Y109058D01*
X115017Y108349D02*
Y109444D01*
X96754Y126036D02*
X113125Y109666D01*
X96265Y124855D02*
X111489Y109631D01*
X113125Y107735D02*
Y109666D01*
X116198Y109426D02*
X116788Y108835D01*
X116198Y109426D02*
Y109933D01*
X97733Y128398D02*
X116198Y109933D01*
X115032Y107484D02*
Y108333D01*
X111489Y106224D02*
Y109631D01*
X76528Y124855D02*
X96265D01*
X74756Y126036D02*
X96754D01*
X113125Y107735D02*
X113261Y107599D01*
X73145Y127217D02*
X97244D01*
X116788Y108569D02*
Y108835D01*
X97244Y127217D02*
X115017Y109444D01*
X34469Y146063D02*
X40276Y140256D01*
X32185Y146063D02*
X34469D01*
X118935Y107710D02*
X119123Y107521D01*
X115032Y107484D02*
X116512Y106004D01*
X113200Y104514D02*
X114415D01*
X114481Y104447D01*
X116512Y106004D02*
X116513D01*
X112525Y149016D02*
X125119D01*
X81893Y149331D02*
X94443D01*
X88189Y99311D02*
X89870Y97630D01*
X88470Y96449D02*
X123907D01*
X124402Y95268D02*
X129451Y100317D01*
X89870Y97630D02*
X123417D01*
X124891Y94087D02*
X129940Y99136D01*
X84744Y100175D02*
X88470Y96449D01*
X123417Y97630D02*
X128937Y103149D01*
X76772Y103105D02*
X85790Y94087D01*
X82185Y100197D02*
X87114Y95268D01*
X85790Y94087D02*
X124891D01*
X87114Y95268D02*
X124402D01*
X123907Y96449D02*
X128836Y101378D01*
X128841D02*
X128962Y101498D01*
X128937Y103149D02*
Y103270D01*
X130140Y101498D02*
X132185Y103543D01*
X129940Y99136D02*
X144805D01*
X138936Y100317D02*
X142126Y103507D01*
X128962Y101498D02*
X130140D01*
X129451Y100317D02*
X138936D01*
X128836Y101378D02*
X128841D01*
X125119Y149016D02*
X130449Y143685D01*
X72933Y124213D02*
X74756Y126036D01*
X68110Y126575D02*
X69934Y128398D01*
X74114Y122441D02*
X76528Y124855D01*
X76772Y103105D02*
Y103248D01*
X115017Y108349D02*
X115032Y108333D01*
X111489Y106224D02*
X113200Y104514D01*
D15*
X28866Y181435D02*
Y189002D01*
Y181435D02*
X31032Y179270D01*
X28866Y189002D02*
X33268Y193404D01*
X26673Y158917D02*
Y168973D01*
X31032Y173332D02*
Y179270D01*
X26673Y158917D02*
X36653Y148937D01*
X26673Y168973D02*
X31032Y173332D01*
X211417Y166440D02*
Y172736D01*
X207488Y162511D02*
X211417Y166440D01*
X123193Y138646D02*
X126000Y141453D01*
X132431Y131644D02*
Y138238D01*
X11614Y162474D02*
X21110Y152978D01*
X11614Y162474D02*
Y225492D01*
X9744Y160827D02*
Y219776D01*
Y160827D02*
X44783Y125787D01*
X50882Y123221D02*
X51268Y122835D01*
X21110Y152978D02*
Y152978D01*
Y152978D02*
X50868Y123221D01*
X51268Y122835D02*
X51476D01*
X50868Y123221D02*
X50882D01*
X73144Y113990D02*
Y119774D01*
X7812Y154097D02*
X43683Y118226D01*
X7812Y154097D02*
Y203692D01*
X9736Y219783D02*
X9744Y219776D01*
X11614Y225492D02*
X12795Y226673D01*
X36319Y107382D02*
X66535D01*
X73144Y113990D01*
X67232Y111130D02*
Y118004D01*
X65142Y109039D02*
X67232Y111130D01*
X64862Y120374D02*
X67232Y118004D01*
X10039Y51378D02*
X15551Y45866D01*
X10039Y51378D02*
Y81102D01*
X36319Y107382D01*
X8194Y82801D02*
X34433Y109039D01*
X8194Y13287D02*
Y82801D01*
X6801Y83671D02*
X33563Y110433D01*
X6801Y33080D02*
Y83671D01*
X12894Y80281D02*
X37935Y105322D01*
X73432D01*
X12894Y52461D02*
Y80281D01*
Y52461D02*
X12992Y52362D01*
X191574Y162221D02*
X198377Y169024D01*
X201181D01*
X191574Y142588D02*
Y162221D01*
X207488Y144201D02*
Y162511D01*
X171744Y108457D02*
X207488Y144201D01*
X188618Y139632D02*
X191574Y142588D01*
X193425Y142468D02*
Y159748D01*
X193464Y159786D01*
X189048Y138091D02*
X193425Y142468D01*
X195303Y142375D02*
Y157579D01*
X198574Y141448D02*
Y159697D01*
X206913Y168035D01*
X197181Y142154D02*
Y160468D01*
X205520Y168807D01*
X186885Y133957D02*
X195303Y142375D01*
X176426Y121399D02*
X197181Y142154D01*
X177131Y120005D02*
X198574Y141448D01*
X157828Y112598D02*
X172653D01*
X202828Y142773D02*
Y161676D01*
X172653Y112598D02*
X202828Y142773D01*
X157579Y106595D02*
X159441Y108457D01*
X171744D01*
X194954Y107053D02*
X201567Y100440D01*
X158465Y104134D02*
X161384Y107053D01*
X159055Y102657D02*
X162057Y105659D01*
X161384Y107053D02*
X194954D01*
X162057Y105659D02*
X194377D01*
X200098Y99937D01*
X144159Y109752D02*
X151014D01*
X156632Y104134D02*
X158465D01*
X151014Y109752D02*
X156632Y104134D01*
X202828Y161676D02*
X209055Y167904D01*
Y184744D01*
X159439Y98002D02*
X165669Y104232D01*
X188583D02*
X194095Y98721D01*
X165669Y104232D02*
X188583D01*
X197441Y213287D02*
X206594Y222441D01*
X212131D01*
X197441Y203743D02*
Y213287D01*
X194095Y216327D02*
X195669Y217901D01*
Y218110D01*
X194095Y203543D02*
Y216327D01*
Y203543D02*
X205520Y192118D01*
Y168807D02*
Y192118D01*
X206913Y168035D02*
Y194270D01*
X197441Y203743D02*
X206913Y194270D01*
X43683Y118226D02*
X60085D01*
X156418Y140059D02*
X158387Y138091D01*
X189048D01*
X158356Y141453D02*
X160176Y139632D01*
X188618D01*
X126000Y141453D02*
X158356D01*
X160331Y117417D02*
X165847Y122933D01*
X171850D02*
X182874Y133957D01*
X165847Y122933D02*
X171850D01*
X166956Y120005D02*
X177131D01*
X161503Y114551D02*
X166956Y120005D01*
X160925Y115945D02*
X166379Y121399D01*
X176426D01*
X182874Y133957D02*
X186885D01*
X201567Y65955D02*
X221850Y45672D01*
X216153Y13866D02*
X221850Y19564D01*
Y45672D01*
X213976Y17888D02*
Y31988D01*
X220290Y38302D01*
X213976Y17888D02*
X215624Y16240D01*
X220290Y38302D02*
Y45261D01*
X194095Y64961D02*
X217018Y42037D01*
Y39821D02*
Y42037D01*
X140002Y114485D02*
X152981D01*
X155913Y117417D02*
X160331D01*
X152981Y114485D02*
X155913Y117417D01*
X135446Y113092D02*
X153643D01*
X156496Y115945D01*
X160925D01*
X154272Y111698D02*
X157125Y114551D01*
X161503D01*
X143449Y111698D02*
X154272D01*
X201567Y65955D02*
Y100440D01*
X137235Y117252D02*
X140002Y114485D01*
X139625Y107874D02*
X143449Y111698D01*
X124450Y102095D02*
X135446Y113092D01*
X73432Y105322D02*
X76673Y108563D01*
X62894Y110433D02*
X64272Y111811D01*
X34433Y109039D02*
X65142D01*
X33563Y110433D02*
X62894D01*
X3543Y29823D02*
X6801Y33080D01*
X60085Y118226D02*
X61904Y116407D01*
X154232Y102657D02*
X159055D01*
X149016Y107874D02*
X154232Y102657D01*
X194095Y64961D02*
Y98721D01*
X200098Y65453D02*
Y99937D01*
Y65453D02*
X220290Y45261D01*
X64272Y111811D02*
Y116695D01*
X58100Y122867D02*
X64272Y116695D01*
X64862Y120374D02*
Y122835D01*
X64961Y122933D01*
X44783Y122835D02*
Y125787D01*
X69980Y148937D02*
X70079Y148838D01*
X36653Y148937D02*
X69980D01*
X136811Y124547D02*
Y131004D01*
X132596Y120331D02*
X136811Y124547D01*
X134744Y124451D02*
Y132677D01*
X131202Y120909D02*
X134744Y124451D01*
Y132677D02*
X137402Y135335D01*
X131202Y116932D02*
Y120909D01*
X82874Y104817D02*
X86696D01*
X85335Y102665D02*
X85544D01*
X86929Y101279D01*
X86696Y104817D02*
X88767Y102746D01*
X99023D01*
X86929Y101279D02*
X99016D01*
X90945Y99402D02*
X91154D01*
X107842Y104140D02*
X109413Y102569D01*
X91565Y98991D02*
X117795D01*
X91154Y99402D02*
X91565Y98991D01*
X100416Y104140D02*
X107842D01*
X99023Y102746D02*
X100416Y104140D01*
X109413Y102569D02*
X116839D01*
X131202Y116932D01*
X99016Y101279D02*
X99911Y100384D01*
X116625D01*
X117795Y98991D02*
X123143Y104339D01*
X132431Y138238D02*
X134252Y140059D01*
X156418D01*
X156102Y98002D02*
X159439D01*
X123531Y101862D02*
X123764Y102095D01*
X124450D01*
X132596Y116355D02*
Y120331D01*
X116625Y100384D02*
X132596Y116355D01*
X134704Y119783D02*
X137235Y117252D01*
X124321Y104339D02*
X137235Y117252D01*
X123322Y101862D02*
X123531D01*
X123143Y104339D02*
X124321D01*
X135335Y107874D02*
X139625D01*
X214654Y13866D02*
X216153D01*
X214469Y13681D02*
X214654Y13866D01*
X142174Y107768D02*
X144159Y109752D01*
D103*
X25000Y157480D02*
Y180271D01*
X21372Y183898D02*
X25000Y180271D01*
Y157480D02*
X39173Y143307D01*
X28957Y174191D02*
Y179246D01*
X21915Y186287D02*
X28957Y179246D01*
X81674Y110780D02*
Y120196D01*
X80351Y121519D02*
X81674Y120196D01*
X98721Y144882D02*
X103839Y139764D01*
X119291D02*
X123524Y135531D01*
X103839Y139764D02*
X119291D01*
X82945Y144882D02*
X98721D01*
X81370Y143307D02*
X82945Y144882D01*
X67913Y143307D02*
X81370D01*
X21915Y186287D02*
X21915D01*
X15136Y193066D02*
X21915Y186287D01*
X204331Y75295D02*
X204429D01*
X209842Y80709D01*
Y99213D01*
X200197Y130315D02*
X220768D01*
X200098Y130217D02*
X200197Y130315D01*
X220768D02*
X220866Y130413D01*
X209842Y99213D02*
X212205Y101575D01*
X93780Y136221D02*
X104705Y125295D01*
X120965D01*
X89098Y136221D02*
X93780D01*
X74803Y101654D02*
Y104063D01*
X77489Y106595D02*
X81674Y110780D01*
X74803Y104063D02*
X77334Y106595D01*
X77489D01*
X39173Y143307D02*
X67913D01*
X120965Y125295D02*
X123721Y122539D01*
X63016Y132087D02*
X67126D01*
X62219Y132883D02*
X63016Y132087D01*
X85841Y132963D02*
X89098Y136221D01*
X84853Y132087D02*
X85730Y132963D01*
X67126Y132087D02*
X84853D01*
X65158Y134055D02*
X67126Y132087D01*
X74803Y101654D02*
X82579Y93878D01*
D111*
X31447Y188927D02*
D03*
X211417Y172736D02*
D03*
X213295Y169685D02*
D03*
X123193Y138646D02*
D03*
X102007Y138812D02*
D03*
X103543Y137402D02*
D03*
X108661Y131102D02*
D03*
X119657Y135503D02*
D03*
X86209Y146850D02*
D03*
X90945Y142913D02*
D03*
X132431Y131644D02*
D03*
X123524Y135531D02*
D03*
X139764Y127165D02*
D03*
X15223Y189268D02*
D03*
X15136Y193066D02*
D03*
X38248Y138496D02*
D03*
X20571Y131693D02*
D03*
X70314Y124418D02*
D03*
X68359Y122586D02*
D03*
X72290Y126575D02*
D03*
X73144Y119783D02*
D03*
X7812Y203692D02*
D03*
X9736Y219783D02*
D03*
X3642Y188779D02*
D03*
X2953Y173721D02*
D03*
X71063Y108661D02*
D03*
X70768Y115945D02*
D03*
X15650Y49409D02*
D03*
X15551Y45866D02*
D03*
X15748Y42224D02*
D03*
X32874Y47146D02*
D03*
X30906D02*
D03*
X28937D02*
D03*
X26969D02*
D03*
X25000D02*
D03*
X21063D02*
D03*
X13484Y33465D02*
D03*
X12992Y52362D02*
D03*
X22146Y42851D02*
D03*
X216535Y45866D02*
D03*
X215748Y63779D02*
D03*
X219587Y84449D02*
D03*
X191858Y168289D02*
D03*
X221850Y169783D02*
D03*
Y173819D02*
D03*
X201181Y169024D02*
D03*
X200787Y153150D02*
D03*
X193570Y159792D02*
D03*
X195303Y157185D02*
D03*
X205512Y151181D02*
D03*
X162697Y110335D02*
D03*
X157579Y106595D02*
D03*
X209055Y184744D02*
D03*
X210236Y60630D02*
D03*
X209449Y63386D02*
D03*
X207480Y65354D02*
D03*
X205512Y67323D02*
D03*
X203543Y69291D02*
D03*
X190650Y97539D02*
D03*
X204331Y75295D02*
D03*
X190945Y82284D02*
D03*
Y66535D02*
D03*
Y64567D02*
D03*
X218537Y59055D02*
D03*
X220571Y91043D02*
D03*
X220866Y130413D02*
D03*
X212779Y90895D02*
D03*
X214345Y89389D02*
D03*
X214088Y92682D02*
D03*
X215490Y91164D02*
D03*
X149114Y103445D02*
D03*
X212205Y101575D02*
D03*
X33268Y193404D02*
D03*
X20276Y230942D02*
D03*
X221654Y211024D02*
D03*
Y200000D02*
D03*
X191732Y193701D02*
D03*
X194488Y195669D02*
D03*
X202362Y213779D02*
D03*
X204331Y215748D02*
D03*
X207480Y217323D02*
D03*
X200394Y222835D02*
D03*
X198031D02*
D03*
X195669Y218110D02*
D03*
X195160Y199822D02*
D03*
X221099Y3740D02*
D03*
Y6791D02*
D03*
X190945Y72441D02*
D03*
Y80315D02*
D03*
Y78347D02*
D03*
Y76378D02*
D03*
Y74410D02*
D03*
Y70472D02*
D03*
Y68504D02*
D03*
Y62598D02*
D03*
X192913D02*
D03*
X194882Y60630D02*
D03*
X192913D02*
D03*
X190945D02*
D03*
Y58661D02*
D03*
X192913D02*
D03*
X194882D02*
D03*
X196850D02*
D03*
X198819Y56693D02*
D03*
X196850D02*
D03*
X194882D02*
D03*
X192913D02*
D03*
X194882Y54724D02*
D03*
X196850D02*
D03*
X198819D02*
D03*
X196850Y52756D02*
D03*
X198819D02*
D03*
Y50787D02*
D03*
X190945Y54724D02*
D03*
X198819Y46850D02*
D03*
X194882Y52756D02*
D03*
X198819Y48819D02*
D03*
X192913Y52756D02*
D03*
X194882Y50787D02*
D03*
X192913Y54724D02*
D03*
X196850Y50787D02*
D03*
Y48819D02*
D03*
X190945Y56693D02*
D03*
X190945Y52756D02*
D03*
Y3543D02*
D03*
X192913D02*
D03*
X198819Y11417D02*
D03*
X196850Y17323D02*
D03*
Y15354D02*
D03*
Y9449D02*
D03*
X198819D02*
D03*
X194882Y29134D02*
D03*
Y37008D02*
D03*
Y38976D02*
D03*
Y31102D02*
D03*
X196850Y44882D02*
D03*
Y40945D02*
D03*
Y38976D02*
D03*
X198819D02*
D03*
Y37008D02*
D03*
X196850Y19291D02*
D03*
Y46850D02*
D03*
X198819Y17323D02*
D03*
X192913Y21260D02*
D03*
Y27165D02*
D03*
X196850Y31102D02*
D03*
X194882Y33071D02*
D03*
X196850Y29134D02*
D03*
X198819D02*
D03*
X194882Y42913D02*
D03*
X198819Y27165D02*
D03*
Y25197D02*
D03*
X190945Y31102D02*
D03*
X196850Y21260D02*
D03*
X190945Y48819D02*
D03*
Y44882D02*
D03*
Y33071D02*
D03*
X196850D02*
D03*
X192913Y38976D02*
D03*
Y37008D02*
D03*
X190945Y15354D02*
D03*
X192913Y11417D02*
D03*
X194882Y40945D02*
D03*
Y13386D02*
D03*
X192913Y15354D02*
D03*
X198819Y23228D02*
D03*
X194882Y27165D02*
D03*
X196850Y35039D02*
D03*
X190945Y46850D02*
D03*
X192913Y50787D02*
D03*
X196850Y37008D02*
D03*
X194882Y19291D02*
D03*
Y21260D02*
D03*
Y7480D02*
D03*
Y46850D02*
D03*
X192913Y42913D02*
D03*
X194882Y11417D02*
D03*
Y9449D02*
D03*
X192913Y29134D02*
D03*
X194882Y5512D02*
D03*
X196850Y3543D02*
D03*
X194882Y44882D02*
D03*
X192913Y40945D02*
D03*
X190945Y13386D02*
D03*
X198819Y5512D02*
D03*
X190945Y17323D02*
D03*
X194882Y25197D02*
D03*
X196850D02*
D03*
Y5512D02*
D03*
Y27165D02*
D03*
X194882Y35039D02*
D03*
X190945Y50787D02*
D03*
X198819Y19291D02*
D03*
Y42913D02*
D03*
X192913Y25197D02*
D03*
X190945Y40945D02*
D03*
X194882Y17323D02*
D03*
X192913Y44882D02*
D03*
Y33071D02*
D03*
Y19291D02*
D03*
X194882Y3543D02*
D03*
X198819Y33071D02*
D03*
Y7480D02*
D03*
X192913Y13386D02*
D03*
X196850Y23228D02*
D03*
X190945Y35039D02*
D03*
X194882Y15354D02*
D03*
X192913Y31102D02*
D03*
Y48819D02*
D03*
X190945Y37008D02*
D03*
X192913Y7480D02*
D03*
X190945Y23228D02*
D03*
Y38976D02*
D03*
X198819Y40945D02*
D03*
Y21260D02*
D03*
X190945Y5512D02*
D03*
X196850Y13386D02*
D03*
X190945Y21260D02*
D03*
Y42913D02*
D03*
X192913Y9449D02*
D03*
X198819Y35039D02*
D03*
X192913Y46850D02*
D03*
X190945Y29134D02*
D03*
X196850Y7480D02*
D03*
X190945Y19291D02*
D03*
X198819Y44882D02*
D03*
Y31102D02*
D03*
X190945Y25197D02*
D03*
Y27165D02*
D03*
X196850Y11417D02*
D03*
X194882Y23228D02*
D03*
X192913Y5512D02*
D03*
X190945Y9449D02*
D03*
X192913Y35039D02*
D03*
X194882Y48819D02*
D03*
X190945Y11417D02*
D03*
X192913Y23228D02*
D03*
X198819Y13386D02*
D03*
X190945Y7480D02*
D03*
X198819Y3543D02*
D03*
X192913Y17323D02*
D03*
X196850Y42913D02*
D03*
X198819Y15354D02*
D03*
X123698Y125627D02*
D03*
X107172Y123327D02*
D03*
X113261Y107599D02*
D03*
X109153Y121949D02*
D03*
X102031Y135889D02*
D03*
X113347Y117335D02*
D03*
X101181Y117323D02*
D03*
X111072Y120238D02*
D03*
X55512Y112402D02*
D03*
X61713Y122835D02*
D03*
X54921D02*
D03*
X48228Y122933D02*
D03*
X41634D02*
D03*
X169980Y135531D02*
D03*
X180315Y135827D02*
D03*
X175886Y134252D02*
D03*
X195965Y111221D02*
D03*
X194685Y109350D02*
D03*
X197146Y109153D02*
D03*
X219882Y28248D02*
D03*
X219783Y31102D02*
D03*
X217018Y39821D02*
D03*
X157828Y112598D02*
D03*
X150098Y124803D02*
D03*
X152461D02*
D03*
X152549Y118799D02*
D03*
X160531Y110433D02*
D03*
X159449Y94488D02*
D03*
X157024Y94193D02*
D03*
X144882Y127559D02*
D03*
X142913D02*
D03*
X142126Y134252D02*
D03*
X140157D02*
D03*
Y130709D02*
D03*
X147736Y124803D02*
D03*
X150543Y118799D02*
D03*
X80315Y121555D02*
D03*
X76673Y108563D02*
D03*
X186119Y117620D02*
D03*
X186218Y115485D02*
D03*
X210630Y15453D02*
D03*
X208661Y43012D02*
D03*
X204724Y17421D02*
D03*
X210630Y3642D02*
D03*
X202756Y7579D02*
D03*
X210630Y13484D02*
D03*
X204724Y23327D02*
D03*
X202756Y11516D02*
D03*
X206693Y48917D02*
D03*
X204724Y35138D02*
D03*
X202756Y9547D02*
D03*
X204724Y5610D02*
D03*
X206693Y23327D02*
D03*
X208661Y11516D02*
D03*
X202756Y27264D02*
D03*
Y25295D02*
D03*
X210630Y31201D02*
D03*
Y44980D02*
D03*
X202756Y19390D02*
D03*
X208661Y7579D02*
D03*
X202756Y29232D02*
D03*
X204724Y46949D02*
D03*
X210630Y35138D02*
D03*
X204724Y9547D02*
D03*
X202756Y43012D02*
D03*
Y21358D02*
D03*
Y52854D02*
D03*
X208661Y13484D02*
D03*
X202756Y5610D02*
D03*
X210630Y21358D02*
D03*
Y41043D02*
D03*
X202756Y39075D02*
D03*
Y23327D02*
D03*
X204724Y7579D02*
D03*
X202756Y37106D02*
D03*
X204724Y48917D02*
D03*
Y31201D02*
D03*
X206693Y15453D02*
D03*
X202756Y35138D02*
D03*
X208661Y23327D02*
D03*
X204724Y13484D02*
D03*
X210630Y7579D02*
D03*
Y33169D02*
D03*
X206693Y3642D02*
D03*
X204724Y19390D02*
D03*
Y33169D02*
D03*
Y44980D02*
D03*
X206693Y17421D02*
D03*
X202756Y41043D02*
D03*
X204724Y25295D02*
D03*
X210630Y43012D02*
D03*
Y19390D02*
D03*
X202756Y50886D02*
D03*
X206693Y35138D02*
D03*
X208661Y27264D02*
D03*
Y5610D02*
D03*
Y25295D02*
D03*
X206693D02*
D03*
X202756Y17421D02*
D03*
X210630Y5610D02*
D03*
X202756Y13484D02*
D03*
X204724Y41043D02*
D03*
X206693Y44980D02*
D03*
X208661Y3642D02*
D03*
X206693Y5610D02*
D03*
X204724Y29232D02*
D03*
X206693Y9547D02*
D03*
Y11516D02*
D03*
X204724Y43012D02*
D03*
X206693Y46949D02*
D03*
Y7579D02*
D03*
Y21358D02*
D03*
Y19390D02*
D03*
X208661Y37106D02*
D03*
X204724Y50886D02*
D03*
X202756Y46949D02*
D03*
X208661Y35138D02*
D03*
X206693Y27264D02*
D03*
X210630Y23327D02*
D03*
X204724Y15453D02*
D03*
X206693Y13484D02*
D03*
Y41043D02*
D03*
X204724Y11516D02*
D03*
X202756Y15453D02*
D03*
X204724Y37106D02*
D03*
Y39075D02*
D03*
X208661Y33169D02*
D03*
X202756D02*
D03*
Y44980D02*
D03*
Y48917D02*
D03*
X208661Y21358D02*
D03*
X202756Y31201D02*
D03*
X210630Y25295D02*
D03*
Y27264D02*
D03*
X206693Y43012D02*
D03*
X210630Y29232D02*
D03*
X208661D02*
D03*
X206693Y33169D02*
D03*
X208661Y31201D02*
D03*
X204724Y27264D02*
D03*
Y21358D02*
D03*
X210630Y17421D02*
D03*
X208661Y46949D02*
D03*
Y19390D02*
D03*
X210630Y37106D02*
D03*
Y39075D02*
D03*
X208661D02*
D03*
Y41043D02*
D03*
Y44980D02*
D03*
X206693Y31201D02*
D03*
Y39075D02*
D03*
Y37106D02*
D03*
Y29232D02*
D03*
X210630Y9547D02*
D03*
X208661D02*
D03*
Y15453D02*
D03*
Y17421D02*
D03*
X210630Y11516D02*
D03*
X204724Y3642D02*
D03*
X202756D02*
D03*
X106390Y110078D02*
D03*
X106398Y112205D02*
D03*
X102756Y108268D02*
D03*
X101181Y109449D02*
D03*
Y111417D02*
D03*
Y113386D02*
D03*
Y115354D02*
D03*
X96063Y120079D02*
D03*
X90945D02*
D03*
X94882Y131496D02*
D03*
X116513Y106004D02*
D03*
X114481Y104447D02*
D03*
X112992Y119291D02*
D03*
X114961D02*
D03*
X116929Y121260D02*
D03*
X114961D02*
D03*
X112992D02*
D03*
X111024Y123228D02*
D03*
X112992D02*
D03*
X114961D02*
D03*
X116929D02*
D03*
X118898D02*
D03*
X110630Y131102D02*
D03*
X112598Y131496D02*
D03*
X111024Y133071D02*
D03*
X100394Y137402D02*
D03*
X97539Y148838D02*
D03*
X109843D02*
D03*
X3543Y132677D02*
D03*
Y130315D02*
D03*
Y128347D02*
D03*
X19291Y107087D02*
D03*
X17323D02*
D03*
X15354D02*
D03*
X3543Y47638D02*
D03*
Y49606D02*
D03*
Y51575D02*
D03*
X219291Y185827D02*
D03*
X221260D02*
D03*
Y183465D02*
D03*
X218996Y20768D02*
D03*
X220079Y14567D02*
D03*
X213779Y227953D02*
D03*
X6299Y220079D02*
D03*
Y222047D02*
D03*
Y224016D02*
D03*
Y225984D02*
D03*
X17224Y231040D02*
D03*
X33858Y197638D02*
D03*
Y199606D02*
D03*
Y201575D02*
D03*
X3543Y25591D02*
D03*
Y33465D02*
D03*
X3937Y15748D02*
D03*
Y12992D02*
D03*
Y10630D02*
D03*
Y8268D02*
D03*
X23031Y47146D02*
D03*
X13780Y16929D02*
D03*
X13386Y22047D02*
D03*
X3937Y42126D02*
D03*
X3543Y60630D02*
D03*
Y69193D02*
D03*
X3642Y77953D02*
D03*
X3543Y85827D02*
D03*
Y87795D02*
D03*
Y89764D02*
D03*
Y91732D02*
D03*
X9843Y90551D02*
D03*
X2756Y94882D02*
D03*
Y98425D02*
D03*
X200787Y151181D02*
D03*
X215888Y152257D02*
D03*
X217717Y150787D02*
D03*
Y153150D02*
D03*
X205512D02*
D03*
X214469Y150787D02*
D03*
X213154Y137973D02*
D03*
X211122Y137992D02*
D03*
X196555Y121653D02*
D03*
X194488Y121555D02*
D03*
X197798Y195571D02*
D03*
X207382Y230610D02*
D03*
X210531D02*
D03*
X71075Y134646D02*
D03*
X67913Y143307D02*
D03*
X61904Y116407D02*
D03*
X64961Y122933D02*
D03*
X32185Y146063D02*
D03*
X123721Y122539D02*
D03*
X136811Y131004D02*
D03*
X82874Y104817D02*
D03*
X85335Y102665D02*
D03*
X90945Y99402D02*
D03*
X88189Y99311D02*
D03*
X141870Y93979D02*
D03*
X138189Y93898D02*
D03*
X156102Y98002D02*
D03*
X128937Y103270D02*
D03*
X132185Y103543D02*
D03*
X90158Y105709D02*
D03*
X3543Y29823D02*
D03*
X53839Y135925D02*
D03*
X57776Y136024D02*
D03*
X44783Y122835D02*
D03*
X46063Y138484D02*
D03*
X82579Y93878D02*
D03*
X130449Y143685D02*
D03*
X216943Y92785D02*
D03*
X216648Y89402D02*
D03*
X218217Y90997D02*
D03*
X219529Y92733D02*
D03*
X219606Y89312D02*
D03*
X212131Y222441D02*
D03*
X200098Y130217D02*
D03*
X134704Y119783D02*
D03*
X126118Y119783D02*
D03*
X85841Y132963D02*
D03*
X81135Y148838D02*
D03*
X76772Y103248D02*
D03*
X84744Y100175D02*
D03*
X82185Y100197D02*
D03*
X8194Y13287D02*
D03*
X12795Y226673D02*
D03*
X62106Y133957D02*
D03*
X65158Y134055D02*
D03*
X70079Y148838D02*
D03*
X116788Y108569D02*
D03*
X119123Y107521D02*
D03*
X137402Y135335D02*
D03*
X123322Y101862D02*
D03*
X132387Y107377D02*
D03*
X135335Y107874D02*
D03*
X215624Y16240D02*
D03*
X214469Y13681D02*
D03*
X68110Y126575D02*
D03*
X58100Y122867D02*
D03*
X51476Y122835D02*
D03*
X77917Y94193D02*
D03*
X149016Y107874D02*
D03*
X142174Y107768D02*
D03*
X142126Y103507D02*
D03*
D112*
X28957Y174191D02*
D03*
D113*
X21372Y183898D02*
D03*
M02*
