999
"DXF R12 Output" (www.mydxf.blogspot.com)
 0 
SECTION
 2 
HEADER
 9 
$ACADVER
 1 
AC1009
 9 
$EXTMIN
 10 
 0 
 20 
 0 
 9 
$EXTMAX
 10 
 8.5 
 20 
 11 
 0 
ENDSEC
 0 
SECTION
 2 
ENTITIES
0
POLYLINE
8
Layer 1
62
7
70
0
10
0.000000
20
0.000000
66
1
0
VERTEX
8
Layer 1
10
44.097250
20
71.155323
70
0
0
VERTEX
8
Layer 1
10
40.886970
20
69.664836
70
0
0
VERTEX
8
Layer 1
10
38.100024
20
68.015598
70
0
0
VERTEX
8
Layer 1
10
36.710961
20
66.348722
70
0
0
VERTEX
8
Layer 1
10
35.771689
20
64.734763
70
0
0
VERTEX
8
Layer 1
10
33.549188
20
60.501427
70
0
0
VERTEX
8
Layer 1
10
30.960679
20
55.328820
70
0
0
VERTEX
8
Layer 1
10
30.051725
20
53.104665
70
0
0
VERTEX
8
Layer 1
10
29.562796
20
51.505588
70
0
0
VERTEX
8
Layer 1
10
29.280574
20
50.800032
70
0
0
VERTEX
8
Layer 1
10
27.728351
20
47.607391
70
0
0
VERTEX
8
Layer 1
10
26.070294
20
43.568083
70
0
0
VERTEX
8
Layer 1
10
23.424459
20
36.971134
70
0
0
VERTEX
8
Layer 1
10
20.496402
20
29.562796
70
0
0
VERTEX
8
Layer 1
10
19.261679
20
25.999739
70
0
0
VERTEX
8
Layer 1
10
18.873623
20
24.857620
70
0
0
VERTEX
8
Layer 1
10
19.063241
20
24.714855
70
0
0
VERTEX
8
Layer 1
10
19.543901
20
24.694460
70
0
0
VERTEX
8
Layer 1
10
19.990386
20
24.771079
70
0
0
VERTEX
8
Layer 1
10
20.364110
20
25.042828
70
0
0
VERTEX
8
Layer 1
10
21.131402
20
26.423072
70
0
0
VERTEX
8
Layer 1
10
21.872236
20
28.645574
70
0
0
VERTEX
8
Layer 1
10
22.167136
20
29.763439
70
0
0
VERTEX
8
Layer 1
10
22.961438
20
31.926409
70
0
0
VERTEX
8
Layer 1
10
25.505849
20
37.958913
70
0
0
VERTEX
8
Layer 1
10
27.516684
20
42.897805
70
0
0
VERTEX
8
Layer 1
10
29.280574
20
47.272252
70
0
0
VERTEX
8
Layer 1
10
31.432520
20
52.387533
70
0
0
VERTEX
8
Layer 1
10
33.637382
20
57.339654
70
0
0
VERTEX
8
Layer 1
10
36.477245
20
62.582817
70
0
0
VERTEX
8
Layer 1
10
37.376829
20
64.214415
70
0
0
VERTEX
8
Layer 1
10
37.747246
20
65.158097
70
0
0
VERTEX
8
Layer 1
10
38.056478
20
65.833336
70
0
0
VERTEX
8
Layer 1
10
38.951101
20
66.670632
70
0
0
VERTEX
8
Layer 1
10
40.381505
20
67.633606
70
0
0
VERTEX
8
Layer 1
10
42.298082
20
68.685877
70
0
0
VERTEX
8
Layer 1
10
43.749433
20
69.385920
70
0
0
VERTEX
8
Layer 1
10
44.860132
20
69.788308
70
0
0
VERTEX
8
Layer 1
10
45.924530
20
69.965799
70
0
0
VERTEX
8
Layer 1
10
47.236974
20
69.991155
70
0
0
VERTEX
8
Layer 1
10
50.522219
20
69.783898
70
0
0
VERTEX
8
Layer 1
10
52.563922
20
69.391433
70
0
0
VERTEX
8
Layer 1
10
54.504201
20
68.756432
70
0
0
VERTEX
8
Layer 1
10
56.937267
20
67.725108
70
0
0
VERTEX
8
Layer 1
10
59.892885
20
66.062090
70
0
0
VERTEX
8
Layer 1
10
62.729441
20
64.167562
70
0
0
VERTEX
8
Layer 1
10
64.805319
20
62.441706
70
0
0
VERTEX
8
Layer 1
10
66.530624
20
60.530090
70
0
0
VERTEX
8
Layer 1
10
67.918584
20
58.658162
70
0
0
VERTEX
8
Layer 1
10
68.922899
20
56.905296
70
0
0
VERTEX
8
Layer 1
10
69.497266
20
55.350868
70
0
0
VERTEX
8
Layer 1
10
69.805947
20
52.991665
70
0
0
VERTEX
8
Layer 1
10
70.061711
20
49.494753
70
0
0
VERTEX
8
Layer 1
10
70.308655
20
45.226140
70
0
0
VERTEX
8
Layer 1
10
69.356155
20
44.308917
70
0
0
VERTEX
8
Layer 1
10
68.186475
20
43.545483
70
0
0
VERTEX
8
Layer 1
10
66.375181
20
42.699367
70
0
0
VERTEX
8
Layer 1
10
64.167011
20
41.873095
70
0
0
VERTEX
8
Layer 1
10
61.806706
20
41.169193
70
0
0
VERTEX
8
Layer 1
10
59.822329
20
40.869331
70
0
0
VERTEX
8
Layer 1
10
57.573370
20
40.992804
70
0
0
VERTEX
8
Layer 1
10
54.318993
20
41.469054
70
0
0
VERTEX
8
Layer 1
10
52.810867
20
41.945304
70
0
0
VERTEX
8
Layer 1
10
50.870588
20
42.545027
70
0
0
VERTEX
8
Layer 1
10
49.925253
20
42.951273
70
0
0
VERTEX
8
Layer 1
10
48.996454
20
43.651868
70
0
0
VERTEX
8
Layer 1
10
48.246250
20
44.504598
70
0
0
VERTEX
8
Layer 1
10
47.836697
20
45.367251
70
0
0
VERTEX
8
Layer 1
10
47.479509
20
46.002251
70
0
0
VERTEX
8
Layer 1
10
46.884196
20
46.213918
70
0
0
VERTEX
8
Layer 1
10
46.508818
20
46.179743
70
0
0
VERTEX
8
Layer 1
10
46.315342
20
46.046348
70
0
0
VERTEX
8
Layer 1
10
46.355029
20
45.296695
70
0
0
VERTEX
8
Layer 1
10
46.782773
20
44.269229
70
0
0
VERTEX
8
Layer 1
10
47.448641
20
43.109472
70
0
0
VERTEX
8
Layer 1
10
47.907804
20
42.396199
70
0
0
VERTEX
8
Layer 1
10
48.079232
20
41.927665
70
0
0
VERTEX
8
Layer 1
10
47.979462
20
41.512049
70
0
0
VERTEX
8
Layer 1
10
47.625030
20
40.957526
70
0
0
VERTEX
8
Layer 1
10
47.083736
20
39.884860
70
0
0
VERTEX
8
Layer 1
10
46.443224
20
38.144121
70
0
0
VERTEX
8
Layer 1
10
45.367251
20
34.219466
70
0
0
VERTEX
8
Layer 1
10
44.979195
20
32.455576
70
0
0
VERTEX
8
Layer 1
10
44.666105
20
30.193387
70
0
0
VERTEX
8
Layer 1
10
44.273639
20
25.576405
70
0
0
VERTEX
8
Layer 1
10
43.709194
20
21.766403
70
0
0
VERTEX
8
Layer 1
10
43.614936
20
20.939028
70
0
0
VERTEX
8
Layer 1
10
43.801798
20
20.306784
70
0
0
VERTEX
8
Layer 1
10
44.180484
20
20.025112
70
0
0
VERTEX
8
Layer 1
10
44.661695
20
20.249457
70
0
0
VERTEX
8
Layer 1
10
45.067389
20
20.909814
70
0
0
VERTEX
8
Layer 1
10
45.367251
20
22.039806
70
0
0
VERTEX
8
Layer 1
10
45.861140
20
26.634739
70
0
0
VERTEX
8
Layer 1
10
46.373771
20
30.909416
70
0
0
VERTEX
8
Layer 1
10
47.210516
20
35.141099
70
0
0
VERTEX
8
Layer 1
10
48.192782
20
38.585645
70
0
0
VERTEX
8
Layer 1
10
48.682675
20
39.780198
70
0
0
VERTEX
8
Layer 1
10
49.141975
20
40.498914
70
0
0
VERTEX
8
Layer 1
10
49.645786
20
40.939887
70
0
0
VERTEX
8
Layer 1
10
50.076837
20
41.116276
70
0
0
VERTEX
8
Layer 1
10
50.640179
20
41.054540
70
0
0
VERTEX
8
Layer 1
10
51.540866
20
40.781137
70
0
0
VERTEX
8
Layer 1
10
55.156289
20
39.782885
70
0
0
VERTEX
8
Layer 1
10
58.371530
20
39.330337
70
0
0
VERTEX
8
Layer 1
10
61.090677
20
39.426800
70
0
0
VERTEX
8
Layer 1
10
62.234242
20
39.681944
70
0
0
VERTEX
8
Layer 1
10
63.217818
20
40.075581
70
0
0
VERTEX
8
Layer 1
10
64.205596
20
40.428359
70
0
0
VERTEX
8
Layer 1
10
64.822957
20
40.475212
70
0
0
VERTEX
8
Layer 1
10
66.286986
20
40.988394
70
0
0
VERTEX
8
Layer 1
10
69.426710
20
42.474471
70
0
0
VERTEX
8
Layer 1
10
70.568829
20
43.325548
70
0
0
VERTEX
8
Layer 1
10
71.261156
20
44.097250
70
0
0
VERTEX
8
Layer 1
10
71.499281
20
45.607581
70
0
0
VERTEX
8
Layer 1
10
71.578656
20
48.374683
70
0
0
VERTEX
8
Layer 1
10
71.499281
20
51.578348
70
0
0
VERTEX
8
Layer 1
10
71.261156
20
54.398368
70
0
0
VERTEX
8
Layer 1
10
70.848847
20
56.255413
70
0
0
VERTEX
8
Layer 1
10
70.132266
20
58.036391
70
0
0
VERTEX
8
Layer 1
10
69.098186
20
59.771066
70
0
0
VERTEX
8
Layer 1
10
67.733376
20
61.489205
70
0
0
VERTEX
8
Layer 1
10
65.852628
20
63.550201
70
0
0
VERTEX
8
Layer 1
10
64.329068
20
65.012576
70
0
0
VERTEX
8
Layer 1
10
62.911342
20
66.097919
70
0
0
VERTEX
8
Layer 1
10
61.348094
20
67.027820
70
0
0
VERTEX
8
Layer 1
10
58.913926
20
68.438932
70
0
0
VERTEX
8
Layer 1
10
57.899689
20
69.082201
70
0
0
VERTEX
8
Layer 1
10
55.932952
20
69.880912
70
0
0
VERTEX
8
Layer 1
10
53.516423
20
70.646551
70
0
0
VERTEX
8
Layer 1
10
51.152810
20
71.190600
70
0
0
VERTEX
8
Layer 1
10
49.142527
20
71.462901
70
0
0
VERTEX
8
Layer 1
10
47.188467
20
71.543378
70
0
0
VERTEX
8
Layer 1
10
45.452689
20
71.438647
70
0
0
VERTEX
8
Layer 1
10
44.097250
20
71.155323
70
0
0
VERTEX
8
Layer 1
10
44.097250
20
71.155323
70
0
0
SEQEND
8
Layer 1
0
POLYLINE
8
Layer 1
62
7
70
0
10
0.000000
20
0.000000
66
1
0
VERTEX
8
Layer 1
10
59.231426
20
57.820314
70
0
0
VERTEX
8
Layer 1
10
58.693440
20
57.233821
70
0
0
VERTEX
8
Layer 1
10
58.685723
20
57.051368
70
0
0
VERTEX
8
Layer 1
10
58.843370
20
56.938369
70
0
0
VERTEX
8
Layer 1
10
59.085905
20
56.704654
70
0
0
VERTEX
8
Layer 1
10
59.090315
20
56.444480
70
0
0
VERTEX
8
Layer 1
10
59.178509
20
56.060834
70
0
0
VERTEX
8
Layer 1
10
59.690038
20
55.597813
70
0
0
VERTEX
8
Layer 1
10
60.395594
20
55.236215
70
0
0
VERTEX
8
Layer 1
10
60.632616
20
55.349766
70
0
0
VERTEX
8
Layer 1
10
60.889483
20
55.668368
70
0
0
VERTEX
8
Layer 1
10
61.238954
20
56.217930
70
0
0
VERTEX
8
Layer 1
10
61.330455
20
56.704654
70
0
0
VERTEX
8
Layer 1
10
61.157374
20
57.211221
70
0
0
VERTEX
8
Layer 1
10
60.713094
20
57.820314
70
0
0
VERTEX
8
Layer 1
10
60.042816
20
58.561148
70
0
0
VERTEX
8
Layer 1
10
59.231426
20
57.820314
70
0
0
VERTEX
8
Layer 1
10
59.231426
20
57.820314
70
0
0
SEQEND
8
Layer 1
0
POLYLINE
8
Layer 1
62
7
70
0
10
0.000000
20
0.000000
66
1
0
VERTEX
8
Layer 1
10
66.145875
20
35.383633
70
0
0
VERTEX
8
Layer 1
10
63.394207
20
32.102798
70
0
0
VERTEX
8
Layer 1
10
61.751033
20
30.104641
70
0
0
VERTEX
8
Layer 1
10
59.562156
20
27.812136
70
0
0
VERTEX
8
Layer 1
10
51.576144
20
20.425846
70
0
0
VERTEX
8
Layer 1
10
49.913677
20
18.710463
70
0
0
VERTEX
8
Layer 1
10
49.517353
20
18.089243
70
0
0
VERTEX
8
Layer 1
10
49.388920
20
17.603622
70
0
0
VERTEX
8
Layer 1
10
49.459476
20
17.034768
70
0
0
VERTEX
8
Layer 1
10
49.741698
20
17.286122
70
0
0
VERTEX
8
Layer 1
10
49.984233
20
17.568344
70
0
0
VERTEX
8
Layer 1
10
50.094476
20
17.533067
70
0
0
VERTEX
8
Layer 1
10
50.575136
20
17.722685
70
0
0
VERTEX
8
Layer 1
10
51.717255
20
18.626678
70
0
0
VERTEX
8
Layer 1
10
53.220971
20
19.751158
70
0
0
VERTEX
8
Layer 1
10
53.805811
20
19.921484
70
0
0
VERTEX
8
Layer 1
10
54.433645
20
19.896679
70
0
0
VERTEX
8
Layer 1
10
72.072545
20
17.780011
70
0
0
VERTEX
8
Layer 1
10
73.245532
20
17.727094
70
0
0
VERTEX
8
Layer 1
10
73.730602
20
17.885845
70
0
0
VERTEX
8
Layer 1
10
73.060324
20
19.931957
70
0
0
VERTEX
8
Layer 1
10
72.398865
20
22.008937
70
0
0
VERTEX
8
Layer 1
10
71.790323
20
24.482793
70
0
0
VERTEX
8
Layer 1
10
70.987753
20
27.722287
70
0
0
VERTEX
8
Layer 1
10
69.920600
20
31.242902
70
0
0
VERTEX
8
Layer 1
10
68.853446
20
34.240963
70
0
0
VERTEX
8
Layer 1
10
68.050876
20
35.912800
70
0
0
VERTEX
8
Layer 1
10
67.415876
20
36.759468
70
0
0
VERTEX
8
Layer 1
10
66.145875
20
35.383633
70
0
0
VERTEX
8
Layer 1
10
66.145875
20
35.383633
70
0
0
SEQEND
8
Layer 1
0
POLYLINE
8
Layer 1
62
7
70
0
10
0.000000
20
0.000000
66
1
0
VERTEX
8
Layer 1
10
69.073932
20
31.573631
70
0
0
VERTEX
8
Layer 1
10
71.062718
20
24.204981
70
0
0
VERTEX
8
Layer 1
10
71.916551
20
20.476007
70
0
0
VERTEX
8
Layer 1
10
72.178379
20
18.767790
70
0
0
VERTEX
8
Layer 1
10
69.503329
20
18.935359
70
0
0
VERTEX
8
Layer 1
10
63.795492
20
19.579179
70
0
0
VERTEX
8
Layer 1
10
57.895831
20
20.355291
70
0
0
VERTEX
8
Layer 1
10
54.645312
20
20.919735
70
0
0
VERTEX
8
Layer 1
10
55.491979
20
21.889875
70
0
0
VERTEX
8
Layer 1
10
57.820314
20
24.130015
70
0
0
VERTEX
8
Layer 1
10
61.908129
20
28.178143
70
0
0
VERTEX
8
Layer 1
10
65.969486
20
32.914187
70
0
0
VERTEX
8
Layer 1
10
67.039947
20
34.158281
70
0
0
VERTEX
8
Layer 1
10
67.416840
20
34.421693
70
0
0
VERTEX
8
Layer 1
10
67.733376
20
34.426723
70
0
0
VERTEX
8
Layer 1
10
68.023453
20
34.158901
70
0
0
VERTEX
8
Layer 1
10
68.320972
20
33.603758
70
0
0
VERTEX
8
Layer 1
10
69.073932
20
31.573631
70
0
0
VERTEX
8
Layer 1
10
69.073932
20
31.573631
70
0
0
SEQEND
8
Layer 1
0
POLYLINE
8
Layer 1
62
7
70
0
10
0.000000
20
0.000000
66
1
0
VERTEX
8
Layer 1
10
62.970873
20
27.728351
70
0
0
VERTEX
8
Layer 1
10
61.590629
20
26.740572
70
0
0
VERTEX
8
Layer 1
10
60.713094
20
25.964461
70
0
0
VERTEX
8
Layer 1
10
60.345984
20
25.375211
70
0
0
VERTEX
8
Layer 1
10
60.364588
20
25.233342
70
0
0
VERTEX
8
Layer 1
10
60.501427
20
25.192759
70
0
0
VERTEX
8
Layer 1
10
61.080203
20
25.413796
70
0
0
VERTEX
8
Layer 1
10
61.983095
20
26.035016
70
0
0
VERTEX
8
Layer 1
10
63.323651
20
27.093350
70
0
0
VERTEX
8
Layer 1
10
64.170318
20
26.387794
70
0
0
VERTEX
8
Layer 1
10
65.016985
20
25.717516
70
0
0
VERTEX
8
Layer 1
10
64.276152
20
25.505849
70
0
0
VERTEX
8
Layer 1
10
63.826360
20
25.249534
70
0
0
VERTEX
8
Layer 1
10
63.535318
20
24.857620
70
0
0
VERTEX
8
Layer 1
10
63.482401
20
24.498778
70
0
0
VERTEX
8
Layer 1
10
63.746985
20
24.341682
70
0
0
VERTEX
8
Layer 1
10
64.637749
20
24.656426
70
0
0
VERTEX
8
Layer 1
10
65.978305
20
25.377967
70
0
0
VERTEX
8
Layer 1
10
67.199799
20
26.172269
70
0
0
VERTEX
8
Layer 1
10
67.733376
20
26.705295
70
0
0
VERTEX
8
Layer 1
10
67.684869
20
27.036575
70
0
0
VERTEX
8
Layer 1
10
67.504070
20
27.133038
70
0
0
VERTEX
8
Layer 1
10
66.533931
20
26.634739
70
0
0
VERTEX
8
Layer 1
10
66.079178
20
26.365195
70
0
0
VERTEX
8
Layer 1
10
65.753409
20
26.304010
70
0
0
VERTEX
8
Layer 1
10
65.052263
20
26.846406
70
0
0
VERTEX
8
Layer 1
10
64.642159
20
27.476996
70
0
0
VERTEX
8
Layer 1
10
64.670271
20
27.655039
70
0
0
VERTEX
8
Layer 1
10
64.840596
20
27.763629
70
0
0
VERTEX
8
Layer 1
10
65.121165
20
28.019393
70
0
0
VERTEX
8
Layer 1
10
65.259520
20
28.407448
70
0
0
VERTEX
8
Layer 1
10
65.232511
20
28.755817
70
0
0
VERTEX
8
Layer 1
10
65.016985
20
28.892518
70
0
0
VERTEX
8
Layer 1
10
62.970873
20
27.728351
70
0
0
VERTEX
8
Layer 1
10
62.970873
20
27.728351
70
0
0
SEQEND
8
Layer 1
0
POLYLINE
8
Layer 1
62
7
70
0
10
0.000000
20
0.000000
66
1
0
VERTEX
8
Layer 1
10
66.851431
20
24.306404
70
0
0
VERTEX
8
Layer 1
10
66.833792
20
23.552341
70
0
0
VERTEX
8
Layer 1
10
67.345320
20
22.824737
70
0
0
VERTEX
8
Layer 1
10
67.944492
20
22.375496
70
0
0
VERTEX
8
Layer 1
10
68.302231
20
22.352896
70
0
0
VERTEX
8
Layer 1
10
68.322626
20
22.680869
70
0
0
VERTEX
8
Layer 1
10
67.909765
20
23.283348
70
0
0
VERTEX
8
Layer 1
10
67.498007
20
23.835666
70
0
0
VERTEX
8
Layer 1
10
67.473202
20
24.156474
70
0
0
VERTEX
8
Layer 1
10
67.825429
20
24.225927
70
0
0
VERTEX
8
Layer 1
10
68.544765
20
24.024182
70
0
0
VERTEX
8
Layer 1
10
69.259141
20
23.870393
70
0
0
VERTEX
8
Layer 1
10
69.656016
20
23.984494
70
0
0
VERTEX
8
Layer 1
10
69.656016
20
24.277190
70
0
0
VERTEX
8
Layer 1
10
69.179766
20
24.659182
70
0
0
VERTEX
8
Layer 1
10
68.374440
20
24.971170
70
0
0
VERTEX
8
Layer 1
10
67.684869
20
25.011960
70
0
0
VERTEX
8
Layer 1
10
67.160663
20
24.788167
70
0
0
VERTEX
8
Layer 1
10
66.851431
20
24.306404
70
0
0
VERTEX
8
Layer 1
10
66.851431
20
24.306404
70
0
0
SEQEND
8
Layer 1
 0 
ENDSEC
 0 
EOF