999
"DXF R12 Output" (www.mydxf.blogspot.com)
 0 
SECTION
 2 
HEADER
 9 
$ACADVER
 1 
AC1009
 9 
$EXTMIN
 10 
 0 
 20 
 0 
 9 
$EXTMAX
 10 
 8.5 
 20 
 11 
 0 
ENDSEC
 0 
SECTION
 2 
ENTITIES
0
POLYLINE
8
Layer 1
62
7
70
0
10
0.000000
20
0.000000
66
1
0
VERTEX
8
Layer 1
10
228.776533
20
177.024000
70
0
0
VERTEX
8
Layer 1
10
224.101122
20
173.405270
70
0
0
VERTEX
8
Layer 1
10
220.186389
20
170.193336
70
0
0
VERTEX
8
Layer 1
10
216.800822
20
167.186455
70
0
0
VERTEX
8
Layer 1
10
213.712912
20
164.182881
70
0
0
VERTEX
8
Layer 1
10
209.101994
20
159.155795
70
0
0
VERTEX
8
Layer 1
10
207.122923
20
156.694341
70
0
0
VERTEX
8
Layer 1
10
205.321206
20
154.208083
70
0
0
VERTEX
8
Layer 1
10
203.666663
20
151.652372
70
0
0
VERTEX
8
Layer 1
10
202.129116
20
148.982559
70
0
0
VERTEX
8
Layer 1
10
199.284292
20
143.122035
70
0
0
VERTEX
8
Layer 1
10
197.414569
20
139.100365
70
0
0
VERTEX
8
Layer 1
10
196.254811
20
139.938213
70
0
0
VERTEX
8
Layer 1
10
193.745678
20
142.204812
70
0
0
VERTEX
8
Layer 1
10
190.373340
20
145.275634
70
0
0
VERTEX
8
Layer 1
10
187.139910
20
147.853670
70
0
0
VERTEX
8
Layer 1
10
183.972625
20
149.988528
70
0
0
VERTEX
8
Layer 1
10
180.798725
20
151.729818
70
0
0
VERTEX
8
Layer 1
10
177.507968
20
153.136520
70
0
0
VERTEX
8
Layer 1
10
174.210596
20
154.119889
70
0
0
VERTEX
8
Layer 1
10
170.608953
20
154.746070
70
0
0
VERTEX
8
Layer 1
10
166.405383
20
155.081209
70
0
0
VERTEX
8
Layer 1
10
161.537046
20
155.328153
70
0
0
VERTEX
8
Layer 1
10
161.748713
20
152.012040
70
0
0
VERTEX
8
Layer 1
10
162.167637
20
148.726795
70
0
0
VERTEX
8
Layer 1
10
162.983436
20
145.388633
70
0
0
VERTEX
8
Layer 1
10
164.169652
20
142.090159
70
0
0
VERTEX
8
Layer 1
10
165.699827
20
138.923976
70
0
0
VERTEX
8
Layer 1
10
165.549276
20
138.691915
70
0
0
VERTEX
8
Layer 1
10
165.017973
20
138.324254
70
0
0
VERTEX
8
Layer 1
10
163.287707
20
137.407031
70
0
0
VERTEX
8
Layer 1
10
161.458222
20
136.622100
70
0
0
VERTEX
8
Layer 1
10
160.478712
20
136.419253
70
0
0
VERTEX
8
Layer 1
10
143.086757
20
159.808434
70
0
0
VERTEX
8
Layer 1
10
138.425677
20
165.916454
70
0
0
VERTEX
8
Layer 1
10
133.288348
20
172.371741
70
0
0
VERTEX
8
Layer 1
10
129.037373
20
177.484265
70
0
0
VERTEX
8
Layer 1
10
127.670083
20
179.008859
70
0
0
VERTEX
8
Layer 1
10
127.035358
20
179.564002
70
0
0
VERTEX
8
Layer 1
10
126.508396
20
179.263589
70
0
0
VERTEX
8
Layer 1
10
125.756538
20
178.245494
70
0
0
VERTEX
8
Layer 1
10
123.154800
20
173.355109
70
0
0
VERTEX
8
Layer 1
10
119.611035
20
165.726285
70
0
0
VERTEX
8
Layer 1
10
118.182077
20
162.195473
70
0
0
VERTEX
8
Layer 1
10
116.950317
20
158.758919
70
0
0
VERTEX
8
Layer 1
10
115.892189
20
155.345517
70
0
0
VERTEX
8
Layer 1
10
114.984131
20
151.884158
70
0
0
VERTEX
8
Layer 1
10
113.523960
20
144.533147
70
0
0
VERTEX
8
Layer 1
10
113.172009
20
141.640574
70
0
0
VERTEX
8
Layer 1
10
112.911009
20
137.962105
70
0
0
VERTEX
8
Layer 1
10
112.668474
20
129.350463
70
0
0
VERTEX
8
Layer 1
10
112.809585
20
120.904186
70
0
0
VERTEX
8
Layer 1
10
113.028142
20
117.432424
70
0
0
VERTEX
8
Layer 1
10
113.347571
20
114.829239
70
0
0
VERTEX
8
Layer 1
10
114.726713
20
108.749331
70
0
0
VERTEX
8
Layer 1
10
115.581235
20
105.982642
70
0
0
VERTEX
8
Layer 1
10
116.549032
20
103.390412
70
0
0
VERTEX
8
Layer 1
10
117.632584
20
100.966855
70
0
0
VERTEX
8
Layer 1
10
118.834372
20
98.706182
70
0
0
VERTEX
8
Layer 1
10
120.156876
20
96.602605
70
0
0
VERTEX
8
Layer 1
10
121.602577
20
94.650337
70
0
0
VERTEX
8
Layer 1
10
122.802022
20
93.133392
70
0
0
VERTEX
8
Layer 1
10
121.285076
20
93.133392
70
0
0
VERTEX
8
Layer 1
10
119.028400
20
93.252455
70
0
0
VERTEX
8
Layer 1
10
116.302087
20
93.583184
70
0
0
VERTEX
8
Layer 1
10
110.525347
20
94.720893
70
0
0
VERTEX
8
Layer 1
10
107.870693
20
95.298567
70
0
0
VERTEX
8
Layer 1
10
107.171752
20
95.341011
70
0
0
VERTEX
8
Layer 1
10
106.856456
20
95.214782
70
0
0
VERTEX
8
Layer 1
10
106.759993
20
94.510880
70
0
0
VERTEX
8
Layer 1
10
106.984338
20
93.367107
70
0
0
VERTEX
8
Layer 1
10
107.506339
20
91.885991
70
0
0
VERTEX
8
Layer 1
10
108.302846
20
90.170057
70
0
0
VERTEX
8
Layer 1
10
109.821445
20
87.457525
70
0
0
VERTEX
8
Layer 1
10
111.376424
20
85.297311
70
0
0
VERTEX
8
Layer 1
10
113.229060
20
83.368607
70
0
0
VERTEX
8
Layer 1
10
115.640628
20
81.350607
70
0
0
VERTEX
8
Layer 1
10
119.238964
20
78.563661
70
0
0
VERTEX
8
Layer 1
10
118.568686
20
77.470049
70
0
0
VERTEX
8
Layer 1
10
117.169149
20
74.958159
70
0
0
VERTEX
8
Layer 1
10
116.024274
20
72.323900
70
0
0
VERTEX
8
Layer 1
10
115.031535
20
69.299380
70
0
0
VERTEX
8
Layer 1
10
114.088405
20
65.616708
70
0
0
VERTEX
8
Layer 1
10
113.546009
20
62.745977
70
0
0
VERTEX
8
Layer 1
10
113.527819
20
62.020026
70
0
0
VERTEX
8
Layer 1
10
113.665072
20
61.700872
70
0
0
VERTEX
8
Layer 1
10
115.448254
20
61.295729
70
0
0
VERTEX
8
Layer 1
10
118.723026
20
60.973268
70
0
0
VERTEX
8
Layer 1
10
122.440976
20
60.802942
70
0
0
VERTEX
8
Layer 1
10
125.553690
20
60.854205
70
0
0
VERTEX
8
Layer 1
10
129.394561
20
61.123749
70
0
0
VERTEX
8
Layer 1
10
131.912514
20
60.999726
70
0
0
VERTEX
8
Layer 1
10
134.284946
20
60.273775
70
0
0
VERTEX
8
Layer 1
10
137.689253
20
58.737537
70
0
0
VERTEX
8
Layer 1
10
142.875090
20
56.303369
70
0
0
VERTEX
8
Layer 1
10
142.875090
20
55.033368
70
0
0
VERTEX
8
Layer 1
10
143.082347
20
53.723680
70
0
0
VERTEX
8
Layer 1
10
143.580646
20
52.281700
70
0
0
VERTEX
8
Layer 1
10
144.632917
20
50.724515
70
0
0
VERTEX
8
Layer 1
10
146.521933
20
48.555482
70
0
0
VERTEX
8
Layer 1
10
148.854126
20
46.194625
70
0
0
VERTEX
8
Layer 1
10
151.235929
20
44.061972
70
0
0
VERTEX
8
Layer 1
10
152.717596
20
42.827249
70
0
0
VERTEX
8
Layer 1
10
151.271206
20
41.275026
70
0
0
VERTEX
8
Layer 1
10
148.431895
20
38.019547
70
0
0
VERTEX
8
Layer 1
10
146.442558
20
35.471828
70
0
0
VERTEX
8
Layer 1
10
145.332960
20
33.664943
70
0
0
VERTEX
8
Layer 1
10
145.117366
20
33.049649
70
0
0
VERTEX
8
Layer 1
10
145.132869
20
32.631965
70
0
0
VERTEX
8
Layer 1
10
145.359970
20
32.321562
70
0
0
VERTEX
8
Layer 1
10
145.792123
20
32.053740
70
0
0
VERTEX
8
Layer 1
10
147.205440
20
31.657416
70
0
0
VERTEX
8
Layer 1
10
149.240528
20
31.466144
70
0
0
VERTEX
8
Layer 1
10
151.765096
20
31.503075
70
0
0
VERTEX
8
Layer 1
10
155.151764
20
31.679464
70
0
0
VERTEX
8
Layer 1
10
154.269819
20
29.703908
70
0
0
VERTEX
8
Layer 1
10
153.259992
20
26.789079
70
0
0
VERTEX
8
Layer 1
10
152.012040
20
22.577792
70
0
0
VERTEX
8
Layer 1
10
150.424539
20
16.862788
70
0
0
VERTEX
8
Layer 1
10
150.389261
20
16.540327
70
0
0
VERTEX
8
Layer 1
10
150.539192
20
16.346851
70
0
0
VERTEX
8
Layer 1
10
151.659262
20
16.227788
70
0
0
VERTEX
8
Layer 1
10
152.805791
20
16.360080
70
0
0
VERTEX
8
Layer 1
10
153.038404
20
16.555210
70
0
0
VERTEX
8
Layer 1
10
153.105652
20
16.862788
70
0
0
VERTEX
8
Layer 1
10
153.557649
20
19.048358
70
0
0
VERTEX
8
Layer 1
10
154.631417
20
22.864424
70
0
0
VERTEX
8
Layer 1
10
155.903623
20
26.898771
70
0
0
VERTEX
8
Layer 1
10
156.950932
20
29.739185
70
0
0
VERTEX
8
Layer 1
10
157.905086
20
32.251626
70
0
0
VERTEX
8
Layer 1
10
157.968545
20
33.049373
70
0
0
VERTEX
8
Layer 1
10
157.704995
20
33.593285
70
0
0
VERTEX
8
Layer 1
10
157.075989
20
33.922223
70
0
0
VERTEX
8
Layer 1
10
156.043080
20
34.075048
70
0
0
VERTEX
8
Layer 1
10
152.611763
20
34.007799
70
0
0
VERTEX
8
Layer 1
10
149.613150
20
33.910785
70
0
0
VERTEX
8
Layer 1
10
148.519538
20
34.078355
70
0
0
VERTEX
8
Layer 1
10
148.995788
20
34.872657
70
0
0
VERTEX
8
Layer 1
10
150.265789
20
36.437558
70
0
0
VERTEX
8
Layer 1
10
154.234542
20
40.781137
70
0
0
VERTEX
8
Layer 1
10
156.315932
20
42.933083
70
0
0
VERTEX
8
Layer 1
10
153.740652
20
45.155584
70
0
0
VERTEX
8
Layer 1
10
148.810580
20
49.662323
70
0
0
VERTEX
8
Layer 1
10
147.350961
20
51.227775
70
0
0
VERTEX
8
Layer 1
10
146.367592
20
52.528644
70
0
0
VERTEX
8
Layer 1
10
145.681880
20
53.766674
70
0
0
VERTEX
8
Layer 1
10
145.379814
20
54.680590
70
0
0
VERTEX
8
Layer 1
10
145.474623
20
55.197630
70
0
0
VERTEX
8
Layer 1
10
145.979536
20
55.245035
70
0
0
VERTEX
8
Layer 1
10
149.156743
20
54.394509
70
0
0
VERTEX
8
Layer 1
10
152.426554
20
53.679582
70
0
0
VERTEX
8
Layer 1
10
159.773156
20
52.563922
70
0
0
VERTEX
8
Layer 1
10
161.684221
20
52.385328
70
0
0
VERTEX
8
Layer 1
10
162.758540
20
52.484547
70
0
0
VERTEX
8
Layer 1
10
163.055301
20
52.663141
70
0
0
VERTEX
8
Layer 1
10
163.230932
20
52.940953
70
0
0
VERTEX
8
Layer 1
10
163.336214
20
53.833923
70
0
0
VERTEX
8
Layer 1
10
163.238098
20
54.258910
70
0
0
VERTEX
8
Layer 1
10
162.789408
20
54.535069
70
0
0
VERTEX
8
Layer 1
10
159.914267
20
54.998090
70
0
0
VERTEX
8
Layer 1
10
153.613873
20
55.952796
70
0
0
VERTEX
8
Layer 1
10
148.299052
20
57.211772
70
0
0
VERTEX
8
Layer 1
10
142.997460
20
59.066062
70
0
0
VERTEX
8
Layer 1
10
136.736753
20
61.806706
70
0
0
VERTEX
8
Layer 1
10
134.138874
20
62.982449
70
0
0
VERTEX
8
Layer 1
10
132.516646
20
63.592644
70
0
0
VERTEX
8
Layer 1
10
131.364054
20
63.786121
70
0
0
VERTEX
8
Layer 1
10
130.175082
20
63.711707
70
0
0
VERTEX
8
Layer 1
10
124.014696
20
63.226637
70
0
0
VERTEX
8
Layer 1
10
119.415353
20
63.323651
70
0
0
VERTEX
8
Layer 1
10
116.346184
20
63.570596
70
0
0
VERTEX
8
Layer 1
10
116.557851
20
65.263930
70
0
0
VERTEX
8
Layer 1
10
117.092530
20
67.729517
70
0
0
VERTEX
8
Layer 1
10
118.030699
20
70.568829
70
0
0
VERTEX
8
Layer 1
10
119.246681
20
73.454443
70
0
0
VERTEX
8
Layer 1
10
120.614798
20
76.058937
70
0
0
VERTEX
8
Layer 1
10
122.413966
20
79.198661
70
0
0
VERTEX
8
Layer 1
10
119.380075
20
81.491718
70
0
0
VERTEX
8
Layer 1
10
116.675811
20
83.587440
70
0
0
VERTEX
8
Layer 1
10
114.494100
20
85.583943
70
0
0
VERTEX
8
Layer 1
10
112.762180
20
87.553987
70
0
0
VERTEX
8
Layer 1
10
111.407292
20
89.570334
70
0
0
VERTEX
8
Layer 1
10
110.207847
20
91.969225
70
0
0
VERTEX
8
Layer 1
10
113.453405
20
91.545891
70
0
0
VERTEX
8
Layer 1
10
117.095838
20
91.078460
70
0
0
VERTEX
8
Layer 1
10
121.426188
20
90.769779
70
0
0
VERTEX
8
Layer 1
10
125.487544
20
90.694814
70
0
0
VERTEX
8
Layer 1
10
126.223417
20
90.834272
70
0
0
VERTEX
8
Layer 1
10
126.506191
20
91.122557
70
0
0
VERTEX
8
Layer 1
10
126.415791
20
91.629676
70
0
0
VERTEX
8
Layer 1
10
125.941746
20
92.560128
70
0
0
VERTEX
8
Layer 1
10
123.895634
20
95.638116
70
0
0
VERTEX
8
Layer 1
10
121.647294
20
98.999911
70
0
0
VERTEX
8
Layer 1
10
119.799550
20
102.238923
70
0
0
VERTEX
8
Layer 1
10
118.316436
20
105.483723
70
0
0
VERTEX
8
Layer 1
10
117.161984
20
108.862881
70
0
0
VERTEX
8
Layer 1
10
116.300227
20
112.504969
70
0
0
VERTEX
8
Layer 1
10
115.695199
20
116.538559
70
0
0
VERTEX
8
Layer 1
10
115.310933
20
121.092220
70
0
0
VERTEX
8
Layer 1
10
115.111461
20
126.294524
70
0
0
VERTEX
8
Layer 1
10
115.077493
20
131.755968
70
0
0
VERTEX
8
Layer 1
10
115.249817
20
136.820538
70
0
0
VERTEX
8
Layer 1
10
115.642902
20
141.574221
70
0
0
VERTEX
8
Layer 1
10
116.271219
20
146.103009
70
0
0
VERTEX
8
Layer 1
10
117.149237
20
150.492890
70
0
0
VERTEX
8
Layer 1
10
118.291424
20
154.829854
70
0
0
VERTEX
8
Layer 1
10
119.712252
20
159.199892
70
0
0
VERTEX
8
Layer 1
10
121.426188
20
163.688992
70
0
0
VERTEX
8
Layer 1
10
124.720252
20
170.982677
70
0
0
VERTEX
8
Layer 1
10
126.342480
20
174.295483
70
0
0
VERTEX
8
Layer 1
10
127.141191
20
175.683444
70
0
0
VERTEX
8
Layer 1
10
130.862999
20
171.445698
70
0
0
VERTEX
8
Layer 1
10
136.701475
20
164.218159
70
0
0
VERTEX
8
Layer 1
10
140.890714
20
158.728051
70
0
0
VERTEX
8
Layer 1
10
146.402870
20
151.200651
70
0
0
VERTEX
8
Layer 1
10
154.622597
20
140.123422
70
0
0
VERTEX
8
Layer 1
10
156.840138
20
137.201979
70
0
0
VERTEX
8
Layer 1
10
157.916662
20
135.616683
70
0
0
VERTEX
8
Layer 1
10
158.139904
20
134.864825
70
0
0
VERTEX
8
Layer 1
10
157.797599
20
134.443696
70
0
0
VERTEX
8
Layer 1
10
155.151764
20
132.432861
70
0
0
VERTEX
8
Layer 1
10
153.845383
20
131.306728
70
0
0
VERTEX
8
Layer 1
10
152.955721
20
130.276506
70
0
0
VERTEX
8
Layer 1
10
152.502622
20
129.371961
70
0
0
VERTEX
8
Layer 1
10
152.505929
20
128.622859
70
0
0
VERTEX
8
Layer 1
10
153.043916
20
128.133379
70
0
0
VERTEX
8
Layer 1
10
154.058153
20
127.670358
70
0
0
VERTEX
8
Layer 1
10
156.789977
20
127.325297
70
0
0
VERTEX
8
Layer 1
10
161.545866
20
127.105913
70
0
0
VERTEX
8
Layer 1
10
166.976442
20
127.045280
70
0
0
VERTEX
8
Layer 1
10
171.732330
20
127.176469
70
0
0
VERTEX
8
Layer 1
10
175.683444
20
127.423414
70
0
0
VERTEX
8
Layer 1
10
175.683444
20
128.587581
70
0
0
VERTEX
8
Layer 1
10
175.683444
20
129.751748
70
0
0
VERTEX
8
Layer 1
10
166.617049
20
129.575359
70
0
0
VERTEX
8
Layer 1
10
159.870170
20
129.540082
70
0
0
VERTEX
8
Layer 1
10
156.668710
20
129.716471
70
0
0
VERTEX
8
Layer 1
10
156.302151
20
129.959557
70
0
0
VERTEX
8
Layer 1
10
156.487911
20
130.338242
70
0
0
VERTEX
8
Layer 1
10
159.243989
20
132.256472
70
0
0
VERTEX
8
Layer 1
10
162.608609
20
134.258487
70
0
0
VERTEX
8
Layer 1
10
165.946771
20
135.995919
70
0
0
VERTEX
8
Layer 1
10
169.262884
20
137.548142
70
0
0
VERTEX
8
Layer 1
10
167.675383
20
140.582033
70
0
0
VERTEX
8
Layer 1
10
166.334827
20
143.332048
70
0
0
VERTEX
8
Layer 1
10
165.391146
20
145.728182
70
0
0
VERTEX
8
Layer 1
10
164.778194
20
147.958952
70
0
0
VERTEX
8
Layer 1
10
164.429826
20
150.212872
70
0
0
VERTEX
8
Layer 1
10
164.182881
20
152.752874
70
0
0
VERTEX
8
Layer 1
10
165.629271
20
152.752874
70
0
0
VERTEX
8
Layer 1
10
167.744285
20
152.633260
70
0
0
VERTEX
8
Layer 1
10
170.352086
20
152.325131
70
0
0
VERTEX
8
Layer 1
10
174.942610
20
151.447595
70
0
0
VERTEX
8
Layer 1
10
176.994855
20
150.770220
70
0
0
VERTEX
8
Layer 1
10
179.057435
20
149.898128
70
0
0
VERTEX
8
Layer 1
10
181.140685
20
148.825118
70
0
0
VERTEX
8
Layer 1
10
183.254942
20
147.544989
70
0
0
VERTEX
8
Layer 1
10
187.617813
20
144.338567
70
0
0
VERTEX
8
Layer 1
10
192.228732
20
140.229255
70
0
0
VERTEX
8
Layer 1
10
195.076312
20
137.587830
70
0
0
VERTEX
8
Layer 1
10
196.938318
20
136.163489
70
0
0
VERTEX
8
Layer 1
10
197.592749
20
135.853981
70
0
0
VERTEX
8
Layer 1
10
198.112408
20
135.784252
70
0
0
VERTEX
8
Layer 1
10
198.534501
20
135.932805
70
0
0
VERTEX
8
Layer 1
10
198.896236
20
136.278141
70
0
0
VERTEX
8
Layer 1
10
200.730682
20
140.229255
70
0
0
VERTEX
8
Layer 1
10
202.587383
20
144.352899
70
0
0
VERTEX
8
Layer 1
10
204.518085
20
148.122663
70
0
0
VERTEX
8
Layer 1
10
206.580251
20
151.614614
70
0
0
VERTEX
8
Layer 1
10
208.831347
20
154.904820
70
0
0
VERTEX
8
Layer 1
10
211.328836
20
158.069349
70
0
0
VERTEX
8
Layer 1
10
214.130183
20
161.184268
70
0
0
VERTEX
8
Layer 1
10
217.292851
20
164.325646
70
0
0
VERTEX
8
Layer 1
10
220.874306
20
167.569550
70
0
0
VERTEX
8
Layer 1
10
224.527763
20
170.627143
70
0
0
VERTEX
8
Layer 1
10
228.194449
20
173.482991
70
0
0
VERTEX
8
Layer 1
10
231.093843
20
175.551703
70
0
0
VERTEX
8
Layer 1
10
232.011893
20
176.107949
70
0
0
VERTEX
8
Layer 1
10
232.445424
20
176.247889
70
0
0
VERTEX
8
Layer 1
10
233.133341
20
175.171916
70
0
0
VERTEX
8
Layer 1
10
234.244592
20
172.931776
70
0
0
VERTEX
8
Layer 1
10
236.395987
20
167.932250
70
0
0
VERTEX
8
Layer 1
10
238.094282
20
162.992255
70
0
0
VERTEX
8
Layer 1
10
239.428775
20
157.800907
70
0
0
VERTEX
8
Layer 1
10
240.488763
20
152.047318
70
0
0
VERTEX
8
Layer 1
10
240.789726
20
149.312324
70
0
0
VERTEX
8
Layer 1
10
241.004700
20
145.711646
70
0
0
VERTEX
8
Layer 1
10
241.176680
20
137.027795
70
0
0
VERTEX
8
Layer 1
10
241.004700
20
128.224881
70
0
0
VERTEX
8
Layer 1
10
240.789726
20
124.475375
70
0
0
VERTEX
8
Layer 1
10
240.488763
20
121.532021
70
0
0
VERTEX
8
Layer 1
10
239.760262
20
117.065865
70
0
0
VERTEX
8
Layer 1
10
238.913940
20
113.226855
70
0
0
VERTEX
8
Layer 1
10
237.894811
20
109.907917
70
0
0
VERTEX
8
Layer 1
10
236.647892
20
107.001977
70
0
0
VERTEX
8
Layer 1
10
235.118200
20
104.401962
70
0
0
VERTEX
8
Layer 1
10
233.250750
20
102.000798
70
0
0
VERTEX
8
Layer 1
10
230.990559
20
99.691411
70
0
0
VERTEX
8
Layer 1
10
228.282644
20
97.366728
70
0
0
VERTEX
8
Layer 1
10
225.425142
20
95.073671
70
0
0
VERTEX
8
Layer 1
10
232.798202
20
94.897282
70
0
0
VERTEX
8
Layer 1
10
238.072233
20
94.703254
70
0
0
VERTEX
8
Layer 1
10
240.382929
20
94.509226
70
0
0
VERTEX
8
Layer 1
10
240.326016
20
94.023467
70
0
0
VERTEX
8
Layer 1
10
239.729187
20
93.070553
70
0
0
VERTEX
8
Layer 1
10
237.216747
20
90.090682
70
0
0
VERTEX
8
Layer 1
10
233.447534
20
86.224455
70
0
0
VERTEX
8
Layer 1
10
229.023478
20
82.126718
70
0
0
VERTEX
8
Layer 1
10
227.153754
20
80.468662
70
0
0
VERTEX
8
Layer 1
10
229.870145
20
77.011437
70
0
0
VERTEX
8
Layer 1
10
232.219426
20
73.884942
70
0
0
VERTEX
8
Layer 1
10
234.429800
20
70.705531
70
0
0
VERTEX
8
Layer 1
10
236.071321
20
68.121432
70
0
0
VERTEX
8
Layer 1
10
236.714038
20
66.780875
70
0
0
VERTEX
8
Layer 1
10
236.446147
20
66.422585
70
0
0
VERTEX
8
Layer 1
10
235.549871
20
66.057681
70
0
0
VERTEX
8
Layer 1
10
231.316535
20
65.122819
70
0
0
VERTEX
8
Layer 1
10
228.025777
20
64.571052
70
0
0
VERTEX
8
Layer 1
10
225.257572
20
64.333478
70
0
0
VERTEX
8
Layer 1
10
222.714264
20
64.393561
70
0
0
VERTEX
8
Layer 1
10
220.098194
20
64.734763
70
0
0
VERTEX
8
Layer 1
10
216.676248
20
65.299208
70
0
0
VERTEX
8
Layer 1
10
212.513467
20
63.182540
70
0
0
VERTEX
8
Layer 1
10
207.975860
20
61.180525
70
0
0
VERTEX
8
Layer 1
10
202.988461
20
59.337260
70
0
0
VERTEX
8
Layer 1
10
197.061791
20
57.255869
70
0
0
VERTEX
8
Layer 1
10
196.832485
20
57.040344
70
0
0
VERTEX
8
Layer 1
10
196.867763
20
56.695834
70
0
0
VERTEX
8
Layer 1
10
197.943736
20
55.209757
70
0
0
VERTEX
8
Layer 1
10
200.876272
20
51.561330
70
0
0
VERTEX
8
Layer 1
10
203.445419
20
48.101832
70
0
0
VERTEX
8
Layer 1
10
205.674742
20
44.788681
70
0
0
VERTEX
8
Layer 1
10
207.587804
20
41.579297
70
0
0
VERTEX
8
Layer 1
10
209.208172
20
38.431098
70
0
0
VERTEX
8
Layer 1
10
210.559408
20
35.301502
70
0
0
VERTEX
8
Layer 1
10
211.665077
20
32.147929
70
0
0
VERTEX
8
Layer 1
10
212.548745
20
28.927796
70
0
0
VERTEX
8
Layer 1
10
213.664405
20
22.344077
70
0
0
VERTEX
8
Layer 1
10
214.489024
20
16.368899
70
0
0
VERTEX
8
Layer 1
10
215.723747
20
16.227788
70
0
0
VERTEX
8
Layer 1
10
216.440327
20
16.250939
70
0
0
VERTEX
8
Layer 1
10
216.799720
20
16.386538
70
0
0
VERTEX
8
Layer 1
10
216.894529
20
16.733804
70
0
0
VERTEX
8
Layer 1
10
216.817359
20
17.391955
70
0
0
VERTEX
8
Layer 1
10
216.252914
20
21.872236
70
0
0
VERTEX
8
Layer 1
10
215.614469
20
26.112187
70
0
0
VERTEX
8
Layer 1
10
214.677540
20
30.259533
70
0
0
VERTEX
8
Layer 1
10
213.441301
20
34.314275
70
0
0
VERTEX
8
Layer 1
10
211.904925
20
38.276413
70
0
0
VERTEX
8
Layer 1
10
210.067586
20
42.145947
70
0
0
VERTEX
8
Layer 1
10
207.928456
20
45.922876
70
0
0
VERTEX
8
Layer 1
10
205.486708
20
49.607201
70
0
0
VERTEX
8
Layer 1
10
202.741517
20
53.198922
70
0
0
VERTEX
8
Layer 1
10
200.765960
20
55.880035
70
0
0
VERTEX
8
Layer 1
10
205.316796
20
57.502814
70
0
0
VERTEX
8
Layer 1
10
209.519264
20
59.103544
70
0
0
VERTEX
8
Layer 1
10
213.430690
20
60.889483
70
0
0
VERTEX
8
Layer 1
10
217.099581
20
62.829762
70
0
0
VERTEX
8
Layer 1
10
219.075138
20
62.371150
70
0
0
VERTEX
8
Layer 1
10
221.611832
20
62.051997
70
0
0
VERTEX
8
Layer 1
10
224.790142
20
61.987504
70
0
0
VERTEX
8
Layer 1
10
228.153659
20
62.167752
70
0
0
VERTEX
8
Layer 1
10
231.245979
20
62.582817
70
0
0
VERTEX
8
Layer 1
10
236.656712
20
63.808721
70
0
0
VERTEX
8
Layer 1
10
240.135985
20
64.875874
70
0
0
VERTEX
8
Layer 1
10
240.169264
20
65.262965
70
0
0
VERTEX
8
Layer 1
10
239.853211
20
66.127134
70
0
0
VERTEX
8
Layer 1
10
238.376504
20
68.932821
70
0
0
VERTEX
8
Layer 1
10
236.112662
20
72.585176
70
0
0
VERTEX
8
Layer 1
10
233.468480
20
76.376437
70
0
0
VERTEX
8
Layer 1
10
230.681534
20
80.115884
70
0
0
VERTEX
8
Layer 1
10
235.761537
20
85.125331
70
0
0
VERTEX
8
Layer 1
10
239.739109
20
89.279292
70
0
0
VERTEX
8
Layer 1
10
242.182097
20
92.216169
70
0
0
VERTEX
8
Layer 1
10
243.019394
20
93.744139
70
0
0
VERTEX
8
Layer 1
10
243.456508
20
95.047213
70
0
0
VERTEX
8
Layer 1
10
243.476903
20
96.046015
70
0
0
VERTEX
8
Layer 1
10
243.325663
20
96.406510
70
0
0
VERTEX
8
Layer 1
10
243.064042
20
96.661172
70
0
0
VERTEX
8
Layer 1
10
241.488668
20
96.961585
70
0
0
VERTEX
8
Layer 1
10
238.557303
20
97.185929
70
0
0
VERTEX
8
Layer 1
10
235.453959
20
97.271368
70
0
0
VERTEX
8
Layer 1
10
233.362647
20
97.155061
70
0
0
VERTEX
8
Layer 1
10
231.951535
20
96.908117
70
0
0
VERTEX
8
Layer 1
10
234.244592
20
99.377563
70
0
0
VERTEX
8
Layer 1
10
235.953085
20
101.369518
70
0
0
VERTEX
8
Layer 1
10
237.441643
20
103.466480
70
0
0
VERTEX
8
Layer 1
10
238.731763
20
105.723846
70
0
0
VERTEX
8
Layer 1
10
239.844943
20
108.197013
70
0
0
VERTEX
8
Layer 1
10
240.802680
20
110.941377
70
0
0
VERTEX
8
Layer 1
10
241.626472
20
114.012337
70
0
0
VERTEX
8
Layer 1
10
242.337815
20
117.465290
70
0
0
VERTEX
8
Layer 1
10
242.958209
20
121.355632
70
0
0
VERTEX
8
Layer 1
10
243.247597
20
124.241453
70
0
0
VERTEX
8
Layer 1
10
243.454303
20
127.952029
70
0
0
VERTEX
8
Layer 1
10
243.619667
20
136.741163
70
0
0
VERTEX
8
Layer 1
10
243.454303
20
145.510452
70
0
0
VERTEX
8
Layer 1
10
243.247597
20
149.196224
70
0
0
VERTEX
8
Layer 1
10
242.958209
20
152.047318
70
0
0
VERTEX
8
Layer 1
10
242.274150
20
156.089933
70
0
0
VERTEX
8
Layer 1
10
241.375117
20
160.205309
70
0
0
VERTEX
8
Layer 1
10
240.323949
20
164.122247
70
0
0
VERTEX
8
Layer 1
10
239.183484
20
167.569550
70
0
0
VERTEX
8
Layer 1
10
237.831903
20
170.854795
70
0
0
VERTEX
8
Layer 1
10
235.990843
20
174.907332
70
0
0
VERTEX
8
Layer 1
10
234.282075
20
178.404244
70
0
0
VERTEX
8
Layer 1
10
233.327369
20
180.022613
70
0
0
VERTEX
8
Layer 1
10
231.858931
20
179.211224
70
0
0
VERTEX
8
Layer 1
10
228.776533
20
177.024000
70
0
0
VERTEX
8
Layer 1
10
228.776533
20
177.024000
70
0
0
SEQEND
8
Layer 1
0
POLYLINE
8
Layer 1
62
7
70
0
10
0.000000
20
0.000000
66
1
0
VERTEX
8
Layer 1
10
197.485124
20
106.997567
70
0
0
VERTEX
8
Layer 1
10
186.972340
20
106.891734
70
0
0
VERTEX
8
Layer 1
10
186.972340
20
99.024785
70
0
0
VERTEX
8
Layer 1
10
187.184007
20
89.852557
70
0
0
VERTEX
8
Layer 1
10
187.725852
20
88.108510
70
0
0
VERTEX
8
Layer 1
10
188.687723
20
86.430610
70
0
0
VERTEX
8
Layer 1
10
189.947251
20
84.990835
70
0
0
VERTEX
8
Layer 1
10
191.382065
20
83.961164
70
0
0
VERTEX
8
Layer 1
10
192.745841
20
83.412153
70
0
0
VERTEX
8
Layer 1
10
194.182792
20
83.107882
70
0
0
VERTEX
8
Layer 1
10
195.640412
20
83.038429
70
0
0
VERTEX
8
Layer 1
10
197.066201
20
83.193872
70
0
0
VERTEX
8
Layer 1
10
198.407653
20
83.564289
70
0
0
VERTEX
8
Layer 1
10
199.612265
20
84.139758
70
0
0
VERTEX
8
Layer 1
10
200.627536
20
84.910357
70
0
0
VERTEX
8
Layer 1
10
201.400960
20
85.866165
70
0
0
VERTEX
8
Layer 1
10
202.389290
20
87.791010
70
0
0
VERTEX
8
Layer 1
10
202.984051
20
90.020126
70
0
0
VERTEX
8
Layer 1
10
203.281157
20
93.109139
70
0
0
VERTEX
8
Layer 1
10
203.376517
20
97.613673
70
0
0
VERTEX
8
Layer 1
10
203.376517
20
104.387010
70
0
0
VERTEX
8
Layer 1
10
205.493185
20
104.598677
70
0
0
VERTEX
8
Layer 1
10
207.495200
20
104.730969
70
0
0
VERTEX
8
Layer 1
10
209.338465
20
104.704510
70
0
0
VERTEX
8
Layer 1
10
210.317975
20
104.613009
70
0
0
VERTEX
8
Layer 1
10
210.903918
20
104.395830
70
0
0
VERTEX
8
Layer 1
10
211.298037
20
103.900838
70
0
0
VERTEX
8
Layer 1
10
211.702078
20
102.975898
70
0
0
VERTEX
8
Layer 1
10
212.296150
20
101.126501
70
0
0
VERTEX
8
Layer 1
10
212.776948
20
98.982341
70
0
0
VERTEX
8
Layer 1
10
213.368954
20
94.231414
70
0
0
VERTEX
8
Layer 1
10
213.418563
20
89.566476
70
0
0
VERTEX
8
Layer 1
10
213.221366
20
87.529803
70
0
0
VERTEX
8
Layer 1
10
212.866245
20
85.830887
70
0
0
VERTEX
8
Layer 1
10
212.509057
20
84.433005
70
0
0
VERTEX
8
Layer 1
10
212.442912
20
83.749497
70
0
0
VERTEX
8
Layer 1
10
213.677635
20
83.396719
70
0
0
VERTEX
8
Layer 1
10
214.735969
20
83.185052
70
0
0
VERTEX
8
Layer 1
10
215.370969
20
85.725054
70
0
0
VERTEX
8
Layer 1
10
215.665318
20
87.191839
70
0
0
VERTEX
8
Layer 1
10
215.820761
20
88.728077
70
0
0
VERTEX
8
Layer 1
10
215.794303
20
93.239225
70
0
0
VERTEX
8
Layer 1
10
215.621772
20
96.274770
70
0
0
VERTEX
8
Layer 1
10
215.313643
20
98.764611
70
0
0
VERTEX
8
Layer 1
10
214.787232
20
101.181691
70
0
0
VERTEX
8
Layer 1
10
213.959857
20
103.998954
70
0
0
VERTEX
8
Layer 1
10
213.866702
20
104.447644
70
0
0
VERTEX
8
Layer 1
10
214.114197
20
104.678052
70
0
0
VERTEX
8
Layer 1
10
216.570414
20
104.775066
70
0
0
VERTEX
8
Layer 1
10
219.427916
20
104.775066
70
0
0
VERTEX
8
Layer 1
10
219.427916
20
106.009789
70
0
0
VERTEX
8
Layer 1
10
219.427916
20
107.244512
70
0
0
VERTEX
8
Layer 1
10
213.712912
20
107.173956
70
0
0
VERTEX
8
Layer 1
10
197.485124
20
106.997567
70
0
0
VERTEX
8
Layer 1
10
197.485124
20
106.997567
70
0
0
SEQEND
8
Layer 1
0
POLYLINE
8
Layer 1
62
7
70
0
10
0.000000
20
0.000000
66
1
0
VERTEX
8
Layer 1
10
138.747587
20
105.939233
70
0
0
VERTEX
8
Layer 1
10
130.880638
20
105.833400
70
0
0
VERTEX
8
Layer 1
10
130.880638
20
104.598677
70
0
0
VERTEX
8
Layer 1
10
130.880638
20
103.363954
70
0
0
VERTEX
8
Layer 1
10
133.526473
20
103.363954
70
0
0
VERTEX
8
Layer 1
10
136.172308
20
103.363954
70
0
0
VERTEX
8
Layer 1
10
135.466752
20
101.952842
70
0
0
VERTEX
8
Layer 1
10
134.729777
20
100.130523
70
0
0
VERTEX
8
Layer 1
10
134.174703
20
97.957631
70
0
0
VERTEX
8
Layer 1
10
133.824681
20
95.533385
70
0
0
VERTEX
8
Layer 1
10
133.702862
20
92.957003
70
0
0
VERTEX
8
Layer 1
10
133.770662
20
90.647961
70
0
0
VERTEX
8
Layer 1
10
134.007133
20
88.666341
70
0
0
VERTEX
8
Layer 1
10
134.461886
20
86.731023
70
0
0
VERTEX
8
Layer 1
10
135.184530
20
84.560887
70
0
0
VERTEX
8
Layer 1
10
135.925363
20
82.920469
70
0
0
VERTEX
8
Layer 1
10
136.256093
20
82.705495
70
0
0
VERTEX
8
Layer 1
10
136.666197
20
82.761719
70
0
0
VERTEX
8
Layer 1
10
137.411441
20
83.082526
70
0
0
VERTEX
8
Layer 1
10
137.706892
20
83.634844
70
0
0
VERTEX
8
Layer 1
10
137.579010
20
84.676642
70
0
0
VERTEX
8
Layer 1
10
137.054253
20
86.465888
70
0
0
VERTEX
8
Layer 1
10
136.344287
20
89.182278
70
0
0
VERTEX
8
Layer 1
10
135.925363
20
91.581169
70
0
0
VERTEX
8
Layer 1
10
135.945758
20
93.932655
70
0
0
VERTEX
8
Layer 1
10
136.326648
20
96.634714
70
0
0
VERTEX
8
Layer 1
10
136.991966
20
99.270627
70
0
0
VERTEX
8
Layer 1
10
137.865642
20
101.423675
70
0
0
VERTEX
8
Layer 1
10
138.818143
20
103.187565
70
0
0
VERTEX
8
Layer 1
10
142.839812
20
103.469787
70
0
0
VERTEX
8
Layer 1
10
147.249537
20
103.610899
70
0
0
VERTEX
8
Layer 1
10
147.414351
20
103.343008
70
0
0
VERTEX
8
Layer 1
10
147.483253
20
102.658398
70
0
0
VERTEX
8
Layer 1
10
147.320093
20
99.800896
70
0
0
VERTEX
8
Layer 1
10
147.171402
20
97.097046
70
0
0
VERTEX
8
Layer 1
10
147.221976
20
94.514738
70
0
0
VERTEX
8
Layer 1
10
147.462720
20
92.092835
70
0
0
VERTEX
8
Layer 1
10
147.884538
20
89.870195
70
0
0
VERTEX
8
Layer 1
10
148.478335
20
87.885681
70
0
0
VERTEX
8
Layer 1
10
149.235016
20
86.178153
70
0
0
VERTEX
8
Layer 1
10
150.145486
20
84.786472
70
0
0
VERTEX
8
Layer 1
10
151.200651
20
83.749497
70
0
0
VERTEX
8
Layer 1
10
151.993299
20
83.202691
70
0
0
VERTEX
8
Layer 1
10
152.752874
20
82.894011
70
0
0
VERTEX
8
Layer 1
10
153.750574
20
82.757309
70
0
0
VERTEX
8
Layer 1
10
155.257598
20
82.726441
70
0
0
VERTEX
8
Layer 1
10
157.656488
20
82.871962
70
0
0
VERTEX
8
Layer 1
10
158.382990
20
83.098512
70
0
0
VERTEX
8
Layer 1
10
158.997045
20
83.467275
70
0
0
VERTEX
8
Layer 1
10
160.037946
20
84.401241
70
0
0
VERTEX
8
Layer 1
10
160.894880
20
85.548114
70
0
0
VERTEX
8
Layer 1
10
161.582315
20
86.965358
70
0
0
VERTEX
8
Layer 1
10
162.114720
20
88.710438
70
0
0
VERTEX
8
Layer 1
10
162.506566
20
90.840817
70
0
0
VERTEX
8
Layer 1
10
162.772320
20
93.413961
70
0
0
VERTEX
8
Layer 1
10
162.983436
20
100.118396
70
0
0
VERTEX
8
Layer 1
10
162.983436
20
106.186178
70
0
0
VERTEX
8
Layer 1
10
154.798986
20
106.115622
70
0
0
VERTEX
8
Layer 1
10
138.747587
20
105.939233
70
0
0
VERTEX
8
Layer 1
10
138.747587
20
105.939233
70
0
0
SEQEND
8
Layer 1
0
POLYLINE
8
Layer 1
62
7
70
0
10
0.000000
20
0.000000
66
1
0
VERTEX
8
Layer 1
10
169.756774
20
81.950329
70
0
0
VERTEX
8
Layer 1
10
169.130041
20
81.837330
70
0
0
VERTEX
8
Layer 1
10
168.791044
20
81.654878
70
0
0
VERTEX
8
Layer 1
10
168.670328
20
81.320290
70
0
0
VERTEX
8
Layer 1
10
168.698440
20
80.750884
70
0
0
VERTEX
8
Layer 1
10
168.804273
20
79.692550
70
0
0
VERTEX
8
Layer 1
10
172.755387
20
79.586717
70
0
0
VERTEX
8
Layer 1
10
176.671222
20
79.445606
70
0
0
VERTEX
8
Layer 1
10
176.847611
20
80.398106
70
0
0
VERTEX
8
Layer 1
10
176.909348
20
81.108072
70
0
0
VERTEX
8
Layer 1
10
176.812334
20
81.526996
70
0
0
VERTEX
8
Layer 1
10
175.784316
20
81.751892
70
0
0
VERTEX
8
Layer 1
10
173.721116
20
81.923871
70
0
0
VERTEX
8
Layer 1
10
169.756774
20
81.950329
70
0
0
VERTEX
8
Layer 1
10
169.756774
20
81.950329
70
0
0
SEQEND
8
Layer 1
0
POLYLINE
8
Layer 1
62
7
70
0
10
0.000000
20
0.000000
66
1
0
VERTEX
8
Layer 1
10
214.700691
20
77.822827
70
0
0
VERTEX
8
Layer 1
10
212.019578
20
75.176992
70
0
0
VERTEX
8
Layer 1
10
212.019578
20
77.258382
70
0
0
VERTEX
8
Layer 1
10
211.882877
20
79.004633
70
0
0
VERTEX
8
Layer 1
10
211.677273
20
79.431274
70
0
0
VERTEX
8
Layer 1
10
211.349300
20
79.692550
70
0
0
VERTEX
8
Layer 1
10
210.934786
20
79.824842
70
0
0
VERTEX
8
Layer 1
10
210.414438
20
79.719009
70
0
0
VERTEX
8
Layer 1
10
208.632909
20
78.634216
70
0
0
VERTEX
8
Layer 1
10
205.422629
20
76.482270
70
0
0
VERTEX
8
Layer 1
10
204.655337
20
75.985074
70
0
0
VERTEX
8
Layer 1
10
204.337837
20
75.600325
70
0
0
VERTEX
8
Layer 1
10
204.430441
20
75.162660
70
0
0
VERTEX
8
Layer 1
10
204.893462
20
74.506714
70
0
0
VERTEX
8
Layer 1
10
205.528463
20
73.695324
70
0
0
VERTEX
8
Layer 1
10
207.504020
20
75.141714
70
0
0
VERTEX
8
Layer 1
10
209.691243
20
76.552826
70
0
0
VERTEX
8
Layer 1
10
209.836764
20
76.001610
70
0
0
VERTEX
8
Layer 1
10
209.902910
20
74.683103
70
0
0
VERTEX
8
Layer 1
10
209.986695
20
73.425229
70
0
0
VERTEX
8
Layer 1
10
210.255688
20
72.584074
70
0
0
VERTEX
8
Layer 1
10
210.736348
20
72.113335
70
0
0
VERTEX
8
Layer 1
10
211.455133
20
71.966712
70
0
0
VERTEX
8
Layer 1
10
212.858528
20
72.979846
70
0
0
VERTEX
8
Layer 1
10
215.326872
20
75.256367
70
0
0
VERTEX
8
Layer 1
10
217.676153
20
77.651950
70
0
0
VERTEX
8
Layer 1
10
218.722360
20
79.022272
70
0
0
VERTEX
8
Layer 1
10
218.052082
20
79.868939
70
0
0
VERTEX
8
Layer 1
10
217.622685
20
80.159430
70
0
0
VERTEX
8
Layer 1
10
217.103991
20
80.023280
70
0
0
VERTEX
8
Layer 1
10
214.700691
20
77.822827
70
0
0
VERTEX
8
Layer 1
10
214.700691
20
77.822827
70
0
0
SEQEND
8
Layer 1
0
POLYLINE
8
Layer 1
62
7
70
0
10
0.000000
20
0.000000
66
1
0
VERTEX
8
Layer 1
10
132.468139
20
79.233939
70
0
0
VERTEX
8
Layer 1
10
129.822304
20
78.140327
70
0
0
VERTEX
8
Layer 1
10
126.973622
20
76.301472
70
0
0
VERTEX
8
Layer 1
10
125.744411
20
75.327474
70
0
0
VERTEX
8
Layer 1
10
125.236190
20
74.753658
70
0
0
VERTEX
8
Layer 1
10
125.871190
20
73.730602
70
0
0
VERTEX
8
Layer 1
10
126.506191
20
72.954490
70
0
0
VERTEX
8
Layer 1
10
128.058414
20
74.259769
70
0
0
VERTEX
8
Layer 1
10
130.488172
20
75.983971
70
0
0
VERTEX
8
Layer 1
10
131.367361
20
76.397934
70
0
0
VERTEX
8
Layer 1
10
131.833139
20
76.411715
70
0
0
VERTEX
8
Layer 1
10
131.815500
20
75.692930
70
0
0
VERTEX
8
Layer 1
10
131.480361
20
74.259769
70
0
0
VERTEX
8
Layer 1
10
131.185254
20
73.025391
70
0
0
VERTEX
8
Layer 1
10
131.117110
20
72.123808
70
0
0
VERTEX
8
Layer 1
10
131.311069
20
71.550475
70
0
0
VERTEX
8
Layer 1
10
131.802271
20
71.300844
70
0
0
VERTEX
8
Layer 1
10
132.625856
20
71.370366
70
0
0
VERTEX
8
Layer 1
10
133.816964
20
71.754494
70
0
0
VERTEX
8
Layer 1
10
137.442309
20
73.448380
70
0
0
VERTEX
8
Layer 1
10
141.746200
20
75.635603
70
0
0
VERTEX
8
Layer 1
10
141.252311
20
76.623382
70
0
0
VERTEX
8
Layer 1
10
140.758422
20
77.611160
70
0
0
VERTEX
8
Layer 1
10
137.583420
20
76.023659
70
0
0
VERTEX
8
Layer 1
10
134.196751
20
74.436158
70
0
0
VERTEX
8
Layer 1
10
134.121786
20
75.216679
70
0
0
VERTEX
8
Layer 1
10
134.232029
20
77.081993
70
0
0
VERTEX
8
Layer 1
10
134.315814
20
78.942897
70
0
0
VERTEX
8
Layer 1
10
134.161473
20
79.692550
70
0
0
VERTEX
8
Layer 1
10
132.468139
20
79.233939
70
0
0
VERTEX
8
Layer 1
10
132.468139
20
79.233939
70
0
0
SEQEND
8
Layer 1
0
POLYLINE
8
Layer 1
62
7
70
0
10
0.000000
20
0.000000
66
1
0
VERTEX
8
Layer 1
10
188.559841
20
72.531157
70
0
0
VERTEX
8
Layer 1
10
187.616160
20
71.561017
70
0
0
VERTEX
8
Layer 1
10
186.619562
20
70.908378
70
0
0
VERTEX
8
Layer 1
10
185.822022
20
70.695884
70
0
0
VERTEX
8
Layer 1
10
184.743775
20
70.584263
70
0
0
VERTEX
8
Layer 1
10
182.011399
20
70.643794
70
0
0
VERTEX
8
Layer 1
10
178.954909
20
71.047284
70
0
0
VERTEX
8
Layer 1
10
176.106778
20
71.755045
70
0
0
VERTEX
8
Layer 1
10
173.213998
20
72.707546
70
0
0
VERTEX
8
Layer 1
10
170.991497
20
71.155323
70
0
0
VERTEX
8
Layer 1
10
168.061786
20
69.235990
70
0
0
VERTEX
8
Layer 1
10
166.900581
20
68.646327
70
0
0
VERTEX
8
Layer 1
10
165.889445
20
68.289001
70
0
0
VERTEX
8
Layer 1
10
164.989103
20
68.153265
70
0
0
VERTEX
8
Layer 1
10
164.160281
20
68.228368
70
0
0
VERTEX
8
Layer 1
10
163.363706
20
68.503562
70
0
0
VERTEX
8
Layer 1
10
162.560102
20
68.968099
70
0
0
VERTEX
8
Layer 1
10
160.937324
20
69.850044
70
0
0
VERTEX
8
Layer 1
10
160.540448
20
69.583807
70
0
0
VERTEX
8
Layer 1
10
160.170031
20
68.963689
70
0
0
VERTEX
8
Layer 1
10
159.945135
20
68.257582
70
0
0
VERTEX
8
Layer 1
10
159.984823
20
67.733376
70
0
0
VERTEX
8
Layer 1
10
160.795110
20
67.090107
70
0
0
VERTEX
8
Layer 1
10
162.233783
20
66.397229
70
0
0
VERTEX
8
Layer 1
10
163.844435
20
65.843258
70
0
0
VERTEX
8
Layer 1
10
165.170660
20
65.616708
70
0
0
VERTEX
8
Layer 1
10
166.598859
20
65.919325
70
0
0
VERTEX
8
Layer 1
10
168.526460
20
66.714730
70
0
0
VERTEX
8
Layer 1
10
170.592968
20
67.834248
70
0
0
VERTEX
8
Layer 1
10
172.437886
20
69.109210
70
0
0
VERTEX
8
Layer 1
10
173.566776
20
69.823586
70
0
0
VERTEX
8
Layer 1
10
173.965856
20
69.922804
70
0
0
VERTEX
8
Layer 1
10
174.272332
20
69.850044
70
0
0
VERTEX
8
Layer 1
10
175.933696
20
69.250321
70
0
0
VERTEX
8
Layer 1
10
178.461571
20
68.650599
70
0
0
VERTEX
8
Layer 1
10
181.187883
20
68.183168
70
0
0
VERTEX
8
Layer 1
10
183.444560
20
67.980321
70
0
0
VERTEX
8
Layer 1
10
185.560677
20
68.088359
70
0
0
VERTEX
8
Layer 1
10
187.250153
20
68.500668
70
0
0
VERTEX
8
Layer 1
10
188.668430
20
69.270165
70
0
0
VERTEX
8
Layer 1
10
189.970953
20
70.449767
70
0
0
VERTEX
8
Layer 1
10
190.799981
20
71.439750
70
0
0
VERTEX
8
Layer 1
10
191.126301
20
72.125462
70
0
0
VERTEX
8
Layer 1
10
190.963141
20
72.652424
70
0
0
VERTEX
8
Layer 1
10
190.323731
20
73.166157
70
0
0
VERTEX
8
Layer 1
10
189.829842
20
73.453892
70
0
0
VERTEX
8
Layer 1
10
189.468244
20
73.483657
70
0
0
VERTEX
8
Layer 1
10
189.093418
20
73.195923
70
0
0
VERTEX
8
Layer 1
10
188.559841
20
72.531157
70
0
0
VERTEX
8
Layer 1
10
188.559841
20
72.531157
70
0
0
SEQEND
8
Layer 1
 0 
ENDSEC
 0 
EOF