999
"DXF R12 Output" (www.mydxf.blogspot.com)
 0 
SECTION
 2 
HEADER
 9 
$ACADVER
 1 
AC1009
 9 
$EXTMIN
 10 
 0 
 20 
 0 
 9 
$EXTMAX
 10 
 8.5 
 20 
 11 
 0 
ENDSEC
 0 
SECTION
 2 
ENTITIES
0
POLYLINE
8
图层 1
62
7
70
0
10
0.000000
20
0.000000
66
1
0
VERTEX
8
图层 1
10
152.159000
20
123.537000
70
0
0
VERTEX
8
图层 1
10
159.027150
20
123.674742
70
0
0
VERTEX
8
图层 1
10
165.445580
20
123.655020
70
0
0
VERTEX
8
图层 1
10
177.349880
20
123.191852
70
0
0
VERTEX
8
图层 1
10
188.705104
20
122.244827
70
0
0
VERTEX
8
图层 1
10
200.344458
20
120.911281
70
0
0
VERTEX
8
图层 1
10
199.679473
20
120.437501
70
0
0
VERTEX
8
图层 1
10
181.756638
20
121.963394
70
0
0
VERTEX
8
图层 1
10
172.881441
20
122.456251
70
0
0
VERTEX
8
图层 1
10
168.003448
20
122.536288
70
0
0
VERTEX
8
图层 1
10
162.655880
20
122.467733
70
0
0
VERTEX
8
图层 1
10
153.779589
20
122.106523
70
0
0
VERTEX
8
图层 1
10
145.238778
20
121.528756
70
0
0
VERTEX
8
图层 1
10
136.998309
20
120.758216
70
0
0
VERTEX
8
图层 1
10
129.023046
20
119.818686
70
0
0
VERTEX
8
图层 1
10
121.277856
20
118.733950
70
0
0
VERTEX
8
图层 1
10
113.727600
20
117.527791
70
0
0
VERTEX
8
图层 1
10
99.071353
20
114.846339
70
0
0
VERTEX
8
图层 1
10
99.622391
20
117.499927
70
0
0
VERTEX
8
图层 1
10
112.296963
20
119.683700
70
0
0
VERTEX
8
图层 1
10
125.484561
20
121.441990
70
0
0
VERTEX
8
图层 1
10
138.875226
20
122.738517
70
0
0
VERTEX
8
图层 1
10
152.159000
20
123.537000
70
0
0
SEQEND
8
图层 1
0
POLYLINE
8
图层 1
62
7
70
0
10
0.000000
20
0.000000
66
1
0
VERTEX
8
图层 1
10
131.833000
20
139.451000
70
0
0
VERTEX
8
图层 1
10
129.602744
20
137.346685
70
0
0
VERTEX
8
图层 1
10
128.420456
20
138.390332
70
0
0
VERTEX
8
图层 1
10
127.170170
20
139.135794
70
0
0
VERTEX
8
图层 1
10
125.851886
20
139.583071
70
0
0
VERTEX
8
图层 1
10
124.465605
20
139.732163
70
0
0
VERTEX
8
图层 1
10
123.309522
20
139.630288
70
0
0
VERTEX
8
图层 1
10
122.248754
20
139.324882
70
0
0
VERTEX
8
图层 1
10
121.282972
20
138.816277
70
0
0
VERTEX
8
图层 1
10
120.411845
20
138.104803
70
0
0
VERTEX
8
图层 1
10
119.691402
20
137.244788
70
0
0
VERTEX
8
图层 1
10
119.177169
20
136.290118
70
0
0
VERTEX
8
图层 1
10
118.868848
20
135.240463
70
0
0
VERTEX
8
图层 1
10
118.766140
20
134.095492
70
0
0
VERTEX
8
图层 1
10
118.946982
20
132.523694
70
0
0
VERTEX
8
图层 1
10
119.491097
20
131.140279
70
0
0
VERTEX
8
图层 1
10
120.372686
20
129.991152
70
0
0
VERTEX
8
图层 1
10
121.562250
20
129.124864
70
0
0
VERTEX
8
图层 1
10
122.970933
20
128.578854
70
0
0
VERTEX
8
图层 1
10
124.510055
20
128.396380
70
0
0
VERTEX
8
图层 1
10
125.852901
20
128.523909
70
0
0
VERTEX
8
图层 1
10
127.065572
20
128.906495
70
0
0
VERTEX
8
图层 1
10
128.274627
20
129.625102
70
0
0
VERTEX
8
图层 1
10
129.602744
20
130.759633
70
0
0
VERTEX
8
图层 1
10
131.747981
20
128.529377
70
0
0
VERTEX
8
图层 1
10
129.951155
20
127.005601
70
0
0
VERTEX
8
图层 1
10
128.245611
20
126.036655
70
0
0
VERTEX
8
图层 1
10
126.473347
20
125.515382
70
0
0
VERTEX
8
图层 1
10
124.465605
20
125.340978
70
0
0
VERTEX
8
图层 1
10
122.612622
20
125.494232
70
0
0
VERTEX
8
图层 1
10
120.931221
20
125.953708
70
0
0
VERTEX
8
图层 1
10
119.421137
20
126.718975
70
0
0
VERTEX
8
图层 1
10
118.082105
20
127.789603
70
0
0
VERTEX
8
图层 1
10
116.987598
20
129.104503
70
0
0
VERTEX
8
图层 1
10
116.206258
20
130.597267
70
0
0
VERTEX
8
图层 1
10
115.737720
20
132.268229
70
0
0
VERTEX
8
图层 1
10
115.581622
20
134.117717
70
0
0
VERTEX
8
图层 1
10
115.864990
20
136.457070
70
0
0
VERTEX
8
图层 1
10
116.219796
20
137.526568
70
0
0
VERTEX
8
图层 1
10
116.717211
20
138.530252
70
0
0
VERTEX
8
图层 1
10
117.346846
20
139.451083
70
0
0
VERTEX
8
图层 1
10
118.098554
20
140.276895
70
0
0
VERTEX
8
图层 1
10
119.968051
20
141.640687
70
0
0
VERTEX
8
图层 1
10
122.160075
20
142.516235
70
0
0
VERTEX
8
图层 1
10
123.315139
20
142.736010
70
0
0
VERTEX
8
图层 1
10
124.510055
20
142.809437
70
0
0
VERTEX
8
图层 1
10
126.551972
20
142.593008
70
0
0
VERTEX
8
图层 1
10
128.519013
20
141.943722
70
0
0
VERTEX
8
图层 1
10
130.310679
20
140.886009
70
0
0
VERTEX
8
图层 1
10
131.833000
20
139.451000
70
0
0
SEQEND
8
图层 1
0
POLYLINE
8
图层 1
62
7
70
1
10
0.000000
20
0.000000
66
1
0
VERTEX
8
图层 1
10
104.685000
20
139.895000
70
0
0
VERTEX
8
图层 1
10
104.685000
20
134.784672
70
0
0
VERTEX
8
图层 1
10
106.673957
20
134.784672
70
0
0
VERTEX
8
图层 1
10
108.470430
20
134.854302
70
0
0
VERTEX
8
图层 1
10
109.552264
20
135.065483
70
0
0
VERTEX
8
图层 1
10
110.198552
20
135.427653
70
0
0
VERTEX
8
图层 1
10
110.689265
20
135.950953
70
0
0
VERTEX
8
图层 1
10
110.997724
20
136.602488
70
0
0
VERTEX
8
图层 1
10
111.100603
20
137.352183
70
0
0
VERTEX
8
图层 1
10
110.955699
20
138.249207
70
0
0
VERTEX
8
图层 1
10
110.521343
20
138.976369
70
0
0
VERTEX
8
图层 1
10
109.868132
20
139.493099
70
0
0
VERTEX
8
图层 1
10
109.061199
20
139.773292
70
0
0
VERTEX
8
图层 1
10
106.442888
20
139.895000
70
0
0
VERTEX
8
图层 1
10
104.685000
20
139.895000
70
0
0
SEQEND
8
图层 1
0
POLYLINE
8
图层 1
62
7
70
0
10
0.000000
20
0.000000
66
1
0
VERTEX
8
图层 1
10
142.571486
20
130.571809
70
0
0
VERTEX
8
图层 1
10
142.485497
20
131.327149
70
0
0
VERTEX
8
图层 1
10
142.227528
20
131.897545
70
0
0
VERTEX
8
图层 1
10
141.795288
20
132.317967
70
0
0
VERTEX
8
图层 1
10
141.195303
20
132.623560
70
0
0
VERTEX
8
图层 1
10
140.045603
20
132.803830
70
0
0
VERTEX
8
图层 1
10
138.086279
20
132.820763
70
0
0
VERTEX
8
图层 1
10
137.238556
20
132.820763
70
0
0
VERTEX
8
图层 1
10
137.238556
20
128.238542
70
0
0
VERTEX
8
图层 1
10
137.486205
20
128.238542
70
0
0
VERTEX
8
图层 1
10
139.965875
20
128.263942
70
0
0
VERTEX
8
图层 1
10
141.367458
20
128.595553
70
0
0
VERTEX
8
图层 1
10
141.909632
20
128.929236
70
0
0
VERTEX
8
图层 1
10
142.282209
20
129.388595
70
0
0
VERTEX
8
图层 1
10
142.499211
20
129.945277
70
0
0
VERTEX
8
图层 1
10
142.571486
20
130.571809
70
0
0
SEQEND
8
图层 1
0
POLYLINE
8
图层 1
62
7
70
0
10
0.000000
20
0.000000
66
1
0
VERTEX
8
图层 1
10
141.417905
20
138.006585
70
0
0
VERTEX
8
图层 1
10
141.191070
20
138.917102
70
0
0
VERTEX
8
图层 1
10
140.900690
20
139.318783
70
0
0
VERTEX
8
图层 1
10
140.481988
20
139.592670
70
0
0
VERTEX
8
图层 1
10
139.407782
20
139.810686
70
0
0
VERTEX
8
图层 1
10
137.557819
20
139.827620
70
0
0
VERTEX
8
图层 1
10
137.238556
20
139.827620
70
0
0
VERTEX
8
图层 1
10
137.238556
20
135.954834
70
0
0
VERTEX
8
图层 1
10
137.817816
20
135.954834
70
0
0
VERTEX
8
图层 1
10
139.470929
20
135.979881
70
0
0
VERTEX
8
图层 1
10
140.448474
20
136.235997
70
0
0
VERTEX
8
图层 1
10
140.913787
20
136.543266
70
0
0
VERTEX
8
图层 1
10
141.207650
20
136.948959
70
0
0
VERTEX
8
图层 1
10
141.417905
20
138.006585
70
0
0
SEQEND
8
图层 1
0
POLYLINE
8
图层 1
62
7
70
0
10
0.000000
20
0.000000
66
1
0
VERTEX
8
图层 1
10
147.008009
20
130.530182
70
0
0
VERTEX
8
图层 1
10
147.027104
20
129.225392
70
0
0
VERTEX
8
图层 1
10
146.788229
20
128.087554
70
0
0
VERTEX
8
图层 1
10
146.183129
20
127.146521
70
0
0
VERTEX
8
图层 1
10
145.399699
20
126.380113
70
0
0
VERTEX
8
图层 1
10
144.315836
20
125.687656
70
0
0
VERTEX
8
图层 1
10
143.129579
20
125.226180
70
0
0
VERTEX
8
图层 1
10
141.728569
20
124.967947
70
0
0
VERTEX
8
图层 1
10
139.991275
20
124.882222
70
0
0
VERTEX
8
图层 1
10
132.665155
20
124.882222
70
0
0
VERTEX
8
图层 1
10
132.665155
20
143.184293
70
0
0
VERTEX
8
图层 1
10
139.131205
20
143.184293
70
0
0
VERTEX
8
图层 1
10
142.185548
20
143.029071
70
0
0
VERTEX
8
图层 1
10
143.191668
20
142.791917
70
0
0
VERTEX
8
图层 1
10
144.132171
20
142.387017
70
0
0
VERTEX
8
图层 1
10
144.990963
20
141.768025
70
0
0
VERTEX
8
图层 1
10
145.600782
20
140.973087
70
0
0
VERTEX
8
图层 1
10
145.965642
20
140.019133
70
0
0
VERTEX
8
图层 1
10
146.087614
20
138.929449
70
0
0
VERTEX
8
图层 1
10
145.919692
20
137.664391
70
0
0
VERTEX
8
图层 1
10
145.416280
20
136.546441
70
0
0
VERTEX
8
图层 1
10
144.620106
20
135.640113
70
0
0
VERTEX
8
图层 1
10
143.570198
20
135.006569
70
0
0
VERTEX
8
图层 1
10
143.570198
20
134.910261
70
0
0
VERTEX
8
图层 1
10
145.095914
20
134.367646
70
0
0
VERTEX
8
图层 1
10
146.284817
20
133.454350
70
0
0
VERTEX
8
图层 1
10
146.684458
20
132.862363
70
0
0
VERTEX
8
图层 1
10
146.901206
20
132.182633
70
0
0
VERTEX
8
图层 1
10
147.008009
20
130.530182
70
0
0
SEQEND
8
图层 1
0
POLYLINE
8
图层 1
62
7
70
0
10
0.000000
20
0.000000
66
1
0
VERTEX
8
图层 1
10
180.017353
20
126.388580
70
0
0
VERTEX
8
图层 1
10
180.017353
20
124.924555
70
0
0
VERTEX
8
图层 1
10
184.297597
20
124.924555
70
0
0
VERTEX
8
图层 1
10
184.297597
20
134.314773
70
0
0
VERTEX
8
图层 1
10
184.195859
20
135.454370
70
0
0
VERTEX
8
图层 1
10
183.890624
20
136.437829
70
0
0
VERTEX
8
图层 1
10
183.381859
20
137.264987
70
0
0
VERTEX
8
图层 1
10
182.669531
20
137.935677
70
0
0
VERTEX
8
图层 1
10
181.732935
20
138.455036
70
0
0
VERTEX
8
图层 1
10
180.554412
20
138.826130
70
0
0
VERTEX
8
图层 1
10
179.133730
20
139.048859
70
0
0
VERTEX
8
图层 1
10
177.470656
20
139.123124
70
0
0
VERTEX
8
图层 1
10
174.592349
20
138.871241
70
0
0
VERTEX
8
图层 1
10
172.528250
20
138.434856
70
0
0
VERTEX
8
图层 1
10
172.528250
20
135.103230
70
0
0
VERTEX
8
图层 1
10
172.897255
20
135.103230
70
0
0
VERTEX
8
图层 1
10
174.890445
20
135.808431
70
0
0
VERTEX
8
图层 1
10
176.673380
20
136.085361
70
0
0
VERTEX
8
图层 1
10
178.145783
20
135.975780
70
0
0
VERTEX
8
图层 1
10
179.199616
20
135.648976
70
0
0
VERTEX
8
图层 1
10
179.831925
20
135.036379
70
0
0
VERTEX
8
图层 1
10
180.042753
20
134.071357
70
0
0
VERTEX
8
图层 1
10
180.042753
20
133.995510
70
0
0
VERTEX
8
图层 1
10
176.552025
20
133.651905
70
0
0
VERTEX
8
图层 1
10
175.041875
20
133.342785
70
0
0
VERTEX
8
图层 1
10
173.757678
20
132.862743
70
0
0
VERTEX
8
图层 1
10
172.739917
20
132.211826
70
0
0
VERTEX
8
图层 1
10
171.990971
20
131.364852
70
0
0
VERTEX
8
图层 1
10
171.529054
20
130.270538
70
0
0
VERTEX
8
图层 1
10
171.374317
20
128.880949
70
0
0
VERTEX
8
图层 1
10
171.450070
20
127.986632
70
0
0
VERTEX
8
图层 1
10
171.677396
20
127.172583
70
0
0
VERTEX
8
图层 1
10
172.056395
20
126.438636
70
0
0
VERTEX
8
图层 1
10
172.587164
20
125.784626
70
0
0
VERTEX
8
图层 1
10
173.230944
20
125.247842
70
0
0
VERTEX
8
图层 1
10
173.952543
20
124.863525
70
0
0
VERTEX
8
图层 1
10
174.751864
20
124.632401
70
0
0
VERTEX
8
图层 1
10
175.628807
20
124.555198
70
0
0
VERTEX
8
图层 1
10
177.160212
20
124.701953
70
0
0
VERTEX
8
图层 1
10
178.284866
20
125.134458
70
0
0
VERTEX
8
图层 1
10
179.224663
20
125.721831
70
0
0
VERTEX
8
图层 1
10
180.017353
20
126.388580
70
0
0
SEQEND
8
图层 1
0
POLYLINE
8
图层 1
62
7
70
0
10
0.000000
20
0.000000
66
1
0
VERTEX
8
图层 1
10
180.017353
20
128.524292
70
0
0
VERTEX
8
图层 1
10
180.017353
20
131.402599
70
0
0
VERTEX
8
图层 1
10
178.247118
20
131.213864
70
0
0
VERTEX
8
图层 1
10
176.917149
20
130.899187
70
0
0
VERTEX
8
图层 1
10
176.415412
20
130.651184
70
0
0
VERTEX
8
图层 1
10
176.040145
20
130.303699
70
0
0
VERTEX
8
图层 1
10
175.803829
20
129.837107
70
0
0
VERTEX
8
图层 1
10
175.725468
20
129.237960
70
0
0
VERTEX
8
图层 1
10
175.856746
20
128.418811
70
0
0
VERTEX
8
图层 1
10
176.249695
20
127.903404
70
0
0
VERTEX
8
图层 1
10
176.895056
20
127.632868
70
0
0
VERTEX
8
图层 1
10
177.789919
20
127.542513
70
0
0
VERTEX
8
图层 1
10
178.947733
20
127.802863
70
0
0
VERTEX
8
图层 1
10
180.017353
20
128.524292
70
0
0
SEQEND
8
图层 1
0
POLYLINE
8
图层 1
62
7
70
0
10
0.000000
20
0.000000
66
1
0
VERTEX
8
图层 1
10
198.667615
20
138.728366
70
0
0
VERTEX
8
图层 1
10
191.698153
20
119.860089
70
0
0
VERTEX
8
图层 1
10
187.074657
20
119.860089
70
0
0
VERTEX
8
图层 1
10
189.168036
20
125.243466
70
0
0
VERTEX
8
图层 1
10
184.099336
20
138.728366
70
0
0
VERTEX
8
图层 1
10
188.622995
20
138.728366
70
0
0
VERTEX
8
图层 1
10
191.526350
20
130.060283
70
0
0
VERTEX
8
图层 1
10
194.245203
20
138.728366
70
0
0
VERTEX
8
图层 1
10
198.667615
20
138.728366
70
0
0
SEQEND
8
图层 1
0
POLYLINE
8
图层 1
62
7
70
0
10
0.000000
20
0.000000
66
1
0
VERTEX
8
图层 1
10
172.375851
20
143.226626
70
0
0
VERTEX
8
图层 1
10
167.743536
20
124.924555
70
0
0
VERTEX
8
图层 1
10
162.700236
20
124.924555
70
0
0
VERTEX
8
图层 1
10
159.763015
20
136.244464
70
0
0
VERTEX
8
图层 1
10
156.922454
20
124.924555
70
0
0
VERTEX
8
图层 1
10
151.871040
20
124.924555
70
0
0
VERTEX
8
图层 1
10
147.238726
20
143.226626
70
0
0
VERTEX
8
图层 1
10
152.008976
20
143.226626
70
0
0
VERTEX
8
图层 1
10
154.530979
20
130.962334
70
0
0
VERTEX
8
图层 1
10
157.602256
20
143.226626
70
0
0
VERTEX
8
图层 1
10
162.163309
20
143.226626
70
0
0
VERTEX
8
图层 1
10
165.075131
20
130.945400
70
0
0
VERTEX
8
图层 1
10
167.726603
20
143.226626
70
0
0
VERTEX
8
图层 1
10
172.375851
20
143.226626
70
0
0
SEQEND
8
图层 1
0
POLYLINE
8
图层 1
62
7
70
0
10
0.000000
20
0.000000
66
1
0
VERTEX
8
图层 1
10
101.047164
20
124.924555
70
0
0
VERTEX
8
图层 1
10
101.047164
20
142.945110
70
0
0
VERTEX
8
图层 1
10
106.883859
20
142.945110
70
0
0
VERTEX
8
图层 1
10
109.623790
20
142.875216
70
0
0
VERTEX
8
图层 1
10
111.209611
20
142.672766
70
0
0
VERTEX
8
图层 1
10
112.633727
20
142.029521
70
0
0
VERTEX
8
图层 1
10
113.806755
20
140.910292
70
0
0
VERTEX
8
图层 1
10
114.263811
20
140.181251
70
0
0
VERTEX
8
图层 1
10
114.590361
20
139.353355
70
0
0
VERTEX
8
图层 1
10
114.851680
20
137.402983
70
0
0
VERTEX
8
图层 1
10
114.700207
20
135.874004
70
0
0
VERTEX
8
图层 1
10
114.247373
20
134.612517
70
0
0
VERTEX
8
图层 1
10
113.563162
20
133.601943
70
0
0
VERTEX
8
图层 1
10
112.715968
20
132.833463
70
0
0
VERTEX
8
图层 1
10
111.782520
20
132.296404
70
0
0
VERTEX
8
图层 1
10
110.832139
20
131.981859
70
0
0
VERTEX
8
图层 1
10
109.237058
20
131.784789
70
0
0
VERTEX
8
图层 1
10
107.055661
20
131.721862
70
0
0
VERTEX
8
图层 1
10
104.685000
20
131.721862
70
0
0
VERTEX
8
图层 1
10
104.685000
20
124.924555
70
0
0
VERTEX
8
图层 1
10
101.047164
20
124.924555
70
0
0
SEQEND
8
图层 1
0
POLYLINE
8
图层 1
62
7
70
0
10
0.000000
20
0.000000
66
1
0
VERTEX
8
图层 1
10
454.665000
20
123.714000
70
0
0
VERTEX
8
图层 1
10
461.533150
20
123.851742
70
0
0
VERTEX
8
图层 1
10
467.951580
20
123.832020
70
0
0
VERTEX
8
图层 1
10
479.855880
20
123.368852
70
0
0
VERTEX
8
图层 1
10
491.211104
20
122.421827
70
0
0
VERTEX
8
图层 1
10
502.850458
20
121.088281
70
0
0
VERTEX
8
图层 1
10
502.185473
20
120.614501
70
0
0
VERTEX
8
图层 1
10
484.262638
20
122.140394
70
0
0
VERTEX
8
图层 1
10
475.387441
20
122.633251
70
0
0
VERTEX
8
图层 1
10
470.509448
20
122.713288
70
0
0
VERTEX
8
图层 1
10
465.161880
20
122.644733
70
0
0
VERTEX
8
图层 1
10
456.285589
20
122.283523
70
0
0
VERTEX
8
图层 1
10
447.744778
20
121.705756
70
0
0
VERTEX
8
图层 1
10
439.504309
20
120.935216
70
0
0
VERTEX
8
图层 1
10
431.529046
20
119.995686
70
0
0
VERTEX
8
图层 1
10
423.783856
20
118.910950
70
0
0
VERTEX
8
图层 1
10
416.233600
20
117.704791
70
0
0
VERTEX
8
图层 1
10
401.577353
20
115.023339
70
0
0
VERTEX
8
图层 1
10
402.128391
20
117.676927
70
0
0
VERTEX
8
图层 1
10
414.802963
20
119.860700
70
0
0
VERTEX
8
图层 1
10
427.990561
20
121.618990
70
0
0
VERTEX
8
图层 1
10
441.381226
20
122.915517
70
0
0
VERTEX
8
图层 1
10
454.665000
20
123.714000
70
0
0
SEQEND
8
图层 1
0
POLYLINE
8
图层 1
62
7
70
0
10
0.000000
20
0.000000
66
1
0
VERTEX
8
图层 1
10
434.340000
20
139.627000
70
0
0
VERTEX
8
图层 1
10
432.109744
20
137.522685
70
0
0
VERTEX
8
图层 1
10
430.927456
20
138.566332
70
0
0
VERTEX
8
图层 1
10
429.677170
20
139.311794
70
0
0
VERTEX
8
图层 1
10
428.358886
20
139.759071
70
0
0
VERTEX
8
图层 1
10
426.972605
20
139.908163
70
0
0
VERTEX
8
图层 1
10
425.816522
20
139.806288
70
0
0
VERTEX
8
图层 1
10
424.755754
20
139.500882
70
0
0
VERTEX
8
图层 1
10
423.789972
20
138.992277
70
0
0
VERTEX
8
图层 1
10
422.918845
20
138.280803
70
0
0
VERTEX
8
图层 1
10
422.198402
20
137.420788
70
0
0
VERTEX
8
图层 1
10
421.684169
20
136.466118
70
0
0
VERTEX
8
图层 1
10
421.375848
20
135.416463
70
0
0
VERTEX
8
图层 1
10
421.273140
20
134.271492
70
0
0
VERTEX
8
图层 1
10
421.453982
20
132.699694
70
0
0
VERTEX
8
图层 1
10
421.998097
20
131.316279
70
0
0
VERTEX
8
图层 1
10
422.879686
20
130.167152
70
0
0
VERTEX
8
图层 1
10
424.069250
20
129.300864
70
0
0
VERTEX
8
图层 1
10
425.477933
20
128.754854
70
0
0
VERTEX
8
图层 1
10
427.017055
20
128.572380
70
0
0
VERTEX
8
图层 1
10
428.359901
20
128.699909
70
0
0
VERTEX
8
图层 1
10
429.572572
20
129.082495
70
0
0
VERTEX
8
图层 1
10
430.781627
20
129.801102
70
0
0
VERTEX
8
图层 1
10
432.109744
20
130.935633
70
0
0
VERTEX
8
图层 1
10
434.254981
20
128.705377
70
0
0
VERTEX
8
图层 1
10
432.458155
20
127.181601
70
0
0
VERTEX
8
图层 1
10
430.752611
20
126.212655
70
0
0
VERTEX
8
图层 1
10
428.980347
20
125.691382
70
0
0
VERTEX
8
图层 1
10
426.972605
20
125.516978
70
0
0
VERTEX
8
图层 1
10
425.119622
20
125.670232
70
0
0
VERTEX
8
图层 1
10
423.438221
20
126.129708
70
0
0
VERTEX
8
图层 1
10
421.928137
20
126.894975
70
0
0
VERTEX
8
图层 1
10
420.589105
20
127.965603
70
0
0
VERTEX
8
图层 1
10
419.494598
20
129.280503
70
0
0
VERTEX
8
图层 1
10
418.713258
20
130.773267
70
0
0
VERTEX
8
图层 1
10
418.244720
20
132.444229
70
0
0
VERTEX
8
图层 1
10
418.088622
20
134.293717
70
0
0
VERTEX
8
图层 1
10
418.371990
20
136.633070
70
0
0
VERTEX
8
图层 1
10
418.726796
20
137.702568
70
0
0
VERTEX
8
图层 1
10
419.224211
20
138.706252
70
0
0
VERTEX
8
图层 1
10
419.853846
20
139.627083
70
0
0
VERTEX
8
图层 1
10
420.605554
20
140.452895
70
0
0
VERTEX
8
图层 1
10
422.475051
20
141.816687
70
0
0
VERTEX
8
图层 1
10
424.667075
20
142.692235
70
0
0
VERTEX
8
图层 1
10
425.822139
20
142.912010
70
0
0
VERTEX
8
图层 1
10
427.017055
20
142.985437
70
0
0
VERTEX
8
图层 1
10
429.058972
20
142.769008
70
0
0
VERTEX
8
图层 1
10
431.026013
20
142.119722
70
0
0
VERTEX
8
图层 1
10
432.817679
20
141.062009
70
0
0
VERTEX
8
图层 1
10
434.340000
20
139.627000
70
0
0
SEQEND
8
图层 1
0
POLYLINE
8
图层 1
62
7
70
1
10
0.000000
20
0.000000
66
1
0
VERTEX
8
图层 1
10
407.191000
20
140.071000
70
0
0
VERTEX
8
图层 1
10
407.191000
20
134.960672
70
0
0
VERTEX
8
图层 1
10
409.179957
20
134.960672
70
0
0
VERTEX
8
图层 1
10
410.976430
20
135.030302
70
0
0
VERTEX
8
图层 1
10
412.058264
20
135.241483
70
0
0
VERTEX
8
图层 1
10
412.704552
20
135.603653
70
0
0
VERTEX
8
图层 1
10
413.195265
20
136.126953
70
0
0
VERTEX
8
图层 1
10
413.503724
20
136.778488
70
0
0
VERTEX
8
图层 1
10
413.606603
20
137.528183
70
0
0
VERTEX
8
图层 1
10
413.461699
20
138.425207
70
0
0
VERTEX
8
图层 1
10
413.027343
20
139.152369
70
0
0
VERTEX
8
图层 1
10
412.374132
20
139.669099
70
0
0
VERTEX
8
图层 1
10
411.567199
20
139.949292
70
0
0
VERTEX
8
图层 1
10
408.948888
20
140.071000
70
0
0
VERTEX
8
图层 1
10
407.191000
20
140.071000
70
0
0
SEQEND
8
图层 1
0
POLYLINE
8
图层 1
62
7
70
0
10
0.000000
20
0.000000
66
1
0
VERTEX
8
图层 1
10
445.077486
20
130.747809
70
0
0
VERTEX
8
图层 1
10
444.991497
20
131.503149
70
0
0
VERTEX
8
图层 1
10
444.733528
20
132.073545
70
0
0
VERTEX
8
图层 1
10
444.301288
20
132.493967
70
0
0
VERTEX
8
图层 1
10
443.701303
20
132.799560
70
0
0
VERTEX
8
图层 1
10
442.551603
20
132.979830
70
0
0
VERTEX
8
图层 1
10
440.592279
20
132.996763
70
0
0
VERTEX
8
图层 1
10
439.744556
20
132.996763
70
0
0
VERTEX
8
图层 1
10
439.744556
20
128.414542
70
0
0
VERTEX
8
图层 1
10
439.992205
20
128.414542
70
0
0
VERTEX
8
图层 1
10
442.471875
20
128.439942
70
0
0
VERTEX
8
图层 1
10
443.873458
20
128.771553
70
0
0
VERTEX
8
图层 1
10
444.415632
20
129.105236
70
0
0
VERTEX
8
图层 1
10
444.788209
20
129.564595
70
0
0
VERTEX
8
图层 1
10
445.005211
20
130.121277
70
0
0
VERTEX
8
图层 1
10
445.077486
20
130.747809
70
0
0
SEQEND
8
图层 1
0
POLYLINE
8
图层 1
62
7
70
0
10
0.000000
20
0.000000
66
1
0
VERTEX
8
图层 1
10
443.923905
20
138.182585
70
0
0
VERTEX
8
图层 1
10
443.697070
20
139.093102
70
0
0
VERTEX
8
图层 1
10
443.406690
20
139.494783
70
0
0
VERTEX
8
图层 1
10
442.987988
20
139.768670
70
0
0
VERTEX
8
图层 1
10
441.913782
20
139.986686
70
0
0
VERTEX
8
图层 1
10
440.063819
20
140.003620
70
0
0
VERTEX
8
图层 1
10
439.744556
20
140.003620
70
0
0
VERTEX
8
图层 1
10
439.744556
20
136.130834
70
0
0
VERTEX
8
图层 1
10
440.323816
20
136.130834
70
0
0
VERTEX
8
图层 1
10
441.976929
20
136.155881
70
0
0
VERTEX
8
图层 1
10
442.954474
20
136.411997
70
0
0
VERTEX
8
图层 1
10
443.419787
20
136.719266
70
0
0
VERTEX
8
图层 1
10
443.713650
20
137.124959
70
0
0
VERTEX
8
图层 1
10
443.923905
20
138.182585
70
0
0
SEQEND
8
图层 1
0
POLYLINE
8
图层 1
62
7
70
0
10
0.000000
20
0.000000
66
1
0
VERTEX
8
图层 1
10
449.514009
20
130.706182
70
0
0
VERTEX
8
图层 1
10
449.533104
20
129.401392
70
0
0
VERTEX
8
图层 1
10
449.294229
20
128.263554
70
0
0
VERTEX
8
图层 1
10
448.689129
20
127.322521
70
0
0
VERTEX
8
图层 1
10
447.905699
20
126.556113
70
0
0
VERTEX
8
图层 1
10
446.821836
20
125.863656
70
0
0
VERTEX
8
图层 1
10
445.635579
20
125.402180
70
0
0
VERTEX
8
图层 1
10
444.234569
20
125.143947
70
0
0
VERTEX
8
图层 1
10
442.497275
20
125.058222
70
0
0
VERTEX
8
图层 1
10
435.171155
20
125.058222
70
0
0
VERTEX
8
图层 1
10
435.171155
20
143.360293
70
0
0
VERTEX
8
图层 1
10
441.637205
20
143.360293
70
0
0
VERTEX
8
图层 1
10
444.691548
20
143.205071
70
0
0
VERTEX
8
图层 1
10
445.697668
20
142.967917
70
0
0
VERTEX
8
图层 1
10
446.638171
20
142.563017
70
0
0
VERTEX
8
图层 1
10
447.496963
20
141.944025
70
0
0
VERTEX
8
图层 1
10
448.106782
20
141.149087
70
0
0
VERTEX
8
图层 1
10
448.471642
20
140.195133
70
0
0
VERTEX
8
图层 1
10
448.593614
20
139.105449
70
0
0
VERTEX
8
图层 1
10
448.425692
20
137.840391
70
0
0
VERTEX
8
图层 1
10
447.922280
20
136.722441
70
0
0
VERTEX
8
图层 1
10
447.126106
20
135.816113
70
0
0
VERTEX
8
图层 1
10
446.076198
20
135.182569
70
0
0
VERTEX
8
图层 1
10
446.076198
20
135.086261
70
0
0
VERTEX
8
图层 1
10
447.601914
20
134.543646
70
0
0
VERTEX
8
图层 1
10
448.790817
20
133.630350
70
0
0
VERTEX
8
图层 1
10
449.190458
20
133.038363
70
0
0
VERTEX
8
图层 1
10
449.407206
20
132.358633
70
0
0
VERTEX
8
图层 1
10
449.514009
20
130.706182
70
0
0
SEQEND
8
图层 1
0
POLYLINE
8
图层 1
62
7
70
0
10
0.000000
20
0.000000
66
1
0
VERTEX
8
图层 1
10
482.523353
20
126.564580
70
0
0
VERTEX
8
图层 1
10
482.523353
20
125.100555
70
0
0
VERTEX
8
图层 1
10
486.803597
20
125.100555
70
0
0
VERTEX
8
图层 1
10
486.803597
20
134.490773
70
0
0
VERTEX
8
图层 1
10
486.701859
20
135.630370
70
0
0
VERTEX
8
图层 1
10
486.396624
20
136.613829
70
0
0
VERTEX
8
图层 1
10
485.887859
20
137.440987
70
0
0
VERTEX
8
图层 1
10
485.175531
20
138.111677
70
0
0
VERTEX
8
图层 1
10
484.238935
20
138.631036
70
0
0
VERTEX
8
图层 1
10
483.060412
20
139.002130
70
0
0
VERTEX
8
图层 1
10
481.639730
20
139.224859
70
0
0
VERTEX
8
图层 1
10
479.976656
20
139.299124
70
0
0
VERTEX
8
图层 1
10
477.098349
20
139.047241
70
0
0
VERTEX
8
图层 1
10
475.034250
20
138.610856
70
0
0
VERTEX
8
图层 1
10
475.034250
20
135.279230
70
0
0
VERTEX
8
图层 1
10
475.403255
20
135.279230
70
0
0
VERTEX
8
图层 1
10
477.396445
20
135.984431
70
0
0
VERTEX
8
图层 1
10
479.179380
20
136.261361
70
0
0
VERTEX
8
图层 1
10
480.651783
20
136.151780
70
0
0
VERTEX
8
图层 1
10
481.705616
20
135.824976
70
0
0
VERTEX
8
图层 1
10
482.337925
20
135.212379
70
0
0
VERTEX
8
图层 1
10
482.548753
20
134.247357
70
0
0
VERTEX
8
图层 1
10
482.548753
20
134.171510
70
0
0
VERTEX
8
图层 1
10
479.058025
20
133.827905
70
0
0
VERTEX
8
图层 1
10
477.547875
20
133.518785
70
0
0
VERTEX
8
图层 1
10
476.263678
20
133.038743
70
0
0
VERTEX
8
图层 1
10
475.245917
20
132.387826
70
0
0
VERTEX
8
图层 1
10
474.496971
20
131.540852
70
0
0
VERTEX
8
图层 1
10
474.035054
20
130.446538
70
0
0
VERTEX
8
图层 1
10
473.880317
20
129.056949
70
0
0
VERTEX
8
图层 1
10
473.956070
20
128.162632
70
0
0
VERTEX
8
图层 1
10
474.183396
20
127.348583
70
0
0
VERTEX
8
图层 1
10
474.562395
20
126.614636
70
0
0
VERTEX
8
图层 1
10
475.093164
20
125.960626
70
0
0
VERTEX
8
图层 1
10
475.736944
20
125.423842
70
0
0
VERTEX
8
图层 1
10
476.458543
20
125.039525
70
0
0
VERTEX
8
图层 1
10
477.257864
20
124.808401
70
0
0
VERTEX
8
图层 1
10
478.134807
20
124.731198
70
0
0
VERTEX
8
图层 1
10
479.666212
20
124.877953
70
0
0
VERTEX
8
图层 1
10
480.790866
20
125.310458
70
0
0
VERTEX
8
图层 1
10
481.730663
20
125.897831
70
0
0
VERTEX
8
图层 1
10
482.523353
20
126.564580
70
0
0
SEQEND
8
图层 1
0
POLYLINE
8
图层 1
62
7
70
0
10
0.000000
20
0.000000
66
1
0
VERTEX
8
图层 1
10
482.523353
20
128.700292
70
0
0
VERTEX
8
图层 1
10
482.523353
20
131.578599
70
0
0
VERTEX
8
图层 1
10
480.753118
20
131.389864
70
0
0
VERTEX
8
图层 1
10
479.423149
20
131.075187
70
0
0
VERTEX
8
图层 1
10
478.921412
20
130.827184
70
0
0
VERTEX
8
图层 1
10
478.546145
20
130.479699
70
0
0
VERTEX
8
图层 1
10
478.309829
20
130.013107
70
0
0
VERTEX
8
图层 1
10
478.231468
20
129.413960
70
0
0
VERTEX
8
图层 1
10
478.362746
20
128.594811
70
0
0
VERTEX
8
图层 1
10
478.755695
20
128.079404
70
0
0
VERTEX
8
图层 1
10
479.401056
20
127.808868
70
0
0
VERTEX
8
图层 1
10
480.295919
20
127.718513
70
0
0
VERTEX
8
图层 1
10
481.453733
20
127.978863
70
0
0
VERTEX
8
图层 1
10
482.523353
20
128.700292
70
0
0
SEQEND
8
图层 1
0
POLYLINE
8
图层 1
62
7
70
0
10
0.000000
20
0.000000
66
1
0
VERTEX
8
图层 1
10
501.173615
20
138.904366
70
0
0
VERTEX
8
图层 1
10
494.204153
20
120.036089
70
0
0
VERTEX
8
图层 1
10
489.580657
20
120.036089
70
0
0
VERTEX
8
图层 1
10
491.674036
20
125.419466
70
0
0
VERTEX
8
图层 1
10
486.605336
20
138.904366
70
0
0
VERTEX
8
图层 1
10
491.128995
20
138.904366
70
0
0
VERTEX
8
图层 1
10
494.032350
20
130.236283
70
0
0
VERTEX
8
图层 1
10
496.751203
20
138.904366
70
0
0
VERTEX
8
图层 1
10
501.173615
20
138.904366
70
0
0
SEQEND
8
图层 1
0
POLYLINE
8
图层 1
62
7
70
0
10
0.000000
20
0.000000
66
1
0
VERTEX
8
图层 1
10
474.881851
20
143.402626
70
0
0
VERTEX
8
图层 1
10
470.249536
20
125.100555
70
0
0
VERTEX
8
图层 1
10
465.206236
20
125.100555
70
0
0
VERTEX
8
图层 1
10
462.269015
20
136.420464
70
0
0
VERTEX
8
图层 1
10
459.428454
20
125.100555
70
0
0
VERTEX
8
图层 1
10
454.377040
20
125.100555
70
0
0
VERTEX
8
图层 1
10
449.744726
20
143.402626
70
0
0
VERTEX
8
图层 1
10
454.514976
20
143.402626
70
0
0
VERTEX
8
图层 1
10
457.036979
20
131.138334
70
0
0
VERTEX
8
图层 1
10
460.108256
20
143.402626
70
0
0
VERTEX
8
图层 1
10
464.669309
20
143.402626
70
0
0
VERTEX
8
图层 1
10
467.581131
20
131.121400
70
0
0
VERTEX
8
图层 1
10
470.232603
20
143.402626
70
0
0
VERTEX
8
图层 1
10
474.881851
20
143.402626
70
0
0
SEQEND
8
图层 1
0
POLYLINE
8
图层 1
62
7
70
0
10
0.000000
20
0.000000
66
1
0
VERTEX
8
图层 1
10
403.553164
20
125.100555
70
0
0
VERTEX
8
图层 1
10
403.553164
20
143.121110
70
0
0
VERTEX
8
图层 1
10
409.389859
20
143.121110
70
0
0
VERTEX
8
图层 1
10
412.129790
20
143.051216
70
0
0
VERTEX
8
图层 1
10
413.715611
20
142.848766
70
0
0
VERTEX
8
图层 1
10
415.139727
20
142.205521
70
0
0
VERTEX
8
图层 1
10
416.312755
20
141.086292
70
0
0
VERTEX
8
图层 1
10
416.769811
20
140.357251
70
0
0
VERTEX
8
图层 1
10
417.096361
20
139.529355
70
0
0
VERTEX
8
图层 1
10
417.357680
20
137.578983
70
0
0
VERTEX
8
图层 1
10
417.206207
20
136.050004
70
0
0
VERTEX
8
图层 1
10
416.753373
20
134.788517
70
0
0
VERTEX
8
图层 1
10
416.069162
20
133.777943
70
0
0
VERTEX
8
图层 1
10
415.221968
20
133.009463
70
0
0
VERTEX
8
图层 1
10
414.288520
20
132.472404
70
0
0
VERTEX
8
图层 1
10
413.338139
20
132.157859
70
0
0
VERTEX
8
图层 1
10
411.743058
20
131.960789
70
0
0
VERTEX
8
图层 1
10
409.561661
20
131.897862
70
0
0
VERTEX
8
图层 1
10
407.191000
20
131.897862
70
0
0
VERTEX
8
图层 1
10
407.191000
20
125.100555
70
0
0
VERTEX
8
图层 1
10
403.553164
20
125.100555
70
0
0
SEQEND
8
图层 1
 0 
ENDSEC
 0 
EOF