999
"DXF R12 Output" (www.mydxf.blogspot.com)
 0 
SECTION
 2 
HEADER
 9 
$ACADVER
 1 
AC1009
 9 
$EXTMIN
 10 
 0 
 20 
 0 
 9 
$EXTMAX
 10 
 8.5 
 20 
 11 
 0 
ENDSEC
 0 
SECTION
 2 
ENTITIES
0
POLYLINE
8
Layer 1
62
7
70
1
10
0.000000
20
0.000000
66
1
0
VERTEX
8
Layer 1
10
0.000000
20
37.570800
70
0
0
VERTEX
8
Layer 1
10
123.824844
20
37.570800
70
0
0
VERTEX
8
Layer 1
10
123.824844
20
0.000014
70
0
0
VERTEX
8
Layer 1
10
0.000000
20
0.000014
70
0
0
VERTEX
8
Layer 1
10
0.000000
20
37.570800
70
0
0
VERTEX
8
Layer 1
10
0.000000
20
37.570800
70
0
0
SEQEND
8
Layer 1
0
POLYLINE
8
Layer 1
62
7
70
1
10
0.000000
20
0.000000
66
1
0
VERTEX
8
Layer 1
10
50.804200
20
29.014300
70
0
0
VERTEX
8
Layer 1
10
52.600370
20
27.060307
70
0
0
VERTEX
8
Layer 1
10
53.986677
20
24.798905
70
0
0
VERTEX
8
Layer 1
10
54.920951
20
22.317439
70
0
0
VERTEX
8
Layer 1
10
55.361022
20
19.703252
70
0
0
VERTEX
8
Layer 1
10
55.170583
20
16.568765
70
0
0
VERTEX
8
Layer 1
10
54.877670
20
15.103964
70
0
0
VERTEX
8
Layer 1
10
54.445124
20
13.699373
70
0
0
VERTEX
8
Layer 1
10
53.867069
20
12.348927
70
0
0
VERTEX
8
Layer 1
10
53.137628
20
11.046564
70
0
0
VERTEX
8
Layer 1
10
52.250922
20
9.786218
70
0
0
VERTEX
8
Layer 1
10
51.201075
20
8.561827
70
0
0
VERTEX
8
Layer 1
10
49.739724
20
7.370700
70
0
0
VERTEX
8
Layer 1
10
48.170982
20
6.410894
70
0
0
VERTEX
8
Layer 1
10
46.495682
20
5.642888
70
0
0
VERTEX
8
Layer 1
10
44.714657
20
5.027164
70
0
0
VERTEX
8
Layer 1
10
44.233033
20
4.873168
70
0
0
VERTEX
8
Layer 1
10
41.473789
20
4.616553
70
0
0
VERTEX
8
Layer 1
10
38.755650
20
4.891965
70
0
0
VERTEX
8
Layer 1
10
36.141224
20
5.680168
70
0
0
VERTEX
8
Layer 1
10
33.693121
20
6.961927
70
0
0
VERTEX
8
Layer 1
10
32.275134
20
8.080220
70
0
0
VERTEX
8
Layer 1
10
31.062730
20
9.274139
70
0
0
VERTEX
8
Layer 1
10
30.018306
20
10.614196
70
0
0
VERTEX
8
Layer 1
10
29.104260
20
12.170905
70
0
0
VERTEX
8
Layer 1
10
28.791101
20
12.775518
70
0
0
VERTEX
8
Layer 1
10
28.244130
20
14.083623
70
0
0
VERTEX
8
Layer 1
10
27.848863
20
15.409759
70
0
0
VERTEX
8
Layer 1
10
27.488261
20
18.102035
70
0
0
VERTEX
8
Layer 1
10
27.658932
20
20.824167
70
0
0
VERTEX
8
Layer 1
10
28.310511
20
23.547974
70
0
0
VERTEX
8
Layer 1
10
29.673533
20
26.088720
70
0
0
VERTEX
8
Layer 1
10
31.463521
20
28.281020
70
0
0
VERTEX
8
Layer 1
10
33.628304
20
30.111840
70
0
0
VERTEX
8
Layer 1
10
36.115709
20
31.568146
70
0
0
VERTEX
8
Layer 1
10
38.070463
20
32.208414
70
0
0
VERTEX
8
Layer 1
10
40.010123
20
32.539273
70
0
0
VERTEX
8
Layer 1
10
41.925281
20
32.578355
70
0
0
VERTEX
8
Layer 1
10
43.806527
20
32.343295
70
0
0
VERTEX
8
Layer 1
10
45.644451
20
31.851725
70
0
0
VERTEX
8
Layer 1
10
47.429644
20
31.121281
70
0
0
VERTEX
8
Layer 1
10
49.152697
20
30.169594
70
0
0
VERTEX
8
Layer 1
10
50.804200
20
29.014300
70
0
0
VERTEX
8
Layer 1
10
50.804200
20
29.014300
70
0
0
SEQEND
8
Layer 1
0
POLYLINE
8
Layer 1
62
7
70
1
10
0.000000
20
0.000000
66
1
0
VERTEX
8
Layer 1
10
41.374200
20
34.180900
70
0
0
VERTEX
8
Layer 1
10
42.081133
20
34.180383
70
0
0
VERTEX
8
Layer 1
10
45.601327
20
33.979362
70
0
0
VERTEX
8
Layer 1
10
46.883469
20
33.936742
70
0
0
VERTEX
8
Layer 1
10
48.154139
20
34.131291
70
0
0
VERTEX
8
Layer 1
10
51.559119
20
34.192947
70
0
0
VERTEX
8
Layer 1
10
53.198728
20
34.054986
70
0
0
VERTEX
8
Layer 1
10
54.795550
20
33.777834
70
0
0
VERTEX
8
Layer 1
10
56.348936
20
33.341493
70
0
0
VERTEX
8
Layer 1
10
57.858237
20
32.725966
70
0
0
VERTEX
8
Layer 1
10
59.322803
20
31.911254
70
0
0
VERTEX
8
Layer 1
10
60.741986
20
30.877359
70
0
0
VERTEX
8
Layer 1
10
62.996361
20
28.564034
70
0
0
VERTEX
8
Layer 1
10
63.940891
20
27.304099
70
0
0
VERTEX
8
Layer 1
10
64.753080
20
25.973051
70
0
0
VERTEX
8
Layer 1
10
65.425004
20
24.569190
70
0
0
VERTEX
8
Layer 1
10
65.948735
20
23.090820
70
0
0
VERTEX
8
Layer 1
10
66.316349
20
21.536240
70
0
0
VERTEX
8
Layer 1
10
66.519920
20
19.903753
70
0
0
VERTEX
8
Layer 1
10
66.399334
20
16.551392
70
0
0
VERTEX
8
Layer 1
10
66.128597
20
14.994737
70
0
0
VERTEX
8
Layer 1
10
65.711382
20
13.500059
70
0
0
VERTEX
8
Layer 1
10
65.143055
20
12.054082
70
0
0
VERTEX
8
Layer 1
10
64.418977
20
10.643525
70
0
0
VERTEX
8
Layer 1
10
62.485030
20
7.875562
70
0
0
VERTEX
8
Layer 1
10
61.415974
20
6.824686
70
0
0
VERTEX
8
Layer 1
10
60.245374
20
5.883053
70
0
0
VERTEX
8
Layer 1
10
57.654984
20
4.351709
70
0
0
VERTEX
8
Layer 1
10
54.824743
20
3.329915
70
0
0
VERTEX
8
Layer 1
10
51.865536
20
2.866055
70
0
0
VERTEX
8
Layer 1
10
49.645693
20
2.930992
70
0
0
VERTEX
8
Layer 1
10
47.443073
20
3.208153
70
0
0
VERTEX
8
Layer 1
10
45.622100
20
3.336998
70
0
0
VERTEX
8
Layer 1
10
43.825727
20
3.051056
70
0
0
VERTEX
8
Layer 1
10
41.098900
20
2.800048
70
0
0
VERTEX
8
Layer 1
10
38.365587
20
3.090504
70
0
0
VERTEX
8
Layer 1
10
35.719873
20
3.862755
70
0
0
VERTEX
8
Layer 1
10
33.255843
20
5.057133
70
0
0
VERTEX
8
Layer 1
10
30.749672
20
7.105437
70
0
0
VERTEX
8
Layer 1
10
28.713574
20
9.437591
70
0
0
VERTEX
8
Layer 1
10
27.142522
20
12.102873
70
0
0
VERTEX
8
Layer 1
10
26.031487
20
15.150561
70
0
0
VERTEX
8
Layer 1
10
25.797621
20
18.588281
70
0
0
VERTEX
8
Layer 1
10
25.891666
20
20.244978
70
0
0
VERTEX
8
Layer 1
10
26.138040
20
21.862353
70
0
0
VERTEX
8
Layer 1
10
26.545504
20
23.441997
70
0
0
VERTEX
8
Layer 1
10
27.122814
20
24.985498
70
0
0
VERTEX
8
Layer 1
10
27.878730
20
26.494447
70
0
0
VERTEX
8
Layer 1
10
28.822010
20
27.970434
70
0
0
VERTEX
8
Layer 1
10
30.051442
20
29.409991
70
0
0
VERTEX
8
Layer 1
10
31.385575
20
30.669641
70
0
0
VERTEX
8
Layer 1
10
32.820573
20
31.744587
70
0
0
VERTEX
8
Layer 1
10
34.352596
20
32.630032
70
0
0
VERTEX
8
Layer 1
10
35.977809
20
33.321183
70
0
0
VERTEX
8
Layer 1
10
37.692372
20
33.813241
70
0
0
VERTEX
8
Layer 1
10
39.492449
20
34.101412
70
0
0
VERTEX
8
Layer 1
10
41.374200
20
34.180900
70
0
0
VERTEX
8
Layer 1
10
41.374200
20
34.180900
70
0
0
SEQEND
8
Layer 1
0
POLYLINE
8
Layer 1
62
7
70
1
10
0.000000
20
0.000000
66
1
0
VERTEX
8
Layer 1
10
30.484956
20
27.260401
70
0
0
VERTEX
8
Layer 1
10
29.000681
20
24.985518
70
0
0
VERTEX
8
Layer 1
10
28.017603
20
22.519234
70
0
0
VERTEX
8
Layer 1
10
27.526129
20
19.907928
70
0
0
VERTEX
8
Layer 1
10
27.516665
20
17.197979
70
0
0
VERTEX
8
Layer 1
10
28.085025
20
14.594931
70
0
0
VERTEX
8
Layer 1
10
29.065315
20
12.134320
70
0
0
VERTEX
8
Layer 1
10
30.461903
20
9.890438
70
0
0
VERTEX
8
Layer 1
10
32.279159
20
7.937574
70
0
0
VERTEX
8
Layer 1
10
34.920778
20
6.284882
70
0
0
VERTEX
8
Layer 1
10
37.665542
20
5.203891
70
0
0
VERTEX
8
Layer 1
10
40.561382
20
4.695993
70
0
0
VERTEX
8
Layer 1
10
43.656228
20
4.762578
70
0
0
VERTEX
8
Layer 1
10
46.328588
20
5.503463
70
0
0
VERTEX
8
Layer 1
10
48.805797
20
6.699975
70
0
0
VERTEX
8
Layer 1
10
51.002136
20
8.341913
70
0
0
VERTEX
8
Layer 1
10
51.968191
20
9.326728
70
0
0
VERTEX
8
Layer 1
10
52.831884
20
10.419073
70
0
0
VERTEX
8
Layer 1
10
54.220680
20
13.075073
70
0
0
VERTEX
8
Layer 1
10
55.071121
20
15.805100
70
0
0
VERTEX
8
Layer 1
10
55.375551
20
18.646332
70
0
0
VERTEX
8
Layer 1
10
55.126315
20
21.635945
70
0
0
VERTEX
8
Layer 1
10
54.667647
20
23.115270
70
0
0
VERTEX
8
Layer 1
10
54.082107
20
24.502039
70
0
0
VERTEX
8
Layer 1
10
53.372911
20
25.797767
70
0
0
VERTEX
8
Layer 1
10
52.543275
20
27.003968
70
0
0
VERTEX
8
Layer 1
10
50.535542
20
29.153846
70
0
0
VERTEX
8
Layer 1
10
48.084635
20
30.963788
70
0
0
VERTEX
8
Layer 1
10
45.747044
20
31.994870
70
0
0
VERTEX
8
Layer 1
10
43.370934
20
32.531771
70
0
0
VERTEX
8
Layer 1
10
40.995227
20
32.608152
70
0
0
VERTEX
8
Layer 1
10
38.658843
20
32.257674
70
0
0
VERTEX
8
Layer 1
10
36.400703
20
31.513998
70
0
0
VERTEX
8
Layer 1
10
34.259728
20
30.410787
70
0
0
VERTEX
8
Layer 1
10
32.274839
20
28.981700
70
0
0
VERTEX
8
Layer 1
10
30.484956
20
27.260401
70
0
0
VERTEX
8
Layer 1
10
30.484956
20
27.260401
70
0
0
SEQEND
8
Layer 1
0
POLYLINE
8
Layer 1
62
7
70
1
10
0.000000
20
0.000000
66
1
0
VERTEX
8
Layer 1
10
3.175000
20
33.602100
70
0
0
VERTEX
8
Layer 1
10
11.185934
20
33.564893
70
0
0
VERTEX
8
Layer 1
10
15.565010
20
33.304444
70
0
0
VERTEX
8
Layer 1
10
16.873192
20
33.020741
70
0
0
VERTEX
8
Layer 1
10
17.850118
20
32.597511
70
0
0
VERTEX
8
Layer 1
10
18.688024
20
32.006851
70
0
0
VERTEX
8
Layer 1
10
19.579146
20
31.220853
70
0
0
VERTEX
8
Layer 1
10
20.640118
20
29.812803
70
0
0
VERTEX
8
Layer 1
10
21.236024
20
28.315450
70
0
0
VERTEX
8
Layer 1
10
21.494239
20
26.702776
70
0
0
VERTEX
8
Layer 1
10
21.542137
20
24.948763
70
0
0
VERTEX
8
Layer 1
10
21.359460
20
23.335591
70
0
0
VERTEX
8
Layer 1
10
20.906571
20
21.920910
70
0
0
VERTEX
8
Layer 1
10
20.149460
20
20.640816
70
0
0
VERTEX
8
Layer 1
10
19.054114
20
19.431407
70
0
0
VERTEX
8
Layer 1
10
17.658931
20
18.699454
70
0
0
VERTEX
8
Layer 1
10
16.139567
20
18.256286
70
0
0
VERTEX
8
Layer 1
10
16.725706
20
17.696825
70
0
0
VERTEX
8
Layer 1
10
18.462807
20
15.706933
70
0
0
VERTEX
8
Layer 1
10
20.026673
20
13.516862
70
0
0
VERTEX
8
Layer 1
10
22.907879
20
9.007831
70
0
0
VERTEX
8
Layer 1
10
24.159739
20
7.102976
70
0
0
VERTEX
8
Layer 1
10
24.955555
20
5.890131
70
0
0
VERTEX
8
Layer 1
10
25.333770
20
5.315664
70
0
0
VERTEX
8
Layer 1
10
26.086227
20
4.126963
70
0
0
VERTEX
8
Layer 1
10
26.193721
20
3.704221
70
0
0
VERTEX
8
Layer 1
10
23.664669
20
3.297114
70
0
0
VERTEX
8
Layer 1
10
22.412527
20
3.358418
70
0
0
VERTEX
8
Layer 1
10
21.166644
20
3.704221
70
0
0
VERTEX
8
Layer 1
10
20.033054
20
4.934337
70
0
0
VERTEX
8
Layer 1
10
19.067798
20
6.312951
70
0
0
VERTEX
8
Layer 1
10
17.396336
20
9.238631
70
0
0
VERTEX
8
Layer 1
10
15.345818
20
12.451996
70
0
0
VERTEX
8
Layer 1
10
14.991383
20
12.966370
70
0
0
VERTEX
8
Layer 1
10
13.937780
20
14.325861
70
0
0
VERTEX
8
Layer 1
10
12.820415
20
15.404713
70
0
0
VERTEX
8
Layer 1
10
11.520638
20
16.229014
70
0
0
VERTEX
8
Layer 1
10
9.919799
20
16.824851
70
0
0
VERTEX
8
Layer 1
10
9.032125
20
16.952031
70
0
0
VERTEX
8
Layer 1
10
7.672911
20
16.933371
70
0
0
VERTEX
8
Layer 1
10
7.408328
20
3.704221
70
0
0
VERTEX
8
Layer 1
10
3.175000
20
3.704221
70
0
0
VERTEX
8
Layer 1
10
3.175000
20
33.602100
70
0
0
VERTEX
8
Layer 1
10
3.175000
20
33.602100
70
0
0
SEQEND
8
Layer 1
0
POLYLINE
8
Layer 1
62
7
70
1
10
0.000000
20
0.000000
66
1
0
VERTEX
8
Layer 1
10
100.806000
20
33.602100
70
0
0
VERTEX
8
Layer 1
10
104.245579
20
33.602100
70
0
0
VERTEX
8
Layer 1
10
110.738004
20
18.917485
70
0
0
VERTEX
8
Layer 1
10
113.463609
20
12.707278
70
0
0
VERTEX
8
Layer 1
10
114.453422
20
10.462028
70
0
0
VERTEX
8
Layer 1
10
115.102315
20
8.993790
70
0
0
VERTEX
8
Layer 1
10
116.008154
20
6.941229
70
0
0
VERTEX
8
Layer 1
10
116.284037
20
6.320236
70
0
0
VERTEX
8
Layer 1
10
116.537126
20
5.744146
70
0
0
VERTEX
8
Layer 1
10
116.757869
20
5.244677
70
0
0
VERTEX
8
Layer 1
10
117.210146
20
3.704221
70
0
0
VERTEX
8
Layer 1
10
112.976818
20
3.704221
70
0
0
VERTEX
8
Layer 1
10
110.231769
20
9.558120
70
0
0
VERTEX
8
Layer 1
10
109.944966
20
10.232819
70
0
0
VERTEX
8
Layer 1
10
109.679866
20
10.866565
70
0
0
VERTEX
8
Layer 1
10
109.441767
20
11.435135
70
0
0
VERTEX
8
Layer 1
10
109.272656
20
12.435460
70
0
0
VERTEX
8
Layer 1
10
96.043506
20
12.170877
70
0
0
VERTEX
8
Layer 1
10
94.001385
20
7.390038
70
0
0
VERTEX
8
Layer 1
10
93.614717
20
6.486477
70
0
0
VERTEX
8
Layer 1
10
93.220038
20
5.562762
70
0
0
VERTEX
8
Layer 1
10
92.339344
20
3.704221
70
0
0
VERTEX
8
Layer 1
10
88.106016
20
3.704221
70
0
0
VERTEX
8
Layer 1
10
89.194952
20
6.732127
70
0
0
VERTEX
8
Layer 1
10
90.474037
20
9.685599
70
0
0
VERTEX
8
Layer 1
10
91.815346
20
12.701077
70
0
0
VERTEX
8
Layer 1
10
92.087890
20
13.314919
70
0
0
VERTEX
8
Layer 1
10
94.489081
20
18.851598
70
0
0
VERTEX
8
Layer 1
10
98.305510
20
27.702984
70
0
0
VERTEX
8
Layer 1
10
100.806000
20
33.602100
70
0
0
VERTEX
8
Layer 1
10
100.806000
20
33.602100
70
0
0
SEQEND
8
Layer 1
0
POLYLINE
8
Layer 1
62
7
70
1
10
0.000000
20
0.000000
66
1
0
VERTEX
8
Layer 1
10
83.343800
20
33.072900
70
0
0
VERTEX
8
Layer 1
10
84.083806
20
32.784546
70
0
0
VERTEX
8
Layer 1
10
84.606843
20
32.281703
70
0
0
VERTEX
8
Layer 1
10
84.770649
20
31.794168
70
0
0
VERTEX
8
Layer 1
10
84.749397
20
29.980586
70
0
0
VERTEX
8
Layer 1
10
84.731310
20
29.341350
70
0
0
VERTEX
8
Layer 1
10
84.666715
20
27.781240
70
0
0
VERTEX
8
Layer 1
10
83.606922
20
28.231881
70
0
0
VERTEX
8
Layer 1
10
82.616197
20
28.823036
70
0
0
VERTEX
8
Layer 1
10
81.098359
20
29.610446
70
0
0
VERTEX
8
Layer 1
10
79.540892
20
30.078091
70
0
0
VERTEX
8
Layer 1
10
77.917042
20
30.253072
70
0
0
VERTEX
8
Layer 1
10
76.200059
20
30.162487
70
0
0
VERTEX
8
Layer 1
10
74.699587
20
29.517416
70
0
0
VERTEX
8
Layer 1
10
73.537693
20
28.376552
70
0
0
VERTEX
8
Layer 1
10
73.297630
20
26.880009
70
0
0
VERTEX
8
Layer 1
10
73.554229
20
25.399993
70
0
0
VERTEX
8
Layer 1
10
74.587587
20
24.110249
70
0
0
VERTEX
8
Layer 1
10
75.826125
20
23.048841
70
0
0
VERTEX
8
Layer 1
10
78.594096
20
21.234232
70
0
0
VERTEX
8
Layer 1
10
82.215659
20
18.869002
70
0
0
VERTEX
8
Layer 1
10
84.177066
20
17.357297
70
0
0
VERTEX
8
Layer 1
10
84.747335
20
16.718091
70
0
0
VERTEX
8
Layer 1
10
85.157114
20
16.048154
70
0
0
VERTEX
8
Layer 1
10
85.834601
20
14.290608
70
0
0
VERTEX
8
Layer 1
10
86.040443
20
12.749612
70
0
0
VERTEX
8
Layer 1
10
86.105385
20
11.195193
70
0
0
VERTEX
8
Layer 1
10
86.113718
20
10.623653
70
0
0
VERTEX
8
Layer 1
10
85.948112
20
9.141674
70
0
0
VERTEX
8
Layer 1
10
85.510973
20
7.747125
70
0
0
VERTEX
8
Layer 1
10
84.815019
20
6.457849
70
0
0
VERTEX
8
Layer 1
10
83.872966
20
5.291685
70
0
0
VERTEX
8
Layer 1
10
81.771473
20
4.054269
70
0
0
VERTEX
8
Layer 1
10
79.593291
20
3.350743
70
0
0
VERTEX
8
Layer 1
10
77.305991
20
3.088521
70
0
0
VERTEX
8
Layer 1
10
74.877144
20
3.175021
70
0
0
VERTEX
8
Layer 1
10
73.128729
20
3.611150
70
0
0
VERTEX
8
Layer 1
10
71.437565
20
4.233353
70
0
0
VERTEX
8
Layer 1
10
70.696526
20
4.461763
70
0
0
VERTEX
8
Layer 1
10
69.738242
20
4.977548
70
0
0
VERTEX
8
Layer 1
10
69.056318
20
5.820851
70
0
0
VERTEX
8
Layer 1
10
68.893498
20
8.595627
70
0
0
VERTEX
8
Layer 1
10
69.056318
20
11.377094
70
0
0
VERTEX
8
Layer 1
10
69.414371
20
11.064710
70
0
0
VERTEX
8
Layer 1
10
72.247850
20
8.797410
70
0
0
VERTEX
8
Layer 1
10
72.885537
20
8.338524
70
0
0
VERTEX
8
Layer 1
10
73.876188
20
7.840618
70
0
0
VERTEX
8
Layer 1
10
74.860616
20
7.531467
70
0
0
VERTEX
8
Layer 1
10
76.993808
20
7.325667
70
0
0
VERTEX
8
Layer 1
10
77.936385
20
7.312231
70
0
0
VERTEX
8
Layer 1
10
78.845465
20
7.474663
70
0
0
VERTEX
8
Layer 1
10
79.634620
20
7.766425
70
0
0
VERTEX
8
Layer 1
10
80.351870
20
8.206518
70
0
0
VERTEX
8
Layer 1
10
81.045235
20
8.813946
70
0
0
VERTEX
8
Layer 1
10
81.468274
20
9.639279
70
0
0
VERTEX
8
Layer 1
10
81.681855
20
10.440798
70
0
0
VERTEX
8
Layer 1
10
81.713552
20
11.272249
70
0
0
VERTEX
8
Layer 1
10
81.590938
20
12.187379
70
0
0
VERTEX
8
Layer 1
10
80.960286
20
13.503895
70
0
0
VERTEX
8
Layer 1
10
79.904221
20
14.552090
70
0
0
VERTEX
8
Layer 1
10
79.418463
20
14.960333
70
0
0
VERTEX
8
Layer 1
10
77.601107
20
16.317721
70
0
0
VERTEX
8
Layer 1
10
75.703966
20
17.561722
70
0
0
VERTEX
8
Layer 1
10
73.686818
20
18.896769
70
0
0
VERTEX
8
Layer 1
10
71.878727
20
20.350386
70
0
0
VERTEX
8
Layer 1
10
70.366818
20
22.067449
70
0
0
VERTEX
8
Layer 1
10
69.749159
20
23.070046
70
0
0
VERTEX
8
Layer 1
10
69.238219
20
24.192833
70
0
0
VERTEX
8
Layer 1
10
69.041500
20
25.931154
70
0
0
VERTEX
8
Layer 1
10
69.152710
20
27.554482
70
0
0
VERTEX
8
Layer 1
10
69.571257
20
29.129958
70
0
0
VERTEX
8
Layer 1
10
70.296551
20
30.724726
70
0
0
VERTEX
8
Layer 1
10
71.543988
20
32.080155
70
0
0
VERTEX
8
Layer 1
10
72.873886
20
33.103450
70
0
0
VERTEX
8
Layer 1
10
74.374457
20
33.838619
70
0
0
VERTEX
8
Layer 1
10
76.133913
20
34.329669
70
0
0
VERTEX
8
Layer 1
10
78.007323
20
34.381063
70
0
0
VERTEX
8
Layer 1
10
79.824044
20
34.186638
70
0
0
VERTEX
8
Layer 1
10
81.598172
20
33.749538
70
0
0
VERTEX
8
Layer 1
10
83.343800
20
33.072900
70
0
0
VERTEX
8
Layer 1
10
83.343800
20
33.072900
70
0
0
SEQEND
8
Layer 1
0
POLYLINE
8
Layer 1
62
7
70
1
10
0.000000
20
0.000000
66
1
0
VERTEX
8
Layer 1
10
50.634600
20
32.593400
70
0
0
VERTEX
8
Layer 1
10
53.487157
20
32.300195
70
0
0
VERTEX
8
Layer 1
10
56.130199
20
31.513340
70
0
0
VERTEX
8
Layer 1
10
58.568177
20
30.221102
70
0
0
VERTEX
8
Layer 1
10
60.805543
20
28.411748
70
0
0
VERTEX
8
Layer 1
10
62.555678
20
26.158583
70
0
0
VERTEX
8
Layer 1
10
63.865928
20
23.671055
70
0
0
VERTEX
8
Layer 1
10
64.666335
20
20.984008
70
0
0
VERTEX
8
Layer 1
10
64.853486
20
19.576554
70
0
0
VERTEX
8
Layer 1
10
64.886942
20
18.132285
70
0
0
VERTEX
8
Layer 1
10
64.454406
20
15.464169
70
0
0
VERTEX
8
Layer 1
10
63.631347
20
12.886962
70
0
0
VERTEX
8
Layer 1
10
62.361734
20
10.516030
70
0
0
VERTEX
8
Layer 1
10
61.541960
20
9.443968
70
0
0
VERTEX
8
Layer 1
10
60.589535
20
8.466738
70
0
0
VERTEX
8
Layer 1
10
57.933393
20
6.624048
70
0
0
VERTEX
8
Layer 1
10
56.610842
20
5.965574
70
0
0
VERTEX
8
Layer 1
10
55.263944
20
5.464369
70
0
0
VERTEX
8
Layer 1
10
52.413024
20
4.879834
70
0
0
VERTEX
8
Layer 1
10
49.212466
20
4.762576
70
0
0
VERTEX
8
Layer 1
10
50.555847
20
6.050073
70
0
0
VERTEX
8
Layer 1
10
51.914650
20
7.133084
70
0
0
VERTEX
8
Layer 1
10
53.397204
20
8.022251
70
0
0
VERTEX
8
Layer 1
10
55.111840
20
8.728220
70
0
0
VERTEX
8
Layer 1
10
56.770294
20
9.527960
70
0
0
VERTEX
8
Layer 1
10
58.236567
20
10.604773
70
0
0
VERTEX
8
Layer 1
10
59.477345
20
11.932642
70
0
0
VERTEX
8
Layer 1
10
60.459311
20
13.485546
70
0
0
VERTEX
8
Layer 1
10
61.261996
20
15.822809
70
0
0
VERTEX
8
Layer 1
10
61.588877
20
18.080885
70
0
0
VERTEX
8
Layer 1
10
61.449677
20
20.358461
70
0
0
VERTEX
8
Layer 1
10
60.854118
20
22.754220
70
0
0
VERTEX
8
Layer 1
10
59.963094
20
24.479168
70
0
0
VERTEX
8
Layer 1
10
58.848318
20
26.009246
70
0
0
VERTEX
8
Layer 1
10
57.479673
20
27.300871
70
0
0
VERTEX
8
Layer 1
10
55.827041
20
28.310463
70
0
0
VERTEX
8
Layer 1
10
54.239543
20
28.806556
70
0
0
VERTEX
8
Layer 1
10
53.152436
20
29.229157
70
0
0
VERTEX
8
Layer 1
10
52.227066
20
29.763931
70
0
0
VERTEX
8
Layer 1
10
50.535381
20
31.220876
70
0
0
VERTEX
8
Layer 1
10
49.212466
20
32.279208
70
0
0
VERTEX
8
Layer 1
10
49.862934
20
32.591746
70
0
0
VERTEX
8
Layer 1
10
50.634600
20
32.593400
70
0
0
VERTEX
8
Layer 1
10
50.634600
20
32.593400
70
0
0
SEQEND
8
Layer 1
0
POLYLINE
8
Layer 1
62
7
70
1
10
0.000000
20
0.000000
66
1
0
VERTEX
8
Layer 1
10
41.010400
20
23.812500
70
0
0
VERTEX
8
Layer 1
10
44.185396
20
23.895182
70
0
0
VERTEX
8
Layer 1
10
45.173448
20
23.931679
70
0
0
VERTEX
8
Layer 1
10
46.472765
20
23.895281
70
0
0
VERTEX
8
Layer 1
10
47.626797
20
23.696973
70
0
0
VERTEX
8
Layer 1
10
48.696201
20
23.255495
70
0
0
VERTEX
8
Layer 1
10
49.741639
20
22.489585
70
0
0
VERTEX
8
Layer 1
10
50.513379
20
21.301545
70
0
0
VERTEX
8
Layer 1
10
50.958451
20
20.122306
70
0
0
VERTEX
8
Layer 1
10
51.125846
20
18.869937
70
0
0
VERTEX
8
Layer 1
10
51.064554
20
17.462508
70
0
0
VERTEX
8
Layer 1
10
50.646960
20
16.399788
70
0
0
VERTEX
8
Layer 1
10
50.078065
20
15.489962
70
0
0
VERTEX
8
Layer 1
10
49.340956
20
14.706515
70
0
0
VERTEX
8
Layer 1
10
48.418724
20
14.022929
70
0
0
VERTEX
8
Layer 1
10
46.615663
20
13.570248
70
0
0
VERTEX
8
Layer 1
10
44.735791
20
13.429458
70
0
0
VERTEX
8
Layer 1
10
41.010400
20
13.493763
70
0
0
VERTEX
8
Layer 1
10
41.010400
20
23.812500
70
0
0
VERTEX
8
Layer 1
10
41.010400
20
23.812500
70
0
0
SEQEND
8
Layer 1
0
POLYLINE
8
Layer 1
62
7
70
1
10
0.000000
20
0.000000
66
1
0
VERTEX
8
Layer 1
10
7.408330
20
30.162500
70
0
0
VERTEX
8
Layer 1
10
10.318743
20
30.212109
70
0
0
VERTEX
8
Layer 1
10
11.223079
20
30.234007
70
0
0
VERTEX
8
Layer 1
10
12.509552
20
30.218878
70
0
0
VERTEX
8
Layer 1
10
13.762684
20
30.079728
70
0
0
VERTEX
8
Layer 1
10
14.945665
20
29.707659
70
0
0
VERTEX
8
Layer 1
10
16.021682
20
28.993774
70
0
0
VERTEX
8
Layer 1
10
16.710063
20
28.021565
70
0
0
VERTEX
8
Layer 1
10
17.090061
20
27.051708
70
0
0
VERTEX
8
Layer 1
10
17.248011
20
26.012848
70
0
0
VERTEX
8
Layer 1
10
17.270248
20
24.833633
70
0
0
VERTEX
8
Layer 1
10
16.932958
20
23.305221
70
0
0
VERTEX
8
Layer 1
10
16.139569
20
21.960427
70
0
0
VERTEX
8
Layer 1
10
15.146770
20
21.306560
70
0
0
VERTEX
8
Layer 1
10
14.118873
20
20.889779
70
0
0
VERTEX
8
Layer 1
10
13.029556
20
20.671134
70
0
0
VERTEX
8
Layer 1
10
11.852498
20
20.611674
70
0
0
VERTEX
8
Layer 1
10
11.144273
20
20.613676
70
0
0
VERTEX
8
Layer 1
10
10.252597
20
20.620976
70
0
0
VERTEX
8
Layer 1
10
7.408330
20
20.637512
70
0
0
VERTEX
8
Layer 1
10
7.408330
20
30.162500
70
0
0
VERTEX
8
Layer 1
10
7.408330
20
30.162500
70
0
0
SEQEND
8
Layer 1
0
POLYLINE
8
Layer 1
62
7
70
1
10
0.000000
20
0.000000
66
1
0
VERTEX
8
Layer 1
10
102.394000
20
27.252100
70
0
0
VERTEX
8
Layer 1
10
103.375428
20
25.770804
70
0
0
VERTEX
8
Layer 1
10
104.133427
20
24.159786
70
0
0
VERTEX
8
Layer 1
10
104.396964
20
23.566864
70
0
0
VERTEX
8
Layer 1
10
104.943260
20
22.328634
70
0
0
VERTEX
8
Layer 1
10
105.784486
20
20.437021
70
0
0
VERTEX
8
Layer 1
10
106.316236
20
19.231928
70
0
0
VERTEX
8
Layer 1
10
106.571756
20
18.662260
70
0
0
VERTEX
8
Layer 1
10
107.014183
20
17.438660
70
0
0
VERTEX
8
Layer 1
10
107.156494
20
16.139614
70
0
0
VERTEX
8
Layer 1
10
97.896089
20
16.139614
70
0
0
VERTEX
8
Layer 1
10
98.201193
20
17.805886
70
0
0
VERTEX
8
Layer 1
10
98.550829
20
18.753211
70
0
0
VERTEX
8
Layer 1
10
98.788960
20
19.312079
70
0
0
VERTEX
8
Layer 1
10
99.045371
20
19.898553
70
0
0
VERTEX
8
Layer 1
10
99.309276
20
20.512706
70
0
0
VERTEX
8
Layer 1
10
99.861729
20
21.788810
70
0
0
VERTEX
8
Layer 1
10
100.708317
20
23.749993
70
0
0
VERTEX
8
Layer 1
10
101.244718
20
24.991776
70
0
0
VERTEX
8
Layer 1
10
101.501129
20
25.586365
70
0
0
VERTEX
8
Layer 1
10
102.060749
20
26.822241
70
0
0
VERTEX
8
Layer 1
10
102.394000
20
27.252100
70
0
0
VERTEX
8
Layer 1
10
102.394000
20
27.252100
70
0
0
SEQEND
8
Layer 1
0
POLYLINE
8
Layer 1
62
7
70
1
10
0.000000
20
0.000000
66
1
0
VERTEX
8
Layer 1
10
36.512500
20
24.077100
70
0
0
VERTEX
8
Layer 1
10
37.596442
20
23.464708
70
0
0
VERTEX
8
Layer 1
10
38.364581
20
22.489602
70
0
0
VERTEX
8
Layer 1
10
38.391234
20
21.482325
70
0
0
VERTEX
8
Layer 1
10
38.238513
20
20.649957
70
0
0
VERTEX
8
Layer 1
10
37.884243
20
19.877517
70
0
0
VERTEX
8
Layer 1
10
37.306249
20
19.050023
70
0
0
VERTEX
8
Layer 1
10
37.818879
20
18.553930
70
0
0
VERTEX
8
Layer 1
10
38.309452
20
17.948211
70
0
0
VERTEX
8
Layer 1
10
38.584045
20
17.354981
70
0
0
VERTEX
8
Layer 1
10
38.724249
20
15.902932
70
0
0
VERTEX
8
Layer 1
10
38.530764
20
15.249078
70
0
0
VERTEX
8
Layer 1
10
38.216168
20
14.719073
70
0
0
VERTEX
8
Layer 1
10
37.306249
20
13.758363
70
0
0
VERTEX
8
Layer 1
10
36.230347
20
13.463150
70
0
0
VERTEX
8
Layer 1
10
35.090366
20
13.444171
70
0
0
VERTEX
8
Layer 1
10
34.174661
20
13.432802
70
0
0
VERTEX
8
Layer 1
10
33.179025
20
13.593727
70
0
0
VERTEX
8
Layer 1
10
32.279172
20
14.022946
70
0
0
VERTEX
8
Layer 1
10
32.279172
20
15.610444
70
0
0
VERTEX
8
Layer 1
10
32.887920
20
15.533963
70
0
0
VERTEX
8
Layer 1
10
33.684769
20
15.445080
70
0
0
VERTEX
8
Layer 1
10
34.475418
20
15.352062
70
0
0
VERTEX
8
Layer 1
10
35.244493
20
15.362226
70
0
0
VERTEX
8
Layer 1
10
35.983334
20
15.875027
70
0
0
VERTEX
8
Layer 1
10
35.983334
20
17.462525
70
0
0
VERTEX
8
Layer 1
10
34.660419
20
17.991691
70
0
0
VERTEX
8
Layer 1
10
34.660419
20
19.843772
70
0
0
VERTEX
8
Layer 1
10
35.173049
20
20.025673
70
0
0
VERTEX
8
Layer 1
10
35.726672
20
20.382928
70
0
0
VERTEX
8
Layer 1
10
35.950261
20
21.034396
70
0
0
VERTEX
8
Layer 1
10
35.983334
20
21.695853
70
0
0
VERTEX
8
Layer 1
10
35.423043
20
22.238935
70
0
0
VERTEX
8
Layer 1
10
34.561200
20
22.274628
70
0
0
VERTEX
8
Layer 1
10
33.536967
20
22.186361
70
0
0
VERTEX
8
Layer 1
10
32.543755
20
21.960436
70
0
0
VERTEX
8
Layer 1
10
32.543755
20
23.547934
70
0
0
VERTEX
8
Layer 1
10
33.496596
20
23.968075
70
0
0
VERTEX
8
Layer 1
10
34.466947
20
24.155808
70
0
0
VERTEX
8
Layer 1
10
36.512500
20
24.077100
70
0
0
VERTEX
8
Layer 1
10
36.512500
20
24.077100
70
0
0
SEQEND
8
Layer 1
0
POLYLINE
8
Layer 1
62
7
70
1
10
0.000000
20
0.000000
66
1
0
VERTEX
8
Layer 1
10
43.391700
20
21.960400
70
0
0
VERTEX
8
Layer 1
10
46.291778
20
21.881852
70
0
0
VERTEX
8
Layer 1
10
46.928689
20
21.695300
70
0
0
VERTEX
8
Layer 1
10
47.542346
20
21.332015
70
0
0
VERTEX
8
Layer 1
10
48.095304
20
20.575675
70
0
0
VERTEX
8
Layer 1
10
48.386715
20
19.856134
70
0
0
VERTEX
8
Layer 1
10
48.513862
20
18.137382
70
0
0
VERTEX
8
Layer 1
10
48.339326
20
17.428859
70
0
0
VERTEX
8
Layer 1
10
48.045157
20
16.874924
70
0
0
VERTEX
8
Layer 1
10
47.095862
20
15.874991
70
0
0
VERTEX
8
Layer 1
10
46.224069
20
15.600104
70
0
0
VERTEX
8
Layer 1
10
45.292788
20
15.535103
70
0
0
VERTEX
8
Layer 1
10
43.391700
20
15.610408
70
0
0
VERTEX
8
Layer 1
10
43.391700
20
21.960400
70
0
0
VERTEX
8
Layer 1
10
43.391700
20
21.960400
70
0
0
SEQEND
8
Layer 1
 0 
ENDSEC
 0 
EOF