G04*
G04 #@! TF.GenerationSoftware,Altium Limited,Altium Designer,21.7.2 (23)*
G04*
G04 Layer_Physical_Order=2*
G04 Layer_Color=16711680*
%FSLAX25Y25*%
%MOIN*%
G70*
G04*
G04 #@! TF.SameCoordinates,D3EA2CE5-12AE-4A1D-801E-5BC502E624D2*
G04*
G04*
G04 #@! TF.FilePolarity,Positive*
G04*
G01*
G75*
%ADD10C,0.00787*%
%ADD14C,0.01000*%
%ADD15C,0.01772*%
%ADD16R,0.01378X0.03150*%
G36*
X1003084Y790062D02*
X985004D01*
Y806643D01*
X986162Y807801D01*
X986662Y807594D01*
Y803728D01*
X988201D01*
X988328Y803703D01*
X988670D01*
X989155Y803217D01*
X989249Y802990D01*
X989664Y802575D01*
X990207Y802350D01*
X990794D01*
X991337Y802575D01*
X991752Y802990D01*
X991977Y803532D01*
Y804120D01*
X991752Y804662D01*
X991337Y805078D01*
X990794Y805303D01*
X990782D01*
X990141Y805943D01*
X989716Y806228D01*
X989615Y806248D01*
Y808141D01*
X998473D01*
Y806328D01*
X998383D01*
X997880Y806228D01*
X997454Y805943D01*
X996753Y805241D01*
X996357Y805078D01*
X995942Y804662D01*
X995717Y804120D01*
Y803532D01*
X995942Y802990D01*
X996357Y802575D01*
X996900Y802350D01*
X997487D01*
X998030Y802575D01*
X998445Y802990D01*
X998609Y803385D01*
X998926Y803703D01*
X999761D01*
X999887Y803728D01*
X1001426D01*
Y808141D01*
X1003084D01*
Y790062D01*
D02*
G37*
D10*
X1004280Y808550D02*
G03*
X1004165Y808829I-394J0D01*
G01*
X1004280Y808550D02*
G03*
X1004165Y808829I-394J0D01*
G01*
X1003771Y809223D02*
G03*
X1003493Y809338I-279J-279D01*
G01*
X1003771Y809223D02*
G03*
X1003493Y809338I-279J-279D01*
G01*
X1004165Y789374D02*
G03*
X1004280Y789653I-279J279D01*
G01*
X1004165Y789374D02*
G03*
X1004280Y789653I-279J279D01*
G01*
X1003493Y788865D02*
G03*
X1003771Y788981I0J394D01*
G01*
X1003493Y788865D02*
G03*
X1003771Y788981I0J394D01*
G01*
X986170Y809338D02*
G03*
X985892Y809223I0J-394D01*
G01*
X986170Y809338D02*
G03*
X985892Y809223I0J-394D01*
G01*
X983923Y807254D02*
G03*
X983808Y806976I279J-279D01*
G01*
X983923Y807254D02*
G03*
X983808Y806976I279J-279D01*
G01*
X984317Y788981D02*
G03*
X984595Y788865I279J279D01*
G01*
X984317Y788981D02*
G03*
X984595Y788865I279J279D01*
G01*
X983808Y789653D02*
G03*
X983923Y789374I394J0D01*
G01*
X983808Y789653D02*
G03*
X983923Y789374I394J0D01*
G01*
X1003771Y809223D02*
X1004165Y808829D01*
X1004280Y789653D02*
Y808550D01*
X1003771Y788981D02*
X1004165Y789374D01*
X986170Y809338D02*
X1003493D01*
X983923Y807254D02*
X985892Y809223D01*
X983808Y789653D02*
Y806976D01*
X984595Y788865D02*
X1003493D01*
X983923Y789374D02*
X984317Y788981D01*
D14*
X988138Y805204D02*
Y806090D01*
X997194Y803826D02*
X998383Y805015D01*
X999761D02*
X999949Y805204D01*
X998383Y805015D02*
X999761D01*
X990402Y803826D02*
X990501D01*
X989213Y805015D02*
X990402Y803826D01*
X988328Y805015D02*
X989213D01*
X988138Y805204D02*
X988328Y805015D01*
X999949Y805204D02*
Y806090D01*
D15*
X997194Y803826D02*
D03*
X990501D02*
D03*
X987745Y797133D02*
D03*
X999949D02*
D03*
D16*
X988138Y806090D02*
D03*
X999949D02*
D03*
Y792113D02*
D03*
X988138D02*
D03*
M02*
