G04*
G04 #@! TF.GenerationSoftware,Altium Limited,Altium Designer,21.7.2 (23)*
G04*
G04 Layer_Color=65535*
%FSLAX25Y25*%
%MOIN*%
G70*
G04*
G04 #@! TF.SameCoordinates,D3EA2CE5-12AE-4A1D-801E-5BC502E624D2*
G04*
G04*
G04 #@! TF.FilePolarity,Positive*
G04*
G01*
G75*
%ADD10C,0.00787*%
%ADD11C,0.00394*%
G36*
X1003071Y807576D02*
Y807362D01*
X1001418Y806763D01*
Y806978D01*
X1002728Y807436D01*
X1002731D01*
X1002739Y807441D01*
X1002752Y807443D01*
X1002772Y807449D01*
X1002794Y807454D01*
X1002818Y807460D01*
X1002846Y807465D01*
X1002877Y807469D01*
Y807473D01*
X1002875D01*
X1002864Y807475D01*
X1002851Y807478D01*
X1002831Y807482D01*
X1002809Y807489D01*
X1002783Y807495D01*
X1002757Y807504D01*
X1002726Y807512D01*
X1001418Y807979D01*
Y808188D01*
X1003071Y807576D01*
D02*
G37*
G36*
X1002643Y806564D02*
X1002672Y806562D01*
X1002702Y806555D01*
X1002737Y806549D01*
X1002772Y806538D01*
X1002807Y806525D01*
X1002811Y806523D01*
X1002822Y806518D01*
X1002840Y806507D01*
X1002861Y806494D01*
X1002886Y806477D01*
X1002912Y806457D01*
X1002938Y806433D01*
X1002964Y806407D01*
X1002966Y806403D01*
X1002975Y806394D01*
X1002986Y806377D01*
X1003001Y806355D01*
X1003016Y806329D01*
X1003034Y806296D01*
X1003049Y806261D01*
X1003064Y806222D01*
Y806220D01*
X1003066Y806218D01*
Y806211D01*
X1003069Y806202D01*
X1003075Y806180D01*
X1003082Y806152D01*
X1003088Y806117D01*
X1003093Y806078D01*
X1003097Y806034D01*
X1003099Y805986D01*
Y805965D01*
X1003097Y805947D01*
Y805928D01*
X1003095Y805904D01*
X1003093Y805880D01*
X1003088Y805851D01*
X1003077Y805793D01*
X1003062Y805729D01*
X1003040Y805668D01*
X1003025Y805640D01*
X1003010Y805612D01*
X1002807D01*
X1002809Y805614D01*
X1002814Y805618D01*
X1002820Y805629D01*
X1002827Y805640D01*
X1002837Y805657D01*
X1002848Y805675D01*
X1002861Y805697D01*
X1002872Y805721D01*
X1002886Y805749D01*
X1002899Y805777D01*
X1002909Y805810D01*
X1002918Y805843D01*
X1002927Y805877D01*
X1002934Y805915D01*
X1002938Y805954D01*
X1002940Y805993D01*
Y806008D01*
X1002938Y806024D01*
Y806045D01*
X1002936Y806069D01*
X1002931Y806096D01*
X1002918Y806150D01*
Y806152D01*
X1002914Y806161D01*
X1002909Y806174D01*
X1002903Y806191D01*
X1002892Y806211D01*
X1002883Y806231D01*
X1002855Y806270D01*
X1002853Y806272D01*
X1002848Y806279D01*
X1002840Y806287D01*
X1002827Y806298D01*
X1002811Y806311D01*
X1002796Y806324D01*
X1002777Y806335D01*
X1002755Y806346D01*
X1002752Y806348D01*
X1002744Y806351D01*
X1002733Y806355D01*
X1002715Y806361D01*
X1002696Y806366D01*
X1002674Y806370D01*
X1002648Y806372D01*
X1002622Y806374D01*
X1002617D01*
X1002609D01*
X1002591Y806372D01*
X1002572Y806368D01*
X1002545Y806361D01*
X1002519Y806351D01*
X1002489Y806335D01*
X1002458Y806318D01*
X1002430Y806292D01*
X1002399Y806261D01*
X1002373Y806224D01*
X1002347Y806180D01*
X1002336Y806154D01*
X1002327Y806126D01*
X1002319Y806098D01*
X1002310Y806065D01*
X1002306Y806030D01*
X1002301Y805993D01*
X1002297Y805954D01*
Y805775D01*
X1002138D01*
Y805923D01*
X1002136Y805943D01*
X1002133Y805969D01*
X1002129Y806000D01*
X1002122Y806034D01*
X1002112Y806071D01*
X1002098Y806111D01*
X1002083Y806148D01*
X1002064Y806185D01*
X1002038Y806220D01*
X1002009Y806250D01*
X1001974Y806276D01*
X1001933Y806296D01*
X1001887Y806309D01*
X1001861Y806311D01*
X1001833Y806314D01*
X1001830D01*
X1001820D01*
X1001806Y806311D01*
X1001789Y806309D01*
X1001767Y806305D01*
X1001743Y806296D01*
X1001717Y806287D01*
X1001691Y806274D01*
X1001665Y806259D01*
X1001641Y806237D01*
X1001617Y806213D01*
X1001595Y806183D01*
X1001577Y806146D01*
X1001564Y806104D01*
X1001554Y806056D01*
X1001551Y806002D01*
Y805984D01*
X1001554Y805971D01*
X1001556Y805956D01*
X1001558Y805939D01*
X1001560Y805919D01*
X1001567Y805895D01*
X1001580Y805845D01*
X1001602Y805790D01*
X1001615Y805762D01*
X1001630Y805734D01*
X1001647Y805703D01*
X1001669Y805675D01*
X1001486D01*
X1001484Y805677D01*
X1001482Y805681D01*
X1001477Y805690D01*
X1001471Y805703D01*
X1001464Y805718D01*
X1001455Y805736D01*
X1001447Y805758D01*
X1001438Y805782D01*
X1001429Y805808D01*
X1001420Y805836D01*
X1001412Y805867D01*
X1001405Y805899D01*
X1001394Y805971D01*
X1001390Y806011D01*
Y806067D01*
X1001392Y806087D01*
X1001394Y806113D01*
X1001397Y806141D01*
X1001403Y806174D01*
X1001410Y806205D01*
X1001420Y806237D01*
X1001423Y806242D01*
X1001425Y806252D01*
X1001431Y806268D01*
X1001440Y806287D01*
X1001453Y806309D01*
X1001466Y806333D01*
X1001482Y806357D01*
X1001501Y806381D01*
X1001503Y806383D01*
X1001510Y806392D01*
X1001521Y806403D01*
X1001536Y806416D01*
X1001554Y806431D01*
X1001575Y806446D01*
X1001599Y806462D01*
X1001625Y806475D01*
X1001628Y806477D01*
X1001639Y806479D01*
X1001654Y806486D01*
X1001671Y806492D01*
X1001695Y806497D01*
X1001724Y806503D01*
X1001752Y806505D01*
X1001785Y806507D01*
X1001789D01*
X1001798D01*
X1001815Y806505D01*
X1001837Y806503D01*
X1001863Y806497D01*
X1001894Y806490D01*
X1001926Y806479D01*
X1001959Y806466D01*
X1001996Y806449D01*
X1002031Y806427D01*
X1002066Y806401D01*
X1002101Y806368D01*
X1002131Y806331D01*
X1002160Y806287D01*
X1002186Y806237D01*
X1002205Y806178D01*
X1002210D01*
Y806183D01*
X1002212Y806191D01*
X1002214Y806209D01*
X1002218Y806229D01*
X1002223Y806252D01*
X1002232Y806279D01*
X1002240Y806307D01*
X1002251Y806333D01*
X1002253Y806335D01*
X1002258Y806346D01*
X1002264Y806359D01*
X1002273Y806374D01*
X1002284Y806394D01*
X1002299Y806416D01*
X1002314Y806436D01*
X1002334Y806455D01*
X1002336Y806457D01*
X1002343Y806464D01*
X1002354Y806473D01*
X1002367Y806486D01*
X1002386Y806499D01*
X1002406Y806512D01*
X1002428Y806525D01*
X1002454Y806536D01*
X1002456Y806538D01*
X1002465Y806540D01*
X1002480Y806545D01*
X1002497Y806551D01*
X1002519Y806558D01*
X1002545Y806562D01*
X1002574Y806564D01*
X1002604Y806566D01*
X1002606D01*
X1002609D01*
X1002615D01*
X1002624D01*
X1002643Y806564D01*
D02*
G37*
G36*
X1002986Y805341D02*
X1002999Y805339D01*
X1003014Y805335D01*
X1003027Y805326D01*
X1003042Y805317D01*
X1003058Y805304D01*
X1003060Y805302D01*
X1003064Y805298D01*
X1003069Y805289D01*
X1003075Y805278D01*
X1003084Y805265D01*
X1003088Y805250D01*
X1003093Y805232D01*
X1003095Y805213D01*
Y805204D01*
X1003093Y805195D01*
X1003090Y805182D01*
X1003086Y805167D01*
X1003080Y805154D01*
X1003071Y805138D01*
X1003058Y805123D01*
X1003055Y805121D01*
X1003051Y805117D01*
X1003042Y805112D01*
X1003032Y805106D01*
X1003018Y805097D01*
X1003003Y805093D01*
X1002988Y805088D01*
X1002968Y805086D01*
X1002966D01*
X1002960D01*
X1002949Y805088D01*
X1002938Y805091D01*
X1002923Y805095D01*
X1002907Y805101D01*
X1002892Y805110D01*
X1002877Y805123D01*
X1002875Y805125D01*
X1002870Y805130D01*
X1002864Y805138D01*
X1002857Y805149D01*
X1002851Y805163D01*
X1002844Y805178D01*
X1002840Y805193D01*
X1002837Y805213D01*
Y805221D01*
X1002840Y805232D01*
X1002842Y805245D01*
X1002846Y805258D01*
X1002855Y805274D01*
X1002864Y805289D01*
X1002877Y805304D01*
X1002879Y805306D01*
X1002883Y805311D01*
X1002892Y805317D01*
X1002903Y805324D01*
X1002916Y805330D01*
X1002931Y805337D01*
X1002949Y805341D01*
X1002968Y805343D01*
X1002971D01*
X1002977D01*
X1002986Y805341D01*
D02*
G37*
G36*
X1002643Y804779D02*
X1002672Y804777D01*
X1002702Y804770D01*
X1002737Y804764D01*
X1002772Y804753D01*
X1002807Y804739D01*
X1002811Y804737D01*
X1002822Y804733D01*
X1002840Y804722D01*
X1002861Y804709D01*
X1002886Y804692D01*
X1002912Y804672D01*
X1002938Y804648D01*
X1002964Y804622D01*
X1002966Y804618D01*
X1002975Y804609D01*
X1002986Y804591D01*
X1003001Y804570D01*
X1003016Y804543D01*
X1003034Y804511D01*
X1003049Y804476D01*
X1003064Y804436D01*
Y804434D01*
X1003066Y804432D01*
Y804426D01*
X1003069Y804417D01*
X1003075Y804395D01*
X1003082Y804367D01*
X1003088Y804332D01*
X1003093Y804293D01*
X1003097Y804249D01*
X1003099Y804201D01*
Y804179D01*
X1003097Y804162D01*
Y804142D01*
X1003095Y804118D01*
X1003093Y804094D01*
X1003088Y804066D01*
X1003077Y804007D01*
X1003062Y803944D01*
X1003040Y803883D01*
X1003025Y803854D01*
X1003010Y803826D01*
X1002807D01*
X1002809Y803828D01*
X1002814Y803833D01*
X1002820Y803844D01*
X1002827Y803854D01*
X1002837Y803872D01*
X1002848Y803889D01*
X1002861Y803911D01*
X1002872Y803935D01*
X1002886Y803963D01*
X1002899Y803992D01*
X1002909Y804025D01*
X1002918Y804057D01*
X1002927Y804092D01*
X1002934Y804129D01*
X1002938Y804168D01*
X1002940Y804208D01*
Y804223D01*
X1002938Y804238D01*
Y804260D01*
X1002936Y804284D01*
X1002931Y804310D01*
X1002918Y804365D01*
Y804367D01*
X1002914Y804375D01*
X1002909Y804389D01*
X1002903Y804406D01*
X1002892Y804426D01*
X1002883Y804445D01*
X1002855Y804484D01*
X1002853Y804487D01*
X1002848Y804493D01*
X1002840Y804502D01*
X1002827Y804513D01*
X1002811Y804526D01*
X1002796Y804539D01*
X1002777Y804550D01*
X1002755Y804561D01*
X1002752Y804563D01*
X1002744Y804565D01*
X1002733Y804570D01*
X1002715Y804576D01*
X1002696Y804580D01*
X1002674Y804585D01*
X1002648Y804587D01*
X1002622Y804589D01*
X1002617D01*
X1002609D01*
X1002591Y804587D01*
X1002572Y804583D01*
X1002545Y804576D01*
X1002519Y804565D01*
X1002489Y804550D01*
X1002458Y804532D01*
X1002430Y804506D01*
X1002399Y804476D01*
X1002373Y804439D01*
X1002347Y804395D01*
X1002336Y804369D01*
X1002327Y804341D01*
X1002319Y804312D01*
X1002310Y804280D01*
X1002306Y804245D01*
X1002301Y804208D01*
X1002297Y804168D01*
Y803990D01*
X1002138D01*
Y804138D01*
X1002136Y804158D01*
X1002133Y804184D01*
X1002129Y804214D01*
X1002122Y804249D01*
X1002112Y804286D01*
X1002098Y804325D01*
X1002083Y804362D01*
X1002064Y804399D01*
X1002038Y804434D01*
X1002009Y804465D01*
X1001974Y804491D01*
X1001933Y804511D01*
X1001887Y804524D01*
X1001861Y804526D01*
X1001833Y804528D01*
X1001830D01*
X1001820D01*
X1001806Y804526D01*
X1001789Y804524D01*
X1001767Y804519D01*
X1001743Y804511D01*
X1001717Y804502D01*
X1001691Y804489D01*
X1001665Y804474D01*
X1001641Y804452D01*
X1001617Y804428D01*
X1001595Y804397D01*
X1001577Y804360D01*
X1001564Y804319D01*
X1001554Y804271D01*
X1001551Y804216D01*
Y804199D01*
X1001554Y804186D01*
X1001556Y804171D01*
X1001558Y804153D01*
X1001560Y804134D01*
X1001567Y804109D01*
X1001580Y804059D01*
X1001602Y804005D01*
X1001615Y803977D01*
X1001630Y803948D01*
X1001647Y803918D01*
X1001669Y803889D01*
X1001486D01*
X1001484Y803891D01*
X1001482Y803896D01*
X1001477Y803905D01*
X1001471Y803918D01*
X1001464Y803933D01*
X1001455Y803950D01*
X1001447Y803972D01*
X1001438Y803996D01*
X1001429Y804022D01*
X1001420Y804051D01*
X1001412Y804081D01*
X1001405Y804114D01*
X1001394Y804186D01*
X1001390Y804225D01*
Y804282D01*
X1001392Y804301D01*
X1001394Y804327D01*
X1001397Y804356D01*
X1001403Y804389D01*
X1001410Y804419D01*
X1001420Y804452D01*
X1001423Y804456D01*
X1001425Y804467D01*
X1001431Y804482D01*
X1001440Y804502D01*
X1001453Y804524D01*
X1001466Y804548D01*
X1001482Y804572D01*
X1001501Y804596D01*
X1001503Y804598D01*
X1001510Y804607D01*
X1001521Y804618D01*
X1001536Y804630D01*
X1001554Y804646D01*
X1001575Y804661D01*
X1001599Y804676D01*
X1001625Y804689D01*
X1001628Y804692D01*
X1001639Y804694D01*
X1001654Y804700D01*
X1001671Y804707D01*
X1001695Y804711D01*
X1001724Y804718D01*
X1001752Y804720D01*
X1001785Y804722D01*
X1001789D01*
X1001798D01*
X1001815Y804720D01*
X1001837Y804718D01*
X1001863Y804711D01*
X1001894Y804705D01*
X1001926Y804694D01*
X1001959Y804681D01*
X1001996Y804663D01*
X1002031Y804641D01*
X1002066Y804615D01*
X1002101Y804583D01*
X1002131Y804545D01*
X1002160Y804502D01*
X1002186Y804452D01*
X1002205Y804393D01*
X1002210D01*
Y804397D01*
X1002212Y804406D01*
X1002214Y804423D01*
X1002218Y804443D01*
X1002223Y804467D01*
X1002232Y804493D01*
X1002240Y804521D01*
X1002251Y804548D01*
X1002253Y804550D01*
X1002258Y804561D01*
X1002264Y804574D01*
X1002273Y804589D01*
X1002284Y804609D01*
X1002299Y804630D01*
X1002314Y804650D01*
X1002334Y804670D01*
X1002336Y804672D01*
X1002343Y804679D01*
X1002354Y804687D01*
X1002367Y804700D01*
X1002386Y804713D01*
X1002406Y804727D01*
X1002428Y804739D01*
X1002454Y804750D01*
X1002456Y804753D01*
X1002465Y804755D01*
X1002480Y804759D01*
X1002497Y804766D01*
X1002519Y804772D01*
X1002545Y804777D01*
X1002574Y804779D01*
X1002604Y804781D01*
X1002606D01*
X1002609D01*
X1002615D01*
X1002624D01*
X1002643Y804779D01*
D02*
G37*
G36*
X986657Y806449D02*
X985004D01*
Y806643D01*
X986657D01*
Y806449D01*
D02*
G37*
G36*
Y805503D02*
X986655Y805483D01*
X986652Y805457D01*
X986650Y805427D01*
X986646Y805392D01*
X986637Y805357D01*
X986628Y805322D01*
X986626Y805318D01*
X986624Y805307D01*
X986617Y805289D01*
X986609Y805268D01*
X986596Y805244D01*
X986583Y805215D01*
X986565Y805189D01*
X986546Y805163D01*
X986543Y805161D01*
X986537Y805152D01*
X986524Y805139D01*
X986508Y805124D01*
X986489Y805109D01*
X986465Y805091D01*
X986439Y805074D01*
X986408Y805058D01*
X986404Y805056D01*
X986393Y805052D01*
X986378Y805045D01*
X986354Y805039D01*
X986325Y805032D01*
X986293Y805026D01*
X986256Y805021D01*
X986216Y805019D01*
X986212D01*
X986201D01*
X986186Y805021D01*
X986164D01*
X986140Y805026D01*
X986112Y805030D01*
X986086Y805037D01*
X986057Y805045D01*
X986055Y805047D01*
X986044Y805050D01*
X986031Y805056D01*
X986014Y805065D01*
X985994Y805076D01*
X985972Y805087D01*
X985929Y805119D01*
X985926Y805122D01*
X985920Y805128D01*
X985909Y805139D01*
X985896Y805152D01*
X985881Y805169D01*
X985865Y805189D01*
X985848Y805211D01*
X985833Y805235D01*
X985830Y805237D01*
X985826Y805246D01*
X985820Y805261D01*
X985811Y805278D01*
X985800Y805300D01*
X985791Y805326D01*
X985780Y805355D01*
X985772Y805385D01*
X985767D01*
Y805383D01*
X985763Y805379D01*
X985761Y805370D01*
X985754Y805361D01*
X985741Y805337D01*
X985724Y805313D01*
Y805311D01*
X985719Y805309D01*
X985708Y805294D01*
X985689Y805276D01*
X985667Y805257D01*
X985665Y805254D01*
X985663Y805252D01*
X985656Y805246D01*
X985647Y805239D01*
X985623Y805222D01*
X985595Y805202D01*
X985593Y805200D01*
X985588Y805198D01*
X985580Y805191D01*
X985567Y805185D01*
X985554Y805174D01*
X985536Y805165D01*
X985499Y805141D01*
X985004Y804829D01*
Y805060D01*
X985466Y805337D01*
X985469Y805340D01*
X985477Y805344D01*
X985490Y805353D01*
X985506Y805361D01*
X985541Y805385D01*
X985575Y805412D01*
X985578Y805414D01*
X985584Y805418D01*
X985591Y805425D01*
X985602Y805433D01*
X985626Y805457D01*
X985650Y805486D01*
X985652Y805488D01*
X985654Y805492D01*
X985660Y805499D01*
X985667Y805510D01*
X985680Y805536D01*
X985693Y805566D01*
Y805568D01*
X985695Y805573D01*
X985697Y805581D01*
X985700Y805595D01*
X985702Y805608D01*
X985704Y805625D01*
X985706Y805662D01*
Y805821D01*
X985004D01*
Y806015D01*
X986657D01*
Y805503D01*
D02*
G37*
G36*
X1000189Y791518D02*
X999939D01*
X999110Y792815D01*
X999108Y792819D01*
X999102Y792828D01*
X999093Y792841D01*
X999082Y792858D01*
X999060Y792895D01*
X999049Y792913D01*
X999043Y792926D01*
X999038D01*
Y792921D01*
X999040Y792913D01*
X999043Y792893D01*
X999045Y792869D01*
X999047Y792834D01*
X999049Y792815D01*
Y792793D01*
Y792769D01*
X999051Y792741D01*
Y792712D01*
Y792682D01*
Y791518D01*
X998857D01*
Y793170D01*
X999095D01*
X999945Y791853D01*
X999947Y791851D01*
X999949Y791845D01*
X999956Y791834D01*
X999965Y791821D01*
X999971Y791805D01*
X999980Y791788D01*
X999998Y791749D01*
X1000004D01*
Y791751D01*
X1000002Y791760D01*
Y791775D01*
X1000000Y791797D01*
Y791812D01*
X999998Y791829D01*
Y791847D01*
Y791869D01*
X999995Y791892D01*
Y791917D01*
Y791947D01*
Y791978D01*
Y793170D01*
X1000189D01*
Y791518D01*
D02*
G37*
G36*
X1001162Y793194D02*
X1001186Y793192D01*
X1001216Y793190D01*
X1001251Y793183D01*
X1001288Y793177D01*
X1001332Y793168D01*
X1001375Y793155D01*
X1001421Y793142D01*
X1001469Y793122D01*
X1001517Y793100D01*
X1001565Y793074D01*
X1001613Y793044D01*
X1001656Y793009D01*
X1001700Y792970D01*
X1001702Y792967D01*
X1001709Y792959D01*
X1001720Y792945D01*
X1001735Y792928D01*
X1001750Y792906D01*
X1001770Y792878D01*
X1001789Y792845D01*
X1001809Y792808D01*
X1001829Y792767D01*
X1001848Y792723D01*
X1001868Y792673D01*
X1001883Y792619D01*
X1001898Y792562D01*
X1001909Y792501D01*
X1001916Y792435D01*
X1001918Y792366D01*
Y792363D01*
Y792361D01*
Y792348D01*
X1001916Y792329D01*
X1001914Y792302D01*
X1001912Y792270D01*
X1001905Y792230D01*
X1001898Y792189D01*
X1001888Y792143D01*
X1001874Y792093D01*
X1001859Y792043D01*
X1001840Y791991D01*
X1001816Y791938D01*
X1001787Y791886D01*
X1001757Y791834D01*
X1001720Y791784D01*
X1001676Y791736D01*
X1001674Y791733D01*
X1001665Y791725D01*
X1001652Y791714D01*
X1001632Y791696D01*
X1001608Y791679D01*
X1001580Y791657D01*
X1001545Y791635D01*
X1001508Y791611D01*
X1001465Y791589D01*
X1001419Y791568D01*
X1001367Y791546D01*
X1001312Y791529D01*
X1001255Y791511D01*
X1001192Y791500D01*
X1001127Y791491D01*
X1001059Y791489D01*
X1001033D01*
X1001013Y791491D01*
X1000992D01*
X1000965Y791494D01*
X1000935Y791496D01*
X1000902Y791500D01*
X1000830Y791511D01*
X1000756Y791526D01*
X1000680Y791548D01*
X1000608Y791579D01*
Y791792D01*
X1000610Y791790D01*
X1000617Y791786D01*
X1000628Y791781D01*
X1000643Y791773D01*
X1000662Y791764D01*
X1000686Y791753D01*
X1000712Y791740D01*
X1000743Y791729D01*
X1000776Y791718D01*
X1000811Y791705D01*
X1000850Y791694D01*
X1000891Y791685D01*
X1000937Y791677D01*
X1000983Y791670D01*
X1001031Y791668D01*
X1001081Y791666D01*
X1001094D01*
X1001107Y791668D01*
X1001127D01*
X1001151Y791672D01*
X1001179Y791677D01*
X1001210Y791681D01*
X1001242Y791690D01*
X1001279Y791701D01*
X1001314Y791712D01*
X1001353Y791729D01*
X1001393Y791747D01*
X1001430Y791768D01*
X1001467Y791794D01*
X1001504Y791823D01*
X1001539Y791858D01*
X1001541Y791860D01*
X1001545Y791866D01*
X1001554Y791877D01*
X1001567Y791892D01*
X1001580Y791910D01*
X1001595Y791934D01*
X1001611Y791960D01*
X1001626Y791991D01*
X1001643Y792023D01*
X1001659Y792063D01*
X1001674Y792102D01*
X1001687Y792145D01*
X1001698Y792193D01*
X1001707Y792243D01*
X1001713Y792296D01*
X1001715Y792352D01*
Y792357D01*
Y792366D01*
X1001713Y792383D01*
Y792405D01*
X1001711Y792431D01*
X1001707Y792461D01*
X1001702Y792494D01*
X1001694Y792531D01*
X1001685Y792570D01*
X1001674Y792610D01*
X1001661Y792651D01*
X1001645Y792693D01*
X1001626Y792734D01*
X1001604Y792773D01*
X1001578Y792810D01*
X1001550Y792845D01*
X1001547Y792847D01*
X1001541Y792852D01*
X1001532Y792863D01*
X1001519Y792873D01*
X1001502Y792887D01*
X1001482Y792902D01*
X1001458Y792917D01*
X1001432Y792935D01*
X1001401Y792952D01*
X1001369Y792967D01*
X1001332Y792982D01*
X1001290Y792996D01*
X1001249Y793007D01*
X1001203Y793015D01*
X1001155Y793022D01*
X1001103Y793024D01*
X1001083D01*
X1001070Y793022D01*
X1001053D01*
X1001033Y793020D01*
X1001011Y793017D01*
X1000987Y793015D01*
X1000935Y793004D01*
X1000878Y792991D01*
X1000821Y792974D01*
X1000767Y792948D01*
Y792483D01*
X1001129D01*
Y792309D01*
X1000573D01*
Y793059D01*
X1000575Y793061D01*
X1000584Y793065D01*
X1000597Y793072D01*
X1000617Y793081D01*
X1000641Y793091D01*
X1000667Y793102D01*
X1000699Y793116D01*
X1000734Y793126D01*
X1000776Y793140D01*
X1000817Y793153D01*
X1000863Y793163D01*
X1000911Y793174D01*
X1000963Y793183D01*
X1001015Y793190D01*
X1001070Y793194D01*
X1001127Y793196D01*
X1001142D01*
X1001162Y793194D01*
D02*
G37*
G36*
X998423Y791518D02*
X997946D01*
X997931Y791520D01*
X997911D01*
X997887Y791522D01*
X997861Y791526D01*
X997830Y791531D01*
X997800Y791535D01*
X997765Y791542D01*
X997691Y791559D01*
X997612Y791585D01*
X997571Y791600D01*
X997530Y791618D01*
X997491Y791638D01*
X997449Y791662D01*
X997410Y791685D01*
X997371Y791714D01*
X997334Y791747D01*
X997296Y791779D01*
X997262Y791816D01*
X997231Y791858D01*
X997200Y791901D01*
X997174Y791949D01*
X997150Y792001D01*
X997131Y792058D01*
X997116Y792117D01*
X997102Y792182D01*
X997096Y792250D01*
X997094Y792324D01*
Y792329D01*
Y792342D01*
X997096Y792361D01*
X997098Y792387D01*
X997100Y792420D01*
X997107Y792457D01*
X997113Y792499D01*
X997124Y792544D01*
X997137Y792592D01*
X997153Y792642D01*
X997172Y792693D01*
X997196Y792745D01*
X997225Y792795D01*
X997255Y792845D01*
X997292Y792893D01*
X997336Y792939D01*
X997338Y792941D01*
X997347Y792950D01*
X997360Y792961D01*
X997379Y792976D01*
X997403Y792993D01*
X997434Y793013D01*
X997469Y793033D01*
X997508Y793054D01*
X997552Y793076D01*
X997602Y793096D01*
X997654Y793116D01*
X997713Y793133D01*
X997774Y793148D01*
X997839Y793159D01*
X997911Y793168D01*
X997985Y793170D01*
X998423D01*
Y791518D01*
D02*
G37*
G36*
X990347D02*
X990096D01*
X989268Y792815D01*
X989266Y792819D01*
X989259Y792828D01*
X989250Y792841D01*
X989239Y792858D01*
X989217Y792895D01*
X989207Y792913D01*
X989200Y792926D01*
X989196D01*
Y792921D01*
X989198Y792913D01*
X989200Y792893D01*
X989202Y792869D01*
X989204Y792834D01*
X989207Y792815D01*
Y792793D01*
Y792769D01*
X989209Y792741D01*
Y792712D01*
Y792682D01*
Y791518D01*
X989015D01*
Y793170D01*
X989252D01*
X990103Y791853D01*
X990105Y791851D01*
X990107Y791845D01*
X990114Y791834D01*
X990122Y791821D01*
X990129Y791805D01*
X990137Y791788D01*
X990155Y791749D01*
X990162D01*
Y791751D01*
X990159Y791760D01*
Y791775D01*
X990157Y791797D01*
Y791812D01*
X990155Y791829D01*
Y791847D01*
Y791869D01*
X990153Y791892D01*
Y791917D01*
Y791947D01*
Y791978D01*
Y793170D01*
X990347D01*
Y791518D01*
D02*
G37*
G36*
X991319Y793194D02*
X991343Y793192D01*
X991374Y793190D01*
X991408Y793183D01*
X991446Y793177D01*
X991489Y793168D01*
X991533Y793155D01*
X991578Y793142D01*
X991626Y793122D01*
X991674Y793100D01*
X991722Y793074D01*
X991770Y793044D01*
X991814Y793009D01*
X991858Y792970D01*
X991860Y792967D01*
X991866Y792959D01*
X991877Y792945D01*
X991892Y792928D01*
X991908Y792906D01*
X991927Y792878D01*
X991947Y792845D01*
X991967Y792808D01*
X991986Y792767D01*
X992006Y792723D01*
X992025Y792673D01*
X992041Y792619D01*
X992056Y792562D01*
X992067Y792501D01*
X992073Y792435D01*
X992076Y792366D01*
Y792363D01*
Y792361D01*
Y792348D01*
X992073Y792329D01*
X992071Y792302D01*
X992069Y792270D01*
X992062Y792230D01*
X992056Y792189D01*
X992045Y792143D01*
X992032Y792093D01*
X992017Y792043D01*
X991997Y791991D01*
X991973Y791938D01*
X991945Y791886D01*
X991914Y791834D01*
X991877Y791784D01*
X991833Y791736D01*
X991831Y791733D01*
X991823Y791725D01*
X991809Y791714D01*
X991790Y791696D01*
X991766Y791679D01*
X991738Y791657D01*
X991703Y791635D01*
X991666Y791611D01*
X991622Y791589D01*
X991576Y791568D01*
X991524Y791546D01*
X991469Y791529D01*
X991413Y791511D01*
X991350Y791500D01*
X991284Y791491D01*
X991217Y791489D01*
X991190D01*
X991171Y791491D01*
X991149D01*
X991123Y791494D01*
X991092Y791496D01*
X991060Y791500D01*
X990988Y791511D01*
X990914Y791526D01*
X990837Y791548D01*
X990765Y791579D01*
Y791792D01*
X990767Y791790D01*
X990774Y791786D01*
X990785Y791781D01*
X990800Y791773D01*
X990820Y791764D01*
X990844Y791753D01*
X990870Y791740D01*
X990901Y791729D01*
X990933Y791718D01*
X990968Y791705D01*
X991007Y791694D01*
X991049Y791685D01*
X991094Y791677D01*
X991140Y791670D01*
X991188Y791668D01*
X991238Y791666D01*
X991251D01*
X991265Y791668D01*
X991284D01*
X991308Y791672D01*
X991337Y791677D01*
X991367Y791681D01*
X991400Y791690D01*
X991437Y791701D01*
X991472Y791712D01*
X991511Y791729D01*
X991550Y791747D01*
X991587Y791768D01*
X991624Y791794D01*
X991661Y791823D01*
X991696Y791858D01*
X991698Y791860D01*
X991703Y791866D01*
X991711Y791877D01*
X991724Y791892D01*
X991738Y791910D01*
X991753Y791934D01*
X991768Y791960D01*
X991783Y791991D01*
X991801Y792023D01*
X991816Y792063D01*
X991831Y792102D01*
X991844Y792145D01*
X991855Y792193D01*
X991864Y792243D01*
X991871Y792296D01*
X991873Y792352D01*
Y792357D01*
Y792366D01*
X991871Y792383D01*
Y792405D01*
X991868Y792431D01*
X991864Y792461D01*
X991860Y792494D01*
X991851Y792531D01*
X991842Y792570D01*
X991831Y792610D01*
X991818Y792651D01*
X991803Y792693D01*
X991783Y792734D01*
X991762Y792773D01*
X991735Y792810D01*
X991707Y792845D01*
X991705Y792847D01*
X991698Y792852D01*
X991690Y792863D01*
X991677Y792873D01*
X991659Y792887D01*
X991640Y792902D01*
X991615Y792917D01*
X991589Y792935D01*
X991559Y792952D01*
X991526Y792967D01*
X991489Y792982D01*
X991448Y792996D01*
X991406Y793007D01*
X991360Y793015D01*
X991313Y793022D01*
X991260Y793024D01*
X991241D01*
X991228Y793022D01*
X991210D01*
X991190Y793020D01*
X991169Y793017D01*
X991145Y793015D01*
X991092Y793004D01*
X991036Y792991D01*
X990979Y792974D01*
X990924Y792948D01*
Y792483D01*
X991286D01*
Y792309D01*
X990730D01*
Y793059D01*
X990733Y793061D01*
X990741Y793065D01*
X990754Y793072D01*
X990774Y793081D01*
X990798Y793091D01*
X990824Y793102D01*
X990857Y793116D01*
X990892Y793126D01*
X990933Y793140D01*
X990975Y793153D01*
X991020Y793163D01*
X991068Y793174D01*
X991121Y793183D01*
X991173Y793190D01*
X991228Y793194D01*
X991284Y793196D01*
X991299D01*
X991319Y793194D01*
D02*
G37*
G36*
X988581Y791518D02*
X988103D01*
X988088Y791520D01*
X988069D01*
X988045Y791522D01*
X988019Y791526D01*
X987988Y791531D01*
X987957Y791535D01*
X987923Y791542D01*
X987848Y791559D01*
X987770Y791585D01*
X987729Y791600D01*
X987687Y791618D01*
X987648Y791638D01*
X987607Y791662D01*
X987567Y791685D01*
X987528Y791714D01*
X987491Y791747D01*
X987454Y791779D01*
X987419Y791816D01*
X987389Y791858D01*
X987358Y791901D01*
X987332Y791949D01*
X987308Y792001D01*
X987288Y792058D01*
X987273Y792117D01*
X987260Y792182D01*
X987253Y792250D01*
X987251Y792324D01*
Y792329D01*
Y792342D01*
X987253Y792361D01*
X987255Y792387D01*
X987258Y792420D01*
X987264Y792457D01*
X987271Y792499D01*
X987282Y792544D01*
X987295Y792592D01*
X987310Y792642D01*
X987330Y792693D01*
X987354Y792745D01*
X987382Y792795D01*
X987412Y792845D01*
X987450Y792893D01*
X987493Y792939D01*
X987495Y792941D01*
X987504Y792950D01*
X987517Y792961D01*
X987537Y792976D01*
X987561Y792993D01*
X987591Y793013D01*
X987626Y793033D01*
X987665Y793054D01*
X987709Y793076D01*
X987759Y793096D01*
X987811Y793116D01*
X987870Y793133D01*
X987931Y793148D01*
X987997Y793159D01*
X988069Y793168D01*
X988143Y793170D01*
X988581D01*
Y791518D01*
D02*
G37*
G36*
X994876Y799742D02*
X993448D01*
X993452Y799737D01*
X993463Y799726D01*
X993478Y799705D01*
X993498Y799676D01*
X993500Y799674D01*
X993502Y799670D01*
X993509Y799661D01*
X993515Y799650D01*
X993524Y799635D01*
X993533Y799619D01*
X993555Y799582D01*
X993557Y799580D01*
X993559Y799574D01*
X993565Y799563D01*
X993572Y799550D01*
X993581Y799532D01*
X993589Y799513D01*
X993607Y799471D01*
Y799469D01*
X993611Y799460D01*
X993616Y799449D01*
X993620Y799434D01*
X993626Y799417D01*
X993633Y799399D01*
X993644Y799358D01*
X993452D01*
Y799360D01*
X993450Y799369D01*
X993446Y799382D01*
X993439Y799399D01*
X993433Y799419D01*
X993426Y799441D01*
X993406Y799491D01*
X993404Y799493D01*
X993402Y799504D01*
X993396Y799517D01*
X993387Y799535D01*
X993378Y799554D01*
X993367Y799578D01*
X993341Y799626D01*
X993339Y799628D01*
X993334Y799637D01*
X993328Y799650D01*
X993317Y799667D01*
X993306Y799687D01*
X993293Y799709D01*
X993265Y799753D01*
X993262Y799755D01*
X993258Y799763D01*
X993249Y799774D01*
X993241Y799789D01*
X993215Y799824D01*
X993186Y799859D01*
Y799929D01*
X994876D01*
Y799742D01*
D02*
G37*
G36*
X994333Y798889D02*
X994359Y798887D01*
X994387Y798885D01*
X994418Y798880D01*
X994453Y798876D01*
X994525Y798861D01*
X994564Y798852D01*
X994601Y798839D01*
X994638Y798824D01*
X994675Y798808D01*
X994708Y798789D01*
X994740Y798767D01*
X994743Y798765D01*
X994747Y798761D01*
X994756Y798754D01*
X994767Y798745D01*
X994778Y798732D01*
X994791Y798717D01*
X994806Y798700D01*
X994821Y798680D01*
X994836Y798656D01*
X994852Y798632D01*
X994865Y798604D01*
X994876Y798573D01*
X994887Y798543D01*
X994895Y798508D01*
X994900Y798473D01*
X994902Y798434D01*
Y798418D01*
X994900Y798401D01*
X994897Y798377D01*
X994895Y798353D01*
X994891Y798327D01*
X994884Y798298D01*
X994876Y798274D01*
X994686D01*
X994688Y798277D01*
X994693Y798285D01*
X994699Y798301D01*
X994708Y798318D01*
X994716Y798342D01*
X994723Y798368D01*
X994727Y798401D01*
X994730Y798436D01*
Y798447D01*
X994727Y798460D01*
X994723Y798477D01*
X994716Y798497D01*
X994706Y798519D01*
X994693Y798543D01*
X994675Y798566D01*
X994651Y798591D01*
X994621Y798615D01*
X994586Y798636D01*
X994542Y798656D01*
X994492Y798673D01*
X994464Y798680D01*
X994433Y798686D01*
X994400Y798691D01*
X994366Y798695D01*
X994326Y798697D01*
X994287D01*
X993223D01*
Y798891D01*
X994285D01*
X994289D01*
X994298D01*
X994313D01*
X994333Y798889D01*
D02*
G37*
%LPC*%
G36*
X986480Y805821D02*
X985881D01*
Y805547D01*
X985883Y805534D01*
Y805514D01*
X985885Y805494D01*
X985889Y805470D01*
X985902Y805425D01*
X985905Y805422D01*
X985907Y805414D01*
X985911Y805403D01*
X985920Y805387D01*
X985940Y805355D01*
X985966Y805320D01*
X985968Y805318D01*
X985972Y805311D01*
X985981Y805305D01*
X985994Y805294D01*
X986009Y805283D01*
X986024Y805270D01*
X986044Y805259D01*
X986066Y805248D01*
X986068Y805246D01*
X986077Y805244D01*
X986090Y805239D01*
X986105Y805235D01*
X986125Y805231D01*
X986149Y805226D01*
X986173Y805222D01*
X986199D01*
X986201D01*
X986205D01*
X986212D01*
X986221Y805224D01*
X986245Y805226D01*
X986275Y805233D01*
X986308Y805244D01*
X986343Y805259D01*
X986376Y805281D01*
X986406Y805309D01*
X986408Y805313D01*
X986417Y805324D01*
X986430Y805344D01*
X986443Y805372D01*
X986456Y805407D01*
X986469Y805451D01*
X986478Y805501D01*
X986480Y805558D01*
Y805821D01*
D02*
G37*
G36*
X998230Y792996D02*
X997968D01*
X997953Y792993D01*
X997929D01*
X997902Y792991D01*
X997870Y792987D01*
X997835Y792980D01*
X997798Y792974D01*
X997759Y792965D01*
X997717Y792952D01*
X997676Y792939D01*
X997632Y792921D01*
X997591Y792902D01*
X997552Y792878D01*
X997512Y792852D01*
X997477Y792821D01*
X997475Y792819D01*
X997469Y792812D01*
X997460Y792804D01*
X997449Y792789D01*
X997436Y792771D01*
X997421Y792749D01*
X997403Y792723D01*
X997386Y792695D01*
X997371Y792662D01*
X997353Y792625D01*
X997338Y792584D01*
X997325Y792540D01*
X997314Y792492D01*
X997305Y792442D01*
X997299Y792387D01*
X997296Y792329D01*
Y792326D01*
Y792322D01*
Y792313D01*
X997299Y792300D01*
Y792287D01*
X997301Y792270D01*
X997303Y792250D01*
X997307Y792228D01*
X997316Y792180D01*
X997331Y792128D01*
X997353Y792071D01*
X997381Y792010D01*
X997397Y791982D01*
X997416Y791951D01*
X997438Y791923D01*
X997462Y791895D01*
X997488Y791866D01*
X997517Y791840D01*
X997547Y791816D01*
X997582Y791792D01*
X997619Y791773D01*
X997658Y791753D01*
X997702Y791736D01*
X997750Y791720D01*
X997800Y791709D01*
X997852Y791701D01*
X997911Y791696D01*
X997972Y791694D01*
X998230D01*
Y792996D01*
D02*
G37*
G36*
X988387D02*
X988125D01*
X988110Y792993D01*
X988086D01*
X988060Y792991D01*
X988027Y792987D01*
X987992Y792980D01*
X987955Y792974D01*
X987916Y792965D01*
X987875Y792952D01*
X987833Y792939D01*
X987790Y792921D01*
X987748Y792902D01*
X987709Y792878D01*
X987670Y792852D01*
X987635Y792821D01*
X987633Y792819D01*
X987626Y792812D01*
X987617Y792804D01*
X987607Y792789D01*
X987593Y792771D01*
X987578Y792749D01*
X987561Y792723D01*
X987543Y792695D01*
X987528Y792662D01*
X987511Y792625D01*
X987495Y792584D01*
X987482Y792540D01*
X987471Y792492D01*
X987463Y792442D01*
X987456Y792387D01*
X987454Y792329D01*
Y792326D01*
Y792322D01*
Y792313D01*
X987456Y792300D01*
Y792287D01*
X987458Y792270D01*
X987460Y792250D01*
X987465Y792228D01*
X987473Y792180D01*
X987489Y792128D01*
X987511Y792071D01*
X987539Y792010D01*
X987554Y791982D01*
X987574Y791951D01*
X987596Y791923D01*
X987620Y791895D01*
X987646Y791866D01*
X987674Y791840D01*
X987705Y791816D01*
X987739Y791792D01*
X987776Y791773D01*
X987816Y791753D01*
X987859Y791736D01*
X987907Y791720D01*
X987957Y791709D01*
X988010Y791701D01*
X988069Y791696D01*
X988130Y791694D01*
X988387D01*
Y792996D01*
D02*
G37*
%LPD*%
D10*
X1001751Y793787D02*
G03*
X1001751Y793787I-197J0D01*
G01*
X1004280Y808550D02*
G03*
X1004165Y808829I-394J0D01*
G01*
X1004280Y808550D02*
G03*
X1004165Y808829I-394J0D01*
G01*
X1003771Y809223D02*
G03*
X1003493Y809338I-279J-279D01*
G01*
X1003771Y809223D02*
G03*
X1003493Y809338I-279J-279D01*
G01*
X1004165Y789374D02*
G03*
X1004280Y789653I-279J279D01*
G01*
X1004165Y789374D02*
G03*
X1004280Y789653I-279J279D01*
G01*
X1003493Y788865D02*
G03*
X1003771Y788981I0J394D01*
G01*
X1003493Y788865D02*
G03*
X1003771Y788981I0J394D01*
G01*
X986170Y809338D02*
G03*
X985892Y809223I0J-394D01*
G01*
X986170Y809338D02*
G03*
X985892Y809223I0J-394D01*
G01*
X983923Y807254D02*
G03*
X983808Y806976I279J-279D01*
G01*
X983923Y807254D02*
G03*
X983808Y806976I279J-279D01*
G01*
X984317Y788981D02*
G03*
X984595Y788865I279J279D01*
G01*
X984317Y788981D02*
G03*
X984595Y788865I279J279D01*
G01*
X983808Y789653D02*
G03*
X983923Y789374I394J0D01*
G01*
X983808Y789653D02*
G03*
X983923Y789374I394J0D01*
G01*
X1003771Y809223D02*
X1004165Y808829D01*
X1004280Y789653D02*
Y808550D01*
X1003771Y788981D02*
X1004165Y789374D01*
X986170Y809338D02*
X1003493D01*
X983923Y807254D02*
X985892Y809223D01*
X983808Y789653D02*
Y806976D01*
X984595Y788865D02*
X1003493D01*
X983923Y789374D02*
X984317Y788981D01*
D11*
X987784Y803039D02*
X1000304D01*
X987784Y795165D02*
X1000304D01*
M02*
