G04*
G04 #@! TF.GenerationSoftware,Altium Limited,Altium Designer,21.7.2 (23)*
G04*
G04 Layer_Color=32896*
%FSLAX25Y25*%
%MOIN*%
G70*
G04*
G04 #@! TF.SameCoordinates,D3EA2CE5-12AE-4A1D-801E-5BC502E624D2*
G04*
G04*
G04 #@! TF.FilePolarity,Positive*
G04*
G01*
G75*
%ADD10C,0.00787*%
%ADD11C,0.00394*%
G36*
X1003025Y808129D02*
X1003040Y808100D01*
X1003062Y808039D01*
X1003077Y807976D01*
X1003088Y807917D01*
X1003093Y807889D01*
X1003095Y807865D01*
X1003097Y807841D01*
Y807821D01*
X1003099Y807804D01*
Y807782D01*
X1003097Y807734D01*
X1003093Y807690D01*
X1003088Y807651D01*
X1003082Y807616D01*
X1003075Y807588D01*
X1003069Y807566D01*
X1003066Y807557D01*
Y807551D01*
X1003064Y807549D01*
Y807546D01*
X1003049Y807507D01*
X1003034Y807472D01*
X1003016Y807440D01*
X1003001Y807413D01*
X1002986Y807392D01*
X1002975Y807374D01*
X1002966Y807366D01*
X1002964Y807361D01*
X1002938Y807335D01*
X1002912Y807311D01*
X1002886Y807291D01*
X1002861Y807274D01*
X1002840Y807261D01*
X1002822Y807250D01*
X1002811Y807246D01*
X1002807Y807243D01*
X1002772Y807230D01*
X1002737Y807219D01*
X1002702Y807213D01*
X1002672Y807206D01*
X1002643Y807204D01*
X1002624Y807202D01*
X1002615D01*
X1002609D01*
X1002606D01*
X1002604D01*
X1002574Y807204D01*
X1002545Y807206D01*
X1002519Y807211D01*
X1002497Y807217D01*
X1002480Y807224D01*
X1002465Y807228D01*
X1002456Y807230D01*
X1002454Y807232D01*
X1002428Y807243D01*
X1002406Y807257D01*
X1002386Y807270D01*
X1002367Y807283D01*
X1002354Y807296D01*
X1002343Y807304D01*
X1002336Y807311D01*
X1002334Y807313D01*
X1002314Y807333D01*
X1002299Y807352D01*
X1002284Y807374D01*
X1002273Y807394D01*
X1002264Y807409D01*
X1002258Y807422D01*
X1002253Y807433D01*
X1002251Y807435D01*
X1002240Y807461D01*
X1002232Y807490D01*
X1002223Y807516D01*
X1002218Y807540D01*
X1002214Y807559D01*
X1002212Y807577D01*
X1002210Y807586D01*
Y807590D01*
X1002205D01*
X1002186Y807531D01*
X1002160Y807481D01*
X1002131Y807437D01*
X1002101Y807400D01*
X1002066Y807368D01*
X1002031Y807341D01*
X1001996Y807320D01*
X1001959Y807302D01*
X1001926Y807289D01*
X1001894Y807278D01*
X1001863Y807272D01*
X1001837Y807265D01*
X1001815Y807263D01*
X1001798Y807261D01*
X1001789D01*
X1001785D01*
X1001752Y807263D01*
X1001724Y807265D01*
X1001695Y807272D01*
X1001671Y807276D01*
X1001654Y807283D01*
X1001639Y807289D01*
X1001628Y807291D01*
X1001626Y807294D01*
X1001599Y807307D01*
X1001575Y807322D01*
X1001554Y807337D01*
X1001536Y807352D01*
X1001521Y807366D01*
X1001510Y807376D01*
X1001503Y807385D01*
X1001501Y807387D01*
X1001482Y807411D01*
X1001466Y807435D01*
X1001453Y807459D01*
X1001440Y807481D01*
X1001431Y807501D01*
X1001425Y807516D01*
X1001423Y807527D01*
X1001420Y807531D01*
X1001410Y807564D01*
X1001403Y807594D01*
X1001397Y807627D01*
X1001394Y807655D01*
X1001392Y807682D01*
X1001390Y807701D01*
Y807758D01*
X1001394Y807797D01*
X1001405Y807869D01*
X1001412Y807902D01*
X1001420Y807932D01*
X1001429Y807961D01*
X1001438Y807987D01*
X1001447Y808011D01*
X1001455Y808033D01*
X1001464Y808050D01*
X1001471Y808065D01*
X1001477Y808078D01*
X1001482Y808087D01*
X1001484Y808091D01*
X1001486Y808094D01*
X1001669D01*
X1001647Y808065D01*
X1001630Y808035D01*
X1001615Y808006D01*
X1001602Y807978D01*
X1001580Y807924D01*
X1001567Y807873D01*
X1001560Y807849D01*
X1001558Y807830D01*
X1001556Y807812D01*
X1001554Y807797D01*
X1001551Y807784D01*
Y807767D01*
X1001554Y807712D01*
X1001564Y807664D01*
X1001577Y807623D01*
X1001595Y807586D01*
X1001617Y807555D01*
X1001641Y807531D01*
X1001665Y807509D01*
X1001691Y807494D01*
X1001717Y807481D01*
X1001743Y807472D01*
X1001767Y807464D01*
X1001789Y807459D01*
X1001806Y807457D01*
X1001820Y807455D01*
X1001830D01*
X1001833D01*
X1001861Y807457D01*
X1001887Y807459D01*
X1001933Y807472D01*
X1001974Y807492D01*
X1002009Y807518D01*
X1002038Y807549D01*
X1002064Y807584D01*
X1002083Y807621D01*
X1002098Y807658D01*
X1002112Y807697D01*
X1002122Y807734D01*
X1002129Y807769D01*
X1002133Y807799D01*
X1002136Y807825D01*
X1002138Y807845D01*
Y807993D01*
X1002297D01*
Y807815D01*
X1002301Y807775D01*
X1002306Y807738D01*
X1002310Y807703D01*
X1002319Y807671D01*
X1002327Y807642D01*
X1002336Y807614D01*
X1002347Y807588D01*
X1002373Y807544D01*
X1002399Y807507D01*
X1002430Y807477D01*
X1002458Y807450D01*
X1002489Y807433D01*
X1002519Y807418D01*
X1002545Y807407D01*
X1002572Y807400D01*
X1002591Y807396D01*
X1002609Y807394D01*
X1002617D01*
X1002622D01*
X1002648Y807396D01*
X1002674Y807398D01*
X1002696Y807403D01*
X1002715Y807407D01*
X1002733Y807413D01*
X1002744Y807418D01*
X1002752Y807420D01*
X1002755Y807422D01*
X1002777Y807433D01*
X1002796Y807444D01*
X1002811Y807457D01*
X1002827Y807470D01*
X1002840Y807481D01*
X1002848Y807490D01*
X1002853Y807496D01*
X1002855Y807498D01*
X1002883Y807538D01*
X1002892Y807557D01*
X1002903Y807577D01*
X1002909Y807594D01*
X1002914Y807607D01*
X1002918Y807616D01*
Y807618D01*
X1002931Y807673D01*
X1002936Y807699D01*
X1002938Y807723D01*
Y807745D01*
X1002940Y807760D01*
Y807775D01*
X1002938Y807815D01*
X1002934Y807854D01*
X1002927Y807891D01*
X1002918Y807926D01*
X1002909Y807958D01*
X1002899Y807991D01*
X1002886Y808020D01*
X1002872Y808048D01*
X1002861Y808072D01*
X1002848Y808094D01*
X1002837Y808111D01*
X1002827Y808129D01*
X1002820Y808139D01*
X1002814Y808150D01*
X1002809Y808155D01*
X1002807Y808157D01*
X1003010D01*
X1003025Y808129D01*
D02*
G37*
G36*
X1002988Y806895D02*
X1003003Y806890D01*
X1003018Y806886D01*
X1003032Y806877D01*
X1003043Y806871D01*
X1003051Y806866D01*
X1003055Y806862D01*
X1003058Y806860D01*
X1003071Y806845D01*
X1003080Y806829D01*
X1003086Y806816D01*
X1003090Y806801D01*
X1003093Y806788D01*
X1003095Y806779D01*
Y806770D01*
X1003093Y806751D01*
X1003088Y806733D01*
X1003084Y806718D01*
X1003075Y806705D01*
X1003069Y806694D01*
X1003064Y806685D01*
X1003060Y806681D01*
X1003058Y806679D01*
X1003043Y806666D01*
X1003027Y806657D01*
X1003014Y806648D01*
X1002999Y806644D01*
X1002986Y806642D01*
X1002977Y806639D01*
X1002971D01*
X1002968D01*
X1002949Y806642D01*
X1002931Y806646D01*
X1002916Y806653D01*
X1002903Y806659D01*
X1002892Y806666D01*
X1002883Y806672D01*
X1002879Y806677D01*
X1002877Y806679D01*
X1002864Y806694D01*
X1002855Y806709D01*
X1002846Y806725D01*
X1002842Y806738D01*
X1002840Y806751D01*
X1002837Y806762D01*
Y806770D01*
X1002840Y806790D01*
X1002844Y806805D01*
X1002851Y806820D01*
X1002857Y806834D01*
X1002864Y806845D01*
X1002870Y806853D01*
X1002875Y806857D01*
X1002877Y806860D01*
X1002892Y806873D01*
X1002907Y806882D01*
X1002923Y806888D01*
X1002938Y806892D01*
X1002949Y806895D01*
X1002960Y806897D01*
X1002966D01*
X1002968D01*
X1002988Y806895D01*
D02*
G37*
G36*
X1003025Y806343D02*
X1003040Y806315D01*
X1003062Y806254D01*
X1003077Y806190D01*
X1003088Y806132D01*
X1003093Y806103D01*
X1003095Y806079D01*
X1003097Y806055D01*
Y806036D01*
X1003099Y806018D01*
Y805996D01*
X1003097Y805949D01*
X1003093Y805905D01*
X1003088Y805866D01*
X1003082Y805831D01*
X1003075Y805802D01*
X1003069Y805781D01*
X1003066Y805772D01*
Y805765D01*
X1003064Y805763D01*
Y805761D01*
X1003049Y805722D01*
X1003034Y805687D01*
X1003016Y805654D01*
X1003001Y805628D01*
X1002986Y805606D01*
X1002975Y805589D01*
X1002966Y805580D01*
X1002964Y805576D01*
X1002938Y805550D01*
X1002912Y805526D01*
X1002886Y805506D01*
X1002861Y805488D01*
X1002840Y805475D01*
X1002822Y805464D01*
X1002811Y805460D01*
X1002807Y805458D01*
X1002772Y805445D01*
X1002737Y805434D01*
X1002702Y805427D01*
X1002672Y805421D01*
X1002643Y805419D01*
X1002624Y805417D01*
X1002615D01*
X1002609D01*
X1002606D01*
X1002604D01*
X1002574Y805419D01*
X1002545Y805421D01*
X1002519Y805425D01*
X1002497Y805432D01*
X1002480Y805438D01*
X1002465Y805443D01*
X1002456Y805445D01*
X1002454Y805447D01*
X1002428Y805458D01*
X1002406Y805471D01*
X1002386Y805484D01*
X1002367Y805497D01*
X1002354Y805510D01*
X1002343Y805519D01*
X1002336Y805526D01*
X1002334Y805528D01*
X1002314Y805547D01*
X1002299Y805567D01*
X1002284Y805589D01*
X1002273Y805608D01*
X1002264Y805624D01*
X1002258Y805637D01*
X1002253Y805648D01*
X1002251Y805650D01*
X1002240Y805676D01*
X1002232Y805704D01*
X1002223Y805731D01*
X1002218Y805754D01*
X1002214Y805774D01*
X1002212Y805791D01*
X1002210Y805800D01*
Y805805D01*
X1002205D01*
X1002186Y805746D01*
X1002160Y805696D01*
X1002131Y805652D01*
X1002101Y805615D01*
X1002066Y805582D01*
X1002031Y805556D01*
X1001996Y805534D01*
X1001959Y805517D01*
X1001926Y805504D01*
X1001894Y805493D01*
X1001863Y805486D01*
X1001837Y805480D01*
X1001815Y805478D01*
X1001798Y805475D01*
X1001789D01*
X1001785D01*
X1001752Y805478D01*
X1001724Y805480D01*
X1001695Y805486D01*
X1001671Y805491D01*
X1001654Y805497D01*
X1001639Y805504D01*
X1001628Y805506D01*
X1001626Y805508D01*
X1001599Y805521D01*
X1001575Y805536D01*
X1001554Y805552D01*
X1001536Y805567D01*
X1001521Y805580D01*
X1001510Y805591D01*
X1001503Y805600D01*
X1001501Y805602D01*
X1001482Y805626D01*
X1001466Y805650D01*
X1001453Y805674D01*
X1001440Y805696D01*
X1001431Y805715D01*
X1001425Y805731D01*
X1001423Y805741D01*
X1001420Y805746D01*
X1001410Y805778D01*
X1001403Y805809D01*
X1001397Y805842D01*
X1001394Y805870D01*
X1001392Y805896D01*
X1001390Y805916D01*
Y805972D01*
X1001394Y806012D01*
X1001405Y806084D01*
X1001412Y806116D01*
X1001420Y806147D01*
X1001429Y806175D01*
X1001438Y806201D01*
X1001447Y806225D01*
X1001455Y806247D01*
X1001464Y806265D01*
X1001471Y806280D01*
X1001477Y806293D01*
X1001482Y806302D01*
X1001484Y806306D01*
X1001486Y806308D01*
X1001669D01*
X1001647Y806280D01*
X1001630Y806249D01*
X1001615Y806221D01*
X1001602Y806193D01*
X1001580Y806138D01*
X1001567Y806088D01*
X1001560Y806064D01*
X1001558Y806044D01*
X1001556Y806027D01*
X1001554Y806012D01*
X1001551Y805999D01*
Y805981D01*
X1001554Y805927D01*
X1001564Y805879D01*
X1001577Y805837D01*
X1001595Y805800D01*
X1001617Y805770D01*
X1001641Y805746D01*
X1001665Y805724D01*
X1001691Y805709D01*
X1001717Y805696D01*
X1001743Y805687D01*
X1001767Y805678D01*
X1001789Y805674D01*
X1001806Y805672D01*
X1001820Y805669D01*
X1001830D01*
X1001833D01*
X1001861Y805672D01*
X1001887Y805674D01*
X1001933Y805687D01*
X1001974Y805707D01*
X1002009Y805733D01*
X1002038Y805763D01*
X1002064Y805798D01*
X1002083Y805835D01*
X1002098Y805872D01*
X1002112Y805911D01*
X1002122Y805949D01*
X1002129Y805983D01*
X1002133Y806014D01*
X1002136Y806040D01*
X1002138Y806060D01*
Y806208D01*
X1002297D01*
Y806029D01*
X1002301Y805990D01*
X1002306Y805953D01*
X1002310Y805918D01*
X1002319Y805885D01*
X1002327Y805857D01*
X1002336Y805829D01*
X1002347Y805802D01*
X1002373Y805759D01*
X1002399Y805722D01*
X1002430Y805691D01*
X1002458Y805665D01*
X1002489Y805648D01*
X1002519Y805632D01*
X1002545Y805622D01*
X1002572Y805615D01*
X1002591Y805611D01*
X1002609Y805608D01*
X1002617D01*
X1002622D01*
X1002648Y805611D01*
X1002674Y805613D01*
X1002696Y805617D01*
X1002715Y805622D01*
X1002733Y805628D01*
X1002744Y805632D01*
X1002752Y805635D01*
X1002755Y805637D01*
X1002777Y805648D01*
X1002796Y805659D01*
X1002811Y805672D01*
X1002827Y805685D01*
X1002840Y805696D01*
X1002848Y805704D01*
X1002853Y805711D01*
X1002855Y805713D01*
X1002883Y805752D01*
X1002892Y805772D01*
X1002903Y805791D01*
X1002909Y805809D01*
X1002914Y805822D01*
X1002918Y805831D01*
Y805833D01*
X1002931Y805887D01*
X1002936Y805914D01*
X1002938Y805938D01*
Y805959D01*
X1002940Y805975D01*
Y805990D01*
X1002938Y806029D01*
X1002934Y806068D01*
X1002927Y806105D01*
X1002918Y806140D01*
X1002909Y806173D01*
X1002899Y806206D01*
X1002886Y806234D01*
X1002872Y806262D01*
X1002861Y806286D01*
X1002848Y806308D01*
X1002837Y806326D01*
X1002827Y806343D01*
X1002820Y806354D01*
X1002814Y806365D01*
X1002809Y806369D01*
X1002807Y806371D01*
X1003010D01*
X1003025Y806343D01*
D02*
G37*
G36*
X1003071Y804621D02*
Y804407D01*
X1001418Y803795D01*
Y804004D01*
X1002726Y804470D01*
X1002757Y804479D01*
X1002783Y804488D01*
X1002809Y804494D01*
X1002831Y804501D01*
X1002851Y804505D01*
X1002864Y804508D01*
X1002875Y804510D01*
X1002877D01*
Y804514D01*
X1002846Y804518D01*
X1002818Y804523D01*
X1002794Y804529D01*
X1002772Y804534D01*
X1002752Y804540D01*
X1002739Y804542D01*
X1002731Y804547D01*
X1002728D01*
X1001418Y805005D01*
Y805220D01*
X1003071Y804621D01*
D02*
G37*
G36*
X1002264Y794869D02*
X1002290Y794867D01*
X1002323Y794864D01*
X1002360Y794858D01*
X1002402Y794851D01*
X1002447Y794840D01*
X1002495Y794827D01*
X1002545Y794812D01*
X1002596Y794792D01*
X1002648Y794768D01*
X1002698Y794740D01*
X1002748Y794710D01*
X1002796Y794672D01*
X1002842Y794629D01*
X1002844Y794627D01*
X1002853Y794618D01*
X1002864Y794605D01*
X1002879Y794585D01*
X1002896Y794561D01*
X1002916Y794531D01*
X1002936Y794496D01*
X1002957Y794457D01*
X1002979Y794413D01*
X1002999Y794363D01*
X1003018Y794311D01*
X1003036Y794252D01*
X1003051Y794191D01*
X1003062Y794125D01*
X1003071Y794053D01*
X1003073Y793979D01*
Y793541D01*
X1001420D01*
Y794019D01*
X1001423Y794034D01*
Y794053D01*
X1001425Y794077D01*
X1001429Y794104D01*
X1001434Y794134D01*
X1001438Y794165D01*
X1001445Y794200D01*
X1001462Y794274D01*
X1001488Y794352D01*
X1001503Y794393D01*
X1001521Y794435D01*
X1001540Y794474D01*
X1001564Y794516D01*
X1001588Y794555D01*
X1001617Y794594D01*
X1001649Y794631D01*
X1001682Y794668D01*
X1001719Y794703D01*
X1001761Y794734D01*
X1001804Y794764D01*
X1001852Y794790D01*
X1001904Y794814D01*
X1001961Y794834D01*
X1002020Y794849D01*
X1002085Y794862D01*
X1002153Y794869D01*
X1002227Y794871D01*
X1002232D01*
X1002245D01*
X1002264Y794869D01*
D02*
G37*
G36*
X1003073Y792870D02*
X1001756Y792020D01*
X1001754Y792017D01*
X1001748Y792015D01*
X1001737Y792009D01*
X1001724Y792000D01*
X1001708Y791993D01*
X1001691Y791985D01*
X1001652Y791967D01*
Y791961D01*
X1001654D01*
X1001663Y791963D01*
X1001678D01*
X1001700Y791965D01*
X1001715D01*
X1001732Y791967D01*
X1001750D01*
X1001772D01*
X1001795Y791969D01*
X1001820D01*
X1001850D01*
X1001880D01*
X1003073D01*
Y791775D01*
X1001420D01*
Y792026D01*
X1002718Y792854D01*
X1002722Y792857D01*
X1002731Y792863D01*
X1002744Y792872D01*
X1002761Y792883D01*
X1002798Y792905D01*
X1002816Y792915D01*
X1002829Y792922D01*
Y792926D01*
X1002824D01*
X1002816Y792924D01*
X1002796Y792922D01*
X1002772Y792920D01*
X1002737Y792918D01*
X1002718Y792915D01*
X1002696D01*
X1002672D01*
X1002643Y792913D01*
X1002615D01*
X1002585D01*
X1001420D01*
Y793107D01*
X1003073D01*
Y792870D01*
D02*
G37*
G36*
X1002964Y791390D02*
X1002968Y791381D01*
X1002975Y791368D01*
X1002984Y791348D01*
X1002995Y791324D01*
X1003005Y791298D01*
X1003018Y791265D01*
X1003029Y791230D01*
X1003043Y791189D01*
X1003055Y791148D01*
X1003066Y791102D01*
X1003077Y791054D01*
X1003086Y791001D01*
X1003093Y790949D01*
X1003097Y790895D01*
X1003099Y790838D01*
Y790823D01*
X1003097Y790803D01*
X1003095Y790779D01*
X1003093Y790749D01*
X1003086Y790714D01*
X1003080Y790677D01*
X1003071Y790633D01*
X1003058Y790589D01*
X1003045Y790544D01*
X1003025Y790496D01*
X1003003Y790448D01*
X1002977Y790400D01*
X1002946Y790352D01*
X1002912Y790308D01*
X1002872Y790265D01*
X1002870Y790262D01*
X1002861Y790256D01*
X1002848Y790245D01*
X1002831Y790230D01*
X1002809Y790214D01*
X1002781Y790195D01*
X1002748Y790175D01*
X1002711Y790156D01*
X1002670Y790136D01*
X1002626Y790116D01*
X1002576Y790097D01*
X1002521Y790082D01*
X1002465Y790066D01*
X1002404Y790055D01*
X1002338Y790049D01*
X1002269Y790047D01*
X1002266D01*
X1002264D01*
X1002251D01*
X1002232Y790049D01*
X1002205Y790051D01*
X1002173Y790053D01*
X1002133Y790060D01*
X1002092Y790066D01*
X1002046Y790077D01*
X1001996Y790090D01*
X1001946Y790105D01*
X1001894Y790125D01*
X1001841Y790149D01*
X1001789Y790177D01*
X1001737Y790208D01*
X1001686Y790245D01*
X1001639Y790289D01*
X1001636Y790291D01*
X1001628Y790300D01*
X1001617Y790312D01*
X1001599Y790332D01*
X1001582Y790356D01*
X1001560Y790384D01*
X1001538Y790419D01*
X1001514Y790456D01*
X1001493Y790500D01*
X1001471Y790546D01*
X1001449Y790598D01*
X1001431Y790653D01*
X1001414Y790709D01*
X1001403Y790772D01*
X1001394Y790838D01*
X1001392Y790906D01*
Y790932D01*
X1001394Y790951D01*
Y790973D01*
X1001397Y790999D01*
X1001399Y791030D01*
X1001403Y791062D01*
X1001414Y791134D01*
X1001429Y791209D01*
X1001451Y791285D01*
X1001482Y791357D01*
X1001695D01*
X1001693Y791355D01*
X1001689Y791348D01*
X1001684Y791337D01*
X1001676Y791322D01*
X1001667Y791302D01*
X1001656Y791278D01*
X1001643Y791252D01*
X1001632Y791222D01*
X1001621Y791189D01*
X1001608Y791154D01*
X1001597Y791115D01*
X1001588Y791073D01*
X1001580Y791028D01*
X1001573Y790982D01*
X1001571Y790934D01*
X1001569Y790884D01*
Y790871D01*
X1001571Y790858D01*
Y790838D01*
X1001575Y790814D01*
X1001580Y790786D01*
X1001584Y790755D01*
X1001593Y790722D01*
X1001604Y790685D01*
X1001615Y790650D01*
X1001632Y790611D01*
X1001649Y790572D01*
X1001671Y790535D01*
X1001697Y790498D01*
X1001726Y790461D01*
X1001761Y790426D01*
X1001763Y790424D01*
X1001769Y790419D01*
X1001780Y790411D01*
X1001795Y790398D01*
X1001813Y790384D01*
X1001837Y790369D01*
X1001863Y790354D01*
X1001894Y790339D01*
X1001926Y790321D01*
X1001966Y790306D01*
X1002005Y790291D01*
X1002048Y790278D01*
X1002096Y790267D01*
X1002147Y790258D01*
X1002199Y790251D01*
X1002256Y790249D01*
X1002260D01*
X1002269D01*
X1002286Y790251D01*
X1002308D01*
X1002334Y790254D01*
X1002365Y790258D01*
X1002397Y790262D01*
X1002434Y790271D01*
X1002474Y790280D01*
X1002513Y790291D01*
X1002554Y790304D01*
X1002596Y790319D01*
X1002637Y790339D01*
X1002676Y790360D01*
X1002713Y790387D01*
X1002748Y790415D01*
X1002750Y790417D01*
X1002755Y790424D01*
X1002766Y790432D01*
X1002777Y790446D01*
X1002790Y790463D01*
X1002805Y790483D01*
X1002820Y790507D01*
X1002837Y790533D01*
X1002855Y790563D01*
X1002870Y790596D01*
X1002886Y790633D01*
X1002899Y790674D01*
X1002909Y790716D01*
X1002918Y790762D01*
X1002925Y790810D01*
X1002927Y790862D01*
Y790881D01*
X1002925Y790895D01*
Y790912D01*
X1002923Y790932D01*
X1002920Y790953D01*
X1002918Y790977D01*
X1002907Y791030D01*
X1002894Y791086D01*
X1002877Y791143D01*
X1002851Y791198D01*
X1002386D01*
Y790836D01*
X1002212D01*
Y791392D01*
X1002962D01*
X1002964Y791390D01*
D02*
G37*
G36*
X987429Y807175D02*
X985776D01*
Y807369D01*
X987429D01*
Y807175D01*
D02*
G37*
G36*
Y806229D02*
X987427Y806210D01*
X987424Y806184D01*
X987422Y806153D01*
X987418Y806118D01*
X987409Y806083D01*
X987400Y806048D01*
X987398Y806044D01*
X987396Y806033D01*
X987389Y806016D01*
X987381Y805994D01*
X987368Y805970D01*
X987355Y805941D01*
X987337Y805915D01*
X987318Y805889D01*
X987315Y805887D01*
X987309Y805878D01*
X987296Y805865D01*
X987280Y805850D01*
X987261Y805835D01*
X987237Y805817D01*
X987211Y805800D01*
X987180Y805785D01*
X987176Y805782D01*
X987165Y805778D01*
X987150Y805772D01*
X987126Y805765D01*
X987097Y805758D01*
X987065Y805752D01*
X987028Y805748D01*
X986988Y805745D01*
X986984D01*
X986973D01*
X986958Y805748D01*
X986936D01*
X986912Y805752D01*
X986884Y805756D01*
X986858Y805763D01*
X986829Y805772D01*
X986827Y805774D01*
X986816Y805776D01*
X986803Y805782D01*
X986786Y805791D01*
X986766Y805802D01*
X986744Y805813D01*
X986701Y805846D01*
X986699Y805848D01*
X986692Y805854D01*
X986681Y805865D01*
X986668Y805878D01*
X986653Y805896D01*
X986637Y805915D01*
X986620Y805937D01*
X986605Y805961D01*
X986602Y805963D01*
X986598Y805972D01*
X986592Y805987D01*
X986583Y806005D01*
X986572Y806026D01*
X986563Y806053D01*
X986552Y806081D01*
X986544Y806112D01*
X986539D01*
Y806109D01*
X986535Y806105D01*
X986533Y806096D01*
X986526Y806088D01*
X986513Y806064D01*
X986496Y806040D01*
Y806037D01*
X986491Y806035D01*
X986481Y806020D01*
X986461Y806003D01*
X986439Y805983D01*
X986437Y805981D01*
X986435Y805979D01*
X986428Y805972D01*
X986419Y805966D01*
X986395Y805948D01*
X986367Y805928D01*
X986365Y805926D01*
X986361Y805924D01*
X986352Y805917D01*
X986339Y805911D01*
X986326Y805900D01*
X986308Y805891D01*
X986271Y805867D01*
X985776Y805556D01*
Y805787D01*
X986238Y806064D01*
X986241Y806066D01*
X986249Y806070D01*
X986263Y806079D01*
X986278Y806088D01*
X986313Y806112D01*
X986347Y806138D01*
X986350Y806140D01*
X986356Y806144D01*
X986363Y806151D01*
X986374Y806159D01*
X986398Y806184D01*
X986422Y806212D01*
X986424Y806214D01*
X986426Y806218D01*
X986432Y806225D01*
X986439Y806236D01*
X986452Y806262D01*
X986465Y806293D01*
Y806295D01*
X986467Y806299D01*
X986470Y806308D01*
X986472Y806321D01*
X986474Y806334D01*
X986476Y806351D01*
X986478Y806388D01*
Y806548D01*
X985776D01*
Y806742D01*
X987429D01*
Y806229D01*
D02*
G37*
G36*
X985935Y794869D02*
X986003Y794862D01*
X986068Y794849D01*
X986127Y794834D01*
X986184Y794814D01*
X986236Y794790D01*
X986284Y794764D01*
X986327Y794734D01*
X986369Y794703D01*
X986406Y794668D01*
X986439Y794631D01*
X986471Y794594D01*
X986500Y794555D01*
X986524Y794516D01*
X986548Y794474D01*
X986567Y794435D01*
X986585Y794393D01*
X986600Y794352D01*
X986626Y794274D01*
X986644Y794200D01*
X986650Y794165D01*
X986654Y794134D01*
X986659Y794104D01*
X986663Y794077D01*
X986665Y794053D01*
Y794034D01*
X986668Y794019D01*
Y793541D01*
X985015D01*
Y793979D01*
X985017Y794053D01*
X985026Y794125D01*
X985037Y794191D01*
X985052Y794252D01*
X985070Y794311D01*
X985089Y794363D01*
X985109Y794413D01*
X985131Y794457D01*
X985152Y794496D01*
X985172Y794531D01*
X985192Y794561D01*
X985209Y794585D01*
X985224Y794605D01*
X985235Y794618D01*
X985244Y794627D01*
X985246Y794629D01*
X985292Y794672D01*
X985340Y794710D01*
X985390Y794740D01*
X985440Y794768D01*
X985493Y794792D01*
X985543Y794812D01*
X985593Y794827D01*
X985641Y794840D01*
X985686Y794851D01*
X985728Y794858D01*
X985765Y794864D01*
X985798Y794867D01*
X985824Y794869D01*
X985843Y794871D01*
X985857D01*
X985861D01*
X985935Y794869D01*
D02*
G37*
G36*
X986668Y792913D02*
X985503D01*
X985473D01*
X985445D01*
X985416Y792915D01*
X985392D01*
X985370D01*
X985351Y792918D01*
X985316Y792920D01*
X985292Y792922D01*
X985272Y792924D01*
X985264Y792926D01*
X985259D01*
Y792922D01*
X985272Y792915D01*
X985290Y792905D01*
X985327Y792883D01*
X985344Y792872D01*
X985357Y792863D01*
X985366Y792857D01*
X985370Y792854D01*
X986668Y792026D01*
Y791775D01*
X985015D01*
Y791969D01*
X986207D01*
X986238D01*
X986269D01*
X986293D01*
X986316Y791967D01*
X986338D01*
X986356D01*
X986373Y791965D01*
X986388D01*
X986410Y791963D01*
X986425D01*
X986434Y791961D01*
X986436D01*
Y791967D01*
X986397Y791985D01*
X986380Y791993D01*
X986364Y792000D01*
X986351Y792009D01*
X986341Y792015D01*
X986334Y792017D01*
X986332Y792020D01*
X985015Y792870D01*
Y793107D01*
X986668D01*
Y792913D01*
D02*
G37*
G36*
X985876Y790836D02*
X985702D01*
Y791198D01*
X985237D01*
X985211Y791143D01*
X985194Y791086D01*
X985181Y791030D01*
X985170Y790977D01*
X985168Y790953D01*
X985166Y790932D01*
X985163Y790912D01*
Y790895D01*
X985161Y790881D01*
Y790862D01*
X985163Y790810D01*
X985170Y790762D01*
X985179Y790716D01*
X985190Y790674D01*
X985203Y790633D01*
X985218Y790596D01*
X985233Y790563D01*
X985250Y790533D01*
X985268Y790507D01*
X985283Y790483D01*
X985299Y790463D01*
X985312Y790446D01*
X985322Y790432D01*
X985333Y790424D01*
X985338Y790417D01*
X985340Y790415D01*
X985375Y790387D01*
X985412Y790360D01*
X985451Y790339D01*
X985493Y790319D01*
X985534Y790304D01*
X985575Y790291D01*
X985615Y790280D01*
X985654Y790271D01*
X985691Y790262D01*
X985724Y790258D01*
X985754Y790254D01*
X985780Y790251D01*
X985802D01*
X985820Y790249D01*
X985828D01*
X985833D01*
X985889Y790251D01*
X985942Y790258D01*
X985992Y790267D01*
X986040Y790278D01*
X986083Y790291D01*
X986123Y790306D01*
X986162Y790321D01*
X986195Y790339D01*
X986225Y790354D01*
X986251Y790369D01*
X986275Y790384D01*
X986293Y790398D01*
X986308Y790411D01*
X986319Y790419D01*
X986325Y790424D01*
X986327Y790426D01*
X986362Y790461D01*
X986391Y790498D01*
X986417Y790535D01*
X986439Y790572D01*
X986456Y790611D01*
X986473Y790650D01*
X986484Y790685D01*
X986495Y790722D01*
X986504Y790755D01*
X986508Y790786D01*
X986513Y790814D01*
X986517Y790838D01*
Y790858D01*
X986519Y790871D01*
Y790884D01*
X986517Y790934D01*
X986515Y790982D01*
X986508Y791028D01*
X986500Y791073D01*
X986491Y791115D01*
X986480Y791154D01*
X986467Y791189D01*
X986456Y791222D01*
X986445Y791252D01*
X986432Y791278D01*
X986421Y791302D01*
X986413Y791322D01*
X986404Y791337D01*
X986399Y791348D01*
X986395Y791355D01*
X986393Y791357D01*
X986607D01*
X986637Y791285D01*
X986659Y791209D01*
X986674Y791134D01*
X986685Y791062D01*
X986689Y791030D01*
X986691Y790999D01*
X986694Y790973D01*
Y790951D01*
X986696Y790932D01*
Y790906D01*
X986694Y790838D01*
X986685Y790772D01*
X986674Y790709D01*
X986657Y790653D01*
X986639Y790598D01*
X986617Y790546D01*
X986596Y790500D01*
X986574Y790456D01*
X986550Y790419D01*
X986528Y790384D01*
X986506Y790356D01*
X986489Y790332D01*
X986471Y790312D01*
X986460Y790300D01*
X986452Y790291D01*
X986450Y790289D01*
X986402Y790245D01*
X986351Y790208D01*
X986299Y790177D01*
X986247Y790149D01*
X986195Y790125D01*
X986142Y790105D01*
X986092Y790090D01*
X986042Y790077D01*
X985996Y790066D01*
X985955Y790060D01*
X985915Y790053D01*
X985883Y790051D01*
X985857Y790049D01*
X985837Y790047D01*
X985824D01*
X985822D01*
X985820D01*
X985750Y790049D01*
X985684Y790055D01*
X985623Y790066D01*
X985567Y790082D01*
X985512Y790097D01*
X985462Y790116D01*
X985418Y790136D01*
X985377Y790156D01*
X985340Y790175D01*
X985307Y790195D01*
X985279Y790214D01*
X985257Y790230D01*
X985240Y790245D01*
X985227Y790256D01*
X985218Y790262D01*
X985216Y790265D01*
X985176Y790308D01*
X985141Y790352D01*
X985111Y790400D01*
X985085Y790448D01*
X985063Y790496D01*
X985043Y790544D01*
X985030Y790589D01*
X985017Y790633D01*
X985009Y790677D01*
X985002Y790714D01*
X984995Y790749D01*
X984993Y790779D01*
X984991Y790803D01*
X984989Y790823D01*
Y790838D01*
X984991Y790895D01*
X984995Y790949D01*
X985002Y791001D01*
X985011Y791054D01*
X985022Y791102D01*
X985032Y791148D01*
X985046Y791189D01*
X985059Y791230D01*
X985070Y791265D01*
X985083Y791298D01*
X985094Y791324D01*
X985104Y791348D01*
X985113Y791368D01*
X985120Y791381D01*
X985124Y791390D01*
X985126Y791392D01*
X985876D01*
Y790836D01*
D02*
G37*
G36*
X988109Y800488D02*
X986457D01*
Y800682D01*
X988109D01*
Y800488D01*
D02*
G37*
G36*
X987383Y800161D02*
X987446Y800155D01*
X987508Y800144D01*
X987564Y800131D01*
X987617Y800113D01*
X987667Y800096D01*
X987710Y800078D01*
X987752Y800056D01*
X987789Y800037D01*
X987819Y800019D01*
X987848Y800000D01*
X987869Y799985D01*
X987887Y799971D01*
X987900Y799961D01*
X987909Y799954D01*
X987911Y799952D01*
X987950Y799910D01*
X987985Y799867D01*
X988015Y799821D01*
X988041Y799773D01*
X988061Y799725D01*
X988081Y799679D01*
X988096Y799634D01*
X988107Y799588D01*
X988116Y799546D01*
X988124Y799507D01*
X988129Y799474D01*
X988131Y799444D01*
X988133Y799420D01*
X988135Y799400D01*
Y799385D01*
X988133Y799335D01*
X988131Y799287D01*
X988127Y799241D01*
X988120Y799200D01*
X988113Y799158D01*
X988105Y799121D01*
X988096Y799086D01*
X988087Y799056D01*
X988079Y799028D01*
X988072Y799001D01*
X988063Y798980D01*
X988057Y798962D01*
X988050Y798949D01*
X988046Y798938D01*
X988041Y798932D01*
Y798930D01*
X987854D01*
X987874Y798964D01*
X987889Y799001D01*
X987904Y799036D01*
X987917Y799073D01*
X987937Y799148D01*
X987950Y799213D01*
X987954Y799246D01*
X987957Y799272D01*
X987959Y799298D01*
X987961Y799320D01*
X987963Y799337D01*
Y799361D01*
X987961Y799409D01*
X987954Y799457D01*
X987946Y799501D01*
X987935Y799542D01*
X987922Y799581D01*
X987906Y799616D01*
X987891Y799649D01*
X987874Y799679D01*
X987856Y799706D01*
X987841Y799727D01*
X987826Y799749D01*
X987813Y799764D01*
X987802Y799778D01*
X987791Y799786D01*
X987786Y799793D01*
X987784Y799795D01*
X987749Y799823D01*
X987712Y799849D01*
X987673Y799871D01*
X987634Y799891D01*
X987593Y799906D01*
X987553Y799919D01*
X987514Y799930D01*
X987477Y799939D01*
X987440Y799948D01*
X987407Y799952D01*
X987379Y799956D01*
X987353Y799958D01*
X987331D01*
X987316Y799961D01*
X987307D01*
X987302D01*
X987244Y799958D01*
X987189Y799952D01*
X987137Y799943D01*
X987089Y799932D01*
X987043Y799919D01*
X987002Y799904D01*
X986965Y799889D01*
X986930Y799871D01*
X986899Y799856D01*
X986871Y799841D01*
X986849Y799825D01*
X986829Y799812D01*
X986814Y799799D01*
X986803Y799791D01*
X986797Y799786D01*
X986795Y799784D01*
X986762Y799749D01*
X986731Y799712D01*
X986707Y799675D01*
X986686Y799636D01*
X986666Y799597D01*
X986651Y799559D01*
X986638Y799522D01*
X986629Y799485D01*
X986620Y799453D01*
X986616Y799420D01*
X986611Y799394D01*
X986607Y799370D01*
Y799350D01*
X986605Y799335D01*
Y799283D01*
X986609Y799243D01*
X986620Y799169D01*
X986635Y799104D01*
X986644Y799073D01*
X986653Y799045D01*
X986664Y799019D01*
X986672Y798997D01*
X986681Y798977D01*
X986688Y798960D01*
X986694Y798947D01*
X986699Y798938D01*
X986701Y798932D01*
X986703Y798930D01*
X986498D01*
X986474Y798990D01*
X986457Y799056D01*
X986446Y799121D01*
X986437Y799182D01*
X986435Y799211D01*
X986433Y799237D01*
X986430Y799261D01*
X986428Y799281D01*
Y799320D01*
X986430Y799387D01*
X986439Y799450D01*
X986450Y799511D01*
X986468Y799568D01*
X986485Y799623D01*
X986507Y799673D01*
X986529Y799719D01*
X986550Y799760D01*
X986574Y799797D01*
X986596Y799830D01*
X986618Y799858D01*
X986635Y799882D01*
X986653Y799902D01*
X986664Y799915D01*
X986672Y799924D01*
X986675Y799926D01*
X986723Y799967D01*
X986773Y800004D01*
X986825Y800037D01*
X986877Y800063D01*
X986932Y800087D01*
X986984Y800105D01*
X987037Y800122D01*
X987087Y800133D01*
X987135Y800144D01*
X987176Y800150D01*
X987215Y800157D01*
X987250Y800159D01*
X987276Y800161D01*
X987298Y800163D01*
X987311D01*
X987313D01*
X987316D01*
X987383Y800161D01*
D02*
G37*
G36*
X986866Y798504D02*
X986860Y798487D01*
X986853Y798469D01*
X986849Y798454D01*
X986845Y798443D01*
X986840Y798435D01*
Y798432D01*
X986823Y798391D01*
X986814Y798371D01*
X986806Y798354D01*
X986799Y798341D01*
X986792Y798330D01*
X986790Y798323D01*
X986788Y798321D01*
X986766Y798284D01*
X986757Y798269D01*
X986749Y798254D01*
X986742Y798243D01*
X986736Y798234D01*
X986734Y798230D01*
X986731Y798228D01*
X986712Y798199D01*
X986697Y798177D01*
X986686Y798167D01*
X986681Y798162D01*
X988109D01*
Y797975D01*
X986420D01*
Y798044D01*
X986448Y798079D01*
X986474Y798114D01*
X986483Y798129D01*
X986492Y798140D01*
X986496Y798149D01*
X986498Y798151D01*
X986526Y798195D01*
X986539Y798217D01*
X986550Y798236D01*
X986561Y798254D01*
X986568Y798267D01*
X986572Y798276D01*
X986574Y798278D01*
X986601Y798326D01*
X986611Y798350D01*
X986620Y798369D01*
X986629Y798387D01*
X986635Y798400D01*
X986638Y798411D01*
X986640Y798413D01*
X986659Y798463D01*
X986666Y798485D01*
X986672Y798504D01*
X986679Y798522D01*
X986683Y798535D01*
X986686Y798544D01*
Y798546D01*
X986877D01*
X986866Y798504D01*
D02*
G37*
%LPC*%
G36*
X1002232Y794668D02*
X1002229D01*
X1002225D01*
X1002216D01*
X1002203Y794666D01*
X1002190D01*
X1002173Y794664D01*
X1002153Y794662D01*
X1002131Y794657D01*
X1002083Y794649D01*
X1002031Y794633D01*
X1001974Y794612D01*
X1001913Y794583D01*
X1001885Y794568D01*
X1001854Y794548D01*
X1001826Y794526D01*
X1001798Y794502D01*
X1001769Y794476D01*
X1001743Y794448D01*
X1001719Y794417D01*
X1001695Y794383D01*
X1001676Y794346D01*
X1001656Y794306D01*
X1001639Y794263D01*
X1001623Y794215D01*
X1001612Y794165D01*
X1001604Y794112D01*
X1001599Y794053D01*
X1001597Y793992D01*
Y793735D01*
X1002899D01*
Y793997D01*
X1002896Y794012D01*
Y794036D01*
X1002894Y794062D01*
X1002890Y794095D01*
X1002883Y794130D01*
X1002877Y794167D01*
X1002868Y794206D01*
X1002855Y794247D01*
X1002842Y794289D01*
X1002824Y794333D01*
X1002805Y794374D01*
X1002781Y794413D01*
X1002755Y794452D01*
X1002724Y794487D01*
X1002722Y794489D01*
X1002715Y794496D01*
X1002707Y794505D01*
X1002691Y794516D01*
X1002674Y794529D01*
X1002652Y794544D01*
X1002626Y794561D01*
X1002598Y794579D01*
X1002565Y794594D01*
X1002528Y794612D01*
X1002487Y794627D01*
X1002443Y794640D01*
X1002395Y794651D01*
X1002345Y794660D01*
X1002290Y794666D01*
X1002232Y794668D01*
D02*
G37*
G36*
X987252Y806548D02*
X986653D01*
Y806273D01*
X986655Y806260D01*
Y806240D01*
X986657Y806221D01*
X986661Y806197D01*
X986674Y806151D01*
X986677Y806149D01*
X986679Y806140D01*
X986683Y806129D01*
X986692Y806114D01*
X986712Y806081D01*
X986738Y806046D01*
X986740Y806044D01*
X986744Y806037D01*
X986753Y806031D01*
X986766Y806020D01*
X986781Y806009D01*
X986797Y805996D01*
X986816Y805985D01*
X986838Y805974D01*
X986840Y805972D01*
X986849Y805970D01*
X986862Y805966D01*
X986877Y805961D01*
X986897Y805957D01*
X986921Y805952D01*
X986945Y805948D01*
X986971D01*
X986973D01*
X986977D01*
X986984D01*
X986993Y805950D01*
X987017Y805952D01*
X987047Y805959D01*
X987080Y805970D01*
X987115Y805985D01*
X987148Y806007D01*
X987178Y806035D01*
X987180Y806040D01*
X987189Y806050D01*
X987202Y806070D01*
X987215Y806098D01*
X987228Y806133D01*
X987241Y806177D01*
X987250Y806227D01*
X987252Y806284D01*
Y806548D01*
D02*
G37*
G36*
X985872Y794668D02*
X985863D01*
X985859D01*
X985857D01*
X985798Y794666D01*
X985743Y794660D01*
X985693Y794651D01*
X985645Y794640D01*
X985602Y794627D01*
X985560Y794612D01*
X985523Y794594D01*
X985490Y794579D01*
X985462Y794561D01*
X985436Y794544D01*
X985414Y794529D01*
X985397Y794516D01*
X985381Y794505D01*
X985373Y794496D01*
X985366Y794489D01*
X985364Y794487D01*
X985333Y794452D01*
X985307Y794413D01*
X985283Y794374D01*
X985264Y794333D01*
X985246Y794289D01*
X985233Y794247D01*
X985220Y794206D01*
X985211Y794167D01*
X985205Y794130D01*
X985198Y794095D01*
X985194Y794062D01*
X985192Y794036D01*
Y794012D01*
X985190Y793997D01*
Y793735D01*
X986491D01*
Y793992D01*
X986489Y794053D01*
X986484Y794112D01*
X986476Y794165D01*
X986465Y794215D01*
X986450Y794263D01*
X986432Y794306D01*
X986413Y794346D01*
X986393Y794383D01*
X986369Y794417D01*
X986345Y794448D01*
X986319Y794476D01*
X986290Y794502D01*
X986262Y794526D01*
X986234Y794548D01*
X986203Y794568D01*
X986175Y794583D01*
X986114Y794612D01*
X986057Y794633D01*
X986005Y794649D01*
X985957Y794657D01*
X985935Y794662D01*
X985915Y794664D01*
X985898Y794666D01*
X985885D01*
X985872Y794668D01*
D02*
G37*
%LPD*%
D10*
X983808Y805401D02*
G03*
X983808Y806188I0J394D01*
G01*
D02*
G03*
X983808Y805401I0J-394D01*
G01*
X1004280Y808550D02*
G03*
X1004165Y808829I-394J0D01*
G01*
X1004280Y808550D02*
G03*
X1004165Y808829I-394J0D01*
G01*
X1003771Y809223D02*
G03*
X1003493Y809338I-279J-279D01*
G01*
X1003771Y809223D02*
G03*
X1003493Y809338I-279J-279D01*
G01*
X1004165Y789374D02*
G03*
X1004280Y789653I-279J279D01*
G01*
X1004165Y789374D02*
G03*
X1004280Y789653I-279J279D01*
G01*
X1003493Y788865D02*
G03*
X1003771Y788981I0J394D01*
G01*
X1003493Y788865D02*
G03*
X1003771Y788981I0J394D01*
G01*
X986170Y809338D02*
G03*
X985892Y809223I0J-394D01*
G01*
X986170Y809338D02*
G03*
X985892Y809223I0J-394D01*
G01*
X983923Y807254D02*
G03*
X983808Y806976I279J-279D01*
G01*
X983923Y807254D02*
G03*
X983808Y806976I279J-279D01*
G01*
X984317Y788981D02*
G03*
X984595Y788865I279J279D01*
G01*
X984317Y788981D02*
G03*
X984595Y788865I279J279D01*
G01*
X983808Y789653D02*
G03*
X983923Y789374I394J0D01*
G01*
X983808Y789653D02*
G03*
X983923Y789374I394J0D01*
G01*
X1003771Y809223D02*
X1004165Y808829D01*
X1004280Y789653D02*
Y808550D01*
X1003771Y788981D02*
X1004165Y789374D01*
X986170Y809338D02*
X1003493D01*
X983923Y807254D02*
X985892Y809223D01*
X983808Y789653D02*
Y806976D01*
X984595Y788865D02*
X1003493D01*
X983923Y789374D02*
X984317Y788981D01*
D11*
X990107Y791326D02*
X997981D01*
X990107Y806877D02*
X997981D01*
X1001820Y795165D02*
X1001918Y803039D01*
X986268Y795165D02*
Y803039D01*
M02*
