G04*
G04 #@! TF.GenerationSoftware,Altium Limited,Altium Designer,21.7.2 (23)*
G04*
G04 Layer_Color=255*
%FSLAX25Y25*%
%MOIN*%
G70*
G04*
G04 #@! TF.SameCoordinates,D3EA2CE5-12AE-4A1D-801E-5BC502E624D2*
G04*
G04*
G04 #@! TF.FilePolarity,Positive*
G04*
G01*
G75*
%ADD10C,0.00787*%
%ADD12R,0.07874X0.02205*%
D10*
X1004280Y808550D02*
G03*
X1004165Y808829I-394J0D01*
G01*
X1004280Y808550D02*
G03*
X1004165Y808829I-394J0D01*
G01*
X1003771Y809223D02*
G03*
X1003493Y809338I-279J-279D01*
G01*
X1003771Y809223D02*
G03*
X1003493Y809338I-279J-279D01*
G01*
X1004165Y789374D02*
G03*
X1004280Y789653I-279J279D01*
G01*
X1004165Y789374D02*
G03*
X1004280Y789653I-279J279D01*
G01*
X1003493Y788865D02*
G03*
X1003771Y788981I0J394D01*
G01*
X1003493Y788865D02*
G03*
X1003771Y788981I0J394D01*
G01*
X986170Y809338D02*
G03*
X985892Y809223I0J-394D01*
G01*
X986170Y809338D02*
G03*
X985892Y809223I0J-394D01*
G01*
X983923Y807254D02*
G03*
X983808Y806976I279J-279D01*
G01*
X983923Y807254D02*
G03*
X983808Y806976I279J-279D01*
G01*
X984317Y788981D02*
G03*
X984595Y788865I279J279D01*
G01*
X984317Y788981D02*
G03*
X984595Y788865I279J279D01*
G01*
X983808Y789653D02*
G03*
X983923Y789374I394J0D01*
G01*
X983808Y789653D02*
G03*
X983923Y789374I394J0D01*
G01*
X1003771Y809223D02*
X1004165Y808829D01*
X1004280Y789653D02*
Y808550D01*
X1003771Y788981D02*
X1004165Y789374D01*
X986170Y809338D02*
X1003493D01*
X983923Y807254D02*
X985892Y809223D01*
X983808Y789653D02*
Y806976D01*
X984595Y788865D02*
X1003493D01*
X983923Y789374D02*
X984317Y788981D01*
D12*
X988926Y801070D02*
D03*
Y797133D02*
D03*
X999162D02*
D03*
Y801070D02*
D03*
M02*
