ISO-10303-21;
HEADER;
/* Generated by software containing ST-Developer
 * from STEP Tools, Inc. (www.steptools.com) 
 */

FILE_DESCRIPTION(
/* description */ (''),
/* implementation_level */ '2;1');

FILE_NAME(
/* name */ 'LeftGearboxCoverr.stp',
/* time_stamp */ '2026-04-26T22:18:16+02:00',
/* author */ ('szymo'),
/* organization */ (''),
/* preprocessor_version */ 'ST-DEVELOPER v20.1',
/* originating_system */ 'Autodesk Inventor 2026',
/* authorisation */ '');

FILE_SCHEMA (('AUTOMOTIVE_DESIGN { 1 0 10303 214 3 1 1 }'));
ENDSEC;

DATA;
#10=MECHANICAL_DESIGN_GEOMETRIC_PRESENTATION_REPRESENTATION('',(#13),#2045);
#11=SHAPE_REPRESENTATION_RELATIONSHIP('SRR','None',#2052,#12);
#12=ADVANCED_BREP_SHAPE_REPRESENTATION('',(#14),#2044);
#13=STYLED_ITEM('',(#2061),#14);
#14=MANIFOLD_SOLID_BREP('Solid3',#1202);
#15=(
BOUNDED_CURVE()
B_SPLINE_CURVE(2,(#1930,#1931,#1932),.UNSPECIFIED.,.F.,.F.)
B_SPLINE_CURVE_WITH_KNOTS((3,3),(0.,0.0386593842261062),.UNSPECIFIED.)
CURVE()
GEOMETRIC_REPRESENTATION_ITEM()
RATIONAL_B_SPLINE_CURVE((1.,1.00356259628651,1.00356259628651))
REPRESENTATION_ITEM('')
);
#16=(
BOUNDED_CURVE()
B_SPLINE_CURVE(2,(#1935,#1936,#1937),.UNSPECIFIED.,.F.,.F.)
B_SPLINE_CURVE_WITH_KNOTS((3,3),(0.0386593842261062,0.0773187684522123),
 .UNSPECIFIED.)
CURVE()
GEOMETRIC_REPRESENTATION_ITEM()
RATIONAL_B_SPLINE_CURVE((1.00356259628651,1.00356259628651,1.))
REPRESENTATION_ITEM('')
);
#17=CONICAL_SURFACE('',#1270,2.425,0.785398163397448);
#18=CONICAL_SURFACE('',#1277,2.425,0.785398163397448);
#19=CONICAL_SURFACE('',#1284,2.425,0.785398163397448);
#20=CONICAL_SURFACE('',#1289,2.425,0.785398163397448);
#21=CONICAL_SURFACE('',#1294,2.425,0.785398163397448);
#22=CONICAL_SURFACE('',#1299,2.425,0.785398163397448);
#23=FACE_BOUND('',#157,.T.);
#24=FACE_BOUND('',#161,.T.);
#25=FACE_BOUND('',#162,.T.);
#26=FACE_BOUND('',#167,.T.);
#27=FACE_BOUND('',#172,.T.);
#28=FACE_BOUND('',#177,.T.);
#29=FACE_BOUND('',#203,.T.);
#30=FACE_BOUND('',#207,.T.);
#31=FACE_BOUND('',#211,.T.);
#32=FACE_BOUND('',#215,.T.);
#33=FACE_BOUND('',#216,.T.);
#34=FACE_BOUND('',#217,.T.);
#35=FACE_BOUND('',#218,.T.);
#36=FACE_BOUND('',#221,.T.);
#37=FACE_BOUND('',#230,.T.);
#38=FACE_BOUND('',#231,.T.);
#39=FACE_BOUND('',#232,.T.);
#40=FACE_BOUND('',#233,.T.);
#41=FACE_BOUND('',#234,.T.);
#42=FACE_BOUND('',#235,.T.);
#43=FACE_BOUND('',#236,.T.);
#44=FACE_BOUND('',#237,.T.);
#45=FACE_BOUND('',#238,.T.);
#46=FACE_BOUND('',#239,.T.);
#47=FACE_BOUND('',#240,.T.);
#48=FACE_BOUND('',#241,.T.);
#49=FACE_BOUND('',#242,.T.);
#50=FACE_BOUND('',#243,.T.);
#51=PLANE('',#1228);
#52=PLANE('',#1229);
#53=PLANE('',#1233);
#54=PLANE('',#1234);
#55=PLANE('',#1239);
#56=PLANE('',#1240);
#57=PLANE('',#1249);
#58=PLANE('',#1250);
#59=PLANE('',#1254);
#60=PLANE('',#1255);
#61=PLANE('',#1256);
#62=PLANE('',#1260);
#63=PLANE('',#1261);
#64=PLANE('',#1262);
#65=PLANE('',#1269);
#66=PLANE('',#1304);
#67=PLANE('',#1305);
#68=PLANE('',#1306);
#69=PLANE('',#1307);
#70=PLANE('',#1308);
#71=PLANE('',#1312);
#72=PLANE('',#1316);
#73=PLANE('',#1317);
#74=PLANE('',#1323);
#75=PLANE('',#1329);
#76=PLANE('',#1335);
#77=PLANE('',#1339);
#78=PLANE('',#1340);
#79=PLANE('',#1341);
#80=PLANE('',#1342);
#81=PLANE('',#1343);
#82=PLANE('',#1344);
#83=PLANE('',#1345);
#84=PLANE('',#1346);
#85=PLANE('',#1347);
#86=FACE_OUTER_BOUND('',#151,.T.);
#87=FACE_OUTER_BOUND('',#152,.T.);
#88=FACE_OUTER_BOUND('',#153,.T.);
#89=FACE_OUTER_BOUND('',#154,.T.);
#90=FACE_OUTER_BOUND('',#155,.T.);
#91=FACE_OUTER_BOUND('',#156,.T.);
#92=FACE_OUTER_BOUND('',#158,.T.);
#93=FACE_OUTER_BOUND('',#159,.T.);
#94=FACE_OUTER_BOUND('',#160,.T.);
#95=FACE_OUTER_BOUND('',#163,.T.);
#96=FACE_OUTER_BOUND('',#164,.T.);
#97=FACE_OUTER_BOUND('',#165,.T.);
#98=FACE_OUTER_BOUND('',#166,.T.);
#99=FACE_OUTER_BOUND('',#168,.T.);
#100=FACE_OUTER_BOUND('',#169,.T.);
#101=FACE_OUTER_BOUND('',#170,.T.);
#102=FACE_OUTER_BOUND('',#171,.T.);
#103=FACE_OUTER_BOUND('',#173,.T.);
#104=FACE_OUTER_BOUND('',#174,.T.);
#105=FACE_OUTER_BOUND('',#175,.T.);
#106=FACE_OUTER_BOUND('',#176,.T.);
#107=FACE_OUTER_BOUND('',#178,.T.);
#108=FACE_OUTER_BOUND('',#179,.T.);
#109=FACE_OUTER_BOUND('',#180,.T.);
#110=FACE_OUTER_BOUND('',#181,.T.);
#111=FACE_OUTER_BOUND('',#182,.T.);
#112=FACE_OUTER_BOUND('',#183,.T.);
#113=FACE_OUTER_BOUND('',#184,.T.);
#114=FACE_OUTER_BOUND('',#185,.T.);
#115=FACE_OUTER_BOUND('',#186,.T.);
#116=FACE_OUTER_BOUND('',#187,.T.);
#117=FACE_OUTER_BOUND('',#188,.T.);
#118=FACE_OUTER_BOUND('',#189,.T.);
#119=FACE_OUTER_BOUND('',#190,.T.);
#120=FACE_OUTER_BOUND('',#191,.T.);
#121=FACE_OUTER_BOUND('',#192,.T.);
#122=FACE_OUTER_BOUND('',#193,.T.);
#123=FACE_OUTER_BOUND('',#194,.T.);
#124=FACE_OUTER_BOUND('',#195,.T.);
#125=FACE_OUTER_BOUND('',#196,.T.);
#126=FACE_OUTER_BOUND('',#197,.T.);
#127=FACE_OUTER_BOUND('',#198,.T.);
#128=FACE_OUTER_BOUND('',#199,.T.);
#129=FACE_OUTER_BOUND('',#200,.T.);
#130=FACE_OUTER_BOUND('',#201,.T.);
#131=FACE_OUTER_BOUND('',#202,.T.);
#132=FACE_OUTER_BOUND('',#204,.T.);
#133=FACE_OUTER_BOUND('',#205,.T.);
#134=FACE_OUTER_BOUND('',#206,.T.);
#135=FACE_OUTER_BOUND('',#208,.T.);
#136=FACE_OUTER_BOUND('',#209,.T.);
#137=FACE_OUTER_BOUND('',#210,.T.);
#138=FACE_OUTER_BOUND('',#212,.T.);
#139=FACE_OUTER_BOUND('',#213,.T.);
#140=FACE_OUTER_BOUND('',#214,.T.);
#141=FACE_OUTER_BOUND('',#219,.T.);
#142=FACE_OUTER_BOUND('',#220,.T.);
#143=FACE_OUTER_BOUND('',#222,.T.);
#144=FACE_OUTER_BOUND('',#223,.T.);
#145=FACE_OUTER_BOUND('',#224,.T.);
#146=FACE_OUTER_BOUND('',#225,.T.);
#147=FACE_OUTER_BOUND('',#226,.T.);
#148=FACE_OUTER_BOUND('',#227,.T.);
#149=FACE_OUTER_BOUND('',#228,.T.);
#150=FACE_OUTER_BOUND('',#229,.T.);
#151=EDGE_LOOP('',(#783,#784,#785,#786));
#152=EDGE_LOOP('',(#787,#788,#789,#790,#791));
#153=EDGE_LOOP('',(#792,#793,#794,#795,#796,#797));
#154=EDGE_LOOP('',(#798,#799,#800,#801));
#155=EDGE_LOOP('',(#802,#803,#804,#805,#806,#807,#808,#809));
#156=EDGE_LOOP('',(#810,#811,#812,#813,#814,#815,#816));
#157=EDGE_LOOP('',(#817));
#158=EDGE_LOOP('',(#818,#819,#820,#821));
#159=EDGE_LOOP('',(#822,#823,#824,#825,#826,#827,#828,#829));
#160=EDGE_LOOP('',(#830,#831,#832,#833,#834,#835,#836));
#161=EDGE_LOOP('',(#837));
#162=EDGE_LOOP('',(#838));
#163=EDGE_LOOP('',(#839,#840,#841,#842));
#164=EDGE_LOOP('',(#843,#844,#845,#846));
#165=EDGE_LOOP('',(#847,#848,#849,#850));
#166=EDGE_LOOP('',(#851,#852,#853,#854));
#167=EDGE_LOOP('',(#855));
#168=EDGE_LOOP('',(#856,#857,#858,#859));
#169=EDGE_LOOP('',(#860,#861,#862,#863));
#170=EDGE_LOOP('',(#864,#865,#866,#867));
#171=EDGE_LOOP('',(#868,#869,#870,#871));
#172=EDGE_LOOP('',(#872));
#173=EDGE_LOOP('',(#873,#874,#875,#876));
#174=EDGE_LOOP('',(#877,#878,#879,#880));
#175=EDGE_LOOP('',(#881,#882,#883,#884,#885,#886,#887,#888,#889,#890,#891,
#892,#893,#894));
#176=EDGE_LOOP('',(#895));
#177=EDGE_LOOP('',(#896));
#178=EDGE_LOOP('',(#897,#898,#899,#900));
#179=EDGE_LOOP('',(#901,#902,#903,#904));
#180=EDGE_LOOP('',(#905));
#181=EDGE_LOOP('',(#906,#907,#908,#909,#910,#911));
#182=EDGE_LOOP('',(#912,#913,#914,#915));
#183=EDGE_LOOP('',(#916,#917,#918,#919,#920,#921));
#184=EDGE_LOOP('',(#922,#923,#924,#925));
#185=EDGE_LOOP('',(#926,#927,#928,#929));
#186=EDGE_LOOP('',(#930,#931,#932,#933));
#187=EDGE_LOOP('',(#934,#935,#936,#937));
#188=EDGE_LOOP('',(#938,#939,#940,#941));
#189=EDGE_LOOP('',(#942,#943,#944,#945));
#190=EDGE_LOOP('',(#946,#947,#948,#949));
#191=EDGE_LOOP('',(#950,#951,#952,#953,#954,#955));
#192=EDGE_LOOP('',(#956,#957,#958,#959));
#193=EDGE_LOOP('',(#960,#961,#962));
#194=EDGE_LOOP('',(#963,#964,#965));
#195=EDGE_LOOP('',(#966,#967,#968,#969,#970,#971));
#196=EDGE_LOOP('',(#972,#973,#974,#975,#976));
#197=EDGE_LOOP('',(#977,#978,#979,#980,#981,#982,#983,#984));
#198=EDGE_LOOP('',(#985,#986,#987,#988));
#199=EDGE_LOOP('',(#989));
#200=EDGE_LOOP('',(#990,#991,#992,#993));
#201=EDGE_LOOP('',(#994));
#202=EDGE_LOOP('',(#995));
#203=EDGE_LOOP('',(#996));
#204=EDGE_LOOP('',(#997,#998,#999,#1000));
#205=EDGE_LOOP('',(#1001,#1002,#1003,#1004));
#206=EDGE_LOOP('',(#1005));
#207=EDGE_LOOP('',(#1006));
#208=EDGE_LOOP('',(#1007,#1008,#1009,#1010));
#209=EDGE_LOOP('',(#1011,#1012,#1013,#1014));
#210=EDGE_LOOP('',(#1015));
#211=EDGE_LOOP('',(#1016));
#212=EDGE_LOOP('',(#1017,#1018,#1019,#1020));
#213=EDGE_LOOP('',(#1021,#1022,#1023,#1024));
#214=EDGE_LOOP('',(#1025,#1026,#1027,#1028,#1029,#1030,#1031,#1032,#1033,
#1034,#1035,#1036,#1037,#1038));
#215=EDGE_LOOP('',(#1039));
#216=EDGE_LOOP('',(#1040));
#217=EDGE_LOOP('',(#1041));
#218=EDGE_LOOP('',(#1042));
#219=EDGE_LOOP('',(#1043,#1044,#1045,#1046));
#220=EDGE_LOOP('',(#1047,#1048,#1049,#1050));
#221=EDGE_LOOP('',(#1051));
#222=EDGE_LOOP('',(#1052,#1053,#1054,#1055));
#223=EDGE_LOOP('',(#1056,#1057,#1058,#1059));
#224=EDGE_LOOP('',(#1060,#1061,#1062,#1063));
#225=EDGE_LOOP('',(#1064,#1065,#1066,#1067));
#226=EDGE_LOOP('',(#1068,#1069,#1070,#1071));
#227=EDGE_LOOP('',(#1072,#1073,#1074,#1075,#1076,#1077,#1078,#1079));
#228=EDGE_LOOP('',(#1080,#1081,#1082,#1083,#1084));
#229=EDGE_LOOP('',(#1085,#1086,#1087,#1088,#1089,#1090,#1091,#1092,#1093,
#1094,#1095,#1096,#1097,#1098));
#230=EDGE_LOOP('',(#1099));
#231=EDGE_LOOP('',(#1100));
#232=EDGE_LOOP('',(#1101));
#233=EDGE_LOOP('',(#1102));
#234=EDGE_LOOP('',(#1103));
#235=EDGE_LOOP('',(#1104));
#236=EDGE_LOOP('',(#1105));
#237=EDGE_LOOP('',(#1106));
#238=EDGE_LOOP('',(#1107));
#239=EDGE_LOOP('',(#1108));
#240=EDGE_LOOP('',(#1109));
#241=EDGE_LOOP('',(#1110));
#242=EDGE_LOOP('',(#1111));
#243=EDGE_LOOP('',(#1112));
#244=LINE('',#1707,#349);
#245=LINE('',#1710,#350);
#246=LINE('',#1713,#351);
#247=LINE('',#1715,#352);
#248=LINE('',#1717,#353);
#249=LINE('',#1718,#354);
#250=LINE('',#1721,#355);
#251=LINE('',#1723,#356);
#252=LINE('',#1725,#357);
#253=LINE('',#1726,#358);
#254=LINE('',#1732,#359);
#255=LINE('',#1735,#360);
#256=LINE('',#1738,#361);
#257=LINE('',#1740,#362);
#258=LINE('',#1742,#363);
#259=LINE('',#1744,#364);
#260=LINE('',#1746,#365);
#261=LINE('',#1748,#366);
#262=LINE('',#1749,#367);
#263=LINE('',#1752,#368);
#264=LINE('',#1754,#369);
#265=LINE('',#1756,#370);
#266=LINE('',#1758,#371);
#267=LINE('',#1759,#372);
#268=LINE('',#1767,#373);
#269=LINE('',#1770,#374);
#270=LINE('',#1772,#375);
#271=LINE('',#1774,#376);
#272=LINE('',#1776,#377);
#273=LINE('',#1778,#378);
#274=LINE('',#1779,#379);
#275=LINE('',#1781,#380);
#276=LINE('',#1783,#381);
#277=LINE('',#1784,#382);
#278=LINE('',#1793,#383);
#279=LINE('',#1799,#384);
#280=LINE('',#1804,#385);
#281=LINE('',#1806,#386);
#282=LINE('',#1808,#387);
#283=LINE('',#1809,#388);
#284=LINE('',#1812,#389);
#285=LINE('',#1815,#390);
#286=LINE('',#1819,#391);
#287=LINE('',#1822,#392);
#288=LINE('',#1823,#393);
#289=LINE('',#1827,#394);
#290=LINE('',#1829,#395);
#291=LINE('',#1831,#396);
#292=LINE('',#1832,#397);
#293=LINE('',#1835,#398);
#294=LINE('',#1838,#399);
#295=LINE('',#1842,#400);
#296=LINE('',#1845,#401);
#297=LINE('',#1846,#402);
#298=LINE('',#1848,#403);
#299=LINE('',#1850,#404);
#300=LINE('',#1852,#405);
#301=LINE('',#1854,#406);
#302=LINE('',#1855,#407);
#303=LINE('',#1856,#408);
#304=LINE('',#1865,#409);
#305=LINE('',#1868,#410);
#306=LINE('',#1877,#411);
#307=LINE('',#1882,#412);
#308=LINE('',#1890,#413);
#309=LINE('',#1895,#414);
#310=LINE('',#1901,#415);
#311=LINE('',#1905,#416);
#312=LINE('',#1911,#417);
#313=LINE('',#1915,#418);
#314=LINE('',#1921,#419);
#315=LINE('',#1925,#420);
#316=LINE('',#1939,#421);
#317=LINE('',#1943,#422);
#318=LINE('',#1946,#423);
#319=LINE('',#1949,#424);
#320=LINE('',#1950,#425);
#321=LINE('',#1952,#426);
#322=LINE('',#1954,#427);
#323=LINE('',#1956,#428);
#324=LINE('',#1958,#429);
#325=LINE('',#1960,#430);
#326=LINE('',#1961,#431);
#327=LINE('',#1966,#432);
#328=LINE('',#1973,#433);
#329=LINE('',#1984,#434);
#330=LINE('',#1986,#435);
#331=LINE('',#1995,#436);
#332=LINE('',#1997,#437);
#333=LINE('',#2006,#438);
#334=LINE('',#2008,#439);
#335=LINE('',#2010,#440);
#336=LINE('',#2015,#441);
#337=LINE('',#2019,#442);
#338=LINE('',#2020,#443);
#339=LINE('',#2023,#444);
#340=LINE('',#2024,#445);
#341=LINE('',#2027,#446);
#342=LINE('',#2028,#447);
#343=LINE('',#2030,#448);
#344=LINE('',#2032,#449);
#345=LINE('',#2034,#450);
#346=LINE('',#2037,#451);
#347=LINE('',#2038,#452);
#348=LINE('',#2040,#453);
#349=VECTOR('',#1354,10.);
#350=VECTOR('',#1357,10.);
#351=VECTOR('',#1360,10.);
#352=VECTOR('',#1361,10.);
#353=VECTOR('',#1362,10.);
#354=VECTOR('',#1363,10.);
#355=VECTOR('',#1366,10.);
#356=VECTOR('',#1367,10.);
#357=VECTOR('',#1368,10.);
#358=VECTOR('',#1369,10.);
#359=VECTOR('',#1374,4.);
#360=VECTOR('',#1377,4.);
#361=VECTOR('',#1380,10.);
#362=VECTOR('',#1381,10.);
#363=VECTOR('',#1382,10.);
#364=VECTOR('',#1383,10.);
#365=VECTOR('',#1384,10.);
#366=VECTOR('',#1385,10.);
#367=VECTOR('',#1386,10.);
#368=VECTOR('',#1389,10.);
#369=VECTOR('',#1390,10.);
#370=VECTOR('',#1391,10.);
#371=VECTOR('',#1392,10.);
#372=VECTOR('',#1393,10.);
#373=VECTOR('',#1400,4.);
#374=VECTOR('',#1403,4.);
#375=VECTOR('',#1406,10.);
#376=VECTOR('',#1407,10.);
#377=VECTOR('',#1408,10.);
#378=VECTOR('',#1409,10.);
#379=VECTOR('',#1410,10.);
#380=VECTOR('',#1413,10.);
#381=VECTOR('',#1414,10.);
#382=VECTOR('',#1415,10.);
#383=VECTOR('',#1424,1.);
#384=VECTOR('',#1431,1.);
#385=VECTOR('',#1436,10.);
#386=VECTOR('',#1437,10.);
#387=VECTOR('',#1438,10.);
#388=VECTOR('',#1439,10.);
#389=VECTOR('',#1442,10.);
#390=VECTOR('',#1445,10.);
#391=VECTOR('',#1450,10.);
#392=VECTOR('',#1453,10.);
#393=VECTOR('',#1454,10.);
#394=VECTOR('',#1457,10.);
#395=VECTOR('',#1458,10.);
#396=VECTOR('',#1459,10.);
#397=VECTOR('',#1460,10.);
#398=VECTOR('',#1463,10.);
#399=VECTOR('',#1466,10.);
#400=VECTOR('',#1471,10.);
#401=VECTOR('',#1474,10.);
#402=VECTOR('',#1475,10.);
#403=VECTOR('',#1478,10.);
#404=VECTOR('',#1479,10.);
#405=VECTOR('',#1480,10.);
#406=VECTOR('',#1481,10.);
#407=VECTOR('',#1482,10.);
#408=VECTOR('',#1483,10.);
#409=VECTOR('',#1494,2.25);
#410=VECTOR('',#1497,2.);
#411=VECTOR('',#1508,2.425);
#412=VECTOR('',#1515,1.6);
#413=VECTOR('',#1524,2.425);
#414=VECTOR('',#1531,1.6);
#415=VECTOR('',#1538,2.425);
#416=VECTOR('',#1543,1.6);
#417=VECTOR('',#1550,2.425);
#418=VECTOR('',#1555,1.6);
#419=VECTOR('',#1562,2.425);
#420=VECTOR('',#1567,1.6);
#421=VECTOR('',#1574,2.425);
#422=VECTOR('',#1579,1.6);
#423=VECTOR('',#1584,10.);
#424=VECTOR('',#1587,10.);
#425=VECTOR('',#1588,10.);
#426=VECTOR('',#1591,10.);
#427=VECTOR('',#1594,10.);
#428=VECTOR('',#1597,10.);
#429=VECTOR('',#1598,10.);
#430=VECTOR('',#1599,10.);
#431=VECTOR('',#1600,10.);
#432=VECTOR('',#1605,4.);
#433=VECTOR('',#1614,1.25);
#434=VECTOR('',#1629,1.5);
#435=VECTOR('',#1632,1.25);
#436=VECTOR('',#1643,1.5);
#437=VECTOR('',#1646,1.25);
#438=VECTOR('',#1657,1.5);
#439=VECTOR('',#1660,1.25);
#440=VECTOR('',#1663,10.);
#441=VECTOR('',#1668,4.99999999999999);
#442=VECTOR('',#1673,10.);
#443=VECTOR('',#1674,10.);
#444=VECTOR('',#1677,10.);
#445=VECTOR('',#1678,10.);
#446=VECTOR('',#1681,10.);
#447=VECTOR('',#1682,10.);
#448=VECTOR('',#1685,10.);
#449=VECTOR('',#1688,10.);
#450=VECTOR('',#1691,10.);
#451=VECTOR('',#1694,10.);
#452=VECTOR('',#1695,10.);
#453=VECTOR('',#1698,10.);
#454=CIRCLE('',#1226,1.);
#455=CIRCLE('',#1227,1.);
#456=CIRCLE('',#1231,4.);
#457=CIRCLE('',#1232,4.);
#458=CIRCLE('',#1235,1.25);
#459=CIRCLE('',#1237,4.);
#460=CIRCLE('',#1238,4.);
#461=CIRCLE('',#1241,1.25);
#462=CIRCLE('',#1242,1.25);
#463=CIRCLE('',#1244,1.);
#464=CIRCLE('',#1245,1.);
#465=CIRCLE('',#1247,1.);
#466=CIRCLE('',#1248,1.);
#467=CIRCLE('',#1251,2.);
#468=CIRCLE('',#1253,2.);
#469=CIRCLE('',#1257,2.);
#470=CIRCLE('',#1259,2.);
#471=CIRCLE('',#1263,2.25);
#472=CIRCLE('',#1264,2.);
#473=CIRCLE('',#1266,2.25);
#474=CIRCLE('',#1268,2.);
#475=CIRCLE('',#1271,3.25);
#476=CIRCLE('',#1272,3.25);
#477=CIRCLE('',#1273,1.6);
#478=CIRCLE('',#1274,3.25);
#479=CIRCLE('',#1276,1.6);
#480=CIRCLE('',#1278,3.25);
#481=CIRCLE('',#1279,3.25);
#482=CIRCLE('',#1280,1.6);
#483=CIRCLE('',#1281,3.25);
#484=CIRCLE('',#1283,1.6);
#485=CIRCLE('',#1285,3.25);
#486=CIRCLE('',#1286,1.6);
#487=CIRCLE('',#1288,1.6);
#488=CIRCLE('',#1290,3.25);
#489=CIRCLE('',#1291,1.6);
#490=CIRCLE('',#1293,1.6);
#491=CIRCLE('',#1295,3.25);
#492=CIRCLE('',#1296,1.6);
#493=CIRCLE('',#1298,1.6);
#494=CIRCLE('',#1300,3.25);
#495=CIRCLE('',#1301,1.6);
#496=CIRCLE('',#1303,1.6);
#497=CIRCLE('',#1310,4.);
#498=CIRCLE('',#1311,4.);
#499=CIRCLE('',#1314,1.25);
#500=CIRCLE('',#1315,1.25);
#501=CIRCLE('',#1318,1.5);
#502=CIRCLE('',#1319,1.25);
#503=CIRCLE('',#1321,1.5);
#504=CIRCLE('',#1324,1.5);
#505=CIRCLE('',#1325,1.25);
#506=CIRCLE('',#1327,1.5);
#507=CIRCLE('',#1330,1.5);
#508=CIRCLE('',#1331,1.25);
#509=CIRCLE('',#1333,1.5);
#510=CIRCLE('',#1336,4.99999999999999);
#511=CIRCLE('',#1338,4.99999999999999);
#512=VERTEX_POINT('',#1703);
#513=VERTEX_POINT('',#1704);
#514=VERTEX_POINT('',#1706);
#515=VERTEX_POINT('',#1708);
#516=VERTEX_POINT('',#1712);
#517=VERTEX_POINT('',#1714);
#518=VERTEX_POINT('',#1716);
#519=VERTEX_POINT('',#1720);
#520=VERTEX_POINT('',#1722);
#521=VERTEX_POINT('',#1724);
#522=VERTEX_POINT('',#1728);
#523=VERTEX_POINT('',#1729);
#524=VERTEX_POINT('',#1731);
#525=VERTEX_POINT('',#1733);
#526=VERTEX_POINT('',#1737);
#527=VERTEX_POINT('',#1739);
#528=VERTEX_POINT('',#1741);
#529=VERTEX_POINT('',#1743);
#530=VERTEX_POINT('',#1745);
#531=VERTEX_POINT('',#1747);
#532=VERTEX_POINT('',#1751);
#533=VERTEX_POINT('',#1753);
#534=VERTEX_POINT('',#1755);
#535=VERTEX_POINT('',#1757);
#536=VERTEX_POINT('',#1760);
#537=VERTEX_POINT('',#1763);
#538=VERTEX_POINT('',#1764);
#539=VERTEX_POINT('',#1766);
#540=VERTEX_POINT('',#1768);
#541=VERTEX_POINT('',#1773);
#542=VERTEX_POINT('',#1775);
#543=VERTEX_POINT('',#1777);
#544=VERTEX_POINT('',#1782);
#545=VERTEX_POINT('',#1785);
#546=VERTEX_POINT('',#1787);
#547=VERTEX_POINT('',#1790);
#548=VERTEX_POINT('',#1792);
#549=VERTEX_POINT('',#1796);
#550=VERTEX_POINT('',#1798);
#551=VERTEX_POINT('',#1802);
#552=VERTEX_POINT('',#1803);
#553=VERTEX_POINT('',#1805);
#554=VERTEX_POINT('',#1807);
#555=VERTEX_POINT('',#1811);
#556=VERTEX_POINT('',#1813);
#557=VERTEX_POINT('',#1817);
#558=VERTEX_POINT('',#1821);
#559=VERTEX_POINT('',#1825);
#560=VERTEX_POINT('',#1826);
#561=VERTEX_POINT('',#1828);
#562=VERTEX_POINT('',#1830);
#563=VERTEX_POINT('',#1834);
#564=VERTEX_POINT('',#1836);
#565=VERTEX_POINT('',#1840);
#566=VERTEX_POINT('',#1844);
#567=VERTEX_POINT('',#1849);
#568=VERTEX_POINT('',#1851);
#569=VERTEX_POINT('',#1853);
#570=VERTEX_POINT('',#1858);
#571=VERTEX_POINT('',#1860);
#572=VERTEX_POINT('',#1863);
#573=VERTEX_POINT('',#1867);
#574=VERTEX_POINT('',#1872);
#575=VERTEX_POINT('',#1874);
#576=VERTEX_POINT('',#1876);
#577=VERTEX_POINT('',#1881);
#578=VERTEX_POINT('',#1885);
#579=VERTEX_POINT('',#1887);
#580=VERTEX_POINT('',#1889);
#581=VERTEX_POINT('',#1894);
#582=VERTEX_POINT('',#1898);
#583=VERTEX_POINT('',#1900);
#584=VERTEX_POINT('',#1904);
#585=VERTEX_POINT('',#1908);
#586=VERTEX_POINT('',#1910);
#587=VERTEX_POINT('',#1914);
#588=VERTEX_POINT('',#1918);
#589=VERTEX_POINT('',#1920);
#590=VERTEX_POINT('',#1924);
#591=VERTEX_POINT('',#1928);
#592=VERTEX_POINT('',#1929);
#593=VERTEX_POINT('',#1933);
#594=VERTEX_POINT('',#1938);
#595=VERTEX_POINT('',#1942);
#596=VERTEX_POINT('',#1948);
#597=VERTEX_POINT('',#1957);
#598=VERTEX_POINT('',#1959);
#599=VERTEX_POINT('',#1963);
#600=VERTEX_POINT('',#1965);
#601=VERTEX_POINT('',#1970);
#602=VERTEX_POINT('',#1972);
#603=VERTEX_POINT('',#1977);
#604=VERTEX_POINT('',#1979);
#605=VERTEX_POINT('',#1982);
#606=VERTEX_POINT('',#1988);
#607=VERTEX_POINT('',#1990);
#608=VERTEX_POINT('',#1993);
#609=VERTEX_POINT('',#1999);
#610=VERTEX_POINT('',#2001);
#611=VERTEX_POINT('',#2004);
#612=VERTEX_POINT('',#2011);
#613=VERTEX_POINT('',#2014);
#614=VERTEX_POINT('',#2018);
#615=VERTEX_POINT('',#2022);
#616=VERTEX_POINT('',#2026);
#617=VERTEX_POINT('',#2036);
#618=EDGE_CURVE('',#512,#513,#454,.T.);
#619=EDGE_CURVE('',#513,#514,#244,.T.);
#620=EDGE_CURVE('',#514,#515,#455,.F.);
#621=EDGE_CURVE('',#515,#512,#245,.T.);
#622=EDGE_CURVE('',#512,#516,#246,.T.);
#623=EDGE_CURVE('',#517,#516,#247,.T.);
#624=EDGE_CURVE('',#518,#517,#248,.T.);
#625=EDGE_CURVE('',#513,#518,#249,.T.);
#626=EDGE_CURVE('',#515,#519,#250,.T.);
#627=EDGE_CURVE('',#520,#519,#251,.T.);
#628=EDGE_CURVE('',#520,#521,#252,.T.);
#629=EDGE_CURVE('',#516,#521,#253,.T.);
#630=EDGE_CURVE('',#522,#523,#456,.T.);
#631=EDGE_CURVE('',#522,#524,#254,.T.);
#632=EDGE_CURVE('',#524,#525,#457,.T.);
#633=EDGE_CURVE('',#525,#523,#255,.T.);
#634=EDGE_CURVE('',#526,#525,#256,.T.);
#635=EDGE_CURVE('',#527,#526,#257,.T.);
#636=EDGE_CURVE('',#528,#527,#258,.T.);
#637=EDGE_CURVE('',#528,#529,#259,.T.);
#638=EDGE_CURVE('',#530,#529,#260,.T.);
#639=EDGE_CURVE('',#531,#530,#261,.T.);
#640=EDGE_CURVE('',#523,#531,#262,.T.);
#641=EDGE_CURVE('',#524,#532,#263,.T.);
#642=EDGE_CURVE('',#532,#533,#264,.T.);
#643=EDGE_CURVE('',#533,#534,#265,.T.);
#644=EDGE_CURVE('',#534,#535,#266,.T.);
#645=EDGE_CURVE('',#535,#526,#267,.T.);
#646=EDGE_CURVE('',#536,#536,#458,.T.);
#647=EDGE_CURVE('',#537,#538,#459,.F.);
#648=EDGE_CURVE('',#538,#539,#268,.T.);
#649=EDGE_CURVE('',#539,#540,#460,.T.);
#650=EDGE_CURVE('',#540,#537,#269,.T.);
#651=EDGE_CURVE('',#537,#522,#270,.T.);
#652=EDGE_CURVE('',#541,#540,#271,.T.);
#653=EDGE_CURVE('',#542,#541,#272,.T.);
#654=EDGE_CURVE('',#543,#542,#273,.T.);
#655=EDGE_CURVE('',#543,#532,#274,.T.);
#656=EDGE_CURVE('',#539,#517,#275,.T.);
#657=EDGE_CURVE('',#521,#544,#276,.T.);
#658=EDGE_CURVE('',#544,#541,#277,.T.);
#659=EDGE_CURVE('',#545,#545,#461,.T.);
#660=EDGE_CURVE('',#546,#546,#462,.T.);
#661=EDGE_CURVE('',#547,#547,#463,.T.);
#662=EDGE_CURVE('',#547,#548,#278,.T.);
#663=EDGE_CURVE('',#548,#548,#464,.T.);
#664=EDGE_CURVE('',#549,#549,#465,.T.);
#665=EDGE_CURVE('',#549,#550,#279,.T.);
#666=EDGE_CURVE('',#550,#550,#466,.T.);
#667=EDGE_CURVE('',#551,#552,#280,.T.);
#668=EDGE_CURVE('',#553,#551,#281,.T.);
#669=EDGE_CURVE('',#553,#554,#282,.T.);
#670=EDGE_CURVE('',#554,#552,#283,.T.);
#671=EDGE_CURVE('',#552,#555,#284,.T.);
#672=EDGE_CURVE('',#556,#554,#467,.T.);
#673=EDGE_CURVE('',#555,#556,#285,.T.);
#674=EDGE_CURVE('',#557,#553,#468,.T.);
#675=EDGE_CURVE('',#557,#556,#286,.T.);
#676=EDGE_CURVE('',#555,#558,#287,.T.);
#677=EDGE_CURVE('',#558,#557,#288,.T.);
#678=EDGE_CURVE('',#559,#560,#289,.T.);
#679=EDGE_CURVE('',#561,#559,#290,.T.);
#680=EDGE_CURVE('',#561,#562,#291,.T.);
#681=EDGE_CURVE('',#562,#560,#292,.T.);
#682=EDGE_CURVE('',#560,#563,#293,.T.);
#683=EDGE_CURVE('',#564,#562,#469,.T.);
#684=EDGE_CURVE('',#563,#564,#294,.T.);
#685=EDGE_CURVE('',#565,#561,#470,.T.);
#686=EDGE_CURVE('',#565,#564,#295,.T.);
#687=EDGE_CURVE('',#563,#566,#296,.T.);
#688=EDGE_CURVE('',#566,#565,#297,.T.);
#689=EDGE_CURVE('',#559,#558,#298,.T.);
#690=EDGE_CURVE('',#567,#566,#299,.T.);
#691=EDGE_CURVE('',#568,#567,#300,.T.);
#692=EDGE_CURVE('',#569,#568,#301,.T.);
#693=EDGE_CURVE('',#569,#544,#302,.T.);
#694=EDGE_CURVE('',#551,#520,#303,.T.);
#695=EDGE_CURVE('',#570,#570,#471,.T.);
#696=EDGE_CURVE('',#571,#571,#472,.T.);
#697=EDGE_CURVE('',#572,#572,#473,.T.);
#698=EDGE_CURVE('',#572,#570,#304,.T.);
#699=EDGE_CURVE('',#571,#573,#305,.T.);
#700=EDGE_CURVE('',#573,#573,#474,.T.);
#701=EDGE_CURVE('',#531,#574,#475,.T.);
#702=EDGE_CURVE('',#575,#531,#476,.T.);
#703=EDGE_CURVE('',#575,#576,#306,.T.);
#704=EDGE_CURVE('',#576,#576,#477,.T.);
#705=EDGE_CURVE('',#574,#575,#478,.T.);
#706=EDGE_CURVE('',#576,#577,#307,.T.);
#707=EDGE_CURVE('',#577,#577,#479,.T.);
#708=EDGE_CURVE('',#530,#578,#480,.T.);
#709=EDGE_CURVE('',#579,#530,#481,.T.);
#710=EDGE_CURVE('',#579,#580,#308,.T.);
#711=EDGE_CURVE('',#580,#580,#482,.T.);
#712=EDGE_CURVE('',#578,#579,#483,.T.);
#713=EDGE_CURVE('',#580,#581,#309,.T.);
#714=EDGE_CURVE('',#581,#581,#484,.T.);
#715=EDGE_CURVE('',#582,#582,#485,.T.);
#716=EDGE_CURVE('',#582,#583,#310,.T.);
#717=EDGE_CURVE('',#583,#583,#486,.T.);
#718=EDGE_CURVE('',#583,#584,#311,.T.);
#719=EDGE_CURVE('',#584,#584,#487,.T.);
#720=EDGE_CURVE('',#585,#585,#488,.T.);
#721=EDGE_CURVE('',#585,#586,#312,.T.);
#722=EDGE_CURVE('',#586,#586,#489,.T.);
#723=EDGE_CURVE('',#586,#587,#313,.T.);
#724=EDGE_CURVE('',#587,#587,#490,.T.);
#725=EDGE_CURVE('',#588,#588,#491,.T.);
#726=EDGE_CURVE('',#588,#589,#314,.T.);
#727=EDGE_CURVE('',#589,#589,#492,.T.);
#728=EDGE_CURVE('',#589,#590,#315,.T.);
#729=EDGE_CURVE('',#590,#590,#493,.T.);
#730=EDGE_CURVE('',#591,#592,#15,.T.);
#731=EDGE_CURVE('',#593,#591,#494,.T.);
#732=EDGE_CURVE('',#592,#593,#16,.T.);
#733=EDGE_CURVE('',#592,#594,#316,.T.);
#734=EDGE_CURVE('',#594,#594,#495,.T.);
#735=EDGE_CURVE('',#594,#595,#317,.T.);
#736=EDGE_CURVE('',#595,#595,#496,.T.);
#737=EDGE_CURVE('',#529,#579,#318,.T.);
#738=EDGE_CURVE('',#579,#596,#319,.T.);
#739=EDGE_CURVE('',#596,#578,#320,.T.);
#740=EDGE_CURVE('',#574,#538,#321,.T.);
#741=EDGE_CURVE('',#578,#574,#322,.T.);
#742=EDGE_CURVE('',#519,#593,#323,.T.);
#743=EDGE_CURVE('',#597,#514,#324,.T.);
#744=EDGE_CURVE('',#597,#598,#325,.T.);
#745=EDGE_CURVE('',#591,#598,#326,.T.);
#746=EDGE_CURVE('',#599,#599,#497,.T.);
#747=EDGE_CURVE('',#599,#600,#327,.T.);
#748=EDGE_CURVE('',#600,#600,#498,.T.);
#749=EDGE_CURVE('',#601,#601,#499,.T.);
#750=EDGE_CURVE('',#601,#602,#328,.T.);
#751=EDGE_CURVE('',#602,#602,#500,.T.);
#752=EDGE_CURVE('',#603,#603,#501,.T.);
#753=EDGE_CURVE('',#604,#604,#502,.T.);
#754=EDGE_CURVE('',#605,#605,#503,.T.);
#755=EDGE_CURVE('',#605,#603,#329,.T.);
#756=EDGE_CURVE('',#604,#536,#330,.T.);
#757=EDGE_CURVE('',#606,#606,#504,.T.);
#758=EDGE_CURVE('',#607,#607,#505,.T.);
#759=EDGE_CURVE('',#608,#608,#506,.T.);
#760=EDGE_CURVE('',#608,#606,#331,.T.);
#761=EDGE_CURVE('',#607,#546,#332,.T.);
#762=EDGE_CURVE('',#609,#609,#507,.T.);
#763=EDGE_CURVE('',#610,#610,#508,.T.);
#764=EDGE_CURVE('',#611,#611,#509,.T.);
#765=EDGE_CURVE('',#611,#609,#333,.T.);
#766=EDGE_CURVE('',#610,#545,#334,.T.);
#767=EDGE_CURVE('',#598,#567,#335,.T.);
#768=EDGE_CURVE('',#612,#612,#510,.T.);
#769=EDGE_CURVE('',#612,#613,#336,.T.);
#770=EDGE_CURVE('',#613,#613,#511,.T.);
#771=EDGE_CURVE('',#527,#614,#337,.T.);
#772=EDGE_CURVE('',#614,#535,#338,.T.);
#773=EDGE_CURVE('',#614,#615,#339,.T.);
#774=EDGE_CURVE('',#615,#534,#340,.T.);
#775=EDGE_CURVE('',#615,#616,#341,.T.);
#776=EDGE_CURVE('',#616,#533,#342,.T.);
#777=EDGE_CURVE('',#616,#543,#343,.T.);
#778=EDGE_CURVE('',#542,#569,#344,.T.);
#779=EDGE_CURVE('',#568,#597,#345,.T.);
#780=EDGE_CURVE('',#617,#596,#346,.T.);
#781=EDGE_CURVE('',#518,#617,#347,.T.);
#782=EDGE_CURVE('',#617,#528,#348,.T.);
#783=ORIENTED_EDGE('',*,*,#618,.T.);
#784=ORIENTED_EDGE('',*,*,#619,.T.);
#785=ORIENTED_EDGE('',*,*,#620,.T.);
#786=ORIENTED_EDGE('',*,*,#621,.T.);
#787=ORIENTED_EDGE('',*,*,#618,.F.);
#788=ORIENTED_EDGE('',*,*,#622,.T.);
#789=ORIENTED_EDGE('',*,*,#623,.F.);
#790=ORIENTED_EDGE('',*,*,#624,.F.);
#791=ORIENTED_EDGE('',*,*,#625,.F.);
#792=ORIENTED_EDGE('',*,*,#621,.F.);
#793=ORIENTED_EDGE('',*,*,#626,.T.);
#794=ORIENTED_EDGE('',*,*,#627,.F.);
#795=ORIENTED_EDGE('',*,*,#628,.T.);
#796=ORIENTED_EDGE('',*,*,#629,.F.);
#797=ORIENTED_EDGE('',*,*,#622,.F.);
#798=ORIENTED_EDGE('',*,*,#630,.F.);
#799=ORIENTED_EDGE('',*,*,#631,.T.);
#800=ORIENTED_EDGE('',*,*,#632,.T.);
#801=ORIENTED_EDGE('',*,*,#633,.T.);
#802=ORIENTED_EDGE('',*,*,#633,.F.);
#803=ORIENTED_EDGE('',*,*,#634,.F.);
#804=ORIENTED_EDGE('',*,*,#635,.F.);
#805=ORIENTED_EDGE('',*,*,#636,.F.);
#806=ORIENTED_EDGE('',*,*,#637,.T.);
#807=ORIENTED_EDGE('',*,*,#638,.F.);
#808=ORIENTED_EDGE('',*,*,#639,.F.);
#809=ORIENTED_EDGE('',*,*,#640,.F.);
#810=ORIENTED_EDGE('',*,*,#632,.F.);
#811=ORIENTED_EDGE('',*,*,#641,.T.);
#812=ORIENTED_EDGE('',*,*,#642,.T.);
#813=ORIENTED_EDGE('',*,*,#643,.T.);
#814=ORIENTED_EDGE('',*,*,#644,.T.);
#815=ORIENTED_EDGE('',*,*,#645,.T.);
#816=ORIENTED_EDGE('',*,*,#634,.T.);
#817=ORIENTED_EDGE('',*,*,#646,.T.);
#818=ORIENTED_EDGE('',*,*,#647,.T.);
#819=ORIENTED_EDGE('',*,*,#648,.T.);
#820=ORIENTED_EDGE('',*,*,#649,.T.);
#821=ORIENTED_EDGE('',*,*,#650,.T.);
#822=ORIENTED_EDGE('',*,*,#651,.F.);
#823=ORIENTED_EDGE('',*,*,#650,.F.);
#824=ORIENTED_EDGE('',*,*,#652,.F.);
#825=ORIENTED_EDGE('',*,*,#653,.F.);
#826=ORIENTED_EDGE('',*,*,#654,.F.);
#827=ORIENTED_EDGE('',*,*,#655,.T.);
#828=ORIENTED_EDGE('',*,*,#641,.F.);
#829=ORIENTED_EDGE('',*,*,#631,.F.);
#830=ORIENTED_EDGE('',*,*,#649,.F.);
#831=ORIENTED_EDGE('',*,*,#656,.T.);
#832=ORIENTED_EDGE('',*,*,#623,.T.);
#833=ORIENTED_EDGE('',*,*,#629,.T.);
#834=ORIENTED_EDGE('',*,*,#657,.T.);
#835=ORIENTED_EDGE('',*,*,#658,.T.);
#836=ORIENTED_EDGE('',*,*,#652,.T.);
#837=ORIENTED_EDGE('',*,*,#659,.T.);
#838=ORIENTED_EDGE('',*,*,#660,.T.);
#839=ORIENTED_EDGE('',*,*,#661,.F.);
#840=ORIENTED_EDGE('',*,*,#662,.T.);
#841=ORIENTED_EDGE('',*,*,#663,.F.);
#842=ORIENTED_EDGE('',*,*,#662,.F.);
#843=ORIENTED_EDGE('',*,*,#664,.F.);
#844=ORIENTED_EDGE('',*,*,#665,.T.);
#845=ORIENTED_EDGE('',*,*,#666,.F.);
#846=ORIENTED_EDGE('',*,*,#665,.F.);
#847=ORIENTED_EDGE('',*,*,#667,.F.);
#848=ORIENTED_EDGE('',*,*,#668,.F.);
#849=ORIENTED_EDGE('',*,*,#669,.T.);
#850=ORIENTED_EDGE('',*,*,#670,.T.);
#851=ORIENTED_EDGE('',*,*,#671,.F.);
#852=ORIENTED_EDGE('',*,*,#670,.F.);
#853=ORIENTED_EDGE('',*,*,#672,.F.);
#854=ORIENTED_EDGE('',*,*,#673,.F.);
#855=ORIENTED_EDGE('',*,*,#661,.T.);
#856=ORIENTED_EDGE('',*,*,#674,.F.);
#857=ORIENTED_EDGE('',*,*,#675,.T.);
#858=ORIENTED_EDGE('',*,*,#672,.T.);
#859=ORIENTED_EDGE('',*,*,#669,.F.);
#860=ORIENTED_EDGE('',*,*,#676,.F.);
#861=ORIENTED_EDGE('',*,*,#673,.T.);
#862=ORIENTED_EDGE('',*,*,#675,.F.);
#863=ORIENTED_EDGE('',*,*,#677,.F.);
#864=ORIENTED_EDGE('',*,*,#678,.F.);
#865=ORIENTED_EDGE('',*,*,#679,.F.);
#866=ORIENTED_EDGE('',*,*,#680,.T.);
#867=ORIENTED_EDGE('',*,*,#681,.T.);
#868=ORIENTED_EDGE('',*,*,#682,.F.);
#869=ORIENTED_EDGE('',*,*,#681,.F.);
#870=ORIENTED_EDGE('',*,*,#683,.F.);
#871=ORIENTED_EDGE('',*,*,#684,.F.);
#872=ORIENTED_EDGE('',*,*,#664,.T.);
#873=ORIENTED_EDGE('',*,*,#685,.F.);
#874=ORIENTED_EDGE('',*,*,#686,.T.);
#875=ORIENTED_EDGE('',*,*,#683,.T.);
#876=ORIENTED_EDGE('',*,*,#680,.F.);
#877=ORIENTED_EDGE('',*,*,#687,.F.);
#878=ORIENTED_EDGE('',*,*,#684,.T.);
#879=ORIENTED_EDGE('',*,*,#686,.F.);
#880=ORIENTED_EDGE('',*,*,#688,.F.);
#881=ORIENTED_EDGE('',*,*,#667,.T.);
#882=ORIENTED_EDGE('',*,*,#671,.T.);
#883=ORIENTED_EDGE('',*,*,#676,.T.);
#884=ORIENTED_EDGE('',*,*,#689,.F.);
#885=ORIENTED_EDGE('',*,*,#678,.T.);
#886=ORIENTED_EDGE('',*,*,#682,.T.);
#887=ORIENTED_EDGE('',*,*,#687,.T.);
#888=ORIENTED_EDGE('',*,*,#690,.F.);
#889=ORIENTED_EDGE('',*,*,#691,.F.);
#890=ORIENTED_EDGE('',*,*,#692,.F.);
#891=ORIENTED_EDGE('',*,*,#693,.T.);
#892=ORIENTED_EDGE('',*,*,#657,.F.);
#893=ORIENTED_EDGE('',*,*,#628,.F.);
#894=ORIENTED_EDGE('',*,*,#694,.F.);
#895=ORIENTED_EDGE('',*,*,#695,.T.);
#896=ORIENTED_EDGE('',*,*,#696,.F.);
#897=ORIENTED_EDGE('',*,*,#697,.F.);
#898=ORIENTED_EDGE('',*,*,#698,.T.);
#899=ORIENTED_EDGE('',*,*,#695,.F.);
#900=ORIENTED_EDGE('',*,*,#698,.F.);
#901=ORIENTED_EDGE('',*,*,#696,.T.);
#902=ORIENTED_EDGE('',*,*,#699,.T.);
#903=ORIENTED_EDGE('',*,*,#700,.F.);
#904=ORIENTED_EDGE('',*,*,#699,.F.);
#905=ORIENTED_EDGE('',*,*,#700,.T.);
#906=ORIENTED_EDGE('',*,*,#701,.F.);
#907=ORIENTED_EDGE('',*,*,#702,.F.);
#908=ORIENTED_EDGE('',*,*,#703,.T.);
#909=ORIENTED_EDGE('',*,*,#704,.F.);
#910=ORIENTED_EDGE('',*,*,#703,.F.);
#911=ORIENTED_EDGE('',*,*,#705,.F.);
#912=ORIENTED_EDGE('',*,*,#704,.T.);
#913=ORIENTED_EDGE('',*,*,#706,.T.);
#914=ORIENTED_EDGE('',*,*,#707,.F.);
#915=ORIENTED_EDGE('',*,*,#706,.F.);
#916=ORIENTED_EDGE('',*,*,#708,.F.);
#917=ORIENTED_EDGE('',*,*,#709,.F.);
#918=ORIENTED_EDGE('',*,*,#710,.T.);
#919=ORIENTED_EDGE('',*,*,#711,.F.);
#920=ORIENTED_EDGE('',*,*,#710,.F.);
#921=ORIENTED_EDGE('',*,*,#712,.F.);
#922=ORIENTED_EDGE('',*,*,#711,.T.);
#923=ORIENTED_EDGE('',*,*,#713,.T.);
#924=ORIENTED_EDGE('',*,*,#714,.F.);
#925=ORIENTED_EDGE('',*,*,#713,.F.);
#926=ORIENTED_EDGE('',*,*,#715,.F.);
#927=ORIENTED_EDGE('',*,*,#716,.T.);
#928=ORIENTED_EDGE('',*,*,#717,.F.);
#929=ORIENTED_EDGE('',*,*,#716,.F.);
#930=ORIENTED_EDGE('',*,*,#717,.T.);
#931=ORIENTED_EDGE('',*,*,#718,.T.);
#932=ORIENTED_EDGE('',*,*,#719,.F.);
#933=ORIENTED_EDGE('',*,*,#718,.F.);
#934=ORIENTED_EDGE('',*,*,#720,.F.);
#935=ORIENTED_EDGE('',*,*,#721,.T.);
#936=ORIENTED_EDGE('',*,*,#722,.F.);
#937=ORIENTED_EDGE('',*,*,#721,.F.);
#938=ORIENTED_EDGE('',*,*,#722,.T.);
#939=ORIENTED_EDGE('',*,*,#723,.T.);
#940=ORIENTED_EDGE('',*,*,#724,.F.);
#941=ORIENTED_EDGE('',*,*,#723,.F.);
#942=ORIENTED_EDGE('',*,*,#725,.F.);
#943=ORIENTED_EDGE('',*,*,#726,.T.);
#944=ORIENTED_EDGE('',*,*,#727,.F.);
#945=ORIENTED_EDGE('',*,*,#726,.F.);
#946=ORIENTED_EDGE('',*,*,#727,.T.);
#947=ORIENTED_EDGE('',*,*,#728,.T.);
#948=ORIENTED_EDGE('',*,*,#729,.F.);
#949=ORIENTED_EDGE('',*,*,#728,.F.);
#950=ORIENTED_EDGE('',*,*,#730,.F.);
#951=ORIENTED_EDGE('',*,*,#731,.F.);
#952=ORIENTED_EDGE('',*,*,#732,.F.);
#953=ORIENTED_EDGE('',*,*,#733,.T.);
#954=ORIENTED_EDGE('',*,*,#734,.F.);
#955=ORIENTED_EDGE('',*,*,#733,.F.);
#956=ORIENTED_EDGE('',*,*,#734,.T.);
#957=ORIENTED_EDGE('',*,*,#735,.T.);
#958=ORIENTED_EDGE('',*,*,#736,.F.);
#959=ORIENTED_EDGE('',*,*,#735,.F.);
#960=ORIENTED_EDGE('',*,*,#709,.T.);
#961=ORIENTED_EDGE('',*,*,#638,.T.);
#962=ORIENTED_EDGE('',*,*,#737,.T.);
#963=ORIENTED_EDGE('',*,*,#712,.T.);
#964=ORIENTED_EDGE('',*,*,#738,.T.);
#965=ORIENTED_EDGE('',*,*,#739,.T.);
#966=ORIENTED_EDGE('',*,*,#701,.T.);
#967=ORIENTED_EDGE('',*,*,#740,.T.);
#968=ORIENTED_EDGE('',*,*,#647,.F.);
#969=ORIENTED_EDGE('',*,*,#651,.T.);
#970=ORIENTED_EDGE('',*,*,#630,.T.);
#971=ORIENTED_EDGE('',*,*,#640,.T.);
#972=ORIENTED_EDGE('',*,*,#705,.T.);
#973=ORIENTED_EDGE('',*,*,#702,.T.);
#974=ORIENTED_EDGE('',*,*,#639,.T.);
#975=ORIENTED_EDGE('',*,*,#708,.T.);
#976=ORIENTED_EDGE('',*,*,#741,.T.);
#977=ORIENTED_EDGE('',*,*,#730,.T.);
#978=ORIENTED_EDGE('',*,*,#732,.T.);
#979=ORIENTED_EDGE('',*,*,#742,.F.);
#980=ORIENTED_EDGE('',*,*,#626,.F.);
#981=ORIENTED_EDGE('',*,*,#620,.F.);
#982=ORIENTED_EDGE('',*,*,#743,.F.);
#983=ORIENTED_EDGE('',*,*,#744,.T.);
#984=ORIENTED_EDGE('',*,*,#745,.F.);
#985=ORIENTED_EDGE('',*,*,#746,.F.);
#986=ORIENTED_EDGE('',*,*,#747,.T.);
#987=ORIENTED_EDGE('',*,*,#748,.T.);
#988=ORIENTED_EDGE('',*,*,#747,.F.);
#989=ORIENTED_EDGE('',*,*,#748,.F.);
#990=ORIENTED_EDGE('',*,*,#749,.F.);
#991=ORIENTED_EDGE('',*,*,#750,.T.);
#992=ORIENTED_EDGE('',*,*,#751,.T.);
#993=ORIENTED_EDGE('',*,*,#750,.F.);
#994=ORIENTED_EDGE('',*,*,#751,.F.);
#995=ORIENTED_EDGE('',*,*,#752,.T.);
#996=ORIENTED_EDGE('',*,*,#753,.F.);
#997=ORIENTED_EDGE('',*,*,#754,.F.);
#998=ORIENTED_EDGE('',*,*,#755,.T.);
#999=ORIENTED_EDGE('',*,*,#752,.F.);
#1000=ORIENTED_EDGE('',*,*,#755,.F.);
#1001=ORIENTED_EDGE('',*,*,#753,.T.);
#1002=ORIENTED_EDGE('',*,*,#756,.T.);
#1003=ORIENTED_EDGE('',*,*,#646,.F.);
#1004=ORIENTED_EDGE('',*,*,#756,.F.);
#1005=ORIENTED_EDGE('',*,*,#757,.T.);
#1006=ORIENTED_EDGE('',*,*,#758,.F.);
#1007=ORIENTED_EDGE('',*,*,#759,.F.);
#1008=ORIENTED_EDGE('',*,*,#760,.T.);
#1009=ORIENTED_EDGE('',*,*,#757,.F.);
#1010=ORIENTED_EDGE('',*,*,#760,.F.);
#1011=ORIENTED_EDGE('',*,*,#758,.T.);
#1012=ORIENTED_EDGE('',*,*,#761,.T.);
#1013=ORIENTED_EDGE('',*,*,#660,.F.);
#1014=ORIENTED_EDGE('',*,*,#761,.F.);
#1015=ORIENTED_EDGE('',*,*,#762,.T.);
#1016=ORIENTED_EDGE('',*,*,#763,.F.);
#1017=ORIENTED_EDGE('',*,*,#764,.F.);
#1018=ORIENTED_EDGE('',*,*,#765,.T.);
#1019=ORIENTED_EDGE('',*,*,#762,.F.);
#1020=ORIENTED_EDGE('',*,*,#765,.F.);
#1021=ORIENTED_EDGE('',*,*,#763,.T.);
#1022=ORIENTED_EDGE('',*,*,#766,.T.);
#1023=ORIENTED_EDGE('',*,*,#659,.F.);
#1024=ORIENTED_EDGE('',*,*,#766,.F.);
#1025=ORIENTED_EDGE('',*,*,#668,.T.);
#1026=ORIENTED_EDGE('',*,*,#694,.T.);
#1027=ORIENTED_EDGE('',*,*,#627,.T.);
#1028=ORIENTED_EDGE('',*,*,#742,.T.);
#1029=ORIENTED_EDGE('',*,*,#731,.T.);
#1030=ORIENTED_EDGE('',*,*,#745,.T.);
#1031=ORIENTED_EDGE('',*,*,#767,.T.);
#1032=ORIENTED_EDGE('',*,*,#690,.T.);
#1033=ORIENTED_EDGE('',*,*,#688,.T.);
#1034=ORIENTED_EDGE('',*,*,#685,.T.);
#1035=ORIENTED_EDGE('',*,*,#679,.T.);
#1036=ORIENTED_EDGE('',*,*,#689,.T.);
#1037=ORIENTED_EDGE('',*,*,#677,.T.);
#1038=ORIENTED_EDGE('',*,*,#674,.T.);
#1039=ORIENTED_EDGE('',*,*,#715,.T.);
#1040=ORIENTED_EDGE('',*,*,#720,.T.);
#1041=ORIENTED_EDGE('',*,*,#725,.T.);
#1042=ORIENTED_EDGE('',*,*,#768,.T.);
#1043=ORIENTED_EDGE('',*,*,#768,.F.);
#1044=ORIENTED_EDGE('',*,*,#769,.T.);
#1045=ORIENTED_EDGE('',*,*,#770,.F.);
#1046=ORIENTED_EDGE('',*,*,#769,.F.);
#1047=ORIENTED_EDGE('',*,*,#771,.F.);
#1048=ORIENTED_EDGE('',*,*,#635,.T.);
#1049=ORIENTED_EDGE('',*,*,#645,.F.);
#1050=ORIENTED_EDGE('',*,*,#772,.F.);
#1051=ORIENTED_EDGE('',*,*,#697,.T.);
#1052=ORIENTED_EDGE('',*,*,#773,.F.);
#1053=ORIENTED_EDGE('',*,*,#772,.T.);
#1054=ORIENTED_EDGE('',*,*,#644,.F.);
#1055=ORIENTED_EDGE('',*,*,#774,.F.);
#1056=ORIENTED_EDGE('',*,*,#775,.F.);
#1057=ORIENTED_EDGE('',*,*,#774,.T.);
#1058=ORIENTED_EDGE('',*,*,#643,.F.);
#1059=ORIENTED_EDGE('',*,*,#776,.F.);
#1060=ORIENTED_EDGE('',*,*,#777,.F.);
#1061=ORIENTED_EDGE('',*,*,#776,.T.);
#1062=ORIENTED_EDGE('',*,*,#642,.F.);
#1063=ORIENTED_EDGE('',*,*,#655,.F.);
#1064=ORIENTED_EDGE('',*,*,#778,.F.);
#1065=ORIENTED_EDGE('',*,*,#653,.T.);
#1066=ORIENTED_EDGE('',*,*,#658,.F.);
#1067=ORIENTED_EDGE('',*,*,#693,.F.);
#1068=ORIENTED_EDGE('',*,*,#779,.F.);
#1069=ORIENTED_EDGE('',*,*,#691,.T.);
#1070=ORIENTED_EDGE('',*,*,#767,.F.);
#1071=ORIENTED_EDGE('',*,*,#744,.F.);
#1072=ORIENTED_EDGE('',*,*,#648,.F.);
#1073=ORIENTED_EDGE('',*,*,#740,.F.);
#1074=ORIENTED_EDGE('',*,*,#741,.F.);
#1075=ORIENTED_EDGE('',*,*,#739,.F.);
#1076=ORIENTED_EDGE('',*,*,#780,.F.);
#1077=ORIENTED_EDGE('',*,*,#781,.F.);
#1078=ORIENTED_EDGE('',*,*,#624,.T.);
#1079=ORIENTED_EDGE('',*,*,#656,.F.);
#1080=ORIENTED_EDGE('',*,*,#782,.F.);
#1081=ORIENTED_EDGE('',*,*,#780,.T.);
#1082=ORIENTED_EDGE('',*,*,#738,.F.);
#1083=ORIENTED_EDGE('',*,*,#737,.F.);
#1084=ORIENTED_EDGE('',*,*,#637,.F.);
#1085=ORIENTED_EDGE('',*,*,#619,.F.);
#1086=ORIENTED_EDGE('',*,*,#625,.T.);
#1087=ORIENTED_EDGE('',*,*,#781,.T.);
#1088=ORIENTED_EDGE('',*,*,#782,.T.);
#1089=ORIENTED_EDGE('',*,*,#636,.T.);
#1090=ORIENTED_EDGE('',*,*,#771,.T.);
#1091=ORIENTED_EDGE('',*,*,#773,.T.);
#1092=ORIENTED_EDGE('',*,*,#775,.T.);
#1093=ORIENTED_EDGE('',*,*,#777,.T.);
#1094=ORIENTED_EDGE('',*,*,#654,.T.);
#1095=ORIENTED_EDGE('',*,*,#778,.T.);
#1096=ORIENTED_EDGE('',*,*,#692,.T.);
#1097=ORIENTED_EDGE('',*,*,#779,.T.);
#1098=ORIENTED_EDGE('',*,*,#743,.T.);
#1099=ORIENTED_EDGE('',*,*,#663,.T.);
#1100=ORIENTED_EDGE('',*,*,#666,.T.);
#1101=ORIENTED_EDGE('',*,*,#707,.T.);
#1102=ORIENTED_EDGE('',*,*,#714,.T.);
#1103=ORIENTED_EDGE('',*,*,#719,.T.);
#1104=ORIENTED_EDGE('',*,*,#724,.T.);
#1105=ORIENTED_EDGE('',*,*,#729,.T.);
#1106=ORIENTED_EDGE('',*,*,#736,.T.);
#1107=ORIENTED_EDGE('',*,*,#746,.T.);
#1108=ORIENTED_EDGE('',*,*,#749,.T.);
#1109=ORIENTED_EDGE('',*,*,#754,.T.);
#1110=ORIENTED_EDGE('',*,*,#759,.T.);
#1111=ORIENTED_EDGE('',*,*,#764,.T.);
#1112=ORIENTED_EDGE('',*,*,#770,.T.);
#1113=CYLINDRICAL_SURFACE('',#1225,1.);
#1114=CYLINDRICAL_SURFACE('',#1230,4.);
#1115=CYLINDRICAL_SURFACE('',#1236,4.);
#1116=CYLINDRICAL_SURFACE('',#1243,1.);
#1117=CYLINDRICAL_SURFACE('',#1246,1.);
#1118=CYLINDRICAL_SURFACE('',#1252,2.);
#1119=CYLINDRICAL_SURFACE('',#1258,2.);
#1120=CYLINDRICAL_SURFACE('',#1265,2.25);
#1121=CYLINDRICAL_SURFACE('',#1267,2.);
#1122=CYLINDRICAL_SURFACE('',#1275,1.6);
#1123=CYLINDRICAL_SURFACE('',#1282,1.6);
#1124=CYLINDRICAL_SURFACE('',#1287,1.6);
#1125=CYLINDRICAL_SURFACE('',#1292,1.6);
#1126=CYLINDRICAL_SURFACE('',#1297,1.6);
#1127=CYLINDRICAL_SURFACE('',#1302,1.6);
#1128=CYLINDRICAL_SURFACE('',#1309,4.);
#1129=CYLINDRICAL_SURFACE('',#1313,1.25);
#1130=CYLINDRICAL_SURFACE('',#1320,1.5);
#1131=CYLINDRICAL_SURFACE('',#1322,1.25);
#1132=CYLINDRICAL_SURFACE('',#1326,1.5);
#1133=CYLINDRICAL_SURFACE('',#1328,1.25);
#1134=CYLINDRICAL_SURFACE('',#1332,1.5);
#1135=CYLINDRICAL_SURFACE('',#1334,1.25);
#1136=CYLINDRICAL_SURFACE('',#1337,4.99999999999999);
#1137=ADVANCED_FACE('',(#86),#1113,.T.);
#1138=ADVANCED_FACE('',(#87),#51,.T.);
#1139=ADVANCED_FACE('',(#88),#52,.T.);
#1140=ADVANCED_FACE('',(#89),#1114,.T.);
#1141=ADVANCED_FACE('',(#90),#53,.T.);
#1142=ADVANCED_FACE('',(#91,#23),#54,.F.);
#1143=ADVANCED_FACE('',(#92),#1115,.T.);
#1144=ADVANCED_FACE('',(#93),#55,.T.);
#1145=ADVANCED_FACE('',(#94,#24,#25),#56,.F.);
#1146=ADVANCED_FACE('',(#95),#1116,.F.);
#1147=ADVANCED_FACE('',(#96),#1117,.F.);
#1148=ADVANCED_FACE('',(#97),#57,.F.);
#1149=ADVANCED_FACE('',(#98,#26),#58,.T.);
#1150=ADVANCED_FACE('',(#99),#1118,.F.);
#1151=ADVANCED_FACE('',(#100),#59,.F.);
#1152=ADVANCED_FACE('',(#101),#60,.F.);
#1153=ADVANCED_FACE('',(#102,#27),#61,.T.);
#1154=ADVANCED_FACE('',(#103),#1119,.F.);
#1155=ADVANCED_FACE('',(#104),#62,.F.);
#1156=ADVANCED_FACE('',(#105),#63,.T.);
#1157=ADVANCED_FACE('',(#106,#28),#64,.T.);
#1158=ADVANCED_FACE('',(#107),#1120,.F.);
#1159=ADVANCED_FACE('',(#108),#1121,.F.);
#1160=ADVANCED_FACE('',(#109),#65,.T.);
#1161=ADVANCED_FACE('',(#110),#17,.F.);
#1162=ADVANCED_FACE('',(#111),#1122,.F.);
#1163=ADVANCED_FACE('',(#112),#18,.F.);
#1164=ADVANCED_FACE('',(#113),#1123,.F.);
#1165=ADVANCED_FACE('',(#114),#19,.F.);
#1166=ADVANCED_FACE('',(#115),#1124,.F.);
#1167=ADVANCED_FACE('',(#116),#20,.F.);
#1168=ADVANCED_FACE('',(#117),#1125,.F.);
#1169=ADVANCED_FACE('',(#118),#21,.F.);
#1170=ADVANCED_FACE('',(#119),#1126,.F.);
#1171=ADVANCED_FACE('',(#120),#22,.F.);
#1172=ADVANCED_FACE('',(#121),#1127,.F.);
#1173=ADVANCED_FACE('',(#122),#66,.F.);
#1174=ADVANCED_FACE('',(#123),#67,.F.);
#1175=ADVANCED_FACE('',(#124),#68,.F.);
#1176=ADVANCED_FACE('',(#125),#69,.F.);
#1177=ADVANCED_FACE('',(#126),#70,.T.);
#1178=ADVANCED_FACE('',(#127),#1128,.F.);
#1179=ADVANCED_FACE('',(#128),#71,.T.);
#1180=ADVANCED_FACE('',(#129),#1129,.F.);
#1181=ADVANCED_FACE('',(#130),#72,.T.);
#1182=ADVANCED_FACE('',(#131,#29),#73,.T.);
#1183=ADVANCED_FACE('',(#132),#1130,.F.);
#1184=ADVANCED_FACE('',(#133),#1131,.F.);
#1185=ADVANCED_FACE('',(#134,#30),#74,.T.);
#1186=ADVANCED_FACE('',(#135),#1132,.F.);
#1187=ADVANCED_FACE('',(#136),#1133,.F.);
#1188=ADVANCED_FACE('',(#137,#31),#75,.T.);
#1189=ADVANCED_FACE('',(#138),#1134,.F.);
#1190=ADVANCED_FACE('',(#139),#1135,.F.);
#1191=ADVANCED_FACE('',(#140,#32,#33,#34,#35),#76,.F.);
#1192=ADVANCED_FACE('',(#141),#1136,.F.);
#1193=ADVANCED_FACE('',(#142,#36),#77,.T.);
#1194=ADVANCED_FACE('',(#143),#78,.T.);
#1195=ADVANCED_FACE('',(#144),#79,.T.);
#1196=ADVANCED_FACE('',(#145),#80,.T.);
#1197=ADVANCED_FACE('',(#146),#81,.T.);
#1198=ADVANCED_FACE('',(#147),#82,.T.);
#1199=ADVANCED_FACE('',(#148),#83,.T.);
#1200=ADVANCED_FACE('',(#149),#84,.T.);
#1201=ADVANCED_FACE('',(#150,#37,#38,#39,#40,#41,#42,#43,#44,#45,#46,#47,
#48,#49,#50),#85,.T.);
#1202=CLOSED_SHELL('',(#1137,#1138,#1139,#1140,#1141,#1142,#1143,#1144,
#1145,#1146,#1147,#1148,#1149,#1150,#1151,#1152,#1153,#1154,#1155,#1156,
#1157,#1158,#1159,#1160,#1161,#1162,#1163,#1164,#1165,#1166,#1167,#1168,
#1169,#1170,#1171,#1172,#1173,#1174,#1175,#1176,#1177,#1178,#1179,#1180,
#1181,#1182,#1183,#1184,#1185,#1186,#1187,#1188,#1189,#1190,#1191,#1192,
#1193,#1194,#1195,#1196,#1197,#1198,#1199,#1200,#1201));
#1203=DERIVED_UNIT_ELEMENT(#1206,1.);
#1204=DERIVED_UNIT_ELEMENT(#2047,-3.);
#1205=DIMENSIONAL_EXPONENTS(0.,1.,0.,0.,0.,0.,0.);
#1206=(
CONVERSION_BASED_UNIT('gram',#1208)
MASS_UNIT()
NAMED_UNIT(#1205)
);
#1207=(
MASS_UNIT()
NAMED_UNIT(*)
SI_UNIT(.KILO.,.GRAM.)
);
#1208=MASS_MEASURE_WITH_UNIT(MASS_MEASURE(0.001),#1207);
#1209=DERIVED_UNIT((#1203,#1204));
#1210=MEASURE_REPRESENTATION_ITEM('density measure',
POSITIVE_RATIO_MEASURE(1.13),#1209);
#1211=PROPERTY_DEFINITION_REPRESENTATION(#1216,#1213);
#1212=PROPERTY_DEFINITION_REPRESENTATION(#1217,#1214);
#1213=REPRESENTATION('material name',(#1215),#2044);
#1214=REPRESENTATION('density',(#1210),#2044);
#1215=DESCRIPTIVE_REPRESENTATION_ITEM('Nylon 6/6','Nylon 6/6');
#1216=PROPERTY_DEFINITION('material property','material name',#2054);
#1217=PROPERTY_DEFINITION('material property','density of part',#2054);
#1218=DATE_TIME_ROLE('creation_date');
#1219=APPLIED_DATE_AND_TIME_ASSIGNMENT(#1220,#1218,(#2054));
#1220=DATE_AND_TIME(#1221,#1222);
#1221=CALENDAR_DATE(2026,13,4);
#1222=LOCAL_TIME(0,0,0.,#1223);
#1223=COORDINATED_UNIVERSAL_TIME_OFFSET(0,0,.BEHIND.);
#1224=AXIS2_PLACEMENT_3D('',#1701,#1348,#1349);
#1225=AXIS2_PLACEMENT_3D('',#1702,#1350,#1351);
#1226=AXIS2_PLACEMENT_3D('',#1705,#1352,#1353);
#1227=AXIS2_PLACEMENT_3D('',#1709,#1355,#1356);
#1228=AXIS2_PLACEMENT_3D('',#1711,#1358,#1359);
#1229=AXIS2_PLACEMENT_3D('',#1719,#1364,#1365);
#1230=AXIS2_PLACEMENT_3D('',#1727,#1370,#1371);
#1231=AXIS2_PLACEMENT_3D('',#1730,#1372,#1373);
#1232=AXIS2_PLACEMENT_3D('',#1734,#1375,#1376);
#1233=AXIS2_PLACEMENT_3D('',#1736,#1378,#1379);
#1234=AXIS2_PLACEMENT_3D('',#1750,#1387,#1388);
#1235=AXIS2_PLACEMENT_3D('',#1761,#1394,#1395);
#1236=AXIS2_PLACEMENT_3D('',#1762,#1396,#1397);
#1237=AXIS2_PLACEMENT_3D('',#1765,#1398,#1399);
#1238=AXIS2_PLACEMENT_3D('',#1769,#1401,#1402);
#1239=AXIS2_PLACEMENT_3D('',#1771,#1404,#1405);
#1240=AXIS2_PLACEMENT_3D('',#1780,#1411,#1412);
#1241=AXIS2_PLACEMENT_3D('',#1786,#1416,#1417);
#1242=AXIS2_PLACEMENT_3D('',#1788,#1418,#1419);
#1243=AXIS2_PLACEMENT_3D('',#1789,#1420,#1421);
#1244=AXIS2_PLACEMENT_3D('',#1791,#1422,#1423);
#1245=AXIS2_PLACEMENT_3D('',#1794,#1425,#1426);
#1246=AXIS2_PLACEMENT_3D('',#1795,#1427,#1428);
#1247=AXIS2_PLACEMENT_3D('',#1797,#1429,#1430);
#1248=AXIS2_PLACEMENT_3D('',#1800,#1432,#1433);
#1249=AXIS2_PLACEMENT_3D('',#1801,#1434,#1435);
#1250=AXIS2_PLACEMENT_3D('',#1810,#1440,#1441);
#1251=AXIS2_PLACEMENT_3D('',#1814,#1443,#1444);
#1252=AXIS2_PLACEMENT_3D('',#1816,#1446,#1447);
#1253=AXIS2_PLACEMENT_3D('',#1818,#1448,#1449);
#1254=AXIS2_PLACEMENT_3D('',#1820,#1451,#1452);
#1255=AXIS2_PLACEMENT_3D('',#1824,#1455,#1456);
#1256=AXIS2_PLACEMENT_3D('',#1833,#1461,#1462);
#1257=AXIS2_PLACEMENT_3D('',#1837,#1464,#1465);
#1258=AXIS2_PLACEMENT_3D('',#1839,#1467,#1468);
#1259=AXIS2_PLACEMENT_3D('',#1841,#1469,#1470);
#1260=AXIS2_PLACEMENT_3D('',#1843,#1472,#1473);
#1261=AXIS2_PLACEMENT_3D('',#1847,#1476,#1477);
#1262=AXIS2_PLACEMENT_3D('',#1857,#1484,#1485);
#1263=AXIS2_PLACEMENT_3D('',#1859,#1486,#1487);
#1264=AXIS2_PLACEMENT_3D('',#1861,#1488,#1489);
#1265=AXIS2_PLACEMENT_3D('',#1862,#1490,#1491);
#1266=AXIS2_PLACEMENT_3D('',#1864,#1492,#1493);
#1267=AXIS2_PLACEMENT_3D('',#1866,#1495,#1496);
#1268=AXIS2_PLACEMENT_3D('',#1869,#1498,#1499);
#1269=AXIS2_PLACEMENT_3D('',#1870,#1500,#1501);
#1270=AXIS2_PLACEMENT_3D('',#1871,#1502,#1503);
#1271=AXIS2_PLACEMENT_3D('',#1873,#1504,#1505);
#1272=AXIS2_PLACEMENT_3D('',#1875,#1506,#1507);
#1273=AXIS2_PLACEMENT_3D('',#1878,#1509,#1510);
#1274=AXIS2_PLACEMENT_3D('',#1879,#1511,#1512);
#1275=AXIS2_PLACEMENT_3D('',#1880,#1513,#1514);
#1276=AXIS2_PLACEMENT_3D('',#1883,#1516,#1517);
#1277=AXIS2_PLACEMENT_3D('',#1884,#1518,#1519);
#1278=AXIS2_PLACEMENT_3D('',#1886,#1520,#1521);
#1279=AXIS2_PLACEMENT_3D('',#1888,#1522,#1523);
#1280=AXIS2_PLACEMENT_3D('',#1891,#1525,#1526);
#1281=AXIS2_PLACEMENT_3D('',#1892,#1527,#1528);
#1282=AXIS2_PLACEMENT_3D('',#1893,#1529,#1530);
#1283=AXIS2_PLACEMENT_3D('',#1896,#1532,#1533);
#1284=AXIS2_PLACEMENT_3D('',#1897,#1534,#1535);
#1285=AXIS2_PLACEMENT_3D('',#1899,#1536,#1537);
#1286=AXIS2_PLACEMENT_3D('',#1902,#1539,#1540);
#1287=AXIS2_PLACEMENT_3D('',#1903,#1541,#1542);
#1288=AXIS2_PLACEMENT_3D('',#1906,#1544,#1545);
#1289=AXIS2_PLACEMENT_3D('',#1907,#1546,#1547);
#1290=AXIS2_PLACEMENT_3D('',#1909,#1548,#1549);
#1291=AXIS2_PLACEMENT_3D('',#1912,#1551,#1552);
#1292=AXIS2_PLACEMENT_3D('',#1913,#1553,#1554);
#1293=AXIS2_PLACEMENT_3D('',#1916,#1556,#1557);
#1294=AXIS2_PLACEMENT_3D('',#1917,#1558,#1559);
#1295=AXIS2_PLACEMENT_3D('',#1919,#1560,#1561);
#1296=AXIS2_PLACEMENT_3D('',#1922,#1563,#1564);
#1297=AXIS2_PLACEMENT_3D('',#1923,#1565,#1566);
#1298=AXIS2_PLACEMENT_3D('',#1926,#1568,#1569);
#1299=AXIS2_PLACEMENT_3D('',#1927,#1570,#1571);
#1300=AXIS2_PLACEMENT_3D('',#1934,#1572,#1573);
#1301=AXIS2_PLACEMENT_3D('',#1940,#1575,#1576);
#1302=AXIS2_PLACEMENT_3D('',#1941,#1577,#1578);
#1303=AXIS2_PLACEMENT_3D('',#1944,#1580,#1581);
#1304=AXIS2_PLACEMENT_3D('',#1945,#1582,#1583);
#1305=AXIS2_PLACEMENT_3D('',#1947,#1585,#1586);
#1306=AXIS2_PLACEMENT_3D('',#1951,#1589,#1590);
#1307=AXIS2_PLACEMENT_3D('',#1953,#1592,#1593);
#1308=AXIS2_PLACEMENT_3D('',#1955,#1595,#1596);
#1309=AXIS2_PLACEMENT_3D('',#1962,#1601,#1602);
#1310=AXIS2_PLACEMENT_3D('',#1964,#1603,#1604);
#1311=AXIS2_PLACEMENT_3D('',#1967,#1606,#1607);
#1312=AXIS2_PLACEMENT_3D('',#1968,#1608,#1609);
#1313=AXIS2_PLACEMENT_3D('',#1969,#1610,#1611);
#1314=AXIS2_PLACEMENT_3D('',#1971,#1612,#1613);
#1315=AXIS2_PLACEMENT_3D('',#1974,#1615,#1616);
#1316=AXIS2_PLACEMENT_3D('',#1975,#1617,#1618);
#1317=AXIS2_PLACEMENT_3D('',#1976,#1619,#1620);
#1318=AXIS2_PLACEMENT_3D('',#1978,#1621,#1622);
#1319=AXIS2_PLACEMENT_3D('',#1980,#1623,#1624);
#1320=AXIS2_PLACEMENT_3D('',#1981,#1625,#1626);
#1321=AXIS2_PLACEMENT_3D('',#1983,#1627,#1628);
#1322=AXIS2_PLACEMENT_3D('',#1985,#1630,#1631);
#1323=AXIS2_PLACEMENT_3D('',#1987,#1633,#1634);
#1324=AXIS2_PLACEMENT_3D('',#1989,#1635,#1636);
#1325=AXIS2_PLACEMENT_3D('',#1991,#1637,#1638);
#1326=AXIS2_PLACEMENT_3D('',#1992,#1639,#1640);
#1327=AXIS2_PLACEMENT_3D('',#1994,#1641,#1642);
#1328=AXIS2_PLACEMENT_3D('',#1996,#1644,#1645);
#1329=AXIS2_PLACEMENT_3D('',#1998,#1647,#1648);
#1330=AXIS2_PLACEMENT_3D('',#2000,#1649,#1650);
#1331=AXIS2_PLACEMENT_3D('',#2002,#1651,#1652);
#1332=AXIS2_PLACEMENT_3D('',#2003,#1653,#1654);
#1333=AXIS2_PLACEMENT_3D('',#2005,#1655,#1656);
#1334=AXIS2_PLACEMENT_3D('',#2007,#1658,#1659);
#1335=AXIS2_PLACEMENT_3D('',#2009,#1661,#1662);
#1336=AXIS2_PLACEMENT_3D('',#2012,#1664,#1665);
#1337=AXIS2_PLACEMENT_3D('',#2013,#1666,#1667);
#1338=AXIS2_PLACEMENT_3D('',#2016,#1669,#1670);
#1339=AXIS2_PLACEMENT_3D('',#2017,#1671,#1672);
#1340=AXIS2_PLACEMENT_3D('',#2021,#1675,#1676);
#1341=AXIS2_PLACEMENT_3D('',#2025,#1679,#1680);
#1342=AXIS2_PLACEMENT_3D('',#2029,#1683,#1684);
#1343=AXIS2_PLACEMENT_3D('',#2031,#1686,#1687);
#1344=AXIS2_PLACEMENT_3D('',#2033,#1689,#1690);
#1345=AXIS2_PLACEMENT_3D('',#2035,#1692,#1693);
#1346=AXIS2_PLACEMENT_3D('',#2039,#1696,#1697);
#1347=AXIS2_PLACEMENT_3D('',#2041,#1699,#1700);
#1348=DIRECTION('axis',(0.,0.,1.));
#1349=DIRECTION('refdir',(1.,0.,0.));
#1350=DIRECTION('center_axis',(1.,6.48305415839515E-16,0.));
#1351=DIRECTION('ref_axis',(0.,-0.707106781186548,0.707106781186547));
#1352=DIRECTION('center_axis',(-1.,-9.10952225333462E-16,0.));
#1353=DIRECTION('ref_axis',(0.,-0.707106781186548,0.707106781186547));
#1354=DIRECTION('',(-1.,-6.48305415839515E-16,0.));
#1355=DIRECTION('center_axis',(-1.,-1.91677716867866E-16,0.));
#1356=DIRECTION('ref_axis',(0.,-0.707106781186548,0.707106781186547));
#1357=DIRECTION('',(1.,6.48305415839515E-16,0.));
#1358=DIRECTION('center_axis',(1.,9.10952225333462E-16,0.));
#1359=DIRECTION('ref_axis',(9.10952225333462E-16,-1.,0.));
#1360=DIRECTION('',(0.,0.,-1.));
#1361=DIRECTION('',(9.10952225333462E-16,-1.,9.94155499758295E-15));
#1362=DIRECTION('',(0.,0.,-1.));
#1363=DIRECTION('',(-9.10952225333462E-16,1.,0.));
#1364=DIRECTION('center_axis',(6.48305415839515E-16,-1.,0.));
#1365=DIRECTION('ref_axis',(-1.,-6.48305415839515E-16,0.));
#1366=DIRECTION('',(0.,0.,-1.));
#1367=DIRECTION('',(1.,6.48305415839515E-16,0.));
#1368=DIRECTION('',(0.,0.,-1.));
#1369=DIRECTION('',(-1.,-6.48305415839515E-16,-5.67205992714189E-16));
#1370=DIRECTION('center_axis',(0.,0.,-1.));
#1371=DIRECTION('ref_axis',(5.55111512312578E-16,-1.,0.));
#1372=DIRECTION('center_axis',(0.,0.,1.));
#1373=DIRECTION('ref_axis',(5.55111512312578E-16,-1.,0.));
#1374=DIRECTION('',(0.,0.,-1.));
#1375=DIRECTION('center_axis',(-5.67205992714195E-16,9.94155499758295E-15,
1.));
#1376=DIRECTION('ref_axis',(5.55111512312578E-16,-1.,0.));
#1377=DIRECTION('',(0.,0.,1.));
#1378=DIRECTION('center_axis',(5.09991772782056E-16,-1.,0.));
#1379=DIRECTION('ref_axis',(-1.,-5.09991772782056E-16,0.));
#1380=DIRECTION('',(-1.,-6.27538571669878E-16,-5.67205992714189E-16));
#1381=DIRECTION('',(0.,0.,-1.));
#1382=DIRECTION('',(1.,5.09991772782056E-16,0.));
#1383=DIRECTION('',(0.,0.,-1.));
#1384=DIRECTION('',(1.,6.27538571669878E-16,0.));
#1385=DIRECTION('',(1.,6.27538571669878E-16,0.));
#1386=DIRECTION('',(1.,6.27538571669878E-16,0.));
#1387=DIRECTION('center_axis',(-5.67205992714195E-16,9.94155499758295E-15,
1.));
#1388=DIRECTION('ref_axis',(1.,0.,5.67205992714195E-16));
#1389=DIRECTION('',(8.92678254832479E-15,1.,-9.94155499758295E-15));
#1390=DIRECTION('',(-1.,-5.55111512312991E-16,-5.67205992714189E-16));
#1391=DIRECTION('',(-1.68631895114094E-16,1.,-9.94155499758295E-15));
#1392=DIRECTION('',(1.,2.44929359829471E-16,5.67205992714193E-16));
#1393=DIRECTION('',(9.10952225333462E-16,-1.,9.94155499758295E-15));
#1394=DIRECTION('center_axis',(-5.67205992714195E-16,9.94155499758295E-15,
1.));
#1395=DIRECTION('ref_axis',(1.,0.,0.));
#1396=DIRECTION('center_axis',(0.,0.,-1.));
#1397=DIRECTION('ref_axis',(-1.,8.88178419700125E-15,0.));
#1398=DIRECTION('center_axis',(0.,0.,1.));
#1399=DIRECTION('ref_axis',(-1.,8.88178419700125E-15,0.));
#1400=DIRECTION('',(0.,0.,-1.));
#1401=DIRECTION('center_axis',(-5.67205992714195E-16,9.94155499758295E-15,
1.));
#1402=DIRECTION('ref_axis',(-1.,8.88178419700125E-15,0.));
#1403=DIRECTION('',(0.,0.,1.));
#1404=DIRECTION('center_axis',(-1.,8.92678254832479E-15,0.));
#1405=DIRECTION('ref_axis',(8.92678254832479E-15,1.,0.));
#1406=DIRECTION('',(8.92678254832479E-15,1.,0.));
#1407=DIRECTION('',(-1.37506978606578E-16,1.,-9.94155499758295E-15));
#1408=DIRECTION('',(0.,0.,-1.));
#1409=DIRECTION('',(-8.92678254832479E-15,-1.,0.));
#1410=DIRECTION('',(0.,0.,-1.));
#1411=DIRECTION('center_axis',(-5.67205992714195E-16,9.94155499758295E-15,
1.));
#1412=DIRECTION('ref_axis',(1.,0.,5.67205992714195E-16));
#1413=DIRECTION('',(1.,7.13396321044263E-16,5.67205992714188E-16));
#1414=DIRECTION('',(-1.68631895114094E-16,1.,-9.94155499758295E-15));
#1415=DIRECTION('',(1.,0.,5.67205992714195E-16));
#1416=DIRECTION('center_axis',(-5.67205992714195E-16,9.94155499758295E-15,
1.));
#1417=DIRECTION('ref_axis',(1.,0.,0.));
#1418=DIRECTION('center_axis',(-5.67205992714195E-16,9.94155499758295E-15,
1.));
#1419=DIRECTION('ref_axis',(1.,0.,0.));
#1420=DIRECTION('center_axis',(0.,0.,-1.));
#1421=DIRECTION('ref_axis',(-1.,0.,0.));
#1422=DIRECTION('center_axis',(0.,0.,1.));
#1423=DIRECTION('ref_axis',(-1.,0.,0.));
#1424=DIRECTION('',(0.,0.,1.));
#1425=DIRECTION('center_axis',(0.,0.,-1.));
#1426=DIRECTION('ref_axis',(-1.,0.,0.));
#1427=DIRECTION('center_axis',(0.,0.,-1.));
#1428=DIRECTION('ref_axis',(-1.,0.,0.));
#1429=DIRECTION('center_axis',(0.,0.,1.));
#1430=DIRECTION('ref_axis',(-1.,0.,0.));
#1431=DIRECTION('',(0.,0.,1.));
#1432=DIRECTION('center_axis',(0.,0.,-1.));
#1433=DIRECTION('ref_axis',(-1.,0.,0.));
#1434=DIRECTION('center_axis',(0.,1.,0.));
#1435=DIRECTION('ref_axis',(-1.,0.,0.));
#1436=DIRECTION('',(0.,0.,1.));
#1437=DIRECTION('',(-1.,0.,0.));
#1438=DIRECTION('',(0.,0.,1.));
#1439=DIRECTION('',(-1.,0.,0.));
#1440=DIRECTION('center_axis',(0.,0.,-1.));
#1441=DIRECTION('ref_axis',(-1.,0.,0.));
#1442=DIRECTION('',(1.68631895114094E-16,-1.,0.));
#1443=DIRECTION('center_axis',(0.,0.,1.));
#1444=DIRECTION('ref_axis',(-1.,0.,0.));
#1445=DIRECTION('',(1.,0.,0.));
#1446=DIRECTION('center_axis',(0.,0.,1.));
#1447=DIRECTION('ref_axis',(1.,-1.22464679914735E-16,0.));
#1448=DIRECTION('center_axis',(0.,0.,1.));
#1449=DIRECTION('ref_axis',(-1.,0.,0.));
#1450=DIRECTION('',(0.,0.,1.));
#1451=DIRECTION('center_axis',(0.,-1.,0.));
#1452=DIRECTION('ref_axis',(1.,0.,0.));
#1453=DIRECTION('',(0.,0.,-1.));
#1454=DIRECTION('',(1.,0.,0.));
#1455=DIRECTION('center_axis',(0.,1.,0.));
#1456=DIRECTION('ref_axis',(-1.,0.,0.));
#1457=DIRECTION('',(0.,0.,1.));
#1458=DIRECTION('',(-1.,0.,0.));
#1459=DIRECTION('',(0.,0.,1.));
#1460=DIRECTION('',(-1.,0.,0.));
#1461=DIRECTION('center_axis',(0.,0.,-1.));
#1462=DIRECTION('ref_axis',(-1.,0.,0.));
#1463=DIRECTION('',(1.68631895114094E-16,-1.,0.));
#1464=DIRECTION('center_axis',(0.,0.,1.));
#1465=DIRECTION('ref_axis',(-1.,0.,0.));
#1466=DIRECTION('',(1.,0.,0.));
#1467=DIRECTION('center_axis',(0.,0.,1.));
#1468=DIRECTION('ref_axis',(0.999898823963866,0.0142246910574004,0.));
#1469=DIRECTION('center_axis',(0.,0.,1.));
#1470=DIRECTION('ref_axis',(-1.,0.,0.));
#1471=DIRECTION('',(0.,0.,1.));
#1472=DIRECTION('center_axis',(0.,-1.,0.));
#1473=DIRECTION('ref_axis',(1.,0.,0.));
#1474=DIRECTION('',(0.,0.,-1.));
#1475=DIRECTION('',(1.,0.,0.));
#1476=DIRECTION('center_axis',(-1.,-1.68631895114094E-16,0.));
#1477=DIRECTION('ref_axis',(-1.68631895114094E-16,1.,0.));
#1478=DIRECTION('',(-1.68631895114094E-16,1.,0.));
#1479=DIRECTION('',(-1.68631895114094E-16,1.,0.));
#1480=DIRECTION('',(0.,0.,-1.));
#1481=DIRECTION('',(1.68631895114094E-16,-1.,0.));
#1482=DIRECTION('',(0.,0.,-1.));
#1483=DIRECTION('',(-1.68631895114094E-16,1.,0.));
#1484=DIRECTION('center_axis',(1.,9.10952225333462E-16,0.));
#1485=DIRECTION('ref_axis',(0.,0.,-1.));
#1486=DIRECTION('center_axis',(1.,9.10952225333462E-16,0.));
#1487=DIRECTION('ref_axis',(0.,0.,-1.));
#1488=DIRECTION('center_axis',(1.,9.10952225333462E-16,0.));
#1489=DIRECTION('ref_axis',(0.,0.,-1.));
#1490=DIRECTION('center_axis',(1.,9.10952225333462E-16,0.));
#1491=DIRECTION('ref_axis',(0.,0.,-1.));
#1492=DIRECTION('center_axis',(-1.,-9.10952225333462E-16,0.));
#1493=DIRECTION('ref_axis',(0.,0.,-1.));
#1494=DIRECTION('',(-1.,-9.10952225333462E-16,0.));
#1495=DIRECTION('center_axis',(1.,9.10952225333462E-16,0.));
#1496=DIRECTION('ref_axis',(0.,0.,-1.));
#1497=DIRECTION('',(-1.,-9.10952225333462E-16,0.));
#1498=DIRECTION('center_axis',(1.,9.10952225333462E-16,0.));
#1499=DIRECTION('ref_axis',(0.,0.,-1.));
#1500=DIRECTION('center_axis',(1.,9.10952225333462E-16,0.));
#1501=DIRECTION('ref_axis',(0.,0.,-1.));
#1502=DIRECTION('center_axis',(0.,0.,-1.));
#1503=DIRECTION('ref_axis',(-1.,0.,0.));
#1504=DIRECTION('center_axis',(0.,0.,1.));
#1505=DIRECTION('ref_axis',(-1.,0.,0.));
#1506=DIRECTION('center_axis',(0.,0.,1.));
#1507=DIRECTION('ref_axis',(-1.,0.,0.));
#1508=DIRECTION('',(-0.707106781186548,8.65956056235493E-17,0.707106781186548));
#1509=DIRECTION('center_axis',(0.,0.,-1.));
#1510=DIRECTION('ref_axis',(-1.,0.,0.));
#1511=DIRECTION('center_axis',(0.,0.,1.));
#1512=DIRECTION('ref_axis',(-1.,0.,0.));
#1513=DIRECTION('center_axis',(0.,0.,-1.));
#1514=DIRECTION('ref_axis',(-1.,0.,0.));
#1515=DIRECTION('',(0.,0.,1.));
#1516=DIRECTION('center_axis',(0.,0.,-1.));
#1517=DIRECTION('ref_axis',(-1.,0.,0.));
#1518=DIRECTION('center_axis',(0.,0.,-1.));
#1519=DIRECTION('ref_axis',(-1.,0.,0.));
#1520=DIRECTION('center_axis',(0.,0.,1.));
#1521=DIRECTION('ref_axis',(-1.,0.,0.));
#1522=DIRECTION('center_axis',(0.,0.,1.));
#1523=DIRECTION('ref_axis',(-1.,0.,0.));
#1524=DIRECTION('',(-0.707106781186548,8.65956056235493E-17,0.707106781186548));
#1525=DIRECTION('center_axis',(0.,0.,-1.));
#1526=DIRECTION('ref_axis',(-1.,0.,0.));
#1527=DIRECTION('center_axis',(0.,0.,1.));
#1528=DIRECTION('ref_axis',(-1.,0.,0.));
#1529=DIRECTION('center_axis',(0.,0.,-1.));
#1530=DIRECTION('ref_axis',(-1.,0.,0.));
#1531=DIRECTION('',(0.,0.,1.));
#1532=DIRECTION('center_axis',(0.,0.,-1.));
#1533=DIRECTION('ref_axis',(-1.,0.,0.));
#1534=DIRECTION('center_axis',(0.,0.,-1.));
#1535=DIRECTION('ref_axis',(-1.,0.,0.));
#1536=DIRECTION('center_axis',(0.,0.,1.));
#1537=DIRECTION('ref_axis',(-1.,0.,0.));
#1538=DIRECTION('',(-0.707106781186548,8.65956056235493E-17,0.707106781186548));
#1539=DIRECTION('center_axis',(0.,0.,-1.));
#1540=DIRECTION('ref_axis',(-1.,0.,0.));
#1541=DIRECTION('center_axis',(0.,0.,-1.));
#1542=DIRECTION('ref_axis',(-1.,0.,0.));
#1543=DIRECTION('',(0.,0.,1.));
#1544=DIRECTION('center_axis',(0.,0.,-1.));
#1545=DIRECTION('ref_axis',(-1.,0.,0.));
#1546=DIRECTION('center_axis',(0.,0.,-1.));
#1547=DIRECTION('ref_axis',(-1.,0.,0.));
#1548=DIRECTION('center_axis',(0.,0.,1.));
#1549=DIRECTION('ref_axis',(-1.,0.,0.));
#1550=DIRECTION('',(-0.707106781186548,8.65956056235493E-17,0.707106781186548));
#1551=DIRECTION('center_axis',(0.,0.,-1.));
#1552=DIRECTION('ref_axis',(-1.,0.,0.));
#1553=DIRECTION('center_axis',(0.,0.,-1.));
#1554=DIRECTION('ref_axis',(-1.,0.,0.));
#1555=DIRECTION('',(0.,0.,1.));
#1556=DIRECTION('center_axis',(0.,0.,-1.));
#1557=DIRECTION('ref_axis',(-1.,0.,0.));
#1558=DIRECTION('center_axis',(0.,0.,-1.));
#1559=DIRECTION('ref_axis',(-1.,0.,0.));
#1560=DIRECTION('center_axis',(0.,0.,1.));
#1561=DIRECTION('ref_axis',(-1.,0.,0.));
#1562=DIRECTION('',(-0.707106781186548,8.65956056235493E-17,0.707106781186548));
#1563=DIRECTION('center_axis',(0.,0.,-1.));
#1564=DIRECTION('ref_axis',(-1.,0.,0.));
#1565=DIRECTION('center_axis',(0.,0.,-1.));
#1566=DIRECTION('ref_axis',(-1.,0.,0.));
#1567=DIRECTION('',(0.,0.,1.));
#1568=DIRECTION('center_axis',(0.,0.,-1.));
#1569=DIRECTION('ref_axis',(-1.,0.,0.));
#1570=DIRECTION('center_axis',(0.,0.,-1.));
#1571=DIRECTION('ref_axis',(-1.,0.,0.));
#1572=DIRECTION('center_axis',(0.,0.,1.));
#1573=DIRECTION('ref_axis',(-1.,0.,0.));
#1574=DIRECTION('',(-0.707106781186548,8.65956056235493E-17,0.707106781186548));
#1575=DIRECTION('center_axis',(0.,0.,-1.));
#1576=DIRECTION('ref_axis',(-1.,0.,0.));
#1577=DIRECTION('center_axis',(0.,0.,-1.));
#1578=DIRECTION('ref_axis',(-1.,0.,0.));
#1579=DIRECTION('',(0.,0.,1.));
#1580=DIRECTION('center_axis',(0.,0.,-1.));
#1581=DIRECTION('ref_axis',(-1.,0.,0.));
#1582=DIRECTION('center_axis',(0.,0.,1.));
#1583=DIRECTION('ref_axis',(1.,0.,0.));
#1584=DIRECTION('',(1.36642833800019E-15,-1.,0.));
#1585=DIRECTION('center_axis',(0.,0.,1.));
#1586=DIRECTION('ref_axis',(1.,0.,0.));
#1587=DIRECTION('',(1.36642833800019E-15,-1.,0.));
#1588=DIRECTION('',(-1.,-7.13396321044263E-16,0.));
#1589=DIRECTION('center_axis',(0.,0.,1.));
#1590=DIRECTION('ref_axis',(1.,0.,0.));
#1591=DIRECTION('',(-1.,-7.13396321044263E-16,0.));
#1592=DIRECTION('center_axis',(0.,0.,1.));
#1593=DIRECTION('ref_axis',(1.,0.,0.));
#1594=DIRECTION('',(-1.,-7.13396321044263E-16,0.));
#1595=DIRECTION('center_axis',(1.,1.91677716867866E-16,0.));
#1596=DIRECTION('ref_axis',(1.91677716867866E-16,-1.,0.));
#1597=DIRECTION('',(1.91677716867866E-16,-1.,0.));
#1598=DIRECTION('',(-1.91677716867866E-16,1.,0.));
#1599=DIRECTION('',(0.,0.,-1.));
#1600=DIRECTION('',(1.91677716867866E-16,-1.,0.));
#1601=DIRECTION('center_axis',(0.,0.,-1.));
#1602=DIRECTION('ref_axis',(1.,0.,0.));
#1603=DIRECTION('center_axis',(0.,0.,-1.));
#1604=DIRECTION('ref_axis',(1.,0.,0.));
#1605=DIRECTION('',(0.,0.,-1.));
#1606=DIRECTION('center_axis',(0.,0.,-1.));
#1607=DIRECTION('ref_axis',(1.,0.,0.));
#1608=DIRECTION('center_axis',(0.,0.,1.));
#1609=DIRECTION('ref_axis',(1.,0.,0.));
#1610=DIRECTION('center_axis',(0.,0.,-1.));
#1611=DIRECTION('ref_axis',(1.,0.,0.));
#1612=DIRECTION('center_axis',(0.,0.,-1.));
#1613=DIRECTION('ref_axis',(1.,0.,0.));
#1614=DIRECTION('',(0.,0.,-1.));
#1615=DIRECTION('center_axis',(0.,0.,-1.));
#1616=DIRECTION('ref_axis',(1.,0.,0.));
#1617=DIRECTION('center_axis',(0.,0.,1.));
#1618=DIRECTION('ref_axis',(1.,0.,0.));
#1619=DIRECTION('center_axis',(0.,0.,1.));
#1620=DIRECTION('ref_axis',(1.,0.,0.));
#1621=DIRECTION('center_axis',(0.,0.,1.));
#1622=DIRECTION('ref_axis',(1.,0.,0.));
#1623=DIRECTION('center_axis',(0.,0.,1.));
#1624=DIRECTION('ref_axis',(1.,0.,0.));
#1625=DIRECTION('center_axis',(0.,0.,1.));
#1626=DIRECTION('ref_axis',(1.,0.,0.));
#1627=DIRECTION('center_axis',(0.,0.,-1.));
#1628=DIRECTION('ref_axis',(1.,0.,0.));
#1629=DIRECTION('',(0.,0.,-1.));
#1630=DIRECTION('center_axis',(0.,0.,1.));
#1631=DIRECTION('ref_axis',(1.,0.,0.));
#1632=DIRECTION('',(0.,0.,-1.));
#1633=DIRECTION('center_axis',(0.,0.,1.));
#1634=DIRECTION('ref_axis',(1.,0.,0.));
#1635=DIRECTION('center_axis',(0.,0.,1.));
#1636=DIRECTION('ref_axis',(1.,0.,0.));
#1637=DIRECTION('center_axis',(0.,0.,1.));
#1638=DIRECTION('ref_axis',(1.,0.,0.));
#1639=DIRECTION('center_axis',(0.,0.,1.));
#1640=DIRECTION('ref_axis',(1.,0.,0.));
#1641=DIRECTION('center_axis',(0.,0.,-1.));
#1642=DIRECTION('ref_axis',(1.,0.,0.));
#1643=DIRECTION('',(0.,0.,-1.));
#1644=DIRECTION('center_axis',(0.,0.,1.));
#1645=DIRECTION('ref_axis',(1.,0.,0.));
#1646=DIRECTION('',(0.,0.,-1.));
#1647=DIRECTION('center_axis',(0.,0.,1.));
#1648=DIRECTION('ref_axis',(1.,0.,0.));
#1649=DIRECTION('center_axis',(0.,0.,1.));
#1650=DIRECTION('ref_axis',(1.,0.,0.));
#1651=DIRECTION('center_axis',(0.,0.,1.));
#1652=DIRECTION('ref_axis',(1.,0.,0.));
#1653=DIRECTION('center_axis',(0.,0.,1.));
#1654=DIRECTION('ref_axis',(1.,0.,0.));
#1655=DIRECTION('center_axis',(0.,0.,-1.));
#1656=DIRECTION('ref_axis',(1.,0.,0.));
#1657=DIRECTION('',(0.,0.,-1.));
#1658=DIRECTION('center_axis',(0.,0.,1.));
#1659=DIRECTION('ref_axis',(1.,0.,0.));
#1660=DIRECTION('',(0.,0.,-1.));
#1661=DIRECTION('center_axis',(0.,0.,1.));
#1662=DIRECTION('ref_axis',(1.,0.,0.));
#1663=DIRECTION('',(-1.,0.,0.));
#1664=DIRECTION('center_axis',(0.,0.,1.));
#1665=DIRECTION('ref_axis',(-1.,0.,0.));
#1666=DIRECTION('center_axis',(0.,0.,-1.));
#1667=DIRECTION('ref_axis',(-1.,0.,0.));
#1668=DIRECTION('',(0.,0.,1.));
#1669=DIRECTION('center_axis',(0.,0.,-1.));
#1670=DIRECTION('ref_axis',(-1.,0.,0.));
#1671=DIRECTION('center_axis',(1.,9.10952225333462E-16,0.));
#1672=DIRECTION('ref_axis',(9.10952225333462E-16,-1.,0.));
#1673=DIRECTION('',(-9.10952225333462E-16,1.,0.));
#1674=DIRECTION('',(0.,0.,-1.));
#1675=DIRECTION('center_axis',(-2.44929359829471E-16,1.,0.));
#1676=DIRECTION('ref_axis',(1.,2.44929359829471E-16,0.));
#1677=DIRECTION('',(-1.,-2.44929359829471E-16,0.));
#1678=DIRECTION('',(0.,0.,-1.));
#1679=DIRECTION('center_axis',(-1.,-1.68631895114094E-16,0.));
#1680=DIRECTION('ref_axis',(-1.68631895114094E-16,1.,0.));
#1681=DIRECTION('',(1.68631895114094E-16,-1.,0.));
#1682=DIRECTION('',(0.,0.,-1.));
#1683=DIRECTION('center_axis',(5.55111512312991E-16,-1.,0.));
#1684=DIRECTION('ref_axis',(-1.,-5.55111512312991E-16,0.));
#1685=DIRECTION('',(1.,5.55111512312991E-16,0.));
#1686=DIRECTION('center_axis',(0.,1.,0.));
#1687=DIRECTION('ref_axis',(1.,0.,0.));
#1688=DIRECTION('',(-1.,0.,0.));
#1689=DIRECTION('center_axis',(0.,-1.,0.));
#1690=DIRECTION('ref_axis',(-1.,0.,0.));
#1691=DIRECTION('',(1.,0.,0.));
#1692=DIRECTION('center_axis',(-7.13396321044263E-16,1.,0.));
#1693=DIRECTION('ref_axis',(1.,7.13396321044263E-16,0.));
#1694=DIRECTION('',(0.,0.,-1.));
#1695=DIRECTION('',(-1.,-7.13396321044263E-16,0.));
#1696=DIRECTION('center_axis',(1.,1.36642833800019E-15,0.));
#1697=DIRECTION('ref_axis',(1.36642833800019E-15,-1.,0.));
#1698=DIRECTION('',(-1.36642833800019E-15,1.,0.));
#1699=DIRECTION('center_axis',(0.,0.,1.));
#1700=DIRECTION('ref_axis',(1.,0.,0.));
#1701=CARTESIAN_POINT('',(0.,0.,0.));
#1702=CARTESIAN_POINT('Origin',(20.5499999999998,-18.5,-1.));
#1703=CARTESIAN_POINT('',(27.3999999999997,-19.5,-1.));
#1704=CARTESIAN_POINT('',(27.3999999999997,-18.5,0.));
#1705=CARTESIAN_POINT('Origin',(27.3999999999997,-18.5,-1.));
#1706=CARTESIAN_POINT('',(23.0999999999997,-18.5,0.));
#1707=CARTESIAN_POINT('',(20.5499999999998,-18.5,0.));
#1708=CARTESIAN_POINT('',(23.0999999999997,-19.5,-1.));
#1709=CARTESIAN_POINT('Origin',(23.0999999999997,-18.5,-1.));
#1710=CARTESIAN_POINT('',(20.5499999999998,-19.5,-1.));
#1711=CARTESIAN_POINT('Origin',(27.3999999999997,-13.,0.));
#1712=CARTESIAN_POINT('',(27.3999999999997,-19.5,-7.70000000002858));
#1713=CARTESIAN_POINT('',(27.3999999999997,-19.5,0.));
#1714=CARTESIAN_POINT('',(27.3999999999997,-13.,-7.70000000002865));
#1715=CARTESIAN_POINT('',(27.3999999999997,-11.375,-7.70000000002866));
#1716=CARTESIAN_POINT('',(27.3999999999997,-13.,0.));
#1717=CARTESIAN_POINT('',(27.3999999999997,-13.,0.));
#1718=CARTESIAN_POINT('',(27.3999999999997,-19.5,0.));
#1719=CARTESIAN_POINT('Origin',(27.3999999999997,-19.5,0.));
#1720=CARTESIAN_POINT('',(23.0999999999997,-19.5,-2.));
#1721=CARTESIAN_POINT('',(23.0999999999997,-19.5,0.));
#1722=CARTESIAN_POINT('',(2.5492782447228E-14,-19.5,-2.));
#1723=CARTESIAN_POINT('',(20.5499999999998,-19.5,-2.));
#1724=CARTESIAN_POINT('',(2.66453525910038E-14,-19.5,-7.7000000000286));
#1725=CARTESIAN_POINT('',(2.66453525910038E-14,-19.5,0.));
#1726=CARTESIAN_POINT('',(20.5499999999998,-19.5,-7.70000000002859));
#1727=CARTESIAN_POINT('Origin',(6.49999999999917,-2.49999999999996,0.));
#1728=CARTESIAN_POINT('',(2.49999999999917,-2.49999999999993,-2.));
#1729=CARTESIAN_POINT('',(6.49999999999918,-6.49999999999996,-2.));
#1730=CARTESIAN_POINT('Origin',(6.49999999999917,-2.49999999999996,-2.));
#1731=CARTESIAN_POINT('',(2.49999999999917,-2.49999999999993,-7.70000000002876));
#1732=CARTESIAN_POINT('',(2.49999999999917,-2.49999999999993,0.));
#1733=CARTESIAN_POINT('',(6.49999999999918,-6.49999999999996,-7.70000000002872));
#1734=CARTESIAN_POINT('Origin',(6.49999999999917,-2.49999999999996,-7.70000000002869));
#1735=CARTESIAN_POINT('',(6.49999999999918,-6.49999999999996,0.));
#1736=CARTESIAN_POINT('Origin',(27.3999999999997,-6.49999999999995,0.));
#1737=CARTESIAN_POINT('',(27.3999999999997,-6.49999999999995,-7.70000000002871));
#1738=CARTESIAN_POINT('',(20.5499999999998,-6.49999999999996,-7.70000000002871));
#1739=CARTESIAN_POINT('',(27.3999999999997,-6.49999999999995,0.));
#1740=CARTESIAN_POINT('',(27.3999999999997,-6.49999999999995,0.));
#1741=CARTESIAN_POINT('',(23.0999999999997,-6.49999999999996,0.));
#1742=CARTESIAN_POINT('',(7.8075129151218,-6.49999999999996,0.));
#1743=CARTESIAN_POINT('',(23.0999999999997,-6.49999999999996,-2.));
#1744=CARTESIAN_POINT('',(23.0999999999997,-6.49999999999996,0.));
#1745=CARTESIAN_POINT('',(19.8499999999998,-6.49999999999995,-2.));
#1746=CARTESIAN_POINT('',(20.5499999999998,-6.49999999999995,-2.));
#1747=CARTESIAN_POINT('',(9.84999999999981,-6.49999999999996,-2.));
#1748=CARTESIAN_POINT('',(20.5499999999998,-6.49999999999995,-2.));
#1749=CARTESIAN_POINT('',(20.5499999999998,-6.49999999999995,-2.));
#1750=CARTESIAN_POINT('Origin',(13.6999999999999,-9.74999999999996,-7.70000000002869));
#1751=CARTESIAN_POINT('',(2.49999999999919,-0.999999999999837,-7.70000000002878));
#1752=CARTESIAN_POINT('',(2.49999999999912,-8.12499999999995,-7.70000000002871));
#1753=CARTESIAN_POINT('',(2.07472927726826E-14,-0.999999999999837,-7.70000000002878));
#1754=CARTESIAN_POINT('',(8.09999999999952,-0.999999999999832,-7.70000000002878));
#1755=CARTESIAN_POINT('',(2.22044604925031E-14,3.76569089448349E-14,-7.70000000002879));
#1756=CARTESIAN_POINT('',(2.33146835171283E-14,-5.37499999999994,-7.70000000002874));
#1757=CARTESIAN_POINT('',(27.3999999999997,4.43679734041623E-14,-7.70000000002877));
#1758=CARTESIAN_POINT('',(6.84999999999994,3.94129173741931E-14,-7.70000000002879));
#1759=CARTESIAN_POINT('',(27.3999999999997,-4.87499999999999,-7.70000000002873));
#1760=CARTESIAN_POINT('',(13.0749999999984,-2.99999999999994,-7.70000000002868));
#1761=CARTESIAN_POINT('Origin',(14.3249999999984,-2.99999999999994,-7.70000000002868));
#1762=CARTESIAN_POINT('Origin',(6.49999999999904,-17.,0.));
#1763=CARTESIAN_POINT('',(2.49999999999904,-16.9999999999999,-2.));
#1764=CARTESIAN_POINT('',(6.49999999999904,-13.,-2.));
#1765=CARTESIAN_POINT('Origin',(6.49999999999904,-17.,-2.));
#1766=CARTESIAN_POINT('',(6.49999999999904,-13.,-7.70000000002866));
#1767=CARTESIAN_POINT('',(6.49999999999904,-13.,0.));
#1768=CARTESIAN_POINT('',(2.49999999999919,-16.9999999999999,-7.70000000002862));
#1769=CARTESIAN_POINT('Origin',(6.49999999999904,-17.,-7.70000000002869));
#1770=CARTESIAN_POINT('',(2.49999999999904,-16.9999999999999,0.));
#1771=CARTESIAN_POINT('Origin',(2.49999999999904,-17.5000000000281,0.));
#1772=CARTESIAN_POINT('',(2.49999999999919,-0.999999999999837,-2.));
#1773=CARTESIAN_POINT('',(2.49999999999919,-17.5000000000281,-7.70000000002861));
#1774=CARTESIAN_POINT('',(2.49999999999919,-13.625000000014,-7.70000000002865));
#1775=CARTESIAN_POINT('',(2.49999999999919,-17.5000000000281,0.));
#1776=CARTESIAN_POINT('',(2.49999999999919,-17.5000000000281,0.));
#1777=CARTESIAN_POINT('',(2.49999999999919,-0.999999999999837,0.));
#1778=CARTESIAN_POINT('',(2.49999999999919,-0.999999999999837,0.));
#1779=CARTESIAN_POINT('',(2.49999999999919,-0.999999999999837,0.));
#1780=CARTESIAN_POINT('Origin',(13.6999999999999,-9.74999999999996,-7.70000000002869));
#1781=CARTESIAN_POINT('',(8.09999999999953,-13.,-7.70000000002866));
#1782=CARTESIAN_POINT('',(2.38697950294409E-14,-17.5000000000281,-7.70000000002862));
#1783=CARTESIAN_POINT('',(2.33146835171283E-14,-14.625,-7.70000000002865));
#1784=CARTESIAN_POINT('',(6.84999999999994,-17.5000000000281,-7.70000000002861));
#1785=CARTESIAN_POINT('',(22.6749999999975,-15.5491035536408,-7.70000000002868));
#1786=CARTESIAN_POINT('Origin',(23.9249999999975,-15.5491035536408,-7.70000000002868));
#1787=CARTESIAN_POINT('',(3.47499999999943,-15.5491035536408,-7.70000000002868));
#1788=CARTESIAN_POINT('Origin',(4.72499999999943,-15.5491035536408,-7.70000000002868));
#1789=CARTESIAN_POINT('Origin',(1.49999999999977,-28.9809849039369,69.7256583792422));
#1790=CARTESIAN_POINT('',(2.49999999999977,-28.9809849039369,-0.499999999999998));
#1791=CARTESIAN_POINT('Origin',(1.49999999999977,-28.9809849039369,-0.499999999999998));
#1792=CARTESIAN_POINT('',(2.49999999999977,-28.9809849039369,0.));
#1793=CARTESIAN_POINT('',(2.49999999999977,-28.9809849039369,69.7256583792422));
#1794=CARTESIAN_POINT('Origin',(1.49999999999977,-28.9809849039369,0.));
#1795=CARTESIAN_POINT('Origin',(1.44310699256159,-40.2761796340014,69.7256583792422));
#1796=CARTESIAN_POINT('',(2.44310699256159,-40.2761796340014,-0.499999999999998));
#1797=CARTESIAN_POINT('Origin',(1.44310699256159,-40.2761796340014,-0.499999999999998));
#1798=CARTESIAN_POINT('',(2.44310699256159,-40.2761796340014,0.));
#1799=CARTESIAN_POINT('',(2.44310699256159,-40.2761796340014,69.7256583792422));
#1800=CARTESIAN_POINT('Origin',(1.44310699256159,-40.2761796340014,0.));
#1801=CARTESIAN_POINT('Origin',(1.49999999999977,-26.9809849039369,-2.));
#1802=CARTESIAN_POINT('',(2.67841304690819E-14,-26.9809849039369,-2.));
#1803=CARTESIAN_POINT('',(2.67841304690819E-14,-26.9809849039369,-0.5));
#1804=CARTESIAN_POINT('',(2.67841304690819E-14,-26.9809849039369,-1.));
#1805=CARTESIAN_POINT('',(1.49999999999977,-26.9809849039369,-2.));
#1806=CARTESIAN_POINT('',(7.59999999999981,-26.9809849039369,-2.));
#1807=CARTESIAN_POINT('',(1.49999999999977,-26.9809849039369,-0.5));
#1808=CARTESIAN_POINT('',(1.49999999999977,-26.9809849039369,-2.));
#1809=CARTESIAN_POINT('',(-0.50000000000023,-26.9809849039369,-0.5));
#1810=CARTESIAN_POINT('Origin',(1.49999999999977,-28.9809849039369,-0.5));
#1811=CARTESIAN_POINT('',(2.74780198594726E-14,-30.9809849039369,-0.5));
#1812=CARTESIAN_POINT('',(3.02535774210355E-14,-47.4090285294405,-0.5));
#1813=CARTESIAN_POINT('',(1.49999999999977,-30.9809849039369,-0.5));
#1814=CARTESIAN_POINT('Origin',(1.49999999999977,-28.9809849039369,-0.5));
#1815=CARTESIAN_POINT('',(1.49999999999977,-30.9809849039369,-0.5));
#1816=CARTESIAN_POINT('Origin',(1.49999999999977,-28.9809849039369,-2.));
#1817=CARTESIAN_POINT('',(1.49999999999977,-30.9809849039369,-2.));
#1818=CARTESIAN_POINT('Origin',(1.49999999999977,-28.9809849039369,-2.));
#1819=CARTESIAN_POINT('',(1.49999999999977,-30.9809849039369,-2.));
#1820=CARTESIAN_POINT('Origin',(-0.50000000000023,-30.9809849039369,-2.));
#1821=CARTESIAN_POINT('',(2.74780198594726E-14,-30.9809849039369,-2.));
#1822=CARTESIAN_POINT('',(2.74433253899531E-14,-30.9809849039369,-1.));
#1823=CARTESIAN_POINT('',(6.59999999999981,-30.9809849039369,-2.));
#1824=CARTESIAN_POINT('Origin',(1.44310699256159,-38.2761796340014,-2.));
#1825=CARTESIAN_POINT('',(2.86576318231369E-14,-38.2761796340014,-2.));
#1826=CARTESIAN_POINT('',(2.86576318231369E-14,-38.2761796340014,-0.5));
#1827=CARTESIAN_POINT('',(2.87270207621759E-14,-38.2761796340014,-1.));
#1828=CARTESIAN_POINT('',(1.44310699256159,-38.2761796340014,-2.));
#1829=CARTESIAN_POINT('',(7.57155349628072,-38.2761796340014,-2.));
#1830=CARTESIAN_POINT('',(1.44310699256159,-38.2761796340014,-0.5));
#1831=CARTESIAN_POINT('',(1.44310699256159,-38.2761796340014,-2.));
#1832=CARTESIAN_POINT('',(-0.556893007438409,-38.2761796340014,-0.5));
#1833=CARTESIAN_POINT('Origin',(1.44310699256159,-40.27577495033,-0.5));
#1834=CARTESIAN_POINT('',(2.94209101525666E-14,-42.2753702666587,-0.5));
#1835=CARTESIAN_POINT('',(3.10862446895044E-14,-53.0564235526371,-0.5));
#1836=CARTESIAN_POINT('',(1.49999999999977,-42.2753702666587,-0.5));
#1837=CARTESIAN_POINT('Origin',(1.44310699256159,-40.2761796340014,-0.5));
#1838=CARTESIAN_POINT('',(1.49999999999977,-42.2753702666587,-0.5));
#1839=CARTESIAN_POINT('Origin',(1.44310699256159,-40.2761796340014,-2.));
#1840=CARTESIAN_POINT('',(1.49999999999977,-42.2753702666587,-2.));
#1841=CARTESIAN_POINT('Origin',(1.44310699256159,-40.2761796340014,-2.));
#1842=CARTESIAN_POINT('',(1.49999999999977,-42.2753702666587,-2.));
#1843=CARTESIAN_POINT('Origin',(-0.55689300743841,-42.2753702666587,-2.));
#1844=CARTESIAN_POINT('',(2.94209101525666E-14,-42.2753702666587,-2.));
#1845=CARTESIAN_POINT('',(2.9316826744008E-14,-42.2753702666587,-1.));
#1846=CARTESIAN_POINT('',(6.57155349628072,-42.2753702666587,-2.));
#1847=CARTESIAN_POINT('Origin',(3.33066907387547E-14,-65.8370721549441,
0.));
#1848=CARTESIAN_POINT('',(2.22044604925031E-14,3.5527136788005E-14,-2.));
#1849=CARTESIAN_POINT('',(3.5527136788005E-14,-65.8370721549441,-2.));
#1850=CARTESIAN_POINT('',(2.22044604925031E-14,3.5527136788005E-14,-2.));
#1851=CARTESIAN_POINT('',(3.33066907387547E-14,-65.8370721549441,0.));
#1852=CARTESIAN_POINT('',(3.33066907387547E-14,-65.8370721549441,0.));
#1853=CARTESIAN_POINT('',(2.38697950294409E-14,-17.5000000000281,0.));
#1854=CARTESIAN_POINT('',(2.22044604925031E-14,3.5527136788005E-14,0.));
#1855=CARTESIAN_POINT('',(2.38697950294409E-14,-17.5000000000281,0.));
#1856=CARTESIAN_POINT('',(2.22044604925031E-14,3.5527136788005E-14,-2.));
#1857=CARTESIAN_POINT('Origin',(26.8999999999997,-3.24999999999996,-3.85000000001436));
#1858=CARTESIAN_POINT('',(26.8999999999997,-3.24999999999996,-1.60000000001436));
#1859=CARTESIAN_POINT('Origin',(26.8999999999997,-3.24999999999996,-3.85000000001436));
#1860=CARTESIAN_POINT('',(26.8999999999997,-3.24999999999996,-1.85000000001436));
#1861=CARTESIAN_POINT('Origin',(26.8999999999997,-3.24999999999996,-3.85000000001436));
#1862=CARTESIAN_POINT('Origin',(27.1499999999997,-3.24999999999996,-3.85000000001436));
#1863=CARTESIAN_POINT('',(27.3999999999997,-3.24999999999996,-1.60000000001436));
#1864=CARTESIAN_POINT('Origin',(27.3999999999997,-3.24999999999996,-3.85000000001436));
#1865=CARTESIAN_POINT('',(27.1499999999997,-3.24999999999996,-1.60000000001436));
#1866=CARTESIAN_POINT('Origin',(24.1499999999997,-3.24999999999996,-3.85000000001436));
#1867=CARTESIAN_POINT('',(20.8999999999997,-3.24999999999996,-1.85000000001436));
#1868=CARTESIAN_POINT('',(24.1499999999997,-3.24999999999996,-1.85000000001436));
#1869=CARTESIAN_POINT('Origin',(20.8999999999997,-3.24999999999996,-3.85000000001436));
#1870=CARTESIAN_POINT('Origin',(20.8999999999997,-3.24999999999996,-3.85000000001436));
#1871=CARTESIAN_POINT('Origin',(9.84999999999981,-9.75000000000149,-1.175));
#1872=CARTESIAN_POINT('',(9.84999999999982,-13.,-2.));
#1873=CARTESIAN_POINT('Origin',(9.84999999999981,-9.75000000000149,-2.));
#1874=CARTESIAN_POINT('',(13.0999999999998,-9.75000000000149,-2.));
#1875=CARTESIAN_POINT('Origin',(9.84999999999981,-9.75000000000149,-2.));
#1876=CARTESIAN_POINT('',(11.4499999999998,-9.75000000000149,-0.35));
#1877=CARTESIAN_POINT('',(12.2749999999998,-9.75000000000149,-1.175));
#1878=CARTESIAN_POINT('Origin',(9.84999999999981,-9.75000000000149,-0.35));
#1879=CARTESIAN_POINT('Origin',(9.84999999999981,-9.75000000000149,-2.));
#1880=CARTESIAN_POINT('Origin',(9.84999999999981,-9.75000000000149,0.5));
#1881=CARTESIAN_POINT('',(11.4499999999998,-9.75000000000149,0.));
#1882=CARTESIAN_POINT('',(11.4499999999998,-9.75000000000149,0.5));
#1883=CARTESIAN_POINT('Origin',(9.84999999999981,-9.75000000000149,0.));
#1884=CARTESIAN_POINT('Origin',(19.8499999999998,-9.75000000000149,-1.175));
#1885=CARTESIAN_POINT('',(19.8499999999998,-13.,-2.));
#1886=CARTESIAN_POINT('Origin',(19.8499999999998,-9.75000000000149,-2.));
#1887=CARTESIAN_POINT('',(23.0999999999997,-9.75000000000149,-2.));
#1888=CARTESIAN_POINT('Origin',(19.8499999999998,-9.75000000000149,-2.));
#1889=CARTESIAN_POINT('',(21.4499999999998,-9.75000000000149,-0.35));
#1890=CARTESIAN_POINT('',(22.2749999999998,-9.75000000000149,-1.175));
#1891=CARTESIAN_POINT('Origin',(19.8499999999998,-9.75000000000149,-0.35));
#1892=CARTESIAN_POINT('Origin',(19.8499999999998,-9.75000000000149,-2.));
#1893=CARTESIAN_POINT('Origin',(19.8499999999998,-9.75000000000149,0.5));
#1894=CARTESIAN_POINT('',(21.4499999999998,-9.75000000000149,0.));
#1895=CARTESIAN_POINT('',(21.4499999999998,-9.75000000000149,0.5));
#1896=CARTESIAN_POINT('Origin',(19.8499999999998,-9.75000000000149,0.));
#1897=CARTESIAN_POINT('Origin',(17.9751928920308,-23.0000000000001,-1.175));
#1898=CARTESIAN_POINT('',(21.2251928920308,-23.0000000000001,-2.));
#1899=CARTESIAN_POINT('Origin',(17.9751928920308,-23.0000000000001,-2.));
#1900=CARTESIAN_POINT('',(19.5751928920308,-23.0000000000001,-0.35));
#1901=CARTESIAN_POINT('',(20.4001928920308,-23.0000000000001,-1.175));
#1902=CARTESIAN_POINT('Origin',(17.9751928920308,-23.0000000000001,-0.35));
#1903=CARTESIAN_POINT('Origin',(17.9751928920308,-23.0000000000001,0.5));
#1904=CARTESIAN_POINT('',(19.5751928920308,-23.0000000000001,0.));
#1905=CARTESIAN_POINT('',(19.5751928920308,-23.0000000000001,0.5));
#1906=CARTESIAN_POINT('Origin',(17.9751928920308,-23.0000000000001,0.));
#1907=CARTESIAN_POINT('Origin',(4.00000000000009,-24.0348865207844,-1.175));
#1908=CARTESIAN_POINT('',(7.25000000000009,-24.0348865207844,-2.));
#1909=CARTESIAN_POINT('Origin',(4.00000000000009,-24.0348865207844,-2.));
#1910=CARTESIAN_POINT('',(5.60000000000009,-24.0348865207844,-0.35));
#1911=CARTESIAN_POINT('',(6.42500000000009,-24.0348865207844,-1.175));
#1912=CARTESIAN_POINT('Origin',(4.00000000000009,-24.0348865207844,-0.35));
#1913=CARTESIAN_POINT('Origin',(4.00000000000009,-24.0348865207844,0.5));
#1914=CARTESIAN_POINT('',(5.60000000000009,-24.0348865207844,0.));
#1915=CARTESIAN_POINT('',(5.60000000000009,-24.0348865207844,0.5));
#1916=CARTESIAN_POINT('Origin',(4.00000000000009,-24.0348865207844,0.));
#1917=CARTESIAN_POINT('Origin',(3.50000000000015,-57.970954822483,-1.175));
#1918=CARTESIAN_POINT('',(6.75000000000015,-57.970954822483,-2.));
#1919=CARTESIAN_POINT('Origin',(3.50000000000015,-57.970954822483,-2.));
#1920=CARTESIAN_POINT('',(5.10000000000015,-57.970954822483,-0.35));
#1921=CARTESIAN_POINT('',(5.92500000000015,-57.970954822483,-1.175));
#1922=CARTESIAN_POINT('Origin',(3.50000000000015,-57.970954822483,-0.35));
#1923=CARTESIAN_POINT('Origin',(3.50000000000015,-57.970954822483,0.5));
#1924=CARTESIAN_POINT('',(5.10000000000015,-57.970954822483,0.));
#1925=CARTESIAN_POINT('',(5.10000000000015,-57.970954822483,0.5));
#1926=CARTESIAN_POINT('Origin',(3.50000000000015,-57.970954822483,0.));
#1927=CARTESIAN_POINT('Origin',(19.8729930459803,-45.254926556158,-1.175));
#1928=CARTESIAN_POINT('',(23.0999999999997,-45.6408360257369,-2.));
#1929=CARTESIAN_POINT('',(23.0999999999997,-45.254926556158,-1.97700695401936));
#1930=CARTESIAN_POINT('Ctrl Pts',(23.0999999999997,-45.6408360257369,-2.));
#1931=CARTESIAN_POINT('Ctrl Pts',(23.0999999999997,-45.4471963114313,-1.97700695401936));
#1932=CARTESIAN_POINT('Ctrl Pts',(23.0999999999997,-45.254926556158,-1.97700695401936));
#1933=CARTESIAN_POINT('',(23.0999999999997,-44.8690170865791,-2.));
#1934=CARTESIAN_POINT('Origin',(19.8729930459803,-45.254926556158,-2.));
#1935=CARTESIAN_POINT('Ctrl Pts',(23.0999999999997,-45.254926556158,-1.97700695401936));
#1936=CARTESIAN_POINT('Ctrl Pts',(23.0999999999997,-45.0626568008847,-1.97700695401936));
#1937=CARTESIAN_POINT('Ctrl Pts',(23.0999999999997,-44.869017086579,-2.));
#1938=CARTESIAN_POINT('',(21.4729930459803,-45.254926556158,-0.35));
#1939=CARTESIAN_POINT('',(22.2979930459803,-45.254926556158,-1.175));
#1940=CARTESIAN_POINT('Origin',(19.8729930459803,-45.254926556158,-0.35));
#1941=CARTESIAN_POINT('Origin',(19.8729930459803,-45.254926556158,0.5));
#1942=CARTESIAN_POINT('',(21.4729930459803,-45.254926556158,0.));
#1943=CARTESIAN_POINT('',(21.4729930459803,-45.254926556158,0.5));
#1944=CARTESIAN_POINT('Origin',(19.8729930459803,-45.254926556158,0.));
#1945=CARTESIAN_POINT('Origin',(13.6999999999999,-32.918536077472,-2.));
#1946=CARTESIAN_POINT('',(23.0999999999997,-13.,-2.));
#1947=CARTESIAN_POINT('Origin',(13.6999999999999,-32.918536077472,-2.));
#1948=CARTESIAN_POINT('',(23.0999999999997,-13.,-2.));
#1949=CARTESIAN_POINT('',(23.0999999999997,-13.,-2.));
#1950=CARTESIAN_POINT('',(8.09999999999952,-13.,-2.));
#1951=CARTESIAN_POINT('Origin',(13.6999999999999,-32.918536077472,-2.));
#1952=CARTESIAN_POINT('',(8.09999999999952,-13.,-2.));
#1953=CARTESIAN_POINT('Origin',(13.6999999999999,-32.918536077472,-2.));
#1954=CARTESIAN_POINT('',(8.09999999999952,-13.,-2.));
#1955=CARTESIAN_POINT('Origin',(23.0999999999997,-19.5,0.));
#1956=CARTESIAN_POINT('',(23.0999999999997,-65.8370721549441,-2.));
#1957=CARTESIAN_POINT('',(23.0999999999997,-65.8370721549441,0.));
#1958=CARTESIAN_POINT('',(23.0999999999997,-65.8370721549441,0.));
#1959=CARTESIAN_POINT('',(23.0999999999997,-65.8370721549441,-2.));
#1960=CARTESIAN_POINT('',(23.0999999999997,-65.8370721549441,0.));
#1961=CARTESIAN_POINT('',(23.0999999999997,-65.8370721549441,-2.));
#1962=CARTESIAN_POINT('Origin',(14.6999999999999,-55.6370721549442,0.));
#1963=CARTESIAN_POINT('',(10.6999999999999,-55.6370721549442,0.));
#1964=CARTESIAN_POINT('Origin',(14.6999999999999,-55.6370721549442,0.));
#1965=CARTESIAN_POINT('',(10.6999999999999,-55.6370721549442,-1.5));
#1966=CARTESIAN_POINT('',(10.6999999999999,-55.6370721549442,0.));
#1967=CARTESIAN_POINT('Origin',(14.6999999999999,-55.6370721549442,-1.5));
#1968=CARTESIAN_POINT('Origin',(14.6999999999999,-55.6370721549442,-1.5));
#1969=CARTESIAN_POINT('Origin',(9.00197156088405,-47.4192578526479,0.));
#1970=CARTESIAN_POINT('',(7.75197156088405,-47.4192578526479,0.));
#1971=CARTESIAN_POINT('Origin',(9.00197156088405,-47.4192578526479,0.));
#1972=CARTESIAN_POINT('',(7.75197156088405,-47.4192578526479,-1.5));
#1973=CARTESIAN_POINT('',(7.75197156088405,-47.4192578526479,0.));
#1974=CARTESIAN_POINT('Origin',(9.00197156088405,-47.4192578526479,-1.5));
#1975=CARTESIAN_POINT('Origin',(9.00197156088405,-47.4192578526479,-1.5));
#1976=CARTESIAN_POINT('Origin',(14.3249999999984,-2.99999999999994,-0.5));
#1977=CARTESIAN_POINT('',(12.8249999999984,-2.99999999999994,-0.5));
#1978=CARTESIAN_POINT('Origin',(14.3249999999984,-2.99999999999994,-0.5));
#1979=CARTESIAN_POINT('',(13.0749999999984,-2.99999999999994,-0.499999999999998));
#1980=CARTESIAN_POINT('Origin',(14.3249999999984,-2.99999999999994,-0.499999999999998));
#1981=CARTESIAN_POINT('Origin',(14.3249999999984,-2.99999999999994,-0.25));
#1982=CARTESIAN_POINT('',(12.8249999999984,-2.99999999999994,0.));
#1983=CARTESIAN_POINT('Origin',(14.3249999999984,-2.99999999999994,0.));
#1984=CARTESIAN_POINT('',(12.8249999999984,-2.99999999999994,-0.25));
#1985=CARTESIAN_POINT('Origin',(14.3249999999984,-2.99999999999994,-71.9756583792422));
#1986=CARTESIAN_POINT('',(13.0749999999984,-2.99999999999994,-71.9756583792422));
#1987=CARTESIAN_POINT('Origin',(4.72499999999943,-15.5491035536408,-0.5));
#1988=CARTESIAN_POINT('',(3.22499999999943,-15.5491035536408,-0.5));
#1989=CARTESIAN_POINT('Origin',(4.72499999999943,-15.5491035536408,-0.5));
#1990=CARTESIAN_POINT('',(3.47499999999943,-15.5491035536408,-0.499999999999998));
#1991=CARTESIAN_POINT('Origin',(4.72499999999943,-15.5491035536408,-0.499999999999998));
#1992=CARTESIAN_POINT('Origin',(4.72499999999943,-15.5491035536408,-0.25));
#1993=CARTESIAN_POINT('',(3.22499999999943,-15.5491035536408,0.));
#1994=CARTESIAN_POINT('Origin',(4.72499999999943,-15.5491035536408,0.));
#1995=CARTESIAN_POINT('',(3.22499999999943,-15.5491035536408,-0.25));
#1996=CARTESIAN_POINT('Origin',(4.72499999999943,-15.5491035536408,-71.9756583792422));
#1997=CARTESIAN_POINT('',(3.47499999999943,-15.5491035536408,-71.9756583792422));
#1998=CARTESIAN_POINT('Origin',(23.9249999999975,-15.5491035536408,-0.5));
#1999=CARTESIAN_POINT('',(22.4249999999975,-15.5491035536408,-0.5));
#2000=CARTESIAN_POINT('Origin',(23.9249999999975,-15.5491035536408,-0.5));
#2001=CARTESIAN_POINT('',(22.6749999999975,-15.5491035536408,-0.499999999999998));
#2002=CARTESIAN_POINT('Origin',(23.9249999999975,-15.5491035536408,-0.499999999999998));
#2003=CARTESIAN_POINT('Origin',(23.9249999999975,-15.5491035536408,-0.25));
#2004=CARTESIAN_POINT('',(22.4249999999975,-15.5491035536408,0.));
#2005=CARTESIAN_POINT('Origin',(23.9249999999975,-15.5491035536408,0.));
#2006=CARTESIAN_POINT('',(22.4249999999975,-15.5491035536408,-0.25));
#2007=CARTESIAN_POINT('Origin',(23.9249999999975,-15.5491035536408,-71.9756583792422));
#2008=CARTESIAN_POINT('',(22.6749999999975,-15.5491035536408,-71.9756583792422));
#2009=CARTESIAN_POINT('Origin',(13.6999999999999,-32.918536077472,-2.));
#2010=CARTESIAN_POINT('',(3.5527136788005E-14,-65.8370721549441,-2.));
#2011=CARTESIAN_POINT('',(17.3499999999999,-35.2722127152134,-2.));
#2012=CARTESIAN_POINT('Origin',(12.3499999999999,-35.2722127152134,-2.));
#2013=CARTESIAN_POINT('Origin',(12.3499999999999,-35.2722127152134,0.));
#2014=CARTESIAN_POINT('',(17.3499999999999,-35.2722127152134,0.));
#2015=CARTESIAN_POINT('',(17.3499999999999,-35.2722127152134,0.));
#2016=CARTESIAN_POINT('Origin',(12.3499999999999,-35.2722127152134,0.));
#2017=CARTESIAN_POINT('Origin',(27.3999999999997,4.44089209850063E-14,0.));
#2018=CARTESIAN_POINT('',(27.3999999999997,4.43679734041623E-14,0.));
#2019=CARTESIAN_POINT('',(27.3999999999997,-19.5,0.));
#2020=CARTESIAN_POINT('',(27.3999999999997,4.43679734041623E-14,0.));
#2021=CARTESIAN_POINT('Origin',(2.22044604925031E-14,3.76569089448349E-14,
0.));
#2022=CARTESIAN_POINT('',(2.22044604925031E-14,3.76569089448349E-14,0.));
#2023=CARTESIAN_POINT('',(27.3999999999997,4.43679734041623E-14,0.));
#2024=CARTESIAN_POINT('',(2.22044604925031E-14,3.76569089448349E-14,0.));
#2025=CARTESIAN_POINT('Origin',(2.23730923876172E-14,-0.999999999999837,
0.));
#2026=CARTESIAN_POINT('',(2.07472927726826E-14,-0.999999999999837,0.));
#2027=CARTESIAN_POINT('',(2.22044604925031E-14,3.5527136788005E-14,0.));
#2028=CARTESIAN_POINT('',(2.07472927726826E-14,-0.999999999999837,0.));
#2029=CARTESIAN_POINT('Origin',(2.49999999999919,-0.999999999999836,0.));
#2030=CARTESIAN_POINT('',(2.08166817117217E-14,-0.999999999999837,0.));
#2031=CARTESIAN_POINT('Origin',(2.38697950294409E-14,-17.5000000000281,
0.));
#2032=CARTESIAN_POINT('',(2.49999999999919,-17.5000000000281,0.));
#2033=CARTESIAN_POINT('Origin',(23.0999999999997,-65.8370721549441,0.));
#2034=CARTESIAN_POINT('',(3.5527136788005E-14,-65.8370721549441,0.));
#2035=CARTESIAN_POINT('Origin',(23.0999999999997,-13.,0.));
#2036=CARTESIAN_POINT('',(23.0999999999997,-13.,0.));
#2037=CARTESIAN_POINT('',(23.0999999999997,-13.,0.));
#2038=CARTESIAN_POINT('',(27.3999999999997,-13.,0.));
#2039=CARTESIAN_POINT('Origin',(23.0999999999997,-6.49999999999996,0.));
#2040=CARTESIAN_POINT('',(23.0999999999997,-13.,0.));
#2041=CARTESIAN_POINT('Origin',(13.6999999999999,-32.918536077472,0.));
#2042=UNCERTAINTY_MEASURE_WITH_UNIT(LENGTH_MEASURE(0.01),#2046,
'DISTANCE_ACCURACY_VALUE',
'Maximum model space distance between geometric entities at asserted c
onnectivities');
#2043=UNCERTAINTY_MEASURE_WITH_UNIT(LENGTH_MEASURE(0.01),#2046,
'DISTANCE_ACCURACY_VALUE',
'Maximum model space distance between geometric entities at asserted c
onnectivities');
#2044=(
GEOMETRIC_REPRESENTATION_CONTEXT(3)
GLOBAL_UNCERTAINTY_ASSIGNED_CONTEXT((#2042))
GLOBAL_UNIT_ASSIGNED_CONTEXT((#2046,#2048,#2049))
REPRESENTATION_CONTEXT('','3D')
);
#2045=(
GEOMETRIC_REPRESENTATION_CONTEXT(3)
GLOBAL_UNCERTAINTY_ASSIGNED_CONTEXT((#2043))
GLOBAL_UNIT_ASSIGNED_CONTEXT((#2046,#2048,#2049))
REPRESENTATION_CONTEXT('','3D')
);
#2046=(
LENGTH_UNIT()
NAMED_UNIT(*)
SI_UNIT(.MILLI.,.METRE.)
);
#2047=(
LENGTH_UNIT()
NAMED_UNIT(*)
SI_UNIT(.CENTI.,.METRE.)
);
#2048=(
NAMED_UNIT(*)
PLANE_ANGLE_UNIT()
SI_UNIT($,.RADIAN.)
);
#2049=(
NAMED_UNIT(*)
SI_UNIT($,.STERADIAN.)
SOLID_ANGLE_UNIT()
);
#2050=SHAPE_DEFINITION_REPRESENTATION(#2051,#2052);
#2051=PRODUCT_DEFINITION_SHAPE('',$,#2054);
#2052=SHAPE_REPRESENTATION('',(#1224),#2044);
#2053=PRODUCT_DEFINITION_CONTEXT('part definition',#2058,'design');
#2054=PRODUCT_DEFINITION('LeftGearboxCoverr','LeftGearboxCoverr',#2055,
#2053);
#2055=PRODUCT_DEFINITION_FORMATION('',$,#2060);
#2056=PRODUCT_RELATED_PRODUCT_CATEGORY('LeftGearboxCoverr',
'LeftGearboxCoverr',(#2060));
#2057=APPLICATION_PROTOCOL_DEFINITION('international standard',
'automotive_design',2009,#2058);
#2058=APPLICATION_CONTEXT(
'Core Data for Automotive Mechanical Design Process');
#2059=PRODUCT_CONTEXT('part definition',#2058,'mechanical');
#2060=PRODUCT('LeftGearboxCoverr','LeftGearboxCoverr',$,(#2059));
#2061=PRESENTATION_STYLE_ASSIGNMENT((#2062));
#2062=SURFACE_STYLE_USAGE(.BOTH.,#2065);
#2063=SURFACE_STYLE_RENDERING_WITH_PROPERTIES($,#2069,(#2064));
#2064=SURFACE_STYLE_TRANSPARENT(0.);
#2065=SURFACE_SIDE_STYLE('',(#2066,#2063));
#2066=SURFACE_STYLE_FILL_AREA(#2067);
#2067=FILL_AREA_STYLE('',(#2068));
#2068=FILL_AREA_STYLE_COLOUR('',#2069);
#2069=COLOUR_RGB('',0.498039215686275,0.498039215686275,0.498039215686275);
ENDSEC;
END-ISO-10303-21;
