ISO-10303-21;
HEADER;
/* Generated by software containing ST-Developer
 * from STEP Tools, Inc. (www.steptools.com) 
 */

FILE_DESCRIPTION(
/* description */ (''),
/* implementation_level */ '2;1');

FILE_NAME(
/* name */ 'PCB_Main.stp',
/* time_stamp */ '2026-04-20T21:00:32+02:00',
/* author */ ('szymo'),
/* organization */ (''),
/* preprocessor_version */ 'ST-DEVELOPER v20.1',
/* originating_system */ 'Autodesk Inventor 2026',
/* authorisation */ '');

FILE_SCHEMA (('AUTOMOTIVE_DESIGN { 1 0 10303 214 3 1 1 }'));
ENDSEC;

DATA;
#10=MECHANICAL_DESIGN_GEOMETRIC_PRESENTATION_REPRESENTATION('',(#13),#410);
#11=SHAPE_REPRESENTATION_RELATIONSHIP('SRR','None',#417,#12);
#12=ADVANCED_BREP_SHAPE_REPRESENTATION('',(#14),#409);
#13=STYLED_ITEM('',(#426),#14);
#14=MANIFOLD_SOLID_BREP('Solid1',#229);
#15=FACE_BOUND('',#40,.T.);
#16=FACE_BOUND('',#41,.T.);
#17=FACE_BOUND('',#51,.T.);
#18=FACE_BOUND('',#52,.T.);
#19=PLANE('',#255);
#20=PLANE('',#256);
#21=PLANE('',#264);
#22=PLANE('',#267);
#23=PLANE('',#274);
#24=PLANE('',#275);
#25=FACE_OUTER_BOUND('',#37,.T.);
#26=FACE_OUTER_BOUND('',#38,.T.);
#27=FACE_OUTER_BOUND('',#39,.T.);
#28=FACE_OUTER_BOUND('',#42,.T.);
#29=FACE_OUTER_BOUND('',#43,.T.);
#30=FACE_OUTER_BOUND('',#44,.T.);
#31=FACE_OUTER_BOUND('',#45,.T.);
#32=FACE_OUTER_BOUND('',#46,.T.);
#33=FACE_OUTER_BOUND('',#47,.T.);
#34=FACE_OUTER_BOUND('',#48,.T.);
#35=FACE_OUTER_BOUND('',#49,.T.);
#36=FACE_OUTER_BOUND('',#50,.T.);
#37=EDGE_LOOP('',(#151,#152,#153,#154));
#38=EDGE_LOOP('',(#155,#156,#157,#158));
#39=EDGE_LOOP('',(#159,#160,#161,#162,#163,#164,#165,#166));
#40=EDGE_LOOP('',(#167));
#41=EDGE_LOOP('',(#168));
#42=EDGE_LOOP('',(#169,#170,#171,#172));
#43=EDGE_LOOP('',(#173,#174,#175,#176));
#44=EDGE_LOOP('',(#177,#178,#179,#180));
#45=EDGE_LOOP('',(#181,#182,#183,#184));
#46=EDGE_LOOP('',(#185,#186,#187,#188));
#47=EDGE_LOOP('',(#189,#190,#191,#192));
#48=EDGE_LOOP('',(#193,#194,#195,#196));
#49=EDGE_LOOP('',(#197,#198,#199,#200));
#50=EDGE_LOOP('',(#201,#202,#203,#204,#205,#206,#207,#208));
#51=EDGE_LOOP('',(#209));
#52=EDGE_LOOP('',(#210));
#53=LINE('',#350,#71);
#54=LINE('',#353,#72);
#55=LINE('',#356,#73);
#56=LINE('',#358,#74);
#57=LINE('',#359,#75);
#58=LINE('',#362,#76);
#59=LINE('',#366,#77);
#60=LINE('',#370,#78);
#61=LINE('',#379,#79);
#62=LINE('',#382,#80);
#63=LINE('',#383,#81);
#64=LINE('',#387,#82);
#65=LINE('',#390,#83);
#66=LINE('',#391,#84);
#67=LINE('',#395,#85);
#68=LINE('',#399,#86);
#69=LINE('',#403,#87);
#70=LINE('',#405,#88);
#71=VECTOR('',#282,10.);
#72=VECTOR('',#285,10.);
#73=VECTOR('',#288,10.);
#74=VECTOR('',#289,10.);
#75=VECTOR('',#290,10.);
#76=VECTOR('',#293,10.);
#77=VECTOR('',#296,10.);
#78=VECTOR('',#299,10.);
#79=VECTOR('',#310,10.);
#80=VECTOR('',#313,10.);
#81=VECTOR('',#314,10.);
#82=VECTOR('',#319,10.);
#83=VECTOR('',#322,10.);
#84=VECTOR('',#323,10.);
#85=VECTOR('',#328,10.);
#86=VECTOR('',#333,1.25);
#87=VECTOR('',#338,1.25);
#88=VECTOR('',#341,10.);
#89=CIRCLE('',#253,1.);
#90=CIRCLE('',#254,1.);
#91=CIRCLE('',#257,1.);
#92=CIRCLE('',#258,1.);
#93=CIRCLE('',#259,1.);
#94=CIRCLE('',#260,1.25);
#95=CIRCLE('',#261,1.25);
#96=CIRCLE('',#263,1.);
#97=CIRCLE('',#266,1.);
#98=CIRCLE('',#269,1.);
#99=CIRCLE('',#271,1.25);
#100=CIRCLE('',#273,1.25);
#101=VERTEX_POINT('',#346);
#102=VERTEX_POINT('',#347);
#103=VERTEX_POINT('',#349);
#104=VERTEX_POINT('',#351);
#105=VERTEX_POINT('',#355);
#106=VERTEX_POINT('',#357);
#107=VERTEX_POINT('',#361);
#108=VERTEX_POINT('',#363);
#109=VERTEX_POINT('',#365);
#110=VERTEX_POINT('',#367);
#111=VERTEX_POINT('',#369);
#112=VERTEX_POINT('',#372);
#113=VERTEX_POINT('',#374);
#114=VERTEX_POINT('',#377);
#115=VERTEX_POINT('',#381);
#116=VERTEX_POINT('',#385);
#117=VERTEX_POINT('',#389);
#118=VERTEX_POINT('',#393);
#119=VERTEX_POINT('',#397);
#120=VERTEX_POINT('',#401);
#121=EDGE_CURVE('',#101,#102,#89,.T.);
#122=EDGE_CURVE('',#102,#103,#53,.T.);
#123=EDGE_CURVE('',#103,#104,#90,.T.);
#124=EDGE_CURVE('',#104,#101,#54,.T.);
#125=EDGE_CURVE('',#104,#105,#55,.T.);
#126=EDGE_CURVE('',#106,#105,#56,.T.);
#127=EDGE_CURVE('',#101,#106,#57,.T.);
#128=EDGE_CURVE('',#107,#103,#58,.T.);
#129=EDGE_CURVE('',#108,#107,#91,.T.);
#130=EDGE_CURVE('',#109,#108,#59,.T.);
#131=EDGE_CURVE('',#110,#109,#92,.T.);
#132=EDGE_CURVE('',#111,#110,#60,.T.);
#133=EDGE_CURVE('',#105,#111,#93,.T.);
#134=EDGE_CURVE('',#112,#112,#94,.T.);
#135=EDGE_CURVE('',#113,#113,#95,.T.);
#136=EDGE_CURVE('',#114,#106,#96,.T.);
#137=EDGE_CURVE('',#111,#114,#61,.T.);
#138=EDGE_CURVE('',#115,#110,#62,.T.);
#139=EDGE_CURVE('',#114,#115,#63,.T.);
#140=EDGE_CURVE('',#116,#115,#97,.T.);
#141=EDGE_CURVE('',#109,#116,#64,.T.);
#142=EDGE_CURVE('',#117,#108,#65,.T.);
#143=EDGE_CURVE('',#116,#117,#66,.T.);
#144=EDGE_CURVE('',#118,#117,#98,.T.);
#145=EDGE_CURVE('',#107,#118,#67,.T.);
#146=EDGE_CURVE('',#119,#119,#99,.T.);
#147=EDGE_CURVE('',#119,#113,#68,.T.);
#148=EDGE_CURVE('',#120,#120,#100,.T.);
#149=EDGE_CURVE('',#120,#112,#69,.T.);
#150=EDGE_CURVE('',#118,#102,#70,.T.);
#151=ORIENTED_EDGE('',*,*,#121,.T.);
#152=ORIENTED_EDGE('',*,*,#122,.T.);
#153=ORIENTED_EDGE('',*,*,#123,.T.);
#154=ORIENTED_EDGE('',*,*,#124,.T.);
#155=ORIENTED_EDGE('',*,*,#124,.F.);
#156=ORIENTED_EDGE('',*,*,#125,.T.);
#157=ORIENTED_EDGE('',*,*,#126,.F.);
#158=ORIENTED_EDGE('',*,*,#127,.F.);
#159=ORIENTED_EDGE('',*,*,#123,.F.);
#160=ORIENTED_EDGE('',*,*,#128,.F.);
#161=ORIENTED_EDGE('',*,*,#129,.F.);
#162=ORIENTED_EDGE('',*,*,#130,.F.);
#163=ORIENTED_EDGE('',*,*,#131,.F.);
#164=ORIENTED_EDGE('',*,*,#132,.F.);
#165=ORIENTED_EDGE('',*,*,#133,.F.);
#166=ORIENTED_EDGE('',*,*,#125,.F.);
#167=ORIENTED_EDGE('',*,*,#134,.F.);
#168=ORIENTED_EDGE('',*,*,#135,.F.);
#169=ORIENTED_EDGE('',*,*,#136,.T.);
#170=ORIENTED_EDGE('',*,*,#126,.T.);
#171=ORIENTED_EDGE('',*,*,#133,.T.);
#172=ORIENTED_EDGE('',*,*,#137,.T.);
#173=ORIENTED_EDGE('',*,*,#137,.F.);
#174=ORIENTED_EDGE('',*,*,#132,.T.);
#175=ORIENTED_EDGE('',*,*,#138,.F.);
#176=ORIENTED_EDGE('',*,*,#139,.F.);
#177=ORIENTED_EDGE('',*,*,#140,.T.);
#178=ORIENTED_EDGE('',*,*,#138,.T.);
#179=ORIENTED_EDGE('',*,*,#131,.T.);
#180=ORIENTED_EDGE('',*,*,#141,.T.);
#181=ORIENTED_EDGE('',*,*,#141,.F.);
#182=ORIENTED_EDGE('',*,*,#130,.T.);
#183=ORIENTED_EDGE('',*,*,#142,.F.);
#184=ORIENTED_EDGE('',*,*,#143,.F.);
#185=ORIENTED_EDGE('',*,*,#144,.T.);
#186=ORIENTED_EDGE('',*,*,#142,.T.);
#187=ORIENTED_EDGE('',*,*,#129,.T.);
#188=ORIENTED_EDGE('',*,*,#145,.T.);
#189=ORIENTED_EDGE('',*,*,#146,.F.);
#190=ORIENTED_EDGE('',*,*,#147,.T.);
#191=ORIENTED_EDGE('',*,*,#135,.T.);
#192=ORIENTED_EDGE('',*,*,#147,.F.);
#193=ORIENTED_EDGE('',*,*,#148,.F.);
#194=ORIENTED_EDGE('',*,*,#149,.T.);
#195=ORIENTED_EDGE('',*,*,#134,.T.);
#196=ORIENTED_EDGE('',*,*,#149,.F.);
#197=ORIENTED_EDGE('',*,*,#122,.F.);
#198=ORIENTED_EDGE('',*,*,#150,.F.);
#199=ORIENTED_EDGE('',*,*,#145,.F.);
#200=ORIENTED_EDGE('',*,*,#128,.T.);
#201=ORIENTED_EDGE('',*,*,#121,.F.);
#202=ORIENTED_EDGE('',*,*,#127,.T.);
#203=ORIENTED_EDGE('',*,*,#136,.F.);
#204=ORIENTED_EDGE('',*,*,#139,.T.);
#205=ORIENTED_EDGE('',*,*,#140,.F.);
#206=ORIENTED_EDGE('',*,*,#143,.T.);
#207=ORIENTED_EDGE('',*,*,#144,.F.);
#208=ORIENTED_EDGE('',*,*,#150,.T.);
#209=ORIENTED_EDGE('',*,*,#148,.T.);
#210=ORIENTED_EDGE('',*,*,#146,.T.);
#211=CYLINDRICAL_SURFACE('',#252,1.);
#212=CYLINDRICAL_SURFACE('',#262,1.);
#213=CYLINDRICAL_SURFACE('',#265,1.);
#214=CYLINDRICAL_SURFACE('',#268,1.);
#215=CYLINDRICAL_SURFACE('',#270,1.25);
#216=CYLINDRICAL_SURFACE('',#272,1.25);
#217=ADVANCED_FACE('',(#25),#211,.T.);
#218=ADVANCED_FACE('',(#26),#19,.T.);
#219=ADVANCED_FACE('',(#27,#15,#16),#20,.F.);
#220=ADVANCED_FACE('',(#28),#212,.T.);
#221=ADVANCED_FACE('',(#29),#21,.T.);
#222=ADVANCED_FACE('',(#30),#213,.T.);
#223=ADVANCED_FACE('',(#31),#22,.T.);
#224=ADVANCED_FACE('',(#32),#214,.T.);
#225=ADVANCED_FACE('',(#33),#215,.F.);
#226=ADVANCED_FACE('',(#34),#216,.F.);
#227=ADVANCED_FACE('',(#35),#23,.T.);
#228=ADVANCED_FACE('',(#36,#17,#18),#24,.T.);
#229=CLOSED_SHELL('',(#217,#218,#219,#220,#221,#222,#223,#224,#225,#226,
#227,#228));
#230=DERIVED_UNIT_ELEMENT(#233,1.);
#231=DERIVED_UNIT_ELEMENT(#412,-3.);
#232=DIMENSIONAL_EXPONENTS(0.,1.,0.,0.,0.,0.,0.);
#233=(
CONVERSION_BASED_UNIT('gram',#235)
MASS_UNIT()
NAMED_UNIT(#232)
);
#234=(
MASS_UNIT()
NAMED_UNIT(*)
SI_UNIT(.KILO.,.GRAM.)
);
#235=MASS_MEASURE_WITH_UNIT(MASS_MEASURE(0.001),#234);
#236=DERIVED_UNIT((#230,#231));
#237=MEASURE_REPRESENTATION_ITEM('density measure',
POSITIVE_RATIO_MEASURE(1.),#236);
#238=PROPERTY_DEFINITION_REPRESENTATION(#243,#240);
#239=PROPERTY_DEFINITION_REPRESENTATION(#244,#241);
#240=REPRESENTATION('material name',(#242),#409);
#241=REPRESENTATION('density',(#237),#409);
#242=DESCRIPTIVE_REPRESENTATION_ITEM('Generic','Generic');
#243=PROPERTY_DEFINITION('material property','material name',#419);
#244=PROPERTY_DEFINITION('material property','density of part',#419);
#245=DATE_TIME_ROLE('creation_date');
#246=APPLIED_DATE_AND_TIME_ASSIGNMENT(#247,#245,(#419));
#247=DATE_AND_TIME(#248,#249);
#248=CALENDAR_DATE(2026,14,4);
#249=LOCAL_TIME(0,0,0.,#250);
#250=COORDINATED_UNIVERSAL_TIME_OFFSET(0,0,.BEHIND.);
#251=AXIS2_PLACEMENT_3D('',#344,#276,#277);
#252=AXIS2_PLACEMENT_3D('',#345,#278,#279);
#253=AXIS2_PLACEMENT_3D('',#348,#280,#281);
#254=AXIS2_PLACEMENT_3D('',#352,#283,#284);
#255=AXIS2_PLACEMENT_3D('',#354,#286,#287);
#256=AXIS2_PLACEMENT_3D('',#360,#291,#292);
#257=AXIS2_PLACEMENT_3D('',#364,#294,#295);
#258=AXIS2_PLACEMENT_3D('',#368,#297,#298);
#259=AXIS2_PLACEMENT_3D('',#371,#300,#301);
#260=AXIS2_PLACEMENT_3D('',#373,#302,#303);
#261=AXIS2_PLACEMENT_3D('',#375,#304,#305);
#262=AXIS2_PLACEMENT_3D('',#376,#306,#307);
#263=AXIS2_PLACEMENT_3D('',#378,#308,#309);
#264=AXIS2_PLACEMENT_3D('',#380,#311,#312);
#265=AXIS2_PLACEMENT_3D('',#384,#315,#316);
#266=AXIS2_PLACEMENT_3D('',#386,#317,#318);
#267=AXIS2_PLACEMENT_3D('',#388,#320,#321);
#268=AXIS2_PLACEMENT_3D('',#392,#324,#325);
#269=AXIS2_PLACEMENT_3D('',#394,#326,#327);
#270=AXIS2_PLACEMENT_3D('',#396,#329,#330);
#271=AXIS2_PLACEMENT_3D('',#398,#331,#332);
#272=AXIS2_PLACEMENT_3D('',#400,#334,#335);
#273=AXIS2_PLACEMENT_3D('',#402,#336,#337);
#274=AXIS2_PLACEMENT_3D('',#404,#339,#340);
#275=AXIS2_PLACEMENT_3D('',#406,#342,#343);
#276=DIRECTION('axis',(0.,0.,1.));
#277=DIRECTION('refdir',(1.,0.,0.));
#278=DIRECTION('center_axis',(0.,0.,1.));
#279=DIRECTION('ref_axis',(0.707106781186546,0.707106781186549,0.));
#280=DIRECTION('center_axis',(0.,0.,-1.));
#281=DIRECTION('ref_axis',(0.707106781186546,0.707106781186549,0.));
#282=DIRECTION('',(0.,0.,-1.));
#283=DIRECTION('center_axis',(0.,0.,1.));
#284=DIRECTION('ref_axis',(0.707106781186546,0.707106781186549,0.));
#285=DIRECTION('',(0.,0.,1.));
#286=DIRECTION('center_axis',(0.,1.,0.));
#287=DIRECTION('ref_axis',(-1.,0.,0.));
#288=DIRECTION('',(-1.,0.,0.));
#289=DIRECTION('',(0.,0.,-1.));
#290=DIRECTION('',(-1.,0.,0.));
#291=DIRECTION('center_axis',(0.,0.,1.));
#292=DIRECTION('ref_axis',(1.,0.,0.));
#293=DIRECTION('',(0.,1.,0.));
#294=DIRECTION('center_axis',(0.,0.,1.));
#295=DIRECTION('ref_axis',(0.707106781186549,-0.707106781186546,0.));
#296=DIRECTION('',(1.,0.,0.));
#297=DIRECTION('center_axis',(0.,0.,1.));
#298=DIRECTION('ref_axis',(-0.707106781186548,-0.707106781186547,0.));
#299=DIRECTION('',(0.,-1.,0.));
#300=DIRECTION('center_axis',(0.,0.,1.));
#301=DIRECTION('ref_axis',(-0.707106781186548,0.707106781186548,0.));
#302=DIRECTION('center_axis',(0.,0.,-1.));
#303=DIRECTION('ref_axis',(-1.,0.,0.));
#304=DIRECTION('center_axis',(0.,0.,-1.));
#305=DIRECTION('ref_axis',(-1.,0.,0.));
#306=DIRECTION('center_axis',(0.,0.,1.));
#307=DIRECTION('ref_axis',(-0.707106781186548,0.707106781186548,0.));
#308=DIRECTION('center_axis',(0.,0.,-1.));
#309=DIRECTION('ref_axis',(-0.707106781186548,0.707106781186548,0.));
#310=DIRECTION('',(0.,0.,1.));
#311=DIRECTION('center_axis',(-1.,0.,0.));
#312=DIRECTION('ref_axis',(0.,-1.,0.));
#313=DIRECTION('',(0.,0.,-1.));
#314=DIRECTION('',(0.,-1.,0.));
#315=DIRECTION('center_axis',(0.,0.,1.));
#316=DIRECTION('ref_axis',(-0.707106781186548,-0.707106781186547,0.));
#317=DIRECTION('center_axis',(0.,0.,-1.));
#318=DIRECTION('ref_axis',(-0.707106781186548,-0.707106781186547,0.));
#319=DIRECTION('',(0.,0.,1.));
#320=DIRECTION('center_axis',(0.,-1.,0.));
#321=DIRECTION('ref_axis',(1.,0.,0.));
#322=DIRECTION('',(0.,0.,-1.));
#323=DIRECTION('',(1.,0.,0.));
#324=DIRECTION('center_axis',(0.,0.,1.));
#325=DIRECTION('ref_axis',(0.707106781186549,-0.707106781186546,0.));
#326=DIRECTION('center_axis',(0.,0.,-1.));
#327=DIRECTION('ref_axis',(0.707106781186549,-0.707106781186546,0.));
#328=DIRECTION('',(0.,0.,1.));
#329=DIRECTION('center_axis',(0.,0.,1.));
#330=DIRECTION('ref_axis',(-1.,0.,0.));
#331=DIRECTION('center_axis',(0.,0.,-1.));
#332=DIRECTION('ref_axis',(-1.,0.,0.));
#333=DIRECTION('',(0.,0.,-1.));
#334=DIRECTION('center_axis',(0.,0.,1.));
#335=DIRECTION('ref_axis',(-1.,0.,0.));
#336=DIRECTION('center_axis',(0.,0.,-1.));
#337=DIRECTION('ref_axis',(-1.,0.,0.));
#338=DIRECTION('',(0.,0.,-1.));
#339=DIRECTION('center_axis',(1.,0.,0.));
#340=DIRECTION('ref_axis',(0.,1.,0.));
#341=DIRECTION('',(0.,1.,0.));
#342=DIRECTION('center_axis',(0.,0.,1.));
#343=DIRECTION('ref_axis',(1.,0.,0.));
#344=CARTESIAN_POINT('',(0.,0.,0.));
#345=CARTESIAN_POINT('Origin',(29.,18.,0.));
#346=CARTESIAN_POINT('',(29.,19.,0.8));
#347=CARTESIAN_POINT('',(30.,18.,0.8));
#348=CARTESIAN_POINT('Origin',(29.,18.,0.8));
#349=CARTESIAN_POINT('',(30.,18.,0.));
#350=CARTESIAN_POINT('',(30.,18.,0.));
#351=CARTESIAN_POINT('',(29.,19.,0.));
#352=CARTESIAN_POINT('Origin',(29.,18.,0.));
#353=CARTESIAN_POINT('',(29.,19.,0.));
#354=CARTESIAN_POINT('Origin',(30.,19.,0.));
#355=CARTESIAN_POINT('',(1.,19.,0.));
#356=CARTESIAN_POINT('',(30.,19.,0.));
#357=CARTESIAN_POINT('',(1.,19.,0.8));
#358=CARTESIAN_POINT('',(1.,19.,0.));
#359=CARTESIAN_POINT('',(30.,19.,0.8));
#360=CARTESIAN_POINT('Origin',(15.,9.5,0.));
#361=CARTESIAN_POINT('',(30.,1.,0.));
#362=CARTESIAN_POINT('',(30.,0.,0.));
#363=CARTESIAN_POINT('',(29.,0.,0.));
#364=CARTESIAN_POINT('Origin',(29.,1.,0.));
#365=CARTESIAN_POINT('',(1.,0.,0.));
#366=CARTESIAN_POINT('',(0.,0.,0.));
#367=CARTESIAN_POINT('',(0.,0.999999999999999,0.));
#368=CARTESIAN_POINT('Origin',(1.,1.,0.));
#369=CARTESIAN_POINT('',(0.,18.,0.));
#370=CARTESIAN_POINT('',(0.,19.,0.));
#371=CARTESIAN_POINT('Origin',(1.,18.,0.));
#372=CARTESIAN_POINT('',(28.5,2.75,0.));
#373=CARTESIAN_POINT('Origin',(27.25,2.75,0.));
#374=CARTESIAN_POINT('',(4.,2.75,0.));
#375=CARTESIAN_POINT('Origin',(2.75,2.75,0.));
#376=CARTESIAN_POINT('Origin',(1.,18.,0.));
#377=CARTESIAN_POINT('',(0.,18.,0.8));
#378=CARTESIAN_POINT('Origin',(1.,18.,0.8));
#379=CARTESIAN_POINT('',(0.,18.,0.));
#380=CARTESIAN_POINT('Origin',(0.,19.,0.));
#381=CARTESIAN_POINT('',(0.,0.999999999999999,0.8));
#382=CARTESIAN_POINT('',(0.,1.,0.));
#383=CARTESIAN_POINT('',(0.,19.,0.8));
#384=CARTESIAN_POINT('Origin',(1.,1.,0.));
#385=CARTESIAN_POINT('',(1.,0.,0.8));
#386=CARTESIAN_POINT('Origin',(1.,1.,0.8));
#387=CARTESIAN_POINT('',(1.,0.,0.));
#388=CARTESIAN_POINT('Origin',(0.,0.,0.));
#389=CARTESIAN_POINT('',(29.,0.,0.8));
#390=CARTESIAN_POINT('',(29.,0.,0.));
#391=CARTESIAN_POINT('',(0.,0.,0.8));
#392=CARTESIAN_POINT('Origin',(29.,1.,0.));
#393=CARTESIAN_POINT('',(30.,1.,0.8));
#394=CARTESIAN_POINT('Origin',(29.,1.,0.8));
#395=CARTESIAN_POINT('',(30.,1.,0.));
#396=CARTESIAN_POINT('Origin',(2.75,2.75,0.));
#397=CARTESIAN_POINT('',(4.,2.75,0.8));
#398=CARTESIAN_POINT('Origin',(2.75,2.75,0.8));
#399=CARTESIAN_POINT('',(4.,2.75,0.));
#400=CARTESIAN_POINT('Origin',(27.25,2.75,0.));
#401=CARTESIAN_POINT('',(28.5,2.75,0.8));
#402=CARTESIAN_POINT('Origin',(27.25,2.75,0.8));
#403=CARTESIAN_POINT('',(28.5,2.75,0.));
#404=CARTESIAN_POINT('Origin',(30.,0.,0.));
#405=CARTESIAN_POINT('',(30.,0.,0.8));
#406=CARTESIAN_POINT('Origin',(15.,9.5,0.8));
#407=UNCERTAINTY_MEASURE_WITH_UNIT(LENGTH_MEASURE(0.01),#411,
'DISTANCE_ACCURACY_VALUE',
'Maximum model space distance between geometric entities at asserted c
onnectivities');
#408=UNCERTAINTY_MEASURE_WITH_UNIT(LENGTH_MEASURE(0.01),#411,
'DISTANCE_ACCURACY_VALUE',
'Maximum model space distance between geometric entities at asserted c
onnectivities');
#409=(
GEOMETRIC_REPRESENTATION_CONTEXT(3)
GLOBAL_UNCERTAINTY_ASSIGNED_CONTEXT((#407))
GLOBAL_UNIT_ASSIGNED_CONTEXT((#411,#413,#414))
REPRESENTATION_CONTEXT('','3D')
);
#410=(
GEOMETRIC_REPRESENTATION_CONTEXT(3)
GLOBAL_UNCERTAINTY_ASSIGNED_CONTEXT((#408))
GLOBAL_UNIT_ASSIGNED_CONTEXT((#411,#413,#414))
REPRESENTATION_CONTEXT('','3D')
);
#411=(
LENGTH_UNIT()
NAMED_UNIT(*)
SI_UNIT(.MILLI.,.METRE.)
);
#412=(
LENGTH_UNIT()
NAMED_UNIT(*)
SI_UNIT(.CENTI.,.METRE.)
);
#413=(
NAMED_UNIT(*)
PLANE_ANGLE_UNIT()
SI_UNIT($,.RADIAN.)
);
#414=(
NAMED_UNIT(*)
SI_UNIT($,.STERADIAN.)
SOLID_ANGLE_UNIT()
);
#415=SHAPE_DEFINITION_REPRESENTATION(#416,#417);
#416=PRODUCT_DEFINITION_SHAPE('',$,#419);
#417=SHAPE_REPRESENTATION('',(#251),#409);
#418=PRODUCT_DEFINITION_CONTEXT('part definition',#423,'design');
#419=PRODUCT_DEFINITION('PCB_Main','PCB_Main',#420,#418);
#420=PRODUCT_DEFINITION_FORMATION('',$,#425);
#421=PRODUCT_RELATED_PRODUCT_CATEGORY('PCB_Main','PCB_Main',(#425));
#422=APPLICATION_PROTOCOL_DEFINITION('international standard',
'automotive_design',2009,#423);
#423=APPLICATION_CONTEXT(
'Core Data for Automotive Mechanical Design Process');
#424=PRODUCT_CONTEXT('part definition',#423,'mechanical');
#425=PRODUCT('PCB_Main','PCB_Main',$,(#424));
#426=PRESENTATION_STYLE_ASSIGNMENT((#427));
#427=SURFACE_STYLE_USAGE(.BOTH.,#430);
#428=SURFACE_STYLE_RENDERING_WITH_PROPERTIES($,#434,(#429));
#429=SURFACE_STYLE_TRANSPARENT(0.);
#430=SURFACE_SIDE_STYLE('',(#431,#428));
#431=SURFACE_STYLE_FILL_AREA(#432);
#432=FILL_AREA_STYLE('',(#433));
#433=FILL_AREA_STYLE_COLOUR('',#434);
#434=COLOUR_RGB('',0.188235294117647,0.419607843137255,0.176470588235294);
ENDSEC;
END-ISO-10303-21;
