ISO-10303-21;
HEADER;
/* Generated by software containing ST-Developer
 * from STEP Tools, Inc. (www.steptools.com) 
 */

FILE_DESCRIPTION(
/* description */ (''),
/* implementation_level */ '2;1');

FILE_NAME(
/* name */ 'PCB_interface_allinone.stp',
/* time_stamp */ '2026-10-05T20:37:45+02:00',
/* author */ ('szymo'),
/* organization */ (''),
/* preprocessor_version */ 'ST-DEVELOPER v20.2',
/* originating_system */ 'Autodesk Inventor 2027',
/* authorisation */ '');

FILE_SCHEMA (('AUTOMOTIVE_DESIGN { 1 0 10303 214 3 1 1 }'));
ENDSEC;

DATA;
#10=MECHANICAL_DESIGN_GEOMETRIC_PRESENTATION_REPRESENTATION('',(#13),#1984);
#11=SHAPE_REPRESENTATION_RELATIONSHIP('SRR','None',#1991,#12);
#12=ADVANCED_BREP_SHAPE_REPRESENTATION('',(#14),#1983);
#13=STYLED_ITEM('',(#2000),#14);
#14=MANIFOLD_SOLID_BREP('Solid1',#1155);
#15=FACE_BOUND('',#112,.T.);
#16=FACE_BOUND('',#113,.T.);
#17=FACE_BOUND('',#114,.T.);
#18=FACE_BOUND('',#115,.T.);
#19=FACE_BOUND('',#171,.T.);
#20=FACE_BOUND('',#172,.T.);
#21=FACE_BOUND('',#173,.T.);
#22=FACE_BOUND('',#174,.T.);
#23=PLANE('',#1181);
#24=PLANE('',#1182);
#25=PLANE('',#1214);
#26=PLANE('',#1217);
#27=PLANE('',#1220);
#28=PLANE('',#1223);
#29=PLANE('',#1226);
#30=PLANE('',#1229);
#31=PLANE('',#1232);
#32=PLANE('',#1235);
#33=PLANE('',#1238);
#34=PLANE('',#1241);
#35=PLANE('',#1244);
#36=PLANE('',#1247);
#37=PLANE('',#1250);
#38=PLANE('',#1253);
#39=PLANE('',#1256);
#40=PLANE('',#1259);
#41=PLANE('',#1262);
#42=PLANE('',#1265);
#43=PLANE('',#1268);
#44=PLANE('',#1271);
#45=PLANE('',#1276);
#46=PLANE('',#1281);
#47=PLANE('',#1284);
#48=PLANE('',#1293);
#49=PLANE('',#1294);
#50=PLANE('',#1295);
#51=FACE_OUTER_BOUND('',#109,.T.);
#52=FACE_OUTER_BOUND('',#110,.T.);
#53=FACE_OUTER_BOUND('',#111,.T.);
#54=FACE_OUTER_BOUND('',#116,.T.);
#55=FACE_OUTER_BOUND('',#117,.T.);
#56=FACE_OUTER_BOUND('',#118,.T.);
#57=FACE_OUTER_BOUND('',#119,.T.);
#58=FACE_OUTER_BOUND('',#120,.T.);
#59=FACE_OUTER_BOUND('',#121,.T.);
#60=FACE_OUTER_BOUND('',#122,.T.);
#61=FACE_OUTER_BOUND('',#123,.T.);
#62=FACE_OUTER_BOUND('',#124,.T.);
#63=FACE_OUTER_BOUND('',#125,.T.);
#64=FACE_OUTER_BOUND('',#126,.T.);
#65=FACE_OUTER_BOUND('',#127,.T.);
#66=FACE_OUTER_BOUND('',#128,.T.);
#67=FACE_OUTER_BOUND('',#129,.T.);
#68=FACE_OUTER_BOUND('',#130,.T.);
#69=FACE_OUTER_BOUND('',#131,.T.);
#70=FACE_OUTER_BOUND('',#132,.T.);
#71=FACE_OUTER_BOUND('',#133,.T.);
#72=FACE_OUTER_BOUND('',#134,.T.);
#73=FACE_OUTER_BOUND('',#135,.T.);
#74=FACE_OUTER_BOUND('',#136,.T.);
#75=FACE_OUTER_BOUND('',#137,.T.);
#76=FACE_OUTER_BOUND('',#138,.T.);
#77=FACE_OUTER_BOUND('',#139,.T.);
#78=FACE_OUTER_BOUND('',#140,.T.);
#79=FACE_OUTER_BOUND('',#141,.T.);
#80=FACE_OUTER_BOUND('',#142,.T.);
#81=FACE_OUTER_BOUND('',#143,.T.);
#82=FACE_OUTER_BOUND('',#144,.T.);
#83=FACE_OUTER_BOUND('',#145,.T.);
#84=FACE_OUTER_BOUND('',#146,.T.);
#85=FACE_OUTER_BOUND('',#147,.T.);
#86=FACE_OUTER_BOUND('',#148,.T.);
#87=FACE_OUTER_BOUND('',#149,.T.);
#88=FACE_OUTER_BOUND('',#150,.T.);
#89=FACE_OUTER_BOUND('',#151,.T.);
#90=FACE_OUTER_BOUND('',#152,.T.);
#91=FACE_OUTER_BOUND('',#153,.T.);
#92=FACE_OUTER_BOUND('',#154,.T.);
#93=FACE_OUTER_BOUND('',#155,.T.);
#94=FACE_OUTER_BOUND('',#156,.T.);
#95=FACE_OUTER_BOUND('',#157,.T.);
#96=FACE_OUTER_BOUND('',#158,.T.);
#97=FACE_OUTER_BOUND('',#159,.T.);
#98=FACE_OUTER_BOUND('',#160,.T.);
#99=FACE_OUTER_BOUND('',#161,.T.);
#100=FACE_OUTER_BOUND('',#162,.T.);
#101=FACE_OUTER_BOUND('',#163,.T.);
#102=FACE_OUTER_BOUND('',#164,.T.);
#103=FACE_OUTER_BOUND('',#165,.T.);
#104=FACE_OUTER_BOUND('',#166,.T.);
#105=FACE_OUTER_BOUND('',#167,.T.);
#106=FACE_OUTER_BOUND('',#168,.T.);
#107=FACE_OUTER_BOUND('',#169,.T.);
#108=FACE_OUTER_BOUND('',#170,.T.);
#109=EDGE_LOOP('',(#731,#732,#733,#734));
#110=EDGE_LOOP('',(#735,#736,#737,#738));
#111=EDGE_LOOP('',(#739,#740,#741,#742,#743,#744,#745,#746,#747,#748,#749,
#750,#751,#752,#753,#754,#755,#756,#757,#758,#759,#760,#761,#762,#763,#764,
#765,#766,#767,#768,#769,#770,#771,#772,#773,#774,#775,#776,#777,#778,#779,
#780,#781,#782,#783,#784,#785,#786,#787,#788,#789,#790));
#112=EDGE_LOOP('',(#791));
#113=EDGE_LOOP('',(#792));
#114=EDGE_LOOP('',(#793));
#115=EDGE_LOOP('',(#794));
#116=EDGE_LOOP('',(#795,#796,#797,#798));
#117=EDGE_LOOP('',(#799,#800,#801,#802));
#118=EDGE_LOOP('',(#803,#804,#805,#806));
#119=EDGE_LOOP('',(#807,#808,#809,#810));
#120=EDGE_LOOP('',(#811,#812,#813,#814));
#121=EDGE_LOOP('',(#815,#816,#817,#818));
#122=EDGE_LOOP('',(#819,#820,#821,#822));
#123=EDGE_LOOP('',(#823,#824,#825,#826));
#124=EDGE_LOOP('',(#827,#828,#829,#830));
#125=EDGE_LOOP('',(#831,#832,#833,#834));
#126=EDGE_LOOP('',(#835,#836,#837,#838));
#127=EDGE_LOOP('',(#839,#840,#841,#842));
#128=EDGE_LOOP('',(#843,#844,#845,#846));
#129=EDGE_LOOP('',(#847,#848,#849,#850));
#130=EDGE_LOOP('',(#851,#852,#853,#854));
#131=EDGE_LOOP('',(#855,#856,#857,#858));
#132=EDGE_LOOP('',(#859,#860,#861,#862));
#133=EDGE_LOOP('',(#863,#864,#865,#866));
#134=EDGE_LOOP('',(#867,#868,#869,#870));
#135=EDGE_LOOP('',(#871,#872,#873,#874));
#136=EDGE_LOOP('',(#875,#876,#877,#878));
#137=EDGE_LOOP('',(#879,#880,#881,#882));
#138=EDGE_LOOP('',(#883,#884,#885,#886));
#139=EDGE_LOOP('',(#887,#888,#889,#890));
#140=EDGE_LOOP('',(#891,#892,#893,#894));
#141=EDGE_LOOP('',(#895,#896,#897,#898));
#142=EDGE_LOOP('',(#899,#900,#901,#902));
#143=EDGE_LOOP('',(#903,#904,#905,#906));
#144=EDGE_LOOP('',(#907,#908,#909,#910));
#145=EDGE_LOOP('',(#911,#912,#913,#914));
#146=EDGE_LOOP('',(#915,#916,#917,#918));
#147=EDGE_LOOP('',(#919,#920,#921,#922));
#148=EDGE_LOOP('',(#923,#924,#925,#926));
#149=EDGE_LOOP('',(#927,#928,#929,#930));
#150=EDGE_LOOP('',(#931,#932,#933,#934));
#151=EDGE_LOOP('',(#935,#936,#937,#938));
#152=EDGE_LOOP('',(#939,#940,#941,#942));
#153=EDGE_LOOP('',(#943,#944,#945,#946));
#154=EDGE_LOOP('',(#947,#948,#949,#950));
#155=EDGE_LOOP('',(#951,#952,#953,#954));
#156=EDGE_LOOP('',(#955,#956,#957,#958));
#157=EDGE_LOOP('',(#959,#960,#961,#962));
#158=EDGE_LOOP('',(#963,#964,#965,#966));
#159=EDGE_LOOP('',(#967,#968,#969,#970));
#160=EDGE_LOOP('',(#971,#972,#973,#974));
#161=EDGE_LOOP('',(#975,#976,#977,#978));
#162=EDGE_LOOP('',(#979,#980,#981,#982));
#163=EDGE_LOOP('',(#983,#984,#985,#986));
#164=EDGE_LOOP('',(#987,#988,#989,#990));
#165=EDGE_LOOP('',(#991,#992,#993,#994));
#166=EDGE_LOOP('',(#995,#996,#997,#998));
#167=EDGE_LOOP('',(#999,#1000,#1001,#1002));
#168=EDGE_LOOP('',(#1003,#1004,#1005,#1006));
#169=EDGE_LOOP('',(#1007,#1008,#1009,#1010));
#170=EDGE_LOOP('',(#1011,#1012,#1013,#1014,#1015,#1016,#1017,#1018,#1019,
#1020,#1021,#1022,#1023,#1024,#1025,#1026,#1027,#1028,#1029,#1030,#1031,
#1032,#1033,#1034,#1035,#1036,#1037,#1038,#1039,#1040,#1041,#1042,#1043,
#1044,#1045,#1046,#1047,#1048,#1049,#1050,#1051,#1052,#1053,#1054,#1055,
#1056,#1057,#1058,#1059,#1060,#1061,#1062));
#171=EDGE_LOOP('',(#1063));
#172=EDGE_LOOP('',(#1064));
#173=EDGE_LOOP('',(#1065));
#174=EDGE_LOOP('',(#1066));
#175=LINE('',#1648,#283);
#176=LINE('',#1651,#284);
#177=LINE('',#1654,#285);
#178=LINE('',#1656,#286);
#179=LINE('',#1657,#287);
#180=LINE('',#1660,#288);
#181=LINE('',#1664,#289);
#182=LINE('',#1668,#290);
#183=LINE('',#1672,#291);
#184=LINE('',#1676,#292);
#185=LINE('',#1680,#293);
#186=LINE('',#1684,#294);
#187=LINE('',#1688,#295);
#188=LINE('',#1692,#296);
#189=LINE('',#1696,#297);
#190=LINE('',#1700,#298);
#191=LINE('',#1704,#299);
#192=LINE('',#1708,#300);
#193=LINE('',#1712,#301);
#194=LINE('',#1716,#302);
#195=LINE('',#1720,#303);
#196=LINE('',#1724,#304);
#197=LINE('',#1728,#305);
#198=LINE('',#1732,#306);
#199=LINE('',#1736,#307);
#200=LINE('',#1740,#308);
#201=LINE('',#1744,#309);
#202=LINE('',#1748,#310);
#203=LINE('',#1752,#311);
#204=LINE('',#1756,#312);
#205=LINE('',#1769,#313);
#206=LINE('',#1772,#314);
#207=LINE('',#1773,#315);
#208=LINE('',#1777,#316);
#209=LINE('',#1780,#317);
#210=LINE('',#1781,#318);
#211=LINE('',#1785,#319);
#212=LINE('',#1788,#320);
#213=LINE('',#1789,#321);
#214=LINE('',#1793,#322);
#215=LINE('',#1796,#323);
#216=LINE('',#1797,#324);
#217=LINE('',#1800,#325);
#218=LINE('',#1804,#326);
#219=LINE('',#1805,#327);
#220=LINE('',#1808,#328);
#221=LINE('',#1812,#329);
#222=LINE('',#1813,#330);
#223=LINE('',#1817,#331);
#224=LINE('',#1820,#332);
#225=LINE('',#1821,#333);
#226=LINE('',#1825,#334);
#227=LINE('',#1828,#335);
#228=LINE('',#1829,#336);
#229=LINE('',#1832,#337);
#230=LINE('',#1836,#338);
#231=LINE('',#1837,#339);
#232=LINE('',#1840,#340);
#233=LINE('',#1844,#341);
#234=LINE('',#1845,#342);
#235=LINE('',#1849,#343);
#236=LINE('',#1852,#344);
#237=LINE('',#1853,#345);
#238=LINE('',#1856,#346);
#239=LINE('',#1860,#347);
#240=LINE('',#1861,#348);
#241=LINE('',#1864,#349);
#242=LINE('',#1868,#350);
#243=LINE('',#1869,#351);
#244=LINE('',#1873,#352);
#245=LINE('',#1876,#353);
#246=LINE('',#1877,#354);
#247=LINE('',#1881,#355);
#248=LINE('',#1884,#356);
#249=LINE('',#1885,#357);
#250=LINE('',#1889,#358);
#251=LINE('',#1892,#359);
#252=LINE('',#1893,#360);
#253=LINE('',#1897,#361);
#254=LINE('',#1900,#362);
#255=LINE('',#1901,#363);
#256=LINE('',#1904,#364);
#257=LINE('',#1908,#365);
#258=LINE('',#1909,#366);
#259=LINE('',#1912,#367);
#260=LINE('',#1915,#368);
#261=LINE('',#1918,#369);
#262=LINE('',#1919,#370);
#263=LINE('',#1924,#371);
#264=LINE('',#1925,#372);
#265=LINE('',#1928,#373);
#266=LINE('',#1929,#374);
#267=LINE('',#1934,#375);
#268=LINE('',#1938,#376);
#269=LINE('',#1939,#377);
#270=LINE('',#1943,#378);
#271=LINE('',#1946,#379);
#272=LINE('',#1949,#380);
#273=LINE('',#1952,#381);
#274=LINE('',#1953,#382);
#275=LINE('',#1956,#383);
#276=LINE('',#1959,#384);
#277=LINE('',#1963,#385);
#278=LINE('',#1967,#386);
#279=LINE('',#1971,#387);
#280=LINE('',#1975,#388);
#281=LINE('',#1977,#389);
#282=LINE('',#1979,#390);
#283=VECTOR('',#1302,10.);
#284=VECTOR('',#1305,10.);
#285=VECTOR('',#1308,10.);
#286=VECTOR('',#1309,10.);
#287=VECTOR('',#1310,10.);
#288=VECTOR('',#1313,10.);
#289=VECTOR('',#1316,10.);
#290=VECTOR('',#1319,10.);
#291=VECTOR('',#1322,10.);
#292=VECTOR('',#1325,10.);
#293=VECTOR('',#1328,10.);
#294=VECTOR('',#1331,10.);
#295=VECTOR('',#1334,10.);
#296=VECTOR('',#1337,10.);
#297=VECTOR('',#1340,10.);
#298=VECTOR('',#1343,10.);
#299=VECTOR('',#1346,10.);
#300=VECTOR('',#1349,10.);
#301=VECTOR('',#1352,10.);
#302=VECTOR('',#1355,10.);
#303=VECTOR('',#1358,10.);
#304=VECTOR('',#1361,10.);
#305=VECTOR('',#1364,10.);
#306=VECTOR('',#1367,10.);
#307=VECTOR('',#1370,10.);
#308=VECTOR('',#1373,10.);
#309=VECTOR('',#1376,10.);
#310=VECTOR('',#1379,10.);
#311=VECTOR('',#1382,10.);
#312=VECTOR('',#1385,10.);
#313=VECTOR('',#1400,10.);
#314=VECTOR('',#1403,10.);
#315=VECTOR('',#1404,10.);
#316=VECTOR('',#1409,10.);
#317=VECTOR('',#1412,10.);
#318=VECTOR('',#1413,10.);
#319=VECTOR('',#1418,10.);
#320=VECTOR('',#1421,10.);
#321=VECTOR('',#1422,10.);
#322=VECTOR('',#1427,10.);
#323=VECTOR('',#1430,10.);
#324=VECTOR('',#1431,10.);
#325=VECTOR('',#1434,10.);
#326=VECTOR('',#1439,10.);
#327=VECTOR('',#1440,10.);
#328=VECTOR('',#1443,10.);
#329=VECTOR('',#1448,10.);
#330=VECTOR('',#1449,10.);
#331=VECTOR('',#1454,10.);
#332=VECTOR('',#1457,10.);
#333=VECTOR('',#1458,10.);
#334=VECTOR('',#1463,10.);
#335=VECTOR('',#1466,10.);
#336=VECTOR('',#1467,10.);
#337=VECTOR('',#1470,10.);
#338=VECTOR('',#1475,10.);
#339=VECTOR('',#1476,10.);
#340=VECTOR('',#1479,10.);
#341=VECTOR('',#1484,10.);
#342=VECTOR('',#1485,10.);
#343=VECTOR('',#1490,10.);
#344=VECTOR('',#1493,10.);
#345=VECTOR('',#1494,10.);
#346=VECTOR('',#1497,10.);
#347=VECTOR('',#1502,10.);
#348=VECTOR('',#1503,10.);
#349=VECTOR('',#1506,10.);
#350=VECTOR('',#1511,10.);
#351=VECTOR('',#1512,10.);
#352=VECTOR('',#1517,10.);
#353=VECTOR('',#1520,10.);
#354=VECTOR('',#1521,10.);
#355=VECTOR('',#1526,10.);
#356=VECTOR('',#1529,10.);
#357=VECTOR('',#1530,10.);
#358=VECTOR('',#1535,10.);
#359=VECTOR('',#1538,10.);
#360=VECTOR('',#1539,10.);
#361=VECTOR('',#1544,10.);
#362=VECTOR('',#1547,10.);
#363=VECTOR('',#1548,10.);
#364=VECTOR('',#1551,10.);
#365=VECTOR('',#1556,10.);
#366=VECTOR('',#1557,10.);
#367=VECTOR('',#1560,10.);
#368=VECTOR('',#1563,10.);
#369=VECTOR('',#1566,10.);
#370=VECTOR('',#1567,10.);
#371=VECTOR('',#1572,10.);
#372=VECTOR('',#1573,10.);
#373=VECTOR('',#1576,10.);
#374=VECTOR('',#1577,10.);
#375=VECTOR('',#1584,10.);
#376=VECTOR('',#1589,10.);
#377=VECTOR('',#1590,10.);
#378=VECTOR('',#1595,10.);
#379=VECTOR('',#1598,10.);
#380=VECTOR('',#1601,10.);
#381=VECTOR('',#1604,10.);
#382=VECTOR('',#1605,10.);
#383=VECTOR('',#1608,10.);
#384=VECTOR('',#1613,10.);
#385=VECTOR('',#1618,1.00650000000003);
#386=VECTOR('',#1623,1.00650000000003);
#387=VECTOR('',#1628,1.00650000000001);
#388=VECTOR('',#1633,1.00650000000001);
#389=VECTOR('',#1636,10.);
#390=VECTOR('',#1639,10.);
#391=CIRCLE('',#1179,1.);
#392=CIRCLE('',#1180,1.);
#393=CIRCLE('',#1183,1.);
#394=CIRCLE('',#1184,1.);
#395=CIRCLE('',#1185,1.);
#396=CIRCLE('',#1186,1.);
#397=CIRCLE('',#1187,1.);
#398=CIRCLE('',#1188,1.);
#399=CIRCLE('',#1189,1.);
#400=CIRCLE('',#1190,1.);
#401=CIRCLE('',#1191,1.);
#402=CIRCLE('',#1192,1.);
#403=CIRCLE('',#1193,1.);
#404=CIRCLE('',#1194,1.);
#405=CIRCLE('',#1195,1.);
#406=CIRCLE('',#1196,1.);
#407=CIRCLE('',#1197,1.);
#408=CIRCLE('',#1198,1.);
#409=CIRCLE('',#1199,1.);
#410=CIRCLE('',#1200,1.);
#411=CIRCLE('',#1201,1.);
#412=CIRCLE('',#1202,1.);
#413=CIRCLE('',#1203,1.);
#414=CIRCLE('',#1204,1.);
#415=CIRCLE('',#1205,1.);
#416=CIRCLE('',#1206,1.);
#417=CIRCLE('',#1207,1.);
#418=CIRCLE('',#1208,1.00650000000003);
#419=CIRCLE('',#1209,1.00650000000003);
#420=CIRCLE('',#1210,1.00650000000001);
#421=CIRCLE('',#1211,1.00650000000001);
#422=CIRCLE('',#1213,1.);
#423=CIRCLE('',#1216,1.);
#424=CIRCLE('',#1219,1.);
#425=CIRCLE('',#1222,1.);
#426=CIRCLE('',#1225,1.);
#427=CIRCLE('',#1228,1.);
#428=CIRCLE('',#1231,1.);
#429=CIRCLE('',#1234,1.);
#430=CIRCLE('',#1237,1.);
#431=CIRCLE('',#1240,1.);
#432=CIRCLE('',#1243,1.);
#433=CIRCLE('',#1246,1.);
#434=CIRCLE('',#1249,1.);
#435=CIRCLE('',#1252,1.);
#436=CIRCLE('',#1255,1.);
#437=CIRCLE('',#1258,1.);
#438=CIRCLE('',#1261,1.);
#439=CIRCLE('',#1264,1.);
#440=CIRCLE('',#1267,1.);
#441=CIRCLE('',#1270,1.);
#442=CIRCLE('',#1273,1.);
#443=CIRCLE('',#1275,1.);
#444=CIRCLE('',#1278,1.);
#445=CIRCLE('',#1280,1.);
#446=CIRCLE('',#1283,1.);
#447=CIRCLE('',#1286,1.00650000000003);
#448=CIRCLE('',#1288,1.00650000000003);
#449=CIRCLE('',#1290,1.00650000000001);
#450=CIRCLE('',#1292,1.00650000000001);
#451=VERTEX_POINT('',#1644);
#452=VERTEX_POINT('',#1645);
#453=VERTEX_POINT('',#1647);
#454=VERTEX_POINT('',#1649);
#455=VERTEX_POINT('',#1653);
#456=VERTEX_POINT('',#1655);
#457=VERTEX_POINT('',#1659);
#458=VERTEX_POINT('',#1661);
#459=VERTEX_POINT('',#1663);
#460=VERTEX_POINT('',#1665);
#461=VERTEX_POINT('',#1667);
#462=VERTEX_POINT('',#1669);
#463=VERTEX_POINT('',#1671);
#464=VERTEX_POINT('',#1673);
#465=VERTEX_POINT('',#1675);
#466=VERTEX_POINT('',#1677);
#467=VERTEX_POINT('',#1679);
#468=VERTEX_POINT('',#1681);
#469=VERTEX_POINT('',#1683);
#470=VERTEX_POINT('',#1685);
#471=VERTEX_POINT('',#1687);
#472=VERTEX_POINT('',#1689);
#473=VERTEX_POINT('',#1691);
#474=VERTEX_POINT('',#1693);
#475=VERTEX_POINT('',#1695);
#476=VERTEX_POINT('',#1697);
#477=VERTEX_POINT('',#1699);
#478=VERTEX_POINT('',#1701);
#479=VERTEX_POINT('',#1703);
#480=VERTEX_POINT('',#1705);
#481=VERTEX_POINT('',#1707);
#482=VERTEX_POINT('',#1709);
#483=VERTEX_POINT('',#1711);
#484=VERTEX_POINT('',#1713);
#485=VERTEX_POINT('',#1715);
#486=VERTEX_POINT('',#1717);
#487=VERTEX_POINT('',#1719);
#488=VERTEX_POINT('',#1721);
#489=VERTEX_POINT('',#1723);
#490=VERTEX_POINT('',#1725);
#491=VERTEX_POINT('',#1727);
#492=VERTEX_POINT('',#1729);
#493=VERTEX_POINT('',#1731);
#494=VERTEX_POINT('',#1733);
#495=VERTEX_POINT('',#1735);
#496=VERTEX_POINT('',#1737);
#497=VERTEX_POINT('',#1739);
#498=VERTEX_POINT('',#1741);
#499=VERTEX_POINT('',#1743);
#500=VERTEX_POINT('',#1745);
#501=VERTEX_POINT('',#1747);
#502=VERTEX_POINT('',#1749);
#503=VERTEX_POINT('',#1751);
#504=VERTEX_POINT('',#1753);
#505=VERTEX_POINT('',#1755);
#506=VERTEX_POINT('',#1758);
#507=VERTEX_POINT('',#1760);
#508=VERTEX_POINT('',#1762);
#509=VERTEX_POINT('',#1764);
#510=VERTEX_POINT('',#1767);
#511=VERTEX_POINT('',#1771);
#512=VERTEX_POINT('',#1775);
#513=VERTEX_POINT('',#1779);
#514=VERTEX_POINT('',#1783);
#515=VERTEX_POINT('',#1787);
#516=VERTEX_POINT('',#1791);
#517=VERTEX_POINT('',#1795);
#518=VERTEX_POINT('',#1799);
#519=VERTEX_POINT('',#1803);
#520=VERTEX_POINT('',#1807);
#521=VERTEX_POINT('',#1811);
#522=VERTEX_POINT('',#1815);
#523=VERTEX_POINT('',#1819);
#524=VERTEX_POINT('',#1823);
#525=VERTEX_POINT('',#1827);
#526=VERTEX_POINT('',#1831);
#527=VERTEX_POINT('',#1835);
#528=VERTEX_POINT('',#1839);
#529=VERTEX_POINT('',#1843);
#530=VERTEX_POINT('',#1847);
#531=VERTEX_POINT('',#1851);
#532=VERTEX_POINT('',#1855);
#533=VERTEX_POINT('',#1859);
#534=VERTEX_POINT('',#1863);
#535=VERTEX_POINT('',#1867);
#536=VERTEX_POINT('',#1871);
#537=VERTEX_POINT('',#1875);
#538=VERTEX_POINT('',#1879);
#539=VERTEX_POINT('',#1883);
#540=VERTEX_POINT('',#1887);
#541=VERTEX_POINT('',#1891);
#542=VERTEX_POINT('',#1895);
#543=VERTEX_POINT('',#1899);
#544=VERTEX_POINT('',#1903);
#545=VERTEX_POINT('',#1907);
#546=VERTEX_POINT('',#1911);
#547=VERTEX_POINT('',#1913);
#548=VERTEX_POINT('',#1917);
#549=VERTEX_POINT('',#1921);
#550=VERTEX_POINT('',#1922);
#551=VERTEX_POINT('',#1927);
#552=VERTEX_POINT('',#1933);
#553=VERTEX_POINT('',#1937);
#554=VERTEX_POINT('',#1941);
#555=VERTEX_POINT('',#1945);
#556=VERTEX_POINT('',#1947);
#557=VERTEX_POINT('',#1951);
#558=VERTEX_POINT('',#1955);
#559=VERTEX_POINT('',#1961);
#560=VERTEX_POINT('',#1965);
#561=VERTEX_POINT('',#1969);
#562=VERTEX_POINT('',#1973);
#563=EDGE_CURVE('',#451,#452,#391,.T.);
#564=EDGE_CURVE('',#452,#453,#175,.T.);
#565=EDGE_CURVE('',#453,#454,#392,.T.);
#566=EDGE_CURVE('',#454,#451,#176,.T.);
#567=EDGE_CURVE('',#454,#455,#177,.T.);
#568=EDGE_CURVE('',#456,#455,#178,.T.);
#569=EDGE_CURVE('',#451,#456,#179,.T.);
#570=EDGE_CURVE('',#457,#453,#180,.T.);
#571=EDGE_CURVE('',#458,#457,#393,.T.);
#572=EDGE_CURVE('',#459,#458,#181,.T.);
#573=EDGE_CURVE('',#460,#459,#394,.T.);
#574=EDGE_CURVE('',#461,#460,#182,.T.);
#575=EDGE_CURVE('',#462,#461,#395,.T.);
#576=EDGE_CURVE('',#463,#462,#183,.T.);
#577=EDGE_CURVE('',#464,#463,#396,.T.);
#578=EDGE_CURVE('',#465,#464,#184,.T.);
#579=EDGE_CURVE('',#466,#465,#397,.T.);
#580=EDGE_CURVE('',#467,#466,#185,.T.);
#581=EDGE_CURVE('',#468,#467,#398,.T.);
#582=EDGE_CURVE('',#469,#468,#186,.T.);
#583=EDGE_CURVE('',#470,#469,#399,.T.);
#584=EDGE_CURVE('',#471,#470,#187,.T.);
#585=EDGE_CURVE('',#472,#471,#400,.T.);
#586=EDGE_CURVE('',#473,#472,#188,.T.);
#587=EDGE_CURVE('',#474,#473,#401,.T.);
#588=EDGE_CURVE('',#475,#474,#189,.T.);
#589=EDGE_CURVE('',#476,#475,#402,.T.);
#590=EDGE_CURVE('',#477,#476,#190,.T.);
#591=EDGE_CURVE('',#478,#477,#403,.T.);
#592=EDGE_CURVE('',#479,#478,#191,.T.);
#593=EDGE_CURVE('',#480,#479,#404,.T.);
#594=EDGE_CURVE('',#481,#480,#192,.T.);
#595=EDGE_CURVE('',#482,#481,#405,.T.);
#596=EDGE_CURVE('',#483,#482,#193,.T.);
#597=EDGE_CURVE('',#484,#483,#406,.T.);
#598=EDGE_CURVE('',#485,#484,#194,.T.);
#599=EDGE_CURVE('',#486,#485,#407,.T.);
#600=EDGE_CURVE('',#487,#486,#195,.T.);
#601=EDGE_CURVE('',#488,#487,#408,.T.);
#602=EDGE_CURVE('',#489,#488,#196,.T.);
#603=EDGE_CURVE('',#490,#489,#409,.T.);
#604=EDGE_CURVE('',#491,#490,#197,.T.);
#605=EDGE_CURVE('',#492,#491,#410,.T.);
#606=EDGE_CURVE('',#493,#492,#198,.T.);
#607=EDGE_CURVE('',#494,#493,#411,.T.);
#608=EDGE_CURVE('',#495,#494,#199,.T.);
#609=EDGE_CURVE('',#496,#495,#412,.T.);
#610=EDGE_CURVE('',#497,#496,#200,.T.);
#611=EDGE_CURVE('',#498,#497,#413,.T.);
#612=EDGE_CURVE('',#499,#498,#201,.T.);
#613=EDGE_CURVE('',#500,#499,#414,.T.);
#614=EDGE_CURVE('',#501,#500,#202,.T.);
#615=EDGE_CURVE('',#502,#501,#415,.T.);
#616=EDGE_CURVE('',#503,#502,#203,.T.);
#617=EDGE_CURVE('',#504,#503,#416,.T.);
#618=EDGE_CURVE('',#505,#504,#204,.T.);
#619=EDGE_CURVE('',#455,#505,#417,.T.);
#620=EDGE_CURVE('',#506,#506,#418,.T.);
#621=EDGE_CURVE('',#507,#507,#419,.T.);
#622=EDGE_CURVE('',#508,#508,#420,.T.);
#623=EDGE_CURVE('',#509,#509,#421,.T.);
#624=EDGE_CURVE('',#510,#456,#422,.T.);
#625=EDGE_CURVE('',#505,#510,#205,.T.);
#626=EDGE_CURVE('',#511,#504,#206,.T.);
#627=EDGE_CURVE('',#510,#511,#207,.T.);
#628=EDGE_CURVE('',#512,#511,#423,.T.);
#629=EDGE_CURVE('',#503,#512,#208,.T.);
#630=EDGE_CURVE('',#513,#502,#209,.T.);
#631=EDGE_CURVE('',#512,#513,#210,.T.);
#632=EDGE_CURVE('',#514,#513,#424,.T.);
#633=EDGE_CURVE('',#501,#514,#211,.T.);
#634=EDGE_CURVE('',#515,#500,#212,.T.);
#635=EDGE_CURVE('',#514,#515,#213,.T.);
#636=EDGE_CURVE('',#516,#515,#425,.T.);
#637=EDGE_CURVE('',#499,#516,#214,.T.);
#638=EDGE_CURVE('',#517,#498,#215,.T.);
#639=EDGE_CURVE('',#516,#517,#216,.T.);
#640=EDGE_CURVE('',#497,#518,#217,.T.);
#641=EDGE_CURVE('',#518,#517,#426,.T.);
#642=EDGE_CURVE('',#519,#496,#218,.T.);
#643=EDGE_CURVE('',#518,#519,#219,.T.);
#644=EDGE_CURVE('',#495,#520,#220,.T.);
#645=EDGE_CURVE('',#520,#519,#427,.T.);
#646=EDGE_CURVE('',#521,#494,#221,.T.);
#647=EDGE_CURVE('',#520,#521,#222,.T.);
#648=EDGE_CURVE('',#522,#521,#428,.T.);
#649=EDGE_CURVE('',#493,#522,#223,.T.);
#650=EDGE_CURVE('',#523,#492,#224,.T.);
#651=EDGE_CURVE('',#522,#523,#225,.T.);
#652=EDGE_CURVE('',#524,#523,#429,.T.);
#653=EDGE_CURVE('',#491,#524,#226,.T.);
#654=EDGE_CURVE('',#525,#490,#227,.T.);
#655=EDGE_CURVE('',#524,#525,#228,.T.);
#656=EDGE_CURVE('',#489,#526,#229,.T.);
#657=EDGE_CURVE('',#526,#525,#430,.T.);
#658=EDGE_CURVE('',#527,#488,#230,.T.);
#659=EDGE_CURVE('',#526,#527,#231,.T.);
#660=EDGE_CURVE('',#487,#528,#232,.T.);
#661=EDGE_CURVE('',#528,#527,#431,.T.);
#662=EDGE_CURVE('',#529,#486,#233,.T.);
#663=EDGE_CURVE('',#528,#529,#234,.T.);
#664=EDGE_CURVE('',#530,#529,#432,.T.);
#665=EDGE_CURVE('',#485,#530,#235,.T.);
#666=EDGE_CURVE('',#531,#484,#236,.T.);
#667=EDGE_CURVE('',#530,#531,#237,.T.);
#668=EDGE_CURVE('',#483,#532,#238,.T.);
#669=EDGE_CURVE('',#532,#531,#433,.T.);
#670=EDGE_CURVE('',#533,#482,#239,.T.);
#671=EDGE_CURVE('',#532,#533,#240,.T.);
#672=EDGE_CURVE('',#481,#534,#241,.T.);
#673=EDGE_CURVE('',#534,#533,#434,.T.);
#674=EDGE_CURVE('',#535,#480,#242,.T.);
#675=EDGE_CURVE('',#534,#535,#243,.T.);
#676=EDGE_CURVE('',#536,#535,#435,.T.);
#677=EDGE_CURVE('',#479,#536,#244,.T.);
#678=EDGE_CURVE('',#537,#478,#245,.T.);
#679=EDGE_CURVE('',#536,#537,#246,.T.);
#680=EDGE_CURVE('',#538,#537,#436,.T.);
#681=EDGE_CURVE('',#477,#538,#247,.T.);
#682=EDGE_CURVE('',#539,#476,#248,.T.);
#683=EDGE_CURVE('',#538,#539,#249,.T.);
#684=EDGE_CURVE('',#540,#539,#437,.T.);
#685=EDGE_CURVE('',#475,#540,#250,.T.);
#686=EDGE_CURVE('',#541,#474,#251,.T.);
#687=EDGE_CURVE('',#540,#541,#252,.T.);
#688=EDGE_CURVE('',#542,#541,#438,.T.);
#689=EDGE_CURVE('',#473,#542,#253,.T.);
#690=EDGE_CURVE('',#543,#472,#254,.T.);
#691=EDGE_CURVE('',#542,#543,#255,.T.);
#692=EDGE_CURVE('',#471,#544,#256,.T.);
#693=EDGE_CURVE('',#544,#543,#439,.T.);
#694=EDGE_CURVE('',#545,#470,#257,.T.);
#695=EDGE_CURVE('',#544,#545,#258,.T.);
#696=EDGE_CURVE('',#465,#546,#259,.T.);
#697=EDGE_CURVE('',#546,#547,#440,.T.);
#698=EDGE_CURVE('',#547,#466,#260,.T.);
#699=EDGE_CURVE('',#548,#464,#261,.T.);
#700=EDGE_CURVE('',#546,#548,#262,.T.);
#701=EDGE_CURVE('',#549,#550,#441,.T.);
#702=EDGE_CURVE('',#550,#468,#263,.T.);
#703=EDGE_CURVE('',#467,#549,#264,.T.);
#704=EDGE_CURVE('',#551,#550,#265,.T.);
#705=EDGE_CURVE('',#469,#551,#266,.T.);
#706=EDGE_CURVE('',#551,#545,#442,.T.);
#707=EDGE_CURVE('',#463,#552,#267,.T.);
#708=EDGE_CURVE('',#552,#548,#443,.T.);
#709=EDGE_CURVE('',#553,#462,#268,.T.);
#710=EDGE_CURVE('',#552,#553,#269,.T.);
#711=EDGE_CURVE('',#554,#553,#444,.T.);
#712=EDGE_CURVE('',#461,#554,#270,.T.);
#713=EDGE_CURVE('',#459,#555,#271,.T.);
#714=EDGE_CURVE('',#555,#556,#445,.T.);
#715=EDGE_CURVE('',#556,#460,#272,.T.);
#716=EDGE_CURVE('',#557,#458,#273,.T.);
#717=EDGE_CURVE('',#555,#557,#274,.T.);
#718=EDGE_CURVE('',#457,#558,#275,.T.);
#719=EDGE_CURVE('',#558,#557,#446,.T.);
#720=EDGE_CURVE('',#558,#452,#276,.T.);
#721=EDGE_CURVE('',#559,#559,#447,.T.);
#722=EDGE_CURVE('',#559,#506,#277,.T.);
#723=EDGE_CURVE('',#560,#560,#448,.T.);
#724=EDGE_CURVE('',#560,#507,#278,.T.);
#725=EDGE_CURVE('',#561,#561,#449,.T.);
#726=EDGE_CURVE('',#561,#508,#279,.T.);
#727=EDGE_CURVE('',#562,#562,#450,.T.);
#728=EDGE_CURVE('',#562,#509,#280,.T.);
#729=EDGE_CURVE('',#554,#556,#281,.T.);
#730=EDGE_CURVE('',#549,#547,#282,.T.);
#731=ORIENTED_EDGE('',*,*,#563,.T.);
#732=ORIENTED_EDGE('',*,*,#564,.T.);
#733=ORIENTED_EDGE('',*,*,#565,.T.);
#734=ORIENTED_EDGE('',*,*,#566,.T.);
#735=ORIENTED_EDGE('',*,*,#566,.F.);
#736=ORIENTED_EDGE('',*,*,#567,.T.);
#737=ORIENTED_EDGE('',*,*,#568,.F.);
#738=ORIENTED_EDGE('',*,*,#569,.F.);
#739=ORIENTED_EDGE('',*,*,#565,.F.);
#740=ORIENTED_EDGE('',*,*,#570,.F.);
#741=ORIENTED_EDGE('',*,*,#571,.F.);
#742=ORIENTED_EDGE('',*,*,#572,.F.);
#743=ORIENTED_EDGE('',*,*,#573,.F.);
#744=ORIENTED_EDGE('',*,*,#574,.F.);
#745=ORIENTED_EDGE('',*,*,#575,.F.);
#746=ORIENTED_EDGE('',*,*,#576,.F.);
#747=ORIENTED_EDGE('',*,*,#577,.F.);
#748=ORIENTED_EDGE('',*,*,#578,.F.);
#749=ORIENTED_EDGE('',*,*,#579,.F.);
#750=ORIENTED_EDGE('',*,*,#580,.F.);
#751=ORIENTED_EDGE('',*,*,#581,.F.);
#752=ORIENTED_EDGE('',*,*,#582,.F.);
#753=ORIENTED_EDGE('',*,*,#583,.F.);
#754=ORIENTED_EDGE('',*,*,#584,.F.);
#755=ORIENTED_EDGE('',*,*,#585,.F.);
#756=ORIENTED_EDGE('',*,*,#586,.F.);
#757=ORIENTED_EDGE('',*,*,#587,.F.);
#758=ORIENTED_EDGE('',*,*,#588,.F.);
#759=ORIENTED_EDGE('',*,*,#589,.F.);
#760=ORIENTED_EDGE('',*,*,#590,.F.);
#761=ORIENTED_EDGE('',*,*,#591,.F.);
#762=ORIENTED_EDGE('',*,*,#592,.F.);
#763=ORIENTED_EDGE('',*,*,#593,.F.);
#764=ORIENTED_EDGE('',*,*,#594,.F.);
#765=ORIENTED_EDGE('',*,*,#595,.F.);
#766=ORIENTED_EDGE('',*,*,#596,.F.);
#767=ORIENTED_EDGE('',*,*,#597,.F.);
#768=ORIENTED_EDGE('',*,*,#598,.F.);
#769=ORIENTED_EDGE('',*,*,#599,.F.);
#770=ORIENTED_EDGE('',*,*,#600,.F.);
#771=ORIENTED_EDGE('',*,*,#601,.F.);
#772=ORIENTED_EDGE('',*,*,#602,.F.);
#773=ORIENTED_EDGE('',*,*,#603,.F.);
#774=ORIENTED_EDGE('',*,*,#604,.F.);
#775=ORIENTED_EDGE('',*,*,#605,.F.);
#776=ORIENTED_EDGE('',*,*,#606,.F.);
#777=ORIENTED_EDGE('',*,*,#607,.F.);
#778=ORIENTED_EDGE('',*,*,#608,.F.);
#779=ORIENTED_EDGE('',*,*,#609,.F.);
#780=ORIENTED_EDGE('',*,*,#610,.F.);
#781=ORIENTED_EDGE('',*,*,#611,.F.);
#782=ORIENTED_EDGE('',*,*,#612,.F.);
#783=ORIENTED_EDGE('',*,*,#613,.F.);
#784=ORIENTED_EDGE('',*,*,#614,.F.);
#785=ORIENTED_EDGE('',*,*,#615,.F.);
#786=ORIENTED_EDGE('',*,*,#616,.F.);
#787=ORIENTED_EDGE('',*,*,#617,.F.);
#788=ORIENTED_EDGE('',*,*,#618,.F.);
#789=ORIENTED_EDGE('',*,*,#619,.F.);
#790=ORIENTED_EDGE('',*,*,#567,.F.);
#791=ORIENTED_EDGE('',*,*,#620,.F.);
#792=ORIENTED_EDGE('',*,*,#621,.F.);
#793=ORIENTED_EDGE('',*,*,#622,.F.);
#794=ORIENTED_EDGE('',*,*,#623,.F.);
#795=ORIENTED_EDGE('',*,*,#624,.T.);
#796=ORIENTED_EDGE('',*,*,#568,.T.);
#797=ORIENTED_EDGE('',*,*,#619,.T.);
#798=ORIENTED_EDGE('',*,*,#625,.T.);
#799=ORIENTED_EDGE('',*,*,#625,.F.);
#800=ORIENTED_EDGE('',*,*,#618,.T.);
#801=ORIENTED_EDGE('',*,*,#626,.F.);
#802=ORIENTED_EDGE('',*,*,#627,.F.);
#803=ORIENTED_EDGE('',*,*,#628,.T.);
#804=ORIENTED_EDGE('',*,*,#626,.T.);
#805=ORIENTED_EDGE('',*,*,#617,.T.);
#806=ORIENTED_EDGE('',*,*,#629,.T.);
#807=ORIENTED_EDGE('',*,*,#629,.F.);
#808=ORIENTED_EDGE('',*,*,#616,.T.);
#809=ORIENTED_EDGE('',*,*,#630,.F.);
#810=ORIENTED_EDGE('',*,*,#631,.F.);
#811=ORIENTED_EDGE('',*,*,#632,.T.);
#812=ORIENTED_EDGE('',*,*,#630,.T.);
#813=ORIENTED_EDGE('',*,*,#615,.T.);
#814=ORIENTED_EDGE('',*,*,#633,.T.);
#815=ORIENTED_EDGE('',*,*,#633,.F.);
#816=ORIENTED_EDGE('',*,*,#614,.T.);
#817=ORIENTED_EDGE('',*,*,#634,.F.);
#818=ORIENTED_EDGE('',*,*,#635,.F.);
#819=ORIENTED_EDGE('',*,*,#636,.T.);
#820=ORIENTED_EDGE('',*,*,#634,.T.);
#821=ORIENTED_EDGE('',*,*,#613,.T.);
#822=ORIENTED_EDGE('',*,*,#637,.T.);
#823=ORIENTED_EDGE('',*,*,#637,.F.);
#824=ORIENTED_EDGE('',*,*,#612,.T.);
#825=ORIENTED_EDGE('',*,*,#638,.F.);
#826=ORIENTED_EDGE('',*,*,#639,.F.);
#827=ORIENTED_EDGE('',*,*,#611,.T.);
#828=ORIENTED_EDGE('',*,*,#640,.T.);
#829=ORIENTED_EDGE('',*,*,#641,.T.);
#830=ORIENTED_EDGE('',*,*,#638,.T.);
#831=ORIENTED_EDGE('',*,*,#640,.F.);
#832=ORIENTED_EDGE('',*,*,#610,.T.);
#833=ORIENTED_EDGE('',*,*,#642,.F.);
#834=ORIENTED_EDGE('',*,*,#643,.F.);
#835=ORIENTED_EDGE('',*,*,#609,.T.);
#836=ORIENTED_EDGE('',*,*,#644,.T.);
#837=ORIENTED_EDGE('',*,*,#645,.T.);
#838=ORIENTED_EDGE('',*,*,#642,.T.);
#839=ORIENTED_EDGE('',*,*,#644,.F.);
#840=ORIENTED_EDGE('',*,*,#608,.T.);
#841=ORIENTED_EDGE('',*,*,#646,.F.);
#842=ORIENTED_EDGE('',*,*,#647,.F.);
#843=ORIENTED_EDGE('',*,*,#648,.T.);
#844=ORIENTED_EDGE('',*,*,#646,.T.);
#845=ORIENTED_EDGE('',*,*,#607,.T.);
#846=ORIENTED_EDGE('',*,*,#649,.T.);
#847=ORIENTED_EDGE('',*,*,#649,.F.);
#848=ORIENTED_EDGE('',*,*,#606,.T.);
#849=ORIENTED_EDGE('',*,*,#650,.F.);
#850=ORIENTED_EDGE('',*,*,#651,.F.);
#851=ORIENTED_EDGE('',*,*,#652,.T.);
#852=ORIENTED_EDGE('',*,*,#650,.T.);
#853=ORIENTED_EDGE('',*,*,#605,.T.);
#854=ORIENTED_EDGE('',*,*,#653,.T.);
#855=ORIENTED_EDGE('',*,*,#653,.F.);
#856=ORIENTED_EDGE('',*,*,#604,.T.);
#857=ORIENTED_EDGE('',*,*,#654,.F.);
#858=ORIENTED_EDGE('',*,*,#655,.F.);
#859=ORIENTED_EDGE('',*,*,#603,.T.);
#860=ORIENTED_EDGE('',*,*,#656,.T.);
#861=ORIENTED_EDGE('',*,*,#657,.T.);
#862=ORIENTED_EDGE('',*,*,#654,.T.);
#863=ORIENTED_EDGE('',*,*,#656,.F.);
#864=ORIENTED_EDGE('',*,*,#602,.T.);
#865=ORIENTED_EDGE('',*,*,#658,.F.);
#866=ORIENTED_EDGE('',*,*,#659,.F.);
#867=ORIENTED_EDGE('',*,*,#601,.T.);
#868=ORIENTED_EDGE('',*,*,#660,.T.);
#869=ORIENTED_EDGE('',*,*,#661,.T.);
#870=ORIENTED_EDGE('',*,*,#658,.T.);
#871=ORIENTED_EDGE('',*,*,#660,.F.);
#872=ORIENTED_EDGE('',*,*,#600,.T.);
#873=ORIENTED_EDGE('',*,*,#662,.F.);
#874=ORIENTED_EDGE('',*,*,#663,.F.);
#875=ORIENTED_EDGE('',*,*,#664,.T.);
#876=ORIENTED_EDGE('',*,*,#662,.T.);
#877=ORIENTED_EDGE('',*,*,#599,.T.);
#878=ORIENTED_EDGE('',*,*,#665,.T.);
#879=ORIENTED_EDGE('',*,*,#665,.F.);
#880=ORIENTED_EDGE('',*,*,#598,.T.);
#881=ORIENTED_EDGE('',*,*,#666,.F.);
#882=ORIENTED_EDGE('',*,*,#667,.F.);
#883=ORIENTED_EDGE('',*,*,#597,.T.);
#884=ORIENTED_EDGE('',*,*,#668,.T.);
#885=ORIENTED_EDGE('',*,*,#669,.T.);
#886=ORIENTED_EDGE('',*,*,#666,.T.);
#887=ORIENTED_EDGE('',*,*,#668,.F.);
#888=ORIENTED_EDGE('',*,*,#596,.T.);
#889=ORIENTED_EDGE('',*,*,#670,.F.);
#890=ORIENTED_EDGE('',*,*,#671,.F.);
#891=ORIENTED_EDGE('',*,*,#595,.T.);
#892=ORIENTED_EDGE('',*,*,#672,.T.);
#893=ORIENTED_EDGE('',*,*,#673,.T.);
#894=ORIENTED_EDGE('',*,*,#670,.T.);
#895=ORIENTED_EDGE('',*,*,#672,.F.);
#896=ORIENTED_EDGE('',*,*,#594,.T.);
#897=ORIENTED_EDGE('',*,*,#674,.F.);
#898=ORIENTED_EDGE('',*,*,#675,.F.);
#899=ORIENTED_EDGE('',*,*,#676,.T.);
#900=ORIENTED_EDGE('',*,*,#674,.T.);
#901=ORIENTED_EDGE('',*,*,#593,.T.);
#902=ORIENTED_EDGE('',*,*,#677,.T.);
#903=ORIENTED_EDGE('',*,*,#677,.F.);
#904=ORIENTED_EDGE('',*,*,#592,.T.);
#905=ORIENTED_EDGE('',*,*,#678,.F.);
#906=ORIENTED_EDGE('',*,*,#679,.F.);
#907=ORIENTED_EDGE('',*,*,#680,.T.);
#908=ORIENTED_EDGE('',*,*,#678,.T.);
#909=ORIENTED_EDGE('',*,*,#591,.T.);
#910=ORIENTED_EDGE('',*,*,#681,.T.);
#911=ORIENTED_EDGE('',*,*,#681,.F.);
#912=ORIENTED_EDGE('',*,*,#590,.T.);
#913=ORIENTED_EDGE('',*,*,#682,.F.);
#914=ORIENTED_EDGE('',*,*,#683,.F.);
#915=ORIENTED_EDGE('',*,*,#684,.T.);
#916=ORIENTED_EDGE('',*,*,#682,.T.);
#917=ORIENTED_EDGE('',*,*,#589,.T.);
#918=ORIENTED_EDGE('',*,*,#685,.T.);
#919=ORIENTED_EDGE('',*,*,#685,.F.);
#920=ORIENTED_EDGE('',*,*,#588,.T.);
#921=ORIENTED_EDGE('',*,*,#686,.F.);
#922=ORIENTED_EDGE('',*,*,#687,.F.);
#923=ORIENTED_EDGE('',*,*,#688,.T.);
#924=ORIENTED_EDGE('',*,*,#686,.T.);
#925=ORIENTED_EDGE('',*,*,#587,.T.);
#926=ORIENTED_EDGE('',*,*,#689,.T.);
#927=ORIENTED_EDGE('',*,*,#689,.F.);
#928=ORIENTED_EDGE('',*,*,#586,.T.);
#929=ORIENTED_EDGE('',*,*,#690,.F.);
#930=ORIENTED_EDGE('',*,*,#691,.F.);
#931=ORIENTED_EDGE('',*,*,#585,.T.);
#932=ORIENTED_EDGE('',*,*,#692,.T.);
#933=ORIENTED_EDGE('',*,*,#693,.T.);
#934=ORIENTED_EDGE('',*,*,#690,.T.);
#935=ORIENTED_EDGE('',*,*,#692,.F.);
#936=ORIENTED_EDGE('',*,*,#584,.T.);
#937=ORIENTED_EDGE('',*,*,#694,.F.);
#938=ORIENTED_EDGE('',*,*,#695,.F.);
#939=ORIENTED_EDGE('',*,*,#579,.T.);
#940=ORIENTED_EDGE('',*,*,#696,.T.);
#941=ORIENTED_EDGE('',*,*,#697,.T.);
#942=ORIENTED_EDGE('',*,*,#698,.T.);
#943=ORIENTED_EDGE('',*,*,#696,.F.);
#944=ORIENTED_EDGE('',*,*,#578,.T.);
#945=ORIENTED_EDGE('',*,*,#699,.F.);
#946=ORIENTED_EDGE('',*,*,#700,.F.);
#947=ORIENTED_EDGE('',*,*,#701,.T.);
#948=ORIENTED_EDGE('',*,*,#702,.T.);
#949=ORIENTED_EDGE('',*,*,#581,.T.);
#950=ORIENTED_EDGE('',*,*,#703,.T.);
#951=ORIENTED_EDGE('',*,*,#702,.F.);
#952=ORIENTED_EDGE('',*,*,#704,.F.);
#953=ORIENTED_EDGE('',*,*,#705,.F.);
#954=ORIENTED_EDGE('',*,*,#582,.T.);
#955=ORIENTED_EDGE('',*,*,#706,.T.);
#956=ORIENTED_EDGE('',*,*,#694,.T.);
#957=ORIENTED_EDGE('',*,*,#583,.T.);
#958=ORIENTED_EDGE('',*,*,#705,.T.);
#959=ORIENTED_EDGE('',*,*,#577,.T.);
#960=ORIENTED_EDGE('',*,*,#707,.T.);
#961=ORIENTED_EDGE('',*,*,#708,.T.);
#962=ORIENTED_EDGE('',*,*,#699,.T.);
#963=ORIENTED_EDGE('',*,*,#707,.F.);
#964=ORIENTED_EDGE('',*,*,#576,.T.);
#965=ORIENTED_EDGE('',*,*,#709,.F.);
#966=ORIENTED_EDGE('',*,*,#710,.F.);
#967=ORIENTED_EDGE('',*,*,#711,.T.);
#968=ORIENTED_EDGE('',*,*,#709,.T.);
#969=ORIENTED_EDGE('',*,*,#575,.T.);
#970=ORIENTED_EDGE('',*,*,#712,.T.);
#971=ORIENTED_EDGE('',*,*,#573,.T.);
#972=ORIENTED_EDGE('',*,*,#713,.T.);
#973=ORIENTED_EDGE('',*,*,#714,.T.);
#974=ORIENTED_EDGE('',*,*,#715,.T.);
#975=ORIENTED_EDGE('',*,*,#713,.F.);
#976=ORIENTED_EDGE('',*,*,#572,.T.);
#977=ORIENTED_EDGE('',*,*,#716,.F.);
#978=ORIENTED_EDGE('',*,*,#717,.F.);
#979=ORIENTED_EDGE('',*,*,#571,.T.);
#980=ORIENTED_EDGE('',*,*,#718,.T.);
#981=ORIENTED_EDGE('',*,*,#719,.T.);
#982=ORIENTED_EDGE('',*,*,#716,.T.);
#983=ORIENTED_EDGE('',*,*,#564,.F.);
#984=ORIENTED_EDGE('',*,*,#720,.F.);
#985=ORIENTED_EDGE('',*,*,#718,.F.);
#986=ORIENTED_EDGE('',*,*,#570,.T.);
#987=ORIENTED_EDGE('',*,*,#721,.F.);
#988=ORIENTED_EDGE('',*,*,#722,.T.);
#989=ORIENTED_EDGE('',*,*,#620,.T.);
#990=ORIENTED_EDGE('',*,*,#722,.F.);
#991=ORIENTED_EDGE('',*,*,#723,.F.);
#992=ORIENTED_EDGE('',*,*,#724,.T.);
#993=ORIENTED_EDGE('',*,*,#621,.T.);
#994=ORIENTED_EDGE('',*,*,#724,.F.);
#995=ORIENTED_EDGE('',*,*,#725,.F.);
#996=ORIENTED_EDGE('',*,*,#726,.T.);
#997=ORIENTED_EDGE('',*,*,#622,.T.);
#998=ORIENTED_EDGE('',*,*,#726,.F.);
#999=ORIENTED_EDGE('',*,*,#727,.F.);
#1000=ORIENTED_EDGE('',*,*,#728,.T.);
#1001=ORIENTED_EDGE('',*,*,#623,.T.);
#1002=ORIENTED_EDGE('',*,*,#728,.F.);
#1003=ORIENTED_EDGE('',*,*,#712,.F.);
#1004=ORIENTED_EDGE('',*,*,#574,.T.);
#1005=ORIENTED_EDGE('',*,*,#715,.F.);
#1006=ORIENTED_EDGE('',*,*,#729,.F.);
#1007=ORIENTED_EDGE('',*,*,#698,.F.);
#1008=ORIENTED_EDGE('',*,*,#730,.F.);
#1009=ORIENTED_EDGE('',*,*,#703,.F.);
#1010=ORIENTED_EDGE('',*,*,#580,.T.);
#1011=ORIENTED_EDGE('',*,*,#563,.F.);
#1012=ORIENTED_EDGE('',*,*,#569,.T.);
#1013=ORIENTED_EDGE('',*,*,#624,.F.);
#1014=ORIENTED_EDGE('',*,*,#627,.T.);
#1015=ORIENTED_EDGE('',*,*,#628,.F.);
#1016=ORIENTED_EDGE('',*,*,#631,.T.);
#1017=ORIENTED_EDGE('',*,*,#632,.F.);
#1018=ORIENTED_EDGE('',*,*,#635,.T.);
#1019=ORIENTED_EDGE('',*,*,#636,.F.);
#1020=ORIENTED_EDGE('',*,*,#639,.T.);
#1021=ORIENTED_EDGE('',*,*,#641,.F.);
#1022=ORIENTED_EDGE('',*,*,#643,.T.);
#1023=ORIENTED_EDGE('',*,*,#645,.F.);
#1024=ORIENTED_EDGE('',*,*,#647,.T.);
#1025=ORIENTED_EDGE('',*,*,#648,.F.);
#1026=ORIENTED_EDGE('',*,*,#651,.T.);
#1027=ORIENTED_EDGE('',*,*,#652,.F.);
#1028=ORIENTED_EDGE('',*,*,#655,.T.);
#1029=ORIENTED_EDGE('',*,*,#657,.F.);
#1030=ORIENTED_EDGE('',*,*,#659,.T.);
#1031=ORIENTED_EDGE('',*,*,#661,.F.);
#1032=ORIENTED_EDGE('',*,*,#663,.T.);
#1033=ORIENTED_EDGE('',*,*,#664,.F.);
#1034=ORIENTED_EDGE('',*,*,#667,.T.);
#1035=ORIENTED_EDGE('',*,*,#669,.F.);
#1036=ORIENTED_EDGE('',*,*,#671,.T.);
#1037=ORIENTED_EDGE('',*,*,#673,.F.);
#1038=ORIENTED_EDGE('',*,*,#675,.T.);
#1039=ORIENTED_EDGE('',*,*,#676,.F.);
#1040=ORIENTED_EDGE('',*,*,#679,.T.);
#1041=ORIENTED_EDGE('',*,*,#680,.F.);
#1042=ORIENTED_EDGE('',*,*,#683,.T.);
#1043=ORIENTED_EDGE('',*,*,#684,.F.);
#1044=ORIENTED_EDGE('',*,*,#687,.T.);
#1045=ORIENTED_EDGE('',*,*,#688,.F.);
#1046=ORIENTED_EDGE('',*,*,#691,.T.);
#1047=ORIENTED_EDGE('',*,*,#693,.F.);
#1048=ORIENTED_EDGE('',*,*,#695,.T.);
#1049=ORIENTED_EDGE('',*,*,#706,.F.);
#1050=ORIENTED_EDGE('',*,*,#704,.T.);
#1051=ORIENTED_EDGE('',*,*,#701,.F.);
#1052=ORIENTED_EDGE('',*,*,#730,.T.);
#1053=ORIENTED_EDGE('',*,*,#697,.F.);
#1054=ORIENTED_EDGE('',*,*,#700,.T.);
#1055=ORIENTED_EDGE('',*,*,#708,.F.);
#1056=ORIENTED_EDGE('',*,*,#710,.T.);
#1057=ORIENTED_EDGE('',*,*,#711,.F.);
#1058=ORIENTED_EDGE('',*,*,#729,.T.);
#1059=ORIENTED_EDGE('',*,*,#714,.F.);
#1060=ORIENTED_EDGE('',*,*,#717,.T.);
#1061=ORIENTED_EDGE('',*,*,#719,.F.);
#1062=ORIENTED_EDGE('',*,*,#720,.T.);
#1063=ORIENTED_EDGE('',*,*,#727,.T.);
#1064=ORIENTED_EDGE('',*,*,#725,.T.);
#1065=ORIENTED_EDGE('',*,*,#723,.T.);
#1066=ORIENTED_EDGE('',*,*,#721,.T.);
#1067=CYLINDRICAL_SURFACE('',#1178,1.);
#1068=CYLINDRICAL_SURFACE('',#1212,1.);
#1069=CYLINDRICAL_SURFACE('',#1215,1.);
#1070=CYLINDRICAL_SURFACE('',#1218,1.);
#1071=CYLINDRICAL_SURFACE('',#1221,1.);
#1072=CYLINDRICAL_SURFACE('',#1224,1.);
#1073=CYLINDRICAL_SURFACE('',#1227,1.);
#1074=CYLINDRICAL_SURFACE('',#1230,1.);
#1075=CYLINDRICAL_SURFACE('',#1233,1.);
#1076=CYLINDRICAL_SURFACE('',#1236,1.);
#1077=CYLINDRICAL_SURFACE('',#1239,1.);
#1078=CYLINDRICAL_SURFACE('',#1242,1.);
#1079=CYLINDRICAL_SURFACE('',#1245,1.);
#1080=CYLINDRICAL_SURFACE('',#1248,1.);
#1081=CYLINDRICAL_SURFACE('',#1251,1.);
#1082=CYLINDRICAL_SURFACE('',#1254,1.);
#1083=CYLINDRICAL_SURFACE('',#1257,1.);
#1084=CYLINDRICAL_SURFACE('',#1260,1.);
#1085=CYLINDRICAL_SURFACE('',#1263,1.);
#1086=CYLINDRICAL_SURFACE('',#1266,1.);
#1087=CYLINDRICAL_SURFACE('',#1269,1.);
#1088=CYLINDRICAL_SURFACE('',#1272,1.);
#1089=CYLINDRICAL_SURFACE('',#1274,1.);
#1090=CYLINDRICAL_SURFACE('',#1277,1.);
#1091=CYLINDRICAL_SURFACE('',#1279,1.);
#1092=CYLINDRICAL_SURFACE('',#1282,1.);
#1093=CYLINDRICAL_SURFACE('',#1285,1.00650000000003);
#1094=CYLINDRICAL_SURFACE('',#1287,1.00650000000003);
#1095=CYLINDRICAL_SURFACE('',#1289,1.00650000000001);
#1096=CYLINDRICAL_SURFACE('',#1291,1.00650000000001);
#1097=ADVANCED_FACE('',(#51),#1067,.T.);
#1098=ADVANCED_FACE('',(#52),#23,.T.);
#1099=ADVANCED_FACE('',(#53,#15,#16,#17,#18),#24,.F.);
#1100=ADVANCED_FACE('',(#54),#1068,.T.);
#1101=ADVANCED_FACE('',(#55),#25,.T.);
#1102=ADVANCED_FACE('',(#56),#1069,.T.);
#1103=ADVANCED_FACE('',(#57),#26,.T.);
#1104=ADVANCED_FACE('',(#58),#1070,.T.);
#1105=ADVANCED_FACE('',(#59),#27,.T.);
#1106=ADVANCED_FACE('',(#60),#1071,.T.);
#1107=ADVANCED_FACE('',(#61),#28,.T.);
#1108=ADVANCED_FACE('',(#62),#1072,.F.);
#1109=ADVANCED_FACE('',(#63),#29,.T.);
#1110=ADVANCED_FACE('',(#64),#1073,.F.);
#1111=ADVANCED_FACE('',(#65),#30,.T.);
#1112=ADVANCED_FACE('',(#66),#1074,.T.);
#1113=ADVANCED_FACE('',(#67),#31,.T.);
#1114=ADVANCED_FACE('',(#68),#1075,.T.);
#1115=ADVANCED_FACE('',(#69),#32,.T.);
#1116=ADVANCED_FACE('',(#70),#1076,.F.);
#1117=ADVANCED_FACE('',(#71),#33,.T.);
#1118=ADVANCED_FACE('',(#72),#1077,.F.);
#1119=ADVANCED_FACE('',(#73),#34,.T.);
#1120=ADVANCED_FACE('',(#74),#1078,.T.);
#1121=ADVANCED_FACE('',(#75),#35,.T.);
#1122=ADVANCED_FACE('',(#76),#1079,.F.);
#1123=ADVANCED_FACE('',(#77),#36,.T.);
#1124=ADVANCED_FACE('',(#78),#1080,.F.);
#1125=ADVANCED_FACE('',(#79),#37,.T.);
#1126=ADVANCED_FACE('',(#80),#1081,.T.);
#1127=ADVANCED_FACE('',(#81),#38,.T.);
#1128=ADVANCED_FACE('',(#82),#1082,.T.);
#1129=ADVANCED_FACE('',(#83),#39,.T.);
#1130=ADVANCED_FACE('',(#84),#1083,.T.);
#1131=ADVANCED_FACE('',(#85),#40,.T.);
#1132=ADVANCED_FACE('',(#86),#1084,.T.);
#1133=ADVANCED_FACE('',(#87),#41,.T.);
#1134=ADVANCED_FACE('',(#88),#1085,.F.);
#1135=ADVANCED_FACE('',(#89),#42,.T.);
#1136=ADVANCED_FACE('',(#90),#1086,.F.);
#1137=ADVANCED_FACE('',(#91),#43,.T.);
#1138=ADVANCED_FACE('',(#92),#1087,.T.);
#1139=ADVANCED_FACE('',(#93),#44,.T.);
#1140=ADVANCED_FACE('',(#94),#1088,.T.);
#1141=ADVANCED_FACE('',(#95),#1089,.F.);
#1142=ADVANCED_FACE('',(#96),#45,.T.);
#1143=ADVANCED_FACE('',(#97),#1090,.T.);
#1144=ADVANCED_FACE('',(#98),#1091,.F.);
#1145=ADVANCED_FACE('',(#99),#46,.T.);
#1146=ADVANCED_FACE('',(#100),#1092,.F.);
#1147=ADVANCED_FACE('',(#101),#47,.T.);
#1148=ADVANCED_FACE('',(#102),#1093,.F.);
#1149=ADVANCED_FACE('',(#103),#1094,.F.);
#1150=ADVANCED_FACE('',(#104),#1095,.F.);
#1151=ADVANCED_FACE('',(#105),#1096,.F.);
#1152=ADVANCED_FACE('',(#106),#48,.T.);
#1153=ADVANCED_FACE('',(#107),#49,.T.);
#1154=ADVANCED_FACE('',(#108,#19,#20,#21,#22),#50,.T.);
#1155=CLOSED_SHELL('',(#1097,#1098,#1099,#1100,#1101,#1102,#1103,#1104,
#1105,#1106,#1107,#1108,#1109,#1110,#1111,#1112,#1113,#1114,#1115,#1116,
#1117,#1118,#1119,#1120,#1121,#1122,#1123,#1124,#1125,#1126,#1127,#1128,
#1129,#1130,#1131,#1132,#1133,#1134,#1135,#1136,#1137,#1138,#1139,#1140,
#1141,#1142,#1143,#1144,#1145,#1146,#1147,#1148,#1149,#1150,#1151,#1152,
#1153,#1154));
#1156=DERIVED_UNIT_ELEMENT(#1159,1.);
#1157=DERIVED_UNIT_ELEMENT(#1986,-3.);
#1158=DIMENSIONAL_EXPONENTS(0.,1.,0.,0.,0.,0.,0.);
#1159=(
CONVERSION_BASED_UNIT('gram',#1161)
MASS_UNIT()
NAMED_UNIT(#1158)
);
#1160=(
MASS_UNIT()
NAMED_UNIT(*)
SI_UNIT(.KILO.,.GRAM.)
);
#1161=MASS_MEASURE_WITH_UNIT(MASS_MEASURE(0.001),#1160);
#1162=DERIVED_UNIT((#1156,#1157));
#1163=MEASURE_REPRESENTATION_ITEM('density measure',
POSITIVE_RATIO_MEASURE(1.),#1162);
#1164=PROPERTY_DEFINITION_REPRESENTATION(#1169,#1166);
#1165=PROPERTY_DEFINITION_REPRESENTATION(#1170,#1167);
#1166=REPRESENTATION('material name',(#1168),#1983);
#1167=REPRESENTATION('density',(#1163),#1983);
#1168=DESCRIPTIVE_REPRESENTATION_ITEM('Generic','Generic');
#1169=PROPERTY_DEFINITION('material property','material name',#1993);
#1170=PROPERTY_DEFINITION('material property','density of part',#1993);
#1171=DATE_TIME_ROLE('creation_date');
#1172=APPLIED_DATE_AND_TIME_ASSIGNMENT(#1173,#1171,(#1993));
#1173=DATE_AND_TIME(#1174,#1175);
#1174=CALENDAR_DATE(2026,14,9);
#1175=LOCAL_TIME(0,0,0.,#1176);
#1176=COORDINATED_UNIVERSAL_TIME_OFFSET(0,0,.BEHIND.);
#1177=AXIS2_PLACEMENT_3D('',#1642,#1296,#1297);
#1178=AXIS2_PLACEMENT_3D('',#1643,#1298,#1299);
#1179=AXIS2_PLACEMENT_3D('',#1646,#1300,#1301);
#1180=AXIS2_PLACEMENT_3D('',#1650,#1303,#1304);
#1181=AXIS2_PLACEMENT_3D('',#1652,#1306,#1307);
#1182=AXIS2_PLACEMENT_3D('',#1658,#1311,#1312);
#1183=AXIS2_PLACEMENT_3D('',#1662,#1314,#1315);
#1184=AXIS2_PLACEMENT_3D('',#1666,#1317,#1318);
#1185=AXIS2_PLACEMENT_3D('',#1670,#1320,#1321);
#1186=AXIS2_PLACEMENT_3D('',#1674,#1323,#1324);
#1187=AXIS2_PLACEMENT_3D('',#1678,#1326,#1327);
#1188=AXIS2_PLACEMENT_3D('',#1682,#1329,#1330);
#1189=AXIS2_PLACEMENT_3D('',#1686,#1332,#1333);
#1190=AXIS2_PLACEMENT_3D('',#1690,#1335,#1336);
#1191=AXIS2_PLACEMENT_3D('',#1694,#1338,#1339);
#1192=AXIS2_PLACEMENT_3D('',#1698,#1341,#1342);
#1193=AXIS2_PLACEMENT_3D('',#1702,#1344,#1345);
#1194=AXIS2_PLACEMENT_3D('',#1706,#1347,#1348);
#1195=AXIS2_PLACEMENT_3D('',#1710,#1350,#1351);
#1196=AXIS2_PLACEMENT_3D('',#1714,#1353,#1354);
#1197=AXIS2_PLACEMENT_3D('',#1718,#1356,#1357);
#1198=AXIS2_PLACEMENT_3D('',#1722,#1359,#1360);
#1199=AXIS2_PLACEMENT_3D('',#1726,#1362,#1363);
#1200=AXIS2_PLACEMENT_3D('',#1730,#1365,#1366);
#1201=AXIS2_PLACEMENT_3D('',#1734,#1368,#1369);
#1202=AXIS2_PLACEMENT_3D('',#1738,#1371,#1372);
#1203=AXIS2_PLACEMENT_3D('',#1742,#1374,#1375);
#1204=AXIS2_PLACEMENT_3D('',#1746,#1377,#1378);
#1205=AXIS2_PLACEMENT_3D('',#1750,#1380,#1381);
#1206=AXIS2_PLACEMENT_3D('',#1754,#1383,#1384);
#1207=AXIS2_PLACEMENT_3D('',#1757,#1386,#1387);
#1208=AXIS2_PLACEMENT_3D('',#1759,#1388,#1389);
#1209=AXIS2_PLACEMENT_3D('',#1761,#1390,#1391);
#1210=AXIS2_PLACEMENT_3D('',#1763,#1392,#1393);
#1211=AXIS2_PLACEMENT_3D('',#1765,#1394,#1395);
#1212=AXIS2_PLACEMENT_3D('',#1766,#1396,#1397);
#1213=AXIS2_PLACEMENT_3D('',#1768,#1398,#1399);
#1214=AXIS2_PLACEMENT_3D('',#1770,#1401,#1402);
#1215=AXIS2_PLACEMENT_3D('',#1774,#1405,#1406);
#1216=AXIS2_PLACEMENT_3D('',#1776,#1407,#1408);
#1217=AXIS2_PLACEMENT_3D('',#1778,#1410,#1411);
#1218=AXIS2_PLACEMENT_3D('',#1782,#1414,#1415);
#1219=AXIS2_PLACEMENT_3D('',#1784,#1416,#1417);
#1220=AXIS2_PLACEMENT_3D('',#1786,#1419,#1420);
#1221=AXIS2_PLACEMENT_3D('',#1790,#1423,#1424);
#1222=AXIS2_PLACEMENT_3D('',#1792,#1425,#1426);
#1223=AXIS2_PLACEMENT_3D('',#1794,#1428,#1429);
#1224=AXIS2_PLACEMENT_3D('',#1798,#1432,#1433);
#1225=AXIS2_PLACEMENT_3D('',#1801,#1435,#1436);
#1226=AXIS2_PLACEMENT_3D('',#1802,#1437,#1438);
#1227=AXIS2_PLACEMENT_3D('',#1806,#1441,#1442);
#1228=AXIS2_PLACEMENT_3D('',#1809,#1444,#1445);
#1229=AXIS2_PLACEMENT_3D('',#1810,#1446,#1447);
#1230=AXIS2_PLACEMENT_3D('',#1814,#1450,#1451);
#1231=AXIS2_PLACEMENT_3D('',#1816,#1452,#1453);
#1232=AXIS2_PLACEMENT_3D('',#1818,#1455,#1456);
#1233=AXIS2_PLACEMENT_3D('',#1822,#1459,#1460);
#1234=AXIS2_PLACEMENT_3D('',#1824,#1461,#1462);
#1235=AXIS2_PLACEMENT_3D('',#1826,#1464,#1465);
#1236=AXIS2_PLACEMENT_3D('',#1830,#1468,#1469);
#1237=AXIS2_PLACEMENT_3D('',#1833,#1471,#1472);
#1238=AXIS2_PLACEMENT_3D('',#1834,#1473,#1474);
#1239=AXIS2_PLACEMENT_3D('',#1838,#1477,#1478);
#1240=AXIS2_PLACEMENT_3D('',#1841,#1480,#1481);
#1241=AXIS2_PLACEMENT_3D('',#1842,#1482,#1483);
#1242=AXIS2_PLACEMENT_3D('',#1846,#1486,#1487);
#1243=AXIS2_PLACEMENT_3D('',#1848,#1488,#1489);
#1244=AXIS2_PLACEMENT_3D('',#1850,#1491,#1492);
#1245=AXIS2_PLACEMENT_3D('',#1854,#1495,#1496);
#1246=AXIS2_PLACEMENT_3D('',#1857,#1498,#1499);
#1247=AXIS2_PLACEMENT_3D('',#1858,#1500,#1501);
#1248=AXIS2_PLACEMENT_3D('',#1862,#1504,#1505);
#1249=AXIS2_PLACEMENT_3D('',#1865,#1507,#1508);
#1250=AXIS2_PLACEMENT_3D('',#1866,#1509,#1510);
#1251=AXIS2_PLACEMENT_3D('',#1870,#1513,#1514);
#1252=AXIS2_PLACEMENT_3D('',#1872,#1515,#1516);
#1253=AXIS2_PLACEMENT_3D('',#1874,#1518,#1519);
#1254=AXIS2_PLACEMENT_3D('',#1878,#1522,#1523);
#1255=AXIS2_PLACEMENT_3D('',#1880,#1524,#1525);
#1256=AXIS2_PLACEMENT_3D('',#1882,#1527,#1528);
#1257=AXIS2_PLACEMENT_3D('',#1886,#1531,#1532);
#1258=AXIS2_PLACEMENT_3D('',#1888,#1533,#1534);
#1259=AXIS2_PLACEMENT_3D('',#1890,#1536,#1537);
#1260=AXIS2_PLACEMENT_3D('',#1894,#1540,#1541);
#1261=AXIS2_PLACEMENT_3D('',#1896,#1542,#1543);
#1262=AXIS2_PLACEMENT_3D('',#1898,#1545,#1546);
#1263=AXIS2_PLACEMENT_3D('',#1902,#1549,#1550);
#1264=AXIS2_PLACEMENT_3D('',#1905,#1552,#1553);
#1265=AXIS2_PLACEMENT_3D('',#1906,#1554,#1555);
#1266=AXIS2_PLACEMENT_3D('',#1910,#1558,#1559);
#1267=AXIS2_PLACEMENT_3D('',#1914,#1561,#1562);
#1268=AXIS2_PLACEMENT_3D('',#1916,#1564,#1565);
#1269=AXIS2_PLACEMENT_3D('',#1920,#1568,#1569);
#1270=AXIS2_PLACEMENT_3D('',#1923,#1570,#1571);
#1271=AXIS2_PLACEMENT_3D('',#1926,#1574,#1575);
#1272=AXIS2_PLACEMENT_3D('',#1930,#1578,#1579);
#1273=AXIS2_PLACEMENT_3D('',#1931,#1580,#1581);
#1274=AXIS2_PLACEMENT_3D('',#1932,#1582,#1583);
#1275=AXIS2_PLACEMENT_3D('',#1935,#1585,#1586);
#1276=AXIS2_PLACEMENT_3D('',#1936,#1587,#1588);
#1277=AXIS2_PLACEMENT_3D('',#1940,#1591,#1592);
#1278=AXIS2_PLACEMENT_3D('',#1942,#1593,#1594);
#1279=AXIS2_PLACEMENT_3D('',#1944,#1596,#1597);
#1280=AXIS2_PLACEMENT_3D('',#1948,#1599,#1600);
#1281=AXIS2_PLACEMENT_3D('',#1950,#1602,#1603);
#1282=AXIS2_PLACEMENT_3D('',#1954,#1606,#1607);
#1283=AXIS2_PLACEMENT_3D('',#1957,#1609,#1610);
#1284=AXIS2_PLACEMENT_3D('',#1958,#1611,#1612);
#1285=AXIS2_PLACEMENT_3D('',#1960,#1614,#1615);
#1286=AXIS2_PLACEMENT_3D('',#1962,#1616,#1617);
#1287=AXIS2_PLACEMENT_3D('',#1964,#1619,#1620);
#1288=AXIS2_PLACEMENT_3D('',#1966,#1621,#1622);
#1289=AXIS2_PLACEMENT_3D('',#1968,#1624,#1625);
#1290=AXIS2_PLACEMENT_3D('',#1970,#1626,#1627);
#1291=AXIS2_PLACEMENT_3D('',#1972,#1629,#1630);
#1292=AXIS2_PLACEMENT_3D('',#1974,#1631,#1632);
#1293=AXIS2_PLACEMENT_3D('',#1976,#1634,#1635);
#1294=AXIS2_PLACEMENT_3D('',#1978,#1637,#1638);
#1295=AXIS2_PLACEMENT_3D('',#1980,#1640,#1641);
#1296=DIRECTION('axis',(0.,0.,1.));
#1297=DIRECTION('refdir',(1.,0.,0.));
#1298=DIRECTION('center_axis',(0.,0.,1.));
#1299=DIRECTION('ref_axis',(0.707106781186546,-0.707106781186549,0.));
#1300=DIRECTION('center_axis',(0.,0.,-1.));
#1301=DIRECTION('ref_axis',(0.707106781186546,-0.707106781186549,0.));
#1302=DIRECTION('',(0.,0.,-1.));
#1303=DIRECTION('center_axis',(0.,0.,1.));
#1304=DIRECTION('ref_axis',(0.707106781186546,-0.707106781186549,0.));
#1305=DIRECTION('',(0.,0.,1.));
#1306=DIRECTION('center_axis',(1.,1.63268091856641E-17,0.));
#1307=DIRECTION('ref_axis',(-1.63268091856641E-17,1.,0.));
#1308=DIRECTION('',(-1.63268091856641E-17,1.,0.));
#1309=DIRECTION('',(0.,0.,-1.));
#1310=DIRECTION('',(-1.63268091856641E-17,1.,0.));
#1311=DIRECTION('center_axis',(0.,0.,1.));
#1312=DIRECTION('ref_axis',(1.,0.,0.));
#1313=DIRECTION('',(1.,-1.10469952699021E-16,0.));
#1314=DIRECTION('center_axis',(0.,0.,-1.));
#1315=DIRECTION('ref_axis',(-0.707106781186551,0.707106781186544,0.));
#1316=DIRECTION('',(0.,1.,0.));
#1317=DIRECTION('center_axis',(0.,0.,-1.));
#1318=DIRECTION('ref_axis',(-0.707106781186549,-0.707106781186546,0.));
#1319=DIRECTION('',(-1.,-1.21027219254196E-16,0.));
#1320=DIRECTION('center_axis',(0.,0.,1.));
#1321=DIRECTION('ref_axis',(0.707106781186548,0.707106781186547,0.));
#1322=DIRECTION('',(0.,1.,0.));
#1323=DIRECTION('center_axis',(0.,0.,-1.));
#1324=DIRECTION('ref_axis',(-0.707106781186548,-0.707106781186548,0.));
#1325=DIRECTION('',(-1.,1.02031174530754E-15,0.));
#1326=DIRECTION('center_axis',(0.,0.,-1.));
#1327=DIRECTION('ref_axis',(0.707106781186548,-0.707106781186548,0.));
#1328=DIRECTION('',(0.,-1.,0.));
#1329=DIRECTION('center_axis',(0.,0.,1.));
#1330=DIRECTION('ref_axis',(-0.707106781186548,0.707106781186547,0.));
#1331=DIRECTION('',(-1.,0.,0.));
#1332=DIRECTION('center_axis',(0.,0.,1.));
#1333=DIRECTION('ref_axis',(0.707106781186548,0.707106781186548,0.));
#1334=DIRECTION('',(0.,1.,0.));
#1335=DIRECTION('center_axis',(0.,0.,-1.));
#1336=DIRECTION('ref_axis',(-0.707106781186545,-0.70710678118655,0.));
#1337=DIRECTION('',(-1.,-6.15030647288295E-15,0.));
#1338=DIRECTION('center_axis',(0.,0.,1.));
#1339=DIRECTION('ref_axis',(0.707106781186545,0.70710678118655,0.));
#1340=DIRECTION('',(-2.31296463463574E-16,1.,0.));
#1341=DIRECTION('center_axis',(0.,0.,1.));
#1342=DIRECTION('ref_axis',(0.707106781186547,-0.707106781186548,0.));
#1343=DIRECTION('',(1.,-3.70074341541719E-16,0.));
#1344=DIRECTION('center_axis',(0.,0.,1.));
#1345=DIRECTION('ref_axis',(-0.707106781186546,-0.707106781186549,0.));
#1346=DIRECTION('',(-4.44089209850063E-16,-1.,0.));
#1347=DIRECTION('center_axis',(0.,0.,1.));
#1348=DIRECTION('ref_axis',(-0.707106781186546,0.707106781186549,0.));
#1349=DIRECTION('',(-1.,-1.21027219254196E-16,0.));
#1350=DIRECTION('center_axis',(0.,0.,-1.));
#1351=DIRECTION('ref_axis',(0.70710678118655,-0.707106781186545,0.));
#1352=DIRECTION('',(0.,-1.,0.));
#1353=DIRECTION('center_axis',(0.,0.,-1.));
#1354=DIRECTION('ref_axis',(0.707106781186551,0.707106781186544,0.));
#1355=DIRECTION('',(1.,-1.10469952699021E-16,0.));
#1356=DIRECTION('center_axis',(0.,0.,1.));
#1357=DIRECTION('ref_axis',(-0.707106781186548,-0.707106781186548,0.));
#1358=DIRECTION('',(0.,-1.,0.));
#1359=DIRECTION('center_axis',(0.,0.,-1.));
#1360=DIRECTION('ref_axis',(0.707106781186548,0.707106781186548,0.));
#1361=DIRECTION('',(1.,0.,0.));
#1362=DIRECTION('center_axis',(0.,0.,-1.));
#1363=DIRECTION('ref_axis',(-0.707106781186548,0.707106781186548,0.));
#1364=DIRECTION('',(0.,1.,0.));
#1365=DIRECTION('center_axis',(0.,0.,1.));
#1366=DIRECTION('ref_axis',(0.707106781186548,-0.707106781186548,0.));
#1367=DIRECTION('',(1.,0.,0.));
#1368=DIRECTION('center_axis',(0.,0.,1.));
#1369=DIRECTION('ref_axis',(-0.707106781186548,-0.707106781186548,0.));
#1370=DIRECTION('',(0.,-1.,0.));
#1371=DIRECTION('center_axis',(0.,0.,-1.));
#1372=DIRECTION('ref_axis',(0.707106781186548,0.707106781186548,0.));
#1373=DIRECTION('',(1.,0.,0.));
#1374=DIRECTION('center_axis',(0.,0.,-1.));
#1375=DIRECTION('ref_axis',(-0.707106781186548,0.707106781186548,0.));
#1376=DIRECTION('',(0.,1.,0.));
#1377=DIRECTION('center_axis',(0.,0.,1.));
#1378=DIRECTION('ref_axis',(0.707106781186548,-0.707106781186548,0.));
#1379=DIRECTION('',(1.,0.,0.));
#1380=DIRECTION('center_axis',(0.,0.,1.));
#1381=DIRECTION('ref_axis',(-0.707106781186548,-0.707106781186548,0.));
#1382=DIRECTION('',(0.,-1.,0.));
#1383=DIRECTION('center_axis',(0.,0.,1.));
#1384=DIRECTION('ref_axis',(-0.707106781186548,0.707106781186548,0.));
#1385=DIRECTION('',(-1.,0.,0.));
#1386=DIRECTION('center_axis',(0.,0.,1.));
#1387=DIRECTION('ref_axis',(0.707106781186549,0.707106781186546,0.));
#1388=DIRECTION('center_axis',(0.,0.,-1.));
#1389=DIRECTION('ref_axis',(-1.,0.,0.));
#1390=DIRECTION('center_axis',(0.,0.,-1.));
#1391=DIRECTION('ref_axis',(-1.,0.,0.));
#1392=DIRECTION('center_axis',(0.,0.,-1.));
#1393=DIRECTION('ref_axis',(-1.,0.,0.));
#1394=DIRECTION('center_axis',(0.,0.,-1.));
#1395=DIRECTION('ref_axis',(-1.,0.,0.));
#1396=DIRECTION('center_axis',(0.,0.,1.));
#1397=DIRECTION('ref_axis',(0.707106781186549,0.707106781186546,0.));
#1398=DIRECTION('center_axis',(0.,0.,-1.));
#1399=DIRECTION('ref_axis',(0.707106781186549,0.707106781186546,0.));
#1400=DIRECTION('',(0.,0.,1.));
#1401=DIRECTION('center_axis',(0.,1.,0.));
#1402=DIRECTION('ref_axis',(-1.,0.,0.));
#1403=DIRECTION('',(0.,0.,-1.));
#1404=DIRECTION('',(-1.,0.,0.));
#1405=DIRECTION('center_axis',(0.,0.,1.));
#1406=DIRECTION('ref_axis',(-0.707106781186548,0.707106781186548,0.));
#1407=DIRECTION('center_axis',(0.,0.,-1.));
#1408=DIRECTION('ref_axis',(-0.707106781186548,0.707106781186548,0.));
#1409=DIRECTION('',(0.,0.,1.));
#1410=DIRECTION('center_axis',(-1.,0.,0.));
#1411=DIRECTION('ref_axis',(0.,-1.,0.));
#1412=DIRECTION('',(0.,0.,-1.));
#1413=DIRECTION('',(0.,-1.,0.));
#1414=DIRECTION('center_axis',(0.,0.,1.));
#1415=DIRECTION('ref_axis',(-0.707106781186548,-0.707106781186548,0.));
#1416=DIRECTION('center_axis',(0.,0.,-1.));
#1417=DIRECTION('ref_axis',(-0.707106781186548,-0.707106781186548,0.));
#1418=DIRECTION('',(0.,0.,1.));
#1419=DIRECTION('center_axis',(0.,-1.,0.));
#1420=DIRECTION('ref_axis',(1.,0.,0.));
#1421=DIRECTION('',(0.,0.,-1.));
#1422=DIRECTION('',(1.,0.,0.));
#1423=DIRECTION('center_axis',(0.,0.,1.));
#1424=DIRECTION('ref_axis',(0.707106781186548,-0.707106781186548,0.));
#1425=DIRECTION('center_axis',(0.,0.,-1.));
#1426=DIRECTION('ref_axis',(0.707106781186548,-0.707106781186548,0.));
#1427=DIRECTION('',(0.,0.,1.));
#1428=DIRECTION('center_axis',(1.,0.,0.));
#1429=DIRECTION('ref_axis',(0.,1.,0.));
#1430=DIRECTION('',(0.,0.,-1.));
#1431=DIRECTION('',(0.,1.,0.));
#1432=DIRECTION('center_axis',(0.,0.,1.));
#1433=DIRECTION('ref_axis',(-0.707106781186548,0.707106781186548,0.));
#1434=DIRECTION('',(0.,0.,1.));
#1435=DIRECTION('center_axis',(0.,0.,1.));
#1436=DIRECTION('ref_axis',(-0.707106781186548,0.707106781186548,0.));
#1437=DIRECTION('center_axis',(0.,-1.,0.));
#1438=DIRECTION('ref_axis',(1.,0.,0.));
#1439=DIRECTION('',(0.,0.,-1.));
#1440=DIRECTION('',(1.,0.,0.));
#1441=DIRECTION('center_axis',(0.,0.,1.));
#1442=DIRECTION('ref_axis',(0.707106781186548,0.707106781186548,0.));
#1443=DIRECTION('',(0.,0.,1.));
#1444=DIRECTION('center_axis',(0.,0.,1.));
#1445=DIRECTION('ref_axis',(0.707106781186548,0.707106781186548,0.));
#1446=DIRECTION('center_axis',(-1.,0.,0.));
#1447=DIRECTION('ref_axis',(0.,-1.,0.));
#1448=DIRECTION('',(0.,0.,-1.));
#1449=DIRECTION('',(0.,-1.,0.));
#1450=DIRECTION('center_axis',(0.,0.,1.));
#1451=DIRECTION('ref_axis',(-0.707106781186548,-0.707106781186548,0.));
#1452=DIRECTION('center_axis',(0.,0.,-1.));
#1453=DIRECTION('ref_axis',(-0.707106781186548,-0.707106781186548,0.));
#1454=DIRECTION('',(0.,0.,1.));
#1455=DIRECTION('center_axis',(0.,-1.,0.));
#1456=DIRECTION('ref_axis',(1.,0.,0.));
#1457=DIRECTION('',(0.,0.,-1.));
#1458=DIRECTION('',(1.,0.,0.));
#1459=DIRECTION('center_axis',(0.,0.,1.));
#1460=DIRECTION('ref_axis',(0.707106781186548,-0.707106781186548,0.));
#1461=DIRECTION('center_axis',(0.,0.,-1.));
#1462=DIRECTION('ref_axis',(0.707106781186548,-0.707106781186548,0.));
#1463=DIRECTION('',(0.,0.,1.));
#1464=DIRECTION('center_axis',(1.,0.,0.));
#1465=DIRECTION('ref_axis',(0.,1.,0.));
#1466=DIRECTION('',(0.,0.,-1.));
#1467=DIRECTION('',(0.,1.,0.));
#1468=DIRECTION('center_axis',(0.,0.,1.));
#1469=DIRECTION('ref_axis',(-0.707106781186548,0.707106781186548,0.));
#1470=DIRECTION('',(0.,0.,1.));
#1471=DIRECTION('center_axis',(0.,0.,1.));
#1472=DIRECTION('ref_axis',(-0.707106781186548,0.707106781186548,0.));
#1473=DIRECTION('center_axis',(0.,-1.,0.));
#1474=DIRECTION('ref_axis',(1.,0.,0.));
#1475=DIRECTION('',(0.,0.,-1.));
#1476=DIRECTION('',(1.,0.,0.));
#1477=DIRECTION('center_axis',(0.,0.,1.));
#1478=DIRECTION('ref_axis',(0.707106781186548,0.707106781186548,0.));
#1479=DIRECTION('',(0.,0.,1.));
#1480=DIRECTION('center_axis',(0.,0.,1.));
#1481=DIRECTION('ref_axis',(0.707106781186548,0.707106781186548,0.));
#1482=DIRECTION('center_axis',(-1.,0.,0.));
#1483=DIRECTION('ref_axis',(0.,-1.,0.));
#1484=DIRECTION('',(0.,0.,-1.));
#1485=DIRECTION('',(0.,-1.,0.));
#1486=DIRECTION('center_axis',(0.,0.,1.));
#1487=DIRECTION('ref_axis',(-0.707106781186548,-0.707106781186548,0.));
#1488=DIRECTION('center_axis',(0.,0.,-1.));
#1489=DIRECTION('ref_axis',(-0.707106781186548,-0.707106781186548,0.));
#1490=DIRECTION('',(0.,0.,1.));
#1491=DIRECTION('center_axis',(-1.10469952699021E-16,-1.,0.));
#1492=DIRECTION('ref_axis',(1.,-1.10469952699021E-16,0.));
#1493=DIRECTION('',(0.,0.,-1.));
#1494=DIRECTION('',(1.,-1.10469952699021E-16,0.));
#1495=DIRECTION('center_axis',(0.,0.,1.));
#1496=DIRECTION('ref_axis',(0.707106781186551,0.707106781186544,0.));
#1497=DIRECTION('',(0.,0.,1.));
#1498=DIRECTION('center_axis',(0.,0.,1.));
#1499=DIRECTION('ref_axis',(0.707106781186551,0.707106781186544,0.));
#1500=DIRECTION('center_axis',(-1.,0.,0.));
#1501=DIRECTION('ref_axis',(0.,-1.,0.));
#1502=DIRECTION('',(0.,0.,-1.));
#1503=DIRECTION('',(0.,-1.,0.));
#1504=DIRECTION('center_axis',(0.,0.,1.));
#1505=DIRECTION('ref_axis',(0.70710678118655,-0.707106781186545,0.));
#1506=DIRECTION('',(0.,0.,1.));
#1507=DIRECTION('center_axis',(0.,0.,1.));
#1508=DIRECTION('ref_axis',(0.70710678118655,-0.707106781186545,0.));
#1509=DIRECTION('center_axis',(-1.21027219254196E-16,1.,0.));
#1510=DIRECTION('ref_axis',(-1.,-1.21027219254196E-16,0.));
#1511=DIRECTION('',(0.,0.,-1.));
#1512=DIRECTION('',(-1.,-1.21027219254196E-16,0.));
#1513=DIRECTION('center_axis',(0.,0.,1.));
#1514=DIRECTION('ref_axis',(-0.707106781186546,0.707106781186549,0.));
#1515=DIRECTION('center_axis',(0.,0.,-1.));
#1516=DIRECTION('ref_axis',(-0.707106781186546,0.707106781186549,0.));
#1517=DIRECTION('',(0.,0.,1.));
#1518=DIRECTION('center_axis',(-1.,4.44089209850063E-16,0.));
#1519=DIRECTION('ref_axis',(-4.44089209850063E-16,-1.,0.));
#1520=DIRECTION('',(0.,0.,-1.));
#1521=DIRECTION('',(-4.44089209850063E-16,-1.,0.));
#1522=DIRECTION('center_axis',(0.,0.,1.));
#1523=DIRECTION('ref_axis',(-0.707106781186546,-0.707106781186549,0.));
#1524=DIRECTION('center_axis',(0.,0.,-1.));
#1525=DIRECTION('ref_axis',(-0.707106781186546,-0.707106781186549,0.));
#1526=DIRECTION('',(0.,0.,1.));
#1527=DIRECTION('center_axis',(-3.70074341541719E-16,-1.,0.));
#1528=DIRECTION('ref_axis',(1.,-3.70074341541719E-16,0.));
#1529=DIRECTION('',(0.,0.,-1.));
#1530=DIRECTION('',(1.,-3.70074341541719E-16,0.));
#1531=DIRECTION('center_axis',(0.,0.,1.));
#1532=DIRECTION('ref_axis',(0.707106781186547,-0.707106781186548,0.));
#1533=DIRECTION('center_axis',(0.,0.,-1.));
#1534=DIRECTION('ref_axis',(0.707106781186547,-0.707106781186548,0.));
#1535=DIRECTION('',(0.,0.,1.));
#1536=DIRECTION('center_axis',(1.,2.31296463463574E-16,0.));
#1537=DIRECTION('ref_axis',(-2.31296463463574E-16,1.,0.));
#1538=DIRECTION('',(0.,0.,-1.));
#1539=DIRECTION('',(-2.31296463463574E-16,1.,0.));
#1540=DIRECTION('center_axis',(0.,0.,1.));
#1541=DIRECTION('ref_axis',(0.707106781186545,0.70710678118655,0.));
#1542=DIRECTION('center_axis',(0.,0.,-1.));
#1543=DIRECTION('ref_axis',(0.707106781186545,0.70710678118655,0.));
#1544=DIRECTION('',(0.,0.,1.));
#1545=DIRECTION('center_axis',(-6.15030647288295E-15,1.,0.));
#1546=DIRECTION('ref_axis',(-1.,-6.15030647288295E-15,0.));
#1547=DIRECTION('',(0.,0.,-1.));
#1548=DIRECTION('',(-1.,-6.15030647288295E-15,0.));
#1549=DIRECTION('center_axis',(0.,0.,1.));
#1550=DIRECTION('ref_axis',(-0.707106781186545,-0.70710678118655,0.));
#1551=DIRECTION('',(0.,0.,1.));
#1552=DIRECTION('center_axis',(0.,0.,1.));
#1553=DIRECTION('ref_axis',(-0.707106781186545,-0.70710678118655,0.));
#1554=DIRECTION('center_axis',(1.,0.,0.));
#1555=DIRECTION('ref_axis',(0.,1.,0.));
#1556=DIRECTION('',(0.,0.,-1.));
#1557=DIRECTION('',(0.,1.,0.));
#1558=DIRECTION('center_axis',(0.,0.,1.));
#1559=DIRECTION('ref_axis',(0.707106781186548,-0.707106781186548,0.));
#1560=DIRECTION('',(0.,0.,1.));
#1561=DIRECTION('center_axis',(0.,0.,1.));
#1562=DIRECTION('ref_axis',(0.707106781186548,-0.707106781186548,0.));
#1563=DIRECTION('',(0.,0.,-1.));
#1564=DIRECTION('center_axis',(1.02031174530754E-15,1.,0.));
#1565=DIRECTION('ref_axis',(-1.,1.02031174530754E-15,0.));
#1566=DIRECTION('',(0.,0.,-1.));
#1567=DIRECTION('',(-1.,1.02031174530754E-15,0.));
#1568=DIRECTION('center_axis',(0.,0.,1.));
#1569=DIRECTION('ref_axis',(-0.707106781186548,0.707106781186547,0.));
#1570=DIRECTION('center_axis',(0.,0.,-1.));
#1571=DIRECTION('ref_axis',(-0.707106781186548,0.707106781186547,0.));
#1572=DIRECTION('',(0.,0.,-1.));
#1573=DIRECTION('',(0.,0.,1.));
#1574=DIRECTION('center_axis',(0.,1.,0.));
#1575=DIRECTION('ref_axis',(-1.,0.,0.));
#1576=DIRECTION('',(-1.,0.,0.));
#1577=DIRECTION('',(0.,0.,1.));
#1578=DIRECTION('center_axis',(0.,0.,1.));
#1579=DIRECTION('ref_axis',(0.707106781186548,0.707106781186548,0.));
#1580=DIRECTION('center_axis',(0.,0.,-1.));
#1581=DIRECTION('ref_axis',(0.707106781186548,0.707106781186548,0.));
#1582=DIRECTION('center_axis',(0.,0.,1.));
#1583=DIRECTION('ref_axis',(-0.707106781186548,-0.707106781186548,0.));
#1584=DIRECTION('',(0.,0.,1.));
#1585=DIRECTION('center_axis',(0.,0.,1.));
#1586=DIRECTION('ref_axis',(-0.707106781186548,-0.707106781186548,0.));
#1587=DIRECTION('center_axis',(1.,0.,0.));
#1588=DIRECTION('ref_axis',(0.,1.,0.));
#1589=DIRECTION('',(0.,0.,-1.));
#1590=DIRECTION('',(0.,1.,0.));
#1591=DIRECTION('center_axis',(0.,0.,1.));
#1592=DIRECTION('ref_axis',(0.707106781186548,0.707106781186547,0.));
#1593=DIRECTION('center_axis',(0.,0.,-1.));
#1594=DIRECTION('ref_axis',(0.707106781186548,0.707106781186547,0.));
#1595=DIRECTION('',(0.,0.,1.));
#1596=DIRECTION('center_axis',(0.,0.,1.));
#1597=DIRECTION('ref_axis',(-0.707106781186549,-0.707106781186546,0.));
#1598=DIRECTION('',(0.,0.,1.));
#1599=DIRECTION('center_axis',(0.,0.,1.));
#1600=DIRECTION('ref_axis',(-0.707106781186549,-0.707106781186546,0.));
#1601=DIRECTION('',(0.,0.,-1.));
#1602=DIRECTION('center_axis',(1.,0.,0.));
#1603=DIRECTION('ref_axis',(0.,1.,0.));
#1604=DIRECTION('',(0.,0.,-1.));
#1605=DIRECTION('',(0.,1.,0.));
#1606=DIRECTION('center_axis',(0.,0.,1.));
#1607=DIRECTION('ref_axis',(-0.707106781186551,0.707106781186544,0.));
#1608=DIRECTION('',(0.,0.,1.));
#1609=DIRECTION('center_axis',(0.,0.,1.));
#1610=DIRECTION('ref_axis',(-0.707106781186551,0.707106781186544,0.));
#1611=DIRECTION('center_axis',(-1.10469952699021E-16,-1.,0.));
#1612=DIRECTION('ref_axis',(1.,-1.10469952699021E-16,0.));
#1613=DIRECTION('',(1.,-1.10469952699021E-16,0.));
#1614=DIRECTION('center_axis',(0.,0.,1.));
#1615=DIRECTION('ref_axis',(-1.,0.,0.));
#1616=DIRECTION('center_axis',(0.,0.,-1.));
#1617=DIRECTION('ref_axis',(-1.,0.,0.));
#1618=DIRECTION('',(0.,0.,-1.));
#1619=DIRECTION('center_axis',(0.,0.,1.));
#1620=DIRECTION('ref_axis',(-1.,0.,0.));
#1621=DIRECTION('center_axis',(0.,0.,-1.));
#1622=DIRECTION('ref_axis',(-1.,0.,0.));
#1623=DIRECTION('',(0.,0.,-1.));
#1624=DIRECTION('center_axis',(0.,0.,1.));
#1625=DIRECTION('ref_axis',(-1.,0.,0.));
#1626=DIRECTION('center_axis',(0.,0.,-1.));
#1627=DIRECTION('ref_axis',(-1.,0.,0.));
#1628=DIRECTION('',(0.,0.,-1.));
#1629=DIRECTION('center_axis',(0.,0.,1.));
#1630=DIRECTION('ref_axis',(-1.,0.,0.));
#1631=DIRECTION('center_axis',(0.,0.,-1.));
#1632=DIRECTION('ref_axis',(-1.,0.,0.));
#1633=DIRECTION('',(0.,0.,-1.));
#1634=DIRECTION('center_axis',(-1.21027219254196E-16,1.,0.));
#1635=DIRECTION('ref_axis',(-1.,-1.21027219254196E-16,0.));
#1636=DIRECTION('',(-1.,-1.21027219254196E-16,0.));
#1637=DIRECTION('center_axis',(-1.,0.,0.));
#1638=DIRECTION('ref_axis',(0.,-1.,0.));
#1639=DIRECTION('',(0.,-1.,0.));
#1640=DIRECTION('center_axis',(0.,0.,1.));
#1641=DIRECTION('ref_axis',(1.,0.,0.));
#1642=CARTESIAN_POINT('',(0.,0.,0.));
#1643=CARTESIAN_POINT('Origin',(-1.19999999999689,40.0000000000018,0.));
#1644=CARTESIAN_POINT('',(-0.199999999996887,40.0000000000018,1.));
#1645=CARTESIAN_POINT('',(-1.19999999999689,39.0000000000018,1.));
#1646=CARTESIAN_POINT('Origin',(-1.19999999999689,40.0000000000018,1.));
#1647=CARTESIAN_POINT('',(-1.19999999999689,39.0000000000018,0.));
#1648=CARTESIAN_POINT('',(-1.19999999999689,39.0000000000018,0.));
#1649=CARTESIAN_POINT('',(-0.199999999996887,40.0000000000018,0.));
#1650=CARTESIAN_POINT('Origin',(-1.19999999999689,40.0000000000018,0.));
#1651=CARTESIAN_POINT('',(-0.199999999996887,40.0000000000018,0.));
#1652=CARTESIAN_POINT('Origin',(-0.199999999996887,39.0000000000018,0.));
#1653=CARTESIAN_POINT('',(-0.199999999996887,46.5000000000018,0.));
#1654=CARTESIAN_POINT('',(-0.199999999996887,39.0000000000018,0.));
#1655=CARTESIAN_POINT('',(-0.199999999996887,46.5000000000018,1.));
#1656=CARTESIAN_POINT('',(-0.199999999996887,46.5000000000018,0.));
#1657=CARTESIAN_POINT('',(-0.199999999996887,39.0000000000018,1.));
#1658=CARTESIAN_POINT('Origin',(-31.6999999999969,43.2500000000018,0.));
#1659=CARTESIAN_POINT('',(-22.168536077468,39.0000000000018,0.));
#1660=CARTESIAN_POINT('',(-40.3999999999969,39.0000000000018,0.));
#1661=CARTESIAN_POINT('',(-23.168536077468,38.0000000000018,0.));
#1662=CARTESIAN_POINT('Origin',(-22.168536077468,38.0000000000018,0.));
#1663=CARTESIAN_POINT('',(-23.168536077468,0.499999999999396,0.));
#1664=CARTESIAN_POINT('',(-23.168536077468,-0.500000000000609,0.));
#1665=CARTESIAN_POINT('',(-22.168536077468,-0.500000000000604,0.));
#1666=CARTESIAN_POINT('Origin',(-22.168536077468,0.499999999999396,0.));
#1667=CARTESIAN_POINT('',(-18.0000000000019,-0.500000000000603,0.));
#1668=CARTESIAN_POINT('',(-17.0000000000019,-0.500000000000603,0.));
#1669=CARTESIAN_POINT('',(-17.0000000000019,-1.5000000000006,0.));
#1670=CARTESIAN_POINT('Origin',(-18.0000000000019,-1.5000000000006,0.));
#1671=CARTESIAN_POINT('',(-17.0000000000019,-3.50000000000062,0.));
#1672=CARTESIAN_POINT('',(-17.0000000000019,-4.50000000000062,0.));
#1673=CARTESIAN_POINT('',(-16.0000000000019,-4.50000000000062,0.));
#1674=CARTESIAN_POINT('Origin',(-16.0000000000019,-3.50000000000062,0.));
#1675=CARTESIAN_POINT('',(-10.9272110281486,-4.50000000000062,0.));
#1676=CARTESIAN_POINT('',(-9.92721102814864,-4.50000000000063,0.));
#1677=CARTESIAN_POINT('',(-9.92721102814864,-3.50000000000062,0.));
#1678=CARTESIAN_POINT('Origin',(-10.9272110281486,-3.50000000000062,0.));
#1679=CARTESIAN_POINT('',(-9.92721102814864,-2.00000000000063,0.));
#1680=CARTESIAN_POINT('',(-9.92721102814864,-1.00000000000063,0.));
#1681=CARTESIAN_POINT('',(-8.92721102814864,-1.00000000000063,0.));
#1682=CARTESIAN_POINT('Origin',(-8.92721102814864,-2.00000000000063,0.));
#1683=CARTESIAN_POINT('',(-3.72721102814864,-1.00000000000063,0.));
#1684=CARTESIAN_POINT('',(-2.72721102814864,-1.00000000000063,0.));
#1685=CARTESIAN_POINT('',(-2.72721102814864,-2.00000000000063,0.));
#1686=CARTESIAN_POINT('Origin',(-3.72721102814864,-2.00000000000063,0.));
#1687=CARTESIAN_POINT('',(-2.72721102814864,-3.50000000000062,0.));
#1688=CARTESIAN_POINT('',(-2.72721102814864,-4.50000000000063,0.));
#1689=CARTESIAN_POINT('',(-1.72721102814863,-4.50000000000062,0.));
#1690=CARTESIAN_POINT('Origin',(-1.72721102814864,-3.50000000000062,0.));
#1691=CARTESIAN_POINT('',(-1.20000000000188,-4.50000000000062,0.));
#1692=CARTESIAN_POINT('',(-0.200000000001878,-4.50000000000061,0.));
#1693=CARTESIAN_POINT('',(-0.200000000001878,-5.50000000000062,0.));
#1694=CARTESIAN_POINT('Origin',(-1.20000000000188,-5.50000000000062,0.));
#1695=CARTESIAN_POINT('',(-0.200000000001877,-8.00000000000065,0.));
#1696=CARTESIAN_POINT('',(-0.200000000001877,-9.00000000000061,0.));
#1697=CARTESIAN_POINT('',(-1.20000000000188,-9.00000000000065,0.));
#1698=CARTESIAN_POINT('Origin',(-1.20000000000188,-8.00000000000065,0.));
#1699=CARTESIAN_POINT('',(-76.2000000000019,-9.00000000000062,0.));
#1700=CARTESIAN_POINT('',(-77.2000000000019,-9.00000000000062,0.));
#1701=CARTESIAN_POINT('',(-77.2000000000019,-8.00000000000062,0.));
#1702=CARTESIAN_POINT('Origin',(-76.2000000000019,-8.00000000000062,0.));
#1703=CARTESIAN_POINT('',(-77.2000000000019,-1.50000000000061,0.));
#1704=CARTESIAN_POINT('',(-77.2000000000019,10.9999999999994,0.));
#1705=CARTESIAN_POINT('',(-76.2000000000019,-0.50000000000061,0.));
#1706=CARTESIAN_POINT('Origin',(-76.2000000000019,-1.50000000000061,0.));
#1707=CARTESIAN_POINT('',(-35.168536077468,-0.500000000000605,0.));
#1708=CARTESIAN_POINT('',(-17.0000000000019,-0.500000000000603,0.));
#1709=CARTESIAN_POINT('',(-34.168536077468,0.499999999999394,0.));
#1710=CARTESIAN_POINT('Origin',(-35.168536077468,0.499999999999394,0.));
#1711=CARTESIAN_POINT('',(-34.168536077468,38.0000000000018,0.));
#1712=CARTESIAN_POINT('',(-34.168536077468,39.0000000000018,0.));
#1713=CARTESIAN_POINT('',(-35.168536077468,39.0000000000018,0.));
#1714=CARTESIAN_POINT('Origin',(-35.168536077468,38.0000000000018,0.));
#1715=CARTESIAN_POINT('',(-39.3999999999969,39.0000000000018,0.));
#1716=CARTESIAN_POINT('',(-40.3999999999969,39.0000000000018,0.));
#1717=CARTESIAN_POINT('',(-40.3999999999969,40.0000000000018,0.));
#1718=CARTESIAN_POINT('Origin',(-39.3999999999969,40.0000000000018,0.));
#1719=CARTESIAN_POINT('',(-40.3999999999969,41.9000000000028,0.));
#1720=CARTESIAN_POINT('',(-40.3999999999969,42.9000000000028,0.));
#1721=CARTESIAN_POINT('',(-41.3999999999969,42.9000000000028,0.));
#1722=CARTESIAN_POINT('Origin',(-41.3999999999969,41.9000000000028,0.));
#1723=CARTESIAN_POINT('',(-46.5098611267893,42.9000000000028,0.));
#1724=CARTESIAN_POINT('',(-47.5098611267893,42.9000000000028,0.));
#1725=CARTESIAN_POINT('',(-47.5098611267893,41.9000000000028,0.));
#1726=CARTESIAN_POINT('Origin',(-46.5098611267893,41.9000000000028,0.));
#1727=CARTESIAN_POINT('',(-47.5098611267893,40.4000000000021,0.));
#1728=CARTESIAN_POINT('',(-47.5098611267893,39.4000000000021,0.));
#1729=CARTESIAN_POINT('',(-48.5098611267893,39.4000000000021,0.));
#1730=CARTESIAN_POINT('Origin',(-48.5098611267893,40.4000000000021,0.));
#1731=CARTESIAN_POINT('',(-53.5098611267893,39.4000000000021,0.));
#1732=CARTESIAN_POINT('',(-54.5098611267893,39.4000000000021,0.));
#1733=CARTESIAN_POINT('',(-54.5098611267893,40.4000000000021,0.));
#1734=CARTESIAN_POINT('Origin',(-53.5098611267893,40.4000000000021,0.));
#1735=CARTESIAN_POINT('',(-54.5098611267893,41.9000000000028,0.));
#1736=CARTESIAN_POINT('',(-54.5098611267893,42.9000000000028,0.));
#1737=CARTESIAN_POINT('',(-55.5098611267893,42.9000000000028,0.));
#1738=CARTESIAN_POINT('Origin',(-55.5098611267893,41.9000000000028,0.));
#1739=CARTESIAN_POINT('',(-57.9999999999969,42.9000000000028,0.));
#1740=CARTESIAN_POINT('',(-58.9999999999969,42.9000000000028,0.));
#1741=CARTESIAN_POINT('',(-58.9999999999969,41.9000000000028,0.));
#1742=CARTESIAN_POINT('Origin',(-57.9999999999969,41.9000000000028,0.));
#1743=CARTESIAN_POINT('',(-58.9999999999969,40.4000000000021,0.));
#1744=CARTESIAN_POINT('',(-58.9999999999969,39.4000000000021,0.));
#1745=CARTESIAN_POINT('',(-59.9999999999969,39.4000000000021,0.));
#1746=CARTESIAN_POINT('Origin',(-59.9999999999969,40.4000000000021,0.));
#1747=CARTESIAN_POINT('',(-62.1999999999969,39.4000000000021,0.));
#1748=CARTESIAN_POINT('',(-63.1999999999969,39.4000000000021,0.));
#1749=CARTESIAN_POINT('',(-63.1999999999969,40.4000000000021,0.));
#1750=CARTESIAN_POINT('Origin',(-62.1999999999969,40.4000000000021,0.));
#1751=CARTESIAN_POINT('',(-63.1999999999969,46.5000000000018,0.));
#1752=CARTESIAN_POINT('',(-63.1999999999969,47.5000000000018,0.));
#1753=CARTESIAN_POINT('',(-62.1999999999969,47.5000000000018,0.));
#1754=CARTESIAN_POINT('Origin',(-62.1999999999969,46.5000000000018,0.));
#1755=CARTESIAN_POINT('',(-1.19999999999689,47.5000000000018,0.));
#1756=CARTESIAN_POINT('',(-0.199999999996887,47.5000000000018,0.));
#1757=CARTESIAN_POINT('Origin',(-1.19999999999689,46.5000000000018,0.));
#1758=CARTESIAN_POINT('',(-55.5805721549476,-2.74999999999996,0.));
#1759=CARTESIAN_POINT('Origin',(-56.5870721549476,-2.74999999999996,0.));
#1760=CARTESIAN_POINT('',(-6.11699939952185,-5.9999999999999,0.));
#1761=CARTESIAN_POINT('Origin',(-7.12349939952188,-5.9999999999999,0.));
#1762=CARTESIAN_POINT('',(-4.72299999999688,41.1500000000021,0.));
#1763=CARTESIAN_POINT('Origin',(-5.72949999999689,41.1500000000021,0.));
#1764=CARTESIAN_POINT('',(-51.8685397808495,41.1500000000021,0.));
#1765=CARTESIAN_POINT('Origin',(-52.8750397808495,41.1500000000021,0.));
#1766=CARTESIAN_POINT('Origin',(-1.19999999999689,46.5000000000018,0.));
#1767=CARTESIAN_POINT('',(-1.19999999999689,47.5000000000018,1.));
#1768=CARTESIAN_POINT('Origin',(-1.19999999999689,46.5000000000018,1.));
#1769=CARTESIAN_POINT('',(-1.19999999999689,47.5000000000018,0.));
#1770=CARTESIAN_POINT('Origin',(-0.199999999996887,47.5000000000018,0.));
#1771=CARTESIAN_POINT('',(-62.1999999999969,47.5000000000018,1.));
#1772=CARTESIAN_POINT('',(-62.1999999999969,47.5000000000018,0.));
#1773=CARTESIAN_POINT('',(-0.199999999996887,47.5000000000018,1.));
#1774=CARTESIAN_POINT('Origin',(-62.1999999999969,46.5000000000018,0.));
#1775=CARTESIAN_POINT('',(-63.1999999999969,46.5000000000018,1.));
#1776=CARTESIAN_POINT('Origin',(-62.1999999999969,46.5000000000018,1.));
#1777=CARTESIAN_POINT('',(-63.1999999999969,46.5000000000018,0.));
#1778=CARTESIAN_POINT('Origin',(-63.1999999999969,47.5000000000018,0.));
#1779=CARTESIAN_POINT('',(-63.1999999999969,40.4000000000021,1.));
#1780=CARTESIAN_POINT('',(-63.1999999999969,40.4000000000021,0.));
#1781=CARTESIAN_POINT('',(-63.1999999999969,47.5000000000018,1.));
#1782=CARTESIAN_POINT('Origin',(-62.1999999999969,40.4000000000021,0.));
#1783=CARTESIAN_POINT('',(-62.1999999999969,39.4000000000021,1.));
#1784=CARTESIAN_POINT('Origin',(-62.1999999999969,40.4000000000021,1.));
#1785=CARTESIAN_POINT('',(-62.1999999999969,39.4000000000021,0.));
#1786=CARTESIAN_POINT('Origin',(-63.1999999999969,39.4000000000021,0.));
#1787=CARTESIAN_POINT('',(-59.9999999999969,39.4000000000021,1.));
#1788=CARTESIAN_POINT('',(-59.9999999999969,39.4000000000021,0.));
#1789=CARTESIAN_POINT('',(-63.1999999999969,39.4000000000021,1.));
#1790=CARTESIAN_POINT('Origin',(-59.9999999999969,40.4000000000021,0.));
#1791=CARTESIAN_POINT('',(-58.9999999999969,40.4000000000021,1.));
#1792=CARTESIAN_POINT('Origin',(-59.9999999999969,40.4000000000021,1.));
#1793=CARTESIAN_POINT('',(-58.9999999999969,40.4000000000021,0.));
#1794=CARTESIAN_POINT('Origin',(-58.9999999999969,39.4000000000021,0.));
#1795=CARTESIAN_POINT('',(-58.9999999999969,41.9000000000028,1.));
#1796=CARTESIAN_POINT('',(-58.9999999999969,41.9000000000028,0.));
#1797=CARTESIAN_POINT('',(-58.9999999999969,39.4000000000021,1.));
#1798=CARTESIAN_POINT('Origin',(-57.9999999999969,41.9000000000028,0.));
#1799=CARTESIAN_POINT('',(-57.9999999999969,42.9000000000028,1.));
#1800=CARTESIAN_POINT('',(-57.9999999999969,42.9000000000028,0.));
#1801=CARTESIAN_POINT('Origin',(-57.9999999999969,41.9000000000028,1.));
#1802=CARTESIAN_POINT('Origin',(-58.9999999999969,42.9000000000028,0.));
#1803=CARTESIAN_POINT('',(-55.5098611267893,42.9000000000028,1.));
#1804=CARTESIAN_POINT('',(-55.5098611267893,42.9000000000028,0.));
#1805=CARTESIAN_POINT('',(-58.9999999999969,42.9000000000028,1.));
#1806=CARTESIAN_POINT('Origin',(-55.5098611267893,41.9000000000028,0.));
#1807=CARTESIAN_POINT('',(-54.5098611267893,41.9000000000028,1.));
#1808=CARTESIAN_POINT('',(-54.5098611267893,41.9000000000028,0.));
#1809=CARTESIAN_POINT('Origin',(-55.5098611267893,41.9000000000028,1.));
#1810=CARTESIAN_POINT('Origin',(-54.5098611267893,42.9000000000028,0.));
#1811=CARTESIAN_POINT('',(-54.5098611267893,40.4000000000021,1.));
#1812=CARTESIAN_POINT('',(-54.5098611267893,40.4000000000021,0.));
#1813=CARTESIAN_POINT('',(-54.5098611267893,42.9000000000028,1.));
#1814=CARTESIAN_POINT('Origin',(-53.5098611267893,40.4000000000021,0.));
#1815=CARTESIAN_POINT('',(-53.5098611267893,39.4000000000021,1.));
#1816=CARTESIAN_POINT('Origin',(-53.5098611267893,40.4000000000021,1.));
#1817=CARTESIAN_POINT('',(-53.5098611267893,39.4000000000021,0.));
#1818=CARTESIAN_POINT('Origin',(-54.5098611267893,39.4000000000021,0.));
#1819=CARTESIAN_POINT('',(-48.5098611267893,39.4000000000021,1.));
#1820=CARTESIAN_POINT('',(-48.5098611267893,39.4000000000021,0.));
#1821=CARTESIAN_POINT('',(-54.5098611267893,39.4000000000021,1.));
#1822=CARTESIAN_POINT('Origin',(-48.5098611267893,40.4000000000021,0.));
#1823=CARTESIAN_POINT('',(-47.5098611267893,40.4000000000021,1.));
#1824=CARTESIAN_POINT('Origin',(-48.5098611267893,40.4000000000021,1.));
#1825=CARTESIAN_POINT('',(-47.5098611267893,40.4000000000021,0.));
#1826=CARTESIAN_POINT('Origin',(-47.5098611267893,39.4000000000021,0.));
#1827=CARTESIAN_POINT('',(-47.5098611267893,41.9000000000028,1.));
#1828=CARTESIAN_POINT('',(-47.5098611267893,41.9000000000028,0.));
#1829=CARTESIAN_POINT('',(-47.5098611267893,39.4000000000021,1.));
#1830=CARTESIAN_POINT('Origin',(-46.5098611267893,41.9000000000028,0.));
#1831=CARTESIAN_POINT('',(-46.5098611267893,42.9000000000028,1.));
#1832=CARTESIAN_POINT('',(-46.5098611267893,42.9000000000028,0.));
#1833=CARTESIAN_POINT('Origin',(-46.5098611267893,41.9000000000028,1.));
#1834=CARTESIAN_POINT('Origin',(-47.5098611267893,42.9000000000028,0.));
#1835=CARTESIAN_POINT('',(-41.3999999999969,42.9000000000028,1.));
#1836=CARTESIAN_POINT('',(-41.3999999999969,42.9000000000028,0.));
#1837=CARTESIAN_POINT('',(-47.5098611267893,42.9000000000028,1.));
#1838=CARTESIAN_POINT('Origin',(-41.3999999999969,41.9000000000028,0.));
#1839=CARTESIAN_POINT('',(-40.3999999999969,41.9000000000028,1.));
#1840=CARTESIAN_POINT('',(-40.3999999999969,41.9000000000028,0.));
#1841=CARTESIAN_POINT('Origin',(-41.3999999999969,41.9000000000028,1.));
#1842=CARTESIAN_POINT('Origin',(-40.3999999999969,42.9000000000028,0.));
#1843=CARTESIAN_POINT('',(-40.3999999999969,40.0000000000018,1.));
#1844=CARTESIAN_POINT('',(-40.3999999999969,40.0000000000018,0.));
#1845=CARTESIAN_POINT('',(-40.3999999999969,42.9000000000028,1.));
#1846=CARTESIAN_POINT('Origin',(-39.3999999999969,40.0000000000018,0.));
#1847=CARTESIAN_POINT('',(-39.3999999999969,39.0000000000018,1.));
#1848=CARTESIAN_POINT('Origin',(-39.3999999999969,40.0000000000018,1.));
#1849=CARTESIAN_POINT('',(-39.3999999999969,39.0000000000018,0.));
#1850=CARTESIAN_POINT('Origin',(-40.3999999999969,39.0000000000018,0.));
#1851=CARTESIAN_POINT('',(-35.168536077468,39.0000000000018,1.));
#1852=CARTESIAN_POINT('',(-35.168536077468,39.0000000000018,0.));
#1853=CARTESIAN_POINT('',(-40.3999999999969,39.0000000000018,1.));
#1854=CARTESIAN_POINT('Origin',(-35.168536077468,38.0000000000018,0.));
#1855=CARTESIAN_POINT('',(-34.168536077468,38.0000000000018,1.));
#1856=CARTESIAN_POINT('',(-34.168536077468,38.0000000000018,0.));
#1857=CARTESIAN_POINT('Origin',(-35.168536077468,38.0000000000018,1.));
#1858=CARTESIAN_POINT('Origin',(-34.168536077468,39.0000000000018,0.));
#1859=CARTESIAN_POINT('',(-34.168536077468,0.499999999999394,1.));
#1860=CARTESIAN_POINT('',(-34.168536077468,0.499999999999394,0.));
#1861=CARTESIAN_POINT('',(-34.168536077468,39.0000000000018,1.));
#1862=CARTESIAN_POINT('Origin',(-35.168536077468,0.499999999999394,0.));
#1863=CARTESIAN_POINT('',(-35.168536077468,-0.500000000000605,1.));
#1864=CARTESIAN_POINT('',(-35.168536077468,-0.500000000000605,0.));
#1865=CARTESIAN_POINT('Origin',(-35.168536077468,0.499999999999394,1.));
#1866=CARTESIAN_POINT('Origin',(-34.168536077468,-0.500000000000605,0.));
#1867=CARTESIAN_POINT('',(-76.2000000000019,-0.50000000000061,1.));
#1868=CARTESIAN_POINT('',(-76.2000000000019,-0.50000000000061,0.));
#1869=CARTESIAN_POINT('',(-17.0000000000019,-0.500000000000603,1.));
#1870=CARTESIAN_POINT('Origin',(-76.2000000000019,-1.50000000000061,0.));
#1871=CARTESIAN_POINT('',(-77.2000000000019,-1.50000000000061,1.));
#1872=CARTESIAN_POINT('Origin',(-76.2000000000019,-1.50000000000061,1.));
#1873=CARTESIAN_POINT('',(-77.2000000000019,-1.50000000000061,0.));
#1874=CARTESIAN_POINT('Origin',(-77.2000000000019,-0.500000000000611,0.));
#1875=CARTESIAN_POINT('',(-77.2000000000019,-8.00000000000062,1.));
#1876=CARTESIAN_POINT('',(-77.2000000000019,-8.00000000000062,0.));
#1877=CARTESIAN_POINT('',(-77.2000000000019,10.9999999999994,1.));
#1878=CARTESIAN_POINT('Origin',(-76.2000000000019,-8.00000000000062,0.));
#1879=CARTESIAN_POINT('',(-76.2000000000019,-9.00000000000062,1.));
#1880=CARTESIAN_POINT('Origin',(-76.2000000000019,-8.00000000000062,1.));
#1881=CARTESIAN_POINT('',(-76.2000000000019,-9.00000000000062,0.));
#1882=CARTESIAN_POINT('Origin',(-77.2000000000019,-9.00000000000062,0.));
#1883=CARTESIAN_POINT('',(-1.20000000000188,-9.00000000000065,1.));
#1884=CARTESIAN_POINT('',(-1.20000000000188,-9.00000000000065,0.));
#1885=CARTESIAN_POINT('',(-77.2000000000019,-9.00000000000062,1.));
#1886=CARTESIAN_POINT('Origin',(-1.20000000000188,-8.00000000000065,0.));
#1887=CARTESIAN_POINT('',(-0.200000000001877,-8.00000000000065,1.));
#1888=CARTESIAN_POINT('Origin',(-1.20000000000188,-8.00000000000065,1.));
#1889=CARTESIAN_POINT('',(-0.200000000001877,-8.00000000000065,0.));
#1890=CARTESIAN_POINT('Origin',(-0.200000000001877,-9.00000000000061,0.));
#1891=CARTESIAN_POINT('',(-0.200000000001878,-5.50000000000062,1.));
#1892=CARTESIAN_POINT('',(-0.200000000001878,-5.50000000000062,0.));
#1893=CARTESIAN_POINT('',(-0.200000000001877,-9.00000000000061,1.));
#1894=CARTESIAN_POINT('Origin',(-1.20000000000188,-5.50000000000062,0.));
#1895=CARTESIAN_POINT('',(-1.20000000000188,-4.50000000000062,1.));
#1896=CARTESIAN_POINT('Origin',(-1.20000000000188,-5.50000000000062,1.));
#1897=CARTESIAN_POINT('',(-1.20000000000188,-4.50000000000062,0.));
#1898=CARTESIAN_POINT('Origin',(-0.200000000001878,-4.50000000000061,0.));
#1899=CARTESIAN_POINT('',(-1.72721102814863,-4.50000000000062,1.));
#1900=CARTESIAN_POINT('',(-1.72721102814863,-4.50000000000062,0.));
#1901=CARTESIAN_POINT('',(-0.200000000001878,-4.50000000000061,1.));
#1902=CARTESIAN_POINT('Origin',(-1.72721102814864,-3.50000000000062,0.));
#1903=CARTESIAN_POINT('',(-2.72721102814864,-3.50000000000062,1.));
#1904=CARTESIAN_POINT('',(-2.72721102814864,-3.50000000000062,0.));
#1905=CARTESIAN_POINT('Origin',(-1.72721102814864,-3.50000000000062,1.));
#1906=CARTESIAN_POINT('Origin',(-2.72721102814864,-4.50000000000063,0.));
#1907=CARTESIAN_POINT('',(-2.72721102814864,-2.00000000000063,1.));
#1908=CARTESIAN_POINT('',(-2.72721102814864,-2.00000000000063,0.));
#1909=CARTESIAN_POINT('',(-2.72721102814864,-4.50000000000063,1.));
#1910=CARTESIAN_POINT('Origin',(-10.9272110281486,-3.50000000000062,0.));
#1911=CARTESIAN_POINT('',(-10.9272110281486,-4.50000000000062,1.));
#1912=CARTESIAN_POINT('',(-10.9272110281486,-4.50000000000062,0.));
#1913=CARTESIAN_POINT('',(-9.92721102814864,-3.50000000000062,1.));
#1914=CARTESIAN_POINT('Origin',(-10.9272110281486,-3.50000000000062,1.));
#1915=CARTESIAN_POINT('',(-9.92721102814864,-3.50000000000062,0.));
#1916=CARTESIAN_POINT('Origin',(-9.92721102814864,-4.50000000000063,0.));
#1917=CARTESIAN_POINT('',(-16.0000000000019,-4.50000000000062,1.));
#1918=CARTESIAN_POINT('',(-16.0000000000019,-4.50000000000062,0.));
#1919=CARTESIAN_POINT('',(-9.92721102814864,-4.50000000000063,1.));
#1920=CARTESIAN_POINT('Origin',(-8.92721102814864,-2.00000000000063,0.));
#1921=CARTESIAN_POINT('',(-9.92721102814864,-2.00000000000063,1.));
#1922=CARTESIAN_POINT('',(-8.92721102814864,-1.00000000000063,1.));
#1923=CARTESIAN_POINT('Origin',(-8.92721102814864,-2.00000000000063,1.));
#1924=CARTESIAN_POINT('',(-8.92721102814864,-1.00000000000063,0.));
#1925=CARTESIAN_POINT('',(-9.92721102814864,-2.00000000000063,0.));
#1926=CARTESIAN_POINT('Origin',(-2.72721102814864,-1.00000000000063,0.));
#1927=CARTESIAN_POINT('',(-3.72721102814864,-1.00000000000063,1.));
#1928=CARTESIAN_POINT('',(-2.72721102814864,-1.00000000000063,1.));
#1929=CARTESIAN_POINT('',(-3.72721102814864,-1.00000000000063,0.));
#1930=CARTESIAN_POINT('Origin',(-3.72721102814864,-2.00000000000063,0.));
#1931=CARTESIAN_POINT('Origin',(-3.72721102814864,-2.00000000000063,1.));
#1932=CARTESIAN_POINT('Origin',(-16.0000000000019,-3.50000000000062,0.));
#1933=CARTESIAN_POINT('',(-17.0000000000019,-3.50000000000062,1.));
#1934=CARTESIAN_POINT('',(-17.0000000000019,-3.50000000000062,0.));
#1935=CARTESIAN_POINT('Origin',(-16.0000000000019,-3.50000000000062,1.));
#1936=CARTESIAN_POINT('Origin',(-17.0000000000019,-4.50000000000062,0.));
#1937=CARTESIAN_POINT('',(-17.0000000000019,-1.5000000000006,1.));
#1938=CARTESIAN_POINT('',(-17.0000000000019,-1.5000000000006,0.));
#1939=CARTESIAN_POINT('',(-17.0000000000019,-4.50000000000062,1.));
#1940=CARTESIAN_POINT('Origin',(-18.0000000000019,-1.5000000000006,0.));
#1941=CARTESIAN_POINT('',(-18.0000000000019,-0.500000000000603,1.));
#1942=CARTESIAN_POINT('Origin',(-18.0000000000019,-1.5000000000006,1.));
#1943=CARTESIAN_POINT('',(-18.0000000000019,-0.500000000000603,0.));
#1944=CARTESIAN_POINT('Origin',(-22.168536077468,0.499999999999396,0.));
#1945=CARTESIAN_POINT('',(-23.168536077468,0.499999999999396,1.));
#1946=CARTESIAN_POINT('',(-23.168536077468,0.499999999999396,0.));
#1947=CARTESIAN_POINT('',(-22.168536077468,-0.500000000000604,1.));
#1948=CARTESIAN_POINT('Origin',(-22.168536077468,0.499999999999396,1.));
#1949=CARTESIAN_POINT('',(-22.168536077468,-0.500000000000604,0.));
#1950=CARTESIAN_POINT('Origin',(-23.168536077468,-0.500000000000609,0.));
#1951=CARTESIAN_POINT('',(-23.168536077468,38.0000000000018,1.));
#1952=CARTESIAN_POINT('',(-23.168536077468,38.0000000000018,0.));
#1953=CARTESIAN_POINT('',(-23.168536077468,-0.500000000000609,1.));
#1954=CARTESIAN_POINT('Origin',(-22.168536077468,38.0000000000018,0.));
#1955=CARTESIAN_POINT('',(-22.168536077468,39.0000000000018,1.));
#1956=CARTESIAN_POINT('',(-22.168536077468,39.0000000000018,0.));
#1957=CARTESIAN_POINT('Origin',(-22.168536077468,38.0000000000018,1.));
#1958=CARTESIAN_POINT('Origin',(-23.168536077468,39.0000000000018,0.));
#1959=CARTESIAN_POINT('',(-40.3999999999969,39.0000000000018,1.));
#1960=CARTESIAN_POINT('Origin',(-56.5870721549476,-2.74999999999996,0.));
#1961=CARTESIAN_POINT('',(-55.5805721549476,-2.74999999999996,1.));
#1962=CARTESIAN_POINT('Origin',(-56.5870721549476,-2.74999999999996,1.));
#1963=CARTESIAN_POINT('',(-55.5805721549476,-2.74999999999996,0.));
#1964=CARTESIAN_POINT('Origin',(-7.12349939952188,-5.9999999999999,0.));
#1965=CARTESIAN_POINT('',(-6.11699939952185,-5.9999999999999,1.));
#1966=CARTESIAN_POINT('Origin',(-7.12349939952188,-5.9999999999999,1.));
#1967=CARTESIAN_POINT('',(-6.11699939952185,-5.9999999999999,0.));
#1968=CARTESIAN_POINT('Origin',(-5.72949999999689,41.1500000000021,0.));
#1969=CARTESIAN_POINT('',(-4.72299999999688,41.1500000000021,1.));
#1970=CARTESIAN_POINT('Origin',(-5.72949999999689,41.1500000000021,1.));
#1971=CARTESIAN_POINT('',(-4.72299999999688,41.1500000000021,0.));
#1972=CARTESIAN_POINT('Origin',(-52.8750397808495,41.1500000000021,0.));
#1973=CARTESIAN_POINT('',(-51.8685397808495,41.1500000000021,1.));
#1974=CARTESIAN_POINT('Origin',(-52.8750397808495,41.1500000000021,1.));
#1975=CARTESIAN_POINT('',(-51.8685397808495,41.1500000000021,0.));
#1976=CARTESIAN_POINT('Origin',(-17.0000000000019,-0.500000000000603,0.));
#1977=CARTESIAN_POINT('',(-17.0000000000019,-0.500000000000603,1.));
#1978=CARTESIAN_POINT('Origin',(-9.92721102814864,-1.00000000000063,0.));
#1979=CARTESIAN_POINT('',(-9.92721102814864,-1.00000000000063,1.));
#1980=CARTESIAN_POINT('Origin',(-31.6999999999969,43.2500000000018,1.));
#1981=UNCERTAINTY_MEASURE_WITH_UNIT(LENGTH_MEASURE(0.01),#1985,
'DISTANCE_ACCURACY_VALUE',
'Maximum model space distance between geometric entities at asserted c
onnectivities');
#1982=UNCERTAINTY_MEASURE_WITH_UNIT(LENGTH_MEASURE(0.01),#1985,
'DISTANCE_ACCURACY_VALUE',
'Maximum model space distance between geometric entities at asserted c
onnectivities');
#1983=(
GEOMETRIC_REPRESENTATION_CONTEXT(3)
GLOBAL_UNCERTAINTY_ASSIGNED_CONTEXT((#1981))
GLOBAL_UNIT_ASSIGNED_CONTEXT((#1985,#1987,#1988))
REPRESENTATION_CONTEXT('','3D')
);
#1984=(
GEOMETRIC_REPRESENTATION_CONTEXT(3)
GLOBAL_UNCERTAINTY_ASSIGNED_CONTEXT((#1982))
GLOBAL_UNIT_ASSIGNED_CONTEXT((#1985,#1987,#1988))
REPRESENTATION_CONTEXT('','3D')
);
#1985=(
LENGTH_UNIT()
NAMED_UNIT(*)
SI_UNIT(.MILLI.,.METRE.)
);
#1986=(
LENGTH_UNIT()
NAMED_UNIT(*)
SI_UNIT(.CENTI.,.METRE.)
);
#1987=(
NAMED_UNIT(*)
PLANE_ANGLE_UNIT()
SI_UNIT($,.RADIAN.)
);
#1988=(
NAMED_UNIT(*)
SI_UNIT($,.STERADIAN.)
SOLID_ANGLE_UNIT()
);
#1989=SHAPE_DEFINITION_REPRESENTATION(#1990,#1991);
#1990=PRODUCT_DEFINITION_SHAPE('',$,#1993);
#1991=SHAPE_REPRESENTATION('',(#1177),#1983);
#1992=PRODUCT_DEFINITION_CONTEXT('part definition',#1997,'design');
#1993=PRODUCT_DEFINITION('PCB_interface_v2','PCB_interface_v2',#1994,#1992);
#1994=PRODUCT_DEFINITION_FORMATION('',$,#1999);
#1995=PRODUCT_RELATED_PRODUCT_CATEGORY('PCB_interface_v2',
'PCB_interface_v2',(#1999));
#1996=APPLICATION_PROTOCOL_DEFINITION('international standard',
'automotive_design',2009,#1997);
#1997=APPLICATION_CONTEXT(
'Core Data for Automotive Mechanical Design Process');
#1998=PRODUCT_CONTEXT('part definition',#1997,'mechanical');
#1999=PRODUCT('PCB_interface_v2','PCB_interface_v2',$,(#1998));
#2000=PRESENTATION_STYLE_ASSIGNMENT((#2001));
#2001=SURFACE_STYLE_USAGE(.BOTH.,#2004);
#2002=SURFACE_STYLE_RENDERING_WITH_PROPERTIES($,#2008,(#2003));
#2003=SURFACE_STYLE_TRANSPARENT(0.);
#2004=SURFACE_SIDE_STYLE('',(#2005,#2002));
#2005=SURFACE_STYLE_FILL_AREA(#2006);
#2006=FILL_AREA_STYLE('',(#2007));
#2007=FILL_AREA_STYLE_COLOUR('',#2008);
#2008=COLOUR_RGB('',0.749019607843137,0.749019607843137,0.749019607843137);
ENDSEC;
END-ISO-10303-21;
