ISO-10303-21;
HEADER;
/* Generated by software containing ST-Developer
 * from STEP Tools, Inc. (www.steptools.com) 
 */

FILE_DESCRIPTION(
/* description */ (''),
/* implementation_level */ '2;1');

FILE_NAME(
/* name */ 'PCB_InterfaceBoard.stp',
/* time_stamp */ '2026-04-14T20:39:27+02:00',
/* author */ ('szymo'),
/* organization */ (''),
/* preprocessor_version */ 'ST-DEVELOPER v20.1',
/* originating_system */ 'Autodesk Inventor 2026',
/* authorisation */ '');

FILE_SCHEMA (('AUTOMOTIVE_DESIGN { 1 0 10303 214 3 1 1 }'));
ENDSEC;

DATA;
#10=MECHANICAL_DESIGN_GEOMETRIC_PRESENTATION_REPRESENTATION('',(#13),#1576);
#11=SHAPE_REPRESENTATION_RELATIONSHIP('SRR','None',#1583,#12);
#12=ADVANCED_BREP_SHAPE_REPRESENTATION('',(#14),#1575);
#13=STYLED_ITEM('',(#1592),#14);
#14=MANIFOLD_SOLID_BREP('Solid1',#915);
#15=FACE_BOUND('',#98,.T.);
#16=FACE_BOUND('',#99,.T.);
#17=FACE_BOUND('',#100,.T.);
#18=FACE_BOUND('',#101,.T.);
#19=FACE_BOUND('',#141,.T.);
#20=FACE_BOUND('',#142,.T.);
#21=FACE_BOUND('',#143,.T.);
#22=FACE_BOUND('',#144,.T.);
#23=PLANE('',#941);
#24=PLANE('',#945);
#25=PLANE('',#949);
#26=PLANE('',#950);
#27=PLANE('',#974);
#28=PLANE('',#977);
#29=PLANE('',#980);
#30=PLANE('',#983);
#31=PLANE('',#986);
#32=PLANE('',#989);
#33=PLANE('',#992);
#34=PLANE('',#995);
#35=PLANE('',#998);
#36=PLANE('',#1001);
#37=PLANE('',#1004);
#38=PLANE('',#1007);
#39=PLANE('',#1010);
#40=PLANE('',#1013);
#41=PLANE('',#1016);
#42=PLANE('',#1019);
#43=PLANE('',#1030);
#44=PLANE('',#1031);
#45=FACE_OUTER_BOUND('',#91,.T.);
#46=FACE_OUTER_BOUND('',#92,.T.);
#47=FACE_OUTER_BOUND('',#93,.T.);
#48=FACE_OUTER_BOUND('',#94,.T.);
#49=FACE_OUTER_BOUND('',#95,.T.);
#50=FACE_OUTER_BOUND('',#96,.T.);
#51=FACE_OUTER_BOUND('',#97,.T.);
#52=FACE_OUTER_BOUND('',#102,.T.);
#53=FACE_OUTER_BOUND('',#103,.T.);
#54=FACE_OUTER_BOUND('',#104,.T.);
#55=FACE_OUTER_BOUND('',#105,.T.);
#56=FACE_OUTER_BOUND('',#106,.T.);
#57=FACE_OUTER_BOUND('',#107,.T.);
#58=FACE_OUTER_BOUND('',#108,.T.);
#59=FACE_OUTER_BOUND('',#109,.T.);
#60=FACE_OUTER_BOUND('',#110,.T.);
#61=FACE_OUTER_BOUND('',#111,.T.);
#62=FACE_OUTER_BOUND('',#112,.T.);
#63=FACE_OUTER_BOUND('',#113,.T.);
#64=FACE_OUTER_BOUND('',#114,.T.);
#65=FACE_OUTER_BOUND('',#115,.T.);
#66=FACE_OUTER_BOUND('',#116,.T.);
#67=FACE_OUTER_BOUND('',#117,.T.);
#68=FACE_OUTER_BOUND('',#118,.T.);
#69=FACE_OUTER_BOUND('',#119,.T.);
#70=FACE_OUTER_BOUND('',#120,.T.);
#71=FACE_OUTER_BOUND('',#121,.T.);
#72=FACE_OUTER_BOUND('',#122,.T.);
#73=FACE_OUTER_BOUND('',#123,.T.);
#74=FACE_OUTER_BOUND('',#124,.T.);
#75=FACE_OUTER_BOUND('',#125,.T.);
#76=FACE_OUTER_BOUND('',#126,.T.);
#77=FACE_OUTER_BOUND('',#127,.T.);
#78=FACE_OUTER_BOUND('',#128,.T.);
#79=FACE_OUTER_BOUND('',#129,.T.);
#80=FACE_OUTER_BOUND('',#130,.T.);
#81=FACE_OUTER_BOUND('',#131,.T.);
#82=FACE_OUTER_BOUND('',#132,.T.);
#83=FACE_OUTER_BOUND('',#133,.T.);
#84=FACE_OUTER_BOUND('',#134,.T.);
#85=FACE_OUTER_BOUND('',#135,.T.);
#86=FACE_OUTER_BOUND('',#136,.T.);
#87=FACE_OUTER_BOUND('',#137,.T.);
#88=FACE_OUTER_BOUND('',#138,.T.);
#89=FACE_OUTER_BOUND('',#139,.T.);
#90=FACE_OUTER_BOUND('',#140,.T.);
#91=EDGE_LOOP('',(#581,#582,#583,#584));
#92=EDGE_LOOP('',(#585,#586,#587,#588));
#93=EDGE_LOOP('',(#589,#590,#591,#592));
#94=EDGE_LOOP('',(#593,#594,#595,#596));
#95=EDGE_LOOP('',(#597,#598,#599,#600));
#96=EDGE_LOOP('',(#601,#602,#603,#604));
#97=EDGE_LOOP('',(#605,#606,#607,#608,#609,#610,#611,#612,#613,#614,#615,
#616,#617,#618,#619,#620,#621,#622,#623,#624,#625,#626,#627,#628,#629,#630,
#631,#632,#633,#634,#635,#636,#637,#638,#639,#640,#641,#642,#643,#644));
#98=EDGE_LOOP('',(#645));
#99=EDGE_LOOP('',(#646));
#100=EDGE_LOOP('',(#647));
#101=EDGE_LOOP('',(#648));
#102=EDGE_LOOP('',(#649,#650,#651,#652));
#103=EDGE_LOOP('',(#653,#654,#655,#656));
#104=EDGE_LOOP('',(#657,#658,#659,#660));
#105=EDGE_LOOP('',(#661,#662,#663,#664));
#106=EDGE_LOOP('',(#665,#666,#667,#668));
#107=EDGE_LOOP('',(#669,#670,#671,#672));
#108=EDGE_LOOP('',(#673,#674,#675,#676));
#109=EDGE_LOOP('',(#677,#678,#679,#680));
#110=EDGE_LOOP('',(#681,#682,#683,#684));
#111=EDGE_LOOP('',(#685,#686,#687,#688));
#112=EDGE_LOOP('',(#689,#690,#691,#692));
#113=EDGE_LOOP('',(#693,#694,#695,#696));
#114=EDGE_LOOP('',(#697,#698,#699,#700));
#115=EDGE_LOOP('',(#701,#702,#703,#704));
#116=EDGE_LOOP('',(#705,#706,#707,#708));
#117=EDGE_LOOP('',(#709,#710,#711,#712));
#118=EDGE_LOOP('',(#713,#714,#715,#716));
#119=EDGE_LOOP('',(#717,#718,#719,#720));
#120=EDGE_LOOP('',(#721,#722,#723,#724));
#121=EDGE_LOOP('',(#725,#726,#727,#728));
#122=EDGE_LOOP('',(#729,#730,#731,#732));
#123=EDGE_LOOP('',(#733,#734,#735,#736));
#124=EDGE_LOOP('',(#737,#738,#739,#740));
#125=EDGE_LOOP('',(#741,#742,#743,#744));
#126=EDGE_LOOP('',(#745,#746,#747,#748));
#127=EDGE_LOOP('',(#749,#750,#751,#752));
#128=EDGE_LOOP('',(#753,#754,#755,#756));
#129=EDGE_LOOP('',(#757,#758,#759,#760));
#130=EDGE_LOOP('',(#761,#762,#763,#764));
#131=EDGE_LOOP('',(#765,#766,#767,#768));
#132=EDGE_LOOP('',(#769,#770,#771,#772));
#133=EDGE_LOOP('',(#773,#774,#775,#776));
#134=EDGE_LOOP('',(#777,#778,#779,#780));
#135=EDGE_LOOP('',(#781,#782,#783,#784));
#136=EDGE_LOOP('',(#785,#786,#787,#788));
#137=EDGE_LOOP('',(#789,#790,#791,#792));
#138=EDGE_LOOP('',(#793,#794,#795,#796));
#139=EDGE_LOOP('',(#797,#798,#799,#800));
#140=EDGE_LOOP('',(#801,#802,#803,#804,#805,#806,#807,#808,#809,#810,#811,
#812,#813,#814,#815,#816,#817,#818,#819,#820,#821,#822,#823,#824,#825,#826,
#827,#828,#829,#830,#831,#832,#833,#834,#835,#836,#837,#838,#839,#840));
#141=EDGE_LOOP('',(#841));
#142=EDGE_LOOP('',(#842));
#143=EDGE_LOOP('',(#843));
#144=EDGE_LOOP('',(#844));
#145=LINE('',#1312,#229);
#146=LINE('',#1315,#230);
#147=LINE('',#1318,#231);
#148=LINE('',#1320,#232);
#149=LINE('',#1321,#233);
#150=LINE('',#1326,#234);
#151=LINE('',#1330,#235);
#152=LINE('',#1332,#236);
#153=LINE('',#1333,#237);
#154=LINE('',#1339,#238);
#155=LINE('',#1342,#239);
#156=LINE('',#1344,#240);
#157=LINE('',#1345,#241);
#158=LINE('',#1348,#242);
#159=LINE('',#1352,#243);
#160=LINE('',#1356,#244);
#161=LINE('',#1360,#245);
#162=LINE('',#1364,#246);
#163=LINE('',#1368,#247);
#164=LINE('',#1372,#248);
#165=LINE('',#1376,#249);
#166=LINE('',#1380,#250);
#167=LINE('',#1384,#251);
#168=LINE('',#1388,#252);
#169=LINE('',#1392,#253);
#170=LINE('',#1396,#254);
#171=LINE('',#1400,#255);
#172=LINE('',#1404,#256);
#173=LINE('',#1408,#257);
#174=LINE('',#1412,#258);
#175=LINE('',#1425,#259);
#176=LINE('',#1428,#260);
#177=LINE('',#1429,#261);
#178=LINE('',#1432,#262);
#179=LINE('',#1436,#263);
#180=LINE('',#1437,#264);
#181=LINE('',#1440,#265);
#182=LINE('',#1444,#266);
#183=LINE('',#1445,#267);
#184=LINE('',#1449,#268);
#185=LINE('',#1452,#269);
#186=LINE('',#1453,#270);
#187=LINE('',#1457,#271);
#188=LINE('',#1460,#272);
#189=LINE('',#1461,#273);
#190=LINE('',#1465,#274);
#191=LINE('',#1468,#275);
#192=LINE('',#1469,#276);
#193=LINE('',#1473,#277);
#194=LINE('',#1476,#278);
#195=LINE('',#1477,#279);
#196=LINE('',#1480,#280);
#197=LINE('',#1484,#281);
#198=LINE('',#1485,#282);
#199=LINE('',#1488,#283);
#200=LINE('',#1492,#284);
#201=LINE('',#1493,#285);
#202=LINE('',#1497,#286);
#203=LINE('',#1500,#287);
#204=LINE('',#1501,#288);
#205=LINE('',#1505,#289);
#206=LINE('',#1508,#290);
#207=LINE('',#1509,#291);
#208=LINE('',#1512,#292);
#209=LINE('',#1516,#293);
#210=LINE('',#1517,#294);
#211=LINE('',#1520,#295);
#212=LINE('',#1524,#296);
#213=LINE('',#1525,#297);
#214=LINE('',#1529,#298);
#215=LINE('',#1532,#299);
#216=LINE('',#1533,#300);
#217=LINE('',#1537,#301);
#218=LINE('',#1540,#302);
#219=LINE('',#1541,#303);
#220=LINE('',#1546,#304);
#221=LINE('',#1547,#305);
#222=LINE('',#1549,#306);
#223=LINE('',#1553,#307);
#224=LINE('',#1557,#308);
#225=LINE('',#1561,#309);
#226=LINE('',#1565,#310);
#227=LINE('',#1569,#311);
#228=LINE('',#1571,#312);
#229=VECTOR('',#1038,10.);
#230=VECTOR('',#1041,10.);
#231=VECTOR('',#1044,10.);
#232=VECTOR('',#1045,10.);
#233=VECTOR('',#1046,10.);
#234=VECTOR('',#1051,10.);
#235=VECTOR('',#1056,10.);
#236=VECTOR('',#1057,10.);
#237=VECTOR('',#1058,10.);
#238=VECTOR('',#1065,10.);
#239=VECTOR('',#1068,10.);
#240=VECTOR('',#1069,10.);
#241=VECTOR('',#1070,10.);
#242=VECTOR('',#1073,10.);
#243=VECTOR('',#1076,10.);
#244=VECTOR('',#1079,10.);
#245=VECTOR('',#1082,10.);
#246=VECTOR('',#1085,10.);
#247=VECTOR('',#1088,10.);
#248=VECTOR('',#1091,10.);
#249=VECTOR('',#1094,10.);
#250=VECTOR('',#1097,10.);
#251=VECTOR('',#1100,10.);
#252=VECTOR('',#1103,10.);
#253=VECTOR('',#1106,10.);
#254=VECTOR('',#1109,10.);
#255=VECTOR('',#1112,10.);
#256=VECTOR('',#1115,10.);
#257=VECTOR('',#1118,10.);
#258=VECTOR('',#1121,10.);
#259=VECTOR('',#1136,10.);
#260=VECTOR('',#1139,10.);
#261=VECTOR('',#1140,10.);
#262=VECTOR('',#1143,10.);
#263=VECTOR('',#1148,10.);
#264=VECTOR('',#1149,10.);
#265=VECTOR('',#1152,10.);
#266=VECTOR('',#1157,10.);
#267=VECTOR('',#1158,10.);
#268=VECTOR('',#1163,10.);
#269=VECTOR('',#1166,10.);
#270=VECTOR('',#1167,10.);
#271=VECTOR('',#1172,10.);
#272=VECTOR('',#1175,10.);
#273=VECTOR('',#1176,10.);
#274=VECTOR('',#1181,10.);
#275=VECTOR('',#1184,10.);
#276=VECTOR('',#1185,10.);
#277=VECTOR('',#1190,10.);
#278=VECTOR('',#1193,10.);
#279=VECTOR('',#1194,10.);
#280=VECTOR('',#1197,10.);
#281=VECTOR('',#1202,10.);
#282=VECTOR('',#1203,10.);
#283=VECTOR('',#1206,10.);
#284=VECTOR('',#1211,10.);
#285=VECTOR('',#1212,10.);
#286=VECTOR('',#1217,10.);
#287=VECTOR('',#1220,10.);
#288=VECTOR('',#1221,10.);
#289=VECTOR('',#1226,10.);
#290=VECTOR('',#1229,10.);
#291=VECTOR('',#1230,10.);
#292=VECTOR('',#1233,10.);
#293=VECTOR('',#1238,10.);
#294=VECTOR('',#1239,10.);
#295=VECTOR('',#1242,10.);
#296=VECTOR('',#1247,10.);
#297=VECTOR('',#1248,10.);
#298=VECTOR('',#1253,10.);
#299=VECTOR('',#1256,10.);
#300=VECTOR('',#1257,10.);
#301=VECTOR('',#1262,10.);
#302=VECTOR('',#1265,10.);
#303=VECTOR('',#1266,10.);
#304=VECTOR('',#1271,10.);
#305=VECTOR('',#1272,10.);
#306=VECTOR('',#1275,10.);
#307=VECTOR('',#1280,10.);
#308=VECTOR('',#1285,1.25);
#309=VECTOR('',#1290,1.25);
#310=VECTOR('',#1295,1.25);
#311=VECTOR('',#1300,1.25);
#312=VECTOR('',#1303,10.);
#313=CIRCLE('',#939,0.5);
#314=CIRCLE('',#940,0.5);
#315=CIRCLE('',#943,0.5);
#316=CIRCLE('',#944,0.5);
#317=CIRCLE('',#947,0.5);
#318=CIRCLE('',#948,0.5);
#319=CIRCLE('',#951,0.5);
#320=CIRCLE('',#952,0.5);
#321=CIRCLE('',#953,0.5);
#322=CIRCLE('',#954,0.5);
#323=CIRCLE('',#955,0.5);
#324=CIRCLE('',#956,0.5);
#325=CIRCLE('',#957,0.5);
#326=CIRCLE('',#958,0.5);
#327=CIRCLE('',#959,0.5);
#328=CIRCLE('',#960,0.5);
#329=CIRCLE('',#961,0.5);
#330=CIRCLE('',#962,0.5);
#331=CIRCLE('',#963,0.5);
#332=CIRCLE('',#964,0.5);
#333=CIRCLE('',#965,0.5);
#334=CIRCLE('',#966,0.5);
#335=CIRCLE('',#967,0.5);
#336=CIRCLE('',#968,1.25);
#337=CIRCLE('',#969,1.25);
#338=CIRCLE('',#970,1.25);
#339=CIRCLE('',#971,1.25);
#340=CIRCLE('',#973,0.5);
#341=CIRCLE('',#976,0.5);
#342=CIRCLE('',#979,0.5);
#343=CIRCLE('',#982,0.5);
#344=CIRCLE('',#985,0.5);
#345=CIRCLE('',#988,0.5);
#346=CIRCLE('',#991,0.5);
#347=CIRCLE('',#994,0.5);
#348=CIRCLE('',#997,0.5);
#349=CIRCLE('',#1000,0.5);
#350=CIRCLE('',#1003,0.5);
#351=CIRCLE('',#1006,0.5);
#352=CIRCLE('',#1009,0.5);
#353=CIRCLE('',#1012,0.5);
#354=CIRCLE('',#1015,0.5);
#355=CIRCLE('',#1018,0.5);
#356=CIRCLE('',#1021,0.5);
#357=CIRCLE('',#1023,1.25);
#358=CIRCLE('',#1025,1.25);
#359=CIRCLE('',#1027,1.25);
#360=CIRCLE('',#1029,1.25);
#361=VERTEX_POINT('',#1308);
#362=VERTEX_POINT('',#1309);
#363=VERTEX_POINT('',#1311);
#364=VERTEX_POINT('',#1313);
#365=VERTEX_POINT('',#1317);
#366=VERTEX_POINT('',#1319);
#367=VERTEX_POINT('',#1323);
#368=VERTEX_POINT('',#1325);
#369=VERTEX_POINT('',#1329);
#370=VERTEX_POINT('',#1331);
#371=VERTEX_POINT('',#1335);
#372=VERTEX_POINT('',#1337);
#373=VERTEX_POINT('',#1341);
#374=VERTEX_POINT('',#1343);
#375=VERTEX_POINT('',#1347);
#376=VERTEX_POINT('',#1349);
#377=VERTEX_POINT('',#1351);
#378=VERTEX_POINT('',#1353);
#379=VERTEX_POINT('',#1355);
#380=VERTEX_POINT('',#1357);
#381=VERTEX_POINT('',#1359);
#382=VERTEX_POINT('',#1361);
#383=VERTEX_POINT('',#1363);
#384=VERTEX_POINT('',#1365);
#385=VERTEX_POINT('',#1367);
#386=VERTEX_POINT('',#1369);
#387=VERTEX_POINT('',#1371);
#388=VERTEX_POINT('',#1373);
#389=VERTEX_POINT('',#1375);
#390=VERTEX_POINT('',#1377);
#391=VERTEX_POINT('',#1379);
#392=VERTEX_POINT('',#1381);
#393=VERTEX_POINT('',#1383);
#394=VERTEX_POINT('',#1385);
#395=VERTEX_POINT('',#1387);
#396=VERTEX_POINT('',#1389);
#397=VERTEX_POINT('',#1391);
#398=VERTEX_POINT('',#1393);
#399=VERTEX_POINT('',#1395);
#400=VERTEX_POINT('',#1397);
#401=VERTEX_POINT('',#1399);
#402=VERTEX_POINT('',#1401);
#403=VERTEX_POINT('',#1403);
#404=VERTEX_POINT('',#1405);
#405=VERTEX_POINT('',#1407);
#406=VERTEX_POINT('',#1409);
#407=VERTEX_POINT('',#1411);
#408=VERTEX_POINT('',#1414);
#409=VERTEX_POINT('',#1416);
#410=VERTEX_POINT('',#1418);
#411=VERTEX_POINT('',#1420);
#412=VERTEX_POINT('',#1423);
#413=VERTEX_POINT('',#1427);
#414=VERTEX_POINT('',#1431);
#415=VERTEX_POINT('',#1435);
#416=VERTEX_POINT('',#1439);
#417=VERTEX_POINT('',#1443);
#418=VERTEX_POINT('',#1447);
#419=VERTEX_POINT('',#1451);
#420=VERTEX_POINT('',#1455);
#421=VERTEX_POINT('',#1459);
#422=VERTEX_POINT('',#1463);
#423=VERTEX_POINT('',#1467);
#424=VERTEX_POINT('',#1471);
#425=VERTEX_POINT('',#1475);
#426=VERTEX_POINT('',#1479);
#427=VERTEX_POINT('',#1483);
#428=VERTEX_POINT('',#1487);
#429=VERTEX_POINT('',#1491);
#430=VERTEX_POINT('',#1495);
#431=VERTEX_POINT('',#1499);
#432=VERTEX_POINT('',#1503);
#433=VERTEX_POINT('',#1507);
#434=VERTEX_POINT('',#1511);
#435=VERTEX_POINT('',#1515);
#436=VERTEX_POINT('',#1519);
#437=VERTEX_POINT('',#1523);
#438=VERTEX_POINT('',#1527);
#439=VERTEX_POINT('',#1531);
#440=VERTEX_POINT('',#1535);
#441=VERTEX_POINT('',#1539);
#442=VERTEX_POINT('',#1543);
#443=VERTEX_POINT('',#1544);
#444=VERTEX_POINT('',#1551);
#445=VERTEX_POINT('',#1555);
#446=VERTEX_POINT('',#1559);
#447=VERTEX_POINT('',#1563);
#448=VERTEX_POINT('',#1567);
#449=EDGE_CURVE('',#361,#362,#313,.T.);
#450=EDGE_CURVE('',#362,#363,#145,.T.);
#451=EDGE_CURVE('',#363,#364,#314,.T.);
#452=EDGE_CURVE('',#364,#361,#146,.T.);
#453=EDGE_CURVE('',#362,#365,#147,.T.);
#454=EDGE_CURVE('',#366,#365,#148,.T.);
#455=EDGE_CURVE('',#363,#366,#149,.T.);
#456=EDGE_CURVE('',#365,#367,#315,.T.);
#457=EDGE_CURVE('',#367,#368,#150,.T.);
#458=EDGE_CURVE('',#368,#366,#316,.T.);
#459=EDGE_CURVE('',#367,#369,#151,.T.);
#460=EDGE_CURVE('',#370,#369,#152,.T.);
#461=EDGE_CURVE('',#368,#370,#153,.T.);
#462=EDGE_CURVE('',#371,#370,#317,.T.);
#463=EDGE_CURVE('',#369,#372,#318,.T.);
#464=EDGE_CURVE('',#372,#371,#154,.T.);
#465=EDGE_CURVE('',#372,#373,#155,.T.);
#466=EDGE_CURVE('',#374,#373,#156,.T.);
#467=EDGE_CURVE('',#371,#374,#157,.T.);
#468=EDGE_CURVE('',#375,#361,#158,.T.);
#469=EDGE_CURVE('',#376,#375,#319,.T.);
#470=EDGE_CURVE('',#377,#376,#159,.T.);
#471=EDGE_CURVE('',#378,#377,#320,.T.);
#472=EDGE_CURVE('',#379,#378,#160,.T.);
#473=EDGE_CURVE('',#380,#379,#321,.T.);
#474=EDGE_CURVE('',#381,#380,#161,.T.);
#475=EDGE_CURVE('',#382,#381,#322,.T.);
#476=EDGE_CURVE('',#383,#382,#162,.T.);
#477=EDGE_CURVE('',#384,#383,#323,.T.);
#478=EDGE_CURVE('',#385,#384,#163,.T.);
#479=EDGE_CURVE('',#386,#385,#324,.T.);
#480=EDGE_CURVE('',#387,#386,#164,.T.);
#481=EDGE_CURVE('',#388,#387,#325,.T.);
#482=EDGE_CURVE('',#389,#388,#165,.T.);
#483=EDGE_CURVE('',#390,#389,#326,.T.);
#484=EDGE_CURVE('',#391,#390,#166,.T.);
#485=EDGE_CURVE('',#392,#391,#327,.T.);
#486=EDGE_CURVE('',#393,#392,#167,.T.);
#487=EDGE_CURVE('',#394,#393,#328,.T.);
#488=EDGE_CURVE('',#395,#394,#168,.T.);
#489=EDGE_CURVE('',#396,#395,#329,.T.);
#490=EDGE_CURVE('',#397,#396,#169,.T.);
#491=EDGE_CURVE('',#398,#397,#330,.T.);
#492=EDGE_CURVE('',#399,#398,#170,.T.);
#493=EDGE_CURVE('',#400,#399,#331,.T.);
#494=EDGE_CURVE('',#401,#400,#171,.T.);
#495=EDGE_CURVE('',#402,#401,#332,.T.);
#496=EDGE_CURVE('',#403,#402,#172,.T.);
#497=EDGE_CURVE('',#404,#403,#333,.T.);
#498=EDGE_CURVE('',#405,#404,#173,.T.);
#499=EDGE_CURVE('',#406,#405,#334,.T.);
#500=EDGE_CURVE('',#407,#406,#174,.T.);
#501=EDGE_CURVE('',#373,#407,#335,.T.);
#502=EDGE_CURVE('',#408,#408,#336,.T.);
#503=EDGE_CURVE('',#409,#409,#337,.T.);
#504=EDGE_CURVE('',#410,#410,#338,.T.);
#505=EDGE_CURVE('',#411,#411,#339,.T.);
#506=EDGE_CURVE('',#412,#374,#340,.T.);
#507=EDGE_CURVE('',#407,#412,#175,.T.);
#508=EDGE_CURVE('',#413,#406,#176,.T.);
#509=EDGE_CURVE('',#412,#413,#177,.T.);
#510=EDGE_CURVE('',#405,#414,#178,.T.);
#511=EDGE_CURVE('',#414,#413,#341,.T.);
#512=EDGE_CURVE('',#415,#404,#179,.T.);
#513=EDGE_CURVE('',#414,#415,#180,.T.);
#514=EDGE_CURVE('',#403,#416,#181,.T.);
#515=EDGE_CURVE('',#416,#415,#342,.T.);
#516=EDGE_CURVE('',#417,#402,#182,.T.);
#517=EDGE_CURVE('',#416,#417,#183,.T.);
#518=EDGE_CURVE('',#418,#417,#343,.T.);
#519=EDGE_CURVE('',#401,#418,#184,.T.);
#520=EDGE_CURVE('',#419,#400,#185,.T.);
#521=EDGE_CURVE('',#418,#419,#186,.T.);
#522=EDGE_CURVE('',#420,#419,#344,.T.);
#523=EDGE_CURVE('',#399,#420,#187,.T.);
#524=EDGE_CURVE('',#421,#398,#188,.T.);
#525=EDGE_CURVE('',#420,#421,#189,.T.);
#526=EDGE_CURVE('',#422,#421,#345,.T.);
#527=EDGE_CURVE('',#397,#422,#190,.T.);
#528=EDGE_CURVE('',#423,#396,#191,.T.);
#529=EDGE_CURVE('',#422,#423,#192,.T.);
#530=EDGE_CURVE('',#424,#423,#346,.T.);
#531=EDGE_CURVE('',#395,#424,#193,.T.);
#532=EDGE_CURVE('',#425,#394,#194,.T.);
#533=EDGE_CURVE('',#424,#425,#195,.T.);
#534=EDGE_CURVE('',#393,#426,#196,.T.);
#535=EDGE_CURVE('',#426,#425,#347,.T.);
#536=EDGE_CURVE('',#427,#392,#197,.T.);
#537=EDGE_CURVE('',#426,#427,#198,.T.);
#538=EDGE_CURVE('',#391,#428,#199,.T.);
#539=EDGE_CURVE('',#428,#427,#348,.T.);
#540=EDGE_CURVE('',#429,#390,#200,.T.);
#541=EDGE_CURVE('',#428,#429,#201,.T.);
#542=EDGE_CURVE('',#430,#429,#349,.T.);
#543=EDGE_CURVE('',#389,#430,#202,.T.);
#544=EDGE_CURVE('',#431,#388,#203,.T.);
#545=EDGE_CURVE('',#430,#431,#204,.T.);
#546=EDGE_CURVE('',#432,#431,#350,.T.);
#547=EDGE_CURVE('',#387,#432,#205,.T.);
#548=EDGE_CURVE('',#433,#386,#206,.T.);
#549=EDGE_CURVE('',#432,#433,#207,.T.);
#550=EDGE_CURVE('',#385,#434,#208,.T.);
#551=EDGE_CURVE('',#434,#433,#351,.T.);
#552=EDGE_CURVE('',#435,#384,#209,.T.);
#553=EDGE_CURVE('',#434,#435,#210,.T.);
#554=EDGE_CURVE('',#383,#436,#211,.T.);
#555=EDGE_CURVE('',#436,#435,#352,.T.);
#556=EDGE_CURVE('',#437,#382,#212,.T.);
#557=EDGE_CURVE('',#436,#437,#213,.T.);
#558=EDGE_CURVE('',#438,#437,#353,.T.);
#559=EDGE_CURVE('',#381,#438,#214,.T.);
#560=EDGE_CURVE('',#439,#380,#215,.T.);
#561=EDGE_CURVE('',#438,#439,#216,.T.);
#562=EDGE_CURVE('',#440,#439,#354,.T.);
#563=EDGE_CURVE('',#379,#440,#217,.T.);
#564=EDGE_CURVE('',#441,#378,#218,.T.);
#565=EDGE_CURVE('',#440,#441,#219,.T.);
#566=EDGE_CURVE('',#442,#443,#355,.T.);
#567=EDGE_CURVE('',#443,#376,#220,.T.);
#568=EDGE_CURVE('',#375,#442,#221,.T.);
#569=EDGE_CURVE('',#442,#364,#222,.T.);
#570=EDGE_CURVE('',#444,#441,#356,.T.);
#571=EDGE_CURVE('',#377,#444,#223,.T.);
#572=EDGE_CURVE('',#445,#445,#357,.T.);
#573=EDGE_CURVE('',#445,#411,#224,.T.);
#574=EDGE_CURVE('',#446,#446,#358,.T.);
#575=EDGE_CURVE('',#446,#410,#225,.T.);
#576=EDGE_CURVE('',#447,#447,#359,.T.);
#577=EDGE_CURVE('',#447,#409,#226,.T.);
#578=EDGE_CURVE('',#448,#448,#360,.T.);
#579=EDGE_CURVE('',#448,#408,#227,.T.);
#580=EDGE_CURVE('',#444,#443,#228,.T.);
#581=ORIENTED_EDGE('',*,*,#449,.T.);
#582=ORIENTED_EDGE('',*,*,#450,.T.);
#583=ORIENTED_EDGE('',*,*,#451,.T.);
#584=ORIENTED_EDGE('',*,*,#452,.T.);
#585=ORIENTED_EDGE('',*,*,#450,.F.);
#586=ORIENTED_EDGE('',*,*,#453,.T.);
#587=ORIENTED_EDGE('',*,*,#454,.F.);
#588=ORIENTED_EDGE('',*,*,#455,.F.);
#589=ORIENTED_EDGE('',*,*,#456,.T.);
#590=ORIENTED_EDGE('',*,*,#457,.T.);
#591=ORIENTED_EDGE('',*,*,#458,.T.);
#592=ORIENTED_EDGE('',*,*,#454,.T.);
#593=ORIENTED_EDGE('',*,*,#457,.F.);
#594=ORIENTED_EDGE('',*,*,#459,.T.);
#595=ORIENTED_EDGE('',*,*,#460,.F.);
#596=ORIENTED_EDGE('',*,*,#461,.F.);
#597=ORIENTED_EDGE('',*,*,#462,.T.);
#598=ORIENTED_EDGE('',*,*,#460,.T.);
#599=ORIENTED_EDGE('',*,*,#463,.T.);
#600=ORIENTED_EDGE('',*,*,#464,.T.);
#601=ORIENTED_EDGE('',*,*,#464,.F.);
#602=ORIENTED_EDGE('',*,*,#465,.T.);
#603=ORIENTED_EDGE('',*,*,#466,.F.);
#604=ORIENTED_EDGE('',*,*,#467,.F.);
#605=ORIENTED_EDGE('',*,*,#463,.F.);
#606=ORIENTED_EDGE('',*,*,#459,.F.);
#607=ORIENTED_EDGE('',*,*,#456,.F.);
#608=ORIENTED_EDGE('',*,*,#453,.F.);
#609=ORIENTED_EDGE('',*,*,#449,.F.);
#610=ORIENTED_EDGE('',*,*,#468,.F.);
#611=ORIENTED_EDGE('',*,*,#469,.F.);
#612=ORIENTED_EDGE('',*,*,#470,.F.);
#613=ORIENTED_EDGE('',*,*,#471,.F.);
#614=ORIENTED_EDGE('',*,*,#472,.F.);
#615=ORIENTED_EDGE('',*,*,#473,.F.);
#616=ORIENTED_EDGE('',*,*,#474,.F.);
#617=ORIENTED_EDGE('',*,*,#475,.F.);
#618=ORIENTED_EDGE('',*,*,#476,.F.);
#619=ORIENTED_EDGE('',*,*,#477,.F.);
#620=ORIENTED_EDGE('',*,*,#478,.F.);
#621=ORIENTED_EDGE('',*,*,#479,.F.);
#622=ORIENTED_EDGE('',*,*,#480,.F.);
#623=ORIENTED_EDGE('',*,*,#481,.F.);
#624=ORIENTED_EDGE('',*,*,#482,.F.);
#625=ORIENTED_EDGE('',*,*,#483,.F.);
#626=ORIENTED_EDGE('',*,*,#484,.F.);
#627=ORIENTED_EDGE('',*,*,#485,.F.);
#628=ORIENTED_EDGE('',*,*,#486,.F.);
#629=ORIENTED_EDGE('',*,*,#487,.F.);
#630=ORIENTED_EDGE('',*,*,#488,.F.);
#631=ORIENTED_EDGE('',*,*,#489,.F.);
#632=ORIENTED_EDGE('',*,*,#490,.F.);
#633=ORIENTED_EDGE('',*,*,#491,.F.);
#634=ORIENTED_EDGE('',*,*,#492,.F.);
#635=ORIENTED_EDGE('',*,*,#493,.F.);
#636=ORIENTED_EDGE('',*,*,#494,.F.);
#637=ORIENTED_EDGE('',*,*,#495,.F.);
#638=ORIENTED_EDGE('',*,*,#496,.F.);
#639=ORIENTED_EDGE('',*,*,#497,.F.);
#640=ORIENTED_EDGE('',*,*,#498,.F.);
#641=ORIENTED_EDGE('',*,*,#499,.F.);
#642=ORIENTED_EDGE('',*,*,#500,.F.);
#643=ORIENTED_EDGE('',*,*,#501,.F.);
#644=ORIENTED_EDGE('',*,*,#465,.F.);
#645=ORIENTED_EDGE('',*,*,#502,.F.);
#646=ORIENTED_EDGE('',*,*,#503,.F.);
#647=ORIENTED_EDGE('',*,*,#504,.F.);
#648=ORIENTED_EDGE('',*,*,#505,.F.);
#649=ORIENTED_EDGE('',*,*,#506,.T.);
#650=ORIENTED_EDGE('',*,*,#466,.T.);
#651=ORIENTED_EDGE('',*,*,#501,.T.);
#652=ORIENTED_EDGE('',*,*,#507,.T.);
#653=ORIENTED_EDGE('',*,*,#507,.F.);
#654=ORIENTED_EDGE('',*,*,#500,.T.);
#655=ORIENTED_EDGE('',*,*,#508,.F.);
#656=ORIENTED_EDGE('',*,*,#509,.F.);
#657=ORIENTED_EDGE('',*,*,#499,.T.);
#658=ORIENTED_EDGE('',*,*,#510,.T.);
#659=ORIENTED_EDGE('',*,*,#511,.T.);
#660=ORIENTED_EDGE('',*,*,#508,.T.);
#661=ORIENTED_EDGE('',*,*,#510,.F.);
#662=ORIENTED_EDGE('',*,*,#498,.T.);
#663=ORIENTED_EDGE('',*,*,#512,.F.);
#664=ORIENTED_EDGE('',*,*,#513,.F.);
#665=ORIENTED_EDGE('',*,*,#497,.T.);
#666=ORIENTED_EDGE('',*,*,#514,.T.);
#667=ORIENTED_EDGE('',*,*,#515,.T.);
#668=ORIENTED_EDGE('',*,*,#512,.T.);
#669=ORIENTED_EDGE('',*,*,#514,.F.);
#670=ORIENTED_EDGE('',*,*,#496,.T.);
#671=ORIENTED_EDGE('',*,*,#516,.F.);
#672=ORIENTED_EDGE('',*,*,#517,.F.);
#673=ORIENTED_EDGE('',*,*,#518,.T.);
#674=ORIENTED_EDGE('',*,*,#516,.T.);
#675=ORIENTED_EDGE('',*,*,#495,.T.);
#676=ORIENTED_EDGE('',*,*,#519,.T.);
#677=ORIENTED_EDGE('',*,*,#519,.F.);
#678=ORIENTED_EDGE('',*,*,#494,.T.);
#679=ORIENTED_EDGE('',*,*,#520,.F.);
#680=ORIENTED_EDGE('',*,*,#521,.F.);
#681=ORIENTED_EDGE('',*,*,#522,.T.);
#682=ORIENTED_EDGE('',*,*,#520,.T.);
#683=ORIENTED_EDGE('',*,*,#493,.T.);
#684=ORIENTED_EDGE('',*,*,#523,.T.);
#685=ORIENTED_EDGE('',*,*,#523,.F.);
#686=ORIENTED_EDGE('',*,*,#492,.T.);
#687=ORIENTED_EDGE('',*,*,#524,.F.);
#688=ORIENTED_EDGE('',*,*,#525,.F.);
#689=ORIENTED_EDGE('',*,*,#526,.T.);
#690=ORIENTED_EDGE('',*,*,#524,.T.);
#691=ORIENTED_EDGE('',*,*,#491,.T.);
#692=ORIENTED_EDGE('',*,*,#527,.T.);
#693=ORIENTED_EDGE('',*,*,#527,.F.);
#694=ORIENTED_EDGE('',*,*,#490,.T.);
#695=ORIENTED_EDGE('',*,*,#528,.F.);
#696=ORIENTED_EDGE('',*,*,#529,.F.);
#697=ORIENTED_EDGE('',*,*,#530,.T.);
#698=ORIENTED_EDGE('',*,*,#528,.T.);
#699=ORIENTED_EDGE('',*,*,#489,.T.);
#700=ORIENTED_EDGE('',*,*,#531,.T.);
#701=ORIENTED_EDGE('',*,*,#531,.F.);
#702=ORIENTED_EDGE('',*,*,#488,.T.);
#703=ORIENTED_EDGE('',*,*,#532,.F.);
#704=ORIENTED_EDGE('',*,*,#533,.F.);
#705=ORIENTED_EDGE('',*,*,#487,.T.);
#706=ORIENTED_EDGE('',*,*,#534,.T.);
#707=ORIENTED_EDGE('',*,*,#535,.T.);
#708=ORIENTED_EDGE('',*,*,#532,.T.);
#709=ORIENTED_EDGE('',*,*,#534,.F.);
#710=ORIENTED_EDGE('',*,*,#486,.T.);
#711=ORIENTED_EDGE('',*,*,#536,.F.);
#712=ORIENTED_EDGE('',*,*,#537,.F.);
#713=ORIENTED_EDGE('',*,*,#485,.T.);
#714=ORIENTED_EDGE('',*,*,#538,.T.);
#715=ORIENTED_EDGE('',*,*,#539,.T.);
#716=ORIENTED_EDGE('',*,*,#536,.T.);
#717=ORIENTED_EDGE('',*,*,#538,.F.);
#718=ORIENTED_EDGE('',*,*,#484,.T.);
#719=ORIENTED_EDGE('',*,*,#540,.F.);
#720=ORIENTED_EDGE('',*,*,#541,.F.);
#721=ORIENTED_EDGE('',*,*,#542,.T.);
#722=ORIENTED_EDGE('',*,*,#540,.T.);
#723=ORIENTED_EDGE('',*,*,#483,.T.);
#724=ORIENTED_EDGE('',*,*,#543,.T.);
#725=ORIENTED_EDGE('',*,*,#543,.F.);
#726=ORIENTED_EDGE('',*,*,#482,.T.);
#727=ORIENTED_EDGE('',*,*,#544,.F.);
#728=ORIENTED_EDGE('',*,*,#545,.F.);
#729=ORIENTED_EDGE('',*,*,#546,.T.);
#730=ORIENTED_EDGE('',*,*,#544,.T.);
#731=ORIENTED_EDGE('',*,*,#481,.T.);
#732=ORIENTED_EDGE('',*,*,#547,.T.);
#733=ORIENTED_EDGE('',*,*,#547,.F.);
#734=ORIENTED_EDGE('',*,*,#480,.T.);
#735=ORIENTED_EDGE('',*,*,#548,.F.);
#736=ORIENTED_EDGE('',*,*,#549,.F.);
#737=ORIENTED_EDGE('',*,*,#479,.T.);
#738=ORIENTED_EDGE('',*,*,#550,.T.);
#739=ORIENTED_EDGE('',*,*,#551,.T.);
#740=ORIENTED_EDGE('',*,*,#548,.T.);
#741=ORIENTED_EDGE('',*,*,#550,.F.);
#742=ORIENTED_EDGE('',*,*,#478,.T.);
#743=ORIENTED_EDGE('',*,*,#552,.F.);
#744=ORIENTED_EDGE('',*,*,#553,.F.);
#745=ORIENTED_EDGE('',*,*,#477,.T.);
#746=ORIENTED_EDGE('',*,*,#554,.T.);
#747=ORIENTED_EDGE('',*,*,#555,.T.);
#748=ORIENTED_EDGE('',*,*,#552,.T.);
#749=ORIENTED_EDGE('',*,*,#554,.F.);
#750=ORIENTED_EDGE('',*,*,#476,.T.);
#751=ORIENTED_EDGE('',*,*,#556,.F.);
#752=ORIENTED_EDGE('',*,*,#557,.F.);
#753=ORIENTED_EDGE('',*,*,#558,.T.);
#754=ORIENTED_EDGE('',*,*,#556,.T.);
#755=ORIENTED_EDGE('',*,*,#475,.T.);
#756=ORIENTED_EDGE('',*,*,#559,.T.);
#757=ORIENTED_EDGE('',*,*,#559,.F.);
#758=ORIENTED_EDGE('',*,*,#474,.T.);
#759=ORIENTED_EDGE('',*,*,#560,.F.);
#760=ORIENTED_EDGE('',*,*,#561,.F.);
#761=ORIENTED_EDGE('',*,*,#562,.T.);
#762=ORIENTED_EDGE('',*,*,#560,.T.);
#763=ORIENTED_EDGE('',*,*,#473,.T.);
#764=ORIENTED_EDGE('',*,*,#563,.T.);
#765=ORIENTED_EDGE('',*,*,#563,.F.);
#766=ORIENTED_EDGE('',*,*,#472,.T.);
#767=ORIENTED_EDGE('',*,*,#564,.F.);
#768=ORIENTED_EDGE('',*,*,#565,.F.);
#769=ORIENTED_EDGE('',*,*,#566,.T.);
#770=ORIENTED_EDGE('',*,*,#567,.T.);
#771=ORIENTED_EDGE('',*,*,#469,.T.);
#772=ORIENTED_EDGE('',*,*,#568,.T.);
#773=ORIENTED_EDGE('',*,*,#452,.F.);
#774=ORIENTED_EDGE('',*,*,#569,.F.);
#775=ORIENTED_EDGE('',*,*,#568,.F.);
#776=ORIENTED_EDGE('',*,*,#468,.T.);
#777=ORIENTED_EDGE('',*,*,#570,.T.);
#778=ORIENTED_EDGE('',*,*,#564,.T.);
#779=ORIENTED_EDGE('',*,*,#471,.T.);
#780=ORIENTED_EDGE('',*,*,#571,.T.);
#781=ORIENTED_EDGE('',*,*,#572,.F.);
#782=ORIENTED_EDGE('',*,*,#573,.T.);
#783=ORIENTED_EDGE('',*,*,#505,.T.);
#784=ORIENTED_EDGE('',*,*,#573,.F.);
#785=ORIENTED_EDGE('',*,*,#574,.F.);
#786=ORIENTED_EDGE('',*,*,#575,.T.);
#787=ORIENTED_EDGE('',*,*,#504,.T.);
#788=ORIENTED_EDGE('',*,*,#575,.F.);
#789=ORIENTED_EDGE('',*,*,#576,.F.);
#790=ORIENTED_EDGE('',*,*,#577,.T.);
#791=ORIENTED_EDGE('',*,*,#503,.T.);
#792=ORIENTED_EDGE('',*,*,#577,.F.);
#793=ORIENTED_EDGE('',*,*,#578,.F.);
#794=ORIENTED_EDGE('',*,*,#579,.T.);
#795=ORIENTED_EDGE('',*,*,#502,.T.);
#796=ORIENTED_EDGE('',*,*,#579,.F.);
#797=ORIENTED_EDGE('',*,*,#567,.F.);
#798=ORIENTED_EDGE('',*,*,#580,.F.);
#799=ORIENTED_EDGE('',*,*,#571,.F.);
#800=ORIENTED_EDGE('',*,*,#470,.T.);
#801=ORIENTED_EDGE('',*,*,#462,.F.);
#802=ORIENTED_EDGE('',*,*,#467,.T.);
#803=ORIENTED_EDGE('',*,*,#506,.F.);
#804=ORIENTED_EDGE('',*,*,#509,.T.);
#805=ORIENTED_EDGE('',*,*,#511,.F.);
#806=ORIENTED_EDGE('',*,*,#513,.T.);
#807=ORIENTED_EDGE('',*,*,#515,.F.);
#808=ORIENTED_EDGE('',*,*,#517,.T.);
#809=ORIENTED_EDGE('',*,*,#518,.F.);
#810=ORIENTED_EDGE('',*,*,#521,.T.);
#811=ORIENTED_EDGE('',*,*,#522,.F.);
#812=ORIENTED_EDGE('',*,*,#525,.T.);
#813=ORIENTED_EDGE('',*,*,#526,.F.);
#814=ORIENTED_EDGE('',*,*,#529,.T.);
#815=ORIENTED_EDGE('',*,*,#530,.F.);
#816=ORIENTED_EDGE('',*,*,#533,.T.);
#817=ORIENTED_EDGE('',*,*,#535,.F.);
#818=ORIENTED_EDGE('',*,*,#537,.T.);
#819=ORIENTED_EDGE('',*,*,#539,.F.);
#820=ORIENTED_EDGE('',*,*,#541,.T.);
#821=ORIENTED_EDGE('',*,*,#542,.F.);
#822=ORIENTED_EDGE('',*,*,#545,.T.);
#823=ORIENTED_EDGE('',*,*,#546,.F.);
#824=ORIENTED_EDGE('',*,*,#549,.T.);
#825=ORIENTED_EDGE('',*,*,#551,.F.);
#826=ORIENTED_EDGE('',*,*,#553,.T.);
#827=ORIENTED_EDGE('',*,*,#555,.F.);
#828=ORIENTED_EDGE('',*,*,#557,.T.);
#829=ORIENTED_EDGE('',*,*,#558,.F.);
#830=ORIENTED_EDGE('',*,*,#561,.T.);
#831=ORIENTED_EDGE('',*,*,#562,.F.);
#832=ORIENTED_EDGE('',*,*,#565,.T.);
#833=ORIENTED_EDGE('',*,*,#570,.F.);
#834=ORIENTED_EDGE('',*,*,#580,.T.);
#835=ORIENTED_EDGE('',*,*,#566,.F.);
#836=ORIENTED_EDGE('',*,*,#569,.T.);
#837=ORIENTED_EDGE('',*,*,#451,.F.);
#838=ORIENTED_EDGE('',*,*,#455,.T.);
#839=ORIENTED_EDGE('',*,*,#458,.F.);
#840=ORIENTED_EDGE('',*,*,#461,.T.);
#841=ORIENTED_EDGE('',*,*,#578,.T.);
#842=ORIENTED_EDGE('',*,*,#576,.T.);
#843=ORIENTED_EDGE('',*,*,#574,.T.);
#844=ORIENTED_EDGE('',*,*,#572,.T.);
#845=CYLINDRICAL_SURFACE('',#938,0.5);
#846=CYLINDRICAL_SURFACE('',#942,0.5);
#847=CYLINDRICAL_SURFACE('',#946,0.5);
#848=CYLINDRICAL_SURFACE('',#972,0.5);
#849=CYLINDRICAL_SURFACE('',#975,0.5);
#850=CYLINDRICAL_SURFACE('',#978,0.5);
#851=CYLINDRICAL_SURFACE('',#981,0.5);
#852=CYLINDRICAL_SURFACE('',#984,0.5);
#853=CYLINDRICAL_SURFACE('',#987,0.5);
#854=CYLINDRICAL_SURFACE('',#990,0.5);
#855=CYLINDRICAL_SURFACE('',#993,0.5);
#856=CYLINDRICAL_SURFACE('',#996,0.5);
#857=CYLINDRICAL_SURFACE('',#999,0.5);
#858=CYLINDRICAL_SURFACE('',#1002,0.5);
#859=CYLINDRICAL_SURFACE('',#1005,0.5);
#860=CYLINDRICAL_SURFACE('',#1008,0.5);
#861=CYLINDRICAL_SURFACE('',#1011,0.5);
#862=CYLINDRICAL_SURFACE('',#1014,0.5);
#863=CYLINDRICAL_SURFACE('',#1017,0.5);
#864=CYLINDRICAL_SURFACE('',#1020,0.5);
#865=CYLINDRICAL_SURFACE('',#1022,1.25);
#866=CYLINDRICAL_SURFACE('',#1024,1.25);
#867=CYLINDRICAL_SURFACE('',#1026,1.25);
#868=CYLINDRICAL_SURFACE('',#1028,1.25);
#869=ADVANCED_FACE('',(#45),#845,.F.);
#870=ADVANCED_FACE('',(#46),#23,.T.);
#871=ADVANCED_FACE('',(#47),#846,.F.);
#872=ADVANCED_FACE('',(#48),#24,.T.);
#873=ADVANCED_FACE('',(#49),#847,.T.);
#874=ADVANCED_FACE('',(#50),#25,.T.);
#875=ADVANCED_FACE('',(#51,#15,#16,#17,#18),#26,.F.);
#876=ADVANCED_FACE('',(#52),#848,.T.);
#877=ADVANCED_FACE('',(#53),#27,.T.);
#878=ADVANCED_FACE('',(#54),#849,.F.);
#879=ADVANCED_FACE('',(#55),#28,.T.);
#880=ADVANCED_FACE('',(#56),#850,.F.);
#881=ADVANCED_FACE('',(#57),#29,.T.);
#882=ADVANCED_FACE('',(#58),#851,.T.);
#883=ADVANCED_FACE('',(#59),#30,.T.);
#884=ADVANCED_FACE('',(#60),#852,.T.);
#885=ADVANCED_FACE('',(#61),#31,.T.);
#886=ADVANCED_FACE('',(#62),#853,.T.);
#887=ADVANCED_FACE('',(#63),#32,.T.);
#888=ADVANCED_FACE('',(#64),#854,.T.);
#889=ADVANCED_FACE('',(#65),#33,.T.);
#890=ADVANCED_FACE('',(#66),#855,.F.);
#891=ADVANCED_FACE('',(#67),#34,.T.);
#892=ADVANCED_FACE('',(#68),#856,.F.);
#893=ADVANCED_FACE('',(#69),#35,.T.);
#894=ADVANCED_FACE('',(#70),#857,.T.);
#895=ADVANCED_FACE('',(#71),#36,.T.);
#896=ADVANCED_FACE('',(#72),#858,.T.);
#897=ADVANCED_FACE('',(#73),#37,.T.);
#898=ADVANCED_FACE('',(#74),#859,.F.);
#899=ADVANCED_FACE('',(#75),#38,.T.);
#900=ADVANCED_FACE('',(#76),#860,.F.);
#901=ADVANCED_FACE('',(#77),#39,.T.);
#902=ADVANCED_FACE('',(#78),#861,.T.);
#903=ADVANCED_FACE('',(#79),#40,.T.);
#904=ADVANCED_FACE('',(#80),#862,.T.);
#905=ADVANCED_FACE('',(#81),#41,.T.);
#906=ADVANCED_FACE('',(#82),#863,.T.);
#907=ADVANCED_FACE('',(#83),#42,.T.);
#908=ADVANCED_FACE('',(#84),#864,.T.);
#909=ADVANCED_FACE('',(#85),#865,.F.);
#910=ADVANCED_FACE('',(#86),#866,.F.);
#911=ADVANCED_FACE('',(#87),#867,.F.);
#912=ADVANCED_FACE('',(#88),#868,.F.);
#913=ADVANCED_FACE('',(#89),#43,.T.);
#914=ADVANCED_FACE('',(#90,#19,#20,#21,#22),#44,.T.);
#915=CLOSED_SHELL('',(#869,#870,#871,#872,#873,#874,#875,#876,#877,#878,
#879,#880,#881,#882,#883,#884,#885,#886,#887,#888,#889,#890,#891,#892,#893,
#894,#895,#896,#897,#898,#899,#900,#901,#902,#903,#904,#905,#906,#907,#908,
#909,#910,#911,#912,#913,#914));
#916=DERIVED_UNIT_ELEMENT(#919,1.);
#917=DERIVED_UNIT_ELEMENT(#1578,-3.);
#918=DIMENSIONAL_EXPONENTS(0.,1.,0.,0.,0.,0.,0.);
#919=(
CONVERSION_BASED_UNIT('gram',#921)
MASS_UNIT()
NAMED_UNIT(#918)
);
#920=(
MASS_UNIT()
NAMED_UNIT(*)
SI_UNIT(.KILO.,.GRAM.)
);
#921=MASS_MEASURE_WITH_UNIT(MASS_MEASURE(0.001),#920);
#922=DERIVED_UNIT((#916,#917));
#923=MEASURE_REPRESENTATION_ITEM('density measure',
POSITIVE_RATIO_MEASURE(1.),#922);
#924=PROPERTY_DEFINITION_REPRESENTATION(#929,#926);
#925=PROPERTY_DEFINITION_REPRESENTATION(#930,#927);
#926=REPRESENTATION('material name',(#928),#1575);
#927=REPRESENTATION('density',(#923),#1575);
#928=DESCRIPTIVE_REPRESENTATION_ITEM('Generic','Generic');
#929=PROPERTY_DEFINITION('material property','material name',#1585);
#930=PROPERTY_DEFINITION('material property','density of part',#1585);
#931=DATE_TIME_ROLE('creation_date');
#932=APPLIED_DATE_AND_TIME_ASSIGNMENT(#933,#931,(#1585));
#933=DATE_AND_TIME(#934,#935);
#934=CALENDAR_DATE(2026,14,4);
#935=LOCAL_TIME(0,0,0.,#936);
#936=COORDINATED_UNIVERSAL_TIME_OFFSET(0,0,.BEHIND.);
#937=AXIS2_PLACEMENT_3D('',#1306,#1032,#1033);
#938=AXIS2_PLACEMENT_3D('',#1307,#1034,#1035);
#939=AXIS2_PLACEMENT_3D('',#1310,#1036,#1037);
#940=AXIS2_PLACEMENT_3D('',#1314,#1039,#1040);
#941=AXIS2_PLACEMENT_3D('',#1316,#1042,#1043);
#942=AXIS2_PLACEMENT_3D('',#1322,#1047,#1048);
#943=AXIS2_PLACEMENT_3D('',#1324,#1049,#1050);
#944=AXIS2_PLACEMENT_3D('',#1327,#1052,#1053);
#945=AXIS2_PLACEMENT_3D('',#1328,#1054,#1055);
#946=AXIS2_PLACEMENT_3D('',#1334,#1059,#1060);
#947=AXIS2_PLACEMENT_3D('',#1336,#1061,#1062);
#948=AXIS2_PLACEMENT_3D('',#1338,#1063,#1064);
#949=AXIS2_PLACEMENT_3D('',#1340,#1066,#1067);
#950=AXIS2_PLACEMENT_3D('',#1346,#1071,#1072);
#951=AXIS2_PLACEMENT_3D('',#1350,#1074,#1075);
#952=AXIS2_PLACEMENT_3D('',#1354,#1077,#1078);
#953=AXIS2_PLACEMENT_3D('',#1358,#1080,#1081);
#954=AXIS2_PLACEMENT_3D('',#1362,#1083,#1084);
#955=AXIS2_PLACEMENT_3D('',#1366,#1086,#1087);
#956=AXIS2_PLACEMENT_3D('',#1370,#1089,#1090);
#957=AXIS2_PLACEMENT_3D('',#1374,#1092,#1093);
#958=AXIS2_PLACEMENT_3D('',#1378,#1095,#1096);
#959=AXIS2_PLACEMENT_3D('',#1382,#1098,#1099);
#960=AXIS2_PLACEMENT_3D('',#1386,#1101,#1102);
#961=AXIS2_PLACEMENT_3D('',#1390,#1104,#1105);
#962=AXIS2_PLACEMENT_3D('',#1394,#1107,#1108);
#963=AXIS2_PLACEMENT_3D('',#1398,#1110,#1111);
#964=AXIS2_PLACEMENT_3D('',#1402,#1113,#1114);
#965=AXIS2_PLACEMENT_3D('',#1406,#1116,#1117);
#966=AXIS2_PLACEMENT_3D('',#1410,#1119,#1120);
#967=AXIS2_PLACEMENT_3D('',#1413,#1122,#1123);
#968=AXIS2_PLACEMENT_3D('',#1415,#1124,#1125);
#969=AXIS2_PLACEMENT_3D('',#1417,#1126,#1127);
#970=AXIS2_PLACEMENT_3D('',#1419,#1128,#1129);
#971=AXIS2_PLACEMENT_3D('',#1421,#1130,#1131);
#972=AXIS2_PLACEMENT_3D('',#1422,#1132,#1133);
#973=AXIS2_PLACEMENT_3D('',#1424,#1134,#1135);
#974=AXIS2_PLACEMENT_3D('',#1426,#1137,#1138);
#975=AXIS2_PLACEMENT_3D('',#1430,#1141,#1142);
#976=AXIS2_PLACEMENT_3D('',#1433,#1144,#1145);
#977=AXIS2_PLACEMENT_3D('',#1434,#1146,#1147);
#978=AXIS2_PLACEMENT_3D('',#1438,#1150,#1151);
#979=AXIS2_PLACEMENT_3D('',#1441,#1153,#1154);
#980=AXIS2_PLACEMENT_3D('',#1442,#1155,#1156);
#981=AXIS2_PLACEMENT_3D('',#1446,#1159,#1160);
#982=AXIS2_PLACEMENT_3D('',#1448,#1161,#1162);
#983=AXIS2_PLACEMENT_3D('',#1450,#1164,#1165);
#984=AXIS2_PLACEMENT_3D('',#1454,#1168,#1169);
#985=AXIS2_PLACEMENT_3D('',#1456,#1170,#1171);
#986=AXIS2_PLACEMENT_3D('',#1458,#1173,#1174);
#987=AXIS2_PLACEMENT_3D('',#1462,#1177,#1178);
#988=AXIS2_PLACEMENT_3D('',#1464,#1179,#1180);
#989=AXIS2_PLACEMENT_3D('',#1466,#1182,#1183);
#990=AXIS2_PLACEMENT_3D('',#1470,#1186,#1187);
#991=AXIS2_PLACEMENT_3D('',#1472,#1188,#1189);
#992=AXIS2_PLACEMENT_3D('',#1474,#1191,#1192);
#993=AXIS2_PLACEMENT_3D('',#1478,#1195,#1196);
#994=AXIS2_PLACEMENT_3D('',#1481,#1198,#1199);
#995=AXIS2_PLACEMENT_3D('',#1482,#1200,#1201);
#996=AXIS2_PLACEMENT_3D('',#1486,#1204,#1205);
#997=AXIS2_PLACEMENT_3D('',#1489,#1207,#1208);
#998=AXIS2_PLACEMENT_3D('',#1490,#1209,#1210);
#999=AXIS2_PLACEMENT_3D('',#1494,#1213,#1214);
#1000=AXIS2_PLACEMENT_3D('',#1496,#1215,#1216);
#1001=AXIS2_PLACEMENT_3D('',#1498,#1218,#1219);
#1002=AXIS2_PLACEMENT_3D('',#1502,#1222,#1223);
#1003=AXIS2_PLACEMENT_3D('',#1504,#1224,#1225);
#1004=AXIS2_PLACEMENT_3D('',#1506,#1227,#1228);
#1005=AXIS2_PLACEMENT_3D('',#1510,#1231,#1232);
#1006=AXIS2_PLACEMENT_3D('',#1513,#1234,#1235);
#1007=AXIS2_PLACEMENT_3D('',#1514,#1236,#1237);
#1008=AXIS2_PLACEMENT_3D('',#1518,#1240,#1241);
#1009=AXIS2_PLACEMENT_3D('',#1521,#1243,#1244);
#1010=AXIS2_PLACEMENT_3D('',#1522,#1245,#1246);
#1011=AXIS2_PLACEMENT_3D('',#1526,#1249,#1250);
#1012=AXIS2_PLACEMENT_3D('',#1528,#1251,#1252);
#1013=AXIS2_PLACEMENT_3D('',#1530,#1254,#1255);
#1014=AXIS2_PLACEMENT_3D('',#1534,#1258,#1259);
#1015=AXIS2_PLACEMENT_3D('',#1536,#1260,#1261);
#1016=AXIS2_PLACEMENT_3D('',#1538,#1263,#1264);
#1017=AXIS2_PLACEMENT_3D('',#1542,#1267,#1268);
#1018=AXIS2_PLACEMENT_3D('',#1545,#1269,#1270);
#1019=AXIS2_PLACEMENT_3D('',#1548,#1273,#1274);
#1020=AXIS2_PLACEMENT_3D('',#1550,#1276,#1277);
#1021=AXIS2_PLACEMENT_3D('',#1552,#1278,#1279);
#1022=AXIS2_PLACEMENT_3D('',#1554,#1281,#1282);
#1023=AXIS2_PLACEMENT_3D('',#1556,#1283,#1284);
#1024=AXIS2_PLACEMENT_3D('',#1558,#1286,#1287);
#1025=AXIS2_PLACEMENT_3D('',#1560,#1288,#1289);
#1026=AXIS2_PLACEMENT_3D('',#1562,#1291,#1292);
#1027=AXIS2_PLACEMENT_3D('',#1564,#1293,#1294);
#1028=AXIS2_PLACEMENT_3D('',#1566,#1296,#1297);
#1029=AXIS2_PLACEMENT_3D('',#1568,#1298,#1299);
#1030=AXIS2_PLACEMENT_3D('',#1570,#1301,#1302);
#1031=AXIS2_PLACEMENT_3D('',#1572,#1304,#1305);
#1032=DIRECTION('axis',(0.,0.,1.));
#1033=DIRECTION('refdir',(1.,0.,0.));
#1034=DIRECTION('center_axis',(0.,0.,1.));
#1035=DIRECTION('ref_axis',(-0.707106781186541,-0.707106781186554,0.));
#1036=DIRECTION('center_axis',(0.,0.,-1.));
#1037=DIRECTION('ref_axis',(-0.707106781186541,-0.707106781186554,0.));
#1038=DIRECTION('',(0.,0.,1.));
#1039=DIRECTION('center_axis',(0.,0.,1.));
#1040=DIRECTION('ref_axis',(-0.707106781186541,-0.707106781186554,0.));
#1041=DIRECTION('',(0.,0.,-1.));
#1042=DIRECTION('center_axis',(1.,0.,0.));
#1043=DIRECTION('ref_axis',(0.,1.,0.));
#1044=DIRECTION('',(0.,1.,0.));
#1045=DIRECTION('',(0.,0.,-1.));
#1046=DIRECTION('',(0.,1.,0.));
#1047=DIRECTION('center_axis',(0.,0.,1.));
#1048=DIRECTION('ref_axis',(-0.707106781186548,0.707106781186548,0.));
#1049=DIRECTION('center_axis',(0.,0.,-1.));
#1050=DIRECTION('ref_axis',(-0.707106781186548,0.707106781186548,0.));
#1051=DIRECTION('',(0.,0.,1.));
#1052=DIRECTION('center_axis',(0.,0.,1.));
#1053=DIRECTION('ref_axis',(-0.707106781186548,0.707106781186548,0.));
#1054=DIRECTION('center_axis',(0.,-1.,0.));
#1055=DIRECTION('ref_axis',(1.,0.,0.));
#1056=DIRECTION('',(1.,0.,0.));
#1057=DIRECTION('',(0.,0.,-1.));
#1058=DIRECTION('',(1.,0.,0.));
#1059=DIRECTION('center_axis',(0.,0.,1.));
#1060=DIRECTION('ref_axis',(0.707106781186548,-0.707106781186548,0.));
#1061=DIRECTION('center_axis',(0.,0.,-1.));
#1062=DIRECTION('ref_axis',(0.707106781186548,-0.707106781186548,0.));
#1063=DIRECTION('center_axis',(0.,0.,1.));
#1064=DIRECTION('ref_axis',(0.707106781186548,-0.707106781186548,0.));
#1065=DIRECTION('',(0.,0.,1.));
#1066=DIRECTION('center_axis',(1.,0.,0.));
#1067=DIRECTION('ref_axis',(0.,1.,0.));
#1068=DIRECTION('',(0.,1.,0.));
#1069=DIRECTION('',(0.,0.,-1.));
#1070=DIRECTION('',(0.,1.,0.));
#1071=DIRECTION('center_axis',(0.,0.,1.));
#1072=DIRECTION('ref_axis',(1.,0.,0.));
#1073=DIRECTION('',(-1.,0.,0.));
#1074=DIRECTION('center_axis',(0.,0.,1.));
#1075=DIRECTION('ref_axis',(0.707106781186548,0.707106781186548,0.));
#1076=DIRECTION('',(0.,1.,0.));
#1077=DIRECTION('center_axis',(0.,0.,1.));
#1078=DIRECTION('ref_axis',(0.707106781186548,-0.707106781186548,0.));
#1079=DIRECTION('',(1.,-1.50699447262179E-16,0.));
#1080=DIRECTION('center_axis',(0.,0.,1.));
#1081=DIRECTION('ref_axis',(-0.707106781186543,-0.707106781186553,0.));
#1082=DIRECTION('',(-2.49488320140463E-16,-1.,0.));
#1083=DIRECTION('center_axis',(0.,0.,1.));
#1084=DIRECTION('ref_axis',(-0.707106781186549,0.707106781186546,0.));
#1085=DIRECTION('',(-1.,-7.0490350769846E-16,0.));
#1086=DIRECTION('center_axis',(0.,0.,-1.));
#1087=DIRECTION('ref_axis',(0.707106781186548,-0.707106781186548,0.));
#1088=DIRECTION('',(0.,-1.,0.));
#1089=DIRECTION('center_axis',(0.,0.,-1.));
#1090=DIRECTION('ref_axis',(0.707106781186548,0.707106781186548,0.));
#1091=DIRECTION('',(1.,0.,0.));
#1092=DIRECTION('center_axis',(0.,0.,1.));
#1093=DIRECTION('ref_axis',(-0.707106781186548,-0.707106781186548,0.));
#1094=DIRECTION('',(4.95266776784531E-16,-1.,0.));
#1095=DIRECTION('center_axis',(0.,0.,1.));
#1096=DIRECTION('ref_axis',(-0.707106781186546,0.707106781186549,0.));
#1097=DIRECTION('',(-1.,0.,0.));
#1098=DIRECTION('center_axis',(0.,0.,-1.));
#1099=DIRECTION('ref_axis',(0.707106781186546,-0.707106781186549,0.));
#1100=DIRECTION('',(4.96189061284672E-16,-1.,0.));
#1101=DIRECTION('center_axis',(0.,0.,-1.));
#1102=DIRECTION('ref_axis',(0.707106781186546,0.707106781186549,0.));
#1103=DIRECTION('',(1.,3.52451753849245E-16,0.));
#1104=DIRECTION('center_axis',(0.,0.,1.));
#1105=DIRECTION('ref_axis',(-0.707106781186548,-0.707106781186547,0.));
#1106=DIRECTION('',(0.,-1.,0.));
#1107=DIRECTION('center_axis',(0.,0.,1.));
#1108=DIRECTION('ref_axis',(-0.707106781186546,0.707106781186549,0.));
#1109=DIRECTION('',(-1.,-3.57911187247674E-16,0.));
#1110=DIRECTION('center_axis',(0.,0.,1.));
#1111=DIRECTION('ref_axis',(0.707106781186552,0.707106781186543,0.));
#1112=DIRECTION('',(0.,1.,0.));
#1113=DIRECTION('center_axis',(0.,0.,1.));
#1114=DIRECTION('ref_axis',(0.707106781186553,-0.707106781186543,0.));
#1115=DIRECTION('',(1.,1.19636101791505E-16,0.));
#1116=DIRECTION('center_axis',(0.,0.,-1.));
#1117=DIRECTION('ref_axis',(-0.707106781186546,0.707106781186549,0.));
#1118=DIRECTION('',(0.,1.,0.));
#1119=DIRECTION('center_axis',(0.,0.,-1.));
#1120=DIRECTION('ref_axis',(-0.707106781186546,-0.707106781186549,0.));
#1121=DIRECTION('',(-1.,-4.21110324076278E-16,0.));
#1122=DIRECTION('center_axis',(0.,0.,1.));
#1123=DIRECTION('ref_axis',(0.707106781186546,0.707106781186549,0.));
#1124=DIRECTION('center_axis',(0.,0.,-1.));
#1125=DIRECTION('ref_axis',(-1.,0.,0.));
#1126=DIRECTION('center_axis',(0.,0.,-1.));
#1127=DIRECTION('ref_axis',(-1.,0.,0.));
#1128=DIRECTION('center_axis',(0.,0.,-1.));
#1129=DIRECTION('ref_axis',(-1.,0.,0.));
#1130=DIRECTION('center_axis',(0.,0.,-1.));
#1131=DIRECTION('ref_axis',(-1.,0.,0.));
#1132=DIRECTION('center_axis',(0.,0.,1.));
#1133=DIRECTION('ref_axis',(0.707106781186546,0.707106781186549,0.));
#1134=DIRECTION('center_axis',(0.,0.,-1.));
#1135=DIRECTION('ref_axis',(0.707106781186546,0.707106781186549,0.));
#1136=DIRECTION('',(0.,0.,1.));
#1137=DIRECTION('center_axis',(-4.21110324076278E-16,1.,0.));
#1138=DIRECTION('ref_axis',(-1.,-4.21110324076278E-16,0.));
#1139=DIRECTION('',(0.,0.,-1.));
#1140=DIRECTION('',(-1.,-4.21110324076278E-16,0.));
#1141=DIRECTION('center_axis',(0.,0.,1.));
#1142=DIRECTION('ref_axis',(-0.707106781186546,-0.707106781186549,0.));
#1143=DIRECTION('',(0.,0.,1.));
#1144=DIRECTION('center_axis',(0.,0.,1.));
#1145=DIRECTION('ref_axis',(-0.707106781186546,-0.707106781186549,0.));
#1146=DIRECTION('center_axis',(1.,0.,0.));
#1147=DIRECTION('ref_axis',(0.,1.,0.));
#1148=DIRECTION('',(0.,0.,-1.));
#1149=DIRECTION('',(0.,1.,0.));
#1150=DIRECTION('center_axis',(0.,0.,1.));
#1151=DIRECTION('ref_axis',(-0.707106781186546,0.707106781186549,0.));
#1152=DIRECTION('',(0.,0.,1.));
#1153=DIRECTION('center_axis',(0.,0.,1.));
#1154=DIRECTION('ref_axis',(-0.707106781186546,0.707106781186549,0.));
#1155=DIRECTION('center_axis',(1.19636101791505E-16,-1.,0.));
#1156=DIRECTION('ref_axis',(1.,1.19636101791505E-16,0.));
#1157=DIRECTION('',(0.,0.,-1.));
#1158=DIRECTION('',(1.,1.19636101791505E-16,0.));
#1159=DIRECTION('center_axis',(0.,0.,1.));
#1160=DIRECTION('ref_axis',(0.707106781186553,-0.707106781186543,0.));
#1161=DIRECTION('center_axis',(0.,0.,-1.));
#1162=DIRECTION('ref_axis',(0.707106781186553,-0.707106781186543,0.));
#1163=DIRECTION('',(0.,0.,1.));
#1164=DIRECTION('center_axis',(1.,0.,0.));
#1165=DIRECTION('ref_axis',(0.,1.,0.));
#1166=DIRECTION('',(0.,0.,-1.));
#1167=DIRECTION('',(0.,1.,0.));
#1168=DIRECTION('center_axis',(0.,0.,1.));
#1169=DIRECTION('ref_axis',(0.707106781186552,0.707106781186543,0.));
#1170=DIRECTION('center_axis',(0.,0.,-1.));
#1171=DIRECTION('ref_axis',(0.707106781186552,0.707106781186543,0.));
#1172=DIRECTION('',(0.,0.,1.));
#1173=DIRECTION('center_axis',(-3.57911187247674E-16,1.,0.));
#1174=DIRECTION('ref_axis',(-1.,-3.57911187247674E-16,0.));
#1175=DIRECTION('',(0.,0.,-1.));
#1176=DIRECTION('',(-1.,-3.57911187247674E-16,0.));
#1177=DIRECTION('center_axis',(0.,0.,1.));
#1178=DIRECTION('ref_axis',(-0.707106781186546,0.707106781186549,0.));
#1179=DIRECTION('center_axis',(0.,0.,-1.));
#1180=DIRECTION('ref_axis',(-0.707106781186546,0.707106781186549,0.));
#1181=DIRECTION('',(0.,0.,1.));
#1182=DIRECTION('center_axis',(-1.,0.,0.));
#1183=DIRECTION('ref_axis',(0.,-1.,0.));
#1184=DIRECTION('',(0.,0.,-1.));
#1185=DIRECTION('',(0.,-1.,0.));
#1186=DIRECTION('center_axis',(0.,0.,1.));
#1187=DIRECTION('ref_axis',(-0.707106781186548,-0.707106781186547,0.));
#1188=DIRECTION('center_axis',(0.,0.,-1.));
#1189=DIRECTION('ref_axis',(-0.707106781186548,-0.707106781186547,0.));
#1190=DIRECTION('',(0.,0.,1.));
#1191=DIRECTION('center_axis',(3.52451753849245E-16,-1.,0.));
#1192=DIRECTION('ref_axis',(1.,3.52451753849245E-16,0.));
#1193=DIRECTION('',(0.,0.,-1.));
#1194=DIRECTION('',(1.,3.52451753849245E-16,0.));
#1195=DIRECTION('center_axis',(0.,0.,1.));
#1196=DIRECTION('ref_axis',(0.707106781186546,0.707106781186549,0.));
#1197=DIRECTION('',(0.,0.,1.));
#1198=DIRECTION('center_axis',(0.,0.,1.));
#1199=DIRECTION('ref_axis',(0.707106781186546,0.707106781186549,0.));
#1200=DIRECTION('center_axis',(-1.,-4.96189061284672E-16,0.));
#1201=DIRECTION('ref_axis',(4.96189061284672E-16,-1.,0.));
#1202=DIRECTION('',(0.,0.,-1.));
#1203=DIRECTION('',(4.96189061284672E-16,-1.,0.));
#1204=DIRECTION('center_axis',(0.,0.,1.));
#1205=DIRECTION('ref_axis',(0.707106781186546,-0.707106781186549,0.));
#1206=DIRECTION('',(0.,0.,1.));
#1207=DIRECTION('center_axis',(0.,0.,1.));
#1208=DIRECTION('ref_axis',(0.707106781186546,-0.707106781186549,0.));
#1209=DIRECTION('center_axis',(0.,1.,0.));
#1210=DIRECTION('ref_axis',(-1.,0.,0.));
#1211=DIRECTION('',(0.,0.,-1.));
#1212=DIRECTION('',(-1.,0.,0.));
#1213=DIRECTION('center_axis',(0.,0.,1.));
#1214=DIRECTION('ref_axis',(-0.707106781186546,0.707106781186549,0.));
#1215=DIRECTION('center_axis',(0.,0.,-1.));
#1216=DIRECTION('ref_axis',(-0.707106781186546,0.707106781186549,0.));
#1217=DIRECTION('',(0.,0.,1.));
#1218=DIRECTION('center_axis',(-1.,-4.95266776784531E-16,0.));
#1219=DIRECTION('ref_axis',(4.95266776784531E-16,-1.,0.));
#1220=DIRECTION('',(0.,0.,-1.));
#1221=DIRECTION('',(4.95266776784531E-16,-1.,0.));
#1222=DIRECTION('center_axis',(0.,0.,1.));
#1223=DIRECTION('ref_axis',(-0.707106781186548,-0.707106781186548,0.));
#1224=DIRECTION('center_axis',(0.,0.,-1.));
#1225=DIRECTION('ref_axis',(-0.707106781186548,-0.707106781186548,0.));
#1226=DIRECTION('',(0.,0.,1.));
#1227=DIRECTION('center_axis',(0.,-1.,0.));
#1228=DIRECTION('ref_axis',(1.,0.,0.));
#1229=DIRECTION('',(0.,0.,-1.));
#1230=DIRECTION('',(1.,0.,0.));
#1231=DIRECTION('center_axis',(0.,0.,1.));
#1232=DIRECTION('ref_axis',(0.707106781186548,0.707106781186548,0.));
#1233=DIRECTION('',(0.,0.,1.));
#1234=DIRECTION('center_axis',(0.,0.,1.));
#1235=DIRECTION('ref_axis',(0.707106781186548,0.707106781186548,0.));
#1236=DIRECTION('center_axis',(-1.,0.,0.));
#1237=DIRECTION('ref_axis',(0.,-1.,0.));
#1238=DIRECTION('',(0.,0.,-1.));
#1239=DIRECTION('',(0.,-1.,0.));
#1240=DIRECTION('center_axis',(0.,0.,1.));
#1241=DIRECTION('ref_axis',(0.707106781186548,-0.707106781186548,0.));
#1242=DIRECTION('',(0.,0.,1.));
#1243=DIRECTION('center_axis',(0.,0.,1.));
#1244=DIRECTION('ref_axis',(0.707106781186548,-0.707106781186548,0.));
#1245=DIRECTION('center_axis',(-7.0490350769846E-16,1.,0.));
#1246=DIRECTION('ref_axis',(-1.,-7.0490350769846E-16,0.));
#1247=DIRECTION('',(0.,0.,-1.));
#1248=DIRECTION('',(-1.,-7.0490350769846E-16,0.));
#1249=DIRECTION('center_axis',(0.,0.,1.));
#1250=DIRECTION('ref_axis',(-0.707106781186549,0.707106781186546,0.));
#1251=DIRECTION('center_axis',(0.,0.,-1.));
#1252=DIRECTION('ref_axis',(-0.707106781186549,0.707106781186546,0.));
#1253=DIRECTION('',(0.,0.,1.));
#1254=DIRECTION('center_axis',(-1.,2.49488320140463E-16,0.));
#1255=DIRECTION('ref_axis',(-2.49488320140463E-16,-1.,0.));
#1256=DIRECTION('',(0.,0.,-1.));
#1257=DIRECTION('',(-2.49488320140463E-16,-1.,0.));
#1258=DIRECTION('center_axis',(0.,0.,1.));
#1259=DIRECTION('ref_axis',(-0.707106781186543,-0.707106781186553,0.));
#1260=DIRECTION('center_axis',(0.,0.,-1.));
#1261=DIRECTION('ref_axis',(-0.707106781186543,-0.707106781186553,0.));
#1262=DIRECTION('',(0.,0.,1.));
#1263=DIRECTION('center_axis',(-1.50699447262179E-16,-1.,0.));
#1264=DIRECTION('ref_axis',(1.,-1.50699447262179E-16,0.));
#1265=DIRECTION('',(0.,0.,-1.));
#1266=DIRECTION('',(1.,-1.50699447262179E-16,0.));
#1267=DIRECTION('center_axis',(0.,0.,1.));
#1268=DIRECTION('ref_axis',(0.707106781186548,0.707106781186548,0.));
#1269=DIRECTION('center_axis',(0.,0.,-1.));
#1270=DIRECTION('ref_axis',(0.707106781186548,0.707106781186548,0.));
#1271=DIRECTION('',(0.,0.,-1.));
#1272=DIRECTION('',(0.,0.,1.));
#1273=DIRECTION('center_axis',(0.,1.,0.));
#1274=DIRECTION('ref_axis',(-1.,0.,0.));
#1275=DIRECTION('',(-1.,0.,0.));
#1276=DIRECTION('center_axis',(0.,0.,1.));
#1277=DIRECTION('ref_axis',(0.707106781186548,-0.707106781186548,0.));
#1278=DIRECTION('center_axis',(0.,0.,-1.));
#1279=DIRECTION('ref_axis',(0.707106781186548,-0.707106781186548,0.));
#1280=DIRECTION('',(0.,0.,1.));
#1281=DIRECTION('center_axis',(0.,0.,1.));
#1282=DIRECTION('ref_axis',(-1.,0.,0.));
#1283=DIRECTION('center_axis',(0.,0.,-1.));
#1284=DIRECTION('ref_axis',(-1.,0.,0.));
#1285=DIRECTION('',(0.,0.,-1.));
#1286=DIRECTION('center_axis',(0.,0.,1.));
#1287=DIRECTION('ref_axis',(-1.,0.,0.));
#1288=DIRECTION('center_axis',(0.,0.,-1.));
#1289=DIRECTION('ref_axis',(-1.,0.,0.));
#1290=DIRECTION('',(0.,0.,-1.));
#1291=DIRECTION('center_axis',(0.,0.,1.));
#1292=DIRECTION('ref_axis',(-1.,0.,0.));
#1293=DIRECTION('center_axis',(0.,0.,-1.));
#1294=DIRECTION('ref_axis',(-1.,0.,0.));
#1295=DIRECTION('',(0.,0.,-1.));
#1296=DIRECTION('center_axis',(0.,0.,1.));
#1297=DIRECTION('ref_axis',(-1.,0.,0.));
#1298=DIRECTION('center_axis',(0.,0.,-1.));
#1299=DIRECTION('ref_axis',(-1.,0.,0.));
#1300=DIRECTION('',(0.,0.,-1.));
#1301=DIRECTION('center_axis',(1.,0.,0.));
#1302=DIRECTION('ref_axis',(0.,1.,0.));
#1303=DIRECTION('',(0.,1.,0.));
#1304=DIRECTION('center_axis',(0.,0.,1.));
#1305=DIRECTION('ref_axis',(1.,0.,0.));
#1306=CARTESIAN_POINT('',(0.,0.,0.));
#1307=CARTESIAN_POINT('Origin',(36.4370721549443,-41.1,0.));
#1308=CARTESIAN_POINT('',(36.4370721549443,-41.6,0.));
#1309=CARTESIAN_POINT('',(35.9370721549443,-41.1,0.));
#1310=CARTESIAN_POINT('Origin',(36.4370721549443,-41.1,0.));
#1311=CARTESIAN_POINT('',(35.9370721549443,-41.1,0.8));
#1312=CARTESIAN_POINT('',(35.9370721549443,-41.1,0.));
#1313=CARTESIAN_POINT('',(36.4370721549443,-41.6,0.8));
#1314=CARTESIAN_POINT('Origin',(36.4370721549443,-41.1,0.8));
#1315=CARTESIAN_POINT('',(36.4370721549443,-41.6,0.));
#1316=CARTESIAN_POINT('Origin',(35.9370721549443,-41.6,0.));
#1317=CARTESIAN_POINT('',(35.9370721549443,-33.1499999999997,0.));
#1318=CARTESIAN_POINT('',(35.9370721549443,-41.6,0.));
#1319=CARTESIAN_POINT('',(35.9370721549443,-33.1499999999997,0.8));
#1320=CARTESIAN_POINT('',(35.9370721549443,-33.1499999999997,0.));
#1321=CARTESIAN_POINT('',(35.9370721549443,-41.6,0.8));
#1322=CARTESIAN_POINT('Origin',(36.4370721549443,-33.1499999999997,0.));
#1323=CARTESIAN_POINT('',(36.4370721549443,-32.6499999999997,0.));
#1324=CARTESIAN_POINT('Origin',(36.4370721549443,-33.1499999999997,0.));
#1325=CARTESIAN_POINT('',(36.4370721549443,-32.6499999999997,0.8));
#1326=CARTESIAN_POINT('',(36.4370721549443,-32.6499999999997,0.));
#1327=CARTESIAN_POINT('Origin',(36.4370721549443,-33.1499999999997,0.8));
#1328=CARTESIAN_POINT('Origin',(35.9370721549443,-32.6499999999997,0.));
#1329=CARTESIAN_POINT('',(38.0734905972147,-32.6499999999997,0.));
#1330=CARTESIAN_POINT('',(35.9370721549443,-32.6499999999997,0.));
#1331=CARTESIAN_POINT('',(38.0734905972147,-32.6499999999997,0.8));
#1332=CARTESIAN_POINT('',(38.0734905972147,-32.6499999999997,0.));
#1333=CARTESIAN_POINT('',(35.9370721549443,-32.6499999999997,0.8));
#1334=CARTESIAN_POINT('Origin',(38.0734905972147,-32.1499999999997,0.));
#1335=CARTESIAN_POINT('',(38.5734905972147,-32.1499999999997,0.8));
#1336=CARTESIAN_POINT('Origin',(38.0734905972147,-32.1499999999997,0.8));
#1337=CARTESIAN_POINT('',(38.5734905972147,-32.1499999999997,0.));
#1338=CARTESIAN_POINT('Origin',(38.0734905972147,-32.1499999999997,0.));
#1339=CARTESIAN_POINT('',(38.5734905972147,-32.1499999999997,0.));
#1340=CARTESIAN_POINT('Origin',(38.5734905972147,-32.6499999999997,0.));
#1341=CARTESIAN_POINT('',(38.5734905972147,-6.25000000000021,0.));
#1342=CARTESIAN_POINT('',(38.5734905972147,-32.6499999999997,0.));
#1343=CARTESIAN_POINT('',(38.5734905972147,-6.25000000000021,0.8));
#1344=CARTESIAN_POINT('',(38.5734905972147,-6.25000000000021,0.));
#1345=CARTESIAN_POINT('',(38.5734905972147,-32.6499999999997,0.8));
#1346=CARTESIAN_POINT('Origin',(29.6685360774714,-19.2000000000006,0.));
#1347=CARTESIAN_POINT('',(58.6370721549429,-41.6,0.));
#1348=CARTESIAN_POINT('',(59.1370721549429,-41.6,0.));
#1349=CARTESIAN_POINT('',(59.1370721549429,-42.1,0.));
#1350=CARTESIAN_POINT('Origin',(58.6370721549429,-42.1,0.));
#1351=CARTESIAN_POINT('',(59.1370721549429,-47.0000000000008,0.));
#1352=CARTESIAN_POINT('',(59.1370721549429,-47.5000000000008,0.));
#1353=CARTESIAN_POINT('',(58.6370721549429,-47.5000000000008,0.));
#1354=CARTESIAN_POINT('Origin',(58.6370721549429,-47.0000000000008,0.));
#1355=CARTESIAN_POINT('',(0.699999999998681,-47.5000000000008,0.));
#1356=CARTESIAN_POINT('',(0.199999999998681,-47.5000000000008,0.));
#1357=CARTESIAN_POINT('',(0.199999999998681,-47.0000000000008,0.));
#1358=CARTESIAN_POINT('Origin',(0.699999999998681,-47.0000000000008,0.));
#1359=CARTESIAN_POINT('',(0.199999999998683,-39.1,0.));
#1360=CARTESIAN_POINT('',(0.199999999998683,-38.6,0.));
#1361=CARTESIAN_POINT('',(0.699999999998684,-38.6,0.));
#1362=CARTESIAN_POINT('Origin',(0.699999999998684,-39.1,0.));
#1363=CARTESIAN_POINT('',(24.9000000000006,-38.6,0.));
#1364=CARTESIAN_POINT('',(25.4000000000006,-38.6,0.));
#1365=CARTESIAN_POINT('',(25.4000000000006,-38.1,0.));
#1366=CARTESIAN_POINT('Origin',(24.9000000000006,-38.1,0.));
#1367=CARTESIAN_POINT('',(25.4000000000006,-33.1500000000017,0.));
#1368=CARTESIAN_POINT('',(25.4000000000006,-32.6500000000017,0.));
#1369=CARTESIAN_POINT('',(24.9000000000006,-32.6500000000017,0.));
#1370=CARTESIAN_POINT('Origin',(24.9000000000006,-33.1500000000017,0.));
#1371=CARTESIAN_POINT('',(23.2635815577303,-32.6500000000017,0.));
#1372=CARTESIAN_POINT('',(22.7635815577303,-32.6500000000017,0.));
#1373=CARTESIAN_POINT('',(22.7635815577303,-32.1500000000017,0.));
#1374=CARTESIAN_POINT('Origin',(23.2635815577303,-32.1500000000017,0.));
#1375=CARTESIAN_POINT('',(22.7635815577303,-6.25000000000572,0.));
#1376=CARTESIAN_POINT('',(22.7635815577303,-5.75000000000572,0.));
#1377=CARTESIAN_POINT('',(23.2635815577303,-5.75000000000572,0.));
#1378=CARTESIAN_POINT('Origin',(23.2635815577303,-6.25000000000572,0.));
#1379=CARTESIAN_POINT('',(24.9000000000006,-5.75000000000572,0.));
#1380=CARTESIAN_POINT('',(25.4000000000006,-5.75000000000572,0.));
#1381=CARTESIAN_POINT('',(25.4000000000006,-5.25000000000572,0.));
#1382=CARTESIAN_POINT('Origin',(24.9000000000006,-5.25000000000572,0.));
#1383=CARTESIAN_POINT('',(25.4000000000006,2.69999999999995,0.));
#1384=CARTESIAN_POINT('',(25.4000000000006,3.19999999999995,0.));
#1385=CARTESIAN_POINT('',(24.9000000000006,3.19999999999995,0.));
#1386=CARTESIAN_POINT('Origin',(24.9000000000006,2.69999999999995,0.));
#1387=CARTESIAN_POINT('',(0.699999999999832,3.19999999999994,0.));
#1388=CARTESIAN_POINT('',(0.199999999999831,3.19999999999994,0.));
#1389=CARTESIAN_POINT('',(0.199999999999831,3.69999999999994,0.));
#1390=CARTESIAN_POINT('Origin',(0.699999999999831,3.69999999999994,0.));
#1391=CARTESIAN_POINT('',(0.199999999999831,8.59999999999959,0.));
#1392=CARTESIAN_POINT('',(0.199999999999831,9.09999999999959,0.));
#1393=CARTESIAN_POINT('',(0.699999999999825,9.09999999999959,0.));
#1394=CARTESIAN_POINT('Origin',(0.69999999999983,8.59999999999959,0.));
#1395=CARTESIAN_POINT('',(58.6370721549442,9.09999999999962,0.));
#1396=CARTESIAN_POINT('',(59.1370721549442,9.09999999999962,0.));
#1397=CARTESIAN_POINT('',(59.1370721549442,8.59999999999962,0.));
#1398=CARTESIAN_POINT('Origin',(58.6370721549442,8.59999999999962,0.));
#1399=CARTESIAN_POINT('',(59.1370721549442,0.699999999999753,0.));
#1400=CARTESIAN_POINT('',(59.1370721549442,0.199999999999753,0.));
#1401=CARTESIAN_POINT('',(58.6370721549442,0.199999999999753,0.));
#1402=CARTESIAN_POINT('Origin',(58.6370721549442,0.699999999999753,0.));
#1403=CARTESIAN_POINT('',(36.4370721549443,0.19999999999975,0.));
#1404=CARTESIAN_POINT('',(35.9370721549443,0.19999999999975,0.));
#1405=CARTESIAN_POINT('',(35.9370721549443,-0.30000000000025,0.));
#1406=CARTESIAN_POINT('Origin',(36.4370721549443,-0.30000000000025,0.));
#1407=CARTESIAN_POINT('',(35.9370721549443,-5.25000000000021,0.));
#1408=CARTESIAN_POINT('',(35.9370721549443,-5.75000000000021,0.));
#1409=CARTESIAN_POINT('',(36.4370721549443,-5.75000000000021,0.));
#1410=CARTESIAN_POINT('Origin',(36.4370721549443,-5.25000000000021,0.));
#1411=CARTESIAN_POINT('',(38.0734905972147,-5.75000000000021,0.));
#1412=CARTESIAN_POINT('',(38.5734905972147,-5.75000000000021,0.));
#1413=CARTESIAN_POINT('Origin',(38.0734905972147,-6.25000000000021,0.));
#1414=CARTESIAN_POINT('',(3.99999999999994,6.54999999999962,0.));
#1415=CARTESIAN_POINT('Origin',(2.74999999999994,6.54999999999962,0.));
#1416=CARTESIAN_POINT('',(3.99999999999861,-41.1499999999999,0.));
#1417=CARTESIAN_POINT('Origin',(2.74999999999861,-41.1499999999999,0.));
#1418=CARTESIAN_POINT('',(53.7370721549423,-43.4,0.));
#1419=CARTESIAN_POINT('Origin',(52.4870721549423,-43.4,0.));
#1420=CARTESIAN_POINT('',(57.8370721549443,2.74999999999998,0.));
#1421=CARTESIAN_POINT('Origin',(56.5870721549443,2.74999999999998,0.));
#1422=CARTESIAN_POINT('Origin',(38.0734905972147,-6.25000000000021,0.));
#1423=CARTESIAN_POINT('',(38.0734905972147,-5.75000000000021,0.8));
#1424=CARTESIAN_POINT('Origin',(38.0734905972147,-6.25000000000021,0.8));
#1425=CARTESIAN_POINT('',(38.0734905972147,-5.75000000000021,0.));
#1426=CARTESIAN_POINT('Origin',(38.5734905972147,-5.75000000000021,0.));
#1427=CARTESIAN_POINT('',(36.4370721549443,-5.75000000000021,0.8));
#1428=CARTESIAN_POINT('',(36.4370721549443,-5.75000000000021,0.));
#1429=CARTESIAN_POINT('',(38.5734905972147,-5.75000000000021,0.8));
#1430=CARTESIAN_POINT('Origin',(36.4370721549443,-5.25000000000021,0.));
#1431=CARTESIAN_POINT('',(35.9370721549443,-5.25000000000021,0.8));
#1432=CARTESIAN_POINT('',(35.9370721549443,-5.25000000000021,0.));
#1433=CARTESIAN_POINT('Origin',(36.4370721549443,-5.25000000000021,0.8));
#1434=CARTESIAN_POINT('Origin',(35.9370721549443,-5.75000000000021,0.));
#1435=CARTESIAN_POINT('',(35.9370721549443,-0.30000000000025,0.8));
#1436=CARTESIAN_POINT('',(35.9370721549443,-0.30000000000025,0.));
#1437=CARTESIAN_POINT('',(35.9370721549443,-5.75000000000021,0.8));
#1438=CARTESIAN_POINT('Origin',(36.4370721549443,-0.30000000000025,0.));
#1439=CARTESIAN_POINT('',(36.4370721549443,0.19999999999975,0.8));
#1440=CARTESIAN_POINT('',(36.4370721549443,0.19999999999975,0.));
#1441=CARTESIAN_POINT('Origin',(36.4370721549443,-0.30000000000025,0.8));
#1442=CARTESIAN_POINT('Origin',(35.9370721549443,0.19999999999975,0.));
#1443=CARTESIAN_POINT('',(58.6370721549442,0.199999999999753,0.8));
#1444=CARTESIAN_POINT('',(58.6370721549442,0.199999999999753,0.));
#1445=CARTESIAN_POINT('',(35.9370721549443,0.19999999999975,0.8));
#1446=CARTESIAN_POINT('Origin',(58.6370721549442,0.699999999999753,0.));
#1447=CARTESIAN_POINT('',(59.1370721549442,0.699999999999753,0.8));
#1448=CARTESIAN_POINT('Origin',(58.6370721549442,0.699999999999753,0.8));
#1449=CARTESIAN_POINT('',(59.1370721549442,0.699999999999753,0.));
#1450=CARTESIAN_POINT('Origin',(59.1370721549442,0.199999999999753,0.));
#1451=CARTESIAN_POINT('',(59.1370721549442,8.59999999999962,0.8));
#1452=CARTESIAN_POINT('',(59.1370721549442,8.59999999999962,0.));
#1453=CARTESIAN_POINT('',(59.1370721549442,0.199999999999753,0.8));
#1454=CARTESIAN_POINT('Origin',(58.6370721549442,8.59999999999962,0.));
#1455=CARTESIAN_POINT('',(58.6370721549442,9.09999999999962,0.8));
#1456=CARTESIAN_POINT('Origin',(58.6370721549442,8.59999999999962,0.8));
#1457=CARTESIAN_POINT('',(58.6370721549442,9.09999999999962,0.));
#1458=CARTESIAN_POINT('Origin',(59.1370721549442,9.09999999999962,0.));
#1459=CARTESIAN_POINT('',(0.699999999999825,9.09999999999959,0.8));
#1460=CARTESIAN_POINT('',(0.69999999999983,9.09999999999959,0.));
#1461=CARTESIAN_POINT('',(59.1370721549442,9.09999999999962,0.8));
#1462=CARTESIAN_POINT('Origin',(0.69999999999983,8.59999999999959,0.));
#1463=CARTESIAN_POINT('',(0.199999999999831,8.59999999999959,0.8));
#1464=CARTESIAN_POINT('Origin',(0.69999999999983,8.59999999999959,0.8));
#1465=CARTESIAN_POINT('',(0.199999999999831,8.59999999999959,0.));
#1466=CARTESIAN_POINT('Origin',(0.199999999999831,9.09999999999959,0.));
#1467=CARTESIAN_POINT('',(0.199999999999831,3.69999999999994,0.8));
#1468=CARTESIAN_POINT('',(0.199999999999831,3.69999999999994,0.));
#1469=CARTESIAN_POINT('',(0.199999999999831,9.09999999999959,0.8));
#1470=CARTESIAN_POINT('Origin',(0.699999999999831,3.69999999999994,0.));
#1471=CARTESIAN_POINT('',(0.699999999999832,3.19999999999994,0.8));
#1472=CARTESIAN_POINT('Origin',(0.699999999999831,3.69999999999994,0.8));
#1473=CARTESIAN_POINT('',(0.699999999999832,3.19999999999994,0.));
#1474=CARTESIAN_POINT('Origin',(0.199999999999831,3.19999999999994,0.));
#1475=CARTESIAN_POINT('',(24.9000000000006,3.19999999999995,0.8));
#1476=CARTESIAN_POINT('',(24.9000000000006,3.19999999999995,0.));
#1477=CARTESIAN_POINT('',(0.199999999999831,3.19999999999994,0.8));
#1478=CARTESIAN_POINT('Origin',(24.9000000000006,2.69999999999995,0.));
#1479=CARTESIAN_POINT('',(25.4000000000006,2.69999999999995,0.8));
#1480=CARTESIAN_POINT('',(25.4000000000006,2.69999999999995,0.));
#1481=CARTESIAN_POINT('Origin',(24.9000000000006,2.69999999999995,0.8));
#1482=CARTESIAN_POINT('Origin',(25.4000000000006,3.19999999999995,0.));
#1483=CARTESIAN_POINT('',(25.4000000000006,-5.25000000000572,0.8));
#1484=CARTESIAN_POINT('',(25.4000000000006,-5.25000000000572,0.));
#1485=CARTESIAN_POINT('',(25.4000000000006,3.19999999999995,0.8));
#1486=CARTESIAN_POINT('Origin',(24.9000000000006,-5.25000000000572,0.));
#1487=CARTESIAN_POINT('',(24.9000000000006,-5.75000000000572,0.8));
#1488=CARTESIAN_POINT('',(24.9000000000006,-5.75000000000572,0.));
#1489=CARTESIAN_POINT('Origin',(24.9000000000006,-5.25000000000572,0.8));
#1490=CARTESIAN_POINT('Origin',(25.4000000000006,-5.75000000000572,0.));
#1491=CARTESIAN_POINT('',(23.2635815577303,-5.75000000000572,0.8));
#1492=CARTESIAN_POINT('',(23.2635815577303,-5.75000000000572,0.));
#1493=CARTESIAN_POINT('',(25.4000000000006,-5.75000000000572,0.8));
#1494=CARTESIAN_POINT('Origin',(23.2635815577303,-6.25000000000572,0.));
#1495=CARTESIAN_POINT('',(22.7635815577303,-6.25000000000572,0.8));
#1496=CARTESIAN_POINT('Origin',(23.2635815577303,-6.25000000000572,0.8));
#1497=CARTESIAN_POINT('',(22.7635815577303,-6.25000000000572,0.));
#1498=CARTESIAN_POINT('Origin',(22.7635815577303,-5.75000000000572,0.));
#1499=CARTESIAN_POINT('',(22.7635815577303,-32.1500000000017,0.8));
#1500=CARTESIAN_POINT('',(22.7635815577303,-32.1500000000017,0.));
#1501=CARTESIAN_POINT('',(22.7635815577303,-5.75000000000572,0.8));
#1502=CARTESIAN_POINT('Origin',(23.2635815577303,-32.1500000000017,0.));
#1503=CARTESIAN_POINT('',(23.2635815577303,-32.6500000000017,0.8));
#1504=CARTESIAN_POINT('Origin',(23.2635815577303,-32.1500000000017,0.8));
#1505=CARTESIAN_POINT('',(23.2635815577303,-32.6500000000017,0.));
#1506=CARTESIAN_POINT('Origin',(22.7635815577303,-32.6500000000017,0.));
#1507=CARTESIAN_POINT('',(24.9000000000006,-32.6500000000017,0.8));
#1508=CARTESIAN_POINT('',(24.9000000000006,-32.6500000000017,0.));
#1509=CARTESIAN_POINT('',(22.7635815577303,-32.6500000000017,0.8));
#1510=CARTESIAN_POINT('Origin',(24.9000000000006,-33.1500000000017,0.));
#1511=CARTESIAN_POINT('',(25.4000000000006,-33.1500000000017,0.8));
#1512=CARTESIAN_POINT('',(25.4000000000006,-33.1500000000017,0.));
#1513=CARTESIAN_POINT('Origin',(24.9000000000006,-33.1500000000017,0.8));
#1514=CARTESIAN_POINT('Origin',(25.4000000000006,-32.6500000000017,0.));
#1515=CARTESIAN_POINT('',(25.4000000000006,-38.1,0.8));
#1516=CARTESIAN_POINT('',(25.4000000000006,-38.1,0.));
#1517=CARTESIAN_POINT('',(25.4000000000006,-32.6500000000017,0.8));
#1518=CARTESIAN_POINT('Origin',(24.9000000000006,-38.1,0.));
#1519=CARTESIAN_POINT('',(24.9000000000006,-38.6,0.8));
#1520=CARTESIAN_POINT('',(24.9000000000006,-38.6,0.));
#1521=CARTESIAN_POINT('Origin',(24.9000000000006,-38.1,0.8));
#1522=CARTESIAN_POINT('Origin',(25.4000000000006,-38.6,0.));
#1523=CARTESIAN_POINT('',(0.699999999998684,-38.6,0.8));
#1524=CARTESIAN_POINT('',(0.699999999998683,-38.6,0.));
#1525=CARTESIAN_POINT('',(25.4000000000006,-38.6,0.8));
#1526=CARTESIAN_POINT('Origin',(0.699999999998684,-39.1,0.));
#1527=CARTESIAN_POINT('',(0.199999999998683,-39.1,0.8));
#1528=CARTESIAN_POINT('Origin',(0.699999999998684,-39.1,0.8));
#1529=CARTESIAN_POINT('',(0.199999999998683,-39.1,0.));
#1530=CARTESIAN_POINT('Origin',(0.199999999998683,-38.6,0.));
#1531=CARTESIAN_POINT('',(0.199999999998681,-47.0000000000008,0.8));
#1532=CARTESIAN_POINT('',(0.199999999998681,-47.0000000000008,0.));
#1533=CARTESIAN_POINT('',(0.199999999998683,-38.6,0.8));
#1534=CARTESIAN_POINT('Origin',(0.699999999998681,-47.0000000000008,0.));
#1535=CARTESIAN_POINT('',(0.699999999998681,-47.5000000000008,0.8));
#1536=CARTESIAN_POINT('Origin',(0.699999999998681,-47.0000000000008,0.8));
#1537=CARTESIAN_POINT('',(0.699999999998681,-47.5000000000008,0.));
#1538=CARTESIAN_POINT('Origin',(0.199999999998681,-47.5000000000008,0.));
#1539=CARTESIAN_POINT('',(58.6370721549429,-47.5000000000008,0.8));
#1540=CARTESIAN_POINT('',(58.6370721549429,-47.5000000000008,0.));
#1541=CARTESIAN_POINT('',(0.199999999998681,-47.5000000000008,0.8));
#1542=CARTESIAN_POINT('Origin',(58.6370721549429,-42.1,0.));
#1543=CARTESIAN_POINT('',(58.6370721549429,-41.6,0.8));
#1544=CARTESIAN_POINT('',(59.1370721549429,-42.1,0.8));
#1545=CARTESIAN_POINT('Origin',(58.6370721549429,-42.1,0.8));
#1546=CARTESIAN_POINT('',(59.1370721549429,-42.1,0.));
#1547=CARTESIAN_POINT('',(58.6370721549429,-41.6,0.));
#1548=CARTESIAN_POINT('Origin',(59.1370721549429,-41.6,0.));
#1549=CARTESIAN_POINT('',(59.1370721549429,-41.6,0.8));
#1550=CARTESIAN_POINT('Origin',(58.6370721549429,-47.0000000000008,0.));
#1551=CARTESIAN_POINT('',(59.1370721549429,-47.0000000000008,0.8));
#1552=CARTESIAN_POINT('Origin',(58.6370721549429,-47.0000000000008,0.8));
#1553=CARTESIAN_POINT('',(59.1370721549429,-47.0000000000008,0.));
#1554=CARTESIAN_POINT('Origin',(56.5870721549443,2.74999999999998,0.));
#1555=CARTESIAN_POINT('',(57.8370721549443,2.74999999999998,0.8));
#1556=CARTESIAN_POINT('Origin',(56.5870721549443,2.74999999999998,0.8));
#1557=CARTESIAN_POINT('',(57.8370721549443,2.74999999999998,0.));
#1558=CARTESIAN_POINT('Origin',(52.4870721549423,-43.4,0.));
#1559=CARTESIAN_POINT('',(53.7370721549423,-43.4,0.8));
#1560=CARTESIAN_POINT('Origin',(52.4870721549423,-43.4,0.8));
#1561=CARTESIAN_POINT('',(53.7370721549423,-43.4,0.));
#1562=CARTESIAN_POINT('Origin',(2.74999999999861,-41.1499999999999,0.));
#1563=CARTESIAN_POINT('',(3.99999999999861,-41.1499999999999,0.8));
#1564=CARTESIAN_POINT('Origin',(2.74999999999861,-41.1499999999999,0.8));
#1565=CARTESIAN_POINT('',(3.99999999999861,-41.1499999999999,0.));
#1566=CARTESIAN_POINT('Origin',(2.74999999999994,6.54999999999962,0.));
#1567=CARTESIAN_POINT('',(3.99999999999994,6.54999999999962,0.8));
#1568=CARTESIAN_POINT('Origin',(2.74999999999994,6.54999999999962,0.8));
#1569=CARTESIAN_POINT('',(3.99999999999994,6.54999999999962,0.));
#1570=CARTESIAN_POINT('Origin',(59.1370721549429,-47.5000000000008,0.));
#1571=CARTESIAN_POINT('',(59.1370721549429,-47.5000000000008,0.8));
#1572=CARTESIAN_POINT('Origin',(29.6685360774714,-19.2000000000006,0.8));
#1573=UNCERTAINTY_MEASURE_WITH_UNIT(LENGTH_MEASURE(0.01),#1577,
'DISTANCE_ACCURACY_VALUE',
'Maximum model space distance between geometric entities at asserted c
onnectivities');
#1574=UNCERTAINTY_MEASURE_WITH_UNIT(LENGTH_MEASURE(0.01),#1577,
'DISTANCE_ACCURACY_VALUE',
'Maximum model space distance between geometric entities at asserted c
onnectivities');
#1575=(
GEOMETRIC_REPRESENTATION_CONTEXT(3)
GLOBAL_UNCERTAINTY_ASSIGNED_CONTEXT((#1573))
GLOBAL_UNIT_ASSIGNED_CONTEXT((#1577,#1579,#1580))
REPRESENTATION_CONTEXT('','3D')
);
#1576=(
GEOMETRIC_REPRESENTATION_CONTEXT(3)
GLOBAL_UNCERTAINTY_ASSIGNED_CONTEXT((#1574))
GLOBAL_UNIT_ASSIGNED_CONTEXT((#1577,#1579,#1580))
REPRESENTATION_CONTEXT('','3D')
);
#1577=(
LENGTH_UNIT()
NAMED_UNIT(*)
SI_UNIT(.MILLI.,.METRE.)
);
#1578=(
LENGTH_UNIT()
NAMED_UNIT(*)
SI_UNIT(.CENTI.,.METRE.)
);
#1579=(
NAMED_UNIT(*)
PLANE_ANGLE_UNIT()
SI_UNIT($,.RADIAN.)
);
#1580=(
NAMED_UNIT(*)
SI_UNIT($,.STERADIAN.)
SOLID_ANGLE_UNIT()
);
#1581=SHAPE_DEFINITION_REPRESENTATION(#1582,#1583);
#1582=PRODUCT_DEFINITION_SHAPE('',$,#1585);
#1583=SHAPE_REPRESENTATION('',(#937),#1575);
#1584=PRODUCT_DEFINITION_CONTEXT('part definition',#1589,'design');
#1585=PRODUCT_DEFINITION('PCB_InterfaceBoard','PCB_InterfaceBoard',#1586,
#1584);
#1586=PRODUCT_DEFINITION_FORMATION('',$,#1591);
#1587=PRODUCT_RELATED_PRODUCT_CATEGORY('PCB_InterfaceBoard',
'PCB_InterfaceBoard',(#1591));
#1588=APPLICATION_PROTOCOL_DEFINITION('international standard',
'automotive_design',2009,#1589);
#1589=APPLICATION_CONTEXT(
'Core Data for Automotive Mechanical Design Process');
#1590=PRODUCT_CONTEXT('part definition',#1589,'mechanical');
#1591=PRODUCT('PCB_InterfaceBoard','PCB_InterfaceBoard',$,(#1590));
#1592=PRESENTATION_STYLE_ASSIGNMENT((#1593));
#1593=SURFACE_STYLE_USAGE(.BOTH.,#1596);
#1594=SURFACE_STYLE_RENDERING_WITH_PROPERTIES($,#1600,(#1595));
#1595=SURFACE_STYLE_TRANSPARENT(0.);
#1596=SURFACE_SIDE_STYLE('',(#1597,#1594));
#1597=SURFACE_STYLE_FILL_AREA(#1598);
#1598=FILL_AREA_STYLE('',(#1599));
#1599=FILL_AREA_STYLE_COLOUR('',#1600);
#1600=COLOUR_RGB('',0.184313725490196,0.380392156862745,0.176470588235294);
ENDSEC;
END-ISO-10303-21;
